%TF.GenerationSoftware,KiCad,Pcbnew,(5.1.7)-1*%
%TF.CreationDate,2020-10-22T11:39:08-07:00*%
%TF.ProjectId,Reader,52656164-6572-42e6-9b69-6361645f7063,0.0.01*%
%TF.SameCoordinates,Original*%
%TF.FileFunction,Soldermask,Bot*%
%TF.FilePolarity,Negative*%
%FSLAX46Y46*%
G04 Gerber Fmt 4.6, Leading zero omitted, Abs format (unit mm)*
G04 Created by KiCad (PCBNEW (5.1.7)-1) date 2020-10-22 11:39:08*
%MOMM*%
%LPD*%
G01*
G04 APERTURE LIST*
%ADD10C,1.117600*%
%ADD11C,1.549400*%
%ADD12C,3.302000*%
%ADD13O,1.600000X1.600000*%
%ADD14R,1.600000X1.600000*%
%ADD15R,1.295400X1.295400*%
%ADD16C,1.295400*%
%ADD17C,2.032000*%
G04 APERTURE END LIST*
D10*
%TO.C,C_MM_1*%
X187506101Y-100872801D03*
X190006101Y-100872801D03*
%TD*%
D11*
%TO.C,CN1*%
X93435301Y-55651401D03*
X95725301Y-55651401D03*
X98015302Y-55651401D03*
X100305299Y-55651401D03*
X102595300Y-55651401D03*
X94580302Y-53111401D03*
X96870300Y-53111401D03*
X99160301Y-53111401D03*
X101450301Y-53111401D03*
X103740302Y-53111401D03*
X93435301Y-50571401D03*
X95725301Y-50571401D03*
X98015302Y-50571401D03*
X100305299Y-50571401D03*
X102595300Y-50571401D03*
D12*
X85790301Y-53111401D03*
X110780301Y-53111401D03*
%TD*%
D13*
%TO.C,D_J1850_1*%
X144305001Y-67445001D03*
D14*
X136685001Y-67445001D03*
%TD*%
%TO.C,D_J1850_2*%
X125915001Y-70995001D03*
D13*
X133535001Y-70995001D03*
%TD*%
D14*
%TO.C,D_J1850_3*%
X125915001Y-67445001D03*
D13*
X133535001Y-67445001D03*
%TD*%
D14*
%TO.C,D_VS_1*%
X167435001Y-92675001D03*
D13*
X175055001Y-92675001D03*
%TD*%
%TO.C,D_VS_2*%
X175055001Y-89125001D03*
D14*
X167435001Y-89125001D03*
%TD*%
D15*
%TO.C,IC7*%
X83527901Y-68722701D03*
D16*
X83527901Y-71262701D03*
X83527901Y-73802701D03*
X83527901Y-76342701D03*
X83527901Y-78882701D03*
X83527901Y-81422701D03*
X83527901Y-83962701D03*
X91147901Y-83962701D03*
X91147901Y-81422701D03*
X91147901Y-78882701D03*
X91147901Y-76342701D03*
X91147901Y-73802701D03*
X91147901Y-71262701D03*
X91147901Y-68722701D03*
%TD*%
D17*
%TO.C,J_CN_1*%
X123739201Y-37922201D03*
X118739201Y-37922201D03*
%TD*%
%TO.C,J_CN_2*%
X118739201Y-43012201D03*
X123739201Y-43012201D03*
%TD*%
%TO.C,J_HST_1*%
X182429201Y-37922201D03*
X177429201Y-37922201D03*
%TD*%
%TO.C,J_HST_2*%
X182429201Y-43012201D03*
X177429201Y-43012201D03*
%TD*%
%TO.C,J_HST_3*%
X189969201Y-37922201D03*
X194969201Y-37922201D03*
%TD*%
%TO.C,J_HST_4*%
X177429201Y-48102201D03*
X182429201Y-48102201D03*
%TD*%
%TO.C,J_HST_5*%
X194969201Y-43012201D03*
X189969201Y-43012201D03*
%TD*%
%TO.C,J_HST_6*%
X189969201Y-48102201D03*
X194969201Y-48102201D03*
%TD*%
%TO.C,J_PS_1*%
X163079201Y-81262201D03*
X168079201Y-81262201D03*
%TD*%
%TO.C,J_PS_2*%
X168079201Y-76172201D03*
X163079201Y-76172201D03*
%TD*%
%TO.C,J_PSW_1*%
X98809201Y-93642201D03*
X103809201Y-93642201D03*
%TD*%
%TO.C,J_PSW_2*%
X86269201Y-93642201D03*
X91269201Y-93642201D03*
%TD*%
%TO.C,J_PSW_3*%
X91269201Y-98732201D03*
X86269201Y-98732201D03*
%TD*%
%TO.C,J_STN_1*%
X143359201Y-37922201D03*
X138359201Y-37922201D03*
%TD*%
%TO.C,J_STN_3*%
X150899201Y-37922201D03*
X155899201Y-37922201D03*
%TD*%
%TO.C,J_STN_RST1*%
X138359201Y-43012201D03*
X143359201Y-43012201D03*
%TD*%
%TO.C,J_SWCAN_1*%
X123159201Y-93642201D03*
X118159201Y-93642201D03*
%TD*%
M02*
