%TF.GenerationSoftware,KiCad,Pcbnew,(5.1.7)-1*%
%TF.CreationDate,2020-11-30T00:01:55-08:00*%
%TF.ProjectId,Reader,52656164-6572-42e6-9b69-6361645f7063,0.0.05*%
%TF.SameCoordinates,Original*%
%TF.FileFunction,Soldermask,Top*%
%TF.FilePolarity,Negative*%
%FSLAX46Y46*%
G04 Gerber Fmt 4.6, Leading zero omitted, Abs format (unit mm)*
G04 Created by KiCad (PCBNEW (5.1.7)-1) date 2020-11-30 00:01:55*
%MOMM*%
%LPD*%
G01*
G04 APERTURE LIST*
%ADD10R,1.100000X1.000000*%
%ADD11O,1.700000X1.700000*%
%ADD12R,1.700000X1.700000*%
%ADD13R,0.482600X1.219200*%
%ADD14R,0.790000X0.930000*%
%ADD15C,3.302000*%
%ADD16C,1.549400*%
%ADD17R,1.000000X1.100000*%
%ADD18R,0.930000X1.010000*%
%ADD19R,1.299998X1.799996*%
%ADD20R,1.010000X0.930000*%
%ADD21R,1.799996X1.299998*%
%ADD22R,1.219200X2.997200*%
%ADD23R,1.219200X0.482600*%
%ADD24R,1.003300X0.990600*%
%ADD25R,0.990600X1.003300*%
%ADD26R,1.000000X0.600000*%
%ADD27R,0.568000X1.309599*%
%ADD28R,1.309599X0.568000*%
%ADD29R,0.900000X0.800000*%
%ADD30R,0.600000X1.000000*%
%ADD31R,1.004799X0.568000*%
%ADD32R,0.930000X0.790000*%
%ADD33R,0.980000X0.810000*%
%ADD34R,0.810000X0.980000*%
%ADD35R,0.800000X0.700000*%
%ADD36R,1.470000X1.040000*%
%ADD37R,1.680000X1.080000*%
%ADD38R,1.080000X1.680000*%
%ADD39R,0.700000X0.800000*%
%ADD40R,0.920000X1.380000*%
%ADD41R,1.549400X0.990600*%
%ADD42R,0.990600X1.549400*%
%ADD43R,1.295400X1.295400*%
%ADD44C,1.295400*%
%ADD45R,5.000000X5.000000*%
%ADD46R,2.000000X0.900000*%
%ADD47R,0.900000X2.000000*%
%ADD48R,0.858799X0.305600*%
%ADD49R,1.600200X2.413000*%
%ADD50R,0.350000X0.600000*%
%ADD51R,0.600000X0.350000*%
%ADD52R,1.670000X0.600000*%
%ADD53R,6.450000X6.450000*%
%ADD54R,0.757199X0.254800*%
%ADD55R,1.803400X2.590800*%
%ADD56R,0.900000X1.100000*%
G04 APERTURE END LIST*
D10*
%TO.C,C_STN_4*%
X84240000Y-115824000D03*
X85940000Y-115824000D03*
%TD*%
D11*
%TO.C,J_ESP_1*%
X71120000Y-106680000D03*
X71120000Y-104140000D03*
X71120000Y-101600000D03*
X71120000Y-99060000D03*
X71120000Y-96520000D03*
X71120000Y-93980000D03*
X71120000Y-91440000D03*
X71120000Y-88900000D03*
X71120000Y-86360000D03*
X71120000Y-83820000D03*
X71120000Y-81280000D03*
X71120000Y-78740000D03*
X71120000Y-76200000D03*
X71120000Y-73660000D03*
X71120000Y-71120000D03*
X71120000Y-68580000D03*
X71120000Y-66040000D03*
X71120000Y-63500000D03*
X71120000Y-60960000D03*
D12*
X71120000Y-58420000D03*
%TD*%
D13*
%TO.C,D_VS_1*%
X72644000Y-133972300D03*
X72644000Y-136156700D03*
%TD*%
D12*
%TO.C,J_ESP_2*%
X127508000Y-58420000D03*
D11*
X127508000Y-60960000D03*
X127508000Y-63500000D03*
X127508000Y-66040000D03*
X127508000Y-68580000D03*
X127508000Y-71120000D03*
X127508000Y-73660000D03*
X127508000Y-76200000D03*
X127508000Y-78740000D03*
X127508000Y-81280000D03*
X127508000Y-83820000D03*
X127508000Y-86360000D03*
X127508000Y-88900000D03*
X127508000Y-91440000D03*
X127508000Y-93980000D03*
X127508000Y-96520000D03*
X127508000Y-99060000D03*
X127508000Y-101600000D03*
X127508000Y-104140000D03*
X127508000Y-106680000D03*
%TD*%
D14*
%TO.C,R_COMP_7*%
X112718000Y-121158000D03*
X114358000Y-121158000D03*
%TD*%
D15*
%TO.C,U_CN_1*%
X111555000Y-152654000D03*
X86565000Y-152654000D03*
D16*
X103369999Y-150114000D03*
X101079998Y-150114000D03*
X98790001Y-150114000D03*
X96500000Y-150114000D03*
X94210000Y-150114000D03*
X104515001Y-152654000D03*
X102225000Y-152654000D03*
X99935000Y-152654000D03*
X97644999Y-152654000D03*
X95355001Y-152654000D03*
X103369999Y-155194000D03*
X101079998Y-155194000D03*
X98790001Y-155194000D03*
X96500000Y-155194000D03*
X94210000Y-155194000D03*
%TD*%
D10*
%TO.C,C_ESP_2*%
X117944000Y-81534000D03*
X116244000Y-81534000D03*
%TD*%
D17*
%TO.C,C_HSCAN_3*%
X76962000Y-83478000D03*
X76962000Y-85178000D03*
%TD*%
D18*
%TO.C,C_IMU_1*%
X78740000Y-68273000D03*
X78740000Y-66855000D03*
%TD*%
%TO.C,C_IMU_2*%
X84328000Y-72443000D03*
X84328000Y-73861000D03*
%TD*%
D17*
%TO.C,C_J1850_1*%
X83566000Y-120142000D03*
X83566000Y-118442000D03*
%TD*%
D19*
%TO.C,C_PS_2*%
X123827998Y-151384000D03*
X121028002Y-151384000D03*
%TD*%
%TO.C,C_PS_3*%
X79756000Y-154432000D03*
X76956004Y-154432000D03*
%TD*%
D17*
%TO.C,C_STN_1*%
X95504000Y-93892000D03*
X95504000Y-95592000D03*
%TD*%
D20*
%TO.C,C_STN_2*%
X111813000Y-98044000D03*
X113231000Y-98044000D03*
%TD*%
%TO.C,C_STN_3*%
X111813000Y-105410000D03*
X113231000Y-105410000D03*
%TD*%
D17*
%TO.C,C_STN_5*%
X108585000Y-105942500D03*
X108585000Y-104242500D03*
%TD*%
D10*
%TO.C,C_STN_6*%
X90971000Y-122809000D03*
X92671000Y-122809000D03*
%TD*%
D21*
%TO.C,C_VR1_1*%
X119634000Y-154556002D03*
X119634000Y-157355998D03*
%TD*%
D17*
%TO.C,C_VR1_2*%
X118618000Y-161011500D03*
X118618000Y-162711500D03*
%TD*%
%TO.C,C_VR1_3*%
X128016000Y-164680000D03*
X128016000Y-162980000D03*
%TD*%
D21*
%TO.C,C_VR2_1*%
X74930000Y-164779502D03*
X74930000Y-167579498D03*
%TD*%
D17*
%TO.C,C_VR2_2*%
X70104000Y-161378000D03*
X70104000Y-159678000D03*
%TD*%
D10*
%TO.C,C_VR2_3*%
X79795000Y-158559500D03*
X81495000Y-158559500D03*
%TD*%
%TO.C,C_VS_1*%
X80606000Y-131254500D03*
X78906000Y-131254500D03*
%TD*%
D22*
%TO.C,CP_ESP_1*%
X89535000Y-70015100D03*
X89535000Y-64604900D03*
%TD*%
%TO.C,CP_STN_1*%
G36*
G01*
X87164000Y-105779500D02*
X86064000Y-105779500D01*
G75*
G02*
X85814000Y-105529500I0J250000D01*
G01*
X85814000Y-103429500D01*
G75*
G02*
X86064000Y-103179500I250000J0D01*
G01*
X87164000Y-103179500D01*
G75*
G02*
X87414000Y-103429500I0J-250000D01*
G01*
X87414000Y-105529500D01*
G75*
G02*
X87164000Y-105779500I-250000J0D01*
G01*
G37*
G36*
G01*
X87164000Y-102179500D02*
X86064000Y-102179500D01*
G75*
G02*
X85814000Y-101929500I0J250000D01*
G01*
X85814000Y-99829500D01*
G75*
G02*
X86064000Y-99579500I250000J0D01*
G01*
X87164000Y-99579500D01*
G75*
G02*
X87414000Y-99829500I0J-250000D01*
G01*
X87414000Y-101929500D01*
G75*
G02*
X87164000Y-102179500I-250000J0D01*
G01*
G37*
%TD*%
D23*
%TO.C,D_J1850_1*%
X111810800Y-132778500D03*
X113995200Y-132778500D03*
%TD*%
D13*
%TO.C,D_J1850_2*%
X118364000Y-138442700D03*
X118364000Y-136258300D03*
%TD*%
D23*
%TO.C,D_J1850_3*%
X119075200Y-141668500D03*
X116890800Y-141668500D03*
%TD*%
%TO.C,D_VS_2*%
X76885800Y-136334500D03*
X79070200Y-136334500D03*
%TD*%
D12*
%TO.C,J_CN_1*%
X122936000Y-145796000D03*
D11*
X120396000Y-145796000D03*
X117856000Y-145796000D03*
X115316000Y-145796000D03*
X112776000Y-145796000D03*
X110236000Y-145796000D03*
X107696000Y-145796000D03*
X105156000Y-145796000D03*
X102616000Y-145796000D03*
X100076000Y-145796000D03*
X97536000Y-145796000D03*
X94996000Y-145796000D03*
X92456000Y-145796000D03*
X89916000Y-145796000D03*
X87376000Y-145796000D03*
X84836000Y-145796000D03*
X82296000Y-145796000D03*
X79756000Y-145796000D03*
X77216000Y-145796000D03*
X74676000Y-145796000D03*
%TD*%
%TO.C,J_ESP_3*%
X112204500Y-85979000D03*
X109664500Y-85979000D03*
X107124500Y-85979000D03*
X104584500Y-85979000D03*
X102044500Y-85979000D03*
X99504500Y-85979000D03*
X96964500Y-85979000D03*
D12*
X94424500Y-85979000D03*
%TD*%
%TO.C,J_PS_1*%
X107061000Y-142176500D03*
D11*
X104521000Y-142176500D03*
X101981000Y-142176500D03*
X99441000Y-142176500D03*
X96901000Y-142176500D03*
X94361000Y-142176500D03*
X91821000Y-142176500D03*
X89281000Y-142176500D03*
%TD*%
D12*
%TO.C,J_STN_1*%
X92075000Y-91440000D03*
D11*
X94615000Y-91440000D03*
%TD*%
D12*
%TO.C,J_STN_2*%
X82423000Y-91249500D03*
D11*
X79883000Y-91249500D03*
%TD*%
%TO.C,J_STN_4*%
X102235000Y-91440000D03*
D12*
X99695000Y-91440000D03*
%TD*%
%TO.C,J_STN_5*%
X105981500Y-103949500D03*
D11*
X105981500Y-106489500D03*
%TD*%
%TO.C,J_STN_6*%
X101409500Y-116205000D03*
D12*
X101409500Y-113665000D03*
%TD*%
D24*
%TO.C,L_VR1*%
X122916950Y-165544500D03*
X120923050Y-165544500D03*
%TD*%
D25*
%TO.C,L_VR2*%
X72517000Y-156254450D03*
X72517000Y-154260550D03*
%TD*%
%TO.C,LED_ESP_1*%
G36*
G01*
X120046000Y-83309750D02*
X120046000Y-83822250D01*
G75*
G02*
X119827250Y-84041000I-218750J0D01*
G01*
X119389750Y-84041000D01*
G75*
G02*
X119171000Y-83822250I0J218750D01*
G01*
X119171000Y-83309750D01*
G75*
G02*
X119389750Y-83091000I218750J0D01*
G01*
X119827250Y-83091000D01*
G75*
G02*
X120046000Y-83309750I0J-218750D01*
G01*
G37*
G36*
G01*
X121621000Y-83309750D02*
X121621000Y-83822250D01*
G75*
G02*
X121402250Y-84041000I-218750J0D01*
G01*
X120964750Y-84041000D01*
G75*
G02*
X120746000Y-83822250I0J218750D01*
G01*
X120746000Y-83309750D01*
G75*
G02*
X120964750Y-83091000I218750J0D01*
G01*
X121402250Y-83091000D01*
G75*
G02*
X121621000Y-83309750I0J-218750D01*
G01*
G37*
%TD*%
%TO.C,LED_STN_1*%
G36*
G01*
X76853500Y-110360750D02*
X76853500Y-110873250D01*
G75*
G02*
X76634750Y-111092000I-218750J0D01*
G01*
X76197250Y-111092000D01*
G75*
G02*
X75978500Y-110873250I0J218750D01*
G01*
X75978500Y-110360750D01*
G75*
G02*
X76197250Y-110142000I218750J0D01*
G01*
X76634750Y-110142000D01*
G75*
G02*
X76853500Y-110360750I0J-218750D01*
G01*
G37*
G36*
G01*
X75278500Y-110360750D02*
X75278500Y-110873250D01*
G75*
G02*
X75059750Y-111092000I-218750J0D01*
G01*
X74622250Y-111092000D01*
G75*
G02*
X74403500Y-110873250I0J218750D01*
G01*
X74403500Y-110360750D01*
G75*
G02*
X74622250Y-110142000I218750J0D01*
G01*
X75059750Y-110142000D01*
G75*
G02*
X75278500Y-110360750I0J-218750D01*
G01*
G37*
%TD*%
%TO.C,LED_STN_2*%
G36*
G01*
X75088000Y-103883750D02*
X75088000Y-104396250D01*
G75*
G02*
X74869250Y-104615000I-218750J0D01*
G01*
X74431750Y-104615000D01*
G75*
G02*
X74213000Y-104396250I0J218750D01*
G01*
X74213000Y-103883750D01*
G75*
G02*
X74431750Y-103665000I218750J0D01*
G01*
X74869250Y-103665000D01*
G75*
G02*
X75088000Y-103883750I0J-218750D01*
G01*
G37*
G36*
G01*
X76663000Y-103883750D02*
X76663000Y-104396250D01*
G75*
G02*
X76444250Y-104615000I-218750J0D01*
G01*
X76006750Y-104615000D01*
G75*
G02*
X75788000Y-104396250I0J218750D01*
G01*
X75788000Y-103883750D01*
G75*
G02*
X76006750Y-103665000I218750J0D01*
G01*
X76444250Y-103665000D01*
G75*
G02*
X76663000Y-103883750I0J-218750D01*
G01*
G37*
%TD*%
%TO.C,LED_STN_3*%
G36*
G01*
X76663000Y-107439750D02*
X76663000Y-107952250D01*
G75*
G02*
X76444250Y-108171000I-218750J0D01*
G01*
X76006750Y-108171000D01*
G75*
G02*
X75788000Y-107952250I0J218750D01*
G01*
X75788000Y-107439750D01*
G75*
G02*
X76006750Y-107221000I218750J0D01*
G01*
X76444250Y-107221000D01*
G75*
G02*
X76663000Y-107439750I0J-218750D01*
G01*
G37*
G36*
G01*
X75088000Y-107439750D02*
X75088000Y-107952250D01*
G75*
G02*
X74869250Y-108171000I-218750J0D01*
G01*
X74431750Y-108171000D01*
G75*
G02*
X74213000Y-107952250I0J218750D01*
G01*
X74213000Y-107439750D01*
G75*
G02*
X74431750Y-107221000I218750J0D01*
G01*
X74869250Y-107221000D01*
G75*
G02*
X75088000Y-107439750I0J-218750D01*
G01*
G37*
%TD*%
D26*
%TO.C,Q_HSCAN_1*%
X82670000Y-79248000D03*
X84970000Y-78298000D03*
X84970000Y-80198000D03*
%TD*%
D27*
%TO.C,Q_ISO_1*%
X121412000Y-96316800D03*
X120459500Y-94310200D03*
X122364500Y-94310200D03*
%TD*%
D28*
%TO.C,Q_ISO_2*%
X120662700Y-89725500D03*
X120662700Y-91630500D03*
X122669300Y-90678000D03*
%TD*%
D29*
%TO.C,Q_ISO_3*%
X114792000Y-95313500D03*
X112792000Y-96263500D03*
X112792000Y-94363500D03*
%TD*%
%TO.C,Q_ISO_4*%
X112792000Y-89283500D03*
X112792000Y-91183500D03*
X114792000Y-90233500D03*
%TD*%
D30*
%TO.C,Q_J1850_1*%
X78486000Y-120657000D03*
X77536000Y-118357000D03*
X79436000Y-118357000D03*
%TD*%
%TO.C,Q_J1850_2*%
X107442000Y-133660500D03*
X108392000Y-135960500D03*
X106492000Y-135960500D03*
%TD*%
D31*
%TO.C,Q_J1850_3*%
X108966000Y-127256499D03*
X108966000Y-129156501D03*
X111252000Y-128206500D03*
%TD*%
D30*
%TO.C,Q_J1850_4*%
X123124000Y-135184500D03*
X121224000Y-135184500D03*
X122174000Y-137484500D03*
%TD*%
D26*
%TO.C,Q_PS_1*%
X83940000Y-132971500D03*
X83940000Y-134871500D03*
X86240000Y-133921500D03*
%TD*%
%TO.C,Q_PS_2*%
X96400000Y-134744500D03*
X96400000Y-132844500D03*
X94100000Y-133794500D03*
%TD*%
%TO.C,Q_PS_3*%
X99180000Y-132844500D03*
X99180000Y-134744500D03*
X101480000Y-133794500D03*
%TD*%
%TO.C,Q_PS_4*%
X88639000Y-133794500D03*
X90939000Y-132844500D03*
X90939000Y-134744500D03*
%TD*%
D32*
%TO.C,R_COMP_1*%
X112839500Y-115385000D03*
X112839500Y-117025000D03*
%TD*%
D14*
%TO.C,R_COMP_2*%
X111263000Y-118808500D03*
X112903000Y-118808500D03*
%TD*%
D32*
%TO.C,R_COMP_3*%
X112776000Y-111691000D03*
X112776000Y-110051000D03*
%TD*%
D14*
%TO.C,R_COMP_6*%
X114369000Y-129476500D03*
X116009000Y-129476500D03*
%TD*%
%TO.C,R_COMP_8*%
X119565000Y-125920500D03*
X117925000Y-125920500D03*
%TD*%
%TO.C,R_COMP_9*%
X122370000Y-125920500D03*
X124010000Y-125920500D03*
%TD*%
D32*
%TO.C,R_COMP_10*%
X127698500Y-117480500D03*
X127698500Y-119120500D03*
%TD*%
D14*
%TO.C,R_ESP_1*%
X74745000Y-57785000D03*
X76385000Y-57785000D03*
%TD*%
D33*
%TO.C,R_ESP_2*%
X79756000Y-62983000D03*
X79756000Y-64525000D03*
%TD*%
D34*
%TO.C,R_ESP_3*%
X117230000Y-83566000D03*
X115688000Y-83566000D03*
%TD*%
D32*
%TO.C,R_IMU_1*%
X74549000Y-71570000D03*
X74549000Y-73210000D03*
%TD*%
%TO.C,R_IMU_2*%
X77089000Y-73210000D03*
X77089000Y-71570000D03*
%TD*%
D35*
%TO.C,R_ISO_1*%
X108966000Y-96390201D03*
X108966000Y-94790201D03*
%TD*%
%TO.C,R_ISO_2*%
X108966000Y-89370000D03*
X108966000Y-90970000D03*
%TD*%
D36*
%TO.C,R_ISO_3*%
X117602000Y-94373500D03*
X117602000Y-96253500D03*
%TD*%
%TO.C,R_ISO_4*%
X117602000Y-91173500D03*
X117602000Y-89293500D03*
%TD*%
D14*
%TO.C,R_J1850_1*%
X124010000Y-128841500D03*
X122370000Y-128841500D03*
%TD*%
D37*
%TO.C,R_J1850_3*%
X79121000Y-126032000D03*
X79121000Y-123142000D03*
%TD*%
%TO.C,R_J1850_4*%
X75946000Y-126032000D03*
X75946000Y-123142000D03*
%TD*%
D32*
%TO.C,R_J1850_5*%
X118237000Y-131958500D03*
X118237000Y-133598500D03*
%TD*%
D14*
%TO.C,R_J1850_7*%
X124010000Y-131000500D03*
X122370000Y-131000500D03*
%TD*%
D32*
%TO.C,R_J1850_8*%
X122174000Y-141599500D03*
X122174000Y-139959500D03*
%TD*%
D14*
%TO.C,R_PS_1*%
X91255000Y-138366500D03*
X92895000Y-138366500D03*
%TD*%
D32*
%TO.C,R_PS_2*%
X86106000Y-139504000D03*
X86106000Y-137864000D03*
%TD*%
D38*
%TO.C,R_STN_1*%
X81407000Y-110553500D03*
X78517000Y-110553500D03*
%TD*%
%TO.C,R_STN_2*%
X78565000Y-104203500D03*
X81455000Y-104203500D03*
%TD*%
%TO.C,R_STN_3*%
X78565000Y-107505500D03*
X81455000Y-107505500D03*
%TD*%
D39*
%TO.C,R_STN_4*%
X89535000Y-95250000D03*
X91135000Y-95250000D03*
%TD*%
D14*
%TO.C,R_STN_5*%
X80269500Y-112966500D03*
X81909500Y-112966500D03*
%TD*%
%TO.C,R_STN_6*%
X80269500Y-115443000D03*
X81909500Y-115443000D03*
%TD*%
%TO.C,R_STN_9*%
X91001000Y-120269000D03*
X92641000Y-120269000D03*
%TD*%
D32*
%TO.C,R_STN_11*%
X98679000Y-114242000D03*
X98679000Y-115882000D03*
%TD*%
%TO.C,R_STN_12*%
X96139000Y-114242000D03*
X96139000Y-115882000D03*
%TD*%
%TO.C,R_VR2_1*%
X78084001Y-167507500D03*
X78084001Y-165867500D03*
%TD*%
%TO.C,R_VR2_2*%
X80645000Y-167634500D03*
X80645000Y-165994500D03*
%TD*%
D14*
%TO.C,R_VR2_3*%
X79190000Y-163639500D03*
X80830000Y-163639500D03*
%TD*%
D40*
%TO.C,R_VS_1*%
X81727000Y-140017500D03*
X79817000Y-140017500D03*
%TD*%
D14*
%TO.C,R_VS_2*%
X80576000Y-133794500D03*
X78936000Y-133794500D03*
%TD*%
D41*
%TO.C,SW_ESP_1*%
X85175001Y-57455001D03*
X85175001Y-60654999D03*
X79924999Y-60654999D03*
X79924999Y-57455001D03*
%TD*%
D42*
%TO.C,SW_ESP_2*%
X118288001Y-76793001D03*
X121487999Y-76793001D03*
X121487999Y-71542999D03*
X118288001Y-71542999D03*
%TD*%
D41*
%TO.C,SW_STN_1*%
X93684001Y-116026999D03*
X93684001Y-112827001D03*
X88433999Y-112827001D03*
X88433999Y-116026999D03*
%TD*%
D43*
%TO.C,U_COMP_1*%
X116713000Y-106045000D03*
D44*
X116713000Y-108585000D03*
X116713000Y-111125000D03*
X116713000Y-113665000D03*
X116713000Y-116205000D03*
X116713000Y-118745000D03*
X116713000Y-121285000D03*
X124333000Y-121285000D03*
X124333000Y-118745000D03*
X124333000Y-116205000D03*
X124333000Y-113665000D03*
X124333000Y-111125000D03*
X124333000Y-108585000D03*
X124333000Y-106045000D03*
%TD*%
D45*
%TO.C,U_ESP_1*%
X103775000Y-71635000D03*
D46*
X96275000Y-64135000D03*
X96275000Y-65405000D03*
X96275000Y-66675000D03*
X96275000Y-67945000D03*
X96275000Y-69215000D03*
X96275000Y-70485000D03*
X96275000Y-71755000D03*
X96275000Y-73025000D03*
X96275000Y-74295000D03*
X96275000Y-75565000D03*
X96275000Y-76835000D03*
X96275000Y-78105000D03*
X96275000Y-79375000D03*
X96275000Y-80645000D03*
D47*
X99060000Y-81645000D03*
X100330000Y-81645000D03*
X101600000Y-81645000D03*
X102870000Y-81645000D03*
X104140000Y-81645000D03*
X105410000Y-81645000D03*
X106680000Y-81645000D03*
X107950000Y-81645000D03*
X109220000Y-81645000D03*
X110490000Y-81645000D03*
D46*
X113275000Y-80645000D03*
X113275000Y-79375000D03*
X113275000Y-78105000D03*
X113275000Y-76835000D03*
X113275000Y-75565000D03*
X113275000Y-74295000D03*
X113275000Y-73025000D03*
X113275000Y-71755000D03*
X113275000Y-70485000D03*
X113275000Y-69215000D03*
X113275000Y-67945000D03*
X113275000Y-66675000D03*
X113275000Y-65405000D03*
X113275000Y-64135000D03*
%TD*%
D48*
%TO.C,U_HSCAN_1*%
X80545800Y-82845001D03*
X80545800Y-83494999D03*
X80545800Y-84145001D03*
X80545800Y-84794999D03*
X83284200Y-84794999D03*
X83284200Y-84145001D03*
X83284200Y-83494999D03*
X83284200Y-82845001D03*
D49*
X81915000Y-83820000D03*
%TD*%
D50*
%TO.C,U_IMU_1*%
X80776000Y-74058000D03*
X81276000Y-74058000D03*
X80276000Y-74058000D03*
X81776000Y-74058000D03*
X80776000Y-71738000D03*
X81276000Y-71738000D03*
X80276000Y-71738000D03*
X81776000Y-71738000D03*
D51*
X80116000Y-73398000D03*
X80116000Y-72898000D03*
X80116000Y-72398000D03*
X81936000Y-73398000D03*
X81936000Y-72898000D03*
X81936000Y-72398000D03*
%TD*%
D52*
%TO.C,U_J1850_1*%
X83481000Y-122682000D03*
X83481000Y-123952000D03*
X83481000Y-125222000D03*
X83481000Y-126492000D03*
X88731000Y-126492000D03*
X88731000Y-125222000D03*
X88731000Y-123952000D03*
X88731000Y-122682000D03*
%TD*%
%TO.C,U_STN_1*%
G36*
G01*
X91135000Y-100469500D02*
X91135000Y-100294500D01*
G75*
G02*
X91222500Y-100207000I87500J0D01*
G01*
X92272500Y-100207000D01*
G75*
G02*
X92360000Y-100294500I0J-87500D01*
G01*
X92360000Y-100469500D01*
G75*
G02*
X92272500Y-100557000I-87500J0D01*
G01*
X91222500Y-100557000D01*
G75*
G02*
X91135000Y-100469500I0J87500D01*
G01*
G37*
G36*
G01*
X91135000Y-101119500D02*
X91135000Y-100944500D01*
G75*
G02*
X91222500Y-100857000I87500J0D01*
G01*
X92272500Y-100857000D01*
G75*
G02*
X92360000Y-100944500I0J-87500D01*
G01*
X92360000Y-101119500D01*
G75*
G02*
X92272500Y-101207000I-87500J0D01*
G01*
X91222500Y-101207000D01*
G75*
G02*
X91135000Y-101119500I0J87500D01*
G01*
G37*
G36*
G01*
X91135000Y-101769500D02*
X91135000Y-101594500D01*
G75*
G02*
X91222500Y-101507000I87500J0D01*
G01*
X92272500Y-101507000D01*
G75*
G02*
X92360000Y-101594500I0J-87500D01*
G01*
X92360000Y-101769500D01*
G75*
G02*
X92272500Y-101857000I-87500J0D01*
G01*
X91222500Y-101857000D01*
G75*
G02*
X91135000Y-101769500I0J87500D01*
G01*
G37*
G36*
G01*
X91135000Y-102419500D02*
X91135000Y-102244500D01*
G75*
G02*
X91222500Y-102157000I87500J0D01*
G01*
X92272500Y-102157000D01*
G75*
G02*
X92360000Y-102244500I0J-87500D01*
G01*
X92360000Y-102419500D01*
G75*
G02*
X92272500Y-102507000I-87500J0D01*
G01*
X91222500Y-102507000D01*
G75*
G02*
X91135000Y-102419500I0J87500D01*
G01*
G37*
G36*
G01*
X91135000Y-103069500D02*
X91135000Y-102894500D01*
G75*
G02*
X91222500Y-102807000I87500J0D01*
G01*
X92272500Y-102807000D01*
G75*
G02*
X92360000Y-102894500I0J-87500D01*
G01*
X92360000Y-103069500D01*
G75*
G02*
X92272500Y-103157000I-87500J0D01*
G01*
X91222500Y-103157000D01*
G75*
G02*
X91135000Y-103069500I0J87500D01*
G01*
G37*
G36*
G01*
X91135000Y-103719500D02*
X91135000Y-103544500D01*
G75*
G02*
X91222500Y-103457000I87500J0D01*
G01*
X92272500Y-103457000D01*
G75*
G02*
X92360000Y-103544500I0J-87500D01*
G01*
X92360000Y-103719500D01*
G75*
G02*
X92272500Y-103807000I-87500J0D01*
G01*
X91222500Y-103807000D01*
G75*
G02*
X91135000Y-103719500I0J87500D01*
G01*
G37*
G36*
G01*
X91135000Y-104369500D02*
X91135000Y-104194500D01*
G75*
G02*
X91222500Y-104107000I87500J0D01*
G01*
X92272500Y-104107000D01*
G75*
G02*
X92360000Y-104194500I0J-87500D01*
G01*
X92360000Y-104369500D01*
G75*
G02*
X92272500Y-104457000I-87500J0D01*
G01*
X91222500Y-104457000D01*
G75*
G02*
X91135000Y-104369500I0J87500D01*
G01*
G37*
G36*
G01*
X91135000Y-105019500D02*
X91135000Y-104844500D01*
G75*
G02*
X91222500Y-104757000I87500J0D01*
G01*
X92272500Y-104757000D01*
G75*
G02*
X92360000Y-104844500I0J-87500D01*
G01*
X92360000Y-105019500D01*
G75*
G02*
X92272500Y-105107000I-87500J0D01*
G01*
X91222500Y-105107000D01*
G75*
G02*
X91135000Y-105019500I0J87500D01*
G01*
G37*
G36*
G01*
X91135000Y-105669500D02*
X91135000Y-105494500D01*
G75*
G02*
X91222500Y-105407000I87500J0D01*
G01*
X92272500Y-105407000D01*
G75*
G02*
X92360000Y-105494500I0J-87500D01*
G01*
X92360000Y-105669500D01*
G75*
G02*
X92272500Y-105757000I-87500J0D01*
G01*
X91222500Y-105757000D01*
G75*
G02*
X91135000Y-105669500I0J87500D01*
G01*
G37*
G36*
G01*
X91135000Y-106319500D02*
X91135000Y-106144500D01*
G75*
G02*
X91222500Y-106057000I87500J0D01*
G01*
X92272500Y-106057000D01*
G75*
G02*
X92360000Y-106144500I0J-87500D01*
G01*
X92360000Y-106319500D01*
G75*
G02*
X92272500Y-106407000I-87500J0D01*
G01*
X91222500Y-106407000D01*
G75*
G02*
X91135000Y-106319500I0J87500D01*
G01*
G37*
G36*
G01*
X91135000Y-106969500D02*
X91135000Y-106794500D01*
G75*
G02*
X91222500Y-106707000I87500J0D01*
G01*
X92272500Y-106707000D01*
G75*
G02*
X92360000Y-106794500I0J-87500D01*
G01*
X92360000Y-106969500D01*
G75*
G02*
X92272500Y-107057000I-87500J0D01*
G01*
X91222500Y-107057000D01*
G75*
G02*
X91135000Y-106969500I0J87500D01*
G01*
G37*
G36*
G01*
X92460000Y-108294500D02*
X92460000Y-107244500D01*
G75*
G02*
X92547500Y-107157000I87500J0D01*
G01*
X92722500Y-107157000D01*
G75*
G02*
X92810000Y-107244500I0J-87500D01*
G01*
X92810000Y-108294500D01*
G75*
G02*
X92722500Y-108382000I-87500J0D01*
G01*
X92547500Y-108382000D01*
G75*
G02*
X92460000Y-108294500I0J87500D01*
G01*
G37*
G36*
G01*
X93110000Y-108294500D02*
X93110000Y-107244500D01*
G75*
G02*
X93197500Y-107157000I87500J0D01*
G01*
X93372500Y-107157000D01*
G75*
G02*
X93460000Y-107244500I0J-87500D01*
G01*
X93460000Y-108294500D01*
G75*
G02*
X93372500Y-108382000I-87500J0D01*
G01*
X93197500Y-108382000D01*
G75*
G02*
X93110000Y-108294500I0J87500D01*
G01*
G37*
G36*
G01*
X93760000Y-108294500D02*
X93760000Y-107244500D01*
G75*
G02*
X93847500Y-107157000I87500J0D01*
G01*
X94022500Y-107157000D01*
G75*
G02*
X94110000Y-107244500I0J-87500D01*
G01*
X94110000Y-108294500D01*
G75*
G02*
X94022500Y-108382000I-87500J0D01*
G01*
X93847500Y-108382000D01*
G75*
G02*
X93760000Y-108294500I0J87500D01*
G01*
G37*
G36*
G01*
X94410000Y-108294500D02*
X94410000Y-107244500D01*
G75*
G02*
X94497500Y-107157000I87500J0D01*
G01*
X94672500Y-107157000D01*
G75*
G02*
X94760000Y-107244500I0J-87500D01*
G01*
X94760000Y-108294500D01*
G75*
G02*
X94672500Y-108382000I-87500J0D01*
G01*
X94497500Y-108382000D01*
G75*
G02*
X94410000Y-108294500I0J87500D01*
G01*
G37*
G36*
G01*
X95060000Y-108294500D02*
X95060000Y-107244500D01*
G75*
G02*
X95147500Y-107157000I87500J0D01*
G01*
X95322500Y-107157000D01*
G75*
G02*
X95410000Y-107244500I0J-87500D01*
G01*
X95410000Y-108294500D01*
G75*
G02*
X95322500Y-108382000I-87500J0D01*
G01*
X95147500Y-108382000D01*
G75*
G02*
X95060000Y-108294500I0J87500D01*
G01*
G37*
G36*
G01*
X95710000Y-108294500D02*
X95710000Y-107244500D01*
G75*
G02*
X95797500Y-107157000I87500J0D01*
G01*
X95972500Y-107157000D01*
G75*
G02*
X96060000Y-107244500I0J-87500D01*
G01*
X96060000Y-108294500D01*
G75*
G02*
X95972500Y-108382000I-87500J0D01*
G01*
X95797500Y-108382000D01*
G75*
G02*
X95710000Y-108294500I0J87500D01*
G01*
G37*
G36*
G01*
X96360000Y-108294500D02*
X96360000Y-107244500D01*
G75*
G02*
X96447500Y-107157000I87500J0D01*
G01*
X96622500Y-107157000D01*
G75*
G02*
X96710000Y-107244500I0J-87500D01*
G01*
X96710000Y-108294500D01*
G75*
G02*
X96622500Y-108382000I-87500J0D01*
G01*
X96447500Y-108382000D01*
G75*
G02*
X96360000Y-108294500I0J87500D01*
G01*
G37*
G36*
G01*
X97010000Y-108294500D02*
X97010000Y-107244500D01*
G75*
G02*
X97097500Y-107157000I87500J0D01*
G01*
X97272500Y-107157000D01*
G75*
G02*
X97360000Y-107244500I0J-87500D01*
G01*
X97360000Y-108294500D01*
G75*
G02*
X97272500Y-108382000I-87500J0D01*
G01*
X97097500Y-108382000D01*
G75*
G02*
X97010000Y-108294500I0J87500D01*
G01*
G37*
G36*
G01*
X97660000Y-108294500D02*
X97660000Y-107244500D01*
G75*
G02*
X97747500Y-107157000I87500J0D01*
G01*
X97922500Y-107157000D01*
G75*
G02*
X98010000Y-107244500I0J-87500D01*
G01*
X98010000Y-108294500D01*
G75*
G02*
X97922500Y-108382000I-87500J0D01*
G01*
X97747500Y-108382000D01*
G75*
G02*
X97660000Y-108294500I0J87500D01*
G01*
G37*
G36*
G01*
X98310000Y-108294500D02*
X98310000Y-107244500D01*
G75*
G02*
X98397500Y-107157000I87500J0D01*
G01*
X98572500Y-107157000D01*
G75*
G02*
X98660000Y-107244500I0J-87500D01*
G01*
X98660000Y-108294500D01*
G75*
G02*
X98572500Y-108382000I-87500J0D01*
G01*
X98397500Y-108382000D01*
G75*
G02*
X98310000Y-108294500I0J87500D01*
G01*
G37*
G36*
G01*
X98960000Y-108294500D02*
X98960000Y-107244500D01*
G75*
G02*
X99047500Y-107157000I87500J0D01*
G01*
X99222500Y-107157000D01*
G75*
G02*
X99310000Y-107244500I0J-87500D01*
G01*
X99310000Y-108294500D01*
G75*
G02*
X99222500Y-108382000I-87500J0D01*
G01*
X99047500Y-108382000D01*
G75*
G02*
X98960000Y-108294500I0J87500D01*
G01*
G37*
G36*
G01*
X99410000Y-106969500D02*
X99410000Y-106794500D01*
G75*
G02*
X99497500Y-106707000I87500J0D01*
G01*
X100547500Y-106707000D01*
G75*
G02*
X100635000Y-106794500I0J-87500D01*
G01*
X100635000Y-106969500D01*
G75*
G02*
X100547500Y-107057000I-87500J0D01*
G01*
X99497500Y-107057000D01*
G75*
G02*
X99410000Y-106969500I0J87500D01*
G01*
G37*
G36*
G01*
X99410000Y-106319500D02*
X99410000Y-106144500D01*
G75*
G02*
X99497500Y-106057000I87500J0D01*
G01*
X100547500Y-106057000D01*
G75*
G02*
X100635000Y-106144500I0J-87500D01*
G01*
X100635000Y-106319500D01*
G75*
G02*
X100547500Y-106407000I-87500J0D01*
G01*
X99497500Y-106407000D01*
G75*
G02*
X99410000Y-106319500I0J87500D01*
G01*
G37*
G36*
G01*
X99410000Y-105669500D02*
X99410000Y-105494500D01*
G75*
G02*
X99497500Y-105407000I87500J0D01*
G01*
X100547500Y-105407000D01*
G75*
G02*
X100635000Y-105494500I0J-87500D01*
G01*
X100635000Y-105669500D01*
G75*
G02*
X100547500Y-105757000I-87500J0D01*
G01*
X99497500Y-105757000D01*
G75*
G02*
X99410000Y-105669500I0J87500D01*
G01*
G37*
G36*
G01*
X99410000Y-105019500D02*
X99410000Y-104844500D01*
G75*
G02*
X99497500Y-104757000I87500J0D01*
G01*
X100547500Y-104757000D01*
G75*
G02*
X100635000Y-104844500I0J-87500D01*
G01*
X100635000Y-105019500D01*
G75*
G02*
X100547500Y-105107000I-87500J0D01*
G01*
X99497500Y-105107000D01*
G75*
G02*
X99410000Y-105019500I0J87500D01*
G01*
G37*
G36*
G01*
X99410000Y-104369500D02*
X99410000Y-104194500D01*
G75*
G02*
X99497500Y-104107000I87500J0D01*
G01*
X100547500Y-104107000D01*
G75*
G02*
X100635000Y-104194500I0J-87500D01*
G01*
X100635000Y-104369500D01*
G75*
G02*
X100547500Y-104457000I-87500J0D01*
G01*
X99497500Y-104457000D01*
G75*
G02*
X99410000Y-104369500I0J87500D01*
G01*
G37*
G36*
G01*
X99410000Y-103719500D02*
X99410000Y-103544500D01*
G75*
G02*
X99497500Y-103457000I87500J0D01*
G01*
X100547500Y-103457000D01*
G75*
G02*
X100635000Y-103544500I0J-87500D01*
G01*
X100635000Y-103719500D01*
G75*
G02*
X100547500Y-103807000I-87500J0D01*
G01*
X99497500Y-103807000D01*
G75*
G02*
X99410000Y-103719500I0J87500D01*
G01*
G37*
G36*
G01*
X99410000Y-103069500D02*
X99410000Y-102894500D01*
G75*
G02*
X99497500Y-102807000I87500J0D01*
G01*
X100547500Y-102807000D01*
G75*
G02*
X100635000Y-102894500I0J-87500D01*
G01*
X100635000Y-103069500D01*
G75*
G02*
X100547500Y-103157000I-87500J0D01*
G01*
X99497500Y-103157000D01*
G75*
G02*
X99410000Y-103069500I0J87500D01*
G01*
G37*
G36*
G01*
X99410000Y-102419500D02*
X99410000Y-102244500D01*
G75*
G02*
X99497500Y-102157000I87500J0D01*
G01*
X100547500Y-102157000D01*
G75*
G02*
X100635000Y-102244500I0J-87500D01*
G01*
X100635000Y-102419500D01*
G75*
G02*
X100547500Y-102507000I-87500J0D01*
G01*
X99497500Y-102507000D01*
G75*
G02*
X99410000Y-102419500I0J87500D01*
G01*
G37*
G36*
G01*
X99410000Y-101769500D02*
X99410000Y-101594500D01*
G75*
G02*
X99497500Y-101507000I87500J0D01*
G01*
X100547500Y-101507000D01*
G75*
G02*
X100635000Y-101594500I0J-87500D01*
G01*
X100635000Y-101769500D01*
G75*
G02*
X100547500Y-101857000I-87500J0D01*
G01*
X99497500Y-101857000D01*
G75*
G02*
X99410000Y-101769500I0J87500D01*
G01*
G37*
G36*
G01*
X99410000Y-101119500D02*
X99410000Y-100944500D01*
G75*
G02*
X99497500Y-100857000I87500J0D01*
G01*
X100547500Y-100857000D01*
G75*
G02*
X100635000Y-100944500I0J-87500D01*
G01*
X100635000Y-101119500D01*
G75*
G02*
X100547500Y-101207000I-87500J0D01*
G01*
X99497500Y-101207000D01*
G75*
G02*
X99410000Y-101119500I0J87500D01*
G01*
G37*
G36*
G01*
X99410000Y-100469500D02*
X99410000Y-100294500D01*
G75*
G02*
X99497500Y-100207000I87500J0D01*
G01*
X100547500Y-100207000D01*
G75*
G02*
X100635000Y-100294500I0J-87500D01*
G01*
X100635000Y-100469500D01*
G75*
G02*
X100547500Y-100557000I-87500J0D01*
G01*
X99497500Y-100557000D01*
G75*
G02*
X99410000Y-100469500I0J87500D01*
G01*
G37*
G36*
G01*
X98960000Y-100019500D02*
X98960000Y-98969500D01*
G75*
G02*
X99047500Y-98882000I87500J0D01*
G01*
X99222500Y-98882000D01*
G75*
G02*
X99310000Y-98969500I0J-87500D01*
G01*
X99310000Y-100019500D01*
G75*
G02*
X99222500Y-100107000I-87500J0D01*
G01*
X99047500Y-100107000D01*
G75*
G02*
X98960000Y-100019500I0J87500D01*
G01*
G37*
G36*
G01*
X98310000Y-100019500D02*
X98310000Y-98969500D01*
G75*
G02*
X98397500Y-98882000I87500J0D01*
G01*
X98572500Y-98882000D01*
G75*
G02*
X98660000Y-98969500I0J-87500D01*
G01*
X98660000Y-100019500D01*
G75*
G02*
X98572500Y-100107000I-87500J0D01*
G01*
X98397500Y-100107000D01*
G75*
G02*
X98310000Y-100019500I0J87500D01*
G01*
G37*
G36*
G01*
X97660000Y-100019500D02*
X97660000Y-98969500D01*
G75*
G02*
X97747500Y-98882000I87500J0D01*
G01*
X97922500Y-98882000D01*
G75*
G02*
X98010000Y-98969500I0J-87500D01*
G01*
X98010000Y-100019500D01*
G75*
G02*
X97922500Y-100107000I-87500J0D01*
G01*
X97747500Y-100107000D01*
G75*
G02*
X97660000Y-100019500I0J87500D01*
G01*
G37*
G36*
G01*
X97010000Y-100019500D02*
X97010000Y-98969500D01*
G75*
G02*
X97097500Y-98882000I87500J0D01*
G01*
X97272500Y-98882000D01*
G75*
G02*
X97360000Y-98969500I0J-87500D01*
G01*
X97360000Y-100019500D01*
G75*
G02*
X97272500Y-100107000I-87500J0D01*
G01*
X97097500Y-100107000D01*
G75*
G02*
X97010000Y-100019500I0J87500D01*
G01*
G37*
G36*
G01*
X96360000Y-100019500D02*
X96360000Y-98969500D01*
G75*
G02*
X96447500Y-98882000I87500J0D01*
G01*
X96622500Y-98882000D01*
G75*
G02*
X96710000Y-98969500I0J-87500D01*
G01*
X96710000Y-100019500D01*
G75*
G02*
X96622500Y-100107000I-87500J0D01*
G01*
X96447500Y-100107000D01*
G75*
G02*
X96360000Y-100019500I0J87500D01*
G01*
G37*
G36*
G01*
X95710000Y-100019500D02*
X95710000Y-98969500D01*
G75*
G02*
X95797500Y-98882000I87500J0D01*
G01*
X95972500Y-98882000D01*
G75*
G02*
X96060000Y-98969500I0J-87500D01*
G01*
X96060000Y-100019500D01*
G75*
G02*
X95972500Y-100107000I-87500J0D01*
G01*
X95797500Y-100107000D01*
G75*
G02*
X95710000Y-100019500I0J87500D01*
G01*
G37*
G36*
G01*
X95060000Y-100019500D02*
X95060000Y-98969500D01*
G75*
G02*
X95147500Y-98882000I87500J0D01*
G01*
X95322500Y-98882000D01*
G75*
G02*
X95410000Y-98969500I0J-87500D01*
G01*
X95410000Y-100019500D01*
G75*
G02*
X95322500Y-100107000I-87500J0D01*
G01*
X95147500Y-100107000D01*
G75*
G02*
X95060000Y-100019500I0J87500D01*
G01*
G37*
G36*
G01*
X94410000Y-100019500D02*
X94410000Y-98969500D01*
G75*
G02*
X94497500Y-98882000I87500J0D01*
G01*
X94672500Y-98882000D01*
G75*
G02*
X94760000Y-98969500I0J-87500D01*
G01*
X94760000Y-100019500D01*
G75*
G02*
X94672500Y-100107000I-87500J0D01*
G01*
X94497500Y-100107000D01*
G75*
G02*
X94410000Y-100019500I0J87500D01*
G01*
G37*
G36*
G01*
X93760000Y-100019500D02*
X93760000Y-98969500D01*
G75*
G02*
X93847500Y-98882000I87500J0D01*
G01*
X94022500Y-98882000D01*
G75*
G02*
X94110000Y-98969500I0J-87500D01*
G01*
X94110000Y-100019500D01*
G75*
G02*
X94022500Y-100107000I-87500J0D01*
G01*
X93847500Y-100107000D01*
G75*
G02*
X93760000Y-100019500I0J87500D01*
G01*
G37*
G36*
G01*
X93110000Y-100019500D02*
X93110000Y-98969500D01*
G75*
G02*
X93197500Y-98882000I87500J0D01*
G01*
X93372500Y-98882000D01*
G75*
G02*
X93460000Y-98969500I0J-87500D01*
G01*
X93460000Y-100019500D01*
G75*
G02*
X93372500Y-100107000I-87500J0D01*
G01*
X93197500Y-100107000D01*
G75*
G02*
X93110000Y-100019500I0J87500D01*
G01*
G37*
G36*
G01*
X92460000Y-100019500D02*
X92460000Y-98969500D01*
G75*
G02*
X92547500Y-98882000I87500J0D01*
G01*
X92722500Y-98882000D01*
G75*
G02*
X92810000Y-98969500I0J-87500D01*
G01*
X92810000Y-100019500D01*
G75*
G02*
X92722500Y-100107000I-87500J0D01*
G01*
X92547500Y-100107000D01*
G75*
G02*
X92460000Y-100019500I0J87500D01*
G01*
G37*
D53*
X95885000Y-103632000D03*
%TD*%
D54*
%TO.C,U_VR1*%
X122024000Y-159532000D03*
X122024000Y-160031999D03*
X122024000Y-160532000D03*
X122024000Y-161032000D03*
X122024000Y-161532001D03*
X122024000Y-162032000D03*
X124864000Y-162032000D03*
X124864000Y-161532001D03*
X124864000Y-161032000D03*
X124864000Y-160532000D03*
X124864000Y-160031999D03*
X124864000Y-159532000D03*
D55*
X123444000Y-160782000D03*
%TD*%
%TO.C,U_VR2*%
X76200000Y-160464500D03*
D54*
X77620000Y-159214500D03*
X77620000Y-159714499D03*
X77620000Y-160214500D03*
X77620000Y-160714500D03*
X77620000Y-161214501D03*
X77620000Y-161714500D03*
X74780000Y-161714500D03*
X74780000Y-161214501D03*
X74780000Y-160714500D03*
X74780000Y-160214500D03*
X74780000Y-159714499D03*
X74780000Y-159214500D03*
%TD*%
D56*
%TO.C,Y_STN_1*%
X111885500Y-100700000D03*
X111885500Y-102500000D03*
X113285500Y-102500000D03*
X113285500Y-100700000D03*
%TD*%
M02*
