%TF.GenerationSoftware,KiCad,Pcbnew,(5.1.7)-1*%
%TF.CreationDate,2020-10-27T06:30:04-07:00*%
%TF.ProjectId,Reader,52656164-6572-42e6-9b69-6361645f7063,0.0.01*%
%TF.SameCoordinates,Original*%
%TF.FileFunction,Copper,L4,Bot*%
%TF.FilePolarity,Positive*%
%FSLAX46Y46*%
G04 Gerber Fmt 4.6, Leading zero omitted, Abs format (unit mm)*
G04 Created by KiCad (PCBNEW (5.1.7)-1) date 2020-10-27 06:30:04*
%MOMM*%
%LPD*%
G01*
G04 APERTURE LIST*
%ADD10C,0.100000*%
%ADD11C,0.150000*%
%ADD12C,0.300000*%
%ADD13C,0.400000*%
%TA.AperFunction,SMDPad,CuDef*%
%ADD14R,1.000000X1.100000*%
%TD*%
%TA.AperFunction,ComponentPad*%
%ADD15C,2.032000*%
%TD*%
%TA.AperFunction,ComponentPad*%
%ADD16R,1.600000X1.600000*%
%TD*%
%TA.AperFunction,ComponentPad*%
%ADD17O,1.600000X1.600000*%
%TD*%
%TA.AperFunction,SMDPad,CuDef*%
%ADD18R,0.600000X1.000000*%
%TD*%
%TA.AperFunction,SMDPad,CuDef*%
%ADD19R,1.799996X1.299998*%
%TD*%
%TA.AperFunction,ComponentPad*%
%ADD20C,1.117600*%
%TD*%
%TA.AperFunction,SMDPad,CuDef*%
%ADD21R,1.100000X1.000000*%
%TD*%
%TA.AperFunction,SMDPad,CuDef*%
%ADD22R,1.299998X1.799996*%
%TD*%
%TA.AperFunction,SMDPad,CuDef*%
%ADD23R,1.000000X0.600000*%
%TD*%
%TA.AperFunction,SMDPad,CuDef*%
%ADD24R,0.930000X0.790000*%
%TD*%
%TA.AperFunction,SMDPad,CuDef*%
%ADD25R,0.790000X0.930000*%
%TD*%
%TA.AperFunction,SMDPad,CuDef*%
%ADD26R,0.400000X0.380000*%
%TD*%
%TA.AperFunction,SMDPad,CuDef*%
%ADD27R,1.080000X1.680000*%
%TD*%
%TA.AperFunction,SMDPad,CuDef*%
%ADD28R,0.600000X0.560000*%
%TD*%
%TA.AperFunction,SMDPad,CuDef*%
%ADD29R,1.380000X1.040000*%
%TD*%
%TA.AperFunction,SMDPad,CuDef*%
%ADD30R,0.600000X1.230000*%
%TD*%
%TA.AperFunction,SMDPad,CuDef*%
%ADD31R,0.700000X0.800000*%
%TD*%
%TA.AperFunction,SMDPad,CuDef*%
%ADD32R,0.568000X0.903199*%
%TD*%
%TA.AperFunction,ComponentPad*%
%ADD33C,0.500000*%
%TD*%
%TA.AperFunction,SMDPad,CuDef*%
%ADD34R,6.450000X6.450000*%
%TD*%
%TA.AperFunction,SMDPad,CuDef*%
%ADD35R,1.004799X0.568000*%
%TD*%
%TA.AperFunction,ComponentPad*%
%ADD36R,1.295400X1.295400*%
%TD*%
%TA.AperFunction,ComponentPad*%
%ADD37C,1.295400*%
%TD*%
%TA.AperFunction,SMDPad,CuDef*%
%ADD38R,1.680000X1.080000*%
%TD*%
%TA.AperFunction,ComponentPad*%
%ADD39C,3.302000*%
%TD*%
%TA.AperFunction,ComponentPad*%
%ADD40C,1.549400*%
%TD*%
%TA.AperFunction,ViaPad*%
%ADD41C,0.500000*%
%TD*%
%TA.AperFunction,Conductor*%
%ADD42C,0.300000*%
%TD*%
%TA.AperFunction,Conductor*%
%ADD43C,1.000000*%
%TD*%
%TA.AperFunction,Conductor*%
%ADD44C,0.500000*%
%TD*%
%TA.AperFunction,Conductor*%
%ADD45C,0.200000*%
%TD*%
%TA.AperFunction,Conductor*%
%ADD46C,0.220000*%
%TD*%
%TA.AperFunction,Conductor*%
%ADD47C,0.700000*%
%TD*%
%TA.AperFunction,Conductor*%
%ADD48C,0.800000*%
%TD*%
G04 APERTURE END LIST*
D10*
D11*
X159400000Y-171900000D02*
X159400000Y-203900000D01*
X267400000Y-203900000D01*
X267400000Y-171900000D01*
X159400000Y-171900000D01*
D10*
D11*
X10000000Y-10000000D02*
X10000000Y-205900000D01*
X269400000Y-205900000D01*
X269400000Y-10000000D01*
X10000000Y-10000000D01*
D10*
D11*
X12000000Y-12000000D02*
X12000000Y-203900000D01*
X267400000Y-203900000D01*
X267400000Y-12000000D01*
X12000000Y-12000000D01*
D10*
D11*
X60000000Y-12000000D02*
X60000000Y-10000000D01*
D10*
D11*
X110000000Y-12000000D02*
X110000000Y-10000000D01*
D10*
D11*
X160000000Y-12000000D02*
X160000000Y-10000000D01*
D10*
D11*
X210000000Y-12000000D02*
X210000000Y-10000000D01*
D10*
D11*
X260000000Y-12000000D02*
X260000000Y-10000000D01*
D10*
D11*
X36065476Y-11588095D02*
X35322619Y-11588095D01*
X35694047Y-11588095D02*
X35694047Y-10288095D01*
X35570238Y-10473809D01*
X35446428Y-10597619D01*
X35322619Y-10659523D01*
D10*
D11*
X85322619Y-10411904D02*
X85384523Y-10350000D01*
X85508333Y-10288095D01*
X85817857Y-10288095D01*
X85941666Y-10350000D01*
X86003571Y-10411904D01*
X86065476Y-10535714D01*
X86065476Y-10659523D01*
X86003571Y-10845238D01*
X85260714Y-11588095D01*
X86065476Y-11588095D01*
D10*
D11*
X135260714Y-10288095D02*
X136065476Y-10288095D01*
X135632142Y-10783333D01*
X135817857Y-10783333D01*
X135941666Y-10845238D01*
X136003571Y-10907142D01*
X136065476Y-11030952D01*
X136065476Y-11340476D01*
X136003571Y-11464285D01*
X135941666Y-11526190D01*
X135817857Y-11588095D01*
X135446428Y-11588095D01*
X135322619Y-11526190D01*
X135260714Y-11464285D01*
D10*
D11*
X185941666Y-10721428D02*
X185941666Y-11588095D01*
X185632142Y-10226190D02*
X185322619Y-11154761D01*
X186127380Y-11154761D01*
D10*
D11*
X236003571Y-10288095D02*
X235384523Y-10288095D01*
X235322619Y-10907142D01*
X235384523Y-10845238D01*
X235508333Y-10783333D01*
X235817857Y-10783333D01*
X235941666Y-10845238D01*
X236003571Y-10907142D01*
X236065476Y-11030952D01*
X236065476Y-11340476D01*
X236003571Y-11464285D01*
X235941666Y-11526190D01*
X235817857Y-11588095D01*
X235508333Y-11588095D01*
X235384523Y-11526190D01*
X235322619Y-11464285D01*
D10*
D11*
X60000000Y-203900000D02*
X60000000Y-205900000D01*
D10*
D11*
X110000000Y-203900000D02*
X110000000Y-205900000D01*
D10*
D11*
X160000000Y-203900000D02*
X160000000Y-205900000D01*
D10*
D11*
X210000000Y-203900000D02*
X210000000Y-205900000D01*
D10*
D11*
X260000000Y-203900000D02*
X260000000Y-205900000D01*
D10*
D11*
X36065476Y-205488095D02*
X35322619Y-205488095D01*
X35694047Y-205488095D02*
X35694047Y-204188095D01*
X35570238Y-204373809D01*
X35446428Y-204497619D01*
X35322619Y-204559523D01*
D10*
D11*
X85322619Y-204311904D02*
X85384523Y-204250000D01*
X85508333Y-204188095D01*
X85817857Y-204188095D01*
X85941666Y-204250000D01*
X86003571Y-204311904D01*
X86065476Y-204435714D01*
X86065476Y-204559523D01*
X86003571Y-204745238D01*
X85260714Y-205488095D01*
X86065476Y-205488095D01*
D10*
D11*
X135260714Y-204188095D02*
X136065476Y-204188095D01*
X135632142Y-204683333D01*
X135817857Y-204683333D01*
X135941666Y-204745238D01*
X136003571Y-204807142D01*
X136065476Y-204930952D01*
X136065476Y-205240476D01*
X136003571Y-205364285D01*
X135941666Y-205426190D01*
X135817857Y-205488095D01*
X135446428Y-205488095D01*
X135322619Y-205426190D01*
X135260714Y-205364285D01*
D10*
D11*
X185941666Y-204621428D02*
X185941666Y-205488095D01*
X185632142Y-204126190D02*
X185322619Y-205054761D01*
X186127380Y-205054761D01*
D10*
D11*
X236003571Y-204188095D02*
X235384523Y-204188095D01*
X235322619Y-204807142D01*
X235384523Y-204745238D01*
X235508333Y-204683333D01*
X235817857Y-204683333D01*
X235941666Y-204745238D01*
X236003571Y-204807142D01*
X236065476Y-204930952D01*
X236065476Y-205240476D01*
X236003571Y-205364285D01*
X235941666Y-205426190D01*
X235817857Y-205488095D01*
X235508333Y-205488095D01*
X235384523Y-205426190D01*
X235322619Y-205364285D01*
D10*
D11*
X10000000Y-60000000D02*
X12000000Y-60000000D01*
D10*
D11*
X10000000Y-110000000D02*
X12000000Y-110000000D01*
D10*
D11*
X10000000Y-160000000D02*
X12000000Y-160000000D01*
D10*
D11*
X10690476Y-35216666D02*
X11309523Y-35216666D01*
X10566666Y-35588095D02*
X11000000Y-34288095D01*
X11433333Y-35588095D01*
D10*
D11*
X11092857Y-84907142D02*
X11278571Y-84969047D01*
X11340476Y-85030952D01*
X11402380Y-85154761D01*
X11402380Y-85340476D01*
X11340476Y-85464285D01*
X11278571Y-85526190D01*
X11154761Y-85588095D01*
X10659523Y-85588095D01*
X10659523Y-84288095D01*
X11092857Y-84288095D01*
X11216666Y-84350000D01*
X11278571Y-84411904D01*
X11340476Y-84535714D01*
X11340476Y-84659523D01*
X11278571Y-84783333D01*
X11216666Y-84845238D01*
X11092857Y-84907142D01*
X10659523Y-84907142D01*
D10*
D11*
X11402380Y-135464285D02*
X11340476Y-135526190D01*
X11154761Y-135588095D01*
X11030952Y-135588095D01*
X10845238Y-135526190D01*
X10721428Y-135402380D01*
X10659523Y-135278571D01*
X10597619Y-135030952D01*
X10597619Y-134845238D01*
X10659523Y-134597619D01*
X10721428Y-134473809D01*
X10845238Y-134350000D01*
X11030952Y-134288095D01*
X11154761Y-134288095D01*
X11340476Y-134350000D01*
X11402380Y-134411904D01*
D10*
D11*
X10659523Y-185588095D02*
X10659523Y-184288095D01*
X10969047Y-184288095D01*
X11154761Y-184350000D01*
X11278571Y-184473809D01*
X11340476Y-184597619D01*
X11402380Y-184845238D01*
X11402380Y-185030952D01*
X11340476Y-185278571D01*
X11278571Y-185402380D01*
X11154761Y-185526190D01*
X10969047Y-185588095D01*
X10659523Y-185588095D01*
D10*
D11*
X269400000Y-60000000D02*
X267400000Y-60000000D01*
D10*
D11*
X269400000Y-110000000D02*
X267400000Y-110000000D01*
D10*
D11*
X269400000Y-160000000D02*
X267400000Y-160000000D01*
D10*
D11*
X268090476Y-35216666D02*
X268709523Y-35216666D01*
X267966666Y-35588095D02*
X268400000Y-34288095D01*
X268833333Y-35588095D01*
D10*
D11*
X268492857Y-84907142D02*
X268678571Y-84969047D01*
X268740476Y-85030952D01*
X268802380Y-85154761D01*
X268802380Y-85340476D01*
X268740476Y-85464285D01*
X268678571Y-85526190D01*
X268554761Y-85588095D01*
X268059523Y-85588095D01*
X268059523Y-84288095D01*
X268492857Y-84288095D01*
X268616666Y-84350000D01*
X268678571Y-84411904D01*
X268740476Y-84535714D01*
X268740476Y-84659523D01*
X268678571Y-84783333D01*
X268616666Y-84845238D01*
X268492857Y-84907142D01*
X268059523Y-84907142D01*
D10*
D11*
X268802380Y-135464285D02*
X268740476Y-135526190D01*
X268554761Y-135588095D01*
X268430952Y-135588095D01*
X268245238Y-135526190D01*
X268121428Y-135402380D01*
X268059523Y-135278571D01*
X267997619Y-135030952D01*
X267997619Y-134845238D01*
X268059523Y-134597619D01*
X268121428Y-134473809D01*
X268245238Y-134350000D01*
X268430952Y-134288095D01*
X268554761Y-134288095D01*
X268740476Y-134350000D01*
X268802380Y-134411904D01*
D10*
D11*
X268059523Y-185588095D02*
X268059523Y-184288095D01*
X268369047Y-184288095D01*
X268554761Y-184350000D01*
X268678571Y-184473809D01*
X268740476Y-184597619D01*
X268802380Y-184845238D01*
X268802380Y-185030952D01*
X268740476Y-185278571D01*
X268678571Y-185402380D01*
X268554761Y-185526190D01*
X268369047Y-185588095D01*
X268059523Y-185588095D01*
D10*
D11*
X182832142Y-199678571D02*
X182832142Y-198178571D01*
X183189285Y-198178571D01*
X183403571Y-198250000D01*
X183546428Y-198392857D01*
X183617857Y-198535714D01*
X183689285Y-198821428D01*
X183689285Y-199035714D01*
X183617857Y-199321428D01*
X183546428Y-199464285D01*
X183403571Y-199607142D01*
X183189285Y-199678571D01*
X182832142Y-199678571D01*
X184975000Y-199678571D02*
X184975000Y-198892857D01*
X184903571Y-198750000D01*
X184760714Y-198678571D01*
X184475000Y-198678571D01*
X184332142Y-198750000D01*
X184975000Y-199607142D02*
X184832142Y-199678571D01*
X184475000Y-199678571D01*
X184332142Y-199607142D01*
X184260714Y-199464285D01*
X184260714Y-199321428D01*
X184332142Y-199178571D01*
X184475000Y-199107142D01*
X184832142Y-199107142D01*
X184975000Y-199035714D01*
X185475000Y-198678571D02*
X186046428Y-198678571D01*
X185689285Y-198178571D02*
X185689285Y-199464285D01*
X185760714Y-199607142D01*
X185903571Y-199678571D01*
X186046428Y-199678571D01*
X187117857Y-199607142D02*
X186975000Y-199678571D01*
X186689285Y-199678571D01*
X186546428Y-199607142D01*
X186475000Y-199464285D01*
X186475000Y-198892857D01*
X186546428Y-198750000D01*
X186689285Y-198678571D01*
X186975000Y-198678571D01*
X187117857Y-198750000D01*
X187189285Y-198892857D01*
X187189285Y-199035714D01*
X186475000Y-199178571D01*
X187832142Y-199535714D02*
X187903571Y-199607142D01*
X187832142Y-199678571D01*
X187760714Y-199607142D01*
X187832142Y-199535714D01*
X187832142Y-199678571D01*
X187832142Y-198750000D02*
X187903571Y-198821428D01*
X187832142Y-198892857D01*
X187760714Y-198821428D01*
X187832142Y-198750000D01*
X187832142Y-198892857D01*
X189617857Y-198321428D02*
X189689285Y-198250000D01*
X189832142Y-198178571D01*
X190189285Y-198178571D01*
X190332142Y-198250000D01*
X190403571Y-198321428D01*
X190475000Y-198464285D01*
X190475000Y-198607142D01*
X190403571Y-198821428D01*
X189546428Y-199678571D01*
X190475000Y-199678571D01*
X191403571Y-198178571D02*
X191546428Y-198178571D01*
X191689285Y-198250000D01*
X191760714Y-198321428D01*
X191832142Y-198464285D01*
X191903571Y-198750000D01*
X191903571Y-199107142D01*
X191832142Y-199392857D01*
X191760714Y-199535714D01*
X191689285Y-199607142D01*
X191546428Y-199678571D01*
X191403571Y-199678571D01*
X191260714Y-199607142D01*
X191189285Y-199535714D01*
X191117857Y-199392857D01*
X191046428Y-199107142D01*
X191046428Y-198750000D01*
X191117857Y-198464285D01*
X191189285Y-198321428D01*
X191260714Y-198250000D01*
X191403571Y-198178571D01*
X192475000Y-198321428D02*
X192546428Y-198250000D01*
X192689285Y-198178571D01*
X193046428Y-198178571D01*
X193189285Y-198250000D01*
X193260714Y-198321428D01*
X193332142Y-198464285D01*
X193332142Y-198607142D01*
X193260714Y-198821428D01*
X192403571Y-199678571D01*
X193332142Y-199678571D01*
X194260714Y-198178571D02*
X194403571Y-198178571D01*
X194546428Y-198250000D01*
X194617857Y-198321428D01*
X194689285Y-198464285D01*
X194760714Y-198750000D01*
X194760714Y-199107142D01*
X194689285Y-199392857D01*
X194617857Y-199535714D01*
X194546428Y-199607142D01*
X194403571Y-199678571D01*
X194260714Y-199678571D01*
X194117857Y-199607142D01*
X194046428Y-199535714D01*
X193975000Y-199392857D01*
X193903571Y-199107142D01*
X193903571Y-198750000D01*
X193975000Y-198464285D01*
X194046428Y-198321428D01*
X194117857Y-198250000D01*
X194260714Y-198178571D01*
X195403571Y-199107142D02*
X196546428Y-199107142D01*
X198046428Y-199678571D02*
X197189285Y-199678571D01*
X197617857Y-199678571D02*
X197617857Y-198178571D01*
X197475000Y-198392857D01*
X197332142Y-198535714D01*
X197189285Y-198607142D01*
X198975000Y-198178571D02*
X199117857Y-198178571D01*
X199260714Y-198250000D01*
X199332142Y-198321428D01*
X199403571Y-198464285D01*
X199475000Y-198750000D01*
X199475000Y-199107142D01*
X199403571Y-199392857D01*
X199332142Y-199535714D01*
X199260714Y-199607142D01*
X199117857Y-199678571D01*
X198975000Y-199678571D01*
X198832142Y-199607142D01*
X198760714Y-199535714D01*
X198689285Y-199392857D01*
X198617857Y-199107142D01*
X198617857Y-198750000D01*
X198689285Y-198464285D01*
X198760714Y-198321428D01*
X198832142Y-198250000D01*
X198975000Y-198178571D01*
X200117857Y-199107142D02*
X201260714Y-199107142D01*
X201903571Y-198321428D02*
X201975000Y-198250000D01*
X202117857Y-198178571D01*
X202475000Y-198178571D01*
X202617857Y-198250000D01*
X202689285Y-198321428D01*
X202760714Y-198464285D01*
X202760714Y-198607142D01*
X202689285Y-198821428D01*
X201832142Y-199678571D01*
X202760714Y-199678571D01*
X203260714Y-198178571D02*
X204260714Y-198178571D01*
X203617857Y-199678571D01*
D10*
D11*
X159400000Y-200400000D02*
X267400000Y-200400000D01*
D10*
D11*
X160832142Y-202478571D02*
X160832142Y-200978571D01*
X161689285Y-202478571D02*
X161046428Y-201621428D01*
X161689285Y-200978571D02*
X160832142Y-201835714D01*
X162332142Y-202478571D02*
X162332142Y-201478571D01*
X162332142Y-200978571D02*
X162260714Y-201050000D01*
X162332142Y-201121428D01*
X162403571Y-201050000D01*
X162332142Y-200978571D01*
X162332142Y-201121428D01*
X163903571Y-202335714D02*
X163832142Y-202407142D01*
X163617857Y-202478571D01*
X163475000Y-202478571D01*
X163260714Y-202407142D01*
X163117857Y-202264285D01*
X163046428Y-202121428D01*
X162975000Y-201835714D01*
X162975000Y-201621428D01*
X163046428Y-201335714D01*
X163117857Y-201192857D01*
X163260714Y-201050000D01*
X163475000Y-200978571D01*
X163617857Y-200978571D01*
X163832142Y-201050000D01*
X163903571Y-201121428D01*
X165189285Y-202478571D02*
X165189285Y-201692857D01*
X165117857Y-201550000D01*
X164975000Y-201478571D01*
X164689285Y-201478571D01*
X164546428Y-201550000D01*
X165189285Y-202407142D02*
X165046428Y-202478571D01*
X164689285Y-202478571D01*
X164546428Y-202407142D01*
X164475000Y-202264285D01*
X164475000Y-202121428D01*
X164546428Y-201978571D01*
X164689285Y-201907142D01*
X165046428Y-201907142D01*
X165189285Y-201835714D01*
X166546428Y-202478571D02*
X166546428Y-200978571D01*
X166546428Y-202407142D02*
X166403571Y-202478571D01*
X166117857Y-202478571D01*
X165975000Y-202407142D01*
X165903571Y-202335714D01*
X165832142Y-202192857D01*
X165832142Y-201764285D01*
X165903571Y-201621428D01*
X165975000Y-201550000D01*
X166117857Y-201478571D01*
X166403571Y-201478571D01*
X166546428Y-201550000D01*
X168403571Y-201692857D02*
X168903571Y-201692857D01*
X169117857Y-202478571D02*
X168403571Y-202478571D01*
X168403571Y-200978571D01*
X169117857Y-200978571D01*
X169760714Y-202335714D02*
X169832142Y-202407142D01*
X169760714Y-202478571D01*
X169689285Y-202407142D01*
X169760714Y-202335714D01*
X169760714Y-202478571D01*
X170475000Y-202478571D02*
X170475000Y-200978571D01*
X170832142Y-200978571D01*
X171046428Y-201050000D01*
X171189285Y-201192857D01*
X171260714Y-201335714D01*
X171332142Y-201621428D01*
X171332142Y-201835714D01*
X171260714Y-202121428D01*
X171189285Y-202264285D01*
X171046428Y-202407142D01*
X170832142Y-202478571D01*
X170475000Y-202478571D01*
X171975000Y-202335714D02*
X172046428Y-202407142D01*
X171975000Y-202478571D01*
X171903571Y-202407142D01*
X171975000Y-202335714D01*
X171975000Y-202478571D01*
X172617857Y-202050000D02*
X173332142Y-202050000D01*
X172475000Y-202478571D02*
X172975000Y-200978571D01*
X173475000Y-202478571D01*
X173975000Y-202335714D02*
X174046428Y-202407142D01*
X173975000Y-202478571D01*
X173903571Y-202407142D01*
X173975000Y-202335714D01*
X173975000Y-202478571D01*
X176975000Y-202478571D02*
X176975000Y-200978571D01*
X177117857Y-201907142D02*
X177546428Y-202478571D01*
X177546428Y-201478571D02*
X176975000Y-202050000D01*
X178189285Y-202478571D02*
X178189285Y-201478571D01*
X178189285Y-200978571D02*
X178117857Y-201050000D01*
X178189285Y-201121428D01*
X178260714Y-201050000D01*
X178189285Y-200978571D01*
X178189285Y-201121428D01*
X179546428Y-202407142D02*
X179403571Y-202478571D01*
X179117857Y-202478571D01*
X178975000Y-202407142D01*
X178903571Y-202335714D01*
X178832142Y-202192857D01*
X178832142Y-201764285D01*
X178903571Y-201621428D01*
X178975000Y-201550000D01*
X179117857Y-201478571D01*
X179403571Y-201478571D01*
X179546428Y-201550000D01*
X180832142Y-202478571D02*
X180832142Y-201692857D01*
X180760714Y-201550000D01*
X180617857Y-201478571D01*
X180332142Y-201478571D01*
X180189285Y-201550000D01*
X180832142Y-202407142D02*
X180689285Y-202478571D01*
X180332142Y-202478571D01*
X180189285Y-202407142D01*
X180117857Y-202264285D01*
X180117857Y-202121428D01*
X180189285Y-201978571D01*
X180332142Y-201907142D01*
X180689285Y-201907142D01*
X180832142Y-201835714D01*
X182189285Y-202478571D02*
X182189285Y-200978571D01*
X182189285Y-202407142D02*
X182046428Y-202478571D01*
X181760714Y-202478571D01*
X181617857Y-202407142D01*
X181546428Y-202335714D01*
X181475000Y-202192857D01*
X181475000Y-201764285D01*
X181546428Y-201621428D01*
X181617857Y-201550000D01*
X181760714Y-201478571D01*
X182046428Y-201478571D01*
X182189285Y-201550000D01*
X184475000Y-203050000D02*
X184403571Y-202978571D01*
X184260714Y-202764285D01*
X184189285Y-202621428D01*
X184117857Y-202407142D01*
X184046428Y-202050000D01*
X184046428Y-201764285D01*
X184117857Y-201407142D01*
X184189285Y-201192857D01*
X184260714Y-201050000D01*
X184403571Y-200835714D01*
X184475000Y-200764285D01*
X185760714Y-200978571D02*
X185046428Y-200978571D01*
X184975000Y-201692857D01*
X185046428Y-201621428D01*
X185189285Y-201550000D01*
X185546428Y-201550000D01*
X185689285Y-201621428D01*
X185760714Y-201692857D01*
X185832142Y-201835714D01*
X185832142Y-202192857D01*
X185760714Y-202335714D01*
X185689285Y-202407142D01*
X185546428Y-202478571D01*
X185189285Y-202478571D01*
X185046428Y-202407142D01*
X184975000Y-202335714D01*
X186475000Y-202335714D02*
X186546428Y-202407142D01*
X186475000Y-202478571D01*
X186403571Y-202407142D01*
X186475000Y-202335714D01*
X186475000Y-202478571D01*
X187975000Y-202478571D02*
X187117857Y-202478571D01*
X187546428Y-202478571D02*
X187546428Y-200978571D01*
X187403571Y-201192857D01*
X187260714Y-201335714D01*
X187117857Y-201407142D01*
X188617857Y-202335714D02*
X188689285Y-202407142D01*
X188617857Y-202478571D01*
X188546428Y-202407142D01*
X188617857Y-202335714D01*
X188617857Y-202478571D01*
X189189285Y-200978571D02*
X190189285Y-200978571D01*
X189546428Y-202478571D01*
X190617857Y-203050000D02*
X190689285Y-202978571D01*
X190832142Y-202764285D01*
X190903571Y-202621428D01*
X190975000Y-202407142D01*
X191046428Y-202050000D01*
X191046428Y-201764285D01*
X190975000Y-201407142D01*
X190903571Y-201192857D01*
X190832142Y-201050000D01*
X190689285Y-200835714D01*
X190617857Y-200764285D01*
X191760714Y-201907142D02*
X192903571Y-201907142D01*
X194403571Y-202478571D02*
X193546428Y-202478571D01*
X193975000Y-202478571D02*
X193975000Y-200978571D01*
X193832142Y-201192857D01*
X193689285Y-201335714D01*
X193546428Y-201407142D01*
D10*
D11*
X159400000Y-197400000D02*
X267400000Y-197400000D01*
D10*
D12*
X246809285Y-199678571D02*
X246309285Y-198964285D01*
X245952142Y-199678571D02*
X245952142Y-198178571D01*
X246523571Y-198178571D01*
X246666428Y-198250000D01*
X246737857Y-198321428D01*
X246809285Y-198464285D01*
X246809285Y-198678571D01*
X246737857Y-198821428D01*
X246666428Y-198892857D01*
X246523571Y-198964285D01*
X245952142Y-198964285D01*
X248023571Y-199607142D02*
X247880714Y-199678571D01*
X247595000Y-199678571D01*
X247452142Y-199607142D01*
X247380714Y-199464285D01*
X247380714Y-198892857D01*
X247452142Y-198750000D01*
X247595000Y-198678571D01*
X247880714Y-198678571D01*
X248023571Y-198750000D01*
X248095000Y-198892857D01*
X248095000Y-199035714D01*
X247380714Y-199178571D01*
X248595000Y-198678571D02*
X248952142Y-199678571D01*
X249309285Y-198678571D01*
X249880714Y-199535714D02*
X249952142Y-199607142D01*
X249880714Y-199678571D01*
X249809285Y-199607142D01*
X249880714Y-199535714D01*
X249880714Y-199678571D01*
X249880714Y-198750000D02*
X249952142Y-198821428D01*
X249880714Y-198892857D01*
X249809285Y-198821428D01*
X249880714Y-198750000D01*
X249880714Y-198892857D01*
X252023571Y-198178571D02*
X252166428Y-198178571D01*
X252309285Y-198250000D01*
X252380714Y-198321428D01*
X252452142Y-198464285D01*
X252523571Y-198750000D01*
X252523571Y-199107142D01*
X252452142Y-199392857D01*
X252380714Y-199535714D01*
X252309285Y-199607142D01*
X252166428Y-199678571D01*
X252023571Y-199678571D01*
X251880714Y-199607142D01*
X251809285Y-199535714D01*
X251737857Y-199392857D01*
X251666428Y-199107142D01*
X251666428Y-198750000D01*
X251737857Y-198464285D01*
X251809285Y-198321428D01*
X251880714Y-198250000D01*
X252023571Y-198178571D01*
X253166428Y-199535714D02*
X253237857Y-199607142D01*
X253166428Y-199678571D01*
X253095000Y-199607142D01*
X253166428Y-199535714D01*
X253166428Y-199678571D01*
X254166428Y-198178571D02*
X254309285Y-198178571D01*
X254452142Y-198250000D01*
X254523571Y-198321428D01*
X254595000Y-198464285D01*
X254666428Y-198750000D01*
X254666428Y-199107142D01*
X254595000Y-199392857D01*
X254523571Y-199535714D01*
X254452142Y-199607142D01*
X254309285Y-199678571D01*
X254166428Y-199678571D01*
X254023571Y-199607142D01*
X253952142Y-199535714D01*
X253880714Y-199392857D01*
X253809285Y-199107142D01*
X253809285Y-198750000D01*
X253880714Y-198464285D01*
X253952142Y-198321428D01*
X254023571Y-198250000D01*
X254166428Y-198178571D01*
X255309285Y-199535714D02*
X255380714Y-199607142D01*
X255309285Y-199678571D01*
X255237857Y-199607142D01*
X255309285Y-199535714D01*
X255309285Y-199678571D01*
X256309285Y-198178571D02*
X256452142Y-198178571D01*
X256595000Y-198250000D01*
X256666428Y-198321428D01*
X256737857Y-198464285D01*
X256809285Y-198750000D01*
X256809285Y-199107142D01*
X256737857Y-199392857D01*
X256666428Y-199535714D01*
X256595000Y-199607142D01*
X256452142Y-199678571D01*
X256309285Y-199678571D01*
X256166428Y-199607142D01*
X256095000Y-199535714D01*
X256023571Y-199392857D01*
X255952142Y-199107142D01*
X255952142Y-198750000D01*
X256023571Y-198464285D01*
X256095000Y-198321428D01*
X256166428Y-198250000D01*
X256309285Y-198178571D01*
X258237857Y-199678571D02*
X257380714Y-199678571D01*
X257809285Y-199678571D02*
X257809285Y-198178571D01*
X257666428Y-198392857D01*
X257523571Y-198535714D01*
X257380714Y-198607142D01*
D10*
D11*
X160760714Y-199607142D02*
X160975000Y-199678571D01*
X161332142Y-199678571D01*
X161475000Y-199607142D01*
X161546428Y-199535714D01*
X161617857Y-199392857D01*
X161617857Y-199250000D01*
X161546428Y-199107142D01*
X161475000Y-199035714D01*
X161332142Y-198964285D01*
X161046428Y-198892857D01*
X160903571Y-198821428D01*
X160832142Y-198750000D01*
X160760714Y-198607142D01*
X160760714Y-198464285D01*
X160832142Y-198321428D01*
X160903571Y-198250000D01*
X161046428Y-198178571D01*
X161403571Y-198178571D01*
X161617857Y-198250000D01*
X162260714Y-199678571D02*
X162260714Y-198678571D01*
X162260714Y-198178571D02*
X162189285Y-198250000D01*
X162260714Y-198321428D01*
X162332142Y-198250000D01*
X162260714Y-198178571D01*
X162260714Y-198321428D01*
X162832142Y-198678571D02*
X163617857Y-198678571D01*
X162832142Y-199678571D01*
X163617857Y-199678571D01*
X164760714Y-199607142D02*
X164617857Y-199678571D01*
X164332142Y-199678571D01*
X164189285Y-199607142D01*
X164117857Y-199464285D01*
X164117857Y-198892857D01*
X164189285Y-198750000D01*
X164332142Y-198678571D01*
X164617857Y-198678571D01*
X164760714Y-198750000D01*
X164832142Y-198892857D01*
X164832142Y-199035714D01*
X164117857Y-199178571D01*
X165475000Y-199535714D02*
X165546428Y-199607142D01*
X165475000Y-199678571D01*
X165403571Y-199607142D01*
X165475000Y-199535714D01*
X165475000Y-199678571D01*
X165475000Y-198750000D02*
X165546428Y-198821428D01*
X165475000Y-198892857D01*
X165403571Y-198821428D01*
X165475000Y-198750000D01*
X165475000Y-198892857D01*
X167332142Y-198178571D02*
X167332142Y-199392857D01*
X167403571Y-199535714D01*
X167475000Y-199607142D01*
X167617857Y-199678571D01*
X167903571Y-199678571D01*
X168046428Y-199607142D01*
X168117857Y-199535714D01*
X168189285Y-199392857D01*
X168189285Y-198178571D01*
X168832142Y-199607142D02*
X169046428Y-199678571D01*
X169403571Y-199678571D01*
X169546428Y-199607142D01*
X169617857Y-199535714D01*
X169689285Y-199392857D01*
X169689285Y-199250000D01*
X169617857Y-199107142D01*
X169546428Y-199035714D01*
X169403571Y-198964285D01*
X169117857Y-198892857D01*
X168975000Y-198821428D01*
X168903571Y-198750000D01*
X168832142Y-198607142D01*
X168832142Y-198464285D01*
X168903571Y-198321428D01*
X168975000Y-198250000D01*
X169117857Y-198178571D01*
X169475000Y-198178571D01*
X169689285Y-198250000D01*
X171046428Y-199678571D02*
X170332142Y-199678571D01*
X170332142Y-198178571D01*
X172117857Y-199607142D02*
X171975000Y-199678571D01*
X171689285Y-199678571D01*
X171546428Y-199607142D01*
X171475000Y-199464285D01*
X171475000Y-198892857D01*
X171546428Y-198750000D01*
X171689285Y-198678571D01*
X171975000Y-198678571D01*
X172117857Y-198750000D01*
X172189285Y-198892857D01*
X172189285Y-199035714D01*
X171475000Y-199178571D01*
X172617857Y-198678571D02*
X173189285Y-198678571D01*
X172832142Y-198178571D02*
X172832142Y-199464285D01*
X172903571Y-199607142D01*
X173046428Y-199678571D01*
X173189285Y-199678571D01*
X173475000Y-198678571D02*
X174046428Y-198678571D01*
X173689285Y-198178571D02*
X173689285Y-199464285D01*
X173760714Y-199607142D01*
X173903571Y-199678571D01*
X174046428Y-199678571D01*
X175117857Y-199607142D02*
X174975000Y-199678571D01*
X174689285Y-199678571D01*
X174546428Y-199607142D01*
X174475000Y-199464285D01*
X174475000Y-198892857D01*
X174546428Y-198750000D01*
X174689285Y-198678571D01*
X174975000Y-198678571D01*
X175117857Y-198750000D01*
X175189285Y-198892857D01*
X175189285Y-199035714D01*
X174475000Y-199178571D01*
X175832142Y-199678571D02*
X175832142Y-198678571D01*
X175832142Y-198964285D02*
X175903571Y-198821428D01*
X175975000Y-198750000D01*
X176117857Y-198678571D01*
X176260714Y-198678571D01*
D10*
D11*
X245832142Y-202478571D02*
X245832142Y-200978571D01*
X247189285Y-202478571D02*
X247189285Y-200978571D01*
X247189285Y-202407142D02*
X247046428Y-202478571D01*
X246760714Y-202478571D01*
X246617857Y-202407142D01*
X246546428Y-202335714D01*
X246475000Y-202192857D01*
X246475000Y-201764285D01*
X246546428Y-201621428D01*
X246617857Y-201550000D01*
X246760714Y-201478571D01*
X247046428Y-201478571D01*
X247189285Y-201550000D01*
X247903571Y-202335714D02*
X247975000Y-202407142D01*
X247903571Y-202478571D01*
X247832142Y-202407142D01*
X247903571Y-202335714D01*
X247903571Y-202478571D01*
X247903571Y-201550000D02*
X247975000Y-201621428D01*
X247903571Y-201692857D01*
X247832142Y-201621428D01*
X247903571Y-201550000D01*
X247903571Y-201692857D01*
X250546428Y-202478571D02*
X249689285Y-202478571D01*
X250117857Y-202478571D02*
X250117857Y-200978571D01*
X249975000Y-201192857D01*
X249832142Y-201335714D01*
X249689285Y-201407142D01*
X252260714Y-200907142D02*
X250975000Y-202835714D01*
X253546428Y-202478571D02*
X252689285Y-202478571D01*
X253117857Y-202478571D02*
X253117857Y-200978571D01*
X252975000Y-201192857D01*
X252832142Y-201335714D01*
X252689285Y-201407142D01*
D10*
D11*
X159400000Y-193400000D02*
X267400000Y-193400000D01*
D10*
D13*
X161112380Y-194104761D02*
X162255238Y-194104761D01*
X161433809Y-196104761D02*
X161683809Y-194104761D01*
X162671904Y-196104761D02*
X162838571Y-194771428D01*
X162921904Y-194104761D02*
X162814761Y-194200000D01*
X162898095Y-194295238D01*
X163005238Y-194200000D01*
X162921904Y-194104761D01*
X162898095Y-194295238D01*
X163505238Y-194771428D02*
X164267142Y-194771428D01*
X163874285Y-194104761D02*
X163660000Y-195819047D01*
X163731428Y-196009523D01*
X163910000Y-196104761D01*
X164100476Y-196104761D01*
X165052857Y-196104761D02*
X164874285Y-196009523D01*
X164802857Y-195819047D01*
X165017142Y-194104761D01*
X166588571Y-196009523D02*
X166386190Y-196104761D01*
X166005238Y-196104761D01*
X165826666Y-196009523D01*
X165755238Y-195819047D01*
X165850476Y-195057142D01*
X165969523Y-194866666D01*
X166171904Y-194771428D01*
X166552857Y-194771428D01*
X166731428Y-194866666D01*
X166802857Y-195057142D01*
X166779047Y-195247619D01*
X165802857Y-195438095D01*
X167552857Y-195914285D02*
X167636190Y-196009523D01*
X167529047Y-196104761D01*
X167445714Y-196009523D01*
X167552857Y-195914285D01*
X167529047Y-196104761D01*
X167683809Y-194866666D02*
X167767142Y-194961904D01*
X167660000Y-195057142D01*
X167576666Y-194961904D01*
X167683809Y-194866666D01*
X167660000Y-195057142D01*
X171171904Y-195914285D02*
X171064761Y-196009523D01*
X170767142Y-196104761D01*
X170576666Y-196104761D01*
X170302857Y-196009523D01*
X170136190Y-195819047D01*
X170064761Y-195628571D01*
X170017142Y-195247619D01*
X170052857Y-194961904D01*
X170195714Y-194580952D01*
X170314761Y-194390476D01*
X170529047Y-194200000D01*
X170826666Y-194104761D01*
X171017142Y-194104761D01*
X171290952Y-194200000D01*
X171374285Y-194295238D01*
X171981428Y-195533333D02*
X172933809Y-195533333D01*
X171719523Y-196104761D02*
X172636190Y-194104761D01*
X173052857Y-196104761D01*
X173719523Y-196104761D02*
X173969523Y-194104761D01*
X174862380Y-196104761D01*
X175112380Y-194104761D01*
X175981428Y-194771428D02*
X175814761Y-196104761D01*
X175957619Y-194961904D02*
X176064761Y-194866666D01*
X176267142Y-194771428D01*
X176552857Y-194771428D01*
X176731428Y-194866666D01*
X176802857Y-195057142D01*
X176671904Y-196104761D01*
X178398095Y-196009523D02*
X178195714Y-196104761D01*
X177814761Y-196104761D01*
X177636190Y-196009523D01*
X177564761Y-195819047D01*
X177660000Y-195057142D01*
X177779047Y-194866666D01*
X177981428Y-194771428D01*
X178362380Y-194771428D01*
X178540952Y-194866666D01*
X178612380Y-195057142D01*
X178588571Y-195247619D01*
X177612380Y-195438095D01*
X180207619Y-196009523D02*
X180005238Y-196104761D01*
X179624285Y-196104761D01*
X179445714Y-196009523D01*
X179362380Y-195914285D01*
X179290952Y-195723809D01*
X179362380Y-195152380D01*
X179481428Y-194961904D01*
X179588571Y-194866666D01*
X179790952Y-194771428D01*
X180171904Y-194771428D01*
X180350476Y-194866666D01*
X180933809Y-194771428D02*
X181695714Y-194771428D01*
X181302857Y-194104761D02*
X181088571Y-195819047D01*
X181160000Y-196009523D01*
X181338571Y-196104761D01*
X181529047Y-196104761D01*
X184862380Y-196104761D02*
X184314761Y-195152380D01*
X183719523Y-196104761D02*
X183969523Y-194104761D01*
X184731428Y-194104761D01*
X184910000Y-194200000D01*
X184993333Y-194295238D01*
X185064761Y-194485714D01*
X185029047Y-194771428D01*
X184910000Y-194961904D01*
X184802857Y-195057142D01*
X184600476Y-195152380D01*
X183838571Y-195152380D01*
X186493333Y-196009523D02*
X186290952Y-196104761D01*
X185910000Y-196104761D01*
X185731428Y-196009523D01*
X185660000Y-195819047D01*
X185755238Y-195057142D01*
X185874285Y-194866666D01*
X186076666Y-194771428D01*
X186457619Y-194771428D01*
X186636190Y-194866666D01*
X186707619Y-195057142D01*
X186683809Y-195247619D01*
X185707619Y-195438095D01*
X188290952Y-196104761D02*
X188421904Y-195057142D01*
X188350476Y-194866666D01*
X188171904Y-194771428D01*
X187790952Y-194771428D01*
X187588571Y-194866666D01*
X188302857Y-196009523D02*
X188100476Y-196104761D01*
X187624285Y-196104761D01*
X187445714Y-196009523D01*
X187374285Y-195819047D01*
X187398095Y-195628571D01*
X187517142Y-195438095D01*
X187719523Y-195342857D01*
X188195714Y-195342857D01*
X188398095Y-195247619D01*
X190100476Y-196104761D02*
X190350476Y-194104761D01*
X190112380Y-196009523D02*
X189910000Y-196104761D01*
X189529047Y-196104761D01*
X189350476Y-196009523D01*
X189267142Y-195914285D01*
X189195714Y-195723809D01*
X189267142Y-195152380D01*
X189386190Y-194961904D01*
X189493333Y-194866666D01*
X189695714Y-194771428D01*
X190076666Y-194771428D01*
X190255238Y-194866666D01*
X191826666Y-196009523D02*
X191624285Y-196104761D01*
X191243333Y-196104761D01*
X191064761Y-196009523D01*
X190993333Y-195819047D01*
X191088571Y-195057142D01*
X191207619Y-194866666D01*
X191410000Y-194771428D01*
X191790952Y-194771428D01*
X191969523Y-194866666D01*
X192040952Y-195057142D01*
X192017142Y-195247619D01*
X191040952Y-195438095D01*
X192767142Y-196104761D02*
X192933809Y-194771428D01*
X192886190Y-195152380D02*
X193005238Y-194961904D01*
X193112380Y-194866666D01*
X193314761Y-194771428D01*
X193505238Y-194771428D01*
X195529047Y-196104761D02*
X195779047Y-194104761D01*
X196540952Y-194104761D01*
X196719523Y-194200000D01*
X196802857Y-194295238D01*
X196874285Y-194485714D01*
X196838571Y-194771428D01*
X196719523Y-194961904D01*
X196612380Y-195057142D01*
X196410000Y-195152380D01*
X195648095Y-195152380D01*
X198695714Y-195914285D02*
X198588571Y-196009523D01*
X198290952Y-196104761D01*
X198100476Y-196104761D01*
X197826666Y-196009523D01*
X197660000Y-195819047D01*
X197588571Y-195628571D01*
X197540952Y-195247619D01*
X197576666Y-194961904D01*
X197719523Y-194580952D01*
X197838571Y-194390476D01*
X198052857Y-194200000D01*
X198350476Y-194104761D01*
X198540952Y-194104761D01*
X198814761Y-194200000D01*
X198898095Y-194295238D01*
X200326666Y-195057142D02*
X200600476Y-195152380D01*
X200683809Y-195247619D01*
X200755238Y-195438095D01*
X200719523Y-195723809D01*
X200600476Y-195914285D01*
X200493333Y-196009523D01*
X200290952Y-196104761D01*
X199529047Y-196104761D01*
X199779047Y-194104761D01*
X200445714Y-194104761D01*
X200624285Y-194200000D01*
X200707619Y-194295238D01*
X200779047Y-194485714D01*
X200755238Y-194676190D01*
X200636190Y-194866666D01*
X200529047Y-194961904D01*
X200326666Y-195057142D01*
X199660000Y-195057142D01*
X204005238Y-196104761D02*
X203052857Y-196104761D01*
X203302857Y-194104761D01*
X205529047Y-196104761D02*
X205660000Y-195057142D01*
X205588571Y-194866666D01*
X205410000Y-194771428D01*
X205029047Y-194771428D01*
X204826666Y-194866666D01*
X205540952Y-196009523D02*
X205338571Y-196104761D01*
X204862380Y-196104761D01*
X204683809Y-196009523D01*
X204612380Y-195819047D01*
X204636190Y-195628571D01*
X204755238Y-195438095D01*
X204957619Y-195342857D01*
X205433809Y-195342857D01*
X205636190Y-195247619D01*
X206457619Y-194771428D02*
X206767142Y-196104761D01*
X207410000Y-194771428D02*
X206767142Y-196104761D01*
X206517142Y-196580952D01*
X206410000Y-196676190D01*
X206207619Y-196771428D01*
X208290952Y-196104761D02*
X208112380Y-196009523D01*
X208029047Y-195914285D01*
X207957619Y-195723809D01*
X208029047Y-195152380D01*
X208148095Y-194961904D01*
X208255238Y-194866666D01*
X208457619Y-194771428D01*
X208743333Y-194771428D01*
X208921904Y-194866666D01*
X209005238Y-194961904D01*
X209076666Y-195152380D01*
X209005238Y-195723809D01*
X208886190Y-195914285D01*
X208779047Y-196009523D01*
X208576666Y-196104761D01*
X208290952Y-196104761D01*
X210838571Y-194771428D02*
X210671904Y-196104761D01*
X209981428Y-194771428D02*
X209850476Y-195819047D01*
X209921904Y-196009523D01*
X210100476Y-196104761D01*
X210386190Y-196104761D01*
X210588571Y-196009523D01*
X210695714Y-195914285D01*
X211505238Y-194771428D02*
X212267142Y-194771428D01*
X211874285Y-194104761D02*
X211659999Y-195819047D01*
X211731428Y-196009523D01*
X211909999Y-196104761D01*
X212100476Y-196104761D01*
D10*
D11*
X161332142Y-191492857D02*
X160832142Y-191492857D01*
X160832142Y-192278571D02*
X160832142Y-190778571D01*
X161546428Y-190778571D01*
X162117857Y-192278571D02*
X162117857Y-191278571D01*
X162117857Y-190778571D02*
X162046428Y-190850000D01*
X162117857Y-190921428D01*
X162189285Y-190850000D01*
X162117857Y-190778571D01*
X162117857Y-190921428D01*
X163046428Y-192278571D02*
X162903571Y-192207142D01*
X162832142Y-192064285D01*
X162832142Y-190778571D01*
X164189285Y-192207142D02*
X164046428Y-192278571D01*
X163760714Y-192278571D01*
X163617857Y-192207142D01*
X163546428Y-192064285D01*
X163546428Y-191492857D01*
X163617857Y-191350000D01*
X163760714Y-191278571D01*
X164046428Y-191278571D01*
X164189285Y-191350000D01*
X164260714Y-191492857D01*
X164260714Y-191635714D01*
X163546428Y-191778571D01*
X164903571Y-192135714D02*
X164975000Y-192207142D01*
X164903571Y-192278571D01*
X164832142Y-192207142D01*
X164903571Y-192135714D01*
X164903571Y-192278571D01*
X164903571Y-191350000D02*
X164975000Y-191421428D01*
X164903571Y-191492857D01*
X164832142Y-191421428D01*
X164903571Y-191350000D01*
X164903571Y-191492857D01*
X167617857Y-192278571D02*
X167117857Y-191564285D01*
X166760714Y-192278571D02*
X166760714Y-190778571D01*
X167332142Y-190778571D01*
X167475000Y-190850000D01*
X167546428Y-190921428D01*
X167617857Y-191064285D01*
X167617857Y-191278571D01*
X167546428Y-191421428D01*
X167475000Y-191492857D01*
X167332142Y-191564285D01*
X166760714Y-191564285D01*
X168832142Y-192207142D02*
X168689285Y-192278571D01*
X168403571Y-192278571D01*
X168260714Y-192207142D01*
X168189285Y-192064285D01*
X168189285Y-191492857D01*
X168260714Y-191350000D01*
X168403571Y-191278571D01*
X168689285Y-191278571D01*
X168832142Y-191350000D01*
X168903571Y-191492857D01*
X168903571Y-191635714D01*
X168189285Y-191778571D01*
X170189285Y-192278571D02*
X170189285Y-191492857D01*
X170117857Y-191350000D01*
X169975000Y-191278571D01*
X169689285Y-191278571D01*
X169546428Y-191350000D01*
X170189285Y-192207142D02*
X170046428Y-192278571D01*
X169689285Y-192278571D01*
X169546428Y-192207142D01*
X169475000Y-192064285D01*
X169475000Y-191921428D01*
X169546428Y-191778571D01*
X169689285Y-191707142D01*
X170046428Y-191707142D01*
X170189285Y-191635714D01*
X171546428Y-192278571D02*
X171546428Y-190778571D01*
X171546428Y-192207142D02*
X171403571Y-192278571D01*
X171117857Y-192278571D01*
X170975000Y-192207142D01*
X170903571Y-192135714D01*
X170832142Y-191992857D01*
X170832142Y-191564285D01*
X170903571Y-191421428D01*
X170975000Y-191350000D01*
X171117857Y-191278571D01*
X171403571Y-191278571D01*
X171546428Y-191350000D01*
X172832142Y-192207142D02*
X172689285Y-192278571D01*
X172403571Y-192278571D01*
X172260714Y-192207142D01*
X172189285Y-192064285D01*
X172189285Y-191492857D01*
X172260714Y-191350000D01*
X172403571Y-191278571D01*
X172689285Y-191278571D01*
X172832142Y-191350000D01*
X172903571Y-191492857D01*
X172903571Y-191635714D01*
X172189285Y-191778571D01*
X173546428Y-192278571D02*
X173546428Y-191278571D01*
X173546428Y-191564285D02*
X173617857Y-191421428D01*
X173689285Y-191350000D01*
X173832142Y-191278571D01*
X173975000Y-191278571D01*
X174475000Y-192135714D02*
X174546428Y-192207142D01*
X174475000Y-192278571D01*
X174403571Y-192207142D01*
X174475000Y-192135714D01*
X174475000Y-192278571D01*
X175189285Y-192278571D02*
X175189285Y-190778571D01*
X175332142Y-191707142D02*
X175760714Y-192278571D01*
X175760714Y-191278571D02*
X175189285Y-191850000D01*
X176403571Y-192278571D02*
X176403571Y-191278571D01*
X176403571Y-190778571D02*
X176332142Y-190850000D01*
X176403571Y-190921428D01*
X176475000Y-190850000D01*
X176403571Y-190778571D01*
X176403571Y-190921428D01*
X177760714Y-192207142D02*
X177617857Y-192278571D01*
X177332142Y-192278571D01*
X177189285Y-192207142D01*
X177117857Y-192135714D01*
X177046428Y-191992857D01*
X177046428Y-191564285D01*
X177117857Y-191421428D01*
X177189285Y-191350000D01*
X177332142Y-191278571D01*
X177617857Y-191278571D01*
X177760714Y-191350000D01*
X179046428Y-192278571D02*
X179046428Y-191492857D01*
X178975000Y-191350000D01*
X178832142Y-191278571D01*
X178546428Y-191278571D01*
X178403571Y-191350000D01*
X179046428Y-192207142D02*
X178903571Y-192278571D01*
X178546428Y-192278571D01*
X178403571Y-192207142D01*
X178332142Y-192064285D01*
X178332142Y-191921428D01*
X178403571Y-191778571D01*
X178546428Y-191707142D01*
X178903571Y-191707142D01*
X179046428Y-191635714D01*
X180403571Y-192278571D02*
X180403571Y-190778571D01*
X180403571Y-192207142D02*
X180260714Y-192278571D01*
X179975000Y-192278571D01*
X179832142Y-192207142D01*
X179760714Y-192135714D01*
X179689285Y-191992857D01*
X179689285Y-191564285D01*
X179760714Y-191421428D01*
X179832142Y-191350000D01*
X179975000Y-191278571D01*
X180260714Y-191278571D01*
X180403571Y-191350000D01*
X180760714Y-192421428D02*
X181903571Y-192421428D01*
X182260714Y-191278571D02*
X182260714Y-192778571D01*
X182260714Y-191350000D02*
X182403571Y-191278571D01*
X182689285Y-191278571D01*
X182832142Y-191350000D01*
X182903571Y-191421428D01*
X182975000Y-191564285D01*
X182975000Y-191992857D01*
X182903571Y-192135714D01*
X182832142Y-192207142D01*
X182689285Y-192278571D01*
X182403571Y-192278571D01*
X182260714Y-192207142D01*
X184260714Y-192207142D02*
X184117857Y-192278571D01*
X183832142Y-192278571D01*
X183689285Y-192207142D01*
X183617857Y-192135714D01*
X183546428Y-191992857D01*
X183546428Y-191564285D01*
X183617857Y-191421428D01*
X183689285Y-191350000D01*
X183832142Y-191278571D01*
X184117857Y-191278571D01*
X184260714Y-191350000D01*
X184903571Y-192278571D02*
X184903571Y-190778571D01*
X184903571Y-191350000D02*
X185046428Y-191278571D01*
X185332142Y-191278571D01*
X185475000Y-191350000D01*
X185546428Y-191421428D01*
X185617857Y-191564285D01*
X185617857Y-191992857D01*
X185546428Y-192135714D01*
X185475000Y-192207142D01*
X185332142Y-192278571D01*
X185046428Y-192278571D01*
X184903571Y-192207142D01*
D10*
D11*
X159400000Y-187400000D02*
X267400000Y-187400000D01*
D10*
D11*
X160760714Y-189507142D02*
X160975000Y-189578571D01*
X161332142Y-189578571D01*
X161475000Y-189507142D01*
X161546428Y-189435714D01*
X161617857Y-189292857D01*
X161617857Y-189150000D01*
X161546428Y-189007142D01*
X161475000Y-188935714D01*
X161332142Y-188864285D01*
X161046428Y-188792857D01*
X160903571Y-188721428D01*
X160832142Y-188650000D01*
X160760714Y-188507142D01*
X160760714Y-188364285D01*
X160832142Y-188221428D01*
X160903571Y-188150000D01*
X161046428Y-188078571D01*
X161403571Y-188078571D01*
X161617857Y-188150000D01*
X162260714Y-189578571D02*
X162260714Y-188078571D01*
X162903571Y-189578571D02*
X162903571Y-188792857D01*
X162832142Y-188650000D01*
X162689285Y-188578571D01*
X162475000Y-188578571D01*
X162332142Y-188650000D01*
X162260714Y-188721428D01*
X164189285Y-189507142D02*
X164046428Y-189578571D01*
X163760714Y-189578571D01*
X163617857Y-189507142D01*
X163546428Y-189364285D01*
X163546428Y-188792857D01*
X163617857Y-188650000D01*
X163760714Y-188578571D01*
X164046428Y-188578571D01*
X164189285Y-188650000D01*
X164260714Y-188792857D01*
X164260714Y-188935714D01*
X163546428Y-189078571D01*
X165475000Y-189507142D02*
X165332142Y-189578571D01*
X165046428Y-189578571D01*
X164903571Y-189507142D01*
X164832142Y-189364285D01*
X164832142Y-188792857D01*
X164903571Y-188650000D01*
X165046428Y-188578571D01*
X165332142Y-188578571D01*
X165475000Y-188650000D01*
X165546428Y-188792857D01*
X165546428Y-188935714D01*
X164832142Y-189078571D01*
X165975000Y-188578571D02*
X166546428Y-188578571D01*
X166189285Y-188078571D02*
X166189285Y-189364285D01*
X166260714Y-189507142D01*
X166403571Y-189578571D01*
X166546428Y-189578571D01*
X167046428Y-189435714D02*
X167117857Y-189507142D01*
X167046428Y-189578571D01*
X166975000Y-189507142D01*
X167046428Y-189435714D01*
X167046428Y-189578571D01*
X167046428Y-188650000D02*
X167117857Y-188721428D01*
X167046428Y-188792857D01*
X166975000Y-188721428D01*
X167046428Y-188650000D01*
X167046428Y-188792857D01*
D10*
D12*
X161809285Y-186435714D02*
X161737857Y-186507142D01*
X161523571Y-186578571D01*
X161380714Y-186578571D01*
X161166428Y-186507142D01*
X161023571Y-186364285D01*
X160952142Y-186221428D01*
X160880714Y-185935714D01*
X160880714Y-185721428D01*
X160952142Y-185435714D01*
X161023571Y-185292857D01*
X161166428Y-185150000D01*
X161380714Y-185078571D01*
X161523571Y-185078571D01*
X161737857Y-185150000D01*
X161809285Y-185221428D01*
X162380714Y-186150000D02*
X163095000Y-186150000D01*
X162237857Y-186578571D02*
X162737857Y-185078571D01*
X163237857Y-186578571D01*
X163737857Y-186578571D02*
X163737857Y-185078571D01*
X164595000Y-186578571D01*
X164595000Y-185078571D01*
X165095000Y-185578571D02*
X165666428Y-185578571D01*
X165309285Y-185078571D02*
X165309285Y-186364285D01*
X165380714Y-186507142D01*
X165523571Y-186578571D01*
X165666428Y-186578571D01*
X166737857Y-186507142D02*
X166595000Y-186578571D01*
X166309285Y-186578571D01*
X166166428Y-186507142D01*
X166095000Y-186364285D01*
X166095000Y-185792857D01*
X166166428Y-185650000D01*
X166309285Y-185578571D01*
X166595000Y-185578571D01*
X166737857Y-185650000D01*
X166809285Y-185792857D01*
X166809285Y-185935714D01*
X166095000Y-186078571D01*
X168095000Y-186507142D02*
X167952142Y-186578571D01*
X167666428Y-186578571D01*
X167523571Y-186507142D01*
X167452142Y-186435714D01*
X167380714Y-186292857D01*
X167380714Y-185864285D01*
X167452142Y-185721428D01*
X167523571Y-185650000D01*
X167666428Y-185578571D01*
X167952142Y-185578571D01*
X168095000Y-185650000D01*
X168737857Y-186578571D02*
X168737857Y-185078571D01*
X169380714Y-186578571D02*
X169380714Y-185792857D01*
X169309285Y-185650000D01*
X169166428Y-185578571D01*
X168952142Y-185578571D01*
X168809285Y-185650000D01*
X168737857Y-185721428D01*
D10*
D11*
X161689285Y-183435714D02*
X161617857Y-183507142D01*
X161403571Y-183578571D01*
X161260714Y-183578571D01*
X161046428Y-183507142D01*
X160903571Y-183364285D01*
X160832142Y-183221428D01*
X160760714Y-182935714D01*
X160760714Y-182721428D01*
X160832142Y-182435714D01*
X160903571Y-182292857D01*
X161046428Y-182150000D01*
X161260714Y-182078571D01*
X161403571Y-182078571D01*
X161617857Y-182150000D01*
X161689285Y-182221428D01*
X162332142Y-183578571D02*
X162332142Y-182578571D01*
X162332142Y-182864285D02*
X162403571Y-182721428D01*
X162475000Y-182650000D01*
X162617857Y-182578571D01*
X162760714Y-182578571D01*
X163832142Y-183507142D02*
X163689285Y-183578571D01*
X163403571Y-183578571D01*
X163260714Y-183507142D01*
X163189285Y-183364285D01*
X163189285Y-182792857D01*
X163260714Y-182650000D01*
X163403571Y-182578571D01*
X163689285Y-182578571D01*
X163832142Y-182650000D01*
X163903571Y-182792857D01*
X163903571Y-182935714D01*
X163189285Y-183078571D01*
X165189285Y-183578571D02*
X165189285Y-182792857D01*
X165117857Y-182650000D01*
X164975000Y-182578571D01*
X164689285Y-182578571D01*
X164546428Y-182650000D01*
X165189285Y-183507142D02*
X165046428Y-183578571D01*
X164689285Y-183578571D01*
X164546428Y-183507142D01*
X164475000Y-183364285D01*
X164475000Y-183221428D01*
X164546428Y-183078571D01*
X164689285Y-183007142D01*
X165046428Y-183007142D01*
X165189285Y-182935714D01*
X165689285Y-182578571D02*
X166260714Y-182578571D01*
X165903571Y-182078571D02*
X165903571Y-183364285D01*
X165975000Y-183507142D01*
X166117857Y-183578571D01*
X166260714Y-183578571D01*
X167332142Y-183507142D02*
X167189285Y-183578571D01*
X166903571Y-183578571D01*
X166760714Y-183507142D01*
X166689285Y-183364285D01*
X166689285Y-182792857D01*
X166760714Y-182650000D01*
X166903571Y-182578571D01*
X167189285Y-182578571D01*
X167332142Y-182650000D01*
X167403571Y-182792857D01*
X167403571Y-182935714D01*
X166689285Y-183078571D01*
X168689285Y-183578571D02*
X168689285Y-182078571D01*
X168689285Y-183507142D02*
X168546428Y-183578571D01*
X168260714Y-183578571D01*
X168117857Y-183507142D01*
X168046428Y-183435714D01*
X167975000Y-183292857D01*
X167975000Y-182864285D01*
X168046428Y-182721428D01*
X168117857Y-182650000D01*
X168260714Y-182578571D01*
X168546428Y-182578571D01*
X168689285Y-182650000D01*
X170546428Y-183578571D02*
X170546428Y-182078571D01*
X170546428Y-182650000D02*
X170689285Y-182578571D01*
X170975000Y-182578571D01*
X171117857Y-182650000D01*
X171189285Y-182721428D01*
X171260714Y-182864285D01*
X171260714Y-183292857D01*
X171189285Y-183435714D01*
X171117857Y-183507142D01*
X170975000Y-183578571D01*
X170689285Y-183578571D01*
X170546428Y-183507142D01*
X171760714Y-182578571D02*
X172117857Y-183578571D01*
X172475000Y-182578571D02*
X172117857Y-183578571D01*
X171975000Y-183935714D01*
X171903571Y-184007142D01*
X171760714Y-184078571D01*
X175046428Y-183435714D02*
X174975000Y-183507142D01*
X174760714Y-183578571D01*
X174617857Y-183578571D01*
X174403571Y-183507142D01*
X174260714Y-183364285D01*
X174189285Y-183221428D01*
X174117857Y-182935714D01*
X174117857Y-182721428D01*
X174189285Y-182435714D01*
X174260714Y-182292857D01*
X174403571Y-182150000D01*
X174617857Y-182078571D01*
X174760714Y-182078571D01*
X174975000Y-182150000D01*
X175046428Y-182221428D01*
X175689285Y-183578571D02*
X175689285Y-182078571D01*
X176332142Y-183578571D02*
X176332142Y-182792857D01*
X176260714Y-182650000D01*
X176117857Y-182578571D01*
X175903571Y-182578571D01*
X175760714Y-182650000D01*
X175689285Y-182721428D01*
X177260714Y-183578571D02*
X177117857Y-183507142D01*
X177046428Y-183435714D01*
X176975000Y-183292857D01*
X176975000Y-182864285D01*
X177046428Y-182721428D01*
X177117857Y-182650000D01*
X177260714Y-182578571D01*
X177475000Y-182578571D01*
X177617857Y-182650000D01*
X177689285Y-182721428D01*
X177760714Y-182864285D01*
X177760714Y-183292857D01*
X177689285Y-183435714D01*
X177617857Y-183507142D01*
X177475000Y-183578571D01*
X177260714Y-183578571D01*
X178617857Y-183578571D02*
X178475000Y-183507142D01*
X178403571Y-183435714D01*
X178332142Y-183292857D01*
X178332142Y-182864285D01*
X178403571Y-182721428D01*
X178475000Y-182650000D01*
X178617857Y-182578571D01*
X178832142Y-182578571D01*
X178975000Y-182650000D01*
X179046428Y-182721428D01*
X179117857Y-182864285D01*
X179117857Y-183292857D01*
X179046428Y-183435714D01*
X178975000Y-183507142D01*
X178832142Y-183578571D01*
X178617857Y-183578571D01*
X179760714Y-182578571D02*
X179760714Y-183578571D01*
X179760714Y-182721428D02*
X179832142Y-182650000D01*
X179975000Y-182578571D01*
X180189285Y-182578571D01*
X180332142Y-182650000D01*
X180403571Y-182792857D01*
X180403571Y-183578571D01*
X181760714Y-182578571D02*
X181760714Y-183792857D01*
X181689285Y-183935714D01*
X181617857Y-184007142D01*
X181475000Y-184078571D01*
X181260714Y-184078571D01*
X181117857Y-184007142D01*
X181760714Y-183507142D02*
X181617857Y-183578571D01*
X181332142Y-183578571D01*
X181189285Y-183507142D01*
X181117857Y-183435714D01*
X181046428Y-183292857D01*
X181046428Y-182864285D01*
X181117857Y-182721428D01*
X181189285Y-182650000D01*
X181332142Y-182578571D01*
X181617857Y-182578571D01*
X181760714Y-182650000D01*
X184046428Y-182078571D02*
X184046428Y-183150000D01*
X183975000Y-183364285D01*
X183832142Y-183507142D01*
X183617857Y-183578571D01*
X183475000Y-183578571D01*
X184760714Y-183578571D02*
X184760714Y-182578571D01*
X184760714Y-182078571D02*
X184689285Y-182150000D01*
X184760714Y-182221428D01*
X184832142Y-182150000D01*
X184760714Y-182078571D01*
X184760714Y-182221428D01*
X185475000Y-182578571D02*
X185475000Y-183578571D01*
X185475000Y-182721428D02*
X185546428Y-182650000D01*
X185689285Y-182578571D01*
X185903571Y-182578571D01*
X186046428Y-182650000D01*
X186117857Y-182792857D01*
X186117857Y-183578571D01*
X187975000Y-183578571D02*
X187975000Y-182078571D01*
X188832142Y-183578571D01*
X188832142Y-182078571D01*
X190189285Y-182578571D02*
X190189285Y-183792857D01*
X190117857Y-183935714D01*
X190046428Y-184007142D01*
X189903571Y-184078571D01*
X189689285Y-184078571D01*
X189546428Y-184007142D01*
X190189285Y-183507142D02*
X190046428Y-183578571D01*
X189760714Y-183578571D01*
X189617857Y-183507142D01*
X189546428Y-183435714D01*
X189475000Y-183292857D01*
X189475000Y-182864285D01*
X189546428Y-182721428D01*
X189617857Y-182650000D01*
X189760714Y-182578571D01*
X190046428Y-182578571D01*
X190189285Y-182650000D01*
X192403571Y-184078571D02*
X192403571Y-181935714D01*
X194617857Y-182578571D02*
X194617857Y-183864285D01*
X194546428Y-184007142D01*
X194403571Y-184078571D01*
X194332142Y-184078571D01*
X194617857Y-182078571D02*
X194546428Y-182150000D01*
X194617857Y-182221428D01*
X194689285Y-182150000D01*
X194617857Y-182078571D01*
X194617857Y-182221428D01*
X195332142Y-183578571D02*
X195332142Y-182578571D01*
X195332142Y-182078571D02*
X195260714Y-182150000D01*
X195332142Y-182221428D01*
X195403571Y-182150000D01*
X195332142Y-182078571D01*
X195332142Y-182221428D01*
X196046428Y-182578571D02*
X196046428Y-183578571D01*
X196046428Y-182721428D02*
X196117857Y-182650000D01*
X196260714Y-182578571D01*
X196475000Y-182578571D01*
X196617857Y-182650000D01*
X196689285Y-182792857D01*
X196689285Y-183578571D01*
X197617857Y-182721428D02*
X197475000Y-182650000D01*
X197403571Y-182578571D01*
X197332142Y-182435714D01*
X197332142Y-182364285D01*
X197403571Y-182221428D01*
X197475000Y-182150000D01*
X197617857Y-182078571D01*
X197903571Y-182078571D01*
X198046428Y-182150000D01*
X198117857Y-182221428D01*
X198189285Y-182364285D01*
X198189285Y-182435714D01*
X198117857Y-182578571D01*
X198046428Y-182650000D01*
X197903571Y-182721428D01*
X197617857Y-182721428D01*
X197475000Y-182792857D01*
X197403571Y-182864285D01*
X197332142Y-183007142D01*
X197332142Y-183292857D01*
X197403571Y-183435714D01*
X197475000Y-183507142D01*
X197617857Y-183578571D01*
X197903571Y-183578571D01*
X198046428Y-183507142D01*
X198117857Y-183435714D01*
X198189285Y-183292857D01*
X198189285Y-183007142D01*
X198117857Y-182864285D01*
X198046428Y-182792857D01*
X197903571Y-182721428D01*
X198689285Y-182078571D02*
X199617857Y-182078571D01*
X199117857Y-182650000D01*
X199332142Y-182650000D01*
X199475000Y-182721428D01*
X199546428Y-182792857D01*
X199617857Y-182935714D01*
X199617857Y-183292857D01*
X199546428Y-183435714D01*
X199475000Y-183507142D01*
X199332142Y-183578571D01*
X198903571Y-183578571D01*
X198760714Y-183507142D01*
X198689285Y-183435714D01*
X200475000Y-182721428D02*
X200332142Y-182650000D01*
X200260714Y-182578571D01*
X200189285Y-182435714D01*
X200189285Y-182364285D01*
X200260714Y-182221428D01*
X200332142Y-182150000D01*
X200475000Y-182078571D01*
X200760714Y-182078571D01*
X200903571Y-182150000D01*
X200975000Y-182221428D01*
X201046428Y-182364285D01*
X201046428Y-182435714D01*
X200975000Y-182578571D01*
X200903571Y-182650000D01*
X200760714Y-182721428D01*
X200475000Y-182721428D01*
X200332142Y-182792857D01*
X200260714Y-182864285D01*
X200189285Y-183007142D01*
X200189285Y-183292857D01*
X200260714Y-183435714D01*
X200332142Y-183507142D01*
X200475000Y-183578571D01*
X200760714Y-183578571D01*
X200903571Y-183507142D01*
X200975000Y-183435714D01*
X201046428Y-183292857D01*
X201046428Y-183007142D01*
X200975000Y-182864285D01*
X200903571Y-182792857D01*
X200760714Y-182721428D01*
X201546428Y-182078571D02*
X202475000Y-182078571D01*
X201975000Y-182650000D01*
X202189285Y-182650000D01*
X202332142Y-182721428D01*
X202403571Y-182792857D01*
X202475000Y-182935714D01*
X202475000Y-183292857D01*
X202403571Y-183435714D01*
X202332142Y-183507142D01*
X202189285Y-183578571D01*
X201760714Y-183578571D01*
X201617857Y-183507142D01*
X201546428Y-183435714D01*
X204046428Y-182864285D02*
X203975000Y-182792857D01*
X203832142Y-182721428D01*
X203689285Y-182721428D01*
X203546428Y-182792857D01*
X203475000Y-182864285D01*
X203403571Y-183007142D01*
X203403571Y-183150000D01*
X203475000Y-183292857D01*
X203546428Y-183364285D01*
X203689285Y-183435714D01*
X203832142Y-183435714D01*
X203975000Y-183364285D01*
X204046428Y-183292857D01*
X204046428Y-182721428D02*
X204046428Y-183292857D01*
X204117857Y-183364285D01*
X204189285Y-183364285D01*
X204332142Y-183292857D01*
X204403571Y-183150000D01*
X204403571Y-182792857D01*
X204260714Y-182578571D01*
X204046428Y-182435714D01*
X203760714Y-182364285D01*
X203475000Y-182435714D01*
X203260714Y-182578571D01*
X203117857Y-182792857D01*
X203046428Y-183078571D01*
X203117857Y-183364285D01*
X203260714Y-183578571D01*
X203475000Y-183721428D01*
X203760714Y-183792857D01*
X204046428Y-183721428D01*
X204260714Y-183578571D01*
X205689285Y-182578571D02*
X205689285Y-183792857D01*
X205617857Y-183935714D01*
X205546428Y-184007142D01*
X205403571Y-184078571D01*
X205189285Y-184078571D01*
X205046428Y-184007142D01*
X205689285Y-183507142D02*
X205546428Y-183578571D01*
X205260714Y-183578571D01*
X205117857Y-183507142D01*
X205046428Y-183435714D01*
X204975000Y-183292857D01*
X204975000Y-182864285D01*
X205046428Y-182721428D01*
X205117857Y-182650000D01*
X205260714Y-182578571D01*
X205546428Y-182578571D01*
X205689285Y-182650000D01*
X206403571Y-183578571D02*
X206403571Y-182578571D01*
X206403571Y-182721428D02*
X206475000Y-182650000D01*
X206617857Y-182578571D01*
X206832142Y-182578571D01*
X206975000Y-182650000D01*
X207046428Y-182792857D01*
X207046428Y-183578571D01*
X207046428Y-182792857D02*
X207117857Y-182650000D01*
X207260714Y-182578571D01*
X207475000Y-182578571D01*
X207617857Y-182650000D01*
X207689285Y-182792857D01*
X207689285Y-183578571D01*
X209046428Y-183578571D02*
X209046428Y-182792857D01*
X208975000Y-182650000D01*
X208832142Y-182578571D01*
X208546428Y-182578571D01*
X208403571Y-182650000D01*
X209046428Y-183507142D02*
X208903571Y-183578571D01*
X208546428Y-183578571D01*
X208403571Y-183507142D01*
X208332142Y-183364285D01*
X208332142Y-183221428D01*
X208403571Y-183078571D01*
X208546428Y-183007142D01*
X208903571Y-183007142D01*
X209046428Y-182935714D01*
X209760714Y-183578571D02*
X209760714Y-182578571D01*
X209760714Y-182078571D02*
X209689285Y-182150000D01*
X209760714Y-182221428D01*
X209832142Y-182150000D01*
X209760714Y-182078571D01*
X209760714Y-182221428D01*
X210689285Y-183578571D02*
X210546428Y-183507142D01*
X210475000Y-183364285D01*
X210475000Y-182078571D01*
X211260714Y-183435714D02*
X211332142Y-183507142D01*
X211260714Y-183578571D01*
X211189285Y-183507142D01*
X211260714Y-183435714D01*
X211260714Y-183578571D01*
X212617857Y-183507142D02*
X212475000Y-183578571D01*
X212189285Y-183578571D01*
X212046428Y-183507142D01*
X211975000Y-183435714D01*
X211903571Y-183292857D01*
X211903571Y-182864285D01*
X211975000Y-182721428D01*
X212046428Y-182650000D01*
X212189285Y-182578571D01*
X212475000Y-182578571D01*
X212617857Y-182650000D01*
X213475000Y-183578571D02*
X213332142Y-183507142D01*
X213260714Y-183435714D01*
X213189285Y-183292857D01*
X213189285Y-182864285D01*
X213260714Y-182721428D01*
X213332142Y-182650000D01*
X213475000Y-182578571D01*
X213689285Y-182578571D01*
X213832142Y-182650000D01*
X213903571Y-182721428D01*
X213975000Y-182864285D01*
X213975000Y-183292857D01*
X213903571Y-183435714D01*
X213832142Y-183507142D01*
X213689285Y-183578571D01*
X213475000Y-183578571D01*
X214617857Y-183578571D02*
X214617857Y-182578571D01*
X214617857Y-182721428D02*
X214689285Y-182650000D01*
X214832142Y-182578571D01*
X215046428Y-182578571D01*
X215189285Y-182650000D01*
X215260714Y-182792857D01*
X215260714Y-183578571D01*
X215260714Y-182792857D02*
X215332142Y-182650000D01*
X215475000Y-182578571D01*
X215689285Y-182578571D01*
X215832142Y-182650000D01*
X215903571Y-182792857D01*
X215903571Y-183578571D01*
D10*
D11*
X179400000Y-197400000D02*
X179400000Y-200400000D01*
D10*
D11*
X243400000Y-197400000D02*
X243400000Y-203900000D01*
D14*
%TO.P,C_J1850_1,1*%
%TO.N,Net-(C_J1850_1-Pad1)*%
X169418000Y-85686000D03*
%TO.P,C_J1850_1,2*%
%TO.N,Pin4_GnD_Chassis*%
X169418000Y-83986000D03*
%TD*%
D15*
%TO.P,J_CN_2,1*%
%TO.N,Pin7_ISO9141_K-Line*%
X117094000Y-155702000D03*
%TO.P,J_CN_2,2*%
%TO.N,Pin15_ISO9141_L-Line*%
X122094000Y-155702000D03*
%TD*%
%TO.P,J_HST_6,1*%
%TO.N,/Host/MEMS_INT*%
X154940000Y-56286400D03*
%TO.P,J_HST_6,2*%
%TO.N,/Host/MEMS_CS*%
X149940000Y-56286400D03*
%TD*%
%TO.P,CP_STN_1,1*%
%TO.N,Net-(CP_STN_1-Pad1)*%
%TA.AperFunction,SMDPad,CuDef*%
G36*
G01*
X118507600Y-83668800D02*
X117407600Y-83668800D01*
G75*
G02*
X117157600Y-83418800I0J250000D01*
G01*
X117157600Y-81318800D01*
G75*
G02*
X117407600Y-81068800I250000J0D01*
G01*
X118507600Y-81068800D01*
G75*
G02*
X118757600Y-81318800I0J-250000D01*
G01*
X118757600Y-83418800D01*
G75*
G02*
X118507600Y-83668800I-250000J0D01*
G01*
G37*
%TD.AperFunction*%
%TO.P,CP_STN_1,2*%
%TO.N,Pin4_GnD_Chassis*%
%TA.AperFunction,SMDPad,CuDef*%
G36*
G01*
X118507600Y-80068800D02*
X117407600Y-80068800D01*
G75*
G02*
X117157600Y-79818800I0J250000D01*
G01*
X117157600Y-77718800D01*
G75*
G02*
X117407600Y-77468800I250000J0D01*
G01*
X118507600Y-77468800D01*
G75*
G02*
X118757600Y-77718800I0J-250000D01*
G01*
X118757600Y-79818800D01*
G75*
G02*
X118507600Y-80068800I-250000J0D01*
G01*
G37*
%TD.AperFunction*%
%TD*%
D16*
%TO.P,D_J1850_2,1*%
%TO.N,Pin4_GnD_Chassis*%
X169405300Y-112090200D03*
D17*
%TO.P,D_J1850_2,2*%
%TO.N,Net-(D_J1850_2-Pad2)*%
X169405300Y-104470200D03*
%TD*%
D15*
%TO.P,J_SWCAN_1,1*%
%TO.N,Pin1_SW_CAN*%
X153898600Y-106070400D03*
%TO.P,J_SWCAN_1,2*%
%TO.N,Net-(J_SWCAN_1-Pad2)*%
X153898600Y-101070400D03*
%TD*%
%TO.P,J_STN_1,1*%
%TO.N,/OBDII Interpreter/High Speed CAN Transceiver/HS_CAN_RX*%
X112090200Y-76588200D03*
%TO.P,J_STN_1,2*%
%TO.N,/OBDII Interpreter/High Speed CAN Transceiver/HS_CAN_TX*%
X112090200Y-71588200D03*
%TD*%
%TO.P,J_HST_2,1*%
%TO.N,/Host/HOST_RX*%
X112090200Y-64871600D03*
%TO.P,J_HST_2,2*%
%TO.N,/Host/HOST_TX*%
X112090200Y-59871600D03*
%TD*%
D18*
%TO.P,D_ESD_2,3*%
%TO.N,Pin4_GnD_Chassis*%
X129794000Y-148978000D03*
%TO.P,D_ESD_2,2*%
%TO.N,Pin11_MS_CAN_Low*%
X130744000Y-146678000D03*
%TO.P,D_ESD_2,1*%
%TO.N,Pin3_MS_CAN_High*%
X128844000Y-146678000D03*
%TD*%
D14*
%TO.P,C_HSCAN_2,1*%
%TO.N,Net-(C_HSCAN_2-Pad1)*%
X116509800Y-62495800D03*
%TO.P,C_HSCAN_2,2*%
%TO.N,Pin4_GnD_Chassis*%
X116509800Y-60795800D03*
%TD*%
D16*
%TO.P,D_VS_1,1*%
%TO.N,+3V3*%
X130810000Y-106680000D03*
D17*
%TO.P,D_VS_1,2*%
%TO.N,/OBDII Interpreter/Analog_Voltage*%
X123190000Y-106680000D03*
%TD*%
D15*
%TO.P,J_PSW_1,2*%
%TO.N,+12V*%
X136042400Y-113414800D03*
%TO.P,J_PSW_1,1*%
%TO.N,+12V_SW*%
X136042400Y-118414800D03*
%TD*%
D16*
%TO.P,D_J1850_3,1*%
%TO.N,Net-(D_J1850_3-Pad1)*%
X173151800Y-104470200D03*
D17*
%TO.P,D_J1850_3,2*%
%TO.N,+5V_SW*%
X173151800Y-112090200D03*
%TD*%
D19*
%TO.P,C_PS_2,2*%
%TO.N,Pin4_GnD_Chassis*%
X161925000Y-128905000D03*
%TO.P,C_PS_2,1*%
%TO.N,+5V*%
X161925000Y-126105004D03*
%TD*%
D15*
%TO.P,J_CN_1,2*%
%TO.N,Pin14_ISO15765_CAN_BUS_Low*%
X167306000Y-155702000D03*
%TO.P,J_CN_1,1*%
%TO.N,Pin6_ISO15765_CAN_BUS_High*%
X162306000Y-155702000D03*
%TD*%
D20*
%TO.P,C_MM_1,1*%
%TO.N,+3V3*%
X142728000Y-76835000D03*
%TO.P,C_MM_1,2*%
%TO.N,Pin4_GnD_Chassis*%
X140228000Y-76835000D03*
%TD*%
D14*
%TO.P,C_HSCAN_3,1*%
%TO.N,Pin4_GnD_Chassis*%
X115366800Y-88530800D03*
%TO.P,C_HSCAN_3,2*%
%TO.N,+5V*%
X115366800Y-86830800D03*
%TD*%
D19*
%TO.P,C_PS_3,1*%
%TO.N,+3V3*%
X127762000Y-125600002D03*
%TO.P,C_PS_3,2*%
%TO.N,Pin4_GnD_Chassis*%
X127762000Y-128399998D03*
%TD*%
D21*
%TO.P,C_STN_5,2*%
%TO.N,Pin4_GnD_Chassis*%
X131660000Y-92290000D03*
%TO.P,C_STN_5,1*%
%TO.N,+3V3*%
X129960000Y-92290000D03*
%TD*%
D14*
%TO.P,C_MSCAN_2,1*%
%TO.N,Net-(C_MSCAN_2-Pad1)*%
X121920000Y-142025000D03*
%TO.P,C_MSCAN_2,2*%
%TO.N,Pin4_GnD_Chassis*%
X121920000Y-143725000D03*
%TD*%
D19*
%TO.P,C_SWCAN_2,1*%
%TO.N,+12V*%
X136525000Y-63629998D03*
%TO.P,C_SWCAN_2,2*%
%TO.N,Pin4_GnD_Chassis*%
X136525000Y-60830002D03*
%TD*%
D17*
%TO.P,D_J1850_1,2*%
%TO.N,Net-(D_J1850_1-Pad2)*%
X172720000Y-81280000D03*
D16*
%TO.P,D_J1850_1,1*%
%TO.N,Pin2_SAE_J1850_BUS+*%
X172720000Y-73660000D03*
%TD*%
D22*
%TO.P,C_VR1_in1,1*%
%TO.N,Net-(C_VR1_in1-Pad1)*%
X147957998Y-128016000D03*
%TO.P,C_VR1_in1,2*%
%TO.N,+12V*%
X145158002Y-128016000D03*
%TD*%
%TO.P,C_VR2_in1,2*%
%TO.N,+12V*%
X139575998Y-128016000D03*
%TO.P,C_VR2_in1,1*%
%TO.N,Net-(C_VR2_in1-Pad1)*%
X136776002Y-128016000D03*
%TD*%
D15*
%TO.P,J_HST_4,1*%
%TO.N,+5V*%
X173355000Y-61772800D03*
%TO.P,J_HST_4,2*%
X173355000Y-66772800D03*
%TD*%
%TO.P,J_HST_5,2*%
%TO.N,/Host/I2C_SDA*%
X137240000Y-56286400D03*
%TO.P,J_HST_5,1*%
%TO.N,/Host/I2C_SCL*%
X142240000Y-56286400D03*
%TD*%
D21*
%TO.P,C_VR1_BST1,2*%
%TO.N,Net-(C_VR1_BST1-Pad2)*%
X153504000Y-132842000D03*
%TO.P,C_VR1_BST1,1*%
%TO.N,Net-(C_VR1_BST1-Pad1)*%
X151804000Y-132842000D03*
%TD*%
D17*
%TO.P,D_VS_2,2*%
%TO.N,Pin4_GnD_Chassis*%
X123190000Y-101600000D03*
D16*
%TO.P,D_VS_2,1*%
%TO.N,/OBDII Interpreter/Analog_Voltage*%
X130810000Y-101600000D03*
%TD*%
D15*
%TO.P,J_PS_2,2*%
%TO.N,+3V3*%
X172720000Y-118190000D03*
%TO.P,J_PS_2,1*%
%TO.N,+5V*%
X172720000Y-123190000D03*
%TD*%
%TO.P,J_HST_7,1*%
%TO.N,Pin4_GnD_Chassis*%
X167005000Y-56286400D03*
%TO.P,J_HST_7,2*%
%TO.N,/Host/MEMS_CS*%
X162005000Y-56286400D03*
%TD*%
%TO.P,J_PSW_2,1*%
%TO.N,+5V_SW*%
X153924000Y-118160800D03*
%TO.P,J_PSW_2,2*%
%TO.N,+5V*%
X153924000Y-113160800D03*
%TD*%
%TO.P,J_HST_1,1*%
%TO.N,/OBDII Interpreter/~RESET_OBD_HW~*%
X112141000Y-88304800D03*
%TO.P,J_HST_1,2*%
%TO.N,/OBDII Interpreter/RESET_OBD_SW*%
X112141000Y-83304800D03*
%TD*%
%TO.P,J_PSW_3,2*%
%TO.N,+3V3*%
X142320000Y-119380000D03*
%TO.P,J_PSW_3,1*%
%TO.N,+3.3V_SW*%
X147320000Y-119380000D03*
%TD*%
%TO.P,J_PS_1,2*%
%TO.N,/OBDII Interpreter/Analog_Voltage*%
X146478000Y-132080000D03*
%TO.P,J_PS_1,1*%
%TO.N,+12V*%
X141478000Y-132080000D03*
%TD*%
%TO.P,J_STN_RST1,1*%
%TO.N,/OBDII Interpreter/~RESET_OBD_HW~*%
X112191800Y-95910400D03*
%TO.P,J_STN_RST1,2*%
%TO.N,Pin4_GnD_Chassis*%
X112191800Y-100910400D03*
%TD*%
D18*
%TO.P,Q_MSCAN_1,1*%
%TO.N,/OBDII Interpreter/~PWR_CTRL~*%
X117790000Y-144025000D03*
%TO.P,Q_MSCAN_1,2*%
%TO.N,Pin4_GnD_Chassis*%
X115890000Y-144025000D03*
%TO.P,Q_MSCAN_1,3*%
%TO.N,Net-(Q_MSCAN_1-Pad3)*%
X116840000Y-141725000D03*
%TD*%
D23*
%TO.P,Q_J1850_2,3*%
%TO.N,Net-(Q_J1850_2-Pad3)*%
X171570000Y-95885000D03*
%TO.P,Q_J1850_2,2*%
%TO.N,Pin4_GnD_Chassis*%
X173870000Y-96835000D03*
%TO.P,Q_J1850_2,1*%
%TO.N,/OBDII Interpreter/OBDII Chip/J1850_BUS+_TX*%
X173870000Y-94935000D03*
%TD*%
D24*
%TO.P,R_COMP_1,2*%
%TO.N,Net-(R_COMP_1-Pad2)*%
X159766000Y-79190000D03*
%TO.P,R_COMP_1,1*%
%TO.N,Pin2_SAE_J1850_BUS+*%
X159766000Y-80830000D03*
%TD*%
%TO.P,R_COMP_3,2*%
%TO.N,Pin10_SAE_J1850_BUS-*%
X157226000Y-80830000D03*
%TO.P,R_COMP_3,1*%
%TO.N,Net-(R_COMP_3-Pad1)*%
X157226000Y-79190000D03*
%TD*%
%TO.P,R_COMP_4,1*%
%TO.N,+3V3*%
X152146000Y-80703000D03*
%TO.P,R_COMP_4,2*%
%TO.N,/OBDII Interpreter/Comparator Transceiver/PWM_RX*%
X152146000Y-79063000D03*
%TD*%
D25*
%TO.P,R_COMP_10,1*%
%TO.N,+3V3*%
X146685000Y-73660000D03*
%TO.P,R_COMP_10,2*%
%TO.N,/OBDII Interpreter/Comparator Transceiver/VPW_RX*%
X148325000Y-73660000D03*
%TD*%
%TO.P,R_COMP_7,1*%
%TO.N,+5V_SW*%
X147955000Y-60325000D03*
%TO.P,R_COMP_7,2*%
%TO.N,Net-(R_COMP_7-Pad2)*%
X149595000Y-60325000D03*
%TD*%
D26*
%TO.P,R_SWCAN_2,2*%
%TO.N,Net-(Q_SWCAN_1-Pad3)*%
X141986000Y-65759000D03*
%TO.P,R_SWCAN_2,1*%
%TO.N,Net-(J_SWCAN_1-Pad2)*%
X141986000Y-66321000D03*
%TD*%
D27*
%TO.P,R_J1850_6,2*%
%TO.N,Net-(R_J1850_3-Pad2)*%
X158511000Y-95250000D03*
%TO.P,R_J1850_6,1*%
%TO.N,+V_J1850*%
X161401000Y-95250000D03*
%TD*%
D25*
%TO.P,R_STN_5,2*%
%TO.N,+3V3*%
X127820000Y-91440000D03*
%TO.P,R_STN_5,1*%
%TO.N,/OBDII Interpreter/~RESET_OBD_HW~*%
X126180000Y-91440000D03*
%TD*%
%TO.P,R_COMP_5,2*%
%TO.N,Net-(R_COMP_5-Pad2)*%
X161729000Y-73914000D03*
%TO.P,R_COMP_5,1*%
%TO.N,+12V_SW*%
X160089000Y-73914000D03*
%TD*%
D27*
%TO.P,R_STN_2,2*%
%TO.N,/OBDII Interpreter/~RESET_OBD_HW~*%
X111572300Y-112915700D03*
%TO.P,R_STN_2,1*%
%TO.N,Net-(LED_STN_2-Pad1)*%
X114462300Y-112915700D03*
%TD*%
D28*
%TO.P,R_STN_7,1*%
%TO.N,+3V3*%
X127635000Y-89535000D03*
%TO.P,R_STN_7,2*%
%TO.N,VDDA*%
X127635000Y-88665000D03*
%TD*%
D25*
%TO.P,R_MSCAN_1,1*%
%TO.N,+3V3*%
X115842200Y-128752600D03*
%TO.P,R_MSCAN_1,2*%
%TO.N,Net-(Q_MSCAN_1-Pad3)*%
X117482200Y-128752600D03*
%TD*%
D24*
%TO.P,R_COMP_9,2*%
%TO.N,Pin2_SAE_J1850_BUS+*%
X168021000Y-80703000D03*
%TO.P,R_COMP_9,1*%
%TO.N,Net-(R_COMP_9-Pad1)*%
X168021000Y-79063000D03*
%TD*%
%TO.P,R_COMP_6,1*%
%TO.N,Net-(R_COMP_5-Pad2)*%
X165100000Y-79121000D03*
%TO.P,R_COMP_6,2*%
%TO.N,Pin4_GnD_Chassis*%
X165100000Y-80761000D03*
%TD*%
%TO.P,R_PSW_1,2*%
%TO.N,/OBDII Interpreter/~PWR_CTRL~*%
X144780000Y-113900800D03*
%TO.P,R_PSW_1,1*%
%TO.N,+3V3*%
X144780000Y-112260800D03*
%TD*%
D27*
%TO.P,R_J1850_3,1*%
%TO.N,Net-(Q_J1850_1-Pad3)*%
X158575000Y-92138500D03*
%TO.P,R_J1850_3,2*%
%TO.N,Net-(R_J1850_3-Pad2)*%
X161465000Y-92138500D03*
%TD*%
D29*
%TO.P,R_ISO_4,2*%
%TO.N,Net-(Q_ISO_2-Pad2)*%
X168275000Y-147625000D03*
%TO.P,R_ISO_4,1*%
%TO.N,Pin15_ISO9141_L-Line*%
X168275000Y-145745000D03*
%TD*%
D18*
%TO.P,Q_J1850_4,3*%
%TO.N,Pin10_SAE_J1850_BUS-*%
X166370000Y-99180000D03*
%TO.P,Q_J1850_4,2*%
%TO.N,Pin4_GnD_Chassis*%
X165420000Y-101480000D03*
%TO.P,Q_J1850_4,1*%
%TO.N,/OBDII Interpreter/OBDII Chip/J1850_BUS-_TX*%
X167320000Y-101480000D03*
%TD*%
D25*
%TO.P,R_J1850_7,2*%
%TO.N,Pin4_GnD_Chassis*%
X160172400Y-103047800D03*
%TO.P,R_J1850_7,1*%
%TO.N,/OBDII Interpreter/OBDII Chip/J1850_BUS-_TX*%
X161812400Y-103047800D03*
%TD*%
D30*
%TO.P,D_ESD_5,1*%
%TO.N,Pin2_SAE_J1850_BUS+*%
X153736000Y-146768000D03*
%TO.P,D_ESD_5,2*%
%TO.N,Pin10_SAE_J1850_BUS-*%
X155636000Y-146768000D03*
%TO.P,D_ESD_5,3*%
%TO.N,Pin4_GnD_Chassis*%
X154686000Y-148888000D03*
%TD*%
%TO.P,D_ESD_4,3*%
%TO.N,Pin4_GnD_Chassis*%
X144145000Y-140125000D03*
%TO.P,D_ESD_4,2*%
%TO.N,Pin15_ISO9141_L-Line*%
X145095000Y-138005000D03*
%TO.P,D_ESD_4,1*%
%TO.N,Pin7_ISO9141_K-Line*%
X143195000Y-138005000D03*
%TD*%
D24*
%TO.P,R_J1850_8,2*%
%TO.N,Pin10_SAE_J1850_BUS-*%
X171983400Y-99121800D03*
%TO.P,R_J1850_8,1*%
%TO.N,Net-(D_J1850_3-Pad1)*%
X171983400Y-100761800D03*
%TD*%
%TO.P,R_J1850_1,2*%
%TO.N,Pin4_GnD_Chassis*%
X160578800Y-99702200D03*
%TO.P,R_J1850_1,1*%
%TO.N,/OBDII Interpreter/OBDII Chip/J1850_BUS+_TX*%
X160578800Y-98062200D03*
%TD*%
D27*
%TO.P,R_STN_1,2*%
%TO.N,/OBDII Interpreter/OBDII Chip/STATUS_LED*%
X111572300Y-115963700D03*
%TO.P,R_STN_1,1*%
%TO.N,Net-(LED_STN_1-Pad1)*%
X114462300Y-115963700D03*
%TD*%
%TO.P,R_STN_4,1*%
%TO.N,Net-(LED_STN_3-Pad1)*%
X114462300Y-109867700D03*
%TO.P,R_STN_4,2*%
%TO.N,/OBDII Interpreter/~RESET_OBD_HW~*%
X111572300Y-109867700D03*
%TD*%
D24*
%TO.P,R_COMP1,2*%
%TO.N,/OBDII Interpreter/Comparator Transceiver/~ISO_RX~*%
X149606000Y-79063000D03*
%TO.P,R_COMP1,1*%
%TO.N,+3V3*%
X149606000Y-80703000D03*
%TD*%
D27*
%TO.P,R_J1850_4,2*%
%TO.N,Pin4_GnD_Chassis*%
X161465000Y-89090500D03*
%TO.P,R_J1850_4,1*%
%TO.N,Net-(Q_J1850_1-Pad3)*%
X158575000Y-89090500D03*
%TD*%
D31*
%TO.P,R_STN_3,2*%
%TO.N,/Host/HOST_TX*%
X121628000Y-76073000D03*
%TO.P,R_STN_3,1*%
%TO.N,+3V3*%
X123228000Y-76073000D03*
%TD*%
D18*
%TO.P,D_ESD_1,3*%
%TO.N,Pin4_GnD_Chassis*%
X130810000Y-139580000D03*
%TO.P,D_ESD_1,2*%
%TO.N,Pin14_ISO15765_CAN_BUS_Low*%
X131760000Y-137280000D03*
%TO.P,D_ESD_1,1*%
%TO.N,Pin6_ISO15765_CAN_BUS_High*%
X129860000Y-137280000D03*
%TD*%
D32*
%TO.P,D_ESD_3,3*%
%TO.N,Net-(D_ESD_3-Pad3)*%
X151384000Y-154000200D03*
%TO.P,D_ESD_3,2*%
%TO.N,Pin1_SW_CAN*%
X150433999Y-156387800D03*
%TO.P,D_ESD_3,1*%
%TO.N,Pin4_GnD_Chassis*%
X152334001Y-156387800D03*
%TD*%
D14*
%TO.P,C_HSCAN_1,2*%
%TO.N,Pin4_GnD_Chassis*%
X119303800Y-60795800D03*
%TO.P,C_HSCAN_1,1*%
%TO.N,Net-(C_HSCAN_1-Pad1)*%
X119303800Y-62495800D03*
%TD*%
D33*
%TO.P,U_STN_1,45*%
%TO.N,Pin4_GnD_Chassis*%
X125295000Y-79575000D03*
X126485000Y-79575000D03*
X127675000Y-79575000D03*
X128865000Y-79575000D03*
X130055000Y-79575000D03*
X131245000Y-79575000D03*
X125295000Y-80765000D03*
X126485000Y-80765000D03*
X127675000Y-80765000D03*
X128865000Y-80765000D03*
X130055000Y-80765000D03*
X131245000Y-80765000D03*
X125295000Y-81955000D03*
X126485000Y-81955000D03*
X127675000Y-81955000D03*
X128865000Y-81955000D03*
X130055000Y-81955000D03*
X131245000Y-81955000D03*
X125295000Y-83145000D03*
X126485000Y-83145000D03*
X127675000Y-83145000D03*
X128865000Y-83145000D03*
X130055000Y-83145000D03*
X131245000Y-83145000D03*
X125295000Y-84335000D03*
X126485000Y-84335000D03*
X127675000Y-84335000D03*
X128865000Y-84335000D03*
X130055000Y-84335000D03*
X131245000Y-84335000D03*
X125295000Y-85525000D03*
X126485000Y-85525000D03*
X127675000Y-85525000D03*
X128865000Y-85525000D03*
X130055000Y-85525000D03*
X131245000Y-85525000D03*
D34*
X128270000Y-82550000D03*
%TD*%
D35*
%TO.P,Q_J1850_3,3*%
%TO.N,Net-(D_J1850_1-Pad2)*%
X160147000Y-83820000D03*
%TO.P,Q_J1850_3,2*%
%TO.N,+V_J1850*%
X162433000Y-84770001D03*
%TO.P,Q_J1850_3,1*%
%TO.N,Net-(Q_J1850_2-Pad3)*%
X162433000Y-82869999D03*
%TD*%
D36*
%TO.P,U_COMP_1,1*%
%TO.N,/OBDII Interpreter/Comparator Transceiver/~ISO_RX~*%
X149733000Y-76200000D03*
D37*
%TO.P,U_COMP_1,2*%
%TO.N,/OBDII Interpreter/Comparator Transceiver/PWM_RX*%
X152273000Y-76200000D03*
%TO.P,U_COMP_1,3*%
%TO.N,+12V_SW*%
X154813000Y-76200000D03*
%TO.P,U_COMP_1,4*%
%TO.N,Net-(R_COMP_3-Pad1)*%
X157353000Y-76200000D03*
%TO.P,U_COMP_1,5*%
%TO.N,Net-(R_COMP_1-Pad2)*%
X159893000Y-76200000D03*
%TO.P,U_COMP_1,6*%
%TO.N,Net-(R_COMP_2-Pad2)*%
X162433000Y-76200000D03*
%TO.P,U_COMP_1,7*%
%TO.N,Net-(R_COMP_5-Pad2)*%
X164973000Y-76200000D03*
%TO.P,U_COMP_1,8*%
%TO.N,Net-(R_COMP_7-Pad2)*%
X164973000Y-68580000D03*
%TO.P,U_COMP_1,9*%
%TO.N,Net-(R_COMP_9-Pad1)*%
X162433000Y-68580000D03*
%TO.P,U_COMP_1,10*%
%TO.N,Net-(U_COMP_1-Pad10)*%
X159893000Y-68580000D03*
%TO.P,U_COMP_1,11*%
%TO.N,Net-(U_COMP_1-Pad11)*%
X157353000Y-68580000D03*
%TO.P,U_COMP_1,12*%
%TO.N,Pin4_GnD_Chassis*%
X154813000Y-68580000D03*
%TO.P,U_COMP_1,13*%
%TO.N,Net-(U_COMP_1-Pad13)*%
X152273000Y-68580000D03*
%TO.P,U_COMP_1,14*%
%TO.N,/OBDII Interpreter/Comparator Transceiver/VPW_RX*%
X149733000Y-68580000D03*
%TD*%
D15*
%TO.P,J_HST_3,2*%
%TO.N,Pin4_GnD_Chassis*%
X125175000Y-56286400D03*
%TO.P,J_HST_3,1*%
X130175000Y-56286400D03*
%TD*%
D24*
%TO.P,R_VR2_3,2*%
%TO.N,Pin4_GnD_Chassis*%
X130556000Y-128582000D03*
%TO.P,R_VR2_3,1*%
%TO.N,+3V3*%
X130556000Y-126942000D03*
%TD*%
D21*
%TO.P,C_HST_1,2*%
%TO.N,Pin4_GnD_Chassis*%
X169115000Y-71120000D03*
%TO.P,C_HST_1,1*%
%TO.N,+5V*%
X170815000Y-71120000D03*
%TD*%
D38*
%TO.P,R_VS_1,1*%
%TO.N,Pin16_Raw_+12V_Battery*%
X153035000Y-142590000D03*
%TO.P,R_VS_1,2*%
%TO.N,/OBDII Interpreter/Analog_Voltage*%
X153035000Y-139700000D03*
%TD*%
D24*
%TO.P,R_VR2_2,2*%
%TO.N,Pin4_GnD_Chassis*%
X126492000Y-133466000D03*
%TO.P,R_VR2_2,1*%
%TO.N,Net-(R_VR2_1-Pad2)*%
X126492000Y-131826000D03*
%TD*%
D15*
%TO.P,J_STN_2,2*%
%TO.N,/Host/~RESET_OBD_HW~*%
X153924000Y-89204800D03*
%TO.P,J_STN_2,1*%
%TO.N,/OBDII Interpreter/~PWR_CTRL~*%
X153924000Y-94204800D03*
%TD*%
D39*
%TO.P,CN1,0*%
%TO.N,Pin4_GnD_Chassis*%
X154735000Y-152400000D03*
X129745000Y-152400000D03*
D40*
%TO.P,CN1,15*%
%TO.N,Pin12*%
X146549999Y-149860000D03*
%TO.P,CN1,14*%
%TO.N,Pin9*%
X144259998Y-149860000D03*
%TO.P,CN1,13*%
%TO.N,Pin4_GnD_Chassis*%
X141970001Y-149860000D03*
%TO.P,CN1,12*%
%TO.N,Pin14_ISO15765_CAN_BUS_Low*%
X139680000Y-149860000D03*
%TO.P,CN1,11*%
%TO.N,Pin6_ISO15765_CAN_BUS_High*%
X137390000Y-149860000D03*
%TO.P,CN1,10*%
%TO.N,Pin16_Raw_+12V_Battery*%
X147695001Y-152400000D03*
%TO.P,CN1,9*%
%TO.N,Pin1_SW_CAN*%
X145405000Y-152400000D03*
%TO.P,CN1,8*%
%TO.N,Pin8*%
X143115000Y-152400000D03*
%TO.P,CN1,7*%
%TO.N,Pin15_ISO9141_L-Line*%
X140824999Y-152400000D03*
%TO.P,CN1,6*%
%TO.N,Pin7_ISO9141_K-Line*%
X138535001Y-152400000D03*
%TO.P,CN1,5*%
%TO.N,Pin13*%
X146549999Y-154940000D03*
%TO.P,CN1,4*%
%TO.N,Pin11_MS_CAN_Low*%
X144259998Y-154940000D03*
%TO.P,CN1,3*%
%TO.N,Pin3_MS_CAN_High*%
X141970001Y-154940000D03*
%TO.P,CN1,2*%
%TO.N,Pin10_SAE_J1850_BUS-*%
X139680000Y-154940000D03*
%TO.P,CN1,1*%
%TO.N,Pin2_SAE_J1850_BUS+*%
X137390000Y-154940000D03*
%TD*%
D25*
%TO.P,R_SWCAN_4,2*%
%TO.N,/OBDII Interpreter/OBDII Chip/SW_CAN_MODE0*%
X131572000Y-70612000D03*
%TO.P,R_SWCAN_4,1*%
%TO.N,+5V_SW*%
X133212000Y-70612000D03*
%TD*%
D41*
%TO.N,Pin4_GnD_Chassis*%
X116205000Y-146685000D03*
X134620000Y-149225000D03*
X144145000Y-142875000D03*
X172085000Y-141605000D03*
X120015000Y-83820000D03*
X119518660Y-93304964D03*
X132536999Y-93801999D03*
X117475000Y-112395000D03*
X122555000Y-130810000D03*
X133985000Y-129540000D03*
X121285000Y-65405000D03*
X132715000Y-62865000D03*
X156210000Y-103505000D03*
X139700000Y-116840000D03*
X139065000Y-62865000D03*
X168910000Y-69850000D03*
X167493500Y-82061500D03*
X158768400Y-86382082D03*
X166370000Y-128905000D03*
X122555000Y-78740000D03*
X119380000Y-76200000D03*
%TO.N,Net-(C_HSCAN_1-Pad1)*%
X119380000Y-64135000D03*
%TO.N,Net-(C_HSCAN_2-Pad1)*%
X116205000Y-63500000D03*
%TO.N,Net-(C_J1850_1-Pad1)*%
X171450000Y-85725000D03*
%TO.N,Net-(C_MSCAN_2-Pad1)*%
X120650000Y-139700000D03*
%TO.N,+12V*%
X132715000Y-66040000D03*
X127635000Y-58420000D03*
X150495000Y-109855000D03*
X152400000Y-135890000D03*
X132715000Y-119380000D03*
X151130000Y-127000000D03*
X157480000Y-111125000D03*
%TO.N,Net-(C_STN_4-Pad1)*%
X145415000Y-82406400D03*
X148590000Y-88900000D03*
%TO.N,Pin1_SW_CAN*%
X124460000Y-58420000D03*
X121827500Y-55152500D03*
X150495000Y-123825000D03*
X151130000Y-112395000D03*
X146050000Y-129540000D03*
X142803591Y-63428591D03*
%TO.N,Net-(C_VR1_BST1-Pad2)*%
X151107442Y-129026716D03*
X151130000Y-124460000D03*
%TO.N,Net-(C_VR1_BST1-Pad1)*%
X149860000Y-132715000D03*
%TO.N,Net-(C_VR1_in1-Pad1)*%
X149860000Y-128270000D03*
%TO.N,Net-(C_VR2_BST1-Pad2)*%
X132043248Y-127671752D03*
X137834000Y-129918002D03*
%TO.N,Net-(C_VR2_in1-Pad1)*%
X137795000Y-130810000D03*
%TO.N,/OBDII Interpreter/Analog_Voltage*%
X129540000Y-87630000D03*
X126365000Y-122555000D03*
X132715000Y-127000000D03*
%TO.N,Net-(CP_STN_1-Pad1)*%
X123190000Y-83185000D03*
%TO.N,Pin15_ISO9141_L-Line*%
X147955000Y-137795000D03*
X165735000Y-139700000D03*
%TO.N,Pin2_SAE_J1850_BUS+*%
X150495000Y-154940000D03*
X163195000Y-77470000D03*
X156672734Y-143337734D03*
X161925000Y-118745000D03*
X169545000Y-100330000D03*
X158355204Y-123190000D03*
X158750000Y-132715000D03*
%TO.N,/OBDII Interpreter/High Speed CAN Transceiver/HS_CAN_RX*%
X122661765Y-85196765D03*
%TO.N,Pin3_MS_CAN_High*%
X125730000Y-142875000D03*
X119591499Y-101600000D03*
%TO.N,Pin11_MS_CAN_Low*%
X132080000Y-154940000D03*
X129540000Y-147955000D03*
X118745000Y-102870000D03*
%TO.N,/OBDII Interpreter/Medium Speed CAN Transceiver/MS_CAN_RX*%
X122026765Y-85831765D03*
X120015000Y-92075000D03*
%TO.N,/OBDII Interpreter/OBDII Chip/SW_CAN_RX*%
X126365000Y-73660000D03*
X127000000Y-71755000D03*
X123825000Y-129540000D03*
X128270000Y-110490000D03*
X121920000Y-91440000D03*
%TO.N,/OBDII Interpreter/OBDII Chip/SW_CAN_MODE1*%
X127000000Y-68580000D03*
X130220000Y-71964000D03*
%TO.N,/OBDII Interpreter/OBDII Chip/SW_CAN_MODE0*%
X130820000Y-74930000D03*
X125857000Y-70612000D03*
%TO.N,/OBDII Interpreter/Comparator Transceiver/VPW_RX*%
X142105248Y-86860248D03*
X147891010Y-78595419D03*
%TO.N,/OBDII Interpreter/Comparator Transceiver/PWM_RX*%
X140970000Y-86360000D03*
%TO.N,/OBDII Interpreter/Comparator Transceiver/~ISO_RX~*%
X147955000Y-79375000D03*
X131582512Y-88713982D03*
%TO.N,+V_J1850*%
X163195000Y-90170000D03*
%TO.N,Net-(LED_STN_1-Pad1)*%
X114462300Y-115963700D03*
%TO.N,Net-(LED_STN_2-Pad1)*%
X114592000Y-112915700D03*
%TO.N,Net-(LED_STN_3-Pad1)*%
X114462300Y-109867700D03*
%TO.N,/OBDII Interpreter/~PWR_CTRL~*%
X149860000Y-95250000D03*
X119380000Y-142875000D03*
X148590000Y-83820000D03*
X142240000Y-114935000D03*
X129540000Y-130175000D03*
X123190000Y-136525000D03*
%TO.N,Net-(Q_ISO_3-Pad1)*%
X163936765Y-135148235D03*
X161290000Y-132715000D03*
%TO.N,Net-(Q_J1850_1-Pad3)*%
X160655000Y-87630000D03*
%TO.N,/OBDII Interpreter/OBDII Chip/~J1850_BUS+_VH~*%
X139655000Y-84500000D03*
X144145000Y-84455000D03*
%TO.N,Pin10_SAE_J1850_BUS-*%
X149860000Y-157480000D03*
X163830000Y-97155000D03*
X168910000Y-99060000D03*
%TO.N,/OBDII Interpreter/OBDII Chip/J1850_BUS-_TX*%
X154305000Y-83820000D03*
%TO.N,/OBDII Interpreter/OBDII Chip/J1850_BUS+_TX*%
X139708235Y-85197975D03*
X143510000Y-85100000D03*
X154305000Y-85725000D03*
X156845000Y-98425000D03*
X172720000Y-95885000D03*
%TO.N,/OBDII Interpreter/ISO 9141/ISO 14230 Transceiver/~ISO_K_TX~*%
X125720000Y-77470000D03*
X164465000Y-130175000D03*
%TO.N,/OBDII Interpreter/ISO 9141/ISO 14230 Transceiver/~ISO_L_TX~*%
X124460000Y-77470000D03*
X169545000Y-137160000D03*
%TO.N,/OBDII Interpreter/OBDII Chip/STATUS_LED*%
X123825000Y-89535000D03*
X117475000Y-89535000D03*
X113030000Y-90170000D03*
%TO.N,/OBDII Interpreter/~RESET_OBD_HW~*%
X123190000Y-95250000D03*
%TO.N,/OBDII Interpreter/RESET_OBD_SW*%
X128920000Y-88250000D03*
%TO.N,VDDA*%
X128270000Y-87630000D03*
%TO.N,Net-(Q_SWCAN_1-Pad3)*%
X140335000Y-63500000D03*
X137795000Y-64770000D03*
%TO.N,Net-(R_VR2_1-Pad2)*%
X127635000Y-130810000D03*
%TO.N,+5V_SW*%
X147955000Y-64135000D03*
X134747000Y-70612000D03*
%TO.N,/Host/HOST_TX*%
X121920000Y-81280000D03*
%TO.N,+12V_SW*%
X149860000Y-98425000D03*
%TO.N,/Host/I2C_SCL*%
X141605000Y-62230000D03*
%TO.N,/Host/I2C_SDA*%
X139700000Y-69215000D03*
%TO.N,/Host/MEMS_CS*%
X146050000Y-60960000D03*
%TO.N,/Host/MEMS_INT*%
X142875000Y-62230000D03*
X139218000Y-73025000D03*
%TO.N,Net-(J_SWCAN_1-Pad2)*%
X143510000Y-69215000D03*
X145415000Y-78105000D03*
X156210000Y-83820000D03*
%TO.N,/OBDII Interpreter/PWR_CTRL*%
X157755204Y-116794799D03*
X161607500Y-148272500D03*
%TO.N,+5V*%
X118110000Y-84455000D03*
X118745000Y-93345000D03*
X123190000Y-123825000D03*
X161290000Y-111760000D03*
X111760000Y-121920000D03*
X113665000Y-105410000D03*
X118110000Y-75565000D03*
X162220680Y-122894320D03*
X159385000Y-127060999D03*
%TO.N,+3V3*%
X127762000Y-125600002D03*
X139065000Y-88900000D03*
X117440500Y-107915500D03*
X127620000Y-76420000D03*
X147222000Y-83087000D03*
X116110525Y-90170000D03*
X117440500Y-100364500D03*
X146685000Y-76200000D03*
X144780000Y-73025000D03*
X129540000Y-132080000D03*
X139218000Y-74295000D03*
%TO.N,Net-(Q_HSCAN_1-Pad3)*%
X120650000Y-102870000D03*
X120650000Y-93980000D03*
X116205000Y-105410000D03*
%TO.N,Net-(Q_MSCAN_1-Pad3)*%
X120650000Y-107950000D03*
%TO.N,Net-(R_COMP_2-Pad2)*%
X168910000Y-76200000D03*
X168910000Y-76200000D03*
X169508248Y-116168248D03*
X169545000Y-118671496D03*
%TO.N,Net-(C_STN_2-Pad2)*%
X137750000Y-80600000D03*
X142875000Y-100330000D03*
X137160000Y-92710000D03*
%TO.N,Net-(C_STN_3-Pad1)*%
X144780000Y-89535000D03*
X143519949Y-81229949D03*
X145415000Y-95885000D03*
%TO.N,Net-(D_J1850_1-Pad2)*%
X162560000Y-80645000D03*
%TO.N,Net-(Q_ISO_2-Pad2)*%
X164465000Y-153670000D03*
%TO.N,Net-(Q_ISO_4-Pad1)*%
X165100000Y-138430000D03*
X167005000Y-137795000D03*
%TO.N,Net-(Q_J1850_2-Pad3)*%
X167005000Y-84455000D03*
%TO.N,Net-(R_J1850_3-Pad2)*%
X161925000Y-90805000D03*
%TO.N,Net-(R_SWCAN_3-Pad2)*%
X125095000Y-57785000D03*
X121920000Y-56515000D03*
%TO.N,Pin14_ISO15765_CAN_BUS_Low*%
X133350000Y-140970000D03*
X116205000Y-74295000D03*
X109855000Y-92075000D03*
%TO.N,Pin6_ISO15765_CAN_BUS_High*%
X129540000Y-140970000D03*
X115570000Y-73660000D03*
X114935000Y-93980000D03*
X120015000Y-137160000D03*
%TO.N,Pin7_ISO9141_K-Line*%
X135351001Y-150398999D03*
X146050000Y-136525000D03*
X173355000Y-134620000D03*
X172085000Y-151765000D03*
%TD*%
D42*
%TO.N,Pin4_GnD_Chassis*%
X152334001Y-154800999D02*
X154735000Y-152400000D01*
X152334001Y-156387800D02*
X152334001Y-154800999D01*
X154686000Y-148888000D02*
X154642000Y-148888000D01*
X154642000Y-148888000D02*
X154735000Y-148981000D01*
X129794000Y-152351000D02*
X129745000Y-152400000D01*
D43*
X129794000Y-148978000D02*
X129794000Y-152351000D01*
D42*
X116205000Y-144340000D02*
X115890000Y-144025000D01*
X118960000Y-146685000D02*
X116205000Y-146685000D01*
X130810000Y-139580000D02*
X130810000Y-145181998D01*
X134419001Y-149024001D02*
X134620000Y-149225000D01*
X134419001Y-148790999D02*
X134419001Y-149024001D01*
X130810000Y-145181998D02*
X134419001Y-148790999D01*
X134419001Y-148790999D02*
X134620000Y-148991998D01*
X144145000Y-140125000D02*
X144145000Y-140335000D01*
X144145000Y-140335000D02*
X144145000Y-142875000D01*
X161925000Y-128905000D02*
X166370000Y-128905000D01*
X166370000Y-128905000D02*
X172085000Y-134620000D01*
X172085000Y-134620000D02*
X172085000Y-141605000D01*
X161758999Y-139099999D02*
X154735000Y-146123998D01*
X172085000Y-141605000D02*
X169579999Y-139099999D01*
X169579999Y-139099999D02*
X161758999Y-139099999D01*
D43*
X154735000Y-150065000D02*
X154735000Y-152400000D01*
D42*
X154735000Y-146123998D02*
X154735000Y-150065000D01*
D43*
X154735000Y-148981000D02*
X154735000Y-150065000D01*
D42*
X122289200Y-88530800D02*
X128270000Y-82550000D01*
X115366800Y-88530800D02*
X122289200Y-88530800D01*
X127000000Y-83820000D02*
X128270000Y-82550000D01*
X120015000Y-83820000D02*
X127000000Y-83820000D01*
D44*
X119518660Y-92682660D02*
X115366800Y-88530800D01*
X119518660Y-93304964D02*
X119518660Y-92682660D01*
D42*
X131660000Y-92925000D02*
X132536999Y-93801999D01*
X131660000Y-92290000D02*
X131660000Y-92925000D01*
D44*
X125351998Y-130810000D02*
X127762000Y-128399998D01*
X122555000Y-130810000D02*
X125351998Y-130810000D01*
X130373998Y-128399998D02*
X130556000Y-128582000D01*
X127762000Y-128399998D02*
X130373998Y-128399998D01*
X130556000Y-128582000D02*
X133027000Y-128582000D01*
X133027000Y-128582000D02*
X133985000Y-129540000D01*
D42*
X116509800Y-60795800D02*
X119303800Y-60795800D01*
X120665600Y-60795800D02*
X125175000Y-56286400D01*
X119303800Y-60795800D02*
X120665600Y-60795800D01*
X134490002Y-62865000D02*
X136525000Y-60830002D01*
X132715000Y-62865000D02*
X134490002Y-62865000D01*
X159715200Y-103505000D02*
X160172400Y-103047800D01*
X156210000Y-103505000D02*
X159715200Y-103505000D01*
X156776000Y-103505000D02*
X160578800Y-99702200D01*
X156210000Y-103505000D02*
X156776000Y-103505000D01*
X163642200Y-99702200D02*
X165420000Y-101480000D01*
X160578800Y-99702200D02*
X163642200Y-99702200D01*
X166509400Y-96835000D02*
X163642200Y-99702200D01*
X173870000Y-96835000D02*
X166509400Y-96835000D01*
X121920000Y-143725000D02*
X118960000Y-146685000D01*
X125211000Y-133466000D02*
X122555000Y-130810000D01*
X126492000Y-133466000D02*
X125211000Y-133466000D01*
X119414999Y-140969999D02*
X116205000Y-144179998D01*
X119414999Y-133950001D02*
X119414999Y-140969999D01*
X116205000Y-144179998D02*
X116205000Y-144780000D01*
X122555000Y-130810000D02*
X119414999Y-133950001D01*
X116205000Y-144780000D02*
X116205000Y-144340000D01*
X116205000Y-146685000D02*
X116205000Y-144780000D01*
X174086001Y-132618999D02*
X172085000Y-134620000D01*
X174086001Y-116770901D02*
X174086001Y-132618999D01*
X169405300Y-112090200D02*
X174086001Y-116770901D01*
X139700000Y-121909000D02*
X133027000Y-128582000D01*
X139700000Y-116840000D02*
X139700000Y-121909000D01*
X168910000Y-70915000D02*
X169115000Y-71120000D01*
X168910000Y-69850000D02*
X168910000Y-70915000D01*
X165100000Y-80761000D02*
X166193000Y-80761000D01*
X167493500Y-82061500D02*
X169418000Y-83986000D01*
X166193000Y-80761000D02*
X167493500Y-82061500D01*
X160295084Y-86382082D02*
X158768400Y-86382082D01*
X161465000Y-87551998D02*
X160295084Y-86382082D01*
X161465000Y-89090500D02*
X161465000Y-87551998D01*
X134493000Y-76327000D02*
X128270000Y-82550000D01*
X117957600Y-78768800D02*
X117957600Y-77468800D01*
X123390000Y-79575000D02*
X122555000Y-78740000D01*
X125295000Y-79575000D02*
X123390000Y-79575000D01*
X119380000Y-77346400D02*
X117957600Y-78768800D01*
X119380000Y-76200000D02*
X119380000Y-77346400D01*
X120665600Y-64785600D02*
X121285000Y-65405000D01*
X120665600Y-60795800D02*
X120665600Y-64785600D01*
X139720000Y-76327000D02*
X140228000Y-76835000D01*
X134493000Y-76327000D02*
X139720000Y-76327000D01*
%TO.N,Net-(C_HSCAN_1-Pad1)*%
X119380000Y-62572000D02*
X119303800Y-62495800D01*
X119380000Y-64135000D02*
X119380000Y-62572000D01*
%TO.N,Net-(C_HSCAN_2-Pad1)*%
X116509800Y-63195200D02*
X116205000Y-63500000D01*
X116509800Y-62495800D02*
X116509800Y-63195200D01*
%TO.N,Net-(C_J1850_1-Pad1)*%
X171411000Y-85686000D02*
X171450000Y-85725000D01*
X169418000Y-85686000D02*
X171411000Y-85686000D01*
%TO.N,Net-(C_MSCAN_2-Pad1)*%
X120650000Y-140755000D02*
X121920000Y-142025000D01*
X120650000Y-139700000D02*
X120650000Y-140755000D01*
D43*
%TO.N,+12V*%
X141478000Y-131696002D02*
X145158002Y-128016000D01*
X141478000Y-132080000D02*
X141478000Y-131696002D01*
X141478000Y-129918002D02*
X139575998Y-128016000D01*
X141478000Y-132080000D02*
X141478000Y-129918002D01*
X135125002Y-63629998D02*
X132715000Y-66040000D01*
X136525000Y-63629998D02*
X135125002Y-63629998D01*
X136042400Y-113414800D02*
X132715000Y-116742200D01*
X132715000Y-116742200D02*
X132715000Y-119380000D01*
X140603999Y-126987999D02*
X139575998Y-128016000D01*
X140603999Y-118339999D02*
X140603999Y-126987999D01*
X141605000Y-117338998D02*
X140603999Y-118339999D01*
X137680802Y-113414800D02*
X141605000Y-117338998D01*
X136042400Y-113414800D02*
X137680802Y-113414800D01*
X146424001Y-126750001D02*
X145158002Y-128016000D01*
D44*
X150880001Y-126750001D02*
X146424001Y-126750001D01*
D45*
X151130000Y-127000000D02*
X150880001Y-126750001D01*
D42*
%TO.N,Pin1_SW_CAN*%
X145862199Y-152400000D02*
X145405000Y-152400000D01*
X149849999Y-156387800D02*
X145862199Y-152400000D01*
X150433999Y-156387800D02*
X149849999Y-156387800D01*
D45*
%TO.N,Net-(C_VR1_BST1-Pad2)*%
X152084442Y-131422442D02*
X153504000Y-132842000D01*
X151107442Y-130445442D02*
X152084442Y-131422442D01*
X151107442Y-129026716D02*
X151107442Y-130445442D01*
D42*
%TO.N,Net-(C_VR1_BST1-Pad1)*%
X151804000Y-132842000D02*
X151804000Y-132754000D01*
D45*
X151677000Y-132715000D02*
X151804000Y-132842000D01*
X149860000Y-132715000D02*
X151677000Y-132715000D01*
D42*
%TO.N,Net-(C_VR1_in1-Pad1)*%
X149606000Y-128016000D02*
X149860000Y-128270000D01*
X147957998Y-128016000D02*
X149606000Y-128016000D01*
D45*
%TO.N,Net-(C_VR2_in1-Pad1)*%
X136776002Y-129791002D02*
X136776002Y-128016000D01*
X137795000Y-130810000D02*
X136776002Y-129791002D01*
D43*
%TO.N,/OBDII Interpreter/Analog_Voltage*%
X153035000Y-138637000D02*
X153035000Y-139700000D01*
X146478000Y-132080000D02*
X153035000Y-138637000D01*
X123190000Y-106680000D02*
X123190000Y-119380000D01*
X123190000Y-119380000D02*
X126365000Y-122555000D01*
D42*
%TO.N,Net-(CP_STN_1-Pad1)*%
X122373800Y-82368800D02*
X117957600Y-82368800D01*
X123190000Y-83185000D02*
X122373800Y-82368800D01*
%TO.N,Pin15_ISO9141_L-Line*%
X141094559Y-152400000D02*
X140824999Y-152400000D01*
X143094702Y-149360738D02*
X143094702Y-150399857D01*
X145095000Y-147360440D02*
X143094702Y-149360738D01*
X143094702Y-150399857D02*
X141094559Y-152400000D01*
X145095000Y-138005000D02*
X145095000Y-147360440D01*
X147745000Y-138005000D02*
X147955000Y-137795000D01*
X145095000Y-138005000D02*
X147745000Y-138005000D01*
X165735000Y-143205000D02*
X168275000Y-145745000D01*
X165735000Y-139700000D02*
X165735000Y-143205000D01*
%TO.N,Pin2_SAE_J1850_BUS+*%
X150495000Y-150009000D02*
X150495000Y-154940000D01*
X153736000Y-146768000D02*
X150495000Y-150009000D01*
X168021000Y-80703000D02*
X168910000Y-79814000D01*
X168910000Y-77470000D02*
X172720000Y-73660000D01*
X168910000Y-79814000D02*
X168910000Y-77470000D01*
X159766000Y-80830000D02*
X159835000Y-80830000D01*
X159835000Y-80830000D02*
X163195000Y-77470000D01*
X153736000Y-146415878D02*
X154234992Y-145916886D01*
X153736000Y-146768000D02*
X153736000Y-146415878D01*
X156672734Y-143479144D02*
X156672734Y-143337734D01*
X154234992Y-145916886D02*
X156672734Y-143479144D01*
X158750000Y-123584796D02*
X158355204Y-123190000D01*
X158750000Y-132715000D02*
X158750000Y-123584796D01*
%TO.N,Pin3_MS_CAN_High*%
X130448219Y-156064701D02*
X140845300Y-156064701D01*
X140845300Y-156064701D02*
X141970001Y-154940000D01*
X127743999Y-153360481D02*
X130448219Y-156064701D01*
X127743999Y-147778001D02*
X127743999Y-153360481D01*
X128844000Y-146678000D02*
X127743999Y-147778001D01*
X128844000Y-145989000D02*
X125730000Y-142875000D01*
X128844000Y-146678000D02*
X128844000Y-145989000D01*
%TO.N,Pin11_MS_CAN_Low*%
X130744000Y-146678000D02*
X132080000Y-148014000D01*
X130810000Y-147955000D02*
X129540000Y-147955000D01*
X132080000Y-149225000D02*
X130810000Y-147955000D01*
X132080000Y-148014000D02*
X132080000Y-149225000D01*
X132080000Y-149225000D02*
X132080000Y-154940000D01*
%TO.N,/OBDII Interpreter/OBDII Chip/SW_CAN_RX*%
X128270000Y-110490000D02*
X126365000Y-108585000D01*
X126365000Y-99313002D02*
X121920000Y-94868002D01*
X126365000Y-108585000D02*
X126365000Y-99313002D01*
X121920000Y-94868002D02*
X121920000Y-91440000D01*
%TO.N,/OBDII Interpreter/OBDII Chip/SW_CAN_MODE0*%
X131572000Y-70612000D02*
X131572000Y-74168000D01*
X130820000Y-74920000D02*
X130820000Y-74930000D01*
X131572000Y-74168000D02*
X130820000Y-74920000D01*
X131572000Y-70612000D02*
X125857000Y-70612000D01*
%TO.N,/OBDII Interpreter/Comparator Transceiver/VPW_RX*%
X148325000Y-69988000D02*
X149733000Y-68580000D01*
X148325000Y-73660000D02*
X148325000Y-69988000D01*
X147891010Y-74093990D02*
X148325000Y-73660000D01*
X147891010Y-78595419D02*
X147891010Y-74093990D01*
%TO.N,/OBDII Interpreter/Comparator Transceiver/PWM_RX*%
X152146000Y-76327000D02*
X152273000Y-76200000D01*
X152146000Y-79063000D02*
X152146000Y-76327000D01*
D45*
%TO.N,/OBDII Interpreter/Comparator Transceiver/~ISO_RX~*%
X149606000Y-76327000D02*
X149733000Y-76200000D01*
X149606000Y-79063000D02*
X149606000Y-76327000D01*
D42*
X148267000Y-79063000D02*
X147955000Y-79375000D01*
X149606000Y-79063000D02*
X148267000Y-79063000D01*
D43*
%TO.N,+V_J1850*%
X161401000Y-95250000D02*
X163195000Y-93456000D01*
X163195000Y-93456000D02*
X163195000Y-90170000D01*
X163195000Y-85532001D02*
X163195000Y-90170000D01*
X162433000Y-84770001D02*
X163195000Y-85532001D01*
D42*
%TO.N,Net-(LED_STN_2-Pad1)*%
X114462300Y-112915700D02*
X114592000Y-112915700D01*
%TO.N,/OBDII Interpreter/~PWR_CTRL~*%
X149860000Y-95250000D02*
X148590000Y-96520000D01*
X148590000Y-110090800D02*
X144780000Y-113900800D01*
X148590000Y-96520000D02*
X148590000Y-110090800D01*
X118940000Y-142875000D02*
X117790000Y-144025000D01*
X119380000Y-142875000D02*
X118940000Y-142875000D01*
X148590000Y-85892482D02*
X149860000Y-87162482D01*
X148590000Y-83820000D02*
X148590000Y-85892482D01*
X149860000Y-87162482D02*
X149860000Y-95250000D01*
X143745800Y-114935000D02*
X144780000Y-113900800D01*
X142240000Y-114935000D02*
X143745800Y-114935000D01*
%TO.N,Net-(Q_ISO_3-Pad1)*%
X163936765Y-135148235D02*
X161503530Y-132715000D01*
X161503530Y-132715000D02*
X161290000Y-132715000D01*
%TO.N,Net-(Q_J1850_1-Pad3)*%
X158575000Y-92138500D02*
X158575000Y-89090500D01*
X159194500Y-89090500D02*
X160655000Y-87630000D01*
X158575000Y-89090500D02*
X159194500Y-89090500D01*
%TO.N,/OBDII Interpreter/OBDII Chip/~J1850_BUS+_VH~*%
X144100000Y-84500000D02*
X144145000Y-84455000D01*
X139655000Y-84500000D02*
X144100000Y-84500000D01*
%TO.N,Pin10_SAE_J1850_BUS-*%
X152616482Y-157480000D02*
X149860000Y-157480000D01*
X156736001Y-153360481D02*
X152616482Y-157480000D01*
X156736001Y-147868001D02*
X156736001Y-153360481D01*
X155636000Y-146768000D02*
X156736001Y-147868001D01*
X157226000Y-80830000D02*
X157295000Y-80830000D01*
X157226000Y-95975002D02*
X158405998Y-97155000D01*
X157226000Y-80830000D02*
X157226000Y-95975002D01*
X158405998Y-97155000D02*
X163830000Y-97155000D01*
X166490000Y-99060000D02*
X166370000Y-99180000D01*
X168910000Y-99060000D02*
X166490000Y-99060000D01*
X171921600Y-99060000D02*
X171983400Y-99121800D01*
X168910000Y-99060000D02*
X171921600Y-99060000D01*
X169245001Y-146615001D02*
X175260000Y-140600002D01*
X157989001Y-146615001D02*
X169245001Y-146615001D01*
X156736001Y-147868001D02*
X157989001Y-146615001D01*
X175260000Y-102398400D02*
X171983400Y-99121800D01*
X175260000Y-140600002D02*
X175260000Y-102398400D01*
%TO.N,/OBDII Interpreter/OBDII Chip/J1850_BUS-_TX*%
X160755199Y-104105001D02*
X161812400Y-103047800D01*
X155921999Y-104105001D02*
X160755199Y-104105001D01*
X155290001Y-103473003D02*
X155921999Y-104105001D01*
X155290001Y-84805001D02*
X155290001Y-103473003D01*
X154305000Y-83820000D02*
X155290001Y-84805001D01*
X165752200Y-103047800D02*
X167320000Y-101480000D01*
X161812400Y-103047800D02*
X165752200Y-103047800D01*
%TO.N,/OBDII Interpreter/OBDII Chip/J1850_BUS+_TX*%
X143412025Y-85197975D02*
X143510000Y-85100000D01*
X139708235Y-85197975D02*
X143412025Y-85197975D01*
X160216000Y-98425000D02*
X160578800Y-98062200D01*
X156845000Y-98425000D02*
X160216000Y-98425000D01*
X173870000Y-94935000D02*
X173670000Y-94935000D01*
X173670000Y-94935000D02*
X172720000Y-95885000D01*
%TO.N,/OBDII Interpreter/OBDII Chip/STATUS_LED*%
X123825000Y-89535000D02*
X117475000Y-89535000D01*
X110325789Y-92874211D02*
X113030000Y-90170000D01*
X110325789Y-114717189D02*
X110325789Y-92874211D01*
X111572300Y-115963700D02*
X110325789Y-114717189D01*
%TO.N,/OBDII Interpreter/~RESET_OBD_HW~*%
X126180000Y-92260000D02*
X126180000Y-91440000D01*
X123190000Y-95250000D02*
X126180000Y-92260000D01*
X111572300Y-112915700D02*
X111572300Y-109867700D01*
X110825799Y-97276401D02*
X112191800Y-95910400D01*
X110825799Y-109121199D02*
X110825799Y-97276401D01*
X111572300Y-109867700D02*
X110825799Y-109121199D01*
D45*
%TO.N,VDDA*%
X127635000Y-88665000D02*
X127635000Y-88265000D01*
X127635000Y-88265000D02*
X128270000Y-87630000D01*
D46*
%TO.N,Net-(Q_SWCAN_1-Pad3)*%
X141986000Y-65759000D02*
X141986000Y-65151000D01*
D42*
X141986000Y-65151000D02*
X140335000Y-63500000D01*
%TO.N,Net-(R_VR2_1-Pad2)*%
X126492000Y-131826000D02*
X126619000Y-131826000D01*
X126619000Y-131826000D02*
X127635000Y-130810000D01*
D43*
%TO.N,Pin16_Raw_+12V_Battery*%
X153035000Y-145452999D02*
X153035000Y-142590000D01*
X147695001Y-150792998D02*
X153035000Y-145452999D01*
X147695001Y-152400000D02*
X147695001Y-150792998D01*
D47*
%TO.N,+5V_SW*%
X147955000Y-66675000D02*
X144018000Y-70612000D01*
D48*
X147955000Y-64135000D02*
X147955000Y-66675000D01*
X147955000Y-60325000D02*
X147955000Y-64135000D01*
D47*
X134747000Y-70612000D02*
X133212000Y-70612000D01*
X144018000Y-70612000D02*
X134747000Y-70612000D01*
D42*
%TO.N,/Host/HOST_TX*%
X121628000Y-80988000D02*
X121628000Y-76073000D01*
X121920000Y-81280000D02*
X121628000Y-80988000D01*
D43*
%TO.N,+12V_SW*%
X157099000Y-73914000D02*
X154813000Y-76200000D01*
X160089000Y-73914000D02*
X157099000Y-73914000D01*
D45*
%TO.N,/Host/I2C_SCL*%
X142240000Y-61595000D02*
X142240000Y-56286400D01*
X141605000Y-62230000D02*
X142240000Y-61595000D01*
D42*
%TO.N,/Host/I2C_SDA*%
X137240000Y-56286400D02*
X139700000Y-58746400D01*
X139700000Y-58746400D02*
X139700000Y-69215000D01*
D45*
%TO.N,/Host/MEMS_CS*%
X146050000Y-60176400D02*
X149940000Y-56286400D01*
X146050000Y-60960000D02*
X146050000Y-60176400D01*
D42*
%TO.N,Net-(J_SWCAN_1-Pad2)*%
X141986000Y-67691000D02*
X143510000Y-69215000D01*
D46*
X141986000Y-66321000D02*
X141986000Y-67691000D01*
D45*
%TO.N,+5V*%
X161665004Y-126365000D02*
X161925000Y-126105004D01*
D43*
X161925000Y-126105004D02*
X161925000Y-125730000D01*
X170180000Y-125730000D02*
X172720000Y-123190000D01*
X161925000Y-125730000D02*
X170180000Y-125730000D01*
D44*
X117742600Y-84455000D02*
X115366800Y-86830800D01*
X118110000Y-84455000D02*
X117742600Y-84455000D01*
X118679999Y-93410001D02*
X118745000Y-93345000D01*
X117773999Y-93410001D02*
X118679999Y-93410001D01*
X114416799Y-90052801D02*
X117773999Y-93410001D01*
X114416799Y-87780801D02*
X114416799Y-90052801D01*
X115366800Y-86830800D02*
X114416799Y-87780801D01*
D43*
X170815000Y-69312800D02*
X173355000Y-66772800D01*
X170815000Y-71120000D02*
X170815000Y-69312800D01*
X118568659Y-97073223D02*
X118568659Y-93410001D01*
X113665000Y-101976882D02*
X118568659Y-97073223D01*
X113665000Y-105410000D02*
X113665000Y-101976882D01*
X115366800Y-78308200D02*
X115366800Y-86830800D01*
X118110000Y-75565000D02*
X115366800Y-78308200D01*
D45*
X160969005Y-127060999D02*
X161925000Y-126105004D01*
X159385000Y-127060999D02*
X160969005Y-127060999D01*
D43*
%TO.N,+3V3*%
X129344000Y-125730000D02*
X130556000Y-126942000D01*
X127889000Y-125730000D02*
X129344000Y-125730000D01*
X127762000Y-125603000D02*
X127889000Y-125730000D01*
X127762000Y-125600002D02*
X127762000Y-125603000D01*
X115842200Y-128272598D02*
X115842200Y-128752600D01*
X118514796Y-125600002D02*
X115842200Y-128272598D01*
X127762000Y-125600002D02*
X118514796Y-125600002D01*
X128670000Y-92290000D02*
X127820000Y-91440000D01*
X129960000Y-92290000D02*
X128670000Y-92290000D01*
X129960000Y-91679998D02*
X132739998Y-88900000D01*
X129960000Y-92290000D02*
X129960000Y-91679998D01*
X132739998Y-88900000D02*
X134620000Y-88900000D01*
X134620000Y-88900000D02*
X136525000Y-88900000D01*
X136525000Y-88900000D02*
X139065000Y-88900000D01*
X127820000Y-89830001D02*
X127635000Y-89645001D01*
X127820000Y-91440000D02*
X127820000Y-89830001D01*
X144780000Y-112260800D02*
X144780000Y-112395000D01*
X139065000Y-106680000D02*
X130810000Y-106680000D01*
X144780000Y-112395000D02*
X139065000Y-106680000D01*
D45*
X127273000Y-76073000D02*
X127620000Y-76420000D01*
X123228000Y-76073000D02*
X127273000Y-76073000D01*
D43*
X136525000Y-88900000D02*
X141409000Y-88900000D01*
X149606000Y-80703000D02*
X152146000Y-80703000D01*
X147222000Y-83087000D02*
X149606000Y-80703000D01*
X141409000Y-88900000D02*
X147222000Y-83087000D01*
X146685000Y-82550000D02*
X147222000Y-83087000D01*
X142320000Y-119380000D02*
X144860000Y-121920000D01*
X168990000Y-121920000D02*
X172720000Y-118190000D01*
X144860000Y-121920000D02*
X168990000Y-121920000D01*
X146685000Y-76200000D02*
X146685000Y-82550000D01*
X146685000Y-73660000D02*
X146685000Y-76200000D01*
X136209999Y-101280001D02*
X130810000Y-106680000D01*
X136209999Y-91755001D02*
X136209999Y-101280001D01*
X139065000Y-88900000D02*
X136209999Y-91755001D01*
D45*
X140188000Y-74295000D02*
X142728000Y-76835000D01*
X139218000Y-74295000D02*
X140188000Y-74295000D01*
%TO.N,Net-(Q_HSCAN_1-Pad3)*%
X120650000Y-102870000D02*
X120650000Y-93980000D01*
D42*
X118110000Y-105410000D02*
X120650000Y-102870000D01*
X116205000Y-105410000D02*
X118110000Y-105410000D01*
%TO.N,Net-(Q_MSCAN_1-Pad3)*%
X116840000Y-129394800D02*
X117482200Y-128752600D01*
X116840000Y-141725000D02*
X116840000Y-129394800D01*
X120650000Y-107950000D02*
X120650000Y-121285000D01*
X120650000Y-121285000D02*
X113030000Y-128905000D01*
X113545000Y-138430000D02*
X116840000Y-141725000D01*
X113030000Y-137915000D02*
X113545000Y-138430000D01*
X113030000Y-128905000D02*
X113030000Y-137915000D01*
%TO.N,Net-(R_COMP_1-Pad2)*%
X159766000Y-76327000D02*
X159893000Y-76200000D01*
X159766000Y-79190000D02*
X159766000Y-76327000D01*
%TO.N,Net-(R_COMP_3-Pad1)*%
X157226000Y-76327000D02*
X157353000Y-76200000D01*
X157226000Y-79190000D02*
X157226000Y-76327000D01*
%TO.N,Net-(C_STN_2-Pad2)*%
X142875000Y-100330000D02*
X142875000Y-98425000D01*
X142875000Y-98425000D02*
X137160000Y-92710000D01*
%TO.N,Net-(C_STN_3-Pad1)*%
X144780000Y-89535000D02*
X144780000Y-95250000D01*
X144780000Y-95250000D02*
X145415000Y-95885000D01*
%TO.N,Net-(D_J1850_1-Pad2)*%
X160147000Y-83820000D02*
X160147000Y-83058000D01*
X160147000Y-83058000D02*
X162560000Y-80645000D01*
%TO.N,Net-(D_J1850_3-Pad1)*%
X173151800Y-101930200D02*
X171983400Y-100761800D01*
X173151800Y-104470200D02*
X173151800Y-101930200D01*
%TO.N,Net-(Q_ISO_2-Pad2)*%
X168275000Y-147625000D02*
X168275000Y-149860000D01*
X168275000Y-149860000D02*
X164465000Y-153670000D01*
%TO.N,Net-(Q_ISO_4-Pad1)*%
X166370000Y-138430000D02*
X167005000Y-137795000D01*
X165100000Y-138430000D02*
X166370000Y-138430000D01*
%TO.N,Net-(Q_J1850_2-Pad3)*%
X165419999Y-82869999D02*
X167005000Y-84455000D01*
X162433000Y-82869999D02*
X165419999Y-82869999D01*
X171570000Y-89518002D02*
X171570000Y-95885000D01*
X167005000Y-84953002D02*
X171570000Y-89518002D01*
X167005000Y-84455000D02*
X167005000Y-84953002D01*
%TO.N,Net-(R_COMP_5-Pad2)*%
X162687000Y-73914000D02*
X164973000Y-76200000D01*
X161729000Y-73914000D02*
X162687000Y-73914000D01*
X164973000Y-78994000D02*
X165100000Y-79121000D01*
X164973000Y-76200000D02*
X164973000Y-78994000D01*
%TO.N,Net-(R_COMP_7-Pad2)*%
X156718000Y-60325000D02*
X164973000Y-68580000D01*
X149595000Y-60325000D02*
X156718000Y-60325000D01*
%TO.N,Net-(R_COMP_9-Pad1)*%
X168021000Y-74168000D02*
X168021000Y-79063000D01*
X162433000Y-68580000D02*
X168021000Y-74168000D01*
%TO.N,Net-(R_J1850_3-Pad2)*%
X158511000Y-95092500D02*
X161465000Y-92138500D01*
X158511000Y-95250000D02*
X158511000Y-95092500D01*
X161465000Y-91265000D02*
X161925000Y-90805000D01*
X161465000Y-92138500D02*
X161465000Y-91265000D01*
%TO.N,Pin14_ISO15765_CAN_BUS_Low*%
X133350000Y-138870000D02*
X131760000Y-137280000D01*
X133350000Y-140970000D02*
X133350000Y-138870000D01*
%TO.N,Pin6_ISO15765_CAN_BUS_High*%
X129540000Y-137600000D02*
X129860000Y-137280000D01*
X129540000Y-140970000D02*
X129540000Y-137600000D01*
X125730000Y-137160000D02*
X129540000Y-140970000D01*
X120015000Y-137160000D02*
X125730000Y-137160000D01*
%TO.N,Pin7_ISO9141_K-Line*%
X138535001Y-152400000D02*
X138535001Y-151870001D01*
X143195000Y-141538002D02*
X135351001Y-149382001D01*
X135351001Y-149382001D02*
X135351001Y-150398999D01*
X143195000Y-138005000D02*
X143195000Y-141538002D01*
X144675000Y-136525000D02*
X146050000Y-136525000D01*
X143195000Y-138005000D02*
X144675000Y-136525000D01*
%TD*%
M02*
