%TF.GenerationSoftware,KiCad,Pcbnew,(5.1.7)-1*%
%TF.CreationDate,2020-11-01T00:02:27-07:00*%
%TF.ProjectId,Reader,52656164-6572-42e6-9b69-6361645f7063,0.0.03*%
%TF.SameCoordinates,Original*%
%TF.FileFunction,Soldermask,Bot*%
%TF.FilePolarity,Negative*%
%FSLAX46Y46*%
G04 Gerber Fmt 4.6, Leading zero omitted, Abs format (unit mm)*
G04 Created by KiCad (PCBNEW (5.1.7)-1) date 2020-11-01 00:02:27*
%MOMM*%
%LPD*%
G01*
G04 APERTURE LIST*
%ADD10C,3.302000*%
%ADD11C,1.549400*%
%ADD12R,1.700000X1.700000*%
%ADD13O,1.700000X1.700000*%
%ADD14R,1.100000X1.000000*%
%ADD15R,1.000000X1.100000*%
%ADD16R,1.600200X2.413000*%
%ADD17R,0.858799X0.305600*%
%ADD18C,2.100000*%
%ADD19R,2.100000X2.100000*%
%ADD20R,0.600000X0.350000*%
%ADD21R,0.350000X0.600000*%
%ADD22R,1.600000X1.600000*%
%ADD23O,1.600000X1.600000*%
%ADD24R,0.600000X0.540000*%
%ADD25R,0.600000X1.000000*%
%ADD26R,1.299998X1.799996*%
%ADD27R,1.799996X1.299998*%
%ADD28C,1.117600*%
%ADD29R,0.900000X0.800000*%
%ADD30R,0.790000X0.930000*%
%ADD31R,1.309599X0.568000*%
%ADD32R,1.000000X0.600000*%
%ADD33R,1.020000X1.040000*%
%ADD34R,1.080000X1.680000*%
%ADD35R,1.680000X1.080000*%
%ADD36R,0.560000X0.600000*%
%ADD37R,0.930000X0.790000*%
%ADD38R,0.700000X0.800000*%
%ADD39R,1.380000X1.040000*%
%ADD40R,0.600000X1.230000*%
%ADD41R,1.040000X1.380000*%
%ADD42R,1.010000X0.930000*%
%ADD43R,1.040000X1.020000*%
%ADD44R,0.568000X0.903199*%
%ADD45R,1.004799X0.568000*%
%ADD46R,1.295400X1.295400*%
%ADD47C,1.295400*%
%ADD48R,1.670000X0.600000*%
%ADD49R,0.930000X1.010000*%
%ADD50R,0.507200X1.327899*%
G04 APERTURE END LIST*
D10*
%TO.C,CN1*%
X153465000Y-162560000D03*
X128475000Y-162560000D03*
D11*
X145279999Y-160020000D03*
X142989998Y-160020000D03*
X140700001Y-160020000D03*
X138410000Y-160020000D03*
X136120000Y-160020000D03*
X146425001Y-162560000D03*
X144135000Y-162560000D03*
X141845000Y-162560000D03*
X139554999Y-162560000D03*
X137265001Y-162560000D03*
X145279999Y-165100000D03*
X142989998Y-165100000D03*
X140700001Y-165100000D03*
X138410000Y-165100000D03*
X136120000Y-165100000D03*
%TD*%
D12*
%TO.C,U_HST_1*%
X115062000Y-80264000D03*
D13*
X132842000Y-80264000D03*
X125222000Y-56134000D03*
X140462000Y-80264000D03*
X143002000Y-80264000D03*
X132842000Y-56134000D03*
X130302000Y-80264000D03*
X155702000Y-80264000D03*
X160782000Y-56134000D03*
X135382000Y-80264000D03*
X120142000Y-80264000D03*
X150622000Y-56134000D03*
X148082000Y-56134000D03*
X120142000Y-56134000D03*
X122682000Y-80264000D03*
D12*
X115062000Y-56134000D03*
D13*
X125222000Y-80264000D03*
X163322000Y-80264000D03*
X130302000Y-56134000D03*
X145542000Y-80264000D03*
X155702000Y-56134000D03*
X160782000Y-80264000D03*
X135382000Y-56134000D03*
X127762000Y-56134000D03*
X163322000Y-56134000D03*
X137922000Y-56134000D03*
X153162000Y-80264000D03*
X117602000Y-56134000D03*
X148082000Y-80264000D03*
X137922000Y-80264000D03*
X143002000Y-56134000D03*
X140462000Y-56134000D03*
X158242000Y-56134000D03*
X127762000Y-80264000D03*
X117602000Y-80264000D03*
X122682000Y-56134000D03*
X145542000Y-56134000D03*
X150622000Y-80264000D03*
X158242000Y-80264000D03*
X153162000Y-56134000D03*
%TD*%
D14*
%TO.C,C_HSCAN_3*%
X118540000Y-116205000D03*
X116840000Y-116205000D03*
%TD*%
D15*
%TO.C,C_HSCAN_2*%
X115239800Y-129170800D03*
X115239800Y-127470800D03*
%TD*%
%TO.C,C_HSCAN_1*%
X118033800Y-127470800D03*
X118033800Y-129170800D03*
%TD*%
D16*
%TO.C,U_HSCAN_1*%
X118110000Y-123190000D03*
D17*
X116740800Y-122215001D03*
X116740800Y-122864999D03*
X116740800Y-123515001D03*
X116740800Y-124164999D03*
X119479200Y-124164999D03*
X119479200Y-123515001D03*
X119479200Y-122864999D03*
X119479200Y-122215001D03*
%TD*%
D13*
%TO.C,J_HST_4*%
X163068000Y-46228000D03*
X160528000Y-46228000D03*
X157988000Y-46228000D03*
X155448000Y-46228000D03*
X152908000Y-46228000D03*
X150368000Y-46228000D03*
X147828000Y-46228000D03*
X145288000Y-46228000D03*
X142748000Y-46228000D03*
X140208000Y-46228000D03*
X137668000Y-46228000D03*
X135128000Y-46228000D03*
X132588000Y-46228000D03*
X130048000Y-46228000D03*
X127508000Y-46228000D03*
X124968000Y-46228000D03*
X122428000Y-46228000D03*
X119888000Y-46228000D03*
X117348000Y-46228000D03*
D12*
X114808000Y-46228000D03*
%TD*%
D13*
%TO.C,J_HST_3*%
X163322000Y-52324000D03*
X160782000Y-52324000D03*
X158242000Y-52324000D03*
X155702000Y-52324000D03*
X153162000Y-52324000D03*
X150622000Y-52324000D03*
X148082000Y-52324000D03*
X145542000Y-52324000D03*
X143002000Y-52324000D03*
X140462000Y-52324000D03*
X137922000Y-52324000D03*
X135382000Y-52324000D03*
X132842000Y-52324000D03*
X130302000Y-52324000D03*
X127762000Y-52324000D03*
X125222000Y-52324000D03*
X122682000Y-52324000D03*
X120142000Y-52324000D03*
X117602000Y-52324000D03*
D12*
X115062000Y-52324000D03*
%TD*%
D13*
%TO.C,J_HST_2*%
X115062000Y-84074000D03*
X117602000Y-84074000D03*
X120142000Y-84074000D03*
X122682000Y-84074000D03*
X125222000Y-84074000D03*
X127762000Y-84074000D03*
X130302000Y-84074000D03*
X132842000Y-84074000D03*
X135382000Y-84074000D03*
X137922000Y-84074000D03*
X140462000Y-84074000D03*
X143002000Y-84074000D03*
X145542000Y-84074000D03*
X148082000Y-84074000D03*
X150622000Y-84074000D03*
X153162000Y-84074000D03*
X155702000Y-84074000D03*
X158242000Y-84074000D03*
X160782000Y-84074000D03*
D12*
X163322000Y-84074000D03*
%TD*%
D13*
%TO.C,J_HST_1*%
X163322000Y-89103200D03*
X160782000Y-89103200D03*
X158242000Y-89103200D03*
X155702000Y-89103200D03*
X153162000Y-89103200D03*
X150622000Y-89103200D03*
X148082000Y-89103200D03*
X145542000Y-89103200D03*
X143002000Y-89103200D03*
X140462000Y-89103200D03*
X137922000Y-89103200D03*
X135382000Y-89103200D03*
X132842000Y-89103200D03*
X130302000Y-89103200D03*
X127762000Y-89103200D03*
X125222000Y-89103200D03*
X122682000Y-89103200D03*
X120142000Y-89103200D03*
X117602000Y-89103200D03*
D12*
X115062000Y-89103200D03*
%TD*%
D14*
%TO.C,C_HST_2*%
X121754000Y-49022000D03*
X120054000Y-49022000D03*
%TD*%
D18*
%TO.C,J_CN_2*%
X121880000Y-163068000D03*
D19*
X116880000Y-163068000D03*
%TD*%
D18*
%TO.C,J_CN_1*%
X121920000Y-159004000D03*
D19*
X116920000Y-159004000D03*
%TD*%
D18*
%TO.C,J_PS_1*%
X160020000Y-164385000D03*
D19*
X160020000Y-159385000D03*
%TD*%
D20*
%TO.C,U_MM_1*%
X124544600Y-59508200D03*
X124544600Y-59008200D03*
X124544600Y-60008200D03*
X124544600Y-58508200D03*
X126864600Y-59508200D03*
X126864600Y-59008200D03*
X126864600Y-60008200D03*
X126864600Y-58508200D03*
D21*
X125204600Y-60168200D03*
X125704600Y-60168200D03*
X126204600Y-60168200D03*
X125204600Y-58348200D03*
X125704600Y-58348200D03*
X126204600Y-58348200D03*
%TD*%
D14*
%TO.C,C_J1850_1*%
X155956000Y-61849000D03*
X154256000Y-61849000D03*
%TD*%
%TO.C,C_MSCAN_1*%
X118540000Y-154940000D03*
X116840000Y-154940000D03*
%TD*%
D22*
%TO.C,D_J1850_2*%
X156210000Y-129540000D03*
D23*
X156210000Y-121920000D03*
%TD*%
D15*
%TO.C,C_VR1_3*%
X156210000Y-143090000D03*
X156210000Y-141390000D03*
%TD*%
D24*
%TO.C,C_SWCAN_1*%
X147955000Y-59055000D03*
X147955000Y-59915000D03*
%TD*%
D25*
%TO.C,D_ESD_2*%
X146050000Y-156090000D03*
X147000000Y-153790000D03*
X145100000Y-153790000D03*
%TD*%
D22*
%TO.C,D_VS_1*%
X121285000Y-118745000D03*
D23*
X128905000Y-118745000D03*
%TD*%
D26*
%TO.C,C_PS_1*%
X149989998Y-147320000D03*
X147190002Y-147320000D03*
%TD*%
D22*
%TO.C,D_J1850_3*%
X160020000Y-121920000D03*
D23*
X160020000Y-129540000D03*
%TD*%
D27*
%TO.C,C_PS_2*%
X161290000Y-142499996D03*
X161290000Y-139700000D03*
%TD*%
D28*
%TO.C,C_MM_1*%
X131495800Y-60960000D03*
X133995800Y-60960000D03*
%TD*%
D14*
%TO.C,C_MSCAN_3*%
X115990000Y-138430000D03*
X117690000Y-138430000D03*
%TD*%
D26*
%TO.C,C_PS_3*%
X134490002Y-133350000D03*
X137289998Y-133350000D03*
%TD*%
D14*
%TO.C,C_STN_5*%
X127850000Y-106680000D03*
X126150000Y-106680000D03*
%TD*%
D15*
%TO.C,C_MSCAN_2*%
X121920000Y-150700000D03*
X121920000Y-152400000D03*
%TD*%
D26*
%TO.C,C_SWCAN_2*%
X141734998Y-59055000D03*
X138935002Y-59055000D03*
%TD*%
D23*
%TO.C,D_J1850_1*%
X163842700Y-64897000D03*
D22*
X163842700Y-72517000D03*
%TD*%
D27*
%TO.C,C_VR1_1*%
X146050000Y-142240000D03*
X146050000Y-139440004D03*
%TD*%
%TO.C,C_VR2_1*%
X137160000Y-135890000D03*
X137160000Y-138689996D03*
%TD*%
D15*
%TO.C,C_VR1_2*%
X146050000Y-135040000D03*
X146050000Y-136740000D03*
%TD*%
D23*
%TO.C,D_VS_2*%
X121285000Y-114935000D03*
D22*
X128905000Y-114935000D03*
%TD*%
D29*
%TO.C,Q_ISO_3*%
X123936000Y-73914000D03*
X121936000Y-72964000D03*
X121936000Y-74864000D03*
%TD*%
D25*
%TO.C,Q_J1850_2*%
X149860000Y-119500000D03*
X148910000Y-121800000D03*
X150810000Y-121800000D03*
%TD*%
D30*
%TO.C,R_COMP_2*%
X160840000Y-119380000D03*
X159200000Y-119380000D03*
%TD*%
%TO.C,R_COMP_3*%
X150310000Y-102870000D03*
X151950000Y-102870000D03*
%TD*%
D31*
%TO.C,Q_ISO_1*%
X116573300Y-72707500D03*
X116573300Y-74612500D03*
X114566700Y-73660000D03*
%TD*%
D32*
%TO.C,Q_J1850_1*%
X145930000Y-70993000D03*
X143630000Y-70043000D03*
X143630000Y-71943000D03*
%TD*%
D30*
%TO.C,R_COMP_4*%
X160533500Y-91694000D03*
X162173500Y-91694000D03*
%TD*%
%TO.C,R_J1850_5*%
X157665000Y-119380000D03*
X156025000Y-119380000D03*
%TD*%
D33*
%TO.C,R_J1850_2*%
X159004000Y-62865000D03*
X159004000Y-61395000D03*
%TD*%
D34*
%TO.C,R_J1850_6*%
X153495000Y-71501000D03*
X156385000Y-71501000D03*
%TD*%
D35*
%TO.C,R_STN_2*%
X119494300Y-106492300D03*
X119494300Y-109382300D03*
%TD*%
D36*
%TO.C,R_STN_7*%
X126565000Y-104140000D03*
X127435000Y-104140000D03*
%TD*%
D37*
%TO.C,R_STN_8*%
X140970000Y-99510000D03*
X140970000Y-101150000D03*
%TD*%
D38*
%TO.C,R_ISO_1*%
X118351400Y-69215000D03*
X119951400Y-69215000D03*
%TD*%
D30*
%TO.C,R_MSCAN_1*%
X125280000Y-126365000D03*
X123640000Y-126365000D03*
%TD*%
D37*
%TO.C,R_PSW_1*%
X144780000Y-120650000D03*
X144780000Y-122290000D03*
%TD*%
D34*
%TO.C,R_J1850_3*%
X148336000Y-71501000D03*
X151226000Y-71501000D03*
%TD*%
D39*
%TO.C,R_ISO_4*%
X119380000Y-65710000D03*
X119380000Y-63830000D03*
%TD*%
D32*
%TO.C,Q_J1850_4*%
X146170000Y-129540000D03*
X148470000Y-130490000D03*
X148470000Y-128590000D03*
%TD*%
D37*
%TO.C,R_J1850_7*%
X151130000Y-133720000D03*
X151130000Y-132080000D03*
%TD*%
D40*
%TO.C,D_ESD_5*%
X152466000Y-156928000D03*
X154366000Y-156928000D03*
X153416000Y-159048000D03*
%TD*%
%TO.C,D_ESD_4*%
X132080000Y-166160000D03*
X133030000Y-164040000D03*
X131130000Y-164040000D03*
%TD*%
D30*
%TO.C,R_J1850_8*%
X145680000Y-125730000D03*
X147320000Y-125730000D03*
%TD*%
D35*
%TO.C,R_STN_1*%
X116446300Y-106492300D03*
X116446300Y-109382300D03*
%TD*%
D41*
%TO.C,R_ISO_3*%
X119405000Y-99060000D03*
X121285000Y-99060000D03*
%TD*%
D35*
%TO.C,R_STN_4*%
X122542300Y-109382300D03*
X122542300Y-106492300D03*
%TD*%
D30*
%TO.C,R_COMP1*%
X156660000Y-91821000D03*
X158300000Y-91821000D03*
%TD*%
D42*
%TO.C,C_STN_3*%
X142949000Y-93345000D03*
X141531000Y-93345000D03*
%TD*%
D34*
%TO.C,R_J1850_4*%
X143843000Y-66929000D03*
X146733000Y-66929000D03*
%TD*%
D43*
%TO.C,R_SWCAN_7*%
X136485300Y-77012800D03*
X135015300Y-77012800D03*
%TD*%
D38*
%TO.C,R_STN_3*%
X121145300Y-90995500D03*
X119545300Y-90995500D03*
%TD*%
%TO.C,R_SWCAN_6*%
X118580000Y-78105000D03*
X120180000Y-78105000D03*
%TD*%
D30*
%TO.C,R_SWCAN_3*%
X144595000Y-57785000D03*
X146235000Y-57785000D03*
%TD*%
D38*
%TO.C,R_ISO_2*%
X115976400Y-60960000D03*
X114376400Y-60960000D03*
%TD*%
D25*
%TO.C,D_ESD_1*%
X128270000Y-158630000D03*
X129220000Y-156330000D03*
X127320000Y-156330000D03*
%TD*%
D44*
%TO.C,D_ESD_3*%
X151064001Y-166547800D03*
X149163999Y-166547800D03*
X150114000Y-164160200D03*
%TD*%
D45*
%TO.C,Q_J1850_3*%
X163474400Y-62026800D03*
X161188400Y-61076799D03*
X161188400Y-62976801D03*
%TD*%
D46*
%TO.C,U_COMP_1*%
X155575000Y-110490000D03*
D47*
X155575000Y-107950000D03*
X155575000Y-105410000D03*
X155575000Y-102870000D03*
X155575000Y-100330000D03*
X155575000Y-97790000D03*
X155575000Y-95250000D03*
X163195000Y-95250000D03*
X163195000Y-97790000D03*
X163195000Y-100330000D03*
X163195000Y-102870000D03*
X163195000Y-105410000D03*
X163195000Y-107950000D03*
X163195000Y-110490000D03*
%TD*%
D34*
%TO.C,R_VS_2*%
X130985000Y-121920000D03*
X128095000Y-121920000D03*
%TD*%
D37*
%TO.C,R_VR2_3*%
X132080000Y-135440000D03*
X132080000Y-133800000D03*
%TD*%
D48*
%TO.C,U_J1850_1*%
X155618000Y-64770000D03*
X155618000Y-66040000D03*
X155618000Y-67310000D03*
X155618000Y-68580000D03*
X150368000Y-68580000D03*
X150368000Y-67310000D03*
X150368000Y-66040000D03*
X150368000Y-64770000D03*
%TD*%
D30*
%TO.C,R_VR2_2*%
X143626000Y-142748000D03*
X141986000Y-142748000D03*
%TD*%
D49*
%TO.C,C_STN_2*%
X146050000Y-97229000D03*
X146050000Y-95811000D03*
%TD*%
D15*
%TO.C,C_STN_4*%
X153670000Y-107745000D03*
X153670000Y-106045000D03*
%TD*%
D29*
%TO.C,Q_ISO_4*%
X119786400Y-59690000D03*
X117786400Y-58740000D03*
X117786400Y-60640000D03*
%TD*%
D31*
%TO.C,Q_ISO_2*%
X114566700Y-64770000D03*
X116573300Y-65722500D03*
X116573300Y-63817500D03*
%TD*%
D50*
%TO.C,U_SWCAN_1*%
X137655300Y-70907648D03*
X136385300Y-70907648D03*
X135115300Y-70907648D03*
X133845300Y-70907648D03*
X132575300Y-70907648D03*
X131305300Y-70907648D03*
X130035300Y-70907648D03*
X130035300Y-65337952D03*
X131305300Y-65337952D03*
X132575300Y-65337952D03*
X133845300Y-65337952D03*
X135115300Y-65337952D03*
X136385300Y-65337952D03*
X137655300Y-65337952D03*
%TD*%
D30*
%TO.C,R_SWCAN_4*%
X131120300Y-77012800D03*
X132760300Y-77012800D03*
%TD*%
%TO.C,R_SWCAN_5*%
X127526200Y-76936600D03*
X129166200Y-76936600D03*
%TD*%
M02*
