%TF.GenerationSoftware,KiCad,Pcbnew,(5.1.7)-1*%
%TF.CreationDate,2020-11-01T00:02:27-07:00*%
%TF.ProjectId,Reader,52656164-6572-42e6-9b69-6361645f7063,0.0.03*%
%TF.SameCoordinates,Original*%
%TF.FileFunction,Soldermask,Top*%
%TF.FilePolarity,Negative*%
%FSLAX46Y46*%
G04 Gerber Fmt 4.6, Leading zero omitted, Abs format (unit mm)*
G04 Created by KiCad (PCBNEW (5.1.7)-1) date 2020-11-01 00:02:27*
%MOMM*%
%LPD*%
G01*
G04 APERTURE LIST*
%ADD10C,3.302000*%
%ADD11C,1.549400*%
%ADD12R,0.930000X0.790000*%
%ADD13R,1.700000X1.700000*%
%ADD14O,1.700000X1.700000*%
%ADD15R,1.680000X1.080000*%
%ADD16R,6.450000X6.450000*%
%ADD17C,2.100000*%
%ADD18R,2.100000X2.100000*%
%ADD19R,1.000000X1.100000*%
%ADD20R,1.600000X1.600000*%
%ADD21O,1.600000X1.600000*%
%ADD22R,1.100000X1.000000*%
%ADD23C,1.117600*%
%ADD24R,0.990600X1.003300*%
%ADD25R,1.000000X0.600000*%
%ADD26R,0.790000X0.930000*%
%ADD27R,0.600000X1.000000*%
%ADD28R,1.295400X1.295400*%
%ADD29C,1.295400*%
%ADD30R,1.549400X0.990600*%
%ADD31R,0.900000X1.100000*%
%ADD32R,1.080000X1.680000*%
%ADD33R,0.757199X0.254800*%
%ADD34R,1.803400X2.590800*%
%ADD35R,0.305600X0.858799*%
%ADD36R,2.413000X1.600200*%
G04 APERTURE END LIST*
D10*
%TO.C,CN1*%
X153465000Y-162560000D03*
X128475000Y-162560000D03*
D11*
X145279999Y-160020000D03*
X142989998Y-160020000D03*
X140700001Y-160020000D03*
X138410000Y-160020000D03*
X136120000Y-160020000D03*
X146425001Y-162560000D03*
X144135000Y-162560000D03*
X141845000Y-162560000D03*
X139554999Y-162560000D03*
X137265001Y-162560000D03*
X145279999Y-165100000D03*
X142989998Y-165100000D03*
X140700001Y-165100000D03*
X138410000Y-165100000D03*
X136120000Y-165100000D03*
%TD*%
D12*
%TO.C,R_COMP_9*%
X160528000Y-108712000D03*
X160528000Y-110352000D03*
%TD*%
D13*
%TO.C,U_HST_1*%
X115062000Y-80264000D03*
D14*
X132842000Y-80264000D03*
X125222000Y-56134000D03*
X140462000Y-80264000D03*
X143002000Y-80264000D03*
X132842000Y-56134000D03*
X130302000Y-80264000D03*
X155702000Y-80264000D03*
X160782000Y-56134000D03*
X135382000Y-80264000D03*
X120142000Y-80264000D03*
X150622000Y-56134000D03*
X148082000Y-56134000D03*
X120142000Y-56134000D03*
X122682000Y-80264000D03*
D13*
X115062000Y-56134000D03*
D14*
X125222000Y-80264000D03*
X163322000Y-80264000D03*
X130302000Y-56134000D03*
X145542000Y-80264000D03*
X155702000Y-56134000D03*
X160782000Y-80264000D03*
X135382000Y-56134000D03*
X127762000Y-56134000D03*
X163322000Y-56134000D03*
X137922000Y-56134000D03*
X153162000Y-80264000D03*
X117602000Y-56134000D03*
X148082000Y-80264000D03*
X137922000Y-80264000D03*
X143002000Y-56134000D03*
X140462000Y-56134000D03*
X158242000Y-56134000D03*
X127762000Y-80264000D03*
X117602000Y-80264000D03*
X122682000Y-56134000D03*
X145542000Y-56134000D03*
X150622000Y-80264000D03*
X158242000Y-80264000D03*
X153162000Y-56134000D03*
%TD*%
D15*
%TO.C,R_HSCAN_3*%
X115747800Y-134591800D03*
X115747800Y-131701800D03*
%TD*%
%TO.C,R_HSCAN_2*%
X118668800Y-131701800D03*
X118668800Y-134591800D03*
%TD*%
D14*
%TO.C,J_HST_4*%
X163068000Y-46228000D03*
X160528000Y-46228000D03*
X157988000Y-46228000D03*
X155448000Y-46228000D03*
X152908000Y-46228000D03*
X150368000Y-46228000D03*
X147828000Y-46228000D03*
X145288000Y-46228000D03*
X142748000Y-46228000D03*
X140208000Y-46228000D03*
X137668000Y-46228000D03*
X135128000Y-46228000D03*
X132588000Y-46228000D03*
X130048000Y-46228000D03*
X127508000Y-46228000D03*
X124968000Y-46228000D03*
X122428000Y-46228000D03*
X119888000Y-46228000D03*
X117348000Y-46228000D03*
D13*
X114808000Y-46228000D03*
%TD*%
D14*
%TO.C,J_HST_3*%
X163322000Y-52324000D03*
X160782000Y-52324000D03*
X158242000Y-52324000D03*
X155702000Y-52324000D03*
X153162000Y-52324000D03*
X150622000Y-52324000D03*
X148082000Y-52324000D03*
X145542000Y-52324000D03*
X143002000Y-52324000D03*
X140462000Y-52324000D03*
X137922000Y-52324000D03*
X135382000Y-52324000D03*
X132842000Y-52324000D03*
X130302000Y-52324000D03*
X127762000Y-52324000D03*
X125222000Y-52324000D03*
X122682000Y-52324000D03*
X120142000Y-52324000D03*
X117602000Y-52324000D03*
D13*
X115062000Y-52324000D03*
%TD*%
D14*
%TO.C,J_HST_2*%
X115062000Y-84074000D03*
X117602000Y-84074000D03*
X120142000Y-84074000D03*
X122682000Y-84074000D03*
X125222000Y-84074000D03*
X127762000Y-84074000D03*
X130302000Y-84074000D03*
X132842000Y-84074000D03*
X135382000Y-84074000D03*
X137922000Y-84074000D03*
X140462000Y-84074000D03*
X143002000Y-84074000D03*
X145542000Y-84074000D03*
X148082000Y-84074000D03*
X150622000Y-84074000D03*
X153162000Y-84074000D03*
X155702000Y-84074000D03*
X158242000Y-84074000D03*
X160782000Y-84074000D03*
D13*
X163322000Y-84074000D03*
%TD*%
D14*
%TO.C,J_HST_1*%
X163322000Y-89103200D03*
X160782000Y-89103200D03*
X158242000Y-89103200D03*
X155702000Y-89103200D03*
X153162000Y-89103200D03*
X150622000Y-89103200D03*
X148082000Y-89103200D03*
X145542000Y-89103200D03*
X143002000Y-89103200D03*
X140462000Y-89103200D03*
X137922000Y-89103200D03*
X135382000Y-89103200D03*
X132842000Y-89103200D03*
X130302000Y-89103200D03*
X127762000Y-89103200D03*
X125222000Y-89103200D03*
X122682000Y-89103200D03*
X120142000Y-89103200D03*
X117602000Y-89103200D03*
D13*
X115062000Y-89103200D03*
%TD*%
D16*
%TO.C,U_STN_1*%
X140970000Y-106680000D03*
G36*
G01*
X137545000Y-103067500D02*
X137545000Y-102417500D01*
G75*
G02*
X137632500Y-102330000I87500J0D01*
G01*
X137807500Y-102330000D01*
G75*
G02*
X137895000Y-102417500I0J-87500D01*
G01*
X137895000Y-103067500D01*
G75*
G02*
X137807500Y-103155000I-87500J0D01*
G01*
X137632500Y-103155000D01*
G75*
G02*
X137545000Y-103067500I0J87500D01*
G01*
G37*
G36*
G01*
X138195000Y-103067500D02*
X138195000Y-102417500D01*
G75*
G02*
X138282500Y-102330000I87500J0D01*
G01*
X138457500Y-102330000D01*
G75*
G02*
X138545000Y-102417500I0J-87500D01*
G01*
X138545000Y-103067500D01*
G75*
G02*
X138457500Y-103155000I-87500J0D01*
G01*
X138282500Y-103155000D01*
G75*
G02*
X138195000Y-103067500I0J87500D01*
G01*
G37*
G36*
G01*
X138845000Y-103067500D02*
X138845000Y-102417500D01*
G75*
G02*
X138932500Y-102330000I87500J0D01*
G01*
X139107500Y-102330000D01*
G75*
G02*
X139195000Y-102417500I0J-87500D01*
G01*
X139195000Y-103067500D01*
G75*
G02*
X139107500Y-103155000I-87500J0D01*
G01*
X138932500Y-103155000D01*
G75*
G02*
X138845000Y-103067500I0J87500D01*
G01*
G37*
G36*
G01*
X139495000Y-103067500D02*
X139495000Y-102417500D01*
G75*
G02*
X139582500Y-102330000I87500J0D01*
G01*
X139757500Y-102330000D01*
G75*
G02*
X139845000Y-102417500I0J-87500D01*
G01*
X139845000Y-103067500D01*
G75*
G02*
X139757500Y-103155000I-87500J0D01*
G01*
X139582500Y-103155000D01*
G75*
G02*
X139495000Y-103067500I0J87500D01*
G01*
G37*
G36*
G01*
X140145000Y-103067500D02*
X140145000Y-102417500D01*
G75*
G02*
X140232500Y-102330000I87500J0D01*
G01*
X140407500Y-102330000D01*
G75*
G02*
X140495000Y-102417500I0J-87500D01*
G01*
X140495000Y-103067500D01*
G75*
G02*
X140407500Y-103155000I-87500J0D01*
G01*
X140232500Y-103155000D01*
G75*
G02*
X140145000Y-103067500I0J87500D01*
G01*
G37*
G36*
G01*
X140795000Y-103067500D02*
X140795000Y-102417500D01*
G75*
G02*
X140882500Y-102330000I87500J0D01*
G01*
X141057500Y-102330000D01*
G75*
G02*
X141145000Y-102417500I0J-87500D01*
G01*
X141145000Y-103067500D01*
G75*
G02*
X141057500Y-103155000I-87500J0D01*
G01*
X140882500Y-103155000D01*
G75*
G02*
X140795000Y-103067500I0J87500D01*
G01*
G37*
G36*
G01*
X141445000Y-103067500D02*
X141445000Y-102417500D01*
G75*
G02*
X141532500Y-102330000I87500J0D01*
G01*
X141707500Y-102330000D01*
G75*
G02*
X141795000Y-102417500I0J-87500D01*
G01*
X141795000Y-103067500D01*
G75*
G02*
X141707500Y-103155000I-87500J0D01*
G01*
X141532500Y-103155000D01*
G75*
G02*
X141445000Y-103067500I0J87500D01*
G01*
G37*
G36*
G01*
X142095000Y-103067500D02*
X142095000Y-102417500D01*
G75*
G02*
X142182500Y-102330000I87500J0D01*
G01*
X142357500Y-102330000D01*
G75*
G02*
X142445000Y-102417500I0J-87500D01*
G01*
X142445000Y-103067500D01*
G75*
G02*
X142357500Y-103155000I-87500J0D01*
G01*
X142182500Y-103155000D01*
G75*
G02*
X142095000Y-103067500I0J87500D01*
G01*
G37*
G36*
G01*
X142745000Y-103067500D02*
X142745000Y-102417500D01*
G75*
G02*
X142832500Y-102330000I87500J0D01*
G01*
X143007500Y-102330000D01*
G75*
G02*
X143095000Y-102417500I0J-87500D01*
G01*
X143095000Y-103067500D01*
G75*
G02*
X143007500Y-103155000I-87500J0D01*
G01*
X142832500Y-103155000D01*
G75*
G02*
X142745000Y-103067500I0J87500D01*
G01*
G37*
G36*
G01*
X143395000Y-103067500D02*
X143395000Y-102417500D01*
G75*
G02*
X143482500Y-102330000I87500J0D01*
G01*
X143657500Y-102330000D01*
G75*
G02*
X143745000Y-102417500I0J-87500D01*
G01*
X143745000Y-103067500D01*
G75*
G02*
X143657500Y-103155000I-87500J0D01*
G01*
X143482500Y-103155000D01*
G75*
G02*
X143395000Y-103067500I0J87500D01*
G01*
G37*
G36*
G01*
X144045000Y-103067500D02*
X144045000Y-102417500D01*
G75*
G02*
X144132500Y-102330000I87500J0D01*
G01*
X144307500Y-102330000D01*
G75*
G02*
X144395000Y-102417500I0J-87500D01*
G01*
X144395000Y-103067500D01*
G75*
G02*
X144307500Y-103155000I-87500J0D01*
G01*
X144132500Y-103155000D01*
G75*
G02*
X144045000Y-103067500I0J87500D01*
G01*
G37*
G36*
G01*
X144495000Y-103517500D02*
X144495000Y-103342500D01*
G75*
G02*
X144582500Y-103255000I87500J0D01*
G01*
X145232500Y-103255000D01*
G75*
G02*
X145320000Y-103342500I0J-87500D01*
G01*
X145320000Y-103517500D01*
G75*
G02*
X145232500Y-103605000I-87500J0D01*
G01*
X144582500Y-103605000D01*
G75*
G02*
X144495000Y-103517500I0J87500D01*
G01*
G37*
G36*
G01*
X144495000Y-104167500D02*
X144495000Y-103992500D01*
G75*
G02*
X144582500Y-103905000I87500J0D01*
G01*
X145232500Y-103905000D01*
G75*
G02*
X145320000Y-103992500I0J-87500D01*
G01*
X145320000Y-104167500D01*
G75*
G02*
X145232500Y-104255000I-87500J0D01*
G01*
X144582500Y-104255000D01*
G75*
G02*
X144495000Y-104167500I0J87500D01*
G01*
G37*
G36*
G01*
X144495000Y-104817500D02*
X144495000Y-104642500D01*
G75*
G02*
X144582500Y-104555000I87500J0D01*
G01*
X145232500Y-104555000D01*
G75*
G02*
X145320000Y-104642500I0J-87500D01*
G01*
X145320000Y-104817500D01*
G75*
G02*
X145232500Y-104905000I-87500J0D01*
G01*
X144582500Y-104905000D01*
G75*
G02*
X144495000Y-104817500I0J87500D01*
G01*
G37*
G36*
G01*
X144495000Y-105467500D02*
X144495000Y-105292500D01*
G75*
G02*
X144582500Y-105205000I87500J0D01*
G01*
X145232500Y-105205000D01*
G75*
G02*
X145320000Y-105292500I0J-87500D01*
G01*
X145320000Y-105467500D01*
G75*
G02*
X145232500Y-105555000I-87500J0D01*
G01*
X144582500Y-105555000D01*
G75*
G02*
X144495000Y-105467500I0J87500D01*
G01*
G37*
G36*
G01*
X144495000Y-106117500D02*
X144495000Y-105942500D01*
G75*
G02*
X144582500Y-105855000I87500J0D01*
G01*
X145232500Y-105855000D01*
G75*
G02*
X145320000Y-105942500I0J-87500D01*
G01*
X145320000Y-106117500D01*
G75*
G02*
X145232500Y-106205000I-87500J0D01*
G01*
X144582500Y-106205000D01*
G75*
G02*
X144495000Y-106117500I0J87500D01*
G01*
G37*
G36*
G01*
X144495000Y-106767500D02*
X144495000Y-106592500D01*
G75*
G02*
X144582500Y-106505000I87500J0D01*
G01*
X145232500Y-106505000D01*
G75*
G02*
X145320000Y-106592500I0J-87500D01*
G01*
X145320000Y-106767500D01*
G75*
G02*
X145232500Y-106855000I-87500J0D01*
G01*
X144582500Y-106855000D01*
G75*
G02*
X144495000Y-106767500I0J87500D01*
G01*
G37*
G36*
G01*
X144495000Y-107417500D02*
X144495000Y-107242500D01*
G75*
G02*
X144582500Y-107155000I87500J0D01*
G01*
X145232500Y-107155000D01*
G75*
G02*
X145320000Y-107242500I0J-87500D01*
G01*
X145320000Y-107417500D01*
G75*
G02*
X145232500Y-107505000I-87500J0D01*
G01*
X144582500Y-107505000D01*
G75*
G02*
X144495000Y-107417500I0J87500D01*
G01*
G37*
G36*
G01*
X144495000Y-108067500D02*
X144495000Y-107892500D01*
G75*
G02*
X144582500Y-107805000I87500J0D01*
G01*
X145232500Y-107805000D01*
G75*
G02*
X145320000Y-107892500I0J-87500D01*
G01*
X145320000Y-108067500D01*
G75*
G02*
X145232500Y-108155000I-87500J0D01*
G01*
X144582500Y-108155000D01*
G75*
G02*
X144495000Y-108067500I0J87500D01*
G01*
G37*
G36*
G01*
X144495000Y-108717500D02*
X144495000Y-108542500D01*
G75*
G02*
X144582500Y-108455000I87500J0D01*
G01*
X145232500Y-108455000D01*
G75*
G02*
X145320000Y-108542500I0J-87500D01*
G01*
X145320000Y-108717500D01*
G75*
G02*
X145232500Y-108805000I-87500J0D01*
G01*
X144582500Y-108805000D01*
G75*
G02*
X144495000Y-108717500I0J87500D01*
G01*
G37*
G36*
G01*
X144495000Y-109367500D02*
X144495000Y-109192500D01*
G75*
G02*
X144582500Y-109105000I87500J0D01*
G01*
X145232500Y-109105000D01*
G75*
G02*
X145320000Y-109192500I0J-87500D01*
G01*
X145320000Y-109367500D01*
G75*
G02*
X145232500Y-109455000I-87500J0D01*
G01*
X144582500Y-109455000D01*
G75*
G02*
X144495000Y-109367500I0J87500D01*
G01*
G37*
G36*
G01*
X144495000Y-110017500D02*
X144495000Y-109842500D01*
G75*
G02*
X144582500Y-109755000I87500J0D01*
G01*
X145232500Y-109755000D01*
G75*
G02*
X145320000Y-109842500I0J-87500D01*
G01*
X145320000Y-110017500D01*
G75*
G02*
X145232500Y-110105000I-87500J0D01*
G01*
X144582500Y-110105000D01*
G75*
G02*
X144495000Y-110017500I0J87500D01*
G01*
G37*
G36*
G01*
X144045000Y-110942500D02*
X144045000Y-110292500D01*
G75*
G02*
X144132500Y-110205000I87500J0D01*
G01*
X144307500Y-110205000D01*
G75*
G02*
X144395000Y-110292500I0J-87500D01*
G01*
X144395000Y-110942500D01*
G75*
G02*
X144307500Y-111030000I-87500J0D01*
G01*
X144132500Y-111030000D01*
G75*
G02*
X144045000Y-110942500I0J87500D01*
G01*
G37*
G36*
G01*
X143395000Y-110942500D02*
X143395000Y-110292500D01*
G75*
G02*
X143482500Y-110205000I87500J0D01*
G01*
X143657500Y-110205000D01*
G75*
G02*
X143745000Y-110292500I0J-87500D01*
G01*
X143745000Y-110942500D01*
G75*
G02*
X143657500Y-111030000I-87500J0D01*
G01*
X143482500Y-111030000D01*
G75*
G02*
X143395000Y-110942500I0J87500D01*
G01*
G37*
G36*
G01*
X142745000Y-110942500D02*
X142745000Y-110292500D01*
G75*
G02*
X142832500Y-110205000I87500J0D01*
G01*
X143007500Y-110205000D01*
G75*
G02*
X143095000Y-110292500I0J-87500D01*
G01*
X143095000Y-110942500D01*
G75*
G02*
X143007500Y-111030000I-87500J0D01*
G01*
X142832500Y-111030000D01*
G75*
G02*
X142745000Y-110942500I0J87500D01*
G01*
G37*
G36*
G01*
X142095000Y-110942500D02*
X142095000Y-110292500D01*
G75*
G02*
X142182500Y-110205000I87500J0D01*
G01*
X142357500Y-110205000D01*
G75*
G02*
X142445000Y-110292500I0J-87500D01*
G01*
X142445000Y-110942500D01*
G75*
G02*
X142357500Y-111030000I-87500J0D01*
G01*
X142182500Y-111030000D01*
G75*
G02*
X142095000Y-110942500I0J87500D01*
G01*
G37*
G36*
G01*
X141445000Y-110942500D02*
X141445000Y-110292500D01*
G75*
G02*
X141532500Y-110205000I87500J0D01*
G01*
X141707500Y-110205000D01*
G75*
G02*
X141795000Y-110292500I0J-87500D01*
G01*
X141795000Y-110942500D01*
G75*
G02*
X141707500Y-111030000I-87500J0D01*
G01*
X141532500Y-111030000D01*
G75*
G02*
X141445000Y-110942500I0J87500D01*
G01*
G37*
G36*
G01*
X140795000Y-110942500D02*
X140795000Y-110292500D01*
G75*
G02*
X140882500Y-110205000I87500J0D01*
G01*
X141057500Y-110205000D01*
G75*
G02*
X141145000Y-110292500I0J-87500D01*
G01*
X141145000Y-110942500D01*
G75*
G02*
X141057500Y-111030000I-87500J0D01*
G01*
X140882500Y-111030000D01*
G75*
G02*
X140795000Y-110942500I0J87500D01*
G01*
G37*
G36*
G01*
X140145000Y-110942500D02*
X140145000Y-110292500D01*
G75*
G02*
X140232500Y-110205000I87500J0D01*
G01*
X140407500Y-110205000D01*
G75*
G02*
X140495000Y-110292500I0J-87500D01*
G01*
X140495000Y-110942500D01*
G75*
G02*
X140407500Y-111030000I-87500J0D01*
G01*
X140232500Y-111030000D01*
G75*
G02*
X140145000Y-110942500I0J87500D01*
G01*
G37*
G36*
G01*
X139495000Y-110942500D02*
X139495000Y-110292500D01*
G75*
G02*
X139582500Y-110205000I87500J0D01*
G01*
X139757500Y-110205000D01*
G75*
G02*
X139845000Y-110292500I0J-87500D01*
G01*
X139845000Y-110942500D01*
G75*
G02*
X139757500Y-111030000I-87500J0D01*
G01*
X139582500Y-111030000D01*
G75*
G02*
X139495000Y-110942500I0J87500D01*
G01*
G37*
G36*
G01*
X138845000Y-110942500D02*
X138845000Y-110292500D01*
G75*
G02*
X138932500Y-110205000I87500J0D01*
G01*
X139107500Y-110205000D01*
G75*
G02*
X139195000Y-110292500I0J-87500D01*
G01*
X139195000Y-110942500D01*
G75*
G02*
X139107500Y-111030000I-87500J0D01*
G01*
X138932500Y-111030000D01*
G75*
G02*
X138845000Y-110942500I0J87500D01*
G01*
G37*
G36*
G01*
X138195000Y-110942500D02*
X138195000Y-110292500D01*
G75*
G02*
X138282500Y-110205000I87500J0D01*
G01*
X138457500Y-110205000D01*
G75*
G02*
X138545000Y-110292500I0J-87500D01*
G01*
X138545000Y-110942500D01*
G75*
G02*
X138457500Y-111030000I-87500J0D01*
G01*
X138282500Y-111030000D01*
G75*
G02*
X138195000Y-110942500I0J87500D01*
G01*
G37*
G36*
G01*
X137545000Y-110942500D02*
X137545000Y-110292500D01*
G75*
G02*
X137632500Y-110205000I87500J0D01*
G01*
X137807500Y-110205000D01*
G75*
G02*
X137895000Y-110292500I0J-87500D01*
G01*
X137895000Y-110942500D01*
G75*
G02*
X137807500Y-111030000I-87500J0D01*
G01*
X137632500Y-111030000D01*
G75*
G02*
X137545000Y-110942500I0J87500D01*
G01*
G37*
G36*
G01*
X136620000Y-110017500D02*
X136620000Y-109842500D01*
G75*
G02*
X136707500Y-109755000I87500J0D01*
G01*
X137357500Y-109755000D01*
G75*
G02*
X137445000Y-109842500I0J-87500D01*
G01*
X137445000Y-110017500D01*
G75*
G02*
X137357500Y-110105000I-87500J0D01*
G01*
X136707500Y-110105000D01*
G75*
G02*
X136620000Y-110017500I0J87500D01*
G01*
G37*
G36*
G01*
X136620000Y-109367500D02*
X136620000Y-109192500D01*
G75*
G02*
X136707500Y-109105000I87500J0D01*
G01*
X137357500Y-109105000D01*
G75*
G02*
X137445000Y-109192500I0J-87500D01*
G01*
X137445000Y-109367500D01*
G75*
G02*
X137357500Y-109455000I-87500J0D01*
G01*
X136707500Y-109455000D01*
G75*
G02*
X136620000Y-109367500I0J87500D01*
G01*
G37*
G36*
G01*
X136620000Y-108717500D02*
X136620000Y-108542500D01*
G75*
G02*
X136707500Y-108455000I87500J0D01*
G01*
X137357500Y-108455000D01*
G75*
G02*
X137445000Y-108542500I0J-87500D01*
G01*
X137445000Y-108717500D01*
G75*
G02*
X137357500Y-108805000I-87500J0D01*
G01*
X136707500Y-108805000D01*
G75*
G02*
X136620000Y-108717500I0J87500D01*
G01*
G37*
G36*
G01*
X136620000Y-108067500D02*
X136620000Y-107892500D01*
G75*
G02*
X136707500Y-107805000I87500J0D01*
G01*
X137357500Y-107805000D01*
G75*
G02*
X137445000Y-107892500I0J-87500D01*
G01*
X137445000Y-108067500D01*
G75*
G02*
X137357500Y-108155000I-87500J0D01*
G01*
X136707500Y-108155000D01*
G75*
G02*
X136620000Y-108067500I0J87500D01*
G01*
G37*
G36*
G01*
X136620000Y-107417500D02*
X136620000Y-107242500D01*
G75*
G02*
X136707500Y-107155000I87500J0D01*
G01*
X137357500Y-107155000D01*
G75*
G02*
X137445000Y-107242500I0J-87500D01*
G01*
X137445000Y-107417500D01*
G75*
G02*
X137357500Y-107505000I-87500J0D01*
G01*
X136707500Y-107505000D01*
G75*
G02*
X136620000Y-107417500I0J87500D01*
G01*
G37*
G36*
G01*
X136620000Y-106767500D02*
X136620000Y-106592500D01*
G75*
G02*
X136707500Y-106505000I87500J0D01*
G01*
X137357500Y-106505000D01*
G75*
G02*
X137445000Y-106592500I0J-87500D01*
G01*
X137445000Y-106767500D01*
G75*
G02*
X137357500Y-106855000I-87500J0D01*
G01*
X136707500Y-106855000D01*
G75*
G02*
X136620000Y-106767500I0J87500D01*
G01*
G37*
G36*
G01*
X136620000Y-106117500D02*
X136620000Y-105942500D01*
G75*
G02*
X136707500Y-105855000I87500J0D01*
G01*
X137357500Y-105855000D01*
G75*
G02*
X137445000Y-105942500I0J-87500D01*
G01*
X137445000Y-106117500D01*
G75*
G02*
X137357500Y-106205000I-87500J0D01*
G01*
X136707500Y-106205000D01*
G75*
G02*
X136620000Y-106117500I0J87500D01*
G01*
G37*
G36*
G01*
X136620000Y-105467500D02*
X136620000Y-105292500D01*
G75*
G02*
X136707500Y-105205000I87500J0D01*
G01*
X137357500Y-105205000D01*
G75*
G02*
X137445000Y-105292500I0J-87500D01*
G01*
X137445000Y-105467500D01*
G75*
G02*
X137357500Y-105555000I-87500J0D01*
G01*
X136707500Y-105555000D01*
G75*
G02*
X136620000Y-105467500I0J87500D01*
G01*
G37*
G36*
G01*
X136620000Y-104817500D02*
X136620000Y-104642500D01*
G75*
G02*
X136707500Y-104555000I87500J0D01*
G01*
X137357500Y-104555000D01*
G75*
G02*
X137445000Y-104642500I0J-87500D01*
G01*
X137445000Y-104817500D01*
G75*
G02*
X137357500Y-104905000I-87500J0D01*
G01*
X136707500Y-104905000D01*
G75*
G02*
X136620000Y-104817500I0J87500D01*
G01*
G37*
G36*
G01*
X136620000Y-104167500D02*
X136620000Y-103992500D01*
G75*
G02*
X136707500Y-103905000I87500J0D01*
G01*
X137357500Y-103905000D01*
G75*
G02*
X137445000Y-103992500I0J-87500D01*
G01*
X137445000Y-104167500D01*
G75*
G02*
X137357500Y-104255000I-87500J0D01*
G01*
X136707500Y-104255000D01*
G75*
G02*
X136620000Y-104167500I0J87500D01*
G01*
G37*
G36*
G01*
X136620000Y-103517500D02*
X136620000Y-103342500D01*
G75*
G02*
X136707500Y-103255000I87500J0D01*
G01*
X137357500Y-103255000D01*
G75*
G02*
X137445000Y-103342500I0J-87500D01*
G01*
X137445000Y-103517500D01*
G75*
G02*
X137357500Y-103605000I-87500J0D01*
G01*
X136707500Y-103605000D01*
G75*
G02*
X136620000Y-103517500I0J87500D01*
G01*
G37*
%TD*%
D17*
%TO.C,J_CN_2*%
X121880000Y-163068000D03*
D18*
X116880000Y-163068000D03*
%TD*%
D17*
%TO.C,J_CN_1*%
X121920000Y-159004000D03*
D18*
X116920000Y-159004000D03*
%TD*%
D17*
%TO.C,J_PS_1*%
X160020000Y-164385000D03*
D18*
X160020000Y-159385000D03*
%TD*%
%TO.C,LED_STN_1*%
G36*
G01*
X116190050Y-110649500D02*
X116702550Y-110649500D01*
G75*
G02*
X116921300Y-110868250I0J-218750D01*
G01*
X116921300Y-111305750D01*
G75*
G02*
X116702550Y-111524500I-218750J0D01*
G01*
X116190050Y-111524500D01*
G75*
G02*
X115971300Y-111305750I0J218750D01*
G01*
X115971300Y-110868250D01*
G75*
G02*
X116190050Y-110649500I218750J0D01*
G01*
G37*
G36*
G01*
X116190050Y-109074500D02*
X116702550Y-109074500D01*
G75*
G02*
X116921300Y-109293250I0J-218750D01*
G01*
X116921300Y-109730750D01*
G75*
G02*
X116702550Y-109949500I-218750J0D01*
G01*
X116190050Y-109949500D01*
G75*
G02*
X115971300Y-109730750I0J218750D01*
G01*
X115971300Y-109293250D01*
G75*
G02*
X116190050Y-109074500I218750J0D01*
G01*
G37*
%TD*%
%TO.C,CP_STN_1*%
G36*
G01*
X130260000Y-94436000D02*
X131360000Y-94436000D01*
G75*
G02*
X131610000Y-94686000I0J-250000D01*
G01*
X131610000Y-96786000D01*
G75*
G02*
X131360000Y-97036000I-250000J0D01*
G01*
X130260000Y-97036000D01*
G75*
G02*
X130010000Y-96786000I0J250000D01*
G01*
X130010000Y-94686000D01*
G75*
G02*
X130260000Y-94436000I250000J0D01*
G01*
G37*
G36*
G01*
X130260000Y-98036000D02*
X131360000Y-98036000D01*
G75*
G02*
X131610000Y-98286000I0J-250000D01*
G01*
X131610000Y-100386000D01*
G75*
G02*
X131360000Y-100636000I-250000J0D01*
G01*
X130260000Y-100636000D01*
G75*
G02*
X130010000Y-100386000I0J250000D01*
G01*
X130010000Y-98286000D01*
G75*
G02*
X130260000Y-98036000I250000J0D01*
G01*
G37*
%TD*%
D19*
%TO.C,C_VR2_3*%
X137160000Y-138010000D03*
X137160000Y-136310000D03*
%TD*%
%TO.C,C_VR2_2*%
X128270000Y-143090000D03*
X128270000Y-141390000D03*
%TD*%
D20*
%TO.C,D_J1850_2*%
X156210000Y-129540000D03*
D21*
X156210000Y-121920000D03*
%TD*%
D22*
%TO.C,C_VS_1*%
X129970000Y-121920000D03*
X128270000Y-121920000D03*
%TD*%
%TO.C,LED_STN_2*%
G36*
G01*
X119238050Y-109074500D02*
X119750550Y-109074500D01*
G75*
G02*
X119969300Y-109293250I0J-218750D01*
G01*
X119969300Y-109730750D01*
G75*
G02*
X119750550Y-109949500I-218750J0D01*
G01*
X119238050Y-109949500D01*
G75*
G02*
X119019300Y-109730750I0J218750D01*
G01*
X119019300Y-109293250D01*
G75*
G02*
X119238050Y-109074500I218750J0D01*
G01*
G37*
G36*
G01*
X119238050Y-110649500D02*
X119750550Y-110649500D01*
G75*
G02*
X119969300Y-110868250I0J-218750D01*
G01*
X119969300Y-111305750D01*
G75*
G02*
X119750550Y-111524500I-218750J0D01*
G01*
X119238050Y-111524500D01*
G75*
G02*
X119019300Y-111305750I0J218750D01*
G01*
X119019300Y-110868250D01*
G75*
G02*
X119238050Y-110649500I218750J0D01*
G01*
G37*
%TD*%
D20*
%TO.C,D_VS_1*%
X121285000Y-118745000D03*
D21*
X128905000Y-118745000D03*
%TD*%
D20*
%TO.C,D_J1850_3*%
X160020000Y-121920000D03*
D21*
X160020000Y-129540000D03*
%TD*%
D23*
%TO.C,C_MM_1*%
X131495800Y-60960000D03*
X133995800Y-60960000D03*
%TD*%
D21*
%TO.C,D_J1850_1*%
X163842700Y-64897000D03*
D20*
X163842700Y-72517000D03*
%TD*%
D21*
%TO.C,D_VS_2*%
X121285000Y-114935000D03*
D20*
X128905000Y-114935000D03*
%TD*%
D24*
%TO.C,L_VR1*%
X157480000Y-141243050D03*
X157480000Y-143236950D03*
%TD*%
%TO.C,L_VR2*%
X125730000Y-141966950D03*
X125730000Y-139973050D03*
%TD*%
D25*
%TO.C,Q_HSCAN_1*%
X125490000Y-134935000D03*
X125490000Y-133035000D03*
X123190000Y-133985000D03*
%TD*%
%TO.C,LED_STN_3*%
G36*
G01*
X122286050Y-109100500D02*
X122798550Y-109100500D01*
G75*
G02*
X123017300Y-109319250I0J-218750D01*
G01*
X123017300Y-109756750D01*
G75*
G02*
X122798550Y-109975500I-218750J0D01*
G01*
X122286050Y-109975500D01*
G75*
G02*
X122067300Y-109756750I0J218750D01*
G01*
X122067300Y-109319250D01*
G75*
G02*
X122286050Y-109100500I218750J0D01*
G01*
G37*
G36*
G01*
X122286050Y-110675500D02*
X122798550Y-110675500D01*
G75*
G02*
X123017300Y-110894250I0J-218750D01*
G01*
X123017300Y-111331750D01*
G75*
G02*
X122798550Y-111550500I-218750J0D01*
G01*
X122286050Y-111550500D01*
G75*
G02*
X122067300Y-111331750I0J218750D01*
G01*
X122067300Y-110894250D01*
G75*
G02*
X122286050Y-110675500I218750J0D01*
G01*
G37*
%TD*%
%TO.C,Q_MSCAN_1*%
X125490000Y-131005000D03*
X125490000Y-129105000D03*
X123190000Y-130055000D03*
%TD*%
D26*
%TO.C,R_COMP_1*%
X151950000Y-105410000D03*
X150310000Y-105410000D03*
%TD*%
D27*
%TO.C,Q_PSW_1*%
X141920000Y-115690000D03*
X140020000Y-115690000D03*
X140970000Y-117990000D03*
%TD*%
D26*
%TO.C,R_COMP_10*%
X158565000Y-93980000D03*
X160205000Y-93980000D03*
%TD*%
%TO.C,R_COMP_7*%
X160840000Y-116840000D03*
X159200000Y-116840000D03*
%TD*%
D15*
%TO.C,R_MSCAN_3*%
X121920000Y-150210000D03*
X121920000Y-147320000D03*
%TD*%
D26*
%TO.C,R_STN_5*%
X118110000Y-116205000D03*
X116470000Y-116205000D03*
%TD*%
%TO.C,R_COMP_5*%
X148140000Y-100330000D03*
X146500000Y-100330000D03*
%TD*%
D12*
%TO.C,R_PSW_2*%
X137160000Y-125730000D03*
X137160000Y-127370000D03*
%TD*%
%TO.C,R_STN_6*%
X127635000Y-110675000D03*
X127635000Y-109035000D03*
%TD*%
D26*
%TO.C,R_HSCAN_1*%
X117660000Y-119380000D03*
X116020000Y-119380000D03*
%TD*%
D12*
%TO.C,R_COMP_6*%
X160528000Y-99568000D03*
X160528000Y-97928000D03*
%TD*%
D15*
%TO.C,R_MSCAN_2*%
X115570000Y-152400000D03*
X115570000Y-155290000D03*
%TD*%
D26*
%TO.C,R_COMP_8*%
X156025000Y-116840000D03*
X157665000Y-116840000D03*
%TD*%
D12*
%TO.C,R_J1850_1*%
X152908000Y-129170000D03*
X152908000Y-130810000D03*
%TD*%
D28*
%TO.C,U_COMP_1*%
X155575000Y-110490000D03*
D29*
X155575000Y-107950000D03*
X155575000Y-105410000D03*
X155575000Y-102870000D03*
X155575000Y-100330000D03*
X155575000Y-97790000D03*
X155575000Y-95250000D03*
X163195000Y-95250000D03*
X163195000Y-97790000D03*
X163195000Y-100330000D03*
X163195000Y-102870000D03*
X163195000Y-105410000D03*
X163195000Y-107950000D03*
X163195000Y-110490000D03*
%TD*%
D22*
%TO.C,C_HST_1*%
X162216200Y-91694000D03*
X160516200Y-91694000D03*
%TD*%
D30*
%TO.C,SW_STN_1*%
X123275001Y-103199999D03*
X123275001Y-100000001D03*
X118024999Y-100000001D03*
X118024999Y-103199999D03*
%TD*%
D31*
%TO.C,Y_STN_1*%
X142940000Y-97420000D03*
X142940000Y-95620000D03*
X141540000Y-95620000D03*
X141540000Y-97420000D03*
%TD*%
D32*
%TO.C,R_VS_1*%
X137335000Y-121920000D03*
X134445000Y-121920000D03*
%TD*%
D33*
%TO.C,U_VR1*%
X150980000Y-139720000D03*
X150980000Y-140219999D03*
X150980000Y-140720000D03*
X150980000Y-141220000D03*
X150980000Y-141720001D03*
X150980000Y-142220000D03*
X153820000Y-142220000D03*
X153820000Y-141720001D03*
X153820000Y-141220000D03*
X153820000Y-140720000D03*
X153820000Y-140219999D03*
X153820000Y-139720000D03*
D34*
X152400000Y-140970000D03*
%TD*%
%TO.C,U_VR2*%
X134620000Y-142240000D03*
D33*
X136040000Y-140990000D03*
X136040000Y-141489999D03*
X136040000Y-141990000D03*
X136040000Y-142490000D03*
X136040000Y-142990001D03*
X136040000Y-143490000D03*
X133200000Y-143490000D03*
X133200000Y-142990001D03*
X133200000Y-142490000D03*
X133200000Y-141990000D03*
X133200000Y-141489999D03*
X133200000Y-140990000D03*
%TD*%
D26*
%TO.C,R_VR2_1*%
X141986000Y-142748000D03*
X143626000Y-142748000D03*
%TD*%
D27*
%TO.C,Q_PSW_4*%
X133350000Y-130690000D03*
X132400000Y-128390000D03*
X134300000Y-128390000D03*
%TD*%
%TO.C,Q_PSW_3*%
X158430000Y-133470000D03*
X156530000Y-133470000D03*
X157480000Y-135770000D03*
%TD*%
%TO.C,Q_PSW_2*%
X140970000Y-124460000D03*
X141920000Y-126760000D03*
X140020000Y-126760000D03*
%TD*%
D35*
%TO.C,U_MSCAN_1*%
X117814999Y-145950800D03*
X117165001Y-145950800D03*
X116514999Y-145950800D03*
X115865001Y-145950800D03*
X115865001Y-148689200D03*
X116514999Y-148689200D03*
X117165001Y-148689200D03*
X117814999Y-148689200D03*
D36*
X116840000Y-147320000D03*
%TD*%
D19*
%TO.C,C_STN_1*%
X141390000Y-101180000D03*
X141390000Y-99480000D03*
%TD*%
M02*
