M48
; DRILL file {KiCad (5.1.7)-1} date 10/29/20 00:47:02
; FORMAT={-:-/ absolute / metric / decimal}
; #@! TF.CreationDate,2020-10-29T00:47:02-07:00
; #@! TF.GenerationSoftware,Kicad,Pcbnew,(5.1.7)-1
; #@! TF.FileFunction,Plated,1,4,PTH
FMAT,2
METRIC
T1C0.200
T2C0.320
T3C0.610
T4C0.787
T5C0.800
T6C1.000
T7C1.041
T8C1.400
T9C3.302
%
G90
G05
T1
X137.995Y-103.705
X137.995Y-104.895
X137.995Y-106.085
X137.995Y-107.275
X137.995Y-108.465
X137.995Y-109.655
X139.185Y-103.705
X139.185Y-104.895
X139.185Y-106.085
X139.185Y-107.275
X139.185Y-108.465
X139.185Y-109.655
X140.375Y-103.705
X140.375Y-104.895
X140.375Y-106.085
X140.375Y-107.275
X140.375Y-108.465
X140.375Y-109.655
X141.565Y-103.705
X141.565Y-104.895
X141.565Y-106.085
X141.565Y-107.275
X141.565Y-108.465
X141.565Y-109.655
X142.755Y-103.705
X142.755Y-104.895
X142.755Y-106.085
X142.755Y-107.275
X142.755Y-108.465
X142.755Y-109.655
X143.945Y-103.705
X143.945Y-104.895
X143.945Y-106.085
X143.945Y-107.275
X143.945Y-108.465
X143.945Y-109.655
T2
X113.53Y-63.754
X113.53Y-121.412
X113.665Y-123.19
X113.665Y-133.35
X113.869Y-122.52
X114.3Y-147.32
X114.3Y-150.876
X114.492Y-119.823
X114.554Y-76.962
X114.567Y-64.77
X114.808Y-91.694
X115.062Y-62.23
X115.748Y-131.702
X115.748Y-134.592
X115.99Y-138.43
X116.02Y-121.735
X116.078Y-136.398
X116.362Y-76.454
X116.446Y-109.382
X116.446Y-111.087
X116.573Y-72.707
X116.573Y-74.612
X116.7Y-94.856
X116.84Y-120.65
X116.84Y-154.94
X117.475Y-151.765
X118.025Y-103.2
X118.034Y-127.471
X118.11Y-123.19
X118.11Y-137.16
X118.618Y-86.36
X118.669Y-131.702
X119.38Y-147.32
X119.494Y-109.382
X119.888Y-127.254
X119.951Y-69.215
X120.142Y-147.828
X120.18Y-78.105
X121.158Y-123.646
X121.285Y-99.06
X121.391Y-126.471
X121.92Y-150.21
X121.936Y-74.864
X122.174Y-78.74
X122.542Y-109.382
X122.936Y-59.568
X122.936Y-122.174
X122.936Y-124.206
X123.275Y-103.2
X123.825Y-147.955
X123.936Y-73.914
X124.002Y-128.093
X124.46Y-154.94
X124.46Y-156.21
X124.56Y-133.905
X125.145Y-61.214
X125.984Y-48.006
X126.15Y-106.68
X126.238Y-62.992
X126.238Y-93.218
X126.492Y-50.292
X126.565Y-104.14
X126.746Y-61.722
X127.28Y-95.732
X127.435Y-104.14
X127.492Y-61.768
X127.508Y-70.348
X127.526Y-76.937
X127.635Y-109.035
X128.095Y-121.92
X128.27Y-59.083
X129.032Y-112.32
X129.219Y-154.178
X129.286Y-90.17
X129.286Y-107.24
X129.54Y-142.24
X130.413Y-114.157
X130.418Y-107.58
X130.716Y-78.486
X131.318Y-115.316
X131.445Y-117.475
X131.505Y-104.14
X131.533Y-114.262
X131.572Y-121.666
X131.599Y-113.565
X131.636Y-141.16
X132.08Y-135.44
X132.08Y-135.44
X132.588Y-102.108
X133.15Y-74.984
X133.845Y-65.338
X133.858Y-105.664
X134.3Y-128.39
X134.366Y-93.218
X134.49Y-133.35
X134.62Y-98.298
X134.62Y-107.42
X134.874Y-91.694
X135.015Y-77.013
X135.128Y-49.276
X135.636Y-62.738
X135.89Y-87.122
X136.652Y-61.722
X137.16Y-135.89
X137.362Y-93.218
X137.414Y-118.364
X138.43Y-60.96
X138.43Y-140.97
X138.43Y-143.51
X139.27Y-142.035
X140.02Y-115.69
X140.23Y-98.298
X140.716Y-86.36
X140.716Y-133.858
X140.97Y-114.3
X141.54Y-95.62
X141.54Y-97.42
X141.735Y-59.055
X141.92Y-115.69
X141.986Y-142.748
X142.24Y-87.122
X142.34Y-99.314
X142.949Y-93.345
X143.51Y-100.838
X143.626Y-142.748
X144.78Y-122.29
X144.78Y-148.59
X144.78Y-152.4
X145.1Y-153.79
X146.05Y-95.811
X146.05Y-97.229
X146.05Y-111.125
X146.05Y-112.395
X146.05Y-113.095
X146.05Y-140.97
X146.05Y-142.24
X146.17Y-129.54
X146.235Y-57.785
X146.731Y-106.791
X147.955Y-103.505
X148.59Y-104.14
X148.59Y-140.97
X148.985Y-98.693
X149.29Y-104.14
X149.421Y-104.93
X149.606Y-114.554
X149.75Y-105.548
X149.86Y-119.38
X150.301Y-143.495
X150.495Y-118.11
X150.622Y-93.218
X151.13Y-109.24
X151.13Y-128.27
X152.4Y-144.78
X152.572Y-108.63
X152.742Y-105.356
X153.162Y-127.0
X153.67Y-106.045
X153.67Y-107.745
X153.685Y-133.843
X154.94Y-131.826
X154.94Y-142.24
X154.94Y-152.4
X155.618Y-66.04
X156.025Y-116.84
X156.21Y-139.7
X156.66Y-91.821
X156.718Y-108.204
X156.718Y-137.668
X157.48Y-151.13
X157.48Y-152.4
X157.665Y-115.501
X158.496Y-113.538
X158.565Y-93.98
X159.004Y-86.106
X159.2Y-119.38
X160.528Y-59.69
X160.528Y-97.928
X160.782Y-137.668
X161.29Y-93.98
X161.29Y-139.7
X162.56Y-117.856
T3
X131.496Y-60.96
X133.996Y-60.96
T4
X155.575Y-95.25
X155.575Y-97.79
X155.575Y-100.33
X155.575Y-102.87
X155.575Y-105.41
X155.575Y-107.95
X155.575Y-110.49
X163.195Y-95.25
X163.195Y-97.79
X163.195Y-100.33
X163.195Y-102.87
X163.195Y-105.41
X163.195Y-107.95
X163.195Y-110.49
T5
X121.285Y-114.935
X128.905Y-114.935
X156.21Y-121.92
X156.21Y-129.54
X163.843Y-64.897
X163.843Y-72.517
X121.285Y-118.745
X128.905Y-118.745
X160.02Y-121.92
X160.02Y-129.54
T6
X115.062Y-84.074
X117.602Y-84.074
X120.142Y-84.074
X122.682Y-84.074
X125.222Y-84.074
X127.762Y-84.074
X130.302Y-84.074
X132.842Y-84.074
X135.382Y-84.074
X137.922Y-84.074
X140.462Y-84.074
X143.002Y-84.074
X145.542Y-84.074
X148.082Y-84.074
X150.622Y-84.074
X153.162Y-84.074
X155.702Y-84.074
X158.242Y-84.074
X160.782Y-84.074
X163.322Y-84.074
X115.062Y-56.134
X115.062Y-80.264
X117.602Y-56.134
X117.602Y-80.264
X120.142Y-56.134
X120.142Y-80.264
X122.682Y-56.134
X122.682Y-80.264
X125.222Y-56.134
X125.222Y-80.264
X127.762Y-56.134
X127.762Y-80.264
X130.302Y-56.134
X130.302Y-80.264
X132.842Y-56.134
X132.842Y-80.264
X135.382Y-56.134
X135.382Y-80.264
X137.922Y-56.134
X137.922Y-80.264
X140.462Y-56.134
X140.462Y-80.264
X143.002Y-56.134
X143.002Y-80.264
X145.542Y-56.134
X145.542Y-80.264
X148.082Y-56.134
X148.082Y-80.264
X150.622Y-56.134
X150.622Y-80.264
X153.162Y-56.134
X153.162Y-80.264
X155.702Y-56.134
X155.702Y-80.264
X158.242Y-56.134
X158.242Y-80.264
X160.782Y-56.134
X160.782Y-80.264
X163.322Y-56.134
X163.322Y-80.264
X115.062Y-52.324
X117.602Y-52.324
X120.142Y-52.324
X122.682Y-52.324
X125.222Y-52.324
X127.762Y-52.324
X130.302Y-52.324
X132.842Y-52.324
X135.382Y-52.324
X137.922Y-52.324
X140.462Y-52.324
X143.002Y-52.324
X145.542Y-52.324
X148.082Y-52.324
X150.622Y-52.324
X153.162Y-52.324
X155.702Y-52.324
X158.242Y-52.324
X160.782Y-52.324
X163.322Y-52.324
X115.062Y-89.103
X117.602Y-89.103
X120.142Y-89.103
X122.682Y-89.103
X125.222Y-89.103
X127.762Y-89.103
X130.302Y-89.103
X132.842Y-89.103
X135.382Y-89.103
X137.922Y-89.103
X140.462Y-89.103
X143.002Y-89.103
X145.542Y-89.103
X148.082Y-89.103
X150.622Y-89.103
X153.162Y-89.103
X155.702Y-89.103
X158.242Y-89.103
X160.782Y-89.103
X163.322Y-89.103
X114.808Y-46.228
X117.348Y-46.228
X119.888Y-46.228
X122.428Y-46.228
X124.968Y-46.228
X127.508Y-46.228
X130.048Y-46.228
X132.588Y-46.228
X135.128Y-46.228
X137.668Y-46.228
X140.208Y-46.228
X142.748Y-46.228
X145.288Y-46.228
X147.828Y-46.228
X150.368Y-46.228
X152.908Y-46.228
X155.448Y-46.228
X157.988Y-46.228
X160.528Y-46.228
X163.068Y-46.228
T7
X136.12Y-160.02
X136.12Y-165.1
X137.265Y-162.56
X138.41Y-160.02
X138.41Y-165.1
X139.555Y-162.56
X140.7Y-160.02
X140.7Y-165.1
X141.845Y-162.56
X142.99Y-160.02
X142.99Y-165.1
X144.135Y-162.56
X145.28Y-160.02
X145.28Y-165.1
X146.425Y-162.56
T8
X116.92Y-159.004
X121.92Y-159.004
X116.88Y-163.068
X121.88Y-163.068
X160.02Y-159.385
X160.02Y-164.385
T9
X128.475Y-162.56
X153.465Y-162.56
T0
M30
