%TF.GenerationSoftware,KiCad,Pcbnew,(5.1.7)-1*%
%TF.CreationDate,2020-11-30T00:01:55-08:00*%
%TF.ProjectId,Reader,52656164-6572-42e6-9b69-6361645f7063,0.0.05*%
%TF.SameCoordinates,Original*%
%TF.FileFunction,Legend,Bot*%
%TF.FilePolarity,Positive*%
%FSLAX46Y46*%
G04 Gerber Fmt 4.6, Leading zero omitted, Abs format (unit mm)*
G04 Created by KiCad (PCBNEW (5.1.7)-1) date 2020-11-30 00:01:55*
%MOMM*%
%LPD*%
G01*
G04 APERTURE LIST*
%ADD10C,0.150000*%
%ADD11C,0.127000*%
%ADD12C,0.152400*%
%ADD13C,0.050000*%
%ADD14C,0.200000*%
%ADD15C,0.080000*%
%ADD16C,0.060000*%
G04 APERTURE END LIST*
D10*
X111901333Y-138628380D02*
X111901333Y-137628380D01*
X111520380Y-137628380D01*
X111425142Y-137676000D01*
X111377523Y-137723619D01*
X111329904Y-137818857D01*
X111329904Y-137961714D01*
X111377523Y-138056952D01*
X111425142Y-138104571D01*
X111520380Y-138152190D01*
X111901333Y-138152190D01*
X110472761Y-137961714D02*
X110472761Y-138628380D01*
X110901333Y-137961714D02*
X110901333Y-138485523D01*
X110853714Y-138580761D01*
X110758476Y-138628380D01*
X110615619Y-138628380D01*
X110520380Y-138580761D01*
X110472761Y-138533142D01*
X109996571Y-138628380D02*
X109996571Y-137628380D01*
X109996571Y-138009333D02*
X109901333Y-137961714D01*
X109710857Y-137961714D01*
X109615619Y-138009333D01*
X109568000Y-138056952D01*
X109520380Y-138152190D01*
X109520380Y-138437904D01*
X109568000Y-138533142D01*
X109615619Y-138580761D01*
X109710857Y-138628380D01*
X109901333Y-138628380D01*
X109996571Y-138580761D01*
X108948952Y-138628380D02*
X109044190Y-138580761D01*
X109091809Y-138485523D01*
X109091809Y-137628380D01*
X108568000Y-138628380D02*
X108568000Y-137961714D01*
X108568000Y-137628380D02*
X108615619Y-137676000D01*
X108568000Y-137723619D01*
X108520380Y-137676000D01*
X108568000Y-137628380D01*
X108568000Y-137723619D01*
X108139428Y-138580761D02*
X108044190Y-138628380D01*
X107853714Y-138628380D01*
X107758476Y-138580761D01*
X107710857Y-138485523D01*
X107710857Y-138437904D01*
X107758476Y-138342666D01*
X107853714Y-138295047D01*
X107996571Y-138295047D01*
X108091809Y-138247428D01*
X108139428Y-138152190D01*
X108139428Y-138104571D01*
X108091809Y-138009333D01*
X107996571Y-137961714D01*
X107853714Y-137961714D01*
X107758476Y-138009333D01*
X107282285Y-138628380D02*
X107282285Y-137628380D01*
X106853714Y-138628380D02*
X106853714Y-138104571D01*
X106901333Y-138009333D01*
X106996571Y-137961714D01*
X107139428Y-137961714D01*
X107234666Y-138009333D01*
X107282285Y-138056952D01*
X105996571Y-138580761D02*
X106091809Y-138628380D01*
X106282285Y-138628380D01*
X106377523Y-138580761D01*
X106425142Y-138485523D01*
X106425142Y-138104571D01*
X106377523Y-138009333D01*
X106282285Y-137961714D01*
X106091809Y-137961714D01*
X105996571Y-138009333D01*
X105948952Y-138104571D01*
X105948952Y-138199809D01*
X106425142Y-138295047D01*
X105091809Y-138628380D02*
X105091809Y-137628380D01*
X105091809Y-138580761D02*
X105187047Y-138628380D01*
X105377523Y-138628380D01*
X105472761Y-138580761D01*
X105520380Y-138533142D01*
X105568000Y-138437904D01*
X105568000Y-138152190D01*
X105520380Y-138056952D01*
X105472761Y-138009333D01*
X105377523Y-137961714D01*
X105187047Y-137961714D01*
X105091809Y-138009333D01*
X103710857Y-138628380D02*
X103806095Y-138580761D01*
X103853714Y-138533142D01*
X103901333Y-138437904D01*
X103901333Y-138152190D01*
X103853714Y-138056952D01*
X103806095Y-138009333D01*
X103710857Y-137961714D01*
X103568000Y-137961714D01*
X103472761Y-138009333D01*
X103425142Y-138056952D01*
X103377523Y-138152190D01*
X103377523Y-138437904D01*
X103425142Y-138533142D01*
X103472761Y-138580761D01*
X103568000Y-138628380D01*
X103710857Y-138628380D01*
X102948952Y-137961714D02*
X102948952Y-138628380D01*
X102948952Y-138056952D02*
X102901333Y-138009333D01*
X102806095Y-137961714D01*
X102663238Y-137961714D01*
X102568000Y-138009333D01*
X102520380Y-138104571D01*
X102520380Y-138628380D01*
X101329904Y-137723619D02*
X101282285Y-137676000D01*
X101187047Y-137628380D01*
X100948952Y-137628380D01*
X100853714Y-137676000D01*
X100806095Y-137723619D01*
X100758476Y-137818857D01*
X100758476Y-137914095D01*
X100806095Y-138056952D01*
X101377523Y-138628380D01*
X100758476Y-138628380D01*
X100282285Y-138628380D02*
X100091809Y-138628380D01*
X99996571Y-138580761D01*
X99948952Y-138533142D01*
X99853714Y-138390285D01*
X99806095Y-138199809D01*
X99806095Y-137818857D01*
X99853714Y-137723619D01*
X99901333Y-137676000D01*
X99996571Y-137628380D01*
X100187047Y-137628380D01*
X100282285Y-137676000D01*
X100329904Y-137723619D01*
X100377523Y-137818857D01*
X100377523Y-138056952D01*
X100329904Y-138152190D01*
X100282285Y-138199809D01*
X100187047Y-138247428D01*
X99996571Y-138247428D01*
X99901333Y-138199809D01*
X99853714Y-138152190D01*
X99806095Y-138056952D01*
X98615619Y-138628380D02*
X98615619Y-137628380D01*
X98044190Y-138628380D01*
X98044190Y-137628380D01*
X97425142Y-138628380D02*
X97520380Y-138580761D01*
X97568000Y-138533142D01*
X97615619Y-138437904D01*
X97615619Y-138152190D01*
X97568000Y-138056952D01*
X97520380Y-138009333D01*
X97425142Y-137961714D01*
X97282285Y-137961714D01*
X97187047Y-138009333D01*
X97139428Y-138056952D01*
X97091809Y-138152190D01*
X97091809Y-138437904D01*
X97139428Y-138533142D01*
X97187047Y-138580761D01*
X97282285Y-138628380D01*
X97425142Y-138628380D01*
X96758476Y-137961714D02*
X96520380Y-138628380D01*
X96282285Y-137961714D01*
X95520380Y-138580761D02*
X95615619Y-138628380D01*
X95806095Y-138628380D01*
X95901333Y-138580761D01*
X95948952Y-138485523D01*
X95948952Y-138104571D01*
X95901333Y-138009333D01*
X95806095Y-137961714D01*
X95615619Y-137961714D01*
X95520380Y-138009333D01*
X95472761Y-138104571D01*
X95472761Y-138199809D01*
X95948952Y-138295047D01*
X95044190Y-138628380D02*
X95044190Y-137961714D01*
X95044190Y-138056952D02*
X94996571Y-138009333D01*
X94901333Y-137961714D01*
X94758476Y-137961714D01*
X94663238Y-138009333D01*
X94615619Y-138104571D01*
X94615619Y-138628380D01*
X94615619Y-138104571D02*
X94568000Y-138009333D01*
X94472761Y-137961714D01*
X94329904Y-137961714D01*
X94234666Y-138009333D01*
X94187047Y-138104571D01*
X94187047Y-138628380D01*
X93710857Y-138628380D02*
X93710857Y-137628380D01*
X93710857Y-138009333D02*
X93615619Y-137961714D01*
X93425142Y-137961714D01*
X93329904Y-138009333D01*
X93282285Y-138056952D01*
X93234666Y-138152190D01*
X93234666Y-138437904D01*
X93282285Y-138533142D01*
X93329904Y-138580761D01*
X93425142Y-138628380D01*
X93615619Y-138628380D01*
X93710857Y-138580761D01*
X92425142Y-138580761D02*
X92520380Y-138628380D01*
X92710857Y-138628380D01*
X92806095Y-138580761D01*
X92853714Y-138485523D01*
X92853714Y-138104571D01*
X92806095Y-138009333D01*
X92710857Y-137961714D01*
X92520380Y-137961714D01*
X92425142Y-138009333D01*
X92377523Y-138104571D01*
X92377523Y-138199809D01*
X92853714Y-138295047D01*
X91948952Y-138628380D02*
X91948952Y-137961714D01*
X91948952Y-138152190D02*
X91901333Y-138056952D01*
X91853714Y-138009333D01*
X91758476Y-137961714D01*
X91663238Y-137961714D01*
X90615619Y-137723619D02*
X90568000Y-137676000D01*
X90472761Y-137628380D01*
X90234666Y-137628380D01*
X90139428Y-137676000D01*
X90091809Y-137723619D01*
X90044190Y-137818857D01*
X90044190Y-137914095D01*
X90091809Y-138056952D01*
X90663238Y-138628380D01*
X90044190Y-138628380D01*
X89425142Y-137628380D02*
X89329904Y-137628380D01*
X89234666Y-137676000D01*
X89187047Y-137723619D01*
X89139428Y-137818857D01*
X89091809Y-138009333D01*
X89091809Y-138247428D01*
X89139428Y-138437904D01*
X89187047Y-138533142D01*
X89234666Y-138580761D01*
X89329904Y-138628380D01*
X89425142Y-138628380D01*
X89520380Y-138580761D01*
X89568000Y-138533142D01*
X89615619Y-138437904D01*
X89663238Y-138247428D01*
X89663238Y-138009333D01*
X89615619Y-137818857D01*
X89568000Y-137723619D01*
X89520380Y-137676000D01*
X89425142Y-137628380D01*
X88710857Y-137723619D02*
X88663238Y-137676000D01*
X88568000Y-137628380D01*
X88329904Y-137628380D01*
X88234666Y-137676000D01*
X88187047Y-137723619D01*
X88139428Y-137818857D01*
X88139428Y-137914095D01*
X88187047Y-138056952D01*
X88758476Y-138628380D01*
X88139428Y-138628380D01*
X87520380Y-137628380D02*
X87425142Y-137628380D01*
X87329904Y-137676000D01*
X87282285Y-137723619D01*
X87234666Y-137818857D01*
X87187047Y-138009333D01*
X87187047Y-138247428D01*
X87234666Y-138437904D01*
X87282285Y-138533142D01*
X87329904Y-138580761D01*
X87425142Y-138628380D01*
X87520380Y-138628380D01*
X87615619Y-138580761D01*
X87663238Y-138533142D01*
X87710857Y-138437904D01*
X87758476Y-138247428D01*
X87758476Y-138009333D01*
X87710857Y-137818857D01*
X87663238Y-137723619D01*
X87615619Y-137676000D01*
X87520380Y-137628380D01*
X111171047Y-136501142D02*
X111218666Y-136548761D01*
X111361523Y-136596380D01*
X111456761Y-136596380D01*
X111599619Y-136548761D01*
X111694857Y-136453523D01*
X111742476Y-136358285D01*
X111790095Y-136167809D01*
X111790095Y-136024952D01*
X111742476Y-135834476D01*
X111694857Y-135739238D01*
X111599619Y-135644000D01*
X111456761Y-135596380D01*
X111361523Y-135596380D01*
X111218666Y-135644000D01*
X111171047Y-135691619D01*
X110790095Y-136310666D02*
X110313904Y-136310666D01*
X110885333Y-136596380D02*
X110552000Y-135596380D01*
X110218666Y-136596380D01*
X109885333Y-136596380D02*
X109885333Y-135596380D01*
X109313904Y-136596380D01*
X109313904Y-135596380D01*
X108980571Y-135929714D02*
X108599619Y-135929714D01*
X108837714Y-135596380D02*
X108837714Y-136453523D01*
X108790095Y-136548761D01*
X108694857Y-136596380D01*
X108599619Y-136596380D01*
X107885333Y-136548761D02*
X107980571Y-136596380D01*
X108171047Y-136596380D01*
X108266285Y-136548761D01*
X108313904Y-136453523D01*
X108313904Y-136072571D01*
X108266285Y-135977333D01*
X108171047Y-135929714D01*
X107980571Y-135929714D01*
X107885333Y-135977333D01*
X107837714Y-136072571D01*
X107837714Y-136167809D01*
X108313904Y-136263047D01*
X106980571Y-136548761D02*
X107075809Y-136596380D01*
X107266285Y-136596380D01*
X107361523Y-136548761D01*
X107409142Y-136501142D01*
X107456761Y-136405904D01*
X107456761Y-136120190D01*
X107409142Y-136024952D01*
X107361523Y-135977333D01*
X107266285Y-135929714D01*
X107075809Y-135929714D01*
X106980571Y-135977333D01*
X106552000Y-136596380D02*
X106552000Y-135596380D01*
X106123428Y-136596380D02*
X106123428Y-136072571D01*
X106171047Y-135977333D01*
X106266285Y-135929714D01*
X106409142Y-135929714D01*
X106504380Y-135977333D01*
X106552000Y-136024952D01*
X104647238Y-136929714D02*
X104647238Y-135501142D01*
X102599619Y-136501142D02*
X102647238Y-136548761D01*
X102790095Y-136596380D01*
X102885333Y-136596380D01*
X103028190Y-136548761D01*
X103123428Y-136453523D01*
X103171047Y-136358285D01*
X103218666Y-136167809D01*
X103218666Y-136024952D01*
X103171047Y-135834476D01*
X103123428Y-135739238D01*
X103028190Y-135644000D01*
X102885333Y-135596380D01*
X102790095Y-135596380D01*
X102647238Y-135644000D01*
X102599619Y-135691619D01*
X102218666Y-136310666D02*
X101742476Y-136310666D01*
X102313904Y-136596380D02*
X101980571Y-135596380D01*
X101647238Y-136596380D01*
X101313904Y-136596380D02*
X101313904Y-135596380D01*
X100742476Y-136596380D01*
X100742476Y-135596380D01*
X100266285Y-135929714D02*
X100266285Y-136596380D01*
X100266285Y-136024952D02*
X100218666Y-135977333D01*
X100123428Y-135929714D01*
X99980571Y-135929714D01*
X99885333Y-135977333D01*
X99837714Y-136072571D01*
X99837714Y-136596380D01*
X98980571Y-136548761D02*
X99075809Y-136596380D01*
X99266285Y-136596380D01*
X99361523Y-136548761D01*
X99409142Y-136453523D01*
X99409142Y-136072571D01*
X99361523Y-135977333D01*
X99266285Y-135929714D01*
X99075809Y-135929714D01*
X98980571Y-135977333D01*
X98932952Y-136072571D01*
X98932952Y-136167809D01*
X99409142Y-136263047D01*
X98075809Y-136548761D02*
X98171047Y-136596380D01*
X98361523Y-136596380D01*
X98456761Y-136548761D01*
X98504380Y-136501142D01*
X98552000Y-136405904D01*
X98552000Y-136120190D01*
X98504380Y-136024952D01*
X98456761Y-135977333D01*
X98361523Y-135929714D01*
X98171047Y-135929714D01*
X98075809Y-135977333D01*
X97790095Y-135929714D02*
X97409142Y-135929714D01*
X97647238Y-135596380D02*
X97647238Y-136453523D01*
X97599619Y-136548761D01*
X97504380Y-136596380D01*
X97409142Y-136596380D01*
X95742476Y-136596380D02*
X96075809Y-136120190D01*
X96313904Y-136596380D02*
X96313904Y-135596380D01*
X95932952Y-135596380D01*
X95837714Y-135644000D01*
X95790095Y-135691619D01*
X95742476Y-135786857D01*
X95742476Y-135929714D01*
X95790095Y-136024952D01*
X95837714Y-136072571D01*
X95932952Y-136120190D01*
X96313904Y-136120190D01*
X94932952Y-136548761D02*
X95028190Y-136596380D01*
X95218666Y-136596380D01*
X95313904Y-136548761D01*
X95361523Y-136453523D01*
X95361523Y-136072571D01*
X95313904Y-135977333D01*
X95218666Y-135929714D01*
X95028190Y-135929714D01*
X94932952Y-135977333D01*
X94885333Y-136072571D01*
X94885333Y-136167809D01*
X95361523Y-136263047D01*
X94028190Y-136596380D02*
X94028190Y-136072571D01*
X94075809Y-135977333D01*
X94171047Y-135929714D01*
X94361523Y-135929714D01*
X94456761Y-135977333D01*
X94028190Y-136548761D02*
X94123428Y-136596380D01*
X94361523Y-136596380D01*
X94456761Y-136548761D01*
X94504380Y-136453523D01*
X94504380Y-136358285D01*
X94456761Y-136263047D01*
X94361523Y-136215428D01*
X94123428Y-136215428D01*
X94028190Y-136167809D01*
X93123428Y-136596380D02*
X93123428Y-135596380D01*
X93123428Y-136548761D02*
X93218666Y-136596380D01*
X93409142Y-136596380D01*
X93504380Y-136548761D01*
X93552000Y-136501142D01*
X93599619Y-136405904D01*
X93599619Y-136120190D01*
X93552000Y-136024952D01*
X93504380Y-135977333D01*
X93409142Y-135929714D01*
X93218666Y-135929714D01*
X93123428Y-135977333D01*
X92266285Y-136548761D02*
X92361523Y-136596380D01*
X92552000Y-136596380D01*
X92647238Y-136548761D01*
X92694857Y-136453523D01*
X92694857Y-136072571D01*
X92647238Y-135977333D01*
X92552000Y-135929714D01*
X92361523Y-135929714D01*
X92266285Y-135977333D01*
X92218666Y-136072571D01*
X92218666Y-136167809D01*
X92694857Y-136263047D01*
X91790095Y-136596380D02*
X91790095Y-135929714D01*
X91790095Y-136120190D02*
X91742476Y-136024952D01*
X91694857Y-135977333D01*
X91599619Y-135929714D01*
X91504380Y-135929714D01*
X90504380Y-135929714D02*
X90266285Y-136596380D01*
X90028190Y-135929714D01*
X89456761Y-135596380D02*
X89361523Y-135596380D01*
X89266285Y-135644000D01*
X89218666Y-135691619D01*
X89171047Y-135786857D01*
X89123428Y-135977333D01*
X89123428Y-136215428D01*
X89171047Y-136405904D01*
X89218666Y-136501142D01*
X89266285Y-136548761D01*
X89361523Y-136596380D01*
X89456761Y-136596380D01*
X89552000Y-136548761D01*
X89599619Y-136501142D01*
X89647238Y-136405904D01*
X89694857Y-136215428D01*
X89694857Y-135977333D01*
X89647238Y-135786857D01*
X89599619Y-135691619D01*
X89552000Y-135644000D01*
X89456761Y-135596380D01*
X88694857Y-136501142D02*
X88647238Y-136548761D01*
X88694857Y-136596380D01*
X88742476Y-136548761D01*
X88694857Y-136501142D01*
X88694857Y-136596380D01*
X88028190Y-135596380D02*
X87932952Y-135596380D01*
X87837714Y-135644000D01*
X87790095Y-135691619D01*
X87742476Y-135786857D01*
X87694857Y-135977333D01*
X87694857Y-136215428D01*
X87742476Y-136405904D01*
X87790095Y-136501142D01*
X87837714Y-136548761D01*
X87932952Y-136596380D01*
X88028190Y-136596380D01*
X88123428Y-136548761D01*
X88171047Y-136501142D01*
X88218666Y-136405904D01*
X88266285Y-136215428D01*
X88266285Y-135977333D01*
X88218666Y-135786857D01*
X88171047Y-135691619D01*
X88123428Y-135644000D01*
X88028190Y-135596380D01*
X87266285Y-136501142D02*
X87218666Y-136548761D01*
X87266285Y-136596380D01*
X87313904Y-136548761D01*
X87266285Y-136501142D01*
X87266285Y-136596380D01*
X86599619Y-135596380D02*
X86504380Y-135596380D01*
X86409142Y-135644000D01*
X86361523Y-135691619D01*
X86313904Y-135786857D01*
X86266285Y-135977333D01*
X86266285Y-136215428D01*
X86313904Y-136405904D01*
X86361523Y-136501142D01*
X86409142Y-136548761D01*
X86504380Y-136596380D01*
X86599619Y-136596380D01*
X86694857Y-136548761D01*
X86742476Y-136501142D01*
X86790095Y-136405904D01*
X86837714Y-136215428D01*
X86837714Y-135977333D01*
X86790095Y-135786857D01*
X86742476Y-135691619D01*
X86694857Y-135644000D01*
X86599619Y-135596380D01*
X85361523Y-135596380D02*
X85837714Y-135596380D01*
X85885333Y-136072571D01*
X85837714Y-136024952D01*
X85742476Y-135977333D01*
X85504380Y-135977333D01*
X85409142Y-136024952D01*
X85361523Y-136072571D01*
X85313904Y-136167809D01*
X85313904Y-136405904D01*
X85361523Y-136501142D01*
X85409142Y-136548761D01*
X85504380Y-136596380D01*
X85742476Y-136596380D01*
X85837714Y-136548761D01*
X85885333Y-136501142D01*
X111257714Y-134469142D02*
X111305333Y-134516761D01*
X111448190Y-134564380D01*
X111543428Y-134564380D01*
X111686285Y-134516761D01*
X111781523Y-134421523D01*
X111829142Y-134326285D01*
X111876761Y-134135809D01*
X111876761Y-133992952D01*
X111829142Y-133802476D01*
X111781523Y-133707238D01*
X111686285Y-133612000D01*
X111543428Y-133564380D01*
X111448190Y-133564380D01*
X111305333Y-133612000D01*
X111257714Y-133659619D01*
X110829142Y-134564380D02*
X110829142Y-133897714D01*
X110829142Y-134088190D02*
X110781523Y-133992952D01*
X110733904Y-133945333D01*
X110638666Y-133897714D01*
X110543428Y-133897714D01*
X109829142Y-134516761D02*
X109924380Y-134564380D01*
X110114857Y-134564380D01*
X110210095Y-134516761D01*
X110257714Y-134421523D01*
X110257714Y-134040571D01*
X110210095Y-133945333D01*
X110114857Y-133897714D01*
X109924380Y-133897714D01*
X109829142Y-133945333D01*
X109781523Y-134040571D01*
X109781523Y-134135809D01*
X110257714Y-134231047D01*
X108924380Y-134564380D02*
X108924380Y-134040571D01*
X108972000Y-133945333D01*
X109067238Y-133897714D01*
X109257714Y-133897714D01*
X109352952Y-133945333D01*
X108924380Y-134516761D02*
X109019619Y-134564380D01*
X109257714Y-134564380D01*
X109352952Y-134516761D01*
X109400571Y-134421523D01*
X109400571Y-134326285D01*
X109352952Y-134231047D01*
X109257714Y-134183428D01*
X109019619Y-134183428D01*
X108924380Y-134135809D01*
X108591047Y-133897714D02*
X108210095Y-133897714D01*
X108448190Y-133564380D02*
X108448190Y-134421523D01*
X108400571Y-134516761D01*
X108305333Y-134564380D01*
X108210095Y-134564380D01*
X107495809Y-134516761D02*
X107591047Y-134564380D01*
X107781523Y-134564380D01*
X107876761Y-134516761D01*
X107924380Y-134421523D01*
X107924380Y-134040571D01*
X107876761Y-133945333D01*
X107781523Y-133897714D01*
X107591047Y-133897714D01*
X107495809Y-133945333D01*
X107448190Y-134040571D01*
X107448190Y-134135809D01*
X107924380Y-134231047D01*
X106591047Y-134564380D02*
X106591047Y-133564380D01*
X106591047Y-134516761D02*
X106686285Y-134564380D01*
X106876761Y-134564380D01*
X106972000Y-134516761D01*
X107019619Y-134469142D01*
X107067238Y-134373904D01*
X107067238Y-134088190D01*
X107019619Y-133992952D01*
X106972000Y-133945333D01*
X106876761Y-133897714D01*
X106686285Y-133897714D01*
X106591047Y-133945333D01*
X105352952Y-134564380D02*
X105352952Y-133564380D01*
X105352952Y-133945333D02*
X105257714Y-133897714D01*
X105067238Y-133897714D01*
X104972000Y-133945333D01*
X104924380Y-133992952D01*
X104876761Y-134088190D01*
X104876761Y-134373904D01*
X104924380Y-134469142D01*
X104972000Y-134516761D01*
X105067238Y-134564380D01*
X105257714Y-134564380D01*
X105352952Y-134516761D01*
X104543428Y-133897714D02*
X104305333Y-134564380D01*
X104067238Y-133897714D02*
X104305333Y-134564380D01*
X104400571Y-134802476D01*
X104448190Y-134850095D01*
X104543428Y-134897714D01*
X102352952Y-134469142D02*
X102400571Y-134516761D01*
X102543428Y-134564380D01*
X102638666Y-134564380D01*
X102781523Y-134516761D01*
X102876761Y-134421523D01*
X102924380Y-134326285D01*
X102972000Y-134135809D01*
X102972000Y-133992952D01*
X102924380Y-133802476D01*
X102876761Y-133707238D01*
X102781523Y-133612000D01*
X102638666Y-133564380D01*
X102543428Y-133564380D01*
X102400571Y-133612000D01*
X102352952Y-133659619D01*
X101924380Y-134564380D02*
X101924380Y-133564380D01*
X101495809Y-134564380D02*
X101495809Y-134040571D01*
X101543428Y-133945333D01*
X101638666Y-133897714D01*
X101781523Y-133897714D01*
X101876761Y-133945333D01*
X101924380Y-133992952D01*
X100876761Y-134564380D02*
X100972000Y-134516761D01*
X101019619Y-134469142D01*
X101067238Y-134373904D01*
X101067238Y-134088190D01*
X101019619Y-133992952D01*
X100972000Y-133945333D01*
X100876761Y-133897714D01*
X100733904Y-133897714D01*
X100638666Y-133945333D01*
X100591047Y-133992952D01*
X100543428Y-134088190D01*
X100543428Y-134373904D01*
X100591047Y-134469142D01*
X100638666Y-134516761D01*
X100733904Y-134564380D01*
X100876761Y-134564380D01*
X99972000Y-134564380D02*
X100067238Y-134516761D01*
X100114857Y-134469142D01*
X100162476Y-134373904D01*
X100162476Y-134088190D01*
X100114857Y-133992952D01*
X100067238Y-133945333D01*
X99972000Y-133897714D01*
X99829142Y-133897714D01*
X99733904Y-133945333D01*
X99686285Y-133992952D01*
X99638666Y-134088190D01*
X99638666Y-134373904D01*
X99686285Y-134469142D01*
X99733904Y-134516761D01*
X99829142Y-134564380D01*
X99972000Y-134564380D01*
X99210095Y-133897714D02*
X99210095Y-134564380D01*
X99210095Y-133992952D02*
X99162476Y-133945333D01*
X99067238Y-133897714D01*
X98924380Y-133897714D01*
X98829142Y-133945333D01*
X98781523Y-134040571D01*
X98781523Y-134564380D01*
X97876761Y-133897714D02*
X97876761Y-134707238D01*
X97924380Y-134802476D01*
X97972000Y-134850095D01*
X98067238Y-134897714D01*
X98210095Y-134897714D01*
X98305333Y-134850095D01*
X97876761Y-134516761D02*
X97972000Y-134564380D01*
X98162476Y-134564380D01*
X98257714Y-134516761D01*
X98305333Y-134469142D01*
X98352952Y-134373904D01*
X98352952Y-134088190D01*
X98305333Y-133992952D01*
X98257714Y-133945333D01*
X98162476Y-133897714D01*
X97972000Y-133897714D01*
X97876761Y-133945333D01*
X96352952Y-133564380D02*
X96352952Y-134278666D01*
X96400571Y-134421523D01*
X96495809Y-134516761D01*
X96638666Y-134564380D01*
X96733904Y-134564380D01*
X95876761Y-134564380D02*
X95876761Y-133897714D01*
X95876761Y-133564380D02*
X95924380Y-133612000D01*
X95876761Y-133659619D01*
X95829142Y-133612000D01*
X95876761Y-133564380D01*
X95876761Y-133659619D01*
X95400571Y-133897714D02*
X95400571Y-134564380D01*
X95400571Y-133992952D02*
X95352952Y-133945333D01*
X95257714Y-133897714D01*
X95114857Y-133897714D01*
X95019619Y-133945333D01*
X94972000Y-134040571D01*
X94972000Y-134564380D01*
X93733904Y-134564380D02*
X93733904Y-133564380D01*
X93162476Y-134564380D01*
X93162476Y-133564380D01*
X92257714Y-133897714D02*
X92257714Y-134707238D01*
X92305333Y-134802476D01*
X92352952Y-134850095D01*
X92448190Y-134897714D01*
X92591047Y-134897714D01*
X92686285Y-134850095D01*
X92257714Y-134516761D02*
X92352952Y-134564380D01*
X92543428Y-134564380D01*
X92638666Y-134516761D01*
X92686285Y-134469142D01*
X92733904Y-134373904D01*
X92733904Y-134088190D01*
X92686285Y-133992952D01*
X92638666Y-133945333D01*
X92543428Y-133897714D01*
X92352952Y-133897714D01*
X92257714Y-133945333D01*
X90781523Y-134897714D02*
X90781523Y-133469142D01*
X89305333Y-133897714D02*
X89305333Y-134754857D01*
X89352952Y-134850095D01*
X89448190Y-134897714D01*
X89495809Y-134897714D01*
X89305333Y-133564380D02*
X89352952Y-133612000D01*
X89305333Y-133659619D01*
X89257714Y-133612000D01*
X89305333Y-133564380D01*
X89305333Y-133659619D01*
X88829142Y-134564380D02*
X88829142Y-133897714D01*
X88829142Y-133564380D02*
X88876761Y-133612000D01*
X88829142Y-133659619D01*
X88781523Y-133612000D01*
X88829142Y-133564380D01*
X88829142Y-133659619D01*
X88352952Y-133897714D02*
X88352952Y-134564380D01*
X88352952Y-133992952D02*
X88305333Y-133945333D01*
X88210095Y-133897714D01*
X88067238Y-133897714D01*
X87972000Y-133945333D01*
X87924380Y-134040571D01*
X87924380Y-134564380D01*
X87305333Y-133992952D02*
X87400571Y-133945333D01*
X87448190Y-133897714D01*
X87495809Y-133802476D01*
X87495809Y-133754857D01*
X87448190Y-133659619D01*
X87400571Y-133612000D01*
X87305333Y-133564380D01*
X87114857Y-133564380D01*
X87019619Y-133612000D01*
X86972000Y-133659619D01*
X86924380Y-133754857D01*
X86924380Y-133802476D01*
X86972000Y-133897714D01*
X87019619Y-133945333D01*
X87114857Y-133992952D01*
X87305333Y-133992952D01*
X87400571Y-134040571D01*
X87448190Y-134088190D01*
X87495809Y-134183428D01*
X87495809Y-134373904D01*
X87448190Y-134469142D01*
X87400571Y-134516761D01*
X87305333Y-134564380D01*
X87114857Y-134564380D01*
X87019619Y-134516761D01*
X86972000Y-134469142D01*
X86924380Y-134373904D01*
X86924380Y-134183428D01*
X86972000Y-134088190D01*
X87019619Y-134040571D01*
X87114857Y-133992952D01*
X86591047Y-133564380D02*
X85972000Y-133564380D01*
X86305333Y-133945333D01*
X86162476Y-133945333D01*
X86067238Y-133992952D01*
X86019619Y-134040571D01*
X85972000Y-134135809D01*
X85972000Y-134373904D01*
X86019619Y-134469142D01*
X86067238Y-134516761D01*
X86162476Y-134564380D01*
X86448190Y-134564380D01*
X86543428Y-134516761D01*
X86591047Y-134469142D01*
X85400571Y-133992952D02*
X85495809Y-133945333D01*
X85543428Y-133897714D01*
X85591047Y-133802476D01*
X85591047Y-133754857D01*
X85543428Y-133659619D01*
X85495809Y-133612000D01*
X85400571Y-133564380D01*
X85210095Y-133564380D01*
X85114857Y-133612000D01*
X85067238Y-133659619D01*
X85019619Y-133754857D01*
X85019619Y-133802476D01*
X85067238Y-133897714D01*
X85114857Y-133945333D01*
X85210095Y-133992952D01*
X85400571Y-133992952D01*
X85495809Y-134040571D01*
X85543428Y-134088190D01*
X85591047Y-134183428D01*
X85591047Y-134373904D01*
X85543428Y-134469142D01*
X85495809Y-134516761D01*
X85400571Y-134564380D01*
X85210095Y-134564380D01*
X85114857Y-134516761D01*
X85067238Y-134469142D01*
X85019619Y-134373904D01*
X85019619Y-134183428D01*
X85067238Y-134088190D01*
X85114857Y-134040571D01*
X85210095Y-133992952D01*
X84686285Y-133564380D02*
X84067238Y-133564380D01*
X84400571Y-133945333D01*
X84257714Y-133945333D01*
X84162476Y-133992952D01*
X84114857Y-134040571D01*
X84067238Y-134135809D01*
X84067238Y-134373904D01*
X84114857Y-134469142D01*
X84162476Y-134516761D01*
X84257714Y-134564380D01*
X84543428Y-134564380D01*
X84638666Y-134516761D01*
X84686285Y-134469142D01*
X83019619Y-134088190D02*
X83067238Y-134040571D01*
X83162476Y-133992952D01*
X83257714Y-133992952D01*
X83352952Y-134040571D01*
X83400571Y-134088190D01*
X83448190Y-134183428D01*
X83448190Y-134278666D01*
X83400571Y-134373904D01*
X83352952Y-134421523D01*
X83257714Y-134469142D01*
X83162476Y-134469142D01*
X83067238Y-134421523D01*
X83019619Y-134373904D01*
X83019619Y-133992952D02*
X83019619Y-134373904D01*
X82972000Y-134421523D01*
X82924380Y-134421523D01*
X82829142Y-134373904D01*
X82781523Y-134278666D01*
X82781523Y-134040571D01*
X82876761Y-133897714D01*
X83019619Y-133802476D01*
X83210095Y-133754857D01*
X83400571Y-133802476D01*
X83543428Y-133897714D01*
X83638666Y-134040571D01*
X83686285Y-134231047D01*
X83638666Y-134421523D01*
X83543428Y-134564380D01*
X83400571Y-134659619D01*
X83210095Y-134707238D01*
X83019619Y-134659619D01*
X82876761Y-134564380D01*
X81924380Y-133897714D02*
X81924380Y-134707238D01*
X81972000Y-134802476D01*
X82019619Y-134850095D01*
X82114857Y-134897714D01*
X82257714Y-134897714D01*
X82352952Y-134850095D01*
X81924380Y-134516761D02*
X82019619Y-134564380D01*
X82210095Y-134564380D01*
X82305333Y-134516761D01*
X82352952Y-134469142D01*
X82400571Y-134373904D01*
X82400571Y-134088190D01*
X82352952Y-133992952D01*
X82305333Y-133945333D01*
X82210095Y-133897714D01*
X82019619Y-133897714D01*
X81924380Y-133945333D01*
X81448190Y-134564380D02*
X81448190Y-133897714D01*
X81448190Y-133992952D02*
X81400571Y-133945333D01*
X81305333Y-133897714D01*
X81162476Y-133897714D01*
X81067238Y-133945333D01*
X81019619Y-134040571D01*
X81019619Y-134564380D01*
X81019619Y-134040571D02*
X80972000Y-133945333D01*
X80876761Y-133897714D01*
X80733904Y-133897714D01*
X80638666Y-133945333D01*
X80591047Y-134040571D01*
X80591047Y-134564380D01*
X79686285Y-134564380D02*
X79686285Y-134040571D01*
X79733904Y-133945333D01*
X79829142Y-133897714D01*
X80019619Y-133897714D01*
X80114857Y-133945333D01*
X79686285Y-134516761D02*
X79781523Y-134564380D01*
X80019619Y-134564380D01*
X80114857Y-134516761D01*
X80162476Y-134421523D01*
X80162476Y-134326285D01*
X80114857Y-134231047D01*
X80019619Y-134183428D01*
X79781523Y-134183428D01*
X79686285Y-134135809D01*
X79210095Y-134564380D02*
X79210095Y-133897714D01*
X79210095Y-133564380D02*
X79257714Y-133612000D01*
X79210095Y-133659619D01*
X79162476Y-133612000D01*
X79210095Y-133564380D01*
X79210095Y-133659619D01*
X78591047Y-134564380D02*
X78686285Y-134516761D01*
X78733904Y-134421523D01*
X78733904Y-133564380D01*
X78210095Y-134469142D02*
X78162476Y-134516761D01*
X78210095Y-134564380D01*
X78257714Y-134516761D01*
X78210095Y-134469142D01*
X78210095Y-134564380D01*
X77305333Y-134516761D02*
X77400571Y-134564380D01*
X77591047Y-134564380D01*
X77686285Y-134516761D01*
X77733904Y-134469142D01*
X77781523Y-134373904D01*
X77781523Y-134088190D01*
X77733904Y-133992952D01*
X77686285Y-133945333D01*
X77591047Y-133897714D01*
X77400571Y-133897714D01*
X77305333Y-133945333D01*
X76733904Y-134564380D02*
X76829142Y-134516761D01*
X76876761Y-134469142D01*
X76924380Y-134373904D01*
X76924380Y-134088190D01*
X76876761Y-133992952D01*
X76829142Y-133945333D01*
X76733904Y-133897714D01*
X76591047Y-133897714D01*
X76495809Y-133945333D01*
X76448190Y-133992952D01*
X76400571Y-134088190D01*
X76400571Y-134373904D01*
X76448190Y-134469142D01*
X76495809Y-134516761D01*
X76591047Y-134564380D01*
X76733904Y-134564380D01*
X75972000Y-134564380D02*
X75972000Y-133897714D01*
X75972000Y-133992952D02*
X75924380Y-133945333D01*
X75829142Y-133897714D01*
X75686285Y-133897714D01*
X75591047Y-133945333D01*
X75543428Y-134040571D01*
X75543428Y-134564380D01*
X75543428Y-134040571D02*
X75495809Y-133945333D01*
X75400571Y-133897714D01*
X75257714Y-133897714D01*
X75162476Y-133945333D01*
X75114857Y-134040571D01*
X75114857Y-134564380D01*
D11*
%TO.C,C_ESP_1*%
X88288000Y-59886000D02*
X87988000Y-59886000D01*
X88288000Y-58986000D02*
X87988000Y-58986000D01*
%TO.C,C_HSCAN_1*%
X76904000Y-92369500D02*
X76904000Y-92669500D01*
X76004000Y-92369500D02*
X76004000Y-92669500D01*
%TO.C,C_HSCAN_2*%
X85846500Y-92560000D02*
X85846500Y-92860000D01*
X86746500Y-92560000D02*
X86746500Y-92860000D01*
D12*
%TO.C,C_PS_1*%
X108907549Y-154421002D02*
X109792447Y-154421002D01*
X109792447Y-156474998D02*
X108907549Y-156474998D01*
D13*
%TO.C,D_ESD_1*%
X92346419Y-149974500D02*
G75*
G03*
X92346419Y-149974500I-141419J0D01*
G01*
X92346419Y-149974500D02*
G75*
G03*
X92346419Y-149974500I-141419J0D01*
G01*
%TO.C,D_ESD_2*%
X100141419Y-159064500D02*
G75*
G03*
X100141419Y-159064500I-141419J0D01*
G01*
X100141419Y-159064500D02*
G75*
G03*
X100141419Y-159064500I-141419J0D01*
G01*
D12*
%TO.C,D_ESD_3*%
X109108200Y-157612601D02*
G75*
G03*
X109108200Y-157612601I-76200J0D01*
G01*
X109365260Y-160794700D02*
X108407200Y-160794700D01*
X108407200Y-160794700D02*
X108407200Y-159245300D01*
X111556800Y-160794700D02*
X110598740Y-160794700D01*
X111556800Y-159245300D02*
X111556800Y-160794700D01*
X109648739Y-159245300D02*
X110315261Y-159245300D01*
D14*
%TO.C,D_ESD_4*%
X92630000Y-155069500D02*
G75*
G03*
X92630000Y-155069500I-100000J0D01*
G01*
D11*
X89520000Y-154455500D02*
X89520000Y-155405500D01*
X89520000Y-157583500D02*
X89520000Y-156633500D01*
X89520000Y-157583500D02*
X90820000Y-157583500D01*
X90820000Y-154455500D02*
X89520000Y-154455500D01*
%TO.C,D_ESD_5*%
X94956000Y-159814500D02*
X94956000Y-161114500D01*
X98084000Y-161114500D02*
X98084000Y-159814500D01*
X98084000Y-161114500D02*
X97134000Y-161114500D01*
X94956000Y-161114500D02*
X95906000Y-161114500D01*
D14*
X95670000Y-158104500D02*
G75*
G03*
X95670000Y-158104500I-100000J0D01*
G01*
D11*
%TO.C,R_COMP_5*%
X119893500Y-105300000D02*
X119893500Y-105520000D01*
X118993500Y-105300000D02*
X118993500Y-105520000D01*
%TO.C,R_COMP_4*%
X118930000Y-109520500D02*
X118930000Y-109300500D01*
X119830000Y-109520500D02*
X119830000Y-109300500D01*
%TO.C,R_COMP_11*%
X121533500Y-105236500D02*
X121533500Y-105456500D01*
X122433500Y-105236500D02*
X122433500Y-105456500D01*
%TO.C,R_ESP_4*%
X121989000Y-67269000D02*
X121989000Y-67489000D01*
X121089000Y-67269000D02*
X121089000Y-67489000D01*
%TO.C,R_HSCAN_1*%
X79646000Y-78798000D02*
X79866000Y-78798000D01*
X79646000Y-79698000D02*
X79866000Y-79698000D01*
%TO.C,R_HSCAN_2*%
X75751000Y-87748500D02*
X75751000Y-88908500D01*
X77411000Y-87748500D02*
X77411000Y-88908500D01*
%TO.C,R_HSCAN_3*%
X86999500Y-87812000D02*
X86999500Y-88972000D01*
X85339500Y-87812000D02*
X85339500Y-88972000D01*
%TO.C,R_J1850_6*%
X79951000Y-124007000D02*
X79951000Y-125167000D01*
X78291000Y-124007000D02*
X78291000Y-125167000D01*
%TO.C,R_STN_13*%
X106622000Y-100474000D02*
X106622000Y-100694000D01*
X105722000Y-100474000D02*
X105722000Y-100694000D01*
%TO.C,R_STN_10*%
D15*
X97308190Y-111309142D02*
X97070095Y-111142476D01*
X97308190Y-111023428D02*
X96808190Y-111023428D01*
X96808190Y-111213904D01*
X96832000Y-111261523D01*
X96855809Y-111285333D01*
X96903428Y-111309142D01*
X96974857Y-111309142D01*
X97022476Y-111285333D01*
X97046285Y-111261523D01*
X97070095Y-111213904D01*
X97070095Y-111023428D01*
X97355809Y-111404380D02*
X97355809Y-111785333D01*
X97284380Y-111880571D02*
X97308190Y-111952000D01*
X97308190Y-112071047D01*
X97284380Y-112118666D01*
X97260571Y-112142476D01*
X97212952Y-112166285D01*
X97165333Y-112166285D01*
X97117714Y-112142476D01*
X97093904Y-112118666D01*
X97070095Y-112071047D01*
X97046285Y-111975809D01*
X97022476Y-111928190D01*
X96998666Y-111904380D01*
X96951047Y-111880571D01*
X96903428Y-111880571D01*
X96855809Y-111904380D01*
X96832000Y-111928190D01*
X96808190Y-111975809D01*
X96808190Y-112094857D01*
X96832000Y-112166285D01*
X96808190Y-112309142D02*
X96808190Y-112594857D01*
X97308190Y-112452000D02*
X96808190Y-112452000D01*
X97308190Y-112761523D02*
X96808190Y-112761523D01*
X97308190Y-113047238D01*
X96808190Y-113047238D01*
X97355809Y-113166285D02*
X97355809Y-113547238D01*
X97308190Y-113928190D02*
X97308190Y-113642476D01*
X97308190Y-113785333D02*
X96808190Y-113785333D01*
X96879619Y-113737714D01*
X96927238Y-113690095D01*
X96951047Y-113642476D01*
X96808190Y-114237714D02*
X96808190Y-114285333D01*
X96832000Y-114332952D01*
X96855809Y-114356761D01*
X96903428Y-114380571D01*
X96998666Y-114404380D01*
X97117714Y-114404380D01*
X97212952Y-114380571D01*
X97260571Y-114356761D01*
X97284380Y-114332952D01*
X97308190Y-114285333D01*
X97308190Y-114237714D01*
X97284380Y-114190095D01*
X97260571Y-114166285D01*
X97212952Y-114142476D01*
X97117714Y-114118666D01*
X96998666Y-114118666D01*
X96903428Y-114142476D01*
X96855809Y-114166285D01*
X96832000Y-114190095D01*
X96808190Y-114237714D01*
%TO.C,J_ESP_1*%
D16*
X73428190Y-93780000D02*
X73466285Y-93760952D01*
X73523428Y-93760952D01*
X73580571Y-93780000D01*
X73618666Y-93818095D01*
X73637714Y-93856190D01*
X73656761Y-93932380D01*
X73656761Y-93989523D01*
X73637714Y-94065714D01*
X73618666Y-94103809D01*
X73580571Y-94141904D01*
X73523428Y-94160952D01*
X73485333Y-94160952D01*
X73428190Y-94141904D01*
X73409142Y-94122857D01*
X73409142Y-93989523D01*
X73485333Y-93989523D01*
X73237714Y-93894285D02*
X73237714Y-94160952D01*
X73237714Y-93932380D02*
X73218666Y-93913333D01*
X73180571Y-93894285D01*
X73123428Y-93894285D01*
X73085333Y-93913333D01*
X73066285Y-93951428D01*
X73066285Y-94160952D01*
X72875809Y-94160952D02*
X72875809Y-93760952D01*
X72780571Y-93760952D01*
X72723428Y-93780000D01*
X72685333Y-93818095D01*
X72666285Y-93856190D01*
X72647238Y-93932380D01*
X72647238Y-93989523D01*
X72666285Y-94065714D01*
X72685333Y-94103809D01*
X72723428Y-94141904D01*
X72780571Y-94160952D01*
X72875809Y-94160952D01*
X73393238Y-60740952D02*
X73259904Y-61140952D01*
X73126571Y-60740952D01*
X72821809Y-61140952D02*
X72821809Y-60740952D01*
X72821809Y-61121904D02*
X72859904Y-61140952D01*
X72936095Y-61140952D01*
X72974190Y-61121904D01*
X72993238Y-61102857D01*
X73012285Y-61064761D01*
X73012285Y-60950476D01*
X72993238Y-60912380D01*
X72974190Y-60893333D01*
X72936095Y-60874285D01*
X72859904Y-60874285D01*
X72821809Y-60893333D01*
X72459904Y-61140952D02*
X72459904Y-60740952D01*
X72459904Y-61121904D02*
X72498000Y-61140952D01*
X72574190Y-61140952D01*
X72612285Y-61121904D01*
X72631333Y-61102857D01*
X72650380Y-61064761D01*
X72650380Y-60950476D01*
X72631333Y-60912380D01*
X72612285Y-60893333D01*
X72574190Y-60874285D01*
X72498000Y-60874285D01*
X72459904Y-60893333D01*
X74310761Y-63471428D02*
X74177428Y-63471428D01*
X74120285Y-63680952D02*
X74310761Y-63680952D01*
X74310761Y-63280952D01*
X74120285Y-63280952D01*
X73948857Y-63414285D02*
X73948857Y-63680952D01*
X73948857Y-63452380D02*
X73929809Y-63433333D01*
X73891714Y-63414285D01*
X73834571Y-63414285D01*
X73796476Y-63433333D01*
X73777428Y-63471428D01*
X73777428Y-63680952D01*
X73415523Y-63680952D02*
X73415523Y-63471428D01*
X73434571Y-63433333D01*
X73472666Y-63414285D01*
X73548857Y-63414285D01*
X73586952Y-63433333D01*
X73415523Y-63661904D02*
X73453619Y-63680952D01*
X73548857Y-63680952D01*
X73586952Y-63661904D01*
X73606000Y-63623809D01*
X73606000Y-63585714D01*
X73586952Y-63547619D01*
X73548857Y-63528571D01*
X73453619Y-63528571D01*
X73415523Y-63509523D01*
X73225047Y-63680952D02*
X73225047Y-63280952D01*
X73225047Y-63433333D02*
X73186952Y-63414285D01*
X73110761Y-63414285D01*
X73072666Y-63433333D01*
X73053619Y-63452380D01*
X73034571Y-63490476D01*
X73034571Y-63604761D01*
X73053619Y-63642857D01*
X73072666Y-63661904D01*
X73110761Y-63680952D01*
X73186952Y-63680952D01*
X73225047Y-63661904D01*
X72806000Y-63680952D02*
X72844095Y-63661904D01*
X72863142Y-63623809D01*
X72863142Y-63280952D01*
X72501238Y-63661904D02*
X72539333Y-63680952D01*
X72615523Y-63680952D01*
X72653619Y-63661904D01*
X72672666Y-63623809D01*
X72672666Y-63471428D01*
X72653619Y-63433333D01*
X72615523Y-63414285D01*
X72539333Y-63414285D01*
X72501238Y-63433333D01*
X72482190Y-63471428D01*
X72482190Y-63509523D01*
X72672666Y-63547619D01*
X74964761Y-66201904D02*
X74907619Y-66220952D01*
X74812380Y-66220952D01*
X74774285Y-66201904D01*
X74755238Y-66182857D01*
X74736190Y-66144761D01*
X74736190Y-66106666D01*
X74755238Y-66068571D01*
X74774285Y-66049523D01*
X74812380Y-66030476D01*
X74888571Y-66011428D01*
X74926666Y-65992380D01*
X74945714Y-65973333D01*
X74964761Y-65935238D01*
X74964761Y-65897142D01*
X74945714Y-65859047D01*
X74926666Y-65840000D01*
X74888571Y-65820952D01*
X74793333Y-65820952D01*
X74736190Y-65840000D01*
X74412380Y-66201904D02*
X74450476Y-66220952D01*
X74526666Y-66220952D01*
X74564761Y-66201904D01*
X74583809Y-66163809D01*
X74583809Y-66011428D01*
X74564761Y-65973333D01*
X74526666Y-65954285D01*
X74450476Y-65954285D01*
X74412380Y-65973333D01*
X74393333Y-66011428D01*
X74393333Y-66049523D01*
X74583809Y-66087619D01*
X74221904Y-65954285D02*
X74221904Y-66220952D01*
X74221904Y-65992380D02*
X74202857Y-65973333D01*
X74164761Y-65954285D01*
X74107619Y-65954285D01*
X74069523Y-65973333D01*
X74050476Y-66011428D01*
X74050476Y-66220952D01*
X73879047Y-66201904D02*
X73840952Y-66220952D01*
X73764761Y-66220952D01*
X73726666Y-66201904D01*
X73707619Y-66163809D01*
X73707619Y-66144761D01*
X73726666Y-66106666D01*
X73764761Y-66087619D01*
X73821904Y-66087619D01*
X73860000Y-66068571D01*
X73879047Y-66030476D01*
X73879047Y-66011428D01*
X73860000Y-65973333D01*
X73821904Y-65954285D01*
X73764761Y-65954285D01*
X73726666Y-65973333D01*
X73479047Y-66220952D02*
X73517142Y-66201904D01*
X73536190Y-66182857D01*
X73555238Y-66144761D01*
X73555238Y-66030476D01*
X73536190Y-65992380D01*
X73517142Y-65973333D01*
X73479047Y-65954285D01*
X73421904Y-65954285D01*
X73383809Y-65973333D01*
X73364761Y-65992380D01*
X73345714Y-66030476D01*
X73345714Y-66144761D01*
X73364761Y-66182857D01*
X73383809Y-66201904D01*
X73421904Y-66220952D01*
X73479047Y-66220952D01*
X73174285Y-66220952D02*
X73174285Y-65954285D01*
X73174285Y-66030476D02*
X73155238Y-65992380D01*
X73136190Y-65973333D01*
X73098095Y-65954285D01*
X73060000Y-65954285D01*
X72983809Y-65820952D02*
X72850476Y-66220952D01*
X72717142Y-65820952D01*
X72583809Y-66220952D02*
X72583809Y-65820952D01*
X72431428Y-65820952D01*
X72393333Y-65840000D01*
X72374285Y-65859047D01*
X72355238Y-65897142D01*
X72355238Y-65954285D01*
X72374285Y-65992380D01*
X72393333Y-66011428D01*
X72431428Y-66030476D01*
X72583809Y-66030476D01*
X74974285Y-68741904D02*
X74917142Y-68760952D01*
X74821904Y-68760952D01*
X74783809Y-68741904D01*
X74764761Y-68722857D01*
X74745714Y-68684761D01*
X74745714Y-68646666D01*
X74764761Y-68608571D01*
X74783809Y-68589523D01*
X74821904Y-68570476D01*
X74898095Y-68551428D01*
X74936190Y-68532380D01*
X74955238Y-68513333D01*
X74974285Y-68475238D01*
X74974285Y-68437142D01*
X74955238Y-68399047D01*
X74936190Y-68380000D01*
X74898095Y-68360952D01*
X74802857Y-68360952D01*
X74745714Y-68380000D01*
X74421904Y-68741904D02*
X74460000Y-68760952D01*
X74536190Y-68760952D01*
X74574285Y-68741904D01*
X74593333Y-68703809D01*
X74593333Y-68551428D01*
X74574285Y-68513333D01*
X74536190Y-68494285D01*
X74460000Y-68494285D01*
X74421904Y-68513333D01*
X74402857Y-68551428D01*
X74402857Y-68589523D01*
X74593333Y-68627619D01*
X74231428Y-68494285D02*
X74231428Y-68760952D01*
X74231428Y-68532380D02*
X74212380Y-68513333D01*
X74174285Y-68494285D01*
X74117142Y-68494285D01*
X74079047Y-68513333D01*
X74060000Y-68551428D01*
X74060000Y-68760952D01*
X73888571Y-68741904D02*
X73850476Y-68760952D01*
X73774285Y-68760952D01*
X73736190Y-68741904D01*
X73717142Y-68703809D01*
X73717142Y-68684761D01*
X73736190Y-68646666D01*
X73774285Y-68627619D01*
X73831428Y-68627619D01*
X73869523Y-68608571D01*
X73888571Y-68570476D01*
X73888571Y-68551428D01*
X73869523Y-68513333D01*
X73831428Y-68494285D01*
X73774285Y-68494285D01*
X73736190Y-68513333D01*
X73488571Y-68760952D02*
X73526666Y-68741904D01*
X73545714Y-68722857D01*
X73564761Y-68684761D01*
X73564761Y-68570476D01*
X73545714Y-68532380D01*
X73526666Y-68513333D01*
X73488571Y-68494285D01*
X73431428Y-68494285D01*
X73393333Y-68513333D01*
X73374285Y-68532380D01*
X73355238Y-68570476D01*
X73355238Y-68684761D01*
X73374285Y-68722857D01*
X73393333Y-68741904D01*
X73431428Y-68760952D01*
X73488571Y-68760952D01*
X73183809Y-68760952D02*
X73183809Y-68494285D01*
X73183809Y-68570476D02*
X73164761Y-68532380D01*
X73145714Y-68513333D01*
X73107619Y-68494285D01*
X73069523Y-68494285D01*
X72993333Y-68360952D02*
X72860000Y-68760952D01*
X72726666Y-68360952D01*
X72593333Y-68760952D02*
X72593333Y-68360952D01*
X72364761Y-68760952D01*
X72364761Y-68360952D01*
X73488476Y-71300952D02*
X73488476Y-70900952D01*
X73221809Y-70900952D02*
X73145619Y-70900952D01*
X73107523Y-70920000D01*
X73069428Y-70958095D01*
X73050380Y-71034285D01*
X73050380Y-71167619D01*
X73069428Y-71243809D01*
X73107523Y-71281904D01*
X73145619Y-71300952D01*
X73221809Y-71300952D01*
X73259904Y-71281904D01*
X73298000Y-71243809D01*
X73317047Y-71167619D01*
X73317047Y-71034285D01*
X73298000Y-70958095D01*
X73259904Y-70920000D01*
X73221809Y-70900952D01*
X72917047Y-70900952D02*
X72669428Y-70900952D01*
X72802761Y-71053333D01*
X72745619Y-71053333D01*
X72707523Y-71072380D01*
X72688476Y-71091428D01*
X72669428Y-71129523D01*
X72669428Y-71224761D01*
X72688476Y-71262857D01*
X72707523Y-71281904D01*
X72745619Y-71300952D01*
X72859904Y-71300952D01*
X72898000Y-71281904D01*
X72917047Y-71262857D01*
X72326571Y-71034285D02*
X72326571Y-71300952D01*
X72421809Y-70881904D02*
X72517047Y-71167619D01*
X72269428Y-71167619D01*
X73488476Y-73840952D02*
X73488476Y-73440952D01*
X73221809Y-73440952D02*
X73145619Y-73440952D01*
X73107523Y-73460000D01*
X73069428Y-73498095D01*
X73050380Y-73574285D01*
X73050380Y-73707619D01*
X73069428Y-73783809D01*
X73107523Y-73821904D01*
X73145619Y-73840952D01*
X73221809Y-73840952D01*
X73259904Y-73821904D01*
X73298000Y-73783809D01*
X73317047Y-73707619D01*
X73317047Y-73574285D01*
X73298000Y-73498095D01*
X73259904Y-73460000D01*
X73221809Y-73440952D01*
X72917047Y-73440952D02*
X72669428Y-73440952D01*
X72802761Y-73593333D01*
X72745619Y-73593333D01*
X72707523Y-73612380D01*
X72688476Y-73631428D01*
X72669428Y-73669523D01*
X72669428Y-73764761D01*
X72688476Y-73802857D01*
X72707523Y-73821904D01*
X72745619Y-73840952D01*
X72859904Y-73840952D01*
X72898000Y-73821904D01*
X72917047Y-73802857D01*
X72307523Y-73440952D02*
X72498000Y-73440952D01*
X72517047Y-73631428D01*
X72498000Y-73612380D01*
X72459904Y-73593333D01*
X72364666Y-73593333D01*
X72326571Y-73612380D01*
X72307523Y-73631428D01*
X72288476Y-73669523D01*
X72288476Y-73764761D01*
X72307523Y-73802857D01*
X72326571Y-73821904D01*
X72364666Y-73840952D01*
X72459904Y-73840952D01*
X72498000Y-73821904D01*
X72517047Y-73802857D01*
X73488476Y-76380952D02*
X73488476Y-75980952D01*
X73221809Y-75980952D02*
X73145619Y-75980952D01*
X73107523Y-76000000D01*
X73069428Y-76038095D01*
X73050380Y-76114285D01*
X73050380Y-76247619D01*
X73069428Y-76323809D01*
X73107523Y-76361904D01*
X73145619Y-76380952D01*
X73221809Y-76380952D01*
X73259904Y-76361904D01*
X73298000Y-76323809D01*
X73317047Y-76247619D01*
X73317047Y-76114285D01*
X73298000Y-76038095D01*
X73259904Y-76000000D01*
X73221809Y-75980952D01*
X72917047Y-75980952D02*
X72669428Y-75980952D01*
X72802761Y-76133333D01*
X72745619Y-76133333D01*
X72707523Y-76152380D01*
X72688476Y-76171428D01*
X72669428Y-76209523D01*
X72669428Y-76304761D01*
X72688476Y-76342857D01*
X72707523Y-76361904D01*
X72745619Y-76380952D01*
X72859904Y-76380952D01*
X72898000Y-76361904D01*
X72917047Y-76342857D01*
X72517047Y-76019047D02*
X72498000Y-76000000D01*
X72459904Y-75980952D01*
X72364666Y-75980952D01*
X72326571Y-76000000D01*
X72307523Y-76019047D01*
X72288476Y-76057142D01*
X72288476Y-76095238D01*
X72307523Y-76152380D01*
X72536095Y-76380952D01*
X72288476Y-76380952D01*
X75409238Y-78628000D02*
X75009238Y-78628000D01*
X75314000Y-79174952D02*
X75314000Y-78774952D01*
X75161619Y-78774952D01*
X75123523Y-78794000D01*
X75104476Y-78813047D01*
X75085428Y-78851142D01*
X75085428Y-78908285D01*
X75104476Y-78946380D01*
X75123523Y-78965428D01*
X75161619Y-78984476D01*
X75314000Y-78984476D01*
X75009238Y-78628000D02*
X74552095Y-78628000D01*
X74952095Y-78774952D02*
X74856857Y-79174952D01*
X74780666Y-78889238D01*
X74704476Y-79174952D01*
X74609238Y-78774952D01*
X74552095Y-78628000D02*
X74152095Y-78628000D01*
X74228285Y-79174952D02*
X74361619Y-78984476D01*
X74456857Y-79174952D02*
X74456857Y-78774952D01*
X74304476Y-78774952D01*
X74266380Y-78794000D01*
X74247333Y-78813047D01*
X74228285Y-78851142D01*
X74228285Y-78908285D01*
X74247333Y-78946380D01*
X74266380Y-78965428D01*
X74304476Y-78984476D01*
X74456857Y-78984476D01*
X74152095Y-78628000D02*
X73847333Y-78628000D01*
X74152095Y-79213047D02*
X73847333Y-79213047D01*
X73847333Y-78628000D02*
X73447333Y-78628000D01*
X73523523Y-79136857D02*
X73542571Y-79155904D01*
X73599714Y-79174952D01*
X73637809Y-79174952D01*
X73694952Y-79155904D01*
X73733047Y-79117809D01*
X73752095Y-79079714D01*
X73771142Y-79003523D01*
X73771142Y-78946380D01*
X73752095Y-78870190D01*
X73733047Y-78832095D01*
X73694952Y-78794000D01*
X73637809Y-78774952D01*
X73599714Y-78774952D01*
X73542571Y-78794000D01*
X73523523Y-78813047D01*
X73447333Y-78628000D02*
X73142571Y-78628000D01*
X73409238Y-78774952D02*
X73180666Y-78774952D01*
X73294952Y-79174952D02*
X73294952Y-78774952D01*
X73142571Y-78628000D02*
X72742571Y-78628000D01*
X72818761Y-79174952D02*
X72952095Y-78984476D01*
X73047333Y-79174952D02*
X73047333Y-78774952D01*
X72894952Y-78774952D01*
X72856857Y-78794000D01*
X72837809Y-78813047D01*
X72818761Y-78851142D01*
X72818761Y-78908285D01*
X72837809Y-78946380D01*
X72856857Y-78965428D01*
X72894952Y-78984476D01*
X73047333Y-78984476D01*
X72742571Y-78628000D02*
X72418761Y-78628000D01*
X72456857Y-79174952D02*
X72647333Y-79174952D01*
X72647333Y-78774952D01*
X76933142Y-81168000D02*
X76533142Y-81168000D01*
X76609333Y-81714952D02*
X76742666Y-81524476D01*
X76837904Y-81714952D02*
X76837904Y-81314952D01*
X76685523Y-81314952D01*
X76647428Y-81334000D01*
X76628380Y-81353047D01*
X76609333Y-81391142D01*
X76609333Y-81448285D01*
X76628380Y-81486380D01*
X76647428Y-81505428D01*
X76685523Y-81524476D01*
X76837904Y-81524476D01*
X76533142Y-81168000D02*
X76171238Y-81168000D01*
X76437904Y-81505428D02*
X76304571Y-81505428D01*
X76247428Y-81714952D02*
X76437904Y-81714952D01*
X76437904Y-81314952D01*
X76247428Y-81314952D01*
X76171238Y-81168000D02*
X75790285Y-81168000D01*
X76095047Y-81695904D02*
X76037904Y-81714952D01*
X75942666Y-81714952D01*
X75904571Y-81695904D01*
X75885523Y-81676857D01*
X75866476Y-81638761D01*
X75866476Y-81600666D01*
X75885523Y-81562571D01*
X75904571Y-81543523D01*
X75942666Y-81524476D01*
X76018857Y-81505428D01*
X76056952Y-81486380D01*
X76076000Y-81467333D01*
X76095047Y-81429238D01*
X76095047Y-81391142D01*
X76076000Y-81353047D01*
X76056952Y-81334000D01*
X76018857Y-81314952D01*
X75923619Y-81314952D01*
X75866476Y-81334000D01*
X75790285Y-81168000D02*
X75428380Y-81168000D01*
X75695047Y-81505428D02*
X75561714Y-81505428D01*
X75504571Y-81714952D02*
X75695047Y-81714952D01*
X75695047Y-81314952D01*
X75504571Y-81314952D01*
X75428380Y-81168000D02*
X75123619Y-81168000D01*
X75390285Y-81314952D02*
X75161714Y-81314952D01*
X75276000Y-81714952D02*
X75276000Y-81314952D01*
X75123619Y-81168000D02*
X74818857Y-81168000D01*
X75123619Y-81753047D02*
X74818857Y-81753047D01*
X74818857Y-81168000D02*
X74399809Y-81168000D01*
X74647428Y-81314952D02*
X74571238Y-81314952D01*
X74533142Y-81334000D01*
X74495047Y-81372095D01*
X74476000Y-81448285D01*
X74476000Y-81581619D01*
X74495047Y-81657809D01*
X74533142Y-81695904D01*
X74571238Y-81714952D01*
X74647428Y-81714952D01*
X74685523Y-81695904D01*
X74723619Y-81657809D01*
X74742666Y-81581619D01*
X74742666Y-81448285D01*
X74723619Y-81372095D01*
X74685523Y-81334000D01*
X74647428Y-81314952D01*
X74399809Y-81168000D02*
X73999809Y-81168000D01*
X74171238Y-81505428D02*
X74114095Y-81524476D01*
X74095047Y-81543523D01*
X74076000Y-81581619D01*
X74076000Y-81638761D01*
X74095047Y-81676857D01*
X74114095Y-81695904D01*
X74152190Y-81714952D01*
X74304571Y-81714952D01*
X74304571Y-81314952D01*
X74171238Y-81314952D01*
X74133142Y-81334000D01*
X74114095Y-81353047D01*
X74095047Y-81391142D01*
X74095047Y-81429238D01*
X74114095Y-81467333D01*
X74133142Y-81486380D01*
X74171238Y-81505428D01*
X74304571Y-81505428D01*
X73999809Y-81168000D02*
X73599809Y-81168000D01*
X73904571Y-81714952D02*
X73904571Y-81314952D01*
X73809333Y-81314952D01*
X73752190Y-81334000D01*
X73714095Y-81372095D01*
X73695047Y-81410190D01*
X73676000Y-81486380D01*
X73676000Y-81543523D01*
X73695047Y-81619714D01*
X73714095Y-81657809D01*
X73752190Y-81695904D01*
X73809333Y-81714952D01*
X73904571Y-81714952D01*
X73599809Y-81168000D02*
X73295047Y-81168000D01*
X73599809Y-81753047D02*
X73295047Y-81753047D01*
X73295047Y-81168000D02*
X72876000Y-81168000D01*
X73199809Y-81714952D02*
X73199809Y-81314952D01*
X73199809Y-81505428D02*
X72971238Y-81505428D01*
X72971238Y-81714952D02*
X72971238Y-81314952D01*
X72876000Y-81168000D02*
X72418857Y-81168000D01*
X72818857Y-81314952D02*
X72723619Y-81714952D01*
X72647428Y-81429238D01*
X72571238Y-81714952D01*
X72476000Y-81314952D01*
X74898095Y-84000952D02*
X74898095Y-83600952D01*
X74707619Y-84000952D02*
X74707619Y-83600952D01*
X74574285Y-83886666D01*
X74440952Y-83600952D01*
X74440952Y-84000952D01*
X74250476Y-83600952D02*
X74250476Y-83924761D01*
X74231428Y-83962857D01*
X74212380Y-83981904D01*
X74174285Y-84000952D01*
X74098095Y-84000952D01*
X74060000Y-83981904D01*
X74040952Y-83962857D01*
X74021904Y-83924761D01*
X74021904Y-83600952D01*
X73526666Y-84000952D02*
X73526666Y-83600952D01*
X73336190Y-84000952D02*
X73336190Y-83600952D01*
X73107619Y-84000952D01*
X73107619Y-83600952D01*
X72974285Y-83600952D02*
X72745714Y-83600952D01*
X72860000Y-84000952D02*
X72860000Y-83600952D01*
X72631428Y-83639047D02*
X72612380Y-83620000D01*
X72574285Y-83600952D01*
X72479047Y-83600952D01*
X72440952Y-83620000D01*
X72421904Y-83639047D01*
X72402857Y-83677142D01*
X72402857Y-83715238D01*
X72421904Y-83772380D01*
X72650476Y-84000952D01*
X72402857Y-84000952D01*
X74644095Y-86540952D02*
X74644095Y-86140952D01*
X74453619Y-86540952D02*
X74453619Y-86140952D01*
X74320285Y-86426666D01*
X74186952Y-86140952D01*
X74186952Y-86540952D01*
X73996476Y-86140952D02*
X73996476Y-86464761D01*
X73977428Y-86502857D01*
X73958380Y-86521904D01*
X73920285Y-86540952D01*
X73844095Y-86540952D01*
X73806000Y-86521904D01*
X73786952Y-86502857D01*
X73767904Y-86464761D01*
X73767904Y-86140952D01*
X73272666Y-86540952D02*
X73272666Y-86140952D01*
X73082190Y-86540952D02*
X73082190Y-86140952D01*
X72853619Y-86540952D01*
X72853619Y-86140952D01*
X72720285Y-86140952D02*
X72491714Y-86140952D01*
X72606000Y-86540952D02*
X72606000Y-86140952D01*
X72148857Y-86540952D02*
X72377428Y-86540952D01*
X72263142Y-86540952D02*
X72263142Y-86140952D01*
X72301238Y-86198095D01*
X72339333Y-86236190D01*
X72377428Y-86255238D01*
X74548857Y-89080952D02*
X74548857Y-88680952D01*
X74358380Y-89080952D02*
X74358380Y-88680952D01*
X74225047Y-88966666D01*
X74091714Y-88680952D01*
X74091714Y-89080952D01*
X73901238Y-88680952D02*
X73901238Y-89004761D01*
X73882190Y-89042857D01*
X73863142Y-89061904D01*
X73825047Y-89080952D01*
X73748857Y-89080952D01*
X73710761Y-89061904D01*
X73691714Y-89042857D01*
X73672666Y-89004761D01*
X73672666Y-88680952D01*
X73196476Y-89061904D02*
X73139333Y-89080952D01*
X73044095Y-89080952D01*
X73006000Y-89061904D01*
X72986952Y-89042857D01*
X72967904Y-89004761D01*
X72967904Y-88966666D01*
X72986952Y-88928571D01*
X73006000Y-88909523D01*
X73044095Y-88890476D01*
X73120285Y-88871428D01*
X73158380Y-88852380D01*
X73177428Y-88833333D01*
X73196476Y-88795238D01*
X73196476Y-88757142D01*
X73177428Y-88719047D01*
X73158380Y-88700000D01*
X73120285Y-88680952D01*
X73025047Y-88680952D01*
X72967904Y-88700000D01*
X72567904Y-89042857D02*
X72586952Y-89061904D01*
X72644095Y-89080952D01*
X72682190Y-89080952D01*
X72739333Y-89061904D01*
X72777428Y-89023809D01*
X72796476Y-88985714D01*
X72815523Y-88909523D01*
X72815523Y-88852380D01*
X72796476Y-88776190D01*
X72777428Y-88738095D01*
X72739333Y-88700000D01*
X72682190Y-88680952D01*
X72644095Y-88680952D01*
X72586952Y-88700000D01*
X72567904Y-88719047D01*
X72206000Y-89080952D02*
X72396476Y-89080952D01*
X72396476Y-88680952D01*
X74558380Y-91620952D02*
X74558380Y-91220952D01*
X74367904Y-91620952D02*
X74367904Y-91220952D01*
X74234571Y-91506666D01*
X74101238Y-91220952D01*
X74101238Y-91620952D01*
X73910761Y-91220952D02*
X73910761Y-91544761D01*
X73891714Y-91582857D01*
X73872666Y-91601904D01*
X73834571Y-91620952D01*
X73758380Y-91620952D01*
X73720285Y-91601904D01*
X73701238Y-91582857D01*
X73682190Y-91544761D01*
X73682190Y-91220952D01*
X73206000Y-91601904D02*
X73148857Y-91620952D01*
X73053619Y-91620952D01*
X73015523Y-91601904D01*
X72996476Y-91582857D01*
X72977428Y-91544761D01*
X72977428Y-91506666D01*
X72996476Y-91468571D01*
X73015523Y-91449523D01*
X73053619Y-91430476D01*
X73129809Y-91411428D01*
X73167904Y-91392380D01*
X73186952Y-91373333D01*
X73206000Y-91335238D01*
X73206000Y-91297142D01*
X73186952Y-91259047D01*
X73167904Y-91240000D01*
X73129809Y-91220952D01*
X73034571Y-91220952D01*
X72977428Y-91240000D01*
X72806000Y-91620952D02*
X72806000Y-91220952D01*
X72710761Y-91220952D01*
X72653619Y-91240000D01*
X72615523Y-91278095D01*
X72596476Y-91316190D01*
X72577428Y-91392380D01*
X72577428Y-91449523D01*
X72596476Y-91525714D01*
X72615523Y-91563809D01*
X72653619Y-91601904D01*
X72710761Y-91620952D01*
X72806000Y-91620952D01*
X72425047Y-91506666D02*
X72234571Y-91506666D01*
X72463142Y-91620952D02*
X72329809Y-91220952D01*
X72196476Y-91620952D01*
X73174190Y-103940000D02*
X73212285Y-103920952D01*
X73269428Y-103920952D01*
X73326571Y-103940000D01*
X73364666Y-103978095D01*
X73383714Y-104016190D01*
X73402761Y-104092380D01*
X73402761Y-104149523D01*
X73383714Y-104225714D01*
X73364666Y-104263809D01*
X73326571Y-104301904D01*
X73269428Y-104320952D01*
X73231333Y-104320952D01*
X73174190Y-104301904D01*
X73155142Y-104282857D01*
X73155142Y-104149523D01*
X73231333Y-104149523D01*
X72983714Y-104054285D02*
X72983714Y-104320952D01*
X72983714Y-104092380D02*
X72964666Y-104073333D01*
X72926571Y-104054285D01*
X72869428Y-104054285D01*
X72831333Y-104073333D01*
X72812285Y-104111428D01*
X72812285Y-104320952D01*
X72621809Y-104320952D02*
X72621809Y-103920952D01*
X72526571Y-103920952D01*
X72469428Y-103940000D01*
X72431333Y-103978095D01*
X72412285Y-104016190D01*
X72393238Y-104092380D01*
X72393238Y-104149523D01*
X72412285Y-104225714D01*
X72431333Y-104263809D01*
X72469428Y-104301904D01*
X72526571Y-104320952D01*
X72621809Y-104320952D01*
X74802857Y-96700952D02*
X74802857Y-96300952D01*
X74612380Y-96700952D02*
X74612380Y-96300952D01*
X74479047Y-96586666D01*
X74345714Y-96300952D01*
X74345714Y-96700952D01*
X74155238Y-96300952D02*
X74155238Y-96624761D01*
X74136190Y-96662857D01*
X74117142Y-96681904D01*
X74079047Y-96700952D01*
X74002857Y-96700952D01*
X73964761Y-96681904D01*
X73945714Y-96662857D01*
X73926666Y-96624761D01*
X73926666Y-96300952D01*
X73450476Y-96681904D02*
X73393333Y-96700952D01*
X73298095Y-96700952D01*
X73260000Y-96681904D01*
X73240952Y-96662857D01*
X73221904Y-96624761D01*
X73221904Y-96586666D01*
X73240952Y-96548571D01*
X73260000Y-96529523D01*
X73298095Y-96510476D01*
X73374285Y-96491428D01*
X73412380Y-96472380D01*
X73431428Y-96453333D01*
X73450476Y-96415238D01*
X73450476Y-96377142D01*
X73431428Y-96339047D01*
X73412380Y-96320000D01*
X73374285Y-96300952D01*
X73279047Y-96300952D01*
X73221904Y-96320000D01*
X73069523Y-96586666D02*
X72879047Y-96586666D01*
X73107619Y-96700952D02*
X72974285Y-96300952D01*
X72840952Y-96700952D01*
X72631428Y-96300952D02*
X72593333Y-96300952D01*
X72555238Y-96320000D01*
X72536190Y-96339047D01*
X72517142Y-96377142D01*
X72498095Y-96453333D01*
X72498095Y-96548571D01*
X72517142Y-96624761D01*
X72536190Y-96662857D01*
X72555238Y-96681904D01*
X72593333Y-96700952D01*
X72631428Y-96700952D01*
X72669523Y-96681904D01*
X72688571Y-96662857D01*
X72707619Y-96624761D01*
X72726666Y-96548571D01*
X72726666Y-96453333D01*
X72707619Y-96377142D01*
X72688571Y-96339047D01*
X72669523Y-96320000D01*
X72631428Y-96300952D01*
X73174190Y-58220000D02*
X73212285Y-58200952D01*
X73269428Y-58200952D01*
X73326571Y-58220000D01*
X73364666Y-58258095D01*
X73383714Y-58296190D01*
X73402761Y-58372380D01*
X73402761Y-58429523D01*
X73383714Y-58505714D01*
X73364666Y-58543809D01*
X73326571Y-58581904D01*
X73269428Y-58600952D01*
X73231333Y-58600952D01*
X73174190Y-58581904D01*
X73155142Y-58562857D01*
X73155142Y-58429523D01*
X73231333Y-58429523D01*
X72983714Y-58334285D02*
X72983714Y-58600952D01*
X72983714Y-58372380D02*
X72964666Y-58353333D01*
X72926571Y-58334285D01*
X72869428Y-58334285D01*
X72831333Y-58353333D01*
X72812285Y-58391428D01*
X72812285Y-58600952D01*
X72621809Y-58600952D02*
X72621809Y-58200952D01*
X72526571Y-58200952D01*
X72469428Y-58220000D01*
X72431333Y-58258095D01*
X72412285Y-58296190D01*
X72393238Y-58372380D01*
X72393238Y-58429523D01*
X72412285Y-58505714D01*
X72431333Y-58543809D01*
X72469428Y-58581904D01*
X72526571Y-58600952D01*
X72621809Y-58600952D01*
X73488476Y-106714952D02*
X73240857Y-106714952D01*
X73374190Y-106867333D01*
X73317047Y-106867333D01*
X73278952Y-106886380D01*
X73259904Y-106905428D01*
X73240857Y-106943523D01*
X73240857Y-107038761D01*
X73259904Y-107076857D01*
X73278952Y-107095904D01*
X73317047Y-107114952D01*
X73431333Y-107114952D01*
X73469428Y-107095904D01*
X73488476Y-107076857D01*
X73069428Y-107076857D02*
X73050380Y-107095904D01*
X73069428Y-107114952D01*
X73088476Y-107095904D01*
X73069428Y-107076857D01*
X73069428Y-107114952D01*
X72917047Y-106714952D02*
X72669428Y-106714952D01*
X72802761Y-106867333D01*
X72745619Y-106867333D01*
X72707523Y-106886380D01*
X72688476Y-106905428D01*
X72669428Y-106943523D01*
X72669428Y-107038761D01*
X72688476Y-107076857D01*
X72707523Y-107095904D01*
X72745619Y-107114952D01*
X72859904Y-107114952D01*
X72898000Y-107095904D01*
X72917047Y-107076857D01*
X72555142Y-106714952D02*
X72421809Y-107114952D01*
X72288476Y-106714952D01*
%TO.C,J_ESP_2*%
X125752190Y-58220000D02*
X125790285Y-58200952D01*
X125847428Y-58200952D01*
X125904571Y-58220000D01*
X125942666Y-58258095D01*
X125961714Y-58296190D01*
X125980761Y-58372380D01*
X125980761Y-58429523D01*
X125961714Y-58505714D01*
X125942666Y-58543809D01*
X125904571Y-58581904D01*
X125847428Y-58600952D01*
X125809333Y-58600952D01*
X125752190Y-58581904D01*
X125733142Y-58562857D01*
X125733142Y-58429523D01*
X125809333Y-58429523D01*
X125561714Y-58334285D02*
X125561714Y-58600952D01*
X125561714Y-58372380D02*
X125542666Y-58353333D01*
X125504571Y-58334285D01*
X125447428Y-58334285D01*
X125409333Y-58353333D01*
X125390285Y-58391428D01*
X125390285Y-58600952D01*
X125199809Y-58600952D02*
X125199809Y-58200952D01*
X125104571Y-58200952D01*
X125047428Y-58220000D01*
X125009333Y-58258095D01*
X124990285Y-58296190D01*
X124971238Y-58372380D01*
X124971238Y-58429523D01*
X124990285Y-58505714D01*
X125009333Y-58543809D01*
X125047428Y-58581904D01*
X125104571Y-58600952D01*
X125199809Y-58600952D01*
X126066476Y-61140952D02*
X126066476Y-60740952D01*
X125799809Y-60740952D02*
X125723619Y-60740952D01*
X125685523Y-60760000D01*
X125647428Y-60798095D01*
X125628380Y-60874285D01*
X125628380Y-61007619D01*
X125647428Y-61083809D01*
X125685523Y-61121904D01*
X125723619Y-61140952D01*
X125799809Y-61140952D01*
X125837904Y-61121904D01*
X125876000Y-61083809D01*
X125895047Y-61007619D01*
X125895047Y-60874285D01*
X125876000Y-60798095D01*
X125837904Y-60760000D01*
X125799809Y-60740952D01*
X125476000Y-60779047D02*
X125456952Y-60760000D01*
X125418857Y-60740952D01*
X125323619Y-60740952D01*
X125285523Y-60760000D01*
X125266476Y-60779047D01*
X125247428Y-60817142D01*
X125247428Y-60855238D01*
X125266476Y-60912380D01*
X125495047Y-61140952D01*
X125247428Y-61140952D01*
X125114095Y-60740952D02*
X124866476Y-60740952D01*
X124999809Y-60893333D01*
X124942666Y-60893333D01*
X124904571Y-60912380D01*
X124885523Y-60931428D01*
X124866476Y-60969523D01*
X124866476Y-61064761D01*
X124885523Y-61102857D01*
X124904571Y-61121904D01*
X124942666Y-61140952D01*
X125056952Y-61140952D01*
X125095047Y-61121904D01*
X125114095Y-61102857D01*
X126066476Y-63680952D02*
X126066476Y-63280952D01*
X125799809Y-63280952D02*
X125723619Y-63280952D01*
X125685523Y-63300000D01*
X125647428Y-63338095D01*
X125628380Y-63414285D01*
X125628380Y-63547619D01*
X125647428Y-63623809D01*
X125685523Y-63661904D01*
X125723619Y-63680952D01*
X125799809Y-63680952D01*
X125837904Y-63661904D01*
X125876000Y-63623809D01*
X125895047Y-63547619D01*
X125895047Y-63414285D01*
X125876000Y-63338095D01*
X125837904Y-63300000D01*
X125799809Y-63280952D01*
X125476000Y-63319047D02*
X125456952Y-63300000D01*
X125418857Y-63280952D01*
X125323619Y-63280952D01*
X125285523Y-63300000D01*
X125266476Y-63319047D01*
X125247428Y-63357142D01*
X125247428Y-63395238D01*
X125266476Y-63452380D01*
X125495047Y-63680952D01*
X125247428Y-63680952D01*
X125095047Y-63319047D02*
X125076000Y-63300000D01*
X125037904Y-63280952D01*
X124942666Y-63280952D01*
X124904571Y-63300000D01*
X124885523Y-63319047D01*
X124866476Y-63357142D01*
X124866476Y-63395238D01*
X124885523Y-63452380D01*
X125114095Y-63680952D01*
X124866476Y-63680952D01*
X126171238Y-65820952D02*
X125942666Y-65820952D01*
X126056952Y-66220952D02*
X126056952Y-65820952D01*
X125847428Y-65820952D02*
X125580761Y-66220952D01*
X125580761Y-65820952D02*
X125847428Y-66220952D01*
X125428380Y-66220952D02*
X125428380Y-65820952D01*
X125333142Y-65820952D01*
X125276000Y-65840000D01*
X125237904Y-65878095D01*
X125218857Y-65916190D01*
X125199809Y-65992380D01*
X125199809Y-66049523D01*
X125218857Y-66125714D01*
X125237904Y-66163809D01*
X125276000Y-66201904D01*
X125333142Y-66220952D01*
X125428380Y-66220952D01*
X124952190Y-65820952D02*
X124914095Y-65820952D01*
X124876000Y-65840000D01*
X124856952Y-65859047D01*
X124837904Y-65897142D01*
X124818857Y-65973333D01*
X124818857Y-66068571D01*
X124837904Y-66144761D01*
X124856952Y-66182857D01*
X124876000Y-66201904D01*
X124914095Y-66220952D01*
X124952190Y-66220952D01*
X124990285Y-66201904D01*
X125009333Y-66182857D01*
X125028380Y-66144761D01*
X125047428Y-66068571D01*
X125047428Y-65973333D01*
X125028380Y-65897142D01*
X125009333Y-65859047D01*
X124990285Y-65840000D01*
X124952190Y-65820952D01*
X125933142Y-68760952D02*
X126066476Y-68570476D01*
X126161714Y-68760952D02*
X126161714Y-68360952D01*
X126009333Y-68360952D01*
X125971238Y-68380000D01*
X125952190Y-68399047D01*
X125933142Y-68437142D01*
X125933142Y-68494285D01*
X125952190Y-68532380D01*
X125971238Y-68551428D01*
X126009333Y-68570476D01*
X126161714Y-68570476D01*
X125799809Y-68360952D02*
X125533142Y-68760952D01*
X125533142Y-68360952D02*
X125799809Y-68760952D01*
X125380761Y-68760952D02*
X125380761Y-68360952D01*
X125285523Y-68360952D01*
X125228380Y-68380000D01*
X125190285Y-68418095D01*
X125171238Y-68456190D01*
X125152190Y-68532380D01*
X125152190Y-68589523D01*
X125171238Y-68665714D01*
X125190285Y-68703809D01*
X125228380Y-68741904D01*
X125285523Y-68760952D01*
X125380761Y-68760952D01*
X124904571Y-68360952D02*
X124866476Y-68360952D01*
X124828380Y-68380000D01*
X124809333Y-68399047D01*
X124790285Y-68437142D01*
X124771238Y-68513333D01*
X124771238Y-68608571D01*
X124790285Y-68684761D01*
X124809333Y-68722857D01*
X124828380Y-68741904D01*
X124866476Y-68760952D01*
X124904571Y-68760952D01*
X124942666Y-68741904D01*
X124961714Y-68722857D01*
X124980761Y-68684761D01*
X124999809Y-68608571D01*
X124999809Y-68513333D01*
X124980761Y-68437142D01*
X124961714Y-68399047D01*
X124942666Y-68380000D01*
X124904571Y-68360952D01*
X126066476Y-71300952D02*
X126066476Y-70900952D01*
X125799809Y-70900952D02*
X125723619Y-70900952D01*
X125685523Y-70920000D01*
X125647428Y-70958095D01*
X125628380Y-71034285D01*
X125628380Y-71167619D01*
X125647428Y-71243809D01*
X125685523Y-71281904D01*
X125723619Y-71300952D01*
X125799809Y-71300952D01*
X125837904Y-71281904D01*
X125876000Y-71243809D01*
X125895047Y-71167619D01*
X125895047Y-71034285D01*
X125876000Y-70958095D01*
X125837904Y-70920000D01*
X125799809Y-70900952D01*
X125476000Y-70939047D02*
X125456952Y-70920000D01*
X125418857Y-70900952D01*
X125323619Y-70900952D01*
X125285523Y-70920000D01*
X125266476Y-70939047D01*
X125247428Y-70977142D01*
X125247428Y-71015238D01*
X125266476Y-71072380D01*
X125495047Y-71300952D01*
X125247428Y-71300952D01*
X124866476Y-71300952D02*
X125095047Y-71300952D01*
X124980761Y-71300952D02*
X124980761Y-70900952D01*
X125018857Y-70958095D01*
X125056952Y-70996190D01*
X125095047Y-71015238D01*
X126066476Y-76380952D02*
X126066476Y-75980952D01*
X125799809Y-75980952D02*
X125723619Y-75980952D01*
X125685523Y-76000000D01*
X125647428Y-76038095D01*
X125628380Y-76114285D01*
X125628380Y-76247619D01*
X125647428Y-76323809D01*
X125685523Y-76361904D01*
X125723619Y-76380952D01*
X125799809Y-76380952D01*
X125837904Y-76361904D01*
X125876000Y-76323809D01*
X125895047Y-76247619D01*
X125895047Y-76114285D01*
X125876000Y-76038095D01*
X125837904Y-76000000D01*
X125799809Y-75980952D01*
X125247428Y-76380952D02*
X125476000Y-76380952D01*
X125361714Y-76380952D02*
X125361714Y-75980952D01*
X125399809Y-76038095D01*
X125437904Y-76076190D01*
X125476000Y-76095238D01*
X125056952Y-76380952D02*
X124980761Y-76380952D01*
X124942666Y-76361904D01*
X124923619Y-76342857D01*
X124885523Y-76285714D01*
X124866476Y-76209523D01*
X124866476Y-76057142D01*
X124885523Y-76019047D01*
X124904571Y-76000000D01*
X124942666Y-75980952D01*
X125018857Y-75980952D01*
X125056952Y-76000000D01*
X125076000Y-76019047D01*
X125095047Y-76057142D01*
X125095047Y-76152380D01*
X125076000Y-76190476D01*
X125056952Y-76209523D01*
X125018857Y-76228571D01*
X124942666Y-76228571D01*
X124904571Y-76209523D01*
X124885523Y-76190476D01*
X124866476Y-76152380D01*
X126444095Y-78374000D02*
X126044095Y-78374000D01*
X126120285Y-78920952D02*
X126253619Y-78730476D01*
X126348857Y-78920952D02*
X126348857Y-78520952D01*
X126196476Y-78520952D01*
X126158380Y-78540000D01*
X126139333Y-78559047D01*
X126120285Y-78597142D01*
X126120285Y-78654285D01*
X126139333Y-78692380D01*
X126158380Y-78711428D01*
X126196476Y-78730476D01*
X126348857Y-78730476D01*
X126044095Y-78374000D02*
X125682190Y-78374000D01*
X125948857Y-78711428D02*
X125815523Y-78711428D01*
X125758380Y-78920952D02*
X125948857Y-78920952D01*
X125948857Y-78520952D01*
X125758380Y-78520952D01*
X125682190Y-78374000D02*
X125301238Y-78374000D01*
X125606000Y-78901904D02*
X125548857Y-78920952D01*
X125453619Y-78920952D01*
X125415523Y-78901904D01*
X125396476Y-78882857D01*
X125377428Y-78844761D01*
X125377428Y-78806666D01*
X125396476Y-78768571D01*
X125415523Y-78749523D01*
X125453619Y-78730476D01*
X125529809Y-78711428D01*
X125567904Y-78692380D01*
X125586952Y-78673333D01*
X125606000Y-78635238D01*
X125606000Y-78597142D01*
X125586952Y-78559047D01*
X125567904Y-78540000D01*
X125529809Y-78520952D01*
X125434571Y-78520952D01*
X125377428Y-78540000D01*
X125301238Y-78374000D02*
X124939333Y-78374000D01*
X125206000Y-78711428D02*
X125072666Y-78711428D01*
X125015523Y-78920952D02*
X125206000Y-78920952D01*
X125206000Y-78520952D01*
X125015523Y-78520952D01*
X124939333Y-78374000D02*
X124634571Y-78374000D01*
X124901238Y-78520952D02*
X124672666Y-78520952D01*
X124786952Y-78920952D02*
X124786952Y-78520952D01*
X124634571Y-78374000D02*
X124329809Y-78374000D01*
X124634571Y-78959047D02*
X124329809Y-78959047D01*
X124329809Y-78374000D02*
X123910761Y-78374000D01*
X124158380Y-78520952D02*
X124082190Y-78520952D01*
X124044095Y-78540000D01*
X124006000Y-78578095D01*
X123986952Y-78654285D01*
X123986952Y-78787619D01*
X124006000Y-78863809D01*
X124044095Y-78901904D01*
X124082190Y-78920952D01*
X124158380Y-78920952D01*
X124196476Y-78901904D01*
X124234571Y-78863809D01*
X124253619Y-78787619D01*
X124253619Y-78654285D01*
X124234571Y-78578095D01*
X124196476Y-78540000D01*
X124158380Y-78520952D01*
X123910761Y-78374000D02*
X123510761Y-78374000D01*
X123682190Y-78711428D02*
X123625047Y-78730476D01*
X123606000Y-78749523D01*
X123586952Y-78787619D01*
X123586952Y-78844761D01*
X123606000Y-78882857D01*
X123625047Y-78901904D01*
X123663142Y-78920952D01*
X123815523Y-78920952D01*
X123815523Y-78520952D01*
X123682190Y-78520952D01*
X123644095Y-78540000D01*
X123625047Y-78559047D01*
X123606000Y-78597142D01*
X123606000Y-78635238D01*
X123625047Y-78673333D01*
X123644095Y-78692380D01*
X123682190Y-78711428D01*
X123815523Y-78711428D01*
X123510761Y-78374000D02*
X123110761Y-78374000D01*
X123415523Y-78920952D02*
X123415523Y-78520952D01*
X123320285Y-78520952D01*
X123263142Y-78540000D01*
X123225047Y-78578095D01*
X123206000Y-78616190D01*
X123186952Y-78692380D01*
X123186952Y-78749523D01*
X123206000Y-78825714D01*
X123225047Y-78863809D01*
X123263142Y-78901904D01*
X123320285Y-78920952D01*
X123415523Y-78920952D01*
X123110761Y-78374000D02*
X122806000Y-78374000D01*
X123110761Y-78959047D02*
X122806000Y-78959047D01*
X122806000Y-78374000D02*
X122425047Y-78374000D01*
X122729809Y-78901904D02*
X122672666Y-78920952D01*
X122577428Y-78920952D01*
X122539333Y-78901904D01*
X122520285Y-78882857D01*
X122501238Y-78844761D01*
X122501238Y-78806666D01*
X122520285Y-78768571D01*
X122539333Y-78749523D01*
X122577428Y-78730476D01*
X122653619Y-78711428D01*
X122691714Y-78692380D01*
X122710761Y-78673333D01*
X122729809Y-78635238D01*
X122729809Y-78597142D01*
X122710761Y-78559047D01*
X122691714Y-78540000D01*
X122653619Y-78520952D01*
X122558380Y-78520952D01*
X122501238Y-78540000D01*
X122425047Y-78374000D02*
X121967904Y-78374000D01*
X122367904Y-78520952D02*
X122272666Y-78920952D01*
X122196476Y-78635238D01*
X122120285Y-78920952D01*
X122025047Y-78520952D01*
X126390190Y-80914000D02*
X126009238Y-80914000D01*
X126314000Y-81441904D02*
X126256857Y-81460952D01*
X126161619Y-81460952D01*
X126123523Y-81441904D01*
X126104476Y-81422857D01*
X126085428Y-81384761D01*
X126085428Y-81346666D01*
X126104476Y-81308571D01*
X126123523Y-81289523D01*
X126161619Y-81270476D01*
X126237809Y-81251428D01*
X126275904Y-81232380D01*
X126294952Y-81213333D01*
X126314000Y-81175238D01*
X126314000Y-81137142D01*
X126294952Y-81099047D01*
X126275904Y-81080000D01*
X126237809Y-81060952D01*
X126142571Y-81060952D01*
X126085428Y-81080000D01*
X126009238Y-80914000D02*
X125685428Y-80914000D01*
X125723523Y-81460952D02*
X125914000Y-81460952D01*
X125914000Y-81060952D01*
X125685428Y-80914000D02*
X125323523Y-80914000D01*
X125590190Y-81251428D02*
X125456857Y-81251428D01*
X125399714Y-81460952D02*
X125590190Y-81460952D01*
X125590190Y-81060952D01*
X125399714Y-81060952D01*
X125323523Y-80914000D02*
X124961619Y-80914000D01*
X125228285Y-81251428D02*
X125094952Y-81251428D01*
X125037809Y-81460952D02*
X125228285Y-81460952D01*
X125228285Y-81060952D01*
X125037809Y-81060952D01*
X124961619Y-80914000D02*
X124561619Y-80914000D01*
X124866380Y-81460952D02*
X124866380Y-81060952D01*
X124714000Y-81060952D01*
X124675904Y-81080000D01*
X124656857Y-81099047D01*
X124637809Y-81137142D01*
X124637809Y-81194285D01*
X124656857Y-81232380D01*
X124675904Y-81251428D01*
X124714000Y-81270476D01*
X124866380Y-81270476D01*
X124561619Y-80914000D02*
X124256857Y-80914000D01*
X124561619Y-81499047D02*
X124256857Y-81499047D01*
X124256857Y-80914000D02*
X123837809Y-80914000D01*
X124085428Y-81060952D02*
X124009238Y-81060952D01*
X123971142Y-81080000D01*
X123933047Y-81118095D01*
X123914000Y-81194285D01*
X123914000Y-81327619D01*
X123933047Y-81403809D01*
X123971142Y-81441904D01*
X124009238Y-81460952D01*
X124085428Y-81460952D01*
X124123523Y-81441904D01*
X124161619Y-81403809D01*
X124180666Y-81327619D01*
X124180666Y-81194285D01*
X124161619Y-81118095D01*
X124123523Y-81080000D01*
X124085428Y-81060952D01*
X123837809Y-80914000D02*
X123437809Y-80914000D01*
X123609238Y-81251428D02*
X123552095Y-81270476D01*
X123533047Y-81289523D01*
X123514000Y-81327619D01*
X123514000Y-81384761D01*
X123533047Y-81422857D01*
X123552095Y-81441904D01*
X123590190Y-81460952D01*
X123742571Y-81460952D01*
X123742571Y-81060952D01*
X123609238Y-81060952D01*
X123571142Y-81080000D01*
X123552095Y-81099047D01*
X123533047Y-81137142D01*
X123533047Y-81175238D01*
X123552095Y-81213333D01*
X123571142Y-81232380D01*
X123609238Y-81251428D01*
X123742571Y-81251428D01*
X123437809Y-80914000D02*
X123037809Y-80914000D01*
X123342571Y-81460952D02*
X123342571Y-81060952D01*
X123247333Y-81060952D01*
X123190190Y-81080000D01*
X123152095Y-81118095D01*
X123133047Y-81156190D01*
X123114000Y-81232380D01*
X123114000Y-81289523D01*
X123133047Y-81365714D01*
X123152095Y-81403809D01*
X123190190Y-81441904D01*
X123247333Y-81460952D01*
X123342571Y-81460952D01*
X126174380Y-84000952D02*
X126174380Y-83600952D01*
X126174380Y-83791428D02*
X125945809Y-83791428D01*
X125945809Y-84000952D02*
X125945809Y-83600952D01*
X125774380Y-83981904D02*
X125717238Y-84000952D01*
X125622000Y-84000952D01*
X125583904Y-83981904D01*
X125564857Y-83962857D01*
X125545809Y-83924761D01*
X125545809Y-83886666D01*
X125564857Y-83848571D01*
X125583904Y-83829523D01*
X125622000Y-83810476D01*
X125698190Y-83791428D01*
X125736285Y-83772380D01*
X125755333Y-83753333D01*
X125774380Y-83715238D01*
X125774380Y-83677142D01*
X125755333Y-83639047D01*
X125736285Y-83620000D01*
X125698190Y-83600952D01*
X125602952Y-83600952D01*
X125545809Y-83620000D01*
X125431523Y-83600952D02*
X125202952Y-83600952D01*
X125317238Y-84000952D02*
X125317238Y-83600952D01*
X125164857Y-84039047D02*
X124860095Y-84039047D01*
X124822000Y-83600952D02*
X124593428Y-83600952D01*
X124707714Y-84000952D02*
X124707714Y-83600952D01*
X124498190Y-83600952D02*
X124231523Y-84000952D01*
X124231523Y-83600952D02*
X124498190Y-84000952D01*
X126222000Y-86540952D02*
X126222000Y-86140952D01*
X126222000Y-86331428D02*
X125993428Y-86331428D01*
X125993428Y-86540952D02*
X125993428Y-86140952D01*
X125822000Y-86521904D02*
X125764857Y-86540952D01*
X125669619Y-86540952D01*
X125631523Y-86521904D01*
X125612476Y-86502857D01*
X125593428Y-86464761D01*
X125593428Y-86426666D01*
X125612476Y-86388571D01*
X125631523Y-86369523D01*
X125669619Y-86350476D01*
X125745809Y-86331428D01*
X125783904Y-86312380D01*
X125802952Y-86293333D01*
X125822000Y-86255238D01*
X125822000Y-86217142D01*
X125802952Y-86179047D01*
X125783904Y-86160000D01*
X125745809Y-86140952D01*
X125650571Y-86140952D01*
X125593428Y-86160000D01*
X125479142Y-86140952D02*
X125250571Y-86140952D01*
X125364857Y-86540952D02*
X125364857Y-86140952D01*
X125212476Y-86579047D02*
X124907714Y-86579047D01*
X124583904Y-86540952D02*
X124717238Y-86350476D01*
X124812476Y-86540952D02*
X124812476Y-86140952D01*
X124660095Y-86140952D01*
X124622000Y-86160000D01*
X124602952Y-86179047D01*
X124583904Y-86217142D01*
X124583904Y-86274285D01*
X124602952Y-86312380D01*
X124622000Y-86331428D01*
X124660095Y-86350476D01*
X124812476Y-86350476D01*
X124450571Y-86140952D02*
X124183904Y-86540952D01*
X124183904Y-86140952D02*
X124450571Y-86540952D01*
X126384000Y-89080952D02*
X126384000Y-88680952D01*
X126117333Y-88680952D02*
X126041142Y-88680952D01*
X126003047Y-88700000D01*
X125964952Y-88738095D01*
X125945904Y-88814285D01*
X125945904Y-88947619D01*
X125964952Y-89023809D01*
X126003047Y-89061904D01*
X126041142Y-89080952D01*
X126117333Y-89080952D01*
X126155428Y-89061904D01*
X126193523Y-89023809D01*
X126212571Y-88947619D01*
X126212571Y-88814285D01*
X126193523Y-88738095D01*
X126155428Y-88700000D01*
X126117333Y-88680952D01*
X125603047Y-88814285D02*
X125603047Y-89080952D01*
X125698285Y-88661904D02*
X125793523Y-88947619D01*
X125545904Y-88947619D01*
X126384000Y-91620952D02*
X126384000Y-91220952D01*
X126117333Y-91220952D02*
X126041142Y-91220952D01*
X126003047Y-91240000D01*
X125964952Y-91278095D01*
X125945904Y-91354285D01*
X125945904Y-91487619D01*
X125964952Y-91563809D01*
X126003047Y-91601904D01*
X126041142Y-91620952D01*
X126117333Y-91620952D01*
X126155428Y-91601904D01*
X126193523Y-91563809D01*
X126212571Y-91487619D01*
X126212571Y-91354285D01*
X126193523Y-91278095D01*
X126155428Y-91240000D01*
X126117333Y-91220952D01*
X125698285Y-91220952D02*
X125660190Y-91220952D01*
X125622095Y-91240000D01*
X125603047Y-91259047D01*
X125584000Y-91297142D01*
X125564952Y-91373333D01*
X125564952Y-91468571D01*
X125584000Y-91544761D01*
X125603047Y-91582857D01*
X125622095Y-91601904D01*
X125660190Y-91620952D01*
X125698285Y-91620952D01*
X125736380Y-91601904D01*
X125755428Y-91582857D01*
X125774476Y-91544761D01*
X125793523Y-91468571D01*
X125793523Y-91373333D01*
X125774476Y-91297142D01*
X125755428Y-91259047D01*
X125736380Y-91240000D01*
X125698285Y-91220952D01*
X126384000Y-94160952D02*
X126384000Y-93760952D01*
X126117333Y-93760952D02*
X126041142Y-93760952D01*
X126003047Y-93780000D01*
X125964952Y-93818095D01*
X125945904Y-93894285D01*
X125945904Y-94027619D01*
X125964952Y-94103809D01*
X126003047Y-94141904D01*
X126041142Y-94160952D01*
X126117333Y-94160952D01*
X126155428Y-94141904D01*
X126193523Y-94103809D01*
X126212571Y-94027619D01*
X126212571Y-93894285D01*
X126193523Y-93818095D01*
X126155428Y-93780000D01*
X126117333Y-93760952D01*
X125793523Y-93799047D02*
X125774476Y-93780000D01*
X125736380Y-93760952D01*
X125641142Y-93760952D01*
X125603047Y-93780000D01*
X125584000Y-93799047D01*
X125564952Y-93837142D01*
X125564952Y-93875238D01*
X125584000Y-93932380D01*
X125812571Y-94160952D01*
X125564952Y-94160952D01*
X126574476Y-96700952D02*
X126574476Y-96300952D01*
X126307809Y-96300952D02*
X126231619Y-96300952D01*
X126193523Y-96320000D01*
X126155428Y-96358095D01*
X126136380Y-96434285D01*
X126136380Y-96567619D01*
X126155428Y-96643809D01*
X126193523Y-96681904D01*
X126231619Y-96700952D01*
X126307809Y-96700952D01*
X126345904Y-96681904D01*
X126384000Y-96643809D01*
X126403047Y-96567619D01*
X126403047Y-96434285D01*
X126384000Y-96358095D01*
X126345904Y-96320000D01*
X126307809Y-96300952D01*
X125984000Y-96339047D02*
X125964952Y-96320000D01*
X125926857Y-96300952D01*
X125831619Y-96300952D01*
X125793523Y-96320000D01*
X125774476Y-96339047D01*
X125755428Y-96377142D01*
X125755428Y-96415238D01*
X125774476Y-96472380D01*
X126003047Y-96700952D01*
X125755428Y-96700952D01*
X125622095Y-96300952D02*
X125374476Y-96300952D01*
X125507809Y-96453333D01*
X125450666Y-96453333D01*
X125412571Y-96472380D01*
X125393523Y-96491428D01*
X125374476Y-96529523D01*
X125374476Y-96624761D01*
X125393523Y-96662857D01*
X125412571Y-96681904D01*
X125450666Y-96700952D01*
X125564952Y-96700952D01*
X125603047Y-96681904D01*
X125622095Y-96662857D01*
X126060190Y-98840952D02*
X126250666Y-98840952D01*
X126269714Y-99031428D01*
X126250666Y-99012380D01*
X126212571Y-98993333D01*
X126117333Y-98993333D01*
X126079238Y-99012380D01*
X126060190Y-99031428D01*
X126041142Y-99069523D01*
X126041142Y-99164761D01*
X126060190Y-99202857D01*
X126079238Y-99221904D01*
X126117333Y-99240952D01*
X126212571Y-99240952D01*
X126250666Y-99221904D01*
X126269714Y-99202857D01*
X125926857Y-98840952D02*
X125793523Y-99240952D01*
X125660190Y-98840952D01*
X126260190Y-106480000D02*
X126298285Y-106460952D01*
X126355428Y-106460952D01*
X126412571Y-106480000D01*
X126450666Y-106518095D01*
X126469714Y-106556190D01*
X126488761Y-106632380D01*
X126488761Y-106689523D01*
X126469714Y-106765714D01*
X126450666Y-106803809D01*
X126412571Y-106841904D01*
X126355428Y-106860952D01*
X126317333Y-106860952D01*
X126260190Y-106841904D01*
X126241142Y-106822857D01*
X126241142Y-106689523D01*
X126317333Y-106689523D01*
X126069714Y-106594285D02*
X126069714Y-106860952D01*
X126069714Y-106632380D02*
X126050666Y-106613333D01*
X126012571Y-106594285D01*
X125955428Y-106594285D01*
X125917333Y-106613333D01*
X125898285Y-106651428D01*
X125898285Y-106860952D01*
X125707809Y-106860952D02*
X125707809Y-106460952D01*
X125612571Y-106460952D01*
X125555428Y-106480000D01*
X125517333Y-106518095D01*
X125498285Y-106556190D01*
X125479238Y-106632380D01*
X125479238Y-106689523D01*
X125498285Y-106765714D01*
X125517333Y-106803809D01*
X125555428Y-106841904D01*
X125612571Y-106860952D01*
X125707809Y-106860952D01*
%TO.C,C_ESP_1*%
D15*
X89552379Y-58375318D02*
X89576188Y-58399127D01*
X89647617Y-58422937D01*
X89695236Y-58422937D01*
X89766665Y-58399127D01*
X89814284Y-58351508D01*
X89838093Y-58303889D01*
X89861903Y-58208651D01*
X89861903Y-58137223D01*
X89838093Y-58041985D01*
X89814284Y-57994366D01*
X89766665Y-57946747D01*
X89695236Y-57922937D01*
X89647617Y-57922937D01*
X89576188Y-57946747D01*
X89552379Y-57970556D01*
X89457141Y-58470556D02*
X89076188Y-58470556D01*
X88957141Y-58161032D02*
X88790474Y-58161032D01*
X88719046Y-58422937D02*
X88957141Y-58422937D01*
X88957141Y-57922937D01*
X88719046Y-57922937D01*
X88528569Y-58399127D02*
X88457141Y-58422937D01*
X88338093Y-58422937D01*
X88290474Y-58399127D01*
X88266665Y-58375318D01*
X88242855Y-58327699D01*
X88242855Y-58280080D01*
X88266665Y-58232461D01*
X88290474Y-58208651D01*
X88338093Y-58184842D01*
X88433331Y-58161032D01*
X88480950Y-58137223D01*
X88504760Y-58113413D01*
X88528569Y-58065794D01*
X88528569Y-58018175D01*
X88504760Y-57970556D01*
X88480950Y-57946747D01*
X88433331Y-57922937D01*
X88314284Y-57922937D01*
X88242855Y-57946747D01*
X88028569Y-58422937D02*
X88028569Y-57922937D01*
X87838093Y-57922937D01*
X87790474Y-57946747D01*
X87766665Y-57970556D01*
X87742855Y-58018175D01*
X87742855Y-58089604D01*
X87766665Y-58137223D01*
X87790474Y-58161032D01*
X87838093Y-58184842D01*
X88028569Y-58184842D01*
X87647617Y-58470556D02*
X87266665Y-58470556D01*
X86885712Y-58422937D02*
X87171427Y-58422937D01*
X87028569Y-58422937D02*
X87028569Y-57922937D01*
X87076188Y-57994366D01*
X87123808Y-58041985D01*
X87171427Y-58065794D01*
%TO.C,C_HSCAN_1*%
X75393318Y-90593215D02*
X75417127Y-90569406D01*
X75440937Y-90497977D01*
X75440937Y-90450358D01*
X75417127Y-90378930D01*
X75369508Y-90331311D01*
X75321889Y-90307501D01*
X75226651Y-90283692D01*
X75155223Y-90283692D01*
X75059985Y-90307501D01*
X75012366Y-90331311D01*
X74964747Y-90378930D01*
X74940937Y-90450358D01*
X74940937Y-90497977D01*
X74964747Y-90569406D01*
X74988556Y-90593215D01*
X75488556Y-90688453D02*
X75488556Y-91069406D01*
X75440937Y-91188453D02*
X74940937Y-91188453D01*
X75179032Y-91188453D02*
X75179032Y-91474168D01*
X75440937Y-91474168D02*
X74940937Y-91474168D01*
X75417127Y-91688453D02*
X75440937Y-91759882D01*
X75440937Y-91878930D01*
X75417127Y-91926549D01*
X75393318Y-91950358D01*
X75345699Y-91974168D01*
X75298080Y-91974168D01*
X75250461Y-91950358D01*
X75226651Y-91926549D01*
X75202842Y-91878930D01*
X75179032Y-91783692D01*
X75155223Y-91736072D01*
X75131413Y-91712263D01*
X75083794Y-91688453D01*
X75036175Y-91688453D01*
X74988556Y-91712263D01*
X74964747Y-91736072D01*
X74940937Y-91783692D01*
X74940937Y-91902739D01*
X74964747Y-91974168D01*
X75393318Y-92474168D02*
X75417127Y-92450358D01*
X75440937Y-92378930D01*
X75440937Y-92331311D01*
X75417127Y-92259882D01*
X75369508Y-92212263D01*
X75321889Y-92188453D01*
X75226651Y-92164644D01*
X75155223Y-92164644D01*
X75059985Y-92188453D01*
X75012366Y-92212263D01*
X74964747Y-92259882D01*
X74940937Y-92331311D01*
X74940937Y-92378930D01*
X74964747Y-92450358D01*
X74988556Y-92474168D01*
X75298080Y-92664644D02*
X75298080Y-92902739D01*
X75440937Y-92617025D02*
X74940937Y-92783692D01*
X75440937Y-92950358D01*
X75440937Y-93117025D02*
X74940937Y-93117025D01*
X75440937Y-93402739D01*
X74940937Y-93402739D01*
X75488556Y-93521787D02*
X75488556Y-93902739D01*
X75440937Y-94283692D02*
X75440937Y-93997977D01*
X75440937Y-94140834D02*
X74940937Y-94140834D01*
X75012366Y-94093215D01*
X75059985Y-94045596D01*
X75083794Y-93997977D01*
%TO.C,C_HSCAN_2*%
X87808571Y-91273523D02*
X87832380Y-91249714D01*
X87856190Y-91178285D01*
X87856190Y-91130666D01*
X87832380Y-91059238D01*
X87784761Y-91011619D01*
X87737142Y-90987809D01*
X87641904Y-90964000D01*
X87570476Y-90964000D01*
X87475238Y-90987809D01*
X87427619Y-91011619D01*
X87380000Y-91059238D01*
X87356190Y-91130666D01*
X87356190Y-91178285D01*
X87380000Y-91249714D01*
X87403809Y-91273523D01*
X87903809Y-91368761D02*
X87903809Y-91749714D01*
X87856190Y-91868761D02*
X87356190Y-91868761D01*
X87594285Y-91868761D02*
X87594285Y-92154476D01*
X87856190Y-92154476D02*
X87356190Y-92154476D01*
X87832380Y-92368761D02*
X87856190Y-92440190D01*
X87856190Y-92559238D01*
X87832380Y-92606857D01*
X87808571Y-92630666D01*
X87760952Y-92654476D01*
X87713333Y-92654476D01*
X87665714Y-92630666D01*
X87641904Y-92606857D01*
X87618095Y-92559238D01*
X87594285Y-92464000D01*
X87570476Y-92416380D01*
X87546666Y-92392571D01*
X87499047Y-92368761D01*
X87451428Y-92368761D01*
X87403809Y-92392571D01*
X87380000Y-92416380D01*
X87356190Y-92464000D01*
X87356190Y-92583047D01*
X87380000Y-92654476D01*
X87808571Y-93154476D02*
X87832380Y-93130666D01*
X87856190Y-93059238D01*
X87856190Y-93011619D01*
X87832380Y-92940190D01*
X87784761Y-92892571D01*
X87737142Y-92868761D01*
X87641904Y-92844952D01*
X87570476Y-92844952D01*
X87475238Y-92868761D01*
X87427619Y-92892571D01*
X87380000Y-92940190D01*
X87356190Y-93011619D01*
X87356190Y-93059238D01*
X87380000Y-93130666D01*
X87403809Y-93154476D01*
X87713333Y-93344952D02*
X87713333Y-93583047D01*
X87856190Y-93297333D02*
X87356190Y-93464000D01*
X87856190Y-93630666D01*
X87856190Y-93797333D02*
X87356190Y-93797333D01*
X87856190Y-94083047D01*
X87356190Y-94083047D01*
X87903809Y-94202095D02*
X87903809Y-94583047D01*
X87403809Y-94678285D02*
X87380000Y-94702095D01*
X87356190Y-94749714D01*
X87356190Y-94868761D01*
X87380000Y-94916380D01*
X87403809Y-94940190D01*
X87451428Y-94964000D01*
X87499047Y-94964000D01*
X87570476Y-94940190D01*
X87856190Y-94654476D01*
X87856190Y-94964000D01*
%TO.C,C_PS_1*%
X109346857Y-153884285D02*
X109375428Y-153912857D01*
X109461142Y-153941428D01*
X109518285Y-153941428D01*
X109604000Y-153912857D01*
X109661142Y-153855714D01*
X109689714Y-153798571D01*
X109718285Y-153684285D01*
X109718285Y-153598571D01*
X109689714Y-153484285D01*
X109661142Y-153427142D01*
X109604000Y-153370000D01*
X109518285Y-153341428D01*
X109461142Y-153341428D01*
X109375428Y-153370000D01*
X109346857Y-153398571D01*
X109232571Y-153998571D02*
X108775428Y-153998571D01*
X108632571Y-153941428D02*
X108632571Y-153341428D01*
X108404000Y-153341428D01*
X108346857Y-153370000D01*
X108318285Y-153398571D01*
X108289714Y-153455714D01*
X108289714Y-153541428D01*
X108318285Y-153598571D01*
X108346857Y-153627142D01*
X108404000Y-153655714D01*
X108632571Y-153655714D01*
X108061142Y-153912857D02*
X107975428Y-153941428D01*
X107832571Y-153941428D01*
X107775428Y-153912857D01*
X107746857Y-153884285D01*
X107718285Y-153827142D01*
X107718285Y-153770000D01*
X107746857Y-153712857D01*
X107775428Y-153684285D01*
X107832571Y-153655714D01*
X107946857Y-153627142D01*
X108004000Y-153598571D01*
X108032571Y-153570000D01*
X108061142Y-153512857D01*
X108061142Y-153455714D01*
X108032571Y-153398571D01*
X108004000Y-153370000D01*
X107946857Y-153341428D01*
X107804000Y-153341428D01*
X107718285Y-153370000D01*
X107604000Y-153998571D02*
X107146857Y-153998571D01*
X106689714Y-153941428D02*
X107032571Y-153941428D01*
X106861142Y-153941428D02*
X106861142Y-153341428D01*
X106918285Y-153427142D01*
X106975428Y-153484285D01*
X107032571Y-153512857D01*
D10*
X109349998Y-154900380D02*
X109349998Y-155138476D01*
X109588093Y-155043238D02*
X109349998Y-155138476D01*
X109111902Y-155043238D01*
X109492855Y-155328952D02*
X109349998Y-155138476D01*
X109207140Y-155328952D01*
%TO.C,D_ESD_1*%
D15*
X92142285Y-149578190D02*
X92142285Y-149078190D01*
X92023238Y-149078190D01*
X91951809Y-149102000D01*
X91904190Y-149149619D01*
X91880380Y-149197238D01*
X91856571Y-149292476D01*
X91856571Y-149363904D01*
X91880380Y-149459142D01*
X91904190Y-149506761D01*
X91951809Y-149554380D01*
X92023238Y-149578190D01*
X92142285Y-149578190D01*
X91761333Y-149625809D02*
X91380380Y-149625809D01*
X91261333Y-149316285D02*
X91094666Y-149316285D01*
X91023238Y-149578190D02*
X91261333Y-149578190D01*
X91261333Y-149078190D01*
X91023238Y-149078190D01*
X90832761Y-149554380D02*
X90761333Y-149578190D01*
X90642285Y-149578190D01*
X90594666Y-149554380D01*
X90570857Y-149530571D01*
X90547047Y-149482952D01*
X90547047Y-149435333D01*
X90570857Y-149387714D01*
X90594666Y-149363904D01*
X90642285Y-149340095D01*
X90737523Y-149316285D01*
X90785142Y-149292476D01*
X90808952Y-149268666D01*
X90832761Y-149221047D01*
X90832761Y-149173428D01*
X90808952Y-149125809D01*
X90785142Y-149102000D01*
X90737523Y-149078190D01*
X90618476Y-149078190D01*
X90547047Y-149102000D01*
X90332761Y-149578190D02*
X90332761Y-149078190D01*
X90213714Y-149078190D01*
X90142285Y-149102000D01*
X90094666Y-149149619D01*
X90070857Y-149197238D01*
X90047047Y-149292476D01*
X90047047Y-149363904D01*
X90070857Y-149459142D01*
X90094666Y-149506761D01*
X90142285Y-149554380D01*
X90213714Y-149578190D01*
X90332761Y-149578190D01*
X89951809Y-149625809D02*
X89570857Y-149625809D01*
X89189904Y-149578190D02*
X89475619Y-149578190D01*
X89332761Y-149578190D02*
X89332761Y-149078190D01*
X89380380Y-149149619D01*
X89428000Y-149197238D01*
X89475619Y-149221047D01*
%TO.C,D_ESD_2*%
X99585428Y-158770857D02*
X98985428Y-158770857D01*
X98985428Y-158913714D01*
X99014000Y-158999428D01*
X99071142Y-159056571D01*
X99128285Y-159085142D01*
X99242571Y-159113714D01*
X99328285Y-159113714D01*
X99442571Y-159085142D01*
X99499714Y-159056571D01*
X99556857Y-158999428D01*
X99585428Y-158913714D01*
X99585428Y-158770857D01*
X99642571Y-159228000D02*
X99642571Y-159685142D01*
X99271142Y-159828000D02*
X99271142Y-160028000D01*
X99585428Y-160113714D02*
X99585428Y-159828000D01*
X98985428Y-159828000D01*
X98985428Y-160113714D01*
X99556857Y-160342285D02*
X99585428Y-160428000D01*
X99585428Y-160570857D01*
X99556857Y-160628000D01*
X99528285Y-160656571D01*
X99471142Y-160685142D01*
X99414000Y-160685142D01*
X99356857Y-160656571D01*
X99328285Y-160628000D01*
X99299714Y-160570857D01*
X99271142Y-160456571D01*
X99242571Y-160399428D01*
X99214000Y-160370857D01*
X99156857Y-160342285D01*
X99099714Y-160342285D01*
X99042571Y-160370857D01*
X99014000Y-160399428D01*
X98985428Y-160456571D01*
X98985428Y-160599428D01*
X99014000Y-160685142D01*
X99585428Y-160942285D02*
X98985428Y-160942285D01*
X98985428Y-161085142D01*
X99014000Y-161170857D01*
X99071142Y-161228000D01*
X99128285Y-161256571D01*
X99242571Y-161285142D01*
X99328285Y-161285142D01*
X99442571Y-161256571D01*
X99499714Y-161228000D01*
X99556857Y-161170857D01*
X99585428Y-161085142D01*
X99585428Y-160942285D01*
X99642571Y-161399428D02*
X99642571Y-161856571D01*
X99042571Y-161970857D02*
X99014000Y-161999428D01*
X98985428Y-162056571D01*
X98985428Y-162199428D01*
X99014000Y-162256571D01*
X99042571Y-162285142D01*
X99099714Y-162313714D01*
X99156857Y-162313714D01*
X99242571Y-162285142D01*
X99585428Y-161942285D01*
X99585428Y-162313714D01*
%TO.C,D_ESD_3*%
X111446285Y-162786190D02*
X111446285Y-162286190D01*
X111327238Y-162286190D01*
X111255809Y-162310000D01*
X111208190Y-162357619D01*
X111184380Y-162405238D01*
X111160571Y-162500476D01*
X111160571Y-162571904D01*
X111184380Y-162667142D01*
X111208190Y-162714761D01*
X111255809Y-162762380D01*
X111327238Y-162786190D01*
X111446285Y-162786190D01*
X111065333Y-162833809D02*
X110684380Y-162833809D01*
X110565333Y-162524285D02*
X110398666Y-162524285D01*
X110327238Y-162786190D02*
X110565333Y-162786190D01*
X110565333Y-162286190D01*
X110327238Y-162286190D01*
X110136761Y-162762380D02*
X110065333Y-162786190D01*
X109946285Y-162786190D01*
X109898666Y-162762380D01*
X109874857Y-162738571D01*
X109851047Y-162690952D01*
X109851047Y-162643333D01*
X109874857Y-162595714D01*
X109898666Y-162571904D01*
X109946285Y-162548095D01*
X110041523Y-162524285D01*
X110089142Y-162500476D01*
X110112952Y-162476666D01*
X110136761Y-162429047D01*
X110136761Y-162381428D01*
X110112952Y-162333809D01*
X110089142Y-162310000D01*
X110041523Y-162286190D01*
X109922476Y-162286190D01*
X109851047Y-162310000D01*
X109636761Y-162786190D02*
X109636761Y-162286190D01*
X109517714Y-162286190D01*
X109446285Y-162310000D01*
X109398666Y-162357619D01*
X109374857Y-162405238D01*
X109351047Y-162500476D01*
X109351047Y-162571904D01*
X109374857Y-162667142D01*
X109398666Y-162714761D01*
X109446285Y-162762380D01*
X109517714Y-162786190D01*
X109636761Y-162786190D01*
X109255809Y-162833809D02*
X108874857Y-162833809D01*
X108803428Y-162286190D02*
X108493904Y-162286190D01*
X108660571Y-162476666D01*
X108589142Y-162476666D01*
X108541523Y-162500476D01*
X108517714Y-162524285D01*
X108493904Y-162571904D01*
X108493904Y-162690952D01*
X108517714Y-162738571D01*
X108541523Y-162762380D01*
X108589142Y-162786190D01*
X108732000Y-162786190D01*
X108779619Y-162762380D01*
X108803428Y-162738571D01*
D10*
X109982000Y-159472380D02*
X109982000Y-159710476D01*
X110220095Y-159615238D02*
X109982000Y-159710476D01*
X109743904Y-159615238D01*
X110124857Y-159900952D02*
X109982000Y-159710476D01*
X109839142Y-159900952D01*
%TO.C,D_ESD_4*%
D15*
X91910285Y-154040890D02*
X91910285Y-153540890D01*
X91791238Y-153540890D01*
X91719809Y-153564700D01*
X91672190Y-153612319D01*
X91648380Y-153659938D01*
X91624571Y-153755176D01*
X91624571Y-153826604D01*
X91648380Y-153921842D01*
X91672190Y-153969461D01*
X91719809Y-154017080D01*
X91791238Y-154040890D01*
X91910285Y-154040890D01*
X91529333Y-154088509D02*
X91148380Y-154088509D01*
X91029333Y-153778985D02*
X90862666Y-153778985D01*
X90791238Y-154040890D02*
X91029333Y-154040890D01*
X91029333Y-153540890D01*
X90791238Y-153540890D01*
X90600761Y-154017080D02*
X90529333Y-154040890D01*
X90410285Y-154040890D01*
X90362666Y-154017080D01*
X90338857Y-153993271D01*
X90315047Y-153945652D01*
X90315047Y-153898033D01*
X90338857Y-153850414D01*
X90362666Y-153826604D01*
X90410285Y-153802795D01*
X90505523Y-153778985D01*
X90553142Y-153755176D01*
X90576952Y-153731366D01*
X90600761Y-153683747D01*
X90600761Y-153636128D01*
X90576952Y-153588509D01*
X90553142Y-153564700D01*
X90505523Y-153540890D01*
X90386476Y-153540890D01*
X90315047Y-153564700D01*
X90100761Y-154040890D02*
X90100761Y-153540890D01*
X89981714Y-153540890D01*
X89910285Y-153564700D01*
X89862666Y-153612319D01*
X89838857Y-153659938D01*
X89815047Y-153755176D01*
X89815047Y-153826604D01*
X89838857Y-153921842D01*
X89862666Y-153969461D01*
X89910285Y-154017080D01*
X89981714Y-154040890D01*
X90100761Y-154040890D01*
X89719809Y-154088509D02*
X89338857Y-154088509D01*
X89005523Y-153707557D02*
X89005523Y-154040890D01*
X89124571Y-153517080D02*
X89243619Y-153874223D01*
X88934095Y-153874223D01*
%TO.C,D_ESD_5*%
X94541390Y-158724214D02*
X94041390Y-158724214D01*
X94041390Y-158843261D01*
X94065200Y-158914690D01*
X94112819Y-158962309D01*
X94160438Y-158986119D01*
X94255676Y-159009928D01*
X94327104Y-159009928D01*
X94422342Y-158986119D01*
X94469961Y-158962309D01*
X94517580Y-158914690D01*
X94541390Y-158843261D01*
X94541390Y-158724214D01*
X94589009Y-159105166D02*
X94589009Y-159486119D01*
X94279485Y-159605166D02*
X94279485Y-159771833D01*
X94541390Y-159843261D02*
X94541390Y-159605166D01*
X94041390Y-159605166D01*
X94041390Y-159843261D01*
X94517580Y-160033738D02*
X94541390Y-160105166D01*
X94541390Y-160224214D01*
X94517580Y-160271833D01*
X94493771Y-160295642D01*
X94446152Y-160319452D01*
X94398533Y-160319452D01*
X94350914Y-160295642D01*
X94327104Y-160271833D01*
X94303295Y-160224214D01*
X94279485Y-160128976D01*
X94255676Y-160081357D01*
X94231866Y-160057547D01*
X94184247Y-160033738D01*
X94136628Y-160033738D01*
X94089009Y-160057547D01*
X94065200Y-160081357D01*
X94041390Y-160128976D01*
X94041390Y-160248023D01*
X94065200Y-160319452D01*
X94541390Y-160533738D02*
X94041390Y-160533738D01*
X94041390Y-160652785D01*
X94065200Y-160724214D01*
X94112819Y-160771833D01*
X94160438Y-160795642D01*
X94255676Y-160819452D01*
X94327104Y-160819452D01*
X94422342Y-160795642D01*
X94469961Y-160771833D01*
X94517580Y-160724214D01*
X94541390Y-160652785D01*
X94541390Y-160533738D01*
X94589009Y-160914690D02*
X94589009Y-161295642D01*
X94041390Y-161652785D02*
X94041390Y-161414690D01*
X94279485Y-161390880D01*
X94255676Y-161414690D01*
X94231866Y-161462309D01*
X94231866Y-161581357D01*
X94255676Y-161628976D01*
X94279485Y-161652785D01*
X94327104Y-161676595D01*
X94446152Y-161676595D01*
X94493771Y-161652785D01*
X94517580Y-161628976D01*
X94541390Y-161581357D01*
X94541390Y-161462309D01*
X94517580Y-161414690D01*
X94493771Y-161390880D01*
%TO.C,R_COMP_5*%
X118619690Y-103688095D02*
X118381595Y-103521428D01*
X118619690Y-103402380D02*
X118119690Y-103402380D01*
X118119690Y-103592857D01*
X118143500Y-103640476D01*
X118167309Y-103664285D01*
X118214928Y-103688095D01*
X118286357Y-103688095D01*
X118333976Y-103664285D01*
X118357785Y-103640476D01*
X118381595Y-103592857D01*
X118381595Y-103402380D01*
X118667309Y-103783333D02*
X118667309Y-104164285D01*
X118572071Y-104569047D02*
X118595880Y-104545238D01*
X118619690Y-104473809D01*
X118619690Y-104426190D01*
X118595880Y-104354761D01*
X118548261Y-104307142D01*
X118500642Y-104283333D01*
X118405404Y-104259523D01*
X118333976Y-104259523D01*
X118238738Y-104283333D01*
X118191119Y-104307142D01*
X118143500Y-104354761D01*
X118119690Y-104426190D01*
X118119690Y-104473809D01*
X118143500Y-104545238D01*
X118167309Y-104569047D01*
X118119690Y-104878571D02*
X118119690Y-104973809D01*
X118143500Y-105021428D01*
X118191119Y-105069047D01*
X118286357Y-105092857D01*
X118453023Y-105092857D01*
X118548261Y-105069047D01*
X118595880Y-105021428D01*
X118619690Y-104973809D01*
X118619690Y-104878571D01*
X118595880Y-104830952D01*
X118548261Y-104783333D01*
X118453023Y-104759523D01*
X118286357Y-104759523D01*
X118191119Y-104783333D01*
X118143500Y-104830952D01*
X118119690Y-104878571D01*
X118619690Y-105307142D02*
X118119690Y-105307142D01*
X118476833Y-105473809D01*
X118119690Y-105640476D01*
X118619690Y-105640476D01*
X118619690Y-105878571D02*
X118119690Y-105878571D01*
X118119690Y-106069047D01*
X118143500Y-106116666D01*
X118167309Y-106140476D01*
X118214928Y-106164285D01*
X118286357Y-106164285D01*
X118333976Y-106140476D01*
X118357785Y-106116666D01*
X118381595Y-106069047D01*
X118381595Y-105878571D01*
X118667309Y-106259523D02*
X118667309Y-106640476D01*
X118119690Y-106997619D02*
X118119690Y-106759523D01*
X118357785Y-106735714D01*
X118333976Y-106759523D01*
X118310166Y-106807142D01*
X118310166Y-106926190D01*
X118333976Y-106973809D01*
X118357785Y-106997619D01*
X118405404Y-107021428D01*
X118524452Y-107021428D01*
X118572071Y-106997619D01*
X118595880Y-106973809D01*
X118619690Y-106926190D01*
X118619690Y-106807142D01*
X118595880Y-106759523D01*
X118572071Y-106735714D01*
%TO.C,R_COMP_4*%
X120656190Y-108108595D02*
X120418095Y-107941928D01*
X120656190Y-107822880D02*
X120156190Y-107822880D01*
X120156190Y-108013357D01*
X120180000Y-108060976D01*
X120203809Y-108084785D01*
X120251428Y-108108595D01*
X120322857Y-108108595D01*
X120370476Y-108084785D01*
X120394285Y-108060976D01*
X120418095Y-108013357D01*
X120418095Y-107822880D01*
X120703809Y-108203833D02*
X120703809Y-108584785D01*
X120608571Y-108989547D02*
X120632380Y-108965738D01*
X120656190Y-108894309D01*
X120656190Y-108846690D01*
X120632380Y-108775261D01*
X120584761Y-108727642D01*
X120537142Y-108703833D01*
X120441904Y-108680023D01*
X120370476Y-108680023D01*
X120275238Y-108703833D01*
X120227619Y-108727642D01*
X120180000Y-108775261D01*
X120156190Y-108846690D01*
X120156190Y-108894309D01*
X120180000Y-108965738D01*
X120203809Y-108989547D01*
X120156190Y-109299071D02*
X120156190Y-109394309D01*
X120180000Y-109441928D01*
X120227619Y-109489547D01*
X120322857Y-109513357D01*
X120489523Y-109513357D01*
X120584761Y-109489547D01*
X120632380Y-109441928D01*
X120656190Y-109394309D01*
X120656190Y-109299071D01*
X120632380Y-109251452D01*
X120584761Y-109203833D01*
X120489523Y-109180023D01*
X120322857Y-109180023D01*
X120227619Y-109203833D01*
X120180000Y-109251452D01*
X120156190Y-109299071D01*
X120656190Y-109727642D02*
X120156190Y-109727642D01*
X120513333Y-109894309D01*
X120156190Y-110060976D01*
X120656190Y-110060976D01*
X120656190Y-110299071D02*
X120156190Y-110299071D01*
X120156190Y-110489547D01*
X120180000Y-110537166D01*
X120203809Y-110560976D01*
X120251428Y-110584785D01*
X120322857Y-110584785D01*
X120370476Y-110560976D01*
X120394285Y-110537166D01*
X120418095Y-110489547D01*
X120418095Y-110299071D01*
X120703809Y-110680023D02*
X120703809Y-111060976D01*
X120322857Y-111394309D02*
X120656190Y-111394309D01*
X120132380Y-111275261D02*
X120489523Y-111156214D01*
X120489523Y-111465738D01*
%TO.C,R_COMP_11*%
X121159690Y-103386500D02*
X120921595Y-103219833D01*
X121159690Y-103100785D02*
X120659690Y-103100785D01*
X120659690Y-103291261D01*
X120683500Y-103338880D01*
X120707309Y-103362690D01*
X120754928Y-103386500D01*
X120826357Y-103386500D01*
X120873976Y-103362690D01*
X120897785Y-103338880D01*
X120921595Y-103291261D01*
X120921595Y-103100785D01*
X121207309Y-103481738D02*
X121207309Y-103862690D01*
X121112071Y-104267452D02*
X121135880Y-104243642D01*
X121159690Y-104172214D01*
X121159690Y-104124595D01*
X121135880Y-104053166D01*
X121088261Y-104005547D01*
X121040642Y-103981738D01*
X120945404Y-103957928D01*
X120873976Y-103957928D01*
X120778738Y-103981738D01*
X120731119Y-104005547D01*
X120683500Y-104053166D01*
X120659690Y-104124595D01*
X120659690Y-104172214D01*
X120683500Y-104243642D01*
X120707309Y-104267452D01*
X120659690Y-104576976D02*
X120659690Y-104672214D01*
X120683500Y-104719833D01*
X120731119Y-104767452D01*
X120826357Y-104791261D01*
X120993023Y-104791261D01*
X121088261Y-104767452D01*
X121135880Y-104719833D01*
X121159690Y-104672214D01*
X121159690Y-104576976D01*
X121135880Y-104529357D01*
X121088261Y-104481738D01*
X120993023Y-104457928D01*
X120826357Y-104457928D01*
X120731119Y-104481738D01*
X120683500Y-104529357D01*
X120659690Y-104576976D01*
X121159690Y-105005547D02*
X120659690Y-105005547D01*
X121016833Y-105172214D01*
X120659690Y-105338880D01*
X121159690Y-105338880D01*
X121159690Y-105576976D02*
X120659690Y-105576976D01*
X120659690Y-105767452D01*
X120683500Y-105815071D01*
X120707309Y-105838880D01*
X120754928Y-105862690D01*
X120826357Y-105862690D01*
X120873976Y-105838880D01*
X120897785Y-105815071D01*
X120921595Y-105767452D01*
X120921595Y-105576976D01*
X121207309Y-105957928D02*
X121207309Y-106338880D01*
X121159690Y-106719833D02*
X121159690Y-106434119D01*
X121159690Y-106576976D02*
X120659690Y-106576976D01*
X120731119Y-106529357D01*
X120778738Y-106481738D01*
X120802547Y-106434119D01*
X121159690Y-107196023D02*
X121159690Y-106910309D01*
X121159690Y-107053166D02*
X120659690Y-107053166D01*
X120731119Y-107005547D01*
X120778738Y-106957928D01*
X120802547Y-106910309D01*
%TO.C,R_ESP_4*%
X122908190Y-66385428D02*
X122670095Y-66218761D01*
X122908190Y-66099714D02*
X122408190Y-66099714D01*
X122408190Y-66290190D01*
X122432000Y-66337809D01*
X122455809Y-66361619D01*
X122503428Y-66385428D01*
X122574857Y-66385428D01*
X122622476Y-66361619D01*
X122646285Y-66337809D01*
X122670095Y-66290190D01*
X122670095Y-66099714D01*
X122955809Y-66480666D02*
X122955809Y-66861619D01*
X122646285Y-66980666D02*
X122646285Y-67147333D01*
X122908190Y-67218761D02*
X122908190Y-66980666D01*
X122408190Y-66980666D01*
X122408190Y-67218761D01*
X122884380Y-67409238D02*
X122908190Y-67480666D01*
X122908190Y-67599714D01*
X122884380Y-67647333D01*
X122860571Y-67671142D01*
X122812952Y-67694952D01*
X122765333Y-67694952D01*
X122717714Y-67671142D01*
X122693904Y-67647333D01*
X122670095Y-67599714D01*
X122646285Y-67504476D01*
X122622476Y-67456857D01*
X122598666Y-67433047D01*
X122551047Y-67409238D01*
X122503428Y-67409238D01*
X122455809Y-67433047D01*
X122432000Y-67456857D01*
X122408190Y-67504476D01*
X122408190Y-67623523D01*
X122432000Y-67694952D01*
X122908190Y-67909238D02*
X122408190Y-67909238D01*
X122408190Y-68099714D01*
X122432000Y-68147333D01*
X122455809Y-68171142D01*
X122503428Y-68194952D01*
X122574857Y-68194952D01*
X122622476Y-68171142D01*
X122646285Y-68147333D01*
X122670095Y-68099714D01*
X122670095Y-67909238D01*
X122955809Y-68290190D02*
X122955809Y-68671142D01*
X122574857Y-69004476D02*
X122908190Y-69004476D01*
X122384380Y-68885428D02*
X122741523Y-68766380D01*
X122741523Y-69075904D01*
%TO.C,R_ESP_5*%
X119860190Y-66385428D02*
X119622095Y-66218761D01*
X119860190Y-66099714D02*
X119360190Y-66099714D01*
X119360190Y-66290190D01*
X119384000Y-66337809D01*
X119407809Y-66361619D01*
X119455428Y-66385428D01*
X119526857Y-66385428D01*
X119574476Y-66361619D01*
X119598285Y-66337809D01*
X119622095Y-66290190D01*
X119622095Y-66099714D01*
X119907809Y-66480666D02*
X119907809Y-66861619D01*
X119598285Y-66980666D02*
X119598285Y-67147333D01*
X119860190Y-67218761D02*
X119860190Y-66980666D01*
X119360190Y-66980666D01*
X119360190Y-67218761D01*
X119836380Y-67409238D02*
X119860190Y-67480666D01*
X119860190Y-67599714D01*
X119836380Y-67647333D01*
X119812571Y-67671142D01*
X119764952Y-67694952D01*
X119717333Y-67694952D01*
X119669714Y-67671142D01*
X119645904Y-67647333D01*
X119622095Y-67599714D01*
X119598285Y-67504476D01*
X119574476Y-67456857D01*
X119550666Y-67433047D01*
X119503047Y-67409238D01*
X119455428Y-67409238D01*
X119407809Y-67433047D01*
X119384000Y-67456857D01*
X119360190Y-67504476D01*
X119360190Y-67623523D01*
X119384000Y-67694952D01*
X119860190Y-67909238D02*
X119360190Y-67909238D01*
X119360190Y-68099714D01*
X119384000Y-68147333D01*
X119407809Y-68171142D01*
X119455428Y-68194952D01*
X119526857Y-68194952D01*
X119574476Y-68171142D01*
X119598285Y-68147333D01*
X119622095Y-68099714D01*
X119622095Y-67909238D01*
X119907809Y-68290190D02*
X119907809Y-68671142D01*
X119360190Y-69028285D02*
X119360190Y-68790190D01*
X119598285Y-68766380D01*
X119574476Y-68790190D01*
X119550666Y-68837809D01*
X119550666Y-68956857D01*
X119574476Y-69004476D01*
X119598285Y-69028285D01*
X119645904Y-69052095D01*
X119764952Y-69052095D01*
X119812571Y-69028285D01*
X119836380Y-69004476D01*
X119860190Y-68956857D01*
X119860190Y-68837809D01*
X119836380Y-68790190D01*
X119812571Y-68766380D01*
%TO.C,R_HSCAN_1*%
X81700476Y-78204190D02*
X81867142Y-77966095D01*
X81986190Y-78204190D02*
X81986190Y-77704190D01*
X81795714Y-77704190D01*
X81748095Y-77728000D01*
X81724285Y-77751809D01*
X81700476Y-77799428D01*
X81700476Y-77870857D01*
X81724285Y-77918476D01*
X81748095Y-77942285D01*
X81795714Y-77966095D01*
X81986190Y-77966095D01*
X81605238Y-78251809D02*
X81224285Y-78251809D01*
X81105238Y-78204190D02*
X81105238Y-77704190D01*
X81105238Y-77942285D02*
X80819523Y-77942285D01*
X80819523Y-78204190D02*
X80819523Y-77704190D01*
X80605238Y-78180380D02*
X80533809Y-78204190D01*
X80414761Y-78204190D01*
X80367142Y-78180380D01*
X80343333Y-78156571D01*
X80319523Y-78108952D01*
X80319523Y-78061333D01*
X80343333Y-78013714D01*
X80367142Y-77989904D01*
X80414761Y-77966095D01*
X80510000Y-77942285D01*
X80557619Y-77918476D01*
X80581428Y-77894666D01*
X80605238Y-77847047D01*
X80605238Y-77799428D01*
X80581428Y-77751809D01*
X80557619Y-77728000D01*
X80510000Y-77704190D01*
X80390952Y-77704190D01*
X80319523Y-77728000D01*
X79819523Y-78156571D02*
X79843333Y-78180380D01*
X79914761Y-78204190D01*
X79962380Y-78204190D01*
X80033809Y-78180380D01*
X80081428Y-78132761D01*
X80105238Y-78085142D01*
X80129047Y-77989904D01*
X80129047Y-77918476D01*
X80105238Y-77823238D01*
X80081428Y-77775619D01*
X80033809Y-77728000D01*
X79962380Y-77704190D01*
X79914761Y-77704190D01*
X79843333Y-77728000D01*
X79819523Y-77751809D01*
X79629047Y-78061333D02*
X79390952Y-78061333D01*
X79676666Y-78204190D02*
X79510000Y-77704190D01*
X79343333Y-78204190D01*
X79176666Y-78204190D02*
X79176666Y-77704190D01*
X78890952Y-78204190D01*
X78890952Y-77704190D01*
X78771904Y-78251809D02*
X78390952Y-78251809D01*
X78010000Y-78204190D02*
X78295714Y-78204190D01*
X78152857Y-78204190D02*
X78152857Y-77704190D01*
X78200476Y-77775619D01*
X78248095Y-77823238D01*
X78295714Y-77847047D01*
%TO.C,R_HSCAN_2*%
X78458190Y-86447523D02*
X78220095Y-86280857D01*
X78458190Y-86161809D02*
X77958190Y-86161809D01*
X77958190Y-86352285D01*
X77982000Y-86399904D01*
X78005809Y-86423714D01*
X78053428Y-86447523D01*
X78124857Y-86447523D01*
X78172476Y-86423714D01*
X78196285Y-86399904D01*
X78220095Y-86352285D01*
X78220095Y-86161809D01*
X78505809Y-86542761D02*
X78505809Y-86923714D01*
X78458190Y-87042761D02*
X77958190Y-87042761D01*
X78196285Y-87042761D02*
X78196285Y-87328476D01*
X78458190Y-87328476D02*
X77958190Y-87328476D01*
X78434380Y-87542761D02*
X78458190Y-87614190D01*
X78458190Y-87733238D01*
X78434380Y-87780857D01*
X78410571Y-87804666D01*
X78362952Y-87828476D01*
X78315333Y-87828476D01*
X78267714Y-87804666D01*
X78243904Y-87780857D01*
X78220095Y-87733238D01*
X78196285Y-87638000D01*
X78172476Y-87590380D01*
X78148666Y-87566571D01*
X78101047Y-87542761D01*
X78053428Y-87542761D01*
X78005809Y-87566571D01*
X77982000Y-87590380D01*
X77958190Y-87638000D01*
X77958190Y-87757047D01*
X77982000Y-87828476D01*
X78410571Y-88328476D02*
X78434380Y-88304666D01*
X78458190Y-88233238D01*
X78458190Y-88185619D01*
X78434380Y-88114190D01*
X78386761Y-88066571D01*
X78339142Y-88042761D01*
X78243904Y-88018952D01*
X78172476Y-88018952D01*
X78077238Y-88042761D01*
X78029619Y-88066571D01*
X77982000Y-88114190D01*
X77958190Y-88185619D01*
X77958190Y-88233238D01*
X77982000Y-88304666D01*
X78005809Y-88328476D01*
X78315333Y-88518952D02*
X78315333Y-88757047D01*
X78458190Y-88471333D02*
X77958190Y-88638000D01*
X78458190Y-88804666D01*
X78458190Y-88971333D02*
X77958190Y-88971333D01*
X78458190Y-89257047D01*
X77958190Y-89257047D01*
X78505809Y-89376095D02*
X78505809Y-89757047D01*
X78005809Y-89852285D02*
X77982000Y-89876095D01*
X77958190Y-89923714D01*
X77958190Y-90042761D01*
X77982000Y-90090380D01*
X78005809Y-90114190D01*
X78053428Y-90138000D01*
X78101047Y-90138000D01*
X78172476Y-90114190D01*
X78458190Y-89828476D01*
X78458190Y-90138000D01*
%TO.C,R_HSCAN_3*%
X84965690Y-86701523D02*
X84727595Y-86534857D01*
X84965690Y-86415809D02*
X84465690Y-86415809D01*
X84465690Y-86606285D01*
X84489500Y-86653904D01*
X84513309Y-86677714D01*
X84560928Y-86701523D01*
X84632357Y-86701523D01*
X84679976Y-86677714D01*
X84703785Y-86653904D01*
X84727595Y-86606285D01*
X84727595Y-86415809D01*
X85013309Y-86796761D02*
X85013309Y-87177714D01*
X84965690Y-87296761D02*
X84465690Y-87296761D01*
X84703785Y-87296761D02*
X84703785Y-87582476D01*
X84965690Y-87582476D02*
X84465690Y-87582476D01*
X84941880Y-87796761D02*
X84965690Y-87868190D01*
X84965690Y-87987238D01*
X84941880Y-88034857D01*
X84918071Y-88058666D01*
X84870452Y-88082476D01*
X84822833Y-88082476D01*
X84775214Y-88058666D01*
X84751404Y-88034857D01*
X84727595Y-87987238D01*
X84703785Y-87892000D01*
X84679976Y-87844380D01*
X84656166Y-87820571D01*
X84608547Y-87796761D01*
X84560928Y-87796761D01*
X84513309Y-87820571D01*
X84489500Y-87844380D01*
X84465690Y-87892000D01*
X84465690Y-88011047D01*
X84489500Y-88082476D01*
X84918071Y-88582476D02*
X84941880Y-88558666D01*
X84965690Y-88487238D01*
X84965690Y-88439619D01*
X84941880Y-88368190D01*
X84894261Y-88320571D01*
X84846642Y-88296761D01*
X84751404Y-88272952D01*
X84679976Y-88272952D01*
X84584738Y-88296761D01*
X84537119Y-88320571D01*
X84489500Y-88368190D01*
X84465690Y-88439619D01*
X84465690Y-88487238D01*
X84489500Y-88558666D01*
X84513309Y-88582476D01*
X84822833Y-88772952D02*
X84822833Y-89011047D01*
X84965690Y-88725333D02*
X84465690Y-88892000D01*
X84965690Y-89058666D01*
X84965690Y-89225333D02*
X84465690Y-89225333D01*
X84965690Y-89511047D01*
X84465690Y-89511047D01*
X85013309Y-89630095D02*
X85013309Y-90011047D01*
X84465690Y-90082476D02*
X84465690Y-90392000D01*
X84656166Y-90225333D01*
X84656166Y-90296761D01*
X84679976Y-90344380D01*
X84703785Y-90368190D01*
X84751404Y-90392000D01*
X84870452Y-90392000D01*
X84918071Y-90368190D01*
X84941880Y-90344380D01*
X84965690Y-90296761D01*
X84965690Y-90153904D01*
X84941880Y-90106285D01*
X84918071Y-90082476D01*
%TO.C,R_J1850_2*%
X107668190Y-127113357D02*
X107430095Y-126946690D01*
X107668190Y-126827642D02*
X107168190Y-126827642D01*
X107168190Y-127018119D01*
X107192000Y-127065738D01*
X107215809Y-127089547D01*
X107263428Y-127113357D01*
X107334857Y-127113357D01*
X107382476Y-127089547D01*
X107406285Y-127065738D01*
X107430095Y-127018119D01*
X107430095Y-126827642D01*
X107715809Y-127208595D02*
X107715809Y-127589547D01*
X107168190Y-127851452D02*
X107525333Y-127851452D01*
X107596761Y-127827642D01*
X107644380Y-127780023D01*
X107668190Y-127708595D01*
X107668190Y-127660976D01*
X107668190Y-128351452D02*
X107668190Y-128065738D01*
X107668190Y-128208595D02*
X107168190Y-128208595D01*
X107239619Y-128160976D01*
X107287238Y-128113357D01*
X107311047Y-128065738D01*
X107382476Y-128637166D02*
X107358666Y-128589547D01*
X107334857Y-128565738D01*
X107287238Y-128541928D01*
X107263428Y-128541928D01*
X107215809Y-128565738D01*
X107192000Y-128589547D01*
X107168190Y-128637166D01*
X107168190Y-128732404D01*
X107192000Y-128780023D01*
X107215809Y-128803833D01*
X107263428Y-128827642D01*
X107287238Y-128827642D01*
X107334857Y-128803833D01*
X107358666Y-128780023D01*
X107382476Y-128732404D01*
X107382476Y-128637166D01*
X107406285Y-128589547D01*
X107430095Y-128565738D01*
X107477714Y-128541928D01*
X107572952Y-128541928D01*
X107620571Y-128565738D01*
X107644380Y-128589547D01*
X107668190Y-128637166D01*
X107668190Y-128732404D01*
X107644380Y-128780023D01*
X107620571Y-128803833D01*
X107572952Y-128827642D01*
X107477714Y-128827642D01*
X107430095Y-128803833D01*
X107406285Y-128780023D01*
X107382476Y-128732404D01*
X107168190Y-129280023D02*
X107168190Y-129041928D01*
X107406285Y-129018119D01*
X107382476Y-129041928D01*
X107358666Y-129089547D01*
X107358666Y-129208595D01*
X107382476Y-129256214D01*
X107406285Y-129280023D01*
X107453904Y-129303833D01*
X107572952Y-129303833D01*
X107620571Y-129280023D01*
X107644380Y-129256214D01*
X107668190Y-129208595D01*
X107668190Y-129089547D01*
X107644380Y-129041928D01*
X107620571Y-129018119D01*
X107168190Y-129613357D02*
X107168190Y-129660976D01*
X107192000Y-129708595D01*
X107215809Y-129732404D01*
X107263428Y-129756214D01*
X107358666Y-129780023D01*
X107477714Y-129780023D01*
X107572952Y-129756214D01*
X107620571Y-129732404D01*
X107644380Y-129708595D01*
X107668190Y-129660976D01*
X107668190Y-129613357D01*
X107644380Y-129565738D01*
X107620571Y-129541928D01*
X107572952Y-129518119D01*
X107477714Y-129494309D01*
X107358666Y-129494309D01*
X107263428Y-129518119D01*
X107215809Y-129541928D01*
X107192000Y-129565738D01*
X107168190Y-129613357D01*
X107715809Y-129875261D02*
X107715809Y-130256214D01*
X107215809Y-130351452D02*
X107192000Y-130375261D01*
X107168190Y-130422880D01*
X107168190Y-130541928D01*
X107192000Y-130589547D01*
X107215809Y-130613357D01*
X107263428Y-130637166D01*
X107311047Y-130637166D01*
X107382476Y-130613357D01*
X107668190Y-130327642D01*
X107668190Y-130637166D01*
%TO.C,R_J1850_6*%
X77696190Y-123106857D02*
X77458095Y-122940190D01*
X77696190Y-122821142D02*
X77196190Y-122821142D01*
X77196190Y-123011619D01*
X77220000Y-123059238D01*
X77243809Y-123083047D01*
X77291428Y-123106857D01*
X77362857Y-123106857D01*
X77410476Y-123083047D01*
X77434285Y-123059238D01*
X77458095Y-123011619D01*
X77458095Y-122821142D01*
X77743809Y-123202095D02*
X77743809Y-123583047D01*
X77196190Y-123844952D02*
X77553333Y-123844952D01*
X77624761Y-123821142D01*
X77672380Y-123773523D01*
X77696190Y-123702095D01*
X77696190Y-123654476D01*
X77696190Y-124344952D02*
X77696190Y-124059238D01*
X77696190Y-124202095D02*
X77196190Y-124202095D01*
X77267619Y-124154476D01*
X77315238Y-124106857D01*
X77339047Y-124059238D01*
X77410476Y-124630666D02*
X77386666Y-124583047D01*
X77362857Y-124559238D01*
X77315238Y-124535428D01*
X77291428Y-124535428D01*
X77243809Y-124559238D01*
X77220000Y-124583047D01*
X77196190Y-124630666D01*
X77196190Y-124725904D01*
X77220000Y-124773523D01*
X77243809Y-124797333D01*
X77291428Y-124821142D01*
X77315238Y-124821142D01*
X77362857Y-124797333D01*
X77386666Y-124773523D01*
X77410476Y-124725904D01*
X77410476Y-124630666D01*
X77434285Y-124583047D01*
X77458095Y-124559238D01*
X77505714Y-124535428D01*
X77600952Y-124535428D01*
X77648571Y-124559238D01*
X77672380Y-124583047D01*
X77696190Y-124630666D01*
X77696190Y-124725904D01*
X77672380Y-124773523D01*
X77648571Y-124797333D01*
X77600952Y-124821142D01*
X77505714Y-124821142D01*
X77458095Y-124797333D01*
X77434285Y-124773523D01*
X77410476Y-124725904D01*
X77196190Y-125273523D02*
X77196190Y-125035428D01*
X77434285Y-125011619D01*
X77410476Y-125035428D01*
X77386666Y-125083047D01*
X77386666Y-125202095D01*
X77410476Y-125249714D01*
X77434285Y-125273523D01*
X77481904Y-125297333D01*
X77600952Y-125297333D01*
X77648571Y-125273523D01*
X77672380Y-125249714D01*
X77696190Y-125202095D01*
X77696190Y-125083047D01*
X77672380Y-125035428D01*
X77648571Y-125011619D01*
X77196190Y-125606857D02*
X77196190Y-125654476D01*
X77220000Y-125702095D01*
X77243809Y-125725904D01*
X77291428Y-125749714D01*
X77386666Y-125773523D01*
X77505714Y-125773523D01*
X77600952Y-125749714D01*
X77648571Y-125725904D01*
X77672380Y-125702095D01*
X77696190Y-125654476D01*
X77696190Y-125606857D01*
X77672380Y-125559238D01*
X77648571Y-125535428D01*
X77600952Y-125511619D01*
X77505714Y-125487809D01*
X77386666Y-125487809D01*
X77291428Y-125511619D01*
X77243809Y-125535428D01*
X77220000Y-125559238D01*
X77196190Y-125606857D01*
X77743809Y-125868761D02*
X77743809Y-126249714D01*
X77196190Y-126583047D02*
X77196190Y-126487809D01*
X77220000Y-126440190D01*
X77243809Y-126416380D01*
X77315238Y-126368761D01*
X77410476Y-126344952D01*
X77600952Y-126344952D01*
X77648571Y-126368761D01*
X77672380Y-126392571D01*
X77696190Y-126440190D01*
X77696190Y-126535428D01*
X77672380Y-126583047D01*
X77648571Y-126606857D01*
X77600952Y-126630666D01*
X77481904Y-126630666D01*
X77434285Y-126606857D01*
X77410476Y-126583047D01*
X77386666Y-126535428D01*
X77386666Y-126440190D01*
X77410476Y-126392571D01*
X77434285Y-126368761D01*
X77481904Y-126344952D01*
%TO.C,R_STN_7*%
X92598190Y-93581238D02*
X92360095Y-93414571D01*
X92598190Y-93295523D02*
X92098190Y-93295523D01*
X92098190Y-93486000D01*
X92122000Y-93533619D01*
X92145809Y-93557428D01*
X92193428Y-93581238D01*
X92264857Y-93581238D01*
X92312476Y-93557428D01*
X92336285Y-93533619D01*
X92360095Y-93486000D01*
X92360095Y-93295523D01*
X92645809Y-93676476D02*
X92645809Y-94057428D01*
X92574380Y-94152666D02*
X92598190Y-94224095D01*
X92598190Y-94343142D01*
X92574380Y-94390761D01*
X92550571Y-94414571D01*
X92502952Y-94438380D01*
X92455333Y-94438380D01*
X92407714Y-94414571D01*
X92383904Y-94390761D01*
X92360095Y-94343142D01*
X92336285Y-94247904D01*
X92312476Y-94200285D01*
X92288666Y-94176476D01*
X92241047Y-94152666D01*
X92193428Y-94152666D01*
X92145809Y-94176476D01*
X92122000Y-94200285D01*
X92098190Y-94247904D01*
X92098190Y-94366952D01*
X92122000Y-94438380D01*
X92098190Y-94581238D02*
X92098190Y-94866952D01*
X92598190Y-94724095D02*
X92098190Y-94724095D01*
X92598190Y-95033619D02*
X92098190Y-95033619D01*
X92598190Y-95319333D01*
X92098190Y-95319333D01*
X92645809Y-95438380D02*
X92645809Y-95819333D01*
X92098190Y-95890761D02*
X92098190Y-96224095D01*
X92598190Y-96009809D01*
%TO.C,R_STN_8*%
X94884190Y-93581238D02*
X94646095Y-93414571D01*
X94884190Y-93295523D02*
X94384190Y-93295523D01*
X94384190Y-93486000D01*
X94408000Y-93533619D01*
X94431809Y-93557428D01*
X94479428Y-93581238D01*
X94550857Y-93581238D01*
X94598476Y-93557428D01*
X94622285Y-93533619D01*
X94646095Y-93486000D01*
X94646095Y-93295523D01*
X94931809Y-93676476D02*
X94931809Y-94057428D01*
X94860380Y-94152666D02*
X94884190Y-94224095D01*
X94884190Y-94343142D01*
X94860380Y-94390761D01*
X94836571Y-94414571D01*
X94788952Y-94438380D01*
X94741333Y-94438380D01*
X94693714Y-94414571D01*
X94669904Y-94390761D01*
X94646095Y-94343142D01*
X94622285Y-94247904D01*
X94598476Y-94200285D01*
X94574666Y-94176476D01*
X94527047Y-94152666D01*
X94479428Y-94152666D01*
X94431809Y-94176476D01*
X94408000Y-94200285D01*
X94384190Y-94247904D01*
X94384190Y-94366952D01*
X94408000Y-94438380D01*
X94384190Y-94581238D02*
X94384190Y-94866952D01*
X94884190Y-94724095D02*
X94384190Y-94724095D01*
X94884190Y-95033619D02*
X94384190Y-95033619D01*
X94884190Y-95319333D01*
X94384190Y-95319333D01*
X94931809Y-95438380D02*
X94931809Y-95819333D01*
X94598476Y-96009809D02*
X94574666Y-95962190D01*
X94550857Y-95938380D01*
X94503238Y-95914571D01*
X94479428Y-95914571D01*
X94431809Y-95938380D01*
X94408000Y-95962190D01*
X94384190Y-96009809D01*
X94384190Y-96105047D01*
X94408000Y-96152666D01*
X94431809Y-96176476D01*
X94479428Y-96200285D01*
X94503238Y-96200285D01*
X94550857Y-96176476D01*
X94574666Y-96152666D01*
X94598476Y-96105047D01*
X94598476Y-96009809D01*
X94622285Y-95962190D01*
X94646095Y-95938380D01*
X94693714Y-95914571D01*
X94788952Y-95914571D01*
X94836571Y-95938380D01*
X94860380Y-95962190D01*
X94884190Y-96009809D01*
X94884190Y-96105047D01*
X94860380Y-96152666D01*
X94836571Y-96176476D01*
X94788952Y-96200285D01*
X94693714Y-96200285D01*
X94646095Y-96176476D01*
X94622285Y-96152666D01*
X94598476Y-96105047D01*
%TO.C,R_STN_13*%
X105348190Y-98981142D02*
X105110095Y-98814476D01*
X105348190Y-98695428D02*
X104848190Y-98695428D01*
X104848190Y-98885904D01*
X104872000Y-98933523D01*
X104895809Y-98957333D01*
X104943428Y-98981142D01*
X105014857Y-98981142D01*
X105062476Y-98957333D01*
X105086285Y-98933523D01*
X105110095Y-98885904D01*
X105110095Y-98695428D01*
X105395809Y-99076380D02*
X105395809Y-99457333D01*
X105324380Y-99552571D02*
X105348190Y-99624000D01*
X105348190Y-99743047D01*
X105324380Y-99790666D01*
X105300571Y-99814476D01*
X105252952Y-99838285D01*
X105205333Y-99838285D01*
X105157714Y-99814476D01*
X105133904Y-99790666D01*
X105110095Y-99743047D01*
X105086285Y-99647809D01*
X105062476Y-99600190D01*
X105038666Y-99576380D01*
X104991047Y-99552571D01*
X104943428Y-99552571D01*
X104895809Y-99576380D01*
X104872000Y-99600190D01*
X104848190Y-99647809D01*
X104848190Y-99766857D01*
X104872000Y-99838285D01*
X104848190Y-99981142D02*
X104848190Y-100266857D01*
X105348190Y-100124000D02*
X104848190Y-100124000D01*
X105348190Y-100433523D02*
X104848190Y-100433523D01*
X105348190Y-100719238D01*
X104848190Y-100719238D01*
X105395809Y-100838285D02*
X105395809Y-101219238D01*
X105348190Y-101600190D02*
X105348190Y-101314476D01*
X105348190Y-101457333D02*
X104848190Y-101457333D01*
X104919619Y-101409714D01*
X104967238Y-101362095D01*
X104991047Y-101314476D01*
X104848190Y-101766857D02*
X104848190Y-102076380D01*
X105038666Y-101909714D01*
X105038666Y-101981142D01*
X105062476Y-102028761D01*
X105086285Y-102052571D01*
X105133904Y-102076380D01*
X105252952Y-102076380D01*
X105300571Y-102052571D01*
X105324380Y-102028761D01*
X105348190Y-101981142D01*
X105348190Y-101838285D01*
X105324380Y-101790666D01*
X105300571Y-101766857D01*
%TD*%
M02*
