%TF.GenerationSoftware,KiCad,Pcbnew,(5.1.7)-1*%
%TF.CreationDate,2020-11-30T00:01:55-08:00*%
%TF.ProjectId,Reader,52656164-6572-42e6-9b69-6361645f7063,0.0.05*%
%TF.SameCoordinates,Original*%
%TF.FileFunction,Other,User*%
%FSLAX46Y46*%
G04 Gerber Fmt 4.6, Leading zero omitted, Abs format (unit mm)*
G04 Created by KiCad (PCBNEW (5.1.7)-1) date 2020-11-30 00:01:55*
%MOMM*%
%LPD*%
G01*
G04 APERTURE LIST*
%ADD10C,0.050000*%
%ADD11C,0.152400*%
%ADD12C,0.050800*%
G04 APERTURE END LIST*
D10*
%TO.C,J_ESP_1*%
X69320000Y-56620000D02*
X72870000Y-56620000D01*
X72870000Y-56620000D02*
X72870000Y-108420000D01*
X72870000Y-108420000D02*
X69320000Y-108420000D01*
X69320000Y-108420000D02*
X69320000Y-56620000D01*
D11*
%TO.C,D_VS_1*%
X73139300Y-137020300D02*
X72148700Y-137020300D01*
X72148700Y-137020300D02*
X72148700Y-136220200D01*
X72148700Y-136220200D02*
X71666100Y-136220200D01*
X71666100Y-136220200D02*
X71666100Y-133908800D01*
X71666100Y-133908800D02*
X72148700Y-133908800D01*
X72148700Y-133908800D02*
X72148700Y-133108700D01*
X72148700Y-133108700D02*
X73139300Y-133108700D01*
X73139300Y-133108700D02*
X73139300Y-133908800D01*
X73139300Y-133908800D02*
X73621900Y-133908800D01*
X73621900Y-133908800D02*
X73621900Y-136220200D01*
X73621900Y-136220200D02*
X73139300Y-136220200D01*
X73139300Y-136220200D02*
X73139300Y-137020300D01*
D10*
%TO.C,J_ESP_2*%
X125708000Y-108420000D02*
X125708000Y-56620000D01*
X129258000Y-108420000D02*
X125708000Y-108420000D01*
X129258000Y-56620000D02*
X129258000Y-108420000D01*
X125708000Y-56620000D02*
X129258000Y-56620000D01*
%TO.C,R_COMP_7*%
X115003000Y-120443000D02*
X112073000Y-120443000D01*
X115003000Y-121873000D02*
X112073000Y-121873000D01*
X115003000Y-120443000D02*
X115003000Y-121873000D01*
X112073000Y-120443000D02*
X112073000Y-121873000D01*
D11*
%TO.C,U_CN_1*%
X83400900Y-147726400D02*
X83400900Y-170129200D01*
X114719100Y-147726400D02*
X83400900Y-147726400D01*
X114719100Y-170129200D02*
X114719100Y-147726400D01*
X83400900Y-170129200D02*
X114719100Y-170129200D01*
D12*
%TO.C,C_ESP_2*%
X115421000Y-80751000D02*
X118767000Y-80751000D01*
X118767000Y-80751000D02*
X118767000Y-82317000D01*
X118767000Y-82317000D02*
X115421000Y-82317000D01*
X115421000Y-82317000D02*
X115421000Y-80751000D01*
D10*
%TO.C,C_IMU_1*%
X79455000Y-66099000D02*
X78025000Y-66099000D01*
X79455000Y-69029000D02*
X78025000Y-69029000D01*
X78025000Y-69029000D02*
X78025000Y-66099000D01*
X79455000Y-69029000D02*
X79455000Y-66099000D01*
%TO.C,C_IMU_2*%
X85043000Y-74617000D02*
X85043000Y-71687000D01*
X83613000Y-74617000D02*
X83613000Y-71687000D01*
X85043000Y-74617000D02*
X83613000Y-74617000D01*
X85043000Y-71687000D02*
X83613000Y-71687000D01*
D12*
%TO.C,C_J1850_1*%
X84349000Y-120965000D02*
X82783000Y-120965000D01*
X84349000Y-117619000D02*
X84349000Y-120965000D01*
X82783000Y-117619000D02*
X84349000Y-117619000D01*
X82783000Y-120965000D02*
X82783000Y-117619000D01*
D11*
%TO.C,C_PS_2*%
X120124004Y-150230002D02*
X124731996Y-150230002D01*
X120124004Y-152537998D02*
X120124004Y-150230002D01*
X124731996Y-152537998D02*
X120124004Y-152537998D01*
X124731996Y-150230002D02*
X124731996Y-152537998D01*
%TO.C,C_PS_3*%
X76052006Y-155585998D02*
X76052006Y-153278002D01*
X76052006Y-153278002D02*
X80659998Y-153278002D01*
X80659998Y-153278002D02*
X80659998Y-155585998D01*
X80659998Y-155585998D02*
X76052006Y-155585998D01*
D10*
%TO.C,C_STN_2*%
X113987000Y-97329000D02*
X111057000Y-97329000D01*
X113987000Y-98759000D02*
X111057000Y-98759000D01*
X113987000Y-97329000D02*
X113987000Y-98759000D01*
X111057000Y-97329000D02*
X111057000Y-98759000D01*
%TO.C,C_STN_3*%
X113987000Y-106125000D02*
X113987000Y-104695000D01*
X111057000Y-106125000D02*
X111057000Y-104695000D01*
X111057000Y-104695000D02*
X113987000Y-104695000D01*
X111057000Y-106125000D02*
X113987000Y-106125000D01*
D11*
%TO.C,C_VR1_1*%
X118480002Y-158259996D02*
X118480002Y-153652004D01*
X120787998Y-158259996D02*
X118480002Y-158259996D01*
X120787998Y-153652004D02*
X120787998Y-158259996D01*
X118480002Y-153652004D02*
X120787998Y-153652004D01*
D12*
%TO.C,C_VR1_2*%
X117835000Y-160188500D02*
X119401000Y-160188500D01*
X117835000Y-163534500D02*
X117835000Y-160188500D01*
X119401000Y-163534500D02*
X117835000Y-163534500D01*
X119401000Y-160188500D02*
X119401000Y-163534500D01*
D11*
%TO.C,C_VR2_1*%
X73776002Y-168483496D02*
X73776002Y-163875504D01*
X76083998Y-168483496D02*
X73776002Y-168483496D01*
X76083998Y-163875504D02*
X76083998Y-168483496D01*
X73776002Y-163875504D02*
X76083998Y-163875504D01*
D12*
%TO.C,C_VR2_2*%
X70887000Y-158855000D02*
X70887000Y-162201000D01*
X70887000Y-162201000D02*
X69321000Y-162201000D01*
X69321000Y-162201000D02*
X69321000Y-158855000D01*
X69321000Y-158855000D02*
X70887000Y-158855000D01*
%TO.C,C_VS_1*%
X78083000Y-130471500D02*
X81429000Y-130471500D01*
X81429000Y-130471500D02*
X81429000Y-132037500D01*
X81429000Y-132037500D02*
X78083000Y-132037500D01*
X78083000Y-132037500D02*
X78083000Y-130471500D01*
D11*
%TO.C,CP_ESP_1*%
X90398600Y-70866000D02*
X90398600Y-71767700D01*
X93091000Y-70866000D02*
X90398600Y-70866000D01*
X93091000Y-63754000D02*
X93091000Y-70866000D01*
X90398600Y-63754000D02*
X93091000Y-63754000D01*
X90398600Y-62852300D02*
X90398600Y-63754000D01*
X88671400Y-62852300D02*
X90398600Y-62852300D01*
X88671400Y-63754000D02*
X88671400Y-62852300D01*
X85979000Y-63754000D02*
X88671400Y-63754000D01*
X85979000Y-70866000D02*
X85979000Y-63754000D01*
X88671400Y-70866000D02*
X85979000Y-70866000D01*
X88671400Y-71767700D02*
X88671400Y-70866000D01*
X90398600Y-71767700D02*
X88671400Y-71767700D01*
D10*
%TO.C,CP_STN_1*%
X87664000Y-106029500D02*
X87664000Y-105079500D01*
X85564000Y-106029500D02*
X87664000Y-106029500D01*
X85564000Y-105079500D02*
X85564000Y-106029500D01*
X87664000Y-105079500D02*
X87864000Y-105079500D01*
X85364000Y-105079500D02*
X85564000Y-105079500D01*
X85364000Y-105079500D02*
X84214000Y-103929500D01*
X87864000Y-105079500D02*
X89014000Y-103929500D01*
X84214000Y-103929500D02*
X84214000Y-100279500D01*
X89014000Y-103929500D02*
X89014000Y-100279500D01*
X87664000Y-100279500D02*
X89014000Y-100279500D01*
X87664000Y-99329500D02*
X87664000Y-100279500D01*
X85564000Y-99329500D02*
X87664000Y-99329500D01*
X85564000Y-100279500D02*
X85564000Y-99329500D01*
X84214000Y-100279500D02*
X85564000Y-100279500D01*
D11*
%TO.C,D_J1850_1*%
X114858800Y-132283200D02*
X114858800Y-133273800D01*
X114858800Y-133273800D02*
X114058700Y-133273800D01*
X114058700Y-133273800D02*
X114058700Y-133756400D01*
X114058700Y-133756400D02*
X111747300Y-133756400D01*
X111747300Y-133756400D02*
X111747300Y-133273800D01*
X111747300Y-133273800D02*
X110947200Y-133273800D01*
X110947200Y-133273800D02*
X110947200Y-132283200D01*
X110947200Y-132283200D02*
X111747300Y-132283200D01*
X111747300Y-132283200D02*
X111747300Y-131800600D01*
X111747300Y-131800600D02*
X114058700Y-131800600D01*
X114058700Y-131800600D02*
X114058700Y-132283200D01*
X114058700Y-132283200D02*
X114858800Y-132283200D01*
%TO.C,D_J1850_2*%
X118859300Y-138506200D02*
X118859300Y-139306300D01*
X119341900Y-138506200D02*
X118859300Y-138506200D01*
X119341900Y-136194800D02*
X119341900Y-138506200D01*
X118859300Y-136194800D02*
X119341900Y-136194800D01*
X118859300Y-135394700D02*
X118859300Y-136194800D01*
X117868700Y-135394700D02*
X118859300Y-135394700D01*
X117868700Y-136194800D02*
X117868700Y-135394700D01*
X117386100Y-136194800D02*
X117868700Y-136194800D01*
X117386100Y-138506200D02*
X117386100Y-136194800D01*
X117868700Y-138506200D02*
X117386100Y-138506200D01*
X117868700Y-139306300D02*
X117868700Y-138506200D01*
X118859300Y-139306300D02*
X117868700Y-139306300D01*
%TO.C,D_J1850_3*%
X119138700Y-141173200D02*
X119938800Y-141173200D01*
X119138700Y-140690600D02*
X119138700Y-141173200D01*
X116827300Y-140690600D02*
X119138700Y-140690600D01*
X116827300Y-141173200D02*
X116827300Y-140690600D01*
X116027200Y-141173200D02*
X116827300Y-141173200D01*
X116027200Y-142163800D02*
X116027200Y-141173200D01*
X116827300Y-142163800D02*
X116027200Y-142163800D01*
X116827300Y-142646400D02*
X116827300Y-142163800D01*
X119138700Y-142646400D02*
X116827300Y-142646400D01*
X119138700Y-142163800D02*
X119138700Y-142646400D01*
X119938800Y-142163800D02*
X119138700Y-142163800D01*
X119938800Y-141173200D02*
X119938800Y-142163800D01*
%TO.C,D_VS_2*%
X76822300Y-136829800D02*
X76022200Y-136829800D01*
X76822300Y-137312400D02*
X76822300Y-136829800D01*
X79133700Y-137312400D02*
X76822300Y-137312400D01*
X79133700Y-136829800D02*
X79133700Y-137312400D01*
X79933800Y-136829800D02*
X79133700Y-136829800D01*
X79933800Y-135839200D02*
X79933800Y-136829800D01*
X79133700Y-135839200D02*
X79933800Y-135839200D01*
X79133700Y-135356600D02*
X79133700Y-135839200D01*
X76822300Y-135356600D02*
X79133700Y-135356600D01*
X76822300Y-135839200D02*
X76822300Y-135356600D01*
X76022200Y-135839200D02*
X76822300Y-135839200D01*
X76022200Y-136829800D02*
X76022200Y-135839200D01*
D10*
%TO.C,J_CN_1*%
X72936000Y-143996000D02*
X124736000Y-143996000D01*
X72936000Y-147546000D02*
X72936000Y-143996000D01*
X124736000Y-147546000D02*
X72936000Y-147546000D01*
X124736000Y-143996000D02*
X124736000Y-147546000D01*
%TO.C,J_ESP_3*%
X92624500Y-87779000D02*
X113974500Y-87779000D01*
X113974500Y-87779000D02*
X113974500Y-84179000D01*
X113974500Y-84179000D02*
X92624500Y-84179000D01*
X92624500Y-84179000D02*
X92624500Y-87779000D01*
%TO.C,J_PS_1*%
X108861000Y-143976500D02*
X108861000Y-140376500D01*
X87511000Y-143976500D02*
X108861000Y-143976500D01*
X87511000Y-140376500D02*
X87511000Y-143976500D01*
X108861000Y-140376500D02*
X87511000Y-140376500D01*
%TO.C,J_STN_1*%
X90275000Y-89640000D02*
X90275000Y-93240000D01*
X96425000Y-89640000D02*
X90275000Y-89640000D01*
X96425000Y-93240000D02*
X96425000Y-89640000D01*
X90275000Y-93240000D02*
X96425000Y-93240000D01*
%TO.C,J_STN_2*%
X84223000Y-93049500D02*
X84223000Y-89449500D01*
X78073000Y-93049500D02*
X84223000Y-93049500D01*
X78073000Y-89449500D02*
X78073000Y-93049500D01*
X84223000Y-89449500D02*
X78073000Y-89449500D01*
%TO.C,J_STN_4*%
X97895000Y-93240000D02*
X104045000Y-93240000D01*
X104045000Y-93240000D02*
X104045000Y-89640000D01*
X104045000Y-89640000D02*
X97895000Y-89640000D01*
X97895000Y-89640000D02*
X97895000Y-93240000D01*
%TO.C,J_STN_5*%
X107781500Y-102149500D02*
X104181500Y-102149500D01*
X107781500Y-108299500D02*
X107781500Y-102149500D01*
X104181500Y-108299500D02*
X107781500Y-108299500D01*
X104181500Y-102149500D02*
X104181500Y-108299500D01*
%TO.C,J_STN_6*%
X99609500Y-111865000D02*
X99609500Y-118015000D01*
X99609500Y-118015000D02*
X103209500Y-118015000D01*
X103209500Y-118015000D02*
X103209500Y-111865000D01*
X103209500Y-111865000D02*
X99609500Y-111865000D01*
D11*
%TO.C,L_VR1*%
X123278900Y-164795200D02*
X123672600Y-164795200D01*
X123278900Y-164566600D02*
X123278900Y-164795200D01*
X120561100Y-164566600D02*
X123278900Y-164566600D01*
X120561100Y-164795200D02*
X120561100Y-164566600D01*
X120167400Y-164795200D02*
X120561100Y-164795200D01*
X120167400Y-166293800D02*
X120167400Y-164795200D01*
X120561100Y-166293800D02*
X120167400Y-166293800D01*
X120561100Y-166522400D02*
X120561100Y-166293800D01*
X123278900Y-166522400D02*
X120561100Y-166522400D01*
X123278900Y-166293800D02*
X123278900Y-166522400D01*
X123672600Y-166293800D02*
X123278900Y-166293800D01*
X123672600Y-164795200D02*
X123672600Y-166293800D01*
%TO.C,L_VR2*%
X71767700Y-153504900D02*
X73266300Y-153504900D01*
X73266300Y-153504900D02*
X73266300Y-153898600D01*
X73266300Y-153898600D02*
X73494900Y-153898600D01*
X73494900Y-153898600D02*
X73494900Y-156616400D01*
X73494900Y-156616400D02*
X73266300Y-156616400D01*
X73266300Y-156616400D02*
X73266300Y-157010100D01*
X73266300Y-157010100D02*
X71767700Y-157010100D01*
X71767700Y-157010100D02*
X71767700Y-156616400D01*
X71767700Y-156616400D02*
X71539100Y-156616400D01*
X71539100Y-156616400D02*
X71539100Y-153898600D01*
X71539100Y-153898600D02*
X71767700Y-153898600D01*
X71767700Y-153898600D02*
X71767700Y-153504900D01*
D10*
%TO.C,LED_ESP_1*%
X121876000Y-82836000D02*
X121876000Y-84296000D01*
X121876000Y-84296000D02*
X118916000Y-84296000D01*
X118916000Y-84296000D02*
X118916000Y-82836000D01*
X118916000Y-82836000D02*
X121876000Y-82836000D01*
%TO.C,LED_STN_1*%
X74148500Y-109887000D02*
X77108500Y-109887000D01*
X74148500Y-111347000D02*
X74148500Y-109887000D01*
X77108500Y-111347000D02*
X74148500Y-111347000D01*
X77108500Y-109887000D02*
X77108500Y-111347000D01*
%TO.C,LED_STN_2*%
X76918000Y-103410000D02*
X76918000Y-104870000D01*
X76918000Y-104870000D02*
X73958000Y-104870000D01*
X73958000Y-104870000D02*
X73958000Y-103410000D01*
X73958000Y-103410000D02*
X76918000Y-103410000D01*
%TO.C,LED_STN_3*%
X73958000Y-106966000D02*
X76918000Y-106966000D01*
X73958000Y-108426000D02*
X73958000Y-106966000D01*
X76918000Y-108426000D02*
X73958000Y-108426000D01*
X76918000Y-106966000D02*
X76918000Y-108426000D01*
%TO.C,Q_HSCAN_1*%
X85720000Y-80998000D02*
X81920000Y-80998000D01*
X81920000Y-80998000D02*
X81920000Y-77498000D01*
X81920000Y-77498000D02*
X85720000Y-77498000D01*
X85720000Y-77498000D02*
X85720000Y-80998000D01*
D11*
%TO.C,Q_ISO_1*%
X123177300Y-96266000D02*
X121950000Y-96266000D01*
X121950000Y-96266000D02*
X121950000Y-97225599D01*
X121950000Y-97225599D02*
X120874000Y-97225599D01*
X120874000Y-97225599D02*
X120874000Y-96266000D01*
X120874000Y-96266000D02*
X119646700Y-96266000D01*
X119646700Y-96266000D02*
X119646700Y-94361000D01*
X119646700Y-94361000D02*
X119921500Y-94361000D01*
X119921500Y-94361000D02*
X119921500Y-93401401D01*
X119921500Y-93401401D02*
X122902500Y-93401401D01*
X122902500Y-93401401D02*
X122902500Y-94361000D01*
X122902500Y-94361000D02*
X123177300Y-94361000D01*
X123177300Y-94361000D02*
X123177300Y-96266000D01*
X122923300Y-94615000D02*
X122923300Y-96012000D01*
X122923300Y-96012000D02*
X119900700Y-96012000D01*
X119900700Y-96012000D02*
X119900700Y-94615000D01*
X119900700Y-94615000D02*
X122923300Y-94615000D01*
%TO.C,Q_ISO_2*%
X120967500Y-92189300D02*
X120967500Y-89166700D01*
X122364500Y-92189300D02*
X120967500Y-92189300D01*
X122364500Y-89166700D02*
X122364500Y-92189300D01*
X120967500Y-89166700D02*
X122364500Y-89166700D01*
X120713500Y-88912700D02*
X122618500Y-88912700D01*
X120713500Y-89187500D02*
X120713500Y-88912700D01*
X119753901Y-89187500D02*
X120713500Y-89187500D01*
X119753901Y-92168500D02*
X119753901Y-89187500D01*
X120713500Y-92168500D02*
X119753901Y-92168500D01*
X120713500Y-92443300D02*
X120713500Y-92168500D01*
X122618500Y-92443300D02*
X120713500Y-92443300D01*
X122618500Y-91216000D02*
X122618500Y-92443300D01*
X123578099Y-91216000D02*
X122618500Y-91216000D01*
X123578099Y-90140000D02*
X123578099Y-91216000D01*
X122618500Y-90140000D02*
X123578099Y-90140000D01*
X122618500Y-88912700D02*
X122618500Y-90140000D01*
D10*
%TO.C,Q_ISO_3*%
X112092000Y-93563500D02*
X115492000Y-93563500D01*
X115492000Y-93563500D02*
X115492000Y-97063500D01*
X115492000Y-97063500D02*
X112092000Y-97063500D01*
X112092000Y-97063500D02*
X112092000Y-93563500D01*
%TO.C,Q_ISO_4*%
X112092000Y-91983500D02*
X112092000Y-88483500D01*
X115492000Y-91983500D02*
X112092000Y-91983500D01*
X115492000Y-88483500D02*
X115492000Y-91983500D01*
X112092000Y-88483500D02*
X115492000Y-88483500D01*
%TO.C,Q_J1850_1*%
X80236000Y-117607000D02*
X80236000Y-121407000D01*
X80236000Y-121407000D02*
X76736000Y-121407000D01*
X76736000Y-121407000D02*
X76736000Y-117607000D01*
X76736000Y-117607000D02*
X80236000Y-117607000D01*
%TO.C,Q_J1850_2*%
X105692000Y-136710500D02*
X105692000Y-132910500D01*
X105692000Y-132910500D02*
X109192000Y-132910500D01*
X109192000Y-132910500D02*
X109192000Y-136710500D01*
X109192000Y-136710500D02*
X105692000Y-136710500D01*
D11*
%TO.C,Q_J1850_3*%
X109181900Y-126504700D02*
X111036100Y-126504700D01*
X109181900Y-126748500D02*
X109181900Y-126504700D01*
X108209601Y-126748500D02*
X109181900Y-126748500D01*
X108209601Y-129664500D02*
X108209601Y-126748500D01*
X109181900Y-129664500D02*
X108209601Y-129664500D01*
X109181900Y-129908300D02*
X109181900Y-129664500D01*
X111036100Y-129908300D02*
X109181900Y-129908300D01*
X111036100Y-128714500D02*
X111036100Y-129908300D01*
X112008399Y-128714500D02*
X111036100Y-128714500D01*
X112008399Y-127698500D02*
X112008399Y-128714500D01*
X111036100Y-127698500D02*
X112008399Y-127698500D01*
X111036100Y-126504700D02*
X111036100Y-127698500D01*
D10*
%TO.C,Q_J1850_4*%
X120424000Y-134434500D02*
X123924000Y-134434500D01*
X120424000Y-138234500D02*
X120424000Y-134434500D01*
X123924000Y-138234500D02*
X120424000Y-138234500D01*
X123924000Y-134434500D02*
X123924000Y-138234500D01*
%TO.C,Q_PS_1*%
X83190000Y-135671500D02*
X83190000Y-132171500D01*
X86990000Y-135671500D02*
X83190000Y-135671500D01*
X86990000Y-132171500D02*
X86990000Y-135671500D01*
X83190000Y-132171500D02*
X86990000Y-132171500D01*
%TO.C,Q_PS_2*%
X97150000Y-132044500D02*
X97150000Y-135544500D01*
X93350000Y-132044500D02*
X97150000Y-132044500D01*
X93350000Y-135544500D02*
X93350000Y-132044500D01*
X97150000Y-135544500D02*
X93350000Y-135544500D01*
%TO.C,Q_PS_3*%
X98430000Y-135544500D02*
X98430000Y-132044500D01*
X102230000Y-135544500D02*
X98430000Y-135544500D01*
X102230000Y-132044500D02*
X102230000Y-135544500D01*
X98430000Y-132044500D02*
X102230000Y-132044500D01*
%TO.C,Q_PS_4*%
X91689000Y-135544500D02*
X87889000Y-135544500D01*
X87889000Y-135544500D02*
X87889000Y-132044500D01*
X87889000Y-132044500D02*
X91689000Y-132044500D01*
X91689000Y-132044500D02*
X91689000Y-135544500D01*
%TO.C,R_COMP_1*%
X113554500Y-117670000D02*
X113554500Y-114740000D01*
X112124500Y-117670000D02*
X112124500Y-114740000D01*
X113554500Y-117670000D02*
X112124500Y-117670000D01*
X113554500Y-114740000D02*
X112124500Y-114740000D01*
%TO.C,R_COMP_2*%
X113548000Y-119523500D02*
X113548000Y-118093500D01*
X110618000Y-119523500D02*
X110618000Y-118093500D01*
X110618000Y-118093500D02*
X113548000Y-118093500D01*
X110618000Y-119523500D02*
X113548000Y-119523500D01*
%TO.C,R_COMP_3*%
X113491000Y-109406000D02*
X112061000Y-109406000D01*
X113491000Y-112336000D02*
X112061000Y-112336000D01*
X112061000Y-112336000D02*
X112061000Y-109406000D01*
X113491000Y-112336000D02*
X113491000Y-109406000D01*
%TO.C,R_COMP_6*%
X116654000Y-130191500D02*
X116654000Y-128761500D01*
X113724000Y-130191500D02*
X113724000Y-128761500D01*
X113724000Y-128761500D02*
X116654000Y-128761500D01*
X113724000Y-130191500D02*
X116654000Y-130191500D01*
%TO.C,R_COMP_8*%
X117280000Y-126635500D02*
X120210000Y-126635500D01*
X117280000Y-125205500D02*
X120210000Y-125205500D01*
X117280000Y-126635500D02*
X117280000Y-125205500D01*
X120210000Y-126635500D02*
X120210000Y-125205500D01*
%TO.C,R_COMP_9*%
X124655000Y-126635500D02*
X124655000Y-125205500D01*
X121725000Y-126635500D02*
X121725000Y-125205500D01*
X121725000Y-125205500D02*
X124655000Y-125205500D01*
X121725000Y-126635500D02*
X124655000Y-126635500D01*
%TO.C,R_COMP_10*%
X126983500Y-119765500D02*
X128413500Y-119765500D01*
X126983500Y-116835500D02*
X128413500Y-116835500D01*
X128413500Y-116835500D02*
X128413500Y-119765500D01*
X126983500Y-116835500D02*
X126983500Y-119765500D01*
%TO.C,R_ESP_1*%
X77030000Y-58500000D02*
X77030000Y-57070000D01*
X74100000Y-58500000D02*
X74100000Y-57070000D01*
X74100000Y-57070000D02*
X77030000Y-57070000D01*
X74100000Y-58500000D02*
X77030000Y-58500000D01*
%TO.C,R_ESP_2*%
X79016000Y-65179000D02*
X80496000Y-65179000D01*
X79016000Y-62329000D02*
X80496000Y-62329000D01*
X80496000Y-62329000D02*
X80496000Y-65179000D01*
X79016000Y-62329000D02*
X79016000Y-65179000D01*
%TO.C,R_ESP_3*%
X115034000Y-82826000D02*
X115034000Y-84306000D01*
X117884000Y-82826000D02*
X117884000Y-84306000D01*
X117884000Y-84306000D02*
X115034000Y-84306000D01*
X117884000Y-82826000D02*
X115034000Y-82826000D01*
%TO.C,R_IMU_1*%
X73834000Y-73855000D02*
X75264000Y-73855000D01*
X73834000Y-70925000D02*
X75264000Y-70925000D01*
X75264000Y-70925000D02*
X75264000Y-73855000D01*
X73834000Y-70925000D02*
X73834000Y-73855000D01*
%TO.C,R_IMU_2*%
X76374000Y-70925000D02*
X76374000Y-73855000D01*
X77804000Y-70925000D02*
X77804000Y-73855000D01*
X76374000Y-70925000D02*
X77804000Y-70925000D01*
X76374000Y-73855000D02*
X77804000Y-73855000D01*
D11*
%TO.C,R_ISO_1*%
X108312000Y-94186201D02*
X109620000Y-94186201D01*
X109620000Y-94186201D02*
X109620000Y-96994201D01*
X109620000Y-96994201D02*
X108312000Y-96994201D01*
X108312000Y-96994201D02*
X108312000Y-94186201D01*
%TO.C,R_ISO_2*%
X108312000Y-91574000D02*
X108312000Y-88766000D01*
X109620000Y-91574000D02*
X108312000Y-91574000D01*
X109620000Y-88766000D02*
X109620000Y-91574000D01*
X108312000Y-88766000D02*
X109620000Y-88766000D01*
D10*
%TO.C,R_ISO_3*%
X118585000Y-97021500D02*
X118585000Y-93605500D01*
X116619000Y-97021500D02*
X116619000Y-93605500D01*
X118585000Y-97021500D02*
X116619000Y-97021500D01*
X118585000Y-93605500D02*
X116619000Y-93605500D01*
%TO.C,R_ISO_4*%
X118585000Y-88525500D02*
X116619000Y-88525500D01*
X118585000Y-91941500D02*
X116619000Y-91941500D01*
X116619000Y-91941500D02*
X116619000Y-88525500D01*
X118585000Y-91941500D02*
X118585000Y-88525500D01*
%TO.C,R_J1850_1*%
X121725000Y-129556500D02*
X124655000Y-129556500D01*
X121725000Y-128126500D02*
X124655000Y-128126500D01*
X121725000Y-129556500D02*
X121725000Y-128126500D01*
X124655000Y-129556500D02*
X124655000Y-128126500D01*
%TO.C,R_J1850_3*%
X78031000Y-122350000D02*
X78031000Y-126824000D01*
X80211000Y-122350000D02*
X80211000Y-126824000D01*
X78031000Y-122350000D02*
X80211000Y-122350000D01*
X78031000Y-126824000D02*
X80211000Y-126824000D01*
%TO.C,R_J1850_4*%
X74856000Y-122350000D02*
X74856000Y-126824000D01*
X77036000Y-122350000D02*
X77036000Y-126824000D01*
X74856000Y-122350000D02*
X77036000Y-122350000D01*
X74856000Y-126824000D02*
X77036000Y-126824000D01*
%TO.C,R_J1850_5*%
X117522000Y-134243500D02*
X118952000Y-134243500D01*
X117522000Y-131313500D02*
X118952000Y-131313500D01*
X118952000Y-131313500D02*
X118952000Y-134243500D01*
X117522000Y-131313500D02*
X117522000Y-134243500D01*
%TO.C,R_J1850_7*%
X121725000Y-130285500D02*
X121725000Y-131715500D01*
X124655000Y-130285500D02*
X124655000Y-131715500D01*
X124655000Y-131715500D02*
X121725000Y-131715500D01*
X124655000Y-130285500D02*
X121725000Y-130285500D01*
%TO.C,R_J1850_8*%
X121459000Y-139314500D02*
X121459000Y-142244500D01*
X122889000Y-139314500D02*
X122889000Y-142244500D01*
X121459000Y-139314500D02*
X122889000Y-139314500D01*
X121459000Y-142244500D02*
X122889000Y-142244500D01*
%TO.C,R_PS_1*%
X93540000Y-137651500D02*
X90610000Y-137651500D01*
X93540000Y-139081500D02*
X90610000Y-139081500D01*
X93540000Y-137651500D02*
X93540000Y-139081500D01*
X90610000Y-137651500D02*
X90610000Y-139081500D01*
%TO.C,R_PS_2*%
X86821000Y-137219000D02*
X85391000Y-137219000D01*
X86821000Y-140149000D02*
X85391000Y-140149000D01*
X85391000Y-140149000D02*
X85391000Y-137219000D01*
X86821000Y-140149000D02*
X86821000Y-137219000D01*
%TO.C,R_STN_1*%
X77725000Y-111643500D02*
X82199000Y-111643500D01*
X77725000Y-109463500D02*
X82199000Y-109463500D01*
X77725000Y-111643500D02*
X77725000Y-109463500D01*
X82199000Y-111643500D02*
X82199000Y-109463500D01*
%TO.C,R_STN_2*%
X82247000Y-105293500D02*
X82247000Y-103113500D01*
X77773000Y-105293500D02*
X77773000Y-103113500D01*
X77773000Y-103113500D02*
X82247000Y-103113500D01*
X77773000Y-105293500D02*
X82247000Y-105293500D01*
%TO.C,R_STN_3*%
X82247000Y-108595500D02*
X82247000Y-106415500D01*
X77773000Y-108595500D02*
X77773000Y-106415500D01*
X77773000Y-106415500D02*
X82247000Y-106415500D01*
X77773000Y-108595500D02*
X82247000Y-108595500D01*
D11*
%TO.C,R_STN_4*%
X91739000Y-95904000D02*
X88931000Y-95904000D01*
X91739000Y-94596000D02*
X91739000Y-95904000D01*
X88931000Y-94596000D02*
X91739000Y-94596000D01*
X88931000Y-95904000D02*
X88931000Y-94596000D01*
D10*
%TO.C,R_STN_5*%
X82554500Y-112251500D02*
X79624500Y-112251500D01*
X82554500Y-113681500D02*
X79624500Y-113681500D01*
X82554500Y-112251500D02*
X82554500Y-113681500D01*
X79624500Y-112251500D02*
X79624500Y-113681500D01*
%TO.C,R_STN_6*%
X82554500Y-114728000D02*
X79624500Y-114728000D01*
X82554500Y-116158000D02*
X79624500Y-116158000D01*
X82554500Y-114728000D02*
X82554500Y-116158000D01*
X79624500Y-114728000D02*
X79624500Y-116158000D01*
%TO.C,R_STN_9*%
X93286000Y-119554000D02*
X90356000Y-119554000D01*
X93286000Y-120984000D02*
X90356000Y-120984000D01*
X93286000Y-119554000D02*
X93286000Y-120984000D01*
X90356000Y-119554000D02*
X90356000Y-120984000D01*
%TO.C,R_STN_11*%
X99394000Y-116527000D02*
X99394000Y-113597000D01*
X97964000Y-116527000D02*
X97964000Y-113597000D01*
X99394000Y-116527000D02*
X97964000Y-116527000D01*
X99394000Y-113597000D02*
X97964000Y-113597000D01*
%TO.C,R_STN_12*%
X96854000Y-116527000D02*
X96854000Y-113597000D01*
X95424000Y-116527000D02*
X95424000Y-113597000D01*
X96854000Y-116527000D02*
X95424000Y-116527000D01*
X96854000Y-113597000D02*
X95424000Y-113597000D01*
%TO.C,R_VR2_1*%
X78799001Y-165222500D02*
X77369001Y-165222500D01*
X78799001Y-168152500D02*
X77369001Y-168152500D01*
X77369001Y-168152500D02*
X77369001Y-165222500D01*
X78799001Y-168152500D02*
X78799001Y-165222500D01*
%TO.C,R_VR2_2*%
X79930000Y-165349500D02*
X79930000Y-168279500D01*
X81360000Y-165349500D02*
X81360000Y-168279500D01*
X79930000Y-165349500D02*
X81360000Y-165349500D01*
X79930000Y-168279500D02*
X81360000Y-168279500D01*
%TO.C,R_VR2_3*%
X81475000Y-162924500D02*
X78545000Y-162924500D01*
X81475000Y-164354500D02*
X78545000Y-164354500D01*
X81475000Y-162924500D02*
X81475000Y-164354500D01*
X78545000Y-162924500D02*
X78545000Y-164354500D01*
%TO.C,R_VS_1*%
X79107000Y-139077500D02*
X79107000Y-140957500D01*
X82437000Y-139077500D02*
X82437000Y-140957500D01*
X82437000Y-140957500D02*
X79107000Y-140957500D01*
X82437000Y-139077500D02*
X79107000Y-139077500D01*
%TO.C,R_VS_2*%
X78291000Y-134509500D02*
X81221000Y-134509500D01*
X78291000Y-133079500D02*
X81221000Y-133079500D01*
X78291000Y-134509500D02*
X78291000Y-133079500D01*
X81221000Y-134509500D02*
X81221000Y-133079500D01*
D11*
%TO.C,SW_ESP_1*%
X78896300Y-61404301D02*
X78896300Y-56705699D01*
X78896300Y-56705699D02*
X80048100Y-56705699D01*
X80048100Y-56705699D02*
X80048100Y-56553100D01*
X80048100Y-56553100D02*
X85051900Y-56553100D01*
X85051900Y-56553100D02*
X85051900Y-56705699D01*
X85051900Y-56705699D02*
X86203700Y-56705699D01*
X86203700Y-56705699D02*
X86203700Y-61404301D01*
X86203700Y-61404301D02*
X85051900Y-61404301D01*
X85051900Y-61404301D02*
X85051900Y-61556900D01*
X85051900Y-61556900D02*
X80048100Y-61556900D01*
X80048100Y-61556900D02*
X80048100Y-61404301D01*
X80048100Y-61404301D02*
X78896300Y-61404301D01*
%TO.C,SW_ESP_2*%
X122237301Y-76669900D02*
X122237301Y-77821700D01*
X122389900Y-76669900D02*
X122237301Y-76669900D01*
X122389900Y-71666100D02*
X122389900Y-76669900D01*
X122237301Y-71666100D02*
X122389900Y-71666100D01*
X122237301Y-70514300D02*
X122237301Y-71666100D01*
X117538699Y-70514300D02*
X122237301Y-70514300D01*
X117538699Y-71666100D02*
X117538699Y-70514300D01*
X117386100Y-71666100D02*
X117538699Y-71666100D01*
X117386100Y-76669900D02*
X117386100Y-71666100D01*
X117538699Y-76669900D02*
X117386100Y-76669900D01*
X117538699Y-77821700D02*
X117538699Y-76669900D01*
X122237301Y-77821700D02*
X117538699Y-77821700D01*
%TO.C,SW_STN_1*%
X93560900Y-112077699D02*
X94712700Y-112077699D01*
X93560900Y-111925100D02*
X93560900Y-112077699D01*
X88557100Y-111925100D02*
X93560900Y-111925100D01*
X88557100Y-112077699D02*
X88557100Y-111925100D01*
X87405300Y-112077699D02*
X88557100Y-112077699D01*
X87405300Y-116776301D02*
X87405300Y-112077699D01*
X88557100Y-116776301D02*
X87405300Y-116776301D01*
X88557100Y-116928900D02*
X88557100Y-116776301D01*
X93560900Y-116928900D02*
X88557100Y-116928900D01*
X93560900Y-116776301D02*
X93560900Y-116928900D01*
X94712700Y-116776301D02*
X93560900Y-116776301D01*
X94712700Y-112077699D02*
X94712700Y-116776301D01*
%TO.C,U_COMP_1*%
X124079000Y-122186700D02*
X125234700Y-122186700D01*
X124079000Y-123761500D02*
X124079000Y-122186700D01*
X116967000Y-123761500D02*
X124079000Y-123761500D01*
X116967000Y-122186700D02*
X116967000Y-123761500D01*
X115811300Y-122186700D02*
X116967000Y-122186700D01*
X115811300Y-105143300D02*
X115811300Y-122186700D01*
X116967000Y-105143300D02*
X115811300Y-105143300D01*
X116967000Y-103568500D02*
X116967000Y-105143300D01*
X124079000Y-103568500D02*
X116967000Y-103568500D01*
X124079000Y-105143300D02*
X124079000Y-103568500D01*
X125234700Y-105143300D02*
X124079000Y-105143300D01*
X125234700Y-122186700D02*
X125234700Y-105143300D01*
D10*
%TO.C,U_ESP_1*%
X95025000Y-82890000D02*
X95025000Y-62670000D01*
X95025000Y-82890000D02*
X114525000Y-82890000D01*
X114525000Y-62670000D02*
X114525000Y-82890000D01*
X90525000Y-51390000D02*
X119025000Y-51390000D01*
X90525000Y-51390000D02*
X90525000Y-62670000D01*
X119025000Y-51390000D02*
X119025000Y-62670000D01*
X90525000Y-62670000D02*
X95025000Y-62670000D01*
X114525000Y-62670000D02*
X119025000Y-62670000D01*
D11*
%TO.C,U_HSCAN_1*%
X80162400Y-85201800D02*
X79862401Y-85201800D01*
X80162400Y-85572600D02*
X80162400Y-85201800D01*
X83667600Y-85572600D02*
X80162400Y-85572600D01*
X83667600Y-85201800D02*
X83667600Y-85572600D01*
X83967599Y-85201800D02*
X83667600Y-85201800D01*
X83967599Y-82438200D02*
X83967599Y-85201800D01*
X83667600Y-82438200D02*
X83967599Y-82438200D01*
X83667600Y-82067400D02*
X83667600Y-82438200D01*
X80162400Y-82067400D02*
X83667600Y-82067400D01*
X80162400Y-82438200D02*
X80162400Y-82067400D01*
X79862401Y-82438200D02*
X80162400Y-82438200D01*
X79862401Y-85201800D02*
X79862401Y-82438200D01*
D10*
%TO.C,U_IMU_1*%
X79476000Y-71098000D02*
X79476000Y-74698000D01*
X82576000Y-71098000D02*
X79476000Y-71098000D01*
X82576000Y-74698000D02*
X82576000Y-71098000D01*
X79476000Y-74698000D02*
X82576000Y-74698000D01*
%TO.C,U_J1850_1*%
X89816000Y-121837000D02*
X89816000Y-127337000D01*
X82396000Y-121837000D02*
X82396000Y-127337000D01*
X82396000Y-127337000D02*
X89816000Y-127337000D01*
X82396000Y-121837000D02*
X89816000Y-121837000D01*
%TO.C,U_STN_1*%
X100485000Y-99032000D02*
X91285000Y-99032000D01*
X100485000Y-108232000D02*
X100485000Y-99032000D01*
X91285000Y-108232000D02*
X100485000Y-108232000D01*
X91285000Y-99032000D02*
X91285000Y-108232000D01*
D11*
%TO.C,U_VR1*%
X121391401Y-162413400D02*
X121391401Y-159150600D01*
X121391401Y-159150600D02*
X121691400Y-159150600D01*
X121691400Y-159150600D02*
X121691400Y-159029400D01*
X121691400Y-159029400D02*
X125196600Y-159029400D01*
X125196600Y-159029400D02*
X125196600Y-159150600D01*
X125196600Y-159150600D02*
X125496599Y-159150600D01*
X125496599Y-159150600D02*
X125496599Y-162413400D01*
X125496599Y-162413400D02*
X125196600Y-162413400D01*
X125196600Y-162413400D02*
X125196600Y-162534600D01*
X125196600Y-162534600D02*
X121691400Y-162534600D01*
X121691400Y-162534600D02*
X121691400Y-162413400D01*
X121691400Y-162413400D02*
X121391401Y-162413400D01*
%TO.C,U_VR2*%
X74447400Y-162095900D02*
X74147401Y-162095900D01*
X74447400Y-162217100D02*
X74447400Y-162095900D01*
X77952600Y-162217100D02*
X74447400Y-162217100D01*
X77952600Y-162095900D02*
X77952600Y-162217100D01*
X78252599Y-162095900D02*
X77952600Y-162095900D01*
X78252599Y-158833100D02*
X78252599Y-162095900D01*
X77952600Y-158833100D02*
X78252599Y-158833100D01*
X77952600Y-158711900D02*
X77952600Y-158833100D01*
X74447400Y-158711900D02*
X77952600Y-158711900D01*
X74447400Y-158833100D02*
X74447400Y-158711900D01*
X74147401Y-158833100D02*
X74447400Y-158833100D01*
X74147401Y-162095900D02*
X74147401Y-158833100D01*
D10*
%TO.C,Y_STN_1*%
X111185500Y-99900000D02*
X113985500Y-99900000D01*
X111185500Y-103300000D02*
X111185500Y-99900000D01*
X113985500Y-103300000D02*
X111185500Y-103300000D01*
X113985500Y-99900000D02*
X113985500Y-103300000D01*
%TD*%
M02*
