M48
; DRILL file {KiCad (5.1.7)-1} date 12/02/20 23:54:21
; FORMAT={-:-/ absolute / metric / decimal}
; #@! TF.CreationDate,2020-12-02T23:54:21-08:00
; #@! TF.GenerationSoftware,Kicad,Pcbnew,(5.1.7)-1
; #@! TF.FileFunction,Plated,1,2,PTH
FMAT,2
METRIC
T1C0.200
T2C0.320
T3C0.787
T4C1.000
T5C1.041
T6C3.302
%
G90
G05
T1
X152.202Y-108.895
X152.202Y-110.085
X152.202Y-111.275
X152.202Y-112.465
X153.392Y-108.895
X153.392Y-110.085
X153.392Y-111.275
X153.392Y-112.465
X154.582Y-108.895
X154.582Y-110.085
X154.582Y-111.275
X154.582Y-112.465
X155.772Y-108.895
X155.772Y-110.085
X155.772Y-111.275
X155.772Y-112.465
T2
X91.948Y-69.723
X91.948Y-104.648
X94.361Y-65.278
X94.488Y-75.184
X95.685Y-71.056
X96.012Y-94.488
X96.52Y-64.262
X96.52Y-109.474
X96.644Y-74.676
X97.052Y-65.175
X97.218Y-71.247
X97.536Y-98.552
X97.917Y-65.087
X98.615Y-61.912
X99.251Y-67.501
X99.444Y-74.676
X104.14Y-117.094
X105.591Y-64.081
X107.632Y-61.912
X107.696Y-110.744
X110.671Y-69.161
X110.744Y-102.616
X111.723Y-105.193
X112.078Y-66.358
X114.554Y-77.216
X115.056Y-99.568
X115.824Y-82.296
X115.824Y-104.648
X116.522Y-65.468
X117.348Y-97.678
X117.656Y-112.268
X117.856Y-89.408
X118.872Y-105.156
X118.938Y-85.21
X119.38Y-100.584
X119.888Y-117.856
X120.396Y-103.632
X120.838Y-85.21
X121.456Y-91.882
X121.593Y-80.083
X121.856Y-75.57
X122.11Y-81.724
X122.304Y-112.268
X122.618Y-78.422
X122.881Y-66.484
X122.93Y-63.436
X123.888Y-68.77
X124.467Y-81.033
X124.714Y-87.376
X124.968Y-116.84
X125.222Y-102.108
X126.682Y-69.278
X128.207Y-81.52
X128.969Y-69.278
X130.048Y-104.394
X130.556Y-83.058
X131.064Y-124.46
X131.318Y-126.492
X131.318Y-127.508
X132.612Y-108.331
X133.032Y-63.944
X134.112Y-94.742
X134.722Y-104.521
X135.064Y-79.15
X135.738Y-71.222
X136.133Y-84.072
X136.144Y-104.521
X136.462Y-94.346
X136.906Y-104.521
X137.947Y-115.316
X137.947Y-117.856
X137.947Y-120.396
X138.43Y-76.708
X138.874Y-94.346
X139.382Y-84.772
X139.446Y-83.058
X139.7Y-98.552
X140.06Y-113.453
X140.653Y-68.096
X140.716Y-96.266
X141.224Y-86.614
X141.224Y-103.886
X141.487Y-123.444
X143.177Y-115.316
X143.192Y-107.737
X144.018Y-102.87
X144.272Y-125.476
X145.161Y-112.903
X145.987Y-108.775
X145.987Y-112.905
X146.558Y-102.87
X146.749Y-108.73
X148.336Y-114.808
X149.098Y-102.87
X149.86Y-93.514
X149.86Y-117.348
X150.368Y-120.396
X150.939Y-103.95
X151.447Y-104.457
X152.099Y-73.349
X152.718Y-117.538
X153.338Y-104.346
X153.948Y-98.615
X155.321Y-119.761
X155.892Y-101.282
X156.464Y-104.648
X156.654Y-98.679
X157.543Y-117.538
X158.052Y-99.885
X159.385Y-106.236
X159.957Y-105.537
X160.064Y-88.624
X161.036Y-109.141
X161.925Y-106.743
X162.23Y-114.884
X162.369Y-120.587
X162.687Y-111.564
X164.227Y-96.263
X164.227Y-100.391
X167.64Y-118.364
X170.815Y-115.379
X170.942Y-106.87
X171.704Y-96.456
X171.704Y-97.536
X171.894Y-94.234
X172.022Y-68.897
X173.291Y-78.549
X174.35Y-79.819
X175.26Y-77.978
X175.451Y-81.891
X175.704Y-64.96
X175.704Y-86.385
X176.522Y-74.718
X177.292Y-88.9
X177.292Y-104.14
X177.546Y-92.71
X177.8Y-77.089
X178.9Y-91.398
X178.9Y-104.648
X179.07Y-94.234
X179.324Y-85.344
X179.324Y-102.616
X179.832Y-106.172
X181.221Y-67.81
X181.356Y-103.124
X181.864Y-87.884
X181.864Y-99.568
X183.192Y-101.6
X183.388Y-68.072
X185.737Y-62.801
X187.706Y-63.754
X187.96Y-118.364
X189.738Y-100.584
X190.754Y-117.094
X191.008Y-108.754
X191.574Y-121.412
X191.77Y-116.078
X192.024Y-102.42
X194.31Y-75.946
X194.31Y-75.946
X194.564Y-116.332
X194.564Y-117.348
X195.072Y-72.136
X195.58Y-110.744
X196.596Y-110.744
X197.146Y-111.76
X198.628Y-74.168
X198.628Y-94.742
X198.628Y-105.156
X199.136Y-123.952
X202.438Y-78.232
X202.692Y-99.568
X204.724Y-78.232
X204.978Y-108.712
X204.978Y-110.49
X205.74Y-80.772
X205.74Y-112.268
X205.74Y-115.824
X205.994Y-118.11
X206.822Y-107.83
X207.01Y-110.744
X207.772Y-101.6
X208.026Y-115.57
X209.296Y-86.36
X209.296Y-114.808
X210.82Y-106.68
X211.836Y-109.22
X212.344Y-86.36
X212.598Y-89.662
X213.614Y-82.042
X214.884Y-124.968
T3
X194.056Y-83.312
X194.056Y-90.932
X196.596Y-83.312
X196.596Y-90.932
X199.136Y-83.312
X199.136Y-90.932
X201.676Y-83.312
X201.676Y-90.932
X204.216Y-83.312
X204.216Y-90.932
X206.756Y-83.312
X206.756Y-90.932
X209.296Y-83.312
X209.296Y-90.932
T4
X215.392Y-100.076
X215.392Y-102.616
X215.392Y-105.156
X215.392Y-107.696
X215.392Y-110.236
X215.392Y-112.776
X215.392Y-115.316
X215.392Y-117.856
X111.76Y-83.82
X111.76Y-86.36
X124.46Y-91.44
X124.46Y-93.98
X144.208Y-91.123
X146.749Y-91.123
X149.288Y-91.123
X151.828Y-91.123
X154.368Y-91.123
X156.909Y-91.123
X159.448Y-91.123
X161.988Y-91.123
X100.076Y-104.902
X102.616Y-104.902
X105.156Y-104.902
X107.696Y-104.902
X169.608Y-59.88
X172.148Y-59.88
X174.689Y-59.88
X177.228Y-59.88
X179.768Y-59.88
X182.308Y-59.88
X184.849Y-59.88
X187.388Y-59.88
X189.928Y-59.88
X192.468Y-59.88
X195.008Y-59.88
X197.548Y-59.88
X200.088Y-59.88
X202.629Y-59.88
X205.168Y-59.88
X207.708Y-59.88
X210.248Y-59.88
X212.788Y-59.88
X215.328Y-59.88
X217.868Y-59.88
X157.797Y-122.745
X160.338Y-122.745
X111.76Y-97.028
X111.76Y-99.568
X88.328Y-60.134
X90.868Y-60.134
X93.408Y-60.134
X95.948Y-60.134
X98.489Y-60.134
X101.028Y-60.134
X103.569Y-60.134
X106.108Y-60.134
X108.648Y-60.134
X111.188Y-60.134
X113.728Y-60.134
X116.268Y-60.134
X118.808Y-60.134
X121.349Y-60.134
X123.888Y-60.134
X126.428Y-60.134
X128.969Y-60.134
X131.508Y-60.134
X134.048Y-60.134
X136.588Y-60.134
X167.005Y-109.791
X167.005Y-112.331
X111.76Y-77.216
X111.76Y-79.756
X135.572Y-108.648
X138.112Y-108.648
X151.828Y-95.694
X154.368Y-95.694
X88.392Y-111.252
X90.932Y-111.252
X111.76Y-90.424
X166.814Y-91.123
X169.355Y-91.123
T5
X101.854Y-81.51
X101.854Y-83.8
X101.854Y-86.09
X101.854Y-88.38
X101.854Y-90.67
X104.394Y-82.655
X104.394Y-84.945
X104.394Y-87.235
X104.394Y-89.525
X104.394Y-91.815
X106.934Y-81.51
X106.934Y-83.8
X106.934Y-86.09
X106.934Y-88.38
X106.934Y-90.67
T6
X104.394Y-73.865
X104.394Y-98.855
T0
M30
