%TF.GenerationSoftware,KiCad,Pcbnew,(5.1.7)-1*%
%TF.CreationDate,2020-12-03T00:14:24-08:00*%
%TF.ProjectId,Reader,52656164-6572-42e6-9b69-6361645f7063,0.0.05b*%
%TF.SameCoordinates,Original*%
%TF.FileFunction,Paste,Bot*%
%TF.FilePolarity,Positive*%
%FSLAX46Y46*%
G04 Gerber Fmt 4.6, Leading zero omitted, Abs format (unit mm)*
G04 Created by KiCad (PCBNEW (5.1.7)-1) date 2020-12-03 00:14:24*
%MOMM*%
%LPD*%
G01*
G04 APERTURE LIST*
%ADD10R,0.810000X0.980000*%
%ADD11R,0.790000X0.930000*%
%ADD12R,1.000000X1.100000*%
%ADD13R,1.100000X1.000000*%
%ADD14R,1.010000X0.930000*%
%ADD15R,1.799996X1.299998*%
%ADD16R,1.299998X1.799996*%
%ADD17R,0.600000X1.000000*%
%ADD18R,0.568000X0.903199*%
%ADD19R,0.600000X1.230000*%
%ADD20R,0.930000X0.790000*%
%ADD21R,1.080000X1.680000*%
%ADD22R,0.700000X0.800000*%
%ADD23R,0.920000X1.380000*%
%ADD24R,0.350000X0.600000*%
%ADD25R,0.600000X0.350000*%
G04 APERTURE END LIST*
D10*
%TO.C,R_STN_10*%
X139945000Y-123444000D03*
X141487000Y-123444000D03*
%TD*%
D11*
%TO.C,R_COMP_7*%
X218053500Y-71183500D03*
X216413500Y-71183500D03*
%TD*%
D12*
%TO.C,C_ESP_1*%
X140652500Y-68096500D03*
X140652500Y-66396500D03*
%TD*%
%TO.C,C_ESP_2*%
X175704500Y-86384500D03*
X175704500Y-84684500D03*
%TD*%
D13*
%TO.C,C_HSCAN_3*%
X130912500Y-108331000D03*
X132612500Y-108331000D03*
%TD*%
D14*
%TO.C,C_IMU_1*%
X136133500Y-84264500D03*
X137551500Y-84264500D03*
%TD*%
%TO.C,C_IMU_2*%
X137805500Y-80708500D03*
X136387500Y-80708500D03*
%TD*%
D15*
%TO.C,C_PS_1*%
X115316000Y-99827996D03*
X115316000Y-97028000D03*
%TD*%
D13*
%TO.C,C_STN_1*%
X152248500Y-98615500D03*
X153948500Y-98615500D03*
%TD*%
D16*
%TO.C,C_VR2_1*%
X96644002Y-74676000D03*
X99443998Y-74676000D03*
%TD*%
D17*
%TO.C,D_ESD_1*%
X119888000Y-87510000D03*
X120838000Y-85210000D03*
X118938000Y-85210000D03*
%TD*%
%TO.C,D_ESD_2*%
X114874000Y-85210000D03*
X116774000Y-85210000D03*
X115824000Y-87510000D03*
%TD*%
D18*
%TO.C,D_ESD_3*%
X117282001Y-93141800D03*
X115381999Y-93141800D03*
X116332000Y-90754200D03*
%TD*%
D19*
%TO.C,D_ESD_5*%
X89916000Y-116376000D03*
X90866000Y-114256000D03*
X88966000Y-114256000D03*
%TD*%
D20*
%TO.C,R_COMP_5*%
X195008500Y-68268000D03*
X195008500Y-69908000D03*
%TD*%
%TO.C,R_COMP_1*%
X204216000Y-87492000D03*
X204216000Y-85852000D03*
%TD*%
%TO.C,R_COMP_4*%
X197104000Y-68268000D03*
X197104000Y-69908000D03*
%TD*%
D11*
%TO.C,R_COMP_11*%
X198622500Y-64008000D03*
X196982500Y-64008000D03*
%TD*%
%TO.C,R_ESP_1*%
X121290500Y-63436500D03*
X122930500Y-63436500D03*
%TD*%
D10*
%TO.C,R_ESP_2*%
X122881500Y-66484500D03*
X121339500Y-66484500D03*
%TD*%
%TO.C,R_ESP_5*%
X174062500Y-63690500D03*
X172520500Y-63690500D03*
%TD*%
D20*
%TO.C,R_IMU_2*%
X121856500Y-77210500D03*
X121856500Y-75570500D03*
%TD*%
D11*
%TO.C,R_J1850_1*%
X181552000Y-101600000D03*
X183192000Y-101600000D03*
%TD*%
%TO.C,R_J1850_5*%
X191574000Y-121412000D03*
X189934000Y-121412000D03*
%TD*%
D21*
%TO.C,R_STN_1*%
X143177000Y-120904000D03*
X140287000Y-120904000D03*
%TD*%
%TO.C,R_STN_2*%
X140287000Y-115316000D03*
X143177000Y-115316000D03*
%TD*%
%TO.C,R_STN_3*%
X140287000Y-117856000D03*
X143177000Y-117856000D03*
%TD*%
D22*
%TO.C,R_STN_4*%
X173710500Y-91249500D03*
X172110500Y-91249500D03*
%TD*%
D23*
%TO.C,R_VS_1*%
X111699000Y-109728000D03*
X109789000Y-109728000D03*
%TD*%
D24*
%TO.C,U_IMU_1*%
X133544500Y-80310500D03*
X134044500Y-80310500D03*
X133044500Y-80310500D03*
X134544500Y-80310500D03*
X133544500Y-82630500D03*
X134044500Y-82630500D03*
X133044500Y-82630500D03*
X134544500Y-82630500D03*
D25*
X132884500Y-80970500D03*
X132884500Y-81470500D03*
X132884500Y-81970500D03*
X134704500Y-80970500D03*
X134704500Y-81470500D03*
X134704500Y-81970500D03*
%TD*%
M02*
