%TF.GenerationSoftware,KiCad,Pcbnew,(5.1.7)-1*%
%TF.CreationDate,2020-11-01T00:02:27-07:00*%
%TF.ProjectId,Reader,52656164-6572-42e6-9b69-6361645f7063,0.0.03*%
%TF.SameCoordinates,Original*%
%TF.FileFunction,Other,Fab,Top*%
%FSLAX46Y46*%
G04 Gerber Fmt 4.6, Leading zero omitted, Abs format (unit mm)*
G04 Created by KiCad (PCBNEW (5.1.7)-1) date 2020-11-01 00:02:27*
%MOMM*%
%LPD*%
G01*
G04 APERTURE LIST*
%ADD10C,0.152400*%
%ADD11C,0.127000*%
%ADD12C,0.100000*%
%ADD13C,0.200000*%
%ADD14C,0.101600*%
%ADD15C,0.010000*%
%ADD16C,0.150000*%
%ADD17C,0.060000*%
%ADD18C,0.120000*%
G04 APERTURE END LIST*
D10*
%TO.C,CN1*%
X132803900Y-145338800D02*
X132803900Y-151130000D01*
X149136100Y-145338800D02*
X132803900Y-145338800D01*
X149136100Y-151130000D02*
X149136100Y-145338800D01*
X132803900Y-151130000D02*
X149136100Y-151130000D01*
X125564900Y-151130000D02*
X125564900Y-167233600D01*
X156375100Y-151130000D02*
X125564900Y-151130000D01*
X156375100Y-167233600D02*
X156375100Y-151130000D01*
X125564900Y-167233600D02*
X156375100Y-167233600D01*
X137025000Y-167233600D02*
X136390000Y-168503600D01*
X135755000Y-167233600D02*
X136390000Y-168503600D01*
D11*
%TO.C,R_COMP_9*%
X160978000Y-110382000D02*
X160078000Y-110382000D01*
X160978000Y-108682000D02*
X160078000Y-108682000D01*
X160078000Y-108682000D02*
X160078000Y-110382000D01*
X160978000Y-108682000D02*
X160978000Y-110382000D01*
D12*
%TO.C,U_HST_1*%
X113792000Y-54864000D02*
X164592000Y-54864000D01*
X114427000Y-81534000D02*
X113792000Y-80899000D01*
X113792000Y-80899000D02*
X113792000Y-78994000D01*
X164592000Y-78994000D02*
X164592000Y-81534000D01*
X113792000Y-78994000D02*
X164592000Y-78994000D01*
X114427000Y-57404000D02*
X113792000Y-56769000D01*
X164592000Y-57404000D02*
X114427000Y-57404000D01*
X113792000Y-56769000D02*
X113792000Y-54864000D01*
X164592000Y-54864000D02*
X164592000Y-57404000D01*
X164592000Y-81534000D02*
X114427000Y-81534000D01*
D11*
%TO.C,R_HSCAN_3*%
X116577800Y-131516800D02*
X116577800Y-134776800D01*
X114917800Y-131516800D02*
X114917800Y-134776800D01*
X116577800Y-131516800D02*
X114917800Y-131516800D01*
X116577800Y-134776800D02*
X114917800Y-134776800D01*
%TO.C,R_HSCAN_2*%
X119498800Y-134776800D02*
X117838800Y-134776800D01*
X119498800Y-131516800D02*
X117838800Y-131516800D01*
X117838800Y-131516800D02*
X117838800Y-134776800D01*
X119498800Y-131516800D02*
X119498800Y-134776800D01*
D12*
%TO.C,J_HST_4*%
X164338000Y-47498000D02*
X113538000Y-47498000D01*
X164338000Y-44958000D02*
X164338000Y-47498000D01*
X114173000Y-44958000D02*
X164338000Y-44958000D01*
X113538000Y-45593000D02*
X114173000Y-44958000D01*
X113538000Y-47498000D02*
X113538000Y-45593000D01*
%TO.C,J_HST_3*%
X164592000Y-53594000D02*
X113792000Y-53594000D01*
X164592000Y-51054000D02*
X164592000Y-53594000D01*
X114427000Y-51054000D02*
X164592000Y-51054000D01*
X113792000Y-51689000D02*
X114427000Y-51054000D01*
X113792000Y-53594000D02*
X113792000Y-51689000D01*
%TO.C,J_HST_2*%
X113792000Y-82804000D02*
X164592000Y-82804000D01*
X113792000Y-85344000D02*
X113792000Y-82804000D01*
X163957000Y-85344000D02*
X113792000Y-85344000D01*
X164592000Y-84709000D02*
X163957000Y-85344000D01*
X164592000Y-82804000D02*
X164592000Y-84709000D01*
%TO.C,J_HST_1*%
X164592000Y-90373200D02*
X113792000Y-90373200D01*
X164592000Y-87833200D02*
X164592000Y-90373200D01*
X114427000Y-87833200D02*
X164592000Y-87833200D01*
X113792000Y-88468200D02*
X114427000Y-87833200D01*
X113792000Y-90373200D02*
X113792000Y-88468200D01*
%TO.C,U_STN_1*%
X136970000Y-103680000D02*
X137970000Y-102680000D01*
X136970000Y-110680000D02*
X136970000Y-103680000D01*
X144970000Y-110680000D02*
X136970000Y-110680000D01*
X144970000Y-102680000D02*
X144970000Y-110680000D01*
X137970000Y-102680000D02*
X144970000Y-102680000D01*
D13*
%TO.C,J_CN_2*%
X116980000Y-160668000D02*
G75*
G03*
X116980000Y-160668000I-100000J0D01*
G01*
D11*
X124380000Y-164468000D02*
X114380000Y-164468000D01*
X124380000Y-161668000D02*
X124380000Y-164468000D01*
X114380000Y-161668000D02*
X124380000Y-161668000D01*
X114380000Y-164468000D02*
X114380000Y-161668000D01*
D13*
%TO.C,J_CN_1*%
X117020000Y-156604000D02*
G75*
G03*
X117020000Y-156604000I-100000J0D01*
G01*
D11*
X124420000Y-160404000D02*
X114420000Y-160404000D01*
X124420000Y-157604000D02*
X124420000Y-160404000D01*
X114420000Y-157604000D02*
X124420000Y-157604000D01*
X114420000Y-160404000D02*
X114420000Y-157604000D01*
D13*
%TO.C,J_PS_1*%
X162520000Y-159385000D02*
G75*
G03*
X162520000Y-159385000I-100000J0D01*
G01*
D11*
X158620000Y-166885000D02*
X158620000Y-156885000D01*
X161420000Y-166885000D02*
X158620000Y-166885000D01*
X161420000Y-156885000D02*
X161420000Y-166885000D01*
X158620000Y-156885000D02*
X161420000Y-156885000D01*
D12*
%TO.C,LED_STN_1*%
X116046300Y-111099500D02*
X116846300Y-111099500D01*
X116046300Y-109499500D02*
X116046300Y-111099500D01*
X116546300Y-109499500D02*
X116046300Y-109499500D01*
X116846300Y-109799500D02*
X116546300Y-109499500D01*
X116846300Y-111099500D02*
X116846300Y-109799500D01*
%TO.C,CP_STN_1*%
X132810000Y-97536000D02*
G75*
G03*
X132810000Y-97536000I-2000000J0D01*
G01*
X132960000Y-99686000D02*
X128660000Y-99686000D01*
X132960000Y-96386000D02*
X132960000Y-99686000D01*
X128660000Y-96386000D02*
X128660000Y-99686000D01*
X131960000Y-95386000D02*
X129660000Y-95386000D01*
X131960000Y-95386000D02*
X132960000Y-96386000D01*
X129660000Y-95386000D02*
X128660000Y-96386000D01*
X131810000Y-95961227D02*
X131810000Y-96361227D01*
X132010000Y-96161227D02*
X131610000Y-96161227D01*
D14*
%TO.C,C_VR2_3*%
X136728000Y-137516000D02*
X136728000Y-136804000D01*
X137579000Y-137516000D02*
X137579000Y-136804000D01*
D15*
G36*
X136679900Y-137998505D02*
G01*
X136679900Y-137498100D01*
X137630071Y-137498100D01*
X137630071Y-137998505D01*
X136679900Y-137998505D01*
G37*
X136679900Y-137998505D02*
X136679900Y-137498100D01*
X137630071Y-137498100D01*
X137630071Y-137998505D01*
X136679900Y-137998505D01*
G36*
X136679900Y-136829786D02*
G01*
X136679900Y-136329700D01*
X137629920Y-136329700D01*
X137629920Y-136829786D01*
X136679900Y-136829786D01*
G37*
X136679900Y-136829786D02*
X136679900Y-136329700D01*
X137629920Y-136329700D01*
X137629920Y-136829786D01*
X136679900Y-136829786D01*
%TO.C,C_VR2_2*%
G36*
X128750100Y-142570881D02*
G01*
X128750100Y-143070300D01*
X127799131Y-143070300D01*
X127799131Y-142570881D01*
X128750100Y-142570881D01*
G37*
X128750100Y-142570881D02*
X128750100Y-143070300D01*
X127799131Y-143070300D01*
X127799131Y-142570881D01*
X128750100Y-142570881D01*
G36*
X128750100Y-141401394D02*
G01*
X128750100Y-141901900D01*
X127799871Y-141901900D01*
X127799871Y-141401394D01*
X128750100Y-141401394D01*
G37*
X128750100Y-141401394D02*
X128750100Y-141901900D01*
X127799871Y-141901900D01*
X127799871Y-141401394D01*
X128750100Y-141401394D01*
D14*
X127851000Y-141884000D02*
X127851000Y-142596000D01*
X128702000Y-141884000D02*
X128702000Y-142596000D01*
%TO.C,C_VS_1*%
X129476000Y-122352000D02*
X128764000Y-122352000D01*
X129476000Y-121501000D02*
X128764000Y-121501000D01*
D15*
G36*
X129958606Y-122400100D02*
G01*
X129458100Y-122400100D01*
X129458100Y-121449871D01*
X129958606Y-121449871D01*
X129958606Y-122400100D01*
G37*
X129958606Y-122400100D02*
X129458100Y-122400100D01*
X129458100Y-121449871D01*
X129958606Y-121449871D01*
X129958606Y-122400100D01*
G36*
X128789119Y-122400100D02*
G01*
X128289700Y-122400100D01*
X128289700Y-121449131D01*
X128789119Y-121449131D01*
X128789119Y-122400100D01*
G37*
X128789119Y-122400100D02*
X128289700Y-122400100D01*
X128289700Y-121449131D01*
X128789119Y-121449131D01*
X128789119Y-122400100D01*
D12*
%TO.C,LED_STN_2*%
X119894300Y-111099500D02*
X119894300Y-109799500D01*
X119894300Y-109799500D02*
X119594300Y-109499500D01*
X119594300Y-109499500D02*
X119094300Y-109499500D01*
X119094300Y-109499500D02*
X119094300Y-111099500D01*
X119094300Y-111099500D02*
X119894300Y-111099500D01*
%TO.C,D_VS_1*%
X123095000Y-117745000D02*
X123095000Y-119745000D01*
X123095000Y-119745000D02*
X127095000Y-119745000D01*
X127095000Y-119745000D02*
X127095000Y-117745000D01*
X127095000Y-117745000D02*
X123095000Y-117745000D01*
X121285000Y-118745000D02*
X123095000Y-118745000D01*
X128905000Y-118745000D02*
X127095000Y-118745000D01*
X123695000Y-117745000D02*
X123695000Y-119745000D01*
X123795000Y-117745000D02*
X123795000Y-119745000D01*
X123595000Y-117745000D02*
X123595000Y-119745000D01*
%TO.C,D_VS_2*%
X126595000Y-115935000D02*
X126595000Y-113935000D01*
X126395000Y-115935000D02*
X126395000Y-113935000D01*
X126495000Y-115935000D02*
X126495000Y-113935000D01*
X121285000Y-114935000D02*
X123095000Y-114935000D01*
X128905000Y-114935000D02*
X127095000Y-114935000D01*
X123095000Y-115935000D02*
X127095000Y-115935000D01*
X123095000Y-113935000D02*
X123095000Y-115935000D01*
X127095000Y-113935000D02*
X123095000Y-113935000D01*
X127095000Y-115935000D02*
X127095000Y-113935000D01*
D10*
%TO.C,L_VR1*%
X156756100Y-141135100D02*
X156756100Y-143344900D01*
X156756100Y-143344900D02*
X158203900Y-143344900D01*
X158203900Y-143344900D02*
X158203900Y-141135100D01*
X158203900Y-141135100D02*
X156756100Y-141135100D01*
X157556200Y-141211300D02*
G75*
G03*
X157556200Y-141211300I-76200J0D01*
G01*
%TO.C,L_VR2*%
X125806200Y-139941300D02*
G75*
G03*
X125806200Y-139941300I-76200J0D01*
G01*
X126453900Y-139865100D02*
X125006100Y-139865100D01*
X126453900Y-142074900D02*
X126453900Y-139865100D01*
X125006100Y-142074900D02*
X126453900Y-142074900D01*
X125006100Y-139865100D02*
X125006100Y-142074900D01*
D12*
%TO.C,LED_STN_3*%
X122942300Y-111125500D02*
X122942300Y-109825500D01*
X122942300Y-109825500D02*
X122642300Y-109525500D01*
X122642300Y-109525500D02*
X122142300Y-109525500D01*
X122142300Y-109525500D02*
X122142300Y-111125500D01*
X122142300Y-111125500D02*
X122942300Y-111125500D01*
D11*
%TO.C,R_COMP_1*%
X150280000Y-105860000D02*
X150280000Y-104960000D01*
X151980000Y-105860000D02*
X151980000Y-104960000D01*
X151980000Y-104960000D02*
X150280000Y-104960000D01*
X151980000Y-105860000D02*
X150280000Y-105860000D01*
%TO.C,R_COMP_10*%
X160235000Y-94430000D02*
X158535000Y-94430000D01*
X160235000Y-93530000D02*
X158535000Y-93530000D01*
X160235000Y-94430000D02*
X160235000Y-93530000D01*
X158535000Y-94430000D02*
X158535000Y-93530000D01*
%TO.C,R_COMP_7*%
X159170000Y-116390000D02*
X160870000Y-116390000D01*
X159170000Y-117290000D02*
X160870000Y-117290000D01*
X159170000Y-116390000D02*
X159170000Y-117290000D01*
X160870000Y-116390000D02*
X160870000Y-117290000D01*
%TO.C,R_MSCAN_3*%
X121090000Y-147135000D02*
X122750000Y-147135000D01*
X121090000Y-150395000D02*
X122750000Y-150395000D01*
X122750000Y-150395000D02*
X122750000Y-147135000D01*
X121090000Y-150395000D02*
X121090000Y-147135000D01*
%TO.C,R_STN_5*%
X116440000Y-116655000D02*
X116440000Y-115755000D01*
X118140000Y-116655000D02*
X118140000Y-115755000D01*
X118140000Y-115755000D02*
X116440000Y-115755000D01*
X118140000Y-116655000D02*
X116440000Y-116655000D01*
%TO.C,R_COMP_5*%
X148170000Y-100780000D02*
X146470000Y-100780000D01*
X148170000Y-99880000D02*
X146470000Y-99880000D01*
X148170000Y-100780000D02*
X148170000Y-99880000D01*
X146470000Y-100780000D02*
X146470000Y-99880000D01*
%TO.C,R_PSW_2*%
X136710000Y-127400000D02*
X136710000Y-125700000D01*
X137610000Y-127400000D02*
X137610000Y-125700000D01*
X136710000Y-127400000D02*
X137610000Y-127400000D01*
X136710000Y-125700000D02*
X137610000Y-125700000D01*
%TO.C,R_STN_6*%
X128085000Y-109005000D02*
X128085000Y-110705000D01*
X127185000Y-109005000D02*
X127185000Y-110705000D01*
X128085000Y-109005000D02*
X127185000Y-109005000D01*
X128085000Y-110705000D02*
X127185000Y-110705000D01*
%TO.C,R_HSCAN_1*%
X115990000Y-118930000D02*
X117690000Y-118930000D01*
X115990000Y-119830000D02*
X117690000Y-119830000D01*
X115990000Y-118930000D02*
X115990000Y-119830000D01*
X117690000Y-118930000D02*
X117690000Y-119830000D01*
%TO.C,R_COMP_6*%
X160978000Y-97898000D02*
X160978000Y-99598000D01*
X160078000Y-97898000D02*
X160078000Y-99598000D01*
X160978000Y-97898000D02*
X160078000Y-97898000D01*
X160978000Y-99598000D02*
X160078000Y-99598000D01*
%TO.C,R_MSCAN_2*%
X114740000Y-155475000D02*
X114740000Y-152215000D01*
X116400000Y-155475000D02*
X116400000Y-152215000D01*
X114740000Y-155475000D02*
X116400000Y-155475000D01*
X114740000Y-152215000D02*
X116400000Y-152215000D01*
%TO.C,R_COMP_8*%
X157695000Y-116390000D02*
X157695000Y-117290000D01*
X155995000Y-116390000D02*
X155995000Y-117290000D01*
X155995000Y-117290000D02*
X157695000Y-117290000D01*
X155995000Y-116390000D02*
X157695000Y-116390000D01*
%TO.C,R_J1850_1*%
X153358000Y-129140000D02*
X153358000Y-130840000D01*
X152458000Y-129140000D02*
X152458000Y-130840000D01*
X153358000Y-129140000D02*
X152458000Y-129140000D01*
X153358000Y-130840000D02*
X152458000Y-130840000D01*
D14*
%TO.C,C_HST_1*%
X161010200Y-91262000D02*
X161722200Y-91262000D01*
X161010200Y-92113000D02*
X161722200Y-92113000D01*
D15*
G36*
X160527695Y-91213900D02*
G01*
X161028100Y-91213900D01*
X161028100Y-92164071D01*
X160527695Y-92164071D01*
X160527695Y-91213900D01*
G37*
X160527695Y-91213900D02*
X161028100Y-91213900D01*
X161028100Y-92164071D01*
X160527695Y-92164071D01*
X160527695Y-91213900D01*
G36*
X161696414Y-91213900D02*
G01*
X162196500Y-91213900D01*
X162196500Y-92163920D01*
X161696414Y-92163920D01*
X161696414Y-91213900D01*
G37*
X161696414Y-91213900D02*
X162196500Y-91213900D01*
X162196500Y-92163920D01*
X161696414Y-92163920D01*
X161696414Y-91213900D01*
D10*
%TO.C,SW_STN_1*%
X122897900Y-103200001D02*
X122897900Y-103200001D01*
X122897900Y-103200001D02*
X123275000Y-103200001D01*
X123275000Y-103200001D02*
X123275000Y-103200001D01*
X123275000Y-103200001D02*
X122897900Y-103200001D01*
X122897900Y-99999999D02*
X122897900Y-99999999D01*
X122897900Y-99999999D02*
X123275000Y-99999999D01*
X123275000Y-99999999D02*
X123275000Y-99999999D01*
X123275000Y-99999999D02*
X122897900Y-99999999D01*
X118402100Y-99999999D02*
X118402100Y-99999999D01*
X118402100Y-99999999D02*
X118025000Y-99999999D01*
X118025000Y-99999999D02*
X118025000Y-99999999D01*
X118025000Y-99999999D02*
X118402100Y-99999999D01*
X118402100Y-103200001D02*
X118402100Y-103200001D01*
X118402100Y-103200001D02*
X118025000Y-103200001D01*
X118025000Y-103200001D02*
X118025000Y-103200001D01*
X118025000Y-103200001D02*
X118402100Y-103200001D01*
X122897900Y-99352100D02*
X118402100Y-99352100D01*
X118402100Y-99352100D02*
X118402100Y-103847900D01*
X118402100Y-103847900D02*
X122897900Y-103847900D01*
X122897900Y-103847900D02*
X122897900Y-99352100D01*
X123478200Y-104584301D02*
G75*
G03*
X123478200Y-104584301I-203200J0D01*
G01*
X122047000Y-101600000D02*
G75*
G03*
X122047000Y-101600000I-1397000J0D01*
G01*
D11*
%TO.C,Y_STN_1*%
X141240000Y-97770000D02*
X141240000Y-95270000D01*
X141240000Y-95270000D02*
X143240000Y-95270000D01*
X143240000Y-95270000D02*
X143240000Y-97770000D01*
X143240000Y-97770000D02*
X141240000Y-97770000D01*
D13*
X143040000Y-98497000D02*
G75*
G03*
X143040000Y-98497000I-100000J0D01*
G01*
D11*
%TO.C,R_VS_1*%
X134260000Y-121090000D02*
X137520000Y-121090000D01*
X134260000Y-122750000D02*
X137520000Y-122750000D01*
X134260000Y-121090000D02*
X134260000Y-122750000D01*
X137520000Y-121090000D02*
X137520000Y-122750000D01*
D10*
%TO.C,U_VR1*%
X151434800Y-139720000D02*
G75*
G03*
X151434800Y-139720000I-76200J0D01*
G01*
X150901400Y-139471400D02*
X150901400Y-142468600D01*
X153898600Y-139471400D02*
X150901400Y-139471400D01*
X153898600Y-142468600D02*
X153898600Y-139471400D01*
X150901400Y-142468600D02*
X153898600Y-142468600D01*
X152095200Y-139471400D02*
G75*
G03*
X152704800Y-139471400I304800J0D01*
G01*
%TO.C,U_VR2*%
X133121400Y-143738600D02*
X136118600Y-143738600D01*
X136118600Y-143738600D02*
X136118600Y-140741400D01*
X136118600Y-140741400D02*
X133121400Y-140741400D01*
X133121400Y-140741400D02*
X133121400Y-143738600D01*
X133654800Y-140990000D02*
G75*
G03*
X133654800Y-140990000I-76200J0D01*
G01*
X134315200Y-140741400D02*
G75*
G03*
X134924800Y-140741400I304800J0D01*
G01*
D11*
%TO.C,R_VR2_1*%
X141956000Y-142298000D02*
X143656000Y-142298000D01*
X141956000Y-143198000D02*
X143656000Y-143198000D01*
X141956000Y-142298000D02*
X141956000Y-143198000D01*
X143656000Y-142298000D02*
X143656000Y-143198000D01*
D10*
%TO.C,U_MSCAN_1*%
X115341400Y-145821400D02*
X115341400Y-148818600D01*
X115341400Y-148818600D02*
X118338600Y-148818600D01*
X118338600Y-148818600D02*
X118338600Y-145821400D01*
X118338600Y-145821400D02*
X115341400Y-145821400D01*
X118338600Y-147015200D02*
G75*
G03*
X118338600Y-147624800I0J-304800D01*
G01*
D15*
%TO.C,C_STN_1*%
G36*
X141870100Y-100660214D02*
G01*
X141870100Y-101160300D01*
X140920080Y-101160300D01*
X140920080Y-100660214D01*
X141870100Y-100660214D01*
G37*
X141870100Y-100660214D02*
X141870100Y-101160300D01*
X140920080Y-101160300D01*
X140920080Y-100660214D01*
X141870100Y-100660214D01*
G36*
X141870100Y-99491495D02*
G01*
X141870100Y-99991900D01*
X140919929Y-99991900D01*
X140919929Y-99491495D01*
X141870100Y-99491495D01*
G37*
X141870100Y-99491495D02*
X141870100Y-99991900D01*
X140919929Y-99991900D01*
X140919929Y-99491495D01*
X141870100Y-99491495D01*
D14*
X140971000Y-99974000D02*
X140971000Y-100686000D01*
X141822000Y-99974000D02*
X141822000Y-100686000D01*
%TD*%
%TO.C,CN1*%
D16*
X140970000Y-150582380D02*
X140970000Y-150820476D01*
X140731904Y-150725238D02*
X140970000Y-150820476D01*
X141208095Y-150725238D01*
X140827142Y-151010952D02*
X140970000Y-150820476D01*
X141112857Y-151010952D01*
%TO.C,U_HST_1*%
X136287238Y-55586380D02*
X136287238Y-56395904D01*
X136334857Y-56491142D01*
X136382476Y-56538761D01*
X136477714Y-56586380D01*
X136668190Y-56586380D01*
X136763428Y-56538761D01*
X136811047Y-56491142D01*
X136858666Y-56395904D01*
X136858666Y-55586380D01*
X137096761Y-56681619D02*
X137858666Y-56681619D01*
X138096761Y-56586380D02*
X138096761Y-55586380D01*
X138096761Y-56062571D02*
X138668190Y-56062571D01*
X138668190Y-56586380D02*
X138668190Y-55586380D01*
X139096761Y-56538761D02*
X139239619Y-56586380D01*
X139477714Y-56586380D01*
X139572952Y-56538761D01*
X139620571Y-56491142D01*
X139668190Y-56395904D01*
X139668190Y-56300666D01*
X139620571Y-56205428D01*
X139572952Y-56157809D01*
X139477714Y-56110190D01*
X139287238Y-56062571D01*
X139192000Y-56014952D01*
X139144380Y-55967333D01*
X139096761Y-55872095D01*
X139096761Y-55776857D01*
X139144380Y-55681619D01*
X139192000Y-55634000D01*
X139287238Y-55586380D01*
X139525333Y-55586380D01*
X139668190Y-55634000D01*
X139953904Y-55586380D02*
X140525333Y-55586380D01*
X140239619Y-56586380D02*
X140239619Y-55586380D01*
X140620571Y-56681619D02*
X141382476Y-56681619D01*
X142144380Y-56586380D02*
X141572952Y-56586380D01*
X141858666Y-56586380D02*
X141858666Y-55586380D01*
X141763428Y-55729238D01*
X141668190Y-55824476D01*
X141572952Y-55872095D01*
X136287238Y-79716380D02*
X136287238Y-80525904D01*
X136334857Y-80621142D01*
X136382476Y-80668761D01*
X136477714Y-80716380D01*
X136668190Y-80716380D01*
X136763428Y-80668761D01*
X136811047Y-80621142D01*
X136858666Y-80525904D01*
X136858666Y-79716380D01*
X137096761Y-80811619D02*
X137858666Y-80811619D01*
X138096761Y-80716380D02*
X138096761Y-79716380D01*
X138096761Y-80192571D02*
X138668190Y-80192571D01*
X138668190Y-80716380D02*
X138668190Y-79716380D01*
X139096761Y-80668761D02*
X139239619Y-80716380D01*
X139477714Y-80716380D01*
X139572952Y-80668761D01*
X139620571Y-80621142D01*
X139668190Y-80525904D01*
X139668190Y-80430666D01*
X139620571Y-80335428D01*
X139572952Y-80287809D01*
X139477714Y-80240190D01*
X139287238Y-80192571D01*
X139192000Y-80144952D01*
X139144380Y-80097333D01*
X139096761Y-80002095D01*
X139096761Y-79906857D01*
X139144380Y-79811619D01*
X139192000Y-79764000D01*
X139287238Y-79716380D01*
X139525333Y-79716380D01*
X139668190Y-79764000D01*
X139953904Y-79716380D02*
X140525333Y-79716380D01*
X140239619Y-80716380D02*
X140239619Y-79716380D01*
X140620571Y-80811619D02*
X141382476Y-80811619D01*
X142144380Y-80716380D02*
X141572952Y-80716380D01*
X141858666Y-80716380D02*
X141858666Y-79716380D01*
X141763428Y-79859238D01*
X141668190Y-79954476D01*
X141572952Y-80002095D01*
%TO.C,J_HST_4*%
X136461809Y-45680380D02*
X136461809Y-46394666D01*
X136414190Y-46537523D01*
X136318952Y-46632761D01*
X136176095Y-46680380D01*
X136080857Y-46680380D01*
X136699904Y-46775619D02*
X137461809Y-46775619D01*
X137699904Y-46680380D02*
X137699904Y-45680380D01*
X137699904Y-46156571D02*
X138271333Y-46156571D01*
X138271333Y-46680380D02*
X138271333Y-45680380D01*
X138699904Y-46632761D02*
X138842761Y-46680380D01*
X139080857Y-46680380D01*
X139176095Y-46632761D01*
X139223714Y-46585142D01*
X139271333Y-46489904D01*
X139271333Y-46394666D01*
X139223714Y-46299428D01*
X139176095Y-46251809D01*
X139080857Y-46204190D01*
X138890380Y-46156571D01*
X138795142Y-46108952D01*
X138747523Y-46061333D01*
X138699904Y-45966095D01*
X138699904Y-45870857D01*
X138747523Y-45775619D01*
X138795142Y-45728000D01*
X138890380Y-45680380D01*
X139128476Y-45680380D01*
X139271333Y-45728000D01*
X139557047Y-45680380D02*
X140128476Y-45680380D01*
X139842761Y-46680380D02*
X139842761Y-45680380D01*
X140223714Y-46775619D02*
X140985619Y-46775619D01*
X141652285Y-46013714D02*
X141652285Y-46680380D01*
X141414190Y-45632761D02*
X141176095Y-46347047D01*
X141795142Y-46347047D01*
%TO.C,J_HST_3*%
X136715809Y-51776380D02*
X136715809Y-52490666D01*
X136668190Y-52633523D01*
X136572952Y-52728761D01*
X136430095Y-52776380D01*
X136334857Y-52776380D01*
X136953904Y-52871619D02*
X137715809Y-52871619D01*
X137953904Y-52776380D02*
X137953904Y-51776380D01*
X137953904Y-52252571D02*
X138525333Y-52252571D01*
X138525333Y-52776380D02*
X138525333Y-51776380D01*
X138953904Y-52728761D02*
X139096761Y-52776380D01*
X139334857Y-52776380D01*
X139430095Y-52728761D01*
X139477714Y-52681142D01*
X139525333Y-52585904D01*
X139525333Y-52490666D01*
X139477714Y-52395428D01*
X139430095Y-52347809D01*
X139334857Y-52300190D01*
X139144380Y-52252571D01*
X139049142Y-52204952D01*
X139001523Y-52157333D01*
X138953904Y-52062095D01*
X138953904Y-51966857D01*
X139001523Y-51871619D01*
X139049142Y-51824000D01*
X139144380Y-51776380D01*
X139382476Y-51776380D01*
X139525333Y-51824000D01*
X139811047Y-51776380D02*
X140382476Y-51776380D01*
X140096761Y-52776380D02*
X140096761Y-51776380D01*
X140477714Y-52871619D02*
X141239619Y-52871619D01*
X141382476Y-51776380D02*
X142001523Y-51776380D01*
X141668190Y-52157333D01*
X141811047Y-52157333D01*
X141906285Y-52204952D01*
X141953904Y-52252571D01*
X142001523Y-52347809D01*
X142001523Y-52585904D01*
X141953904Y-52681142D01*
X141906285Y-52728761D01*
X141811047Y-52776380D01*
X141525333Y-52776380D01*
X141430095Y-52728761D01*
X141382476Y-52681142D01*
%TO.C,J_HST_2*%
X136715809Y-83526380D02*
X136715809Y-84240666D01*
X136668190Y-84383523D01*
X136572952Y-84478761D01*
X136430095Y-84526380D01*
X136334857Y-84526380D01*
X136953904Y-84621619D02*
X137715809Y-84621619D01*
X137953904Y-84526380D02*
X137953904Y-83526380D01*
X137953904Y-84002571D02*
X138525333Y-84002571D01*
X138525333Y-84526380D02*
X138525333Y-83526380D01*
X138953904Y-84478761D02*
X139096761Y-84526380D01*
X139334857Y-84526380D01*
X139430095Y-84478761D01*
X139477714Y-84431142D01*
X139525333Y-84335904D01*
X139525333Y-84240666D01*
X139477714Y-84145428D01*
X139430095Y-84097809D01*
X139334857Y-84050190D01*
X139144380Y-84002571D01*
X139049142Y-83954952D01*
X139001523Y-83907333D01*
X138953904Y-83812095D01*
X138953904Y-83716857D01*
X139001523Y-83621619D01*
X139049142Y-83574000D01*
X139144380Y-83526380D01*
X139382476Y-83526380D01*
X139525333Y-83574000D01*
X139811047Y-83526380D02*
X140382476Y-83526380D01*
X140096761Y-84526380D02*
X140096761Y-83526380D01*
X140477714Y-84621619D02*
X141239619Y-84621619D01*
X141430095Y-83621619D02*
X141477714Y-83574000D01*
X141572952Y-83526380D01*
X141811047Y-83526380D01*
X141906285Y-83574000D01*
X141953904Y-83621619D01*
X142001523Y-83716857D01*
X142001523Y-83812095D01*
X141953904Y-83954952D01*
X141382476Y-84526380D01*
X142001523Y-84526380D01*
%TO.C,J_HST_1*%
X136715809Y-88555580D02*
X136715809Y-89269866D01*
X136668190Y-89412723D01*
X136572952Y-89507961D01*
X136430095Y-89555580D01*
X136334857Y-89555580D01*
X136953904Y-89650819D02*
X137715809Y-89650819D01*
X137953904Y-89555580D02*
X137953904Y-88555580D01*
X137953904Y-89031771D02*
X138525333Y-89031771D01*
X138525333Y-89555580D02*
X138525333Y-88555580D01*
X138953904Y-89507961D02*
X139096761Y-89555580D01*
X139334857Y-89555580D01*
X139430095Y-89507961D01*
X139477714Y-89460342D01*
X139525333Y-89365104D01*
X139525333Y-89269866D01*
X139477714Y-89174628D01*
X139430095Y-89127009D01*
X139334857Y-89079390D01*
X139144380Y-89031771D01*
X139049142Y-88984152D01*
X139001523Y-88936533D01*
X138953904Y-88841295D01*
X138953904Y-88746057D01*
X139001523Y-88650819D01*
X139049142Y-88603200D01*
X139144380Y-88555580D01*
X139382476Y-88555580D01*
X139525333Y-88603200D01*
X139811047Y-88555580D02*
X140382476Y-88555580D01*
X140096761Y-89555580D02*
X140096761Y-88555580D01*
X140477714Y-89650819D02*
X141239619Y-89650819D01*
X142001523Y-89555580D02*
X141430095Y-89555580D01*
X141715809Y-89555580D02*
X141715809Y-88555580D01*
X141620571Y-88698438D01*
X141525333Y-88793676D01*
X141430095Y-88841295D01*
%TO.C,U_STN_1*%
X138065238Y-106132380D02*
X138065238Y-106941904D01*
X138112857Y-107037142D01*
X138160476Y-107084761D01*
X138255714Y-107132380D01*
X138446190Y-107132380D01*
X138541428Y-107084761D01*
X138589047Y-107037142D01*
X138636666Y-106941904D01*
X138636666Y-106132380D01*
X138874761Y-107227619D02*
X139636666Y-107227619D01*
X139827142Y-107084761D02*
X139970000Y-107132380D01*
X140208095Y-107132380D01*
X140303333Y-107084761D01*
X140350952Y-107037142D01*
X140398571Y-106941904D01*
X140398571Y-106846666D01*
X140350952Y-106751428D01*
X140303333Y-106703809D01*
X140208095Y-106656190D01*
X140017619Y-106608571D01*
X139922380Y-106560952D01*
X139874761Y-106513333D01*
X139827142Y-106418095D01*
X139827142Y-106322857D01*
X139874761Y-106227619D01*
X139922380Y-106180000D01*
X140017619Y-106132380D01*
X140255714Y-106132380D01*
X140398571Y-106180000D01*
X140684285Y-106132380D02*
X141255714Y-106132380D01*
X140970000Y-107132380D02*
X140970000Y-106132380D01*
X141589047Y-107132380D02*
X141589047Y-106132380D01*
X142160476Y-107132380D01*
X142160476Y-106132380D01*
X142398571Y-107227619D02*
X143160476Y-107227619D01*
X143922380Y-107132380D02*
X143350952Y-107132380D01*
X143636666Y-107132380D02*
X143636666Y-106132380D01*
X143541428Y-106275238D01*
X143446190Y-106370476D01*
X143350952Y-106418095D01*
%TO.C,LED_STN_1*%
D17*
X116627252Y-111604261D02*
X116627252Y-111794738D01*
X116227252Y-111794738D01*
X116417728Y-111470928D02*
X116417728Y-111337595D01*
X116627252Y-111280452D02*
X116627252Y-111470928D01*
X116227252Y-111470928D01*
X116227252Y-111280452D01*
X116627252Y-111109023D02*
X116227252Y-111109023D01*
X116227252Y-111013785D01*
X116246300Y-110956642D01*
X116284395Y-110918547D01*
X116322490Y-110899500D01*
X116398680Y-110880452D01*
X116455823Y-110880452D01*
X116532014Y-110899500D01*
X116570109Y-110918547D01*
X116608204Y-110956642D01*
X116627252Y-111013785D01*
X116627252Y-111109023D01*
X116665347Y-110804261D02*
X116665347Y-110499500D01*
X116608204Y-110423309D02*
X116627252Y-110366166D01*
X116627252Y-110270928D01*
X116608204Y-110232833D01*
X116589157Y-110213785D01*
X116551061Y-110194738D01*
X116512966Y-110194738D01*
X116474871Y-110213785D01*
X116455823Y-110232833D01*
X116436776Y-110270928D01*
X116417728Y-110347119D01*
X116398680Y-110385214D01*
X116379633Y-110404261D01*
X116341538Y-110423309D01*
X116303442Y-110423309D01*
X116265347Y-110404261D01*
X116246300Y-110385214D01*
X116227252Y-110347119D01*
X116227252Y-110251880D01*
X116246300Y-110194738D01*
X116227252Y-110080452D02*
X116227252Y-109851880D01*
X116627252Y-109966166D02*
X116227252Y-109966166D01*
X116627252Y-109718547D02*
X116227252Y-109718547D01*
X116627252Y-109489976D01*
X116227252Y-109489976D01*
X116665347Y-109394738D02*
X116665347Y-109089976D01*
X116627252Y-108785214D02*
X116627252Y-109013785D01*
X116627252Y-108899500D02*
X116227252Y-108899500D01*
X116284395Y-108937595D01*
X116322490Y-108975690D01*
X116341538Y-109013785D01*
%TO.C,CP_STN_1*%
D18*
X131095714Y-99783619D02*
X131133809Y-99821714D01*
X131171904Y-99936000D01*
X131171904Y-100012190D01*
X131133809Y-100126476D01*
X131057619Y-100202666D01*
X130981428Y-100240761D01*
X130829047Y-100278857D01*
X130714761Y-100278857D01*
X130562380Y-100240761D01*
X130486190Y-100202666D01*
X130410000Y-100126476D01*
X130371904Y-100012190D01*
X130371904Y-99936000D01*
X130410000Y-99821714D01*
X130448095Y-99783619D01*
X131171904Y-99440761D02*
X130371904Y-99440761D01*
X130371904Y-99136000D01*
X130410000Y-99059809D01*
X130448095Y-99021714D01*
X130524285Y-98983619D01*
X130638571Y-98983619D01*
X130714761Y-99021714D01*
X130752857Y-99059809D01*
X130790952Y-99136000D01*
X130790952Y-99440761D01*
X131248095Y-98831238D02*
X131248095Y-98221714D01*
X131133809Y-98069333D02*
X131171904Y-97955047D01*
X131171904Y-97764571D01*
X131133809Y-97688380D01*
X131095714Y-97650285D01*
X131019523Y-97612190D01*
X130943333Y-97612190D01*
X130867142Y-97650285D01*
X130829047Y-97688380D01*
X130790952Y-97764571D01*
X130752857Y-97916952D01*
X130714761Y-97993142D01*
X130676666Y-98031238D01*
X130600476Y-98069333D01*
X130524285Y-98069333D01*
X130448095Y-98031238D01*
X130410000Y-97993142D01*
X130371904Y-97916952D01*
X130371904Y-97726476D01*
X130410000Y-97612190D01*
X130371904Y-97383619D02*
X130371904Y-96926476D01*
X131171904Y-97155047D02*
X130371904Y-97155047D01*
X131171904Y-96659809D02*
X130371904Y-96659809D01*
X131171904Y-96202666D01*
X130371904Y-96202666D01*
X131248095Y-96012190D02*
X131248095Y-95402666D01*
X131171904Y-94793142D02*
X131171904Y-95250285D01*
X131171904Y-95021714D02*
X130371904Y-95021714D01*
X130486190Y-95097904D01*
X130562380Y-95174095D01*
X130600476Y-95250285D01*
%TO.C,LED_STN_2*%
D17*
X119675252Y-111604261D02*
X119675252Y-111794738D01*
X119275252Y-111794738D01*
X119465728Y-111470928D02*
X119465728Y-111337595D01*
X119675252Y-111280452D02*
X119675252Y-111470928D01*
X119275252Y-111470928D01*
X119275252Y-111280452D01*
X119675252Y-111109023D02*
X119275252Y-111109023D01*
X119275252Y-111013785D01*
X119294300Y-110956642D01*
X119332395Y-110918547D01*
X119370490Y-110899500D01*
X119446680Y-110880452D01*
X119503823Y-110880452D01*
X119580014Y-110899500D01*
X119618109Y-110918547D01*
X119656204Y-110956642D01*
X119675252Y-111013785D01*
X119675252Y-111109023D01*
X119713347Y-110804261D02*
X119713347Y-110499500D01*
X119656204Y-110423309D02*
X119675252Y-110366166D01*
X119675252Y-110270928D01*
X119656204Y-110232833D01*
X119637157Y-110213785D01*
X119599061Y-110194738D01*
X119560966Y-110194738D01*
X119522871Y-110213785D01*
X119503823Y-110232833D01*
X119484776Y-110270928D01*
X119465728Y-110347119D01*
X119446680Y-110385214D01*
X119427633Y-110404261D01*
X119389538Y-110423309D01*
X119351442Y-110423309D01*
X119313347Y-110404261D01*
X119294300Y-110385214D01*
X119275252Y-110347119D01*
X119275252Y-110251880D01*
X119294300Y-110194738D01*
X119275252Y-110080452D02*
X119275252Y-109851880D01*
X119675252Y-109966166D02*
X119275252Y-109966166D01*
X119675252Y-109718547D02*
X119275252Y-109718547D01*
X119675252Y-109489976D01*
X119275252Y-109489976D01*
X119713347Y-109394738D02*
X119713347Y-109089976D01*
X119313347Y-109013785D02*
X119294300Y-108994738D01*
X119275252Y-108956642D01*
X119275252Y-108861404D01*
X119294300Y-108823309D01*
X119313347Y-108804261D01*
X119351442Y-108785214D01*
X119389538Y-108785214D01*
X119446680Y-108804261D01*
X119675252Y-109032833D01*
X119675252Y-108785214D01*
%TO.C,D_VS_1*%
D18*
X123471190Y-119106904D02*
X123471190Y-118306904D01*
X123661666Y-118306904D01*
X123775952Y-118345000D01*
X123852142Y-118421190D01*
X123890238Y-118497380D01*
X123928333Y-118649761D01*
X123928333Y-118764047D01*
X123890238Y-118916428D01*
X123852142Y-118992619D01*
X123775952Y-119068809D01*
X123661666Y-119106904D01*
X123471190Y-119106904D01*
X124080714Y-119183095D02*
X124690238Y-119183095D01*
X124766428Y-118306904D02*
X125033095Y-119106904D01*
X125299761Y-118306904D01*
X125528333Y-119068809D02*
X125642619Y-119106904D01*
X125833095Y-119106904D01*
X125909285Y-119068809D01*
X125947380Y-119030714D01*
X125985476Y-118954523D01*
X125985476Y-118878333D01*
X125947380Y-118802142D01*
X125909285Y-118764047D01*
X125833095Y-118725952D01*
X125680714Y-118687857D01*
X125604523Y-118649761D01*
X125566428Y-118611666D01*
X125528333Y-118535476D01*
X125528333Y-118459285D01*
X125566428Y-118383095D01*
X125604523Y-118345000D01*
X125680714Y-118306904D01*
X125871190Y-118306904D01*
X125985476Y-118345000D01*
X126137857Y-119183095D02*
X126747380Y-119183095D01*
X127356904Y-119106904D02*
X126899761Y-119106904D01*
X127128333Y-119106904D02*
X127128333Y-118306904D01*
X127052142Y-118421190D01*
X126975952Y-118497380D01*
X126899761Y-118535476D01*
D16*
X121150095Y-121356380D02*
X121150095Y-120356380D01*
X121721523Y-121356380D02*
X121292952Y-120784952D01*
X121721523Y-120356380D02*
X121150095Y-120927809D01*
%TO.C,D_VS_2*%
X129786095Y-113228380D02*
X129786095Y-112228380D01*
X130357523Y-113228380D02*
X129928952Y-112656952D01*
X130357523Y-112228380D02*
X129786095Y-112799809D01*
D18*
X122871190Y-115296904D02*
X122871190Y-114496904D01*
X123061666Y-114496904D01*
X123175952Y-114535000D01*
X123252142Y-114611190D01*
X123290238Y-114687380D01*
X123328333Y-114839761D01*
X123328333Y-114954047D01*
X123290238Y-115106428D01*
X123252142Y-115182619D01*
X123175952Y-115258809D01*
X123061666Y-115296904D01*
X122871190Y-115296904D01*
X123480714Y-115373095D02*
X124090238Y-115373095D01*
X124166428Y-114496904D02*
X124433095Y-115296904D01*
X124699761Y-114496904D01*
X124928333Y-115258809D02*
X125042619Y-115296904D01*
X125233095Y-115296904D01*
X125309285Y-115258809D01*
X125347380Y-115220714D01*
X125385476Y-115144523D01*
X125385476Y-115068333D01*
X125347380Y-114992142D01*
X125309285Y-114954047D01*
X125233095Y-114915952D01*
X125080714Y-114877857D01*
X125004523Y-114839761D01*
X124966428Y-114801666D01*
X124928333Y-114725476D01*
X124928333Y-114649285D01*
X124966428Y-114573095D01*
X125004523Y-114535000D01*
X125080714Y-114496904D01*
X125271190Y-114496904D01*
X125385476Y-114535000D01*
X125537857Y-115373095D02*
X126147380Y-115373095D01*
X126299761Y-114573095D02*
X126337857Y-114535000D01*
X126414047Y-114496904D01*
X126604523Y-114496904D01*
X126680714Y-114535000D01*
X126718809Y-114573095D01*
X126756904Y-114649285D01*
X126756904Y-114725476D01*
X126718809Y-114839761D01*
X126261666Y-115296904D01*
X126756904Y-115296904D01*
%TO.C,L_VR1*%
D16*
X156932380Y-142240000D02*
X157170476Y-142240000D01*
X157075238Y-142478095D02*
X157170476Y-142240000D01*
X157075238Y-142001904D01*
X157360952Y-142382857D02*
X157170476Y-142240000D01*
X157360952Y-142097142D01*
%TO.C,L_VR2*%
X125182380Y-140970000D02*
X125420476Y-140970000D01*
X125325238Y-141208095D02*
X125420476Y-140970000D01*
X125325238Y-140731904D01*
X125610952Y-141112857D02*
X125420476Y-140970000D01*
X125610952Y-140827142D01*
%TO.C,LED_STN_3*%
D17*
X122723252Y-111630261D02*
X122723252Y-111820738D01*
X122323252Y-111820738D01*
X122513728Y-111496928D02*
X122513728Y-111363595D01*
X122723252Y-111306452D02*
X122723252Y-111496928D01*
X122323252Y-111496928D01*
X122323252Y-111306452D01*
X122723252Y-111135023D02*
X122323252Y-111135023D01*
X122323252Y-111039785D01*
X122342300Y-110982642D01*
X122380395Y-110944547D01*
X122418490Y-110925500D01*
X122494680Y-110906452D01*
X122551823Y-110906452D01*
X122628014Y-110925500D01*
X122666109Y-110944547D01*
X122704204Y-110982642D01*
X122723252Y-111039785D01*
X122723252Y-111135023D01*
X122761347Y-110830261D02*
X122761347Y-110525500D01*
X122704204Y-110449309D02*
X122723252Y-110392166D01*
X122723252Y-110296928D01*
X122704204Y-110258833D01*
X122685157Y-110239785D01*
X122647061Y-110220738D01*
X122608966Y-110220738D01*
X122570871Y-110239785D01*
X122551823Y-110258833D01*
X122532776Y-110296928D01*
X122513728Y-110373119D01*
X122494680Y-110411214D01*
X122475633Y-110430261D01*
X122437538Y-110449309D01*
X122399442Y-110449309D01*
X122361347Y-110430261D01*
X122342300Y-110411214D01*
X122323252Y-110373119D01*
X122323252Y-110277880D01*
X122342300Y-110220738D01*
X122323252Y-110106452D02*
X122323252Y-109877880D01*
X122723252Y-109992166D02*
X122323252Y-109992166D01*
X122723252Y-109744547D02*
X122323252Y-109744547D01*
X122723252Y-109515976D01*
X122323252Y-109515976D01*
X122761347Y-109420738D02*
X122761347Y-109115976D01*
X122323252Y-109058833D02*
X122323252Y-108811214D01*
X122475633Y-108944547D01*
X122475633Y-108887404D01*
X122494680Y-108849309D01*
X122513728Y-108830261D01*
X122551823Y-108811214D01*
X122647061Y-108811214D01*
X122685157Y-108830261D01*
X122704204Y-108849309D01*
X122723252Y-108887404D01*
X122723252Y-109001690D01*
X122704204Y-109039785D01*
X122685157Y-109058833D01*
%TO.C,SW_STN_1*%
D16*
X120650000Y-101052380D02*
X120650000Y-101290476D01*
X120411904Y-101195238D02*
X120650000Y-101290476D01*
X120888095Y-101195238D01*
X120507142Y-101480952D02*
X120650000Y-101290476D01*
X120792857Y-101480952D01*
%TO.C,U_MSCAN_1*%
X116292380Y-147320000D02*
X116530476Y-147320000D01*
X116435238Y-147558095D02*
X116530476Y-147320000D01*
X116435238Y-147081904D01*
X116720952Y-147462857D02*
X116530476Y-147320000D01*
X116720952Y-147177142D01*
%TD*%
M02*
