%TF.GenerationSoftware,KiCad,Pcbnew,(5.1.7)-1*%
%TF.CreationDate,2020-12-02T23:54:22-08:00*%
%TF.ProjectId,Reader,52656164-6572-42e6-9b69-6361645f7063,0.0.05b*%
%TF.SameCoordinates,Original*%
%TF.FileFunction,Copper,L1,Top*%
%TF.FilePolarity,Positive*%
%FSLAX46Y46*%
G04 Gerber Fmt 4.6, Leading zero omitted, Abs format (unit mm)*
G04 Created by KiCad (PCBNEW (5.1.7)-1) date 2020-12-02 23:54:22*
%MOMM*%
%LPD*%
G01*
G04 APERTURE LIST*
%TA.AperFunction,SMDPad,CuDef*%
%ADD10R,0.254800X0.757199*%
%TD*%
%TA.AperFunction,SMDPad,CuDef*%
%ADD11R,2.590800X1.803400*%
%TD*%
%TA.AperFunction,ComponentPad*%
%ADD12O,1.700000X1.700000*%
%TD*%
%TA.AperFunction,ComponentPad*%
%ADD13R,1.700000X1.700000*%
%TD*%
%TA.AperFunction,SMDPad,CuDef*%
%ADD14R,1.000000X1.100000*%
%TD*%
%TA.AperFunction,SMDPad,CuDef*%
%ADD15R,1.219200X0.482600*%
%TD*%
%TA.AperFunction,ComponentPad*%
%ADD16C,3.302000*%
%TD*%
%TA.AperFunction,ComponentPad*%
%ADD17C,1.549400*%
%TD*%
%TA.AperFunction,SMDPad,CuDef*%
%ADD18R,1.799996X1.299998*%
%TD*%
%TA.AperFunction,SMDPad,CuDef*%
%ADD19R,1.299998X1.799996*%
%TD*%
%TA.AperFunction,SMDPad,CuDef*%
%ADD20R,0.930000X1.010000*%
%TD*%
%TA.AperFunction,SMDPad,CuDef*%
%ADD21R,1.100000X1.000000*%
%TD*%
%TA.AperFunction,SMDPad,CuDef*%
%ADD22R,1.219200X2.997200*%
%TD*%
%TA.AperFunction,SMDPad,CuDef*%
%ADD23R,1.230000X0.600000*%
%TD*%
%TA.AperFunction,SMDPad,CuDef*%
%ADD24R,0.482600X1.219200*%
%TD*%
%TA.AperFunction,SMDPad,CuDef*%
%ADD25R,0.990600X1.003300*%
%TD*%
%TA.AperFunction,SMDPad,CuDef*%
%ADD26R,1.003300X0.990600*%
%TD*%
%TA.AperFunction,SMDPad,CuDef*%
%ADD27R,0.600000X1.000000*%
%TD*%
%TA.AperFunction,SMDPad,CuDef*%
%ADD28R,1.309599X0.568000*%
%TD*%
%TA.AperFunction,SMDPad,CuDef*%
%ADD29R,0.900000X0.800000*%
%TD*%
%TA.AperFunction,SMDPad,CuDef*%
%ADD30R,1.000000X0.600000*%
%TD*%
%TA.AperFunction,SMDPad,CuDef*%
%ADD31R,1.004799X0.568000*%
%TD*%
%TA.AperFunction,SMDPad,CuDef*%
%ADD32R,0.930000X0.790000*%
%TD*%
%TA.AperFunction,SMDPad,CuDef*%
%ADD33R,0.790000X0.930000*%
%TD*%
%TA.AperFunction,SMDPad,CuDef*%
%ADD34R,0.810000X0.980000*%
%TD*%
%TA.AperFunction,SMDPad,CuDef*%
%ADD35R,1.680000X1.080000*%
%TD*%
%TA.AperFunction,SMDPad,CuDef*%
%ADD36R,0.700000X0.800000*%
%TD*%
%TA.AperFunction,SMDPad,CuDef*%
%ADD37R,1.040000X1.470000*%
%TD*%
%TA.AperFunction,SMDPad,CuDef*%
%ADD38R,1.020000X1.040000*%
%TD*%
%TA.AperFunction,SMDPad,CuDef*%
%ADD39R,1.080000X1.680000*%
%TD*%
%TA.AperFunction,SMDPad,CuDef*%
%ADD40R,1.549400X0.990600*%
%TD*%
%TA.AperFunction,ComponentPad*%
%ADD41R,1.295400X1.295400*%
%TD*%
%TA.AperFunction,ComponentPad*%
%ADD42C,1.295400*%
%TD*%
%TA.AperFunction,SMDPad,CuDef*%
%ADD43R,5.000000X5.000000*%
%TD*%
%TA.AperFunction,SMDPad,CuDef*%
%ADD44R,2.000000X0.900000*%
%TD*%
%TA.AperFunction,SMDPad,CuDef*%
%ADD45R,0.900000X2.000000*%
%TD*%
%TA.AperFunction,SMDPad,CuDef*%
%ADD46R,0.305600X0.858799*%
%TD*%
%TA.AperFunction,SMDPad,CuDef*%
%ADD47R,2.413000X1.600200*%
%TD*%
%TA.AperFunction,SMDPad,CuDef*%
%ADD48R,1.670000X0.600000*%
%TD*%
%TA.AperFunction,SMDPad,CuDef*%
%ADD49R,6.450000X6.450000*%
%TD*%
%TA.AperFunction,ComponentPad*%
%ADD50C,0.500000*%
%TD*%
%TA.AperFunction,SMDPad,CuDef*%
%ADD51R,0.900000X1.100000*%
%TD*%
%TA.AperFunction,ViaPad*%
%ADD52C,0.500000*%
%TD*%
%TA.AperFunction,Conductor*%
%ADD53C,0.500000*%
%TD*%
%TA.AperFunction,Conductor*%
%ADD54C,0.400000*%
%TD*%
%TA.AperFunction,Conductor*%
%ADD55C,0.300000*%
%TD*%
%TA.AperFunction,Conductor*%
%ADD56C,0.200000*%
%TD*%
G04 APERTURE END LIST*
D10*
%TO.P,U_VR1,1*%
%TO.N,N/C*%
X119106000Y-107292000D03*
%TO.P,U_VR1,2*%
%TO.N,Pin16_Raw_+12V_Battery*%
X118606001Y-107292000D03*
%TO.P,U_VR1,3*%
%TO.N,Net-(C_VR1_2-Pad1)*%
X118106000Y-107292000D03*
%TO.P,U_VR1,4*%
%TO.N,Net-(C_VR1_1-Pad2)*%
X117606000Y-107292000D03*
%TO.P,U_VR1,5*%
%TO.N,Net-(C_VR1_2-Pad2)*%
X117105999Y-107292000D03*
%TO.P,U_VR1,6*%
%TO.N,Pin4_GnD_Chassis*%
X116606000Y-107292000D03*
%TO.P,U_VR1,7*%
X116606000Y-110132000D03*
%TO.P,U_VR1,8*%
%TO.N,Net-(C_VR1_3-Pad1)*%
X117105999Y-110132000D03*
%TO.P,U_VR1,9*%
%TO.N,+5V*%
X117606000Y-110132000D03*
%TO.P,U_VR1,10*%
%TO.N,Net-(C_VR1_3-Pad1)*%
X118106000Y-110132000D03*
%TO.P,U_VR1,11*%
%TO.N,N/C*%
X118606001Y-110132000D03*
%TO.P,U_VR1,12*%
X119106000Y-110132000D03*
D11*
%TO.P,U_VR1,13*%
%TO.N,Pin4_GnD_Chassis*%
X117856000Y-108712000D03*
%TD*%
D12*
%TO.P,J_CN_5,2*%
%TO.N,Pin6_ISO15765_CAN_BUS_High*%
X111760000Y-77216000D03*
D13*
%TO.P,J_CN_5,1*%
%TO.N,Pin14_ISO15765_CAN_BUS_Low*%
X111760000Y-79756000D03*
%TD*%
D12*
%TO.P,J_CN_7,4*%
%TO.N,Pin13*%
X100076000Y-104902000D03*
%TO.P,J_CN_7,3*%
%TO.N,Pin12*%
X102616000Y-104902000D03*
%TO.P,J_CN_7,2*%
%TO.N,Pin9*%
X105156000Y-104902000D03*
D13*
%TO.P,J_CN_7,1*%
%TO.N,Pin8*%
X107696000Y-104902000D03*
%TD*%
D12*
%TO.P,J_CN_6,2*%
%TO.N,Pin4_GnD_Chassis*%
X111760000Y-99568000D03*
D13*
%TO.P,J_CN_6,1*%
%TO.N,Pin16_Raw_+12V_Battery*%
X111760000Y-97028000D03*
%TD*%
D12*
%TO.P,J_CN_4,2*%
%TO.N,Pin3_MS_CAN_High*%
X111760000Y-83820000D03*
D13*
%TO.P,J_CN_4,1*%
%TO.N,Pin11_MS_CAN_Low*%
X111760000Y-86360000D03*
%TD*%
%TO.P,J_CN_3,1*%
%TO.N,Pin1_SW_CAN*%
X111760000Y-90424000D03*
%TD*%
D12*
%TO.P,J_CN_2,2*%
%TO.N,Pin7_ISO9141_K-Line*%
X124460000Y-93980000D03*
D13*
%TO.P,J_CN_2,1*%
%TO.N,Pin15_ISO9141_L-Line*%
X124460000Y-91440000D03*
%TD*%
D12*
%TO.P,J_CN_1,2*%
%TO.N,Pin2_SAE_J1850_BUS+*%
X88392000Y-111252000D03*
D13*
%TO.P,J_CN_1,1*%
%TO.N,Pin10_SAE_J1850_BUS-*%
X90932000Y-111252000D03*
%TD*%
D14*
%TO.P,C_STN_4,2*%
%TO.N,Pin4_GnD_Chassis*%
X148336000Y-114974000D03*
%TO.P,C_STN_4,1*%
%TO.N,/Host/~RESET_OBD_HW~*%
X148336000Y-116674000D03*
%TD*%
D12*
%TO.P,J_ESP_1,20*%
%TO.N,+3V3*%
X88328500Y-60134500D03*
%TO.P,J_ESP_1,19*%
%TO.N,Pin4_GnD_Chassis*%
X90868500Y-60134500D03*
%TO.P,J_ESP_1,18*%
%TO.N,N/C*%
X93408500Y-60134500D03*
%TO.P,J_ESP_1,17*%
X95948500Y-60134500D03*
%TO.P,J_ESP_1,16*%
%TO.N,/Host/IMU_SA0*%
X98488500Y-60134500D03*
%TO.P,J_ESP_1,15*%
%TO.N,Pin4_GnD_Chassis*%
X101028500Y-60134500D03*
%TO.P,J_ESP_1,14*%
%TO.N,/Host/IMU_SDA*%
X103568500Y-60134500D03*
%TO.P,J_ESP_1,13*%
%TO.N,/Host/IMU_SCL*%
X106108500Y-60134500D03*
%TO.P,J_ESP_1,12*%
%TO.N,/Host/IMU_INT1*%
X108648500Y-60134500D03*
%TO.P,J_ESP_1,11*%
%TO.N,/Host/IMU_INT2*%
X111188500Y-60134500D03*
%TO.P,J_ESP_1,10*%
%TO.N,/Host/~RESET_OBD_HW~*%
X113728500Y-60134500D03*
%TO.P,J_ESP_1,9*%
%TO.N,/Host/~PWR_CTRL~*%
X116268500Y-60134500D03*
%TO.P,J_ESP_1,8*%
%TO.N,/Host/ESP32/ESP32_Pin8*%
X118808500Y-60134500D03*
%TO.P,J_ESP_1,7*%
%TO.N,/Host/ESP32/ESP32_Pin7*%
X121348500Y-60134500D03*
%TO.P,J_ESP_1,6*%
%TO.N,/Host/ESP32/ESP32_Pin6*%
X123888500Y-60134500D03*
%TO.P,J_ESP_1,5*%
%TO.N,/Host/ESP32/ESP32_Pin5*%
X126428500Y-60134500D03*
%TO.P,J_ESP_1,4*%
%TO.N,/Host/ESP32/ESP32_Pin4*%
X128968500Y-60134500D03*
%TO.P,J_ESP_1,3*%
%TO.N,/Host/ESP32/ESP32_EN*%
X131508500Y-60134500D03*
%TO.P,J_ESP_1,2*%
%TO.N,+3V3*%
X134048500Y-60134500D03*
D13*
%TO.P,J_ESP_1,1*%
%TO.N,Pin4_GnD_Chassis*%
X136588500Y-60134500D03*
%TD*%
D15*
%TO.P,D_VS_1,2*%
%TO.N,/OBDII Interpreter/Analog_Voltage*%
X148259800Y-125476000D03*
%TO.P,D_VS_1,1*%
%TO.N,+3V3*%
X150444200Y-125476000D03*
%TD*%
D13*
%TO.P,J_ESP_2,1*%
%TO.N,Pin4_GnD_Chassis*%
X169608500Y-59880500D03*
D12*
%TO.P,J_ESP_2,2*%
%TO.N,/Host/ESP32/ESP32_Pin37*%
X172148500Y-59880500D03*
%TO.P,J_ESP_2,3*%
%TO.N,/Host/ESP32/ESP32_Pin36*%
X174688500Y-59880500D03*
%TO.P,J_ESP_2,4*%
%TO.N,/Host/ESP32/ESP32_TXD0*%
X177228500Y-59880500D03*
%TO.P,J_ESP_2,5*%
%TO.N,/Host/ESP32/ESP32_RXD0*%
X179768500Y-59880500D03*
%TO.P,J_ESP_2,6*%
%TO.N,/Host/ESP32/ESP32_Pin33*%
X182308500Y-59880500D03*
%TO.P,J_ESP_2,7*%
%TO.N,N/C*%
X184848500Y-59880500D03*
%TO.P,J_ESP_2,8*%
%TO.N,/Host/ESP32/ESP32_Pin31*%
X187388500Y-59880500D03*
%TO.P,J_ESP_2,9*%
%TO.N,/Host/~RESET_OBD_SW~*%
X189928500Y-59880500D03*
%TO.P,J_ESP_2,10*%
%TO.N,/Host/~SLEEP_OBD~*%
X192468500Y-59880500D03*
%TO.P,J_ESP_2,11*%
%TO.N,/Host/HST_TX*%
X195008500Y-59880500D03*
%TO.P,J_ESP_2,12*%
%TO.N,/Host/HST_RX*%
X197548500Y-59880500D03*
%TO.P,J_ESP_2,13*%
%TO.N,/Host/ESP32/ESP32_Pin26*%
X200088500Y-59880500D03*
%TO.P,J_ESP_2,14*%
%TO.N,/Host/ESP32/ESP32_Pin25*%
X202628500Y-59880500D03*
%TO.P,J_ESP_2,15*%
%TO.N,/Host/ESP32/ESP32_Pin24*%
X205168500Y-59880500D03*
%TO.P,J_ESP_2,16*%
%TO.N,/Host/ESP32/ESP32_Pin23*%
X207708500Y-59880500D03*
%TO.P,J_ESP_2,17*%
%TO.N,+5V*%
X210248500Y-59880500D03*
%TO.P,J_ESP_2,18*%
%TO.N,N/C*%
X212788500Y-59880500D03*
%TO.P,J_ESP_2,19*%
X215328500Y-59880500D03*
%TO.P,J_ESP_2,20*%
%TO.N,Pin4_GnD_Chassis*%
X217868500Y-59880500D03*
%TD*%
D16*
%TO.P,U_CN_1,0*%
%TO.N,Pin4_GnD_Chassis*%
X104394000Y-98855000D03*
X104394000Y-73865000D03*
D17*
%TO.P,U_CN_1,15*%
%TO.N,Pin12*%
X106934000Y-90669999D03*
%TO.P,U_CN_1,14*%
%TO.N,Pin9*%
X106934000Y-88379998D03*
%TO.P,U_CN_1,13*%
%TO.N,Pin4_GnD_Chassis*%
X106934000Y-86090001D03*
%TO.P,U_CN_1,12*%
%TO.N,Pin14_ISO15765_CAN_BUS_Low*%
X106934000Y-83800000D03*
%TO.P,U_CN_1,11*%
%TO.N,Pin6_ISO15765_CAN_BUS_High*%
X106934000Y-81510000D03*
%TO.P,U_CN_1,10*%
%TO.N,Pin16_Raw_+12V_Battery*%
X104394000Y-91815001D03*
%TO.P,U_CN_1,9*%
%TO.N,Pin1_SW_CAN*%
X104394000Y-89525000D03*
%TO.P,U_CN_1,8*%
%TO.N,Pin8*%
X104394000Y-87235000D03*
%TO.P,U_CN_1,7*%
%TO.N,Pin15_ISO9141_L-Line*%
X104394000Y-84944999D03*
%TO.P,U_CN_1,6*%
%TO.N,Pin7_ISO9141_K-Line*%
X104394000Y-82655001D03*
%TO.P,U_CN_1,5*%
%TO.N,Pin13*%
X101854000Y-90669999D03*
%TO.P,U_CN_1,4*%
%TO.N,Pin11_MS_CAN_Low*%
X101854000Y-88379998D03*
%TO.P,U_CN_1,3*%
%TO.N,Pin3_MS_CAN_High*%
X101854000Y-86090001D03*
%TO.P,U_CN_1,2*%
%TO.N,Pin10_SAE_J1850_BUS-*%
X101854000Y-83800000D03*
%TO.P,U_CN_1,1*%
%TO.N,Pin2_SAE_J1850_BUS+*%
X101854000Y-81510000D03*
%TD*%
D14*
%TO.P,C_HSCAN_1,1*%
%TO.N,Net-(C_HSCAN_1-Pad1)*%
X138938000Y-89051500D03*
%TO.P,C_HSCAN_1,2*%
%TO.N,Pin4_GnD_Chassis*%
X138938000Y-87351500D03*
%TD*%
%TO.P,C_HSCAN_2,2*%
%TO.N,Pin4_GnD_Chassis*%
X136461500Y-87351500D03*
%TO.P,C_HSCAN_2,1*%
%TO.N,Net-(C_HSCAN_2-Pad1)*%
X136461500Y-89051500D03*
%TD*%
%TO.P,C_J1850_1,1*%
%TO.N,Net-(C_J1850_1-Pad1)*%
X179260500Y-113386500D03*
%TO.P,C_J1850_1,2*%
%TO.N,Pin4_GnD_Chassis*%
X179260500Y-115086500D03*
%TD*%
D18*
%TO.P,C_PS_2,1*%
%TO.N,+5V*%
X125984000Y-108587998D03*
%TO.P,C_PS_2,2*%
%TO.N,Pin4_GnD_Chassis*%
X125984000Y-105788002D03*
%TD*%
D19*
%TO.P,C_PS_3,2*%
%TO.N,Pin4_GnD_Chassis*%
X90741500Y-63627000D03*
%TO.P,C_PS_3,1*%
%TO.N,+3V3*%
X87941504Y-63627000D03*
%TD*%
D20*
%TO.P,C_STN_2,2*%
%TO.N,Net-(C_STN_2-Pad2)*%
X163703000Y-102986500D03*
%TO.P,C_STN_2,1*%
%TO.N,Pin4_GnD_Chassis*%
X163703000Y-104404500D03*
%TD*%
%TO.P,C_STN_3,1*%
%TO.N,Net-(C_STN_3-Pad1)*%
X163703000Y-107516000D03*
%TO.P,C_STN_3,2*%
%TO.N,Pin4_GnD_Chassis*%
X163703000Y-106098000D03*
%TD*%
D14*
%TO.P,C_STN_5,2*%
%TO.N,Pin4_GnD_Chassis*%
X164465000Y-111594000D03*
%TO.P,C_STN_5,1*%
%TO.N,+3V3*%
X164465000Y-109894000D03*
%TD*%
D21*
%TO.P,C_STN_6,1*%
%TO.N,+3V3*%
X154217000Y-125984000D03*
%TO.P,C_STN_6,2*%
%TO.N,Pin4_GnD_Chassis*%
X155917000Y-125984000D03*
%TD*%
D19*
%TO.P,C_VR1_1,1*%
%TO.N,Pin4_GnD_Chassis*%
X115056004Y-99568000D03*
%TO.P,C_VR1_1,2*%
%TO.N,Net-(C_VR1_1-Pad2)*%
X117856000Y-99568000D03*
%TD*%
D21*
%TO.P,C_VR1_2,1*%
%TO.N,Net-(C_VR1_2-Pad1)*%
X118706000Y-102616000D03*
%TO.P,C_VR1_2,2*%
%TO.N,Net-(C_VR1_2-Pad2)*%
X117006000Y-102616000D03*
%TD*%
%TO.P,C_VR1_3,2*%
%TO.N,Pin4_GnD_Chassis*%
X115990000Y-113792000D03*
%TO.P,C_VR1_3,1*%
%TO.N,Net-(C_VR1_3-Pad1)*%
X117690000Y-113792000D03*
%TD*%
D14*
%TO.P,C_VR2_2,2*%
%TO.N,Net-(C_VR2_2-Pad2)*%
X91948000Y-66269500D03*
%TO.P,C_VR2_2,1*%
%TO.N,Net-(C_VR2_2-Pad1)*%
X91948000Y-67969500D03*
%TD*%
D21*
%TO.P,C_VR2_3,1*%
%TO.N,Net-(C_VR2_3-Pad1)*%
X95479500Y-62865000D03*
%TO.P,C_VR2_3,2*%
%TO.N,Pin4_GnD_Chassis*%
X97179500Y-62865000D03*
%TD*%
%TO.P,C_VS_1,2*%
%TO.N,Pin4_GnD_Chassis*%
X111594000Y-109728000D03*
%TO.P,C_VS_1,1*%
%TO.N,/OBDII Interpreter/Analog_Voltage*%
X109894000Y-109728000D03*
%TD*%
D22*
%TO.P,CP_ESP_1,1*%
%TO.N,+3V3*%
X135826500Y-71221600D03*
%TO.P,CP_ESP_1,2*%
%TO.N,Pin4_GnD_Chassis*%
X135826500Y-65811400D03*
%TD*%
%TO.P,CP_STN_1,1*%
%TO.N,Net-(CP_STN_1-Pad1)*%
%TA.AperFunction,SMDPad,CuDef*%
G36*
G01*
X143742500Y-112637500D02*
X142642500Y-112637500D01*
G75*
G02*
X142392500Y-112387500I0J250000D01*
G01*
X142392500Y-110287500D01*
G75*
G02*
X142642500Y-110037500I250000J0D01*
G01*
X143742500Y-110037500D01*
G75*
G02*
X143992500Y-110287500I0J-250000D01*
G01*
X143992500Y-112387500D01*
G75*
G02*
X143742500Y-112637500I-250000J0D01*
G01*
G37*
%TD.AperFunction*%
%TO.P,CP_STN_1,2*%
%TO.N,Pin4_GnD_Chassis*%
%TA.AperFunction,SMDPad,CuDef*%
G36*
G01*
X143742500Y-109037500D02*
X142642500Y-109037500D01*
G75*
G02*
X142392500Y-108787500I0J250000D01*
G01*
X142392500Y-106687500D01*
G75*
G02*
X142642500Y-106437500I250000J0D01*
G01*
X143742500Y-106437500D01*
G75*
G02*
X143992500Y-106687500I0J-250000D01*
G01*
X143992500Y-108787500D01*
G75*
G02*
X143742500Y-109037500I-250000J0D01*
G01*
G37*
%TD.AperFunction*%
%TD*%
D23*
%TO.P,D_ESD_4,1*%
%TO.N,Pin7_ISO9141_K-Line*%
X121456000Y-91882000D03*
%TO.P,D_ESD_4,2*%
%TO.N,Pin15_ISO9141_L-Line*%
X121456000Y-89982000D03*
%TO.P,D_ESD_4,3*%
%TO.N,Pin4_GnD_Chassis*%
X119336000Y-90932000D03*
%TD*%
D15*
%TO.P,D_J1850_1,2*%
%TO.N,Net-(D_J1850_1-Pad2)*%
X188899800Y-110744000D03*
%TO.P,D_J1850_1,1*%
%TO.N,Pin2_SAE_J1850_BUS+*%
X191084200Y-110744000D03*
%TD*%
%TO.P,D_J1850_2,1*%
%TO.N,Pin4_GnD_Chassis*%
X186677300Y-115379500D03*
%TO.P,D_J1850_2,2*%
%TO.N,Net-(D_J1850_2-Pad2)*%
X188861700Y-115379500D03*
%TD*%
D24*
%TO.P,D_J1850_3,1*%
%TO.N,Net-(D_J1850_3-Pad1)*%
X199644000Y-107238800D03*
%TO.P,D_J1850_3,2*%
%TO.N,+5V_SW*%
X199644000Y-109423200D03*
%TD*%
D15*
%TO.P,D_VS_2,1*%
%TO.N,/OBDII Interpreter/Analog_Voltage*%
X110667800Y-115316000D03*
%TO.P,D_VS_2,2*%
%TO.N,Pin4_GnD_Chassis*%
X112852200Y-115316000D03*
%TD*%
D12*
%TO.P,J_ESP_3,8*%
%TO.N,/Host/ESP32/ESP32_Pin22*%
X161988500Y-91122500D03*
%TO.P,J_ESP_3,7*%
%TO.N,/Host/ESP32/ESP32_Pin21*%
X159448500Y-91122500D03*
%TO.P,J_ESP_3,6*%
%TO.N,/Host/ESP32/ESP32_Pin20*%
X156908500Y-91122500D03*
%TO.P,J_ESP_3,5*%
%TO.N,+3V3*%
X154368500Y-91122500D03*
%TO.P,J_ESP_3,4*%
%TO.N,Pin4_GnD_Chassis*%
X151828500Y-91122500D03*
%TO.P,J_ESP_3,3*%
%TO.N,/Host/ESP32/ESP32_Pin19*%
X149288500Y-91122500D03*
%TO.P,J_ESP_3,2*%
%TO.N,/Host/ESP32/ESP32_Pin18*%
X146748500Y-91122500D03*
D13*
%TO.P,J_ESP_3,1*%
%TO.N,/Host/ESP32/ESP32_Pin17*%
X144208500Y-91122500D03*
%TD*%
%TO.P,J_PS_1,1*%
%TO.N,+5V*%
X215392000Y-117856000D03*
D12*
%TO.P,J_PS_1,2*%
%TO.N,+5V_SW*%
X215392000Y-115316000D03*
%TO.P,J_PS_1,3*%
%TO.N,+12V_SW*%
X215392000Y-112776000D03*
%TO.P,J_PS_1,4*%
%TO.N,Pin16_Raw_+12V_Battery*%
X215392000Y-110236000D03*
%TO.P,J_PS_1,5*%
%TO.N,+3.3V_SW*%
X215392000Y-107696000D03*
%TO.P,J_PS_1,6*%
%TO.N,Pin4_GnD_Chassis*%
X215392000Y-105156000D03*
%TO.P,J_PS_1,7*%
%TO.N,+3V3*%
X215392000Y-102616000D03*
%TO.P,J_PS_1,8*%
%TO.N,/Host/~PWR_CTRL~*%
X215392000Y-100076000D03*
%TD*%
D13*
%TO.P,J_STN_1,1*%
%TO.N,/Host/HST_RX*%
X166814500Y-91122500D03*
D12*
%TO.P,J_STN_1,2*%
%TO.N,/Host/HST_TX*%
X169354500Y-91122500D03*
%TD*%
D13*
%TO.P,J_STN_2,1*%
%TO.N,/OBDII Interpreter/High Speed CAN Transceiver/HS_CAN_TX*%
X135572500Y-108648500D03*
D12*
%TO.P,J_STN_2,2*%
%TO.N,/OBDII Interpreter/High Speed CAN Transceiver/HS_CAN_RX*%
X138112500Y-108648500D03*
%TD*%
%TO.P,J_STN_4,2*%
%TO.N,+3V3*%
X154368500Y-95694500D03*
D13*
%TO.P,J_STN_4,1*%
%TO.N,Pin4_GnD_Chassis*%
X151828500Y-95694500D03*
%TD*%
%TO.P,J_STN_5,1*%
%TO.N,+3V3*%
X167005000Y-109791500D03*
D12*
%TO.P,J_STN_5,2*%
%TO.N,Pin4_GnD_Chassis*%
X167005000Y-112331500D03*
%TD*%
%TO.P,J_STN_6,2*%
%TO.N,Pin4_GnD_Chassis*%
X160337500Y-122745500D03*
D13*
%TO.P,J_STN_6,1*%
%TO.N,/Host/~RESET_OBD_SW~*%
X157797500Y-122745500D03*
%TD*%
D25*
%TO.P,L_VR1,1*%
%TO.N,+5V*%
X122428000Y-109200950D03*
%TO.P,L_VR1,2*%
%TO.N,Net-(C_VR1_2-Pad2)*%
X122428000Y-107207050D03*
%TD*%
D26*
%TO.P,L_VR2,2*%
%TO.N,Net-(C_VR2_2-Pad2)*%
X89833450Y-66230500D03*
%TO.P,L_VR2,1*%
%TO.N,+3V3*%
X87839550Y-66230500D03*
%TD*%
%TO.P,LED_ESP_1,2*%
%TO.N,Net-(LED_ESP_1-Pad2)*%
%TA.AperFunction,SMDPad,CuDef*%
G36*
G01*
X166718500Y-85786250D02*
X166718500Y-86298750D01*
G75*
G02*
X166499750Y-86517500I-218750J0D01*
G01*
X166062250Y-86517500D01*
G75*
G02*
X165843500Y-86298750I0J218750D01*
G01*
X165843500Y-85786250D01*
G75*
G02*
X166062250Y-85567500I218750J0D01*
G01*
X166499750Y-85567500D01*
G75*
G02*
X166718500Y-85786250I0J-218750D01*
G01*
G37*
%TD.AperFunction*%
%TO.P,LED_ESP_1,1*%
%TO.N,Pin4_GnD_Chassis*%
%TA.AperFunction,SMDPad,CuDef*%
G36*
G01*
X168293500Y-85786250D02*
X168293500Y-86298750D01*
G75*
G02*
X168074750Y-86517500I-218750J0D01*
G01*
X167637250Y-86517500D01*
G75*
G02*
X167418500Y-86298750I0J218750D01*
G01*
X167418500Y-85786250D01*
G75*
G02*
X167637250Y-85567500I218750J0D01*
G01*
X168074750Y-85567500D01*
G75*
G02*
X168293500Y-85786250I0J-218750D01*
G01*
G37*
%TD.AperFunction*%
%TD*%
%TO.P,LED_STN_1,1*%
%TO.N,Net-(LED_STN_1-Pad1)*%
%TA.AperFunction,SMDPad,CuDef*%
G36*
G01*
X138385000Y-120139750D02*
X138385000Y-120652250D01*
G75*
G02*
X138166250Y-120871000I-218750J0D01*
G01*
X137728750Y-120871000D01*
G75*
G02*
X137510000Y-120652250I0J218750D01*
G01*
X137510000Y-120139750D01*
G75*
G02*
X137728750Y-119921000I218750J0D01*
G01*
X138166250Y-119921000D01*
G75*
G02*
X138385000Y-120139750I0J-218750D01*
G01*
G37*
%TD.AperFunction*%
%TO.P,LED_STN_1,2*%
%TO.N,+3V3*%
%TA.AperFunction,SMDPad,CuDef*%
G36*
G01*
X136810000Y-120139750D02*
X136810000Y-120652250D01*
G75*
G02*
X136591250Y-120871000I-218750J0D01*
G01*
X136153750Y-120871000D01*
G75*
G02*
X135935000Y-120652250I0J218750D01*
G01*
X135935000Y-120139750D01*
G75*
G02*
X136153750Y-119921000I218750J0D01*
G01*
X136591250Y-119921000D01*
G75*
G02*
X136810000Y-120139750I0J-218750D01*
G01*
G37*
%TD.AperFunction*%
%TD*%
%TO.P,LED_STN_2,2*%
%TO.N,+3V3*%
%TA.AperFunction,SMDPad,CuDef*%
G36*
G01*
X136810000Y-115059750D02*
X136810000Y-115572250D01*
G75*
G02*
X136591250Y-115791000I-218750J0D01*
G01*
X136153750Y-115791000D01*
G75*
G02*
X135935000Y-115572250I0J218750D01*
G01*
X135935000Y-115059750D01*
G75*
G02*
X136153750Y-114841000I218750J0D01*
G01*
X136591250Y-114841000D01*
G75*
G02*
X136810000Y-115059750I0J-218750D01*
G01*
G37*
%TD.AperFunction*%
%TO.P,LED_STN_2,1*%
%TO.N,Net-(LED_STN_2-Pad1)*%
%TA.AperFunction,SMDPad,CuDef*%
G36*
G01*
X138385000Y-115059750D02*
X138385000Y-115572250D01*
G75*
G02*
X138166250Y-115791000I-218750J0D01*
G01*
X137728750Y-115791000D01*
G75*
G02*
X137510000Y-115572250I0J218750D01*
G01*
X137510000Y-115059750D01*
G75*
G02*
X137728750Y-114841000I218750J0D01*
G01*
X138166250Y-114841000D01*
G75*
G02*
X138385000Y-115059750I0J-218750D01*
G01*
G37*
%TD.AperFunction*%
%TD*%
%TO.P,LED_STN_3,1*%
%TO.N,Net-(LED_STN_3-Pad1)*%
%TA.AperFunction,SMDPad,CuDef*%
G36*
G01*
X138385000Y-117599750D02*
X138385000Y-118112250D01*
G75*
G02*
X138166250Y-118331000I-218750J0D01*
G01*
X137728750Y-118331000D01*
G75*
G02*
X137510000Y-118112250I0J218750D01*
G01*
X137510000Y-117599750D01*
G75*
G02*
X137728750Y-117381000I218750J0D01*
G01*
X138166250Y-117381000D01*
G75*
G02*
X138385000Y-117599750I0J-218750D01*
G01*
G37*
%TD.AperFunction*%
%TO.P,LED_STN_3,2*%
%TO.N,+3V3*%
%TA.AperFunction,SMDPad,CuDef*%
G36*
G01*
X136810000Y-117599750D02*
X136810000Y-118112250D01*
G75*
G02*
X136591250Y-118331000I-218750J0D01*
G01*
X136153750Y-118331000D01*
G75*
G02*
X135935000Y-118112250I0J218750D01*
G01*
X135935000Y-117599750D01*
G75*
G02*
X136153750Y-117381000I218750J0D01*
G01*
X136591250Y-117381000D01*
G75*
G02*
X136810000Y-117599750I0J-218750D01*
G01*
G37*
%TD.AperFunction*%
%TD*%
D27*
%TO.P,Q_HSCAN_1,3*%
%TO.N,Net-(Q_HSCAN_1-Pad3)*%
X131000500Y-99688000D03*
%TO.P,Q_HSCAN_1,2*%
%TO.N,Pin4_GnD_Chassis*%
X131950500Y-101988000D03*
%TO.P,Q_HSCAN_1,1*%
%TO.N,/Host/~PWR_CTRL~*%
X130050500Y-101988000D03*
%TD*%
D28*
%TO.P,Q_ISO_1,3*%
%TO.N,Pin16_Raw_+12V_Battery*%
X175310800Y-99504500D03*
%TO.P,Q_ISO_1,2*%
%TO.N,Net-(Q_ISO_1-Pad2)*%
X173304200Y-100457000D03*
%TO.P,Q_ISO_1,1*%
%TO.N,/OBDII Interpreter/PWR_CTRL*%
X173304200Y-98552000D03*
%TD*%
%TO.P,Q_ISO_2,1*%
%TO.N,/OBDII Interpreter/PWR_CTRL*%
X173367700Y-93408500D03*
%TO.P,Q_ISO_2,2*%
%TO.N,Net-(Q_ISO_2-Pad2)*%
X173367700Y-95313500D03*
%TO.P,Q_ISO_2,3*%
%TO.N,Pin16_Raw_+12V_Battery*%
X175374300Y-94361000D03*
%TD*%
D29*
%TO.P,Q_ISO_3,3*%
%TO.N,Pin7_ISO9141_K-Line*%
X166227000Y-99441000D03*
%TO.P,Q_ISO_3,2*%
%TO.N,Pin4_GnD_Chassis*%
X164227000Y-100391000D03*
%TO.P,Q_ISO_3,1*%
%TO.N,Net-(Q_ISO_3-Pad1)*%
X164227000Y-98491000D03*
%TD*%
%TO.P,Q_ISO_4,1*%
%TO.N,Net-(Q_ISO_4-Pad1)*%
X164227000Y-94363500D03*
%TO.P,Q_ISO_4,2*%
%TO.N,Pin4_GnD_Chassis*%
X164227000Y-96263500D03*
%TO.P,Q_ISO_4,3*%
%TO.N,Pin15_ISO9141_L-Line*%
X166227000Y-95313500D03*
%TD*%
D30*
%TO.P,Q_J1850_1,3*%
%TO.N,Net-(Q_J1850_1-Pad3)*%
X168218500Y-116205000D03*
%TO.P,Q_J1850_1,2*%
%TO.N,Pin4_GnD_Chassis*%
X165918500Y-117155000D03*
%TO.P,Q_J1850_1,1*%
%TO.N,/OBDII Interpreter/OBDII Chip/~J1850_BUS+_VH~*%
X165918500Y-115255000D03*
%TD*%
D27*
%TO.P,Q_J1850_2,3*%
%TO.N,Net-(Q_J1850_2-Pad3)*%
X182880000Y-107068000D03*
%TO.P,Q_J1850_2,2*%
%TO.N,Pin4_GnD_Chassis*%
X181930000Y-104768000D03*
%TO.P,Q_J1850_2,1*%
%TO.N,/OBDII Interpreter/OBDII Chip/J1850_BUS+_TX*%
X183830000Y-104768000D03*
%TD*%
D31*
%TO.P,Q_J1850_3,1*%
%TO.N,Net-(Q_J1850_2-Pad3)*%
X184404000Y-109793999D03*
%TO.P,Q_J1850_3,2*%
%TO.N,+V_J1850*%
X184404000Y-111694001D03*
%TO.P,Q_J1850_3,3*%
%TO.N,Net-(D_J1850_1-Pad2)*%
X186690000Y-110744000D03*
%TD*%
D30*
%TO.P,Q_J1850_4,1*%
%TO.N,/OBDII Interpreter/OBDII Chip/J1850_BUS-_TX*%
X195446000Y-100650000D03*
%TO.P,Q_J1850_4,2*%
%TO.N,Pin4_GnD_Chassis*%
X195446000Y-102550000D03*
%TO.P,Q_J1850_4,3*%
%TO.N,Pin10_SAE_J1850_BUS-*%
X197746000Y-101600000D03*
%TD*%
D27*
%TO.P,Q_PS_1,1*%
%TO.N,/Host/~PWR_CTRL~*%
X180787000Y-98305000D03*
%TO.P,Q_PS_1,2*%
%TO.N,Pin4_GnD_Chassis*%
X182687000Y-98305000D03*
%TO.P,Q_PS_1,3*%
%TO.N,/OBDII Interpreter/PWR_CTRL*%
X181737000Y-96005000D03*
%TD*%
D30*
%TO.P,Q_PS_2,1*%
%TO.N,/OBDII Interpreter/PWR_CTRL*%
X200794000Y-118298000D03*
%TO.P,Q_PS_2,2*%
%TO.N,+12V_SW*%
X200794000Y-116398000D03*
%TO.P,Q_PS_2,3*%
%TO.N,Pin16_Raw_+12V_Battery*%
X198494000Y-117348000D03*
%TD*%
D27*
%TO.P,Q_PS_3,1*%
%TO.N,/OBDII Interpreter/PWR_CTRL*%
X200594000Y-111626000D03*
%TO.P,Q_PS_3,2*%
%TO.N,+5V_SW*%
X198694000Y-111626000D03*
%TO.P,Q_PS_3,3*%
%TO.N,+5V*%
X199644000Y-113926000D03*
%TD*%
%TO.P,Q_PS_4,3*%
%TO.N,+3V3*%
X207772000Y-105530000D03*
%TO.P,Q_PS_4,2*%
%TO.N,+3.3V_SW*%
X208722000Y-107830000D03*
%TO.P,Q_PS_4,1*%
%TO.N,/OBDII Interpreter/PWR_CTRL*%
X206822000Y-107830000D03*
%TD*%
D32*
%TO.P,R_COMP_2,1*%
%TO.N,Pin7_ISO9141_K-Line*%
X205232000Y-99562500D03*
%TO.P,R_COMP_2,2*%
%TO.N,Net-(R_COMP_2-Pad2)*%
X205232000Y-97922500D03*
%TD*%
%TO.P,R_COMP_3,1*%
%TO.N,Net-(R_COMP_3-Pad1)*%
X201676000Y-96398500D03*
%TO.P,R_COMP_3,2*%
%TO.N,Pin10_SAE_J1850_BUS-*%
X201676000Y-98038500D03*
%TD*%
%TO.P,R_COMP_6,1*%
%TO.N,+12V_SW*%
X207835500Y-99562500D03*
%TO.P,R_COMP_6,2*%
%TO.N,Net-(R_COMP_6-Pad2)*%
X207835500Y-97922500D03*
%TD*%
%TO.P,R_COMP_8,2*%
%TO.N,Net-(R_COMP_8-Pad2)*%
X213106000Y-69792000D03*
%TO.P,R_COMP_8,1*%
%TO.N,+5V_SW*%
X213106000Y-71432000D03*
%TD*%
D33*
%TO.P,R_COMP_9,1*%
%TO.N,Net-(R_COMP_8-Pad2)*%
X216731000Y-63436500D03*
%TO.P,R_COMP_9,2*%
%TO.N,Pin4_GnD_Chassis*%
X218371000Y-63436500D03*
%TD*%
%TO.P,R_COMP_10,1*%
%TO.N,Net-(R_COMP_10-Pad1)*%
X208084000Y-75692000D03*
%TO.P,R_COMP_10,2*%
%TO.N,Pin2_SAE_J1850_BUS+*%
X206444000Y-75692000D03*
%TD*%
D34*
%TO.P,R_ESP_3,1*%
%TO.N,Net-(LED_ESP_1-Pad2)*%
X163902500Y-86042500D03*
%TO.P,R_ESP_3,2*%
%TO.N,/Host/ESP32/ESP32_Pin24*%
X162360500Y-86042500D03*
%TD*%
D33*
%TO.P,R_ESP_4,1*%
%TO.N,Net-(R_ESP_4-Pad1)*%
X176905500Y-68516500D03*
%TO.P,R_ESP_4,2*%
%TO.N,+3V3*%
X175265500Y-68516500D03*
%TD*%
D32*
%TO.P,R_HSCAN_1,1*%
%TO.N,+3V3*%
X131000500Y-95827000D03*
%TO.P,R_HSCAN_1,2*%
%TO.N,Net-(Q_HSCAN_1-Pad3)*%
X131000500Y-97467000D03*
%TD*%
D35*
%TO.P,R_HSCAN_2,2*%
%TO.N,Net-(C_HSCAN_1-Pad1)*%
X138874500Y-91455500D03*
%TO.P,R_HSCAN_2,1*%
%TO.N,Pin14_ISO15765_CAN_BUS_Low*%
X138874500Y-94345500D03*
%TD*%
%TO.P,R_HSCAN_3,1*%
%TO.N,Pin6_ISO15765_CAN_BUS_High*%
X136461500Y-94345500D03*
%TO.P,R_HSCAN_3,2*%
%TO.N,Net-(C_HSCAN_2-Pad1)*%
X136461500Y-91455500D03*
%TD*%
D32*
%TO.P,R_IMU_1,1*%
%TO.N,+3V3*%
X121856500Y-75570500D03*
%TO.P,R_IMU_1,2*%
%TO.N,/Host/IMU_SCL*%
X121856500Y-77210500D03*
%TD*%
D36*
%TO.P,R_ISO_1,2*%
%TO.N,/OBDII Interpreter/ISO 9141/ISO 14230 Transceiver/~ISO_K_TX~*%
X160147000Y-100901500D03*
%TO.P,R_ISO_1,1*%
%TO.N,Net-(Q_ISO_3-Pad1)*%
X161747000Y-100901500D03*
%TD*%
%TO.P,R_ISO_2,1*%
%TO.N,Net-(Q_ISO_4-Pad1)*%
X161709000Y-98742500D03*
%TO.P,R_ISO_2,2*%
%TO.N,/OBDII Interpreter/ISO 9141/ISO 14230 Transceiver/~ISO_L_TX~*%
X160109000Y-98742500D03*
%TD*%
D37*
%TO.P,R_ISO_3,2*%
%TO.N,Net-(Q_ISO_1-Pad2)*%
X170104000Y-99250500D03*
%TO.P,R_ISO_3,1*%
%TO.N,Pin7_ISO9141_K-Line*%
X168224000Y-99250500D03*
%TD*%
%TO.P,R_ISO_4,1*%
%TO.N,Pin15_ISO9141_L-Line*%
X168097000Y-95250000D03*
%TO.P,R_ISO_4,2*%
%TO.N,Net-(Q_ISO_2-Pad2)*%
X169977000Y-95250000D03*
%TD*%
D38*
%TO.P,R_J1850_2,1*%
%TO.N,+V_J1850*%
X181864000Y-111415500D03*
%TO.P,R_J1850_2,2*%
%TO.N,Net-(Q_J1850_2-Pad3)*%
X181864000Y-109945500D03*
%TD*%
D39*
%TO.P,R_J1850_3,2*%
%TO.N,Net-(R_J1850_3-Pad2)*%
X175816000Y-107124500D03*
%TO.P,R_J1850_3,1*%
%TO.N,Net-(Q_J1850_1-Pad3)*%
X172926000Y-107124500D03*
%TD*%
D35*
%TO.P,R_J1850_4,2*%
%TO.N,Pin4_GnD_Chassis*%
X170624500Y-102250500D03*
%TO.P,R_J1850_4,1*%
%TO.N,Net-(Q_J1850_1-Pad3)*%
X170624500Y-105140500D03*
%TD*%
%TO.P,R_J1850_6,1*%
%TO.N,+V_J1850*%
X179324000Y-111363500D03*
%TO.P,R_J1850_6,2*%
%TO.N,Net-(R_J1850_3-Pad2)*%
X179324000Y-108473500D03*
%TD*%
D32*
%TO.P,R_J1850_7,1*%
%TO.N,/OBDII Interpreter/OBDII Chip/J1850_BUS-_TX*%
X192024000Y-100780000D03*
%TO.P,R_J1850_7,2*%
%TO.N,Pin4_GnD_Chassis*%
X192024000Y-102420000D03*
%TD*%
%TO.P,R_J1850_8,2*%
%TO.N,Pin10_SAE_J1850_BUS-*%
X201803000Y-101097500D03*
%TO.P,R_J1850_8,1*%
%TO.N,Net-(D_J1850_3-Pad1)*%
X201803000Y-102737500D03*
%TD*%
%TO.P,R_PS_1,2*%
%TO.N,/Host/~PWR_CTRL~*%
X212344000Y-100272000D03*
%TO.P,R_PS_1,1*%
%TO.N,+3V3*%
X212344000Y-101912000D03*
%TD*%
%TO.P,R_PS_2,1*%
%TO.N,Pin16_Raw_+12V_Battery*%
X186436000Y-97594000D03*
%TO.P,R_PS_2,2*%
%TO.N,/OBDII Interpreter/PWR_CTRL*%
X186436000Y-95954000D03*
%TD*%
%TO.P,R_STN_5,2*%
%TO.N,+3V3*%
X127000000Y-114104000D03*
%TO.P,R_STN_5,1*%
%TO.N,Net-(R_STN_5-Pad1)*%
X127000000Y-112464000D03*
%TD*%
%TO.P,R_STN_6,2*%
%TO.N,+3V3*%
X129032000Y-114104000D03*
%TO.P,R_STN_6,1*%
%TO.N,Net-(R_STN_6-Pad1)*%
X129032000Y-112464000D03*
%TD*%
D38*
%TO.P,R_STN_7,2*%
%TO.N,Net-(R_STN_7-Pad2)*%
X151701500Y-102752500D03*
%TO.P,R_STN_7,1*%
%TO.N,+3V3*%
X151701500Y-101282500D03*
%TD*%
%TO.P,R_STN_8,1*%
%TO.N,+3V3*%
X153987500Y-101309500D03*
%TO.P,R_STN_8,2*%
%TO.N,Net-(R_STN_8-Pad2)*%
X153987500Y-102779500D03*
%TD*%
D33*
%TO.P,R_STN_9,2*%
%TO.N,+3V3*%
X136340000Y-122936000D03*
%TO.P,R_STN_9,1*%
%TO.N,Net-(R_STN_9-Pad1)*%
X137980000Y-122936000D03*
%TD*%
D32*
%TO.P,R_STN_11,2*%
%TO.N,/Host/~RESET_OBD_SW~*%
X154876500Y-122243000D03*
%TO.P,R_STN_11,1*%
%TO.N,+3V3*%
X154876500Y-123883000D03*
%TD*%
%TO.P,R_STN_12,2*%
%TO.N,VDDA*%
X153225500Y-122243000D03*
%TO.P,R_STN_12,1*%
%TO.N,+3V3*%
X153225500Y-123883000D03*
%TD*%
%TO.P,R_STN_13,1*%
%TO.N,+3V3*%
X162687000Y-109924000D03*
%TO.P,R_STN_13,2*%
%TO.N,/Host/~SLEEP_OBD~*%
X162687000Y-111564000D03*
%TD*%
D33*
%TO.P,R_VR2_1,1*%
%TO.N,Pin4_GnD_Chassis*%
X102674000Y-68453000D03*
%TO.P,R_VR2_1,2*%
%TO.N,Net-(R_VR2_1-Pad2)*%
X101034000Y-68453000D03*
%TD*%
%TO.P,R_VR2_2,2*%
%TO.N,Pin4_GnD_Chassis*%
X102674000Y-66611500D03*
%TO.P,R_VR2_2,1*%
%TO.N,Net-(R_VR2_1-Pad2)*%
X101034000Y-66611500D03*
%TD*%
D32*
%TO.P,R_VR2_3,2*%
%TO.N,Net-(R_VR2_1-Pad2)*%
X99441000Y-64637500D03*
%TO.P,R_VR2_3,1*%
%TO.N,+3V3*%
X99441000Y-62997500D03*
%TD*%
D33*
%TO.P,R_VS_2,2*%
%TO.N,Pin4_GnD_Chassis*%
X111564000Y-112268000D03*
%TO.P,R_VS_2,1*%
%TO.N,/OBDII Interpreter/Analog_Voltage*%
X109924000Y-112268000D03*
%TD*%
D40*
%TO.P,SW_ESP_1,2*%
%TO.N,/Host/ESP32/ESP32_EN*%
X130577501Y-63360501D03*
%TO.P,SW_ESP_1,4*%
%TO.N,N/C*%
X130577501Y-66560499D03*
%TO.P,SW_ESP_1,3*%
%TO.N,Net-(R_ESP_2-Pad1)*%
X125327499Y-66560499D03*
%TO.P,SW_ESP_1,1*%
%TO.N,Net-(R_ESP_1-Pad2)*%
X125327499Y-63360501D03*
%TD*%
%TO.P,SW_ESP_2,1*%
%TO.N,N/C*%
X183028501Y-66306499D03*
%TO.P,SW_ESP_2,3*%
%TO.N,/Host/ESP32/ESP32_Pin25*%
X183028501Y-63106501D03*
%TO.P,SW_ESP_2,4*%
%TO.N,Net-(R_ESP_5-Pad2)*%
X177778499Y-63106501D03*
%TO.P,SW_ESP_2,2*%
%TO.N,Net-(R_ESP_4-Pad1)*%
X177778499Y-66306499D03*
%TD*%
%TO.P,SW_STN_1,1*%
%TO.N,Net-(R_STN_9-Pad1)*%
X143678999Y-118796001D03*
%TO.P,SW_STN_1,3*%
%TO.N,Net-(R_STN_10-Pad1)*%
X143678999Y-121995999D03*
%TO.P,SW_STN_1,4*%
%TO.N,N/C*%
X148929001Y-121995999D03*
%TO.P,SW_STN_1,2*%
%TO.N,/Host/~RESET_OBD_HW~*%
X148929001Y-118796001D03*
%TD*%
D41*
%TO.P,U_COMP_1,1*%
%TO.N,/OBDII Interpreter/Comparator Transceiver/~ISO_RX~*%
X194056000Y-90932000D03*
D42*
%TO.P,U_COMP_1,2*%
%TO.N,/OBDII Interpreter/Comparator Transceiver/PWM_RX*%
X196596000Y-90932000D03*
%TO.P,U_COMP_1,3*%
%TO.N,+12V_SW*%
X199136000Y-90932000D03*
%TO.P,U_COMP_1,4*%
%TO.N,Net-(R_COMP_3-Pad1)*%
X201676000Y-90932000D03*
%TO.P,U_COMP_1,5*%
%TO.N,Net-(R_COMP_1-Pad2)*%
X204216000Y-90932000D03*
%TO.P,U_COMP_1,6*%
%TO.N,Net-(R_COMP_2-Pad2)*%
X206756000Y-90932000D03*
%TO.P,U_COMP_1,7*%
%TO.N,Net-(R_COMP_6-Pad2)*%
X209296000Y-90932000D03*
%TO.P,U_COMP_1,8*%
%TO.N,Net-(R_COMP_8-Pad2)*%
X209296000Y-83312000D03*
%TO.P,U_COMP_1,9*%
%TO.N,Net-(R_COMP_10-Pad1)*%
X206756000Y-83312000D03*
%TO.P,U_COMP_1,10*%
%TO.N,N/C*%
X204216000Y-83312000D03*
%TO.P,U_COMP_1,11*%
X201676000Y-83312000D03*
%TO.P,U_COMP_1,12*%
%TO.N,Pin4_GnD_Chassis*%
X199136000Y-83312000D03*
%TO.P,U_COMP_1,13*%
%TO.N,N/C*%
X196596000Y-83312000D03*
%TO.P,U_COMP_1,14*%
%TO.N,/OBDII Interpreter/Comparator Transceiver/VPW_RX*%
X194056000Y-83312000D03*
%TD*%
D43*
%TO.P,U_ESP_1,39*%
%TO.N,Pin4_GnD_Chassis*%
X152098500Y-73349500D03*
D44*
%TO.P,U_ESP_1,1*%
X144598500Y-65849500D03*
%TO.P,U_ESP_1,2*%
%TO.N,+3V3*%
X144598500Y-67119500D03*
%TO.P,U_ESP_1,3*%
%TO.N,/Host/ESP32/ESP32_EN*%
X144598500Y-68389500D03*
%TO.P,U_ESP_1,4*%
%TO.N,/Host/ESP32/ESP32_Pin4*%
X144598500Y-69659500D03*
%TO.P,U_ESP_1,5*%
%TO.N,/Host/ESP32/ESP32_Pin5*%
X144598500Y-70929500D03*
%TO.P,U_ESP_1,6*%
%TO.N,/Host/ESP32/ESP32_Pin6*%
X144598500Y-72199500D03*
%TO.P,U_ESP_1,7*%
%TO.N,/Host/ESP32/ESP32_Pin7*%
X144598500Y-73469500D03*
%TO.P,U_ESP_1,8*%
%TO.N,/Host/ESP32/ESP32_Pin8*%
X144598500Y-74739500D03*
%TO.P,U_ESP_1,9*%
%TO.N,/Host/~PWR_CTRL~*%
X144598500Y-76009500D03*
%TO.P,U_ESP_1,10*%
%TO.N,/Host/~RESET_OBD_HW~*%
X144598500Y-77279500D03*
%TO.P,U_ESP_1,11*%
%TO.N,/Host/IMU_INT2*%
X144598500Y-78549500D03*
%TO.P,U_ESP_1,12*%
%TO.N,/Host/IMU_INT1*%
X144598500Y-79819500D03*
%TO.P,U_ESP_1,13*%
%TO.N,/Host/IMU_SCL*%
X144598500Y-81089500D03*
%TO.P,U_ESP_1,14*%
%TO.N,/Host/IMU_SDA*%
X144598500Y-82359500D03*
D45*
%TO.P,U_ESP_1,15*%
%TO.N,Pin4_GnD_Chassis*%
X147383500Y-83359500D03*
%TO.P,U_ESP_1,16*%
%TO.N,/Host/IMU_SA0*%
X148653500Y-83359500D03*
%TO.P,U_ESP_1,17*%
%TO.N,/Host/ESP32/ESP32_Pin17*%
X149923500Y-83359500D03*
%TO.P,U_ESP_1,18*%
%TO.N,/Host/ESP32/ESP32_Pin18*%
X151193500Y-83359500D03*
%TO.P,U_ESP_1,19*%
%TO.N,/Host/ESP32/ESP32_Pin19*%
X152463500Y-83359500D03*
%TO.P,U_ESP_1,20*%
%TO.N,/Host/ESP32/ESP32_Pin20*%
X153733500Y-83359500D03*
%TO.P,U_ESP_1,21*%
%TO.N,/Host/ESP32/ESP32_Pin21*%
X155003500Y-83359500D03*
%TO.P,U_ESP_1,22*%
%TO.N,/Host/ESP32/ESP32_Pin22*%
X156273500Y-83359500D03*
%TO.P,U_ESP_1,23*%
%TO.N,/Host/ESP32/ESP32_Pin23*%
X157543500Y-83359500D03*
%TO.P,U_ESP_1,24*%
%TO.N,/Host/ESP32/ESP32_Pin24*%
X158813500Y-83359500D03*
D44*
%TO.P,U_ESP_1,25*%
%TO.N,/Host/ESP32/ESP32_Pin25*%
X161598500Y-82359500D03*
%TO.P,U_ESP_1,26*%
%TO.N,/Host/ESP32/ESP32_Pin26*%
X161598500Y-81089500D03*
%TO.P,U_ESP_1,27*%
%TO.N,/Host/HST_RX*%
X161598500Y-79819500D03*
%TO.P,U_ESP_1,28*%
%TO.N,/Host/HST_TX*%
X161598500Y-78549500D03*
%TO.P,U_ESP_1,29*%
%TO.N,/Host/~SLEEP_OBD~*%
X161598500Y-77279500D03*
%TO.P,U_ESP_1,30*%
%TO.N,/Host/~RESET_OBD_SW~*%
X161598500Y-76009500D03*
%TO.P,U_ESP_1,31*%
%TO.N,/Host/ESP32/ESP32_Pin31*%
X161598500Y-74739500D03*
%TO.P,U_ESP_1,32*%
%TO.N,N/C*%
X161598500Y-73469500D03*
%TO.P,U_ESP_1,33*%
%TO.N,/Host/ESP32/ESP32_Pin33*%
X161598500Y-72199500D03*
%TO.P,U_ESP_1,34*%
%TO.N,/Host/ESP32/ESP32_RXD0*%
X161598500Y-70929500D03*
%TO.P,U_ESP_1,35*%
%TO.N,/Host/ESP32/ESP32_TXD0*%
X161598500Y-69659500D03*
%TO.P,U_ESP_1,36*%
%TO.N,/Host/ESP32/ESP32_Pin36*%
X161598500Y-68389500D03*
%TO.P,U_ESP_1,37*%
%TO.N,/Host/ESP32/ESP32_Pin37*%
X161598500Y-67119500D03*
%TO.P,U_ESP_1,38*%
%TO.N,Pin4_GnD_Chassis*%
X161598500Y-65849500D03*
%TD*%
D46*
%TO.P,U_HSCAN_1,1*%
%TO.N,/OBDII Interpreter/High Speed CAN Transceiver/HS_CAN_TX*%
X135613501Y-102397700D03*
%TO.P,U_HSCAN_1,2*%
%TO.N,Pin4_GnD_Chassis*%
X136263499Y-102397700D03*
%TO.P,U_HSCAN_1,3*%
%TO.N,+5V*%
X136913501Y-102397700D03*
%TO.P,U_HSCAN_1,4*%
%TO.N,/OBDII Interpreter/High Speed CAN Transceiver/HS_CAN_RX*%
X137563499Y-102397700D03*
%TO.P,U_HSCAN_1,5*%
%TO.N,+3V3*%
X137563499Y-99659300D03*
%TO.P,U_HSCAN_1,6*%
%TO.N,Pin14_ISO15765_CAN_BUS_Low*%
X136913501Y-99659300D03*
%TO.P,U_HSCAN_1,7*%
%TO.N,Pin6_ISO15765_CAN_BUS_High*%
X136263499Y-99659300D03*
%TO.P,U_HSCAN_1,8*%
%TO.N,Net-(Q_HSCAN_1-Pad3)*%
X135613501Y-99659300D03*
D47*
%TO.P,U_HSCAN_1,9*%
%TO.N,Pin4_GnD_Chassis*%
X136588500Y-101028500D03*
%TD*%
D48*
%TO.P,U_J1850_1,1*%
%TO.N,Net-(C_J1850_1-Pad1)*%
X175726000Y-113284000D03*
%TO.P,U_J1850_1,2*%
%TO.N,+V_J1850*%
X175726000Y-112014000D03*
%TO.P,U_J1850_1,3*%
%TO.N,N/C*%
X175726000Y-110744000D03*
%TO.P,U_J1850_1,4*%
%TO.N,Net-(R_J1850_3-Pad2)*%
X175726000Y-109474000D03*
%TO.P,U_J1850_1,5*%
%TO.N,N/C*%
X170476000Y-109474000D03*
%TO.P,U_J1850_1,6*%
X170476000Y-110744000D03*
%TO.P,U_J1850_1,7*%
X170476000Y-112014000D03*
%TO.P,U_J1850_1,8*%
X170476000Y-113284000D03*
%TD*%
%TO.P,U_STN_1,1*%
%TO.N,Pin4_GnD_Chassis*%
%TA.AperFunction,SMDPad,CuDef*%
G36*
G01*
X149237500Y-107518000D02*
X149237500Y-107343000D01*
G75*
G02*
X149325000Y-107255500I87500J0D01*
G01*
X150375000Y-107255500D01*
G75*
G02*
X150462500Y-107343000I0J-87500D01*
G01*
X150462500Y-107518000D01*
G75*
G02*
X150375000Y-107605500I-87500J0D01*
G01*
X149325000Y-107605500D01*
G75*
G02*
X149237500Y-107518000I0J87500D01*
G01*
G37*
%TD.AperFunction*%
%TO.P,U_STN_1,2*%
%TA.AperFunction,SMDPad,CuDef*%
G36*
G01*
X149237500Y-108168000D02*
X149237500Y-107993000D01*
G75*
G02*
X149325000Y-107905500I87500J0D01*
G01*
X150375000Y-107905500D01*
G75*
G02*
X150462500Y-107993000I0J-87500D01*
G01*
X150462500Y-108168000D01*
G75*
G02*
X150375000Y-108255500I-87500J0D01*
G01*
X149325000Y-108255500D01*
G75*
G02*
X149237500Y-108168000I0J87500D01*
G01*
G37*
%TD.AperFunction*%
%TO.P,U_STN_1,3*%
%TA.AperFunction,SMDPad,CuDef*%
G36*
G01*
X149237500Y-108818000D02*
X149237500Y-108643000D01*
G75*
G02*
X149325000Y-108555500I87500J0D01*
G01*
X150375000Y-108555500D01*
G75*
G02*
X150462500Y-108643000I0J-87500D01*
G01*
X150462500Y-108818000D01*
G75*
G02*
X150375000Y-108905500I-87500J0D01*
G01*
X149325000Y-108905500D01*
G75*
G02*
X149237500Y-108818000I0J87500D01*
G01*
G37*
%TD.AperFunction*%
%TO.P,U_STN_1,4*%
%TO.N,/Host/HST_TX*%
%TA.AperFunction,SMDPad,CuDef*%
G36*
G01*
X149237500Y-109468000D02*
X149237500Y-109293000D01*
G75*
G02*
X149325000Y-109205500I87500J0D01*
G01*
X150375000Y-109205500D01*
G75*
G02*
X150462500Y-109293000I0J-87500D01*
G01*
X150462500Y-109468000D01*
G75*
G02*
X150375000Y-109555500I-87500J0D01*
G01*
X149325000Y-109555500D01*
G75*
G02*
X149237500Y-109468000I0J87500D01*
G01*
G37*
%TD.AperFunction*%
%TO.P,U_STN_1,5*%
%TO.N,/Host/HST_RX*%
%TA.AperFunction,SMDPad,CuDef*%
G36*
G01*
X149237500Y-110118000D02*
X149237500Y-109943000D01*
G75*
G02*
X149325000Y-109855500I87500J0D01*
G01*
X150375000Y-109855500D01*
G75*
G02*
X150462500Y-109943000I0J-87500D01*
G01*
X150462500Y-110118000D01*
G75*
G02*
X150375000Y-110205500I-87500J0D01*
G01*
X149325000Y-110205500D01*
G75*
G02*
X149237500Y-110118000I0J87500D01*
G01*
G37*
%TD.AperFunction*%
%TO.P,U_STN_1,6*%
%TO.N,Pin4_GnD_Chassis*%
%TA.AperFunction,SMDPad,CuDef*%
G36*
G01*
X149237500Y-110768000D02*
X149237500Y-110593000D01*
G75*
G02*
X149325000Y-110505500I87500J0D01*
G01*
X150375000Y-110505500D01*
G75*
G02*
X150462500Y-110593000I0J-87500D01*
G01*
X150462500Y-110768000D01*
G75*
G02*
X150375000Y-110855500I-87500J0D01*
G01*
X149325000Y-110855500D01*
G75*
G02*
X149237500Y-110768000I0J87500D01*
G01*
G37*
%TD.AperFunction*%
%TO.P,U_STN_1,7*%
%TO.N,Net-(CP_STN_1-Pad1)*%
%TA.AperFunction,SMDPad,CuDef*%
G36*
G01*
X149237500Y-111418000D02*
X149237500Y-111243000D01*
G75*
G02*
X149325000Y-111155500I87500J0D01*
G01*
X150375000Y-111155500D01*
G75*
G02*
X150462500Y-111243000I0J-87500D01*
G01*
X150462500Y-111418000D01*
G75*
G02*
X150375000Y-111505500I-87500J0D01*
G01*
X149325000Y-111505500D01*
G75*
G02*
X149237500Y-111418000I0J87500D01*
G01*
G37*
%TD.AperFunction*%
%TO.P,U_STN_1,8*%
%TO.N,/OBDII Interpreter/High Speed CAN Transceiver/HS_CAN_TX*%
%TA.AperFunction,SMDPad,CuDef*%
G36*
G01*
X149237500Y-112068000D02*
X149237500Y-111893000D01*
G75*
G02*
X149325000Y-111805500I87500J0D01*
G01*
X150375000Y-111805500D01*
G75*
G02*
X150462500Y-111893000I0J-87500D01*
G01*
X150462500Y-112068000D01*
G75*
G02*
X150375000Y-112155500I-87500J0D01*
G01*
X149325000Y-112155500D01*
G75*
G02*
X149237500Y-112068000I0J87500D01*
G01*
G37*
%TD.AperFunction*%
%TO.P,U_STN_1,9*%
%TO.N,Net-(R_STN_5-Pad1)*%
%TA.AperFunction,SMDPad,CuDef*%
G36*
G01*
X149237500Y-112718000D02*
X149237500Y-112543000D01*
G75*
G02*
X149325000Y-112455500I87500J0D01*
G01*
X150375000Y-112455500D01*
G75*
G02*
X150462500Y-112543000I0J-87500D01*
G01*
X150462500Y-112718000D01*
G75*
G02*
X150375000Y-112805500I-87500J0D01*
G01*
X149325000Y-112805500D01*
G75*
G02*
X149237500Y-112718000I0J87500D01*
G01*
G37*
%TD.AperFunction*%
%TO.P,U_STN_1,10*%
%TO.N,/OBDII Interpreter/High Speed CAN Transceiver/HS_CAN_RX*%
%TA.AperFunction,SMDPad,CuDef*%
G36*
G01*
X149237500Y-113368000D02*
X149237500Y-113193000D01*
G75*
G02*
X149325000Y-113105500I87500J0D01*
G01*
X150375000Y-113105500D01*
G75*
G02*
X150462500Y-113193000I0J-87500D01*
G01*
X150462500Y-113368000D01*
G75*
G02*
X150375000Y-113455500I-87500J0D01*
G01*
X149325000Y-113455500D01*
G75*
G02*
X149237500Y-113368000I0J87500D01*
G01*
G37*
%TD.AperFunction*%
%TO.P,U_STN_1,11*%
%TO.N,Net-(R_STN_6-Pad1)*%
%TA.AperFunction,SMDPad,CuDef*%
G36*
G01*
X149237500Y-114018000D02*
X149237500Y-113843000D01*
G75*
G02*
X149325000Y-113755500I87500J0D01*
G01*
X150375000Y-113755500D01*
G75*
G02*
X150462500Y-113843000I0J-87500D01*
G01*
X150462500Y-114018000D01*
G75*
G02*
X150375000Y-114105500I-87500J0D01*
G01*
X149325000Y-114105500D01*
G75*
G02*
X149237500Y-114018000I0J87500D01*
G01*
G37*
%TD.AperFunction*%
%TO.P,U_STN_1,12*%
%TO.N,/Host/~RESET_OBD_HW~*%
%TA.AperFunction,SMDPad,CuDef*%
G36*
G01*
X150562500Y-115343000D02*
X150562500Y-114293000D01*
G75*
G02*
X150650000Y-114205500I87500J0D01*
G01*
X150825000Y-114205500D01*
G75*
G02*
X150912500Y-114293000I0J-87500D01*
G01*
X150912500Y-115343000D01*
G75*
G02*
X150825000Y-115430500I-87500J0D01*
G01*
X150650000Y-115430500D01*
G75*
G02*
X150562500Y-115343000I0J87500D01*
G01*
G37*
%TD.AperFunction*%
%TO.P,U_STN_1,13*%
%TO.N,Net-(R_STN_3-Pad2)*%
%TA.AperFunction,SMDPad,CuDef*%
G36*
G01*
X151212500Y-115343000D02*
X151212500Y-114293000D01*
G75*
G02*
X151300000Y-114205500I87500J0D01*
G01*
X151475000Y-114205500D01*
G75*
G02*
X151562500Y-114293000I0J-87500D01*
G01*
X151562500Y-115343000D01*
G75*
G02*
X151475000Y-115430500I-87500J0D01*
G01*
X151300000Y-115430500D01*
G75*
G02*
X151212500Y-115343000I0J87500D01*
G01*
G37*
%TD.AperFunction*%
%TO.P,U_STN_1,14*%
%TO.N,Net-(R_STN_1-Pad2)*%
%TA.AperFunction,SMDPad,CuDef*%
G36*
G01*
X151862500Y-115343000D02*
X151862500Y-114293000D01*
G75*
G02*
X151950000Y-114205500I87500J0D01*
G01*
X152125000Y-114205500D01*
G75*
G02*
X152212500Y-114293000I0J-87500D01*
G01*
X152212500Y-115343000D01*
G75*
G02*
X152125000Y-115430500I-87500J0D01*
G01*
X151950000Y-115430500D01*
G75*
G02*
X151862500Y-115343000I0J87500D01*
G01*
G37*
%TD.AperFunction*%
%TO.P,U_STN_1,15*%
%TO.N,Pin4_GnD_Chassis*%
%TA.AperFunction,SMDPad,CuDef*%
G36*
G01*
X152512500Y-115343000D02*
X152512500Y-114293000D01*
G75*
G02*
X152600000Y-114205500I87500J0D01*
G01*
X152775000Y-114205500D01*
G75*
G02*
X152862500Y-114293000I0J-87500D01*
G01*
X152862500Y-115343000D01*
G75*
G02*
X152775000Y-115430500I-87500J0D01*
G01*
X152600000Y-115430500D01*
G75*
G02*
X152512500Y-115343000I0J87500D01*
G01*
G37*
%TD.AperFunction*%
%TO.P,U_STN_1,16*%
%TA.AperFunction,SMDPad,CuDef*%
G36*
G01*
X153162500Y-115343000D02*
X153162500Y-114293000D01*
G75*
G02*
X153250000Y-114205500I87500J0D01*
G01*
X153425000Y-114205500D01*
G75*
G02*
X153512500Y-114293000I0J-87500D01*
G01*
X153512500Y-115343000D01*
G75*
G02*
X153425000Y-115430500I-87500J0D01*
G01*
X153250000Y-115430500D01*
G75*
G02*
X153162500Y-115343000I0J87500D01*
G01*
G37*
%TD.AperFunction*%
%TO.P,U_STN_1,17*%
%TO.N,VDDA*%
%TA.AperFunction,SMDPad,CuDef*%
G36*
G01*
X153812500Y-115343000D02*
X153812500Y-114293000D01*
G75*
G02*
X153900000Y-114205500I87500J0D01*
G01*
X154075000Y-114205500D01*
G75*
G02*
X154162500Y-114293000I0J-87500D01*
G01*
X154162500Y-115343000D01*
G75*
G02*
X154075000Y-115430500I-87500J0D01*
G01*
X153900000Y-115430500D01*
G75*
G02*
X153812500Y-115343000I0J87500D01*
G01*
G37*
%TD.AperFunction*%
%TO.P,U_STN_1,18*%
%TO.N,/Host/~RESET_OBD_SW~*%
%TA.AperFunction,SMDPad,CuDef*%
G36*
G01*
X154462500Y-115343000D02*
X154462500Y-114293000D01*
G75*
G02*
X154550000Y-114205500I87500J0D01*
G01*
X154725000Y-114205500D01*
G75*
G02*
X154812500Y-114293000I0J-87500D01*
G01*
X154812500Y-115343000D01*
G75*
G02*
X154725000Y-115430500I-87500J0D01*
G01*
X154550000Y-115430500D01*
G75*
G02*
X154462500Y-115343000I0J87500D01*
G01*
G37*
%TD.AperFunction*%
%TO.P,U_STN_1,19*%
%TO.N,/OBDII Interpreter/Analog_Voltage*%
%TA.AperFunction,SMDPad,CuDef*%
G36*
G01*
X155112500Y-115343000D02*
X155112500Y-114293000D01*
G75*
G02*
X155200000Y-114205500I87500J0D01*
G01*
X155375000Y-114205500D01*
G75*
G02*
X155462500Y-114293000I0J-87500D01*
G01*
X155462500Y-115343000D01*
G75*
G02*
X155375000Y-115430500I-87500J0D01*
G01*
X155200000Y-115430500D01*
G75*
G02*
X155112500Y-115343000I0J87500D01*
G01*
G37*
%TD.AperFunction*%
%TO.P,U_STN_1,20*%
%TO.N,Pin4_GnD_Chassis*%
%TA.AperFunction,SMDPad,CuDef*%
G36*
G01*
X155762500Y-115343000D02*
X155762500Y-114293000D01*
G75*
G02*
X155850000Y-114205500I87500J0D01*
G01*
X156025000Y-114205500D01*
G75*
G02*
X156112500Y-114293000I0J-87500D01*
G01*
X156112500Y-115343000D01*
G75*
G02*
X156025000Y-115430500I-87500J0D01*
G01*
X155850000Y-115430500D01*
G75*
G02*
X155762500Y-115343000I0J87500D01*
G01*
G37*
%TD.AperFunction*%
%TO.P,U_STN_1,21*%
%TO.N,/OBDII Interpreter/Comparator Transceiver/~ISO_RX~*%
%TA.AperFunction,SMDPad,CuDef*%
G36*
G01*
X156412500Y-115343000D02*
X156412500Y-114293000D01*
G75*
G02*
X156500000Y-114205500I87500J0D01*
G01*
X156675000Y-114205500D01*
G75*
G02*
X156762500Y-114293000I0J-87500D01*
G01*
X156762500Y-115343000D01*
G75*
G02*
X156675000Y-115430500I-87500J0D01*
G01*
X156500000Y-115430500D01*
G75*
G02*
X156412500Y-115343000I0J87500D01*
G01*
G37*
%TD.AperFunction*%
%TO.P,U_STN_1,22*%
%TO.N,/OBDII Interpreter/Comparator Transceiver/VPW_RX*%
%TA.AperFunction,SMDPad,CuDef*%
G36*
G01*
X157062500Y-115343000D02*
X157062500Y-114293000D01*
G75*
G02*
X157150000Y-114205500I87500J0D01*
G01*
X157325000Y-114205500D01*
G75*
G02*
X157412500Y-114293000I0J-87500D01*
G01*
X157412500Y-115343000D01*
G75*
G02*
X157325000Y-115430500I-87500J0D01*
G01*
X157150000Y-115430500D01*
G75*
G02*
X157062500Y-115343000I0J87500D01*
G01*
G37*
%TD.AperFunction*%
%TO.P,U_STN_1,23*%
%TO.N,/OBDII Interpreter/Comparator Transceiver/PWM_RX*%
%TA.AperFunction,SMDPad,CuDef*%
G36*
G01*
X157512500Y-114018000D02*
X157512500Y-113843000D01*
G75*
G02*
X157600000Y-113755500I87500J0D01*
G01*
X158650000Y-113755500D01*
G75*
G02*
X158737500Y-113843000I0J-87500D01*
G01*
X158737500Y-114018000D01*
G75*
G02*
X158650000Y-114105500I-87500J0D01*
G01*
X157600000Y-114105500D01*
G75*
G02*
X157512500Y-114018000I0J87500D01*
G01*
G37*
%TD.AperFunction*%
%TO.P,U_STN_1,24*%
%TO.N,/OBDII Interpreter/OBDII Chip/J1850_BUS+_TX*%
%TA.AperFunction,SMDPad,CuDef*%
G36*
G01*
X157512500Y-113368000D02*
X157512500Y-113193000D01*
G75*
G02*
X157600000Y-113105500I87500J0D01*
G01*
X158650000Y-113105500D01*
G75*
G02*
X158737500Y-113193000I0J-87500D01*
G01*
X158737500Y-113368000D01*
G75*
G02*
X158650000Y-113455500I-87500J0D01*
G01*
X157600000Y-113455500D01*
G75*
G02*
X157512500Y-113368000I0J87500D01*
G01*
G37*
%TD.AperFunction*%
%TO.P,U_STN_1,25*%
%TO.N,/OBDII Interpreter/OBDII Chip/~J1850_BUS+_VH~*%
%TA.AperFunction,SMDPad,CuDef*%
G36*
G01*
X157512500Y-112718000D02*
X157512500Y-112543000D01*
G75*
G02*
X157600000Y-112455500I87500J0D01*
G01*
X158650000Y-112455500D01*
G75*
G02*
X158737500Y-112543000I0J-87500D01*
G01*
X158737500Y-112718000D01*
G75*
G02*
X158650000Y-112805500I-87500J0D01*
G01*
X157600000Y-112805500D01*
G75*
G02*
X157512500Y-112718000I0J87500D01*
G01*
G37*
%TD.AperFunction*%
%TO.P,U_STN_1,26*%
%TO.N,Pin4_GnD_Chassis*%
%TA.AperFunction,SMDPad,CuDef*%
G36*
G01*
X157512500Y-112068000D02*
X157512500Y-111893000D01*
G75*
G02*
X157600000Y-111805500I87500J0D01*
G01*
X158650000Y-111805500D01*
G75*
G02*
X158737500Y-111893000I0J-87500D01*
G01*
X158737500Y-112068000D01*
G75*
G02*
X158650000Y-112155500I-87500J0D01*
G01*
X157600000Y-112155500D01*
G75*
G02*
X157512500Y-112068000I0J87500D01*
G01*
G37*
%TD.AperFunction*%
%TO.P,U_STN_1,27*%
%TO.N,/Host/~SLEEP_OBD~*%
%TA.AperFunction,SMDPad,CuDef*%
G36*
G01*
X157512500Y-111418000D02*
X157512500Y-111243000D01*
G75*
G02*
X157600000Y-111155500I87500J0D01*
G01*
X158650000Y-111155500D01*
G75*
G02*
X158737500Y-111243000I0J-87500D01*
G01*
X158737500Y-111418000D01*
G75*
G02*
X158650000Y-111505500I-87500J0D01*
G01*
X157600000Y-111505500D01*
G75*
G02*
X157512500Y-111418000I0J87500D01*
G01*
G37*
%TD.AperFunction*%
%TO.P,U_STN_1,28*%
%TO.N,+3V3*%
%TA.AperFunction,SMDPad,CuDef*%
G36*
G01*
X157512500Y-110768000D02*
X157512500Y-110593000D01*
G75*
G02*
X157600000Y-110505500I87500J0D01*
G01*
X158650000Y-110505500D01*
G75*
G02*
X158737500Y-110593000I0J-87500D01*
G01*
X158737500Y-110768000D01*
G75*
G02*
X158650000Y-110855500I-87500J0D01*
G01*
X157600000Y-110855500D01*
G75*
G02*
X157512500Y-110768000I0J87500D01*
G01*
G37*
%TD.AperFunction*%
%TO.P,U_STN_1,29*%
%TO.N,Pin4_GnD_Chassis*%
%TA.AperFunction,SMDPad,CuDef*%
G36*
G01*
X157512500Y-110118000D02*
X157512500Y-109943000D01*
G75*
G02*
X157600000Y-109855500I87500J0D01*
G01*
X158650000Y-109855500D01*
G75*
G02*
X158737500Y-109943000I0J-87500D01*
G01*
X158737500Y-110118000D01*
G75*
G02*
X158650000Y-110205500I-87500J0D01*
G01*
X157600000Y-110205500D01*
G75*
G02*
X157512500Y-110118000I0J87500D01*
G01*
G37*
%TD.AperFunction*%
%TO.P,U_STN_1,30*%
%TO.N,Net-(C_STN_3-Pad1)*%
%TA.AperFunction,SMDPad,CuDef*%
G36*
G01*
X157512500Y-109468000D02*
X157512500Y-109293000D01*
G75*
G02*
X157600000Y-109205500I87500J0D01*
G01*
X158650000Y-109205500D01*
G75*
G02*
X158737500Y-109293000I0J-87500D01*
G01*
X158737500Y-109468000D01*
G75*
G02*
X158650000Y-109555500I-87500J0D01*
G01*
X157600000Y-109555500D01*
G75*
G02*
X157512500Y-109468000I0J87500D01*
G01*
G37*
%TD.AperFunction*%
%TO.P,U_STN_1,31*%
%TO.N,Net-(C_STN_2-Pad2)*%
%TA.AperFunction,SMDPad,CuDef*%
G36*
G01*
X157512500Y-108818000D02*
X157512500Y-108643000D01*
G75*
G02*
X157600000Y-108555500I87500J0D01*
G01*
X158650000Y-108555500D01*
G75*
G02*
X158737500Y-108643000I0J-87500D01*
G01*
X158737500Y-108818000D01*
G75*
G02*
X158650000Y-108905500I-87500J0D01*
G01*
X157600000Y-108905500D01*
G75*
G02*
X157512500Y-108818000I0J87500D01*
G01*
G37*
%TD.AperFunction*%
%TO.P,U_STN_1,32*%
%TO.N,/Host/~PWR_CTRL~*%
%TA.AperFunction,SMDPad,CuDef*%
G36*
G01*
X157512500Y-108168000D02*
X157512500Y-107993000D01*
G75*
G02*
X157600000Y-107905500I87500J0D01*
G01*
X158650000Y-107905500D01*
G75*
G02*
X158737500Y-107993000I0J-87500D01*
G01*
X158737500Y-108168000D01*
G75*
G02*
X158650000Y-108255500I-87500J0D01*
G01*
X157600000Y-108255500D01*
G75*
G02*
X157512500Y-108168000I0J87500D01*
G01*
G37*
%TD.AperFunction*%
%TO.P,U_STN_1,33*%
%TO.N,/OBDII Interpreter/OBDII Chip/J1850_BUS-_TX*%
%TA.AperFunction,SMDPad,CuDef*%
G36*
G01*
X157512500Y-107518000D02*
X157512500Y-107343000D01*
G75*
G02*
X157600000Y-107255500I87500J0D01*
G01*
X158650000Y-107255500D01*
G75*
G02*
X158737500Y-107343000I0J-87500D01*
G01*
X158737500Y-107518000D01*
G75*
G02*
X158650000Y-107605500I-87500J0D01*
G01*
X157600000Y-107605500D01*
G75*
G02*
X157512500Y-107518000I0J87500D01*
G01*
G37*
%TD.AperFunction*%
%TO.P,U_STN_1,34*%
%TO.N,N/C*%
%TA.AperFunction,SMDPad,CuDef*%
G36*
G01*
X157062500Y-107068000D02*
X157062500Y-106018000D01*
G75*
G02*
X157150000Y-105930500I87500J0D01*
G01*
X157325000Y-105930500D01*
G75*
G02*
X157412500Y-106018000I0J-87500D01*
G01*
X157412500Y-107068000D01*
G75*
G02*
X157325000Y-107155500I-87500J0D01*
G01*
X157150000Y-107155500D01*
G75*
G02*
X157062500Y-107068000I0J87500D01*
G01*
G37*
%TD.AperFunction*%
%TO.P,U_STN_1,35*%
%TA.AperFunction,SMDPad,CuDef*%
G36*
G01*
X156412500Y-107068000D02*
X156412500Y-106018000D01*
G75*
G02*
X156500000Y-105930500I87500J0D01*
G01*
X156675000Y-105930500D01*
G75*
G02*
X156762500Y-106018000I0J-87500D01*
G01*
X156762500Y-107068000D01*
G75*
G02*
X156675000Y-107155500I-87500J0D01*
G01*
X156500000Y-107155500D01*
G75*
G02*
X156412500Y-107068000I0J87500D01*
G01*
G37*
%TD.AperFunction*%
%TO.P,U_STN_1,36*%
%TA.AperFunction,SMDPad,CuDef*%
G36*
G01*
X155762500Y-107068000D02*
X155762500Y-106018000D01*
G75*
G02*
X155850000Y-105930500I87500J0D01*
G01*
X156025000Y-105930500D01*
G75*
G02*
X156112500Y-106018000I0J-87500D01*
G01*
X156112500Y-107068000D01*
G75*
G02*
X156025000Y-107155500I-87500J0D01*
G01*
X155850000Y-107155500D01*
G75*
G02*
X155762500Y-107068000I0J87500D01*
G01*
G37*
%TD.AperFunction*%
%TO.P,U_STN_1,37*%
%TO.N,Pin4_GnD_Chassis*%
%TA.AperFunction,SMDPad,CuDef*%
G36*
G01*
X155112500Y-107068000D02*
X155112500Y-106018000D01*
G75*
G02*
X155200000Y-105930500I87500J0D01*
G01*
X155375000Y-105930500D01*
G75*
G02*
X155462500Y-106018000I0J-87500D01*
G01*
X155462500Y-107068000D01*
G75*
G02*
X155375000Y-107155500I-87500J0D01*
G01*
X155200000Y-107155500D01*
G75*
G02*
X155112500Y-107068000I0J87500D01*
G01*
G37*
%TD.AperFunction*%
%TO.P,U_STN_1,38*%
%TA.AperFunction,SMDPad,CuDef*%
G36*
G01*
X154462500Y-107068000D02*
X154462500Y-106018000D01*
G75*
G02*
X154550000Y-105930500I87500J0D01*
G01*
X154725000Y-105930500D01*
G75*
G02*
X154812500Y-106018000I0J-87500D01*
G01*
X154812500Y-107068000D01*
G75*
G02*
X154725000Y-107155500I-87500J0D01*
G01*
X154550000Y-107155500D01*
G75*
G02*
X154462500Y-107068000I0J87500D01*
G01*
G37*
%TD.AperFunction*%
%TO.P,U_STN_1,39*%
%TA.AperFunction,SMDPad,CuDef*%
G36*
G01*
X153812500Y-107068000D02*
X153812500Y-106018000D01*
G75*
G02*
X153900000Y-105930500I87500J0D01*
G01*
X154075000Y-105930500D01*
G75*
G02*
X154162500Y-106018000I0J-87500D01*
G01*
X154162500Y-107068000D01*
G75*
G02*
X154075000Y-107155500I-87500J0D01*
G01*
X153900000Y-107155500D01*
G75*
G02*
X153812500Y-107068000I0J87500D01*
G01*
G37*
%TD.AperFunction*%
%TO.P,U_STN_1,40*%
%TO.N,+3V3*%
%TA.AperFunction,SMDPad,CuDef*%
G36*
G01*
X153162500Y-107068000D02*
X153162500Y-106018000D01*
G75*
G02*
X153250000Y-105930500I87500J0D01*
G01*
X153425000Y-105930500D01*
G75*
G02*
X153512500Y-106018000I0J-87500D01*
G01*
X153512500Y-107068000D01*
G75*
G02*
X153425000Y-107155500I-87500J0D01*
G01*
X153250000Y-107155500D01*
G75*
G02*
X153162500Y-107068000I0J87500D01*
G01*
G37*
%TD.AperFunction*%
%TO.P,U_STN_1,41*%
%TO.N,Net-(R_STN_8-Pad2)*%
%TA.AperFunction,SMDPad,CuDef*%
G36*
G01*
X152512500Y-107068000D02*
X152512500Y-106018000D01*
G75*
G02*
X152600000Y-105930500I87500J0D01*
G01*
X152775000Y-105930500D01*
G75*
G02*
X152862500Y-106018000I0J-87500D01*
G01*
X152862500Y-107068000D01*
G75*
G02*
X152775000Y-107155500I-87500J0D01*
G01*
X152600000Y-107155500D01*
G75*
G02*
X152512500Y-107068000I0J87500D01*
G01*
G37*
%TD.AperFunction*%
%TO.P,U_STN_1,42*%
%TO.N,Net-(R_STN_7-Pad2)*%
%TA.AperFunction,SMDPad,CuDef*%
G36*
G01*
X151862500Y-107068000D02*
X151862500Y-106018000D01*
G75*
G02*
X151950000Y-105930500I87500J0D01*
G01*
X152125000Y-105930500D01*
G75*
G02*
X152212500Y-106018000I0J-87500D01*
G01*
X152212500Y-107068000D01*
G75*
G02*
X152125000Y-107155500I-87500J0D01*
G01*
X151950000Y-107155500D01*
G75*
G02*
X151862500Y-107068000I0J87500D01*
G01*
G37*
%TD.AperFunction*%
%TO.P,U_STN_1,43*%
%TO.N,/OBDII Interpreter/ISO 9141/ISO 14230 Transceiver/~ISO_K_TX~*%
%TA.AperFunction,SMDPad,CuDef*%
G36*
G01*
X151212500Y-107068000D02*
X151212500Y-106018000D01*
G75*
G02*
X151300000Y-105930500I87500J0D01*
G01*
X151475000Y-105930500D01*
G75*
G02*
X151562500Y-106018000I0J-87500D01*
G01*
X151562500Y-107068000D01*
G75*
G02*
X151475000Y-107155500I-87500J0D01*
G01*
X151300000Y-107155500D01*
G75*
G02*
X151212500Y-107068000I0J87500D01*
G01*
G37*
%TD.AperFunction*%
%TO.P,U_STN_1,44*%
%TO.N,/OBDII Interpreter/ISO 9141/ISO 14230 Transceiver/~ISO_L_TX~*%
%TA.AperFunction,SMDPad,CuDef*%
G36*
G01*
X150562500Y-107068000D02*
X150562500Y-106018000D01*
G75*
G02*
X150650000Y-105930500I87500J0D01*
G01*
X150825000Y-105930500D01*
G75*
G02*
X150912500Y-106018000I0J-87500D01*
G01*
X150912500Y-107068000D01*
G75*
G02*
X150825000Y-107155500I-87500J0D01*
G01*
X150650000Y-107155500D01*
G75*
G02*
X150562500Y-107068000I0J87500D01*
G01*
G37*
%TD.AperFunction*%
D49*
%TO.P,U_STN_1,45*%
%TO.N,Pin4_GnD_Chassis*%
X153987500Y-110680500D03*
D50*
X152202500Y-108895500D03*
X153392500Y-108895500D03*
X154582500Y-108895500D03*
X155772500Y-108895500D03*
X152202500Y-110085500D03*
X153392500Y-110085500D03*
X154582500Y-110085500D03*
X155772500Y-110085500D03*
X152202500Y-111275500D03*
X153392500Y-111275500D03*
X154582500Y-111275500D03*
X155772500Y-111275500D03*
X152202500Y-112465500D03*
X153392500Y-112465500D03*
X154582500Y-112465500D03*
X155772500Y-112465500D03*
%TD*%
D11*
%TO.P,U_VR2,13*%
%TO.N,Pin4_GnD_Chassis*%
X95885000Y-68389500D03*
D10*
%TO.P,U_VR2,12*%
%TO.N,N/C*%
X94635000Y-66969500D03*
%TO.P,U_VR2,11*%
X95134999Y-66969500D03*
%TO.P,U_VR2,10*%
%TO.N,Net-(C_VR2_3-Pad1)*%
X95635000Y-66969500D03*
%TO.P,U_VR2,9*%
%TO.N,+3V3*%
X96135000Y-66969500D03*
%TO.P,U_VR2,8*%
%TO.N,Net-(R_VR2_1-Pad2)*%
X96635001Y-66969500D03*
%TO.P,U_VR2,7*%
%TO.N,Pin4_GnD_Chassis*%
X97135000Y-66969500D03*
%TO.P,U_VR2,6*%
X97135000Y-69809500D03*
%TO.P,U_VR2,5*%
%TO.N,Net-(C_VR2_2-Pad2)*%
X96635001Y-69809500D03*
%TO.P,U_VR2,4*%
%TO.N,Net-(C_VR2_1-Pad1)*%
X96135000Y-69809500D03*
%TO.P,U_VR2,3*%
%TO.N,Net-(C_VR2_2-Pad1)*%
X95635000Y-69809500D03*
%TO.P,U_VR2,2*%
%TO.N,Pin16_Raw_+12V_Battery*%
X95134999Y-69809500D03*
%TO.P,U_VR2,1*%
%TO.N,N/C*%
X94635000Y-69809500D03*
%TD*%
D51*
%TO.P,Y_STN_1,1*%
%TO.N,Net-(C_STN_2-Pad2)*%
X165543000Y-103049500D03*
%TO.P,Y_STN_1,2*%
%TO.N,Pin4_GnD_Chassis*%
X165543000Y-104849500D03*
%TO.P,Y_STN_1,3*%
%TO.N,Net-(C_STN_3-Pad1)*%
X166943000Y-104849500D03*
%TO.P,Y_STN_1,4*%
%TO.N,+3V3*%
X166943000Y-103049500D03*
%TD*%
D52*
%TO.N,Pin4_GnD_Chassis*%
X152098500Y-73349500D03*
X175704500Y-86384500D03*
X136144000Y-104521000D03*
X134722500Y-104521000D03*
X161925000Y-106743500D03*
X152717500Y-117538500D03*
X143192500Y-107737500D03*
X161036000Y-109141500D03*
X164227000Y-96263500D03*
X164227000Y-100391000D03*
X139382500Y-84772500D03*
X97917000Y-65087500D03*
X99443998Y-74676000D03*
X105590999Y-64081001D03*
X117856000Y-89408000D03*
X115056004Y-99568000D03*
X149860000Y-93514000D03*
X110670999Y-69161001D03*
X148336000Y-114808000D03*
X181356000Y-103124000D03*
X181864000Y-99568000D03*
X179324000Y-85344000D03*
X181864000Y-87884000D03*
X210820000Y-106680000D03*
X198628000Y-105156000D03*
X157543500Y-117538500D03*
X141224000Y-86614000D03*
X149098000Y-102870000D03*
X121592999Y-80083001D03*
X192024000Y-102420000D03*
%TO.N,Pin15_ISO9141_L-Line*%
X110744000Y-102616000D03*
X117348000Y-97678000D03*
%TO.N,Net-(D_J1850_2-Pad2)*%
X190754000Y-117094000D03*
%TO.N,Pin2_SAE_J1850_BUS+*%
X204724000Y-78232000D03*
X191008000Y-108754000D03*
X194310000Y-75946000D03*
X194310000Y-75946000D03*
X202438000Y-78232000D03*
X131318000Y-127508000D03*
X199136000Y-123952000D03*
X191770000Y-116078000D03*
X191574000Y-121412000D03*
%TO.N,/OBDII Interpreter/High Speed CAN Transceiver/HS_CAN_TX*%
X145161000Y-112903000D03*
%TO.N,/OBDII Interpreter/Comparator Transceiver/VPW_RX*%
X198628000Y-74168000D03*
X196596000Y-110744000D03*
%TO.N,/OBDII Interpreter/Comparator Transceiver/PWM_RX*%
X195580000Y-110744000D03*
%TO.N,/OBDII Interpreter/Comparator Transceiver/~ISO_RX~*%
X162369500Y-120586500D03*
X194564000Y-116332000D03*
%TO.N,Net-(LED_STN_1-Pad1)*%
X137947500Y-120396000D03*
%TO.N,Net-(LED_STN_2-Pad1)*%
X137947500Y-115316000D03*
%TO.N,Net-(LED_STN_3-Pad1)*%
X137947500Y-117856000D03*
%TO.N,Net-(Q_J1850_1-Pad3)*%
X170815000Y-115379500D03*
X170942000Y-106870500D03*
%TO.N,Pin10_SAE_J1850_BUS-*%
X131318000Y-126492000D03*
X204978000Y-108712000D03*
X205994000Y-118110000D03*
X208026000Y-115570000D03*
X207010000Y-110744000D03*
X204978000Y-110490000D03*
%TO.N,/OBDII Interpreter/OBDII Chip/J1850_BUS-_TX*%
X159385000Y-106235500D03*
X167640000Y-118364000D03*
X187960000Y-118364000D03*
X189738000Y-100584000D03*
%TO.N,/OBDII Interpreter/OBDII Chip/J1850_BUS+_TX*%
X162230281Y-114883719D03*
X183192000Y-101600000D03*
%TO.N,/OBDII Interpreter/ISO 9141/ISO 14230 Transceiver/~ISO_K_TX~*%
X151447500Y-104457500D03*
X158051500Y-99885500D03*
%TO.N,/OBDII Interpreter/ISO 9141/ISO 14230 Transceiver/~ISO_L_TX~*%
X150939500Y-103949500D03*
X156654500Y-98679000D03*
%TO.N,Net-(R_VR2_1-Pad2)*%
X97051841Y-65174841D03*
X99250500Y-67500500D03*
%TO.N,Pin16_Raw_+12V_Battery*%
X118872000Y-105156000D03*
X97536000Y-98552000D03*
X94488000Y-75184000D03*
X179832000Y-106172000D03*
X194564000Y-117348000D03*
X96520000Y-109474000D03*
X104140000Y-117094000D03*
%TO.N,+5V_SW*%
X212344000Y-86360000D03*
%TO.N,/Host/~RESET_OBD_HW~*%
X143177000Y-115316000D03*
X141224000Y-103886000D03*
X139700000Y-98552000D03*
X124714000Y-87376000D03*
X114554000Y-77216000D03*
%TO.N,+12V_SW*%
X211836000Y-109220000D03*
X209296000Y-114808000D03*
X207772000Y-101600000D03*
%TO.N,/OBDII Interpreter/PWR_CTRL*%
X171894500Y-94234000D03*
X171704000Y-96456500D03*
X205740000Y-112268000D03*
X205740000Y-115824000D03*
X206822000Y-107830000D03*
X197146000Y-111760000D03*
%TO.N,+5V*%
X136906000Y-104521000D03*
X117655999Y-112268000D03*
X132612500Y-108331000D03*
X122303998Y-112268000D03*
X124968000Y-116840000D03*
X131064000Y-124460000D03*
X214884000Y-124968000D03*
X205740000Y-80772000D03*
%TO.N,+3V3*%
X172021500Y-68897500D03*
X121856500Y-75570500D03*
X135737600Y-71221600D03*
X153948500Y-98615500D03*
X153337500Y-104345500D03*
X155892500Y-101282500D03*
X112077500Y-66357500D03*
X96520000Y-64262000D03*
X98615500Y-61912500D03*
X177292000Y-88900000D03*
X195072000Y-72136000D03*
X91948000Y-104648000D03*
X140716000Y-96266000D03*
X134112000Y-94742000D03*
X107632500Y-61912500D03*
X130556000Y-83058000D03*
X136133500Y-84072500D03*
X139446000Y-83058000D03*
X125222000Y-102108000D03*
X119888000Y-117856000D03*
%TO.N,Pin14_ISO15765_CAN_BUS_Low*%
X115824000Y-82296000D03*
X120838000Y-85210000D03*
X138874500Y-94345500D03*
%TO.N,Pin6_ISO15765_CAN_BUS_High*%
X118938000Y-85210000D03*
X136461500Y-94345500D03*
%TO.N,Pin7_ISO9141_K-Line*%
X111722680Y-105193320D03*
X119380000Y-100584000D03*
X121456000Y-91882000D03*
X171704000Y-97536000D03*
X202692000Y-99568000D03*
X198628000Y-94742000D03*
X177546000Y-92710000D03*
%TO.N,Net-(C_VR1_2-Pad2)*%
X115824000Y-104648000D03*
X120396000Y-103632000D03*
%TO.N,Net-(C_VR2_1-Pad1)*%
X96644002Y-74676000D03*
%TO.N,Net-(C_VR2_2-Pad2)*%
X97218500Y-71247000D03*
X94361000Y-65278000D03*
%TO.N,Net-(C_VR2_2-Pad1)*%
X95684999Y-71056500D03*
X91948000Y-69723000D03*
%TO.N,Pin13*%
X96012000Y-94488000D03*
%TO.N,/Host/~PWR_CTRL~*%
X159956500Y-105537000D03*
X177292000Y-104140000D03*
X179324000Y-102616000D03*
X178900001Y-104648000D03*
X156464000Y-104648000D03*
X146558000Y-102870000D03*
X144018000Y-102870000D03*
X130048000Y-104394000D03*
X179070000Y-94234000D03*
X138430000Y-76708000D03*
X212598000Y-89662000D03*
X209296000Y-86360000D03*
X178900001Y-91397999D03*
%TO.N,/Host/ESP32/ESP32_EN*%
X133032500Y-63944500D03*
X140652500Y-68096500D03*
%TO.N,/OBDII Interpreter/Analog_Voltage*%
X155321000Y-119761000D03*
X107696000Y-110744000D03*
X144272000Y-125476000D03*
%TO.N,/Host/ESP32/ESP32_Pin4*%
X128968500Y-69278500D03*
%TO.N,/Host/ESP32/ESP32_Pin5*%
X126682500Y-69278500D03*
%TO.N,/Host/ESP32/ESP32_Pin6*%
X123888500Y-68770500D03*
%TO.N,/Host/IMU_INT2*%
X116522500Y-65468500D03*
%TO.N,/Host/IMU_INT1*%
X135064500Y-79149500D03*
%TO.N,/Host/IMU_SCL*%
X128206500Y-81520500D03*
%TO.N,/Host/IMU_SDA*%
X124467410Y-81033410D03*
X122618500Y-78422500D03*
%TO.N,/Host/IMU_SA0*%
X122110500Y-81724500D03*
%TO.N,/Host/ESP32/ESP32_Pin31*%
X181221091Y-67810091D03*
%TO.N,/Host/HST_TX*%
X146748500Y-108730500D03*
X177800000Y-77089000D03*
X173291500Y-78549500D03*
%TO.N,/Host/HST_RX*%
X145986500Y-108775500D03*
X174349500Y-79819500D03*
X160064364Y-88624500D03*
%TO.N,/Host/~SLEEP_OBD~*%
X162687000Y-111564000D03*
X175260000Y-77978000D03*
%TO.N,Net-(R_ESP_1-Pad2)*%
X122930500Y-63436500D03*
%TO.N,Net-(R_ESP_2-Pad1)*%
X122881500Y-66484500D03*
%TO.N,Net-(R_STN_5-Pad1)*%
X145986500Y-112905500D03*
X140059501Y-113453001D03*
%TO.N,/Host/ESP32/ESP32_Pin25*%
X175450500Y-81890500D03*
X185737500Y-62801500D03*
%TO.N,Net-(R_COMP_6-Pad2)*%
X213614000Y-82042000D03*
%TO.N,Net-(R_STN_1-Pad2)*%
X150368000Y-120396000D03*
%TO.N,Net-(R_STN_3-Pad2)*%
X149860000Y-117348000D03*
%TO.N,/Host/~RESET_OBD_SW~*%
X176522091Y-74718000D03*
X183388000Y-68072000D03*
X187706000Y-63754000D03*
%TO.N,Net-(R_STN_10-Pad1)*%
X141487000Y-123444000D03*
%TO.N,Net-(R_ESP_5-Pad2)*%
X175704500Y-64960500D03*
%TD*%
D53*
%TO.N,Pin4_GnD_Chassis*%
X135864600Y-65849500D02*
X135826500Y-65811400D01*
X144598500Y-65849500D02*
X135864600Y-65849500D01*
X135826500Y-60896500D02*
X136588500Y-60134500D01*
X135826500Y-65811400D02*
X135826500Y-60896500D01*
X147383500Y-83359500D02*
X145113500Y-83359500D01*
X145113500Y-83359500D02*
X143700500Y-84772500D01*
X101644498Y-60134500D02*
X101028500Y-60134500D01*
X139382500Y-84772500D02*
X126282498Y-84772500D01*
X143700500Y-84772500D02*
X139382500Y-84772500D01*
D54*
X161598500Y-65849500D02*
X167449500Y-65849500D01*
X169608500Y-63690500D02*
X169608500Y-59880500D01*
X167449500Y-65849500D02*
X169608500Y-63690500D01*
X175362500Y-86042500D02*
X175704500Y-86384500D01*
X167856000Y-86042500D02*
X175362500Y-86042500D01*
D55*
X153987500Y-104584500D02*
X154622500Y-103949500D01*
X153987500Y-106543000D02*
X153987500Y-104584500D01*
X154637500Y-106543000D02*
X154637500Y-103964500D01*
X155287500Y-104614500D02*
X154622500Y-103949500D01*
X155287500Y-106543000D02*
X155287500Y-104614500D01*
D54*
X149850000Y-108080500D02*
X147196500Y-108080500D01*
X147846500Y-107430500D02*
X147196500Y-108080500D01*
X149850000Y-107430500D02*
X147846500Y-107430500D01*
X147846500Y-108730500D02*
X147196500Y-108080500D01*
X149850000Y-108730500D02*
X147846500Y-108730500D01*
X143535500Y-108080500D02*
X143192500Y-107737500D01*
X147196500Y-108080500D02*
X143535500Y-108080500D01*
X146135500Y-110680500D02*
X143192500Y-107737500D01*
X149850000Y-110680500D02*
X146135500Y-110680500D01*
X136263499Y-104401501D02*
X136144000Y-104521000D01*
X136263499Y-102397700D02*
X136263499Y-104401501D01*
X138938000Y-87351500D02*
X136461500Y-87351500D01*
X132189500Y-101988000D02*
X134722500Y-104521000D01*
X131950500Y-101988000D02*
X132189500Y-101988000D01*
X165098000Y-104404500D02*
X165543000Y-104849500D01*
X163703000Y-104404500D02*
X165098000Y-104404500D01*
X164294500Y-106098000D02*
X165543000Y-104849500D01*
X163703000Y-106098000D02*
X164294500Y-106098000D01*
X158125000Y-110030500D02*
X159209500Y-110030500D01*
X166267500Y-111594000D02*
X167005000Y-112331500D01*
X164465000Y-111594000D02*
X166267500Y-111594000D01*
X161607500Y-112776000D02*
X163283000Y-112776000D01*
X160812000Y-111980500D02*
X161607500Y-112776000D01*
X163283000Y-112776000D02*
X164465000Y-111594000D01*
X158125000Y-111980500D02*
X160812000Y-111980500D01*
X162570500Y-106098000D02*
X163703000Y-106098000D01*
X161925000Y-106743500D02*
X162570500Y-106098000D01*
X153337500Y-116918500D02*
X152717500Y-117538500D01*
X153337500Y-114818000D02*
X153337500Y-116918500D01*
X152687500Y-117508500D02*
X152717500Y-117538500D01*
X152687500Y-114818000D02*
X152687500Y-117508500D01*
X156012490Y-115181990D02*
X156012490Y-116007490D01*
X155937500Y-115107000D02*
X156012490Y-115181990D01*
X155937500Y-114818000D02*
X155937500Y-115107000D01*
X160337500Y-120332500D02*
X160337500Y-122745500D01*
X160098500Y-109141500D02*
X161036000Y-109141500D01*
X159209500Y-110030500D02*
X160098500Y-109141500D01*
X160668500Y-103949500D02*
X164227000Y-100391000D01*
X154622500Y-103949500D02*
X160668500Y-103949500D01*
X154622500Y-103949500D02*
X154637500Y-103964500D01*
X164227000Y-96218500D02*
X164227000Y-96263500D01*
X157099000Y-125984000D02*
X160337500Y-122745500D01*
X155917000Y-125984000D02*
X157099000Y-125984000D01*
X170624500Y-102250500D02*
X169847000Y-101473000D01*
X165309000Y-101473000D02*
X164227000Y-100391000D01*
X169847000Y-101473000D02*
X165309000Y-101473000D01*
X179553500Y-115379500D02*
X179260500Y-115086500D01*
X186677300Y-115379500D02*
X179553500Y-115379500D01*
X218371000Y-60383000D02*
X217868500Y-59880500D01*
X218371000Y-63436500D02*
X218371000Y-60383000D01*
X90741500Y-60261500D02*
X90868500Y-60134500D01*
X90741500Y-63627000D02*
X90741500Y-60261500D01*
D56*
X97135000Y-65869500D02*
X97917000Y-65087500D01*
X97135000Y-66969500D02*
X97135000Y-65869500D01*
X97179500Y-64350000D02*
X97917000Y-65087500D01*
X97179500Y-62865000D02*
X97179500Y-64350000D01*
X97135000Y-69809500D02*
X99380498Y-72054998D01*
D54*
X96279499Y-61964999D02*
X97179500Y-62865000D01*
X92403501Y-61964999D02*
X96279499Y-61964999D01*
X90741500Y-63627000D02*
X92403501Y-61964999D01*
X102674000Y-66611500D02*
X103251000Y-66611500D01*
X103251000Y-66611500D02*
X104457500Y-67818000D01*
X103822500Y-68453000D02*
X104457500Y-67818000D01*
X102674000Y-68453000D02*
X103822500Y-68453000D01*
X95885000Y-68389500D02*
X98615500Y-68389500D01*
X99544001Y-69318001D02*
X99847001Y-69318001D01*
X99847001Y-69318001D02*
X104394000Y-73865000D01*
X98615500Y-68389500D02*
X99544001Y-69318001D01*
X102583998Y-72054998D02*
X104394000Y-73865000D01*
X99380498Y-72054998D02*
X102583998Y-72054998D01*
X99380498Y-74612500D02*
X99443998Y-74676000D01*
X99380498Y-72054998D02*
X99380498Y-74612500D01*
X104457500Y-73801500D02*
X104394000Y-73865000D01*
X104457500Y-67818000D02*
X104457500Y-73801500D01*
D53*
X105590999Y-64081001D02*
X101644498Y-60134500D01*
D54*
X113557999Y-85109999D02*
X117856000Y-89408000D01*
X107914002Y-85109999D02*
X113557999Y-85109999D01*
X106934000Y-86090001D02*
X107914002Y-85109999D01*
X111760000Y-99568000D02*
X115056004Y-99568000D01*
X111760000Y-104311400D02*
X111760000Y-99568000D01*
X117856000Y-108712000D02*
X116160600Y-108712000D01*
X113706300Y-106257700D02*
X111760000Y-104311400D01*
X116160600Y-108712000D02*
X113706300Y-106257700D01*
D56*
X114471400Y-104311400D02*
X111760000Y-104311400D01*
X116606000Y-106446000D02*
X114471400Y-104311400D01*
X116606000Y-107292000D02*
X116606000Y-106446000D01*
X116606000Y-113176000D02*
X115990000Y-113792000D01*
X116606000Y-110132000D02*
X116606000Y-113176000D01*
D54*
X115824000Y-113792000D02*
X115990000Y-113792000D01*
X113706300Y-111674300D02*
X115824000Y-113792000D01*
X133455498Y-105788002D02*
X134722500Y-104521000D01*
X125984000Y-105788002D02*
X133455498Y-105788002D01*
X117856000Y-91440000D02*
X117856000Y-89408000D01*
X115056004Y-94239996D02*
X117856000Y-91440000D01*
X115056004Y-99568000D02*
X115056004Y-94239996D01*
X114466000Y-115316000D02*
X115990000Y-113792000D01*
X112852200Y-115316000D02*
X114466000Y-115316000D01*
X113112600Y-112268000D02*
X113706300Y-111674300D01*
X111564000Y-112268000D02*
X113112600Y-112268000D01*
X113284000Y-109728000D02*
X113706300Y-110150300D01*
X111594000Y-109728000D02*
X113284000Y-109728000D01*
X113706300Y-110150300D02*
X113706300Y-111674300D01*
X113706300Y-106257700D02*
X113706300Y-110150300D01*
X119336000Y-90888000D02*
X117856000Y-89408000D01*
X119336000Y-90932000D02*
X119336000Y-90888000D01*
X151828500Y-95482500D02*
X149860000Y-93514000D01*
X151828500Y-95694500D02*
X151828500Y-95482500D01*
D53*
X110670999Y-69161001D02*
X105590999Y-64081001D01*
D54*
X169402999Y-114729499D02*
X167005000Y-112331500D01*
X179260500Y-115086500D02*
X178903499Y-114729499D01*
X148336000Y-114974000D02*
X148336000Y-114808000D01*
X171389000Y-117155000D02*
X173814501Y-114729499D01*
X165918500Y-117155000D02*
X171389000Y-117155000D01*
X173814501Y-114729499D02*
X169402999Y-114729499D01*
X178903499Y-114729499D02*
X173814501Y-114729499D01*
X181930000Y-103698000D02*
X181356000Y-103124000D01*
X181930000Y-104768000D02*
X181930000Y-103698000D01*
X182687000Y-98745000D02*
X181864000Y-99568000D01*
X182687000Y-98305000D02*
X182687000Y-98745000D01*
X178283500Y-86384500D02*
X179324000Y-85344000D01*
X175704500Y-86384500D02*
X178283500Y-86384500D01*
X194564000Y-87884000D02*
X181864000Y-87884000D01*
X199136000Y-83312000D02*
X194564000Y-87884000D01*
X213868000Y-106680000D02*
X210820000Y-106680000D01*
X215392000Y-105156000D02*
X213868000Y-106680000D01*
X196022000Y-102550000D02*
X198628000Y-105156000D01*
X195446000Y-102550000D02*
X196022000Y-102550000D01*
X217932000Y-107696000D02*
X215392000Y-105156000D01*
X217932000Y-119888000D02*
X217932000Y-107696000D01*
X211836000Y-125984000D02*
X217932000Y-119888000D01*
X157099000Y-125984000D02*
X211836000Y-125984000D01*
X195316000Y-102420000D02*
X195446000Y-102550000D01*
X192024000Y-102420000D02*
X195316000Y-102420000D01*
X157543500Y-117538500D02*
X160337500Y-120332500D01*
X156012490Y-116007490D02*
X157543500Y-117538500D01*
X138938000Y-87351500D02*
X140486500Y-87351500D01*
X140486500Y-87351500D02*
X141224000Y-86614000D01*
X132910000Y-101028500D02*
X131950500Y-101988000D01*
X136588500Y-101028500D02*
X132910000Y-101028500D01*
X143192500Y-107737500D02*
X139446000Y-103991000D01*
X139446000Y-103991000D02*
X139446000Y-101854000D01*
X138620500Y-101028500D02*
X136588500Y-101028500D01*
X139446000Y-101854000D02*
X138620500Y-101028500D01*
X148060000Y-102870000D02*
X143192500Y-107737500D01*
X149098000Y-102870000D02*
X148060000Y-102870000D01*
X155287500Y-111980500D02*
X158125000Y-111980500D01*
X153987500Y-110680500D02*
X155287500Y-111980500D01*
X155827500Y-110030500D02*
X155772500Y-110085500D01*
X158125000Y-110030500D02*
X155827500Y-110030500D01*
D53*
X121592999Y-80083001D02*
X110670999Y-69161001D01*
X126282498Y-84772500D02*
X121592999Y-80083001D01*
D56*
%TO.N,Net-(C_HSCAN_1-Pad1)*%
X138874500Y-89115000D02*
X138938000Y-89051500D01*
X138874500Y-91455500D02*
X138874500Y-89115000D01*
%TO.N,Net-(C_HSCAN_2-Pad1)*%
X136461500Y-91455500D02*
X136461500Y-89051500D01*
%TO.N,Net-(C_J1850_1-Pad1)*%
X179158000Y-113284000D02*
X179260500Y-113386500D01*
X175726000Y-113284000D02*
X179158000Y-113284000D01*
%TO.N,Net-(CP_STN_1-Pad1)*%
X143199500Y-111330500D02*
X143192500Y-111337500D01*
X149850000Y-111330500D02*
X143199500Y-111330500D01*
%TO.N,Pin15_ISO9141_L-Line*%
X168033500Y-95313500D02*
X168097000Y-95250000D01*
X166227000Y-95313500D02*
X168033500Y-95313500D01*
X104394000Y-85140559D02*
X104394000Y-84944999D01*
X102369857Y-87164702D02*
X104394000Y-85140559D01*
X95461999Y-93040846D02*
X101338143Y-87164702D01*
X101338143Y-87164702D02*
X102369857Y-87164702D01*
X95461999Y-101049999D02*
X95461999Y-93040846D01*
X97028000Y-102616000D02*
X95461999Y-101049999D01*
X168097000Y-95250000D02*
X168097000Y-93929000D01*
X108786001Y-106052001D02*
X110744000Y-104094002D01*
X99523999Y-106052001D02*
X108786001Y-106052001D01*
X97028000Y-103556002D02*
X99523999Y-106052001D01*
X97028000Y-102616000D02*
X97028000Y-103556002D01*
X110744000Y-104094002D02*
X110744000Y-102616000D01*
X118222000Y-97678000D02*
X124460000Y-91440000D01*
X117348000Y-97678000D02*
X118222000Y-97678000D01*
X130048000Y-91948000D02*
X124968000Y-91948000D01*
X124968000Y-91948000D02*
X124460000Y-91440000D01*
X130556000Y-92456000D02*
X130048000Y-91948000D01*
X168097000Y-93929000D02*
X166624000Y-92456000D01*
X166624000Y-92456000D02*
X130556000Y-92456000D01*
X122914000Y-91440000D02*
X121456000Y-89982000D01*
X124460000Y-91440000D02*
X122914000Y-91440000D01*
%TO.N,Net-(D_J1850_2-Pad2)*%
X189039500Y-115379500D02*
X190754000Y-117094000D01*
X188861700Y-115379500D02*
X189039500Y-115379500D01*
%TO.N,Pin2_SAE_J1850_BUS+*%
X88392000Y-84328000D02*
X88392000Y-111252000D01*
X91210000Y-81510000D02*
X88392000Y-84328000D01*
X101854000Y-81510000D02*
X91210000Y-81510000D01*
X206444000Y-76512000D02*
X204724000Y-78232000D01*
X206444000Y-75692000D02*
X206444000Y-76512000D01*
X191084200Y-108830200D02*
X191008000Y-108754000D01*
X191084200Y-110744000D02*
X191084200Y-108830200D01*
X198892001Y-73617999D02*
X202438000Y-77163998D01*
X196638001Y-73617999D02*
X198892001Y-73617999D01*
X194310000Y-75946000D02*
X196638001Y-73617999D01*
X202438000Y-77163998D02*
X202438000Y-78232000D01*
X104648000Y-127508000D02*
X131318000Y-127508000D01*
X88392000Y-111252000D02*
X104648000Y-127508000D01*
X191084200Y-110744000D02*
X191084200Y-115392200D01*
X191084200Y-115392200D02*
X191770000Y-116078000D01*
X194114000Y-123952000D02*
X191574000Y-121412000D01*
X199136000Y-123952000D02*
X194114000Y-123952000D01*
%TO.N,/OBDII Interpreter/High Speed CAN Transceiver/HS_CAN_RX*%
X137563499Y-108099499D02*
X138112500Y-108648500D01*
X137563499Y-102397700D02*
X137563499Y-108099499D01*
X142919500Y-113455500D02*
X138112500Y-108648500D01*
X149675000Y-113455500D02*
X142919500Y-113455500D01*
X149850000Y-113280500D02*
X149675000Y-113455500D01*
%TO.N,/OBDII Interpreter/High Speed CAN Transceiver/HS_CAN_TX*%
X135572500Y-102438701D02*
X135613501Y-102397700D01*
X135572500Y-108648500D02*
X135572500Y-102438701D01*
X146083500Y-111980500D02*
X145161000Y-112903000D01*
X149850000Y-111980500D02*
X146083500Y-111980500D01*
%TO.N,/OBDII Interpreter/Comparator Transceiver/VPW_RX*%
X190681386Y-119314011D02*
X196596000Y-113399397D01*
X161908511Y-119314011D02*
X190681386Y-119314011D01*
X157412500Y-114818000D02*
X161908511Y-119314011D01*
X157237500Y-114818000D02*
X157412500Y-114818000D01*
X196596000Y-113399397D02*
X196596000Y-110744000D01*
X194056000Y-78740000D02*
X198628000Y-74168000D01*
X194056000Y-83312000D02*
X194056000Y-78740000D01*
%TO.N,/OBDII Interpreter/Comparator Transceiver/PWM_RX*%
X190515697Y-118914001D02*
X195580000Y-113849698D01*
X163108501Y-118914001D02*
X190515697Y-118914001D01*
X158125000Y-113930500D02*
X163108501Y-118914001D01*
X195580000Y-113849698D02*
X195580000Y-110744000D01*
%TO.N,/OBDII Interpreter/Comparator Transceiver/~ISO_RX~*%
X161743500Y-120586500D02*
X162369500Y-120586500D01*
X156587500Y-115430500D02*
X161743500Y-120586500D01*
X156587500Y-114818000D02*
X156587500Y-115430500D01*
X189974596Y-120586500D02*
X194229096Y-116332000D01*
X162369500Y-120586500D02*
X189974596Y-120586500D01*
X194229096Y-116332000D02*
X194564000Y-116332000D01*
D54*
%TO.N,+V_J1850*%
X178673500Y-112014000D02*
X179324000Y-111363500D01*
X175726000Y-112014000D02*
X178673500Y-112014000D01*
X181812000Y-111363500D02*
X181864000Y-111415500D01*
X179324000Y-111363500D02*
X181812000Y-111363500D01*
X184125499Y-111415500D02*
X184404000Y-111694001D01*
X181864000Y-111415500D02*
X184125499Y-111415500D01*
D56*
%TO.N,Net-(Q_ISO_1-Pad2)*%
X172097700Y-99250500D02*
X173304200Y-100457000D01*
X170104000Y-99250500D02*
X172097700Y-99250500D01*
%TO.N,Net-(Q_ISO_3-Pad1)*%
X161816500Y-100901500D02*
X164227000Y-98491000D01*
X161747000Y-100901500D02*
X161816500Y-100901500D01*
%TO.N,Net-(Q_J1850_1-Pad3)*%
X170624500Y-105140500D02*
X170624500Y-106553000D01*
X171196000Y-107124500D02*
X172926000Y-107124500D01*
X169989500Y-116205000D02*
X170815000Y-115379500D01*
X168218500Y-116205000D02*
X169989500Y-116205000D01*
X170942000Y-106870500D02*
X171196000Y-107124500D01*
X170624500Y-106553000D02*
X170942000Y-106870500D01*
%TO.N,/OBDII Interpreter/OBDII Chip/~J1850_BUS+_VH~*%
X163379380Y-115255000D02*
X165918500Y-115255000D01*
X160754880Y-112630500D02*
X163379380Y-115255000D01*
X158125000Y-112630500D02*
X160754880Y-112630500D01*
%TO.N,Pin10_SAE_J1850_BUS-*%
X91968000Y-83800000D02*
X101854000Y-83800000D01*
X90932000Y-84836000D02*
X91968000Y-83800000D01*
X90932000Y-111252000D02*
X90932000Y-84836000D01*
X201676000Y-100970500D02*
X201803000Y-101097500D01*
X201676000Y-98038500D02*
X201676000Y-100970500D01*
X201300500Y-101600000D02*
X201803000Y-101097500D01*
X197746000Y-101600000D02*
X201300500Y-101600000D01*
X90932000Y-111252000D02*
X106172000Y-126492000D01*
X106172000Y-126492000D02*
X131318000Y-126492000D01*
X201803000Y-101097500D02*
X204978000Y-104272500D01*
X204978000Y-104272500D02*
X204978000Y-108712000D01*
X205994000Y-117602000D02*
X208026000Y-115570000D01*
X205994000Y-118110000D02*
X205994000Y-117602000D01*
X205232000Y-110744000D02*
X204978000Y-110490000D01*
X207010000Y-110744000D02*
X205232000Y-110744000D01*
%TO.N,/OBDII Interpreter/OBDII Chip/J1850_BUS-_TX*%
X158190000Y-107430500D02*
X159385000Y-106235500D01*
X158125000Y-107430500D02*
X158190000Y-107430500D01*
X195316000Y-100780000D02*
X195446000Y-100650000D01*
X192024000Y-100780000D02*
X195316000Y-100780000D01*
X167640000Y-118364000D02*
X187960000Y-118364000D01*
X191828000Y-100584000D02*
X192024000Y-100780000D01*
X189738000Y-100584000D02*
X191828000Y-100584000D01*
%TO.N,/OBDII Interpreter/OBDII Chip/J1850_BUS+_TX*%
X160627062Y-113280500D02*
X162230281Y-114883719D01*
X158125000Y-113280500D02*
X160627062Y-113280500D01*
X183636500Y-104574500D02*
X183830000Y-104768000D01*
X183830000Y-102238000D02*
X183192000Y-101600000D01*
X183830000Y-104768000D02*
X183830000Y-102238000D01*
X165101563Y-117755001D02*
X191108999Y-117755001D01*
X162230281Y-114883719D02*
X165101563Y-117755001D01*
X191108999Y-117755001D02*
X194564000Y-114300000D01*
X187266000Y-108204000D02*
X183830000Y-104768000D01*
X194564000Y-111252000D02*
X191516000Y-108204000D01*
X191516000Y-108204000D02*
X187266000Y-108204000D01*
X194564000Y-114300000D02*
X194564000Y-111252000D01*
%TO.N,/OBDII Interpreter/ISO 9141/ISO 14230 Transceiver/~ISO_K_TX~*%
X151387500Y-104517500D02*
X151447500Y-104457500D01*
X151387500Y-106543000D02*
X151387500Y-104517500D01*
X159131000Y-99885500D02*
X160147000Y-100901500D01*
X158051500Y-99885500D02*
X159131000Y-99885500D01*
%TO.N,/OBDII Interpreter/ISO 9141/ISO 14230 Transceiver/~ISO_L_TX~*%
X150737500Y-104151500D02*
X150939500Y-103949500D01*
X150737500Y-106543000D02*
X150737500Y-104151500D01*
X160045500Y-98679000D02*
X160109000Y-98742500D01*
X156654500Y-98679000D02*
X160045500Y-98679000D01*
D54*
%TO.N,VDDA*%
X153987500Y-114818000D02*
X153987500Y-117602000D01*
X153987500Y-117602000D02*
X153924000Y-117602000D01*
X153225500Y-118300500D02*
X153225500Y-122243000D01*
X153924000Y-117602000D02*
X153225500Y-118300500D01*
D56*
%TO.N,Net-(R_VR2_1-Pad2)*%
X96635001Y-65591681D02*
X97051841Y-65174841D01*
X96635001Y-66969500D02*
X96635001Y-65591681D01*
D54*
X99441000Y-67310000D02*
X99250500Y-67500500D01*
X99441000Y-64637500D02*
X99441000Y-67310000D01*
X100139500Y-66611500D02*
X99250500Y-67500500D01*
X101034000Y-66611500D02*
X100139500Y-66611500D01*
X100203000Y-68453000D02*
X99250500Y-67500500D01*
X101034000Y-68453000D02*
X100203000Y-68453000D01*
%TO.N,Pin16_Raw_+12V_Battery*%
X175374300Y-94361000D02*
X175387000Y-94361000D01*
X175387000Y-94361000D02*
X177101500Y-96075500D01*
X175310800Y-99555300D02*
X177101500Y-101346000D01*
X175310800Y-99504500D02*
X175310800Y-99555300D01*
X177101500Y-96075500D02*
X177101500Y-101346000D01*
D56*
X95134999Y-69809500D02*
X95134999Y-72187501D01*
X118656020Y-105371980D02*
X118872000Y-105156000D01*
X118656020Y-107241981D02*
X118656020Y-105371980D01*
X118606001Y-107292000D02*
X118656020Y-107241981D01*
D54*
X97657001Y-98552000D02*
X97536000Y-98552000D01*
X104394000Y-91815001D02*
X97657001Y-98552000D01*
X94488000Y-72834500D02*
X95134999Y-72187501D01*
X94488000Y-75184000D02*
X94488000Y-72834500D01*
X177101500Y-101346000D02*
X177101500Y-101409500D01*
X177101500Y-101409500D02*
X179832000Y-104140000D01*
X179832000Y-104140000D02*
X179832000Y-106172000D01*
X179832000Y-103136998D02*
X179832000Y-104140000D01*
X183763997Y-99205001D02*
X179832000Y-103136998D01*
X184824999Y-99205001D02*
X183763997Y-99205001D01*
X186436000Y-97594000D02*
X184824999Y-99205001D01*
X198494000Y-117348000D02*
X194564000Y-117348000D01*
X96520000Y-109474000D02*
X104140000Y-117094000D01*
%TO.N,+3.3V_SW*%
X208856000Y-107696000D02*
X208722000Y-107830000D01*
X215392000Y-107696000D02*
X208856000Y-107696000D01*
%TO.N,+5V_SW*%
X199644000Y-110676000D02*
X198694000Y-111626000D01*
X199644000Y-109423200D02*
X199644000Y-110676000D01*
X209499200Y-109423200D02*
X199644000Y-109423200D01*
X215392000Y-115316000D02*
X209499200Y-109423200D01*
X212344000Y-72194000D02*
X213106000Y-71432000D01*
X212344000Y-86360000D02*
X212344000Y-72194000D01*
D56*
%TO.N,/Host/~RESET_OBD_HW~*%
X113728500Y-61195597D02*
X113728500Y-60134500D01*
X129812403Y-77279500D02*
X113728500Y-61195597D01*
X144598500Y-77279500D02*
X129812403Y-77279500D01*
X150737500Y-114818000D02*
X150737500Y-115962500D01*
X150026000Y-116674000D02*
X148336000Y-116674000D01*
X150737500Y-115962500D02*
X150026000Y-116674000D01*
X148929001Y-117267001D02*
X148336000Y-116674000D01*
X148929001Y-118796001D02*
X148929001Y-117267001D01*
X148336000Y-116674000D02*
X147662000Y-116674000D01*
X147662000Y-116674000D02*
X146304000Y-115316000D01*
X146304000Y-115316000D02*
X143177000Y-115316000D01*
X141224000Y-103886000D02*
X141224000Y-100076000D01*
X141224000Y-100076000D02*
X139700000Y-98552000D01*
X124714000Y-87376000D02*
X114554000Y-77216000D01*
D54*
%TO.N,+12V_SW*%
X215392000Y-112776000D02*
X211836000Y-109220000D01*
X207772000Y-99626000D02*
X207835500Y-99562500D01*
X207772000Y-101600000D02*
X207772000Y-99626000D01*
X200794000Y-116398000D02*
X200794000Y-116198000D01*
X200794000Y-116198000D02*
X202184000Y-114808000D01*
X202184000Y-114808000D02*
X209296000Y-114808000D01*
D56*
%TO.N,/OBDII Interpreter/PWR_CTRL*%
X172720000Y-93408500D02*
X171894500Y-94234000D01*
X173367700Y-93408500D02*
X172720000Y-93408500D01*
X173304200Y-98552000D02*
X173304200Y-98056700D01*
X173304200Y-98056700D02*
X171704000Y-96456500D01*
X179140500Y-93408500D02*
X173367700Y-93408500D01*
X181737000Y-96005000D02*
X179140500Y-93408500D01*
X186385000Y-96005000D02*
X186436000Y-95954000D01*
X181737000Y-96005000D02*
X186385000Y-96005000D01*
X205098000Y-111626000D02*
X205740000Y-112268000D01*
X200594000Y-111626000D02*
X205098000Y-111626000D01*
X200794000Y-118298000D02*
X203266000Y-118298000D01*
X203266000Y-118298000D02*
X205740000Y-115824000D01*
X187201001Y-96719001D02*
X187201001Y-99041883D01*
X197146000Y-108986882D02*
X197146000Y-111760000D01*
X187201001Y-99041883D02*
X197146000Y-108986882D01*
X186436000Y-95954000D02*
X187201001Y-96719001D01*
D54*
%TO.N,+5V*%
X136913501Y-104513499D02*
X136906000Y-104521000D01*
X136913501Y-102397700D02*
X136913501Y-104513499D01*
D56*
X117606000Y-112218001D02*
X117655999Y-112268000D01*
X117606000Y-110132000D02*
X117606000Y-112218001D01*
D54*
X132355502Y-108587998D02*
X132612500Y-108331000D01*
X125984000Y-108587998D02*
X132355502Y-108587998D01*
X122428000Y-112143998D02*
X122303998Y-112268000D01*
X122428000Y-109200950D02*
X122428000Y-112143998D01*
X211462000Y-113926000D02*
X215392000Y-117856000D01*
X199644000Y-113926000D02*
X211462000Y-113926000D01*
X125984000Y-115824000D02*
X124968000Y-116840000D01*
X125984000Y-108587998D02*
X125984000Y-115824000D01*
X134204009Y-127600009D02*
X212251991Y-127600009D01*
X131064000Y-124460000D02*
X134204009Y-127600009D01*
X212251991Y-127600009D02*
X214884000Y-124968000D01*
X204073999Y-79105999D02*
X205740000Y-80772000D01*
X204073999Y-66055001D02*
X204073999Y-79105999D01*
X210248500Y-59880500D02*
X204073999Y-66055001D01*
X122303998Y-112268000D02*
X125984000Y-108587998D01*
D53*
%TO.N,+3V3*%
X139928600Y-67119500D02*
X135826500Y-71221600D01*
X144598500Y-67119500D02*
X139928600Y-67119500D01*
X134048500Y-69532500D02*
X134048500Y-60134500D01*
X135737600Y-71221600D02*
X134048500Y-69532500D01*
X121856500Y-75374500D02*
X120332500Y-73850500D01*
X121856500Y-75570500D02*
X121856500Y-75374500D01*
X119570500Y-73850500D02*
X112077500Y-66357500D01*
X120332500Y-73850500D02*
X119570500Y-73850500D01*
D54*
X172402500Y-68516500D02*
X172021500Y-68897500D01*
X175265500Y-68516500D02*
X172402500Y-68516500D01*
X135826500Y-71221600D02*
X135737600Y-71221600D01*
X153337500Y-104345500D02*
X153352500Y-104330500D01*
X153337500Y-106543000D02*
X153337500Y-104345500D01*
X151701500Y-100862500D02*
X153948500Y-98615500D01*
X151701500Y-101282500D02*
X151701500Y-100862500D01*
X153987500Y-98654500D02*
X153948500Y-98615500D01*
X153948500Y-96114500D02*
X154368500Y-95694500D01*
X153948500Y-98615500D02*
X153948500Y-96114500D01*
X155865500Y-101309500D02*
X155892500Y-101282500D01*
X153987500Y-101309500D02*
X155865500Y-101309500D01*
X155892500Y-100559500D02*
X153948500Y-98615500D01*
X155892500Y-101282500D02*
X155892500Y-100559500D01*
X158355490Y-110630510D02*
X159752490Y-110630510D01*
X158305500Y-110680500D02*
X158355490Y-110630510D01*
X158125000Y-110680500D02*
X158305500Y-110680500D01*
X159752490Y-110630510D02*
X160591500Y-109791500D01*
X162554500Y-109791500D02*
X162687000Y-109924000D01*
X160591500Y-109791500D02*
X162554500Y-109791500D01*
X164435000Y-109924000D02*
X164465000Y-109894000D01*
X162687000Y-109924000D02*
X164435000Y-109924000D01*
X166902500Y-109894000D02*
X167005000Y-109791500D01*
X164465000Y-109894000D02*
X166902500Y-109894000D01*
X167335000Y-103441500D02*
X166943000Y-103049500D01*
X168338500Y-103441500D02*
X167335000Y-103441500D01*
X168338500Y-106299000D02*
X168338500Y-103441500D01*
X167005000Y-107632500D02*
X168338500Y-106299000D01*
X167005000Y-109791500D02*
X167005000Y-107632500D01*
X87941504Y-60521496D02*
X88328500Y-60134500D01*
X87941504Y-63627000D02*
X87941504Y-60521496D01*
X87839550Y-63728954D02*
X87941504Y-63627000D01*
X87839550Y-66230500D02*
X87839550Y-63728954D01*
D56*
X96135000Y-64647000D02*
X96520000Y-64262000D01*
X96135000Y-66969500D02*
X96135000Y-64647000D01*
X99441000Y-62738000D02*
X98615500Y-61912500D01*
X99441000Y-62997500D02*
X99441000Y-62738000D01*
D54*
X178308000Y-88900000D02*
X195072000Y-72136000D01*
X177292000Y-88900000D02*
X178308000Y-88900000D01*
X136372500Y-115316000D02*
X132080000Y-115316000D01*
X132080000Y-115316000D02*
X129540000Y-117856000D01*
X136372500Y-117856000D02*
X129540000Y-117856000D01*
X132080000Y-120396000D02*
X129540000Y-117856000D01*
X136372500Y-120396000D02*
X132080000Y-120396000D01*
X136340000Y-122936000D02*
X131064000Y-122936000D01*
X131064000Y-122936000D02*
X129540000Y-121412000D01*
X129540000Y-121412000D02*
X129540000Y-117856000D01*
X103632000Y-117856000D02*
X92456000Y-106680000D01*
X127000000Y-114104000D02*
X127000000Y-117856000D01*
X129032000Y-116840000D02*
X128016000Y-117856000D01*
X129032000Y-114104000D02*
X129032000Y-116840000D01*
X128016000Y-117856000D02*
X127000000Y-117856000D01*
X129540000Y-117856000D02*
X128016000Y-117856000D01*
X92456000Y-105156000D02*
X91948000Y-104648000D01*
X92456000Y-106680000D02*
X92456000Y-105156000D01*
X134254001Y-126126001D02*
X131064000Y-122936000D01*
X154217000Y-125984000D02*
X154074999Y-126126001D01*
X151384000Y-125476000D02*
X152034001Y-126126001D01*
X150444200Y-125476000D02*
X151384000Y-125476000D01*
X154074999Y-126126001D02*
X152034001Y-126126001D01*
X153225500Y-124992500D02*
X154217000Y-125984000D01*
X153225500Y-123883000D02*
X153225500Y-124992500D01*
X154876500Y-125324500D02*
X154217000Y-125984000D01*
X154876500Y-123883000D02*
X154876500Y-125324500D01*
X212478000Y-105530000D02*
X215392000Y-102616000D01*
X207772000Y-105530000D02*
X212478000Y-105530000D01*
X213048000Y-102616000D02*
X212344000Y-101912000D01*
X215392000Y-102616000D02*
X213048000Y-102616000D01*
X152034001Y-126126001D02*
X151749999Y-126126001D01*
X151749999Y-126126001D02*
X134254001Y-126126001D01*
X218948000Y-106172000D02*
X215392000Y-102616000D01*
X218948000Y-119720542D02*
X218948000Y-106172000D01*
X211668542Y-127000000D02*
X218948000Y-119720542D01*
X152623998Y-127000000D02*
X211668542Y-127000000D01*
X151749999Y-126126001D02*
X152623998Y-127000000D01*
X137563499Y-99659300D02*
X137563499Y-99418501D01*
X137563499Y-99418501D02*
X140716000Y-96266000D01*
X143065500Y-98615500D02*
X140716000Y-96266000D01*
X153948500Y-98615500D02*
X143065500Y-98615500D01*
X133027000Y-95827000D02*
X134112000Y-94742000D01*
X131000500Y-95827000D02*
X133027000Y-95827000D01*
X112077500Y-64579500D02*
X109410500Y-61912500D01*
X109410500Y-61912500D02*
X107632500Y-61912500D01*
X112077500Y-66357500D02*
X112077500Y-64579500D01*
D56*
X135119000Y-83058000D02*
X136133500Y-84072500D01*
X130556000Y-83058000D02*
X135119000Y-83058000D01*
D54*
X138431500Y-84072500D02*
X139446000Y-83058000D01*
X136133500Y-84072500D02*
X138431500Y-84072500D01*
X131000500Y-95827000D02*
X125222000Y-101605500D01*
X125222000Y-101605500D02*
X125222000Y-102108000D01*
X119888000Y-117856000D02*
X103632000Y-117856000D01*
X127000000Y-117856000D02*
X119888000Y-117856000D01*
D56*
%TO.N,Net-(Q_HSCAN_1-Pad3)*%
X131029200Y-99659300D02*
X131000500Y-99688000D01*
X135613501Y-99659300D02*
X131029200Y-99659300D01*
X131000500Y-99688000D02*
X131000500Y-97467000D01*
%TO.N,Net-(R_COMP_2-Pad2)*%
X205232000Y-92456000D02*
X207264000Y-90424000D01*
X205232000Y-97922500D02*
X205232000Y-92456000D01*
%TO.N,Net-(R_COMP_3-Pad1)*%
X201676000Y-96398500D02*
X201676000Y-90932000D01*
%TO.N,Net-(C_STN_2-Pad2)*%
X165480000Y-102986500D02*
X165543000Y-103049500D01*
X163703000Y-102986500D02*
X165480000Y-102986500D01*
X162937999Y-103751501D02*
X163703000Y-102986500D01*
X158737500Y-108730500D02*
X162937999Y-104530001D01*
X162937999Y-104530001D02*
X162937999Y-103751501D01*
X158125000Y-108730500D02*
X158737500Y-108730500D01*
%TO.N,Net-(C_STN_3-Pad1)*%
X166943000Y-105599500D02*
X166943000Y-104849500D01*
X165026500Y-107516000D02*
X166943000Y-105599500D01*
X163703000Y-107516000D02*
X165026500Y-107516000D01*
X162634000Y-108585000D02*
X163703000Y-107516000D01*
X159947880Y-108585000D02*
X162634000Y-108585000D01*
X159152380Y-109380500D02*
X159947880Y-108585000D01*
X158125000Y-109380500D02*
X159152380Y-109380500D01*
%TO.N,Net-(D_J1850_1-Pad2)*%
X186690000Y-110744000D02*
X188899800Y-110744000D01*
%TO.N,Net-(D_J1850_3-Pad1)*%
X201803000Y-102737500D02*
X201803000Y-104521000D01*
X199644000Y-106680000D02*
X199644000Y-107238800D01*
X201803000Y-104521000D02*
X199644000Y-106680000D01*
%TO.N,Net-(Q_ISO_2-Pad2)*%
X173304200Y-95250000D02*
X173367700Y-95313500D01*
X169977000Y-95250000D02*
X173304200Y-95250000D01*
%TO.N,Net-(Q_ISO_4-Pad1)*%
X161709000Y-96881500D02*
X164227000Y-94363500D01*
X161709000Y-98742500D02*
X161709000Y-96881500D01*
%TO.N,Net-(Q_J1850_2-Pad3)*%
X184252499Y-109945500D02*
X184404000Y-109793999D01*
X181864000Y-109945500D02*
X184252499Y-109945500D01*
X181864000Y-108084000D02*
X182880000Y-107068000D01*
X181864000Y-109945500D02*
X181864000Y-108084000D01*
%TO.N,Net-(R_J1850_3-Pad2)*%
X178323500Y-109474000D02*
X179324000Y-108473500D01*
X175726000Y-109474000D02*
X178323500Y-109474000D01*
X177975000Y-107124500D02*
X179324000Y-108473500D01*
X175816000Y-107124500D02*
X177975000Y-107124500D01*
%TO.N,Pin14_ISO15765_CAN_BUS_Low*%
X136913501Y-96306499D02*
X138874500Y-94345500D01*
X136913501Y-99659300D02*
X136913501Y-96306499D01*
X110978000Y-79756000D02*
X111760000Y-79756000D01*
X106934000Y-83800000D02*
X110978000Y-79756000D01*
X117924000Y-82296000D02*
X120838000Y-85210000D01*
X115824000Y-82296000D02*
X117924000Y-82296000D01*
%TO.N,Pin6_ISO15765_CAN_BUS_High*%
X136263499Y-94543501D02*
X136461500Y-94345500D01*
X136263499Y-99659300D02*
X136263499Y-94543501D01*
X111228000Y-77216000D02*
X111760000Y-77216000D01*
X106934000Y-81510000D02*
X111228000Y-77216000D01*
%TO.N,Pin7_ISO9141_K-Line*%
X168033500Y-99441000D02*
X168224000Y-99250500D01*
X166227000Y-99441000D02*
X168033500Y-99441000D01*
X102229258Y-85015300D02*
X95324700Y-85015300D01*
X104394000Y-82850558D02*
X102229258Y-85015300D01*
X95324700Y-85015300D02*
X94488000Y-85852000D01*
X104394000Y-82655001D02*
X104394000Y-82850558D01*
X110463989Y-106452011D02*
X111722680Y-105193320D01*
X99358310Y-106452011D02*
X110463989Y-106452011D01*
X94488000Y-101581701D02*
X99358310Y-106452011D01*
X94488000Y-85852000D02*
X94488000Y-101581701D01*
X119380000Y-99060000D02*
X124460000Y-93980000D01*
X119380000Y-100584000D02*
X119380000Y-99060000D01*
X125476000Y-92964000D02*
X124460000Y-93980000D01*
X164217502Y-92964000D02*
X125476000Y-92964000D01*
X164977001Y-95623499D02*
X164977001Y-93723499D01*
X164977001Y-93723499D02*
X164217502Y-92964000D01*
X168224000Y-98870498D02*
X164977001Y-95623499D01*
X168224000Y-99250500D02*
X168224000Y-98870498D01*
X169938500Y-97536000D02*
X171704000Y-97536000D01*
X168224000Y-99250500D02*
X169938500Y-97536000D01*
X202697500Y-99562500D02*
X202692000Y-99568000D01*
X205232000Y-99562500D02*
X202697500Y-99562500D01*
X198628000Y-94742000D02*
X196596000Y-92710000D01*
X196596000Y-92710000D02*
X177546000Y-92710000D01*
%TO.N,Net-(C_VR1_1-Pad2)*%
X117856000Y-106463401D02*
X117856000Y-99568000D01*
X117606000Y-106713401D02*
X117856000Y-106463401D01*
X117606000Y-107292000D02*
X117606000Y-106713401D01*
%TO.N,Net-(C_VR1_2-Pad2)*%
X117006000Y-106613402D02*
X117006000Y-102616000D01*
X117105999Y-106713401D02*
X117006000Y-106613402D01*
X117105999Y-107292000D02*
X117105999Y-106713401D01*
X117006000Y-103466000D02*
X115824000Y-104648000D01*
X117006000Y-102616000D02*
X117006000Y-103466000D01*
X122428000Y-105664000D02*
X120396000Y-103632000D01*
X122428000Y-107207050D02*
X122428000Y-105664000D01*
%TO.N,Net-(C_VR1_2-Pad1)*%
X118106000Y-107292000D02*
X118106000Y-106779100D01*
X118256010Y-106629090D02*
X118256010Y-104755990D01*
X118106000Y-106779100D02*
X118256010Y-106629090D01*
X118706000Y-104306000D02*
X118706000Y-102616000D01*
X118256010Y-104755990D02*
X118706000Y-104306000D01*
%TO.N,Net-(C_VR1_3-Pad1)*%
X117105999Y-113207999D02*
X117690000Y-113792000D01*
X117105999Y-110132000D02*
X117105999Y-113207999D01*
X118106000Y-113376000D02*
X117690000Y-113792000D01*
X117690000Y-113792000D02*
X118364000Y-113118000D01*
X118106000Y-110678001D02*
X118106000Y-110132000D01*
X118364000Y-110936001D02*
X118106000Y-110678001D01*
X118364000Y-113118000D02*
X118364000Y-110936001D01*
%TO.N,Net-(C_VR2_1-Pad1)*%
X96135000Y-70729198D02*
X96580502Y-71174700D01*
X96135000Y-69809500D02*
X96135000Y-70729198D01*
X96580502Y-74612500D02*
X96644002Y-74676000D01*
X96580502Y-71174700D02*
X96580502Y-74612500D01*
%TO.N,Net-(C_VR2_2-Pad2)*%
X91909000Y-66230500D02*
X91948000Y-66269500D01*
X89833450Y-66230500D02*
X91909000Y-66230500D01*
X96635001Y-70663501D02*
X97218500Y-71247000D01*
X96635001Y-69809500D02*
X96635001Y-70663501D01*
X92939500Y-65278000D02*
X91948000Y-66269500D01*
X94361000Y-65278000D02*
X92939500Y-65278000D01*
%TO.N,Net-(C_VR2_2-Pad1)*%
X95635000Y-71006501D02*
X95684999Y-71056500D01*
X95635000Y-69809500D02*
X95635000Y-71006501D01*
X91948000Y-69723000D02*
X91948000Y-67969500D01*
%TO.N,Net-(C_VR2_3-Pad1)*%
X95635000Y-63020500D02*
X95479500Y-62865000D01*
X95635000Y-66969500D02*
X95635000Y-63020500D01*
%TO.N,Pin12*%
X102442999Y-104728999D02*
X102616000Y-104902000D01*
X102442999Y-97918519D02*
X102442999Y-104728999D01*
X106934000Y-93427518D02*
X102442999Y-97918519D01*
X106934000Y-90669999D02*
X106934000Y-93427518D01*
%TO.N,Pin9*%
X108008701Y-89454699D02*
X106934000Y-88379998D01*
X108008701Y-102049299D02*
X108008701Y-89454699D01*
X105156000Y-104902000D02*
X108008701Y-102049299D01*
%TO.N,Pin8*%
X107379560Y-87235000D02*
X104394000Y-87235000D01*
X108408711Y-88264151D02*
X107379560Y-87235000D01*
X108408711Y-104189289D02*
X108408711Y-88264151D01*
X107696000Y-104902000D02*
X108408711Y-104189289D01*
%TO.N,Pin13*%
X96012000Y-100838000D02*
X100076000Y-104902000D01*
X96012000Y-94488000D02*
X96012000Y-100838000D01*
%TO.N,/Host/~PWR_CTRL~*%
X116268500Y-63169898D02*
X116268500Y-60134500D01*
X129108102Y-76009500D02*
X116268500Y-63169898D01*
X159956500Y-106861500D02*
X159956500Y-105537000D01*
X158737500Y-108080500D02*
X159956500Y-106861500D01*
X158125000Y-108080500D02*
X158737500Y-108080500D01*
X180787000Y-98305000D02*
X180787000Y-101153000D01*
X180787000Y-101153000D02*
X179324000Y-102616000D01*
X178392001Y-104140000D02*
X178900001Y-104648000D01*
X177292000Y-104140000D02*
X178392001Y-104140000D01*
X212540000Y-100076000D02*
X212344000Y-100272000D01*
X215392000Y-100076000D02*
X212540000Y-100076000D01*
X157353000Y-105537000D02*
X156464000Y-104648000D01*
X159956500Y-105537000D02*
X157353000Y-105537000D01*
X146558000Y-102870000D02*
X144018000Y-102870000D01*
X130048000Y-101990500D02*
X130050500Y-101988000D01*
X130048000Y-104394000D02*
X130048000Y-101990500D01*
X180787000Y-98305000D02*
X180787000Y-95951000D01*
X180787000Y-95951000D02*
X179070000Y-94234000D01*
X138430000Y-76708000D02*
X139128500Y-76009500D01*
X139128500Y-76009500D02*
X129108102Y-76009500D01*
X144598500Y-76009500D02*
X139128500Y-76009500D01*
X215392000Y-100076000D02*
X215392000Y-92456000D01*
X215392000Y-92456000D02*
X212598000Y-89662000D01*
X181863999Y-88434001D02*
X178900001Y-91397999D01*
X207221999Y-88434001D02*
X181863999Y-88434001D01*
X209296000Y-86360000D02*
X207221999Y-88434001D01*
%TO.N,/Host/ESP32/ESP32_EN*%
X140945500Y-68389500D02*
X140652500Y-68096500D01*
X144598500Y-68389500D02*
X140945500Y-68389500D01*
X131508500Y-60134500D02*
X131508500Y-62429502D01*
X131508500Y-62429502D02*
X130577501Y-63360501D01*
X131517502Y-62429502D02*
X131508500Y-62429502D01*
X133032500Y-63944500D02*
X131517502Y-62429502D01*
D54*
%TO.N,/OBDII Interpreter/Analog_Voltage*%
X155287500Y-119727500D02*
X155321000Y-119761000D01*
X155287500Y-114818000D02*
X155287500Y-119727500D01*
X108712000Y-109728000D02*
X107696000Y-110744000D01*
X109894000Y-109728000D02*
X108712000Y-109728000D01*
X110667800Y-115316000D02*
X109728000Y-115316000D01*
X107696000Y-113284000D02*
X107696000Y-110744000D01*
X109728000Y-115316000D02*
X107696000Y-113284000D01*
X109220000Y-112268000D02*
X107696000Y-110744000D01*
X109924000Y-112268000D02*
X109220000Y-112268000D01*
X144272000Y-125476000D02*
X148259800Y-125476000D01*
D56*
%TO.N,/Host/ESP32/ESP32_Pin4*%
X136676101Y-73020201D02*
X132710201Y-73020201D01*
X140036802Y-69659500D02*
X136676101Y-73020201D01*
X132710201Y-73020201D02*
X128968500Y-69278500D01*
X144598500Y-69659500D02*
X140036802Y-69659500D01*
%TO.N,/Host/ESP32/ESP32_Pin5*%
X130824211Y-73420211D02*
X126682500Y-69278500D01*
X136841790Y-73420211D02*
X130824211Y-73420211D01*
X139332500Y-70929500D02*
X136841790Y-73420211D01*
X144598500Y-70929500D02*
X139332500Y-70929500D01*
%TO.N,/Host/ESP32/ESP32_Pin6*%
X128938221Y-73820221D02*
X123888500Y-68770500D01*
X137007479Y-73820221D02*
X128938221Y-73820221D01*
X138628199Y-72199500D02*
X137007479Y-73820221D01*
X144598500Y-72199500D02*
X138628199Y-72199500D01*
%TO.N,/Host/ESP32/ESP32_Pin7*%
X121348500Y-67118502D02*
X121348500Y-60134500D01*
X128450229Y-74220231D02*
X121348500Y-67118502D01*
X137173168Y-74220231D02*
X128450229Y-74220231D01*
X137923898Y-73469500D02*
X137173168Y-74220231D01*
X144598500Y-73469500D02*
X137923898Y-73469500D01*
%TO.N,/Host/ESP32/ESP32_Pin8*%
X128403800Y-74739500D02*
X118808500Y-65144200D01*
X118808500Y-65144200D02*
X118808500Y-60134500D01*
X144598500Y-74739500D02*
X128403800Y-74739500D01*
%TO.N,/Host/IMU_INT2*%
X144598500Y-78549500D02*
X129603500Y-78549500D01*
X116522500Y-65468500D02*
X111188500Y-60134500D01*
X129603500Y-78549500D02*
X116522500Y-65468500D01*
%TO.N,/Host/IMU_INT1*%
X128333500Y-79819500D02*
X108648500Y-60134500D01*
X144598500Y-79819500D02*
X140779500Y-79819500D01*
X135734500Y-79819500D02*
X135953500Y-79819500D01*
X135064500Y-79149500D02*
X135734500Y-79819500D01*
X135953500Y-79819500D02*
X128333500Y-79819500D01*
X140779500Y-79819500D02*
X135953500Y-79819500D01*
%TO.N,/Host/IMU_SCL*%
X106946498Y-60134500D02*
X106108500Y-60134500D01*
X144598500Y-81089500D02*
X127901498Y-81089500D01*
X127901498Y-81089500D02*
X127317500Y-81089500D01*
X123438500Y-77210500D02*
X121856500Y-77210500D01*
X127317500Y-81089500D02*
X123438500Y-77210500D01*
X121856500Y-77210500D02*
X121660500Y-77210500D01*
X106108500Y-61658500D02*
X106108500Y-60134500D01*
X121660500Y-77210500D02*
X106108500Y-61658500D01*
X128206500Y-81520500D02*
X127748500Y-81520500D01*
X127748500Y-81520500D02*
X127317500Y-81089500D01*
%TO.N,/Host/IMU_SDA*%
X144598500Y-82359500D02*
X125793500Y-82359500D01*
X125793500Y-82359500D02*
X123634500Y-80200500D01*
X122618500Y-79184500D02*
X122618500Y-78422500D01*
X123634500Y-80200500D02*
X122618500Y-79184500D01*
X122618500Y-79184500D02*
X103568500Y-60134500D01*
%TO.N,/Host/IMU_SA0*%
X148653500Y-84079502D02*
X146944502Y-85788500D01*
X148653500Y-83359500D02*
X148653500Y-84079502D01*
X124142500Y-85788500D02*
X98488500Y-60134500D01*
X146944502Y-85788500D02*
X124142500Y-85788500D01*
X122110500Y-81724500D02*
X120078500Y-81724500D01*
%TO.N,/Host/ESP32/ESP32_Pin37*%
X172148500Y-61857620D02*
X172148500Y-59880500D01*
X166886620Y-67119500D02*
X172148500Y-61857620D01*
X161598500Y-67119500D02*
X166886620Y-67119500D01*
%TO.N,/Host/ESP32/ESP32_Pin36*%
X174688500Y-59883318D02*
X174688500Y-59880500D01*
X166182318Y-68389500D02*
X174688500Y-59883318D01*
X161598500Y-68389500D02*
X166182318Y-68389500D01*
%TO.N,/Host/ESP32/ESP32_TXD0*%
X167449500Y-69659500D02*
X177228500Y-59880500D01*
X161598500Y-69659500D02*
X167449500Y-69659500D01*
%TO.N,/Host/ESP32/ESP32_RXD0*%
X168719500Y-70929500D02*
X179768500Y-59880500D01*
X161598500Y-70929500D02*
X168719500Y-70929500D01*
%TO.N,/Host/ESP32/ESP32_Pin33*%
X181470502Y-59880500D02*
X182308500Y-59880500D01*
X169151502Y-72199500D02*
X161598500Y-72199500D01*
X171564502Y-69786500D02*
X169151502Y-72199500D01*
X178244500Y-69786500D02*
X171564502Y-69786500D01*
X180403500Y-67627500D02*
X178244500Y-69786500D01*
X180403500Y-65491500D02*
X180403500Y-67627500D01*
X180530500Y-65364500D02*
X180403500Y-65491500D01*
X180530500Y-61658500D02*
X180530500Y-65364500D01*
X182308500Y-59880500D02*
X180530500Y-61658500D01*
%TO.N,/Host/ESP32/ESP32_Pin31*%
X161598500Y-74739500D02*
X162369500Y-74739500D01*
X162369500Y-74739500D02*
X164232501Y-72876499D01*
X169904499Y-72876499D02*
X172359498Y-70421500D01*
X164232501Y-72876499D02*
X169904499Y-72876499D01*
X172359498Y-70421500D02*
X178752500Y-70421500D01*
X181221091Y-67952909D02*
X181221091Y-67810091D01*
X178752500Y-70421500D02*
X181221091Y-67952909D01*
%TO.N,/Host/HST_TX*%
X147398500Y-109380500D02*
X146748500Y-108730500D01*
X149850000Y-109380500D02*
X147398500Y-109380500D01*
X177800000Y-77089000D02*
X195008500Y-59880500D01*
X176339500Y-78549500D02*
X177800000Y-77089000D01*
X173291500Y-78549500D02*
X176339500Y-78549500D01*
X161598500Y-78549500D02*
X173291500Y-78549500D01*
%TO.N,/Host/HST_RX*%
X177609500Y-79819500D02*
X197548500Y-59880500D01*
X161598500Y-79819500D02*
X177609500Y-79819500D01*
X147241500Y-110030500D02*
X145986500Y-108775500D01*
X149850000Y-110030500D02*
X147241500Y-110030500D01*
X164316500Y-88624500D02*
X166814500Y-91122500D01*
X160064364Y-88624500D02*
X164316500Y-88624500D01*
%TO.N,/Host/~SLEEP_OBD~*%
X165671500Y-77279500D02*
X166179500Y-76771500D01*
X161598500Y-77279500D02*
X165671500Y-77279500D01*
X175958500Y-76390500D02*
X192468500Y-59880500D01*
X174180500Y-76390500D02*
X175958500Y-76390500D01*
X173799500Y-76771500D02*
X174180500Y-76390500D01*
X166179500Y-76771500D02*
X173799500Y-76771500D01*
X162453500Y-111330500D02*
X162687000Y-111564000D01*
X158125000Y-111330500D02*
X162453500Y-111330500D01*
X175260000Y-77089000D02*
X175958500Y-76390500D01*
X175260000Y-77978000D02*
X175260000Y-77089000D01*
%TO.N,/Host/ESP32/ESP32_Pin22*%
X161150502Y-91122500D02*
X161988500Y-91122500D01*
X156273500Y-86245498D02*
X161150502Y-91122500D01*
X156273500Y-83359500D02*
X156273500Y-86245498D01*
%TO.N,/Host/ESP32/ESP32_Pin21*%
X155003500Y-86677500D02*
X159448500Y-91122500D01*
X155003500Y-83359500D02*
X155003500Y-86677500D01*
%TO.N,/Host/ESP32/ESP32_Pin20*%
X153733500Y-87947500D02*
X156908500Y-91122500D01*
X153733500Y-83359500D02*
X153733500Y-87947500D01*
%TO.N,/Host/ESP32/ESP32_Pin19*%
X152463500Y-84899500D02*
X152463500Y-83359500D01*
X149288500Y-88074500D02*
X152463500Y-84899500D01*
X149288500Y-91122500D02*
X149288500Y-88074500D01*
%TO.N,/Host/ESP32/ESP32_Pin18*%
X151193500Y-84559500D02*
X150472500Y-85280500D01*
X151193500Y-83359500D02*
X151193500Y-84559500D01*
X150472500Y-85280500D02*
X149796500Y-85280500D01*
X146748500Y-88328500D02*
X146748500Y-91122500D01*
X149796500Y-85280500D02*
X146748500Y-88328500D01*
%TO.N,/Host/ESP32/ESP32_Pin17*%
X144208500Y-91122500D02*
X144208500Y-89852500D01*
X149923500Y-84137500D02*
X149923500Y-83359500D01*
X144208500Y-89852500D02*
X149923500Y-84137500D01*
%TO.N,Net-(LED_ESP_1-Pad2)*%
X163902500Y-86042500D02*
X166281000Y-86042500D01*
%TO.N,Net-(R_ESP_1-Pad2)*%
X123006499Y-63360501D02*
X122930500Y-63436500D01*
X125327499Y-63360501D02*
X123006499Y-63360501D01*
%TO.N,Net-(R_ESP_2-Pad1)*%
X125327499Y-66560499D02*
X122957499Y-66560499D01*
X122957499Y-66560499D02*
X122881500Y-66484500D01*
%TO.N,Net-(R_STN_5-Pad1)*%
X146261500Y-112630500D02*
X145986500Y-112905500D01*
X149850000Y-112630500D02*
X146261500Y-112630500D01*
X127000000Y-110236000D02*
X127000000Y-112464000D01*
X133604000Y-109728000D02*
X127508000Y-109728000D01*
X137329001Y-113453001D02*
X133604000Y-109728000D01*
X127508000Y-109728000D02*
X127000000Y-110236000D01*
X140059501Y-113453001D02*
X137329001Y-113453001D01*
%TO.N,Net-(R_STN_6-Pad1)*%
X130743999Y-114175999D02*
X129032000Y-112464000D01*
X147126999Y-114175999D02*
X130743999Y-114175999D01*
X147372498Y-113930500D02*
X147126999Y-114175999D01*
X149850000Y-113930500D02*
X147372498Y-113930500D01*
%TO.N,Net-(R_STN_7-Pad2)*%
X152037500Y-103088500D02*
X151701500Y-102752500D01*
X152037500Y-106543000D02*
X152037500Y-103088500D01*
%TO.N,Net-(R_STN_8-Pad2)*%
X152687500Y-104079500D02*
X153987500Y-102779500D01*
X152687500Y-106543000D02*
X152687500Y-104079500D01*
%TO.N,Net-(R_STN_9-Pad1)*%
X139539000Y-122936000D02*
X143678999Y-118796001D01*
X137980000Y-122936000D02*
X139539000Y-122936000D01*
%TO.N,Net-(R_ESP_4-Pad1)*%
X177778499Y-66306499D02*
X177660501Y-66306499D01*
%TO.N,/Host/ESP32/ESP32_Pin25*%
X161598500Y-82359500D02*
X165163500Y-82359500D01*
X165163500Y-82359500D02*
X166687500Y-83883500D01*
X170912500Y-83883500D02*
X172732499Y-82063501D01*
X166687500Y-83883500D02*
X170912500Y-83883500D01*
X175277499Y-82063501D02*
X175450500Y-81890500D01*
X172732499Y-82063501D02*
X175277499Y-82063501D01*
X180618500Y-81890500D02*
X202628500Y-59880500D01*
X175450500Y-81890500D02*
X180618500Y-81890500D01*
X185432499Y-63106501D02*
X185737500Y-62801500D01*
X183028501Y-63106501D02*
X185432499Y-63106501D01*
%TO.N,Net-(R_COMP_6-Pad2)*%
X207835500Y-92392500D02*
X209296000Y-90932000D01*
X207835500Y-97922500D02*
X207835500Y-92392500D01*
X209296000Y-90932000D02*
X213614000Y-86614000D01*
X213614000Y-86614000D02*
X213614000Y-82042000D01*
%TO.N,Net-(R_COMP_8-Pad2)*%
X216408000Y-63759500D02*
X216731000Y-63436500D01*
X216731000Y-63436500D02*
X216731000Y-63685000D01*
X209296000Y-83312000D02*
X209296000Y-71120000D01*
X210624000Y-69792000D02*
X210566000Y-69850000D01*
X213106000Y-69792000D02*
X210624000Y-69792000D01*
X210566000Y-69850000D02*
X209296000Y-71120000D01*
X216731000Y-63685000D02*
X210566000Y-69850000D01*
%TO.N,Net-(R_COMP_10-Pad1)*%
X206756000Y-77020000D02*
X208084000Y-75692000D01*
X206756000Y-83312000D02*
X206756000Y-77020000D01*
%TO.N,Net-(R_STN_1-Pad2)*%
X152037500Y-116884502D02*
X152019000Y-116903002D01*
X152037500Y-114818000D02*
X152037500Y-116884502D01*
X152019000Y-116903002D02*
X152019000Y-117586500D01*
X152019000Y-118745000D02*
X150368000Y-120396000D01*
X152019000Y-117586500D02*
X152019000Y-118745000D01*
%TO.N,Net-(R_STN_3-Pad2)*%
X151387500Y-114818000D02*
X151387500Y-115614500D01*
X149917698Y-117348000D02*
X149860000Y-117348000D01*
X151387500Y-115878198D02*
X149917698Y-117348000D01*
X151387500Y-115614500D02*
X151387500Y-115878198D01*
%TO.N,/Host/~RESET_OBD_SW~*%
X173672500Y-71056500D02*
X178752500Y-71056500D01*
X161598500Y-76009500D02*
X162369500Y-76009500D01*
X162369500Y-76009500D02*
X164782500Y-73596500D01*
X171132500Y-73596500D02*
X173672500Y-71056500D01*
X164782500Y-73596500D02*
X171132500Y-73596500D01*
X155379000Y-122745500D02*
X154876500Y-122243000D01*
X157797500Y-122745500D02*
X155379000Y-122745500D01*
X154637500Y-122004000D02*
X154637500Y-114818000D01*
X154876500Y-122243000D02*
X154637500Y-122004000D01*
X172254000Y-74718000D02*
X171132500Y-73596500D01*
X176522091Y-74718000D02*
X172254000Y-74718000D01*
X180403500Y-71056500D02*
X183388000Y-68072000D01*
X178752500Y-71056500D02*
X180403500Y-71056500D01*
X187706000Y-62103000D02*
X189928500Y-59880500D01*
X187706000Y-63754000D02*
X187706000Y-62103000D01*
%TO.N,/Host/ESP32/ESP32_Pin26*%
X161699200Y-80988800D02*
X178980200Y-80988800D01*
X161598500Y-81089500D02*
X161699200Y-80988800D01*
X178980200Y-80988800D02*
X200088500Y-59880500D01*
%TO.N,/Host/ESP32/ESP32_Pin24*%
X158813500Y-83359500D02*
X158813500Y-85153500D01*
X159702500Y-86042500D02*
X162360500Y-86042500D01*
X158813500Y-85153500D02*
X159702500Y-86042500D01*
X163630500Y-84772500D02*
X162360500Y-86042500D01*
X180276500Y-84772500D02*
X163630500Y-84772500D01*
X205168500Y-59880500D02*
X180276500Y-84772500D01*
%TO.N,/Host/ESP32/ESP32_Pin23*%
X207708500Y-59880500D02*
X205549500Y-62039500D01*
X183255402Y-82931000D02*
X203898500Y-62287902D01*
X183070500Y-82931000D02*
X183255402Y-82931000D01*
X159956500Y-88074500D02*
X177927000Y-88074500D01*
X177927000Y-88074500D02*
X183070500Y-82931000D01*
X157543500Y-85661500D02*
X159956500Y-88074500D01*
X157543500Y-83359500D02*
X157543500Y-85661500D01*
X205301098Y-62287902D02*
X205549500Y-62039500D01*
X203898500Y-62287902D02*
X205301098Y-62287902D01*
%TO.N,Net-(R_STN_10-Pad1)*%
X142935001Y-121995999D02*
X141487000Y-123444000D01*
X143678999Y-121995999D02*
X142935001Y-121995999D01*
%TO.N,Net-(R_ESP_4-Pad1)*%
X177778499Y-67643501D02*
X176905500Y-68516500D01*
X177778499Y-66306499D02*
X177778499Y-67643501D01*
%TO.N,Net-(R_ESP_5-Pad2)*%
X177558499Y-63106501D02*
X175704500Y-64960500D01*
X177778499Y-63106501D02*
X177558499Y-63106501D01*
%TD*%
M02*
