%TF.GenerationSoftware,KiCad,Pcbnew,(5.1.7)-1*%
%TF.CreationDate,2020-10-27T06:30:05-07:00*%
%TF.ProjectId,Reader,52656164-6572-42e6-9b69-6361645f7063,0.0.01*%
%TF.SameCoordinates,Original*%
%TF.FileFunction,Other,User*%
%FSLAX46Y46*%
G04 Gerber Fmt 4.6, Leading zero omitted, Abs format (unit mm)*
G04 Created by KiCad (PCBNEW (5.1.7)-1) date 2020-10-27 06:30:05*
%MOMM*%
%LPD*%
G01*
G04 APERTURE LIST*
%ADD10C,0.100000*%
%ADD11C,0.150000*%
%ADD12C,0.300000*%
%ADD13C,0.400000*%
%ADD14C,0.050000*%
%ADD15C,0.152400*%
%ADD16C,0.050800*%
G04 APERTURE END LIST*
D10*
D11*
X159400000Y-171900000D02*
X159400000Y-203900000D01*
X267400000Y-203900000D01*
X267400000Y-171900000D01*
X159400000Y-171900000D01*
D10*
D11*
X10000000Y-10000000D02*
X10000000Y-205900000D01*
X269400000Y-205900000D01*
X269400000Y-10000000D01*
X10000000Y-10000000D01*
D10*
D11*
X12000000Y-12000000D02*
X12000000Y-203900000D01*
X267400000Y-203900000D01*
X267400000Y-12000000D01*
X12000000Y-12000000D01*
D10*
D11*
X60000000Y-12000000D02*
X60000000Y-10000000D01*
D10*
D11*
X110000000Y-12000000D02*
X110000000Y-10000000D01*
D10*
D11*
X160000000Y-12000000D02*
X160000000Y-10000000D01*
D10*
D11*
X210000000Y-12000000D02*
X210000000Y-10000000D01*
D10*
D11*
X260000000Y-12000000D02*
X260000000Y-10000000D01*
D10*
D11*
X36065476Y-11588095D02*
X35322619Y-11588095D01*
X35694047Y-11588095D02*
X35694047Y-10288095D01*
X35570238Y-10473809D01*
X35446428Y-10597619D01*
X35322619Y-10659523D01*
D10*
D11*
X85322619Y-10411904D02*
X85384523Y-10350000D01*
X85508333Y-10288095D01*
X85817857Y-10288095D01*
X85941666Y-10350000D01*
X86003571Y-10411904D01*
X86065476Y-10535714D01*
X86065476Y-10659523D01*
X86003571Y-10845238D01*
X85260714Y-11588095D01*
X86065476Y-11588095D01*
D10*
D11*
X135260714Y-10288095D02*
X136065476Y-10288095D01*
X135632142Y-10783333D01*
X135817857Y-10783333D01*
X135941666Y-10845238D01*
X136003571Y-10907142D01*
X136065476Y-11030952D01*
X136065476Y-11340476D01*
X136003571Y-11464285D01*
X135941666Y-11526190D01*
X135817857Y-11588095D01*
X135446428Y-11588095D01*
X135322619Y-11526190D01*
X135260714Y-11464285D01*
D10*
D11*
X185941666Y-10721428D02*
X185941666Y-11588095D01*
X185632142Y-10226190D02*
X185322619Y-11154761D01*
X186127380Y-11154761D01*
D10*
D11*
X236003571Y-10288095D02*
X235384523Y-10288095D01*
X235322619Y-10907142D01*
X235384523Y-10845238D01*
X235508333Y-10783333D01*
X235817857Y-10783333D01*
X235941666Y-10845238D01*
X236003571Y-10907142D01*
X236065476Y-11030952D01*
X236065476Y-11340476D01*
X236003571Y-11464285D01*
X235941666Y-11526190D01*
X235817857Y-11588095D01*
X235508333Y-11588095D01*
X235384523Y-11526190D01*
X235322619Y-11464285D01*
D10*
D11*
X60000000Y-203900000D02*
X60000000Y-205900000D01*
D10*
D11*
X110000000Y-203900000D02*
X110000000Y-205900000D01*
D10*
D11*
X160000000Y-203900000D02*
X160000000Y-205900000D01*
D10*
D11*
X210000000Y-203900000D02*
X210000000Y-205900000D01*
D10*
D11*
X260000000Y-203900000D02*
X260000000Y-205900000D01*
D10*
D11*
X36065476Y-205488095D02*
X35322619Y-205488095D01*
X35694047Y-205488095D02*
X35694047Y-204188095D01*
X35570238Y-204373809D01*
X35446428Y-204497619D01*
X35322619Y-204559523D01*
D10*
D11*
X85322619Y-204311904D02*
X85384523Y-204250000D01*
X85508333Y-204188095D01*
X85817857Y-204188095D01*
X85941666Y-204250000D01*
X86003571Y-204311904D01*
X86065476Y-204435714D01*
X86065476Y-204559523D01*
X86003571Y-204745238D01*
X85260714Y-205488095D01*
X86065476Y-205488095D01*
D10*
D11*
X135260714Y-204188095D02*
X136065476Y-204188095D01*
X135632142Y-204683333D01*
X135817857Y-204683333D01*
X135941666Y-204745238D01*
X136003571Y-204807142D01*
X136065476Y-204930952D01*
X136065476Y-205240476D01*
X136003571Y-205364285D01*
X135941666Y-205426190D01*
X135817857Y-205488095D01*
X135446428Y-205488095D01*
X135322619Y-205426190D01*
X135260714Y-205364285D01*
D10*
D11*
X185941666Y-204621428D02*
X185941666Y-205488095D01*
X185632142Y-204126190D02*
X185322619Y-205054761D01*
X186127380Y-205054761D01*
D10*
D11*
X236003571Y-204188095D02*
X235384523Y-204188095D01*
X235322619Y-204807142D01*
X235384523Y-204745238D01*
X235508333Y-204683333D01*
X235817857Y-204683333D01*
X235941666Y-204745238D01*
X236003571Y-204807142D01*
X236065476Y-204930952D01*
X236065476Y-205240476D01*
X236003571Y-205364285D01*
X235941666Y-205426190D01*
X235817857Y-205488095D01*
X235508333Y-205488095D01*
X235384523Y-205426190D01*
X235322619Y-205364285D01*
D10*
D11*
X10000000Y-60000000D02*
X12000000Y-60000000D01*
D10*
D11*
X10000000Y-110000000D02*
X12000000Y-110000000D01*
D10*
D11*
X10000000Y-160000000D02*
X12000000Y-160000000D01*
D10*
D11*
X10690476Y-35216666D02*
X11309523Y-35216666D01*
X10566666Y-35588095D02*
X11000000Y-34288095D01*
X11433333Y-35588095D01*
D10*
D11*
X11092857Y-84907142D02*
X11278571Y-84969047D01*
X11340476Y-85030952D01*
X11402380Y-85154761D01*
X11402380Y-85340476D01*
X11340476Y-85464285D01*
X11278571Y-85526190D01*
X11154761Y-85588095D01*
X10659523Y-85588095D01*
X10659523Y-84288095D01*
X11092857Y-84288095D01*
X11216666Y-84350000D01*
X11278571Y-84411904D01*
X11340476Y-84535714D01*
X11340476Y-84659523D01*
X11278571Y-84783333D01*
X11216666Y-84845238D01*
X11092857Y-84907142D01*
X10659523Y-84907142D01*
D10*
D11*
X11402380Y-135464285D02*
X11340476Y-135526190D01*
X11154761Y-135588095D01*
X11030952Y-135588095D01*
X10845238Y-135526190D01*
X10721428Y-135402380D01*
X10659523Y-135278571D01*
X10597619Y-135030952D01*
X10597619Y-134845238D01*
X10659523Y-134597619D01*
X10721428Y-134473809D01*
X10845238Y-134350000D01*
X11030952Y-134288095D01*
X11154761Y-134288095D01*
X11340476Y-134350000D01*
X11402380Y-134411904D01*
D10*
D11*
X10659523Y-185588095D02*
X10659523Y-184288095D01*
X10969047Y-184288095D01*
X11154761Y-184350000D01*
X11278571Y-184473809D01*
X11340476Y-184597619D01*
X11402380Y-184845238D01*
X11402380Y-185030952D01*
X11340476Y-185278571D01*
X11278571Y-185402380D01*
X11154761Y-185526190D01*
X10969047Y-185588095D01*
X10659523Y-185588095D01*
D10*
D11*
X269400000Y-60000000D02*
X267400000Y-60000000D01*
D10*
D11*
X269400000Y-110000000D02*
X267400000Y-110000000D01*
D10*
D11*
X269400000Y-160000000D02*
X267400000Y-160000000D01*
D10*
D11*
X268090476Y-35216666D02*
X268709523Y-35216666D01*
X267966666Y-35588095D02*
X268400000Y-34288095D01*
X268833333Y-35588095D01*
D10*
D11*
X268492857Y-84907142D02*
X268678571Y-84969047D01*
X268740476Y-85030952D01*
X268802380Y-85154761D01*
X268802380Y-85340476D01*
X268740476Y-85464285D01*
X268678571Y-85526190D01*
X268554761Y-85588095D01*
X268059523Y-85588095D01*
X268059523Y-84288095D01*
X268492857Y-84288095D01*
X268616666Y-84350000D01*
X268678571Y-84411904D01*
X268740476Y-84535714D01*
X268740476Y-84659523D01*
X268678571Y-84783333D01*
X268616666Y-84845238D01*
X268492857Y-84907142D01*
X268059523Y-84907142D01*
D10*
D11*
X268802380Y-135464285D02*
X268740476Y-135526190D01*
X268554761Y-135588095D01*
X268430952Y-135588095D01*
X268245238Y-135526190D01*
X268121428Y-135402380D01*
X268059523Y-135278571D01*
X267997619Y-135030952D01*
X267997619Y-134845238D01*
X268059523Y-134597619D01*
X268121428Y-134473809D01*
X268245238Y-134350000D01*
X268430952Y-134288095D01*
X268554761Y-134288095D01*
X268740476Y-134350000D01*
X268802380Y-134411904D01*
D10*
D11*
X268059523Y-185588095D02*
X268059523Y-184288095D01*
X268369047Y-184288095D01*
X268554761Y-184350000D01*
X268678571Y-184473809D01*
X268740476Y-184597619D01*
X268802380Y-184845238D01*
X268802380Y-185030952D01*
X268740476Y-185278571D01*
X268678571Y-185402380D01*
X268554761Y-185526190D01*
X268369047Y-185588095D01*
X268059523Y-185588095D01*
D10*
D11*
X182832142Y-199678571D02*
X182832142Y-198178571D01*
X183189285Y-198178571D01*
X183403571Y-198250000D01*
X183546428Y-198392857D01*
X183617857Y-198535714D01*
X183689285Y-198821428D01*
X183689285Y-199035714D01*
X183617857Y-199321428D01*
X183546428Y-199464285D01*
X183403571Y-199607142D01*
X183189285Y-199678571D01*
X182832142Y-199678571D01*
X184975000Y-199678571D02*
X184975000Y-198892857D01*
X184903571Y-198750000D01*
X184760714Y-198678571D01*
X184475000Y-198678571D01*
X184332142Y-198750000D01*
X184975000Y-199607142D02*
X184832142Y-199678571D01*
X184475000Y-199678571D01*
X184332142Y-199607142D01*
X184260714Y-199464285D01*
X184260714Y-199321428D01*
X184332142Y-199178571D01*
X184475000Y-199107142D01*
X184832142Y-199107142D01*
X184975000Y-199035714D01*
X185475000Y-198678571D02*
X186046428Y-198678571D01*
X185689285Y-198178571D02*
X185689285Y-199464285D01*
X185760714Y-199607142D01*
X185903571Y-199678571D01*
X186046428Y-199678571D01*
X187117857Y-199607142D02*
X186975000Y-199678571D01*
X186689285Y-199678571D01*
X186546428Y-199607142D01*
X186475000Y-199464285D01*
X186475000Y-198892857D01*
X186546428Y-198750000D01*
X186689285Y-198678571D01*
X186975000Y-198678571D01*
X187117857Y-198750000D01*
X187189285Y-198892857D01*
X187189285Y-199035714D01*
X186475000Y-199178571D01*
X187832142Y-199535714D02*
X187903571Y-199607142D01*
X187832142Y-199678571D01*
X187760714Y-199607142D01*
X187832142Y-199535714D01*
X187832142Y-199678571D01*
X187832142Y-198750000D02*
X187903571Y-198821428D01*
X187832142Y-198892857D01*
X187760714Y-198821428D01*
X187832142Y-198750000D01*
X187832142Y-198892857D01*
X189617857Y-198321428D02*
X189689285Y-198250000D01*
X189832142Y-198178571D01*
X190189285Y-198178571D01*
X190332142Y-198250000D01*
X190403571Y-198321428D01*
X190475000Y-198464285D01*
X190475000Y-198607142D01*
X190403571Y-198821428D01*
X189546428Y-199678571D01*
X190475000Y-199678571D01*
X191403571Y-198178571D02*
X191546428Y-198178571D01*
X191689285Y-198250000D01*
X191760714Y-198321428D01*
X191832142Y-198464285D01*
X191903571Y-198750000D01*
X191903571Y-199107142D01*
X191832142Y-199392857D01*
X191760714Y-199535714D01*
X191689285Y-199607142D01*
X191546428Y-199678571D01*
X191403571Y-199678571D01*
X191260714Y-199607142D01*
X191189285Y-199535714D01*
X191117857Y-199392857D01*
X191046428Y-199107142D01*
X191046428Y-198750000D01*
X191117857Y-198464285D01*
X191189285Y-198321428D01*
X191260714Y-198250000D01*
X191403571Y-198178571D01*
X192475000Y-198321428D02*
X192546428Y-198250000D01*
X192689285Y-198178571D01*
X193046428Y-198178571D01*
X193189285Y-198250000D01*
X193260714Y-198321428D01*
X193332142Y-198464285D01*
X193332142Y-198607142D01*
X193260714Y-198821428D01*
X192403571Y-199678571D01*
X193332142Y-199678571D01*
X194260714Y-198178571D02*
X194403571Y-198178571D01*
X194546428Y-198250000D01*
X194617857Y-198321428D01*
X194689285Y-198464285D01*
X194760714Y-198750000D01*
X194760714Y-199107142D01*
X194689285Y-199392857D01*
X194617857Y-199535714D01*
X194546428Y-199607142D01*
X194403571Y-199678571D01*
X194260714Y-199678571D01*
X194117857Y-199607142D01*
X194046428Y-199535714D01*
X193975000Y-199392857D01*
X193903571Y-199107142D01*
X193903571Y-198750000D01*
X193975000Y-198464285D01*
X194046428Y-198321428D01*
X194117857Y-198250000D01*
X194260714Y-198178571D01*
X195403571Y-199107142D02*
X196546428Y-199107142D01*
X198046428Y-199678571D02*
X197189285Y-199678571D01*
X197617857Y-199678571D02*
X197617857Y-198178571D01*
X197475000Y-198392857D01*
X197332142Y-198535714D01*
X197189285Y-198607142D01*
X198975000Y-198178571D02*
X199117857Y-198178571D01*
X199260714Y-198250000D01*
X199332142Y-198321428D01*
X199403571Y-198464285D01*
X199475000Y-198750000D01*
X199475000Y-199107142D01*
X199403571Y-199392857D01*
X199332142Y-199535714D01*
X199260714Y-199607142D01*
X199117857Y-199678571D01*
X198975000Y-199678571D01*
X198832142Y-199607142D01*
X198760714Y-199535714D01*
X198689285Y-199392857D01*
X198617857Y-199107142D01*
X198617857Y-198750000D01*
X198689285Y-198464285D01*
X198760714Y-198321428D01*
X198832142Y-198250000D01*
X198975000Y-198178571D01*
X200117857Y-199107142D02*
X201260714Y-199107142D01*
X201903571Y-198321428D02*
X201975000Y-198250000D01*
X202117857Y-198178571D01*
X202475000Y-198178571D01*
X202617857Y-198250000D01*
X202689285Y-198321428D01*
X202760714Y-198464285D01*
X202760714Y-198607142D01*
X202689285Y-198821428D01*
X201832142Y-199678571D01*
X202760714Y-199678571D01*
X203260714Y-198178571D02*
X204260714Y-198178571D01*
X203617857Y-199678571D01*
D10*
D11*
X159400000Y-200400000D02*
X267400000Y-200400000D01*
D10*
D11*
X160832142Y-202478571D02*
X160832142Y-200978571D01*
X161689285Y-202478571D02*
X161046428Y-201621428D01*
X161689285Y-200978571D02*
X160832142Y-201835714D01*
X162332142Y-202478571D02*
X162332142Y-201478571D01*
X162332142Y-200978571D02*
X162260714Y-201050000D01*
X162332142Y-201121428D01*
X162403571Y-201050000D01*
X162332142Y-200978571D01*
X162332142Y-201121428D01*
X163903571Y-202335714D02*
X163832142Y-202407142D01*
X163617857Y-202478571D01*
X163475000Y-202478571D01*
X163260714Y-202407142D01*
X163117857Y-202264285D01*
X163046428Y-202121428D01*
X162975000Y-201835714D01*
X162975000Y-201621428D01*
X163046428Y-201335714D01*
X163117857Y-201192857D01*
X163260714Y-201050000D01*
X163475000Y-200978571D01*
X163617857Y-200978571D01*
X163832142Y-201050000D01*
X163903571Y-201121428D01*
X165189285Y-202478571D02*
X165189285Y-201692857D01*
X165117857Y-201550000D01*
X164975000Y-201478571D01*
X164689285Y-201478571D01*
X164546428Y-201550000D01*
X165189285Y-202407142D02*
X165046428Y-202478571D01*
X164689285Y-202478571D01*
X164546428Y-202407142D01*
X164475000Y-202264285D01*
X164475000Y-202121428D01*
X164546428Y-201978571D01*
X164689285Y-201907142D01*
X165046428Y-201907142D01*
X165189285Y-201835714D01*
X166546428Y-202478571D02*
X166546428Y-200978571D01*
X166546428Y-202407142D02*
X166403571Y-202478571D01*
X166117857Y-202478571D01*
X165975000Y-202407142D01*
X165903571Y-202335714D01*
X165832142Y-202192857D01*
X165832142Y-201764285D01*
X165903571Y-201621428D01*
X165975000Y-201550000D01*
X166117857Y-201478571D01*
X166403571Y-201478571D01*
X166546428Y-201550000D01*
X168403571Y-201692857D02*
X168903571Y-201692857D01*
X169117857Y-202478571D02*
X168403571Y-202478571D01*
X168403571Y-200978571D01*
X169117857Y-200978571D01*
X169760714Y-202335714D02*
X169832142Y-202407142D01*
X169760714Y-202478571D01*
X169689285Y-202407142D01*
X169760714Y-202335714D01*
X169760714Y-202478571D01*
X170475000Y-202478571D02*
X170475000Y-200978571D01*
X170832142Y-200978571D01*
X171046428Y-201050000D01*
X171189285Y-201192857D01*
X171260714Y-201335714D01*
X171332142Y-201621428D01*
X171332142Y-201835714D01*
X171260714Y-202121428D01*
X171189285Y-202264285D01*
X171046428Y-202407142D01*
X170832142Y-202478571D01*
X170475000Y-202478571D01*
X171975000Y-202335714D02*
X172046428Y-202407142D01*
X171975000Y-202478571D01*
X171903571Y-202407142D01*
X171975000Y-202335714D01*
X171975000Y-202478571D01*
X172617857Y-202050000D02*
X173332142Y-202050000D01*
X172475000Y-202478571D02*
X172975000Y-200978571D01*
X173475000Y-202478571D01*
X173975000Y-202335714D02*
X174046428Y-202407142D01*
X173975000Y-202478571D01*
X173903571Y-202407142D01*
X173975000Y-202335714D01*
X173975000Y-202478571D01*
X176975000Y-202478571D02*
X176975000Y-200978571D01*
X177117857Y-201907142D02*
X177546428Y-202478571D01*
X177546428Y-201478571D02*
X176975000Y-202050000D01*
X178189285Y-202478571D02*
X178189285Y-201478571D01*
X178189285Y-200978571D02*
X178117857Y-201050000D01*
X178189285Y-201121428D01*
X178260714Y-201050000D01*
X178189285Y-200978571D01*
X178189285Y-201121428D01*
X179546428Y-202407142D02*
X179403571Y-202478571D01*
X179117857Y-202478571D01*
X178975000Y-202407142D01*
X178903571Y-202335714D01*
X178832142Y-202192857D01*
X178832142Y-201764285D01*
X178903571Y-201621428D01*
X178975000Y-201550000D01*
X179117857Y-201478571D01*
X179403571Y-201478571D01*
X179546428Y-201550000D01*
X180832142Y-202478571D02*
X180832142Y-201692857D01*
X180760714Y-201550000D01*
X180617857Y-201478571D01*
X180332142Y-201478571D01*
X180189285Y-201550000D01*
X180832142Y-202407142D02*
X180689285Y-202478571D01*
X180332142Y-202478571D01*
X180189285Y-202407142D01*
X180117857Y-202264285D01*
X180117857Y-202121428D01*
X180189285Y-201978571D01*
X180332142Y-201907142D01*
X180689285Y-201907142D01*
X180832142Y-201835714D01*
X182189285Y-202478571D02*
X182189285Y-200978571D01*
X182189285Y-202407142D02*
X182046428Y-202478571D01*
X181760714Y-202478571D01*
X181617857Y-202407142D01*
X181546428Y-202335714D01*
X181475000Y-202192857D01*
X181475000Y-201764285D01*
X181546428Y-201621428D01*
X181617857Y-201550000D01*
X181760714Y-201478571D01*
X182046428Y-201478571D01*
X182189285Y-201550000D01*
X184475000Y-203050000D02*
X184403571Y-202978571D01*
X184260714Y-202764285D01*
X184189285Y-202621428D01*
X184117857Y-202407142D01*
X184046428Y-202050000D01*
X184046428Y-201764285D01*
X184117857Y-201407142D01*
X184189285Y-201192857D01*
X184260714Y-201050000D01*
X184403571Y-200835714D01*
X184475000Y-200764285D01*
X185760714Y-200978571D02*
X185046428Y-200978571D01*
X184975000Y-201692857D01*
X185046428Y-201621428D01*
X185189285Y-201550000D01*
X185546428Y-201550000D01*
X185689285Y-201621428D01*
X185760714Y-201692857D01*
X185832142Y-201835714D01*
X185832142Y-202192857D01*
X185760714Y-202335714D01*
X185689285Y-202407142D01*
X185546428Y-202478571D01*
X185189285Y-202478571D01*
X185046428Y-202407142D01*
X184975000Y-202335714D01*
X186475000Y-202335714D02*
X186546428Y-202407142D01*
X186475000Y-202478571D01*
X186403571Y-202407142D01*
X186475000Y-202335714D01*
X186475000Y-202478571D01*
X187975000Y-202478571D02*
X187117857Y-202478571D01*
X187546428Y-202478571D02*
X187546428Y-200978571D01*
X187403571Y-201192857D01*
X187260714Y-201335714D01*
X187117857Y-201407142D01*
X188617857Y-202335714D02*
X188689285Y-202407142D01*
X188617857Y-202478571D01*
X188546428Y-202407142D01*
X188617857Y-202335714D01*
X188617857Y-202478571D01*
X189189285Y-200978571D02*
X190189285Y-200978571D01*
X189546428Y-202478571D01*
X190617857Y-203050000D02*
X190689285Y-202978571D01*
X190832142Y-202764285D01*
X190903571Y-202621428D01*
X190975000Y-202407142D01*
X191046428Y-202050000D01*
X191046428Y-201764285D01*
X190975000Y-201407142D01*
X190903571Y-201192857D01*
X190832142Y-201050000D01*
X190689285Y-200835714D01*
X190617857Y-200764285D01*
X191760714Y-201907142D02*
X192903571Y-201907142D01*
X194403571Y-202478571D02*
X193546428Y-202478571D01*
X193975000Y-202478571D02*
X193975000Y-200978571D01*
X193832142Y-201192857D01*
X193689285Y-201335714D01*
X193546428Y-201407142D01*
D10*
D11*
X159400000Y-197400000D02*
X267400000Y-197400000D01*
D10*
D12*
X246809285Y-199678571D02*
X246309285Y-198964285D01*
X245952142Y-199678571D02*
X245952142Y-198178571D01*
X246523571Y-198178571D01*
X246666428Y-198250000D01*
X246737857Y-198321428D01*
X246809285Y-198464285D01*
X246809285Y-198678571D01*
X246737857Y-198821428D01*
X246666428Y-198892857D01*
X246523571Y-198964285D01*
X245952142Y-198964285D01*
X248023571Y-199607142D02*
X247880714Y-199678571D01*
X247595000Y-199678571D01*
X247452142Y-199607142D01*
X247380714Y-199464285D01*
X247380714Y-198892857D01*
X247452142Y-198750000D01*
X247595000Y-198678571D01*
X247880714Y-198678571D01*
X248023571Y-198750000D01*
X248095000Y-198892857D01*
X248095000Y-199035714D01*
X247380714Y-199178571D01*
X248595000Y-198678571D02*
X248952142Y-199678571D01*
X249309285Y-198678571D01*
X249880714Y-199535714D02*
X249952142Y-199607142D01*
X249880714Y-199678571D01*
X249809285Y-199607142D01*
X249880714Y-199535714D01*
X249880714Y-199678571D01*
X249880714Y-198750000D02*
X249952142Y-198821428D01*
X249880714Y-198892857D01*
X249809285Y-198821428D01*
X249880714Y-198750000D01*
X249880714Y-198892857D01*
X252023571Y-198178571D02*
X252166428Y-198178571D01*
X252309285Y-198250000D01*
X252380714Y-198321428D01*
X252452142Y-198464285D01*
X252523571Y-198750000D01*
X252523571Y-199107142D01*
X252452142Y-199392857D01*
X252380714Y-199535714D01*
X252309285Y-199607142D01*
X252166428Y-199678571D01*
X252023571Y-199678571D01*
X251880714Y-199607142D01*
X251809285Y-199535714D01*
X251737857Y-199392857D01*
X251666428Y-199107142D01*
X251666428Y-198750000D01*
X251737857Y-198464285D01*
X251809285Y-198321428D01*
X251880714Y-198250000D01*
X252023571Y-198178571D01*
X253166428Y-199535714D02*
X253237857Y-199607142D01*
X253166428Y-199678571D01*
X253095000Y-199607142D01*
X253166428Y-199535714D01*
X253166428Y-199678571D01*
X254166428Y-198178571D02*
X254309285Y-198178571D01*
X254452142Y-198250000D01*
X254523571Y-198321428D01*
X254595000Y-198464285D01*
X254666428Y-198750000D01*
X254666428Y-199107142D01*
X254595000Y-199392857D01*
X254523571Y-199535714D01*
X254452142Y-199607142D01*
X254309285Y-199678571D01*
X254166428Y-199678571D01*
X254023571Y-199607142D01*
X253952142Y-199535714D01*
X253880714Y-199392857D01*
X253809285Y-199107142D01*
X253809285Y-198750000D01*
X253880714Y-198464285D01*
X253952142Y-198321428D01*
X254023571Y-198250000D01*
X254166428Y-198178571D01*
X255309285Y-199535714D02*
X255380714Y-199607142D01*
X255309285Y-199678571D01*
X255237857Y-199607142D01*
X255309285Y-199535714D01*
X255309285Y-199678571D01*
X256309285Y-198178571D02*
X256452142Y-198178571D01*
X256595000Y-198250000D01*
X256666428Y-198321428D01*
X256737857Y-198464285D01*
X256809285Y-198750000D01*
X256809285Y-199107142D01*
X256737857Y-199392857D01*
X256666428Y-199535714D01*
X256595000Y-199607142D01*
X256452142Y-199678571D01*
X256309285Y-199678571D01*
X256166428Y-199607142D01*
X256095000Y-199535714D01*
X256023571Y-199392857D01*
X255952142Y-199107142D01*
X255952142Y-198750000D01*
X256023571Y-198464285D01*
X256095000Y-198321428D01*
X256166428Y-198250000D01*
X256309285Y-198178571D01*
X258237857Y-199678571D02*
X257380714Y-199678571D01*
X257809285Y-199678571D02*
X257809285Y-198178571D01*
X257666428Y-198392857D01*
X257523571Y-198535714D01*
X257380714Y-198607142D01*
D10*
D11*
X160760714Y-199607142D02*
X160975000Y-199678571D01*
X161332142Y-199678571D01*
X161475000Y-199607142D01*
X161546428Y-199535714D01*
X161617857Y-199392857D01*
X161617857Y-199250000D01*
X161546428Y-199107142D01*
X161475000Y-199035714D01*
X161332142Y-198964285D01*
X161046428Y-198892857D01*
X160903571Y-198821428D01*
X160832142Y-198750000D01*
X160760714Y-198607142D01*
X160760714Y-198464285D01*
X160832142Y-198321428D01*
X160903571Y-198250000D01*
X161046428Y-198178571D01*
X161403571Y-198178571D01*
X161617857Y-198250000D01*
X162260714Y-199678571D02*
X162260714Y-198678571D01*
X162260714Y-198178571D02*
X162189285Y-198250000D01*
X162260714Y-198321428D01*
X162332142Y-198250000D01*
X162260714Y-198178571D01*
X162260714Y-198321428D01*
X162832142Y-198678571D02*
X163617857Y-198678571D01*
X162832142Y-199678571D01*
X163617857Y-199678571D01*
X164760714Y-199607142D02*
X164617857Y-199678571D01*
X164332142Y-199678571D01*
X164189285Y-199607142D01*
X164117857Y-199464285D01*
X164117857Y-198892857D01*
X164189285Y-198750000D01*
X164332142Y-198678571D01*
X164617857Y-198678571D01*
X164760714Y-198750000D01*
X164832142Y-198892857D01*
X164832142Y-199035714D01*
X164117857Y-199178571D01*
X165475000Y-199535714D02*
X165546428Y-199607142D01*
X165475000Y-199678571D01*
X165403571Y-199607142D01*
X165475000Y-199535714D01*
X165475000Y-199678571D01*
X165475000Y-198750000D02*
X165546428Y-198821428D01*
X165475000Y-198892857D01*
X165403571Y-198821428D01*
X165475000Y-198750000D01*
X165475000Y-198892857D01*
X167332142Y-198178571D02*
X167332142Y-199392857D01*
X167403571Y-199535714D01*
X167475000Y-199607142D01*
X167617857Y-199678571D01*
X167903571Y-199678571D01*
X168046428Y-199607142D01*
X168117857Y-199535714D01*
X168189285Y-199392857D01*
X168189285Y-198178571D01*
X168832142Y-199607142D02*
X169046428Y-199678571D01*
X169403571Y-199678571D01*
X169546428Y-199607142D01*
X169617857Y-199535714D01*
X169689285Y-199392857D01*
X169689285Y-199250000D01*
X169617857Y-199107142D01*
X169546428Y-199035714D01*
X169403571Y-198964285D01*
X169117857Y-198892857D01*
X168975000Y-198821428D01*
X168903571Y-198750000D01*
X168832142Y-198607142D01*
X168832142Y-198464285D01*
X168903571Y-198321428D01*
X168975000Y-198250000D01*
X169117857Y-198178571D01*
X169475000Y-198178571D01*
X169689285Y-198250000D01*
X171046428Y-199678571D02*
X170332142Y-199678571D01*
X170332142Y-198178571D01*
X172117857Y-199607142D02*
X171975000Y-199678571D01*
X171689285Y-199678571D01*
X171546428Y-199607142D01*
X171475000Y-199464285D01*
X171475000Y-198892857D01*
X171546428Y-198750000D01*
X171689285Y-198678571D01*
X171975000Y-198678571D01*
X172117857Y-198750000D01*
X172189285Y-198892857D01*
X172189285Y-199035714D01*
X171475000Y-199178571D01*
X172617857Y-198678571D02*
X173189285Y-198678571D01*
X172832142Y-198178571D02*
X172832142Y-199464285D01*
X172903571Y-199607142D01*
X173046428Y-199678571D01*
X173189285Y-199678571D01*
X173475000Y-198678571D02*
X174046428Y-198678571D01*
X173689285Y-198178571D02*
X173689285Y-199464285D01*
X173760714Y-199607142D01*
X173903571Y-199678571D01*
X174046428Y-199678571D01*
X175117857Y-199607142D02*
X174975000Y-199678571D01*
X174689285Y-199678571D01*
X174546428Y-199607142D01*
X174475000Y-199464285D01*
X174475000Y-198892857D01*
X174546428Y-198750000D01*
X174689285Y-198678571D01*
X174975000Y-198678571D01*
X175117857Y-198750000D01*
X175189285Y-198892857D01*
X175189285Y-199035714D01*
X174475000Y-199178571D01*
X175832142Y-199678571D02*
X175832142Y-198678571D01*
X175832142Y-198964285D02*
X175903571Y-198821428D01*
X175975000Y-198750000D01*
X176117857Y-198678571D01*
X176260714Y-198678571D01*
D10*
D11*
X245832142Y-202478571D02*
X245832142Y-200978571D01*
X247189285Y-202478571D02*
X247189285Y-200978571D01*
X247189285Y-202407142D02*
X247046428Y-202478571D01*
X246760714Y-202478571D01*
X246617857Y-202407142D01*
X246546428Y-202335714D01*
X246475000Y-202192857D01*
X246475000Y-201764285D01*
X246546428Y-201621428D01*
X246617857Y-201550000D01*
X246760714Y-201478571D01*
X247046428Y-201478571D01*
X247189285Y-201550000D01*
X247903571Y-202335714D02*
X247975000Y-202407142D01*
X247903571Y-202478571D01*
X247832142Y-202407142D01*
X247903571Y-202335714D01*
X247903571Y-202478571D01*
X247903571Y-201550000D02*
X247975000Y-201621428D01*
X247903571Y-201692857D01*
X247832142Y-201621428D01*
X247903571Y-201550000D01*
X247903571Y-201692857D01*
X250546428Y-202478571D02*
X249689285Y-202478571D01*
X250117857Y-202478571D02*
X250117857Y-200978571D01*
X249975000Y-201192857D01*
X249832142Y-201335714D01*
X249689285Y-201407142D01*
X252260714Y-200907142D02*
X250975000Y-202835714D01*
X253546428Y-202478571D02*
X252689285Y-202478571D01*
X253117857Y-202478571D02*
X253117857Y-200978571D01*
X252975000Y-201192857D01*
X252832142Y-201335714D01*
X252689285Y-201407142D01*
D10*
D11*
X159400000Y-193400000D02*
X267400000Y-193400000D01*
D10*
D13*
X161112380Y-194104761D02*
X162255238Y-194104761D01*
X161433809Y-196104761D02*
X161683809Y-194104761D01*
X162671904Y-196104761D02*
X162838571Y-194771428D01*
X162921904Y-194104761D02*
X162814761Y-194200000D01*
X162898095Y-194295238D01*
X163005238Y-194200000D01*
X162921904Y-194104761D01*
X162898095Y-194295238D01*
X163505238Y-194771428D02*
X164267142Y-194771428D01*
X163874285Y-194104761D02*
X163660000Y-195819047D01*
X163731428Y-196009523D01*
X163910000Y-196104761D01*
X164100476Y-196104761D01*
X165052857Y-196104761D02*
X164874285Y-196009523D01*
X164802857Y-195819047D01*
X165017142Y-194104761D01*
X166588571Y-196009523D02*
X166386190Y-196104761D01*
X166005238Y-196104761D01*
X165826666Y-196009523D01*
X165755238Y-195819047D01*
X165850476Y-195057142D01*
X165969523Y-194866666D01*
X166171904Y-194771428D01*
X166552857Y-194771428D01*
X166731428Y-194866666D01*
X166802857Y-195057142D01*
X166779047Y-195247619D01*
X165802857Y-195438095D01*
X167552857Y-195914285D02*
X167636190Y-196009523D01*
X167529047Y-196104761D01*
X167445714Y-196009523D01*
X167552857Y-195914285D01*
X167529047Y-196104761D01*
X167683809Y-194866666D02*
X167767142Y-194961904D01*
X167660000Y-195057142D01*
X167576666Y-194961904D01*
X167683809Y-194866666D01*
X167660000Y-195057142D01*
X171171904Y-195914285D02*
X171064761Y-196009523D01*
X170767142Y-196104761D01*
X170576666Y-196104761D01*
X170302857Y-196009523D01*
X170136190Y-195819047D01*
X170064761Y-195628571D01*
X170017142Y-195247619D01*
X170052857Y-194961904D01*
X170195714Y-194580952D01*
X170314761Y-194390476D01*
X170529047Y-194200000D01*
X170826666Y-194104761D01*
X171017142Y-194104761D01*
X171290952Y-194200000D01*
X171374285Y-194295238D01*
X171981428Y-195533333D02*
X172933809Y-195533333D01*
X171719523Y-196104761D02*
X172636190Y-194104761D01*
X173052857Y-196104761D01*
X173719523Y-196104761D02*
X173969523Y-194104761D01*
X174862380Y-196104761D01*
X175112380Y-194104761D01*
X175981428Y-194771428D02*
X175814761Y-196104761D01*
X175957619Y-194961904D02*
X176064761Y-194866666D01*
X176267142Y-194771428D01*
X176552857Y-194771428D01*
X176731428Y-194866666D01*
X176802857Y-195057142D01*
X176671904Y-196104761D01*
X178398095Y-196009523D02*
X178195714Y-196104761D01*
X177814761Y-196104761D01*
X177636190Y-196009523D01*
X177564761Y-195819047D01*
X177660000Y-195057142D01*
X177779047Y-194866666D01*
X177981428Y-194771428D01*
X178362380Y-194771428D01*
X178540952Y-194866666D01*
X178612380Y-195057142D01*
X178588571Y-195247619D01*
X177612380Y-195438095D01*
X180207619Y-196009523D02*
X180005238Y-196104761D01*
X179624285Y-196104761D01*
X179445714Y-196009523D01*
X179362380Y-195914285D01*
X179290952Y-195723809D01*
X179362380Y-195152380D01*
X179481428Y-194961904D01*
X179588571Y-194866666D01*
X179790952Y-194771428D01*
X180171904Y-194771428D01*
X180350476Y-194866666D01*
X180933809Y-194771428D02*
X181695714Y-194771428D01*
X181302857Y-194104761D02*
X181088571Y-195819047D01*
X181160000Y-196009523D01*
X181338571Y-196104761D01*
X181529047Y-196104761D01*
X184862380Y-196104761D02*
X184314761Y-195152380D01*
X183719523Y-196104761D02*
X183969523Y-194104761D01*
X184731428Y-194104761D01*
X184910000Y-194200000D01*
X184993333Y-194295238D01*
X185064761Y-194485714D01*
X185029047Y-194771428D01*
X184910000Y-194961904D01*
X184802857Y-195057142D01*
X184600476Y-195152380D01*
X183838571Y-195152380D01*
X186493333Y-196009523D02*
X186290952Y-196104761D01*
X185910000Y-196104761D01*
X185731428Y-196009523D01*
X185660000Y-195819047D01*
X185755238Y-195057142D01*
X185874285Y-194866666D01*
X186076666Y-194771428D01*
X186457619Y-194771428D01*
X186636190Y-194866666D01*
X186707619Y-195057142D01*
X186683809Y-195247619D01*
X185707619Y-195438095D01*
X188290952Y-196104761D02*
X188421904Y-195057142D01*
X188350476Y-194866666D01*
X188171904Y-194771428D01*
X187790952Y-194771428D01*
X187588571Y-194866666D01*
X188302857Y-196009523D02*
X188100476Y-196104761D01*
X187624285Y-196104761D01*
X187445714Y-196009523D01*
X187374285Y-195819047D01*
X187398095Y-195628571D01*
X187517142Y-195438095D01*
X187719523Y-195342857D01*
X188195714Y-195342857D01*
X188398095Y-195247619D01*
X190100476Y-196104761D02*
X190350476Y-194104761D01*
X190112380Y-196009523D02*
X189910000Y-196104761D01*
X189529047Y-196104761D01*
X189350476Y-196009523D01*
X189267142Y-195914285D01*
X189195714Y-195723809D01*
X189267142Y-195152380D01*
X189386190Y-194961904D01*
X189493333Y-194866666D01*
X189695714Y-194771428D01*
X190076666Y-194771428D01*
X190255238Y-194866666D01*
X191826666Y-196009523D02*
X191624285Y-196104761D01*
X191243333Y-196104761D01*
X191064761Y-196009523D01*
X190993333Y-195819047D01*
X191088571Y-195057142D01*
X191207619Y-194866666D01*
X191410000Y-194771428D01*
X191790952Y-194771428D01*
X191969523Y-194866666D01*
X192040952Y-195057142D01*
X192017142Y-195247619D01*
X191040952Y-195438095D01*
X192767142Y-196104761D02*
X192933809Y-194771428D01*
X192886190Y-195152380D02*
X193005238Y-194961904D01*
X193112380Y-194866666D01*
X193314761Y-194771428D01*
X193505238Y-194771428D01*
X195529047Y-196104761D02*
X195779047Y-194104761D01*
X196540952Y-194104761D01*
X196719523Y-194200000D01*
X196802857Y-194295238D01*
X196874285Y-194485714D01*
X196838571Y-194771428D01*
X196719523Y-194961904D01*
X196612380Y-195057142D01*
X196410000Y-195152380D01*
X195648095Y-195152380D01*
X198695714Y-195914285D02*
X198588571Y-196009523D01*
X198290952Y-196104761D01*
X198100476Y-196104761D01*
X197826666Y-196009523D01*
X197660000Y-195819047D01*
X197588571Y-195628571D01*
X197540952Y-195247619D01*
X197576666Y-194961904D01*
X197719523Y-194580952D01*
X197838571Y-194390476D01*
X198052857Y-194200000D01*
X198350476Y-194104761D01*
X198540952Y-194104761D01*
X198814761Y-194200000D01*
X198898095Y-194295238D01*
X200326666Y-195057142D02*
X200600476Y-195152380D01*
X200683809Y-195247619D01*
X200755238Y-195438095D01*
X200719523Y-195723809D01*
X200600476Y-195914285D01*
X200493333Y-196009523D01*
X200290952Y-196104761D01*
X199529047Y-196104761D01*
X199779047Y-194104761D01*
X200445714Y-194104761D01*
X200624285Y-194200000D01*
X200707619Y-194295238D01*
X200779047Y-194485714D01*
X200755238Y-194676190D01*
X200636190Y-194866666D01*
X200529047Y-194961904D01*
X200326666Y-195057142D01*
X199660000Y-195057142D01*
X204005238Y-196104761D02*
X203052857Y-196104761D01*
X203302857Y-194104761D01*
X205529047Y-196104761D02*
X205660000Y-195057142D01*
X205588571Y-194866666D01*
X205410000Y-194771428D01*
X205029047Y-194771428D01*
X204826666Y-194866666D01*
X205540952Y-196009523D02*
X205338571Y-196104761D01*
X204862380Y-196104761D01*
X204683809Y-196009523D01*
X204612380Y-195819047D01*
X204636190Y-195628571D01*
X204755238Y-195438095D01*
X204957619Y-195342857D01*
X205433809Y-195342857D01*
X205636190Y-195247619D01*
X206457619Y-194771428D02*
X206767142Y-196104761D01*
X207410000Y-194771428D02*
X206767142Y-196104761D01*
X206517142Y-196580952D01*
X206410000Y-196676190D01*
X206207619Y-196771428D01*
X208290952Y-196104761D02*
X208112380Y-196009523D01*
X208029047Y-195914285D01*
X207957619Y-195723809D01*
X208029047Y-195152380D01*
X208148095Y-194961904D01*
X208255238Y-194866666D01*
X208457619Y-194771428D01*
X208743333Y-194771428D01*
X208921904Y-194866666D01*
X209005238Y-194961904D01*
X209076666Y-195152380D01*
X209005238Y-195723809D01*
X208886190Y-195914285D01*
X208779047Y-196009523D01*
X208576666Y-196104761D01*
X208290952Y-196104761D01*
X210838571Y-194771428D02*
X210671904Y-196104761D01*
X209981428Y-194771428D02*
X209850476Y-195819047D01*
X209921904Y-196009523D01*
X210100476Y-196104761D01*
X210386190Y-196104761D01*
X210588571Y-196009523D01*
X210695714Y-195914285D01*
X211505238Y-194771428D02*
X212267142Y-194771428D01*
X211874285Y-194104761D02*
X211659999Y-195819047D01*
X211731428Y-196009523D01*
X211909999Y-196104761D01*
X212100476Y-196104761D01*
D10*
D11*
X161332142Y-191492857D02*
X160832142Y-191492857D01*
X160832142Y-192278571D02*
X160832142Y-190778571D01*
X161546428Y-190778571D01*
X162117857Y-192278571D02*
X162117857Y-191278571D01*
X162117857Y-190778571D02*
X162046428Y-190850000D01*
X162117857Y-190921428D01*
X162189285Y-190850000D01*
X162117857Y-190778571D01*
X162117857Y-190921428D01*
X163046428Y-192278571D02*
X162903571Y-192207142D01*
X162832142Y-192064285D01*
X162832142Y-190778571D01*
X164189285Y-192207142D02*
X164046428Y-192278571D01*
X163760714Y-192278571D01*
X163617857Y-192207142D01*
X163546428Y-192064285D01*
X163546428Y-191492857D01*
X163617857Y-191350000D01*
X163760714Y-191278571D01*
X164046428Y-191278571D01*
X164189285Y-191350000D01*
X164260714Y-191492857D01*
X164260714Y-191635714D01*
X163546428Y-191778571D01*
X164903571Y-192135714D02*
X164975000Y-192207142D01*
X164903571Y-192278571D01*
X164832142Y-192207142D01*
X164903571Y-192135714D01*
X164903571Y-192278571D01*
X164903571Y-191350000D02*
X164975000Y-191421428D01*
X164903571Y-191492857D01*
X164832142Y-191421428D01*
X164903571Y-191350000D01*
X164903571Y-191492857D01*
X167617857Y-192278571D02*
X167117857Y-191564285D01*
X166760714Y-192278571D02*
X166760714Y-190778571D01*
X167332142Y-190778571D01*
X167475000Y-190850000D01*
X167546428Y-190921428D01*
X167617857Y-191064285D01*
X167617857Y-191278571D01*
X167546428Y-191421428D01*
X167475000Y-191492857D01*
X167332142Y-191564285D01*
X166760714Y-191564285D01*
X168832142Y-192207142D02*
X168689285Y-192278571D01*
X168403571Y-192278571D01*
X168260714Y-192207142D01*
X168189285Y-192064285D01*
X168189285Y-191492857D01*
X168260714Y-191350000D01*
X168403571Y-191278571D01*
X168689285Y-191278571D01*
X168832142Y-191350000D01*
X168903571Y-191492857D01*
X168903571Y-191635714D01*
X168189285Y-191778571D01*
X170189285Y-192278571D02*
X170189285Y-191492857D01*
X170117857Y-191350000D01*
X169975000Y-191278571D01*
X169689285Y-191278571D01*
X169546428Y-191350000D01*
X170189285Y-192207142D02*
X170046428Y-192278571D01*
X169689285Y-192278571D01*
X169546428Y-192207142D01*
X169475000Y-192064285D01*
X169475000Y-191921428D01*
X169546428Y-191778571D01*
X169689285Y-191707142D01*
X170046428Y-191707142D01*
X170189285Y-191635714D01*
X171546428Y-192278571D02*
X171546428Y-190778571D01*
X171546428Y-192207142D02*
X171403571Y-192278571D01*
X171117857Y-192278571D01*
X170975000Y-192207142D01*
X170903571Y-192135714D01*
X170832142Y-191992857D01*
X170832142Y-191564285D01*
X170903571Y-191421428D01*
X170975000Y-191350000D01*
X171117857Y-191278571D01*
X171403571Y-191278571D01*
X171546428Y-191350000D01*
X172832142Y-192207142D02*
X172689285Y-192278571D01*
X172403571Y-192278571D01*
X172260714Y-192207142D01*
X172189285Y-192064285D01*
X172189285Y-191492857D01*
X172260714Y-191350000D01*
X172403571Y-191278571D01*
X172689285Y-191278571D01*
X172832142Y-191350000D01*
X172903571Y-191492857D01*
X172903571Y-191635714D01*
X172189285Y-191778571D01*
X173546428Y-192278571D02*
X173546428Y-191278571D01*
X173546428Y-191564285D02*
X173617857Y-191421428D01*
X173689285Y-191350000D01*
X173832142Y-191278571D01*
X173975000Y-191278571D01*
X174475000Y-192135714D02*
X174546428Y-192207142D01*
X174475000Y-192278571D01*
X174403571Y-192207142D01*
X174475000Y-192135714D01*
X174475000Y-192278571D01*
X175189285Y-192278571D02*
X175189285Y-190778571D01*
X175332142Y-191707142D02*
X175760714Y-192278571D01*
X175760714Y-191278571D02*
X175189285Y-191850000D01*
X176403571Y-192278571D02*
X176403571Y-191278571D01*
X176403571Y-190778571D02*
X176332142Y-190850000D01*
X176403571Y-190921428D01*
X176475000Y-190850000D01*
X176403571Y-190778571D01*
X176403571Y-190921428D01*
X177760714Y-192207142D02*
X177617857Y-192278571D01*
X177332142Y-192278571D01*
X177189285Y-192207142D01*
X177117857Y-192135714D01*
X177046428Y-191992857D01*
X177046428Y-191564285D01*
X177117857Y-191421428D01*
X177189285Y-191350000D01*
X177332142Y-191278571D01*
X177617857Y-191278571D01*
X177760714Y-191350000D01*
X179046428Y-192278571D02*
X179046428Y-191492857D01*
X178975000Y-191350000D01*
X178832142Y-191278571D01*
X178546428Y-191278571D01*
X178403571Y-191350000D01*
X179046428Y-192207142D02*
X178903571Y-192278571D01*
X178546428Y-192278571D01*
X178403571Y-192207142D01*
X178332142Y-192064285D01*
X178332142Y-191921428D01*
X178403571Y-191778571D01*
X178546428Y-191707142D01*
X178903571Y-191707142D01*
X179046428Y-191635714D01*
X180403571Y-192278571D02*
X180403571Y-190778571D01*
X180403571Y-192207142D02*
X180260714Y-192278571D01*
X179975000Y-192278571D01*
X179832142Y-192207142D01*
X179760714Y-192135714D01*
X179689285Y-191992857D01*
X179689285Y-191564285D01*
X179760714Y-191421428D01*
X179832142Y-191350000D01*
X179975000Y-191278571D01*
X180260714Y-191278571D01*
X180403571Y-191350000D01*
X180760714Y-192421428D02*
X181903571Y-192421428D01*
X182260714Y-191278571D02*
X182260714Y-192778571D01*
X182260714Y-191350000D02*
X182403571Y-191278571D01*
X182689285Y-191278571D01*
X182832142Y-191350000D01*
X182903571Y-191421428D01*
X182975000Y-191564285D01*
X182975000Y-191992857D01*
X182903571Y-192135714D01*
X182832142Y-192207142D01*
X182689285Y-192278571D01*
X182403571Y-192278571D01*
X182260714Y-192207142D01*
X184260714Y-192207142D02*
X184117857Y-192278571D01*
X183832142Y-192278571D01*
X183689285Y-192207142D01*
X183617857Y-192135714D01*
X183546428Y-191992857D01*
X183546428Y-191564285D01*
X183617857Y-191421428D01*
X183689285Y-191350000D01*
X183832142Y-191278571D01*
X184117857Y-191278571D01*
X184260714Y-191350000D01*
X184903571Y-192278571D02*
X184903571Y-190778571D01*
X184903571Y-191350000D02*
X185046428Y-191278571D01*
X185332142Y-191278571D01*
X185475000Y-191350000D01*
X185546428Y-191421428D01*
X185617857Y-191564285D01*
X185617857Y-191992857D01*
X185546428Y-192135714D01*
X185475000Y-192207142D01*
X185332142Y-192278571D01*
X185046428Y-192278571D01*
X184903571Y-192207142D01*
D10*
D11*
X159400000Y-187400000D02*
X267400000Y-187400000D01*
D10*
D11*
X160760714Y-189507142D02*
X160975000Y-189578571D01*
X161332142Y-189578571D01*
X161475000Y-189507142D01*
X161546428Y-189435714D01*
X161617857Y-189292857D01*
X161617857Y-189150000D01*
X161546428Y-189007142D01*
X161475000Y-188935714D01*
X161332142Y-188864285D01*
X161046428Y-188792857D01*
X160903571Y-188721428D01*
X160832142Y-188650000D01*
X160760714Y-188507142D01*
X160760714Y-188364285D01*
X160832142Y-188221428D01*
X160903571Y-188150000D01*
X161046428Y-188078571D01*
X161403571Y-188078571D01*
X161617857Y-188150000D01*
X162260714Y-189578571D02*
X162260714Y-188078571D01*
X162903571Y-189578571D02*
X162903571Y-188792857D01*
X162832142Y-188650000D01*
X162689285Y-188578571D01*
X162475000Y-188578571D01*
X162332142Y-188650000D01*
X162260714Y-188721428D01*
X164189285Y-189507142D02*
X164046428Y-189578571D01*
X163760714Y-189578571D01*
X163617857Y-189507142D01*
X163546428Y-189364285D01*
X163546428Y-188792857D01*
X163617857Y-188650000D01*
X163760714Y-188578571D01*
X164046428Y-188578571D01*
X164189285Y-188650000D01*
X164260714Y-188792857D01*
X164260714Y-188935714D01*
X163546428Y-189078571D01*
X165475000Y-189507142D02*
X165332142Y-189578571D01*
X165046428Y-189578571D01*
X164903571Y-189507142D01*
X164832142Y-189364285D01*
X164832142Y-188792857D01*
X164903571Y-188650000D01*
X165046428Y-188578571D01*
X165332142Y-188578571D01*
X165475000Y-188650000D01*
X165546428Y-188792857D01*
X165546428Y-188935714D01*
X164832142Y-189078571D01*
X165975000Y-188578571D02*
X166546428Y-188578571D01*
X166189285Y-188078571D02*
X166189285Y-189364285D01*
X166260714Y-189507142D01*
X166403571Y-189578571D01*
X166546428Y-189578571D01*
X167046428Y-189435714D02*
X167117857Y-189507142D01*
X167046428Y-189578571D01*
X166975000Y-189507142D01*
X167046428Y-189435714D01*
X167046428Y-189578571D01*
X167046428Y-188650000D02*
X167117857Y-188721428D01*
X167046428Y-188792857D01*
X166975000Y-188721428D01*
X167046428Y-188650000D01*
X167046428Y-188792857D01*
D10*
D12*
X161809285Y-186435714D02*
X161737857Y-186507142D01*
X161523571Y-186578571D01*
X161380714Y-186578571D01*
X161166428Y-186507142D01*
X161023571Y-186364285D01*
X160952142Y-186221428D01*
X160880714Y-185935714D01*
X160880714Y-185721428D01*
X160952142Y-185435714D01*
X161023571Y-185292857D01*
X161166428Y-185150000D01*
X161380714Y-185078571D01*
X161523571Y-185078571D01*
X161737857Y-185150000D01*
X161809285Y-185221428D01*
X162380714Y-186150000D02*
X163095000Y-186150000D01*
X162237857Y-186578571D02*
X162737857Y-185078571D01*
X163237857Y-186578571D01*
X163737857Y-186578571D02*
X163737857Y-185078571D01*
X164595000Y-186578571D01*
X164595000Y-185078571D01*
X165095000Y-185578571D02*
X165666428Y-185578571D01*
X165309285Y-185078571D02*
X165309285Y-186364285D01*
X165380714Y-186507142D01*
X165523571Y-186578571D01*
X165666428Y-186578571D01*
X166737857Y-186507142D02*
X166595000Y-186578571D01*
X166309285Y-186578571D01*
X166166428Y-186507142D01*
X166095000Y-186364285D01*
X166095000Y-185792857D01*
X166166428Y-185650000D01*
X166309285Y-185578571D01*
X166595000Y-185578571D01*
X166737857Y-185650000D01*
X166809285Y-185792857D01*
X166809285Y-185935714D01*
X166095000Y-186078571D01*
X168095000Y-186507142D02*
X167952142Y-186578571D01*
X167666428Y-186578571D01*
X167523571Y-186507142D01*
X167452142Y-186435714D01*
X167380714Y-186292857D01*
X167380714Y-185864285D01*
X167452142Y-185721428D01*
X167523571Y-185650000D01*
X167666428Y-185578571D01*
X167952142Y-185578571D01*
X168095000Y-185650000D01*
X168737857Y-186578571D02*
X168737857Y-185078571D01*
X169380714Y-186578571D02*
X169380714Y-185792857D01*
X169309285Y-185650000D01*
X169166428Y-185578571D01*
X168952142Y-185578571D01*
X168809285Y-185650000D01*
X168737857Y-185721428D01*
D10*
D11*
X161689285Y-183435714D02*
X161617857Y-183507142D01*
X161403571Y-183578571D01*
X161260714Y-183578571D01*
X161046428Y-183507142D01*
X160903571Y-183364285D01*
X160832142Y-183221428D01*
X160760714Y-182935714D01*
X160760714Y-182721428D01*
X160832142Y-182435714D01*
X160903571Y-182292857D01*
X161046428Y-182150000D01*
X161260714Y-182078571D01*
X161403571Y-182078571D01*
X161617857Y-182150000D01*
X161689285Y-182221428D01*
X162332142Y-183578571D02*
X162332142Y-182578571D01*
X162332142Y-182864285D02*
X162403571Y-182721428D01*
X162475000Y-182650000D01*
X162617857Y-182578571D01*
X162760714Y-182578571D01*
X163832142Y-183507142D02*
X163689285Y-183578571D01*
X163403571Y-183578571D01*
X163260714Y-183507142D01*
X163189285Y-183364285D01*
X163189285Y-182792857D01*
X163260714Y-182650000D01*
X163403571Y-182578571D01*
X163689285Y-182578571D01*
X163832142Y-182650000D01*
X163903571Y-182792857D01*
X163903571Y-182935714D01*
X163189285Y-183078571D01*
X165189285Y-183578571D02*
X165189285Y-182792857D01*
X165117857Y-182650000D01*
X164975000Y-182578571D01*
X164689285Y-182578571D01*
X164546428Y-182650000D01*
X165189285Y-183507142D02*
X165046428Y-183578571D01*
X164689285Y-183578571D01*
X164546428Y-183507142D01*
X164475000Y-183364285D01*
X164475000Y-183221428D01*
X164546428Y-183078571D01*
X164689285Y-183007142D01*
X165046428Y-183007142D01*
X165189285Y-182935714D01*
X165689285Y-182578571D02*
X166260714Y-182578571D01*
X165903571Y-182078571D02*
X165903571Y-183364285D01*
X165975000Y-183507142D01*
X166117857Y-183578571D01*
X166260714Y-183578571D01*
X167332142Y-183507142D02*
X167189285Y-183578571D01*
X166903571Y-183578571D01*
X166760714Y-183507142D01*
X166689285Y-183364285D01*
X166689285Y-182792857D01*
X166760714Y-182650000D01*
X166903571Y-182578571D01*
X167189285Y-182578571D01*
X167332142Y-182650000D01*
X167403571Y-182792857D01*
X167403571Y-182935714D01*
X166689285Y-183078571D01*
X168689285Y-183578571D02*
X168689285Y-182078571D01*
X168689285Y-183507142D02*
X168546428Y-183578571D01*
X168260714Y-183578571D01*
X168117857Y-183507142D01*
X168046428Y-183435714D01*
X167975000Y-183292857D01*
X167975000Y-182864285D01*
X168046428Y-182721428D01*
X168117857Y-182650000D01*
X168260714Y-182578571D01*
X168546428Y-182578571D01*
X168689285Y-182650000D01*
X170546428Y-183578571D02*
X170546428Y-182078571D01*
X170546428Y-182650000D02*
X170689285Y-182578571D01*
X170975000Y-182578571D01*
X171117857Y-182650000D01*
X171189285Y-182721428D01*
X171260714Y-182864285D01*
X171260714Y-183292857D01*
X171189285Y-183435714D01*
X171117857Y-183507142D01*
X170975000Y-183578571D01*
X170689285Y-183578571D01*
X170546428Y-183507142D01*
X171760714Y-182578571D02*
X172117857Y-183578571D01*
X172475000Y-182578571D02*
X172117857Y-183578571D01*
X171975000Y-183935714D01*
X171903571Y-184007142D01*
X171760714Y-184078571D01*
X175046428Y-183435714D02*
X174975000Y-183507142D01*
X174760714Y-183578571D01*
X174617857Y-183578571D01*
X174403571Y-183507142D01*
X174260714Y-183364285D01*
X174189285Y-183221428D01*
X174117857Y-182935714D01*
X174117857Y-182721428D01*
X174189285Y-182435714D01*
X174260714Y-182292857D01*
X174403571Y-182150000D01*
X174617857Y-182078571D01*
X174760714Y-182078571D01*
X174975000Y-182150000D01*
X175046428Y-182221428D01*
X175689285Y-183578571D02*
X175689285Y-182078571D01*
X176332142Y-183578571D02*
X176332142Y-182792857D01*
X176260714Y-182650000D01*
X176117857Y-182578571D01*
X175903571Y-182578571D01*
X175760714Y-182650000D01*
X175689285Y-182721428D01*
X177260714Y-183578571D02*
X177117857Y-183507142D01*
X177046428Y-183435714D01*
X176975000Y-183292857D01*
X176975000Y-182864285D01*
X177046428Y-182721428D01*
X177117857Y-182650000D01*
X177260714Y-182578571D01*
X177475000Y-182578571D01*
X177617857Y-182650000D01*
X177689285Y-182721428D01*
X177760714Y-182864285D01*
X177760714Y-183292857D01*
X177689285Y-183435714D01*
X177617857Y-183507142D01*
X177475000Y-183578571D01*
X177260714Y-183578571D01*
X178617857Y-183578571D02*
X178475000Y-183507142D01*
X178403571Y-183435714D01*
X178332142Y-183292857D01*
X178332142Y-182864285D01*
X178403571Y-182721428D01*
X178475000Y-182650000D01*
X178617857Y-182578571D01*
X178832142Y-182578571D01*
X178975000Y-182650000D01*
X179046428Y-182721428D01*
X179117857Y-182864285D01*
X179117857Y-183292857D01*
X179046428Y-183435714D01*
X178975000Y-183507142D01*
X178832142Y-183578571D01*
X178617857Y-183578571D01*
X179760714Y-182578571D02*
X179760714Y-183578571D01*
X179760714Y-182721428D02*
X179832142Y-182650000D01*
X179975000Y-182578571D01*
X180189285Y-182578571D01*
X180332142Y-182650000D01*
X180403571Y-182792857D01*
X180403571Y-183578571D01*
X181760714Y-182578571D02*
X181760714Y-183792857D01*
X181689285Y-183935714D01*
X181617857Y-184007142D01*
X181475000Y-184078571D01*
X181260714Y-184078571D01*
X181117857Y-184007142D01*
X181760714Y-183507142D02*
X181617857Y-183578571D01*
X181332142Y-183578571D01*
X181189285Y-183507142D01*
X181117857Y-183435714D01*
X181046428Y-183292857D01*
X181046428Y-182864285D01*
X181117857Y-182721428D01*
X181189285Y-182650000D01*
X181332142Y-182578571D01*
X181617857Y-182578571D01*
X181760714Y-182650000D01*
X184046428Y-182078571D02*
X184046428Y-183150000D01*
X183975000Y-183364285D01*
X183832142Y-183507142D01*
X183617857Y-183578571D01*
X183475000Y-183578571D01*
X184760714Y-183578571D02*
X184760714Y-182578571D01*
X184760714Y-182078571D02*
X184689285Y-182150000D01*
X184760714Y-182221428D01*
X184832142Y-182150000D01*
X184760714Y-182078571D01*
X184760714Y-182221428D01*
X185475000Y-182578571D02*
X185475000Y-183578571D01*
X185475000Y-182721428D02*
X185546428Y-182650000D01*
X185689285Y-182578571D01*
X185903571Y-182578571D01*
X186046428Y-182650000D01*
X186117857Y-182792857D01*
X186117857Y-183578571D01*
X187975000Y-183578571D02*
X187975000Y-182078571D01*
X188832142Y-183578571D01*
X188832142Y-182078571D01*
X190189285Y-182578571D02*
X190189285Y-183792857D01*
X190117857Y-183935714D01*
X190046428Y-184007142D01*
X189903571Y-184078571D01*
X189689285Y-184078571D01*
X189546428Y-184007142D01*
X190189285Y-183507142D02*
X190046428Y-183578571D01*
X189760714Y-183578571D01*
X189617857Y-183507142D01*
X189546428Y-183435714D01*
X189475000Y-183292857D01*
X189475000Y-182864285D01*
X189546428Y-182721428D01*
X189617857Y-182650000D01*
X189760714Y-182578571D01*
X190046428Y-182578571D01*
X190189285Y-182650000D01*
X192403571Y-184078571D02*
X192403571Y-181935714D01*
X194617857Y-182578571D02*
X194617857Y-183864285D01*
X194546428Y-184007142D01*
X194403571Y-184078571D01*
X194332142Y-184078571D01*
X194617857Y-182078571D02*
X194546428Y-182150000D01*
X194617857Y-182221428D01*
X194689285Y-182150000D01*
X194617857Y-182078571D01*
X194617857Y-182221428D01*
X195332142Y-183578571D02*
X195332142Y-182578571D01*
X195332142Y-182078571D02*
X195260714Y-182150000D01*
X195332142Y-182221428D01*
X195403571Y-182150000D01*
X195332142Y-182078571D01*
X195332142Y-182221428D01*
X196046428Y-182578571D02*
X196046428Y-183578571D01*
X196046428Y-182721428D02*
X196117857Y-182650000D01*
X196260714Y-182578571D01*
X196475000Y-182578571D01*
X196617857Y-182650000D01*
X196689285Y-182792857D01*
X196689285Y-183578571D01*
X197617857Y-182721428D02*
X197475000Y-182650000D01*
X197403571Y-182578571D01*
X197332142Y-182435714D01*
X197332142Y-182364285D01*
X197403571Y-182221428D01*
X197475000Y-182150000D01*
X197617857Y-182078571D01*
X197903571Y-182078571D01*
X198046428Y-182150000D01*
X198117857Y-182221428D01*
X198189285Y-182364285D01*
X198189285Y-182435714D01*
X198117857Y-182578571D01*
X198046428Y-182650000D01*
X197903571Y-182721428D01*
X197617857Y-182721428D01*
X197475000Y-182792857D01*
X197403571Y-182864285D01*
X197332142Y-183007142D01*
X197332142Y-183292857D01*
X197403571Y-183435714D01*
X197475000Y-183507142D01*
X197617857Y-183578571D01*
X197903571Y-183578571D01*
X198046428Y-183507142D01*
X198117857Y-183435714D01*
X198189285Y-183292857D01*
X198189285Y-183007142D01*
X198117857Y-182864285D01*
X198046428Y-182792857D01*
X197903571Y-182721428D01*
X198689285Y-182078571D02*
X199617857Y-182078571D01*
X199117857Y-182650000D01*
X199332142Y-182650000D01*
X199475000Y-182721428D01*
X199546428Y-182792857D01*
X199617857Y-182935714D01*
X199617857Y-183292857D01*
X199546428Y-183435714D01*
X199475000Y-183507142D01*
X199332142Y-183578571D01*
X198903571Y-183578571D01*
X198760714Y-183507142D01*
X198689285Y-183435714D01*
X200475000Y-182721428D02*
X200332142Y-182650000D01*
X200260714Y-182578571D01*
X200189285Y-182435714D01*
X200189285Y-182364285D01*
X200260714Y-182221428D01*
X200332142Y-182150000D01*
X200475000Y-182078571D01*
X200760714Y-182078571D01*
X200903571Y-182150000D01*
X200975000Y-182221428D01*
X201046428Y-182364285D01*
X201046428Y-182435714D01*
X200975000Y-182578571D01*
X200903571Y-182650000D01*
X200760714Y-182721428D01*
X200475000Y-182721428D01*
X200332142Y-182792857D01*
X200260714Y-182864285D01*
X200189285Y-183007142D01*
X200189285Y-183292857D01*
X200260714Y-183435714D01*
X200332142Y-183507142D01*
X200475000Y-183578571D01*
X200760714Y-183578571D01*
X200903571Y-183507142D01*
X200975000Y-183435714D01*
X201046428Y-183292857D01*
X201046428Y-183007142D01*
X200975000Y-182864285D01*
X200903571Y-182792857D01*
X200760714Y-182721428D01*
X201546428Y-182078571D02*
X202475000Y-182078571D01*
X201975000Y-182650000D01*
X202189285Y-182650000D01*
X202332142Y-182721428D01*
X202403571Y-182792857D01*
X202475000Y-182935714D01*
X202475000Y-183292857D01*
X202403571Y-183435714D01*
X202332142Y-183507142D01*
X202189285Y-183578571D01*
X201760714Y-183578571D01*
X201617857Y-183507142D01*
X201546428Y-183435714D01*
X204046428Y-182864285D02*
X203975000Y-182792857D01*
X203832142Y-182721428D01*
X203689285Y-182721428D01*
X203546428Y-182792857D01*
X203475000Y-182864285D01*
X203403571Y-183007142D01*
X203403571Y-183150000D01*
X203475000Y-183292857D01*
X203546428Y-183364285D01*
X203689285Y-183435714D01*
X203832142Y-183435714D01*
X203975000Y-183364285D01*
X204046428Y-183292857D01*
X204046428Y-182721428D02*
X204046428Y-183292857D01*
X204117857Y-183364285D01*
X204189285Y-183364285D01*
X204332142Y-183292857D01*
X204403571Y-183150000D01*
X204403571Y-182792857D01*
X204260714Y-182578571D01*
X204046428Y-182435714D01*
X203760714Y-182364285D01*
X203475000Y-182435714D01*
X203260714Y-182578571D01*
X203117857Y-182792857D01*
X203046428Y-183078571D01*
X203117857Y-183364285D01*
X203260714Y-183578571D01*
X203475000Y-183721428D01*
X203760714Y-183792857D01*
X204046428Y-183721428D01*
X204260714Y-183578571D01*
X205689285Y-182578571D02*
X205689285Y-183792857D01*
X205617857Y-183935714D01*
X205546428Y-184007142D01*
X205403571Y-184078571D01*
X205189285Y-184078571D01*
X205046428Y-184007142D01*
X205689285Y-183507142D02*
X205546428Y-183578571D01*
X205260714Y-183578571D01*
X205117857Y-183507142D01*
X205046428Y-183435714D01*
X204975000Y-183292857D01*
X204975000Y-182864285D01*
X205046428Y-182721428D01*
X205117857Y-182650000D01*
X205260714Y-182578571D01*
X205546428Y-182578571D01*
X205689285Y-182650000D01*
X206403571Y-183578571D02*
X206403571Y-182578571D01*
X206403571Y-182721428D02*
X206475000Y-182650000D01*
X206617857Y-182578571D01*
X206832142Y-182578571D01*
X206975000Y-182650000D01*
X207046428Y-182792857D01*
X207046428Y-183578571D01*
X207046428Y-182792857D02*
X207117857Y-182650000D01*
X207260714Y-182578571D01*
X207475000Y-182578571D01*
X207617857Y-182650000D01*
X207689285Y-182792857D01*
X207689285Y-183578571D01*
X209046428Y-183578571D02*
X209046428Y-182792857D01*
X208975000Y-182650000D01*
X208832142Y-182578571D01*
X208546428Y-182578571D01*
X208403571Y-182650000D01*
X209046428Y-183507142D02*
X208903571Y-183578571D01*
X208546428Y-183578571D01*
X208403571Y-183507142D01*
X208332142Y-183364285D01*
X208332142Y-183221428D01*
X208403571Y-183078571D01*
X208546428Y-183007142D01*
X208903571Y-183007142D01*
X209046428Y-182935714D01*
X209760714Y-183578571D02*
X209760714Y-182578571D01*
X209760714Y-182078571D02*
X209689285Y-182150000D01*
X209760714Y-182221428D01*
X209832142Y-182150000D01*
X209760714Y-182078571D01*
X209760714Y-182221428D01*
X210689285Y-183578571D02*
X210546428Y-183507142D01*
X210475000Y-183364285D01*
X210475000Y-182078571D01*
X211260714Y-183435714D02*
X211332142Y-183507142D01*
X211260714Y-183578571D01*
X211189285Y-183507142D01*
X211260714Y-183435714D01*
X211260714Y-183578571D01*
X212617857Y-183507142D02*
X212475000Y-183578571D01*
X212189285Y-183578571D01*
X212046428Y-183507142D01*
X211975000Y-183435714D01*
X211903571Y-183292857D01*
X211903571Y-182864285D01*
X211975000Y-182721428D01*
X212046428Y-182650000D01*
X212189285Y-182578571D01*
X212475000Y-182578571D01*
X212617857Y-182650000D01*
X213475000Y-183578571D02*
X213332142Y-183507142D01*
X213260714Y-183435714D01*
X213189285Y-183292857D01*
X213189285Y-182864285D01*
X213260714Y-182721428D01*
X213332142Y-182650000D01*
X213475000Y-182578571D01*
X213689285Y-182578571D01*
X213832142Y-182650000D01*
X213903571Y-182721428D01*
X213975000Y-182864285D01*
X213975000Y-183292857D01*
X213903571Y-183435714D01*
X213832142Y-183507142D01*
X213689285Y-183578571D01*
X213475000Y-183578571D01*
X214617857Y-183578571D02*
X214617857Y-182578571D01*
X214617857Y-182721428D02*
X214689285Y-182650000D01*
X214832142Y-182578571D01*
X215046428Y-182578571D01*
X215189285Y-182650000D01*
X215260714Y-182792857D01*
X215260714Y-183578571D01*
X215260714Y-182792857D02*
X215332142Y-182650000D01*
X215475000Y-182578571D01*
X215689285Y-182578571D01*
X215832142Y-182650000D01*
X215903571Y-182792857D01*
X215903571Y-183578571D01*
D10*
D11*
X179400000Y-197400000D02*
X179400000Y-200400000D01*
D10*
D11*
X243400000Y-197400000D02*
X243400000Y-203900000D01*
D14*
%TO.C,U_MM_1*%
X139876000Y-71475000D02*
X139876000Y-74575000D01*
X139876000Y-74575000D02*
X143476000Y-74575000D01*
X143476000Y-74575000D02*
X143476000Y-71475000D01*
X143476000Y-71475000D02*
X139876000Y-71475000D01*
D15*
%TO.C,J_CN_2*%
X114340000Y-154048000D02*
X114340000Y-157355999D01*
X114340000Y-157355999D02*
X124848000Y-157355999D01*
X124848000Y-157355999D02*
X124848000Y-154048000D01*
X124848000Y-154048000D02*
X114340000Y-154048000D01*
D14*
%TO.C,LED_STN_1*%
X116859500Y-116693700D02*
X113899500Y-116693700D01*
X116859500Y-115233700D02*
X116859500Y-116693700D01*
X113899500Y-115233700D02*
X116859500Y-115233700D01*
X113899500Y-116693700D02*
X113899500Y-115233700D01*
D15*
%TO.C,J_HST_6*%
X157694000Y-57940400D02*
X157694000Y-54632401D01*
X157694000Y-54632401D02*
X147186000Y-54632401D01*
X147186000Y-54632401D02*
X147186000Y-57940400D01*
X147186000Y-57940400D02*
X157694000Y-57940400D01*
D16*
%TO.C,C_MSCAN_1*%
X120163000Y-149628000D02*
X118597000Y-149628000D01*
X120163000Y-146282000D02*
X120163000Y-149628000D01*
X118597000Y-146282000D02*
X120163000Y-146282000D01*
X118597000Y-149628000D02*
X118597000Y-146282000D01*
%TO.C,C_VR2_BST1*%
X140357000Y-124439000D02*
X140357000Y-126005000D01*
X137011000Y-124439000D02*
X140357000Y-124439000D01*
X137011000Y-126005000D02*
X137011000Y-124439000D01*
X140357000Y-126005000D02*
X137011000Y-126005000D01*
D14*
%TO.C,D_J1850_2*%
X168155300Y-113140200D02*
X170655300Y-113140200D01*
X170655300Y-113140200D02*
X170655300Y-103420200D01*
X170655300Y-103420200D02*
X168155300Y-103420200D01*
X168155300Y-103420200D02*
X168155300Y-113140200D01*
D16*
%TO.C,C_VS_1*%
X123515800Y-109528200D02*
X123515800Y-112874200D01*
X123515800Y-112874200D02*
X121949800Y-112874200D01*
X121949800Y-112874200D02*
X121949800Y-109528200D01*
X121949800Y-109528200D02*
X123515800Y-109528200D01*
D14*
%TO.C,LED_STN_2*%
X113899500Y-113645700D02*
X113899500Y-112185700D01*
X113899500Y-112185700D02*
X116859500Y-112185700D01*
X116859500Y-112185700D02*
X116859500Y-113645700D01*
X116859500Y-113645700D02*
X113899500Y-113645700D01*
%TO.C,C_SWCAN_1*%
X142253600Y-60077600D02*
X143953600Y-60077600D01*
X143953600Y-60077600D02*
X143953600Y-58997600D01*
X143953600Y-58997600D02*
X142253600Y-58997600D01*
X142253600Y-58997600D02*
X142253600Y-60077600D01*
D15*
%TO.C,J_SWCAN_1*%
X152244600Y-108824400D02*
X155552599Y-108824400D01*
X155552599Y-108824400D02*
X155552599Y-98316400D01*
X155552599Y-98316400D02*
X152244600Y-98316400D01*
X152244600Y-98316400D02*
X152244600Y-108824400D01*
%TO.C,J_STN_1*%
X110436200Y-79342200D02*
X113744199Y-79342200D01*
X113744199Y-79342200D02*
X113744199Y-68834200D01*
X113744199Y-68834200D02*
X110436200Y-68834200D01*
X110436200Y-68834200D02*
X110436200Y-79342200D01*
%TO.C,J_HST_2*%
X110436200Y-67625600D02*
X113744199Y-67625600D01*
X113744199Y-67625600D02*
X113744199Y-57117600D01*
X113744199Y-57117600D02*
X110436200Y-57117600D01*
X110436200Y-57117600D02*
X110436200Y-67625600D01*
D14*
%TO.C,D_VS_1*%
X131860000Y-107930000D02*
X131860000Y-105430000D01*
X131860000Y-105430000D02*
X122140000Y-105430000D01*
X122140000Y-105430000D02*
X122140000Y-107930000D01*
X122140000Y-107930000D02*
X131860000Y-107930000D01*
D15*
%TO.C,J_PSW_1*%
X134388400Y-110660800D02*
X134388400Y-121168800D01*
X137696399Y-110660800D02*
X134388400Y-110660800D01*
X137696399Y-121168800D02*
X137696399Y-110660800D01*
X134388400Y-121168800D02*
X137696399Y-121168800D01*
%TO.C,C_PS_1*%
X159268998Y-105011004D02*
X159268998Y-109618996D01*
X156961002Y-105011004D02*
X159268998Y-105011004D01*
X156961002Y-109618996D02*
X156961002Y-105011004D01*
X159268998Y-109618996D02*
X156961002Y-109618996D01*
%TO.C,J_CN_1*%
X170060000Y-154048000D02*
X159552000Y-154048000D01*
X170060000Y-157355999D02*
X170060000Y-154048000D01*
X159552000Y-157355999D02*
X170060000Y-157355999D01*
X159552000Y-154048000D02*
X159552000Y-157355999D01*
%TO.C,C_MM_1*%
X144487900Y-74828400D02*
X144487900Y-78841600D01*
X144487900Y-78841600D02*
X138468100Y-78841600D01*
X138468100Y-78841600D02*
X138468100Y-74828400D01*
X138468100Y-74828400D02*
X144487900Y-74828400D01*
%TO.C,J_HST_4*%
X175009000Y-59018800D02*
X171701001Y-59018800D01*
X171701001Y-59018800D02*
X171701001Y-69526800D01*
X171701001Y-69526800D02*
X175009000Y-69526800D01*
X175009000Y-69526800D02*
X175009000Y-59018800D01*
%TO.C,J_HST_5*%
X134486000Y-57940400D02*
X144994000Y-57940400D01*
X134486000Y-54632401D02*
X134486000Y-57940400D01*
X144994000Y-54632401D02*
X134486000Y-54632401D01*
X144994000Y-57940400D02*
X144994000Y-54632401D01*
D14*
%TO.C,D_VS_2*%
X122140000Y-102850000D02*
X131860000Y-102850000D01*
X122140000Y-100350000D02*
X122140000Y-102850000D01*
X131860000Y-100350000D02*
X122140000Y-100350000D01*
X131860000Y-102850000D02*
X131860000Y-100350000D01*
D15*
%TO.C,J_PS_2*%
X171066000Y-115436000D02*
X171066000Y-125944000D01*
X174373999Y-115436000D02*
X171066000Y-115436000D01*
X174373999Y-125944000D02*
X174373999Y-115436000D01*
X171066000Y-125944000D02*
X174373999Y-125944000D01*
%TO.C,J_HST_7*%
X169759000Y-57940400D02*
X169759000Y-54632401D01*
X169759000Y-54632401D02*
X159251000Y-54632401D01*
X159251000Y-54632401D02*
X159251000Y-57940400D01*
X159251000Y-57940400D02*
X169759000Y-57940400D01*
%TO.C,J_PSW_2*%
X152270000Y-120914800D02*
X155577999Y-120914800D01*
X155577999Y-120914800D02*
X155577999Y-110406800D01*
X155577999Y-110406800D02*
X152270000Y-110406800D01*
X152270000Y-110406800D02*
X152270000Y-120914800D01*
%TO.C,J_HST_1*%
X110487000Y-91058800D02*
X113794999Y-91058800D01*
X113794999Y-91058800D02*
X113794999Y-80550800D01*
X113794999Y-80550800D02*
X110487000Y-80550800D01*
X110487000Y-80550800D02*
X110487000Y-91058800D01*
%TO.C,J_PSW_3*%
X139566000Y-121034000D02*
X150074000Y-121034000D01*
X139566000Y-117726001D02*
X139566000Y-121034000D01*
X150074000Y-117726001D02*
X139566000Y-117726001D01*
X150074000Y-121034000D02*
X150074000Y-117726001D01*
%TO.C,J_PS_1*%
X149232000Y-130426000D02*
X138724000Y-130426000D01*
X149232000Y-133733999D02*
X149232000Y-130426000D01*
X138724000Y-133733999D02*
X149232000Y-133733999D01*
X138724000Y-130426000D02*
X138724000Y-133733999D01*
%TO.C,J_STN_RST1*%
X113845800Y-93156400D02*
X110537801Y-93156400D01*
X110537801Y-93156400D02*
X110537801Y-103664400D01*
X110537801Y-103664400D02*
X113845800Y-103664400D01*
X113845800Y-103664400D02*
X113845800Y-93156400D01*
%TO.C,L_VR1*%
X156794200Y-123126500D02*
X156794200Y-124625100D01*
X156794200Y-124625100D02*
X156400500Y-124625100D01*
X156400500Y-124625100D02*
X156400500Y-124853700D01*
X156400500Y-124853700D02*
X153682700Y-124853700D01*
X153682700Y-124853700D02*
X153682700Y-124625100D01*
X153682700Y-124625100D02*
X153289000Y-124625100D01*
X153289000Y-124625100D02*
X153289000Y-123126500D01*
X153289000Y-123126500D02*
X153682700Y-123126500D01*
X153682700Y-123126500D02*
X153682700Y-122897900D01*
X153682700Y-122897900D02*
X156400500Y-122897900D01*
X156400500Y-122897900D02*
X156400500Y-123126500D01*
X156400500Y-123126500D02*
X156794200Y-123126500D01*
%TO.C,L_VR2*%
X127012700Y-125876100D02*
X127012700Y-125482400D01*
X126784100Y-125876100D02*
X127012700Y-125876100D01*
X126784100Y-128593900D02*
X126784100Y-125876100D01*
X127012700Y-128593900D02*
X126784100Y-128593900D01*
X127012700Y-128987600D02*
X127012700Y-128593900D01*
X128511300Y-128987600D02*
X127012700Y-128987600D01*
X128511300Y-128593900D02*
X128511300Y-128987600D01*
X128739900Y-128593900D02*
X128511300Y-128593900D01*
X128739900Y-125876100D02*
X128739900Y-128593900D01*
X128511300Y-125876100D02*
X128739900Y-125876100D01*
X128511300Y-125482400D02*
X128511300Y-125876100D01*
X127012700Y-125482400D02*
X128511300Y-125482400D01*
D14*
%TO.C,Q_HSCAN_1*%
X118900000Y-135885000D02*
X118900000Y-132085000D01*
X118900000Y-132085000D02*
X122400000Y-132085000D01*
X122400000Y-132085000D02*
X122400000Y-135885000D01*
X122400000Y-135885000D02*
X118900000Y-135885000D01*
%TO.C,Q_ISO_3*%
X171295000Y-136685000D02*
X167795000Y-136685000D01*
X171295000Y-133285000D02*
X171295000Y-136685000D01*
X167795000Y-133285000D02*
X171295000Y-133285000D01*
X167795000Y-136685000D02*
X167795000Y-133285000D01*
%TO.C,LED_STN_3*%
X113925500Y-110597700D02*
X113925500Y-109137700D01*
X113925500Y-109137700D02*
X116885500Y-109137700D01*
X116885500Y-109137700D02*
X116885500Y-110597700D01*
X116885500Y-110597700D02*
X113925500Y-110597700D01*
%TO.C,R_COMP_2*%
X173435000Y-146490000D02*
X172005000Y-146490000D01*
X173435000Y-149420000D02*
X172005000Y-149420000D01*
X172005000Y-149420000D02*
X172005000Y-146490000D01*
X173435000Y-149420000D02*
X173435000Y-146490000D01*
%TO.C,Q_PSW_1*%
X143233200Y-116708000D02*
X143233200Y-112908000D01*
X143233200Y-112908000D02*
X146733200Y-112908000D01*
X146733200Y-112908000D02*
X146733200Y-116708000D01*
X146733200Y-116708000D02*
X143233200Y-116708000D01*
%TO.C,Q_SWCAN_1*%
X135918000Y-69464000D02*
X135918000Y-65664000D01*
X135918000Y-65664000D02*
X139418000Y-65664000D01*
X139418000Y-65664000D02*
X139418000Y-69464000D01*
X139418000Y-69464000D02*
X135918000Y-69464000D01*
D15*
%TO.C,Q_ISO_1*%
X161317700Y-143594900D02*
X162545000Y-143594900D01*
X162545000Y-143594900D02*
X162545000Y-142635301D01*
X162545000Y-142635301D02*
X163621000Y-142635301D01*
X163621000Y-142635301D02*
X163621000Y-143594900D01*
X163621000Y-143594900D02*
X164848300Y-143594900D01*
X164848300Y-143594900D02*
X164848300Y-145499900D01*
X164848300Y-145499900D02*
X164573500Y-145499900D01*
X164573500Y-145499900D02*
X164573500Y-146459499D01*
X164573500Y-146459499D02*
X161592500Y-146459499D01*
X161592500Y-146459499D02*
X161592500Y-145499900D01*
X161592500Y-145499900D02*
X161317700Y-145499900D01*
X161317700Y-145499900D02*
X161317700Y-143594900D01*
X161571700Y-145245900D02*
X161571700Y-143848900D01*
X161571700Y-143848900D02*
X164594300Y-143848900D01*
X164594300Y-143848900D02*
X164594300Y-145245900D01*
X164594300Y-145245900D02*
X161571700Y-145245900D01*
D14*
%TO.C,Q_J1850_1*%
X158018400Y-86382800D02*
X158018400Y-82882800D01*
X161818400Y-86382800D02*
X158018400Y-86382800D01*
X161818400Y-82882800D02*
X161818400Y-86382800D01*
X158018400Y-82882800D02*
X161818400Y-82882800D01*
%TO.C,R_J1850_5*%
X171268400Y-98476800D02*
X171268400Y-101406800D01*
X172698400Y-98476800D02*
X172698400Y-101406800D01*
X171268400Y-98476800D02*
X172698400Y-98476800D01*
X171268400Y-101406800D02*
X172698400Y-101406800D01*
%TO.C,R_MSCAN_3*%
X121588000Y-137975000D02*
X121588000Y-140155000D01*
X126062000Y-137975000D02*
X126062000Y-140155000D01*
X126062000Y-140155000D02*
X121588000Y-140155000D01*
X126062000Y-137975000D02*
X121588000Y-137975000D01*
%TO.C,R_HSCAN_3*%
X117472800Y-68708800D02*
X117472800Y-64234800D01*
X115292800Y-68708800D02*
X115292800Y-64234800D01*
X117472800Y-68708800D02*
X115292800Y-68708800D01*
X117472800Y-64234800D02*
X115292800Y-64234800D01*
%TO.C,R_J1850_2*%
X170306000Y-85963000D02*
X170306000Y-82947000D01*
X168784000Y-85963000D02*
X168784000Y-82947000D01*
X170306000Y-85963000D02*
X168784000Y-85963000D01*
X170306000Y-82947000D02*
X168784000Y-82947000D01*
%TO.C,R_PSW_2*%
X156765000Y-112835000D02*
X156765000Y-115765000D01*
X158195000Y-112835000D02*
X158195000Y-115765000D01*
X156765000Y-112835000D02*
X158195000Y-112835000D01*
X156765000Y-115765000D02*
X158195000Y-115765000D01*
%TO.C,R_STN_6*%
X134979400Y-93159000D02*
X134979400Y-90229000D01*
X133549400Y-93159000D02*
X133549400Y-90229000D01*
X134979400Y-93159000D02*
X133549400Y-93159000D01*
X134979400Y-90229000D02*
X133549400Y-90229000D01*
%TO.C,R_HSCAN_1*%
X120095000Y-106621000D02*
X120095000Y-103691000D01*
X118665000Y-106621000D02*
X118665000Y-103691000D01*
X120095000Y-106621000D02*
X118665000Y-106621000D01*
X120095000Y-103691000D02*
X118665000Y-103691000D01*
%TO.C,R_STN_8*%
X141723800Y-82241400D02*
X138793800Y-82241400D01*
X141723800Y-83671400D02*
X138793800Y-83671400D01*
X141723800Y-82241400D02*
X141723800Y-83671400D01*
X138793800Y-82241400D02*
X138793800Y-83671400D01*
D15*
%TO.C,R_ISO_1*%
X165437200Y-133089600D02*
X162629200Y-133089600D01*
X165437200Y-131781600D02*
X165437200Y-133089600D01*
X162629200Y-131781600D02*
X165437200Y-131781600D01*
X162629200Y-133089600D02*
X162629200Y-131781600D01*
D14*
%TO.C,R_SWCAN_1*%
X133799000Y-67357000D02*
X130869000Y-67357000D01*
X133799000Y-68787000D02*
X130869000Y-68787000D01*
X133799000Y-67357000D02*
X133799000Y-68787000D01*
X130869000Y-67357000D02*
X130869000Y-68787000D01*
%TO.C,R_MSCAN_2*%
X125427000Y-147500000D02*
X120953000Y-147500000D01*
X125427000Y-149680000D02*
X120953000Y-149680000D01*
X125427000Y-147500000D02*
X125427000Y-149680000D01*
X120953000Y-147500000D02*
X120953000Y-149680000D01*
%TO.C,R_COMP_8*%
X168195000Y-68775000D02*
X169625000Y-68775000D01*
X168195000Y-65845000D02*
X169625000Y-65845000D01*
X169625000Y-65845000D02*
X169625000Y-68775000D01*
X168195000Y-65845000D02*
X168195000Y-68775000D01*
%TO.C,R_ISO_3*%
X166897000Y-150825000D02*
X166897000Y-152705000D01*
X170313000Y-150825000D02*
X170313000Y-152705000D01*
X170313000Y-152705000D02*
X166897000Y-152705000D01*
X170313000Y-150825000D02*
X166897000Y-150825000D01*
%TO.C,R_HSCAN_2*%
X120393800Y-64234800D02*
X118213800Y-64234800D01*
X120393800Y-68708800D02*
X118213800Y-68708800D01*
X118213800Y-68708800D02*
X118213800Y-64234800D01*
X120393800Y-68708800D02*
X120393800Y-64234800D01*
%TO.C,C_STN_3*%
X146105800Y-93265000D02*
X143175800Y-93265000D01*
X146105800Y-94695000D02*
X143175800Y-94695000D01*
X146105800Y-93265000D02*
X146105800Y-94695000D01*
X143175800Y-93265000D02*
X143175800Y-94695000D01*
%TO.C,R_SWCAN_7*%
X124698000Y-69089000D02*
X121682000Y-69089000D01*
X124698000Y-70611000D02*
X121682000Y-70611000D01*
X124698000Y-69089000D02*
X124698000Y-70611000D01*
X121682000Y-69089000D02*
X121682000Y-70611000D01*
D15*
%TO.C,R_SWCAN_6*%
X125520400Y-128353200D02*
X124212400Y-128353200D01*
X124212400Y-128353200D02*
X124212400Y-125545200D01*
X124212400Y-125545200D02*
X125520400Y-125545200D01*
X125520400Y-125545200D02*
X125520400Y-128353200D01*
D14*
%TO.C,R_SWCAN_3*%
X118550000Y-58500000D02*
X121480000Y-58500000D01*
X118550000Y-57070000D02*
X121480000Y-57070000D01*
X118550000Y-58500000D02*
X118550000Y-57070000D01*
X121480000Y-58500000D02*
X121480000Y-57070000D01*
D15*
%TO.C,R_ISO_2*%
X167036000Y-139719000D02*
X167036000Y-138411000D01*
X167036000Y-138411000D02*
X169844000Y-138411000D01*
X169844000Y-138411000D02*
X169844000Y-139719000D01*
X169844000Y-139719000D02*
X167036000Y-139719000D01*
D14*
%TO.C,U_STN_1*%
X123670000Y-77950000D02*
X123670000Y-87150000D01*
X123670000Y-87150000D02*
X132870000Y-87150000D01*
X132870000Y-87150000D02*
X132870000Y-77950000D01*
X132870000Y-77950000D02*
X123670000Y-77950000D01*
D15*
%TO.C,U_HSCAN_1*%
X118376800Y-86316600D02*
X118376800Y-86016601D01*
X118006000Y-86316600D02*
X118376800Y-86316600D01*
X118006000Y-89821800D02*
X118006000Y-86316600D01*
X118376800Y-89821800D02*
X118006000Y-89821800D01*
X118376800Y-90121799D02*
X118376800Y-89821800D01*
X121140400Y-90121799D02*
X118376800Y-90121799D01*
X121140400Y-89821800D02*
X121140400Y-90121799D01*
X121511200Y-89821800D02*
X121140400Y-89821800D01*
X121511200Y-86316600D02*
X121511200Y-89821800D01*
X121140400Y-86316600D02*
X121511200Y-86316600D01*
X121140400Y-86016601D02*
X121140400Y-86316600D01*
X118376800Y-86016601D02*
X121140400Y-86016601D01*
%TO.C,U_COMP_1*%
X165874700Y-67678300D02*
X148831300Y-67678300D01*
X148831300Y-67678300D02*
X148831300Y-68834000D01*
X148831300Y-68834000D02*
X147256500Y-68834000D01*
X147256500Y-68834000D02*
X147256500Y-75946000D01*
X147256500Y-75946000D02*
X148831300Y-75946000D01*
X148831300Y-75946000D02*
X148831300Y-77101700D01*
X148831300Y-77101700D02*
X165874700Y-77101700D01*
X165874700Y-77101700D02*
X165874700Y-75946000D01*
X165874700Y-75946000D02*
X167449500Y-75946000D01*
X167449500Y-75946000D02*
X167449500Y-68834000D01*
X167449500Y-68834000D02*
X165874700Y-68834000D01*
X165874700Y-68834000D02*
X165874700Y-67678300D01*
D14*
%TO.C,R_VS_2*%
X124386000Y-109116600D02*
X124386000Y-113590600D01*
X126566000Y-109116600D02*
X126566000Y-113590600D01*
X124386000Y-109116600D02*
X126566000Y-109116600D01*
X124386000Y-113590600D02*
X126566000Y-113590600D01*
D15*
%TO.C,J_HST_3*%
X132929000Y-57940400D02*
X132929000Y-54632401D01*
X132929000Y-54632401D02*
X122421000Y-54632401D01*
X122421000Y-54632401D02*
X122421000Y-57940400D01*
X122421000Y-57940400D02*
X132929000Y-57940400D01*
%TO.C,SW_STN_1*%
X130653700Y-89852699D02*
X130653700Y-94551301D01*
X130653700Y-94551301D02*
X129501900Y-94551301D01*
X129501900Y-94551301D02*
X129501900Y-94703900D01*
X129501900Y-94703900D02*
X124498100Y-94703900D01*
X124498100Y-94703900D02*
X124498100Y-94551301D01*
X124498100Y-94551301D02*
X123346300Y-94551301D01*
X123346300Y-94551301D02*
X123346300Y-89852699D01*
X123346300Y-89852699D02*
X124498100Y-89852699D01*
X124498100Y-89852699D02*
X124498100Y-89700100D01*
X124498100Y-89700100D02*
X129501900Y-89700100D01*
X129501900Y-89700100D02*
X129501900Y-89852699D01*
X129501900Y-89852699D02*
X130653700Y-89852699D01*
D14*
%TO.C,Y_STN_1*%
X139500800Y-88070000D02*
X142900800Y-88070000D01*
X142900800Y-88070000D02*
X142900800Y-90870000D01*
X142900800Y-90870000D02*
X139500800Y-90870000D01*
X139500800Y-90870000D02*
X139500800Y-88070000D01*
D15*
%TO.C,U_VR1*%
X152120600Y-129850600D02*
X151820601Y-129850600D01*
X152120600Y-129971800D02*
X152120600Y-129850600D01*
X155625800Y-129971800D02*
X152120600Y-129971800D01*
X155625800Y-129850600D02*
X155625800Y-129971800D01*
X155925799Y-129850600D02*
X155625800Y-129850600D01*
X155925799Y-126587800D02*
X155925799Y-129850600D01*
X155625800Y-126587800D02*
X155925799Y-126587800D01*
X155625800Y-126466600D02*
X155625800Y-126587800D01*
X152120600Y-126466600D02*
X155625800Y-126466600D01*
X152120600Y-126587800D02*
X152120600Y-126466600D01*
X151820601Y-126587800D02*
X152120600Y-126587800D01*
X151820601Y-129850600D02*
X151820601Y-126587800D01*
%TO.C,U_VR2*%
X136672599Y-130194600D02*
X136672599Y-133457400D01*
X136672599Y-133457400D02*
X136372600Y-133457400D01*
X136372600Y-133457400D02*
X136372600Y-133578600D01*
X136372600Y-133578600D02*
X132867400Y-133578600D01*
X132867400Y-133578600D02*
X132867400Y-133457400D01*
X132867400Y-133457400D02*
X132567401Y-133457400D01*
X132567401Y-133457400D02*
X132567401Y-130194600D01*
X132567401Y-130194600D02*
X132867400Y-130194600D01*
X132867400Y-130194600D02*
X132867400Y-130073400D01*
X132867400Y-130073400D02*
X136372600Y-130073400D01*
X136372600Y-130073400D02*
X136372600Y-130194600D01*
X136372600Y-130194600D02*
X136672599Y-130194600D01*
D14*
%TO.C,R_VR2_1*%
X127207000Y-134111000D02*
X127207000Y-131181000D01*
X125777000Y-134111000D02*
X125777000Y-131181000D01*
X127207000Y-134111000D02*
X125777000Y-134111000D01*
X127207000Y-131181000D02*
X125777000Y-131181000D01*
%TO.C,U_J1850_1*%
X167020000Y-87623200D02*
X174440000Y-87623200D01*
X167020000Y-93123200D02*
X174440000Y-93123200D01*
X167020000Y-87623200D02*
X167020000Y-93123200D01*
X174440000Y-87623200D02*
X174440000Y-93123200D01*
%TO.C,C_STN_2*%
X142538800Y-91487000D02*
X139608800Y-91487000D01*
X142538800Y-92917000D02*
X139608800Y-92917000D01*
X142538800Y-91487000D02*
X142538800Y-92917000D01*
X139608800Y-91487000D02*
X139608800Y-92917000D01*
%TO.C,Q_ISO_4*%
X161383000Y-137827400D02*
X164783000Y-137827400D01*
X164783000Y-137827400D02*
X164783000Y-141327400D01*
X164783000Y-141327400D02*
X161383000Y-141327400D01*
X161383000Y-141327400D02*
X161383000Y-137827400D01*
D15*
%TO.C,J_STN_2*%
X152270000Y-96958800D02*
X155577999Y-96958800D01*
X155577999Y-96958800D02*
X155577999Y-86450800D01*
X155577999Y-86450800D02*
X152270000Y-86450800D01*
X152270000Y-86450800D02*
X152270000Y-96958800D01*
D14*
%TO.C,Q_PSW_4*%
X148102400Y-122151200D02*
X148102400Y-125651200D01*
X144302400Y-122151200D02*
X148102400Y-122151200D01*
X144302400Y-125651200D02*
X144302400Y-122151200D01*
X148102400Y-125651200D02*
X144302400Y-125651200D01*
D15*
%TO.C,Q_ISO_2*%
X160794700Y-149542500D02*
X162022000Y-149542500D01*
X162022000Y-149542500D02*
X162022000Y-148582901D01*
X162022000Y-148582901D02*
X163098000Y-148582901D01*
X163098000Y-148582901D02*
X163098000Y-149542500D01*
X163098000Y-149542500D02*
X164325300Y-149542500D01*
X164325300Y-149542500D02*
X164325300Y-151447500D01*
X164325300Y-151447500D02*
X164050500Y-151447500D01*
X164050500Y-151447500D02*
X164050500Y-152407099D01*
X164050500Y-152407099D02*
X161069500Y-152407099D01*
X161069500Y-152407099D02*
X161069500Y-151447500D01*
X161069500Y-151447500D02*
X160794700Y-151447500D01*
X160794700Y-151447500D02*
X160794700Y-149542500D01*
X161048700Y-151193500D02*
X161048700Y-149796500D01*
X161048700Y-149796500D02*
X164071300Y-149796500D01*
X164071300Y-149796500D02*
X164071300Y-151193500D01*
X164071300Y-151193500D02*
X161048700Y-151193500D01*
D14*
%TO.C,Q_PSW_3*%
X161216400Y-105694400D02*
X164716400Y-105694400D01*
X161216400Y-109494400D02*
X161216400Y-105694400D01*
X164716400Y-109494400D02*
X161216400Y-109494400D01*
X164716400Y-105694400D02*
X164716400Y-109494400D01*
%TO.C,Q_PSW_2*%
X127335200Y-121079200D02*
X127335200Y-117579200D01*
X131135200Y-121079200D02*
X127335200Y-121079200D01*
X131135200Y-117579200D02*
X131135200Y-121079200D01*
X127335200Y-117579200D02*
X131135200Y-117579200D01*
D15*
%TO.C,CN1*%
X157899100Y-134924800D02*
X126580900Y-134924800D01*
X126580900Y-134924800D02*
X126580900Y-157327600D01*
X126580900Y-157327600D02*
X157899100Y-157327600D01*
X157899100Y-157327600D02*
X157899100Y-134924800D01*
%TO.C,U_SWCAN_1*%
X130809600Y-66643999D02*
X122174400Y-66643999D01*
X122174400Y-66643999D02*
X122174400Y-65316100D01*
X122174400Y-65316100D02*
X121869200Y-65316100D01*
X121869200Y-65316100D02*
X121869200Y-60566300D01*
X121869200Y-60566300D02*
X122174400Y-60566300D01*
X122174400Y-60566300D02*
X122174400Y-59238401D01*
X122174400Y-59238401D02*
X130809600Y-59238401D01*
X130809600Y-59238401D02*
X130809600Y-60566300D01*
X130809600Y-60566300D02*
X131114800Y-60566300D01*
X131114800Y-60566300D02*
X131114800Y-65316100D01*
X131114800Y-65316100D02*
X130809600Y-65316100D01*
X130809600Y-65316100D02*
X130809600Y-66643999D01*
%TO.C,U_MSCAN_1*%
X117934700Y-95165901D02*
X120698300Y-95165901D01*
X120698300Y-95165901D02*
X120698300Y-95465900D01*
X120698300Y-95465900D02*
X121069100Y-95465900D01*
X121069100Y-95465900D02*
X121069100Y-98971100D01*
X121069100Y-98971100D02*
X120698300Y-98971100D01*
X120698300Y-98971100D02*
X120698300Y-99271099D01*
X120698300Y-99271099D02*
X117934700Y-99271099D01*
X117934700Y-99271099D02*
X117934700Y-98971100D01*
X117934700Y-98971100D02*
X117563900Y-98971100D01*
X117563900Y-98971100D02*
X117563900Y-95465900D01*
X117563900Y-95465900D02*
X117934700Y-95465900D01*
X117934700Y-95465900D02*
X117934700Y-95165901D01*
D14*
%TO.C,R_SWCAN_5*%
X130927000Y-69897000D02*
X130927000Y-71327000D01*
X133857000Y-69897000D02*
X133857000Y-71327000D01*
X133857000Y-71327000D02*
X130927000Y-71327000D01*
X133857000Y-69897000D02*
X130927000Y-69897000D01*
%TD*%
M02*
