%TF.GenerationSoftware,KiCad,Pcbnew,(5.1.7)-1*%
%TF.CreationDate,2020-10-27T12:50:59-07:00*%
%TF.ProjectId,Reader,52656164-6572-42e6-9b69-6361645f7063,0.0.01*%
%TF.SameCoordinates,Original*%
%TF.FileFunction,Copper,L1,Top*%
%TF.FilePolarity,Positive*%
%FSLAX46Y46*%
G04 Gerber Fmt 4.6, Leading zero omitted, Abs format (unit mm)*
G04 Created by KiCad (PCBNEW (5.1.7)-1) date 2020-10-27 12:50:59*
%MOMM*%
%LPD*%
G01*
G04 APERTURE LIST*
%ADD10C,0.100000*%
%ADD11C,0.150000*%
%ADD12C,0.300000*%
%ADD13C,0.400000*%
%TA.AperFunction,SMDPad,CuDef*%
%ADD14R,0.600000X0.350000*%
%TD*%
%TA.AperFunction,SMDPad,CuDef*%
%ADD15R,0.350000X0.600000*%
%TD*%
%TA.AperFunction,ComponentPad*%
%ADD16C,2.032000*%
%TD*%
%TA.AperFunction,SMDPad,CuDef*%
%ADD17R,1.100000X1.000000*%
%TD*%
%TA.AperFunction,SMDPad,CuDef*%
%ADD18R,1.000000X1.100000*%
%TD*%
%TA.AperFunction,ComponentPad*%
%ADD19R,1.600000X1.600000*%
%TD*%
%TA.AperFunction,ComponentPad*%
%ADD20O,1.600000X1.600000*%
%TD*%
%TA.AperFunction,SMDPad,CuDef*%
%ADD21R,0.540000X0.600000*%
%TD*%
%TA.AperFunction,SMDPad,CuDef*%
%ADD22R,1.799996X1.299998*%
%TD*%
%TA.AperFunction,ComponentPad*%
%ADD23C,1.117600*%
%TD*%
%TA.AperFunction,SMDPad,CuDef*%
%ADD24R,1.003300X0.990600*%
%TD*%
%TA.AperFunction,SMDPad,CuDef*%
%ADD25R,0.990600X1.003300*%
%TD*%
%TA.AperFunction,SMDPad,CuDef*%
%ADD26R,0.600000X1.000000*%
%TD*%
%TA.AperFunction,SMDPad,CuDef*%
%ADD27R,0.800000X0.900000*%
%TD*%
%TA.AperFunction,SMDPad,CuDef*%
%ADD28R,0.930000X0.790000*%
%TD*%
%TA.AperFunction,SMDPad,CuDef*%
%ADD29R,0.568000X1.309599*%
%TD*%
%TA.AperFunction,SMDPad,CuDef*%
%ADD30R,1.000000X0.600000*%
%TD*%
%TA.AperFunction,SMDPad,CuDef*%
%ADD31R,1.080000X1.680000*%
%TD*%
%TA.AperFunction,SMDPad,CuDef*%
%ADD32R,1.680000X1.080000*%
%TD*%
%TA.AperFunction,SMDPad,CuDef*%
%ADD33R,1.020000X1.040000*%
%TD*%
%TA.AperFunction,SMDPad,CuDef*%
%ADD34R,0.790000X0.930000*%
%TD*%
%TA.AperFunction,SMDPad,CuDef*%
%ADD35R,0.700000X0.800000*%
%TD*%
%TA.AperFunction,SMDPad,CuDef*%
%ADD36R,1.040000X1.380000*%
%TD*%
%TA.AperFunction,SMDPad,CuDef*%
%ADD37R,1.010000X0.930000*%
%TD*%
%TA.AperFunction,SMDPad,CuDef*%
%ADD38R,1.040000X1.020000*%
%TD*%
%TA.AperFunction,SMDPad,CuDef*%
%ADD39R,0.800000X0.700000*%
%TD*%
%TA.AperFunction,SMDPad,CuDef*%
%ADD40R,6.450000X6.450000*%
%TD*%
%TA.AperFunction,ComponentPad*%
%ADD41C,0.500000*%
%TD*%
%TA.AperFunction,SMDPad,CuDef*%
%ADD42R,2.413000X1.600200*%
%TD*%
%TA.AperFunction,SMDPad,CuDef*%
%ADD43R,0.305600X0.858799*%
%TD*%
%TA.AperFunction,ComponentPad*%
%ADD44R,1.295400X1.295400*%
%TD*%
%TA.AperFunction,ComponentPad*%
%ADD45C,1.295400*%
%TD*%
%TA.AperFunction,SMDPad,CuDef*%
%ADD46R,1.549400X0.990600*%
%TD*%
%TA.AperFunction,SMDPad,CuDef*%
%ADD47R,1.100000X0.900000*%
%TD*%
%TA.AperFunction,SMDPad,CuDef*%
%ADD48R,0.757199X0.254800*%
%TD*%
%TA.AperFunction,SMDPad,CuDef*%
%ADD49R,1.803400X2.590800*%
%TD*%
%TA.AperFunction,SMDPad,CuDef*%
%ADD50R,1.670000X0.600000*%
%TD*%
%TA.AperFunction,SMDPad,CuDef*%
%ADD51R,0.900000X0.800000*%
%TD*%
%TA.AperFunction,ComponentPad*%
%ADD52C,3.302000*%
%TD*%
%TA.AperFunction,ComponentPad*%
%ADD53C,1.549400*%
%TD*%
%TA.AperFunction,SMDPad,CuDef*%
%ADD54R,0.507200X1.327899*%
%TD*%
%TA.AperFunction,ViaPad*%
%ADD55C,0.500000*%
%TD*%
%TA.AperFunction,Conductor*%
%ADD56C,0.300000*%
%TD*%
%TA.AperFunction,Conductor*%
%ADD57C,0.500000*%
%TD*%
%TA.AperFunction,Conductor*%
%ADD58C,0.200000*%
%TD*%
%TA.AperFunction,Conductor*%
%ADD59C,1.000000*%
%TD*%
%TA.AperFunction,Conductor*%
%ADD60C,0.700000*%
%TD*%
%TA.AperFunction,Conductor*%
%ADD61C,0.250000*%
%TD*%
%TA.AperFunction,Conductor*%
%ADD62C,0.220000*%
%TD*%
%TA.AperFunction,Conductor*%
%ADD63C,0.400000*%
%TD*%
%TA.AperFunction,Conductor*%
%ADD64C,0.800000*%
%TD*%
G04 APERTURE END LIST*
D10*
D11*
X159400000Y-171900000D02*
X159400000Y-203900000D01*
X267400000Y-203900000D01*
X267400000Y-171900000D01*
X159400000Y-171900000D01*
D10*
D11*
X10000000Y-10000000D02*
X10000000Y-205900000D01*
X269400000Y-205900000D01*
X269400000Y-10000000D01*
X10000000Y-10000000D01*
D10*
D11*
X12000000Y-12000000D02*
X12000000Y-203900000D01*
X267400000Y-203900000D01*
X267400000Y-12000000D01*
X12000000Y-12000000D01*
D10*
D11*
X60000000Y-12000000D02*
X60000000Y-10000000D01*
D10*
D11*
X110000000Y-12000000D02*
X110000000Y-10000000D01*
D10*
D11*
X160000000Y-12000000D02*
X160000000Y-10000000D01*
D10*
D11*
X210000000Y-12000000D02*
X210000000Y-10000000D01*
D10*
D11*
X260000000Y-12000000D02*
X260000000Y-10000000D01*
D10*
D11*
X36065476Y-11588095D02*
X35322619Y-11588095D01*
X35694047Y-11588095D02*
X35694047Y-10288095D01*
X35570238Y-10473809D01*
X35446428Y-10597619D01*
X35322619Y-10659523D01*
D10*
D11*
X85322619Y-10411904D02*
X85384523Y-10350000D01*
X85508333Y-10288095D01*
X85817857Y-10288095D01*
X85941666Y-10350000D01*
X86003571Y-10411904D01*
X86065476Y-10535714D01*
X86065476Y-10659523D01*
X86003571Y-10845238D01*
X85260714Y-11588095D01*
X86065476Y-11588095D01*
D10*
D11*
X135260714Y-10288095D02*
X136065476Y-10288095D01*
X135632142Y-10783333D01*
X135817857Y-10783333D01*
X135941666Y-10845238D01*
X136003571Y-10907142D01*
X136065476Y-11030952D01*
X136065476Y-11340476D01*
X136003571Y-11464285D01*
X135941666Y-11526190D01*
X135817857Y-11588095D01*
X135446428Y-11588095D01*
X135322619Y-11526190D01*
X135260714Y-11464285D01*
D10*
D11*
X185941666Y-10721428D02*
X185941666Y-11588095D01*
X185632142Y-10226190D02*
X185322619Y-11154761D01*
X186127380Y-11154761D01*
D10*
D11*
X236003571Y-10288095D02*
X235384523Y-10288095D01*
X235322619Y-10907142D01*
X235384523Y-10845238D01*
X235508333Y-10783333D01*
X235817857Y-10783333D01*
X235941666Y-10845238D01*
X236003571Y-10907142D01*
X236065476Y-11030952D01*
X236065476Y-11340476D01*
X236003571Y-11464285D01*
X235941666Y-11526190D01*
X235817857Y-11588095D01*
X235508333Y-11588095D01*
X235384523Y-11526190D01*
X235322619Y-11464285D01*
D10*
D11*
X60000000Y-203900000D02*
X60000000Y-205900000D01*
D10*
D11*
X110000000Y-203900000D02*
X110000000Y-205900000D01*
D10*
D11*
X160000000Y-203900000D02*
X160000000Y-205900000D01*
D10*
D11*
X210000000Y-203900000D02*
X210000000Y-205900000D01*
D10*
D11*
X260000000Y-203900000D02*
X260000000Y-205900000D01*
D10*
D11*
X36065476Y-205488095D02*
X35322619Y-205488095D01*
X35694047Y-205488095D02*
X35694047Y-204188095D01*
X35570238Y-204373809D01*
X35446428Y-204497619D01*
X35322619Y-204559523D01*
D10*
D11*
X85322619Y-204311904D02*
X85384523Y-204250000D01*
X85508333Y-204188095D01*
X85817857Y-204188095D01*
X85941666Y-204250000D01*
X86003571Y-204311904D01*
X86065476Y-204435714D01*
X86065476Y-204559523D01*
X86003571Y-204745238D01*
X85260714Y-205488095D01*
X86065476Y-205488095D01*
D10*
D11*
X135260714Y-204188095D02*
X136065476Y-204188095D01*
X135632142Y-204683333D01*
X135817857Y-204683333D01*
X135941666Y-204745238D01*
X136003571Y-204807142D01*
X136065476Y-204930952D01*
X136065476Y-205240476D01*
X136003571Y-205364285D01*
X135941666Y-205426190D01*
X135817857Y-205488095D01*
X135446428Y-205488095D01*
X135322619Y-205426190D01*
X135260714Y-205364285D01*
D10*
D11*
X185941666Y-204621428D02*
X185941666Y-205488095D01*
X185632142Y-204126190D02*
X185322619Y-205054761D01*
X186127380Y-205054761D01*
D10*
D11*
X236003571Y-204188095D02*
X235384523Y-204188095D01*
X235322619Y-204807142D01*
X235384523Y-204745238D01*
X235508333Y-204683333D01*
X235817857Y-204683333D01*
X235941666Y-204745238D01*
X236003571Y-204807142D01*
X236065476Y-204930952D01*
X236065476Y-205240476D01*
X236003571Y-205364285D01*
X235941666Y-205426190D01*
X235817857Y-205488095D01*
X235508333Y-205488095D01*
X235384523Y-205426190D01*
X235322619Y-205364285D01*
D10*
D11*
X10000000Y-60000000D02*
X12000000Y-60000000D01*
D10*
D11*
X10000000Y-110000000D02*
X12000000Y-110000000D01*
D10*
D11*
X10000000Y-160000000D02*
X12000000Y-160000000D01*
D10*
D11*
X10690476Y-35216666D02*
X11309523Y-35216666D01*
X10566666Y-35588095D02*
X11000000Y-34288095D01*
X11433333Y-35588095D01*
D10*
D11*
X11092857Y-84907142D02*
X11278571Y-84969047D01*
X11340476Y-85030952D01*
X11402380Y-85154761D01*
X11402380Y-85340476D01*
X11340476Y-85464285D01*
X11278571Y-85526190D01*
X11154761Y-85588095D01*
X10659523Y-85588095D01*
X10659523Y-84288095D01*
X11092857Y-84288095D01*
X11216666Y-84350000D01*
X11278571Y-84411904D01*
X11340476Y-84535714D01*
X11340476Y-84659523D01*
X11278571Y-84783333D01*
X11216666Y-84845238D01*
X11092857Y-84907142D01*
X10659523Y-84907142D01*
D10*
D11*
X11402380Y-135464285D02*
X11340476Y-135526190D01*
X11154761Y-135588095D01*
X11030952Y-135588095D01*
X10845238Y-135526190D01*
X10721428Y-135402380D01*
X10659523Y-135278571D01*
X10597619Y-135030952D01*
X10597619Y-134845238D01*
X10659523Y-134597619D01*
X10721428Y-134473809D01*
X10845238Y-134350000D01*
X11030952Y-134288095D01*
X11154761Y-134288095D01*
X11340476Y-134350000D01*
X11402380Y-134411904D01*
D10*
D11*
X10659523Y-185588095D02*
X10659523Y-184288095D01*
X10969047Y-184288095D01*
X11154761Y-184350000D01*
X11278571Y-184473809D01*
X11340476Y-184597619D01*
X11402380Y-184845238D01*
X11402380Y-185030952D01*
X11340476Y-185278571D01*
X11278571Y-185402380D01*
X11154761Y-185526190D01*
X10969047Y-185588095D01*
X10659523Y-185588095D01*
D10*
D11*
X269400000Y-60000000D02*
X267400000Y-60000000D01*
D10*
D11*
X269400000Y-110000000D02*
X267400000Y-110000000D01*
D10*
D11*
X269400000Y-160000000D02*
X267400000Y-160000000D01*
D10*
D11*
X268090476Y-35216666D02*
X268709523Y-35216666D01*
X267966666Y-35588095D02*
X268400000Y-34288095D01*
X268833333Y-35588095D01*
D10*
D11*
X268492857Y-84907142D02*
X268678571Y-84969047D01*
X268740476Y-85030952D01*
X268802380Y-85154761D01*
X268802380Y-85340476D01*
X268740476Y-85464285D01*
X268678571Y-85526190D01*
X268554761Y-85588095D01*
X268059523Y-85588095D01*
X268059523Y-84288095D01*
X268492857Y-84288095D01*
X268616666Y-84350000D01*
X268678571Y-84411904D01*
X268740476Y-84535714D01*
X268740476Y-84659523D01*
X268678571Y-84783333D01*
X268616666Y-84845238D01*
X268492857Y-84907142D01*
X268059523Y-84907142D01*
D10*
D11*
X268802380Y-135464285D02*
X268740476Y-135526190D01*
X268554761Y-135588095D01*
X268430952Y-135588095D01*
X268245238Y-135526190D01*
X268121428Y-135402380D01*
X268059523Y-135278571D01*
X267997619Y-135030952D01*
X267997619Y-134845238D01*
X268059523Y-134597619D01*
X268121428Y-134473809D01*
X268245238Y-134350000D01*
X268430952Y-134288095D01*
X268554761Y-134288095D01*
X268740476Y-134350000D01*
X268802380Y-134411904D01*
D10*
D11*
X268059523Y-185588095D02*
X268059523Y-184288095D01*
X268369047Y-184288095D01*
X268554761Y-184350000D01*
X268678571Y-184473809D01*
X268740476Y-184597619D01*
X268802380Y-184845238D01*
X268802380Y-185030952D01*
X268740476Y-185278571D01*
X268678571Y-185402380D01*
X268554761Y-185526190D01*
X268369047Y-185588095D01*
X268059523Y-185588095D01*
D10*
D11*
X182832142Y-199678571D02*
X182832142Y-198178571D01*
X183189285Y-198178571D01*
X183403571Y-198250000D01*
X183546428Y-198392857D01*
X183617857Y-198535714D01*
X183689285Y-198821428D01*
X183689285Y-199035714D01*
X183617857Y-199321428D01*
X183546428Y-199464285D01*
X183403571Y-199607142D01*
X183189285Y-199678571D01*
X182832142Y-199678571D01*
X184975000Y-199678571D02*
X184975000Y-198892857D01*
X184903571Y-198750000D01*
X184760714Y-198678571D01*
X184475000Y-198678571D01*
X184332142Y-198750000D01*
X184975000Y-199607142D02*
X184832142Y-199678571D01*
X184475000Y-199678571D01*
X184332142Y-199607142D01*
X184260714Y-199464285D01*
X184260714Y-199321428D01*
X184332142Y-199178571D01*
X184475000Y-199107142D01*
X184832142Y-199107142D01*
X184975000Y-199035714D01*
X185475000Y-198678571D02*
X186046428Y-198678571D01*
X185689285Y-198178571D02*
X185689285Y-199464285D01*
X185760714Y-199607142D01*
X185903571Y-199678571D01*
X186046428Y-199678571D01*
X187117857Y-199607142D02*
X186975000Y-199678571D01*
X186689285Y-199678571D01*
X186546428Y-199607142D01*
X186475000Y-199464285D01*
X186475000Y-198892857D01*
X186546428Y-198750000D01*
X186689285Y-198678571D01*
X186975000Y-198678571D01*
X187117857Y-198750000D01*
X187189285Y-198892857D01*
X187189285Y-199035714D01*
X186475000Y-199178571D01*
X187832142Y-199535714D02*
X187903571Y-199607142D01*
X187832142Y-199678571D01*
X187760714Y-199607142D01*
X187832142Y-199535714D01*
X187832142Y-199678571D01*
X187832142Y-198750000D02*
X187903571Y-198821428D01*
X187832142Y-198892857D01*
X187760714Y-198821428D01*
X187832142Y-198750000D01*
X187832142Y-198892857D01*
X189617857Y-198321428D02*
X189689285Y-198250000D01*
X189832142Y-198178571D01*
X190189285Y-198178571D01*
X190332142Y-198250000D01*
X190403571Y-198321428D01*
X190475000Y-198464285D01*
X190475000Y-198607142D01*
X190403571Y-198821428D01*
X189546428Y-199678571D01*
X190475000Y-199678571D01*
X191403571Y-198178571D02*
X191546428Y-198178571D01*
X191689285Y-198250000D01*
X191760714Y-198321428D01*
X191832142Y-198464285D01*
X191903571Y-198750000D01*
X191903571Y-199107142D01*
X191832142Y-199392857D01*
X191760714Y-199535714D01*
X191689285Y-199607142D01*
X191546428Y-199678571D01*
X191403571Y-199678571D01*
X191260714Y-199607142D01*
X191189285Y-199535714D01*
X191117857Y-199392857D01*
X191046428Y-199107142D01*
X191046428Y-198750000D01*
X191117857Y-198464285D01*
X191189285Y-198321428D01*
X191260714Y-198250000D01*
X191403571Y-198178571D01*
X192475000Y-198321428D02*
X192546428Y-198250000D01*
X192689285Y-198178571D01*
X193046428Y-198178571D01*
X193189285Y-198250000D01*
X193260714Y-198321428D01*
X193332142Y-198464285D01*
X193332142Y-198607142D01*
X193260714Y-198821428D01*
X192403571Y-199678571D01*
X193332142Y-199678571D01*
X194260714Y-198178571D02*
X194403571Y-198178571D01*
X194546428Y-198250000D01*
X194617857Y-198321428D01*
X194689285Y-198464285D01*
X194760714Y-198750000D01*
X194760714Y-199107142D01*
X194689285Y-199392857D01*
X194617857Y-199535714D01*
X194546428Y-199607142D01*
X194403571Y-199678571D01*
X194260714Y-199678571D01*
X194117857Y-199607142D01*
X194046428Y-199535714D01*
X193975000Y-199392857D01*
X193903571Y-199107142D01*
X193903571Y-198750000D01*
X193975000Y-198464285D01*
X194046428Y-198321428D01*
X194117857Y-198250000D01*
X194260714Y-198178571D01*
X195403571Y-199107142D02*
X196546428Y-199107142D01*
X198046428Y-199678571D02*
X197189285Y-199678571D01*
X197617857Y-199678571D02*
X197617857Y-198178571D01*
X197475000Y-198392857D01*
X197332142Y-198535714D01*
X197189285Y-198607142D01*
X198975000Y-198178571D02*
X199117857Y-198178571D01*
X199260714Y-198250000D01*
X199332142Y-198321428D01*
X199403571Y-198464285D01*
X199475000Y-198750000D01*
X199475000Y-199107142D01*
X199403571Y-199392857D01*
X199332142Y-199535714D01*
X199260714Y-199607142D01*
X199117857Y-199678571D01*
X198975000Y-199678571D01*
X198832142Y-199607142D01*
X198760714Y-199535714D01*
X198689285Y-199392857D01*
X198617857Y-199107142D01*
X198617857Y-198750000D01*
X198689285Y-198464285D01*
X198760714Y-198321428D01*
X198832142Y-198250000D01*
X198975000Y-198178571D01*
X200117857Y-199107142D02*
X201260714Y-199107142D01*
X201903571Y-198321428D02*
X201975000Y-198250000D01*
X202117857Y-198178571D01*
X202475000Y-198178571D01*
X202617857Y-198250000D01*
X202689285Y-198321428D01*
X202760714Y-198464285D01*
X202760714Y-198607142D01*
X202689285Y-198821428D01*
X201832142Y-199678571D01*
X202760714Y-199678571D01*
X203260714Y-198178571D02*
X204260714Y-198178571D01*
X203617857Y-199678571D01*
D10*
D11*
X159400000Y-200400000D02*
X267400000Y-200400000D01*
D10*
D11*
X160832142Y-202478571D02*
X160832142Y-200978571D01*
X161689285Y-202478571D02*
X161046428Y-201621428D01*
X161689285Y-200978571D02*
X160832142Y-201835714D01*
X162332142Y-202478571D02*
X162332142Y-201478571D01*
X162332142Y-200978571D02*
X162260714Y-201050000D01*
X162332142Y-201121428D01*
X162403571Y-201050000D01*
X162332142Y-200978571D01*
X162332142Y-201121428D01*
X163903571Y-202335714D02*
X163832142Y-202407142D01*
X163617857Y-202478571D01*
X163475000Y-202478571D01*
X163260714Y-202407142D01*
X163117857Y-202264285D01*
X163046428Y-202121428D01*
X162975000Y-201835714D01*
X162975000Y-201621428D01*
X163046428Y-201335714D01*
X163117857Y-201192857D01*
X163260714Y-201050000D01*
X163475000Y-200978571D01*
X163617857Y-200978571D01*
X163832142Y-201050000D01*
X163903571Y-201121428D01*
X165189285Y-202478571D02*
X165189285Y-201692857D01*
X165117857Y-201550000D01*
X164975000Y-201478571D01*
X164689285Y-201478571D01*
X164546428Y-201550000D01*
X165189285Y-202407142D02*
X165046428Y-202478571D01*
X164689285Y-202478571D01*
X164546428Y-202407142D01*
X164475000Y-202264285D01*
X164475000Y-202121428D01*
X164546428Y-201978571D01*
X164689285Y-201907142D01*
X165046428Y-201907142D01*
X165189285Y-201835714D01*
X166546428Y-202478571D02*
X166546428Y-200978571D01*
X166546428Y-202407142D02*
X166403571Y-202478571D01*
X166117857Y-202478571D01*
X165975000Y-202407142D01*
X165903571Y-202335714D01*
X165832142Y-202192857D01*
X165832142Y-201764285D01*
X165903571Y-201621428D01*
X165975000Y-201550000D01*
X166117857Y-201478571D01*
X166403571Y-201478571D01*
X166546428Y-201550000D01*
X168403571Y-201692857D02*
X168903571Y-201692857D01*
X169117857Y-202478571D02*
X168403571Y-202478571D01*
X168403571Y-200978571D01*
X169117857Y-200978571D01*
X169760714Y-202335714D02*
X169832142Y-202407142D01*
X169760714Y-202478571D01*
X169689285Y-202407142D01*
X169760714Y-202335714D01*
X169760714Y-202478571D01*
X170475000Y-202478571D02*
X170475000Y-200978571D01*
X170832142Y-200978571D01*
X171046428Y-201050000D01*
X171189285Y-201192857D01*
X171260714Y-201335714D01*
X171332142Y-201621428D01*
X171332142Y-201835714D01*
X171260714Y-202121428D01*
X171189285Y-202264285D01*
X171046428Y-202407142D01*
X170832142Y-202478571D01*
X170475000Y-202478571D01*
X171975000Y-202335714D02*
X172046428Y-202407142D01*
X171975000Y-202478571D01*
X171903571Y-202407142D01*
X171975000Y-202335714D01*
X171975000Y-202478571D01*
X172617857Y-202050000D02*
X173332142Y-202050000D01*
X172475000Y-202478571D02*
X172975000Y-200978571D01*
X173475000Y-202478571D01*
X173975000Y-202335714D02*
X174046428Y-202407142D01*
X173975000Y-202478571D01*
X173903571Y-202407142D01*
X173975000Y-202335714D01*
X173975000Y-202478571D01*
X176975000Y-202478571D02*
X176975000Y-200978571D01*
X177117857Y-201907142D02*
X177546428Y-202478571D01*
X177546428Y-201478571D02*
X176975000Y-202050000D01*
X178189285Y-202478571D02*
X178189285Y-201478571D01*
X178189285Y-200978571D02*
X178117857Y-201050000D01*
X178189285Y-201121428D01*
X178260714Y-201050000D01*
X178189285Y-200978571D01*
X178189285Y-201121428D01*
X179546428Y-202407142D02*
X179403571Y-202478571D01*
X179117857Y-202478571D01*
X178975000Y-202407142D01*
X178903571Y-202335714D01*
X178832142Y-202192857D01*
X178832142Y-201764285D01*
X178903571Y-201621428D01*
X178975000Y-201550000D01*
X179117857Y-201478571D01*
X179403571Y-201478571D01*
X179546428Y-201550000D01*
X180832142Y-202478571D02*
X180832142Y-201692857D01*
X180760714Y-201550000D01*
X180617857Y-201478571D01*
X180332142Y-201478571D01*
X180189285Y-201550000D01*
X180832142Y-202407142D02*
X180689285Y-202478571D01*
X180332142Y-202478571D01*
X180189285Y-202407142D01*
X180117857Y-202264285D01*
X180117857Y-202121428D01*
X180189285Y-201978571D01*
X180332142Y-201907142D01*
X180689285Y-201907142D01*
X180832142Y-201835714D01*
X182189285Y-202478571D02*
X182189285Y-200978571D01*
X182189285Y-202407142D02*
X182046428Y-202478571D01*
X181760714Y-202478571D01*
X181617857Y-202407142D01*
X181546428Y-202335714D01*
X181475000Y-202192857D01*
X181475000Y-201764285D01*
X181546428Y-201621428D01*
X181617857Y-201550000D01*
X181760714Y-201478571D01*
X182046428Y-201478571D01*
X182189285Y-201550000D01*
X184475000Y-203050000D02*
X184403571Y-202978571D01*
X184260714Y-202764285D01*
X184189285Y-202621428D01*
X184117857Y-202407142D01*
X184046428Y-202050000D01*
X184046428Y-201764285D01*
X184117857Y-201407142D01*
X184189285Y-201192857D01*
X184260714Y-201050000D01*
X184403571Y-200835714D01*
X184475000Y-200764285D01*
X185760714Y-200978571D02*
X185046428Y-200978571D01*
X184975000Y-201692857D01*
X185046428Y-201621428D01*
X185189285Y-201550000D01*
X185546428Y-201550000D01*
X185689285Y-201621428D01*
X185760714Y-201692857D01*
X185832142Y-201835714D01*
X185832142Y-202192857D01*
X185760714Y-202335714D01*
X185689285Y-202407142D01*
X185546428Y-202478571D01*
X185189285Y-202478571D01*
X185046428Y-202407142D01*
X184975000Y-202335714D01*
X186475000Y-202335714D02*
X186546428Y-202407142D01*
X186475000Y-202478571D01*
X186403571Y-202407142D01*
X186475000Y-202335714D01*
X186475000Y-202478571D01*
X187975000Y-202478571D02*
X187117857Y-202478571D01*
X187546428Y-202478571D02*
X187546428Y-200978571D01*
X187403571Y-201192857D01*
X187260714Y-201335714D01*
X187117857Y-201407142D01*
X188617857Y-202335714D02*
X188689285Y-202407142D01*
X188617857Y-202478571D01*
X188546428Y-202407142D01*
X188617857Y-202335714D01*
X188617857Y-202478571D01*
X189189285Y-200978571D02*
X190189285Y-200978571D01*
X189546428Y-202478571D01*
X190617857Y-203050000D02*
X190689285Y-202978571D01*
X190832142Y-202764285D01*
X190903571Y-202621428D01*
X190975000Y-202407142D01*
X191046428Y-202050000D01*
X191046428Y-201764285D01*
X190975000Y-201407142D01*
X190903571Y-201192857D01*
X190832142Y-201050000D01*
X190689285Y-200835714D01*
X190617857Y-200764285D01*
X191760714Y-201907142D02*
X192903571Y-201907142D01*
X194403571Y-202478571D02*
X193546428Y-202478571D01*
X193975000Y-202478571D02*
X193975000Y-200978571D01*
X193832142Y-201192857D01*
X193689285Y-201335714D01*
X193546428Y-201407142D01*
D10*
D11*
X159400000Y-197400000D02*
X267400000Y-197400000D01*
D10*
D12*
X246809285Y-199678571D02*
X246309285Y-198964285D01*
X245952142Y-199678571D02*
X245952142Y-198178571D01*
X246523571Y-198178571D01*
X246666428Y-198250000D01*
X246737857Y-198321428D01*
X246809285Y-198464285D01*
X246809285Y-198678571D01*
X246737857Y-198821428D01*
X246666428Y-198892857D01*
X246523571Y-198964285D01*
X245952142Y-198964285D01*
X248023571Y-199607142D02*
X247880714Y-199678571D01*
X247595000Y-199678571D01*
X247452142Y-199607142D01*
X247380714Y-199464285D01*
X247380714Y-198892857D01*
X247452142Y-198750000D01*
X247595000Y-198678571D01*
X247880714Y-198678571D01*
X248023571Y-198750000D01*
X248095000Y-198892857D01*
X248095000Y-199035714D01*
X247380714Y-199178571D01*
X248595000Y-198678571D02*
X248952142Y-199678571D01*
X249309285Y-198678571D01*
X249880714Y-199535714D02*
X249952142Y-199607142D01*
X249880714Y-199678571D01*
X249809285Y-199607142D01*
X249880714Y-199535714D01*
X249880714Y-199678571D01*
X249880714Y-198750000D02*
X249952142Y-198821428D01*
X249880714Y-198892857D01*
X249809285Y-198821428D01*
X249880714Y-198750000D01*
X249880714Y-198892857D01*
X252023571Y-198178571D02*
X252166428Y-198178571D01*
X252309285Y-198250000D01*
X252380714Y-198321428D01*
X252452142Y-198464285D01*
X252523571Y-198750000D01*
X252523571Y-199107142D01*
X252452142Y-199392857D01*
X252380714Y-199535714D01*
X252309285Y-199607142D01*
X252166428Y-199678571D01*
X252023571Y-199678571D01*
X251880714Y-199607142D01*
X251809285Y-199535714D01*
X251737857Y-199392857D01*
X251666428Y-199107142D01*
X251666428Y-198750000D01*
X251737857Y-198464285D01*
X251809285Y-198321428D01*
X251880714Y-198250000D01*
X252023571Y-198178571D01*
X253166428Y-199535714D02*
X253237857Y-199607142D01*
X253166428Y-199678571D01*
X253095000Y-199607142D01*
X253166428Y-199535714D01*
X253166428Y-199678571D01*
X254166428Y-198178571D02*
X254309285Y-198178571D01*
X254452142Y-198250000D01*
X254523571Y-198321428D01*
X254595000Y-198464285D01*
X254666428Y-198750000D01*
X254666428Y-199107142D01*
X254595000Y-199392857D01*
X254523571Y-199535714D01*
X254452142Y-199607142D01*
X254309285Y-199678571D01*
X254166428Y-199678571D01*
X254023571Y-199607142D01*
X253952142Y-199535714D01*
X253880714Y-199392857D01*
X253809285Y-199107142D01*
X253809285Y-198750000D01*
X253880714Y-198464285D01*
X253952142Y-198321428D01*
X254023571Y-198250000D01*
X254166428Y-198178571D01*
X255309285Y-199535714D02*
X255380714Y-199607142D01*
X255309285Y-199678571D01*
X255237857Y-199607142D01*
X255309285Y-199535714D01*
X255309285Y-199678571D01*
X256309285Y-198178571D02*
X256452142Y-198178571D01*
X256595000Y-198250000D01*
X256666428Y-198321428D01*
X256737857Y-198464285D01*
X256809285Y-198750000D01*
X256809285Y-199107142D01*
X256737857Y-199392857D01*
X256666428Y-199535714D01*
X256595000Y-199607142D01*
X256452142Y-199678571D01*
X256309285Y-199678571D01*
X256166428Y-199607142D01*
X256095000Y-199535714D01*
X256023571Y-199392857D01*
X255952142Y-199107142D01*
X255952142Y-198750000D01*
X256023571Y-198464285D01*
X256095000Y-198321428D01*
X256166428Y-198250000D01*
X256309285Y-198178571D01*
X258237857Y-199678571D02*
X257380714Y-199678571D01*
X257809285Y-199678571D02*
X257809285Y-198178571D01*
X257666428Y-198392857D01*
X257523571Y-198535714D01*
X257380714Y-198607142D01*
D10*
D11*
X160760714Y-199607142D02*
X160975000Y-199678571D01*
X161332142Y-199678571D01*
X161475000Y-199607142D01*
X161546428Y-199535714D01*
X161617857Y-199392857D01*
X161617857Y-199250000D01*
X161546428Y-199107142D01*
X161475000Y-199035714D01*
X161332142Y-198964285D01*
X161046428Y-198892857D01*
X160903571Y-198821428D01*
X160832142Y-198750000D01*
X160760714Y-198607142D01*
X160760714Y-198464285D01*
X160832142Y-198321428D01*
X160903571Y-198250000D01*
X161046428Y-198178571D01*
X161403571Y-198178571D01*
X161617857Y-198250000D01*
X162260714Y-199678571D02*
X162260714Y-198678571D01*
X162260714Y-198178571D02*
X162189285Y-198250000D01*
X162260714Y-198321428D01*
X162332142Y-198250000D01*
X162260714Y-198178571D01*
X162260714Y-198321428D01*
X162832142Y-198678571D02*
X163617857Y-198678571D01*
X162832142Y-199678571D01*
X163617857Y-199678571D01*
X164760714Y-199607142D02*
X164617857Y-199678571D01*
X164332142Y-199678571D01*
X164189285Y-199607142D01*
X164117857Y-199464285D01*
X164117857Y-198892857D01*
X164189285Y-198750000D01*
X164332142Y-198678571D01*
X164617857Y-198678571D01*
X164760714Y-198750000D01*
X164832142Y-198892857D01*
X164832142Y-199035714D01*
X164117857Y-199178571D01*
X165475000Y-199535714D02*
X165546428Y-199607142D01*
X165475000Y-199678571D01*
X165403571Y-199607142D01*
X165475000Y-199535714D01*
X165475000Y-199678571D01*
X165475000Y-198750000D02*
X165546428Y-198821428D01*
X165475000Y-198892857D01*
X165403571Y-198821428D01*
X165475000Y-198750000D01*
X165475000Y-198892857D01*
X167332142Y-198178571D02*
X167332142Y-199392857D01*
X167403571Y-199535714D01*
X167475000Y-199607142D01*
X167617857Y-199678571D01*
X167903571Y-199678571D01*
X168046428Y-199607142D01*
X168117857Y-199535714D01*
X168189285Y-199392857D01*
X168189285Y-198178571D01*
X168832142Y-199607142D02*
X169046428Y-199678571D01*
X169403571Y-199678571D01*
X169546428Y-199607142D01*
X169617857Y-199535714D01*
X169689285Y-199392857D01*
X169689285Y-199250000D01*
X169617857Y-199107142D01*
X169546428Y-199035714D01*
X169403571Y-198964285D01*
X169117857Y-198892857D01*
X168975000Y-198821428D01*
X168903571Y-198750000D01*
X168832142Y-198607142D01*
X168832142Y-198464285D01*
X168903571Y-198321428D01*
X168975000Y-198250000D01*
X169117857Y-198178571D01*
X169475000Y-198178571D01*
X169689285Y-198250000D01*
X171046428Y-199678571D02*
X170332142Y-199678571D01*
X170332142Y-198178571D01*
X172117857Y-199607142D02*
X171975000Y-199678571D01*
X171689285Y-199678571D01*
X171546428Y-199607142D01*
X171475000Y-199464285D01*
X171475000Y-198892857D01*
X171546428Y-198750000D01*
X171689285Y-198678571D01*
X171975000Y-198678571D01*
X172117857Y-198750000D01*
X172189285Y-198892857D01*
X172189285Y-199035714D01*
X171475000Y-199178571D01*
X172617857Y-198678571D02*
X173189285Y-198678571D01*
X172832142Y-198178571D02*
X172832142Y-199464285D01*
X172903571Y-199607142D01*
X173046428Y-199678571D01*
X173189285Y-199678571D01*
X173475000Y-198678571D02*
X174046428Y-198678571D01*
X173689285Y-198178571D02*
X173689285Y-199464285D01*
X173760714Y-199607142D01*
X173903571Y-199678571D01*
X174046428Y-199678571D01*
X175117857Y-199607142D02*
X174975000Y-199678571D01*
X174689285Y-199678571D01*
X174546428Y-199607142D01*
X174475000Y-199464285D01*
X174475000Y-198892857D01*
X174546428Y-198750000D01*
X174689285Y-198678571D01*
X174975000Y-198678571D01*
X175117857Y-198750000D01*
X175189285Y-198892857D01*
X175189285Y-199035714D01*
X174475000Y-199178571D01*
X175832142Y-199678571D02*
X175832142Y-198678571D01*
X175832142Y-198964285D02*
X175903571Y-198821428D01*
X175975000Y-198750000D01*
X176117857Y-198678571D01*
X176260714Y-198678571D01*
D10*
D11*
X245832142Y-202478571D02*
X245832142Y-200978571D01*
X247189285Y-202478571D02*
X247189285Y-200978571D01*
X247189285Y-202407142D02*
X247046428Y-202478571D01*
X246760714Y-202478571D01*
X246617857Y-202407142D01*
X246546428Y-202335714D01*
X246475000Y-202192857D01*
X246475000Y-201764285D01*
X246546428Y-201621428D01*
X246617857Y-201550000D01*
X246760714Y-201478571D01*
X247046428Y-201478571D01*
X247189285Y-201550000D01*
X247903571Y-202335714D02*
X247975000Y-202407142D01*
X247903571Y-202478571D01*
X247832142Y-202407142D01*
X247903571Y-202335714D01*
X247903571Y-202478571D01*
X247903571Y-201550000D02*
X247975000Y-201621428D01*
X247903571Y-201692857D01*
X247832142Y-201621428D01*
X247903571Y-201550000D01*
X247903571Y-201692857D01*
X250546428Y-202478571D02*
X249689285Y-202478571D01*
X250117857Y-202478571D02*
X250117857Y-200978571D01*
X249975000Y-201192857D01*
X249832142Y-201335714D01*
X249689285Y-201407142D01*
X252260714Y-200907142D02*
X250975000Y-202835714D01*
X253546428Y-202478571D02*
X252689285Y-202478571D01*
X253117857Y-202478571D02*
X253117857Y-200978571D01*
X252975000Y-201192857D01*
X252832142Y-201335714D01*
X252689285Y-201407142D01*
D10*
D11*
X159400000Y-193400000D02*
X267400000Y-193400000D01*
D10*
D13*
X161112380Y-194104761D02*
X162255238Y-194104761D01*
X161433809Y-196104761D02*
X161683809Y-194104761D01*
X162671904Y-196104761D02*
X162838571Y-194771428D01*
X162921904Y-194104761D02*
X162814761Y-194200000D01*
X162898095Y-194295238D01*
X163005238Y-194200000D01*
X162921904Y-194104761D01*
X162898095Y-194295238D01*
X163505238Y-194771428D02*
X164267142Y-194771428D01*
X163874285Y-194104761D02*
X163660000Y-195819047D01*
X163731428Y-196009523D01*
X163910000Y-196104761D01*
X164100476Y-196104761D01*
X165052857Y-196104761D02*
X164874285Y-196009523D01*
X164802857Y-195819047D01*
X165017142Y-194104761D01*
X166588571Y-196009523D02*
X166386190Y-196104761D01*
X166005238Y-196104761D01*
X165826666Y-196009523D01*
X165755238Y-195819047D01*
X165850476Y-195057142D01*
X165969523Y-194866666D01*
X166171904Y-194771428D01*
X166552857Y-194771428D01*
X166731428Y-194866666D01*
X166802857Y-195057142D01*
X166779047Y-195247619D01*
X165802857Y-195438095D01*
X167552857Y-195914285D02*
X167636190Y-196009523D01*
X167529047Y-196104761D01*
X167445714Y-196009523D01*
X167552857Y-195914285D01*
X167529047Y-196104761D01*
X167683809Y-194866666D02*
X167767142Y-194961904D01*
X167660000Y-195057142D01*
X167576666Y-194961904D01*
X167683809Y-194866666D01*
X167660000Y-195057142D01*
X171171904Y-195914285D02*
X171064761Y-196009523D01*
X170767142Y-196104761D01*
X170576666Y-196104761D01*
X170302857Y-196009523D01*
X170136190Y-195819047D01*
X170064761Y-195628571D01*
X170017142Y-195247619D01*
X170052857Y-194961904D01*
X170195714Y-194580952D01*
X170314761Y-194390476D01*
X170529047Y-194200000D01*
X170826666Y-194104761D01*
X171017142Y-194104761D01*
X171290952Y-194200000D01*
X171374285Y-194295238D01*
X171981428Y-195533333D02*
X172933809Y-195533333D01*
X171719523Y-196104761D02*
X172636190Y-194104761D01*
X173052857Y-196104761D01*
X173719523Y-196104761D02*
X173969523Y-194104761D01*
X174862380Y-196104761D01*
X175112380Y-194104761D01*
X175981428Y-194771428D02*
X175814761Y-196104761D01*
X175957619Y-194961904D02*
X176064761Y-194866666D01*
X176267142Y-194771428D01*
X176552857Y-194771428D01*
X176731428Y-194866666D01*
X176802857Y-195057142D01*
X176671904Y-196104761D01*
X178398095Y-196009523D02*
X178195714Y-196104761D01*
X177814761Y-196104761D01*
X177636190Y-196009523D01*
X177564761Y-195819047D01*
X177660000Y-195057142D01*
X177779047Y-194866666D01*
X177981428Y-194771428D01*
X178362380Y-194771428D01*
X178540952Y-194866666D01*
X178612380Y-195057142D01*
X178588571Y-195247619D01*
X177612380Y-195438095D01*
X180207619Y-196009523D02*
X180005238Y-196104761D01*
X179624285Y-196104761D01*
X179445714Y-196009523D01*
X179362380Y-195914285D01*
X179290952Y-195723809D01*
X179362380Y-195152380D01*
X179481428Y-194961904D01*
X179588571Y-194866666D01*
X179790952Y-194771428D01*
X180171904Y-194771428D01*
X180350476Y-194866666D01*
X180933809Y-194771428D02*
X181695714Y-194771428D01*
X181302857Y-194104761D02*
X181088571Y-195819047D01*
X181160000Y-196009523D01*
X181338571Y-196104761D01*
X181529047Y-196104761D01*
X184862380Y-196104761D02*
X184314761Y-195152380D01*
X183719523Y-196104761D02*
X183969523Y-194104761D01*
X184731428Y-194104761D01*
X184910000Y-194200000D01*
X184993333Y-194295238D01*
X185064761Y-194485714D01*
X185029047Y-194771428D01*
X184910000Y-194961904D01*
X184802857Y-195057142D01*
X184600476Y-195152380D01*
X183838571Y-195152380D01*
X186493333Y-196009523D02*
X186290952Y-196104761D01*
X185910000Y-196104761D01*
X185731428Y-196009523D01*
X185660000Y-195819047D01*
X185755238Y-195057142D01*
X185874285Y-194866666D01*
X186076666Y-194771428D01*
X186457619Y-194771428D01*
X186636190Y-194866666D01*
X186707619Y-195057142D01*
X186683809Y-195247619D01*
X185707619Y-195438095D01*
X188290952Y-196104761D02*
X188421904Y-195057142D01*
X188350476Y-194866666D01*
X188171904Y-194771428D01*
X187790952Y-194771428D01*
X187588571Y-194866666D01*
X188302857Y-196009523D02*
X188100476Y-196104761D01*
X187624285Y-196104761D01*
X187445714Y-196009523D01*
X187374285Y-195819047D01*
X187398095Y-195628571D01*
X187517142Y-195438095D01*
X187719523Y-195342857D01*
X188195714Y-195342857D01*
X188398095Y-195247619D01*
X190100476Y-196104761D02*
X190350476Y-194104761D01*
X190112380Y-196009523D02*
X189910000Y-196104761D01*
X189529047Y-196104761D01*
X189350476Y-196009523D01*
X189267142Y-195914285D01*
X189195714Y-195723809D01*
X189267142Y-195152380D01*
X189386190Y-194961904D01*
X189493333Y-194866666D01*
X189695714Y-194771428D01*
X190076666Y-194771428D01*
X190255238Y-194866666D01*
X191826666Y-196009523D02*
X191624285Y-196104761D01*
X191243333Y-196104761D01*
X191064761Y-196009523D01*
X190993333Y-195819047D01*
X191088571Y-195057142D01*
X191207619Y-194866666D01*
X191410000Y-194771428D01*
X191790952Y-194771428D01*
X191969523Y-194866666D01*
X192040952Y-195057142D01*
X192017142Y-195247619D01*
X191040952Y-195438095D01*
X192767142Y-196104761D02*
X192933809Y-194771428D01*
X192886190Y-195152380D02*
X193005238Y-194961904D01*
X193112380Y-194866666D01*
X193314761Y-194771428D01*
X193505238Y-194771428D01*
X195529047Y-196104761D02*
X195779047Y-194104761D01*
X196540952Y-194104761D01*
X196719523Y-194200000D01*
X196802857Y-194295238D01*
X196874285Y-194485714D01*
X196838571Y-194771428D01*
X196719523Y-194961904D01*
X196612380Y-195057142D01*
X196410000Y-195152380D01*
X195648095Y-195152380D01*
X198695714Y-195914285D02*
X198588571Y-196009523D01*
X198290952Y-196104761D01*
X198100476Y-196104761D01*
X197826666Y-196009523D01*
X197660000Y-195819047D01*
X197588571Y-195628571D01*
X197540952Y-195247619D01*
X197576666Y-194961904D01*
X197719523Y-194580952D01*
X197838571Y-194390476D01*
X198052857Y-194200000D01*
X198350476Y-194104761D01*
X198540952Y-194104761D01*
X198814761Y-194200000D01*
X198898095Y-194295238D01*
X200326666Y-195057142D02*
X200600476Y-195152380D01*
X200683809Y-195247619D01*
X200755238Y-195438095D01*
X200719523Y-195723809D01*
X200600476Y-195914285D01*
X200493333Y-196009523D01*
X200290952Y-196104761D01*
X199529047Y-196104761D01*
X199779047Y-194104761D01*
X200445714Y-194104761D01*
X200624285Y-194200000D01*
X200707619Y-194295238D01*
X200779047Y-194485714D01*
X200755238Y-194676190D01*
X200636190Y-194866666D01*
X200529047Y-194961904D01*
X200326666Y-195057142D01*
X199660000Y-195057142D01*
X204005238Y-196104761D02*
X203052857Y-196104761D01*
X203302857Y-194104761D01*
X205529047Y-196104761D02*
X205660000Y-195057142D01*
X205588571Y-194866666D01*
X205410000Y-194771428D01*
X205029047Y-194771428D01*
X204826666Y-194866666D01*
X205540952Y-196009523D02*
X205338571Y-196104761D01*
X204862380Y-196104761D01*
X204683809Y-196009523D01*
X204612380Y-195819047D01*
X204636190Y-195628571D01*
X204755238Y-195438095D01*
X204957619Y-195342857D01*
X205433809Y-195342857D01*
X205636190Y-195247619D01*
X206457619Y-194771428D02*
X206767142Y-196104761D01*
X207410000Y-194771428D02*
X206767142Y-196104761D01*
X206517142Y-196580952D01*
X206410000Y-196676190D01*
X206207619Y-196771428D01*
X208290952Y-196104761D02*
X208112380Y-196009523D01*
X208029047Y-195914285D01*
X207957619Y-195723809D01*
X208029047Y-195152380D01*
X208148095Y-194961904D01*
X208255238Y-194866666D01*
X208457619Y-194771428D01*
X208743333Y-194771428D01*
X208921904Y-194866666D01*
X209005238Y-194961904D01*
X209076666Y-195152380D01*
X209005238Y-195723809D01*
X208886190Y-195914285D01*
X208779047Y-196009523D01*
X208576666Y-196104761D01*
X208290952Y-196104761D01*
X210838571Y-194771428D02*
X210671904Y-196104761D01*
X209981428Y-194771428D02*
X209850476Y-195819047D01*
X209921904Y-196009523D01*
X210100476Y-196104761D01*
X210386190Y-196104761D01*
X210588571Y-196009523D01*
X210695714Y-195914285D01*
X211505238Y-194771428D02*
X212267142Y-194771428D01*
X211874285Y-194104761D02*
X211659999Y-195819047D01*
X211731428Y-196009523D01*
X211909999Y-196104761D01*
X212100476Y-196104761D01*
D10*
D11*
X161332142Y-191492857D02*
X160832142Y-191492857D01*
X160832142Y-192278571D02*
X160832142Y-190778571D01*
X161546428Y-190778571D01*
X162117857Y-192278571D02*
X162117857Y-191278571D01*
X162117857Y-190778571D02*
X162046428Y-190850000D01*
X162117857Y-190921428D01*
X162189285Y-190850000D01*
X162117857Y-190778571D01*
X162117857Y-190921428D01*
X163046428Y-192278571D02*
X162903571Y-192207142D01*
X162832142Y-192064285D01*
X162832142Y-190778571D01*
X164189285Y-192207142D02*
X164046428Y-192278571D01*
X163760714Y-192278571D01*
X163617857Y-192207142D01*
X163546428Y-192064285D01*
X163546428Y-191492857D01*
X163617857Y-191350000D01*
X163760714Y-191278571D01*
X164046428Y-191278571D01*
X164189285Y-191350000D01*
X164260714Y-191492857D01*
X164260714Y-191635714D01*
X163546428Y-191778571D01*
X164903571Y-192135714D02*
X164975000Y-192207142D01*
X164903571Y-192278571D01*
X164832142Y-192207142D01*
X164903571Y-192135714D01*
X164903571Y-192278571D01*
X164903571Y-191350000D02*
X164975000Y-191421428D01*
X164903571Y-191492857D01*
X164832142Y-191421428D01*
X164903571Y-191350000D01*
X164903571Y-191492857D01*
X167617857Y-192278571D02*
X167117857Y-191564285D01*
X166760714Y-192278571D02*
X166760714Y-190778571D01*
X167332142Y-190778571D01*
X167475000Y-190850000D01*
X167546428Y-190921428D01*
X167617857Y-191064285D01*
X167617857Y-191278571D01*
X167546428Y-191421428D01*
X167475000Y-191492857D01*
X167332142Y-191564285D01*
X166760714Y-191564285D01*
X168832142Y-192207142D02*
X168689285Y-192278571D01*
X168403571Y-192278571D01*
X168260714Y-192207142D01*
X168189285Y-192064285D01*
X168189285Y-191492857D01*
X168260714Y-191350000D01*
X168403571Y-191278571D01*
X168689285Y-191278571D01*
X168832142Y-191350000D01*
X168903571Y-191492857D01*
X168903571Y-191635714D01*
X168189285Y-191778571D01*
X170189285Y-192278571D02*
X170189285Y-191492857D01*
X170117857Y-191350000D01*
X169975000Y-191278571D01*
X169689285Y-191278571D01*
X169546428Y-191350000D01*
X170189285Y-192207142D02*
X170046428Y-192278571D01*
X169689285Y-192278571D01*
X169546428Y-192207142D01*
X169475000Y-192064285D01*
X169475000Y-191921428D01*
X169546428Y-191778571D01*
X169689285Y-191707142D01*
X170046428Y-191707142D01*
X170189285Y-191635714D01*
X171546428Y-192278571D02*
X171546428Y-190778571D01*
X171546428Y-192207142D02*
X171403571Y-192278571D01*
X171117857Y-192278571D01*
X170975000Y-192207142D01*
X170903571Y-192135714D01*
X170832142Y-191992857D01*
X170832142Y-191564285D01*
X170903571Y-191421428D01*
X170975000Y-191350000D01*
X171117857Y-191278571D01*
X171403571Y-191278571D01*
X171546428Y-191350000D01*
X172832142Y-192207142D02*
X172689285Y-192278571D01*
X172403571Y-192278571D01*
X172260714Y-192207142D01*
X172189285Y-192064285D01*
X172189285Y-191492857D01*
X172260714Y-191350000D01*
X172403571Y-191278571D01*
X172689285Y-191278571D01*
X172832142Y-191350000D01*
X172903571Y-191492857D01*
X172903571Y-191635714D01*
X172189285Y-191778571D01*
X173546428Y-192278571D02*
X173546428Y-191278571D01*
X173546428Y-191564285D02*
X173617857Y-191421428D01*
X173689285Y-191350000D01*
X173832142Y-191278571D01*
X173975000Y-191278571D01*
X174475000Y-192135714D02*
X174546428Y-192207142D01*
X174475000Y-192278571D01*
X174403571Y-192207142D01*
X174475000Y-192135714D01*
X174475000Y-192278571D01*
X175189285Y-192278571D02*
X175189285Y-190778571D01*
X175332142Y-191707142D02*
X175760714Y-192278571D01*
X175760714Y-191278571D02*
X175189285Y-191850000D01*
X176403571Y-192278571D02*
X176403571Y-191278571D01*
X176403571Y-190778571D02*
X176332142Y-190850000D01*
X176403571Y-190921428D01*
X176475000Y-190850000D01*
X176403571Y-190778571D01*
X176403571Y-190921428D01*
X177760714Y-192207142D02*
X177617857Y-192278571D01*
X177332142Y-192278571D01*
X177189285Y-192207142D01*
X177117857Y-192135714D01*
X177046428Y-191992857D01*
X177046428Y-191564285D01*
X177117857Y-191421428D01*
X177189285Y-191350000D01*
X177332142Y-191278571D01*
X177617857Y-191278571D01*
X177760714Y-191350000D01*
X179046428Y-192278571D02*
X179046428Y-191492857D01*
X178975000Y-191350000D01*
X178832142Y-191278571D01*
X178546428Y-191278571D01*
X178403571Y-191350000D01*
X179046428Y-192207142D02*
X178903571Y-192278571D01*
X178546428Y-192278571D01*
X178403571Y-192207142D01*
X178332142Y-192064285D01*
X178332142Y-191921428D01*
X178403571Y-191778571D01*
X178546428Y-191707142D01*
X178903571Y-191707142D01*
X179046428Y-191635714D01*
X180403571Y-192278571D02*
X180403571Y-190778571D01*
X180403571Y-192207142D02*
X180260714Y-192278571D01*
X179975000Y-192278571D01*
X179832142Y-192207142D01*
X179760714Y-192135714D01*
X179689285Y-191992857D01*
X179689285Y-191564285D01*
X179760714Y-191421428D01*
X179832142Y-191350000D01*
X179975000Y-191278571D01*
X180260714Y-191278571D01*
X180403571Y-191350000D01*
X180760714Y-192421428D02*
X181903571Y-192421428D01*
X182260714Y-191278571D02*
X182260714Y-192778571D01*
X182260714Y-191350000D02*
X182403571Y-191278571D01*
X182689285Y-191278571D01*
X182832142Y-191350000D01*
X182903571Y-191421428D01*
X182975000Y-191564285D01*
X182975000Y-191992857D01*
X182903571Y-192135714D01*
X182832142Y-192207142D01*
X182689285Y-192278571D01*
X182403571Y-192278571D01*
X182260714Y-192207142D01*
X184260714Y-192207142D02*
X184117857Y-192278571D01*
X183832142Y-192278571D01*
X183689285Y-192207142D01*
X183617857Y-192135714D01*
X183546428Y-191992857D01*
X183546428Y-191564285D01*
X183617857Y-191421428D01*
X183689285Y-191350000D01*
X183832142Y-191278571D01*
X184117857Y-191278571D01*
X184260714Y-191350000D01*
X184903571Y-192278571D02*
X184903571Y-190778571D01*
X184903571Y-191350000D02*
X185046428Y-191278571D01*
X185332142Y-191278571D01*
X185475000Y-191350000D01*
X185546428Y-191421428D01*
X185617857Y-191564285D01*
X185617857Y-191992857D01*
X185546428Y-192135714D01*
X185475000Y-192207142D01*
X185332142Y-192278571D01*
X185046428Y-192278571D01*
X184903571Y-192207142D01*
D10*
D11*
X159400000Y-187400000D02*
X267400000Y-187400000D01*
D10*
D11*
X160760714Y-189507142D02*
X160975000Y-189578571D01*
X161332142Y-189578571D01*
X161475000Y-189507142D01*
X161546428Y-189435714D01*
X161617857Y-189292857D01*
X161617857Y-189150000D01*
X161546428Y-189007142D01*
X161475000Y-188935714D01*
X161332142Y-188864285D01*
X161046428Y-188792857D01*
X160903571Y-188721428D01*
X160832142Y-188650000D01*
X160760714Y-188507142D01*
X160760714Y-188364285D01*
X160832142Y-188221428D01*
X160903571Y-188150000D01*
X161046428Y-188078571D01*
X161403571Y-188078571D01*
X161617857Y-188150000D01*
X162260714Y-189578571D02*
X162260714Y-188078571D01*
X162903571Y-189578571D02*
X162903571Y-188792857D01*
X162832142Y-188650000D01*
X162689285Y-188578571D01*
X162475000Y-188578571D01*
X162332142Y-188650000D01*
X162260714Y-188721428D01*
X164189285Y-189507142D02*
X164046428Y-189578571D01*
X163760714Y-189578571D01*
X163617857Y-189507142D01*
X163546428Y-189364285D01*
X163546428Y-188792857D01*
X163617857Y-188650000D01*
X163760714Y-188578571D01*
X164046428Y-188578571D01*
X164189285Y-188650000D01*
X164260714Y-188792857D01*
X164260714Y-188935714D01*
X163546428Y-189078571D01*
X165475000Y-189507142D02*
X165332142Y-189578571D01*
X165046428Y-189578571D01*
X164903571Y-189507142D01*
X164832142Y-189364285D01*
X164832142Y-188792857D01*
X164903571Y-188650000D01*
X165046428Y-188578571D01*
X165332142Y-188578571D01*
X165475000Y-188650000D01*
X165546428Y-188792857D01*
X165546428Y-188935714D01*
X164832142Y-189078571D01*
X165975000Y-188578571D02*
X166546428Y-188578571D01*
X166189285Y-188078571D02*
X166189285Y-189364285D01*
X166260714Y-189507142D01*
X166403571Y-189578571D01*
X166546428Y-189578571D01*
X167046428Y-189435714D02*
X167117857Y-189507142D01*
X167046428Y-189578571D01*
X166975000Y-189507142D01*
X167046428Y-189435714D01*
X167046428Y-189578571D01*
X167046428Y-188650000D02*
X167117857Y-188721428D01*
X167046428Y-188792857D01*
X166975000Y-188721428D01*
X167046428Y-188650000D01*
X167046428Y-188792857D01*
D10*
D12*
X161809285Y-186435714D02*
X161737857Y-186507142D01*
X161523571Y-186578571D01*
X161380714Y-186578571D01*
X161166428Y-186507142D01*
X161023571Y-186364285D01*
X160952142Y-186221428D01*
X160880714Y-185935714D01*
X160880714Y-185721428D01*
X160952142Y-185435714D01*
X161023571Y-185292857D01*
X161166428Y-185150000D01*
X161380714Y-185078571D01*
X161523571Y-185078571D01*
X161737857Y-185150000D01*
X161809285Y-185221428D01*
X162380714Y-186150000D02*
X163095000Y-186150000D01*
X162237857Y-186578571D02*
X162737857Y-185078571D01*
X163237857Y-186578571D01*
X163737857Y-186578571D02*
X163737857Y-185078571D01*
X164595000Y-186578571D01*
X164595000Y-185078571D01*
X165095000Y-185578571D02*
X165666428Y-185578571D01*
X165309285Y-185078571D02*
X165309285Y-186364285D01*
X165380714Y-186507142D01*
X165523571Y-186578571D01*
X165666428Y-186578571D01*
X166737857Y-186507142D02*
X166595000Y-186578571D01*
X166309285Y-186578571D01*
X166166428Y-186507142D01*
X166095000Y-186364285D01*
X166095000Y-185792857D01*
X166166428Y-185650000D01*
X166309285Y-185578571D01*
X166595000Y-185578571D01*
X166737857Y-185650000D01*
X166809285Y-185792857D01*
X166809285Y-185935714D01*
X166095000Y-186078571D01*
X168095000Y-186507142D02*
X167952142Y-186578571D01*
X167666428Y-186578571D01*
X167523571Y-186507142D01*
X167452142Y-186435714D01*
X167380714Y-186292857D01*
X167380714Y-185864285D01*
X167452142Y-185721428D01*
X167523571Y-185650000D01*
X167666428Y-185578571D01*
X167952142Y-185578571D01*
X168095000Y-185650000D01*
X168737857Y-186578571D02*
X168737857Y-185078571D01*
X169380714Y-186578571D02*
X169380714Y-185792857D01*
X169309285Y-185650000D01*
X169166428Y-185578571D01*
X168952142Y-185578571D01*
X168809285Y-185650000D01*
X168737857Y-185721428D01*
D10*
D11*
X161689285Y-183435714D02*
X161617857Y-183507142D01*
X161403571Y-183578571D01*
X161260714Y-183578571D01*
X161046428Y-183507142D01*
X160903571Y-183364285D01*
X160832142Y-183221428D01*
X160760714Y-182935714D01*
X160760714Y-182721428D01*
X160832142Y-182435714D01*
X160903571Y-182292857D01*
X161046428Y-182150000D01*
X161260714Y-182078571D01*
X161403571Y-182078571D01*
X161617857Y-182150000D01*
X161689285Y-182221428D01*
X162332142Y-183578571D02*
X162332142Y-182578571D01*
X162332142Y-182864285D02*
X162403571Y-182721428D01*
X162475000Y-182650000D01*
X162617857Y-182578571D01*
X162760714Y-182578571D01*
X163832142Y-183507142D02*
X163689285Y-183578571D01*
X163403571Y-183578571D01*
X163260714Y-183507142D01*
X163189285Y-183364285D01*
X163189285Y-182792857D01*
X163260714Y-182650000D01*
X163403571Y-182578571D01*
X163689285Y-182578571D01*
X163832142Y-182650000D01*
X163903571Y-182792857D01*
X163903571Y-182935714D01*
X163189285Y-183078571D01*
X165189285Y-183578571D02*
X165189285Y-182792857D01*
X165117857Y-182650000D01*
X164975000Y-182578571D01*
X164689285Y-182578571D01*
X164546428Y-182650000D01*
X165189285Y-183507142D02*
X165046428Y-183578571D01*
X164689285Y-183578571D01*
X164546428Y-183507142D01*
X164475000Y-183364285D01*
X164475000Y-183221428D01*
X164546428Y-183078571D01*
X164689285Y-183007142D01*
X165046428Y-183007142D01*
X165189285Y-182935714D01*
X165689285Y-182578571D02*
X166260714Y-182578571D01*
X165903571Y-182078571D02*
X165903571Y-183364285D01*
X165975000Y-183507142D01*
X166117857Y-183578571D01*
X166260714Y-183578571D01*
X167332142Y-183507142D02*
X167189285Y-183578571D01*
X166903571Y-183578571D01*
X166760714Y-183507142D01*
X166689285Y-183364285D01*
X166689285Y-182792857D01*
X166760714Y-182650000D01*
X166903571Y-182578571D01*
X167189285Y-182578571D01*
X167332142Y-182650000D01*
X167403571Y-182792857D01*
X167403571Y-182935714D01*
X166689285Y-183078571D01*
X168689285Y-183578571D02*
X168689285Y-182078571D01*
X168689285Y-183507142D02*
X168546428Y-183578571D01*
X168260714Y-183578571D01*
X168117857Y-183507142D01*
X168046428Y-183435714D01*
X167975000Y-183292857D01*
X167975000Y-182864285D01*
X168046428Y-182721428D01*
X168117857Y-182650000D01*
X168260714Y-182578571D01*
X168546428Y-182578571D01*
X168689285Y-182650000D01*
X170546428Y-183578571D02*
X170546428Y-182078571D01*
X170546428Y-182650000D02*
X170689285Y-182578571D01*
X170975000Y-182578571D01*
X171117857Y-182650000D01*
X171189285Y-182721428D01*
X171260714Y-182864285D01*
X171260714Y-183292857D01*
X171189285Y-183435714D01*
X171117857Y-183507142D01*
X170975000Y-183578571D01*
X170689285Y-183578571D01*
X170546428Y-183507142D01*
X171760714Y-182578571D02*
X172117857Y-183578571D01*
X172475000Y-182578571D02*
X172117857Y-183578571D01*
X171975000Y-183935714D01*
X171903571Y-184007142D01*
X171760714Y-184078571D01*
X175046428Y-183435714D02*
X174975000Y-183507142D01*
X174760714Y-183578571D01*
X174617857Y-183578571D01*
X174403571Y-183507142D01*
X174260714Y-183364285D01*
X174189285Y-183221428D01*
X174117857Y-182935714D01*
X174117857Y-182721428D01*
X174189285Y-182435714D01*
X174260714Y-182292857D01*
X174403571Y-182150000D01*
X174617857Y-182078571D01*
X174760714Y-182078571D01*
X174975000Y-182150000D01*
X175046428Y-182221428D01*
X175689285Y-183578571D02*
X175689285Y-182078571D01*
X176332142Y-183578571D02*
X176332142Y-182792857D01*
X176260714Y-182650000D01*
X176117857Y-182578571D01*
X175903571Y-182578571D01*
X175760714Y-182650000D01*
X175689285Y-182721428D01*
X177260714Y-183578571D02*
X177117857Y-183507142D01*
X177046428Y-183435714D01*
X176975000Y-183292857D01*
X176975000Y-182864285D01*
X177046428Y-182721428D01*
X177117857Y-182650000D01*
X177260714Y-182578571D01*
X177475000Y-182578571D01*
X177617857Y-182650000D01*
X177689285Y-182721428D01*
X177760714Y-182864285D01*
X177760714Y-183292857D01*
X177689285Y-183435714D01*
X177617857Y-183507142D01*
X177475000Y-183578571D01*
X177260714Y-183578571D01*
X178617857Y-183578571D02*
X178475000Y-183507142D01*
X178403571Y-183435714D01*
X178332142Y-183292857D01*
X178332142Y-182864285D01*
X178403571Y-182721428D01*
X178475000Y-182650000D01*
X178617857Y-182578571D01*
X178832142Y-182578571D01*
X178975000Y-182650000D01*
X179046428Y-182721428D01*
X179117857Y-182864285D01*
X179117857Y-183292857D01*
X179046428Y-183435714D01*
X178975000Y-183507142D01*
X178832142Y-183578571D01*
X178617857Y-183578571D01*
X179760714Y-182578571D02*
X179760714Y-183578571D01*
X179760714Y-182721428D02*
X179832142Y-182650000D01*
X179975000Y-182578571D01*
X180189285Y-182578571D01*
X180332142Y-182650000D01*
X180403571Y-182792857D01*
X180403571Y-183578571D01*
X181760714Y-182578571D02*
X181760714Y-183792857D01*
X181689285Y-183935714D01*
X181617857Y-184007142D01*
X181475000Y-184078571D01*
X181260714Y-184078571D01*
X181117857Y-184007142D01*
X181760714Y-183507142D02*
X181617857Y-183578571D01*
X181332142Y-183578571D01*
X181189285Y-183507142D01*
X181117857Y-183435714D01*
X181046428Y-183292857D01*
X181046428Y-182864285D01*
X181117857Y-182721428D01*
X181189285Y-182650000D01*
X181332142Y-182578571D01*
X181617857Y-182578571D01*
X181760714Y-182650000D01*
X184046428Y-182078571D02*
X184046428Y-183150000D01*
X183975000Y-183364285D01*
X183832142Y-183507142D01*
X183617857Y-183578571D01*
X183475000Y-183578571D01*
X184760714Y-183578571D02*
X184760714Y-182578571D01*
X184760714Y-182078571D02*
X184689285Y-182150000D01*
X184760714Y-182221428D01*
X184832142Y-182150000D01*
X184760714Y-182078571D01*
X184760714Y-182221428D01*
X185475000Y-182578571D02*
X185475000Y-183578571D01*
X185475000Y-182721428D02*
X185546428Y-182650000D01*
X185689285Y-182578571D01*
X185903571Y-182578571D01*
X186046428Y-182650000D01*
X186117857Y-182792857D01*
X186117857Y-183578571D01*
X187975000Y-183578571D02*
X187975000Y-182078571D01*
X188832142Y-183578571D01*
X188832142Y-182078571D01*
X190189285Y-182578571D02*
X190189285Y-183792857D01*
X190117857Y-183935714D01*
X190046428Y-184007142D01*
X189903571Y-184078571D01*
X189689285Y-184078571D01*
X189546428Y-184007142D01*
X190189285Y-183507142D02*
X190046428Y-183578571D01*
X189760714Y-183578571D01*
X189617857Y-183507142D01*
X189546428Y-183435714D01*
X189475000Y-183292857D01*
X189475000Y-182864285D01*
X189546428Y-182721428D01*
X189617857Y-182650000D01*
X189760714Y-182578571D01*
X190046428Y-182578571D01*
X190189285Y-182650000D01*
X192403571Y-184078571D02*
X192403571Y-181935714D01*
X194617857Y-182578571D02*
X194617857Y-183864285D01*
X194546428Y-184007142D01*
X194403571Y-184078571D01*
X194332142Y-184078571D01*
X194617857Y-182078571D02*
X194546428Y-182150000D01*
X194617857Y-182221428D01*
X194689285Y-182150000D01*
X194617857Y-182078571D01*
X194617857Y-182221428D01*
X195332142Y-183578571D02*
X195332142Y-182578571D01*
X195332142Y-182078571D02*
X195260714Y-182150000D01*
X195332142Y-182221428D01*
X195403571Y-182150000D01*
X195332142Y-182078571D01*
X195332142Y-182221428D01*
X196046428Y-182578571D02*
X196046428Y-183578571D01*
X196046428Y-182721428D02*
X196117857Y-182650000D01*
X196260714Y-182578571D01*
X196475000Y-182578571D01*
X196617857Y-182650000D01*
X196689285Y-182792857D01*
X196689285Y-183578571D01*
X197617857Y-182721428D02*
X197475000Y-182650000D01*
X197403571Y-182578571D01*
X197332142Y-182435714D01*
X197332142Y-182364285D01*
X197403571Y-182221428D01*
X197475000Y-182150000D01*
X197617857Y-182078571D01*
X197903571Y-182078571D01*
X198046428Y-182150000D01*
X198117857Y-182221428D01*
X198189285Y-182364285D01*
X198189285Y-182435714D01*
X198117857Y-182578571D01*
X198046428Y-182650000D01*
X197903571Y-182721428D01*
X197617857Y-182721428D01*
X197475000Y-182792857D01*
X197403571Y-182864285D01*
X197332142Y-183007142D01*
X197332142Y-183292857D01*
X197403571Y-183435714D01*
X197475000Y-183507142D01*
X197617857Y-183578571D01*
X197903571Y-183578571D01*
X198046428Y-183507142D01*
X198117857Y-183435714D01*
X198189285Y-183292857D01*
X198189285Y-183007142D01*
X198117857Y-182864285D01*
X198046428Y-182792857D01*
X197903571Y-182721428D01*
X198689285Y-182078571D02*
X199617857Y-182078571D01*
X199117857Y-182650000D01*
X199332142Y-182650000D01*
X199475000Y-182721428D01*
X199546428Y-182792857D01*
X199617857Y-182935714D01*
X199617857Y-183292857D01*
X199546428Y-183435714D01*
X199475000Y-183507142D01*
X199332142Y-183578571D01*
X198903571Y-183578571D01*
X198760714Y-183507142D01*
X198689285Y-183435714D01*
X200475000Y-182721428D02*
X200332142Y-182650000D01*
X200260714Y-182578571D01*
X200189285Y-182435714D01*
X200189285Y-182364285D01*
X200260714Y-182221428D01*
X200332142Y-182150000D01*
X200475000Y-182078571D01*
X200760714Y-182078571D01*
X200903571Y-182150000D01*
X200975000Y-182221428D01*
X201046428Y-182364285D01*
X201046428Y-182435714D01*
X200975000Y-182578571D01*
X200903571Y-182650000D01*
X200760714Y-182721428D01*
X200475000Y-182721428D01*
X200332142Y-182792857D01*
X200260714Y-182864285D01*
X200189285Y-183007142D01*
X200189285Y-183292857D01*
X200260714Y-183435714D01*
X200332142Y-183507142D01*
X200475000Y-183578571D01*
X200760714Y-183578571D01*
X200903571Y-183507142D01*
X200975000Y-183435714D01*
X201046428Y-183292857D01*
X201046428Y-183007142D01*
X200975000Y-182864285D01*
X200903571Y-182792857D01*
X200760714Y-182721428D01*
X201546428Y-182078571D02*
X202475000Y-182078571D01*
X201975000Y-182650000D01*
X202189285Y-182650000D01*
X202332142Y-182721428D01*
X202403571Y-182792857D01*
X202475000Y-182935714D01*
X202475000Y-183292857D01*
X202403571Y-183435714D01*
X202332142Y-183507142D01*
X202189285Y-183578571D01*
X201760714Y-183578571D01*
X201617857Y-183507142D01*
X201546428Y-183435714D01*
X204046428Y-182864285D02*
X203975000Y-182792857D01*
X203832142Y-182721428D01*
X203689285Y-182721428D01*
X203546428Y-182792857D01*
X203475000Y-182864285D01*
X203403571Y-183007142D01*
X203403571Y-183150000D01*
X203475000Y-183292857D01*
X203546428Y-183364285D01*
X203689285Y-183435714D01*
X203832142Y-183435714D01*
X203975000Y-183364285D01*
X204046428Y-183292857D01*
X204046428Y-182721428D02*
X204046428Y-183292857D01*
X204117857Y-183364285D01*
X204189285Y-183364285D01*
X204332142Y-183292857D01*
X204403571Y-183150000D01*
X204403571Y-182792857D01*
X204260714Y-182578571D01*
X204046428Y-182435714D01*
X203760714Y-182364285D01*
X203475000Y-182435714D01*
X203260714Y-182578571D01*
X203117857Y-182792857D01*
X203046428Y-183078571D01*
X203117857Y-183364285D01*
X203260714Y-183578571D01*
X203475000Y-183721428D01*
X203760714Y-183792857D01*
X204046428Y-183721428D01*
X204260714Y-183578571D01*
X205689285Y-182578571D02*
X205689285Y-183792857D01*
X205617857Y-183935714D01*
X205546428Y-184007142D01*
X205403571Y-184078571D01*
X205189285Y-184078571D01*
X205046428Y-184007142D01*
X205689285Y-183507142D02*
X205546428Y-183578571D01*
X205260714Y-183578571D01*
X205117857Y-183507142D01*
X205046428Y-183435714D01*
X204975000Y-183292857D01*
X204975000Y-182864285D01*
X205046428Y-182721428D01*
X205117857Y-182650000D01*
X205260714Y-182578571D01*
X205546428Y-182578571D01*
X205689285Y-182650000D01*
X206403571Y-183578571D02*
X206403571Y-182578571D01*
X206403571Y-182721428D02*
X206475000Y-182650000D01*
X206617857Y-182578571D01*
X206832142Y-182578571D01*
X206975000Y-182650000D01*
X207046428Y-182792857D01*
X207046428Y-183578571D01*
X207046428Y-182792857D02*
X207117857Y-182650000D01*
X207260714Y-182578571D01*
X207475000Y-182578571D01*
X207617857Y-182650000D01*
X207689285Y-182792857D01*
X207689285Y-183578571D01*
X209046428Y-183578571D02*
X209046428Y-182792857D01*
X208975000Y-182650000D01*
X208832142Y-182578571D01*
X208546428Y-182578571D01*
X208403571Y-182650000D01*
X209046428Y-183507142D02*
X208903571Y-183578571D01*
X208546428Y-183578571D01*
X208403571Y-183507142D01*
X208332142Y-183364285D01*
X208332142Y-183221428D01*
X208403571Y-183078571D01*
X208546428Y-183007142D01*
X208903571Y-183007142D01*
X209046428Y-182935714D01*
X209760714Y-183578571D02*
X209760714Y-182578571D01*
X209760714Y-182078571D02*
X209689285Y-182150000D01*
X209760714Y-182221428D01*
X209832142Y-182150000D01*
X209760714Y-182078571D01*
X209760714Y-182221428D01*
X210689285Y-183578571D02*
X210546428Y-183507142D01*
X210475000Y-183364285D01*
X210475000Y-182078571D01*
X211260714Y-183435714D02*
X211332142Y-183507142D01*
X211260714Y-183578571D01*
X211189285Y-183507142D01*
X211260714Y-183435714D01*
X211260714Y-183578571D01*
X212617857Y-183507142D02*
X212475000Y-183578571D01*
X212189285Y-183578571D01*
X212046428Y-183507142D01*
X211975000Y-183435714D01*
X211903571Y-183292857D01*
X211903571Y-182864285D01*
X211975000Y-182721428D01*
X212046428Y-182650000D01*
X212189285Y-182578571D01*
X212475000Y-182578571D01*
X212617857Y-182650000D01*
X213475000Y-183578571D02*
X213332142Y-183507142D01*
X213260714Y-183435714D01*
X213189285Y-183292857D01*
X213189285Y-182864285D01*
X213260714Y-182721428D01*
X213332142Y-182650000D01*
X213475000Y-182578571D01*
X213689285Y-182578571D01*
X213832142Y-182650000D01*
X213903571Y-182721428D01*
X213975000Y-182864285D01*
X213975000Y-183292857D01*
X213903571Y-183435714D01*
X213832142Y-183507142D01*
X213689285Y-183578571D01*
X213475000Y-183578571D01*
X214617857Y-183578571D02*
X214617857Y-182578571D01*
X214617857Y-182721428D02*
X214689285Y-182650000D01*
X214832142Y-182578571D01*
X215046428Y-182578571D01*
X215189285Y-182650000D01*
X215260714Y-182792857D01*
X215260714Y-183578571D01*
X215260714Y-182792857D02*
X215332142Y-182650000D01*
X215475000Y-182578571D01*
X215689285Y-182578571D01*
X215832142Y-182650000D01*
X215903571Y-182792857D01*
X215903571Y-183578571D01*
D10*
D11*
X179400000Y-197400000D02*
X179400000Y-200400000D01*
D10*
D11*
X243400000Y-197400000D02*
X243400000Y-203900000D01*
D14*
%TO.P,U_MM_1,2*%
%TO.N,Pin4_GnD_Chassis*%
X140516000Y-72775000D03*
%TO.P,U_MM_1,3*%
X140516000Y-73275000D03*
%TO.P,U_MM_1,1*%
%TO.N,/Host/MEMS_SA0*%
X140516000Y-72275000D03*
%TO.P,U_MM_1,4*%
%TO.N,/Host/MEMS_INT*%
X140516000Y-73775000D03*
%TO.P,U_MM_1,10*%
%TO.N,Net-(U_MM_1-Pad10)*%
X142836000Y-72775000D03*
%TO.P,U_MM_1,9*%
%TO.N,/Reader MEMs/MEMS_INT2*%
X142836000Y-73275000D03*
%TO.P,U_MM_1,11*%
%TO.N,Net-(U_MM_1-Pad11)*%
X142836000Y-72275000D03*
%TO.P,U_MM_1,8*%
%TO.N,+3V3*%
X142836000Y-73775000D03*
D15*
%TO.P,U_MM_1,14*%
%TO.N,/Host/I2C_SDA*%
X141176000Y-72115000D03*
%TO.P,U_MM_1,13*%
%TO.N,/Host/I2C_SCL*%
X141676000Y-72115000D03*
%TO.P,U_MM_1,12*%
%TO.N,/Host/MEMS_CS*%
X142176000Y-72115000D03*
%TO.P,U_MM_1,5*%
%TO.N,+3V3*%
X141176000Y-73935000D03*
%TO.P,U_MM_1,6*%
%TO.N,Pin4_GnD_Chassis*%
X141676000Y-73935000D03*
%TO.P,U_MM_1,7*%
X142176000Y-73935000D03*
%TD*%
D16*
%TO.P,J_CN_2,1*%
%TO.N,Pin7_ISO9141_K-Line*%
X117094000Y-155702000D03*
%TO.P,J_CN_2,2*%
%TO.N,Pin15_ISO9141_L-Line*%
X122094000Y-155702000D03*
%TD*%
%TO.P,LED_STN_1,2*%
%TO.N,+3V3*%
%TA.AperFunction,SMDPad,CuDef*%
G36*
G01*
X115729500Y-116219950D02*
X115729500Y-115707450D01*
G75*
G02*
X115948250Y-115488700I218750J0D01*
G01*
X116385750Y-115488700D01*
G75*
G02*
X116604500Y-115707450I0J-218750D01*
G01*
X116604500Y-116219950D01*
G75*
G02*
X116385750Y-116438700I-218750J0D01*
G01*
X115948250Y-116438700D01*
G75*
G02*
X115729500Y-116219950I0J218750D01*
G01*
G37*
%TD.AperFunction*%
%TO.P,LED_STN_1,1*%
%TO.N,Net-(LED_STN_1-Pad1)*%
%TA.AperFunction,SMDPad,CuDef*%
G36*
G01*
X114154500Y-116219950D02*
X114154500Y-115707450D01*
G75*
G02*
X114373250Y-115488700I218750J0D01*
G01*
X114810750Y-115488700D01*
G75*
G02*
X115029500Y-115707450I0J-218750D01*
G01*
X115029500Y-116219950D01*
G75*
G02*
X114810750Y-116438700I-218750J0D01*
G01*
X114373250Y-116438700D01*
G75*
G02*
X114154500Y-116219950I0J218750D01*
G01*
G37*
%TD.AperFunction*%
%TD*%
%TO.P,J_HST_6,1*%
%TO.N,/Host/MEMS_INT*%
X154940000Y-56286400D03*
%TO.P,J_HST_6,2*%
%TO.N,/Host/MEMS_CS*%
X149940000Y-56286400D03*
%TD*%
D17*
%TO.P,C_VR2_BIAS1,1*%
%TO.N,Net-(C_VR2_BIAS1-Pad1)*%
X130898000Y-134112000D03*
%TO.P,C_VR2_BIAS1,2*%
%TO.N,Pin4_GnD_Chassis*%
X129198000Y-134112000D03*
%TD*%
D18*
%TO.P,C_MSCAN_1,2*%
%TO.N,Pin4_GnD_Chassis*%
X119380000Y-147105000D03*
%TO.P,C_MSCAN_1,1*%
%TO.N,Net-(C_MSCAN_1-Pad1)*%
X119380000Y-148805000D03*
%TD*%
D17*
%TO.P,C_VR2_BST1,2*%
%TO.N,Net-(C_VR2_BST1-Pad2)*%
X137834000Y-125222000D03*
%TO.P,C_VR2_BST1,1*%
%TO.N,Net-(C_VR2_BST1-Pad1)*%
X139534000Y-125222000D03*
%TD*%
D19*
%TO.P,D_J1850_2,1*%
%TO.N,Pin4_GnD_Chassis*%
X169405300Y-112090200D03*
D20*
%TO.P,D_J1850_2,2*%
%TO.N,Net-(D_J1850_2-Pad2)*%
X169405300Y-104470200D03*
%TD*%
D18*
%TO.P,C_VS_1,1*%
%TO.N,/OBDII Interpreter/Analog_Voltage*%
X122732800Y-110351200D03*
%TO.P,C_VS_1,2*%
%TO.N,Pin4_GnD_Chassis*%
X122732800Y-112051200D03*
%TD*%
%TO.P,C_VR1_BIAS1,2*%
%TO.N,Pin4_GnD_Chassis*%
X161925000Y-128065000D03*
%TO.P,C_VR1_BIAS1,1*%
%TO.N,Net-(C_VR1_BIAS1-Pad1)*%
X161925000Y-126365000D03*
%TD*%
%TO.P,LED_STN_2,1*%
%TO.N,Net-(LED_STN_2-Pad1)*%
%TA.AperFunction,SMDPad,CuDef*%
G36*
G01*
X114154500Y-113171950D02*
X114154500Y-112659450D01*
G75*
G02*
X114373250Y-112440700I218750J0D01*
G01*
X114810750Y-112440700D01*
G75*
G02*
X115029500Y-112659450I0J-218750D01*
G01*
X115029500Y-113171950D01*
G75*
G02*
X114810750Y-113390700I-218750J0D01*
G01*
X114373250Y-113390700D01*
G75*
G02*
X114154500Y-113171950I0J218750D01*
G01*
G37*
%TD.AperFunction*%
%TO.P,LED_STN_2,2*%
%TO.N,+3V3*%
%TA.AperFunction,SMDPad,CuDef*%
G36*
G01*
X115729500Y-113171950D02*
X115729500Y-112659450D01*
G75*
G02*
X115948250Y-112440700I218750J0D01*
G01*
X116385750Y-112440700D01*
G75*
G02*
X116604500Y-112659450I0J-218750D01*
G01*
X116604500Y-113171950D01*
G75*
G02*
X116385750Y-113390700I-218750J0D01*
G01*
X115948250Y-113390700D01*
G75*
G02*
X115729500Y-113171950I0J218750D01*
G01*
G37*
%TD.AperFunction*%
%TD*%
D21*
%TO.P,C_SWCAN_1,1*%
%TO.N,Pin1_SW_CAN*%
X143533600Y-59537600D03*
%TO.P,C_SWCAN_1,2*%
%TO.N,Pin4_GnD_Chassis*%
X142673600Y-59537600D03*
%TD*%
D16*
%TO.P,J_SWCAN_1,1*%
%TO.N,Pin1_SW_CAN*%
X153898600Y-106070400D03*
%TO.P,J_SWCAN_1,2*%
%TO.N,Net-(J_SWCAN_1-Pad2)*%
X153898600Y-101070400D03*
%TD*%
%TO.P,J_STN_1,1*%
%TO.N,/OBDII Interpreter/High Speed CAN Transceiver/HS_CAN_RX*%
X112090200Y-76588200D03*
%TO.P,J_STN_1,2*%
%TO.N,/OBDII Interpreter/High Speed CAN Transceiver/HS_CAN_TX*%
X112090200Y-71588200D03*
%TD*%
%TO.P,J_HST_2,1*%
%TO.N,/Host/HOST_RX*%
X112090200Y-64871600D03*
%TO.P,J_HST_2,2*%
%TO.N,/Host/HOST_TX*%
X112090200Y-59871600D03*
%TD*%
D19*
%TO.P,D_VS_1,1*%
%TO.N,+3V3*%
X130810000Y-106680000D03*
D20*
%TO.P,D_VS_1,2*%
%TO.N,/OBDII Interpreter/Analog_Voltage*%
X123190000Y-106680000D03*
%TD*%
D16*
%TO.P,J_PSW_1,2*%
%TO.N,+12V*%
X136042400Y-113414800D03*
%TO.P,J_PSW_1,1*%
%TO.N,+12V_SW*%
X136042400Y-118414800D03*
%TD*%
D22*
%TO.P,C_PS_1,2*%
%TO.N,Pin4_GnD_Chassis*%
X158115000Y-105915002D03*
%TO.P,C_PS_1,1*%
%TO.N,+12V*%
X158115000Y-108714998D03*
%TD*%
D19*
%TO.P,D_J1850_3,1*%
%TO.N,Net-(D_J1850_3-Pad1)*%
X173151800Y-104470200D03*
D20*
%TO.P,D_J1850_3,2*%
%TO.N,+5V_SW*%
X173151800Y-112090200D03*
%TD*%
D16*
%TO.P,J_CN_1,2*%
%TO.N,Pin14_ISO15765_CAN_BUS_Low*%
X167306000Y-155702000D03*
%TO.P,J_CN_1,1*%
%TO.N,Pin6_ISO15765_CAN_BUS_High*%
X162306000Y-155702000D03*
%TD*%
D23*
%TO.P,C_MM_1,1*%
%TO.N,+3V3*%
X142728000Y-76835000D03*
%TO.P,C_MM_1,2*%
%TO.N,Pin4_GnD_Chassis*%
X140228000Y-76835000D03*
%TD*%
D18*
%TO.P,C_MSCAN_3,2*%
%TO.N,+5V*%
X122783600Y-126187200D03*
%TO.P,C_MSCAN_3,1*%
%TO.N,Pin4_GnD_Chassis*%
X122783600Y-127887200D03*
%TD*%
D20*
%TO.P,D_J1850_1,2*%
%TO.N,Net-(D_J1850_1-Pad2)*%
X172720000Y-81280000D03*
D19*
%TO.P,D_J1850_1,1*%
%TO.N,Pin2_SAE_J1850_BUS+*%
X172720000Y-73660000D03*
%TD*%
D16*
%TO.P,J_HST_4,1*%
%TO.N,+5V*%
X173355000Y-61772800D03*
%TO.P,J_HST_4,2*%
X173355000Y-66772800D03*
%TD*%
%TO.P,J_HST_5,2*%
%TO.N,/Host/I2C_SDA*%
X137240000Y-56286400D03*
%TO.P,J_HST_5,1*%
%TO.N,/Host/I2C_SCL*%
X142240000Y-56286400D03*
%TD*%
D20*
%TO.P,D_VS_2,2*%
%TO.N,Pin4_GnD_Chassis*%
X123190000Y-101600000D03*
D19*
%TO.P,D_VS_2,1*%
%TO.N,/OBDII Interpreter/Analog_Voltage*%
X130810000Y-101600000D03*
%TD*%
D16*
%TO.P,J_PS_2,2*%
%TO.N,+3V3*%
X172720000Y-118190000D03*
%TO.P,J_PS_2,1*%
%TO.N,+5V*%
X172720000Y-123190000D03*
%TD*%
%TO.P,J_HST_7,1*%
%TO.N,Pin4_GnD_Chassis*%
X167005000Y-56286400D03*
%TO.P,J_HST_7,2*%
%TO.N,/Host/MEMS_CS*%
X162005000Y-56286400D03*
%TD*%
%TO.P,J_PSW_2,1*%
%TO.N,+5V_SW*%
X153924000Y-118160800D03*
%TO.P,J_PSW_2,2*%
%TO.N,+5V*%
X153924000Y-113160800D03*
%TD*%
%TO.P,J_HST_1,1*%
%TO.N,/OBDII Interpreter/~RESET_OBD_HW~*%
X112141000Y-88304800D03*
%TO.P,J_HST_1,2*%
%TO.N,/OBDII Interpreter/RESET_OBD_SW*%
X112141000Y-83304800D03*
%TD*%
%TO.P,J_PSW_3,2*%
%TO.N,+3V3*%
X142320000Y-119380000D03*
%TO.P,J_PSW_3,1*%
%TO.N,+3.3V_SW*%
X147320000Y-119380000D03*
%TD*%
%TO.P,J_PS_1,2*%
%TO.N,/OBDII Interpreter/Analog_Voltage*%
X146478000Y-132080000D03*
%TO.P,J_PS_1,1*%
%TO.N,+12V*%
X141478000Y-132080000D03*
%TD*%
%TO.P,J_STN_RST1,1*%
%TO.N,/OBDII Interpreter/~RESET_OBD_HW~*%
X112191800Y-95910400D03*
%TO.P,J_STN_RST1,2*%
%TO.N,Pin4_GnD_Chassis*%
X112191800Y-100910400D03*
%TD*%
D24*
%TO.P,L_VR1,1*%
%TO.N,+5V*%
X156038550Y-123875800D03*
%TO.P,L_VR1,2*%
%TO.N,Net-(C_VR1_BST1-Pad2)*%
X154044650Y-123875800D03*
%TD*%
D25*
%TO.P,L_VR2,2*%
%TO.N,Net-(C_VR2_BST1-Pad2)*%
X127762000Y-128231950D03*
%TO.P,L_VR2,1*%
%TO.N,+3V3*%
X127762000Y-126238050D03*
%TD*%
D26*
%TO.P,Q_HSCAN_1,1*%
%TO.N,/OBDII Interpreter/~PWR_CTRL~*%
X119700000Y-135135000D03*
%TO.P,Q_HSCAN_1,2*%
%TO.N,Pin4_GnD_Chassis*%
X121600000Y-135135000D03*
%TO.P,Q_HSCAN_1,3*%
%TO.N,Net-(Q_HSCAN_1-Pad3)*%
X120650000Y-132835000D03*
%TD*%
D27*
%TO.P,Q_ISO_3,3*%
%TO.N,Pin7_ISO9141_K-Line*%
X169545000Y-133985000D03*
%TO.P,Q_ISO_3,2*%
%TO.N,Pin4_GnD_Chassis*%
X170495000Y-135985000D03*
%TO.P,Q_ISO_3,1*%
%TO.N,Net-(Q_ISO_3-Pad1)*%
X168595000Y-135985000D03*
%TD*%
%TO.P,LED_STN_3,1*%
%TO.N,Net-(LED_STN_3-Pad1)*%
%TA.AperFunction,SMDPad,CuDef*%
G36*
G01*
X114180500Y-110123950D02*
X114180500Y-109611450D01*
G75*
G02*
X114399250Y-109392700I218750J0D01*
G01*
X114836750Y-109392700D01*
G75*
G02*
X115055500Y-109611450I0J-218750D01*
G01*
X115055500Y-110123950D01*
G75*
G02*
X114836750Y-110342700I-218750J0D01*
G01*
X114399250Y-110342700D01*
G75*
G02*
X114180500Y-110123950I0J218750D01*
G01*
G37*
%TD.AperFunction*%
%TO.P,LED_STN_3,2*%
%TO.N,+3V3*%
%TA.AperFunction,SMDPad,CuDef*%
G36*
G01*
X115755500Y-110123950D02*
X115755500Y-109611450D01*
G75*
G02*
X115974250Y-109392700I218750J0D01*
G01*
X116411750Y-109392700D01*
G75*
G02*
X116630500Y-109611450I0J-218750D01*
G01*
X116630500Y-110123950D01*
G75*
G02*
X116411750Y-110342700I-218750J0D01*
G01*
X115974250Y-110342700D01*
G75*
G02*
X115755500Y-110123950I0J218750D01*
G01*
G37*
%TD.AperFunction*%
%TD*%
D28*
%TO.P,R_COMP_2,2*%
%TO.N,Net-(R_COMP_2-Pad2)*%
X172720000Y-147135000D03*
%TO.P,R_COMP_2,1*%
%TO.N,Pin7_ISO9141_K-Line*%
X172720000Y-148775000D03*
%TD*%
D26*
%TO.P,Q_PSW_1,1*%
%TO.N,/OBDII Interpreter/~PWR_CTRL~*%
X144033200Y-115958000D03*
%TO.P,Q_PSW_1,2*%
%TO.N,Pin4_GnD_Chassis*%
X145933200Y-115958000D03*
%TO.P,Q_PSW_1,3*%
%TO.N,/OBDII Interpreter/PWR_CTRL*%
X144983200Y-113658000D03*
%TD*%
%TO.P,Q_SWCAN_1,1*%
%TO.N,/OBDII Interpreter/OBDII Chip/SW_CAN_LOAD*%
X136718000Y-68714000D03*
%TO.P,Q_SWCAN_1,2*%
%TO.N,Pin4_GnD_Chassis*%
X138618000Y-68714000D03*
%TO.P,Q_SWCAN_1,3*%
%TO.N,Net-(Q_SWCAN_1-Pad3)*%
X137668000Y-66414000D03*
%TD*%
D29*
%TO.P,Q_ISO_1,1*%
%TO.N,/OBDII Interpreter/PWR_CTRL*%
X162130500Y-145550700D03*
%TO.P,Q_ISO_1,2*%
%TO.N,Net-(Q_ISO_1-Pad2)*%
X164035500Y-145550700D03*
%TO.P,Q_ISO_1,3*%
%TO.N,+12V*%
X163083000Y-143544100D03*
%TD*%
D30*
%TO.P,Q_J1850_1,3*%
%TO.N,Net-(Q_J1850_1-Pad3)*%
X161068400Y-84632800D03*
%TO.P,Q_J1850_1,2*%
%TO.N,Pin4_GnD_Chassis*%
X158768400Y-85582800D03*
%TO.P,Q_J1850_1,1*%
%TO.N,/OBDII Interpreter/OBDII Chip/~J1850_BUS+_VH~*%
X158768400Y-83682800D03*
%TD*%
D28*
%TO.P,R_J1850_5,1*%
%TO.N,Pin2_SAE_J1850_BUS+*%
X171983400Y-99121800D03*
%TO.P,R_J1850_5,2*%
%TO.N,Net-(D_J1850_2-Pad2)*%
X171983400Y-100761800D03*
%TD*%
D31*
%TO.P,R_MSCAN_3,2*%
%TO.N,Net-(C_MSCAN_2-Pad1)*%
X122380000Y-139065000D03*
%TO.P,R_MSCAN_3,1*%
%TO.N,Pin3_MS_CAN_High*%
X125270000Y-139065000D03*
%TD*%
D32*
%TO.P,R_HSCAN_3,1*%
%TO.N,Pin6_ISO15765_CAN_BUS_High*%
X116382800Y-67916800D03*
%TO.P,R_HSCAN_3,2*%
%TO.N,Net-(C_HSCAN_2-Pad1)*%
X116382800Y-65026800D03*
%TD*%
D33*
%TO.P,R_J1850_2,2*%
%TO.N,Net-(Q_J1850_2-Pad3)*%
X169545000Y-83720000D03*
%TO.P,R_J1850_2,1*%
%TO.N,+V_J1850*%
X169545000Y-85190000D03*
%TD*%
D28*
%TO.P,R_PSW_2,1*%
%TO.N,+12V*%
X157480000Y-113480000D03*
%TO.P,R_PSW_2,2*%
%TO.N,/OBDII Interpreter/PWR_CTRL*%
X157480000Y-115120000D03*
%TD*%
%TO.P,R_STN_6,1*%
%TO.N,+3V3*%
X134264400Y-92514000D03*
%TO.P,R_STN_6,2*%
%TO.N,/OBDII Interpreter/RESET_OBD_SW*%
X134264400Y-90874000D03*
%TD*%
%TO.P,R_HSCAN_1,1*%
%TO.N,+3V3*%
X119380000Y-105976000D03*
%TO.P,R_HSCAN_1,2*%
%TO.N,Net-(Q_HSCAN_1-Pad3)*%
X119380000Y-104336000D03*
%TD*%
D34*
%TO.P,R_STN_8,1*%
%TO.N,+3V3*%
X141078800Y-82956400D03*
%TO.P,R_STN_8,2*%
%TO.N,/Host/~RESET_OBD_HW~*%
X139438800Y-82956400D03*
%TD*%
D35*
%TO.P,R_ISO_1,2*%
%TO.N,/OBDII Interpreter/ISO 9141/ISO 14230 Transceiver/~ISO_K_TX~*%
X164833200Y-132435600D03*
%TO.P,R_ISO_1,1*%
%TO.N,Net-(Q_ISO_3-Pad1)*%
X163233200Y-132435600D03*
%TD*%
D34*
%TO.P,R_SWCAN_1,1*%
%TO.N,/OBDII Interpreter/OBDII Chip/SW_CAN_LOAD*%
X133154000Y-68072000D03*
%TO.P,R_SWCAN_1,2*%
%TO.N,Pin4_GnD_Chassis*%
X131514000Y-68072000D03*
%TD*%
D31*
%TO.P,R_MSCAN_2,1*%
%TO.N,Pin11_MS_CAN_Low*%
X124635000Y-148590000D03*
%TO.P,R_MSCAN_2,2*%
%TO.N,Net-(C_MSCAN_1-Pad1)*%
X121745000Y-148590000D03*
%TD*%
D28*
%TO.P,R_COMP_8,2*%
%TO.N,Pin4_GnD_Chassis*%
X168910000Y-68130000D03*
%TO.P,R_COMP_8,1*%
%TO.N,Net-(R_COMP_7-Pad2)*%
X168910000Y-66490000D03*
%TD*%
D36*
%TO.P,R_ISO_3,2*%
%TO.N,Net-(Q_ISO_1-Pad2)*%
X167665000Y-151765000D03*
%TO.P,R_ISO_3,1*%
%TO.N,Pin7_ISO9141_K-Line*%
X169545000Y-151765000D03*
%TD*%
D32*
%TO.P,R_HSCAN_2,2*%
%TO.N,Net-(C_HSCAN_1-Pad1)*%
X119303800Y-65026800D03*
%TO.P,R_HSCAN_2,1*%
%TO.N,Pin14_ISO15765_CAN_BUS_Low*%
X119303800Y-67916800D03*
%TD*%
D37*
%TO.P,C_STN_3,2*%
%TO.N,Pin4_GnD_Chassis*%
X143931800Y-93980000D03*
%TO.P,C_STN_3,1*%
%TO.N,Net-(C_STN_3-Pad1)*%
X145349800Y-93980000D03*
%TD*%
D38*
%TO.P,R_SWCAN_7,2*%
%TO.N,+5V*%
X122455000Y-69850000D03*
%TO.P,R_SWCAN_7,1*%
%TO.N,/OBDII Interpreter/OBDII Chip/SW_CAN_TX*%
X123925000Y-69850000D03*
%TD*%
D39*
%TO.P,R_SWCAN_6,2*%
%TO.N,+3V3*%
X124866400Y-126149200D03*
%TO.P,R_SWCAN_6,1*%
%TO.N,/OBDII Interpreter/OBDII Chip/SW_CAN_RX*%
X124866400Y-127749200D03*
%TD*%
D34*
%TO.P,R_SWCAN_3,2*%
%TO.N,Net-(R_SWCAN_3-Pad2)*%
X120835000Y-57785000D03*
%TO.P,R_SWCAN_3,1*%
%TO.N,Pin1_SW_CAN*%
X119195000Y-57785000D03*
%TD*%
D35*
%TO.P,R_ISO_2,2*%
%TO.N,/OBDII Interpreter/ISO 9141/ISO 14230 Transceiver/~ISO_L_TX~*%
X169240000Y-139065000D03*
%TO.P,R_ISO_2,1*%
%TO.N,Net-(Q_ISO_4-Pad1)*%
X167640000Y-139065000D03*
%TD*%
%TO.P,U_STN_1,1*%
%TO.N,Pin4_GnD_Chassis*%
%TA.AperFunction,SMDPad,CuDef*%
G36*
G01*
X123920000Y-79387500D02*
X123920000Y-79212500D01*
G75*
G02*
X124007500Y-79125000I87500J0D01*
G01*
X124657500Y-79125000D01*
G75*
G02*
X124745000Y-79212500I0J-87500D01*
G01*
X124745000Y-79387500D01*
G75*
G02*
X124657500Y-79475000I-87500J0D01*
G01*
X124007500Y-79475000D01*
G75*
G02*
X123920000Y-79387500I0J87500D01*
G01*
G37*
%TD.AperFunction*%
%TO.P,U_STN_1,2*%
%TA.AperFunction,SMDPad,CuDef*%
G36*
G01*
X123920000Y-80037500D02*
X123920000Y-79862500D01*
G75*
G02*
X124007500Y-79775000I87500J0D01*
G01*
X124657500Y-79775000D01*
G75*
G02*
X124745000Y-79862500I0J-87500D01*
G01*
X124745000Y-80037500D01*
G75*
G02*
X124657500Y-80125000I-87500J0D01*
G01*
X124007500Y-80125000D01*
G75*
G02*
X123920000Y-80037500I0J87500D01*
G01*
G37*
%TD.AperFunction*%
%TO.P,U_STN_1,3*%
%TA.AperFunction,SMDPad,CuDef*%
G36*
G01*
X123920000Y-80687500D02*
X123920000Y-80512500D01*
G75*
G02*
X124007500Y-80425000I87500J0D01*
G01*
X124657500Y-80425000D01*
G75*
G02*
X124745000Y-80512500I0J-87500D01*
G01*
X124745000Y-80687500D01*
G75*
G02*
X124657500Y-80775000I-87500J0D01*
G01*
X124007500Y-80775000D01*
G75*
G02*
X123920000Y-80687500I0J87500D01*
G01*
G37*
%TD.AperFunction*%
%TO.P,U_STN_1,4*%
%TO.N,/Host/HOST_TX*%
%TA.AperFunction,SMDPad,CuDef*%
G36*
G01*
X123920000Y-81337500D02*
X123920000Y-81162500D01*
G75*
G02*
X124007500Y-81075000I87500J0D01*
G01*
X124657500Y-81075000D01*
G75*
G02*
X124745000Y-81162500I0J-87500D01*
G01*
X124745000Y-81337500D01*
G75*
G02*
X124657500Y-81425000I-87500J0D01*
G01*
X124007500Y-81425000D01*
G75*
G02*
X123920000Y-81337500I0J87500D01*
G01*
G37*
%TD.AperFunction*%
%TO.P,U_STN_1,5*%
%TO.N,/Host/HOST_RX*%
%TA.AperFunction,SMDPad,CuDef*%
G36*
G01*
X123920000Y-81987500D02*
X123920000Y-81812500D01*
G75*
G02*
X124007500Y-81725000I87500J0D01*
G01*
X124657500Y-81725000D01*
G75*
G02*
X124745000Y-81812500I0J-87500D01*
G01*
X124745000Y-81987500D01*
G75*
G02*
X124657500Y-82075000I-87500J0D01*
G01*
X124007500Y-82075000D01*
G75*
G02*
X123920000Y-81987500I0J87500D01*
G01*
G37*
%TD.AperFunction*%
%TO.P,U_STN_1,6*%
%TO.N,Pin4_GnD_Chassis*%
%TA.AperFunction,SMDPad,CuDef*%
G36*
G01*
X123920000Y-82637500D02*
X123920000Y-82462500D01*
G75*
G02*
X124007500Y-82375000I87500J0D01*
G01*
X124657500Y-82375000D01*
G75*
G02*
X124745000Y-82462500I0J-87500D01*
G01*
X124745000Y-82637500D01*
G75*
G02*
X124657500Y-82725000I-87500J0D01*
G01*
X124007500Y-82725000D01*
G75*
G02*
X123920000Y-82637500I0J87500D01*
G01*
G37*
%TD.AperFunction*%
%TO.P,U_STN_1,7*%
%TO.N,Net-(CP_STN_1-Pad1)*%
%TA.AperFunction,SMDPad,CuDef*%
G36*
G01*
X123920000Y-83287500D02*
X123920000Y-83112500D01*
G75*
G02*
X124007500Y-83025000I87500J0D01*
G01*
X124657500Y-83025000D01*
G75*
G02*
X124745000Y-83112500I0J-87500D01*
G01*
X124745000Y-83287500D01*
G75*
G02*
X124657500Y-83375000I-87500J0D01*
G01*
X124007500Y-83375000D01*
G75*
G02*
X123920000Y-83287500I0J87500D01*
G01*
G37*
%TD.AperFunction*%
%TO.P,U_STN_1,8*%
%TO.N,/OBDII Interpreter/High Speed CAN Transceiver/HS_CAN_TX*%
%TA.AperFunction,SMDPad,CuDef*%
G36*
G01*
X123920000Y-83937500D02*
X123920000Y-83762500D01*
G75*
G02*
X124007500Y-83675000I87500J0D01*
G01*
X124657500Y-83675000D01*
G75*
G02*
X124745000Y-83762500I0J-87500D01*
G01*
X124745000Y-83937500D01*
G75*
G02*
X124657500Y-84025000I-87500J0D01*
G01*
X124007500Y-84025000D01*
G75*
G02*
X123920000Y-83937500I0J87500D01*
G01*
G37*
%TD.AperFunction*%
%TO.P,U_STN_1,9*%
%TO.N,/OBDII Interpreter/Medium Speed CAN Transceiver/MS_CAN_TX*%
%TA.AperFunction,SMDPad,CuDef*%
G36*
G01*
X123920000Y-84587500D02*
X123920000Y-84412500D01*
G75*
G02*
X124007500Y-84325000I87500J0D01*
G01*
X124657500Y-84325000D01*
G75*
G02*
X124745000Y-84412500I0J-87500D01*
G01*
X124745000Y-84587500D01*
G75*
G02*
X124657500Y-84675000I-87500J0D01*
G01*
X124007500Y-84675000D01*
G75*
G02*
X123920000Y-84587500I0J87500D01*
G01*
G37*
%TD.AperFunction*%
%TO.P,U_STN_1,10*%
%TO.N,/OBDII Interpreter/High Speed CAN Transceiver/HS_CAN_RX*%
%TA.AperFunction,SMDPad,CuDef*%
G36*
G01*
X123920000Y-85237500D02*
X123920000Y-85062500D01*
G75*
G02*
X124007500Y-84975000I87500J0D01*
G01*
X124657500Y-84975000D01*
G75*
G02*
X124745000Y-85062500I0J-87500D01*
G01*
X124745000Y-85237500D01*
G75*
G02*
X124657500Y-85325000I-87500J0D01*
G01*
X124007500Y-85325000D01*
G75*
G02*
X123920000Y-85237500I0J87500D01*
G01*
G37*
%TD.AperFunction*%
%TO.P,U_STN_1,11*%
%TO.N,/OBDII Interpreter/Medium Speed CAN Transceiver/MS_CAN_RX*%
%TA.AperFunction,SMDPad,CuDef*%
G36*
G01*
X123920000Y-85887500D02*
X123920000Y-85712500D01*
G75*
G02*
X124007500Y-85625000I87500J0D01*
G01*
X124657500Y-85625000D01*
G75*
G02*
X124745000Y-85712500I0J-87500D01*
G01*
X124745000Y-85887500D01*
G75*
G02*
X124657500Y-85975000I-87500J0D01*
G01*
X124007500Y-85975000D01*
G75*
G02*
X123920000Y-85887500I0J87500D01*
G01*
G37*
%TD.AperFunction*%
%TO.P,U_STN_1,12*%
%TO.N,/OBDII Interpreter/~RESET_OBD_HW~*%
%TA.AperFunction,SMDPad,CuDef*%
G36*
G01*
X124845000Y-86812500D02*
X124845000Y-86162500D01*
G75*
G02*
X124932500Y-86075000I87500J0D01*
G01*
X125107500Y-86075000D01*
G75*
G02*
X125195000Y-86162500I0J-87500D01*
G01*
X125195000Y-86812500D01*
G75*
G02*
X125107500Y-86900000I-87500J0D01*
G01*
X124932500Y-86900000D01*
G75*
G02*
X124845000Y-86812500I0J87500D01*
G01*
G37*
%TD.AperFunction*%
%TO.P,U_STN_1,13*%
%TO.N,/OBDII Interpreter/OBDII Chip/~HOST_ACT_LED~*%
%TA.AperFunction,SMDPad,CuDef*%
G36*
G01*
X125495000Y-86812500D02*
X125495000Y-86162500D01*
G75*
G02*
X125582500Y-86075000I87500J0D01*
G01*
X125757500Y-86075000D01*
G75*
G02*
X125845000Y-86162500I0J-87500D01*
G01*
X125845000Y-86812500D01*
G75*
G02*
X125757500Y-86900000I-87500J0D01*
G01*
X125582500Y-86900000D01*
G75*
G02*
X125495000Y-86812500I0J87500D01*
G01*
G37*
%TD.AperFunction*%
%TO.P,U_STN_1,14*%
%TO.N,/OBDII Interpreter/OBDII Chip/STATUS_LED*%
%TA.AperFunction,SMDPad,CuDef*%
G36*
G01*
X126145000Y-86812500D02*
X126145000Y-86162500D01*
G75*
G02*
X126232500Y-86075000I87500J0D01*
G01*
X126407500Y-86075000D01*
G75*
G02*
X126495000Y-86162500I0J-87500D01*
G01*
X126495000Y-86812500D01*
G75*
G02*
X126407500Y-86900000I-87500J0D01*
G01*
X126232500Y-86900000D01*
G75*
G02*
X126145000Y-86812500I0J87500D01*
G01*
G37*
%TD.AperFunction*%
%TO.P,U_STN_1,15*%
%TO.N,Pin4_GnD_Chassis*%
%TA.AperFunction,SMDPad,CuDef*%
G36*
G01*
X126795000Y-86812500D02*
X126795000Y-86162500D01*
G75*
G02*
X126882500Y-86075000I87500J0D01*
G01*
X127057500Y-86075000D01*
G75*
G02*
X127145000Y-86162500I0J-87500D01*
G01*
X127145000Y-86812500D01*
G75*
G02*
X127057500Y-86900000I-87500J0D01*
G01*
X126882500Y-86900000D01*
G75*
G02*
X126795000Y-86812500I0J87500D01*
G01*
G37*
%TD.AperFunction*%
%TO.P,U_STN_1,16*%
%TA.AperFunction,SMDPad,CuDef*%
G36*
G01*
X127445000Y-86812500D02*
X127445000Y-86162500D01*
G75*
G02*
X127532500Y-86075000I87500J0D01*
G01*
X127707500Y-86075000D01*
G75*
G02*
X127795000Y-86162500I0J-87500D01*
G01*
X127795000Y-86812500D01*
G75*
G02*
X127707500Y-86900000I-87500J0D01*
G01*
X127532500Y-86900000D01*
G75*
G02*
X127445000Y-86812500I0J87500D01*
G01*
G37*
%TD.AperFunction*%
%TO.P,U_STN_1,17*%
%TO.N,VDDA*%
%TA.AperFunction,SMDPad,CuDef*%
G36*
G01*
X128095000Y-86812500D02*
X128095000Y-86162500D01*
G75*
G02*
X128182500Y-86075000I87500J0D01*
G01*
X128357500Y-86075000D01*
G75*
G02*
X128445000Y-86162500I0J-87500D01*
G01*
X128445000Y-86812500D01*
G75*
G02*
X128357500Y-86900000I-87500J0D01*
G01*
X128182500Y-86900000D01*
G75*
G02*
X128095000Y-86812500I0J87500D01*
G01*
G37*
%TD.AperFunction*%
%TO.P,U_STN_1,18*%
%TO.N,/OBDII Interpreter/RESET_OBD_SW*%
%TA.AperFunction,SMDPad,CuDef*%
G36*
G01*
X128745000Y-86812500D02*
X128745000Y-86162500D01*
G75*
G02*
X128832500Y-86075000I87500J0D01*
G01*
X129007500Y-86075000D01*
G75*
G02*
X129095000Y-86162500I0J-87500D01*
G01*
X129095000Y-86812500D01*
G75*
G02*
X129007500Y-86900000I-87500J0D01*
G01*
X128832500Y-86900000D01*
G75*
G02*
X128745000Y-86812500I0J87500D01*
G01*
G37*
%TD.AperFunction*%
%TO.P,U_STN_1,19*%
%TO.N,/OBDII Interpreter/Analog_Voltage*%
%TA.AperFunction,SMDPad,CuDef*%
G36*
G01*
X129395000Y-86812500D02*
X129395000Y-86162500D01*
G75*
G02*
X129482500Y-86075000I87500J0D01*
G01*
X129657500Y-86075000D01*
G75*
G02*
X129745000Y-86162500I0J-87500D01*
G01*
X129745000Y-86812500D01*
G75*
G02*
X129657500Y-86900000I-87500J0D01*
G01*
X129482500Y-86900000D01*
G75*
G02*
X129395000Y-86812500I0J87500D01*
G01*
G37*
%TD.AperFunction*%
%TO.P,U_STN_1,20*%
%TO.N,Pin4_GnD_Chassis*%
%TA.AperFunction,SMDPad,CuDef*%
G36*
G01*
X130045000Y-86812500D02*
X130045000Y-86162500D01*
G75*
G02*
X130132500Y-86075000I87500J0D01*
G01*
X130307500Y-86075000D01*
G75*
G02*
X130395000Y-86162500I0J-87500D01*
G01*
X130395000Y-86812500D01*
G75*
G02*
X130307500Y-86900000I-87500J0D01*
G01*
X130132500Y-86900000D01*
G75*
G02*
X130045000Y-86812500I0J87500D01*
G01*
G37*
%TD.AperFunction*%
%TO.P,U_STN_1,21*%
%TO.N,/OBDII Interpreter/Comparator Transceiver/~ISO_RX~*%
%TA.AperFunction,SMDPad,CuDef*%
G36*
G01*
X130695000Y-86812500D02*
X130695000Y-86162500D01*
G75*
G02*
X130782500Y-86075000I87500J0D01*
G01*
X130957500Y-86075000D01*
G75*
G02*
X131045000Y-86162500I0J-87500D01*
G01*
X131045000Y-86812500D01*
G75*
G02*
X130957500Y-86900000I-87500J0D01*
G01*
X130782500Y-86900000D01*
G75*
G02*
X130695000Y-86812500I0J87500D01*
G01*
G37*
%TD.AperFunction*%
%TO.P,U_STN_1,22*%
%TO.N,/OBDII Interpreter/Comparator Transceiver/VPW_RX*%
%TA.AperFunction,SMDPad,CuDef*%
G36*
G01*
X131345000Y-86812500D02*
X131345000Y-86162500D01*
G75*
G02*
X131432500Y-86075000I87500J0D01*
G01*
X131607500Y-86075000D01*
G75*
G02*
X131695000Y-86162500I0J-87500D01*
G01*
X131695000Y-86812500D01*
G75*
G02*
X131607500Y-86900000I-87500J0D01*
G01*
X131432500Y-86900000D01*
G75*
G02*
X131345000Y-86812500I0J87500D01*
G01*
G37*
%TD.AperFunction*%
%TO.P,U_STN_1,23*%
%TO.N,/OBDII Interpreter/Comparator Transceiver/PWM_RX*%
%TA.AperFunction,SMDPad,CuDef*%
G36*
G01*
X131795000Y-85887500D02*
X131795000Y-85712500D01*
G75*
G02*
X131882500Y-85625000I87500J0D01*
G01*
X132532500Y-85625000D01*
G75*
G02*
X132620000Y-85712500I0J-87500D01*
G01*
X132620000Y-85887500D01*
G75*
G02*
X132532500Y-85975000I-87500J0D01*
G01*
X131882500Y-85975000D01*
G75*
G02*
X131795000Y-85887500I0J87500D01*
G01*
G37*
%TD.AperFunction*%
%TO.P,U_STN_1,24*%
%TO.N,/OBDII Interpreter/OBDII Chip/J1850_BUS+_TX*%
%TA.AperFunction,SMDPad,CuDef*%
G36*
G01*
X131795000Y-85237500D02*
X131795000Y-85062500D01*
G75*
G02*
X131882500Y-84975000I87500J0D01*
G01*
X132532500Y-84975000D01*
G75*
G02*
X132620000Y-85062500I0J-87500D01*
G01*
X132620000Y-85237500D01*
G75*
G02*
X132532500Y-85325000I-87500J0D01*
G01*
X131882500Y-85325000D01*
G75*
G02*
X131795000Y-85237500I0J87500D01*
G01*
G37*
%TD.AperFunction*%
%TO.P,U_STN_1,25*%
%TO.N,/OBDII Interpreter/OBDII Chip/~J1850_BUS+_VH~*%
%TA.AperFunction,SMDPad,CuDef*%
G36*
G01*
X131795000Y-84587500D02*
X131795000Y-84412500D01*
G75*
G02*
X131882500Y-84325000I87500J0D01*
G01*
X132532500Y-84325000D01*
G75*
G02*
X132620000Y-84412500I0J-87500D01*
G01*
X132620000Y-84587500D01*
G75*
G02*
X132532500Y-84675000I-87500J0D01*
G01*
X131882500Y-84675000D01*
G75*
G02*
X131795000Y-84587500I0J87500D01*
G01*
G37*
%TD.AperFunction*%
%TO.P,U_STN_1,26*%
%TO.N,Pin4_GnD_Chassis*%
%TA.AperFunction,SMDPad,CuDef*%
G36*
G01*
X131795000Y-83937500D02*
X131795000Y-83762500D01*
G75*
G02*
X131882500Y-83675000I87500J0D01*
G01*
X132532500Y-83675000D01*
G75*
G02*
X132620000Y-83762500I0J-87500D01*
G01*
X132620000Y-83937500D01*
G75*
G02*
X132532500Y-84025000I-87500J0D01*
G01*
X131882500Y-84025000D01*
G75*
G02*
X131795000Y-83937500I0J87500D01*
G01*
G37*
%TD.AperFunction*%
%TO.P,U_STN_1,27*%
%TO.N,/Host/~RESET_OBD_HW~*%
%TA.AperFunction,SMDPad,CuDef*%
G36*
G01*
X131795000Y-83287500D02*
X131795000Y-83112500D01*
G75*
G02*
X131882500Y-83025000I87500J0D01*
G01*
X132532500Y-83025000D01*
G75*
G02*
X132620000Y-83112500I0J-87500D01*
G01*
X132620000Y-83287500D01*
G75*
G02*
X132532500Y-83375000I-87500J0D01*
G01*
X131882500Y-83375000D01*
G75*
G02*
X131795000Y-83287500I0J87500D01*
G01*
G37*
%TD.AperFunction*%
%TO.P,U_STN_1,28*%
%TO.N,Pin4_GnD_Chassis*%
%TA.AperFunction,SMDPad,CuDef*%
G36*
G01*
X131795000Y-82637500D02*
X131795000Y-82462500D01*
G75*
G02*
X131882500Y-82375000I87500J0D01*
G01*
X132532500Y-82375000D01*
G75*
G02*
X132620000Y-82462500I0J-87500D01*
G01*
X132620000Y-82637500D01*
G75*
G02*
X132532500Y-82725000I-87500J0D01*
G01*
X131882500Y-82725000D01*
G75*
G02*
X131795000Y-82637500I0J87500D01*
G01*
G37*
%TD.AperFunction*%
%TO.P,U_STN_1,29*%
%TO.N,Net-(C_STN_4-Pad1)*%
%TA.AperFunction,SMDPad,CuDef*%
G36*
G01*
X131795000Y-81987500D02*
X131795000Y-81812500D01*
G75*
G02*
X131882500Y-81725000I87500J0D01*
G01*
X132532500Y-81725000D01*
G75*
G02*
X132620000Y-81812500I0J-87500D01*
G01*
X132620000Y-81987500D01*
G75*
G02*
X132532500Y-82075000I-87500J0D01*
G01*
X131882500Y-82075000D01*
G75*
G02*
X131795000Y-81987500I0J87500D01*
G01*
G37*
%TD.AperFunction*%
%TO.P,U_STN_1,30*%
%TO.N,Net-(C_STN_3-Pad1)*%
%TA.AperFunction,SMDPad,CuDef*%
G36*
G01*
X131795000Y-81337500D02*
X131795000Y-81162500D01*
G75*
G02*
X131882500Y-81075000I87500J0D01*
G01*
X132532500Y-81075000D01*
G75*
G02*
X132620000Y-81162500I0J-87500D01*
G01*
X132620000Y-81337500D01*
G75*
G02*
X132532500Y-81425000I-87500J0D01*
G01*
X131882500Y-81425000D01*
G75*
G02*
X131795000Y-81337500I0J87500D01*
G01*
G37*
%TD.AperFunction*%
%TO.P,U_STN_1,31*%
%TO.N,Net-(C_STN_2-Pad2)*%
%TA.AperFunction,SMDPad,CuDef*%
G36*
G01*
X131795000Y-80687500D02*
X131795000Y-80512500D01*
G75*
G02*
X131882500Y-80425000I87500J0D01*
G01*
X132532500Y-80425000D01*
G75*
G02*
X132620000Y-80512500I0J-87500D01*
G01*
X132620000Y-80687500D01*
G75*
G02*
X132532500Y-80775000I-87500J0D01*
G01*
X131882500Y-80775000D01*
G75*
G02*
X131795000Y-80687500I0J87500D01*
G01*
G37*
%TD.AperFunction*%
%TO.P,U_STN_1,32*%
%TO.N,/OBDII Interpreter/~PWR_CTRL~*%
%TA.AperFunction,SMDPad,CuDef*%
G36*
G01*
X131795000Y-80037500D02*
X131795000Y-79862500D01*
G75*
G02*
X131882500Y-79775000I87500J0D01*
G01*
X132532500Y-79775000D01*
G75*
G02*
X132620000Y-79862500I0J-87500D01*
G01*
X132620000Y-80037500D01*
G75*
G02*
X132532500Y-80125000I-87500J0D01*
G01*
X131882500Y-80125000D01*
G75*
G02*
X131795000Y-80037500I0J87500D01*
G01*
G37*
%TD.AperFunction*%
%TO.P,U_STN_1,33*%
%TO.N,/OBDII Interpreter/OBDII Chip/J1850_BUS-_TX*%
%TA.AperFunction,SMDPad,CuDef*%
G36*
G01*
X131795000Y-79387500D02*
X131795000Y-79212500D01*
G75*
G02*
X131882500Y-79125000I87500J0D01*
G01*
X132532500Y-79125000D01*
G75*
G02*
X132620000Y-79212500I0J-87500D01*
G01*
X132620000Y-79387500D01*
G75*
G02*
X132532500Y-79475000I-87500J0D01*
G01*
X131882500Y-79475000D01*
G75*
G02*
X131795000Y-79387500I0J87500D01*
G01*
G37*
%TD.AperFunction*%
%TO.P,U_STN_1,34*%
%TO.N,/OBDII Interpreter/OBDII Chip/SW_CAN_LOAD*%
%TA.AperFunction,SMDPad,CuDef*%
G36*
G01*
X131345000Y-78937500D02*
X131345000Y-78287500D01*
G75*
G02*
X131432500Y-78200000I87500J0D01*
G01*
X131607500Y-78200000D01*
G75*
G02*
X131695000Y-78287500I0J-87500D01*
G01*
X131695000Y-78937500D01*
G75*
G02*
X131607500Y-79025000I-87500J0D01*
G01*
X131432500Y-79025000D01*
G75*
G02*
X131345000Y-78937500I0J87500D01*
G01*
G37*
%TD.AperFunction*%
%TO.P,U_STN_1,35*%
%TO.N,/OBDII Interpreter/OBDII Chip/SW_CAN_MODE0*%
%TA.AperFunction,SMDPad,CuDef*%
G36*
G01*
X130695000Y-78937500D02*
X130695000Y-78287500D01*
G75*
G02*
X130782500Y-78200000I87500J0D01*
G01*
X130957500Y-78200000D01*
G75*
G02*
X131045000Y-78287500I0J-87500D01*
G01*
X131045000Y-78937500D01*
G75*
G02*
X130957500Y-79025000I-87500J0D01*
G01*
X130782500Y-79025000D01*
G75*
G02*
X130695000Y-78937500I0J87500D01*
G01*
G37*
%TD.AperFunction*%
%TO.P,U_STN_1,36*%
%TO.N,/OBDII Interpreter/OBDII Chip/SW_CAN_MODE1*%
%TA.AperFunction,SMDPad,CuDef*%
G36*
G01*
X130045000Y-78937500D02*
X130045000Y-78287500D01*
G75*
G02*
X130132500Y-78200000I87500J0D01*
G01*
X130307500Y-78200000D01*
G75*
G02*
X130395000Y-78287500I0J-87500D01*
G01*
X130395000Y-78937500D01*
G75*
G02*
X130307500Y-79025000I-87500J0D01*
G01*
X130132500Y-79025000D01*
G75*
G02*
X130045000Y-78937500I0J87500D01*
G01*
G37*
%TD.AperFunction*%
%TO.P,U_STN_1,37*%
%TO.N,Pin4_GnD_Chassis*%
%TA.AperFunction,SMDPad,CuDef*%
G36*
G01*
X129395000Y-78937500D02*
X129395000Y-78287500D01*
G75*
G02*
X129482500Y-78200000I87500J0D01*
G01*
X129657500Y-78200000D01*
G75*
G02*
X129745000Y-78287500I0J-87500D01*
G01*
X129745000Y-78937500D01*
G75*
G02*
X129657500Y-79025000I-87500J0D01*
G01*
X129482500Y-79025000D01*
G75*
G02*
X129395000Y-78937500I0J87500D01*
G01*
G37*
%TD.AperFunction*%
%TO.P,U_STN_1,38*%
%TA.AperFunction,SMDPad,CuDef*%
G36*
G01*
X128745000Y-78937500D02*
X128745000Y-78287500D01*
G75*
G02*
X128832500Y-78200000I87500J0D01*
G01*
X129007500Y-78200000D01*
G75*
G02*
X129095000Y-78287500I0J-87500D01*
G01*
X129095000Y-78937500D01*
G75*
G02*
X129007500Y-79025000I-87500J0D01*
G01*
X128832500Y-79025000D01*
G75*
G02*
X128745000Y-78937500I0J87500D01*
G01*
G37*
%TD.AperFunction*%
%TO.P,U_STN_1,39*%
%TA.AperFunction,SMDPad,CuDef*%
G36*
G01*
X128095000Y-78937500D02*
X128095000Y-78287500D01*
G75*
G02*
X128182500Y-78200000I87500J0D01*
G01*
X128357500Y-78200000D01*
G75*
G02*
X128445000Y-78287500I0J-87500D01*
G01*
X128445000Y-78937500D01*
G75*
G02*
X128357500Y-79025000I-87500J0D01*
G01*
X128182500Y-79025000D01*
G75*
G02*
X128095000Y-78937500I0J87500D01*
G01*
G37*
%TD.AperFunction*%
%TO.P,U_STN_1,40*%
%TO.N,+3V3*%
%TA.AperFunction,SMDPad,CuDef*%
G36*
G01*
X127445000Y-78937500D02*
X127445000Y-78287500D01*
G75*
G02*
X127532500Y-78200000I87500J0D01*
G01*
X127707500Y-78200000D01*
G75*
G02*
X127795000Y-78287500I0J-87500D01*
G01*
X127795000Y-78937500D01*
G75*
G02*
X127707500Y-79025000I-87500J0D01*
G01*
X127532500Y-79025000D01*
G75*
G02*
X127445000Y-78937500I0J87500D01*
G01*
G37*
%TD.AperFunction*%
%TO.P,U_STN_1,41*%
%TO.N,/OBDII Interpreter/OBDII Chip/SW_CAN_TX*%
%TA.AperFunction,SMDPad,CuDef*%
G36*
G01*
X126795000Y-78937500D02*
X126795000Y-78287500D01*
G75*
G02*
X126882500Y-78200000I87500J0D01*
G01*
X127057500Y-78200000D01*
G75*
G02*
X127145000Y-78287500I0J-87500D01*
G01*
X127145000Y-78937500D01*
G75*
G02*
X127057500Y-79025000I-87500J0D01*
G01*
X126882500Y-79025000D01*
G75*
G02*
X126795000Y-78937500I0J87500D01*
G01*
G37*
%TD.AperFunction*%
%TO.P,U_STN_1,42*%
%TO.N,/OBDII Interpreter/OBDII Chip/SW_CAN_RX*%
%TA.AperFunction,SMDPad,CuDef*%
G36*
G01*
X126145000Y-78937500D02*
X126145000Y-78287500D01*
G75*
G02*
X126232500Y-78200000I87500J0D01*
G01*
X126407500Y-78200000D01*
G75*
G02*
X126495000Y-78287500I0J-87500D01*
G01*
X126495000Y-78937500D01*
G75*
G02*
X126407500Y-79025000I-87500J0D01*
G01*
X126232500Y-79025000D01*
G75*
G02*
X126145000Y-78937500I0J87500D01*
G01*
G37*
%TD.AperFunction*%
%TO.P,U_STN_1,43*%
%TO.N,/OBDII Interpreter/ISO 9141/ISO 14230 Transceiver/~ISO_K_TX~*%
%TA.AperFunction,SMDPad,CuDef*%
G36*
G01*
X125495000Y-78937500D02*
X125495000Y-78287500D01*
G75*
G02*
X125582500Y-78200000I87500J0D01*
G01*
X125757500Y-78200000D01*
G75*
G02*
X125845000Y-78287500I0J-87500D01*
G01*
X125845000Y-78937500D01*
G75*
G02*
X125757500Y-79025000I-87500J0D01*
G01*
X125582500Y-79025000D01*
G75*
G02*
X125495000Y-78937500I0J87500D01*
G01*
G37*
%TD.AperFunction*%
%TO.P,U_STN_1,44*%
%TO.N,/OBDII Interpreter/ISO 9141/ISO 14230 Transceiver/~ISO_L_TX~*%
%TA.AperFunction,SMDPad,CuDef*%
G36*
G01*
X124845000Y-78937500D02*
X124845000Y-78287500D01*
G75*
G02*
X124932500Y-78200000I87500J0D01*
G01*
X125107500Y-78200000D01*
G75*
G02*
X125195000Y-78287500I0J-87500D01*
G01*
X125195000Y-78937500D01*
G75*
G02*
X125107500Y-79025000I-87500J0D01*
G01*
X124932500Y-79025000D01*
G75*
G02*
X124845000Y-78937500I0J87500D01*
G01*
G37*
%TD.AperFunction*%
D40*
%TO.P,U_STN_1,45*%
%TO.N,Pin4_GnD_Chassis*%
X128270000Y-82550000D03*
D41*
X125295000Y-79575000D03*
X126485000Y-79575000D03*
X127675000Y-79575000D03*
X128865000Y-79575000D03*
X130055000Y-79575000D03*
X131245000Y-79575000D03*
X125295000Y-80765000D03*
X126485000Y-80765000D03*
X127675000Y-80765000D03*
X128865000Y-80765000D03*
X130055000Y-80765000D03*
X131245000Y-80765000D03*
X125295000Y-81955000D03*
X126485000Y-81955000D03*
X127675000Y-81955000D03*
X128865000Y-81955000D03*
X130055000Y-81955000D03*
X131245000Y-81955000D03*
X125295000Y-83145000D03*
X126485000Y-83145000D03*
X127675000Y-83145000D03*
X128865000Y-83145000D03*
X130055000Y-83145000D03*
X131245000Y-83145000D03*
X125295000Y-84335000D03*
X126485000Y-84335000D03*
X127675000Y-84335000D03*
X128865000Y-84335000D03*
X130055000Y-84335000D03*
X131245000Y-84335000D03*
X125295000Y-85525000D03*
X126485000Y-85525000D03*
X127675000Y-85525000D03*
X128865000Y-85525000D03*
X130055000Y-85525000D03*
X131245000Y-85525000D03*
%TD*%
D42*
%TO.P,U_HSCAN_1,9*%
%TO.N,Pin4_GnD_Chassis*%
X119758600Y-88069200D03*
D43*
%TO.P,U_HSCAN_1,8*%
%TO.N,Net-(Q_HSCAN_1-Pad3)*%
X120733599Y-89438400D03*
%TO.P,U_HSCAN_1,7*%
%TO.N,Pin6_ISO15765_CAN_BUS_High*%
X120083601Y-89438400D03*
%TO.P,U_HSCAN_1,6*%
%TO.N,Pin14_ISO15765_CAN_BUS_Low*%
X119433599Y-89438400D03*
%TO.P,U_HSCAN_1,5*%
%TO.N,+3V3*%
X118783601Y-89438400D03*
%TO.P,U_HSCAN_1,4*%
%TO.N,/OBDII Interpreter/High Speed CAN Transceiver/HS_CAN_RX*%
X118783601Y-86700000D03*
%TO.P,U_HSCAN_1,3*%
%TO.N,+5V*%
X119433599Y-86700000D03*
%TO.P,U_HSCAN_1,2*%
%TO.N,Pin4_GnD_Chassis*%
X120083601Y-86700000D03*
%TO.P,U_HSCAN_1,1*%
%TO.N,/OBDII Interpreter/High Speed CAN Transceiver/HS_CAN_TX*%
X120733599Y-86700000D03*
%TD*%
D44*
%TO.P,U_COMP_1,1*%
%TO.N,/OBDII Interpreter/Comparator Transceiver/~ISO_RX~*%
X149733000Y-76200000D03*
D45*
%TO.P,U_COMP_1,2*%
%TO.N,/OBDII Interpreter/Comparator Transceiver/PWM_RX*%
X152273000Y-76200000D03*
%TO.P,U_COMP_1,3*%
%TO.N,+12V_SW*%
X154813000Y-76200000D03*
%TO.P,U_COMP_1,4*%
%TO.N,Net-(R_COMP_3-Pad1)*%
X157353000Y-76200000D03*
%TO.P,U_COMP_1,5*%
%TO.N,Net-(R_COMP_1-Pad2)*%
X159893000Y-76200000D03*
%TO.P,U_COMP_1,6*%
%TO.N,Net-(R_COMP_2-Pad2)*%
X162433000Y-76200000D03*
%TO.P,U_COMP_1,7*%
%TO.N,Net-(R_COMP_5-Pad2)*%
X164973000Y-76200000D03*
%TO.P,U_COMP_1,8*%
%TO.N,Net-(R_COMP_7-Pad2)*%
X164973000Y-68580000D03*
%TO.P,U_COMP_1,9*%
%TO.N,Net-(R_COMP_9-Pad1)*%
X162433000Y-68580000D03*
%TO.P,U_COMP_1,10*%
%TO.N,Net-(U_COMP_1-Pad10)*%
X159893000Y-68580000D03*
%TO.P,U_COMP_1,11*%
%TO.N,Net-(U_COMP_1-Pad11)*%
X157353000Y-68580000D03*
%TO.P,U_COMP_1,12*%
%TO.N,Pin4_GnD_Chassis*%
X154813000Y-68580000D03*
%TO.P,U_COMP_1,13*%
%TO.N,Net-(U_COMP_1-Pad13)*%
X152273000Y-68580000D03*
%TO.P,U_COMP_1,14*%
%TO.N,/OBDII Interpreter/Comparator Transceiver/VPW_RX*%
X149733000Y-68580000D03*
%TD*%
D32*
%TO.P,R_VS_2,1*%
%TO.N,/OBDII Interpreter/Analog_Voltage*%
X125476000Y-109908600D03*
%TO.P,R_VS_2,2*%
%TO.N,Pin4_GnD_Chassis*%
X125476000Y-112798600D03*
%TD*%
D16*
%TO.P,J_HST_3,2*%
%TO.N,Pin4_GnD_Chassis*%
X125175000Y-56286400D03*
%TO.P,J_HST_3,1*%
X130175000Y-56286400D03*
%TD*%
D46*
%TO.P,SW_STN_1,1*%
%TO.N,Pin4_GnD_Chassis*%
X129625001Y-93801999D03*
%TO.P,SW_STN_1,3*%
%TO.N,Net-(SW_STN_1-Pad3)*%
X129625001Y-90602001D03*
%TO.P,SW_STN_1,4*%
%TO.N,Net-(SW_STN_1-Pad4)*%
X124374999Y-90602001D03*
%TO.P,SW_STN_1,2*%
%TO.N,/OBDII Interpreter/~RESET_OBD_HW~*%
X124374999Y-93801999D03*
%TD*%
D47*
%TO.P,Y_STN_1,1*%
%TO.N,Net-(C_STN_2-Pad2)*%
X140300800Y-90170000D03*
%TO.P,Y_STN_1,2*%
%TO.N,Pin4_GnD_Chassis*%
X142100800Y-90170000D03*
%TO.P,Y_STN_1,3*%
%TO.N,Net-(C_STN_3-Pad1)*%
X142100800Y-88770000D03*
%TO.P,Y_STN_1,4*%
%TO.N,+3V3*%
X140300800Y-88770000D03*
%TD*%
D48*
%TO.P,U_VR1,1*%
%TO.N,/Power Supply/Voltage Regulator (5V)/Spread_Spectrum_Enable*%
X152453200Y-126969200D03*
%TO.P,U_VR1,2*%
%TO.N,+12V*%
X152453200Y-127469199D03*
%TO.P,U_VR1,3*%
%TO.N,Net-(C_VR1_BST1-Pad1)*%
X152453200Y-127969200D03*
%TO.P,U_VR1,4*%
%TO.N,Net-(C_VR1_in1-Pad1)*%
X152453200Y-128469200D03*
%TO.P,U_VR1,5*%
%TO.N,Net-(C_VR1_BST1-Pad2)*%
X152453200Y-128969201D03*
%TO.P,U_VR1,6*%
%TO.N,Pin4_GnD_Chassis*%
X152453200Y-129469200D03*
%TO.P,U_VR1,7*%
X155293200Y-129469200D03*
%TO.P,U_VR1,8*%
%TO.N,Net-(C_VR1_BIAS1-Pad1)*%
X155293200Y-128969201D03*
%TO.P,U_VR1,9*%
%TO.N,+5V*%
X155293200Y-128469200D03*
%TO.P,U_VR1,10*%
%TO.N,Net-(C_VR1_BIAS1-Pad1)*%
X155293200Y-127969200D03*
%TO.P,U_VR1,11*%
%TO.N,/Power Supply/Voltage Regulator (5V)/Sync_Signal*%
X155293200Y-127469199D03*
%TO.P,U_VR1,12*%
%TO.N,/Power Supply/Voltage Regulator (5V)/PGood*%
X155293200Y-126969200D03*
D49*
%TO.P,U_VR1,13*%
%TO.N,Pin4_GnD_Chassis*%
X153873200Y-128219200D03*
%TD*%
%TO.P,U_VR2,13*%
%TO.N,Pin4_GnD_Chassis*%
X134620000Y-131826000D03*
D48*
%TO.P,U_VR2,12*%
%TO.N,/Power Supply/Voltage Regulator (3.3V)/PGood*%
X133200000Y-133076000D03*
%TO.P,U_VR2,11*%
%TO.N,/Power Supply/Voltage Regulator (3.3V)/Sync_Signal*%
X133200000Y-132576001D03*
%TO.P,U_VR2,10*%
%TO.N,Net-(C_VR2_BIAS1-Pad1)*%
X133200000Y-132076000D03*
%TO.P,U_VR2,9*%
%TO.N,+3V3*%
X133200000Y-131576000D03*
%TO.P,U_VR2,8*%
%TO.N,Net-(R_VR2_1-Pad2)*%
X133200000Y-131075999D03*
%TO.P,U_VR2,7*%
%TO.N,Pin4_GnD_Chassis*%
X133200000Y-130576000D03*
%TO.P,U_VR2,6*%
X136040000Y-130576000D03*
%TO.P,U_VR2,5*%
%TO.N,Net-(C_VR2_BST1-Pad2)*%
X136040000Y-131075999D03*
%TO.P,U_VR2,4*%
%TO.N,Net-(C_VR2_in1-Pad1)*%
X136040000Y-131576000D03*
%TO.P,U_VR2,3*%
%TO.N,Net-(C_VR2_BST1-Pad1)*%
X136040000Y-132076000D03*
%TO.P,U_VR2,2*%
%TO.N,+12V*%
X136040000Y-132576001D03*
%TO.P,U_VR2,1*%
%TO.N,/Power Supply/Voltage Regulator (3.3V)/Spread_Spectrum_Enable*%
X136040000Y-133076000D03*
%TD*%
D28*
%TO.P,R_VR2_1,2*%
%TO.N,Net-(R_VR2_1-Pad2)*%
X126492000Y-131826000D03*
%TO.P,R_VR2_1,1*%
%TO.N,Pin4_GnD_Chassis*%
X126492000Y-133466000D03*
%TD*%
D50*
%TO.P,U_J1850_1,1*%
%TO.N,Net-(C_J1850_1-Pad1)*%
X168105000Y-88468200D03*
%TO.P,U_J1850_1,2*%
%TO.N,+V_J1850*%
X168105000Y-89738200D03*
%TO.P,U_J1850_1,3*%
%TO.N,Net-(U_J1850_1-Pad3)*%
X168105000Y-91008200D03*
%TO.P,U_J1850_1,4*%
%TO.N,Net-(R_J1850_3-Pad2)*%
X168105000Y-92278200D03*
%TO.P,U_J1850_1,5*%
%TO.N,Net-(U_J1850_1-Pad5)*%
X173355000Y-92278200D03*
%TO.P,U_J1850_1,6*%
%TO.N,Net-(U_J1850_1-Pad6)*%
X173355000Y-91008200D03*
%TO.P,U_J1850_1,7*%
%TO.N,Net-(U_J1850_1-Pad7)*%
X173355000Y-89738200D03*
%TO.P,U_J1850_1,8*%
%TO.N,Net-(U_J1850_1-Pad8)*%
X173355000Y-88468200D03*
%TD*%
D37*
%TO.P,C_STN_2,2*%
%TO.N,Net-(C_STN_2-Pad2)*%
X140364800Y-92202000D03*
%TO.P,C_STN_2,1*%
%TO.N,Pin4_GnD_Chassis*%
X141782800Y-92202000D03*
%TD*%
D18*
%TO.P,C_STN_4,2*%
%TO.N,Pin4_GnD_Chassis*%
X145910800Y-91020000D03*
%TO.P,C_STN_4,1*%
%TO.N,Net-(C_STN_4-Pad1)*%
X145910800Y-89320000D03*
%TD*%
D51*
%TO.P,Q_ISO_4,3*%
%TO.N,Pin15_ISO9141_L-Line*%
X164083000Y-139577400D03*
%TO.P,Q_ISO_4,2*%
%TO.N,Pin4_GnD_Chassis*%
X162083000Y-140527400D03*
%TO.P,Q_ISO_4,1*%
%TO.N,Net-(Q_ISO_4-Pad1)*%
X162083000Y-138627400D03*
%TD*%
D16*
%TO.P,J_STN_2,2*%
%TO.N,/Host/~RESET_OBD_HW~*%
X153924000Y-89204800D03*
%TO.P,J_STN_2,1*%
%TO.N,/OBDII Interpreter/~PWR_CTRL~*%
X153924000Y-94204800D03*
%TD*%
D30*
%TO.P,Q_PSW_4,3*%
%TO.N,+3V3*%
X145052400Y-123901200D03*
%TO.P,Q_PSW_4,2*%
%TO.N,+3.3V_SW*%
X147352400Y-122951200D03*
%TO.P,Q_PSW_4,1*%
%TO.N,/OBDII Interpreter/PWR_CTRL*%
X147352400Y-124851200D03*
%TD*%
D29*
%TO.P,Q_ISO_2,3*%
%TO.N,+12V*%
X162560000Y-149491700D03*
%TO.P,Q_ISO_2,2*%
%TO.N,Net-(Q_ISO_2-Pad2)*%
X163512500Y-151498300D03*
%TO.P,Q_ISO_2,1*%
%TO.N,/OBDII Interpreter/PWR_CTRL*%
X161607500Y-151498300D03*
%TD*%
D26*
%TO.P,Q_PSW_3,3*%
%TO.N,+5V*%
X162966400Y-108744400D03*
%TO.P,Q_PSW_3,2*%
%TO.N,+5V_SW*%
X162016400Y-106444400D03*
%TO.P,Q_PSW_3,1*%
%TO.N,/OBDII Interpreter/PWR_CTRL*%
X163916400Y-106444400D03*
%TD*%
D30*
%TO.P,Q_PSW_2,3*%
%TO.N,+12V*%
X130385200Y-119329200D03*
%TO.P,Q_PSW_2,2*%
%TO.N,+12V_SW*%
X128085200Y-120279200D03*
%TO.P,Q_PSW_2,1*%
%TO.N,/OBDII Interpreter/PWR_CTRL*%
X128085200Y-118379200D03*
%TD*%
D52*
%TO.P,CN1,0*%
%TO.N,Pin4_GnD_Chassis*%
X154735000Y-152400000D03*
X129745000Y-152400000D03*
D53*
%TO.P,CN1,15*%
%TO.N,Pin12*%
X146549999Y-149860000D03*
%TO.P,CN1,14*%
%TO.N,Pin9*%
X144259998Y-149860000D03*
%TO.P,CN1,13*%
%TO.N,Pin4_GnD_Chassis*%
X141970001Y-149860000D03*
%TO.P,CN1,12*%
%TO.N,Pin14_ISO15765_CAN_BUS_Low*%
X139680000Y-149860000D03*
%TO.P,CN1,11*%
%TO.N,Pin6_ISO15765_CAN_BUS_High*%
X137390000Y-149860000D03*
%TO.P,CN1,10*%
%TO.N,Pin16_Raw_+12V_Battery*%
X147695001Y-152400000D03*
%TO.P,CN1,9*%
%TO.N,Pin1_SW_CAN*%
X145405000Y-152400000D03*
%TO.P,CN1,8*%
%TO.N,Pin8*%
X143115000Y-152400000D03*
%TO.P,CN1,7*%
%TO.N,Pin15_ISO9141_L-Line*%
X140824999Y-152400000D03*
%TO.P,CN1,6*%
%TO.N,Pin7_ISO9141_K-Line*%
X138535001Y-152400000D03*
%TO.P,CN1,5*%
%TO.N,Pin13*%
X146549999Y-154940000D03*
%TO.P,CN1,4*%
%TO.N,Pin11_MS_CAN_Low*%
X144259998Y-154940000D03*
%TO.P,CN1,3*%
%TO.N,Pin3_MS_CAN_High*%
X141970001Y-154940000D03*
%TO.P,CN1,2*%
%TO.N,Pin10_SAE_J1850_BUS-*%
X139680000Y-154940000D03*
%TO.P,CN1,1*%
%TO.N,Pin2_SAE_J1850_BUS+*%
X137390000Y-154940000D03*
%TD*%
D54*
%TO.P,U_SWCAN_1,1*%
%TO.N,Pin4_GnD_Chassis*%
X122682000Y-65726048D03*
%TO.P,U_SWCAN_1,2*%
%TO.N,/OBDII Interpreter/OBDII Chip/SW_CAN_TX*%
X123952000Y-65726048D03*
%TO.P,U_SWCAN_1,3*%
%TO.N,/OBDII Interpreter/OBDII Chip/SW_CAN_MODE0*%
X125222000Y-65726048D03*
%TO.P,U_SWCAN_1,4*%
%TO.N,/OBDII Interpreter/OBDII Chip/SW_CAN_MODE1*%
X126492000Y-65726048D03*
%TO.P,U_SWCAN_1,5*%
%TO.N,/OBDII Interpreter/OBDII Chip/SW_CAN_RX*%
X127762000Y-65726048D03*
%TO.P,U_SWCAN_1,6*%
%TO.N,Net-(U_SWCAN_1-Pad6)*%
X129032000Y-65726048D03*
%TO.P,U_SWCAN_1,7*%
%TO.N,Pin4_GnD_Chassis*%
X130302000Y-65726048D03*
%TO.P,U_SWCAN_1,8*%
X130302000Y-60156352D03*
%TO.P,U_SWCAN_1,9*%
%TO.N,Net-(U_SWCAN_1-Pad9)*%
X129032000Y-60156352D03*
%TO.P,U_SWCAN_1,10*%
%TO.N,+12V*%
X127762000Y-60156352D03*
%TO.P,U_SWCAN_1,11*%
%TO.N,Net-(R_SWCAN_3-Pad2)*%
X126492000Y-60156352D03*
%TO.P,U_SWCAN_1,12*%
%TO.N,Pin1_SW_CAN*%
X125222000Y-60156352D03*
%TO.P,U_SWCAN_1,13*%
%TO.N,Net-(U_SWCAN_1-Pad13)*%
X123952000Y-60156352D03*
%TO.P,U_SWCAN_1,14*%
%TO.N,Pin4_GnD_Chassis*%
X122682000Y-60156352D03*
%TD*%
D43*
%TO.P,U_MSCAN_1,1*%
%TO.N,/OBDII Interpreter/Medium Speed CAN Transceiver/MS_CAN_TX*%
X120291499Y-95849300D03*
%TO.P,U_MSCAN_1,2*%
%TO.N,Pin4_GnD_Chassis*%
X119641501Y-95849300D03*
%TO.P,U_MSCAN_1,3*%
%TO.N,+5V*%
X118991499Y-95849300D03*
%TO.P,U_MSCAN_1,4*%
%TO.N,/OBDII Interpreter/Medium Speed CAN Transceiver/MS_CAN_RX*%
X118341501Y-95849300D03*
%TO.P,U_MSCAN_1,5*%
%TO.N,+3V3*%
X118341501Y-98587700D03*
%TO.P,U_MSCAN_1,6*%
%TO.N,Pin11_MS_CAN_Low*%
X118991499Y-98587700D03*
%TO.P,U_MSCAN_1,7*%
%TO.N,Pin3_MS_CAN_High*%
X119641501Y-98587700D03*
%TO.P,U_MSCAN_1,8*%
%TO.N,Net-(Q_MSCAN_1-Pad3)*%
X120291499Y-98587700D03*
D42*
%TO.P,U_MSCAN_1,9*%
%TO.N,Pin4_GnD_Chassis*%
X119316500Y-97218500D03*
%TD*%
D18*
%TO.P,C_STN_1,2*%
%TO.N,Pin4_GnD_Chassis*%
X128690000Y-77050000D03*
%TO.P,C_STN_1,1*%
%TO.N,+3V3*%
X128690000Y-75350000D03*
%TD*%
D34*
%TO.P,R_SWCAN_5,2*%
%TO.N,/OBDII Interpreter/OBDII Chip/SW_CAN_MODE1*%
X131572000Y-70612000D03*
%TO.P,R_SWCAN_5,1*%
%TO.N,+5V_SW*%
X133212000Y-70612000D03*
%TD*%
D55*
%TO.N,Pin4_GnD_Chassis*%
X116205000Y-146685000D03*
X134620000Y-149225000D03*
X144145000Y-142875000D03*
X172085000Y-141605000D03*
X120015000Y-83820000D03*
X119518660Y-93304964D03*
X132536999Y-93801999D03*
X117475000Y-112395000D03*
X122555000Y-130810000D03*
X133985000Y-129540000D03*
X121285000Y-65405000D03*
X132715000Y-62865000D03*
X156210000Y-103505000D03*
X139700000Y-116840000D03*
X139065000Y-62865000D03*
X168910000Y-69850000D03*
X167493500Y-82061500D03*
X158768400Y-86382082D03*
X166370000Y-128905000D03*
X122555000Y-78740000D03*
X119380000Y-76200000D03*
%TO.N,Net-(C_HSCAN_1-Pad1)*%
X119380000Y-64135000D03*
%TO.N,Net-(C_HSCAN_2-Pad1)*%
X116205000Y-63500000D03*
%TO.N,Net-(C_J1850_1-Pad1)*%
X171450000Y-85725000D03*
%TO.N,Net-(C_MSCAN_2-Pad1)*%
X120650000Y-139700000D03*
%TO.N,+12V*%
X132715000Y-66040000D03*
X127635000Y-58420000D03*
X150495000Y-109855000D03*
X152400000Y-135890000D03*
X132715000Y-119380000D03*
X157480000Y-111125000D03*
X162560000Y-147955000D03*
X159385000Y-142875000D03*
X151130000Y-125730000D03*
%TO.N,Net-(C_STN_4-Pad1)*%
X145415000Y-82406400D03*
X148590000Y-88900000D03*
%TO.N,Pin1_SW_CAN*%
X124460000Y-58420000D03*
X121827500Y-55152500D03*
X150495000Y-123825000D03*
X151130000Y-112395000D03*
X146050000Y-129540000D03*
X142803591Y-63428591D03*
%TO.N,Net-(C_VR1_BST1-Pad2)*%
X151107442Y-129026716D03*
X151130000Y-124460000D03*
%TO.N,Net-(C_VR1_BST1-Pad1)*%
X149860000Y-132715000D03*
%TO.N,Net-(C_VR1_in1-Pad1)*%
X149860000Y-128270000D03*
%TO.N,Net-(C_VR2_BST1-Pad2)*%
X132043248Y-127671752D03*
X137834000Y-129918002D03*
%TO.N,Net-(C_VR2_in1-Pad1)*%
X137795000Y-130810000D03*
%TO.N,/OBDII Interpreter/Analog_Voltage*%
X129540000Y-87630000D03*
X126365000Y-122555000D03*
X132715000Y-127000000D03*
%TO.N,Net-(CP_STN_1-Pad1)*%
X123190000Y-83185000D03*
%TO.N,Pin15_ISO9141_L-Line*%
X147955000Y-137795000D03*
X165735000Y-139700000D03*
%TO.N,Pin2_SAE_J1850_BUS+*%
X150495000Y-154940000D03*
X163195000Y-77470000D03*
X156672734Y-143337734D03*
X161925000Y-118745000D03*
X169545000Y-100330000D03*
X158355204Y-123190000D03*
X158750000Y-132715000D03*
%TO.N,/OBDII Interpreter/High Speed CAN Transceiver/HS_CAN_RX*%
X122661765Y-85196765D03*
%TO.N,Pin3_MS_CAN_High*%
X125730000Y-142875000D03*
X119591499Y-101600000D03*
%TO.N,Pin11_MS_CAN_Low*%
X132080000Y-154940000D03*
X129540000Y-147955000D03*
X118745000Y-102870000D03*
%TO.N,/OBDII Interpreter/Medium Speed CAN Transceiver/MS_CAN_RX*%
X122026765Y-85831765D03*
X120015000Y-92075000D03*
%TO.N,/OBDII Interpreter/OBDII Chip/SW_CAN_RX*%
X126365000Y-73660000D03*
X127000000Y-71755000D03*
X123825000Y-129540000D03*
X128270000Y-110490000D03*
X121920000Y-91440000D03*
%TO.N,/OBDII Interpreter/OBDII Chip/SW_CAN_MODE1*%
X127000000Y-68580000D03*
X130220000Y-71964000D03*
%TO.N,/OBDII Interpreter/OBDII Chip/SW_CAN_MODE0*%
X130820000Y-74930000D03*
X125857000Y-70612000D03*
%TO.N,/OBDII Interpreter/Comparator Transceiver/VPW_RX*%
X142105248Y-86860248D03*
X147891010Y-78595419D03*
%TO.N,/OBDII Interpreter/Comparator Transceiver/PWM_RX*%
X140970000Y-86360000D03*
%TO.N,/OBDII Interpreter/Comparator Transceiver/~ISO_RX~*%
X147955000Y-79375000D03*
X131582512Y-88713982D03*
%TO.N,+V_J1850*%
X163195000Y-90170000D03*
%TO.N,Net-(LED_STN_1-Pad1)*%
X114462300Y-115963700D03*
%TO.N,Net-(LED_STN_2-Pad1)*%
X114592000Y-112915700D03*
%TO.N,Net-(LED_STN_3-Pad1)*%
X114462300Y-109867700D03*
%TO.N,/OBDII Interpreter/~PWR_CTRL~*%
X149860000Y-95250000D03*
X119380000Y-142875000D03*
X148590000Y-83820000D03*
X142240000Y-114935000D03*
X129540000Y-130175000D03*
X123190000Y-136525000D03*
%TO.N,Net-(Q_ISO_3-Pad1)*%
X163936765Y-135148235D03*
X161290000Y-132715000D03*
%TO.N,Net-(Q_J1850_1-Pad3)*%
X160655000Y-87630000D03*
%TO.N,/OBDII Interpreter/OBDII Chip/~J1850_BUS+_VH~*%
X139655000Y-84500000D03*
X144145000Y-84455000D03*
%TO.N,Pin10_SAE_J1850_BUS-*%
X149860000Y-157480000D03*
X163830000Y-97155000D03*
X168910000Y-99060000D03*
%TO.N,/OBDII Interpreter/OBDII Chip/J1850_BUS-_TX*%
X154305000Y-83820000D03*
%TO.N,/OBDII Interpreter/OBDII Chip/J1850_BUS+_TX*%
X139708235Y-85197975D03*
X143510000Y-85100000D03*
X154305000Y-85725000D03*
X156845000Y-98425000D03*
X172720000Y-95885000D03*
%TO.N,/OBDII Interpreter/ISO 9141/ISO 14230 Transceiver/~ISO_K_TX~*%
X125720000Y-77470000D03*
X164465000Y-130175000D03*
%TO.N,/OBDII Interpreter/ISO 9141/ISO 14230 Transceiver/~ISO_L_TX~*%
X124460000Y-77470000D03*
X169545000Y-137160000D03*
%TO.N,/OBDII Interpreter/OBDII Chip/STATUS_LED*%
X123825000Y-89535000D03*
X117475000Y-89535000D03*
X113030000Y-90170000D03*
%TO.N,/OBDII Interpreter/~RESET_OBD_HW~*%
X123190000Y-95250000D03*
%TO.N,/OBDII Interpreter/RESET_OBD_SW*%
X128840000Y-89535000D03*
%TO.N,VDDA*%
X128270000Y-87630000D03*
%TO.N,Net-(Q_SWCAN_1-Pad3)*%
X140335000Y-63500000D03*
X137795000Y-64770000D03*
%TO.N,Net-(R_VR2_1-Pad2)*%
X127635000Y-130810000D03*
%TO.N,+5V_SW*%
X147955000Y-64135000D03*
X134747000Y-70612000D03*
%TO.N,/Host/HOST_TX*%
X121920000Y-81280000D03*
%TO.N,+12V_SW*%
X149860000Y-98425000D03*
%TO.N,/Host/I2C_SCL*%
X141605000Y-62230000D03*
%TO.N,/Host/I2C_SDA*%
X139700000Y-69215000D03*
%TO.N,/Host/MEMS_CS*%
X146050000Y-60960000D03*
%TO.N,/Host/MEMS_INT*%
X142875000Y-62230000D03*
X139218000Y-73025000D03*
%TO.N,Net-(J_SWCAN_1-Pad2)*%
X143510000Y-69215000D03*
X145415000Y-78105000D03*
X156210000Y-83820000D03*
%TO.N,/OBDII Interpreter/PWR_CTRL*%
X157755204Y-116794799D03*
X161607500Y-148272500D03*
%TO.N,+5V*%
X118110000Y-84455000D03*
X118745000Y-93345000D03*
X123190000Y-123825000D03*
X161290000Y-111760000D03*
X111760000Y-121920000D03*
X113665000Y-105410000D03*
X118110000Y-75565000D03*
X162220680Y-122894320D03*
X159385000Y-127060999D03*
%TO.N,+3V3*%
X127762000Y-125600002D03*
X139065000Y-88900000D03*
X117440500Y-107915500D03*
X127620000Y-76420000D03*
X147222000Y-83087000D03*
X117440500Y-100364500D03*
X146685000Y-76200000D03*
X144780000Y-73025000D03*
X129540000Y-132080000D03*
X139218000Y-74295000D03*
X116152237Y-90798288D03*
%TO.N,Net-(Q_HSCAN_1-Pad3)*%
X120650000Y-102870000D03*
X120650000Y-93980000D03*
X116205000Y-105410000D03*
%TO.N,Net-(Q_MSCAN_1-Pad3)*%
X120650000Y-107950000D03*
%TO.N,Net-(R_COMP_2-Pad2)*%
X168910000Y-76200000D03*
X168910000Y-76200000D03*
X169508248Y-116168248D03*
X169545000Y-118671496D03*
%TO.N,Net-(C_STN_2-Pad2)*%
X137750000Y-80600000D03*
X142875000Y-100330000D03*
X137160000Y-92710000D03*
%TO.N,Net-(C_STN_3-Pad1)*%
X144780000Y-89535000D03*
X143519949Y-81229949D03*
X145415000Y-95885000D03*
%TO.N,Net-(D_J1850_1-Pad2)*%
X162560000Y-80645000D03*
%TO.N,Net-(Q_ISO_2-Pad2)*%
X164465000Y-153670000D03*
%TO.N,Net-(Q_ISO_4-Pad1)*%
X165100000Y-138430000D03*
X167005000Y-137795000D03*
%TO.N,Net-(Q_J1850_2-Pad3)*%
X167005000Y-84455000D03*
%TO.N,Net-(R_J1850_3-Pad2)*%
X161925000Y-90805000D03*
%TO.N,Net-(R_SWCAN_3-Pad2)*%
X125095000Y-57785000D03*
X121920000Y-56515000D03*
%TO.N,Pin14_ISO15765_CAN_BUS_Low*%
X133350000Y-140970000D03*
X116205000Y-74295000D03*
X109855000Y-92075000D03*
%TO.N,Pin6_ISO15765_CAN_BUS_High*%
X129540000Y-140970000D03*
X115570000Y-73660000D03*
X114935000Y-93980000D03*
X120015000Y-137160000D03*
%TO.N,Pin7_ISO9141_K-Line*%
X135351001Y-150398999D03*
X146050000Y-136525000D03*
X173355000Y-134620000D03*
X172085000Y-151765000D03*
%TD*%
D56*
%TO.N,Pin4_GnD_Chassis*%
X116625000Y-147105000D02*
X116205000Y-146685000D01*
X119380000Y-147105000D02*
X116625000Y-147105000D01*
X172085000Y-137575000D02*
X170495000Y-135985000D01*
X172085000Y-141605000D02*
X172085000Y-137575000D01*
X171007400Y-140527400D02*
X172085000Y-141605000D01*
X162083000Y-140527400D02*
X171007400Y-140527400D01*
X124332500Y-82550000D02*
X128270000Y-82550000D01*
X120083601Y-83888601D02*
X120015000Y-83820000D01*
X120083601Y-86700000D02*
X120083601Y-83888601D01*
X119641501Y-95849300D02*
X119641501Y-93427805D01*
X115883700Y-97218500D02*
X119316500Y-97218500D01*
X112191800Y-100910400D02*
X115883700Y-97218500D01*
X126970000Y-86487500D02*
X127620000Y-86487500D01*
X127620000Y-85580000D02*
X127675000Y-85525000D01*
X127620000Y-86487500D02*
X127620000Y-85580000D01*
X129625001Y-93801999D02*
X128726999Y-93801999D01*
X126970000Y-92045000D02*
X126970000Y-86487500D01*
X128726999Y-93801999D02*
X126970000Y-92045000D01*
X130220000Y-85690000D02*
X130055000Y-85525000D01*
X130220000Y-86487500D02*
X130220000Y-85690000D01*
X141782800Y-90488000D02*
X142100800Y-90170000D01*
X141782800Y-92202000D02*
X141782800Y-90488000D01*
X141782800Y-92967000D02*
X140947801Y-93801999D01*
X141782800Y-92202000D02*
X141782800Y-92967000D01*
X132536999Y-93801999D02*
X129625001Y-93801999D01*
X140947801Y-93801999D02*
X132536999Y-93801999D01*
X143753799Y-93801999D02*
X143931800Y-93980000D01*
X140947801Y-93801999D02*
X143753799Y-93801999D01*
X143931800Y-92999000D02*
X145910800Y-91020000D01*
X143931800Y-93980000D02*
X143931800Y-92999000D01*
X145060800Y-90170000D02*
X145910800Y-91020000D01*
X142100800Y-90170000D02*
X145060800Y-90170000D01*
X158768400Y-86382082D02*
X158768400Y-85582800D01*
X154130482Y-91020000D02*
X158768400Y-86382082D01*
X145910800Y-91020000D02*
X154130482Y-91020000D01*
X124332500Y-79300000D02*
X124332500Y-80600000D01*
X124920000Y-79950000D02*
X125295000Y-79575000D01*
X124332500Y-79950000D02*
X124920000Y-79950000D01*
X128270000Y-78612500D02*
X129570000Y-78612500D01*
X128920000Y-78612500D02*
X128920000Y-79360000D01*
X128920000Y-77280000D02*
X128690000Y-77050000D01*
X128920000Y-78612500D02*
X128920000Y-77280000D01*
X129570000Y-83850000D02*
X128270000Y-82550000D01*
X132207500Y-83850000D02*
X129570000Y-83850000D01*
X131795000Y-82550000D02*
X128270000Y-82550000D01*
X132207500Y-82550000D02*
X131795000Y-82550000D01*
X123190000Y-99585500D02*
X123190000Y-101600000D01*
X120823000Y-97218500D02*
X123190000Y-99585500D01*
X119316500Y-97218500D02*
X120823000Y-97218500D01*
D57*
X117818800Y-112051200D02*
X122732800Y-112051200D01*
X117475000Y-112395000D02*
X117818800Y-112051200D01*
X123480200Y-112798600D02*
X122732800Y-112051200D01*
X125476000Y-112798600D02*
X123480200Y-112798600D01*
X122555000Y-128115800D02*
X122783600Y-127887200D01*
X122555000Y-130810000D02*
X122555000Y-128115800D01*
X121600000Y-131765000D02*
X122555000Y-130810000D01*
X121600000Y-135135000D02*
X121600000Y-131765000D01*
X123269000Y-133466000D02*
X121600000Y-135135000D01*
X126492000Y-133466000D02*
X123269000Y-133466000D01*
X128552000Y-133466000D02*
X129198000Y-134112000D01*
X126492000Y-133466000D02*
X128552000Y-133466000D01*
X135081402Y-129540000D02*
X136040000Y-130498598D01*
X133985000Y-129540000D02*
X135081402Y-129540000D01*
X134620000Y-130175000D02*
X134620000Y-131826000D01*
X133985000Y-129540000D02*
X134620000Y-130175000D01*
X134620000Y-142509999D02*
X141970001Y-149860000D01*
X134620000Y-131826000D02*
X134620000Y-142509999D01*
D56*
X131514000Y-68072000D02*
X131514000Y-66938048D01*
X130302000Y-56413400D02*
X130175000Y-56286400D01*
X130302000Y-60156352D02*
X130302000Y-56413400D01*
X122682000Y-58779400D02*
X125175000Y-56286400D01*
X122682000Y-60156352D02*
X122682000Y-58779400D01*
X122682000Y-65726048D02*
X121606048Y-65726048D01*
X121606048Y-65726048D02*
X121285000Y-65405000D01*
X131347976Y-64232024D02*
X132715000Y-62865000D01*
X131347976Y-66772024D02*
X131347976Y-64232024D01*
X131514000Y-66938048D02*
X131347976Y-66772024D01*
X131347976Y-66772024D02*
X130302000Y-65726048D01*
X130302000Y-60452000D02*
X130302000Y-60156352D01*
X132715000Y-62865000D02*
X130302000Y-60452000D01*
D57*
X139346200Y-62865000D02*
X142673600Y-59537600D01*
D56*
X158115000Y-105915002D02*
X158115000Y-105410000D01*
X158115000Y-105410000D02*
X156210000Y-103505000D01*
X156210000Y-103505000D02*
X156210000Y-92710000D01*
X154520000Y-91020000D02*
X154130482Y-91020000D01*
X156210000Y-92710000D02*
X154520000Y-91020000D01*
X145933200Y-116758000D02*
X145851200Y-116840000D01*
X145851200Y-116840000D02*
X139700000Y-116840000D01*
X145933200Y-115958000D02*
X145933200Y-116758000D01*
X138618000Y-74717000D02*
X140228000Y-76327000D01*
D58*
X138640500Y-71589500D02*
X138618000Y-71567000D01*
D57*
X138618000Y-68714000D02*
X138618000Y-63312000D01*
X138618000Y-63312000D02*
X139065000Y-62865000D01*
D56*
X139065000Y-62865000D02*
X139346200Y-62865000D01*
D57*
X132715000Y-62865000D02*
X139065000Y-62865000D01*
D56*
X168910000Y-69850000D02*
X168910000Y-68130000D01*
X163972200Y-85582800D02*
X167493500Y-82061500D01*
X158768400Y-85582800D02*
X163972200Y-85582800D01*
X153873200Y-128727799D02*
X153873200Y-128219200D01*
X153131799Y-129469200D02*
X153873200Y-128727799D01*
X152453200Y-129469200D02*
X153131799Y-129469200D01*
X154657198Y-129469200D02*
X155293200Y-129469200D01*
X153873200Y-128685202D02*
X154657198Y-129469200D01*
X153873200Y-128219200D02*
X153873200Y-128685202D01*
X158807200Y-129469200D02*
X159054800Y-129221600D01*
X155293200Y-129469200D02*
X158807200Y-129469200D01*
X166053400Y-129221600D02*
X166370000Y-128905000D01*
X159054800Y-129221600D02*
X166053400Y-129221600D01*
X165530000Y-128065000D02*
X166370000Y-128905000D01*
X161925000Y-128065000D02*
X165530000Y-128065000D01*
X167005000Y-56388000D02*
X167005000Y-56286400D01*
X154813000Y-68580000D02*
X167005000Y-56388000D01*
X119758600Y-88069200D02*
X119819200Y-88069200D01*
X120083601Y-87804799D02*
X120083601Y-86700000D01*
X119819200Y-88069200D02*
X120083601Y-87804799D01*
X119641501Y-96893499D02*
X119316500Y-97218500D01*
X119641501Y-95849300D02*
X119641501Y-96893499D01*
X133985000Y-129791000D02*
X133200000Y-130576000D01*
X133985000Y-129540000D02*
X133985000Y-129791000D01*
X138618000Y-72202000D02*
X138618000Y-74717000D01*
X138618000Y-71567000D02*
X138618000Y-72202000D01*
X141701001Y-74853999D02*
X140228000Y-76327000D01*
D58*
X138618000Y-71392002D02*
X138618000Y-71308000D01*
X140000998Y-72775000D02*
X138618000Y-71392002D01*
X140516000Y-72775000D02*
X140000998Y-72775000D01*
D56*
X138618000Y-71308000D02*
X138618000Y-71567000D01*
X138618000Y-68714000D02*
X138618000Y-71308000D01*
D58*
X140516000Y-72775000D02*
X140516000Y-73275000D01*
X141676000Y-74366000D02*
X141676000Y-73935000D01*
X141701001Y-74391001D02*
X141676000Y-74366000D01*
X141701001Y-74853999D02*
X141701001Y-74391001D01*
X141676000Y-73935000D02*
X142176000Y-73935000D01*
D56*
%TO.N,Net-(C_HSCAN_1-Pad1)*%
X119303800Y-65026800D02*
X119303800Y-64211200D01*
X119303800Y-64211200D02*
X119380000Y-64135000D01*
%TO.N,Net-(C_HSCAN_2-Pad1)*%
X116205000Y-64849000D02*
X116382800Y-65026800D01*
X116205000Y-63500000D02*
X116205000Y-64849000D01*
%TO.N,Net-(C_J1850_1-Pad1)*%
X168105000Y-88468200D02*
X168706800Y-88468200D01*
X168706800Y-88468200D02*
X171450000Y-85725000D01*
%TO.N,Net-(C_MSCAN_1-Pad1)*%
X121530000Y-148805000D02*
X121745000Y-148590000D01*
X119380000Y-148805000D02*
X121530000Y-148805000D01*
%TO.N,Net-(C_MSCAN_2-Pad1)*%
X121285000Y-139065000D02*
X120650000Y-139700000D01*
X122380000Y-139065000D02*
X121285000Y-139065000D01*
D58*
%TO.N,+12V*%
X140981999Y-132576001D02*
X141478000Y-132080000D01*
X136040000Y-132576001D02*
X140981999Y-132576001D01*
X162560000Y-149491700D02*
X162714501Y-149337199D01*
D59*
X127762000Y-58547000D02*
X127635000Y-58420000D01*
X127762000Y-60156352D02*
X127762000Y-58547000D01*
X132664200Y-119329200D02*
X132715000Y-119380000D01*
X130385200Y-119329200D02*
X132664200Y-119329200D01*
X157480000Y-109349998D02*
X158115000Y-108714998D01*
X157480000Y-113480000D02*
X157480000Y-109349998D01*
D60*
X160054100Y-143544100D02*
X163083000Y-143544100D01*
X162560000Y-149491700D02*
X162560000Y-147955000D01*
D59*
X159385000Y-142875000D02*
X152400000Y-135890000D01*
X160054100Y-143544100D02*
X159385000Y-142875000D01*
D61*
X151824601Y-127469199D02*
X151130000Y-126774598D01*
D56*
X151130000Y-126774598D02*
X151130000Y-125730000D01*
D61*
X152453200Y-127469199D02*
X151824601Y-127469199D01*
D56*
%TO.N,Net-(C_STN_4-Pad1)*%
X144173610Y-81900000D02*
X144780000Y-82506390D01*
X132207500Y-81900000D02*
X144173610Y-81900000D01*
X144780000Y-82506390D02*
X145415000Y-82506390D01*
X145415000Y-82506390D02*
X145415000Y-82406400D01*
X146330800Y-88900000D02*
X145910800Y-89320000D01*
X148590000Y-88900000D02*
X146330800Y-88900000D01*
%TO.N,Pin1_SW_CAN*%
X125830681Y-54920399D02*
X122059601Y-54920399D01*
X126155282Y-55245000D02*
X125830681Y-54920399D01*
X129519319Y-54920399D02*
X129194718Y-55245000D01*
X130830681Y-54920399D02*
X129519319Y-54920399D01*
X131155282Y-55245000D02*
X130830681Y-54920399D01*
X136259718Y-55245000D02*
X131155282Y-55245000D01*
X136584319Y-54920399D02*
X136259718Y-55245000D01*
X142895681Y-54920399D02*
X136584319Y-54920399D01*
X129194718Y-55245000D02*
X126155282Y-55245000D01*
X143606001Y-55630719D02*
X142895681Y-54920399D01*
X143606001Y-58865199D02*
X143606001Y-55630719D01*
X143533600Y-58937600D02*
X143606001Y-58865199D01*
X143533600Y-59537600D02*
X143533600Y-58937600D01*
X125222000Y-59182000D02*
X124460000Y-58420000D01*
X125222000Y-60156352D02*
X125222000Y-59182000D01*
X121827500Y-55152500D02*
X119195000Y-57785000D01*
X122059601Y-54920399D02*
X121827500Y-55152500D01*
X145405000Y-152400000D02*
X145415000Y-152400000D01*
X153898600Y-109626400D02*
X153898600Y-106070400D01*
X151130000Y-112395000D02*
X153898600Y-109626400D01*
X145111999Y-134951999D02*
X145415000Y-135255000D01*
X145111999Y-130478001D02*
X145111999Y-134951999D01*
X146050000Y-129540000D02*
X145111999Y-130478001D01*
X145415000Y-135255000D02*
X145415000Y-135164682D01*
X145415000Y-152400000D02*
X145415000Y-135255000D01*
X142274999Y-62899999D02*
X142803591Y-63428591D01*
X142274999Y-61941999D02*
X142274999Y-62899999D01*
X143533600Y-60683398D02*
X142274999Y-61941999D01*
X143533600Y-59537600D02*
X143533600Y-60683398D01*
%TO.N,Net-(C_VR1_BIAS1-Pad1)*%
X155293210Y-127969190D02*
X155293200Y-127969200D01*
X155971799Y-127969200D02*
X157480000Y-126460999D01*
X155293200Y-127969200D02*
X155971799Y-127969200D01*
X161829001Y-126460999D02*
X161925000Y-126365000D01*
X157480000Y-126460999D02*
X161829001Y-126460999D01*
D58*
X158670789Y-128969201D02*
X161274990Y-126365000D01*
X161274990Y-126365000D02*
X161925000Y-126365000D01*
X155293200Y-128969201D02*
X158670789Y-128969201D01*
%TO.N,Net-(C_VR1_BST1-Pad2)*%
X151164957Y-128969201D02*
X151107442Y-129026716D01*
X152453200Y-128969201D02*
X151164957Y-128969201D01*
X151714200Y-123875800D02*
X154044650Y-123875800D01*
X151130000Y-124460000D02*
X151714200Y-123875800D01*
%TO.N,Net-(C_VR1_BST1-Pad1)*%
X149595999Y-127719999D02*
X148590000Y-128725998D01*
X151216409Y-127719999D02*
X149595999Y-127719999D01*
X151465610Y-127969200D02*
X151216409Y-127719999D01*
X152453200Y-127969200D02*
X151465610Y-127969200D01*
X148590000Y-128725998D02*
X148590000Y-131445000D01*
X148590000Y-131445000D02*
X149860000Y-132715000D01*
D56*
%TO.N,Net-(C_VR1_in1-Pad1)*%
X151329200Y-128469200D02*
X152453200Y-128469200D01*
X151130000Y-128270000D02*
X151329200Y-128469200D01*
X149860000Y-128270000D02*
X151130000Y-128270000D01*
D61*
%TO.N,Net-(C_VR2_BIAS1-Pad1)*%
X133200000Y-132076000D02*
X132564000Y-132076000D01*
D56*
X130898000Y-133742000D02*
X130898000Y-134112000D01*
D61*
X132564000Y-132076000D02*
X130898000Y-133742000D01*
D56*
%TO.N,Net-(C_VR2_BST1-Pad2)*%
X136311141Y-131075999D02*
X136288541Y-131098599D01*
X136676003Y-131075999D02*
X136311141Y-131075999D01*
X137834000Y-129918002D02*
X136676003Y-131075999D01*
X137834000Y-125222000D02*
X137834000Y-129918002D01*
X131483050Y-128231950D02*
X132043248Y-127671752D01*
X127762000Y-128231950D02*
X131483050Y-128231950D01*
D58*
%TO.N,Net-(C_VR2_BST1-Pad1)*%
X139534000Y-129885002D02*
X139534000Y-125222000D01*
X137343002Y-132076000D02*
X139534000Y-129885002D01*
X136040000Y-132076000D02*
X137343002Y-132076000D01*
%TO.N,Net-(C_VR2_in1-Pad1)*%
X136040000Y-131576000D02*
X137029000Y-131576000D01*
X137029000Y-131576000D02*
X137795000Y-130810000D01*
%TO.N,/OBDII Interpreter/Analog_Voltage*%
X125033400Y-110351200D02*
X125476000Y-109908600D01*
D59*
X122732800Y-110351200D02*
X125033400Y-110351200D01*
D58*
X122732800Y-107137200D02*
X123190000Y-106680000D01*
D59*
X122732800Y-110351200D02*
X122732800Y-107137200D01*
X125730000Y-106680000D02*
X130810000Y-101600000D01*
X123190000Y-106680000D02*
X125730000Y-106680000D01*
D56*
X129570000Y-87600000D02*
X129540000Y-87630000D01*
X129570000Y-86487500D02*
X129570000Y-87600000D01*
D59*
X126365000Y-122555000D02*
X128270000Y-122555000D01*
X128270000Y-122555000D02*
X132715000Y-127000000D01*
D56*
%TO.N,Net-(CP_STN_1-Pad1)*%
X123205000Y-83200000D02*
X123190000Y-83185000D01*
X124332500Y-83200000D02*
X123205000Y-83200000D01*
%TO.N,Pin15_ISO9141_L-Line*%
X139700298Y-153524701D02*
X140824999Y-152400000D01*
X130429998Y-155702000D02*
X132607297Y-153524701D01*
X132607297Y-153524701D02*
X139700298Y-153524701D01*
X122094000Y-155702000D02*
X130429998Y-155702000D01*
X147955000Y-137795000D02*
X147955000Y-135327120D01*
X147955000Y-135327120D02*
X148662120Y-134620000D01*
X148662120Y-134620000D02*
X162560000Y-134620000D01*
X165735000Y-137795000D02*
X165735000Y-139700000D01*
X162560000Y-134620000D02*
X165735000Y-137795000D01*
X165612400Y-139577400D02*
X165735000Y-139700000D01*
X164083000Y-139577400D02*
X165612400Y-139577400D01*
%TO.N,Net-(D_J1850_2-Pad2)*%
X171983400Y-101892100D02*
X169405300Y-104470200D01*
X171983400Y-100761800D02*
X171983400Y-101892100D01*
%TO.N,Pin2_SAE_J1850_BUS+*%
X168910000Y-77470000D02*
X172720000Y-73660000D01*
X163195000Y-77470000D02*
X168910000Y-77470000D01*
X170775200Y-100330000D02*
X171983400Y-99121800D01*
X169545000Y-100330000D02*
X170775200Y-100330000D01*
X171983400Y-99121800D02*
X172023200Y-99121800D01*
X174540001Y-75480001D02*
X172720000Y-73660000D01*
X174540001Y-96604999D02*
X174540001Y-75480001D01*
X172023200Y-99121800D02*
X174540001Y-96604999D01*
X158115000Y-123190000D02*
X158355204Y-123190000D01*
X160020000Y-118745000D02*
X158115000Y-120650000D01*
X161925000Y-118745000D02*
X160020000Y-118745000D01*
X158115000Y-120650000D02*
X158115000Y-123190000D01*
%TO.N,/OBDII Interpreter/High Speed CAN Transceiver/HS_CAN_RX*%
X112090200Y-76588200D02*
X112090200Y-79705200D01*
X118783601Y-86398601D02*
X118783601Y-86700000D01*
X112090200Y-79705200D02*
X118783601Y-86398601D01*
X122708530Y-85150000D02*
X122661765Y-85196765D01*
X124332500Y-85150000D02*
X122708530Y-85150000D01*
%TO.N,/OBDII Interpreter/High Speed CAN Transceiver/HS_CAN_TX*%
X122894878Y-83850000D02*
X124332500Y-83850000D01*
X112090200Y-73045322D02*
X122894878Y-83850000D01*
X112090200Y-71588200D02*
X112090200Y-73045322D01*
X122452880Y-83850000D02*
X122894878Y-83850000D01*
X120733599Y-85569281D02*
X122452880Y-83850000D01*
X120733599Y-86700000D02*
X120733599Y-85569281D01*
%TO.N,Pin3_MS_CAN_High*%
X125270000Y-142415000D02*
X125270000Y-139065000D01*
X125730000Y-142875000D02*
X125270000Y-142415000D01*
X119641501Y-101549998D02*
X119591499Y-101600000D01*
X119641501Y-98587700D02*
X119641501Y-101549998D01*
%TO.N,Pin11_MS_CAN_Low*%
X143135297Y-156064701D02*
X144259998Y-154940000D01*
X133204701Y-156064701D02*
X143135297Y-156064701D01*
X132080000Y-154940000D02*
X133204701Y-156064701D01*
X125270000Y-147955000D02*
X124635000Y-148590000D01*
X129540000Y-147955000D02*
X125270000Y-147955000D01*
X118991499Y-102623501D02*
X118745000Y-102870000D01*
X118991499Y-98587700D02*
X118991499Y-102623501D01*
%TO.N,/OBDII Interpreter/Medium Speed CAN Transceiver/MS_CAN_RX*%
X122058530Y-85800000D02*
X122026765Y-85831765D01*
X124332500Y-85800000D02*
X122058530Y-85800000D01*
X118341501Y-95849300D02*
X117475000Y-94982799D01*
X117475000Y-93726998D02*
X118456999Y-92744999D01*
X117475000Y-94982799D02*
X117475000Y-93726998D01*
X119190623Y-92744999D02*
X119230659Y-92704963D01*
X118456999Y-92744999D02*
X119190623Y-92744999D01*
X119661447Y-92075000D02*
X120015000Y-92075000D01*
X119190623Y-92545824D02*
X119661447Y-92075000D01*
X119190623Y-92744999D02*
X119190623Y-92545824D01*
%TO.N,/OBDII Interpreter/Medium Speed CAN Transceiver/MS_CAN_TX*%
X124332500Y-84500000D02*
X123920000Y-84500000D01*
X121315101Y-94825698D02*
X120291499Y-95849300D01*
X121315101Y-85694899D02*
X121315101Y-94825698D01*
X122510000Y-84500000D02*
X121315101Y-85694899D01*
X124332500Y-84500000D02*
X122510000Y-84500000D01*
%TO.N,/OBDII Interpreter/OBDII Chip/SW_CAN_RX*%
X126320000Y-73705000D02*
X126365000Y-73660000D01*
X126320000Y-78612500D02*
X126320000Y-73705000D01*
X127762000Y-70993000D02*
X127762000Y-65726048D01*
X127000000Y-71755000D02*
X127762000Y-70993000D01*
X124866400Y-127749200D02*
X124866400Y-128498600D01*
X124866400Y-128498600D02*
X123825000Y-129540000D01*
%TO.N,/OBDII Interpreter/OBDII Chip/SW_CAN_MODE1*%
X130220000Y-71964000D02*
X131572000Y-70612000D01*
X130220000Y-78612500D02*
X130220000Y-71964000D01*
X126492000Y-65726048D02*
X126492000Y-68072000D01*
X126492000Y-68072000D02*
X127000000Y-68580000D01*
%TO.N,/OBDII Interpreter/OBDII Chip/SW_CAN_MODE0*%
X130820000Y-78562500D02*
X130870000Y-78612500D01*
X130820000Y-74930000D02*
X130820000Y-78562500D01*
X125222000Y-69977000D02*
X125857000Y-70612000D01*
X125222000Y-65726048D02*
X125222000Y-69977000D01*
%TO.N,/OBDII Interpreter/OBDII Chip/SW_CAN_TX*%
X126970000Y-72895000D02*
X123925000Y-69850000D01*
X126970000Y-78612500D02*
X126970000Y-72895000D01*
X123925000Y-65753048D02*
X123952000Y-65726048D01*
X123925000Y-69850000D02*
X123925000Y-65753048D01*
%TO.N,/OBDII Interpreter/Comparator Transceiver/VPW_RX*%
X131520000Y-86487500D02*
X131520000Y-87070000D01*
X131520000Y-87070000D02*
X132080000Y-87630000D01*
X141335496Y-87630000D02*
X142105248Y-86860248D01*
X132080000Y-87630000D02*
X141335496Y-87630000D01*
%TO.N,/OBDII Interpreter/Comparator Transceiver/PWM_RX*%
X140410000Y-85800000D02*
X140970000Y-86360000D01*
X132207500Y-85800000D02*
X140410000Y-85800000D01*
%TO.N,/OBDII Interpreter/Comparator Transceiver/~ISO_RX~*%
X130870000Y-88001470D02*
X130870000Y-86487500D01*
X131582512Y-88713982D02*
X130870000Y-88001470D01*
D59*
%TO.N,+V_J1850*%
X163626800Y-89738200D02*
X163195000Y-90170000D01*
X168105000Y-89738200D02*
X163626800Y-89738200D01*
X168175000Y-85190000D02*
X163195000Y-90170000D01*
X169545000Y-85190000D02*
X168175000Y-85190000D01*
D56*
%TO.N,Net-(LED_STN_1-Pad1)*%
X114592000Y-115963700D02*
X114462300Y-115963700D01*
%TO.N,Net-(LED_STN_3-Pad1)*%
X114618000Y-109867700D02*
X114462300Y-109867700D01*
%TO.N,/OBDII Interpreter/~PWR_CTRL~*%
X153924000Y-94204800D02*
X150905200Y-94204800D01*
X150905200Y-94204800D02*
X149860000Y-95250000D01*
X119414999Y-135420001D02*
X119414999Y-142840001D01*
X119700000Y-135135000D02*
X119414999Y-135420001D01*
X119414999Y-142840001D02*
X119380000Y-142875000D01*
X144973002Y-79950000D02*
X147955000Y-82931998D01*
X132207500Y-79950000D02*
X144973002Y-79950000D01*
X147955000Y-82931998D02*
X147955000Y-83185000D01*
X147955000Y-83185000D02*
X148590000Y-83820000D01*
X143263000Y-115958000D02*
X142240000Y-114935000D01*
X144033200Y-115958000D02*
X143263000Y-115958000D01*
X140716998Y-114935000D02*
X139065000Y-116586998D01*
X142240000Y-114935000D02*
X140716998Y-114935000D01*
X139065000Y-122310998D02*
X132470998Y-128905000D01*
X139065000Y-116586998D02*
X139065000Y-122310998D01*
X132470998Y-128905000D02*
X130810000Y-128905000D01*
X130810000Y-128905000D02*
X129540000Y-130175000D01*
X121090000Y-136525000D02*
X119700000Y-135135000D01*
X123190000Y-136525000D02*
X121090000Y-136525000D01*
%TO.N,Net-(Q_ISO_1-Pad2)*%
X164035500Y-148135500D02*
X167665000Y-151765000D01*
X164035500Y-145550700D02*
X164035500Y-148135500D01*
%TO.N,Net-(Q_ISO_3-Pad1)*%
X168595000Y-135985000D02*
X164632120Y-135985000D01*
X163936765Y-135289645D02*
X163936765Y-135148235D01*
X164632120Y-135985000D02*
X163936765Y-135289645D01*
X162953800Y-132715000D02*
X163233200Y-132435600D01*
X161290000Y-132715000D02*
X162953800Y-132715000D01*
%TO.N,Net-(Q_J1850_1-Pad3)*%
X164239701Y-81461499D02*
X161068400Y-84632800D01*
X167781501Y-81461499D02*
X164239701Y-81461499D01*
X168093501Y-82349501D02*
X168093501Y-81773499D01*
X168093501Y-81773499D02*
X167781501Y-81461499D01*
X162813002Y-87630000D02*
X168093501Y-82349501D01*
X160655000Y-87630000D02*
X162813002Y-87630000D01*
%TO.N,/OBDII Interpreter/OBDII Chip/~J1850_BUS+_VH~*%
X132207500Y-84500000D02*
X139655000Y-84500000D01*
X157996200Y-84455000D02*
X158768400Y-83682800D01*
X144145000Y-84455000D02*
X157996200Y-84455000D01*
%TO.N,Pin10_SAE_J1850_BUS-*%
X163830000Y-97155000D02*
X167005000Y-97155000D01*
X167005000Y-97155000D02*
X168910000Y-99060000D01*
%TO.N,/OBDII Interpreter/OBDII Chip/J1850_BUS-_TX*%
X145030122Y-79300000D02*
X149550122Y-83820000D01*
X132207500Y-79300000D02*
X145030122Y-79300000D01*
X149550122Y-83820000D02*
X154305000Y-83820000D01*
%TO.N,/OBDII Interpreter/OBDII Chip/J1850_BUS+_TX*%
X139660260Y-85150000D02*
X139708235Y-85197975D01*
X132207500Y-85150000D02*
X139660260Y-85150000D01*
X144135000Y-85725000D02*
X154305000Y-85725000D01*
X143510000Y-85100000D02*
X144135000Y-85725000D01*
%TO.N,/OBDII Interpreter/OBDII Chip/SW_CAN_LOAD*%
X131520000Y-78612500D02*
X134112500Y-78612500D01*
X136718000Y-76007000D02*
X136718000Y-68714000D01*
X134112500Y-78612500D02*
X136718000Y-76007000D01*
X133796000Y-68714000D02*
X133154000Y-68072000D01*
X136718000Y-68714000D02*
X133796000Y-68714000D01*
%TO.N,/OBDII Interpreter/ISO 9141/ISO 14230 Transceiver/~ISO_K_TX~*%
X125670000Y-77520000D02*
X125720000Y-77470000D01*
X125670000Y-78612500D02*
X125670000Y-77520000D01*
X164465000Y-132067400D02*
X164833200Y-132435600D01*
X164465000Y-130175000D02*
X164465000Y-132067400D01*
%TO.N,/OBDII Interpreter/ISO 9141/ISO 14230 Transceiver/~ISO_L_TX~*%
X125020000Y-78030000D02*
X124460000Y-77470000D01*
X125020000Y-78612500D02*
X125020000Y-78030000D01*
X169545000Y-138760000D02*
X169240000Y-139065000D01*
X169545000Y-137160000D02*
X169545000Y-138760000D01*
%TO.N,/OBDII Interpreter/OBDII Chip/STATUS_LED*%
X126320000Y-87040000D02*
X126320000Y-86487500D01*
X123825000Y-89535000D02*
X126320000Y-87040000D01*
%TO.N,/OBDII Interpreter/~RESET_OBD_HW~*%
X124374999Y-93801999D02*
X124374999Y-94065001D01*
X124374999Y-94065001D02*
X123190000Y-95250000D01*
X123190000Y-88317500D02*
X125020000Y-86487500D01*
X123190000Y-95250000D02*
X123190000Y-88317500D01*
%TO.N,/OBDII Interpreter/RESET_OBD_SW*%
X128920000Y-86900000D02*
X128920000Y-86487500D01*
X134264400Y-90874000D02*
X132894000Y-90874000D01*
D61*
X128920000Y-89455000D02*
X128840000Y-89535000D01*
X128920000Y-86487500D02*
X128920000Y-89455000D01*
X131752002Y-90874000D02*
X132894000Y-90874000D01*
X130413002Y-89535000D02*
X131752002Y-90874000D01*
X128840000Y-89535000D02*
X130413002Y-89535000D01*
D58*
%TO.N,VDDA*%
X128270000Y-87630000D02*
X128270000Y-86487500D01*
D56*
%TO.N,Net-(Q_SWCAN_1-Pad3)*%
X137795000Y-66287000D02*
X137668000Y-66414000D01*
X137795000Y-64770000D02*
X137795000Y-66287000D01*
D61*
%TO.N,Net-(R_VR2_1-Pad2)*%
X126619000Y-131826000D02*
X127635000Y-130810000D01*
D56*
X126492000Y-131826000D02*
X126619000Y-131826000D01*
D58*
X127635000Y-130810000D02*
X132080000Y-130810000D01*
D62*
X132345999Y-131075999D02*
X133200000Y-131075999D01*
X132080000Y-130810000D02*
X132345999Y-131075999D01*
D59*
%TO.N,+3.3V_SW*%
X147352400Y-119412400D02*
X147320000Y-119380000D01*
X147352400Y-122951200D02*
X147352400Y-119412400D01*
%TO.N,+5V_SW*%
X173151800Y-112090200D02*
X173151800Y-113868200D01*
X157795205Y-118160800D02*
X153924000Y-118160800D01*
X158481005Y-117475000D02*
X157795205Y-118160800D01*
X169545000Y-117475000D02*
X158481005Y-117475000D01*
X173151800Y-113868200D02*
X169545000Y-117475000D01*
X166305999Y-105244399D02*
X173151800Y-112090200D01*
X163216401Y-105244399D02*
X166305999Y-105244399D01*
X162016400Y-106444400D02*
X163216401Y-105244399D01*
D60*
X133212000Y-70612000D02*
X134747000Y-70612000D01*
D56*
%TO.N,/Host/HOST_TX*%
X121950000Y-81250000D02*
X121920000Y-81280000D01*
X124332500Y-81250000D02*
X121950000Y-81250000D01*
X113956211Y-61737611D02*
X112090200Y-59871600D01*
X113956211Y-73316211D02*
X113956211Y-61737611D01*
X121920000Y-81280000D02*
X113956211Y-73316211D01*
%TO.N,/Host/HOST_RX*%
X113456201Y-66237601D02*
X112090200Y-64871600D01*
X113456201Y-73704203D02*
X113456201Y-66237601D01*
X121651998Y-81900000D02*
X113456201Y-73704203D01*
X124332500Y-81900000D02*
X121651998Y-81900000D01*
%TO.N,/Host/~RESET_OBD_HW~*%
X144671201Y-88188801D02*
X139438800Y-82956400D01*
X152908001Y-88188801D02*
X144671201Y-88188801D01*
X153924000Y-89204800D02*
X152908001Y-88188801D01*
X139195200Y-83200000D02*
X132207500Y-83200000D01*
X139438800Y-82956400D02*
X139195200Y-83200000D01*
D59*
%TO.N,+12V_SW*%
X128085200Y-120279200D02*
X128085200Y-120465200D01*
X128085200Y-120465200D02*
X130175000Y-122555000D01*
X131902200Y-122555000D02*
X136042400Y-118414800D01*
X130175000Y-122555000D02*
X131902200Y-122555000D01*
X132705599Y-111698799D02*
X136586201Y-111698799D01*
X126885199Y-117519199D02*
X132705599Y-111698799D01*
X126885199Y-119079199D02*
X126885199Y-117519199D01*
X128085200Y-120279200D02*
X126885199Y-119079199D01*
X136586201Y-111698799D02*
X149860000Y-98425000D01*
D58*
%TO.N,/Host/I2C_SCL*%
X141676000Y-70929500D02*
X141676000Y-62301000D01*
X141676000Y-62301000D02*
X141605000Y-62230000D01*
D61*
X141676000Y-72115000D02*
X141676000Y-70929500D01*
D58*
%TO.N,/Host/I2C_SDA*%
X141176000Y-70691000D02*
X139700000Y-69215000D01*
X141176000Y-70929500D02*
X141176000Y-70691000D01*
D61*
X141176000Y-70929500D02*
X141176000Y-72115000D01*
D56*
%TO.N,/Host/MEMS_CS*%
X149940000Y-56286400D02*
X151616400Y-54610000D01*
X160328600Y-54610000D02*
X162005000Y-56286400D01*
X151616400Y-54610000D02*
X160328600Y-54610000D01*
D58*
X142176000Y-70929500D02*
X142176000Y-64834000D01*
X142176000Y-64834000D02*
X146050000Y-60960000D01*
D61*
X142176000Y-70929500D02*
X142176000Y-72115000D01*
D56*
%TO.N,/Host/MEMS_INT*%
X154940000Y-56286400D02*
X152171400Y-59055000D01*
X152171400Y-59055000D02*
X146050000Y-59055000D01*
X146050000Y-59055000D02*
X142875000Y-62230000D01*
D58*
X139968000Y-73775000D02*
X139218000Y-73025000D01*
X140516000Y-73775000D02*
X139968000Y-73775000D01*
D56*
%TO.N,Net-(J_SWCAN_1-Pad2)*%
X145664999Y-77855001D02*
X150245001Y-77855001D01*
X145415000Y-78105000D02*
X145664999Y-77855001D01*
X150245001Y-77855001D02*
X156210000Y-83820000D01*
%TO.N,/OBDII Interpreter/PWR_CTRL*%
X161607500Y-146073700D02*
X162130500Y-145550700D01*
X148686001Y-117360801D02*
X144983200Y-113658000D01*
X148686001Y-123517599D02*
X148686001Y-117360801D01*
X147352400Y-124851200D02*
X148686001Y-123517599D01*
X138777518Y-113658000D02*
X144983200Y-113658000D01*
X134056318Y-118379200D02*
X138777518Y-113658000D01*
X128085200Y-118379200D02*
X134056318Y-118379200D01*
X162610002Y-111940001D02*
X164469999Y-111940001D01*
X164469999Y-111940001D02*
X165285000Y-111125000D01*
X157755204Y-116794799D02*
X162610002Y-111940001D01*
X149252003Y-116794799D02*
X157755204Y-116794799D01*
X148686001Y-117360801D02*
X149252003Y-116794799D01*
X165285000Y-107813000D02*
X163916400Y-106444400D01*
X165285000Y-111125000D02*
X165285000Y-107813000D01*
X161607500Y-148272500D02*
X161607500Y-146073700D01*
X161607500Y-151498300D02*
X161607500Y-148272500D01*
X157755204Y-115395204D02*
X157480000Y-115120000D01*
X157755204Y-116794799D02*
X157755204Y-115395204D01*
D58*
%TO.N,+5V*%
X119433599Y-86700000D02*
X119433599Y-85778599D01*
D57*
X119433599Y-85778599D02*
X118110000Y-84455000D01*
D56*
X118991499Y-93591499D02*
X118745000Y-93345000D01*
X118991499Y-95849300D02*
X118991499Y-93591499D01*
D59*
X122783600Y-124231400D02*
X123190000Y-123825000D01*
X122783600Y-126187200D02*
X122783600Y-124231400D01*
X173355000Y-61772800D02*
X173355000Y-66772800D01*
X161290000Y-111760000D02*
X161290000Y-111125000D01*
X162966400Y-109448600D02*
X162966400Y-108744400D01*
X161290000Y-111125000D02*
X162966400Y-109448600D01*
X122783600Y-124231400D02*
X114071400Y-124231400D01*
X114071400Y-124231400D02*
X111760000Y-121920000D01*
X120843801Y-72831199D02*
X118110000Y-75565000D01*
X120843801Y-71461199D02*
X122455000Y-69850000D01*
X120843801Y-72831199D02*
X120843801Y-71461199D01*
X160974999Y-124140001D02*
X162220680Y-122894320D01*
X156302751Y-124140001D02*
X160974999Y-124140001D01*
X156038550Y-123875800D02*
X156302751Y-124140001D01*
D58*
X155425790Y-128419210D02*
X157965790Y-128419210D01*
X155375800Y-128469200D02*
X155425790Y-128419210D01*
X155293200Y-128469200D02*
X155375800Y-128469200D01*
X159324001Y-127060999D02*
X159385000Y-127060999D01*
X157965790Y-128419210D02*
X159324001Y-127060999D01*
D59*
%TO.N,+3V3*%
X116193000Y-112889700D02*
X116167000Y-112915700D01*
X116193000Y-109867700D02*
X116193000Y-112889700D01*
X116167000Y-112915700D02*
X116167000Y-115963700D01*
X116193000Y-109867700D02*
X116193000Y-109163000D01*
X116167000Y-115963700D02*
X117487650Y-115963700D01*
X124866400Y-123418600D02*
X124904475Y-123380525D01*
X124866400Y-126149200D02*
X124866400Y-123418600D01*
X124904475Y-123380525D02*
X127762000Y-126238050D01*
X117487650Y-115963700D02*
X124904475Y-123380525D01*
X145052400Y-122112400D02*
X142320000Y-119380000D01*
X145052400Y-123901200D02*
X145052400Y-122112400D01*
X140170800Y-88900000D02*
X140300800Y-88770000D01*
X140170800Y-88900000D02*
X139310798Y-88900000D01*
X117440500Y-107915500D02*
X119380000Y-105976000D01*
X116193000Y-109163000D02*
X117440500Y-107915500D01*
X117440500Y-100364500D02*
X117440500Y-107915500D01*
D58*
X127620000Y-76420000D02*
X128690000Y-75350000D01*
X127620000Y-78612500D02*
X127620000Y-76420000D01*
X141078800Y-82956400D02*
X147091400Y-82956400D01*
X147091400Y-82956400D02*
X147222000Y-83087000D01*
X133200000Y-131576000D02*
X131949000Y-131576000D01*
D60*
X146558000Y-76327000D02*
X146685000Y-76200000D01*
X146685000Y-76200000D02*
X146685000Y-74930000D01*
X146685000Y-74930000D02*
X144780000Y-73025000D01*
D56*
X131445000Y-132080000D02*
X131949000Y-131576000D01*
D63*
X129540000Y-132080000D02*
X131445000Y-132080000D01*
D59*
X134542800Y-92235600D02*
X134264400Y-92514000D01*
X135729400Y-92235600D02*
X134542800Y-92235600D01*
X139065000Y-88900000D02*
X137160000Y-90805000D01*
X137160000Y-90805000D02*
X135729400Y-92235600D01*
D57*
X117440500Y-100364500D02*
X117440500Y-99416799D01*
D63*
X117440500Y-99416799D02*
X117512402Y-99416799D01*
D64*
X118238698Y-98690503D02*
X118238698Y-98618601D01*
X117512402Y-99416799D02*
X118238698Y-98690503D01*
X146050000Y-76835000D02*
X146685000Y-76200000D01*
X142728000Y-76835000D02*
X146050000Y-76835000D01*
D58*
X144030000Y-73775000D02*
X144780000Y-73025000D01*
X142836000Y-73775000D02*
X144030000Y-73775000D01*
X141011002Y-74295000D02*
X139218000Y-74295000D01*
X141176000Y-74130002D02*
X141011002Y-74295000D01*
X141176000Y-73935000D02*
X141176000Y-74130002D01*
D56*
X118783601Y-89438400D02*
X118783601Y-90131399D01*
D63*
X118783601Y-90131399D02*
X118110000Y-90805000D01*
D58*
X116158949Y-90805000D02*
X116152237Y-90798288D01*
D57*
X118110000Y-90805000D02*
X116158949Y-90805000D01*
D58*
%TO.N,Net-(Q_HSCAN_1-Pad3)*%
X119380000Y-104140000D02*
X120650000Y-102870000D01*
X119380000Y-104336000D02*
X119380000Y-104140000D01*
X120650000Y-89521999D02*
X120733599Y-89438400D01*
X120650000Y-93980000D02*
X120650000Y-89521999D01*
D56*
X120650000Y-132835000D02*
X120650000Y-132715000D01*
X110909992Y-110705008D02*
X116205000Y-105410000D01*
X110909992Y-122974992D02*
X110909992Y-110705008D01*
X120650000Y-132715000D02*
X110909992Y-122974992D01*
%TO.N,Net-(Q_MSCAN_1-Pad3)*%
X121250001Y-99742003D02*
X121250001Y-107349999D01*
X120291499Y-98783501D02*
X121250001Y-99742003D01*
X120291499Y-98587700D02*
X120291499Y-98783501D01*
X121250001Y-107349999D02*
X120650000Y-107950000D01*
%TO.N,Net-(R_COMP_2-Pad2)*%
X163430701Y-75202299D02*
X167912299Y-75202299D01*
X162433000Y-76200000D02*
X163430701Y-75202299D01*
X167912299Y-75202299D02*
X168910000Y-76200000D01*
X173955001Y-145899999D02*
X172720000Y-147135000D01*
X173955001Y-134331999D02*
X173955001Y-145899999D01*
X169545000Y-129921998D02*
X173955001Y-134331999D01*
X169545000Y-118671496D02*
X169545000Y-129921998D01*
%TO.N,Net-(C_STN_2-Pad2)*%
X140300800Y-92138000D02*
X140364800Y-92202000D01*
X140300800Y-90170000D02*
X140300800Y-92138000D01*
X132207500Y-80600000D02*
X137750000Y-80600000D01*
X139700000Y-90170000D02*
X140300800Y-90170000D01*
X137160000Y-92710000D02*
X139700000Y-90170000D01*
X139856800Y-92710000D02*
X140364800Y-92202000D01*
X137160000Y-92710000D02*
X139856800Y-92710000D01*
%TO.N,Net-(C_STN_3-Pad1)*%
X144015000Y-88770000D02*
X142100800Y-88770000D01*
X144780000Y-89535000D02*
X144015000Y-88770000D01*
X143540000Y-81250000D02*
X143510000Y-81280000D01*
X132207500Y-81250000D02*
X143540000Y-81250000D01*
X143540000Y-81250000D02*
X143519949Y-81229949D01*
X145415000Y-94045200D02*
X145349800Y-93980000D01*
X145415000Y-95885000D02*
X145415000Y-94045200D01*
%TO.N,Net-(Q_ISO_2-Pad2)*%
X164465000Y-152450800D02*
X163512500Y-151498300D01*
X164465000Y-153670000D02*
X164465000Y-152450800D01*
%TO.N,Net-(Q_ISO_4-Pad1)*%
X162083000Y-138627400D02*
X162083000Y-138588000D01*
X162083000Y-138588000D02*
X162241000Y-138430000D01*
X162241000Y-138430000D02*
X165100000Y-138430000D01*
X167005000Y-138430000D02*
X167640000Y-139065000D01*
X167005000Y-137795000D02*
X167005000Y-138430000D01*
%TO.N,Net-(Q_J1850_2-Pad3)*%
X167740000Y-83720000D02*
X169545000Y-83720000D01*
X167005000Y-84455000D02*
X167740000Y-83720000D01*
%TO.N,Net-(R_COMP_7-Pad2)*%
X167063000Y-66490000D02*
X164973000Y-68580000D01*
X168910000Y-66490000D02*
X167063000Y-66490000D01*
%TO.N,Net-(R_J1850_3-Pad2)*%
X163398200Y-92278200D02*
X168105000Y-92278200D01*
X161925000Y-90805000D02*
X163398200Y-92278200D01*
%TO.N,Net-(R_SWCAN_3-Pad2)*%
X126492000Y-59182000D02*
X125095000Y-57785000D01*
X126492000Y-60156352D02*
X126492000Y-59182000D01*
X120835000Y-57600000D02*
X121920000Y-56515000D01*
X120835000Y-57785000D02*
X120835000Y-57600000D01*
%TO.N,Pin14_ISO15765_CAN_BUS_Low*%
X119303800Y-67916800D02*
X119303800Y-71196200D01*
X119303800Y-71196200D02*
X116205000Y-74295000D01*
X119433599Y-89438400D02*
X119433599Y-90679281D01*
X116974990Y-91574990D02*
X116840000Y-91440000D01*
X117975010Y-91574990D02*
X116974990Y-91574990D01*
X110490000Y-91440000D02*
X116840000Y-91440000D01*
X109855000Y-92075000D02*
X110490000Y-91440000D01*
D61*
X117975010Y-91574990D02*
X118573246Y-91574990D01*
X119433599Y-90714637D02*
X119433599Y-90679281D01*
X118573246Y-91574990D02*
X119433599Y-90714637D01*
D56*
%TO.N,Pin6_ISO15765_CAN_BUS_High*%
X116382800Y-67916800D02*
X116382800Y-72847200D01*
X116382800Y-72847200D02*
X115570000Y-73660000D01*
X114935000Y-93980000D02*
X116840000Y-92075000D01*
X116840000Y-92075000D02*
X118745000Y-92075000D01*
X120083601Y-90736399D02*
X120083601Y-89438400D01*
X118745000Y-92075000D02*
X120015000Y-90805000D01*
%TO.N,Pin7_ISO9141_K-Line*%
X138265442Y-152400000D02*
X138535001Y-152400000D01*
X136264441Y-150398999D02*
X138265442Y-152400000D01*
X135351001Y-150398999D02*
X136264441Y-150398999D01*
X148590000Y-133985000D02*
X169545000Y-133985000D01*
X146050000Y-136525000D02*
X148590000Y-133985000D01*
X172720000Y-133985000D02*
X173355000Y-134620000D01*
X169545000Y-133985000D02*
X172720000Y-133985000D01*
X172720000Y-148775000D02*
X172720000Y-148590000D01*
X172720000Y-151130000D02*
X172085000Y-151765000D01*
X172720000Y-148775000D02*
X172720000Y-151130000D01*
X169545000Y-151765000D02*
X172085000Y-151765000D01*
X125191001Y-150398999D02*
X135351001Y-150398999D01*
X124460000Y-151130000D02*
X125191001Y-150398999D01*
X122961998Y-151130000D02*
X124460000Y-151130000D01*
X118630999Y-155460999D02*
X122961998Y-151130000D01*
X117335001Y-155460999D02*
X118630999Y-155460999D01*
X117094000Y-155702000D02*
X117335001Y-155460999D01*
%TD*%
M02*
