%TF.GenerationSoftware,KiCad,Pcbnew,(5.1.7)-1*%
%TF.CreationDate,2020-10-27T12:51:00-07:00*%
%TF.ProjectId,Reader,52656164-6572-42e6-9b69-6361645f7063,0.0.01*%
%TF.SameCoordinates,Original*%
%TF.FileFunction,Other,Fab,Bot*%
%FSLAX46Y46*%
G04 Gerber Fmt 4.6, Leading zero omitted, Abs format (unit mm)*
G04 Created by KiCad (PCBNEW (5.1.7)-1) date 2020-10-27 12:51:00*
%MOMM*%
%LPD*%
G01*
G04 APERTURE LIST*
%ADD10C,0.100000*%
%ADD11C,0.150000*%
%ADD12C,0.300000*%
%ADD13C,0.400000*%
%ADD14C,0.010000*%
%ADD15C,0.101600*%
%ADD16C,0.152400*%
%ADD17C,0.127000*%
%ADD18C,0.200000*%
%ADD19C,0.015000*%
%ADD20C,0.120000*%
G04 APERTURE END LIST*
D10*
D11*
X159400000Y-171900000D02*
X159400000Y-203900000D01*
X267400000Y-203900000D01*
X267400000Y-171900000D01*
X159400000Y-171900000D01*
D10*
D11*
X10000000Y-10000000D02*
X10000000Y-205900000D01*
X269400000Y-205900000D01*
X269400000Y-10000000D01*
X10000000Y-10000000D01*
D10*
D11*
X12000000Y-12000000D02*
X12000000Y-203900000D01*
X267400000Y-203900000D01*
X267400000Y-12000000D01*
X12000000Y-12000000D01*
D10*
D11*
X60000000Y-12000000D02*
X60000000Y-10000000D01*
D10*
D11*
X110000000Y-12000000D02*
X110000000Y-10000000D01*
D10*
D11*
X160000000Y-12000000D02*
X160000000Y-10000000D01*
D10*
D11*
X210000000Y-12000000D02*
X210000000Y-10000000D01*
D10*
D11*
X260000000Y-12000000D02*
X260000000Y-10000000D01*
D10*
D11*
X36065476Y-11588095D02*
X35322619Y-11588095D01*
X35694047Y-11588095D02*
X35694047Y-10288095D01*
X35570238Y-10473809D01*
X35446428Y-10597619D01*
X35322619Y-10659523D01*
D10*
D11*
X85322619Y-10411904D02*
X85384523Y-10350000D01*
X85508333Y-10288095D01*
X85817857Y-10288095D01*
X85941666Y-10350000D01*
X86003571Y-10411904D01*
X86065476Y-10535714D01*
X86065476Y-10659523D01*
X86003571Y-10845238D01*
X85260714Y-11588095D01*
X86065476Y-11588095D01*
D10*
D11*
X135260714Y-10288095D02*
X136065476Y-10288095D01*
X135632142Y-10783333D01*
X135817857Y-10783333D01*
X135941666Y-10845238D01*
X136003571Y-10907142D01*
X136065476Y-11030952D01*
X136065476Y-11340476D01*
X136003571Y-11464285D01*
X135941666Y-11526190D01*
X135817857Y-11588095D01*
X135446428Y-11588095D01*
X135322619Y-11526190D01*
X135260714Y-11464285D01*
D10*
D11*
X185941666Y-10721428D02*
X185941666Y-11588095D01*
X185632142Y-10226190D02*
X185322619Y-11154761D01*
X186127380Y-11154761D01*
D10*
D11*
X236003571Y-10288095D02*
X235384523Y-10288095D01*
X235322619Y-10907142D01*
X235384523Y-10845238D01*
X235508333Y-10783333D01*
X235817857Y-10783333D01*
X235941666Y-10845238D01*
X236003571Y-10907142D01*
X236065476Y-11030952D01*
X236065476Y-11340476D01*
X236003571Y-11464285D01*
X235941666Y-11526190D01*
X235817857Y-11588095D01*
X235508333Y-11588095D01*
X235384523Y-11526190D01*
X235322619Y-11464285D01*
D10*
D11*
X60000000Y-203900000D02*
X60000000Y-205900000D01*
D10*
D11*
X110000000Y-203900000D02*
X110000000Y-205900000D01*
D10*
D11*
X160000000Y-203900000D02*
X160000000Y-205900000D01*
D10*
D11*
X210000000Y-203900000D02*
X210000000Y-205900000D01*
D10*
D11*
X260000000Y-203900000D02*
X260000000Y-205900000D01*
D10*
D11*
X36065476Y-205488095D02*
X35322619Y-205488095D01*
X35694047Y-205488095D02*
X35694047Y-204188095D01*
X35570238Y-204373809D01*
X35446428Y-204497619D01*
X35322619Y-204559523D01*
D10*
D11*
X85322619Y-204311904D02*
X85384523Y-204250000D01*
X85508333Y-204188095D01*
X85817857Y-204188095D01*
X85941666Y-204250000D01*
X86003571Y-204311904D01*
X86065476Y-204435714D01*
X86065476Y-204559523D01*
X86003571Y-204745238D01*
X85260714Y-205488095D01*
X86065476Y-205488095D01*
D10*
D11*
X135260714Y-204188095D02*
X136065476Y-204188095D01*
X135632142Y-204683333D01*
X135817857Y-204683333D01*
X135941666Y-204745238D01*
X136003571Y-204807142D01*
X136065476Y-204930952D01*
X136065476Y-205240476D01*
X136003571Y-205364285D01*
X135941666Y-205426190D01*
X135817857Y-205488095D01*
X135446428Y-205488095D01*
X135322619Y-205426190D01*
X135260714Y-205364285D01*
D10*
D11*
X185941666Y-204621428D02*
X185941666Y-205488095D01*
X185632142Y-204126190D02*
X185322619Y-205054761D01*
X186127380Y-205054761D01*
D10*
D11*
X236003571Y-204188095D02*
X235384523Y-204188095D01*
X235322619Y-204807142D01*
X235384523Y-204745238D01*
X235508333Y-204683333D01*
X235817857Y-204683333D01*
X235941666Y-204745238D01*
X236003571Y-204807142D01*
X236065476Y-204930952D01*
X236065476Y-205240476D01*
X236003571Y-205364285D01*
X235941666Y-205426190D01*
X235817857Y-205488095D01*
X235508333Y-205488095D01*
X235384523Y-205426190D01*
X235322619Y-205364285D01*
D10*
D11*
X10000000Y-60000000D02*
X12000000Y-60000000D01*
D10*
D11*
X10000000Y-110000000D02*
X12000000Y-110000000D01*
D10*
D11*
X10000000Y-160000000D02*
X12000000Y-160000000D01*
D10*
D11*
X10690476Y-35216666D02*
X11309523Y-35216666D01*
X10566666Y-35588095D02*
X11000000Y-34288095D01*
X11433333Y-35588095D01*
D10*
D11*
X11092857Y-84907142D02*
X11278571Y-84969047D01*
X11340476Y-85030952D01*
X11402380Y-85154761D01*
X11402380Y-85340476D01*
X11340476Y-85464285D01*
X11278571Y-85526190D01*
X11154761Y-85588095D01*
X10659523Y-85588095D01*
X10659523Y-84288095D01*
X11092857Y-84288095D01*
X11216666Y-84350000D01*
X11278571Y-84411904D01*
X11340476Y-84535714D01*
X11340476Y-84659523D01*
X11278571Y-84783333D01*
X11216666Y-84845238D01*
X11092857Y-84907142D01*
X10659523Y-84907142D01*
D10*
D11*
X11402380Y-135464285D02*
X11340476Y-135526190D01*
X11154761Y-135588095D01*
X11030952Y-135588095D01*
X10845238Y-135526190D01*
X10721428Y-135402380D01*
X10659523Y-135278571D01*
X10597619Y-135030952D01*
X10597619Y-134845238D01*
X10659523Y-134597619D01*
X10721428Y-134473809D01*
X10845238Y-134350000D01*
X11030952Y-134288095D01*
X11154761Y-134288095D01*
X11340476Y-134350000D01*
X11402380Y-134411904D01*
D10*
D11*
X10659523Y-185588095D02*
X10659523Y-184288095D01*
X10969047Y-184288095D01*
X11154761Y-184350000D01*
X11278571Y-184473809D01*
X11340476Y-184597619D01*
X11402380Y-184845238D01*
X11402380Y-185030952D01*
X11340476Y-185278571D01*
X11278571Y-185402380D01*
X11154761Y-185526190D01*
X10969047Y-185588095D01*
X10659523Y-185588095D01*
D10*
D11*
X269400000Y-60000000D02*
X267400000Y-60000000D01*
D10*
D11*
X269400000Y-110000000D02*
X267400000Y-110000000D01*
D10*
D11*
X269400000Y-160000000D02*
X267400000Y-160000000D01*
D10*
D11*
X268090476Y-35216666D02*
X268709523Y-35216666D01*
X267966666Y-35588095D02*
X268400000Y-34288095D01*
X268833333Y-35588095D01*
D10*
D11*
X268492857Y-84907142D02*
X268678571Y-84969047D01*
X268740476Y-85030952D01*
X268802380Y-85154761D01*
X268802380Y-85340476D01*
X268740476Y-85464285D01*
X268678571Y-85526190D01*
X268554761Y-85588095D01*
X268059523Y-85588095D01*
X268059523Y-84288095D01*
X268492857Y-84288095D01*
X268616666Y-84350000D01*
X268678571Y-84411904D01*
X268740476Y-84535714D01*
X268740476Y-84659523D01*
X268678571Y-84783333D01*
X268616666Y-84845238D01*
X268492857Y-84907142D01*
X268059523Y-84907142D01*
D10*
D11*
X268802380Y-135464285D02*
X268740476Y-135526190D01*
X268554761Y-135588095D01*
X268430952Y-135588095D01*
X268245238Y-135526190D01*
X268121428Y-135402380D01*
X268059523Y-135278571D01*
X267997619Y-135030952D01*
X267997619Y-134845238D01*
X268059523Y-134597619D01*
X268121428Y-134473809D01*
X268245238Y-134350000D01*
X268430952Y-134288095D01*
X268554761Y-134288095D01*
X268740476Y-134350000D01*
X268802380Y-134411904D01*
D10*
D11*
X268059523Y-185588095D02*
X268059523Y-184288095D01*
X268369047Y-184288095D01*
X268554761Y-184350000D01*
X268678571Y-184473809D01*
X268740476Y-184597619D01*
X268802380Y-184845238D01*
X268802380Y-185030952D01*
X268740476Y-185278571D01*
X268678571Y-185402380D01*
X268554761Y-185526190D01*
X268369047Y-185588095D01*
X268059523Y-185588095D01*
D10*
D11*
X182832142Y-199678571D02*
X182832142Y-198178571D01*
X183189285Y-198178571D01*
X183403571Y-198250000D01*
X183546428Y-198392857D01*
X183617857Y-198535714D01*
X183689285Y-198821428D01*
X183689285Y-199035714D01*
X183617857Y-199321428D01*
X183546428Y-199464285D01*
X183403571Y-199607142D01*
X183189285Y-199678571D01*
X182832142Y-199678571D01*
X184975000Y-199678571D02*
X184975000Y-198892857D01*
X184903571Y-198750000D01*
X184760714Y-198678571D01*
X184475000Y-198678571D01*
X184332142Y-198750000D01*
X184975000Y-199607142D02*
X184832142Y-199678571D01*
X184475000Y-199678571D01*
X184332142Y-199607142D01*
X184260714Y-199464285D01*
X184260714Y-199321428D01*
X184332142Y-199178571D01*
X184475000Y-199107142D01*
X184832142Y-199107142D01*
X184975000Y-199035714D01*
X185475000Y-198678571D02*
X186046428Y-198678571D01*
X185689285Y-198178571D02*
X185689285Y-199464285D01*
X185760714Y-199607142D01*
X185903571Y-199678571D01*
X186046428Y-199678571D01*
X187117857Y-199607142D02*
X186975000Y-199678571D01*
X186689285Y-199678571D01*
X186546428Y-199607142D01*
X186475000Y-199464285D01*
X186475000Y-198892857D01*
X186546428Y-198750000D01*
X186689285Y-198678571D01*
X186975000Y-198678571D01*
X187117857Y-198750000D01*
X187189285Y-198892857D01*
X187189285Y-199035714D01*
X186475000Y-199178571D01*
X187832142Y-199535714D02*
X187903571Y-199607142D01*
X187832142Y-199678571D01*
X187760714Y-199607142D01*
X187832142Y-199535714D01*
X187832142Y-199678571D01*
X187832142Y-198750000D02*
X187903571Y-198821428D01*
X187832142Y-198892857D01*
X187760714Y-198821428D01*
X187832142Y-198750000D01*
X187832142Y-198892857D01*
X189617857Y-198321428D02*
X189689285Y-198250000D01*
X189832142Y-198178571D01*
X190189285Y-198178571D01*
X190332142Y-198250000D01*
X190403571Y-198321428D01*
X190475000Y-198464285D01*
X190475000Y-198607142D01*
X190403571Y-198821428D01*
X189546428Y-199678571D01*
X190475000Y-199678571D01*
X191403571Y-198178571D02*
X191546428Y-198178571D01*
X191689285Y-198250000D01*
X191760714Y-198321428D01*
X191832142Y-198464285D01*
X191903571Y-198750000D01*
X191903571Y-199107142D01*
X191832142Y-199392857D01*
X191760714Y-199535714D01*
X191689285Y-199607142D01*
X191546428Y-199678571D01*
X191403571Y-199678571D01*
X191260714Y-199607142D01*
X191189285Y-199535714D01*
X191117857Y-199392857D01*
X191046428Y-199107142D01*
X191046428Y-198750000D01*
X191117857Y-198464285D01*
X191189285Y-198321428D01*
X191260714Y-198250000D01*
X191403571Y-198178571D01*
X192475000Y-198321428D02*
X192546428Y-198250000D01*
X192689285Y-198178571D01*
X193046428Y-198178571D01*
X193189285Y-198250000D01*
X193260714Y-198321428D01*
X193332142Y-198464285D01*
X193332142Y-198607142D01*
X193260714Y-198821428D01*
X192403571Y-199678571D01*
X193332142Y-199678571D01*
X194260714Y-198178571D02*
X194403571Y-198178571D01*
X194546428Y-198250000D01*
X194617857Y-198321428D01*
X194689285Y-198464285D01*
X194760714Y-198750000D01*
X194760714Y-199107142D01*
X194689285Y-199392857D01*
X194617857Y-199535714D01*
X194546428Y-199607142D01*
X194403571Y-199678571D01*
X194260714Y-199678571D01*
X194117857Y-199607142D01*
X194046428Y-199535714D01*
X193975000Y-199392857D01*
X193903571Y-199107142D01*
X193903571Y-198750000D01*
X193975000Y-198464285D01*
X194046428Y-198321428D01*
X194117857Y-198250000D01*
X194260714Y-198178571D01*
X195403571Y-199107142D02*
X196546428Y-199107142D01*
X198046428Y-199678571D02*
X197189285Y-199678571D01*
X197617857Y-199678571D02*
X197617857Y-198178571D01*
X197475000Y-198392857D01*
X197332142Y-198535714D01*
X197189285Y-198607142D01*
X198975000Y-198178571D02*
X199117857Y-198178571D01*
X199260714Y-198250000D01*
X199332142Y-198321428D01*
X199403571Y-198464285D01*
X199475000Y-198750000D01*
X199475000Y-199107142D01*
X199403571Y-199392857D01*
X199332142Y-199535714D01*
X199260714Y-199607142D01*
X199117857Y-199678571D01*
X198975000Y-199678571D01*
X198832142Y-199607142D01*
X198760714Y-199535714D01*
X198689285Y-199392857D01*
X198617857Y-199107142D01*
X198617857Y-198750000D01*
X198689285Y-198464285D01*
X198760714Y-198321428D01*
X198832142Y-198250000D01*
X198975000Y-198178571D01*
X200117857Y-199107142D02*
X201260714Y-199107142D01*
X201903571Y-198321428D02*
X201975000Y-198250000D01*
X202117857Y-198178571D01*
X202475000Y-198178571D01*
X202617857Y-198250000D01*
X202689285Y-198321428D01*
X202760714Y-198464285D01*
X202760714Y-198607142D01*
X202689285Y-198821428D01*
X201832142Y-199678571D01*
X202760714Y-199678571D01*
X203260714Y-198178571D02*
X204260714Y-198178571D01*
X203617857Y-199678571D01*
D10*
D11*
X159400000Y-200400000D02*
X267400000Y-200400000D01*
D10*
D11*
X160832142Y-202478571D02*
X160832142Y-200978571D01*
X161689285Y-202478571D02*
X161046428Y-201621428D01*
X161689285Y-200978571D02*
X160832142Y-201835714D01*
X162332142Y-202478571D02*
X162332142Y-201478571D01*
X162332142Y-200978571D02*
X162260714Y-201050000D01*
X162332142Y-201121428D01*
X162403571Y-201050000D01*
X162332142Y-200978571D01*
X162332142Y-201121428D01*
X163903571Y-202335714D02*
X163832142Y-202407142D01*
X163617857Y-202478571D01*
X163475000Y-202478571D01*
X163260714Y-202407142D01*
X163117857Y-202264285D01*
X163046428Y-202121428D01*
X162975000Y-201835714D01*
X162975000Y-201621428D01*
X163046428Y-201335714D01*
X163117857Y-201192857D01*
X163260714Y-201050000D01*
X163475000Y-200978571D01*
X163617857Y-200978571D01*
X163832142Y-201050000D01*
X163903571Y-201121428D01*
X165189285Y-202478571D02*
X165189285Y-201692857D01*
X165117857Y-201550000D01*
X164975000Y-201478571D01*
X164689285Y-201478571D01*
X164546428Y-201550000D01*
X165189285Y-202407142D02*
X165046428Y-202478571D01*
X164689285Y-202478571D01*
X164546428Y-202407142D01*
X164475000Y-202264285D01*
X164475000Y-202121428D01*
X164546428Y-201978571D01*
X164689285Y-201907142D01*
X165046428Y-201907142D01*
X165189285Y-201835714D01*
X166546428Y-202478571D02*
X166546428Y-200978571D01*
X166546428Y-202407142D02*
X166403571Y-202478571D01*
X166117857Y-202478571D01*
X165975000Y-202407142D01*
X165903571Y-202335714D01*
X165832142Y-202192857D01*
X165832142Y-201764285D01*
X165903571Y-201621428D01*
X165975000Y-201550000D01*
X166117857Y-201478571D01*
X166403571Y-201478571D01*
X166546428Y-201550000D01*
X168403571Y-201692857D02*
X168903571Y-201692857D01*
X169117857Y-202478571D02*
X168403571Y-202478571D01*
X168403571Y-200978571D01*
X169117857Y-200978571D01*
X169760714Y-202335714D02*
X169832142Y-202407142D01*
X169760714Y-202478571D01*
X169689285Y-202407142D01*
X169760714Y-202335714D01*
X169760714Y-202478571D01*
X170475000Y-202478571D02*
X170475000Y-200978571D01*
X170832142Y-200978571D01*
X171046428Y-201050000D01*
X171189285Y-201192857D01*
X171260714Y-201335714D01*
X171332142Y-201621428D01*
X171332142Y-201835714D01*
X171260714Y-202121428D01*
X171189285Y-202264285D01*
X171046428Y-202407142D01*
X170832142Y-202478571D01*
X170475000Y-202478571D01*
X171975000Y-202335714D02*
X172046428Y-202407142D01*
X171975000Y-202478571D01*
X171903571Y-202407142D01*
X171975000Y-202335714D01*
X171975000Y-202478571D01*
X172617857Y-202050000D02*
X173332142Y-202050000D01*
X172475000Y-202478571D02*
X172975000Y-200978571D01*
X173475000Y-202478571D01*
X173975000Y-202335714D02*
X174046428Y-202407142D01*
X173975000Y-202478571D01*
X173903571Y-202407142D01*
X173975000Y-202335714D01*
X173975000Y-202478571D01*
X176975000Y-202478571D02*
X176975000Y-200978571D01*
X177117857Y-201907142D02*
X177546428Y-202478571D01*
X177546428Y-201478571D02*
X176975000Y-202050000D01*
X178189285Y-202478571D02*
X178189285Y-201478571D01*
X178189285Y-200978571D02*
X178117857Y-201050000D01*
X178189285Y-201121428D01*
X178260714Y-201050000D01*
X178189285Y-200978571D01*
X178189285Y-201121428D01*
X179546428Y-202407142D02*
X179403571Y-202478571D01*
X179117857Y-202478571D01*
X178975000Y-202407142D01*
X178903571Y-202335714D01*
X178832142Y-202192857D01*
X178832142Y-201764285D01*
X178903571Y-201621428D01*
X178975000Y-201550000D01*
X179117857Y-201478571D01*
X179403571Y-201478571D01*
X179546428Y-201550000D01*
X180832142Y-202478571D02*
X180832142Y-201692857D01*
X180760714Y-201550000D01*
X180617857Y-201478571D01*
X180332142Y-201478571D01*
X180189285Y-201550000D01*
X180832142Y-202407142D02*
X180689285Y-202478571D01*
X180332142Y-202478571D01*
X180189285Y-202407142D01*
X180117857Y-202264285D01*
X180117857Y-202121428D01*
X180189285Y-201978571D01*
X180332142Y-201907142D01*
X180689285Y-201907142D01*
X180832142Y-201835714D01*
X182189285Y-202478571D02*
X182189285Y-200978571D01*
X182189285Y-202407142D02*
X182046428Y-202478571D01*
X181760714Y-202478571D01*
X181617857Y-202407142D01*
X181546428Y-202335714D01*
X181475000Y-202192857D01*
X181475000Y-201764285D01*
X181546428Y-201621428D01*
X181617857Y-201550000D01*
X181760714Y-201478571D01*
X182046428Y-201478571D01*
X182189285Y-201550000D01*
X184475000Y-203050000D02*
X184403571Y-202978571D01*
X184260714Y-202764285D01*
X184189285Y-202621428D01*
X184117857Y-202407142D01*
X184046428Y-202050000D01*
X184046428Y-201764285D01*
X184117857Y-201407142D01*
X184189285Y-201192857D01*
X184260714Y-201050000D01*
X184403571Y-200835714D01*
X184475000Y-200764285D01*
X185760714Y-200978571D02*
X185046428Y-200978571D01*
X184975000Y-201692857D01*
X185046428Y-201621428D01*
X185189285Y-201550000D01*
X185546428Y-201550000D01*
X185689285Y-201621428D01*
X185760714Y-201692857D01*
X185832142Y-201835714D01*
X185832142Y-202192857D01*
X185760714Y-202335714D01*
X185689285Y-202407142D01*
X185546428Y-202478571D01*
X185189285Y-202478571D01*
X185046428Y-202407142D01*
X184975000Y-202335714D01*
X186475000Y-202335714D02*
X186546428Y-202407142D01*
X186475000Y-202478571D01*
X186403571Y-202407142D01*
X186475000Y-202335714D01*
X186475000Y-202478571D01*
X187975000Y-202478571D02*
X187117857Y-202478571D01*
X187546428Y-202478571D02*
X187546428Y-200978571D01*
X187403571Y-201192857D01*
X187260714Y-201335714D01*
X187117857Y-201407142D01*
X188617857Y-202335714D02*
X188689285Y-202407142D01*
X188617857Y-202478571D01*
X188546428Y-202407142D01*
X188617857Y-202335714D01*
X188617857Y-202478571D01*
X189189285Y-200978571D02*
X190189285Y-200978571D01*
X189546428Y-202478571D01*
X190617857Y-203050000D02*
X190689285Y-202978571D01*
X190832142Y-202764285D01*
X190903571Y-202621428D01*
X190975000Y-202407142D01*
X191046428Y-202050000D01*
X191046428Y-201764285D01*
X190975000Y-201407142D01*
X190903571Y-201192857D01*
X190832142Y-201050000D01*
X190689285Y-200835714D01*
X190617857Y-200764285D01*
X191760714Y-201907142D02*
X192903571Y-201907142D01*
X194403571Y-202478571D02*
X193546428Y-202478571D01*
X193975000Y-202478571D02*
X193975000Y-200978571D01*
X193832142Y-201192857D01*
X193689285Y-201335714D01*
X193546428Y-201407142D01*
D10*
D11*
X159400000Y-197400000D02*
X267400000Y-197400000D01*
D10*
D12*
X246809285Y-199678571D02*
X246309285Y-198964285D01*
X245952142Y-199678571D02*
X245952142Y-198178571D01*
X246523571Y-198178571D01*
X246666428Y-198250000D01*
X246737857Y-198321428D01*
X246809285Y-198464285D01*
X246809285Y-198678571D01*
X246737857Y-198821428D01*
X246666428Y-198892857D01*
X246523571Y-198964285D01*
X245952142Y-198964285D01*
X248023571Y-199607142D02*
X247880714Y-199678571D01*
X247595000Y-199678571D01*
X247452142Y-199607142D01*
X247380714Y-199464285D01*
X247380714Y-198892857D01*
X247452142Y-198750000D01*
X247595000Y-198678571D01*
X247880714Y-198678571D01*
X248023571Y-198750000D01*
X248095000Y-198892857D01*
X248095000Y-199035714D01*
X247380714Y-199178571D01*
X248595000Y-198678571D02*
X248952142Y-199678571D01*
X249309285Y-198678571D01*
X249880714Y-199535714D02*
X249952142Y-199607142D01*
X249880714Y-199678571D01*
X249809285Y-199607142D01*
X249880714Y-199535714D01*
X249880714Y-199678571D01*
X249880714Y-198750000D02*
X249952142Y-198821428D01*
X249880714Y-198892857D01*
X249809285Y-198821428D01*
X249880714Y-198750000D01*
X249880714Y-198892857D01*
X252023571Y-198178571D02*
X252166428Y-198178571D01*
X252309285Y-198250000D01*
X252380714Y-198321428D01*
X252452142Y-198464285D01*
X252523571Y-198750000D01*
X252523571Y-199107142D01*
X252452142Y-199392857D01*
X252380714Y-199535714D01*
X252309285Y-199607142D01*
X252166428Y-199678571D01*
X252023571Y-199678571D01*
X251880714Y-199607142D01*
X251809285Y-199535714D01*
X251737857Y-199392857D01*
X251666428Y-199107142D01*
X251666428Y-198750000D01*
X251737857Y-198464285D01*
X251809285Y-198321428D01*
X251880714Y-198250000D01*
X252023571Y-198178571D01*
X253166428Y-199535714D02*
X253237857Y-199607142D01*
X253166428Y-199678571D01*
X253095000Y-199607142D01*
X253166428Y-199535714D01*
X253166428Y-199678571D01*
X254166428Y-198178571D02*
X254309285Y-198178571D01*
X254452142Y-198250000D01*
X254523571Y-198321428D01*
X254595000Y-198464285D01*
X254666428Y-198750000D01*
X254666428Y-199107142D01*
X254595000Y-199392857D01*
X254523571Y-199535714D01*
X254452142Y-199607142D01*
X254309285Y-199678571D01*
X254166428Y-199678571D01*
X254023571Y-199607142D01*
X253952142Y-199535714D01*
X253880714Y-199392857D01*
X253809285Y-199107142D01*
X253809285Y-198750000D01*
X253880714Y-198464285D01*
X253952142Y-198321428D01*
X254023571Y-198250000D01*
X254166428Y-198178571D01*
X255309285Y-199535714D02*
X255380714Y-199607142D01*
X255309285Y-199678571D01*
X255237857Y-199607142D01*
X255309285Y-199535714D01*
X255309285Y-199678571D01*
X256309285Y-198178571D02*
X256452142Y-198178571D01*
X256595000Y-198250000D01*
X256666428Y-198321428D01*
X256737857Y-198464285D01*
X256809285Y-198750000D01*
X256809285Y-199107142D01*
X256737857Y-199392857D01*
X256666428Y-199535714D01*
X256595000Y-199607142D01*
X256452142Y-199678571D01*
X256309285Y-199678571D01*
X256166428Y-199607142D01*
X256095000Y-199535714D01*
X256023571Y-199392857D01*
X255952142Y-199107142D01*
X255952142Y-198750000D01*
X256023571Y-198464285D01*
X256095000Y-198321428D01*
X256166428Y-198250000D01*
X256309285Y-198178571D01*
X258237857Y-199678571D02*
X257380714Y-199678571D01*
X257809285Y-199678571D02*
X257809285Y-198178571D01*
X257666428Y-198392857D01*
X257523571Y-198535714D01*
X257380714Y-198607142D01*
D10*
D11*
X160760714Y-199607142D02*
X160975000Y-199678571D01*
X161332142Y-199678571D01*
X161475000Y-199607142D01*
X161546428Y-199535714D01*
X161617857Y-199392857D01*
X161617857Y-199250000D01*
X161546428Y-199107142D01*
X161475000Y-199035714D01*
X161332142Y-198964285D01*
X161046428Y-198892857D01*
X160903571Y-198821428D01*
X160832142Y-198750000D01*
X160760714Y-198607142D01*
X160760714Y-198464285D01*
X160832142Y-198321428D01*
X160903571Y-198250000D01*
X161046428Y-198178571D01*
X161403571Y-198178571D01*
X161617857Y-198250000D01*
X162260714Y-199678571D02*
X162260714Y-198678571D01*
X162260714Y-198178571D02*
X162189285Y-198250000D01*
X162260714Y-198321428D01*
X162332142Y-198250000D01*
X162260714Y-198178571D01*
X162260714Y-198321428D01*
X162832142Y-198678571D02*
X163617857Y-198678571D01*
X162832142Y-199678571D01*
X163617857Y-199678571D01*
X164760714Y-199607142D02*
X164617857Y-199678571D01*
X164332142Y-199678571D01*
X164189285Y-199607142D01*
X164117857Y-199464285D01*
X164117857Y-198892857D01*
X164189285Y-198750000D01*
X164332142Y-198678571D01*
X164617857Y-198678571D01*
X164760714Y-198750000D01*
X164832142Y-198892857D01*
X164832142Y-199035714D01*
X164117857Y-199178571D01*
X165475000Y-199535714D02*
X165546428Y-199607142D01*
X165475000Y-199678571D01*
X165403571Y-199607142D01*
X165475000Y-199535714D01*
X165475000Y-199678571D01*
X165475000Y-198750000D02*
X165546428Y-198821428D01*
X165475000Y-198892857D01*
X165403571Y-198821428D01*
X165475000Y-198750000D01*
X165475000Y-198892857D01*
X167332142Y-198178571D02*
X167332142Y-199392857D01*
X167403571Y-199535714D01*
X167475000Y-199607142D01*
X167617857Y-199678571D01*
X167903571Y-199678571D01*
X168046428Y-199607142D01*
X168117857Y-199535714D01*
X168189285Y-199392857D01*
X168189285Y-198178571D01*
X168832142Y-199607142D02*
X169046428Y-199678571D01*
X169403571Y-199678571D01*
X169546428Y-199607142D01*
X169617857Y-199535714D01*
X169689285Y-199392857D01*
X169689285Y-199250000D01*
X169617857Y-199107142D01*
X169546428Y-199035714D01*
X169403571Y-198964285D01*
X169117857Y-198892857D01*
X168975000Y-198821428D01*
X168903571Y-198750000D01*
X168832142Y-198607142D01*
X168832142Y-198464285D01*
X168903571Y-198321428D01*
X168975000Y-198250000D01*
X169117857Y-198178571D01*
X169475000Y-198178571D01*
X169689285Y-198250000D01*
X171046428Y-199678571D02*
X170332142Y-199678571D01*
X170332142Y-198178571D01*
X172117857Y-199607142D02*
X171975000Y-199678571D01*
X171689285Y-199678571D01*
X171546428Y-199607142D01*
X171475000Y-199464285D01*
X171475000Y-198892857D01*
X171546428Y-198750000D01*
X171689285Y-198678571D01*
X171975000Y-198678571D01*
X172117857Y-198750000D01*
X172189285Y-198892857D01*
X172189285Y-199035714D01*
X171475000Y-199178571D01*
X172617857Y-198678571D02*
X173189285Y-198678571D01*
X172832142Y-198178571D02*
X172832142Y-199464285D01*
X172903571Y-199607142D01*
X173046428Y-199678571D01*
X173189285Y-199678571D01*
X173475000Y-198678571D02*
X174046428Y-198678571D01*
X173689285Y-198178571D02*
X173689285Y-199464285D01*
X173760714Y-199607142D01*
X173903571Y-199678571D01*
X174046428Y-199678571D01*
X175117857Y-199607142D02*
X174975000Y-199678571D01*
X174689285Y-199678571D01*
X174546428Y-199607142D01*
X174475000Y-199464285D01*
X174475000Y-198892857D01*
X174546428Y-198750000D01*
X174689285Y-198678571D01*
X174975000Y-198678571D01*
X175117857Y-198750000D01*
X175189285Y-198892857D01*
X175189285Y-199035714D01*
X174475000Y-199178571D01*
X175832142Y-199678571D02*
X175832142Y-198678571D01*
X175832142Y-198964285D02*
X175903571Y-198821428D01*
X175975000Y-198750000D01*
X176117857Y-198678571D01*
X176260714Y-198678571D01*
D10*
D11*
X245832142Y-202478571D02*
X245832142Y-200978571D01*
X247189285Y-202478571D02*
X247189285Y-200978571D01*
X247189285Y-202407142D02*
X247046428Y-202478571D01*
X246760714Y-202478571D01*
X246617857Y-202407142D01*
X246546428Y-202335714D01*
X246475000Y-202192857D01*
X246475000Y-201764285D01*
X246546428Y-201621428D01*
X246617857Y-201550000D01*
X246760714Y-201478571D01*
X247046428Y-201478571D01*
X247189285Y-201550000D01*
X247903571Y-202335714D02*
X247975000Y-202407142D01*
X247903571Y-202478571D01*
X247832142Y-202407142D01*
X247903571Y-202335714D01*
X247903571Y-202478571D01*
X247903571Y-201550000D02*
X247975000Y-201621428D01*
X247903571Y-201692857D01*
X247832142Y-201621428D01*
X247903571Y-201550000D01*
X247903571Y-201692857D01*
X250546428Y-202478571D02*
X249689285Y-202478571D01*
X250117857Y-202478571D02*
X250117857Y-200978571D01*
X249975000Y-201192857D01*
X249832142Y-201335714D01*
X249689285Y-201407142D01*
X252260714Y-200907142D02*
X250975000Y-202835714D01*
X253546428Y-202478571D02*
X252689285Y-202478571D01*
X253117857Y-202478571D02*
X253117857Y-200978571D01*
X252975000Y-201192857D01*
X252832142Y-201335714D01*
X252689285Y-201407142D01*
D10*
D11*
X159400000Y-193400000D02*
X267400000Y-193400000D01*
D10*
D13*
X161112380Y-194104761D02*
X162255238Y-194104761D01*
X161433809Y-196104761D02*
X161683809Y-194104761D01*
X162671904Y-196104761D02*
X162838571Y-194771428D01*
X162921904Y-194104761D02*
X162814761Y-194200000D01*
X162898095Y-194295238D01*
X163005238Y-194200000D01*
X162921904Y-194104761D01*
X162898095Y-194295238D01*
X163505238Y-194771428D02*
X164267142Y-194771428D01*
X163874285Y-194104761D02*
X163660000Y-195819047D01*
X163731428Y-196009523D01*
X163910000Y-196104761D01*
X164100476Y-196104761D01*
X165052857Y-196104761D02*
X164874285Y-196009523D01*
X164802857Y-195819047D01*
X165017142Y-194104761D01*
X166588571Y-196009523D02*
X166386190Y-196104761D01*
X166005238Y-196104761D01*
X165826666Y-196009523D01*
X165755238Y-195819047D01*
X165850476Y-195057142D01*
X165969523Y-194866666D01*
X166171904Y-194771428D01*
X166552857Y-194771428D01*
X166731428Y-194866666D01*
X166802857Y-195057142D01*
X166779047Y-195247619D01*
X165802857Y-195438095D01*
X167552857Y-195914285D02*
X167636190Y-196009523D01*
X167529047Y-196104761D01*
X167445714Y-196009523D01*
X167552857Y-195914285D01*
X167529047Y-196104761D01*
X167683809Y-194866666D02*
X167767142Y-194961904D01*
X167660000Y-195057142D01*
X167576666Y-194961904D01*
X167683809Y-194866666D01*
X167660000Y-195057142D01*
X171171904Y-195914285D02*
X171064761Y-196009523D01*
X170767142Y-196104761D01*
X170576666Y-196104761D01*
X170302857Y-196009523D01*
X170136190Y-195819047D01*
X170064761Y-195628571D01*
X170017142Y-195247619D01*
X170052857Y-194961904D01*
X170195714Y-194580952D01*
X170314761Y-194390476D01*
X170529047Y-194200000D01*
X170826666Y-194104761D01*
X171017142Y-194104761D01*
X171290952Y-194200000D01*
X171374285Y-194295238D01*
X171981428Y-195533333D02*
X172933809Y-195533333D01*
X171719523Y-196104761D02*
X172636190Y-194104761D01*
X173052857Y-196104761D01*
X173719523Y-196104761D02*
X173969523Y-194104761D01*
X174862380Y-196104761D01*
X175112380Y-194104761D01*
X175981428Y-194771428D02*
X175814761Y-196104761D01*
X175957619Y-194961904D02*
X176064761Y-194866666D01*
X176267142Y-194771428D01*
X176552857Y-194771428D01*
X176731428Y-194866666D01*
X176802857Y-195057142D01*
X176671904Y-196104761D01*
X178398095Y-196009523D02*
X178195714Y-196104761D01*
X177814761Y-196104761D01*
X177636190Y-196009523D01*
X177564761Y-195819047D01*
X177660000Y-195057142D01*
X177779047Y-194866666D01*
X177981428Y-194771428D01*
X178362380Y-194771428D01*
X178540952Y-194866666D01*
X178612380Y-195057142D01*
X178588571Y-195247619D01*
X177612380Y-195438095D01*
X180207619Y-196009523D02*
X180005238Y-196104761D01*
X179624285Y-196104761D01*
X179445714Y-196009523D01*
X179362380Y-195914285D01*
X179290952Y-195723809D01*
X179362380Y-195152380D01*
X179481428Y-194961904D01*
X179588571Y-194866666D01*
X179790952Y-194771428D01*
X180171904Y-194771428D01*
X180350476Y-194866666D01*
X180933809Y-194771428D02*
X181695714Y-194771428D01*
X181302857Y-194104761D02*
X181088571Y-195819047D01*
X181160000Y-196009523D01*
X181338571Y-196104761D01*
X181529047Y-196104761D01*
X184862380Y-196104761D02*
X184314761Y-195152380D01*
X183719523Y-196104761D02*
X183969523Y-194104761D01*
X184731428Y-194104761D01*
X184910000Y-194200000D01*
X184993333Y-194295238D01*
X185064761Y-194485714D01*
X185029047Y-194771428D01*
X184910000Y-194961904D01*
X184802857Y-195057142D01*
X184600476Y-195152380D01*
X183838571Y-195152380D01*
X186493333Y-196009523D02*
X186290952Y-196104761D01*
X185910000Y-196104761D01*
X185731428Y-196009523D01*
X185660000Y-195819047D01*
X185755238Y-195057142D01*
X185874285Y-194866666D01*
X186076666Y-194771428D01*
X186457619Y-194771428D01*
X186636190Y-194866666D01*
X186707619Y-195057142D01*
X186683809Y-195247619D01*
X185707619Y-195438095D01*
X188290952Y-196104761D02*
X188421904Y-195057142D01*
X188350476Y-194866666D01*
X188171904Y-194771428D01*
X187790952Y-194771428D01*
X187588571Y-194866666D01*
X188302857Y-196009523D02*
X188100476Y-196104761D01*
X187624285Y-196104761D01*
X187445714Y-196009523D01*
X187374285Y-195819047D01*
X187398095Y-195628571D01*
X187517142Y-195438095D01*
X187719523Y-195342857D01*
X188195714Y-195342857D01*
X188398095Y-195247619D01*
X190100476Y-196104761D02*
X190350476Y-194104761D01*
X190112380Y-196009523D02*
X189910000Y-196104761D01*
X189529047Y-196104761D01*
X189350476Y-196009523D01*
X189267142Y-195914285D01*
X189195714Y-195723809D01*
X189267142Y-195152380D01*
X189386190Y-194961904D01*
X189493333Y-194866666D01*
X189695714Y-194771428D01*
X190076666Y-194771428D01*
X190255238Y-194866666D01*
X191826666Y-196009523D02*
X191624285Y-196104761D01*
X191243333Y-196104761D01*
X191064761Y-196009523D01*
X190993333Y-195819047D01*
X191088571Y-195057142D01*
X191207619Y-194866666D01*
X191410000Y-194771428D01*
X191790952Y-194771428D01*
X191969523Y-194866666D01*
X192040952Y-195057142D01*
X192017142Y-195247619D01*
X191040952Y-195438095D01*
X192767142Y-196104761D02*
X192933809Y-194771428D01*
X192886190Y-195152380D02*
X193005238Y-194961904D01*
X193112380Y-194866666D01*
X193314761Y-194771428D01*
X193505238Y-194771428D01*
X195529047Y-196104761D02*
X195779047Y-194104761D01*
X196540952Y-194104761D01*
X196719523Y-194200000D01*
X196802857Y-194295238D01*
X196874285Y-194485714D01*
X196838571Y-194771428D01*
X196719523Y-194961904D01*
X196612380Y-195057142D01*
X196410000Y-195152380D01*
X195648095Y-195152380D01*
X198695714Y-195914285D02*
X198588571Y-196009523D01*
X198290952Y-196104761D01*
X198100476Y-196104761D01*
X197826666Y-196009523D01*
X197660000Y-195819047D01*
X197588571Y-195628571D01*
X197540952Y-195247619D01*
X197576666Y-194961904D01*
X197719523Y-194580952D01*
X197838571Y-194390476D01*
X198052857Y-194200000D01*
X198350476Y-194104761D01*
X198540952Y-194104761D01*
X198814761Y-194200000D01*
X198898095Y-194295238D01*
X200326666Y-195057142D02*
X200600476Y-195152380D01*
X200683809Y-195247619D01*
X200755238Y-195438095D01*
X200719523Y-195723809D01*
X200600476Y-195914285D01*
X200493333Y-196009523D01*
X200290952Y-196104761D01*
X199529047Y-196104761D01*
X199779047Y-194104761D01*
X200445714Y-194104761D01*
X200624285Y-194200000D01*
X200707619Y-194295238D01*
X200779047Y-194485714D01*
X200755238Y-194676190D01*
X200636190Y-194866666D01*
X200529047Y-194961904D01*
X200326666Y-195057142D01*
X199660000Y-195057142D01*
X204005238Y-196104761D02*
X203052857Y-196104761D01*
X203302857Y-194104761D01*
X205529047Y-196104761D02*
X205660000Y-195057142D01*
X205588571Y-194866666D01*
X205410000Y-194771428D01*
X205029047Y-194771428D01*
X204826666Y-194866666D01*
X205540952Y-196009523D02*
X205338571Y-196104761D01*
X204862380Y-196104761D01*
X204683809Y-196009523D01*
X204612380Y-195819047D01*
X204636190Y-195628571D01*
X204755238Y-195438095D01*
X204957619Y-195342857D01*
X205433809Y-195342857D01*
X205636190Y-195247619D01*
X206457619Y-194771428D02*
X206767142Y-196104761D01*
X207410000Y-194771428D02*
X206767142Y-196104761D01*
X206517142Y-196580952D01*
X206410000Y-196676190D01*
X206207619Y-196771428D01*
X208290952Y-196104761D02*
X208112380Y-196009523D01*
X208029047Y-195914285D01*
X207957619Y-195723809D01*
X208029047Y-195152380D01*
X208148095Y-194961904D01*
X208255238Y-194866666D01*
X208457619Y-194771428D01*
X208743333Y-194771428D01*
X208921904Y-194866666D01*
X209005238Y-194961904D01*
X209076666Y-195152380D01*
X209005238Y-195723809D01*
X208886190Y-195914285D01*
X208779047Y-196009523D01*
X208576666Y-196104761D01*
X208290952Y-196104761D01*
X210838571Y-194771428D02*
X210671904Y-196104761D01*
X209981428Y-194771428D02*
X209850476Y-195819047D01*
X209921904Y-196009523D01*
X210100476Y-196104761D01*
X210386190Y-196104761D01*
X210588571Y-196009523D01*
X210695714Y-195914285D01*
X211505238Y-194771428D02*
X212267142Y-194771428D01*
X211874285Y-194104761D02*
X211659999Y-195819047D01*
X211731428Y-196009523D01*
X211909999Y-196104761D01*
X212100476Y-196104761D01*
D10*
D11*
X161332142Y-191492857D02*
X160832142Y-191492857D01*
X160832142Y-192278571D02*
X160832142Y-190778571D01*
X161546428Y-190778571D01*
X162117857Y-192278571D02*
X162117857Y-191278571D01*
X162117857Y-190778571D02*
X162046428Y-190850000D01*
X162117857Y-190921428D01*
X162189285Y-190850000D01*
X162117857Y-190778571D01*
X162117857Y-190921428D01*
X163046428Y-192278571D02*
X162903571Y-192207142D01*
X162832142Y-192064285D01*
X162832142Y-190778571D01*
X164189285Y-192207142D02*
X164046428Y-192278571D01*
X163760714Y-192278571D01*
X163617857Y-192207142D01*
X163546428Y-192064285D01*
X163546428Y-191492857D01*
X163617857Y-191350000D01*
X163760714Y-191278571D01*
X164046428Y-191278571D01*
X164189285Y-191350000D01*
X164260714Y-191492857D01*
X164260714Y-191635714D01*
X163546428Y-191778571D01*
X164903571Y-192135714D02*
X164975000Y-192207142D01*
X164903571Y-192278571D01*
X164832142Y-192207142D01*
X164903571Y-192135714D01*
X164903571Y-192278571D01*
X164903571Y-191350000D02*
X164975000Y-191421428D01*
X164903571Y-191492857D01*
X164832142Y-191421428D01*
X164903571Y-191350000D01*
X164903571Y-191492857D01*
X167617857Y-192278571D02*
X167117857Y-191564285D01*
X166760714Y-192278571D02*
X166760714Y-190778571D01*
X167332142Y-190778571D01*
X167475000Y-190850000D01*
X167546428Y-190921428D01*
X167617857Y-191064285D01*
X167617857Y-191278571D01*
X167546428Y-191421428D01*
X167475000Y-191492857D01*
X167332142Y-191564285D01*
X166760714Y-191564285D01*
X168832142Y-192207142D02*
X168689285Y-192278571D01*
X168403571Y-192278571D01*
X168260714Y-192207142D01*
X168189285Y-192064285D01*
X168189285Y-191492857D01*
X168260714Y-191350000D01*
X168403571Y-191278571D01*
X168689285Y-191278571D01*
X168832142Y-191350000D01*
X168903571Y-191492857D01*
X168903571Y-191635714D01*
X168189285Y-191778571D01*
X170189285Y-192278571D02*
X170189285Y-191492857D01*
X170117857Y-191350000D01*
X169975000Y-191278571D01*
X169689285Y-191278571D01*
X169546428Y-191350000D01*
X170189285Y-192207142D02*
X170046428Y-192278571D01*
X169689285Y-192278571D01*
X169546428Y-192207142D01*
X169475000Y-192064285D01*
X169475000Y-191921428D01*
X169546428Y-191778571D01*
X169689285Y-191707142D01*
X170046428Y-191707142D01*
X170189285Y-191635714D01*
X171546428Y-192278571D02*
X171546428Y-190778571D01*
X171546428Y-192207142D02*
X171403571Y-192278571D01*
X171117857Y-192278571D01*
X170975000Y-192207142D01*
X170903571Y-192135714D01*
X170832142Y-191992857D01*
X170832142Y-191564285D01*
X170903571Y-191421428D01*
X170975000Y-191350000D01*
X171117857Y-191278571D01*
X171403571Y-191278571D01*
X171546428Y-191350000D01*
X172832142Y-192207142D02*
X172689285Y-192278571D01*
X172403571Y-192278571D01*
X172260714Y-192207142D01*
X172189285Y-192064285D01*
X172189285Y-191492857D01*
X172260714Y-191350000D01*
X172403571Y-191278571D01*
X172689285Y-191278571D01*
X172832142Y-191350000D01*
X172903571Y-191492857D01*
X172903571Y-191635714D01*
X172189285Y-191778571D01*
X173546428Y-192278571D02*
X173546428Y-191278571D01*
X173546428Y-191564285D02*
X173617857Y-191421428D01*
X173689285Y-191350000D01*
X173832142Y-191278571D01*
X173975000Y-191278571D01*
X174475000Y-192135714D02*
X174546428Y-192207142D01*
X174475000Y-192278571D01*
X174403571Y-192207142D01*
X174475000Y-192135714D01*
X174475000Y-192278571D01*
X175189285Y-192278571D02*
X175189285Y-190778571D01*
X175332142Y-191707142D02*
X175760714Y-192278571D01*
X175760714Y-191278571D02*
X175189285Y-191850000D01*
X176403571Y-192278571D02*
X176403571Y-191278571D01*
X176403571Y-190778571D02*
X176332142Y-190850000D01*
X176403571Y-190921428D01*
X176475000Y-190850000D01*
X176403571Y-190778571D01*
X176403571Y-190921428D01*
X177760714Y-192207142D02*
X177617857Y-192278571D01*
X177332142Y-192278571D01*
X177189285Y-192207142D01*
X177117857Y-192135714D01*
X177046428Y-191992857D01*
X177046428Y-191564285D01*
X177117857Y-191421428D01*
X177189285Y-191350000D01*
X177332142Y-191278571D01*
X177617857Y-191278571D01*
X177760714Y-191350000D01*
X179046428Y-192278571D02*
X179046428Y-191492857D01*
X178975000Y-191350000D01*
X178832142Y-191278571D01*
X178546428Y-191278571D01*
X178403571Y-191350000D01*
X179046428Y-192207142D02*
X178903571Y-192278571D01*
X178546428Y-192278571D01*
X178403571Y-192207142D01*
X178332142Y-192064285D01*
X178332142Y-191921428D01*
X178403571Y-191778571D01*
X178546428Y-191707142D01*
X178903571Y-191707142D01*
X179046428Y-191635714D01*
X180403571Y-192278571D02*
X180403571Y-190778571D01*
X180403571Y-192207142D02*
X180260714Y-192278571D01*
X179975000Y-192278571D01*
X179832142Y-192207142D01*
X179760714Y-192135714D01*
X179689285Y-191992857D01*
X179689285Y-191564285D01*
X179760714Y-191421428D01*
X179832142Y-191350000D01*
X179975000Y-191278571D01*
X180260714Y-191278571D01*
X180403571Y-191350000D01*
X180760714Y-192421428D02*
X181903571Y-192421428D01*
X182260714Y-191278571D02*
X182260714Y-192778571D01*
X182260714Y-191350000D02*
X182403571Y-191278571D01*
X182689285Y-191278571D01*
X182832142Y-191350000D01*
X182903571Y-191421428D01*
X182975000Y-191564285D01*
X182975000Y-191992857D01*
X182903571Y-192135714D01*
X182832142Y-192207142D01*
X182689285Y-192278571D01*
X182403571Y-192278571D01*
X182260714Y-192207142D01*
X184260714Y-192207142D02*
X184117857Y-192278571D01*
X183832142Y-192278571D01*
X183689285Y-192207142D01*
X183617857Y-192135714D01*
X183546428Y-191992857D01*
X183546428Y-191564285D01*
X183617857Y-191421428D01*
X183689285Y-191350000D01*
X183832142Y-191278571D01*
X184117857Y-191278571D01*
X184260714Y-191350000D01*
X184903571Y-192278571D02*
X184903571Y-190778571D01*
X184903571Y-191350000D02*
X185046428Y-191278571D01*
X185332142Y-191278571D01*
X185475000Y-191350000D01*
X185546428Y-191421428D01*
X185617857Y-191564285D01*
X185617857Y-191992857D01*
X185546428Y-192135714D01*
X185475000Y-192207142D01*
X185332142Y-192278571D01*
X185046428Y-192278571D01*
X184903571Y-192207142D01*
D10*
D11*
X159400000Y-187400000D02*
X267400000Y-187400000D01*
D10*
D11*
X160760714Y-189507142D02*
X160975000Y-189578571D01*
X161332142Y-189578571D01*
X161475000Y-189507142D01*
X161546428Y-189435714D01*
X161617857Y-189292857D01*
X161617857Y-189150000D01*
X161546428Y-189007142D01*
X161475000Y-188935714D01*
X161332142Y-188864285D01*
X161046428Y-188792857D01*
X160903571Y-188721428D01*
X160832142Y-188650000D01*
X160760714Y-188507142D01*
X160760714Y-188364285D01*
X160832142Y-188221428D01*
X160903571Y-188150000D01*
X161046428Y-188078571D01*
X161403571Y-188078571D01*
X161617857Y-188150000D01*
X162260714Y-189578571D02*
X162260714Y-188078571D01*
X162903571Y-189578571D02*
X162903571Y-188792857D01*
X162832142Y-188650000D01*
X162689285Y-188578571D01*
X162475000Y-188578571D01*
X162332142Y-188650000D01*
X162260714Y-188721428D01*
X164189285Y-189507142D02*
X164046428Y-189578571D01*
X163760714Y-189578571D01*
X163617857Y-189507142D01*
X163546428Y-189364285D01*
X163546428Y-188792857D01*
X163617857Y-188650000D01*
X163760714Y-188578571D01*
X164046428Y-188578571D01*
X164189285Y-188650000D01*
X164260714Y-188792857D01*
X164260714Y-188935714D01*
X163546428Y-189078571D01*
X165475000Y-189507142D02*
X165332142Y-189578571D01*
X165046428Y-189578571D01*
X164903571Y-189507142D01*
X164832142Y-189364285D01*
X164832142Y-188792857D01*
X164903571Y-188650000D01*
X165046428Y-188578571D01*
X165332142Y-188578571D01*
X165475000Y-188650000D01*
X165546428Y-188792857D01*
X165546428Y-188935714D01*
X164832142Y-189078571D01*
X165975000Y-188578571D02*
X166546428Y-188578571D01*
X166189285Y-188078571D02*
X166189285Y-189364285D01*
X166260714Y-189507142D01*
X166403571Y-189578571D01*
X166546428Y-189578571D01*
X167046428Y-189435714D02*
X167117857Y-189507142D01*
X167046428Y-189578571D01*
X166975000Y-189507142D01*
X167046428Y-189435714D01*
X167046428Y-189578571D01*
X167046428Y-188650000D02*
X167117857Y-188721428D01*
X167046428Y-188792857D01*
X166975000Y-188721428D01*
X167046428Y-188650000D01*
X167046428Y-188792857D01*
D10*
D12*
X161809285Y-186435714D02*
X161737857Y-186507142D01*
X161523571Y-186578571D01*
X161380714Y-186578571D01*
X161166428Y-186507142D01*
X161023571Y-186364285D01*
X160952142Y-186221428D01*
X160880714Y-185935714D01*
X160880714Y-185721428D01*
X160952142Y-185435714D01*
X161023571Y-185292857D01*
X161166428Y-185150000D01*
X161380714Y-185078571D01*
X161523571Y-185078571D01*
X161737857Y-185150000D01*
X161809285Y-185221428D01*
X162380714Y-186150000D02*
X163095000Y-186150000D01*
X162237857Y-186578571D02*
X162737857Y-185078571D01*
X163237857Y-186578571D01*
X163737857Y-186578571D02*
X163737857Y-185078571D01*
X164595000Y-186578571D01*
X164595000Y-185078571D01*
X165095000Y-185578571D02*
X165666428Y-185578571D01*
X165309285Y-185078571D02*
X165309285Y-186364285D01*
X165380714Y-186507142D01*
X165523571Y-186578571D01*
X165666428Y-186578571D01*
X166737857Y-186507142D02*
X166595000Y-186578571D01*
X166309285Y-186578571D01*
X166166428Y-186507142D01*
X166095000Y-186364285D01*
X166095000Y-185792857D01*
X166166428Y-185650000D01*
X166309285Y-185578571D01*
X166595000Y-185578571D01*
X166737857Y-185650000D01*
X166809285Y-185792857D01*
X166809285Y-185935714D01*
X166095000Y-186078571D01*
X168095000Y-186507142D02*
X167952142Y-186578571D01*
X167666428Y-186578571D01*
X167523571Y-186507142D01*
X167452142Y-186435714D01*
X167380714Y-186292857D01*
X167380714Y-185864285D01*
X167452142Y-185721428D01*
X167523571Y-185650000D01*
X167666428Y-185578571D01*
X167952142Y-185578571D01*
X168095000Y-185650000D01*
X168737857Y-186578571D02*
X168737857Y-185078571D01*
X169380714Y-186578571D02*
X169380714Y-185792857D01*
X169309285Y-185650000D01*
X169166428Y-185578571D01*
X168952142Y-185578571D01*
X168809285Y-185650000D01*
X168737857Y-185721428D01*
D10*
D11*
X161689285Y-183435714D02*
X161617857Y-183507142D01*
X161403571Y-183578571D01*
X161260714Y-183578571D01*
X161046428Y-183507142D01*
X160903571Y-183364285D01*
X160832142Y-183221428D01*
X160760714Y-182935714D01*
X160760714Y-182721428D01*
X160832142Y-182435714D01*
X160903571Y-182292857D01*
X161046428Y-182150000D01*
X161260714Y-182078571D01*
X161403571Y-182078571D01*
X161617857Y-182150000D01*
X161689285Y-182221428D01*
X162332142Y-183578571D02*
X162332142Y-182578571D01*
X162332142Y-182864285D02*
X162403571Y-182721428D01*
X162475000Y-182650000D01*
X162617857Y-182578571D01*
X162760714Y-182578571D01*
X163832142Y-183507142D02*
X163689285Y-183578571D01*
X163403571Y-183578571D01*
X163260714Y-183507142D01*
X163189285Y-183364285D01*
X163189285Y-182792857D01*
X163260714Y-182650000D01*
X163403571Y-182578571D01*
X163689285Y-182578571D01*
X163832142Y-182650000D01*
X163903571Y-182792857D01*
X163903571Y-182935714D01*
X163189285Y-183078571D01*
X165189285Y-183578571D02*
X165189285Y-182792857D01*
X165117857Y-182650000D01*
X164975000Y-182578571D01*
X164689285Y-182578571D01*
X164546428Y-182650000D01*
X165189285Y-183507142D02*
X165046428Y-183578571D01*
X164689285Y-183578571D01*
X164546428Y-183507142D01*
X164475000Y-183364285D01*
X164475000Y-183221428D01*
X164546428Y-183078571D01*
X164689285Y-183007142D01*
X165046428Y-183007142D01*
X165189285Y-182935714D01*
X165689285Y-182578571D02*
X166260714Y-182578571D01*
X165903571Y-182078571D02*
X165903571Y-183364285D01*
X165975000Y-183507142D01*
X166117857Y-183578571D01*
X166260714Y-183578571D01*
X167332142Y-183507142D02*
X167189285Y-183578571D01*
X166903571Y-183578571D01*
X166760714Y-183507142D01*
X166689285Y-183364285D01*
X166689285Y-182792857D01*
X166760714Y-182650000D01*
X166903571Y-182578571D01*
X167189285Y-182578571D01*
X167332142Y-182650000D01*
X167403571Y-182792857D01*
X167403571Y-182935714D01*
X166689285Y-183078571D01*
X168689285Y-183578571D02*
X168689285Y-182078571D01*
X168689285Y-183507142D02*
X168546428Y-183578571D01*
X168260714Y-183578571D01*
X168117857Y-183507142D01*
X168046428Y-183435714D01*
X167975000Y-183292857D01*
X167975000Y-182864285D01*
X168046428Y-182721428D01*
X168117857Y-182650000D01*
X168260714Y-182578571D01*
X168546428Y-182578571D01*
X168689285Y-182650000D01*
X170546428Y-183578571D02*
X170546428Y-182078571D01*
X170546428Y-182650000D02*
X170689285Y-182578571D01*
X170975000Y-182578571D01*
X171117857Y-182650000D01*
X171189285Y-182721428D01*
X171260714Y-182864285D01*
X171260714Y-183292857D01*
X171189285Y-183435714D01*
X171117857Y-183507142D01*
X170975000Y-183578571D01*
X170689285Y-183578571D01*
X170546428Y-183507142D01*
X171760714Y-182578571D02*
X172117857Y-183578571D01*
X172475000Y-182578571D02*
X172117857Y-183578571D01*
X171975000Y-183935714D01*
X171903571Y-184007142D01*
X171760714Y-184078571D01*
X175046428Y-183435714D02*
X174975000Y-183507142D01*
X174760714Y-183578571D01*
X174617857Y-183578571D01*
X174403571Y-183507142D01*
X174260714Y-183364285D01*
X174189285Y-183221428D01*
X174117857Y-182935714D01*
X174117857Y-182721428D01*
X174189285Y-182435714D01*
X174260714Y-182292857D01*
X174403571Y-182150000D01*
X174617857Y-182078571D01*
X174760714Y-182078571D01*
X174975000Y-182150000D01*
X175046428Y-182221428D01*
X175689285Y-183578571D02*
X175689285Y-182078571D01*
X176332142Y-183578571D02*
X176332142Y-182792857D01*
X176260714Y-182650000D01*
X176117857Y-182578571D01*
X175903571Y-182578571D01*
X175760714Y-182650000D01*
X175689285Y-182721428D01*
X177260714Y-183578571D02*
X177117857Y-183507142D01*
X177046428Y-183435714D01*
X176975000Y-183292857D01*
X176975000Y-182864285D01*
X177046428Y-182721428D01*
X177117857Y-182650000D01*
X177260714Y-182578571D01*
X177475000Y-182578571D01*
X177617857Y-182650000D01*
X177689285Y-182721428D01*
X177760714Y-182864285D01*
X177760714Y-183292857D01*
X177689285Y-183435714D01*
X177617857Y-183507142D01*
X177475000Y-183578571D01*
X177260714Y-183578571D01*
X178617857Y-183578571D02*
X178475000Y-183507142D01*
X178403571Y-183435714D01*
X178332142Y-183292857D01*
X178332142Y-182864285D01*
X178403571Y-182721428D01*
X178475000Y-182650000D01*
X178617857Y-182578571D01*
X178832142Y-182578571D01*
X178975000Y-182650000D01*
X179046428Y-182721428D01*
X179117857Y-182864285D01*
X179117857Y-183292857D01*
X179046428Y-183435714D01*
X178975000Y-183507142D01*
X178832142Y-183578571D01*
X178617857Y-183578571D01*
X179760714Y-182578571D02*
X179760714Y-183578571D01*
X179760714Y-182721428D02*
X179832142Y-182650000D01*
X179975000Y-182578571D01*
X180189285Y-182578571D01*
X180332142Y-182650000D01*
X180403571Y-182792857D01*
X180403571Y-183578571D01*
X181760714Y-182578571D02*
X181760714Y-183792857D01*
X181689285Y-183935714D01*
X181617857Y-184007142D01*
X181475000Y-184078571D01*
X181260714Y-184078571D01*
X181117857Y-184007142D01*
X181760714Y-183507142D02*
X181617857Y-183578571D01*
X181332142Y-183578571D01*
X181189285Y-183507142D01*
X181117857Y-183435714D01*
X181046428Y-183292857D01*
X181046428Y-182864285D01*
X181117857Y-182721428D01*
X181189285Y-182650000D01*
X181332142Y-182578571D01*
X181617857Y-182578571D01*
X181760714Y-182650000D01*
X184046428Y-182078571D02*
X184046428Y-183150000D01*
X183975000Y-183364285D01*
X183832142Y-183507142D01*
X183617857Y-183578571D01*
X183475000Y-183578571D01*
X184760714Y-183578571D02*
X184760714Y-182578571D01*
X184760714Y-182078571D02*
X184689285Y-182150000D01*
X184760714Y-182221428D01*
X184832142Y-182150000D01*
X184760714Y-182078571D01*
X184760714Y-182221428D01*
X185475000Y-182578571D02*
X185475000Y-183578571D01*
X185475000Y-182721428D02*
X185546428Y-182650000D01*
X185689285Y-182578571D01*
X185903571Y-182578571D01*
X186046428Y-182650000D01*
X186117857Y-182792857D01*
X186117857Y-183578571D01*
X187975000Y-183578571D02*
X187975000Y-182078571D01*
X188832142Y-183578571D01*
X188832142Y-182078571D01*
X190189285Y-182578571D02*
X190189285Y-183792857D01*
X190117857Y-183935714D01*
X190046428Y-184007142D01*
X189903571Y-184078571D01*
X189689285Y-184078571D01*
X189546428Y-184007142D01*
X190189285Y-183507142D02*
X190046428Y-183578571D01*
X189760714Y-183578571D01*
X189617857Y-183507142D01*
X189546428Y-183435714D01*
X189475000Y-183292857D01*
X189475000Y-182864285D01*
X189546428Y-182721428D01*
X189617857Y-182650000D01*
X189760714Y-182578571D01*
X190046428Y-182578571D01*
X190189285Y-182650000D01*
X192403571Y-184078571D02*
X192403571Y-181935714D01*
X194617857Y-182578571D02*
X194617857Y-183864285D01*
X194546428Y-184007142D01*
X194403571Y-184078571D01*
X194332142Y-184078571D01*
X194617857Y-182078571D02*
X194546428Y-182150000D01*
X194617857Y-182221428D01*
X194689285Y-182150000D01*
X194617857Y-182078571D01*
X194617857Y-182221428D01*
X195332142Y-183578571D02*
X195332142Y-182578571D01*
X195332142Y-182078571D02*
X195260714Y-182150000D01*
X195332142Y-182221428D01*
X195403571Y-182150000D01*
X195332142Y-182078571D01*
X195332142Y-182221428D01*
X196046428Y-182578571D02*
X196046428Y-183578571D01*
X196046428Y-182721428D02*
X196117857Y-182650000D01*
X196260714Y-182578571D01*
X196475000Y-182578571D01*
X196617857Y-182650000D01*
X196689285Y-182792857D01*
X196689285Y-183578571D01*
X197617857Y-182721428D02*
X197475000Y-182650000D01*
X197403571Y-182578571D01*
X197332142Y-182435714D01*
X197332142Y-182364285D01*
X197403571Y-182221428D01*
X197475000Y-182150000D01*
X197617857Y-182078571D01*
X197903571Y-182078571D01*
X198046428Y-182150000D01*
X198117857Y-182221428D01*
X198189285Y-182364285D01*
X198189285Y-182435714D01*
X198117857Y-182578571D01*
X198046428Y-182650000D01*
X197903571Y-182721428D01*
X197617857Y-182721428D01*
X197475000Y-182792857D01*
X197403571Y-182864285D01*
X197332142Y-183007142D01*
X197332142Y-183292857D01*
X197403571Y-183435714D01*
X197475000Y-183507142D01*
X197617857Y-183578571D01*
X197903571Y-183578571D01*
X198046428Y-183507142D01*
X198117857Y-183435714D01*
X198189285Y-183292857D01*
X198189285Y-183007142D01*
X198117857Y-182864285D01*
X198046428Y-182792857D01*
X197903571Y-182721428D01*
X198689285Y-182078571D02*
X199617857Y-182078571D01*
X199117857Y-182650000D01*
X199332142Y-182650000D01*
X199475000Y-182721428D01*
X199546428Y-182792857D01*
X199617857Y-182935714D01*
X199617857Y-183292857D01*
X199546428Y-183435714D01*
X199475000Y-183507142D01*
X199332142Y-183578571D01*
X198903571Y-183578571D01*
X198760714Y-183507142D01*
X198689285Y-183435714D01*
X200475000Y-182721428D02*
X200332142Y-182650000D01*
X200260714Y-182578571D01*
X200189285Y-182435714D01*
X200189285Y-182364285D01*
X200260714Y-182221428D01*
X200332142Y-182150000D01*
X200475000Y-182078571D01*
X200760714Y-182078571D01*
X200903571Y-182150000D01*
X200975000Y-182221428D01*
X201046428Y-182364285D01*
X201046428Y-182435714D01*
X200975000Y-182578571D01*
X200903571Y-182650000D01*
X200760714Y-182721428D01*
X200475000Y-182721428D01*
X200332142Y-182792857D01*
X200260714Y-182864285D01*
X200189285Y-183007142D01*
X200189285Y-183292857D01*
X200260714Y-183435714D01*
X200332142Y-183507142D01*
X200475000Y-183578571D01*
X200760714Y-183578571D01*
X200903571Y-183507142D01*
X200975000Y-183435714D01*
X201046428Y-183292857D01*
X201046428Y-183007142D01*
X200975000Y-182864285D01*
X200903571Y-182792857D01*
X200760714Y-182721428D01*
X201546428Y-182078571D02*
X202475000Y-182078571D01*
X201975000Y-182650000D01*
X202189285Y-182650000D01*
X202332142Y-182721428D01*
X202403571Y-182792857D01*
X202475000Y-182935714D01*
X202475000Y-183292857D01*
X202403571Y-183435714D01*
X202332142Y-183507142D01*
X202189285Y-183578571D01*
X201760714Y-183578571D01*
X201617857Y-183507142D01*
X201546428Y-183435714D01*
X204046428Y-182864285D02*
X203975000Y-182792857D01*
X203832142Y-182721428D01*
X203689285Y-182721428D01*
X203546428Y-182792857D01*
X203475000Y-182864285D01*
X203403571Y-183007142D01*
X203403571Y-183150000D01*
X203475000Y-183292857D01*
X203546428Y-183364285D01*
X203689285Y-183435714D01*
X203832142Y-183435714D01*
X203975000Y-183364285D01*
X204046428Y-183292857D01*
X204046428Y-182721428D02*
X204046428Y-183292857D01*
X204117857Y-183364285D01*
X204189285Y-183364285D01*
X204332142Y-183292857D01*
X204403571Y-183150000D01*
X204403571Y-182792857D01*
X204260714Y-182578571D01*
X204046428Y-182435714D01*
X203760714Y-182364285D01*
X203475000Y-182435714D01*
X203260714Y-182578571D01*
X203117857Y-182792857D01*
X203046428Y-183078571D01*
X203117857Y-183364285D01*
X203260714Y-183578571D01*
X203475000Y-183721428D01*
X203760714Y-183792857D01*
X204046428Y-183721428D01*
X204260714Y-183578571D01*
X205689285Y-182578571D02*
X205689285Y-183792857D01*
X205617857Y-183935714D01*
X205546428Y-184007142D01*
X205403571Y-184078571D01*
X205189285Y-184078571D01*
X205046428Y-184007142D01*
X205689285Y-183507142D02*
X205546428Y-183578571D01*
X205260714Y-183578571D01*
X205117857Y-183507142D01*
X205046428Y-183435714D01*
X204975000Y-183292857D01*
X204975000Y-182864285D01*
X205046428Y-182721428D01*
X205117857Y-182650000D01*
X205260714Y-182578571D01*
X205546428Y-182578571D01*
X205689285Y-182650000D01*
X206403571Y-183578571D02*
X206403571Y-182578571D01*
X206403571Y-182721428D02*
X206475000Y-182650000D01*
X206617857Y-182578571D01*
X206832142Y-182578571D01*
X206975000Y-182650000D01*
X207046428Y-182792857D01*
X207046428Y-183578571D01*
X207046428Y-182792857D02*
X207117857Y-182650000D01*
X207260714Y-182578571D01*
X207475000Y-182578571D01*
X207617857Y-182650000D01*
X207689285Y-182792857D01*
X207689285Y-183578571D01*
X209046428Y-183578571D02*
X209046428Y-182792857D01*
X208975000Y-182650000D01*
X208832142Y-182578571D01*
X208546428Y-182578571D01*
X208403571Y-182650000D01*
X209046428Y-183507142D02*
X208903571Y-183578571D01*
X208546428Y-183578571D01*
X208403571Y-183507142D01*
X208332142Y-183364285D01*
X208332142Y-183221428D01*
X208403571Y-183078571D01*
X208546428Y-183007142D01*
X208903571Y-183007142D01*
X209046428Y-182935714D01*
X209760714Y-183578571D02*
X209760714Y-182578571D01*
X209760714Y-182078571D02*
X209689285Y-182150000D01*
X209760714Y-182221428D01*
X209832142Y-182150000D01*
X209760714Y-182078571D01*
X209760714Y-182221428D01*
X210689285Y-183578571D02*
X210546428Y-183507142D01*
X210475000Y-183364285D01*
X210475000Y-182078571D01*
X211260714Y-183435714D02*
X211332142Y-183507142D01*
X211260714Y-183578571D01*
X211189285Y-183507142D01*
X211260714Y-183435714D01*
X211260714Y-183578571D01*
X212617857Y-183507142D02*
X212475000Y-183578571D01*
X212189285Y-183578571D01*
X212046428Y-183507142D01*
X211975000Y-183435714D01*
X211903571Y-183292857D01*
X211903571Y-182864285D01*
X211975000Y-182721428D01*
X212046428Y-182650000D01*
X212189285Y-182578571D01*
X212475000Y-182578571D01*
X212617857Y-182650000D01*
X213475000Y-183578571D02*
X213332142Y-183507142D01*
X213260714Y-183435714D01*
X213189285Y-183292857D01*
X213189285Y-182864285D01*
X213260714Y-182721428D01*
X213332142Y-182650000D01*
X213475000Y-182578571D01*
X213689285Y-182578571D01*
X213832142Y-182650000D01*
X213903571Y-182721428D01*
X213975000Y-182864285D01*
X213975000Y-183292857D01*
X213903571Y-183435714D01*
X213832142Y-183507142D01*
X213689285Y-183578571D01*
X213475000Y-183578571D01*
X214617857Y-183578571D02*
X214617857Y-182578571D01*
X214617857Y-182721428D02*
X214689285Y-182650000D01*
X214832142Y-182578571D01*
X215046428Y-182578571D01*
X215189285Y-182650000D01*
X215260714Y-182792857D01*
X215260714Y-183578571D01*
X215260714Y-182792857D02*
X215332142Y-182650000D01*
X215475000Y-182578571D01*
X215689285Y-182578571D01*
X215832142Y-182650000D01*
X215903571Y-182792857D01*
X215903571Y-183578571D01*
D10*
D11*
X179400000Y-197400000D02*
X179400000Y-200400000D01*
D10*
D11*
X243400000Y-197400000D02*
X243400000Y-203900000D01*
D14*
%TO.C,C_J1850_1*%
G36*
X169898100Y-84505119D02*
G01*
X169898100Y-84005700D01*
X168947131Y-84005700D01*
X168947131Y-84505119D01*
X169898100Y-84505119D01*
G37*
X169898100Y-84505119D02*
X169898100Y-84005700D01*
X168947131Y-84005700D01*
X168947131Y-84505119D01*
X169898100Y-84505119D01*
G36*
X169898100Y-85674606D02*
G01*
X169898100Y-85174100D01*
X168947871Y-85174100D01*
X168947871Y-85674606D01*
X169898100Y-85674606D01*
G37*
X169898100Y-85674606D02*
X169898100Y-85174100D01*
X168947871Y-85174100D01*
X168947871Y-85674606D01*
X169898100Y-85674606D01*
D15*
X168999000Y-85192000D02*
X168999000Y-84480000D01*
X169850000Y-85192000D02*
X169850000Y-84480000D01*
D10*
%TO.C,CP_STN_1*%
X119157600Y-81943573D02*
X118757600Y-81943573D01*
X118957600Y-82143573D02*
X118957600Y-81743573D01*
X116807600Y-82718800D02*
X115807600Y-81718800D01*
X119107600Y-82718800D02*
X120107600Y-81718800D01*
X119107600Y-82718800D02*
X116807600Y-82718800D01*
X115807600Y-81718800D02*
X115807600Y-78418800D01*
X120107600Y-81718800D02*
X120107600Y-78418800D01*
X120107600Y-78418800D02*
X115807600Y-78418800D01*
X119957600Y-80568800D02*
G75*
G03*
X119957600Y-80568800I-2000000J0D01*
G01*
D14*
%TO.C,C_HSCAN_2*%
G36*
X116989900Y-61314919D02*
G01*
X116989900Y-60815500D01*
X116038931Y-60815500D01*
X116038931Y-61314919D01*
X116989900Y-61314919D01*
G37*
X116989900Y-61314919D02*
X116989900Y-60815500D01*
X116038931Y-60815500D01*
X116038931Y-61314919D01*
X116989900Y-61314919D01*
G36*
X116989900Y-62484406D02*
G01*
X116989900Y-61983900D01*
X116039671Y-61983900D01*
X116039671Y-62484406D01*
X116989900Y-62484406D01*
G37*
X116989900Y-62484406D02*
X116989900Y-61983900D01*
X116039671Y-61983900D01*
X116039671Y-62484406D01*
X116989900Y-62484406D01*
D15*
X116090800Y-62001800D02*
X116090800Y-61289800D01*
X116941800Y-62001800D02*
X116941800Y-61289800D01*
D10*
%TO.C,D_J1850_3*%
X172151800Y-106780200D02*
X174151800Y-106780200D01*
X172151800Y-106980200D02*
X174151800Y-106980200D01*
X172151800Y-106880200D02*
X174151800Y-106880200D01*
X173151800Y-112090200D02*
X173151800Y-110280200D01*
X173151800Y-104470200D02*
X173151800Y-106280200D01*
X172151800Y-110280200D02*
X172151800Y-106280200D01*
X174151800Y-110280200D02*
X172151800Y-110280200D01*
X174151800Y-106280200D02*
X174151800Y-110280200D01*
X172151800Y-106280200D02*
X174151800Y-106280200D01*
D16*
%TO.C,C_PS_2*%
X162824998Y-126555004D02*
X161025002Y-126555004D01*
X161025002Y-126555004D02*
X161025002Y-125805005D01*
X161025002Y-125805005D02*
X162824998Y-125805005D01*
X162824998Y-125805005D02*
X162824998Y-126555004D01*
X161025002Y-128455000D02*
X162824998Y-128455000D01*
X162824998Y-128455000D02*
X162824998Y-129204999D01*
X162824998Y-129204999D02*
X161025002Y-129204999D01*
X161025002Y-129204999D02*
X161025002Y-128455000D01*
X162824998Y-125805005D02*
X162824998Y-129204999D01*
X162824998Y-129204999D02*
X161025002Y-129204999D01*
X161025002Y-129204999D02*
X161025002Y-125805005D01*
X161025002Y-125805005D02*
X162824998Y-125805005D01*
D14*
%TO.C,C_HSCAN_3*%
G36*
X115846900Y-87350586D02*
G01*
X115846900Y-86850500D01*
X114896880Y-86850500D01*
X114896880Y-87350586D01*
X115846900Y-87350586D01*
G37*
X115846900Y-87350586D02*
X115846900Y-86850500D01*
X114896880Y-86850500D01*
X114896880Y-87350586D01*
X115846900Y-87350586D01*
G36*
X115846900Y-88519305D02*
G01*
X115846900Y-88018900D01*
X114896729Y-88018900D01*
X114896729Y-88519305D01*
X115846900Y-88519305D01*
G37*
X115846900Y-88519305D02*
X115846900Y-88018900D01*
X114896729Y-88018900D01*
X114896729Y-88519305D01*
X115846900Y-88519305D01*
D15*
X114947800Y-88036800D02*
X114947800Y-87324800D01*
X115798800Y-88036800D02*
X115798800Y-87324800D01*
D16*
%TO.C,C_PS_3*%
X126862002Y-125300003D02*
X128661998Y-125300003D01*
X126862002Y-128699997D02*
X126862002Y-125300003D01*
X128661998Y-128699997D02*
X126862002Y-128699997D01*
X128661998Y-125300003D02*
X128661998Y-128699997D01*
X126862002Y-128699997D02*
X126862002Y-127949998D01*
X128661998Y-128699997D02*
X126862002Y-128699997D01*
X128661998Y-127949998D02*
X128661998Y-128699997D01*
X126862002Y-127949998D02*
X128661998Y-127949998D01*
X128661998Y-125300003D02*
X128661998Y-126050002D01*
X126862002Y-125300003D02*
X128661998Y-125300003D01*
X126862002Y-126050002D02*
X126862002Y-125300003D01*
X128661998Y-126050002D02*
X126862002Y-126050002D01*
D15*
%TO.C,C_STN_5*%
X130454000Y-92722000D02*
X131166000Y-92722000D01*
X130454000Y-91871000D02*
X131166000Y-91871000D01*
D14*
G36*
X129971495Y-92770100D02*
G01*
X130471900Y-92770100D01*
X130471900Y-91819929D01*
X129971495Y-91819929D01*
X129971495Y-92770100D01*
G37*
X129971495Y-92770100D02*
X130471900Y-92770100D01*
X130471900Y-91819929D01*
X129971495Y-91819929D01*
X129971495Y-92770100D01*
G36*
X131140214Y-92770100D02*
G01*
X131640300Y-92770100D01*
X131640300Y-91820080D01*
X131140214Y-91820080D01*
X131140214Y-92770100D01*
G37*
X131140214Y-92770100D02*
X131640300Y-92770100D01*
X131640300Y-91820080D01*
X131140214Y-91820080D01*
X131140214Y-92770100D01*
%TO.C,C_MSCAN_2*%
G36*
X121439900Y-143205881D02*
G01*
X121439900Y-143705300D01*
X122390869Y-143705300D01*
X122390869Y-143205881D01*
X121439900Y-143205881D01*
G37*
X121439900Y-143205881D02*
X121439900Y-143705300D01*
X122390869Y-143705300D01*
X122390869Y-143205881D01*
X121439900Y-143205881D01*
G36*
X121439900Y-142036394D02*
G01*
X121439900Y-142536900D01*
X122390129Y-142536900D01*
X122390129Y-142036394D01*
X121439900Y-142036394D01*
G37*
X121439900Y-142036394D02*
X121439900Y-142536900D01*
X122390129Y-142536900D01*
X122390129Y-142036394D01*
X121439900Y-142036394D01*
D15*
X122339000Y-142519000D02*
X122339000Y-143231000D01*
X121488000Y-142519000D02*
X121488000Y-143231000D01*
D16*
%TO.C,C_SWCAN_2*%
X137424998Y-63929997D02*
X135625002Y-63929997D01*
X137424998Y-60530003D02*
X137424998Y-63929997D01*
X135625002Y-60530003D02*
X137424998Y-60530003D01*
X135625002Y-63929997D02*
X135625002Y-60530003D01*
X137424998Y-60530003D02*
X137424998Y-61280002D01*
X135625002Y-60530003D02*
X137424998Y-60530003D01*
X135625002Y-61280002D02*
X135625002Y-60530003D01*
X137424998Y-61280002D02*
X135625002Y-61280002D01*
X135625002Y-63929997D02*
X135625002Y-63179998D01*
X137424998Y-63929997D02*
X135625002Y-63929997D01*
X137424998Y-63179998D02*
X137424998Y-63929997D01*
X135625002Y-63179998D02*
X137424998Y-63179998D01*
D10*
%TO.C,D_J1850_1*%
X171720000Y-75470000D02*
X173720000Y-75470000D01*
X173720000Y-75470000D02*
X173720000Y-79470000D01*
X173720000Y-79470000D02*
X171720000Y-79470000D01*
X171720000Y-79470000D02*
X171720000Y-75470000D01*
X172720000Y-73660000D02*
X172720000Y-75470000D01*
X172720000Y-81280000D02*
X172720000Y-79470000D01*
X171720000Y-76070000D02*
X173720000Y-76070000D01*
X171720000Y-76170000D02*
X173720000Y-76170000D01*
X171720000Y-75970000D02*
X173720000Y-75970000D01*
D16*
%TO.C,C_VR1_in1*%
X148257997Y-127116002D02*
X148257997Y-128915998D01*
X144858003Y-127116002D02*
X148257997Y-127116002D01*
X144858003Y-128915998D02*
X144858003Y-127116002D01*
X148257997Y-128915998D02*
X144858003Y-128915998D01*
X144858003Y-127116002D02*
X145608002Y-127116002D01*
X144858003Y-128915998D02*
X144858003Y-127116002D01*
X145608002Y-128915998D02*
X144858003Y-128915998D01*
X145608002Y-127116002D02*
X145608002Y-128915998D01*
X148257997Y-128915998D02*
X147507998Y-128915998D01*
X148257997Y-127116002D02*
X148257997Y-128915998D01*
X147507998Y-127116002D02*
X148257997Y-127116002D01*
X147507998Y-128915998D02*
X147507998Y-127116002D01*
%TO.C,C_VR2_in1*%
X137226002Y-127116002D02*
X137226002Y-128915998D01*
X137226002Y-128915998D02*
X136476003Y-128915998D01*
X136476003Y-128915998D02*
X136476003Y-127116002D01*
X136476003Y-127116002D02*
X137226002Y-127116002D01*
X139125998Y-128915998D02*
X139125998Y-127116002D01*
X139125998Y-127116002D02*
X139875997Y-127116002D01*
X139875997Y-127116002D02*
X139875997Y-128915998D01*
X139875997Y-128915998D02*
X139125998Y-128915998D01*
X136476003Y-127116002D02*
X139875997Y-127116002D01*
X139875997Y-127116002D02*
X139875997Y-128915998D01*
X139875997Y-128915998D02*
X136476003Y-128915998D01*
X136476003Y-128915998D02*
X136476003Y-127116002D01*
D15*
%TO.C,C_VR1_BST1*%
X152298000Y-133274000D02*
X153010000Y-133274000D01*
X152298000Y-132423000D02*
X153010000Y-132423000D01*
D14*
G36*
X151815394Y-133322100D02*
G01*
X152315900Y-133322100D01*
X152315900Y-132371871D01*
X151815394Y-132371871D01*
X151815394Y-133322100D01*
G37*
X151815394Y-133322100D02*
X152315900Y-133322100D01*
X152315900Y-132371871D01*
X151815394Y-132371871D01*
X151815394Y-133322100D01*
G36*
X152984881Y-133322100D02*
G01*
X153484300Y-133322100D01*
X153484300Y-132371131D01*
X152984881Y-132371131D01*
X152984881Y-133322100D01*
G37*
X152984881Y-133322100D02*
X153484300Y-133322100D01*
X153484300Y-132371131D01*
X152984881Y-132371131D01*
X152984881Y-133322100D01*
D17*
%TO.C,R_COMP_1*%
X159316000Y-79160000D02*
X159316000Y-80860000D01*
X160216000Y-79160000D02*
X160216000Y-80860000D01*
X159316000Y-79160000D02*
X160216000Y-79160000D01*
X159316000Y-80860000D02*
X160216000Y-80860000D01*
%TO.C,R_COMP_3*%
X157676000Y-80860000D02*
X157676000Y-79160000D01*
X156776000Y-80860000D02*
X156776000Y-79160000D01*
X157676000Y-80860000D02*
X156776000Y-80860000D01*
X157676000Y-79160000D02*
X156776000Y-79160000D01*
%TO.C,R_COMP_4*%
X151696000Y-80733000D02*
X152596000Y-80733000D01*
X151696000Y-79033000D02*
X152596000Y-79033000D01*
X152596000Y-79033000D02*
X152596000Y-80733000D01*
X151696000Y-79033000D02*
X151696000Y-80733000D01*
%TO.C,R_COMP_10*%
X146655000Y-73210000D02*
X146655000Y-74110000D01*
X148355000Y-73210000D02*
X148355000Y-74110000D01*
X148355000Y-74110000D02*
X146655000Y-74110000D01*
X148355000Y-73210000D02*
X146655000Y-73210000D01*
%TO.C,R_COMP_7*%
X147925000Y-59875000D02*
X147925000Y-60775000D01*
X149625000Y-59875000D02*
X149625000Y-60775000D01*
X149625000Y-60775000D02*
X147925000Y-60775000D01*
X149625000Y-59875000D02*
X147925000Y-59875000D01*
%TO.C,R_SWCAN_2*%
X141826000Y-66360000D02*
X142146000Y-66360000D01*
X141826000Y-65720000D02*
X142146000Y-65720000D01*
X142146000Y-65720000D02*
X142146000Y-66360000D01*
X141826000Y-65720000D02*
X141826000Y-66360000D01*
%TO.C,R_J1850_6*%
X161586000Y-96080000D02*
X161586000Y-94420000D01*
X158326000Y-96080000D02*
X158326000Y-94420000D01*
X158326000Y-94420000D02*
X161586000Y-94420000D01*
X158326000Y-96080000D02*
X161586000Y-96080000D01*
%TO.C,R_STN_5*%
X127850000Y-90990000D02*
X126150000Y-90990000D01*
X127850000Y-91890000D02*
X126150000Y-91890000D01*
X127850000Y-90990000D02*
X127850000Y-91890000D01*
X126150000Y-90990000D02*
X126150000Y-91890000D01*
%TO.C,R_COMP_5*%
X160059000Y-73464000D02*
X160059000Y-74364000D01*
X161759000Y-73464000D02*
X161759000Y-74364000D01*
X161759000Y-74364000D02*
X160059000Y-74364000D01*
X161759000Y-73464000D02*
X160059000Y-73464000D01*
%TO.C,R_STN_2*%
X111387300Y-113745700D02*
X114647300Y-113745700D01*
X111387300Y-112085700D02*
X114647300Y-112085700D01*
X111387300Y-113745700D02*
X111387300Y-112085700D01*
X114647300Y-113745700D02*
X114647300Y-112085700D01*
%TO.C,R_STN_7*%
X127355000Y-89650000D02*
X127915000Y-89650000D01*
X127355000Y-88550000D02*
X127915000Y-88550000D01*
X127915000Y-88550000D02*
X127915000Y-89650000D01*
X127355000Y-88550000D02*
X127355000Y-89650000D01*
%TO.C,R_MSCAN_1*%
X115812200Y-128302600D02*
X115812200Y-129202600D01*
X117512200Y-128302600D02*
X117512200Y-129202600D01*
X117512200Y-129202600D02*
X115812200Y-129202600D01*
X117512200Y-128302600D02*
X115812200Y-128302600D01*
%TO.C,R_COMP_9*%
X168471000Y-80733000D02*
X168471000Y-79033000D01*
X167571000Y-80733000D02*
X167571000Y-79033000D01*
X168471000Y-80733000D02*
X167571000Y-80733000D01*
X168471000Y-79033000D02*
X167571000Y-79033000D01*
%TO.C,R_COMP_6*%
X165550000Y-79091000D02*
X164650000Y-79091000D01*
X165550000Y-80791000D02*
X164650000Y-80791000D01*
X164650000Y-80791000D02*
X164650000Y-79091000D01*
X165550000Y-80791000D02*
X165550000Y-79091000D01*
%TO.C,R_PSW_1*%
X145230000Y-113930800D02*
X145230000Y-112230800D01*
X144330000Y-113930800D02*
X144330000Y-112230800D01*
X145230000Y-113930800D02*
X144330000Y-113930800D01*
X145230000Y-112230800D02*
X144330000Y-112230800D01*
%TO.C,R_J1850_3*%
X158390000Y-91308500D02*
X158390000Y-92968500D01*
X161650000Y-91308500D02*
X161650000Y-92968500D01*
X161650000Y-92968500D02*
X158390000Y-92968500D01*
X161650000Y-91308500D02*
X158390000Y-91308500D01*
%TO.C,R_ISO_4*%
X168955000Y-145585000D02*
X167595000Y-145585000D01*
X168955000Y-147785000D02*
X167595000Y-147785000D01*
X167595000Y-147785000D02*
X167595000Y-145585000D01*
X168955000Y-147785000D02*
X168955000Y-145585000D01*
%TO.C,R_J1850_7*%
X161842400Y-103497800D02*
X161842400Y-102597800D01*
X160142400Y-103497800D02*
X160142400Y-102597800D01*
X160142400Y-102597800D02*
X161842400Y-102597800D01*
X160142400Y-103497800D02*
X161842400Y-103497800D01*
%TO.C,D_ESD_5*%
X153236000Y-148478000D02*
X156136000Y-148478000D01*
X156136000Y-148478000D02*
X156136000Y-147178000D01*
X156136000Y-147178000D02*
X153236000Y-147178000D01*
X153236000Y-147178000D02*
X153236000Y-148478000D01*
D18*
X153836000Y-145468000D02*
G75*
G03*
X153836000Y-145468000I-100000J0D01*
G01*
%TO.C,D_ESD_4*%
X143295000Y-136705000D02*
G75*
G03*
X143295000Y-136705000I-100000J0D01*
G01*
D17*
X142695000Y-138415000D02*
X142695000Y-139715000D01*
X145595000Y-138415000D02*
X142695000Y-138415000D01*
X145595000Y-139715000D02*
X145595000Y-138415000D01*
X142695000Y-139715000D02*
X145595000Y-139715000D01*
%TO.C,R_J1850_8*%
X171533400Y-99091800D02*
X171533400Y-100791800D01*
X172433400Y-99091800D02*
X172433400Y-100791800D01*
X171533400Y-99091800D02*
X172433400Y-99091800D01*
X171533400Y-100791800D02*
X172433400Y-100791800D01*
%TO.C,R_J1850_1*%
X161028800Y-98032200D02*
X160128800Y-98032200D01*
X161028800Y-99732200D02*
X160128800Y-99732200D01*
X160128800Y-99732200D02*
X160128800Y-98032200D01*
X161028800Y-99732200D02*
X161028800Y-98032200D01*
%TO.C,R_STN_1*%
X114647300Y-116793700D02*
X114647300Y-115133700D01*
X111387300Y-116793700D02*
X111387300Y-115133700D01*
X111387300Y-115133700D02*
X114647300Y-115133700D01*
X111387300Y-116793700D02*
X114647300Y-116793700D01*
%TO.C,R_STN_4*%
X114647300Y-110697700D02*
X114647300Y-109037700D01*
X111387300Y-110697700D02*
X111387300Y-109037700D01*
X111387300Y-109037700D02*
X114647300Y-109037700D01*
X111387300Y-110697700D02*
X114647300Y-110697700D01*
%TO.C,R_COMP1*%
X149156000Y-80733000D02*
X150056000Y-80733000D01*
X149156000Y-79033000D02*
X150056000Y-79033000D01*
X150056000Y-79033000D02*
X150056000Y-80733000D01*
X149156000Y-79033000D02*
X149156000Y-80733000D01*
%TO.C,R_J1850_4*%
X158390000Y-88260500D02*
X158390000Y-89920500D01*
X161650000Y-88260500D02*
X161650000Y-89920500D01*
X161650000Y-89920500D02*
X158390000Y-89920500D01*
X161650000Y-88260500D02*
X158390000Y-88260500D01*
D16*
%TO.C,R_STN_3*%
X123228000Y-75673000D02*
X123228000Y-76473000D01*
X121628000Y-75673000D02*
X123228000Y-75673000D01*
X121628000Y-76473000D02*
X121628000Y-75673000D01*
X123228000Y-76473000D02*
X121628000Y-76473000D01*
X121628000Y-75673000D02*
X121978000Y-75673000D01*
X121628000Y-76473000D02*
X121628000Y-75673000D01*
X121978000Y-76473000D02*
X121628000Y-76473000D01*
X121978000Y-75673000D02*
X121978000Y-76473000D01*
X123228000Y-76473000D02*
X122878000Y-76473000D01*
X123228000Y-75673000D02*
X123228000Y-76473000D01*
X122878000Y-75673000D02*
X123228000Y-75673000D01*
X122878000Y-76473000D02*
X122878000Y-75673000D01*
%TO.C,D_ESD_3*%
X152080000Y-155841700D02*
X152588000Y-155841700D01*
X152588000Y-155841700D02*
X152588000Y-156489400D01*
X152588000Y-156489400D02*
X152080000Y-156489400D01*
X152080000Y-156489400D02*
X152080000Y-155841700D01*
X150180000Y-155841700D02*
X150688000Y-155841700D01*
X150688000Y-155841700D02*
X150688000Y-156489400D01*
X150688000Y-156489400D02*
X150180000Y-156489400D01*
X150180000Y-156489400D02*
X150180000Y-155841700D01*
X151638000Y-154546300D02*
X151130000Y-154546300D01*
X151130000Y-154546300D02*
X151130000Y-153898600D01*
X151130000Y-153898600D02*
X151638000Y-153898600D01*
X151638000Y-153898600D02*
X151638000Y-154546300D01*
X152831800Y-155841700D02*
X149936200Y-155841700D01*
X149936200Y-155841700D02*
X149936200Y-154546300D01*
X149936200Y-154546300D02*
X152831800Y-154546300D01*
X152831800Y-154546300D02*
X152831800Y-155841700D01*
X152410200Y-155587700D02*
G75*
G03*
X152410200Y-155587700I-76200J0D01*
G01*
D15*
%TO.C,C_HSCAN_1*%
X119735800Y-62001800D02*
X119735800Y-61289800D01*
X118884800Y-62001800D02*
X118884800Y-61289800D01*
D14*
G36*
X119783900Y-62484406D02*
G01*
X119783900Y-61983900D01*
X118833671Y-61983900D01*
X118833671Y-62484406D01*
X119783900Y-62484406D01*
G37*
X119783900Y-62484406D02*
X119783900Y-61983900D01*
X118833671Y-61983900D01*
X118833671Y-62484406D01*
X119783900Y-62484406D01*
G36*
X119783900Y-61314919D02*
G01*
X119783900Y-60815500D01*
X118832931Y-60815500D01*
X118832931Y-61314919D01*
X119783900Y-61314919D01*
G37*
X119783900Y-61314919D02*
X119783900Y-60815500D01*
X118832931Y-60815500D01*
X118832931Y-61314919D01*
X119783900Y-61314919D01*
D16*
%TO.C,Q_J1850_3*%
X161785300Y-82870000D02*
G75*
G03*
X161785300Y-82870000I-76200J0D01*
G01*
X160616900Y-82372200D02*
X161963100Y-82372200D01*
X160616900Y-85267800D02*
X160616900Y-82372200D01*
X161963100Y-85267800D02*
X160616900Y-85267800D01*
X161963100Y-82372200D02*
X161963100Y-85267800D01*
X159994600Y-83566000D02*
X160616900Y-83566000D01*
X159994600Y-84074000D02*
X159994600Y-83566000D01*
X160616900Y-84074000D02*
X159994600Y-84074000D01*
X160616900Y-83566000D02*
X160616900Y-84074000D01*
X162585400Y-85024000D02*
X161963100Y-85024000D01*
X162585400Y-84516000D02*
X162585400Y-85024000D01*
X161963100Y-84516000D02*
X162585400Y-84516000D01*
X161963100Y-85024000D02*
X161963100Y-84516000D01*
X162585400Y-83124000D02*
X161963100Y-83124000D01*
X162585400Y-82616000D02*
X162585400Y-83124000D01*
X161963100Y-82616000D02*
X162585400Y-82616000D01*
X161963100Y-83124000D02*
X161963100Y-82616000D01*
D17*
%TO.C,R_VR2_3*%
X131006000Y-128612000D02*
X131006000Y-126912000D01*
X130106000Y-128612000D02*
X130106000Y-126912000D01*
X131006000Y-128612000D02*
X130106000Y-128612000D01*
X131006000Y-126912000D02*
X130106000Y-126912000D01*
D14*
%TO.C,C_HST_1*%
G36*
X169634786Y-70639900D02*
G01*
X169134700Y-70639900D01*
X169134700Y-71589920D01*
X169634786Y-71589920D01*
X169634786Y-70639900D01*
G37*
X169634786Y-70639900D02*
X169134700Y-70639900D01*
X169134700Y-71589920D01*
X169634786Y-71589920D01*
X169634786Y-70639900D01*
G36*
X170803505Y-70639900D02*
G01*
X170303100Y-70639900D01*
X170303100Y-71590071D01*
X170803505Y-71590071D01*
X170803505Y-70639900D01*
G37*
X170803505Y-70639900D02*
X170303100Y-70639900D01*
X170303100Y-71590071D01*
X170803505Y-71590071D01*
X170803505Y-70639900D01*
D15*
X170321000Y-71539000D02*
X169609000Y-71539000D01*
X170321000Y-70688000D02*
X169609000Y-70688000D01*
D17*
%TO.C,R_VS_1*%
X152205000Y-142775000D02*
X153865000Y-142775000D01*
X152205000Y-139515000D02*
X153865000Y-139515000D01*
X153865000Y-139515000D02*
X153865000Y-142775000D01*
X152205000Y-139515000D02*
X152205000Y-142775000D01*
%TO.C,R_VR2_2*%
X126942000Y-131796000D02*
X126042000Y-131796000D01*
X126942000Y-133496000D02*
X126042000Y-133496000D01*
X126042000Y-133496000D02*
X126042000Y-131796000D01*
X126942000Y-133496000D02*
X126942000Y-131796000D01*
%TO.C,R_SWCAN_4*%
X131542000Y-71062000D02*
X133242000Y-71062000D01*
X131542000Y-70162000D02*
X133242000Y-70162000D01*
X131542000Y-71062000D02*
X131542000Y-70162000D01*
X133242000Y-71062000D02*
X133242000Y-70162000D01*
%TD*%
%TO.C,C_J1850_1*%
D19*
X167952113Y-82491381D02*
X167952113Y-82536442D01*
X167974643Y-82581502D01*
X167997173Y-82604033D01*
X168042234Y-82626563D01*
X168132356Y-82649094D01*
X168245008Y-82649094D01*
X168335130Y-82626563D01*
X168380191Y-82604033D01*
X168402721Y-82581502D01*
X168425252Y-82536442D01*
X168425252Y-82491381D01*
X168402721Y-82446320D01*
X168380191Y-82423789D01*
X168335130Y-82401259D01*
X168245008Y-82378729D01*
X168132356Y-82378729D01*
X168042234Y-82401259D01*
X167997173Y-82423789D01*
X167974643Y-82446320D01*
X167952113Y-82491381D01*
X168380191Y-82851868D02*
X168402721Y-82874398D01*
X168425252Y-82851868D01*
X168402721Y-82829337D01*
X168380191Y-82851868D01*
X168425252Y-82851868D01*
X168425252Y-83325007D02*
X168425252Y-83054641D01*
X168425252Y-83189824D02*
X167952113Y-83189824D01*
X168019704Y-83144763D01*
X168064765Y-83099702D01*
X168087295Y-83054641D01*
X168109826Y-83730554D02*
X168425252Y-83730554D01*
X168109826Y-83527780D02*
X168357660Y-83527780D01*
X168402721Y-83550311D01*
X168425252Y-83595372D01*
X168425252Y-83662963D01*
X168402721Y-83708024D01*
X168380191Y-83730554D01*
X168177417Y-84113572D02*
X168177417Y-83955859D01*
X168425252Y-83955859D02*
X167952113Y-83955859D01*
X167952113Y-84181163D01*
%TO.C,CP_STN_1*%
D11*
X115209980Y-79497371D02*
X115209980Y-78925942D01*
X115209980Y-79211657D02*
X114209980Y-79211657D01*
X114352838Y-79116419D01*
X114448076Y-79021180D01*
X114495695Y-78925942D01*
X114209980Y-80116419D02*
X114209980Y-80211657D01*
X114257600Y-80306895D01*
X114305219Y-80354514D01*
X114400457Y-80402133D01*
X114590933Y-80449752D01*
X114829028Y-80449752D01*
X115019504Y-80402133D01*
X115114742Y-80354514D01*
X115162361Y-80306895D01*
X115209980Y-80211657D01*
X115209980Y-80116419D01*
X115162361Y-80021180D01*
X115114742Y-79973561D01*
X115019504Y-79925942D01*
X114829028Y-79878323D01*
X114590933Y-79878323D01*
X114400457Y-79925942D01*
X114305219Y-79973561D01*
X114257600Y-80021180D01*
X114209980Y-80116419D01*
X114543314Y-81306895D02*
X115209980Y-81306895D01*
X114543314Y-80878323D02*
X115067123Y-80878323D01*
X115162361Y-80925942D01*
X115209980Y-81021180D01*
X115209980Y-81164038D01*
X115162361Y-81259276D01*
X115114742Y-81306895D01*
X114686171Y-82116419D02*
X114686171Y-81783085D01*
X115209980Y-81783085D02*
X114209980Y-81783085D01*
X114209980Y-82259276D01*
D20*
X118243314Y-78321180D02*
X118281409Y-78283085D01*
X118319504Y-78168800D01*
X118319504Y-78092609D01*
X118281409Y-77978323D01*
X118205219Y-77902133D01*
X118129028Y-77864038D01*
X117976647Y-77825942D01*
X117862361Y-77825942D01*
X117709980Y-77864038D01*
X117633790Y-77902133D01*
X117557600Y-77978323D01*
X117519504Y-78092609D01*
X117519504Y-78168800D01*
X117557600Y-78283085D01*
X117595695Y-78321180D01*
X118319504Y-78664038D02*
X117519504Y-78664038D01*
X117519504Y-78968800D01*
X117557600Y-79044990D01*
X117595695Y-79083085D01*
X117671885Y-79121180D01*
X117786171Y-79121180D01*
X117862361Y-79083085D01*
X117900457Y-79044990D01*
X117938552Y-78968800D01*
X117938552Y-78664038D01*
X118395695Y-79273561D02*
X118395695Y-79883085D01*
X118281409Y-80035466D02*
X118319504Y-80149752D01*
X118319504Y-80340228D01*
X118281409Y-80416419D01*
X118243314Y-80454514D01*
X118167123Y-80492609D01*
X118090933Y-80492609D01*
X118014742Y-80454514D01*
X117976647Y-80416419D01*
X117938552Y-80340228D01*
X117900457Y-80187847D01*
X117862361Y-80111657D01*
X117824266Y-80073561D01*
X117748076Y-80035466D01*
X117671885Y-80035466D01*
X117595695Y-80073561D01*
X117557600Y-80111657D01*
X117519504Y-80187847D01*
X117519504Y-80378323D01*
X117557600Y-80492609D01*
X117519504Y-80721180D02*
X117519504Y-81178323D01*
X118319504Y-80949752D02*
X117519504Y-80949752D01*
X118319504Y-81444990D02*
X117519504Y-81444990D01*
X118319504Y-81902133D01*
X117519504Y-81902133D01*
X118395695Y-82092609D02*
X118395695Y-82702133D01*
X118319504Y-83311657D02*
X118319504Y-82854514D01*
X118319504Y-83083085D02*
X117519504Y-83083085D01*
X117633790Y-83006895D01*
X117709980Y-82930704D01*
X117748076Y-82854514D01*
%TO.C,D_ESD_2*%
D19*
X132715653Y-150806642D02*
X131714188Y-150806642D01*
X131714188Y-151188152D01*
X131761877Y-151283530D01*
X131809566Y-151331219D01*
X131904943Y-151378907D01*
X132048010Y-151378907D01*
X132143387Y-151331219D01*
X132191076Y-151283530D01*
X132238765Y-151188152D01*
X132238765Y-150806642D01*
X132191076Y-151808107D02*
X132191076Y-152141928D01*
X132715653Y-152284995D02*
X132715653Y-151808107D01*
X131714188Y-151808107D01*
X131714188Y-152284995D01*
X132667964Y-152666505D02*
X132715653Y-152809572D01*
X132715653Y-153048016D01*
X132667964Y-153143393D01*
X132620276Y-153191082D01*
X132524898Y-153238771D01*
X132429520Y-153238771D01*
X132334143Y-153191082D01*
X132286454Y-153143393D01*
X132238765Y-153048016D01*
X132191076Y-152857260D01*
X132143387Y-152761883D01*
X132095699Y-152714194D01*
X132000321Y-152666505D01*
X131904943Y-152666505D01*
X131809566Y-152714194D01*
X131761877Y-152761883D01*
X131714188Y-152857260D01*
X131714188Y-153095705D01*
X131761877Y-153238771D01*
X132715653Y-153667970D02*
X131714188Y-153667970D01*
X131714188Y-153906414D01*
X131761877Y-154049481D01*
X131857255Y-154144858D01*
X131952632Y-154192547D01*
X132143387Y-154240236D01*
X132286454Y-154240236D01*
X132477209Y-154192547D01*
X132572587Y-154144858D01*
X132667964Y-154049481D01*
X132715653Y-153906414D01*
X132715653Y-153667970D01*
X131809566Y-154621746D02*
X131761877Y-154669435D01*
X131714188Y-154764813D01*
X131714188Y-155003257D01*
X131761877Y-155098635D01*
X131809566Y-155146323D01*
X131904943Y-155194012D01*
X132000321Y-155194012D01*
X132143387Y-155146323D01*
X132715653Y-154574058D01*
X132715653Y-155194012D01*
X132620276Y-156195477D02*
X132667964Y-156147788D01*
X132715653Y-156004722D01*
X132715653Y-155909344D01*
X132667964Y-155766278D01*
X132572587Y-155670900D01*
X132477209Y-155623211D01*
X132286454Y-155575523D01*
X132143387Y-155575523D01*
X131952632Y-155623211D01*
X131857255Y-155670900D01*
X131761877Y-155766278D01*
X131714188Y-155909344D01*
X131714188Y-156004722D01*
X131761877Y-156147788D01*
X131809566Y-156195477D01*
X132429520Y-156576988D02*
X132429520Y-157053876D01*
X132715653Y-156481610D02*
X131714188Y-156815432D01*
X132715653Y-157149253D01*
X132715653Y-157483075D02*
X131714188Y-157483075D01*
X132715653Y-158055341D01*
X131714188Y-158055341D01*
X132667964Y-158579918D02*
X132715653Y-158579918D01*
X132811031Y-158532229D01*
X132858720Y-158484540D01*
X131809566Y-158961428D02*
X131761877Y-159009117D01*
X131714188Y-159104495D01*
X131714188Y-159342939D01*
X131761877Y-159438316D01*
X131809566Y-159486005D01*
X131904943Y-159533694D01*
X132000321Y-159533694D01*
X132143387Y-159486005D01*
X132715653Y-158913739D01*
X132715653Y-159533694D01*
X132715653Y-160487470D02*
X132715653Y-159915204D01*
X132715653Y-160201337D02*
X131714188Y-160201337D01*
X131857255Y-160105960D01*
X131952632Y-160010582D01*
X132000321Y-159915204D01*
X131714188Y-161393557D02*
X131714188Y-160916669D01*
X132191076Y-160868980D01*
X132143387Y-160916669D01*
X132095699Y-161012047D01*
X132095699Y-161250491D01*
X132143387Y-161345869D01*
X132191076Y-161393557D01*
X132286454Y-161441246D01*
X132524898Y-161441246D01*
X132620276Y-161393557D01*
X132667964Y-161345869D01*
X132715653Y-161250491D01*
X132715653Y-161012047D01*
X132667964Y-160916669D01*
X132620276Y-160868980D01*
%TO.C,C_HSCAN_2*%
X115043913Y-59323711D02*
X115043913Y-59098407D01*
X115269217Y-59075876D01*
X115246686Y-59098407D01*
X115224156Y-59143468D01*
X115224156Y-59256120D01*
X115246686Y-59301181D01*
X115269217Y-59323711D01*
X115314278Y-59346242D01*
X115426930Y-59346242D01*
X115471991Y-59323711D01*
X115494521Y-59301181D01*
X115517052Y-59256120D01*
X115517052Y-59143468D01*
X115494521Y-59098407D01*
X115471991Y-59075876D01*
X115043913Y-59751789D02*
X115043913Y-59661668D01*
X115066443Y-59616607D01*
X115088973Y-59594076D01*
X115156565Y-59549015D01*
X115246686Y-59526485D01*
X115426930Y-59526485D01*
X115471991Y-59549015D01*
X115494521Y-59571546D01*
X115517052Y-59616607D01*
X115517052Y-59706728D01*
X115494521Y-59751789D01*
X115471991Y-59774320D01*
X115426930Y-59796850D01*
X115314278Y-59796850D01*
X115269217Y-59774320D01*
X115246686Y-59751789D01*
X115224156Y-59706728D01*
X115224156Y-59616607D01*
X115246686Y-59571546D01*
X115269217Y-59549015D01*
X115314278Y-59526485D01*
X115043913Y-60089746D02*
X115043913Y-60134807D01*
X115066443Y-60179867D01*
X115088973Y-60202398D01*
X115134034Y-60224928D01*
X115224156Y-60247459D01*
X115336808Y-60247459D01*
X115426930Y-60224928D01*
X115471991Y-60202398D01*
X115494521Y-60179867D01*
X115517052Y-60134807D01*
X115517052Y-60089746D01*
X115494521Y-60044685D01*
X115471991Y-60022154D01*
X115426930Y-59999624D01*
X115336808Y-59977094D01*
X115224156Y-59977094D01*
X115134034Y-59999624D01*
X115088973Y-60022154D01*
X115066443Y-60044685D01*
X115043913Y-60089746D01*
X115201626Y-60450233D02*
X115674765Y-60450233D01*
X115224156Y-60450233D02*
X115201626Y-60495293D01*
X115201626Y-60585415D01*
X115224156Y-60630476D01*
X115246686Y-60653006D01*
X115291747Y-60675537D01*
X115426930Y-60675537D01*
X115471991Y-60653006D01*
X115494521Y-60630476D01*
X115517052Y-60585415D01*
X115517052Y-60495293D01*
X115494521Y-60450233D01*
X115269217Y-61036024D02*
X115269217Y-60878311D01*
X115517052Y-60878311D02*
X115043913Y-60878311D01*
X115043913Y-61103615D01*
%TO.C,D_J1850_3*%
D11*
X175200371Y-106589723D02*
X175247990Y-106732580D01*
X175295609Y-106780200D01*
X175390847Y-106827819D01*
X175533704Y-106827819D01*
X175628942Y-106780200D01*
X175676561Y-106732580D01*
X175724180Y-106637342D01*
X175724180Y-106256390D01*
X174724180Y-106256390D01*
X174724180Y-106589723D01*
X174771800Y-106684961D01*
X174819419Y-106732580D01*
X174914657Y-106780200D01*
X175009895Y-106780200D01*
X175105133Y-106732580D01*
X175152752Y-106684961D01*
X175200371Y-106589723D01*
X175200371Y-106256390D01*
X175438466Y-107208771D02*
X175438466Y-107684961D01*
X175724180Y-107113533D02*
X174724180Y-107446866D01*
X175724180Y-107780200D01*
X174724180Y-107970676D02*
X174724180Y-108542104D01*
X175724180Y-108256390D02*
X174724180Y-108256390D01*
X175057514Y-109304009D02*
X175724180Y-109304009D01*
X174676561Y-109065914D02*
X175390847Y-108827819D01*
X175390847Y-109446866D01*
X174724180Y-110256390D02*
X174724180Y-110065914D01*
X174771800Y-109970676D01*
X174819419Y-109923057D01*
X174962276Y-109827819D01*
X175152752Y-109780200D01*
X175533704Y-109780200D01*
X175628942Y-109827819D01*
X175676561Y-109875438D01*
X175724180Y-109970676D01*
X175724180Y-110161152D01*
X175676561Y-110256390D01*
X175628942Y-110304009D01*
X175533704Y-110351628D01*
X175295609Y-110351628D01*
X175200371Y-110304009D01*
X175152752Y-110256390D01*
X175105133Y-110161152D01*
X175105133Y-109970676D01*
X175152752Y-109875438D01*
X175200371Y-109827819D01*
X175295609Y-109780200D01*
D20*
X173513704Y-105551628D02*
X172713704Y-105551628D01*
X172713704Y-105742104D01*
X172751800Y-105856390D01*
X172827990Y-105932580D01*
X172904180Y-105970676D01*
X173056561Y-106008771D01*
X173170847Y-106008771D01*
X173323228Y-105970676D01*
X173399419Y-105932580D01*
X173475609Y-105856390D01*
X173513704Y-105742104D01*
X173513704Y-105551628D01*
X173589895Y-106161152D02*
X173589895Y-106770676D01*
X172713704Y-107189723D02*
X173285133Y-107189723D01*
X173399419Y-107151628D01*
X173475609Y-107075438D01*
X173513704Y-106961152D01*
X173513704Y-106884961D01*
X173513704Y-107989723D02*
X173513704Y-107532580D01*
X173513704Y-107761152D02*
X172713704Y-107761152D01*
X172827990Y-107684961D01*
X172904180Y-107608771D01*
X172942276Y-107532580D01*
X173056561Y-108446866D02*
X173018466Y-108370676D01*
X172980371Y-108332580D01*
X172904180Y-108294485D01*
X172866085Y-108294485D01*
X172789895Y-108332580D01*
X172751800Y-108370676D01*
X172713704Y-108446866D01*
X172713704Y-108599247D01*
X172751800Y-108675438D01*
X172789895Y-108713533D01*
X172866085Y-108751628D01*
X172904180Y-108751628D01*
X172980371Y-108713533D01*
X173018466Y-108675438D01*
X173056561Y-108599247D01*
X173056561Y-108446866D01*
X173094657Y-108370676D01*
X173132752Y-108332580D01*
X173208942Y-108294485D01*
X173361323Y-108294485D01*
X173437514Y-108332580D01*
X173475609Y-108370676D01*
X173513704Y-108446866D01*
X173513704Y-108599247D01*
X173475609Y-108675438D01*
X173437514Y-108713533D01*
X173361323Y-108751628D01*
X173208942Y-108751628D01*
X173132752Y-108713533D01*
X173094657Y-108675438D01*
X173056561Y-108599247D01*
X172713704Y-109475438D02*
X172713704Y-109094485D01*
X173094657Y-109056390D01*
X173056561Y-109094485D01*
X173018466Y-109170676D01*
X173018466Y-109361152D01*
X173056561Y-109437342D01*
X173094657Y-109475438D01*
X173170847Y-109513533D01*
X173361323Y-109513533D01*
X173437514Y-109475438D01*
X173475609Y-109437342D01*
X173513704Y-109361152D01*
X173513704Y-109170676D01*
X173475609Y-109094485D01*
X173437514Y-109056390D01*
X172713704Y-110008771D02*
X172713704Y-110084961D01*
X172751800Y-110161152D01*
X172789895Y-110199247D01*
X172866085Y-110237342D01*
X173018466Y-110275438D01*
X173208942Y-110275438D01*
X173361323Y-110237342D01*
X173437514Y-110199247D01*
X173475609Y-110161152D01*
X173513704Y-110084961D01*
X173513704Y-110008771D01*
X173475609Y-109932580D01*
X173437514Y-109894485D01*
X173361323Y-109856390D01*
X173208942Y-109818295D01*
X173018466Y-109818295D01*
X172866085Y-109856390D01*
X172789895Y-109894485D01*
X172751800Y-109932580D01*
X172713704Y-110008771D01*
X173589895Y-110427819D02*
X173589895Y-111037342D01*
X172713704Y-111151628D02*
X172713704Y-111646866D01*
X173018466Y-111380200D01*
X173018466Y-111494485D01*
X173056561Y-111570676D01*
X173094657Y-111608771D01*
X173170847Y-111646866D01*
X173361323Y-111646866D01*
X173437514Y-111608771D01*
X173475609Y-111570676D01*
X173513704Y-111494485D01*
X173513704Y-111265914D01*
X173475609Y-111189723D01*
X173437514Y-111151628D01*
D11*
X171804180Y-104208295D02*
X170804180Y-104208295D01*
X171804180Y-104779723D02*
X171232752Y-104351152D01*
X170804180Y-104779723D02*
X171375609Y-104208295D01*
%TO.C,C_PS_2*%
X161377380Y-127505002D02*
X161615476Y-127505002D01*
X161520238Y-127266906D02*
X161615476Y-127505002D01*
X161520238Y-127743097D01*
X161805952Y-127362144D02*
X161615476Y-127505002D01*
X161805952Y-127647859D01*
%TO.C,C_HSCAN_3*%
D19*
X114548766Y-85179260D02*
X114548766Y-84607534D01*
X114548766Y-84893397D02*
X113548246Y-84893397D01*
X113691177Y-84798109D01*
X113786465Y-84702822D01*
X113834109Y-84607534D01*
X113881752Y-86036848D02*
X114548766Y-86036848D01*
X113881752Y-85608054D02*
X114405834Y-85608054D01*
X114501122Y-85655698D01*
X114548766Y-85750986D01*
X114548766Y-85893917D01*
X114501122Y-85989205D01*
X114453478Y-86036848D01*
X114024684Y-86846793D02*
X114024684Y-86513287D01*
X114548766Y-86513287D02*
X113548246Y-86513287D01*
X113548246Y-86989725D01*
%TO.C,C_PS_3*%
D11*
X127214380Y-127000000D02*
X127452476Y-127000000D01*
X127357238Y-126761904D02*
X127452476Y-127000000D01*
X127357238Y-127238095D01*
X127642952Y-126857142D02*
X127452476Y-127000000D01*
X127642952Y-127142857D01*
%TO.C,C_STN_5*%
D19*
X133311539Y-91471966D02*
X133883265Y-91471966D01*
X133597402Y-91471966D02*
X133597402Y-90471446D01*
X133692690Y-90614377D01*
X133787977Y-90709665D01*
X133883265Y-90757309D01*
X132453951Y-90804952D02*
X132453951Y-91471966D01*
X132882745Y-90804952D02*
X132882745Y-91329034D01*
X132835101Y-91424322D01*
X132739813Y-91471966D01*
X132596882Y-91471966D01*
X132501594Y-91424322D01*
X132453951Y-91376678D01*
X131644006Y-90947884D02*
X131977512Y-90947884D01*
X131977512Y-91471966D02*
X131977512Y-90471446D01*
X131501074Y-90471446D01*
%TO.C,C_MSCAN_2*%
X122867687Y-143687549D02*
X122867687Y-143462245D01*
X123092991Y-143439714D01*
X123070460Y-143462245D01*
X123047930Y-143507306D01*
X123047930Y-143619958D01*
X123070460Y-143665019D01*
X123092991Y-143687549D01*
X123138052Y-143710080D01*
X123250704Y-143710080D01*
X123295765Y-143687549D01*
X123318295Y-143665019D01*
X123340826Y-143619958D01*
X123340826Y-143507306D01*
X123318295Y-143462245D01*
X123295765Y-143439714D01*
X122867687Y-144115627D02*
X122867687Y-144025506D01*
X122890217Y-143980445D01*
X122912747Y-143957914D01*
X122980339Y-143912853D01*
X123070460Y-143890323D01*
X123250704Y-143890323D01*
X123295765Y-143912853D01*
X123318295Y-143935384D01*
X123340826Y-143980445D01*
X123340826Y-144070566D01*
X123318295Y-144115627D01*
X123295765Y-144138158D01*
X123250704Y-144160688D01*
X123138052Y-144160688D01*
X123092991Y-144138158D01*
X123070460Y-144115627D01*
X123047930Y-144070566D01*
X123047930Y-143980445D01*
X123070460Y-143935384D01*
X123092991Y-143912853D01*
X123138052Y-143890323D01*
X122867687Y-144453584D02*
X122867687Y-144498645D01*
X122890217Y-144543705D01*
X122912747Y-144566236D01*
X122957808Y-144588766D01*
X123047930Y-144611297D01*
X123160582Y-144611297D01*
X123250704Y-144588766D01*
X123295765Y-144566236D01*
X123318295Y-144543705D01*
X123340826Y-144498645D01*
X123340826Y-144453584D01*
X123318295Y-144408523D01*
X123295765Y-144385992D01*
X123250704Y-144363462D01*
X123160582Y-144340932D01*
X123047930Y-144340932D01*
X122957808Y-144363462D01*
X122912747Y-144385992D01*
X122890217Y-144408523D01*
X122867687Y-144453584D01*
X123025400Y-144814071D02*
X123498539Y-144814071D01*
X123047930Y-144814071D02*
X123025400Y-144859131D01*
X123025400Y-144949253D01*
X123047930Y-144994314D01*
X123070460Y-145016844D01*
X123115521Y-145039375D01*
X123250704Y-145039375D01*
X123295765Y-145016844D01*
X123318295Y-144994314D01*
X123340826Y-144949253D01*
X123340826Y-144859131D01*
X123318295Y-144814071D01*
X123092991Y-145399862D02*
X123092991Y-145242149D01*
X123340826Y-145242149D02*
X122867687Y-145242149D01*
X122867687Y-145467453D01*
%TO.C,C_SWCAN_2*%
D11*
X135977380Y-62230000D02*
X136215476Y-62230000D01*
X136120238Y-61991904D02*
X136215476Y-62230000D01*
X136120238Y-62468095D01*
X136405952Y-62087142D02*
X136215476Y-62230000D01*
X136405952Y-62372857D01*
%TO.C,D_J1850_1*%
X174768571Y-75779523D02*
X174816190Y-75922380D01*
X174863809Y-75970000D01*
X174959047Y-76017619D01*
X175101904Y-76017619D01*
X175197142Y-75970000D01*
X175244761Y-75922380D01*
X175292380Y-75827142D01*
X175292380Y-75446190D01*
X174292380Y-75446190D01*
X174292380Y-75779523D01*
X174340000Y-75874761D01*
X174387619Y-75922380D01*
X174482857Y-75970000D01*
X174578095Y-75970000D01*
X174673333Y-75922380D01*
X174720952Y-75874761D01*
X174768571Y-75779523D01*
X174768571Y-75446190D01*
X175006666Y-76398571D02*
X175006666Y-76874761D01*
X175292380Y-76303333D02*
X174292380Y-76636666D01*
X175292380Y-76970000D01*
X174292380Y-77160476D02*
X174292380Y-77731904D01*
X175292380Y-77446190D02*
X174292380Y-77446190D01*
X174625714Y-78493809D02*
X175292380Y-78493809D01*
X174244761Y-78255714D02*
X174959047Y-78017619D01*
X174959047Y-78636666D01*
X174292380Y-79446190D02*
X174292380Y-79255714D01*
X174340000Y-79160476D01*
X174387619Y-79112857D01*
X174530476Y-79017619D01*
X174720952Y-78970000D01*
X175101904Y-78970000D01*
X175197142Y-79017619D01*
X175244761Y-79065238D01*
X175292380Y-79160476D01*
X175292380Y-79350952D01*
X175244761Y-79446190D01*
X175197142Y-79493809D01*
X175101904Y-79541428D01*
X174863809Y-79541428D01*
X174768571Y-79493809D01*
X174720952Y-79446190D01*
X174673333Y-79350952D01*
X174673333Y-79160476D01*
X174720952Y-79065238D01*
X174768571Y-79017619D01*
X174863809Y-78970000D01*
X171372380Y-73398095D02*
X170372380Y-73398095D01*
X171372380Y-73969523D02*
X170800952Y-73540952D01*
X170372380Y-73969523D02*
X170943809Y-73398095D01*
D20*
X173081904Y-74741428D02*
X172281904Y-74741428D01*
X172281904Y-74931904D01*
X172320000Y-75046190D01*
X172396190Y-75122380D01*
X172472380Y-75160476D01*
X172624761Y-75198571D01*
X172739047Y-75198571D01*
X172891428Y-75160476D01*
X172967619Y-75122380D01*
X173043809Y-75046190D01*
X173081904Y-74931904D01*
X173081904Y-74741428D01*
X173158095Y-75350952D02*
X173158095Y-75960476D01*
X172281904Y-76379523D02*
X172853333Y-76379523D01*
X172967619Y-76341428D01*
X173043809Y-76265238D01*
X173081904Y-76150952D01*
X173081904Y-76074761D01*
X173081904Y-77179523D02*
X173081904Y-76722380D01*
X173081904Y-76950952D02*
X172281904Y-76950952D01*
X172396190Y-76874761D01*
X172472380Y-76798571D01*
X172510476Y-76722380D01*
X172624761Y-77636666D02*
X172586666Y-77560476D01*
X172548571Y-77522380D01*
X172472380Y-77484285D01*
X172434285Y-77484285D01*
X172358095Y-77522380D01*
X172320000Y-77560476D01*
X172281904Y-77636666D01*
X172281904Y-77789047D01*
X172320000Y-77865238D01*
X172358095Y-77903333D01*
X172434285Y-77941428D01*
X172472380Y-77941428D01*
X172548571Y-77903333D01*
X172586666Y-77865238D01*
X172624761Y-77789047D01*
X172624761Y-77636666D01*
X172662857Y-77560476D01*
X172700952Y-77522380D01*
X172777142Y-77484285D01*
X172929523Y-77484285D01*
X173005714Y-77522380D01*
X173043809Y-77560476D01*
X173081904Y-77636666D01*
X173081904Y-77789047D01*
X173043809Y-77865238D01*
X173005714Y-77903333D01*
X172929523Y-77941428D01*
X172777142Y-77941428D01*
X172700952Y-77903333D01*
X172662857Y-77865238D01*
X172624761Y-77789047D01*
X172281904Y-78665238D02*
X172281904Y-78284285D01*
X172662857Y-78246190D01*
X172624761Y-78284285D01*
X172586666Y-78360476D01*
X172586666Y-78550952D01*
X172624761Y-78627142D01*
X172662857Y-78665238D01*
X172739047Y-78703333D01*
X172929523Y-78703333D01*
X173005714Y-78665238D01*
X173043809Y-78627142D01*
X173081904Y-78550952D01*
X173081904Y-78360476D01*
X173043809Y-78284285D01*
X173005714Y-78246190D01*
X172281904Y-79198571D02*
X172281904Y-79274761D01*
X172320000Y-79350952D01*
X172358095Y-79389047D01*
X172434285Y-79427142D01*
X172586666Y-79465238D01*
X172777142Y-79465238D01*
X172929523Y-79427142D01*
X173005714Y-79389047D01*
X173043809Y-79350952D01*
X173081904Y-79274761D01*
X173081904Y-79198571D01*
X173043809Y-79122380D01*
X173005714Y-79084285D01*
X172929523Y-79046190D01*
X172777142Y-79008095D01*
X172586666Y-79008095D01*
X172434285Y-79046190D01*
X172358095Y-79084285D01*
X172320000Y-79122380D01*
X172281904Y-79198571D01*
X173158095Y-79617619D02*
X173158095Y-80227142D01*
X173081904Y-80836666D02*
X173081904Y-80379523D01*
X173081904Y-80608095D02*
X172281904Y-80608095D01*
X172396190Y-80531904D01*
X172472380Y-80455714D01*
X172510476Y-80379523D01*
%TO.C,C_VR1_in1*%
D11*
X146558000Y-127468380D02*
X146558000Y-127706476D01*
X146796095Y-127611238D02*
X146558000Y-127706476D01*
X146319904Y-127611238D01*
X146700857Y-127896952D02*
X146558000Y-127706476D01*
X146415142Y-127896952D01*
%TO.C,C_VR2_in1*%
X138176000Y-127468380D02*
X138176000Y-127706476D01*
X138414095Y-127611238D02*
X138176000Y-127706476D01*
X137937904Y-127611238D01*
X138318857Y-127896952D02*
X138176000Y-127706476D01*
X138033142Y-127896952D01*
%TO.C,C_VR1_BST1*%
D19*
X154998618Y-131376113D02*
X154953557Y-131376113D01*
X154908497Y-131398643D01*
X154885966Y-131421173D01*
X154863436Y-131466234D01*
X154840905Y-131556356D01*
X154840905Y-131669008D01*
X154863436Y-131759130D01*
X154885966Y-131804191D01*
X154908497Y-131826721D01*
X154953557Y-131849252D01*
X154998618Y-131849252D01*
X155043679Y-131826721D01*
X155066210Y-131804191D01*
X155088740Y-131759130D01*
X155111270Y-131669008D01*
X155111270Y-131556356D01*
X155088740Y-131466234D01*
X155066210Y-131421173D01*
X155043679Y-131398643D01*
X154998618Y-131376113D01*
X154638131Y-131804191D02*
X154615601Y-131826721D01*
X154638131Y-131849252D01*
X154660662Y-131826721D01*
X154638131Y-131804191D01*
X154638131Y-131849252D01*
X154164992Y-131849252D02*
X154435358Y-131849252D01*
X154300175Y-131849252D02*
X154300175Y-131376113D01*
X154345236Y-131443704D01*
X154390297Y-131488765D01*
X154435358Y-131511295D01*
X153759445Y-131533826D02*
X153759445Y-131849252D01*
X153962219Y-131533826D02*
X153962219Y-131781660D01*
X153939688Y-131826721D01*
X153894627Y-131849252D01*
X153827036Y-131849252D01*
X153781975Y-131826721D01*
X153759445Y-131804191D01*
X153376427Y-131601417D02*
X153534140Y-131601417D01*
X153534140Y-131849252D02*
X153534140Y-131376113D01*
X153308836Y-131376113D01*
%TO.C,Q_MSCAN_1*%
X114824433Y-129333286D02*
X113822968Y-129333286D01*
X114824433Y-129905552D01*
X113822968Y-129905552D01*
X113822968Y-130287062D02*
X114824433Y-130954706D01*
X113822968Y-130954706D02*
X114824433Y-130287062D01*
X113822968Y-131240838D02*
X113822968Y-131908482D01*
X114824433Y-131479282D01*
X113822968Y-132480747D02*
X113822968Y-132576125D01*
X113870657Y-132671503D01*
X113918346Y-132719192D01*
X114013723Y-132766880D01*
X114204479Y-132814569D01*
X114442923Y-132814569D01*
X114633678Y-132766880D01*
X114729056Y-132719192D01*
X114776744Y-132671503D01*
X114824433Y-132576125D01*
X114824433Y-132480747D01*
X114776744Y-132385370D01*
X114729056Y-132337681D01*
X114633678Y-132289992D01*
X114442923Y-132242303D01*
X114204479Y-132242303D01*
X114013723Y-132289992D01*
X113918346Y-132337681D01*
X113870657Y-132385370D01*
X113822968Y-132480747D01*
X113822968Y-133434524D02*
X113822968Y-133529901D01*
X113870657Y-133625279D01*
X113918346Y-133672968D01*
X114013723Y-133720657D01*
X114204479Y-133768345D01*
X114442923Y-133768345D01*
X114633678Y-133720657D01*
X114729056Y-133672968D01*
X114776744Y-133625279D01*
X114824433Y-133529901D01*
X114824433Y-133434524D01*
X114776744Y-133339146D01*
X114729056Y-133291457D01*
X114633678Y-133243768D01*
X114442923Y-133196080D01*
X114204479Y-133196080D01*
X114013723Y-133243768D01*
X113918346Y-133291457D01*
X113870657Y-133339146D01*
X113822968Y-133434524D01*
X113918346Y-134149856D02*
X113870657Y-134197545D01*
X113822968Y-134292922D01*
X113822968Y-134531366D01*
X113870657Y-134626744D01*
X113918346Y-134674433D01*
X114013723Y-134722122D01*
X114109101Y-134722122D01*
X114252167Y-134674433D01*
X114824433Y-134102167D01*
X114824433Y-134722122D01*
X114538300Y-135103632D02*
X114538300Y-135580520D01*
X114824433Y-135008254D02*
X113822968Y-135342076D01*
X114824433Y-135675898D01*
X114824433Y-136009719D02*
X113822968Y-136009719D01*
X114824433Y-136581985D02*
X114252167Y-136152786D01*
X113822968Y-136581985D02*
X114395234Y-136009719D01*
X114776744Y-137058873D02*
X114824433Y-137058873D01*
X114919811Y-137011184D01*
X114967500Y-136963496D01*
X113918346Y-137440384D02*
X113870657Y-137488072D01*
X113822968Y-137583450D01*
X113822968Y-137821894D01*
X113870657Y-137917272D01*
X113918346Y-137964961D01*
X114013723Y-138012649D01*
X114109101Y-138012649D01*
X114252167Y-137964961D01*
X114824433Y-137392695D01*
X114824433Y-138012649D01*
X114824433Y-138966426D02*
X114824433Y-138394160D01*
X114824433Y-138680293D02*
X113822968Y-138680293D01*
X113966035Y-138584915D01*
X114061412Y-138489537D01*
X114109101Y-138394160D01*
X113822968Y-139872513D02*
X113822968Y-139395625D01*
X114299856Y-139347936D01*
X114252167Y-139395625D01*
X114204479Y-139491002D01*
X114204479Y-139729447D01*
X114252167Y-139824824D01*
X114299856Y-139872513D01*
X114395234Y-139920202D01*
X114633678Y-139920202D01*
X114729056Y-139872513D01*
X114776744Y-139824824D01*
X114824433Y-139729447D01*
X114824433Y-139491002D01*
X114776744Y-139395625D01*
X114729056Y-139347936D01*
%TO.C,Q_J1850_2*%
X169717513Y-98806653D02*
X169717513Y-97805188D01*
X169145247Y-98806653D01*
X169145247Y-97805188D01*
X168763737Y-97805188D02*
X168096093Y-98806653D01*
X168096093Y-97805188D02*
X168763737Y-98806653D01*
X167809961Y-97805188D02*
X167142317Y-97805188D01*
X167571517Y-98806653D01*
X166570052Y-97805188D02*
X166474674Y-97805188D01*
X166379296Y-97852877D01*
X166331607Y-97900566D01*
X166283919Y-97995943D01*
X166236230Y-98186699D01*
X166236230Y-98425143D01*
X166283919Y-98615898D01*
X166331607Y-98711276D01*
X166379296Y-98758964D01*
X166474674Y-98806653D01*
X166570052Y-98806653D01*
X166665429Y-98758964D01*
X166713118Y-98711276D01*
X166760807Y-98615898D01*
X166808496Y-98425143D01*
X166808496Y-98186699D01*
X166760807Y-97995943D01*
X166713118Y-97900566D01*
X166665429Y-97852877D01*
X166570052Y-97805188D01*
X165616275Y-97805188D02*
X165520898Y-97805188D01*
X165425520Y-97852877D01*
X165377831Y-97900566D01*
X165330142Y-97995943D01*
X165282454Y-98186699D01*
X165282454Y-98425143D01*
X165330142Y-98615898D01*
X165377831Y-98711276D01*
X165425520Y-98758964D01*
X165520898Y-98806653D01*
X165616275Y-98806653D01*
X165711653Y-98758964D01*
X165759342Y-98711276D01*
X165807031Y-98615898D01*
X165854719Y-98425143D01*
X165854719Y-98186699D01*
X165807031Y-97995943D01*
X165759342Y-97900566D01*
X165711653Y-97852877D01*
X165616275Y-97805188D01*
X164900943Y-97900566D02*
X164853254Y-97852877D01*
X164757877Y-97805188D01*
X164519433Y-97805188D01*
X164424055Y-97852877D01*
X164376366Y-97900566D01*
X164328677Y-97995943D01*
X164328677Y-98091321D01*
X164376366Y-98234387D01*
X164948632Y-98806653D01*
X164328677Y-98806653D01*
X163947167Y-98520520D02*
X163470279Y-98520520D01*
X164042545Y-98806653D02*
X163708723Y-97805188D01*
X163374901Y-98806653D01*
X163041080Y-98806653D02*
X163041080Y-97805188D01*
X162468814Y-98806653D02*
X162898013Y-98234387D01*
X162468814Y-97805188D02*
X163041080Y-98377454D01*
X161991926Y-98758964D02*
X161991926Y-98806653D01*
X162039615Y-98902031D01*
X162087303Y-98949720D01*
X161610415Y-97900566D02*
X161562727Y-97852877D01*
X161467349Y-97805188D01*
X161228905Y-97805188D01*
X161133527Y-97852877D01*
X161085838Y-97900566D01*
X161038150Y-97995943D01*
X161038150Y-98091321D01*
X161085838Y-98234387D01*
X161658104Y-98806653D01*
X161038150Y-98806653D01*
X160084373Y-98806653D02*
X160656639Y-98806653D01*
X160370506Y-98806653D02*
X160370506Y-97805188D01*
X160465884Y-97948255D01*
X160561262Y-98043632D01*
X160656639Y-98091321D01*
X159178286Y-97805188D02*
X159655174Y-97805188D01*
X159702863Y-98282076D01*
X159655174Y-98234387D01*
X159559797Y-98186699D01*
X159321352Y-98186699D01*
X159225975Y-98234387D01*
X159178286Y-98282076D01*
X159130597Y-98377454D01*
X159130597Y-98615898D01*
X159178286Y-98711276D01*
X159225975Y-98758964D01*
X159321352Y-98806653D01*
X159559797Y-98806653D01*
X159655174Y-98758964D01*
X159702863Y-98711276D01*
%TO.C,R_COMP_1*%
X158894102Y-78235654D02*
X158894102Y-78010682D01*
X158894102Y-78123168D02*
X158500401Y-78123168D01*
X158556644Y-78085672D01*
X158594140Y-78048177D01*
X158612887Y-78010682D01*
X158500401Y-78479373D02*
X158500401Y-78516869D01*
X158519149Y-78554364D01*
X158537897Y-78573112D01*
X158575392Y-78591859D01*
X158650383Y-78610607D01*
X158744121Y-78610607D01*
X158819112Y-78591859D01*
X158856607Y-78573112D01*
X158875355Y-78554364D01*
X158894102Y-78516869D01*
X158894102Y-78479373D01*
X158875355Y-78441878D01*
X158856607Y-78423130D01*
X158819112Y-78404383D01*
X158744121Y-78385635D01*
X158650383Y-78385635D01*
X158575392Y-78404383D01*
X158537897Y-78423130D01*
X158519149Y-78441878D01*
X158500401Y-78479373D01*
X158894102Y-78779336D02*
X158500401Y-78779336D01*
X158744121Y-78816831D02*
X158894102Y-78929317D01*
X158631635Y-78929317D02*
X158781616Y-78779336D01*
%TO.C,R_COMP_3*%
X158454102Y-81315654D02*
X158454102Y-81090682D01*
X158454102Y-81203168D02*
X158060401Y-81203168D01*
X158116644Y-81165672D01*
X158154140Y-81128177D01*
X158172887Y-81090682D01*
X158060401Y-81559373D02*
X158060401Y-81596869D01*
X158079149Y-81634364D01*
X158097897Y-81653112D01*
X158135392Y-81671859D01*
X158210383Y-81690607D01*
X158304121Y-81690607D01*
X158379112Y-81671859D01*
X158416607Y-81653112D01*
X158435355Y-81634364D01*
X158454102Y-81596869D01*
X158454102Y-81559373D01*
X158435355Y-81521878D01*
X158416607Y-81503130D01*
X158379112Y-81484383D01*
X158304121Y-81465635D01*
X158210383Y-81465635D01*
X158135392Y-81484383D01*
X158097897Y-81503130D01*
X158079149Y-81521878D01*
X158060401Y-81559373D01*
X158454102Y-81859336D02*
X158060401Y-81859336D01*
X158304121Y-81896831D02*
X158454102Y-82009317D01*
X158191635Y-82009317D02*
X158341616Y-81859336D01*
%TO.C,R_COMP_4*%
X151274102Y-78108654D02*
X151274102Y-77883682D01*
X151274102Y-77996168D02*
X150880401Y-77996168D01*
X150936644Y-77958672D01*
X150974140Y-77921177D01*
X150992887Y-77883682D01*
X150880401Y-78352373D02*
X150880401Y-78389869D01*
X150899149Y-78427364D01*
X150917897Y-78446112D01*
X150955392Y-78464859D01*
X151030383Y-78483607D01*
X151124121Y-78483607D01*
X151199112Y-78464859D01*
X151236607Y-78446112D01*
X151255355Y-78427364D01*
X151274102Y-78389869D01*
X151274102Y-78352373D01*
X151255355Y-78314878D01*
X151236607Y-78296130D01*
X151199112Y-78277383D01*
X151124121Y-78258635D01*
X151030383Y-78258635D01*
X150955392Y-78277383D01*
X150917897Y-78296130D01*
X150899149Y-78314878D01*
X150880401Y-78352373D01*
X151274102Y-78652336D02*
X150880401Y-78652336D01*
X151124121Y-78689831D02*
X151274102Y-78802317D01*
X151011635Y-78802317D02*
X151161616Y-78652336D01*
%TO.C,R_COMP_10*%
X149279345Y-72788102D02*
X149504317Y-72788102D01*
X149391831Y-72788102D02*
X149391831Y-72394401D01*
X149429327Y-72450644D01*
X149466822Y-72488140D01*
X149504317Y-72506887D01*
X149035626Y-72394401D02*
X148998130Y-72394401D01*
X148960635Y-72413149D01*
X148941887Y-72431897D01*
X148923140Y-72469392D01*
X148904392Y-72544383D01*
X148904392Y-72638121D01*
X148923140Y-72713112D01*
X148941887Y-72750607D01*
X148960635Y-72769355D01*
X148998130Y-72788102D01*
X149035626Y-72788102D01*
X149073121Y-72769355D01*
X149091869Y-72750607D01*
X149110616Y-72713112D01*
X149129364Y-72638121D01*
X149129364Y-72544383D01*
X149110616Y-72469392D01*
X149091869Y-72431897D01*
X149073121Y-72413149D01*
X149035626Y-72394401D01*
X148735663Y-72788102D02*
X148735663Y-72394401D01*
X148698168Y-72638121D02*
X148585682Y-72788102D01*
X148585682Y-72525635D02*
X148735663Y-72675616D01*
%TO.C,R_COMP_7*%
X150868056Y-59096897D02*
X150849308Y-59078149D01*
X150811813Y-59059401D01*
X150718074Y-59059401D01*
X150680579Y-59078149D01*
X150661831Y-59096897D01*
X150643084Y-59134392D01*
X150643084Y-59171887D01*
X150661831Y-59228130D01*
X150886803Y-59453102D01*
X150643084Y-59453102D01*
X150474355Y-59415607D02*
X150455607Y-59434355D01*
X150474355Y-59453102D01*
X150493102Y-59434355D01*
X150474355Y-59415607D01*
X150474355Y-59453102D01*
X150324373Y-59059401D02*
X150061906Y-59059401D01*
X150230635Y-59453102D01*
X149911925Y-59453102D02*
X149911925Y-59059401D01*
X149874429Y-59303121D02*
X149761943Y-59453102D01*
X149761943Y-59190635D02*
X149911925Y-59340616D01*
%TO.C,R_SWCAN_2*%
X141047897Y-64022467D02*
X141047897Y-64247439D01*
X141047897Y-64134953D02*
X141441598Y-64134953D01*
X141385355Y-64172448D01*
X141347859Y-64209944D01*
X141329112Y-64247439D01*
X141441598Y-63891233D02*
X141441598Y-63647514D01*
X141291616Y-63778747D01*
X141291616Y-63722504D01*
X141272869Y-63685009D01*
X141254121Y-63666261D01*
X141216626Y-63647514D01*
X141122887Y-63647514D01*
X141085392Y-63666261D01*
X141066644Y-63685009D01*
X141047897Y-63722504D01*
X141047897Y-63834990D01*
X141066644Y-63872486D01*
X141085392Y-63891233D01*
X141441598Y-63403794D02*
X141441598Y-63366299D01*
X141422850Y-63328803D01*
X141404102Y-63310056D01*
X141366607Y-63291308D01*
X141291616Y-63272560D01*
X141197878Y-63272560D01*
X141122887Y-63291308D01*
X141085392Y-63310056D01*
X141066644Y-63328803D01*
X141047897Y-63366299D01*
X141047897Y-63403794D01*
X141066644Y-63441289D01*
X141085392Y-63460037D01*
X141122887Y-63478785D01*
X141197878Y-63497532D01*
X141291616Y-63497532D01*
X141366607Y-63478785D01*
X141404102Y-63460037D01*
X141422850Y-63441289D01*
X141441598Y-63403794D01*
%TO.C,R_J1850_6*%
X159683439Y-96501897D02*
X159664691Y-96483149D01*
X159627196Y-96464401D01*
X159533458Y-96464401D01*
X159495962Y-96483149D01*
X159477215Y-96501897D01*
X159458467Y-96539392D01*
X159458467Y-96576887D01*
X159477215Y-96633130D01*
X159702187Y-96858102D01*
X159458467Y-96858102D01*
X159121009Y-96595635D02*
X159121009Y-96858102D01*
X159214747Y-96445654D02*
X159308486Y-96726869D01*
X159064766Y-96726869D01*
X158839794Y-96464401D02*
X158802299Y-96464401D01*
X158764803Y-96483149D01*
X158746056Y-96501897D01*
X158727308Y-96539392D01*
X158708560Y-96614383D01*
X158708560Y-96708121D01*
X158727308Y-96783112D01*
X158746056Y-96820607D01*
X158764803Y-96839355D01*
X158802299Y-96858102D01*
X158839794Y-96858102D01*
X158877289Y-96839355D01*
X158896037Y-96820607D01*
X158914785Y-96783112D01*
X158933532Y-96708121D01*
X158933532Y-96614383D01*
X158914785Y-96539392D01*
X158896037Y-96501897D01*
X158877289Y-96483149D01*
X158839794Y-96464401D01*
%TO.C,R_STN_5*%
X128961822Y-90568102D02*
X129186794Y-90568102D01*
X129074308Y-90568102D02*
X129074308Y-90174401D01*
X129111803Y-90230644D01*
X129149299Y-90268140D01*
X129186794Y-90286887D01*
X128718102Y-90174401D02*
X128680607Y-90174401D01*
X128643112Y-90193149D01*
X128624364Y-90211897D01*
X128605616Y-90249392D01*
X128586869Y-90324383D01*
X128586869Y-90418121D01*
X128605616Y-90493112D01*
X128624364Y-90530607D01*
X128643112Y-90549355D01*
X128680607Y-90568102D01*
X128718102Y-90568102D01*
X128755598Y-90549355D01*
X128774345Y-90530607D01*
X128793093Y-90493112D01*
X128811841Y-90418121D01*
X128811841Y-90324383D01*
X128793093Y-90249392D01*
X128774345Y-90211897D01*
X128755598Y-90193149D01*
X128718102Y-90174401D01*
X128343149Y-90174401D02*
X128305654Y-90174401D01*
X128268158Y-90193149D01*
X128249411Y-90211897D01*
X128230663Y-90249392D01*
X128211915Y-90324383D01*
X128211915Y-90418121D01*
X128230663Y-90493112D01*
X128249411Y-90530607D01*
X128268158Y-90549355D01*
X128305654Y-90568102D01*
X128343149Y-90568102D01*
X128380644Y-90549355D01*
X128399392Y-90530607D01*
X128418140Y-90493112D01*
X128436887Y-90418121D01*
X128436887Y-90324383D01*
X128418140Y-90249392D01*
X128399392Y-90211897D01*
X128380644Y-90193149D01*
X128343149Y-90174401D01*
X128043186Y-90568102D02*
X128043186Y-90174401D01*
X128005691Y-90418121D02*
X127893205Y-90568102D01*
X127893205Y-90305635D02*
X128043186Y-90455616D01*
%TO.C,R_COMP_5*%
X162683345Y-73042102D02*
X162908317Y-73042102D01*
X162795831Y-73042102D02*
X162795831Y-72648401D01*
X162833327Y-72704644D01*
X162870822Y-72742140D01*
X162908317Y-72760887D01*
X162439626Y-72648401D02*
X162402130Y-72648401D01*
X162364635Y-72667149D01*
X162345887Y-72685897D01*
X162327140Y-72723392D01*
X162308392Y-72798383D01*
X162308392Y-72892121D01*
X162327140Y-72967112D01*
X162345887Y-73004607D01*
X162364635Y-73023355D01*
X162402130Y-73042102D01*
X162439626Y-73042102D01*
X162477121Y-73023355D01*
X162495869Y-73004607D01*
X162514616Y-72967112D01*
X162533364Y-72892121D01*
X162533364Y-72798383D01*
X162514616Y-72723392D01*
X162495869Y-72685897D01*
X162477121Y-72667149D01*
X162439626Y-72648401D01*
X162139663Y-73042102D02*
X162139663Y-72648401D01*
X162102168Y-72892121D02*
X161989682Y-73042102D01*
X161989682Y-72779635D02*
X162139663Y-72929616D01*
%TO.C,R_STN_2*%
X112763487Y-114130101D02*
X112519767Y-114130101D01*
X112651001Y-114280083D01*
X112594758Y-114280083D01*
X112557262Y-114298830D01*
X112538515Y-114317578D01*
X112519767Y-114355073D01*
X112519767Y-114448812D01*
X112538515Y-114486307D01*
X112557262Y-114505055D01*
X112594758Y-114523802D01*
X112707244Y-114523802D01*
X112744739Y-114505055D01*
X112763487Y-114486307D01*
X112388533Y-114130101D02*
X112144814Y-114130101D01*
X112276047Y-114280083D01*
X112219804Y-114280083D01*
X112182309Y-114298830D01*
X112163561Y-114317578D01*
X112144814Y-114355073D01*
X112144814Y-114448812D01*
X112163561Y-114486307D01*
X112182309Y-114505055D01*
X112219804Y-114523802D01*
X112332290Y-114523802D01*
X112369786Y-114505055D01*
X112388533Y-114486307D01*
X111901094Y-114130101D02*
X111863599Y-114130101D01*
X111826103Y-114148849D01*
X111807356Y-114167597D01*
X111788608Y-114205092D01*
X111769860Y-114280083D01*
X111769860Y-114373821D01*
X111788608Y-114448812D01*
X111807356Y-114486307D01*
X111826103Y-114505055D01*
X111863599Y-114523802D01*
X111901094Y-114523802D01*
X111938589Y-114505055D01*
X111957337Y-114486307D01*
X111976085Y-114448812D01*
X111994832Y-114373821D01*
X111994832Y-114280083D01*
X111976085Y-114205092D01*
X111957337Y-114167597D01*
X111938589Y-114148849D01*
X111901094Y-114130101D01*
%TO.C,R_STN_7*%
X126933102Y-86985009D02*
X126933102Y-86760037D01*
X126933102Y-86872523D02*
X126539401Y-86872523D01*
X126595644Y-86835028D01*
X126633140Y-86797532D01*
X126651887Y-86760037D01*
X126539401Y-87228729D02*
X126539401Y-87266224D01*
X126558149Y-87303719D01*
X126576897Y-87322467D01*
X126614392Y-87341215D01*
X126689383Y-87359962D01*
X126783121Y-87359962D01*
X126858112Y-87341215D01*
X126895607Y-87322467D01*
X126914355Y-87303719D01*
X126933102Y-87266224D01*
X126933102Y-87228729D01*
X126914355Y-87191233D01*
X126895607Y-87172486D01*
X126858112Y-87153738D01*
X126783121Y-87134990D01*
X126689383Y-87134990D01*
X126614392Y-87153738D01*
X126576897Y-87172486D01*
X126558149Y-87191233D01*
X126539401Y-87228729D01*
%TO.C,R_MSCAN_1*%
X118624022Y-127880702D02*
X118848994Y-127880702D01*
X118736508Y-127880702D02*
X118736508Y-127487001D01*
X118774003Y-127543244D01*
X118811499Y-127580740D01*
X118848994Y-127599487D01*
X118380302Y-127487001D02*
X118342807Y-127487001D01*
X118305312Y-127505749D01*
X118286564Y-127524497D01*
X118267816Y-127561992D01*
X118249069Y-127636983D01*
X118249069Y-127730721D01*
X118267816Y-127805712D01*
X118286564Y-127843207D01*
X118305312Y-127861955D01*
X118342807Y-127880702D01*
X118380302Y-127880702D01*
X118417798Y-127861955D01*
X118436545Y-127843207D01*
X118455293Y-127805712D01*
X118474041Y-127730721D01*
X118474041Y-127636983D01*
X118455293Y-127561992D01*
X118436545Y-127524497D01*
X118417798Y-127505749D01*
X118380302Y-127487001D01*
X118005349Y-127487001D02*
X117967854Y-127487001D01*
X117930358Y-127505749D01*
X117911611Y-127524497D01*
X117892863Y-127561992D01*
X117874115Y-127636983D01*
X117874115Y-127730721D01*
X117892863Y-127805712D01*
X117911611Y-127843207D01*
X117930358Y-127861955D01*
X117967854Y-127880702D01*
X118005349Y-127880702D01*
X118042844Y-127861955D01*
X118061592Y-127843207D01*
X118080340Y-127805712D01*
X118099087Y-127730721D01*
X118099087Y-127636983D01*
X118080340Y-127561992D01*
X118061592Y-127524497D01*
X118042844Y-127505749D01*
X118005349Y-127487001D01*
X117705386Y-127880702D02*
X117705386Y-127487001D01*
X117667891Y-127730721D02*
X117555405Y-127880702D01*
X117555405Y-127618235D02*
X117705386Y-127768216D01*
%TO.C,R_COMP_9*%
X169249102Y-81188654D02*
X169249102Y-80963682D01*
X169249102Y-81076168D02*
X168855401Y-81076168D01*
X168911644Y-81038672D01*
X168949140Y-81001177D01*
X168967887Y-80963682D01*
X168855401Y-81432373D02*
X168855401Y-81469869D01*
X168874149Y-81507364D01*
X168892897Y-81526112D01*
X168930392Y-81544859D01*
X169005383Y-81563607D01*
X169099121Y-81563607D01*
X169174112Y-81544859D01*
X169211607Y-81526112D01*
X169230355Y-81507364D01*
X169249102Y-81469869D01*
X169249102Y-81432373D01*
X169230355Y-81394878D01*
X169211607Y-81376130D01*
X169174112Y-81357383D01*
X169099121Y-81338635D01*
X169005383Y-81338635D01*
X168930392Y-81357383D01*
X168892897Y-81376130D01*
X168874149Y-81394878D01*
X168855401Y-81432373D01*
X169249102Y-81732336D02*
X168855401Y-81732336D01*
X169099121Y-81769831D02*
X169249102Y-81882317D01*
X168986635Y-81882317D02*
X169136616Y-81732336D01*
%TO.C,R_COMP_6*%
X166328102Y-81246654D02*
X166328102Y-81021682D01*
X166328102Y-81134168D02*
X165934401Y-81134168D01*
X165990644Y-81096672D01*
X166028140Y-81059177D01*
X166046887Y-81021682D01*
X165934401Y-81490373D02*
X165934401Y-81527869D01*
X165953149Y-81565364D01*
X165971897Y-81584112D01*
X166009392Y-81602859D01*
X166084383Y-81621607D01*
X166178121Y-81621607D01*
X166253112Y-81602859D01*
X166290607Y-81584112D01*
X166309355Y-81565364D01*
X166328102Y-81527869D01*
X166328102Y-81490373D01*
X166309355Y-81452878D01*
X166290607Y-81434130D01*
X166253112Y-81415383D01*
X166178121Y-81396635D01*
X166084383Y-81396635D01*
X166009392Y-81415383D01*
X165971897Y-81434130D01*
X165953149Y-81452878D01*
X165934401Y-81490373D01*
X166328102Y-81790336D02*
X165934401Y-81790336D01*
X166178121Y-81827831D02*
X166328102Y-81940317D01*
X166065635Y-81940317D02*
X166215616Y-81790336D01*
%TO.C,R_PSW_1*%
X146008102Y-114198977D02*
X146008102Y-113974005D01*
X146008102Y-114086491D02*
X145614401Y-114086491D01*
X145670644Y-114048996D01*
X145708140Y-114011500D01*
X145726887Y-113974005D01*
X145614401Y-114442697D02*
X145614401Y-114480192D01*
X145633149Y-114517687D01*
X145651897Y-114536435D01*
X145689392Y-114555183D01*
X145764383Y-114573930D01*
X145858121Y-114573930D01*
X145933112Y-114555183D01*
X145970607Y-114536435D01*
X145989355Y-114517687D01*
X146008102Y-114480192D01*
X146008102Y-114442697D01*
X145989355Y-114405201D01*
X145970607Y-114386454D01*
X145933112Y-114367706D01*
X145858121Y-114348958D01*
X145764383Y-114348958D01*
X145689392Y-114367706D01*
X145651897Y-114386454D01*
X145633149Y-114405201D01*
X145614401Y-114442697D01*
X145614401Y-114817650D02*
X145614401Y-114855145D01*
X145633149Y-114892641D01*
X145651897Y-114911388D01*
X145689392Y-114930136D01*
X145764383Y-114948884D01*
X145858121Y-114948884D01*
X145933112Y-114930136D01*
X145970607Y-114911388D01*
X145989355Y-114892641D01*
X146008102Y-114855145D01*
X146008102Y-114817650D01*
X145989355Y-114780155D01*
X145970607Y-114761407D01*
X145933112Y-114742659D01*
X145858121Y-114723912D01*
X145764383Y-114723912D01*
X145689392Y-114742659D01*
X145651897Y-114761407D01*
X145633149Y-114780155D01*
X145614401Y-114817650D01*
X146008102Y-115117613D02*
X145614401Y-115117613D01*
X145858121Y-115155108D02*
X146008102Y-115267594D01*
X145745635Y-115267594D02*
X145895616Y-115117613D01*
%TO.C,R_J1850_3*%
X161192448Y-90661630D02*
X161229944Y-90642883D01*
X161248691Y-90624135D01*
X161267439Y-90586640D01*
X161267439Y-90567892D01*
X161248691Y-90530397D01*
X161229944Y-90511649D01*
X161192448Y-90492901D01*
X161117458Y-90492901D01*
X161079962Y-90511649D01*
X161061215Y-90530397D01*
X161042467Y-90567892D01*
X161042467Y-90586640D01*
X161061215Y-90624135D01*
X161079962Y-90642883D01*
X161117458Y-90661630D01*
X161192448Y-90661630D01*
X161229944Y-90680378D01*
X161248691Y-90699126D01*
X161267439Y-90736621D01*
X161267439Y-90811612D01*
X161248691Y-90849107D01*
X161229944Y-90867855D01*
X161192448Y-90886602D01*
X161117458Y-90886602D01*
X161079962Y-90867855D01*
X161061215Y-90849107D01*
X161042467Y-90811612D01*
X161042467Y-90736621D01*
X161061215Y-90699126D01*
X161079962Y-90680378D01*
X161117458Y-90661630D01*
X160705009Y-90492901D02*
X160780000Y-90492901D01*
X160817495Y-90511649D01*
X160836243Y-90530397D01*
X160873738Y-90586640D01*
X160892486Y-90661630D01*
X160892486Y-90811612D01*
X160873738Y-90849107D01*
X160854990Y-90867855D01*
X160817495Y-90886602D01*
X160742504Y-90886602D01*
X160705009Y-90867855D01*
X160686261Y-90849107D01*
X160667514Y-90811612D01*
X160667514Y-90717873D01*
X160686261Y-90680378D01*
X160705009Y-90661630D01*
X160742504Y-90642883D01*
X160817495Y-90642883D01*
X160854990Y-90661630D01*
X160873738Y-90680378D01*
X160892486Y-90717873D01*
X160330056Y-90492901D02*
X160405046Y-90492901D01*
X160442542Y-90511649D01*
X160461289Y-90530397D01*
X160498785Y-90586640D01*
X160517532Y-90661630D01*
X160517532Y-90811612D01*
X160498785Y-90849107D01*
X160480037Y-90867855D01*
X160442542Y-90886602D01*
X160367551Y-90886602D01*
X160330056Y-90867855D01*
X160311308Y-90849107D01*
X160292560Y-90811612D01*
X160292560Y-90717873D01*
X160311308Y-90680378D01*
X160330056Y-90661630D01*
X160367551Y-90642883D01*
X160442542Y-90642883D01*
X160480037Y-90661630D01*
X160498785Y-90680378D01*
X160517532Y-90717873D01*
%TO.C,R_ISO_4*%
X169329401Y-146634541D02*
X169329401Y-146447065D01*
X169516878Y-146428317D01*
X169498130Y-146447065D01*
X169479383Y-146484560D01*
X169479383Y-146578298D01*
X169498130Y-146615794D01*
X169516878Y-146634541D01*
X169554373Y-146653289D01*
X169648112Y-146653289D01*
X169685607Y-146634541D01*
X169704355Y-146615794D01*
X169723102Y-146578298D01*
X169723102Y-146484560D01*
X169704355Y-146447065D01*
X169685607Y-146428317D01*
X169723102Y-147028242D02*
X169723102Y-146803270D01*
X169723102Y-146915756D02*
X169329401Y-146915756D01*
X169385644Y-146878261D01*
X169423140Y-146840766D01*
X169441887Y-146803270D01*
X169329401Y-147271962D02*
X169329401Y-147309457D01*
X169348149Y-147346953D01*
X169366897Y-147365700D01*
X169404392Y-147384448D01*
X169479383Y-147403196D01*
X169573121Y-147403196D01*
X169648112Y-147384448D01*
X169685607Y-147365700D01*
X169704355Y-147346953D01*
X169723102Y-147309457D01*
X169723102Y-147271962D01*
X169704355Y-147234467D01*
X169685607Y-147215719D01*
X169648112Y-147196971D01*
X169573121Y-147178224D01*
X169479383Y-147178224D01*
X169404392Y-147196971D01*
X169366897Y-147215719D01*
X169348149Y-147234467D01*
X169329401Y-147271962D01*
X169723102Y-147571925D02*
X169329401Y-147571925D01*
X169573121Y-147609420D02*
X169723102Y-147721906D01*
X169460635Y-147721906D02*
X169610616Y-147571925D01*
X169310654Y-148171850D02*
X169816841Y-147834392D01*
X169329401Y-148378074D02*
X169329401Y-148415570D01*
X169348149Y-148453065D01*
X169366897Y-148471813D01*
X169404392Y-148490560D01*
X169479383Y-148509308D01*
X169573121Y-148509308D01*
X169648112Y-148490560D01*
X169685607Y-148471813D01*
X169704355Y-148453065D01*
X169723102Y-148415570D01*
X169723102Y-148378074D01*
X169704355Y-148340579D01*
X169685607Y-148321831D01*
X169648112Y-148303084D01*
X169573121Y-148284336D01*
X169479383Y-148284336D01*
X169404392Y-148303084D01*
X169366897Y-148321831D01*
X169348149Y-148340579D01*
X169329401Y-148378074D01*
X169685607Y-148678037D02*
X169704355Y-148696785D01*
X169723102Y-148678037D01*
X169704355Y-148659289D01*
X169685607Y-148678037D01*
X169723102Y-148678037D01*
X169329401Y-149052990D02*
X169329401Y-148865514D01*
X169516878Y-148846766D01*
X169498130Y-148865514D01*
X169479383Y-148903009D01*
X169479383Y-148996747D01*
X169498130Y-149034243D01*
X169516878Y-149052990D01*
X169554373Y-149071738D01*
X169648112Y-149071738D01*
X169685607Y-149052990D01*
X169704355Y-149034243D01*
X169723102Y-148996747D01*
X169723102Y-148903009D01*
X169704355Y-148865514D01*
X169685607Y-148846766D01*
X169329401Y-149202972D02*
X169723102Y-149296710D01*
X169441887Y-149371701D01*
X169723102Y-149446691D01*
X169329401Y-149540430D01*
%TO.C,Q_J1850_4*%
X164354433Y-86788286D02*
X163352968Y-86788286D01*
X164354433Y-87360552D01*
X163352968Y-87360552D01*
X163352968Y-87742062D02*
X164354433Y-88409706D01*
X163352968Y-88409706D02*
X164354433Y-87742062D01*
X163352968Y-88695838D02*
X163352968Y-89363482D01*
X164354433Y-88934282D01*
X163352968Y-89935747D02*
X163352968Y-90031125D01*
X163400657Y-90126503D01*
X163448346Y-90174192D01*
X163543723Y-90221880D01*
X163734479Y-90269569D01*
X163972923Y-90269569D01*
X164163678Y-90221880D01*
X164259056Y-90174192D01*
X164306744Y-90126503D01*
X164354433Y-90031125D01*
X164354433Y-89935747D01*
X164306744Y-89840370D01*
X164259056Y-89792681D01*
X164163678Y-89744992D01*
X163972923Y-89697303D01*
X163734479Y-89697303D01*
X163543723Y-89744992D01*
X163448346Y-89792681D01*
X163400657Y-89840370D01*
X163352968Y-89935747D01*
X163352968Y-90889524D02*
X163352968Y-90984901D01*
X163400657Y-91080279D01*
X163448346Y-91127968D01*
X163543723Y-91175657D01*
X163734479Y-91223345D01*
X163972923Y-91223345D01*
X164163678Y-91175657D01*
X164259056Y-91127968D01*
X164306744Y-91080279D01*
X164354433Y-90984901D01*
X164354433Y-90889524D01*
X164306744Y-90794146D01*
X164259056Y-90746457D01*
X164163678Y-90698768D01*
X163972923Y-90651080D01*
X163734479Y-90651080D01*
X163543723Y-90698768D01*
X163448346Y-90746457D01*
X163400657Y-90794146D01*
X163352968Y-90889524D01*
X163448346Y-91604856D02*
X163400657Y-91652545D01*
X163352968Y-91747922D01*
X163352968Y-91986366D01*
X163400657Y-92081744D01*
X163448346Y-92129433D01*
X163543723Y-92177122D01*
X163639101Y-92177122D01*
X163782167Y-92129433D01*
X164354433Y-91557167D01*
X164354433Y-92177122D01*
X164068300Y-92558632D02*
X164068300Y-93035520D01*
X164354433Y-92463254D02*
X163352968Y-92797076D01*
X164354433Y-93130898D01*
X164354433Y-93464719D02*
X163352968Y-93464719D01*
X164354433Y-94036985D02*
X163782167Y-93607786D01*
X163352968Y-94036985D02*
X163925234Y-93464719D01*
X164306744Y-94513873D02*
X164354433Y-94513873D01*
X164449811Y-94466184D01*
X164497500Y-94418496D01*
X163448346Y-94895384D02*
X163400657Y-94943072D01*
X163352968Y-95038450D01*
X163352968Y-95276894D01*
X163400657Y-95372272D01*
X163448346Y-95419961D01*
X163543723Y-95467649D01*
X163639101Y-95467649D01*
X163782167Y-95419961D01*
X164354433Y-94847695D01*
X164354433Y-95467649D01*
X164354433Y-96421426D02*
X164354433Y-95849160D01*
X164354433Y-96135293D02*
X163352968Y-96135293D01*
X163496035Y-96039915D01*
X163591412Y-95944537D01*
X163639101Y-95849160D01*
X163352968Y-97327513D02*
X163352968Y-96850625D01*
X163829856Y-96802936D01*
X163782167Y-96850625D01*
X163734479Y-96946002D01*
X163734479Y-97184447D01*
X163782167Y-97279824D01*
X163829856Y-97327513D01*
X163925234Y-97375202D01*
X164163678Y-97375202D01*
X164259056Y-97327513D01*
X164306744Y-97279824D01*
X164354433Y-97184447D01*
X164354433Y-96946002D01*
X164306744Y-96850625D01*
X164259056Y-96802936D01*
%TO.C,R_J1850_7*%
X159686745Y-104275902D02*
X159911717Y-104275902D01*
X159799231Y-104275902D02*
X159799231Y-103882201D01*
X159836727Y-103938444D01*
X159874222Y-103975940D01*
X159911717Y-103994687D01*
X159443026Y-103882201D02*
X159405530Y-103882201D01*
X159368035Y-103900949D01*
X159349287Y-103919697D01*
X159330540Y-103957192D01*
X159311792Y-104032183D01*
X159311792Y-104125921D01*
X159330540Y-104200912D01*
X159349287Y-104238407D01*
X159368035Y-104257155D01*
X159405530Y-104275902D01*
X159443026Y-104275902D01*
X159480521Y-104257155D01*
X159499269Y-104238407D01*
X159518016Y-104200912D01*
X159536764Y-104125921D01*
X159536764Y-104032183D01*
X159518016Y-103957192D01*
X159499269Y-103919697D01*
X159480521Y-103900949D01*
X159443026Y-103882201D01*
X159143063Y-104275902D02*
X159143063Y-103882201D01*
X159105568Y-104125921D02*
X158993082Y-104275902D01*
X158993082Y-104013435D02*
X159143063Y-104163416D01*
%TO.C,D_ESD_5*%
X157098342Y-148287657D02*
X156618342Y-148287657D01*
X156961200Y-148447657D01*
X156618342Y-148607657D01*
X157098342Y-148607657D01*
X157098342Y-148836228D02*
X156618342Y-148836228D01*
X156961200Y-148996228D01*
X156618342Y-149156228D01*
X157098342Y-149156228D01*
X156846914Y-149544800D02*
X156869771Y-149613371D01*
X156892628Y-149636228D01*
X156938342Y-149659085D01*
X157006914Y-149659085D01*
X157052628Y-149636228D01*
X157075485Y-149613371D01*
X157098342Y-149567657D01*
X157098342Y-149384800D01*
X156618342Y-149384800D01*
X156618342Y-149544800D01*
X156641200Y-149590514D01*
X156664057Y-149613371D01*
X156709771Y-149636228D01*
X156755485Y-149636228D01*
X156801200Y-149613371D01*
X156824057Y-149590514D01*
X156846914Y-149544800D01*
X156846914Y-149384800D01*
X156618342Y-149819085D02*
X156618342Y-150139085D01*
X157098342Y-149819085D01*
X157098342Y-150139085D01*
X156664057Y-150299085D02*
X156641200Y-150321942D01*
X156618342Y-150367657D01*
X156618342Y-150481942D01*
X156641200Y-150527657D01*
X156664057Y-150550514D01*
X156709771Y-150573371D01*
X156755485Y-150573371D01*
X156824057Y-150550514D01*
X157098342Y-150276228D01*
X157098342Y-150573371D01*
X156618342Y-150733371D02*
X156618342Y-151053371D01*
X157098342Y-150847657D01*
X156618342Y-151167657D02*
X157098342Y-151327657D01*
X156618342Y-151487657D01*
X156961200Y-151624800D02*
X156961200Y-151853371D01*
X157098342Y-151579085D02*
X156618342Y-151739085D01*
X157098342Y-151899085D01*
X157098342Y-152287657D02*
X157098342Y-152059085D01*
X156618342Y-152059085D01*
X156618342Y-152379085D02*
X156618342Y-152653371D01*
X157098342Y-152516228D02*
X156618342Y-152516228D01*
X156618342Y-152767657D02*
X156618342Y-153064800D01*
X156801200Y-152904800D01*
X156801200Y-152973371D01*
X156824057Y-153019085D01*
X156846914Y-153041942D01*
X156892628Y-153064800D01*
X157006914Y-153064800D01*
X157052628Y-153041942D01*
X157075485Y-153019085D01*
X157098342Y-152973371D01*
X157098342Y-152836228D01*
X157075485Y-152790514D01*
X157052628Y-152767657D01*
X156641200Y-153521942D02*
X156618342Y-153476228D01*
X156618342Y-153407657D01*
X156641200Y-153339085D01*
X156686914Y-153293371D01*
X156732628Y-153270514D01*
X156824057Y-153247657D01*
X156892628Y-153247657D01*
X156984057Y-153270514D01*
X157029771Y-153293371D01*
X157075485Y-153339085D01*
X157098342Y-153407657D01*
X157098342Y-153453371D01*
X157075485Y-153521942D01*
X157052628Y-153544800D01*
X156892628Y-153544800D01*
X156892628Y-153453371D01*
%TO.C,D_ESD_4*%
X146557342Y-139524657D02*
X146077342Y-139524657D01*
X146420200Y-139684657D01*
X146077342Y-139844657D01*
X146557342Y-139844657D01*
X146557342Y-140073228D02*
X146077342Y-140073228D01*
X146420200Y-140233228D01*
X146077342Y-140393228D01*
X146557342Y-140393228D01*
X146305914Y-140781800D02*
X146328771Y-140850371D01*
X146351628Y-140873228D01*
X146397342Y-140896085D01*
X146465914Y-140896085D01*
X146511628Y-140873228D01*
X146534485Y-140850371D01*
X146557342Y-140804657D01*
X146557342Y-140621800D01*
X146077342Y-140621800D01*
X146077342Y-140781800D01*
X146100200Y-140827514D01*
X146123057Y-140850371D01*
X146168771Y-140873228D01*
X146214485Y-140873228D01*
X146260200Y-140850371D01*
X146283057Y-140827514D01*
X146305914Y-140781800D01*
X146305914Y-140621800D01*
X146077342Y-141056085D02*
X146077342Y-141376085D01*
X146557342Y-141056085D01*
X146557342Y-141376085D01*
X146123057Y-141536085D02*
X146100200Y-141558942D01*
X146077342Y-141604657D01*
X146077342Y-141718942D01*
X146100200Y-141764657D01*
X146123057Y-141787514D01*
X146168771Y-141810371D01*
X146214485Y-141810371D01*
X146283057Y-141787514D01*
X146557342Y-141513228D01*
X146557342Y-141810371D01*
X146077342Y-141970371D02*
X146077342Y-142290371D01*
X146557342Y-142084657D01*
X146077342Y-142404657D02*
X146557342Y-142564657D01*
X146077342Y-142724657D01*
X146420200Y-142861800D02*
X146420200Y-143090371D01*
X146557342Y-142816085D02*
X146077342Y-142976085D01*
X146557342Y-143136085D01*
X146557342Y-143524657D02*
X146557342Y-143296085D01*
X146077342Y-143296085D01*
X146077342Y-143616085D02*
X146077342Y-143890371D01*
X146557342Y-143753228D02*
X146077342Y-143753228D01*
X146077342Y-144004657D02*
X146077342Y-144301800D01*
X146260200Y-144141800D01*
X146260200Y-144210371D01*
X146283057Y-144256085D01*
X146305914Y-144278942D01*
X146351628Y-144301800D01*
X146465914Y-144301800D01*
X146511628Y-144278942D01*
X146534485Y-144256085D01*
X146557342Y-144210371D01*
X146557342Y-144073228D01*
X146534485Y-144027514D01*
X146511628Y-144004657D01*
X146100200Y-144758942D02*
X146077342Y-144713228D01*
X146077342Y-144644657D01*
X146100200Y-144576085D01*
X146145914Y-144530371D01*
X146191628Y-144507514D01*
X146283057Y-144484657D01*
X146351628Y-144484657D01*
X146443057Y-144507514D01*
X146488771Y-144530371D01*
X146534485Y-144576085D01*
X146557342Y-144644657D01*
X146557342Y-144690371D01*
X146534485Y-144758942D01*
X146511628Y-144781800D01*
X146351628Y-144781800D01*
X146351628Y-144690371D01*
%TO.C,R_J1850_8*%
X171111502Y-98167454D02*
X171111502Y-97942482D01*
X171111502Y-98054968D02*
X170717801Y-98054968D01*
X170774044Y-98017472D01*
X170811540Y-97979977D01*
X170830287Y-97942482D01*
X170717801Y-98411173D02*
X170717801Y-98448669D01*
X170736549Y-98486164D01*
X170755297Y-98504912D01*
X170792792Y-98523659D01*
X170867783Y-98542407D01*
X170961521Y-98542407D01*
X171036512Y-98523659D01*
X171074007Y-98504912D01*
X171092755Y-98486164D01*
X171111502Y-98448669D01*
X171111502Y-98411173D01*
X171092755Y-98373678D01*
X171074007Y-98354930D01*
X171036512Y-98336183D01*
X170961521Y-98317435D01*
X170867783Y-98317435D01*
X170792792Y-98336183D01*
X170755297Y-98354930D01*
X170736549Y-98373678D01*
X170717801Y-98411173D01*
X171111502Y-98711136D02*
X170717801Y-98711136D01*
X170961521Y-98748631D02*
X171111502Y-98861117D01*
X170849035Y-98861117D02*
X170999016Y-98711136D01*
%TO.C,R_J1850_1*%
X161806902Y-100187854D02*
X161806902Y-99962882D01*
X161806902Y-100075368D02*
X161413201Y-100075368D01*
X161469444Y-100037872D01*
X161506940Y-100000377D01*
X161525687Y-99962882D01*
X161413201Y-100431573D02*
X161413201Y-100469069D01*
X161431949Y-100506564D01*
X161450697Y-100525312D01*
X161488192Y-100544059D01*
X161563183Y-100562807D01*
X161656921Y-100562807D01*
X161731912Y-100544059D01*
X161769407Y-100525312D01*
X161788155Y-100506564D01*
X161806902Y-100469069D01*
X161806902Y-100431573D01*
X161788155Y-100394078D01*
X161769407Y-100375330D01*
X161731912Y-100356583D01*
X161656921Y-100337835D01*
X161563183Y-100337835D01*
X161488192Y-100356583D01*
X161450697Y-100375330D01*
X161431949Y-100394078D01*
X161413201Y-100431573D01*
X161806902Y-100731536D02*
X161413201Y-100731536D01*
X161656921Y-100769031D02*
X161806902Y-100881517D01*
X161544435Y-100881517D02*
X161694416Y-100731536D01*
%TO.C,R_STN_1*%
X112763487Y-117178101D02*
X112519767Y-117178101D01*
X112651001Y-117328083D01*
X112594758Y-117328083D01*
X112557262Y-117346830D01*
X112538515Y-117365578D01*
X112519767Y-117403073D01*
X112519767Y-117496812D01*
X112538515Y-117534307D01*
X112557262Y-117553055D01*
X112594758Y-117571802D01*
X112707244Y-117571802D01*
X112744739Y-117553055D01*
X112763487Y-117534307D01*
X112388533Y-117178101D02*
X112144814Y-117178101D01*
X112276047Y-117328083D01*
X112219804Y-117328083D01*
X112182309Y-117346830D01*
X112163561Y-117365578D01*
X112144814Y-117403073D01*
X112144814Y-117496812D01*
X112163561Y-117534307D01*
X112182309Y-117553055D01*
X112219804Y-117571802D01*
X112332290Y-117571802D01*
X112369786Y-117553055D01*
X112388533Y-117534307D01*
X111901094Y-117178101D02*
X111863599Y-117178101D01*
X111826103Y-117196849D01*
X111807356Y-117215597D01*
X111788608Y-117253092D01*
X111769860Y-117328083D01*
X111769860Y-117421821D01*
X111788608Y-117496812D01*
X111807356Y-117534307D01*
X111826103Y-117553055D01*
X111863599Y-117571802D01*
X111901094Y-117571802D01*
X111938589Y-117553055D01*
X111957337Y-117534307D01*
X111976085Y-117496812D01*
X111994832Y-117421821D01*
X111994832Y-117328083D01*
X111976085Y-117253092D01*
X111957337Y-117215597D01*
X111938589Y-117196849D01*
X111901094Y-117178101D01*
%TO.C,R_STN_4*%
X112763487Y-111082101D02*
X112519767Y-111082101D01*
X112651001Y-111232083D01*
X112594758Y-111232083D01*
X112557262Y-111250830D01*
X112538515Y-111269578D01*
X112519767Y-111307073D01*
X112519767Y-111400812D01*
X112538515Y-111438307D01*
X112557262Y-111457055D01*
X112594758Y-111475802D01*
X112707244Y-111475802D01*
X112744739Y-111457055D01*
X112763487Y-111438307D01*
X112388533Y-111082101D02*
X112144814Y-111082101D01*
X112276047Y-111232083D01*
X112219804Y-111232083D01*
X112182309Y-111250830D01*
X112163561Y-111269578D01*
X112144814Y-111307073D01*
X112144814Y-111400812D01*
X112163561Y-111438307D01*
X112182309Y-111457055D01*
X112219804Y-111475802D01*
X112332290Y-111475802D01*
X112369786Y-111457055D01*
X112388533Y-111438307D01*
X111901094Y-111082101D02*
X111863599Y-111082101D01*
X111826103Y-111100849D01*
X111807356Y-111119597D01*
X111788608Y-111157092D01*
X111769860Y-111232083D01*
X111769860Y-111325821D01*
X111788608Y-111400812D01*
X111807356Y-111438307D01*
X111826103Y-111457055D01*
X111863599Y-111475802D01*
X111901094Y-111475802D01*
X111938589Y-111457055D01*
X111957337Y-111438307D01*
X111976085Y-111400812D01*
X111994832Y-111325821D01*
X111994832Y-111232083D01*
X111976085Y-111157092D01*
X111957337Y-111119597D01*
X111938589Y-111100849D01*
X111901094Y-111082101D01*
%TO.C,R_COMP1*%
X148734102Y-78108654D02*
X148734102Y-77883682D01*
X148734102Y-77996168D02*
X148340401Y-77996168D01*
X148396644Y-77958672D01*
X148434140Y-77921177D01*
X148452887Y-77883682D01*
X148340401Y-78352373D02*
X148340401Y-78389869D01*
X148359149Y-78427364D01*
X148377897Y-78446112D01*
X148415392Y-78464859D01*
X148490383Y-78483607D01*
X148584121Y-78483607D01*
X148659112Y-78464859D01*
X148696607Y-78446112D01*
X148715355Y-78427364D01*
X148734102Y-78389869D01*
X148734102Y-78352373D01*
X148715355Y-78314878D01*
X148696607Y-78296130D01*
X148659112Y-78277383D01*
X148584121Y-78258635D01*
X148490383Y-78258635D01*
X148415392Y-78277383D01*
X148377897Y-78296130D01*
X148359149Y-78314878D01*
X148340401Y-78352373D01*
X148734102Y-78652336D02*
X148340401Y-78652336D01*
X148584121Y-78689831D02*
X148734102Y-78802317D01*
X148471635Y-78802317D02*
X148621616Y-78652336D01*
%TO.C,R_J1850_4*%
X161286187Y-87444901D02*
X161042467Y-87444901D01*
X161173701Y-87594883D01*
X161117458Y-87594883D01*
X161079962Y-87613630D01*
X161061215Y-87632378D01*
X161042467Y-87669873D01*
X161042467Y-87763612D01*
X161061215Y-87801107D01*
X161079962Y-87819855D01*
X161117458Y-87838602D01*
X161229944Y-87838602D01*
X161267439Y-87819855D01*
X161286187Y-87801107D01*
X160911233Y-87444901D02*
X160648766Y-87444901D01*
X160817495Y-87838602D01*
X160330056Y-87576135D02*
X160330056Y-87838602D01*
X160423794Y-87426154D02*
X160517532Y-87707369D01*
X160273813Y-87707369D01*
%TO.C,R_STN_3*%
D11*
X122428000Y-75525380D02*
X122428000Y-75763476D01*
X122666095Y-75668238D02*
X122428000Y-75763476D01*
X122189904Y-75668238D01*
X122570857Y-75953952D02*
X122428000Y-75763476D01*
X122285142Y-75953952D01*
%TO.C,D_ESD_1*%
D19*
X133731653Y-141408642D02*
X132730188Y-141408642D01*
X132730188Y-141790152D01*
X132777877Y-141885530D01*
X132825566Y-141933219D01*
X132920943Y-141980907D01*
X133064010Y-141980907D01*
X133159387Y-141933219D01*
X133207076Y-141885530D01*
X133254765Y-141790152D01*
X133254765Y-141408642D01*
X133207076Y-142410107D02*
X133207076Y-142743928D01*
X133731653Y-142886995D02*
X133731653Y-142410107D01*
X132730188Y-142410107D01*
X132730188Y-142886995D01*
X133683964Y-143268505D02*
X133731653Y-143411572D01*
X133731653Y-143650016D01*
X133683964Y-143745393D01*
X133636276Y-143793082D01*
X133540898Y-143840771D01*
X133445520Y-143840771D01*
X133350143Y-143793082D01*
X133302454Y-143745393D01*
X133254765Y-143650016D01*
X133207076Y-143459260D01*
X133159387Y-143363883D01*
X133111699Y-143316194D01*
X133016321Y-143268505D01*
X132920943Y-143268505D01*
X132825566Y-143316194D01*
X132777877Y-143363883D01*
X132730188Y-143459260D01*
X132730188Y-143697705D01*
X132777877Y-143840771D01*
X133731653Y-144269970D02*
X132730188Y-144269970D01*
X132730188Y-144508414D01*
X132777877Y-144651481D01*
X132873255Y-144746858D01*
X132968632Y-144794547D01*
X133159387Y-144842236D01*
X133302454Y-144842236D01*
X133493209Y-144794547D01*
X133588587Y-144746858D01*
X133683964Y-144651481D01*
X133731653Y-144508414D01*
X133731653Y-144269970D01*
X132825566Y-145223746D02*
X132777877Y-145271435D01*
X132730188Y-145366813D01*
X132730188Y-145605257D01*
X132777877Y-145700635D01*
X132825566Y-145748323D01*
X132920943Y-145796012D01*
X133016321Y-145796012D01*
X133159387Y-145748323D01*
X133731653Y-145176058D01*
X133731653Y-145796012D01*
X133636276Y-146797477D02*
X133683964Y-146749788D01*
X133731653Y-146606722D01*
X133731653Y-146511344D01*
X133683964Y-146368278D01*
X133588587Y-146272900D01*
X133493209Y-146225211D01*
X133302454Y-146177523D01*
X133159387Y-146177523D01*
X132968632Y-146225211D01*
X132873255Y-146272900D01*
X132777877Y-146368278D01*
X132730188Y-146511344D01*
X132730188Y-146606722D01*
X132777877Y-146749788D01*
X132825566Y-146797477D01*
X133445520Y-147178988D02*
X133445520Y-147655876D01*
X133731653Y-147083610D02*
X132730188Y-147417432D01*
X133731653Y-147751253D01*
X133731653Y-148085075D02*
X132730188Y-148085075D01*
X133731653Y-148657341D01*
X132730188Y-148657341D01*
X133683964Y-149181918D02*
X133731653Y-149181918D01*
X133827031Y-149134229D01*
X133874720Y-149086540D01*
X132825566Y-149563428D02*
X132777877Y-149611117D01*
X132730188Y-149706495D01*
X132730188Y-149944939D01*
X132777877Y-150040316D01*
X132825566Y-150088005D01*
X132920943Y-150135694D01*
X133016321Y-150135694D01*
X133159387Y-150088005D01*
X133731653Y-149515739D01*
X133731653Y-150135694D01*
X133731653Y-151089470D02*
X133731653Y-150517204D01*
X133731653Y-150803337D02*
X132730188Y-150803337D01*
X132873255Y-150707960D01*
X132968632Y-150612582D01*
X133016321Y-150517204D01*
X132730188Y-151995557D02*
X132730188Y-151518669D01*
X133207076Y-151470980D01*
X133159387Y-151518669D01*
X133111699Y-151614047D01*
X133111699Y-151852491D01*
X133159387Y-151947869D01*
X133207076Y-151995557D01*
X133302454Y-152043246D01*
X133540898Y-152043246D01*
X133636276Y-151995557D01*
X133683964Y-151947869D01*
X133731653Y-151852491D01*
X133731653Y-151614047D01*
X133683964Y-151518669D01*
X133636276Y-151470980D01*
%TO.C,D_ESD_3*%
D11*
X151384000Y-154646380D02*
X151384000Y-154884476D01*
X151622095Y-154789238D02*
X151384000Y-154884476D01*
X151145904Y-154789238D01*
X151526857Y-155074952D02*
X151384000Y-154884476D01*
X151241142Y-155074952D01*
%TO.C,C_HSCAN_1*%
D19*
X117837913Y-59323711D02*
X117837913Y-59098407D01*
X118063217Y-59075876D01*
X118040686Y-59098407D01*
X118018156Y-59143468D01*
X118018156Y-59256120D01*
X118040686Y-59301181D01*
X118063217Y-59323711D01*
X118108278Y-59346242D01*
X118220930Y-59346242D01*
X118265991Y-59323711D01*
X118288521Y-59301181D01*
X118311052Y-59256120D01*
X118311052Y-59143468D01*
X118288521Y-59098407D01*
X118265991Y-59075876D01*
X117837913Y-59751789D02*
X117837913Y-59661668D01*
X117860443Y-59616607D01*
X117882973Y-59594076D01*
X117950565Y-59549015D01*
X118040686Y-59526485D01*
X118220930Y-59526485D01*
X118265991Y-59549015D01*
X118288521Y-59571546D01*
X118311052Y-59616607D01*
X118311052Y-59706728D01*
X118288521Y-59751789D01*
X118265991Y-59774320D01*
X118220930Y-59796850D01*
X118108278Y-59796850D01*
X118063217Y-59774320D01*
X118040686Y-59751789D01*
X118018156Y-59706728D01*
X118018156Y-59616607D01*
X118040686Y-59571546D01*
X118063217Y-59549015D01*
X118108278Y-59526485D01*
X117837913Y-60089746D02*
X117837913Y-60134807D01*
X117860443Y-60179867D01*
X117882973Y-60202398D01*
X117928034Y-60224928D01*
X118018156Y-60247459D01*
X118130808Y-60247459D01*
X118220930Y-60224928D01*
X118265991Y-60202398D01*
X118288521Y-60179867D01*
X118311052Y-60134807D01*
X118311052Y-60089746D01*
X118288521Y-60044685D01*
X118265991Y-60022154D01*
X118220930Y-59999624D01*
X118130808Y-59977094D01*
X118018156Y-59977094D01*
X117928034Y-59999624D01*
X117882973Y-60022154D01*
X117860443Y-60044685D01*
X117837913Y-60089746D01*
X117995626Y-60450233D02*
X118468765Y-60450233D01*
X118018156Y-60450233D02*
X117995626Y-60495293D01*
X117995626Y-60585415D01*
X118018156Y-60630476D01*
X118040686Y-60653006D01*
X118085747Y-60675537D01*
X118220930Y-60675537D01*
X118265991Y-60653006D01*
X118288521Y-60630476D01*
X118311052Y-60585415D01*
X118311052Y-60495293D01*
X118288521Y-60450233D01*
X118063217Y-61036024D02*
X118063217Y-60878311D01*
X118311052Y-60878311D02*
X117837913Y-60878311D01*
X117837913Y-61103615D01*
%TO.C,Q_J1850_3*%
D11*
X160742380Y-83820000D02*
X160980476Y-83820000D01*
X160885238Y-83581904D02*
X160980476Y-83820000D01*
X160885238Y-84058095D01*
X161170952Y-83677142D02*
X160980476Y-83820000D01*
X161170952Y-83962857D01*
%TO.C,R_VR2_3*%
D19*
X131784102Y-128880177D02*
X131784102Y-128655205D01*
X131784102Y-128767691D02*
X131390401Y-128767691D01*
X131446644Y-128730196D01*
X131484140Y-128692700D01*
X131502887Y-128655205D01*
X131784102Y-129255130D02*
X131784102Y-129030158D01*
X131784102Y-129142644D02*
X131390401Y-129142644D01*
X131446644Y-129105149D01*
X131484140Y-129067654D01*
X131502887Y-129030158D01*
X131390401Y-129611336D02*
X131390401Y-129423859D01*
X131577878Y-129405112D01*
X131559130Y-129423859D01*
X131540383Y-129461355D01*
X131540383Y-129555093D01*
X131559130Y-129592588D01*
X131577878Y-129611336D01*
X131615373Y-129630084D01*
X131709112Y-129630084D01*
X131746607Y-129611336D01*
X131765355Y-129592588D01*
X131784102Y-129555093D01*
X131784102Y-129461355D01*
X131765355Y-129423859D01*
X131746607Y-129405112D01*
X131784102Y-129798813D02*
X131390401Y-129798813D01*
X131634121Y-129836308D02*
X131784102Y-129948794D01*
X131521635Y-129948794D02*
X131671616Y-129798813D01*
%TO.C,C_HST_1*%
X168654555Y-72843266D02*
X169226281Y-72843266D01*
X168940418Y-72843266D02*
X168940418Y-71842746D01*
X169035706Y-71985677D01*
X169130993Y-72080965D01*
X169226281Y-72128609D01*
X167796967Y-72176252D02*
X167796967Y-72843266D01*
X168225761Y-72176252D02*
X168225761Y-72700334D01*
X168178117Y-72795622D01*
X168082829Y-72843266D01*
X167939898Y-72843266D01*
X167844610Y-72795622D01*
X167796967Y-72747978D01*
X166987022Y-72319184D02*
X167320528Y-72319184D01*
X167320528Y-72843266D02*
X167320528Y-71842746D01*
X166844090Y-71842746D01*
%TO.C,R_VS_1*%
X151389401Y-139550728D02*
X151389401Y-139475738D01*
X151408149Y-139438242D01*
X151426897Y-139419495D01*
X151483140Y-139381999D01*
X151558130Y-139363252D01*
X151708112Y-139363252D01*
X151745607Y-139381999D01*
X151764355Y-139400747D01*
X151783102Y-139438242D01*
X151783102Y-139513233D01*
X151764355Y-139550728D01*
X151745607Y-139569476D01*
X151708112Y-139588224D01*
X151614373Y-139588224D01*
X151576878Y-139569476D01*
X151558130Y-139550728D01*
X151539383Y-139513233D01*
X151539383Y-139438242D01*
X151558130Y-139400747D01*
X151576878Y-139381999D01*
X151614373Y-139363252D01*
X151426897Y-139738205D02*
X151408149Y-139756953D01*
X151389401Y-139794448D01*
X151389401Y-139888186D01*
X151408149Y-139925682D01*
X151426897Y-139944429D01*
X151464392Y-139963177D01*
X151501887Y-139963177D01*
X151558130Y-139944429D01*
X151783102Y-139719457D01*
X151783102Y-139963177D01*
X151783102Y-140131906D02*
X151389401Y-140131906D01*
X151633121Y-140169401D02*
X151783102Y-140281887D01*
X151520635Y-140281887D02*
X151670616Y-140131906D01*
X151783102Y-140956803D02*
X151783102Y-140731831D01*
X151783102Y-140844317D02*
X151389401Y-140844317D01*
X151445644Y-140806822D01*
X151483140Y-140769327D01*
X151501887Y-140731831D01*
X151783102Y-141106785D02*
X151389401Y-141406747D01*
X151389401Y-141163028D02*
X151408149Y-141200523D01*
X151445644Y-141219271D01*
X151483140Y-141200523D01*
X151501887Y-141163028D01*
X151483140Y-141125532D01*
X151445644Y-141106785D01*
X151408149Y-141125532D01*
X151389401Y-141163028D01*
X151764355Y-141388000D02*
X151726859Y-141406747D01*
X151689364Y-141388000D01*
X151670616Y-141350504D01*
X151689364Y-141313009D01*
X151726859Y-141294261D01*
X151764355Y-141313009D01*
X151783102Y-141350504D01*
X151764355Y-141388000D01*
%TO.C,R_VR2_2*%
X127720102Y-133764177D02*
X127720102Y-133539205D01*
X127720102Y-133651691D02*
X127326401Y-133651691D01*
X127382644Y-133614196D01*
X127420140Y-133576700D01*
X127438887Y-133539205D01*
X127326401Y-134007897D02*
X127326401Y-134045392D01*
X127345149Y-134082887D01*
X127363897Y-134101635D01*
X127401392Y-134120383D01*
X127476383Y-134139130D01*
X127570121Y-134139130D01*
X127645112Y-134120383D01*
X127682607Y-134101635D01*
X127701355Y-134082887D01*
X127720102Y-134045392D01*
X127720102Y-134007897D01*
X127701355Y-133970401D01*
X127682607Y-133951654D01*
X127645112Y-133932906D01*
X127570121Y-133914158D01*
X127476383Y-133914158D01*
X127401392Y-133932906D01*
X127363897Y-133951654D01*
X127345149Y-133970401D01*
X127326401Y-134007897D01*
X127326401Y-134382850D02*
X127326401Y-134420345D01*
X127345149Y-134457841D01*
X127363897Y-134476588D01*
X127401392Y-134495336D01*
X127476383Y-134514084D01*
X127570121Y-134514084D01*
X127645112Y-134495336D01*
X127682607Y-134476588D01*
X127701355Y-134457841D01*
X127720102Y-134420345D01*
X127720102Y-134382850D01*
X127701355Y-134345355D01*
X127682607Y-134326607D01*
X127645112Y-134307859D01*
X127570121Y-134289112D01*
X127476383Y-134289112D01*
X127401392Y-134307859D01*
X127363897Y-134326607D01*
X127345149Y-134345355D01*
X127326401Y-134382850D01*
X127720102Y-134682813D02*
X127326401Y-134682813D01*
X127570121Y-134720308D02*
X127720102Y-134832794D01*
X127457635Y-134832794D02*
X127607616Y-134682813D01*
%TO.C,R_SWCAN_4*%
X131086345Y-71840102D02*
X131311317Y-71840102D01*
X131198831Y-71840102D02*
X131198831Y-71446401D01*
X131236327Y-71502644D01*
X131273822Y-71540140D01*
X131311317Y-71558887D01*
X130842626Y-71446401D02*
X130805130Y-71446401D01*
X130767635Y-71465149D01*
X130748887Y-71483897D01*
X130730140Y-71521392D01*
X130711392Y-71596383D01*
X130711392Y-71690121D01*
X130730140Y-71765112D01*
X130748887Y-71802607D01*
X130767635Y-71821355D01*
X130805130Y-71840102D01*
X130842626Y-71840102D01*
X130880121Y-71821355D01*
X130898869Y-71802607D01*
X130917616Y-71765112D01*
X130936364Y-71690121D01*
X130936364Y-71596383D01*
X130917616Y-71521392D01*
X130898869Y-71483897D01*
X130880121Y-71465149D01*
X130842626Y-71446401D01*
X130542663Y-71840102D02*
X130542663Y-71446401D01*
X130505168Y-71690121D02*
X130392682Y-71840102D01*
X130392682Y-71577635D02*
X130542663Y-71727616D01*
%TD*%
M02*
