%TF.GenerationSoftware,KiCad,Pcbnew,(5.1.7)-1*%
%TF.CreationDate,2020-12-02T23:54:22-08:00*%
%TF.ProjectId,Reader,52656164-6572-42e6-9b69-6361645f7063,0.0.05b*%
%TF.SameCoordinates,Original*%
%TF.FileFunction,Soldermask,Bot*%
%TF.FilePolarity,Negative*%
%FSLAX46Y46*%
G04 Gerber Fmt 4.6, Leading zero omitted, Abs format (unit mm)*
G04 Created by KiCad (PCBNEW (5.1.7)-1) date 2020-12-02 23:54:22*
%MOMM*%
%LPD*%
G01*
G04 APERTURE LIST*
%ADD10O,1.700000X1.700000*%
%ADD11R,1.700000X1.700000*%
%ADD12R,0.810000X0.980000*%
%ADD13R,0.790000X0.930000*%
%ADD14C,3.302000*%
%ADD15C,1.549400*%
%ADD16R,1.000000X1.100000*%
%ADD17R,1.100000X1.000000*%
%ADD18R,1.010000X0.930000*%
%ADD19R,1.799996X1.299998*%
%ADD20R,1.299998X1.799996*%
%ADD21R,0.600000X1.000000*%
%ADD22R,0.568000X0.903199*%
%ADD23R,0.600000X1.230000*%
%ADD24R,0.930000X0.790000*%
%ADD25R,1.080000X1.680000*%
%ADD26R,0.700000X0.800000*%
%ADD27R,0.920000X1.380000*%
%ADD28R,1.295400X1.295400*%
%ADD29C,1.295400*%
%ADD30R,0.350000X0.600000*%
%ADD31R,0.600000X0.350000*%
G04 APERTURE END LIST*
D10*
%TO.C,J_CN_5*%
X111760000Y-77216000D03*
D11*
X111760000Y-79756000D03*
%TD*%
D10*
%TO.C,J_CN_7*%
X100076000Y-104902000D03*
X102616000Y-104902000D03*
X105156000Y-104902000D03*
D11*
X107696000Y-104902000D03*
%TD*%
D10*
%TO.C,J_CN_6*%
X111760000Y-99568000D03*
D11*
X111760000Y-97028000D03*
%TD*%
D10*
%TO.C,J_CN_4*%
X111760000Y-83820000D03*
D11*
X111760000Y-86360000D03*
%TD*%
%TO.C,J_CN_3*%
X111760000Y-90424000D03*
%TD*%
D10*
%TO.C,J_CN_2*%
X124460000Y-93980000D03*
D11*
X124460000Y-91440000D03*
%TD*%
D10*
%TO.C,J_CN_1*%
X88392000Y-111252000D03*
D11*
X90932000Y-111252000D03*
%TD*%
D12*
%TO.C,R_STN_10*%
X139945000Y-123444000D03*
X141487000Y-123444000D03*
%TD*%
D10*
%TO.C,J_ESP_1*%
X88328500Y-60134500D03*
X90868500Y-60134500D03*
X93408500Y-60134500D03*
X95948500Y-60134500D03*
X98488500Y-60134500D03*
X101028500Y-60134500D03*
X103568500Y-60134500D03*
X106108500Y-60134500D03*
X108648500Y-60134500D03*
X111188500Y-60134500D03*
X113728500Y-60134500D03*
X116268500Y-60134500D03*
X118808500Y-60134500D03*
X121348500Y-60134500D03*
X123888500Y-60134500D03*
X126428500Y-60134500D03*
X128968500Y-60134500D03*
X131508500Y-60134500D03*
X134048500Y-60134500D03*
D11*
X136588500Y-60134500D03*
%TD*%
%TO.C,J_ESP_2*%
X169608500Y-59880500D03*
D10*
X172148500Y-59880500D03*
X174688500Y-59880500D03*
X177228500Y-59880500D03*
X179768500Y-59880500D03*
X182308500Y-59880500D03*
X184848500Y-59880500D03*
X187388500Y-59880500D03*
X189928500Y-59880500D03*
X192468500Y-59880500D03*
X195008500Y-59880500D03*
X197548500Y-59880500D03*
X200088500Y-59880500D03*
X202628500Y-59880500D03*
X205168500Y-59880500D03*
X207708500Y-59880500D03*
X210248500Y-59880500D03*
X212788500Y-59880500D03*
X215328500Y-59880500D03*
X217868500Y-59880500D03*
%TD*%
D13*
%TO.C,R_COMP_7*%
X218053500Y-71183500D03*
X216413500Y-71183500D03*
%TD*%
D14*
%TO.C,U_CN_1*%
X104394000Y-98855000D03*
X104394000Y-73865000D03*
D15*
X106934000Y-90669999D03*
X106934000Y-88379998D03*
X106934000Y-86090001D03*
X106934000Y-83800000D03*
X106934000Y-81510000D03*
X104394000Y-91815001D03*
X104394000Y-89525000D03*
X104394000Y-87235000D03*
X104394000Y-84944999D03*
X104394000Y-82655001D03*
X101854000Y-90669999D03*
X101854000Y-88379998D03*
X101854000Y-86090001D03*
X101854000Y-83800000D03*
X101854000Y-81510000D03*
%TD*%
D16*
%TO.C,C_ESP_1*%
X140652500Y-68096500D03*
X140652500Y-66396500D03*
%TD*%
%TO.C,C_ESP_2*%
X175704500Y-86384500D03*
X175704500Y-84684500D03*
%TD*%
D17*
%TO.C,C_HSCAN_3*%
X130912500Y-108331000D03*
X132612500Y-108331000D03*
%TD*%
D18*
%TO.C,C_IMU_1*%
X136133500Y-84264500D03*
X137551500Y-84264500D03*
%TD*%
%TO.C,C_IMU_2*%
X137805500Y-80708500D03*
X136387500Y-80708500D03*
%TD*%
D19*
%TO.C,C_PS_1*%
X115316000Y-99827996D03*
X115316000Y-97028000D03*
%TD*%
D17*
%TO.C,C_STN_1*%
X152248500Y-98615500D03*
X153948500Y-98615500D03*
%TD*%
D20*
%TO.C,C_VR2_1*%
X96644002Y-74676000D03*
X99443998Y-74676000D03*
%TD*%
D21*
%TO.C,D_ESD_1*%
X119888000Y-87510000D03*
X120838000Y-85210000D03*
X118938000Y-85210000D03*
%TD*%
%TO.C,D_ESD_2*%
X114874000Y-85210000D03*
X116774000Y-85210000D03*
X115824000Y-87510000D03*
%TD*%
D22*
%TO.C,D_ESD_3*%
X117282001Y-93141800D03*
X115381999Y-93141800D03*
X116332000Y-90754200D03*
%TD*%
D23*
%TO.C,D_ESD_5*%
X89916000Y-116376000D03*
X90866000Y-114256000D03*
X88966000Y-114256000D03*
%TD*%
D10*
%TO.C,J_ESP_3*%
X161988500Y-91122500D03*
X159448500Y-91122500D03*
X156908500Y-91122500D03*
X154368500Y-91122500D03*
X151828500Y-91122500D03*
X149288500Y-91122500D03*
X146748500Y-91122500D03*
D11*
X144208500Y-91122500D03*
%TD*%
%TO.C,J_PS_1*%
X215392000Y-117856000D03*
D10*
X215392000Y-115316000D03*
X215392000Y-112776000D03*
X215392000Y-110236000D03*
X215392000Y-107696000D03*
X215392000Y-105156000D03*
X215392000Y-102616000D03*
X215392000Y-100076000D03*
%TD*%
D11*
%TO.C,J_STN_1*%
X166814500Y-91122500D03*
D10*
X169354500Y-91122500D03*
%TD*%
D11*
%TO.C,J_STN_2*%
X135572500Y-108648500D03*
D10*
X138112500Y-108648500D03*
%TD*%
%TO.C,J_STN_4*%
X154368500Y-95694500D03*
D11*
X151828500Y-95694500D03*
%TD*%
%TO.C,J_STN_5*%
X167005000Y-109791500D03*
D10*
X167005000Y-112331500D03*
%TD*%
%TO.C,J_STN_6*%
X160337500Y-122745500D03*
D11*
X157797500Y-122745500D03*
%TD*%
D24*
%TO.C,R_COMP_5*%
X195008500Y-68268000D03*
X195008500Y-69908000D03*
%TD*%
%TO.C,R_COMP_1*%
X204216000Y-87492000D03*
X204216000Y-85852000D03*
%TD*%
%TO.C,R_COMP_4*%
X197104000Y-68268000D03*
X197104000Y-69908000D03*
%TD*%
D13*
%TO.C,R_COMP_11*%
X198622500Y-64008000D03*
X196982500Y-64008000D03*
%TD*%
%TO.C,R_ESP_1*%
X121290500Y-63436500D03*
X122930500Y-63436500D03*
%TD*%
D12*
%TO.C,R_ESP_2*%
X122881500Y-66484500D03*
X121339500Y-66484500D03*
%TD*%
%TO.C,R_ESP_5*%
X174062500Y-63690500D03*
X172520500Y-63690500D03*
%TD*%
D24*
%TO.C,R_IMU_2*%
X121856500Y-77210500D03*
X121856500Y-75570500D03*
%TD*%
D13*
%TO.C,R_J1850_1*%
X181552000Y-101600000D03*
X183192000Y-101600000D03*
%TD*%
%TO.C,R_J1850_5*%
X191574000Y-121412000D03*
X189934000Y-121412000D03*
%TD*%
D25*
%TO.C,R_STN_1*%
X143177000Y-120904000D03*
X140287000Y-120904000D03*
%TD*%
%TO.C,R_STN_2*%
X140287000Y-115316000D03*
X143177000Y-115316000D03*
%TD*%
%TO.C,R_STN_3*%
X140287000Y-117856000D03*
X143177000Y-117856000D03*
%TD*%
D26*
%TO.C,R_STN_4*%
X173710500Y-91249500D03*
X172110500Y-91249500D03*
%TD*%
D27*
%TO.C,R_VS_1*%
X111699000Y-109728000D03*
X109789000Y-109728000D03*
%TD*%
D28*
%TO.C,U_COMP_1*%
X194056000Y-90932000D03*
D29*
X196596000Y-90932000D03*
X199136000Y-90932000D03*
X201676000Y-90932000D03*
X204216000Y-90932000D03*
X206756000Y-90932000D03*
X209296000Y-90932000D03*
X209296000Y-83312000D03*
X206756000Y-83312000D03*
X204216000Y-83312000D03*
X201676000Y-83312000D03*
X199136000Y-83312000D03*
X196596000Y-83312000D03*
X194056000Y-83312000D03*
%TD*%
D30*
%TO.C,U_IMU_1*%
X133544500Y-80310500D03*
X134044500Y-80310500D03*
X133044500Y-80310500D03*
X134544500Y-80310500D03*
X133544500Y-82630500D03*
X134044500Y-82630500D03*
X133044500Y-82630500D03*
X134544500Y-82630500D03*
D31*
X132884500Y-80970500D03*
X132884500Y-81470500D03*
X132884500Y-81970500D03*
X134704500Y-80970500D03*
X134704500Y-81470500D03*
X134704500Y-81970500D03*
%TD*%
M02*
