%TF.GenerationSoftware,KiCad,Pcbnew,(5.1.7)-1*%
%TF.CreationDate,2020-10-29T00:39:07-07:00*%
%TF.ProjectId,Reader,52656164-6572-42e6-9b69-6361645f7063,0.0.02*%
%TF.SameCoordinates,Original*%
%TF.FileFunction,Other,Fab,Bot*%
%FSLAX46Y46*%
G04 Gerber Fmt 4.6, Leading zero omitted, Abs format (unit mm)*
G04 Created by KiCad (PCBNEW (5.1.7)-1) date 2020-10-29 00:39:07*
%MOMM*%
%LPD*%
G01*
G04 APERTURE LIST*
%ADD10C,0.100000*%
%ADD11C,0.150000*%
%ADD12C,0.300000*%
%ADD13C,0.400000*%
%ADD14C,0.101600*%
%ADD15C,0.010000*%
%ADD16C,0.152400*%
%ADD17C,0.127000*%
%ADD18C,0.200000*%
%ADD19C,0.015000*%
%ADD20C,0.120000*%
%ADD21C,0.075000*%
G04 APERTURE END LIST*
D10*
D11*
X159400000Y-171900000D02*
X159400000Y-203900000D01*
X267400000Y-203900000D01*
X267400000Y-171900000D01*
X159400000Y-171900000D01*
D10*
D11*
X10000000Y-10000000D02*
X10000000Y-205900000D01*
X269400000Y-205900000D01*
X269400000Y-10000000D01*
X10000000Y-10000000D01*
D10*
D11*
X12000000Y-12000000D02*
X12000000Y-203900000D01*
X267400000Y-203900000D01*
X267400000Y-12000000D01*
X12000000Y-12000000D01*
D10*
D11*
X60000000Y-12000000D02*
X60000000Y-10000000D01*
D10*
D11*
X110000000Y-12000000D02*
X110000000Y-10000000D01*
D10*
D11*
X160000000Y-12000000D02*
X160000000Y-10000000D01*
D10*
D11*
X210000000Y-12000000D02*
X210000000Y-10000000D01*
D10*
D11*
X260000000Y-12000000D02*
X260000000Y-10000000D01*
D10*
D11*
X36065476Y-11588095D02*
X35322619Y-11588095D01*
X35694047Y-11588095D02*
X35694047Y-10288095D01*
X35570238Y-10473809D01*
X35446428Y-10597619D01*
X35322619Y-10659523D01*
D10*
D11*
X85322619Y-10411904D02*
X85384523Y-10350000D01*
X85508333Y-10288095D01*
X85817857Y-10288095D01*
X85941666Y-10350000D01*
X86003571Y-10411904D01*
X86065476Y-10535714D01*
X86065476Y-10659523D01*
X86003571Y-10845238D01*
X85260714Y-11588095D01*
X86065476Y-11588095D01*
D10*
D11*
X135260714Y-10288095D02*
X136065476Y-10288095D01*
X135632142Y-10783333D01*
X135817857Y-10783333D01*
X135941666Y-10845238D01*
X136003571Y-10907142D01*
X136065476Y-11030952D01*
X136065476Y-11340476D01*
X136003571Y-11464285D01*
X135941666Y-11526190D01*
X135817857Y-11588095D01*
X135446428Y-11588095D01*
X135322619Y-11526190D01*
X135260714Y-11464285D01*
D10*
D11*
X185941666Y-10721428D02*
X185941666Y-11588095D01*
X185632142Y-10226190D02*
X185322619Y-11154761D01*
X186127380Y-11154761D01*
D10*
D11*
X236003571Y-10288095D02*
X235384523Y-10288095D01*
X235322619Y-10907142D01*
X235384523Y-10845238D01*
X235508333Y-10783333D01*
X235817857Y-10783333D01*
X235941666Y-10845238D01*
X236003571Y-10907142D01*
X236065476Y-11030952D01*
X236065476Y-11340476D01*
X236003571Y-11464285D01*
X235941666Y-11526190D01*
X235817857Y-11588095D01*
X235508333Y-11588095D01*
X235384523Y-11526190D01*
X235322619Y-11464285D01*
D10*
D11*
X60000000Y-203900000D02*
X60000000Y-205900000D01*
D10*
D11*
X110000000Y-203900000D02*
X110000000Y-205900000D01*
D10*
D11*
X160000000Y-203900000D02*
X160000000Y-205900000D01*
D10*
D11*
X210000000Y-203900000D02*
X210000000Y-205900000D01*
D10*
D11*
X260000000Y-203900000D02*
X260000000Y-205900000D01*
D10*
D11*
X36065476Y-205488095D02*
X35322619Y-205488095D01*
X35694047Y-205488095D02*
X35694047Y-204188095D01*
X35570238Y-204373809D01*
X35446428Y-204497619D01*
X35322619Y-204559523D01*
D10*
D11*
X85322619Y-204311904D02*
X85384523Y-204250000D01*
X85508333Y-204188095D01*
X85817857Y-204188095D01*
X85941666Y-204250000D01*
X86003571Y-204311904D01*
X86065476Y-204435714D01*
X86065476Y-204559523D01*
X86003571Y-204745238D01*
X85260714Y-205488095D01*
X86065476Y-205488095D01*
D10*
D11*
X135260714Y-204188095D02*
X136065476Y-204188095D01*
X135632142Y-204683333D01*
X135817857Y-204683333D01*
X135941666Y-204745238D01*
X136003571Y-204807142D01*
X136065476Y-204930952D01*
X136065476Y-205240476D01*
X136003571Y-205364285D01*
X135941666Y-205426190D01*
X135817857Y-205488095D01*
X135446428Y-205488095D01*
X135322619Y-205426190D01*
X135260714Y-205364285D01*
D10*
D11*
X185941666Y-204621428D02*
X185941666Y-205488095D01*
X185632142Y-204126190D02*
X185322619Y-205054761D01*
X186127380Y-205054761D01*
D10*
D11*
X236003571Y-204188095D02*
X235384523Y-204188095D01*
X235322619Y-204807142D01*
X235384523Y-204745238D01*
X235508333Y-204683333D01*
X235817857Y-204683333D01*
X235941666Y-204745238D01*
X236003571Y-204807142D01*
X236065476Y-204930952D01*
X236065476Y-205240476D01*
X236003571Y-205364285D01*
X235941666Y-205426190D01*
X235817857Y-205488095D01*
X235508333Y-205488095D01*
X235384523Y-205426190D01*
X235322619Y-205364285D01*
D10*
D11*
X10000000Y-60000000D02*
X12000000Y-60000000D01*
D10*
D11*
X10000000Y-110000000D02*
X12000000Y-110000000D01*
D10*
D11*
X10000000Y-160000000D02*
X12000000Y-160000000D01*
D10*
D11*
X10690476Y-35216666D02*
X11309523Y-35216666D01*
X10566666Y-35588095D02*
X11000000Y-34288095D01*
X11433333Y-35588095D01*
D10*
D11*
X11092857Y-84907142D02*
X11278571Y-84969047D01*
X11340476Y-85030952D01*
X11402380Y-85154761D01*
X11402380Y-85340476D01*
X11340476Y-85464285D01*
X11278571Y-85526190D01*
X11154761Y-85588095D01*
X10659523Y-85588095D01*
X10659523Y-84288095D01*
X11092857Y-84288095D01*
X11216666Y-84350000D01*
X11278571Y-84411904D01*
X11340476Y-84535714D01*
X11340476Y-84659523D01*
X11278571Y-84783333D01*
X11216666Y-84845238D01*
X11092857Y-84907142D01*
X10659523Y-84907142D01*
D10*
D11*
X11402380Y-135464285D02*
X11340476Y-135526190D01*
X11154761Y-135588095D01*
X11030952Y-135588095D01*
X10845238Y-135526190D01*
X10721428Y-135402380D01*
X10659523Y-135278571D01*
X10597619Y-135030952D01*
X10597619Y-134845238D01*
X10659523Y-134597619D01*
X10721428Y-134473809D01*
X10845238Y-134350000D01*
X11030952Y-134288095D01*
X11154761Y-134288095D01*
X11340476Y-134350000D01*
X11402380Y-134411904D01*
D10*
D11*
X10659523Y-185588095D02*
X10659523Y-184288095D01*
X10969047Y-184288095D01*
X11154761Y-184350000D01*
X11278571Y-184473809D01*
X11340476Y-184597619D01*
X11402380Y-184845238D01*
X11402380Y-185030952D01*
X11340476Y-185278571D01*
X11278571Y-185402380D01*
X11154761Y-185526190D01*
X10969047Y-185588095D01*
X10659523Y-185588095D01*
D10*
D11*
X269400000Y-60000000D02*
X267400000Y-60000000D01*
D10*
D11*
X269400000Y-110000000D02*
X267400000Y-110000000D01*
D10*
D11*
X269400000Y-160000000D02*
X267400000Y-160000000D01*
D10*
D11*
X268090476Y-35216666D02*
X268709523Y-35216666D01*
X267966666Y-35588095D02*
X268400000Y-34288095D01*
X268833333Y-35588095D01*
D10*
D11*
X268492857Y-84907142D02*
X268678571Y-84969047D01*
X268740476Y-85030952D01*
X268802380Y-85154761D01*
X268802380Y-85340476D01*
X268740476Y-85464285D01*
X268678571Y-85526190D01*
X268554761Y-85588095D01*
X268059523Y-85588095D01*
X268059523Y-84288095D01*
X268492857Y-84288095D01*
X268616666Y-84350000D01*
X268678571Y-84411904D01*
X268740476Y-84535714D01*
X268740476Y-84659523D01*
X268678571Y-84783333D01*
X268616666Y-84845238D01*
X268492857Y-84907142D01*
X268059523Y-84907142D01*
D10*
D11*
X268802380Y-135464285D02*
X268740476Y-135526190D01*
X268554761Y-135588095D01*
X268430952Y-135588095D01*
X268245238Y-135526190D01*
X268121428Y-135402380D01*
X268059523Y-135278571D01*
X267997619Y-135030952D01*
X267997619Y-134845238D01*
X268059523Y-134597619D01*
X268121428Y-134473809D01*
X268245238Y-134350000D01*
X268430952Y-134288095D01*
X268554761Y-134288095D01*
X268740476Y-134350000D01*
X268802380Y-134411904D01*
D10*
D11*
X268059523Y-185588095D02*
X268059523Y-184288095D01*
X268369047Y-184288095D01*
X268554761Y-184350000D01*
X268678571Y-184473809D01*
X268740476Y-184597619D01*
X268802380Y-184845238D01*
X268802380Y-185030952D01*
X268740476Y-185278571D01*
X268678571Y-185402380D01*
X268554761Y-185526190D01*
X268369047Y-185588095D01*
X268059523Y-185588095D01*
D10*
D11*
X182832142Y-199678571D02*
X182832142Y-198178571D01*
X183189285Y-198178571D01*
X183403571Y-198250000D01*
X183546428Y-198392857D01*
X183617857Y-198535714D01*
X183689285Y-198821428D01*
X183689285Y-199035714D01*
X183617857Y-199321428D01*
X183546428Y-199464285D01*
X183403571Y-199607142D01*
X183189285Y-199678571D01*
X182832142Y-199678571D01*
X184975000Y-199678571D02*
X184975000Y-198892857D01*
X184903571Y-198750000D01*
X184760714Y-198678571D01*
X184475000Y-198678571D01*
X184332142Y-198750000D01*
X184975000Y-199607142D02*
X184832142Y-199678571D01*
X184475000Y-199678571D01*
X184332142Y-199607142D01*
X184260714Y-199464285D01*
X184260714Y-199321428D01*
X184332142Y-199178571D01*
X184475000Y-199107142D01*
X184832142Y-199107142D01*
X184975000Y-199035714D01*
X185475000Y-198678571D02*
X186046428Y-198678571D01*
X185689285Y-198178571D02*
X185689285Y-199464285D01*
X185760714Y-199607142D01*
X185903571Y-199678571D01*
X186046428Y-199678571D01*
X187117857Y-199607142D02*
X186975000Y-199678571D01*
X186689285Y-199678571D01*
X186546428Y-199607142D01*
X186475000Y-199464285D01*
X186475000Y-198892857D01*
X186546428Y-198750000D01*
X186689285Y-198678571D01*
X186975000Y-198678571D01*
X187117857Y-198750000D01*
X187189285Y-198892857D01*
X187189285Y-199035714D01*
X186475000Y-199178571D01*
X187832142Y-199535714D02*
X187903571Y-199607142D01*
X187832142Y-199678571D01*
X187760714Y-199607142D01*
X187832142Y-199535714D01*
X187832142Y-199678571D01*
X187832142Y-198750000D02*
X187903571Y-198821428D01*
X187832142Y-198892857D01*
X187760714Y-198821428D01*
X187832142Y-198750000D01*
X187832142Y-198892857D01*
X189617857Y-198321428D02*
X189689285Y-198250000D01*
X189832142Y-198178571D01*
X190189285Y-198178571D01*
X190332142Y-198250000D01*
X190403571Y-198321428D01*
X190475000Y-198464285D01*
X190475000Y-198607142D01*
X190403571Y-198821428D01*
X189546428Y-199678571D01*
X190475000Y-199678571D01*
X191403571Y-198178571D02*
X191546428Y-198178571D01*
X191689285Y-198250000D01*
X191760714Y-198321428D01*
X191832142Y-198464285D01*
X191903571Y-198750000D01*
X191903571Y-199107142D01*
X191832142Y-199392857D01*
X191760714Y-199535714D01*
X191689285Y-199607142D01*
X191546428Y-199678571D01*
X191403571Y-199678571D01*
X191260714Y-199607142D01*
X191189285Y-199535714D01*
X191117857Y-199392857D01*
X191046428Y-199107142D01*
X191046428Y-198750000D01*
X191117857Y-198464285D01*
X191189285Y-198321428D01*
X191260714Y-198250000D01*
X191403571Y-198178571D01*
X192475000Y-198321428D02*
X192546428Y-198250000D01*
X192689285Y-198178571D01*
X193046428Y-198178571D01*
X193189285Y-198250000D01*
X193260714Y-198321428D01*
X193332142Y-198464285D01*
X193332142Y-198607142D01*
X193260714Y-198821428D01*
X192403571Y-199678571D01*
X193332142Y-199678571D01*
X194260714Y-198178571D02*
X194403571Y-198178571D01*
X194546428Y-198250000D01*
X194617857Y-198321428D01*
X194689285Y-198464285D01*
X194760714Y-198750000D01*
X194760714Y-199107142D01*
X194689285Y-199392857D01*
X194617857Y-199535714D01*
X194546428Y-199607142D01*
X194403571Y-199678571D01*
X194260714Y-199678571D01*
X194117857Y-199607142D01*
X194046428Y-199535714D01*
X193975000Y-199392857D01*
X193903571Y-199107142D01*
X193903571Y-198750000D01*
X193975000Y-198464285D01*
X194046428Y-198321428D01*
X194117857Y-198250000D01*
X194260714Y-198178571D01*
X195403571Y-199107142D02*
X196546428Y-199107142D01*
X198046428Y-199678571D02*
X197189285Y-199678571D01*
X197617857Y-199678571D02*
X197617857Y-198178571D01*
X197475000Y-198392857D01*
X197332142Y-198535714D01*
X197189285Y-198607142D01*
X198975000Y-198178571D02*
X199117857Y-198178571D01*
X199260714Y-198250000D01*
X199332142Y-198321428D01*
X199403571Y-198464285D01*
X199475000Y-198750000D01*
X199475000Y-199107142D01*
X199403571Y-199392857D01*
X199332142Y-199535714D01*
X199260714Y-199607142D01*
X199117857Y-199678571D01*
X198975000Y-199678571D01*
X198832142Y-199607142D01*
X198760714Y-199535714D01*
X198689285Y-199392857D01*
X198617857Y-199107142D01*
X198617857Y-198750000D01*
X198689285Y-198464285D01*
X198760714Y-198321428D01*
X198832142Y-198250000D01*
X198975000Y-198178571D01*
X200117857Y-199107142D02*
X201260714Y-199107142D01*
X201903571Y-198321428D02*
X201975000Y-198250000D01*
X202117857Y-198178571D01*
X202475000Y-198178571D01*
X202617857Y-198250000D01*
X202689285Y-198321428D01*
X202760714Y-198464285D01*
X202760714Y-198607142D01*
X202689285Y-198821428D01*
X201832142Y-199678571D01*
X202760714Y-199678571D01*
X203617857Y-198821428D02*
X203475000Y-198750000D01*
X203403571Y-198678571D01*
X203332142Y-198535714D01*
X203332142Y-198464285D01*
X203403571Y-198321428D01*
X203475000Y-198250000D01*
X203617857Y-198178571D01*
X203903571Y-198178571D01*
X204046428Y-198250000D01*
X204117857Y-198321428D01*
X204189285Y-198464285D01*
X204189285Y-198535714D01*
X204117857Y-198678571D01*
X204046428Y-198750000D01*
X203903571Y-198821428D01*
X203617857Y-198821428D01*
X203475000Y-198892857D01*
X203403571Y-198964285D01*
X203332142Y-199107142D01*
X203332142Y-199392857D01*
X203403571Y-199535714D01*
X203475000Y-199607142D01*
X203617857Y-199678571D01*
X203903571Y-199678571D01*
X204046428Y-199607142D01*
X204117857Y-199535714D01*
X204189285Y-199392857D01*
X204189285Y-199107142D01*
X204117857Y-198964285D01*
X204046428Y-198892857D01*
X203903571Y-198821428D01*
D10*
D11*
X159400000Y-200400000D02*
X267400000Y-200400000D01*
D10*
D11*
X160832142Y-202478571D02*
X160832142Y-200978571D01*
X161689285Y-202478571D02*
X161046428Y-201621428D01*
X161689285Y-200978571D02*
X160832142Y-201835714D01*
X162332142Y-202478571D02*
X162332142Y-201478571D01*
X162332142Y-200978571D02*
X162260714Y-201050000D01*
X162332142Y-201121428D01*
X162403571Y-201050000D01*
X162332142Y-200978571D01*
X162332142Y-201121428D01*
X163903571Y-202335714D02*
X163832142Y-202407142D01*
X163617857Y-202478571D01*
X163475000Y-202478571D01*
X163260714Y-202407142D01*
X163117857Y-202264285D01*
X163046428Y-202121428D01*
X162975000Y-201835714D01*
X162975000Y-201621428D01*
X163046428Y-201335714D01*
X163117857Y-201192857D01*
X163260714Y-201050000D01*
X163475000Y-200978571D01*
X163617857Y-200978571D01*
X163832142Y-201050000D01*
X163903571Y-201121428D01*
X165189285Y-202478571D02*
X165189285Y-201692857D01*
X165117857Y-201550000D01*
X164975000Y-201478571D01*
X164689285Y-201478571D01*
X164546428Y-201550000D01*
X165189285Y-202407142D02*
X165046428Y-202478571D01*
X164689285Y-202478571D01*
X164546428Y-202407142D01*
X164475000Y-202264285D01*
X164475000Y-202121428D01*
X164546428Y-201978571D01*
X164689285Y-201907142D01*
X165046428Y-201907142D01*
X165189285Y-201835714D01*
X166546428Y-202478571D02*
X166546428Y-200978571D01*
X166546428Y-202407142D02*
X166403571Y-202478571D01*
X166117857Y-202478571D01*
X165975000Y-202407142D01*
X165903571Y-202335714D01*
X165832142Y-202192857D01*
X165832142Y-201764285D01*
X165903571Y-201621428D01*
X165975000Y-201550000D01*
X166117857Y-201478571D01*
X166403571Y-201478571D01*
X166546428Y-201550000D01*
X168403571Y-201692857D02*
X168903571Y-201692857D01*
X169117857Y-202478571D02*
X168403571Y-202478571D01*
X168403571Y-200978571D01*
X169117857Y-200978571D01*
X169760714Y-202335714D02*
X169832142Y-202407142D01*
X169760714Y-202478571D01*
X169689285Y-202407142D01*
X169760714Y-202335714D01*
X169760714Y-202478571D01*
X170475000Y-202478571D02*
X170475000Y-200978571D01*
X170832142Y-200978571D01*
X171046428Y-201050000D01*
X171189285Y-201192857D01*
X171260714Y-201335714D01*
X171332142Y-201621428D01*
X171332142Y-201835714D01*
X171260714Y-202121428D01*
X171189285Y-202264285D01*
X171046428Y-202407142D01*
X170832142Y-202478571D01*
X170475000Y-202478571D01*
X171975000Y-202335714D02*
X172046428Y-202407142D01*
X171975000Y-202478571D01*
X171903571Y-202407142D01*
X171975000Y-202335714D01*
X171975000Y-202478571D01*
X172617857Y-202050000D02*
X173332142Y-202050000D01*
X172475000Y-202478571D02*
X172975000Y-200978571D01*
X173475000Y-202478571D01*
X173975000Y-202335714D02*
X174046428Y-202407142D01*
X173975000Y-202478571D01*
X173903571Y-202407142D01*
X173975000Y-202335714D01*
X173975000Y-202478571D01*
X176975000Y-202478571D02*
X176975000Y-200978571D01*
X177117857Y-201907142D02*
X177546428Y-202478571D01*
X177546428Y-201478571D02*
X176975000Y-202050000D01*
X178189285Y-202478571D02*
X178189285Y-201478571D01*
X178189285Y-200978571D02*
X178117857Y-201050000D01*
X178189285Y-201121428D01*
X178260714Y-201050000D01*
X178189285Y-200978571D01*
X178189285Y-201121428D01*
X179546428Y-202407142D02*
X179403571Y-202478571D01*
X179117857Y-202478571D01*
X178975000Y-202407142D01*
X178903571Y-202335714D01*
X178832142Y-202192857D01*
X178832142Y-201764285D01*
X178903571Y-201621428D01*
X178975000Y-201550000D01*
X179117857Y-201478571D01*
X179403571Y-201478571D01*
X179546428Y-201550000D01*
X180832142Y-202478571D02*
X180832142Y-201692857D01*
X180760714Y-201550000D01*
X180617857Y-201478571D01*
X180332142Y-201478571D01*
X180189285Y-201550000D01*
X180832142Y-202407142D02*
X180689285Y-202478571D01*
X180332142Y-202478571D01*
X180189285Y-202407142D01*
X180117857Y-202264285D01*
X180117857Y-202121428D01*
X180189285Y-201978571D01*
X180332142Y-201907142D01*
X180689285Y-201907142D01*
X180832142Y-201835714D01*
X182189285Y-202478571D02*
X182189285Y-200978571D01*
X182189285Y-202407142D02*
X182046428Y-202478571D01*
X181760714Y-202478571D01*
X181617857Y-202407142D01*
X181546428Y-202335714D01*
X181475000Y-202192857D01*
X181475000Y-201764285D01*
X181546428Y-201621428D01*
X181617857Y-201550000D01*
X181760714Y-201478571D01*
X182046428Y-201478571D01*
X182189285Y-201550000D01*
X184475000Y-203050000D02*
X184403571Y-202978571D01*
X184260714Y-202764285D01*
X184189285Y-202621428D01*
X184117857Y-202407142D01*
X184046428Y-202050000D01*
X184046428Y-201764285D01*
X184117857Y-201407142D01*
X184189285Y-201192857D01*
X184260714Y-201050000D01*
X184403571Y-200835714D01*
X184475000Y-200764285D01*
X185760714Y-200978571D02*
X185046428Y-200978571D01*
X184975000Y-201692857D01*
X185046428Y-201621428D01*
X185189285Y-201550000D01*
X185546428Y-201550000D01*
X185689285Y-201621428D01*
X185760714Y-201692857D01*
X185832142Y-201835714D01*
X185832142Y-202192857D01*
X185760714Y-202335714D01*
X185689285Y-202407142D01*
X185546428Y-202478571D01*
X185189285Y-202478571D01*
X185046428Y-202407142D01*
X184975000Y-202335714D01*
X186475000Y-202335714D02*
X186546428Y-202407142D01*
X186475000Y-202478571D01*
X186403571Y-202407142D01*
X186475000Y-202335714D01*
X186475000Y-202478571D01*
X187975000Y-202478571D02*
X187117857Y-202478571D01*
X187546428Y-202478571D02*
X187546428Y-200978571D01*
X187403571Y-201192857D01*
X187260714Y-201335714D01*
X187117857Y-201407142D01*
X188617857Y-202335714D02*
X188689285Y-202407142D01*
X188617857Y-202478571D01*
X188546428Y-202407142D01*
X188617857Y-202335714D01*
X188617857Y-202478571D01*
X189189285Y-200978571D02*
X190189285Y-200978571D01*
X189546428Y-202478571D01*
X190617857Y-203050000D02*
X190689285Y-202978571D01*
X190832142Y-202764285D01*
X190903571Y-202621428D01*
X190975000Y-202407142D01*
X191046428Y-202050000D01*
X191046428Y-201764285D01*
X190975000Y-201407142D01*
X190903571Y-201192857D01*
X190832142Y-201050000D01*
X190689285Y-200835714D01*
X190617857Y-200764285D01*
X191760714Y-201907142D02*
X192903571Y-201907142D01*
X194403571Y-202478571D02*
X193546428Y-202478571D01*
X193975000Y-202478571D02*
X193975000Y-200978571D01*
X193832142Y-201192857D01*
X193689285Y-201335714D01*
X193546428Y-201407142D01*
D10*
D11*
X159400000Y-197400000D02*
X267400000Y-197400000D01*
D10*
D12*
X246809285Y-199678571D02*
X246309285Y-198964285D01*
X245952142Y-199678571D02*
X245952142Y-198178571D01*
X246523571Y-198178571D01*
X246666428Y-198250000D01*
X246737857Y-198321428D01*
X246809285Y-198464285D01*
X246809285Y-198678571D01*
X246737857Y-198821428D01*
X246666428Y-198892857D01*
X246523571Y-198964285D01*
X245952142Y-198964285D01*
X248023571Y-199607142D02*
X247880714Y-199678571D01*
X247595000Y-199678571D01*
X247452142Y-199607142D01*
X247380714Y-199464285D01*
X247380714Y-198892857D01*
X247452142Y-198750000D01*
X247595000Y-198678571D01*
X247880714Y-198678571D01*
X248023571Y-198750000D01*
X248095000Y-198892857D01*
X248095000Y-199035714D01*
X247380714Y-199178571D01*
X248595000Y-198678571D02*
X248952142Y-199678571D01*
X249309285Y-198678571D01*
X249880714Y-199535714D02*
X249952142Y-199607142D01*
X249880714Y-199678571D01*
X249809285Y-199607142D01*
X249880714Y-199535714D01*
X249880714Y-199678571D01*
X249880714Y-198750000D02*
X249952142Y-198821428D01*
X249880714Y-198892857D01*
X249809285Y-198821428D01*
X249880714Y-198750000D01*
X249880714Y-198892857D01*
X252023571Y-198178571D02*
X252166428Y-198178571D01*
X252309285Y-198250000D01*
X252380714Y-198321428D01*
X252452142Y-198464285D01*
X252523571Y-198750000D01*
X252523571Y-199107142D01*
X252452142Y-199392857D01*
X252380714Y-199535714D01*
X252309285Y-199607142D01*
X252166428Y-199678571D01*
X252023571Y-199678571D01*
X251880714Y-199607142D01*
X251809285Y-199535714D01*
X251737857Y-199392857D01*
X251666428Y-199107142D01*
X251666428Y-198750000D01*
X251737857Y-198464285D01*
X251809285Y-198321428D01*
X251880714Y-198250000D01*
X252023571Y-198178571D01*
X253166428Y-199535714D02*
X253237857Y-199607142D01*
X253166428Y-199678571D01*
X253095000Y-199607142D01*
X253166428Y-199535714D01*
X253166428Y-199678571D01*
X254166428Y-198178571D02*
X254309285Y-198178571D01*
X254452142Y-198250000D01*
X254523571Y-198321428D01*
X254595000Y-198464285D01*
X254666428Y-198750000D01*
X254666428Y-199107142D01*
X254595000Y-199392857D01*
X254523571Y-199535714D01*
X254452142Y-199607142D01*
X254309285Y-199678571D01*
X254166428Y-199678571D01*
X254023571Y-199607142D01*
X253952142Y-199535714D01*
X253880714Y-199392857D01*
X253809285Y-199107142D01*
X253809285Y-198750000D01*
X253880714Y-198464285D01*
X253952142Y-198321428D01*
X254023571Y-198250000D01*
X254166428Y-198178571D01*
X255309285Y-199535714D02*
X255380714Y-199607142D01*
X255309285Y-199678571D01*
X255237857Y-199607142D01*
X255309285Y-199535714D01*
X255309285Y-199678571D01*
X256309285Y-198178571D02*
X256452142Y-198178571D01*
X256595000Y-198250000D01*
X256666428Y-198321428D01*
X256737857Y-198464285D01*
X256809285Y-198750000D01*
X256809285Y-199107142D01*
X256737857Y-199392857D01*
X256666428Y-199535714D01*
X256595000Y-199607142D01*
X256452142Y-199678571D01*
X256309285Y-199678571D01*
X256166428Y-199607142D01*
X256095000Y-199535714D01*
X256023571Y-199392857D01*
X255952142Y-199107142D01*
X255952142Y-198750000D01*
X256023571Y-198464285D01*
X256095000Y-198321428D01*
X256166428Y-198250000D01*
X256309285Y-198178571D01*
X257380714Y-198321428D02*
X257452142Y-198250000D01*
X257595000Y-198178571D01*
X257952142Y-198178571D01*
X258095000Y-198250000D01*
X258166428Y-198321428D01*
X258237857Y-198464285D01*
X258237857Y-198607142D01*
X258166428Y-198821428D01*
X257309285Y-199678571D01*
X258237857Y-199678571D01*
D10*
D11*
X160760714Y-199607142D02*
X160975000Y-199678571D01*
X161332142Y-199678571D01*
X161475000Y-199607142D01*
X161546428Y-199535714D01*
X161617857Y-199392857D01*
X161617857Y-199250000D01*
X161546428Y-199107142D01*
X161475000Y-199035714D01*
X161332142Y-198964285D01*
X161046428Y-198892857D01*
X160903571Y-198821428D01*
X160832142Y-198750000D01*
X160760714Y-198607142D01*
X160760714Y-198464285D01*
X160832142Y-198321428D01*
X160903571Y-198250000D01*
X161046428Y-198178571D01*
X161403571Y-198178571D01*
X161617857Y-198250000D01*
X162260714Y-199678571D02*
X162260714Y-198678571D01*
X162260714Y-198178571D02*
X162189285Y-198250000D01*
X162260714Y-198321428D01*
X162332142Y-198250000D01*
X162260714Y-198178571D01*
X162260714Y-198321428D01*
X162832142Y-198678571D02*
X163617857Y-198678571D01*
X162832142Y-199678571D01*
X163617857Y-199678571D01*
X164760714Y-199607142D02*
X164617857Y-199678571D01*
X164332142Y-199678571D01*
X164189285Y-199607142D01*
X164117857Y-199464285D01*
X164117857Y-198892857D01*
X164189285Y-198750000D01*
X164332142Y-198678571D01*
X164617857Y-198678571D01*
X164760714Y-198750000D01*
X164832142Y-198892857D01*
X164832142Y-199035714D01*
X164117857Y-199178571D01*
X165475000Y-199535714D02*
X165546428Y-199607142D01*
X165475000Y-199678571D01*
X165403571Y-199607142D01*
X165475000Y-199535714D01*
X165475000Y-199678571D01*
X165475000Y-198750000D02*
X165546428Y-198821428D01*
X165475000Y-198892857D01*
X165403571Y-198821428D01*
X165475000Y-198750000D01*
X165475000Y-198892857D01*
X167332142Y-198178571D02*
X167332142Y-199392857D01*
X167403571Y-199535714D01*
X167475000Y-199607142D01*
X167617857Y-199678571D01*
X167903571Y-199678571D01*
X168046428Y-199607142D01*
X168117857Y-199535714D01*
X168189285Y-199392857D01*
X168189285Y-198178571D01*
X168832142Y-199607142D02*
X169046428Y-199678571D01*
X169403571Y-199678571D01*
X169546428Y-199607142D01*
X169617857Y-199535714D01*
X169689285Y-199392857D01*
X169689285Y-199250000D01*
X169617857Y-199107142D01*
X169546428Y-199035714D01*
X169403571Y-198964285D01*
X169117857Y-198892857D01*
X168975000Y-198821428D01*
X168903571Y-198750000D01*
X168832142Y-198607142D01*
X168832142Y-198464285D01*
X168903571Y-198321428D01*
X168975000Y-198250000D01*
X169117857Y-198178571D01*
X169475000Y-198178571D01*
X169689285Y-198250000D01*
X171046428Y-199678571D02*
X170332142Y-199678571D01*
X170332142Y-198178571D01*
X172117857Y-199607142D02*
X171975000Y-199678571D01*
X171689285Y-199678571D01*
X171546428Y-199607142D01*
X171475000Y-199464285D01*
X171475000Y-198892857D01*
X171546428Y-198750000D01*
X171689285Y-198678571D01*
X171975000Y-198678571D01*
X172117857Y-198750000D01*
X172189285Y-198892857D01*
X172189285Y-199035714D01*
X171475000Y-199178571D01*
X172617857Y-198678571D02*
X173189285Y-198678571D01*
X172832142Y-198178571D02*
X172832142Y-199464285D01*
X172903571Y-199607142D01*
X173046428Y-199678571D01*
X173189285Y-199678571D01*
X173475000Y-198678571D02*
X174046428Y-198678571D01*
X173689285Y-198178571D02*
X173689285Y-199464285D01*
X173760714Y-199607142D01*
X173903571Y-199678571D01*
X174046428Y-199678571D01*
X175117857Y-199607142D02*
X174975000Y-199678571D01*
X174689285Y-199678571D01*
X174546428Y-199607142D01*
X174475000Y-199464285D01*
X174475000Y-198892857D01*
X174546428Y-198750000D01*
X174689285Y-198678571D01*
X174975000Y-198678571D01*
X175117857Y-198750000D01*
X175189285Y-198892857D01*
X175189285Y-199035714D01*
X174475000Y-199178571D01*
X175832142Y-199678571D02*
X175832142Y-198678571D01*
X175832142Y-198964285D02*
X175903571Y-198821428D01*
X175975000Y-198750000D01*
X176117857Y-198678571D01*
X176260714Y-198678571D01*
D10*
D11*
X245832142Y-202478571D02*
X245832142Y-200978571D01*
X247189285Y-202478571D02*
X247189285Y-200978571D01*
X247189285Y-202407142D02*
X247046428Y-202478571D01*
X246760714Y-202478571D01*
X246617857Y-202407142D01*
X246546428Y-202335714D01*
X246475000Y-202192857D01*
X246475000Y-201764285D01*
X246546428Y-201621428D01*
X246617857Y-201550000D01*
X246760714Y-201478571D01*
X247046428Y-201478571D01*
X247189285Y-201550000D01*
X247903571Y-202335714D02*
X247975000Y-202407142D01*
X247903571Y-202478571D01*
X247832142Y-202407142D01*
X247903571Y-202335714D01*
X247903571Y-202478571D01*
X247903571Y-201550000D02*
X247975000Y-201621428D01*
X247903571Y-201692857D01*
X247832142Y-201621428D01*
X247903571Y-201550000D01*
X247903571Y-201692857D01*
X250546428Y-202478571D02*
X249689285Y-202478571D01*
X250117857Y-202478571D02*
X250117857Y-200978571D01*
X249975000Y-201192857D01*
X249832142Y-201335714D01*
X249689285Y-201407142D01*
X252260714Y-200907142D02*
X250975000Y-202835714D01*
X253546428Y-202478571D02*
X252689285Y-202478571D01*
X253117857Y-202478571D02*
X253117857Y-200978571D01*
X252975000Y-201192857D01*
X252832142Y-201335714D01*
X252689285Y-201407142D01*
D10*
D11*
X159400000Y-193400000D02*
X267400000Y-193400000D01*
D10*
D13*
X161112380Y-194104761D02*
X162255238Y-194104761D01*
X161433809Y-196104761D02*
X161683809Y-194104761D01*
X162671904Y-196104761D02*
X162838571Y-194771428D01*
X162921904Y-194104761D02*
X162814761Y-194200000D01*
X162898095Y-194295238D01*
X163005238Y-194200000D01*
X162921904Y-194104761D01*
X162898095Y-194295238D01*
X163505238Y-194771428D02*
X164267142Y-194771428D01*
X163874285Y-194104761D02*
X163660000Y-195819047D01*
X163731428Y-196009523D01*
X163910000Y-196104761D01*
X164100476Y-196104761D01*
X165052857Y-196104761D02*
X164874285Y-196009523D01*
X164802857Y-195819047D01*
X165017142Y-194104761D01*
X166588571Y-196009523D02*
X166386190Y-196104761D01*
X166005238Y-196104761D01*
X165826666Y-196009523D01*
X165755238Y-195819047D01*
X165850476Y-195057142D01*
X165969523Y-194866666D01*
X166171904Y-194771428D01*
X166552857Y-194771428D01*
X166731428Y-194866666D01*
X166802857Y-195057142D01*
X166779047Y-195247619D01*
X165802857Y-195438095D01*
X167552857Y-195914285D02*
X167636190Y-196009523D01*
X167529047Y-196104761D01*
X167445714Y-196009523D01*
X167552857Y-195914285D01*
X167529047Y-196104761D01*
X167683809Y-194866666D02*
X167767142Y-194961904D01*
X167660000Y-195057142D01*
X167576666Y-194961904D01*
X167683809Y-194866666D01*
X167660000Y-195057142D01*
X171171904Y-195914285D02*
X171064761Y-196009523D01*
X170767142Y-196104761D01*
X170576666Y-196104761D01*
X170302857Y-196009523D01*
X170136190Y-195819047D01*
X170064761Y-195628571D01*
X170017142Y-195247619D01*
X170052857Y-194961904D01*
X170195714Y-194580952D01*
X170314761Y-194390476D01*
X170529047Y-194200000D01*
X170826666Y-194104761D01*
X171017142Y-194104761D01*
X171290952Y-194200000D01*
X171374285Y-194295238D01*
X171981428Y-195533333D02*
X172933809Y-195533333D01*
X171719523Y-196104761D02*
X172636190Y-194104761D01*
X173052857Y-196104761D01*
X173719523Y-196104761D02*
X173969523Y-194104761D01*
X174862380Y-196104761D01*
X175112380Y-194104761D01*
X175981428Y-194771428D02*
X175814761Y-196104761D01*
X175957619Y-194961904D02*
X176064761Y-194866666D01*
X176267142Y-194771428D01*
X176552857Y-194771428D01*
X176731428Y-194866666D01*
X176802857Y-195057142D01*
X176671904Y-196104761D01*
X178398095Y-196009523D02*
X178195714Y-196104761D01*
X177814761Y-196104761D01*
X177636190Y-196009523D01*
X177564761Y-195819047D01*
X177660000Y-195057142D01*
X177779047Y-194866666D01*
X177981428Y-194771428D01*
X178362380Y-194771428D01*
X178540952Y-194866666D01*
X178612380Y-195057142D01*
X178588571Y-195247619D01*
X177612380Y-195438095D01*
X180207619Y-196009523D02*
X180005238Y-196104761D01*
X179624285Y-196104761D01*
X179445714Y-196009523D01*
X179362380Y-195914285D01*
X179290952Y-195723809D01*
X179362380Y-195152380D01*
X179481428Y-194961904D01*
X179588571Y-194866666D01*
X179790952Y-194771428D01*
X180171904Y-194771428D01*
X180350476Y-194866666D01*
X180933809Y-194771428D02*
X181695714Y-194771428D01*
X181302857Y-194104761D02*
X181088571Y-195819047D01*
X181160000Y-196009523D01*
X181338571Y-196104761D01*
X181529047Y-196104761D01*
X184862380Y-196104761D02*
X184314761Y-195152380D01*
X183719523Y-196104761D02*
X183969523Y-194104761D01*
X184731428Y-194104761D01*
X184910000Y-194200000D01*
X184993333Y-194295238D01*
X185064761Y-194485714D01*
X185029047Y-194771428D01*
X184910000Y-194961904D01*
X184802857Y-195057142D01*
X184600476Y-195152380D01*
X183838571Y-195152380D01*
X186493333Y-196009523D02*
X186290952Y-196104761D01*
X185910000Y-196104761D01*
X185731428Y-196009523D01*
X185660000Y-195819047D01*
X185755238Y-195057142D01*
X185874285Y-194866666D01*
X186076666Y-194771428D01*
X186457619Y-194771428D01*
X186636190Y-194866666D01*
X186707619Y-195057142D01*
X186683809Y-195247619D01*
X185707619Y-195438095D01*
X188290952Y-196104761D02*
X188421904Y-195057142D01*
X188350476Y-194866666D01*
X188171904Y-194771428D01*
X187790952Y-194771428D01*
X187588571Y-194866666D01*
X188302857Y-196009523D02*
X188100476Y-196104761D01*
X187624285Y-196104761D01*
X187445714Y-196009523D01*
X187374285Y-195819047D01*
X187398095Y-195628571D01*
X187517142Y-195438095D01*
X187719523Y-195342857D01*
X188195714Y-195342857D01*
X188398095Y-195247619D01*
X190100476Y-196104761D02*
X190350476Y-194104761D01*
X190112380Y-196009523D02*
X189910000Y-196104761D01*
X189529047Y-196104761D01*
X189350476Y-196009523D01*
X189267142Y-195914285D01*
X189195714Y-195723809D01*
X189267142Y-195152380D01*
X189386190Y-194961904D01*
X189493333Y-194866666D01*
X189695714Y-194771428D01*
X190076666Y-194771428D01*
X190255238Y-194866666D01*
X191826666Y-196009523D02*
X191624285Y-196104761D01*
X191243333Y-196104761D01*
X191064761Y-196009523D01*
X190993333Y-195819047D01*
X191088571Y-195057142D01*
X191207619Y-194866666D01*
X191410000Y-194771428D01*
X191790952Y-194771428D01*
X191969523Y-194866666D01*
X192040952Y-195057142D01*
X192017142Y-195247619D01*
X191040952Y-195438095D01*
X192767142Y-196104761D02*
X192933809Y-194771428D01*
X192886190Y-195152380D02*
X193005238Y-194961904D01*
X193112380Y-194866666D01*
X193314761Y-194771428D01*
X193505238Y-194771428D01*
X195529047Y-196104761D02*
X195779047Y-194104761D01*
X196540952Y-194104761D01*
X196719523Y-194200000D01*
X196802857Y-194295238D01*
X196874285Y-194485714D01*
X196838571Y-194771428D01*
X196719523Y-194961904D01*
X196612380Y-195057142D01*
X196410000Y-195152380D01*
X195648095Y-195152380D01*
X198695714Y-195914285D02*
X198588571Y-196009523D01*
X198290952Y-196104761D01*
X198100476Y-196104761D01*
X197826666Y-196009523D01*
X197660000Y-195819047D01*
X197588571Y-195628571D01*
X197540952Y-195247619D01*
X197576666Y-194961904D01*
X197719523Y-194580952D01*
X197838571Y-194390476D01*
X198052857Y-194200000D01*
X198350476Y-194104761D01*
X198540952Y-194104761D01*
X198814761Y-194200000D01*
X198898095Y-194295238D01*
X200326666Y-195057142D02*
X200600476Y-195152380D01*
X200683809Y-195247619D01*
X200755238Y-195438095D01*
X200719523Y-195723809D01*
X200600476Y-195914285D01*
X200493333Y-196009523D01*
X200290952Y-196104761D01*
X199529047Y-196104761D01*
X199779047Y-194104761D01*
X200445714Y-194104761D01*
X200624285Y-194200000D01*
X200707619Y-194295238D01*
X200779047Y-194485714D01*
X200755238Y-194676190D01*
X200636190Y-194866666D01*
X200529047Y-194961904D01*
X200326666Y-195057142D01*
X199660000Y-195057142D01*
X204005238Y-196104761D02*
X203052857Y-196104761D01*
X203302857Y-194104761D01*
X205529047Y-196104761D02*
X205660000Y-195057142D01*
X205588571Y-194866666D01*
X205410000Y-194771428D01*
X205029047Y-194771428D01*
X204826666Y-194866666D01*
X205540952Y-196009523D02*
X205338571Y-196104761D01*
X204862380Y-196104761D01*
X204683809Y-196009523D01*
X204612380Y-195819047D01*
X204636190Y-195628571D01*
X204755238Y-195438095D01*
X204957619Y-195342857D01*
X205433809Y-195342857D01*
X205636190Y-195247619D01*
X206457619Y-194771428D02*
X206767142Y-196104761D01*
X207410000Y-194771428D02*
X206767142Y-196104761D01*
X206517142Y-196580952D01*
X206410000Y-196676190D01*
X206207619Y-196771428D01*
X208290952Y-196104761D02*
X208112380Y-196009523D01*
X208029047Y-195914285D01*
X207957619Y-195723809D01*
X208029047Y-195152380D01*
X208148095Y-194961904D01*
X208255238Y-194866666D01*
X208457619Y-194771428D01*
X208743333Y-194771428D01*
X208921904Y-194866666D01*
X209005238Y-194961904D01*
X209076666Y-195152380D01*
X209005238Y-195723809D01*
X208886190Y-195914285D01*
X208779047Y-196009523D01*
X208576666Y-196104761D01*
X208290952Y-196104761D01*
X210838571Y-194771428D02*
X210671904Y-196104761D01*
X209981428Y-194771428D02*
X209850476Y-195819047D01*
X209921904Y-196009523D01*
X210100476Y-196104761D01*
X210386190Y-196104761D01*
X210588571Y-196009523D01*
X210695714Y-195914285D01*
X211505238Y-194771428D02*
X212267142Y-194771428D01*
X211874285Y-194104761D02*
X211659999Y-195819047D01*
X211731428Y-196009523D01*
X211909999Y-196104761D01*
X212100476Y-196104761D01*
D10*
D11*
X161332142Y-191492857D02*
X160832142Y-191492857D01*
X160832142Y-192278571D02*
X160832142Y-190778571D01*
X161546428Y-190778571D01*
X162117857Y-192278571D02*
X162117857Y-191278571D01*
X162117857Y-190778571D02*
X162046428Y-190850000D01*
X162117857Y-190921428D01*
X162189285Y-190850000D01*
X162117857Y-190778571D01*
X162117857Y-190921428D01*
X163046428Y-192278571D02*
X162903571Y-192207142D01*
X162832142Y-192064285D01*
X162832142Y-190778571D01*
X164189285Y-192207142D02*
X164046428Y-192278571D01*
X163760714Y-192278571D01*
X163617857Y-192207142D01*
X163546428Y-192064285D01*
X163546428Y-191492857D01*
X163617857Y-191350000D01*
X163760714Y-191278571D01*
X164046428Y-191278571D01*
X164189285Y-191350000D01*
X164260714Y-191492857D01*
X164260714Y-191635714D01*
X163546428Y-191778571D01*
X164903571Y-192135714D02*
X164975000Y-192207142D01*
X164903571Y-192278571D01*
X164832142Y-192207142D01*
X164903571Y-192135714D01*
X164903571Y-192278571D01*
X164903571Y-191350000D02*
X164975000Y-191421428D01*
X164903571Y-191492857D01*
X164832142Y-191421428D01*
X164903571Y-191350000D01*
X164903571Y-191492857D01*
X167617857Y-192278571D02*
X167117857Y-191564285D01*
X166760714Y-192278571D02*
X166760714Y-190778571D01*
X167332142Y-190778571D01*
X167475000Y-190850000D01*
X167546428Y-190921428D01*
X167617857Y-191064285D01*
X167617857Y-191278571D01*
X167546428Y-191421428D01*
X167475000Y-191492857D01*
X167332142Y-191564285D01*
X166760714Y-191564285D01*
X168832142Y-192207142D02*
X168689285Y-192278571D01*
X168403571Y-192278571D01*
X168260714Y-192207142D01*
X168189285Y-192064285D01*
X168189285Y-191492857D01*
X168260714Y-191350000D01*
X168403571Y-191278571D01*
X168689285Y-191278571D01*
X168832142Y-191350000D01*
X168903571Y-191492857D01*
X168903571Y-191635714D01*
X168189285Y-191778571D01*
X170189285Y-192278571D02*
X170189285Y-191492857D01*
X170117857Y-191350000D01*
X169975000Y-191278571D01*
X169689285Y-191278571D01*
X169546428Y-191350000D01*
X170189285Y-192207142D02*
X170046428Y-192278571D01*
X169689285Y-192278571D01*
X169546428Y-192207142D01*
X169475000Y-192064285D01*
X169475000Y-191921428D01*
X169546428Y-191778571D01*
X169689285Y-191707142D01*
X170046428Y-191707142D01*
X170189285Y-191635714D01*
X171546428Y-192278571D02*
X171546428Y-190778571D01*
X171546428Y-192207142D02*
X171403571Y-192278571D01*
X171117857Y-192278571D01*
X170975000Y-192207142D01*
X170903571Y-192135714D01*
X170832142Y-191992857D01*
X170832142Y-191564285D01*
X170903571Y-191421428D01*
X170975000Y-191350000D01*
X171117857Y-191278571D01*
X171403571Y-191278571D01*
X171546428Y-191350000D01*
X172832142Y-192207142D02*
X172689285Y-192278571D01*
X172403571Y-192278571D01*
X172260714Y-192207142D01*
X172189285Y-192064285D01*
X172189285Y-191492857D01*
X172260714Y-191350000D01*
X172403571Y-191278571D01*
X172689285Y-191278571D01*
X172832142Y-191350000D01*
X172903571Y-191492857D01*
X172903571Y-191635714D01*
X172189285Y-191778571D01*
X173546428Y-192278571D02*
X173546428Y-191278571D01*
X173546428Y-191564285D02*
X173617857Y-191421428D01*
X173689285Y-191350000D01*
X173832142Y-191278571D01*
X173975000Y-191278571D01*
X174475000Y-192135714D02*
X174546428Y-192207142D01*
X174475000Y-192278571D01*
X174403571Y-192207142D01*
X174475000Y-192135714D01*
X174475000Y-192278571D01*
X175189285Y-192278571D02*
X175189285Y-190778571D01*
X175332142Y-191707142D02*
X175760714Y-192278571D01*
X175760714Y-191278571D02*
X175189285Y-191850000D01*
X176403571Y-192278571D02*
X176403571Y-191278571D01*
X176403571Y-190778571D02*
X176332142Y-190850000D01*
X176403571Y-190921428D01*
X176475000Y-190850000D01*
X176403571Y-190778571D01*
X176403571Y-190921428D01*
X177760714Y-192207142D02*
X177617857Y-192278571D01*
X177332142Y-192278571D01*
X177189285Y-192207142D01*
X177117857Y-192135714D01*
X177046428Y-191992857D01*
X177046428Y-191564285D01*
X177117857Y-191421428D01*
X177189285Y-191350000D01*
X177332142Y-191278571D01*
X177617857Y-191278571D01*
X177760714Y-191350000D01*
X179046428Y-192278571D02*
X179046428Y-191492857D01*
X178975000Y-191350000D01*
X178832142Y-191278571D01*
X178546428Y-191278571D01*
X178403571Y-191350000D01*
X179046428Y-192207142D02*
X178903571Y-192278571D01*
X178546428Y-192278571D01*
X178403571Y-192207142D01*
X178332142Y-192064285D01*
X178332142Y-191921428D01*
X178403571Y-191778571D01*
X178546428Y-191707142D01*
X178903571Y-191707142D01*
X179046428Y-191635714D01*
X180403571Y-192278571D02*
X180403571Y-190778571D01*
X180403571Y-192207142D02*
X180260714Y-192278571D01*
X179975000Y-192278571D01*
X179832142Y-192207142D01*
X179760714Y-192135714D01*
X179689285Y-191992857D01*
X179689285Y-191564285D01*
X179760714Y-191421428D01*
X179832142Y-191350000D01*
X179975000Y-191278571D01*
X180260714Y-191278571D01*
X180403571Y-191350000D01*
X180760714Y-192421428D02*
X181903571Y-192421428D01*
X182260714Y-191278571D02*
X182260714Y-192778571D01*
X182260714Y-191350000D02*
X182403571Y-191278571D01*
X182689285Y-191278571D01*
X182832142Y-191350000D01*
X182903571Y-191421428D01*
X182975000Y-191564285D01*
X182975000Y-191992857D01*
X182903571Y-192135714D01*
X182832142Y-192207142D01*
X182689285Y-192278571D01*
X182403571Y-192278571D01*
X182260714Y-192207142D01*
X184260714Y-192207142D02*
X184117857Y-192278571D01*
X183832142Y-192278571D01*
X183689285Y-192207142D01*
X183617857Y-192135714D01*
X183546428Y-191992857D01*
X183546428Y-191564285D01*
X183617857Y-191421428D01*
X183689285Y-191350000D01*
X183832142Y-191278571D01*
X184117857Y-191278571D01*
X184260714Y-191350000D01*
X184903571Y-192278571D02*
X184903571Y-190778571D01*
X184903571Y-191350000D02*
X185046428Y-191278571D01*
X185332142Y-191278571D01*
X185475000Y-191350000D01*
X185546428Y-191421428D01*
X185617857Y-191564285D01*
X185617857Y-191992857D01*
X185546428Y-192135714D01*
X185475000Y-192207142D01*
X185332142Y-192278571D01*
X185046428Y-192278571D01*
X184903571Y-192207142D01*
D10*
D11*
X159400000Y-187400000D02*
X267400000Y-187400000D01*
D10*
D11*
X160760714Y-189507142D02*
X160975000Y-189578571D01*
X161332142Y-189578571D01*
X161475000Y-189507142D01*
X161546428Y-189435714D01*
X161617857Y-189292857D01*
X161617857Y-189150000D01*
X161546428Y-189007142D01*
X161475000Y-188935714D01*
X161332142Y-188864285D01*
X161046428Y-188792857D01*
X160903571Y-188721428D01*
X160832142Y-188650000D01*
X160760714Y-188507142D01*
X160760714Y-188364285D01*
X160832142Y-188221428D01*
X160903571Y-188150000D01*
X161046428Y-188078571D01*
X161403571Y-188078571D01*
X161617857Y-188150000D01*
X162260714Y-189578571D02*
X162260714Y-188078571D01*
X162903571Y-189578571D02*
X162903571Y-188792857D01*
X162832142Y-188650000D01*
X162689285Y-188578571D01*
X162475000Y-188578571D01*
X162332142Y-188650000D01*
X162260714Y-188721428D01*
X164189285Y-189507142D02*
X164046428Y-189578571D01*
X163760714Y-189578571D01*
X163617857Y-189507142D01*
X163546428Y-189364285D01*
X163546428Y-188792857D01*
X163617857Y-188650000D01*
X163760714Y-188578571D01*
X164046428Y-188578571D01*
X164189285Y-188650000D01*
X164260714Y-188792857D01*
X164260714Y-188935714D01*
X163546428Y-189078571D01*
X165475000Y-189507142D02*
X165332142Y-189578571D01*
X165046428Y-189578571D01*
X164903571Y-189507142D01*
X164832142Y-189364285D01*
X164832142Y-188792857D01*
X164903571Y-188650000D01*
X165046428Y-188578571D01*
X165332142Y-188578571D01*
X165475000Y-188650000D01*
X165546428Y-188792857D01*
X165546428Y-188935714D01*
X164832142Y-189078571D01*
X165975000Y-188578571D02*
X166546428Y-188578571D01*
X166189285Y-188078571D02*
X166189285Y-189364285D01*
X166260714Y-189507142D01*
X166403571Y-189578571D01*
X166546428Y-189578571D01*
X167046428Y-189435714D02*
X167117857Y-189507142D01*
X167046428Y-189578571D01*
X166975000Y-189507142D01*
X167046428Y-189435714D01*
X167046428Y-189578571D01*
X167046428Y-188650000D02*
X167117857Y-188721428D01*
X167046428Y-188792857D01*
X166975000Y-188721428D01*
X167046428Y-188650000D01*
X167046428Y-188792857D01*
D10*
D12*
X161809285Y-186435714D02*
X161737857Y-186507142D01*
X161523571Y-186578571D01*
X161380714Y-186578571D01*
X161166428Y-186507142D01*
X161023571Y-186364285D01*
X160952142Y-186221428D01*
X160880714Y-185935714D01*
X160880714Y-185721428D01*
X160952142Y-185435714D01*
X161023571Y-185292857D01*
X161166428Y-185150000D01*
X161380714Y-185078571D01*
X161523571Y-185078571D01*
X161737857Y-185150000D01*
X161809285Y-185221428D01*
X162380714Y-186150000D02*
X163095000Y-186150000D01*
X162237857Y-186578571D02*
X162737857Y-185078571D01*
X163237857Y-186578571D01*
X163737857Y-186578571D02*
X163737857Y-185078571D01*
X164595000Y-186578571D01*
X164595000Y-185078571D01*
X165095000Y-185578571D02*
X165666428Y-185578571D01*
X165309285Y-185078571D02*
X165309285Y-186364285D01*
X165380714Y-186507142D01*
X165523571Y-186578571D01*
X165666428Y-186578571D01*
X166737857Y-186507142D02*
X166595000Y-186578571D01*
X166309285Y-186578571D01*
X166166428Y-186507142D01*
X166095000Y-186364285D01*
X166095000Y-185792857D01*
X166166428Y-185650000D01*
X166309285Y-185578571D01*
X166595000Y-185578571D01*
X166737857Y-185650000D01*
X166809285Y-185792857D01*
X166809285Y-185935714D01*
X166095000Y-186078571D01*
X168095000Y-186507142D02*
X167952142Y-186578571D01*
X167666428Y-186578571D01*
X167523571Y-186507142D01*
X167452142Y-186435714D01*
X167380714Y-186292857D01*
X167380714Y-185864285D01*
X167452142Y-185721428D01*
X167523571Y-185650000D01*
X167666428Y-185578571D01*
X167952142Y-185578571D01*
X168095000Y-185650000D01*
X168737857Y-186578571D02*
X168737857Y-185078571D01*
X169380714Y-186578571D02*
X169380714Y-185792857D01*
X169309285Y-185650000D01*
X169166428Y-185578571D01*
X168952142Y-185578571D01*
X168809285Y-185650000D01*
X168737857Y-185721428D01*
D10*
D11*
X161689285Y-183435714D02*
X161617857Y-183507142D01*
X161403571Y-183578571D01*
X161260714Y-183578571D01*
X161046428Y-183507142D01*
X160903571Y-183364285D01*
X160832142Y-183221428D01*
X160760714Y-182935714D01*
X160760714Y-182721428D01*
X160832142Y-182435714D01*
X160903571Y-182292857D01*
X161046428Y-182150000D01*
X161260714Y-182078571D01*
X161403571Y-182078571D01*
X161617857Y-182150000D01*
X161689285Y-182221428D01*
X162332142Y-183578571D02*
X162332142Y-182578571D01*
X162332142Y-182864285D02*
X162403571Y-182721428D01*
X162475000Y-182650000D01*
X162617857Y-182578571D01*
X162760714Y-182578571D01*
X163832142Y-183507142D02*
X163689285Y-183578571D01*
X163403571Y-183578571D01*
X163260714Y-183507142D01*
X163189285Y-183364285D01*
X163189285Y-182792857D01*
X163260714Y-182650000D01*
X163403571Y-182578571D01*
X163689285Y-182578571D01*
X163832142Y-182650000D01*
X163903571Y-182792857D01*
X163903571Y-182935714D01*
X163189285Y-183078571D01*
X165189285Y-183578571D02*
X165189285Y-182792857D01*
X165117857Y-182650000D01*
X164975000Y-182578571D01*
X164689285Y-182578571D01*
X164546428Y-182650000D01*
X165189285Y-183507142D02*
X165046428Y-183578571D01*
X164689285Y-183578571D01*
X164546428Y-183507142D01*
X164475000Y-183364285D01*
X164475000Y-183221428D01*
X164546428Y-183078571D01*
X164689285Y-183007142D01*
X165046428Y-183007142D01*
X165189285Y-182935714D01*
X165689285Y-182578571D02*
X166260714Y-182578571D01*
X165903571Y-182078571D02*
X165903571Y-183364285D01*
X165975000Y-183507142D01*
X166117857Y-183578571D01*
X166260714Y-183578571D01*
X167332142Y-183507142D02*
X167189285Y-183578571D01*
X166903571Y-183578571D01*
X166760714Y-183507142D01*
X166689285Y-183364285D01*
X166689285Y-182792857D01*
X166760714Y-182650000D01*
X166903571Y-182578571D01*
X167189285Y-182578571D01*
X167332142Y-182650000D01*
X167403571Y-182792857D01*
X167403571Y-182935714D01*
X166689285Y-183078571D01*
X168689285Y-183578571D02*
X168689285Y-182078571D01*
X168689285Y-183507142D02*
X168546428Y-183578571D01*
X168260714Y-183578571D01*
X168117857Y-183507142D01*
X168046428Y-183435714D01*
X167975000Y-183292857D01*
X167975000Y-182864285D01*
X168046428Y-182721428D01*
X168117857Y-182650000D01*
X168260714Y-182578571D01*
X168546428Y-182578571D01*
X168689285Y-182650000D01*
X170546428Y-183578571D02*
X170546428Y-182078571D01*
X170546428Y-182650000D02*
X170689285Y-182578571D01*
X170975000Y-182578571D01*
X171117857Y-182650000D01*
X171189285Y-182721428D01*
X171260714Y-182864285D01*
X171260714Y-183292857D01*
X171189285Y-183435714D01*
X171117857Y-183507142D01*
X170975000Y-183578571D01*
X170689285Y-183578571D01*
X170546428Y-183507142D01*
X171760714Y-182578571D02*
X172117857Y-183578571D01*
X172475000Y-182578571D02*
X172117857Y-183578571D01*
X171975000Y-183935714D01*
X171903571Y-184007142D01*
X171760714Y-184078571D01*
X175046428Y-183435714D02*
X174975000Y-183507142D01*
X174760714Y-183578571D01*
X174617857Y-183578571D01*
X174403571Y-183507142D01*
X174260714Y-183364285D01*
X174189285Y-183221428D01*
X174117857Y-182935714D01*
X174117857Y-182721428D01*
X174189285Y-182435714D01*
X174260714Y-182292857D01*
X174403571Y-182150000D01*
X174617857Y-182078571D01*
X174760714Y-182078571D01*
X174975000Y-182150000D01*
X175046428Y-182221428D01*
X175689285Y-183578571D02*
X175689285Y-182078571D01*
X176332142Y-183578571D02*
X176332142Y-182792857D01*
X176260714Y-182650000D01*
X176117857Y-182578571D01*
X175903571Y-182578571D01*
X175760714Y-182650000D01*
X175689285Y-182721428D01*
X177260714Y-183578571D02*
X177117857Y-183507142D01*
X177046428Y-183435714D01*
X176975000Y-183292857D01*
X176975000Y-182864285D01*
X177046428Y-182721428D01*
X177117857Y-182650000D01*
X177260714Y-182578571D01*
X177475000Y-182578571D01*
X177617857Y-182650000D01*
X177689285Y-182721428D01*
X177760714Y-182864285D01*
X177760714Y-183292857D01*
X177689285Y-183435714D01*
X177617857Y-183507142D01*
X177475000Y-183578571D01*
X177260714Y-183578571D01*
X178617857Y-183578571D02*
X178475000Y-183507142D01*
X178403571Y-183435714D01*
X178332142Y-183292857D01*
X178332142Y-182864285D01*
X178403571Y-182721428D01*
X178475000Y-182650000D01*
X178617857Y-182578571D01*
X178832142Y-182578571D01*
X178975000Y-182650000D01*
X179046428Y-182721428D01*
X179117857Y-182864285D01*
X179117857Y-183292857D01*
X179046428Y-183435714D01*
X178975000Y-183507142D01*
X178832142Y-183578571D01*
X178617857Y-183578571D01*
X179760714Y-182578571D02*
X179760714Y-183578571D01*
X179760714Y-182721428D02*
X179832142Y-182650000D01*
X179975000Y-182578571D01*
X180189285Y-182578571D01*
X180332142Y-182650000D01*
X180403571Y-182792857D01*
X180403571Y-183578571D01*
X181760714Y-182578571D02*
X181760714Y-183792857D01*
X181689285Y-183935714D01*
X181617857Y-184007142D01*
X181475000Y-184078571D01*
X181260714Y-184078571D01*
X181117857Y-184007142D01*
X181760714Y-183507142D02*
X181617857Y-183578571D01*
X181332142Y-183578571D01*
X181189285Y-183507142D01*
X181117857Y-183435714D01*
X181046428Y-183292857D01*
X181046428Y-182864285D01*
X181117857Y-182721428D01*
X181189285Y-182650000D01*
X181332142Y-182578571D01*
X181617857Y-182578571D01*
X181760714Y-182650000D01*
X184046428Y-182078571D02*
X184046428Y-183150000D01*
X183975000Y-183364285D01*
X183832142Y-183507142D01*
X183617857Y-183578571D01*
X183475000Y-183578571D01*
X184760714Y-183578571D02*
X184760714Y-182578571D01*
X184760714Y-182078571D02*
X184689285Y-182150000D01*
X184760714Y-182221428D01*
X184832142Y-182150000D01*
X184760714Y-182078571D01*
X184760714Y-182221428D01*
X185475000Y-182578571D02*
X185475000Y-183578571D01*
X185475000Y-182721428D02*
X185546428Y-182650000D01*
X185689285Y-182578571D01*
X185903571Y-182578571D01*
X186046428Y-182650000D01*
X186117857Y-182792857D01*
X186117857Y-183578571D01*
X187975000Y-183578571D02*
X187975000Y-182078571D01*
X188832142Y-183578571D01*
X188832142Y-182078571D01*
X190189285Y-182578571D02*
X190189285Y-183792857D01*
X190117857Y-183935714D01*
X190046428Y-184007142D01*
X189903571Y-184078571D01*
X189689285Y-184078571D01*
X189546428Y-184007142D01*
X190189285Y-183507142D02*
X190046428Y-183578571D01*
X189760714Y-183578571D01*
X189617857Y-183507142D01*
X189546428Y-183435714D01*
X189475000Y-183292857D01*
X189475000Y-182864285D01*
X189546428Y-182721428D01*
X189617857Y-182650000D01*
X189760714Y-182578571D01*
X190046428Y-182578571D01*
X190189285Y-182650000D01*
X192403571Y-184078571D02*
X192403571Y-181935714D01*
X194617857Y-182578571D02*
X194617857Y-183864285D01*
X194546428Y-184007142D01*
X194403571Y-184078571D01*
X194332142Y-184078571D01*
X194617857Y-182078571D02*
X194546428Y-182150000D01*
X194617857Y-182221428D01*
X194689285Y-182150000D01*
X194617857Y-182078571D01*
X194617857Y-182221428D01*
X195332142Y-183578571D02*
X195332142Y-182578571D01*
X195332142Y-182078571D02*
X195260714Y-182150000D01*
X195332142Y-182221428D01*
X195403571Y-182150000D01*
X195332142Y-182078571D01*
X195332142Y-182221428D01*
X196046428Y-182578571D02*
X196046428Y-183578571D01*
X196046428Y-182721428D02*
X196117857Y-182650000D01*
X196260714Y-182578571D01*
X196475000Y-182578571D01*
X196617857Y-182650000D01*
X196689285Y-182792857D01*
X196689285Y-183578571D01*
X197617857Y-182721428D02*
X197475000Y-182650000D01*
X197403571Y-182578571D01*
X197332142Y-182435714D01*
X197332142Y-182364285D01*
X197403571Y-182221428D01*
X197475000Y-182150000D01*
X197617857Y-182078571D01*
X197903571Y-182078571D01*
X198046428Y-182150000D01*
X198117857Y-182221428D01*
X198189285Y-182364285D01*
X198189285Y-182435714D01*
X198117857Y-182578571D01*
X198046428Y-182650000D01*
X197903571Y-182721428D01*
X197617857Y-182721428D01*
X197475000Y-182792857D01*
X197403571Y-182864285D01*
X197332142Y-183007142D01*
X197332142Y-183292857D01*
X197403571Y-183435714D01*
X197475000Y-183507142D01*
X197617857Y-183578571D01*
X197903571Y-183578571D01*
X198046428Y-183507142D01*
X198117857Y-183435714D01*
X198189285Y-183292857D01*
X198189285Y-183007142D01*
X198117857Y-182864285D01*
X198046428Y-182792857D01*
X197903571Y-182721428D01*
X198689285Y-182078571D02*
X199617857Y-182078571D01*
X199117857Y-182650000D01*
X199332142Y-182650000D01*
X199475000Y-182721428D01*
X199546428Y-182792857D01*
X199617857Y-182935714D01*
X199617857Y-183292857D01*
X199546428Y-183435714D01*
X199475000Y-183507142D01*
X199332142Y-183578571D01*
X198903571Y-183578571D01*
X198760714Y-183507142D01*
X198689285Y-183435714D01*
X200475000Y-182721428D02*
X200332142Y-182650000D01*
X200260714Y-182578571D01*
X200189285Y-182435714D01*
X200189285Y-182364285D01*
X200260714Y-182221428D01*
X200332142Y-182150000D01*
X200475000Y-182078571D01*
X200760714Y-182078571D01*
X200903571Y-182150000D01*
X200975000Y-182221428D01*
X201046428Y-182364285D01*
X201046428Y-182435714D01*
X200975000Y-182578571D01*
X200903571Y-182650000D01*
X200760714Y-182721428D01*
X200475000Y-182721428D01*
X200332142Y-182792857D01*
X200260714Y-182864285D01*
X200189285Y-183007142D01*
X200189285Y-183292857D01*
X200260714Y-183435714D01*
X200332142Y-183507142D01*
X200475000Y-183578571D01*
X200760714Y-183578571D01*
X200903571Y-183507142D01*
X200975000Y-183435714D01*
X201046428Y-183292857D01*
X201046428Y-183007142D01*
X200975000Y-182864285D01*
X200903571Y-182792857D01*
X200760714Y-182721428D01*
X201546428Y-182078571D02*
X202475000Y-182078571D01*
X201975000Y-182650000D01*
X202189285Y-182650000D01*
X202332142Y-182721428D01*
X202403571Y-182792857D01*
X202475000Y-182935714D01*
X202475000Y-183292857D01*
X202403571Y-183435714D01*
X202332142Y-183507142D01*
X202189285Y-183578571D01*
X201760714Y-183578571D01*
X201617857Y-183507142D01*
X201546428Y-183435714D01*
X204046428Y-182864285D02*
X203975000Y-182792857D01*
X203832142Y-182721428D01*
X203689285Y-182721428D01*
X203546428Y-182792857D01*
X203475000Y-182864285D01*
X203403571Y-183007142D01*
X203403571Y-183150000D01*
X203475000Y-183292857D01*
X203546428Y-183364285D01*
X203689285Y-183435714D01*
X203832142Y-183435714D01*
X203975000Y-183364285D01*
X204046428Y-183292857D01*
X204046428Y-182721428D02*
X204046428Y-183292857D01*
X204117857Y-183364285D01*
X204189285Y-183364285D01*
X204332142Y-183292857D01*
X204403571Y-183150000D01*
X204403571Y-182792857D01*
X204260714Y-182578571D01*
X204046428Y-182435714D01*
X203760714Y-182364285D01*
X203475000Y-182435714D01*
X203260714Y-182578571D01*
X203117857Y-182792857D01*
X203046428Y-183078571D01*
X203117857Y-183364285D01*
X203260714Y-183578571D01*
X203475000Y-183721428D01*
X203760714Y-183792857D01*
X204046428Y-183721428D01*
X204260714Y-183578571D01*
X205689285Y-182578571D02*
X205689285Y-183792857D01*
X205617857Y-183935714D01*
X205546428Y-184007142D01*
X205403571Y-184078571D01*
X205189285Y-184078571D01*
X205046428Y-184007142D01*
X205689285Y-183507142D02*
X205546428Y-183578571D01*
X205260714Y-183578571D01*
X205117857Y-183507142D01*
X205046428Y-183435714D01*
X204975000Y-183292857D01*
X204975000Y-182864285D01*
X205046428Y-182721428D01*
X205117857Y-182650000D01*
X205260714Y-182578571D01*
X205546428Y-182578571D01*
X205689285Y-182650000D01*
X206403571Y-183578571D02*
X206403571Y-182578571D01*
X206403571Y-182721428D02*
X206475000Y-182650000D01*
X206617857Y-182578571D01*
X206832142Y-182578571D01*
X206975000Y-182650000D01*
X207046428Y-182792857D01*
X207046428Y-183578571D01*
X207046428Y-182792857D02*
X207117857Y-182650000D01*
X207260714Y-182578571D01*
X207475000Y-182578571D01*
X207617857Y-182650000D01*
X207689285Y-182792857D01*
X207689285Y-183578571D01*
X209046428Y-183578571D02*
X209046428Y-182792857D01*
X208975000Y-182650000D01*
X208832142Y-182578571D01*
X208546428Y-182578571D01*
X208403571Y-182650000D01*
X209046428Y-183507142D02*
X208903571Y-183578571D01*
X208546428Y-183578571D01*
X208403571Y-183507142D01*
X208332142Y-183364285D01*
X208332142Y-183221428D01*
X208403571Y-183078571D01*
X208546428Y-183007142D01*
X208903571Y-183007142D01*
X209046428Y-182935714D01*
X209760714Y-183578571D02*
X209760714Y-182578571D01*
X209760714Y-182078571D02*
X209689285Y-182150000D01*
X209760714Y-182221428D01*
X209832142Y-182150000D01*
X209760714Y-182078571D01*
X209760714Y-182221428D01*
X210689285Y-183578571D02*
X210546428Y-183507142D01*
X210475000Y-183364285D01*
X210475000Y-182078571D01*
X211260714Y-183435714D02*
X211332142Y-183507142D01*
X211260714Y-183578571D01*
X211189285Y-183507142D01*
X211260714Y-183435714D01*
X211260714Y-183578571D01*
X212617857Y-183507142D02*
X212475000Y-183578571D01*
X212189285Y-183578571D01*
X212046428Y-183507142D01*
X211975000Y-183435714D01*
X211903571Y-183292857D01*
X211903571Y-182864285D01*
X211975000Y-182721428D01*
X212046428Y-182650000D01*
X212189285Y-182578571D01*
X212475000Y-182578571D01*
X212617857Y-182650000D01*
X213475000Y-183578571D02*
X213332142Y-183507142D01*
X213260714Y-183435714D01*
X213189285Y-183292857D01*
X213189285Y-182864285D01*
X213260714Y-182721428D01*
X213332142Y-182650000D01*
X213475000Y-182578571D01*
X213689285Y-182578571D01*
X213832142Y-182650000D01*
X213903571Y-182721428D01*
X213975000Y-182864285D01*
X213975000Y-183292857D01*
X213903571Y-183435714D01*
X213832142Y-183507142D01*
X213689285Y-183578571D01*
X213475000Y-183578571D01*
X214617857Y-183578571D02*
X214617857Y-182578571D01*
X214617857Y-182721428D02*
X214689285Y-182650000D01*
X214832142Y-182578571D01*
X215046428Y-182578571D01*
X215189285Y-182650000D01*
X215260714Y-182792857D01*
X215260714Y-183578571D01*
X215260714Y-182792857D02*
X215332142Y-182650000D01*
X215475000Y-182578571D01*
X215689285Y-182578571D01*
X215832142Y-182650000D01*
X215903571Y-182792857D01*
X215903571Y-183578571D01*
D10*
D11*
X179400000Y-197400000D02*
X179400000Y-200400000D01*
D10*
D11*
X243400000Y-197400000D02*
X243400000Y-203900000D01*
D14*
%TO.C,C_HSCAN_3*%
X118046000Y-115773000D02*
X117334000Y-115773000D01*
X118046000Y-116624000D02*
X117334000Y-116624000D01*
D15*
G36*
X118528505Y-115724900D02*
G01*
X118028100Y-115724900D01*
X118028100Y-116675071D01*
X118528505Y-116675071D01*
X118528505Y-115724900D01*
G37*
X118528505Y-115724900D02*
X118028100Y-115724900D01*
X118028100Y-116675071D01*
X118528505Y-116675071D01*
X118528505Y-115724900D01*
G36*
X117359786Y-115724900D02*
G01*
X116859700Y-115724900D01*
X116859700Y-116674920D01*
X117359786Y-116674920D01*
X117359786Y-115724900D01*
G37*
X117359786Y-115724900D02*
X116859700Y-115724900D01*
X116859700Y-116674920D01*
X117359786Y-116674920D01*
X117359786Y-115724900D01*
D14*
%TO.C,C_HSCAN_2*%
X115671800Y-128676800D02*
X115671800Y-127964800D01*
X114820800Y-128676800D02*
X114820800Y-127964800D01*
D15*
G36*
X115719900Y-129159406D02*
G01*
X115719900Y-128658900D01*
X114769671Y-128658900D01*
X114769671Y-129159406D01*
X115719900Y-129159406D01*
G37*
X115719900Y-129159406D02*
X115719900Y-128658900D01*
X114769671Y-128658900D01*
X114769671Y-129159406D01*
X115719900Y-129159406D01*
G36*
X115719900Y-127989919D02*
G01*
X115719900Y-127490500D01*
X114768931Y-127490500D01*
X114768931Y-127989919D01*
X115719900Y-127989919D01*
G37*
X115719900Y-127989919D02*
X115719900Y-127490500D01*
X114768931Y-127490500D01*
X114768931Y-127989919D01*
X115719900Y-127989919D01*
%TO.C,C_HSCAN_1*%
G36*
X118513900Y-127989919D02*
G01*
X118513900Y-127490500D01*
X117562931Y-127490500D01*
X117562931Y-127989919D01*
X118513900Y-127989919D01*
G37*
X118513900Y-127989919D02*
X118513900Y-127490500D01*
X117562931Y-127490500D01*
X117562931Y-127989919D01*
X118513900Y-127989919D01*
G36*
X118513900Y-129159406D02*
G01*
X118513900Y-128658900D01*
X117563671Y-128658900D01*
X117563671Y-129159406D01*
X118513900Y-129159406D01*
G37*
X118513900Y-129159406D02*
X118513900Y-128658900D01*
X117563671Y-128658900D01*
X117563671Y-129159406D01*
X118513900Y-129159406D01*
D14*
X117614800Y-128676800D02*
X117614800Y-127964800D01*
X118465800Y-128676800D02*
X118465800Y-127964800D01*
D16*
%TO.C,U_HSCAN_1*%
X119608600Y-121691400D02*
X119608600Y-124688600D01*
X116611400Y-121691400D02*
X119608600Y-121691400D01*
X116611400Y-124688600D02*
X116611400Y-121691400D01*
X119608600Y-124688600D02*
X116611400Y-124688600D01*
X118414800Y-121691400D02*
G75*
G02*
X117805200Y-121691400I-304800J0D01*
G01*
D14*
%TO.C,C_HST_2*%
X121260000Y-48590000D02*
X120548000Y-48590000D01*
X121260000Y-49441000D02*
X120548000Y-49441000D01*
D15*
G36*
X121742505Y-48541900D02*
G01*
X121242100Y-48541900D01*
X121242100Y-49492071D01*
X121742505Y-49492071D01*
X121742505Y-48541900D01*
G37*
X121742505Y-48541900D02*
X121242100Y-48541900D01*
X121242100Y-49492071D01*
X121742505Y-49492071D01*
X121742505Y-48541900D01*
G36*
X120573786Y-48541900D02*
G01*
X120073700Y-48541900D01*
X120073700Y-49491920D01*
X120573786Y-49491920D01*
X120573786Y-48541900D01*
G37*
X120573786Y-48541900D02*
X120073700Y-48541900D01*
X120073700Y-49491920D01*
X120573786Y-49491920D01*
X120573786Y-48541900D01*
D17*
%TO.C,U_MM_1*%
X124154600Y-60558200D02*
X127254600Y-60558200D01*
X127254600Y-60558200D02*
X127254600Y-57958200D01*
X127254600Y-57958200D02*
X124154600Y-57958200D01*
X124154600Y-57958200D02*
X124154600Y-60558200D01*
D10*
X123654600Y-60258200D02*
G75*
G03*
X123654600Y-60258200I-50000J0D01*
G01*
D14*
%TO.C,C_J1850_1*%
X155462000Y-61417000D02*
X154750000Y-61417000D01*
X155462000Y-62268000D02*
X154750000Y-62268000D01*
D15*
G36*
X155944606Y-61368900D02*
G01*
X155444100Y-61368900D01*
X155444100Y-62319129D01*
X155944606Y-62319129D01*
X155944606Y-61368900D01*
G37*
X155944606Y-61368900D02*
X155444100Y-61368900D01*
X155444100Y-62319129D01*
X155944606Y-62319129D01*
X155944606Y-61368900D01*
G36*
X154775119Y-61368900D02*
G01*
X154275700Y-61368900D01*
X154275700Y-62319869D01*
X154775119Y-62319869D01*
X154775119Y-61368900D01*
G37*
X154775119Y-61368900D02*
X154275700Y-61368900D01*
X154275700Y-62319869D01*
X154775119Y-62319869D01*
X154775119Y-61368900D01*
%TO.C,C_MSCAN_1*%
G36*
X118020881Y-155420100D02*
G01*
X118520300Y-155420100D01*
X118520300Y-154469131D01*
X118020881Y-154469131D01*
X118020881Y-155420100D01*
G37*
X118020881Y-155420100D02*
X118520300Y-155420100D01*
X118520300Y-154469131D01*
X118020881Y-154469131D01*
X118020881Y-155420100D01*
G36*
X116851394Y-155420100D02*
G01*
X117351900Y-155420100D01*
X117351900Y-154469871D01*
X116851394Y-154469871D01*
X116851394Y-155420100D01*
G37*
X116851394Y-155420100D02*
X117351900Y-155420100D01*
X117351900Y-154469871D01*
X116851394Y-154469871D01*
X116851394Y-155420100D01*
D14*
X117334000Y-154521000D02*
X118046000Y-154521000D01*
X117334000Y-155372000D02*
X118046000Y-155372000D01*
D10*
%TO.C,D_J1850_2*%
X157210000Y-127730000D02*
X155210000Y-127730000D01*
X155210000Y-127730000D02*
X155210000Y-123730000D01*
X155210000Y-123730000D02*
X157210000Y-123730000D01*
X157210000Y-123730000D02*
X157210000Y-127730000D01*
X156210000Y-129540000D02*
X156210000Y-127730000D01*
X156210000Y-121920000D02*
X156210000Y-123730000D01*
X157210000Y-127130000D02*
X155210000Y-127130000D01*
X157210000Y-127030000D02*
X155210000Y-127030000D01*
X157210000Y-127230000D02*
X155210000Y-127230000D01*
D15*
%TO.C,C_VR1_3*%
G36*
X155729900Y-142570214D02*
G01*
X155729900Y-143070300D01*
X156679920Y-143070300D01*
X156679920Y-142570214D01*
X155729900Y-142570214D01*
G37*
X155729900Y-142570214D02*
X155729900Y-143070300D01*
X156679920Y-143070300D01*
X156679920Y-142570214D01*
X155729900Y-142570214D01*
G36*
X155729900Y-141401495D02*
G01*
X155729900Y-141901900D01*
X156680071Y-141901900D01*
X156680071Y-141401495D01*
X155729900Y-141401495D01*
G37*
X155729900Y-141401495D02*
X155729900Y-141901900D01*
X156680071Y-141901900D01*
X156680071Y-141401495D01*
X155729900Y-141401495D01*
D14*
X156629000Y-141884000D02*
X156629000Y-142596000D01*
X155778000Y-141884000D02*
X155778000Y-142596000D01*
D17*
%TO.C,C_SWCAN_1*%
X147675000Y-60015000D02*
X147675000Y-58955000D01*
X147675000Y-58955000D02*
X148235000Y-58955000D01*
X148235000Y-58955000D02*
X148235000Y-60015000D01*
X148235000Y-60015000D02*
X147675000Y-60015000D01*
D16*
%TO.C,C_PS_1*%
X146890003Y-148219998D02*
X146890003Y-146420002D01*
X150289997Y-148219998D02*
X146890003Y-148219998D01*
X150289997Y-146420002D02*
X150289997Y-148219998D01*
X146890003Y-146420002D02*
X150289997Y-146420002D01*
X150289997Y-148219998D02*
X149539998Y-148219998D01*
X150289997Y-146420002D02*
X150289997Y-148219998D01*
X149539998Y-146420002D02*
X150289997Y-146420002D01*
X149539998Y-148219998D02*
X149539998Y-146420002D01*
X146890003Y-146420002D02*
X147640002Y-146420002D01*
X146890003Y-148219998D02*
X146890003Y-146420002D01*
X147640002Y-148219998D02*
X146890003Y-148219998D01*
X147640002Y-146420002D02*
X147640002Y-148219998D01*
D10*
%TO.C,D_J1850_3*%
X159020000Y-123730000D02*
X161020000Y-123730000D01*
X161020000Y-123730000D02*
X161020000Y-127730000D01*
X161020000Y-127730000D02*
X159020000Y-127730000D01*
X159020000Y-127730000D02*
X159020000Y-123730000D01*
X160020000Y-121920000D02*
X160020000Y-123730000D01*
X160020000Y-129540000D02*
X160020000Y-127730000D01*
X159020000Y-124330000D02*
X161020000Y-124330000D01*
X159020000Y-124430000D02*
X161020000Y-124430000D01*
X159020000Y-124230000D02*
X161020000Y-124230000D01*
D16*
%TO.C,C_PS_2*%
X160390002Y-139400001D02*
X162189998Y-139400001D01*
X160390002Y-142799995D02*
X160390002Y-139400001D01*
X162189998Y-142799995D02*
X160390002Y-142799995D01*
X162189998Y-139400001D02*
X162189998Y-142799995D01*
X160390002Y-142799995D02*
X160390002Y-142049996D01*
X162189998Y-142799995D02*
X160390002Y-142799995D01*
X162189998Y-142049996D02*
X162189998Y-142799995D01*
X160390002Y-142049996D02*
X162189998Y-142049996D01*
X162189998Y-139400001D02*
X162189998Y-140150000D01*
X160390002Y-139400001D02*
X162189998Y-139400001D01*
X160390002Y-140150000D02*
X160390002Y-139400001D01*
X162189998Y-140150000D02*
X160390002Y-140150000D01*
%TO.C,C_MM_1*%
X131742500Y-62712600D02*
X133749100Y-62712600D01*
X131742500Y-59207400D02*
X133749100Y-59207400D01*
X131742500Y-62712600D02*
G75*
G02*
X131742500Y-59207400I0J1752600D01*
G01*
X133749100Y-59207400D02*
G75*
G02*
X133749100Y-62712600I0J-1752600D01*
G01*
D15*
%TO.C,C_MSCAN_3*%
G36*
X116509786Y-137949900D02*
G01*
X116009700Y-137949900D01*
X116009700Y-138899920D01*
X116509786Y-138899920D01*
X116509786Y-137949900D01*
G37*
X116509786Y-137949900D02*
X116009700Y-137949900D01*
X116009700Y-138899920D01*
X116509786Y-138899920D01*
X116509786Y-137949900D01*
G36*
X117678505Y-137949900D02*
G01*
X117178100Y-137949900D01*
X117178100Y-138900071D01*
X117678505Y-138900071D01*
X117678505Y-137949900D01*
G37*
X117678505Y-137949900D02*
X117178100Y-137949900D01*
X117178100Y-138900071D01*
X117678505Y-138900071D01*
X117678505Y-137949900D01*
D14*
X117196000Y-138849000D02*
X116484000Y-138849000D01*
X117196000Y-137998000D02*
X116484000Y-137998000D01*
D16*
%TO.C,C_PS_3*%
X134940002Y-132450002D02*
X134940002Y-134249998D01*
X134940002Y-134249998D02*
X134190003Y-134249998D01*
X134190003Y-134249998D02*
X134190003Y-132450002D01*
X134190003Y-132450002D02*
X134940002Y-132450002D01*
X136839998Y-134249998D02*
X136839998Y-132450002D01*
X136839998Y-132450002D02*
X137589997Y-132450002D01*
X137589997Y-132450002D02*
X137589997Y-134249998D01*
X137589997Y-134249998D02*
X136839998Y-134249998D01*
X134190003Y-132450002D02*
X137589997Y-132450002D01*
X137589997Y-132450002D02*
X137589997Y-134249998D01*
X137589997Y-134249998D02*
X134190003Y-134249998D01*
X134190003Y-134249998D02*
X134190003Y-132450002D01*
D15*
%TO.C,C_STN_5*%
G36*
X127330214Y-107160100D02*
G01*
X127830300Y-107160100D01*
X127830300Y-106210080D01*
X127330214Y-106210080D01*
X127330214Y-107160100D01*
G37*
X127330214Y-107160100D02*
X127830300Y-107160100D01*
X127830300Y-106210080D01*
X127330214Y-106210080D01*
X127330214Y-107160100D01*
G36*
X126161495Y-107160100D02*
G01*
X126661900Y-107160100D01*
X126661900Y-106209929D01*
X126161495Y-106209929D01*
X126161495Y-107160100D01*
G37*
X126161495Y-107160100D02*
X126661900Y-107160100D01*
X126661900Y-106209929D01*
X126161495Y-106209929D01*
X126161495Y-107160100D01*
D14*
X126644000Y-106261000D02*
X127356000Y-106261000D01*
X126644000Y-107112000D02*
X127356000Y-107112000D01*
%TO.C,C_MSCAN_2*%
X121488000Y-151194000D02*
X121488000Y-151906000D01*
X122339000Y-151194000D02*
X122339000Y-151906000D01*
D15*
G36*
X121439900Y-150711394D02*
G01*
X121439900Y-151211900D01*
X122390129Y-151211900D01*
X122390129Y-150711394D01*
X121439900Y-150711394D01*
G37*
X121439900Y-150711394D02*
X121439900Y-151211900D01*
X122390129Y-151211900D01*
X122390129Y-150711394D01*
X121439900Y-150711394D01*
G36*
X121439900Y-151880881D02*
G01*
X121439900Y-152380300D01*
X122390869Y-152380300D01*
X122390869Y-151880881D01*
X121439900Y-151880881D01*
G37*
X121439900Y-151880881D02*
X121439900Y-152380300D01*
X122390869Y-152380300D01*
X122390869Y-151880881D01*
X121439900Y-151880881D01*
D16*
%TO.C,C_SWCAN_2*%
X141284998Y-59954998D02*
X141284998Y-58155002D01*
X141284998Y-58155002D02*
X142034997Y-58155002D01*
X142034997Y-58155002D02*
X142034997Y-59954998D01*
X142034997Y-59954998D02*
X141284998Y-59954998D01*
X139385002Y-58155002D02*
X139385002Y-59954998D01*
X139385002Y-59954998D02*
X138635003Y-59954998D01*
X138635003Y-59954998D02*
X138635003Y-58155002D01*
X138635003Y-58155002D02*
X139385002Y-58155002D01*
X142034997Y-59954998D02*
X138635003Y-59954998D01*
X138635003Y-59954998D02*
X138635003Y-58155002D01*
X138635003Y-58155002D02*
X142034997Y-58155002D01*
X142034997Y-58155002D02*
X142034997Y-59954998D01*
D10*
%TO.C,D_J1850_1*%
X164842700Y-70207000D02*
X162842700Y-70207000D01*
X164842700Y-70007000D02*
X162842700Y-70007000D01*
X164842700Y-70107000D02*
X162842700Y-70107000D01*
X163842700Y-64897000D02*
X163842700Y-66707000D01*
X163842700Y-72517000D02*
X163842700Y-70707000D01*
X164842700Y-66707000D02*
X164842700Y-70707000D01*
X162842700Y-66707000D02*
X164842700Y-66707000D01*
X162842700Y-70707000D02*
X162842700Y-66707000D01*
X164842700Y-70707000D02*
X162842700Y-70707000D01*
D16*
%TO.C,C_VR1_1*%
X145150002Y-141790000D02*
X146949998Y-141790000D01*
X146949998Y-141790000D02*
X146949998Y-142539999D01*
X146949998Y-142539999D02*
X145150002Y-142539999D01*
X145150002Y-142539999D02*
X145150002Y-141790000D01*
X146949998Y-139890004D02*
X145150002Y-139890004D01*
X145150002Y-139890004D02*
X145150002Y-139140005D01*
X145150002Y-139140005D02*
X146949998Y-139140005D01*
X146949998Y-139140005D02*
X146949998Y-139890004D01*
X145150002Y-142539999D02*
X145150002Y-139140005D01*
X145150002Y-139140005D02*
X146949998Y-139140005D01*
X146949998Y-139140005D02*
X146949998Y-142539999D01*
X146949998Y-142539999D02*
X145150002Y-142539999D01*
%TO.C,C_VR2_1*%
X138059998Y-138989995D02*
X136260002Y-138989995D01*
X138059998Y-135590001D02*
X138059998Y-138989995D01*
X136260002Y-135590001D02*
X138059998Y-135590001D01*
X136260002Y-138989995D02*
X136260002Y-135590001D01*
X138059998Y-135590001D02*
X138059998Y-136340000D01*
X136260002Y-135590001D02*
X138059998Y-135590001D01*
X136260002Y-136340000D02*
X136260002Y-135590001D01*
X138059998Y-136340000D02*
X136260002Y-136340000D01*
X136260002Y-138989995D02*
X136260002Y-138239996D01*
X138059998Y-138989995D02*
X136260002Y-138989995D01*
X138059998Y-138239996D02*
X138059998Y-138989995D01*
X136260002Y-138239996D02*
X138059998Y-138239996D01*
D15*
%TO.C,C_VR1_2*%
G36*
X146530100Y-135559119D02*
G01*
X146530100Y-135059700D01*
X145579131Y-135059700D01*
X145579131Y-135559119D01*
X146530100Y-135559119D01*
G37*
X146530100Y-135559119D02*
X146530100Y-135059700D01*
X145579131Y-135059700D01*
X145579131Y-135559119D01*
X146530100Y-135559119D01*
G36*
X146530100Y-136728606D02*
G01*
X146530100Y-136228100D01*
X145579871Y-136228100D01*
X145579871Y-136728606D01*
X146530100Y-136728606D01*
G37*
X146530100Y-136728606D02*
X146530100Y-136228100D01*
X145579871Y-136228100D01*
X145579871Y-136728606D01*
X146530100Y-136728606D01*
D14*
X145631000Y-136246000D02*
X145631000Y-135534000D01*
X146482000Y-136246000D02*
X146482000Y-135534000D01*
D10*
%TO.C,Q_ISO_3*%
X122236000Y-72394000D02*
X123636000Y-72394000D01*
X123636000Y-75434000D02*
X123636000Y-72394000D01*
X122236000Y-74864000D02*
X122786000Y-75434000D01*
X122786000Y-75434000D02*
X123636000Y-75434000D01*
X122236000Y-74864000D02*
X122236000Y-72414000D01*
D17*
%TO.C,R_COMP_2*%
X159170000Y-118930000D02*
X159170000Y-119830000D01*
X160870000Y-118930000D02*
X160870000Y-119830000D01*
X160870000Y-119830000D02*
X159170000Y-119830000D01*
X160870000Y-118930000D02*
X159170000Y-118930000D01*
%TO.C,R_COMP_3*%
X151980000Y-103320000D02*
X151980000Y-102420000D01*
X150280000Y-103320000D02*
X150280000Y-102420000D01*
X150280000Y-102420000D02*
X151980000Y-102420000D01*
X150280000Y-103320000D02*
X151980000Y-103320000D01*
D16*
%TO.C,Q_ISO_1*%
X116268500Y-72961500D02*
X116268500Y-72453500D01*
X116268500Y-72453500D02*
X116878100Y-72453500D01*
X116878100Y-72453500D02*
X116878100Y-72961500D01*
X116878100Y-72961500D02*
X116268500Y-72961500D01*
X116268500Y-74866500D02*
X116268500Y-74358500D01*
X116268500Y-74358500D02*
X116878100Y-74358500D01*
X116878100Y-74358500D02*
X116878100Y-74866500D01*
X116878100Y-74866500D02*
X116268500Y-74866500D01*
X114871500Y-73406000D02*
X114871500Y-73914000D01*
X114871500Y-73914000D02*
X114261900Y-73914000D01*
X114261900Y-73914000D02*
X114261900Y-73406000D01*
X114261900Y-73406000D02*
X114871500Y-73406000D01*
X116268500Y-72148700D02*
X116268500Y-75171300D01*
X116268500Y-75171300D02*
X114871500Y-75171300D01*
X114871500Y-75171300D02*
X114871500Y-72148700D01*
X114871500Y-72148700D02*
X116268500Y-72148700D01*
X116141500Y-72402700D02*
G75*
G03*
X116141500Y-72402700I-127000J0D01*
G01*
D17*
%TO.C,R_COMP_4*%
X162203500Y-91244000D02*
X160503500Y-91244000D01*
X162203500Y-92144000D02*
X160503500Y-92144000D01*
X162203500Y-91244000D02*
X162203500Y-92144000D01*
X160503500Y-91244000D02*
X160503500Y-92144000D01*
%TO.C,R_J1850_5*%
X155995000Y-119830000D02*
X157695000Y-119830000D01*
X155995000Y-118930000D02*
X157695000Y-118930000D01*
X155995000Y-119830000D02*
X155995000Y-118930000D01*
X157695000Y-119830000D02*
X157695000Y-118930000D01*
%TO.C,R_J1850_2*%
X159514000Y-63030000D02*
X159514000Y-61230000D01*
X158494000Y-63030000D02*
X158494000Y-61230000D01*
X159514000Y-63030000D02*
X158494000Y-63030000D01*
X159514000Y-61230000D02*
X158494000Y-61230000D01*
%TO.C,R_J1850_6*%
X153310000Y-72331000D02*
X156570000Y-72331000D01*
X153310000Y-70671000D02*
X156570000Y-70671000D01*
X153310000Y-72331000D02*
X153310000Y-70671000D01*
X156570000Y-72331000D02*
X156570000Y-70671000D01*
%TO.C,R_STN_2*%
X118664300Y-109567300D02*
X120324300Y-109567300D01*
X118664300Y-106307300D02*
X120324300Y-106307300D01*
X120324300Y-106307300D02*
X120324300Y-109567300D01*
X118664300Y-106307300D02*
X118664300Y-109567300D01*
%TO.C,R_STN_7*%
X127550000Y-103860000D02*
X126450000Y-103860000D01*
X127550000Y-104420000D02*
X126450000Y-104420000D01*
X127550000Y-103860000D02*
X127550000Y-104420000D01*
X126450000Y-103860000D02*
X126450000Y-104420000D01*
%TO.C,R_STN_8*%
X141420000Y-101180000D02*
X141420000Y-99480000D01*
X140520000Y-101180000D02*
X140520000Y-99480000D01*
X141420000Y-101180000D02*
X140520000Y-101180000D01*
X141420000Y-99480000D02*
X140520000Y-99480000D01*
D16*
%TO.C,R_ISO_1*%
X119951400Y-68815000D02*
X119951400Y-69615000D01*
X118351400Y-68815000D02*
X119951400Y-68815000D01*
X118351400Y-69615000D02*
X118351400Y-68815000D01*
X119951400Y-69615000D02*
X118351400Y-69615000D01*
X118351400Y-68815000D02*
X118701400Y-68815000D01*
X118351400Y-69615000D02*
X118351400Y-68815000D01*
X118701400Y-69615000D02*
X118351400Y-69615000D01*
X118701400Y-68815000D02*
X118701400Y-69615000D01*
X119951400Y-69615000D02*
X119601400Y-69615000D01*
X119951400Y-68815000D02*
X119951400Y-69615000D01*
X119601400Y-68815000D02*
X119951400Y-68815000D01*
X119601400Y-69615000D02*
X119601400Y-68815000D01*
D17*
%TO.C,R_MSCAN_1*%
X123610000Y-126815000D02*
X125310000Y-126815000D01*
X123610000Y-125915000D02*
X125310000Y-125915000D01*
X123610000Y-126815000D02*
X123610000Y-125915000D01*
X125310000Y-126815000D02*
X125310000Y-125915000D01*
%TO.C,R_PSW_1*%
X144330000Y-122320000D02*
X145230000Y-122320000D01*
X144330000Y-120620000D02*
X145230000Y-120620000D01*
X145230000Y-120620000D02*
X145230000Y-122320000D01*
X144330000Y-120620000D02*
X144330000Y-122320000D01*
%TO.C,R_J1850_3*%
X151411000Y-70671000D02*
X148151000Y-70671000D01*
X151411000Y-72331000D02*
X148151000Y-72331000D01*
X151411000Y-70671000D02*
X151411000Y-72331000D01*
X148151000Y-70671000D02*
X148151000Y-72331000D01*
%TO.C,R_ISO_4*%
X120060000Y-65870000D02*
X120060000Y-63670000D01*
X118700000Y-65870000D02*
X118700000Y-63670000D01*
X120060000Y-65870000D02*
X118700000Y-65870000D01*
X120060000Y-63670000D02*
X118700000Y-63670000D01*
%TO.C,R_J1850_7*%
X151580000Y-133750000D02*
X151580000Y-132050000D01*
X150680000Y-133750000D02*
X150680000Y-132050000D01*
X151580000Y-133750000D02*
X150680000Y-133750000D01*
X151580000Y-132050000D02*
X150680000Y-132050000D01*
D18*
%TO.C,D_ESD_5*%
X152566000Y-155628000D02*
G75*
G03*
X152566000Y-155628000I-100000J0D01*
G01*
D17*
X151966000Y-157338000D02*
X151966000Y-158638000D01*
X154866000Y-157338000D02*
X151966000Y-157338000D01*
X154866000Y-158638000D02*
X154866000Y-157338000D01*
X151966000Y-158638000D02*
X154866000Y-158638000D01*
%TO.C,D_ESD_4*%
X130630000Y-165750000D02*
X133530000Y-165750000D01*
X133530000Y-165750000D02*
X133530000Y-164450000D01*
X133530000Y-164450000D02*
X130630000Y-164450000D01*
X130630000Y-164450000D02*
X130630000Y-165750000D01*
D18*
X131230000Y-162740000D02*
G75*
G03*
X131230000Y-162740000I-100000J0D01*
G01*
D17*
%TO.C,R_J1850_8*%
X147350000Y-126180000D02*
X147350000Y-125280000D01*
X145650000Y-126180000D02*
X145650000Y-125280000D01*
X145650000Y-125280000D02*
X147350000Y-125280000D01*
X145650000Y-126180000D02*
X147350000Y-126180000D01*
%TO.C,R_STN_1*%
X115616300Y-106307300D02*
X115616300Y-109567300D01*
X117276300Y-106307300D02*
X117276300Y-109567300D01*
X115616300Y-106307300D02*
X117276300Y-106307300D01*
X115616300Y-109567300D02*
X117276300Y-109567300D01*
%TO.C,R_ISO_3*%
X121445000Y-99740000D02*
X121445000Y-98380000D01*
X119245000Y-99740000D02*
X119245000Y-98380000D01*
X119245000Y-98380000D02*
X121445000Y-98380000D01*
X119245000Y-99740000D02*
X121445000Y-99740000D01*
%TO.C,R_STN_4*%
X121712300Y-106307300D02*
X121712300Y-109567300D01*
X123372300Y-106307300D02*
X123372300Y-109567300D01*
X121712300Y-106307300D02*
X123372300Y-106307300D01*
X121712300Y-109567300D02*
X123372300Y-109567300D01*
%TO.C,R_COMP1*%
X156630000Y-92271000D02*
X158330000Y-92271000D01*
X156630000Y-91371000D02*
X158330000Y-91371000D01*
X156630000Y-92271000D02*
X156630000Y-91371000D01*
X158330000Y-92271000D02*
X158330000Y-91371000D01*
%TO.C,C_STN_3*%
X143090000Y-92895000D02*
X141390000Y-92895000D01*
X143090000Y-93795000D02*
X141390000Y-93795000D01*
X143090000Y-92895000D02*
X143090000Y-93795000D01*
X141390000Y-92895000D02*
X141390000Y-93795000D01*
%TO.C,R_J1850_4*%
X143658000Y-67759000D02*
X146918000Y-67759000D01*
X143658000Y-66099000D02*
X146918000Y-66099000D01*
X143658000Y-67759000D02*
X143658000Y-66099000D01*
X146918000Y-67759000D02*
X146918000Y-66099000D01*
%TO.C,R_SWCAN_7*%
X136650300Y-76502800D02*
X134850300Y-76502800D01*
X136650300Y-77522800D02*
X134850300Y-77522800D01*
X136650300Y-76502800D02*
X136650300Y-77522800D01*
X134850300Y-76502800D02*
X134850300Y-77522800D01*
D16*
%TO.C,R_STN_3*%
X119895300Y-90595500D02*
X119895300Y-91395500D01*
X119895300Y-91395500D02*
X119545300Y-91395500D01*
X119545300Y-91395500D02*
X119545300Y-90595500D01*
X119545300Y-90595500D02*
X119895300Y-90595500D01*
X120795300Y-91395500D02*
X120795300Y-90595500D01*
X120795300Y-90595500D02*
X121145300Y-90595500D01*
X121145300Y-90595500D02*
X121145300Y-91395500D01*
X121145300Y-91395500D02*
X120795300Y-91395500D01*
X119545300Y-90595500D02*
X121145300Y-90595500D01*
X121145300Y-90595500D02*
X121145300Y-91395500D01*
X121145300Y-91395500D02*
X119545300Y-91395500D01*
X119545300Y-91395500D02*
X119545300Y-90595500D01*
%TO.C,R_SWCAN_6*%
X119830000Y-78505000D02*
X119830000Y-77705000D01*
X119830000Y-77705000D02*
X120180000Y-77705000D01*
X120180000Y-77705000D02*
X120180000Y-78505000D01*
X120180000Y-78505000D02*
X119830000Y-78505000D01*
X118930000Y-77705000D02*
X118930000Y-78505000D01*
X118930000Y-78505000D02*
X118580000Y-78505000D01*
X118580000Y-78505000D02*
X118580000Y-77705000D01*
X118580000Y-77705000D02*
X118930000Y-77705000D01*
X120180000Y-78505000D02*
X118580000Y-78505000D01*
X118580000Y-78505000D02*
X118580000Y-77705000D01*
X118580000Y-77705000D02*
X120180000Y-77705000D01*
X120180000Y-77705000D02*
X120180000Y-78505000D01*
D17*
%TO.C,R_SWCAN_3*%
X144565000Y-58235000D02*
X146265000Y-58235000D01*
X144565000Y-57335000D02*
X146265000Y-57335000D01*
X144565000Y-58235000D02*
X144565000Y-57335000D01*
X146265000Y-58235000D02*
X146265000Y-57335000D01*
D16*
%TO.C,R_ISO_2*%
X115976400Y-60560000D02*
X115976400Y-61360000D01*
X114376400Y-60560000D02*
X115976400Y-60560000D01*
X114376400Y-61360000D02*
X114376400Y-60560000D01*
X115976400Y-61360000D02*
X114376400Y-61360000D01*
X114376400Y-60560000D02*
X114726400Y-60560000D01*
X114376400Y-61360000D02*
X114376400Y-60560000D01*
X114726400Y-61360000D02*
X114376400Y-61360000D01*
X114726400Y-60560000D02*
X114726400Y-61360000D01*
X115976400Y-61360000D02*
X115626400Y-61360000D01*
X115976400Y-60560000D02*
X115976400Y-61360000D01*
X115626400Y-60560000D02*
X115976400Y-60560000D01*
X115626400Y-61360000D02*
X115626400Y-60560000D01*
%TO.C,D_ESD_3*%
X150810000Y-166001700D02*
X151318000Y-166001700D01*
X151318000Y-166001700D02*
X151318000Y-166649400D01*
X151318000Y-166649400D02*
X150810000Y-166649400D01*
X150810000Y-166649400D02*
X150810000Y-166001700D01*
X148910000Y-166001700D02*
X149418000Y-166001700D01*
X149418000Y-166001700D02*
X149418000Y-166649400D01*
X149418000Y-166649400D02*
X148910000Y-166649400D01*
X148910000Y-166649400D02*
X148910000Y-166001700D01*
X150368000Y-164706300D02*
X149860000Y-164706300D01*
X149860000Y-164706300D02*
X149860000Y-164058600D01*
X149860000Y-164058600D02*
X150368000Y-164058600D01*
X150368000Y-164058600D02*
X150368000Y-164706300D01*
X151561800Y-166001700D02*
X148666200Y-166001700D01*
X148666200Y-166001700D02*
X148666200Y-164706300D01*
X148666200Y-164706300D02*
X151561800Y-164706300D01*
X151561800Y-164706300D02*
X151561800Y-166001700D01*
X151140200Y-165747700D02*
G75*
G03*
X151140200Y-165747700I-76200J0D01*
G01*
%TO.C,Q_J1850_3*%
X161658300Y-62722800D02*
X161658300Y-63230800D01*
X161658300Y-63230800D02*
X161036000Y-63230800D01*
X161036000Y-63230800D02*
X161036000Y-62722800D01*
X161036000Y-62722800D02*
X161658300Y-62722800D01*
X161658300Y-60822800D02*
X161658300Y-61330800D01*
X161658300Y-61330800D02*
X161036000Y-61330800D01*
X161036000Y-61330800D02*
X161036000Y-60822800D01*
X161036000Y-60822800D02*
X161658300Y-60822800D01*
X163004500Y-62280800D02*
X163004500Y-61772800D01*
X163004500Y-61772800D02*
X163626800Y-61772800D01*
X163626800Y-61772800D02*
X163626800Y-62280800D01*
X163626800Y-62280800D02*
X163004500Y-62280800D01*
X161658300Y-63474600D02*
X161658300Y-60579000D01*
X161658300Y-60579000D02*
X163004500Y-60579000D01*
X163004500Y-60579000D02*
X163004500Y-63474600D01*
X163004500Y-63474600D02*
X161658300Y-63474600D01*
X161988500Y-62976800D02*
G75*
G03*
X161988500Y-62976800I-76200J0D01*
G01*
%TO.C,U_COMP_1*%
X156083000Y-110096300D02*
X156083000Y-110883700D01*
X156083000Y-110883700D02*
X155181300Y-110883700D01*
X155181300Y-110883700D02*
X155181300Y-110096300D01*
X155181300Y-110096300D02*
X156083000Y-110096300D01*
X156083000Y-107556300D02*
X156083000Y-108343700D01*
X156083000Y-108343700D02*
X155181300Y-108343700D01*
X155181300Y-108343700D02*
X155181300Y-107556300D01*
X155181300Y-107556300D02*
X156083000Y-107556300D01*
X156083000Y-105016300D02*
X156083000Y-105803700D01*
X156083000Y-105803700D02*
X155181300Y-105803700D01*
X155181300Y-105803700D02*
X155181300Y-105016300D01*
X155181300Y-105016300D02*
X156083000Y-105016300D01*
X156083000Y-102476300D02*
X156083000Y-103263700D01*
X156083000Y-103263700D02*
X155181300Y-103263700D01*
X155181300Y-103263700D02*
X155181300Y-102476300D01*
X155181300Y-102476300D02*
X156083000Y-102476300D01*
X156083000Y-99936300D02*
X156083000Y-100723700D01*
X156083000Y-100723700D02*
X155181300Y-100723700D01*
X155181300Y-100723700D02*
X155181300Y-99936300D01*
X155181300Y-99936300D02*
X156083000Y-99936300D01*
X156083000Y-97396300D02*
X156083000Y-98183700D01*
X156083000Y-98183700D02*
X155181300Y-98183700D01*
X155181300Y-98183700D02*
X155181300Y-97396300D01*
X155181300Y-97396300D02*
X156083000Y-97396300D01*
X156083000Y-94856300D02*
X156083000Y-95643700D01*
X156083000Y-95643700D02*
X155181300Y-95643700D01*
X155181300Y-95643700D02*
X155181300Y-94856300D01*
X155181300Y-94856300D02*
X156083000Y-94856300D01*
X162687000Y-95643700D02*
X162687000Y-94856300D01*
X162687000Y-94856300D02*
X163588700Y-94856300D01*
X163588700Y-94856300D02*
X163588700Y-95643700D01*
X163588700Y-95643700D02*
X162687000Y-95643700D01*
X162687000Y-98183700D02*
X162687000Y-97396300D01*
X162687000Y-97396300D02*
X163588700Y-97396300D01*
X163588700Y-97396300D02*
X163588700Y-98183700D01*
X163588700Y-98183700D02*
X162687000Y-98183700D01*
X162687000Y-100723700D02*
X162687000Y-99936300D01*
X162687000Y-99936300D02*
X163588700Y-99936300D01*
X163588700Y-99936300D02*
X163588700Y-100723700D01*
X163588700Y-100723700D02*
X162687000Y-100723700D01*
X162687000Y-103263700D02*
X162687000Y-102476300D01*
X162687000Y-102476300D02*
X163588700Y-102476300D01*
X163588700Y-102476300D02*
X163588700Y-103263700D01*
X163588700Y-103263700D02*
X162687000Y-103263700D01*
X162687000Y-105803700D02*
X162687000Y-105016300D01*
X162687000Y-105016300D02*
X163588700Y-105016300D01*
X163588700Y-105016300D02*
X163588700Y-105803700D01*
X163588700Y-105803700D02*
X162687000Y-105803700D01*
X162687000Y-108343700D02*
X162687000Y-107556300D01*
X162687000Y-107556300D02*
X163588700Y-107556300D01*
X163588700Y-107556300D02*
X163588700Y-108343700D01*
X163588700Y-108343700D02*
X162687000Y-108343700D01*
X162687000Y-110883700D02*
X162687000Y-110096300D01*
X162687000Y-110096300D02*
X163588700Y-110096300D01*
X163588700Y-110096300D02*
X163588700Y-110883700D01*
X163588700Y-110883700D02*
X162687000Y-110883700D01*
X156083000Y-93027500D02*
X162687000Y-93027500D01*
X162687000Y-93027500D02*
X162687000Y-112712500D01*
X162687000Y-112712500D02*
X156083000Y-112712500D01*
X156083000Y-112712500D02*
X156083000Y-93027500D01*
X159080200Y-112712500D02*
G75*
G02*
X159689800Y-112712500I304800J0D01*
G01*
D17*
%TO.C,R_VS_2*%
X127910000Y-122750000D02*
X131170000Y-122750000D01*
X127910000Y-121090000D02*
X131170000Y-121090000D01*
X127910000Y-122750000D02*
X127910000Y-121090000D01*
X131170000Y-122750000D02*
X131170000Y-121090000D01*
%TO.C,R_VR2_3*%
X132530000Y-133770000D02*
X131630000Y-133770000D01*
X132530000Y-135470000D02*
X131630000Y-135470000D01*
X131630000Y-135470000D02*
X131630000Y-133770000D01*
X132530000Y-135470000D02*
X132530000Y-133770000D01*
D18*
%TO.C,U_J1850_1*%
X157388000Y-64170000D02*
G75*
G03*
X157388000Y-64170000I-100000J0D01*
G01*
D17*
X154993000Y-64175000D02*
X150993000Y-64175000D01*
X154993000Y-69175000D02*
X150993000Y-69175000D01*
X154993000Y-64175000D02*
X154993000Y-69175000D01*
X150993000Y-64175000D02*
X150993000Y-69175000D01*
%TO.C,R_VR2_2*%
X143656000Y-142298000D02*
X141956000Y-142298000D01*
X143656000Y-143198000D02*
X141956000Y-143198000D01*
X143656000Y-142298000D02*
X143656000Y-143198000D01*
X141956000Y-142298000D02*
X141956000Y-143198000D01*
%TO.C,C_STN_2*%
X146500000Y-97370000D02*
X146500000Y-95670000D01*
X145600000Y-97370000D02*
X145600000Y-95670000D01*
X146500000Y-97370000D02*
X145600000Y-97370000D01*
X146500000Y-95670000D02*
X145600000Y-95670000D01*
D14*
%TO.C,C_STN_4*%
X153238000Y-106539000D02*
X153238000Y-107251000D01*
X154089000Y-106539000D02*
X154089000Y-107251000D01*
D15*
G36*
X153189900Y-106056495D02*
G01*
X153189900Y-106556900D01*
X154140071Y-106556900D01*
X154140071Y-106056495D01*
X153189900Y-106056495D01*
G37*
X153189900Y-106056495D02*
X153189900Y-106556900D01*
X154140071Y-106556900D01*
X154140071Y-106056495D01*
X153189900Y-106056495D01*
G36*
X153189900Y-107225214D02*
G01*
X153189900Y-107725300D01*
X154139920Y-107725300D01*
X154139920Y-107225214D01*
X153189900Y-107225214D01*
G37*
X153189900Y-107225214D02*
X153189900Y-107725300D01*
X154139920Y-107725300D01*
X154139920Y-107225214D01*
X153189900Y-107225214D01*
D10*
%TO.C,Q_ISO_4*%
X118086400Y-60640000D02*
X118086400Y-58190000D01*
X118636400Y-61210000D02*
X119486400Y-61210000D01*
X118086400Y-60640000D02*
X118636400Y-61210000D01*
X119486400Y-61210000D02*
X119486400Y-58170000D01*
X118086400Y-58170000D02*
X119486400Y-58170000D01*
D16*
%TO.C,Q_ISO_2*%
X116268500Y-64071500D02*
X116268500Y-63563500D01*
X116268500Y-63563500D02*
X116878100Y-63563500D01*
X116878100Y-63563500D02*
X116878100Y-64071500D01*
X116878100Y-64071500D02*
X116268500Y-64071500D01*
X116268500Y-65976500D02*
X116268500Y-65468500D01*
X116268500Y-65468500D02*
X116878100Y-65468500D01*
X116878100Y-65468500D02*
X116878100Y-65976500D01*
X116878100Y-65976500D02*
X116268500Y-65976500D01*
X114871500Y-64516000D02*
X114871500Y-65024000D01*
X114871500Y-65024000D02*
X114261900Y-65024000D01*
X114261900Y-65024000D02*
X114261900Y-64516000D01*
X114261900Y-64516000D02*
X114871500Y-64516000D01*
X116268500Y-63258700D02*
X116268500Y-66281300D01*
X116268500Y-66281300D02*
X114871500Y-66281300D01*
X114871500Y-66281300D02*
X114871500Y-63258700D01*
X114871500Y-63258700D02*
X116268500Y-63258700D01*
X116141500Y-63512700D02*
G75*
G03*
X116141500Y-63512700I-127000J0D01*
G01*
%TO.C,U_SWCAN_1*%
X137426700Y-70243700D02*
X137883900Y-70243700D01*
X137883900Y-70243700D02*
X137883900Y-71221600D01*
X137883900Y-71221600D02*
X137426700Y-71221600D01*
X137426700Y-71221600D02*
X137426700Y-70243700D01*
X136156700Y-70243700D02*
X136613900Y-70243700D01*
X136613900Y-70243700D02*
X136613900Y-71221600D01*
X136613900Y-71221600D02*
X136156700Y-71221600D01*
X136156700Y-71221600D02*
X136156700Y-70243700D01*
X134886700Y-70243700D02*
X135343900Y-70243700D01*
X135343900Y-70243700D02*
X135343900Y-71221600D01*
X135343900Y-71221600D02*
X134886700Y-71221600D01*
X134886700Y-71221600D02*
X134886700Y-70243700D01*
X133616700Y-70243700D02*
X134073900Y-70243700D01*
X134073900Y-70243700D02*
X134073900Y-71221600D01*
X134073900Y-71221600D02*
X133616700Y-71221600D01*
X133616700Y-71221600D02*
X133616700Y-70243700D01*
X132346700Y-70243700D02*
X132803900Y-70243700D01*
X132803900Y-70243700D02*
X132803900Y-71221600D01*
X132803900Y-71221600D02*
X132346700Y-71221600D01*
X132346700Y-71221600D02*
X132346700Y-70243700D01*
X131076700Y-70243700D02*
X131533900Y-70243700D01*
X131533900Y-70243700D02*
X131533900Y-71221600D01*
X131533900Y-71221600D02*
X131076700Y-71221600D01*
X131076700Y-71221600D02*
X131076700Y-70243700D01*
X129806700Y-70243700D02*
X130263900Y-70243700D01*
X130263900Y-70243700D02*
X130263900Y-71221600D01*
X130263900Y-71221600D02*
X129806700Y-71221600D01*
X129806700Y-71221600D02*
X129806700Y-70243700D01*
X130263900Y-66001900D02*
X129806700Y-66001900D01*
X129806700Y-66001900D02*
X129806700Y-65024000D01*
X129806700Y-65024000D02*
X130263900Y-65024000D01*
X130263900Y-65024000D02*
X130263900Y-66001900D01*
X131533900Y-66001900D02*
X131076700Y-66001900D01*
X131076700Y-66001900D02*
X131076700Y-65024000D01*
X131076700Y-65024000D02*
X131533900Y-65024000D01*
X131533900Y-65024000D02*
X131533900Y-66001900D01*
X132803900Y-66001900D02*
X132346700Y-66001900D01*
X132346700Y-66001900D02*
X132346700Y-65024000D01*
X132346700Y-65024000D02*
X132803900Y-65024000D01*
X132803900Y-65024000D02*
X132803900Y-66001900D01*
X134073900Y-66001900D02*
X133616700Y-66001900D01*
X133616700Y-66001900D02*
X133616700Y-65024000D01*
X133616700Y-65024000D02*
X134073900Y-65024000D01*
X134073900Y-65024000D02*
X134073900Y-66001900D01*
X135343900Y-66001900D02*
X134886700Y-66001900D01*
X134886700Y-66001900D02*
X134886700Y-65024000D01*
X134886700Y-65024000D02*
X135343900Y-65024000D01*
X135343900Y-65024000D02*
X135343900Y-66001900D01*
X136613900Y-66001900D02*
X136156700Y-66001900D01*
X136156700Y-66001900D02*
X136156700Y-65024000D01*
X136156700Y-65024000D02*
X136613900Y-65024000D01*
X136613900Y-65024000D02*
X136613900Y-66001900D01*
X137883900Y-66001900D02*
X137426700Y-66001900D01*
X137426700Y-66001900D02*
X137426700Y-65024000D01*
X137426700Y-65024000D02*
X137883900Y-65024000D01*
X137883900Y-65024000D02*
X137883900Y-66001900D01*
X129476500Y-70243700D02*
X129476500Y-66001900D01*
X129476500Y-66001900D02*
X138214100Y-66001900D01*
X138214100Y-66001900D02*
X138214100Y-70243700D01*
X138214100Y-70243700D02*
X129476500Y-70243700D01*
X138214100Y-68427600D02*
G75*
G02*
X138214100Y-67818000I0J304800D01*
G01*
D17*
%TO.C,R_SWCAN_4*%
X132790300Y-77462800D02*
X132790300Y-76562800D01*
X131090300Y-77462800D02*
X131090300Y-76562800D01*
X131090300Y-76562800D02*
X132790300Y-76562800D01*
X131090300Y-77462800D02*
X132790300Y-77462800D01*
%TO.C,R_SWCAN_5*%
X129196200Y-77386600D02*
X129196200Y-76486600D01*
X127496200Y-77386600D02*
X127496200Y-76486600D01*
X127496200Y-76486600D02*
X129196200Y-76486600D01*
X127496200Y-77386600D02*
X129196200Y-77386600D01*
%TD*%
%TO.C,C_HSCAN_3*%
D19*
X116379555Y-117928266D02*
X116951281Y-117928266D01*
X116665418Y-117928266D02*
X116665418Y-116927746D01*
X116760706Y-117070677D01*
X116855993Y-117165965D01*
X116951281Y-117213609D01*
X115521967Y-117261252D02*
X115521967Y-117928266D01*
X115950761Y-117261252D02*
X115950761Y-117785334D01*
X115903117Y-117880622D01*
X115807829Y-117928266D01*
X115664898Y-117928266D01*
X115569610Y-117880622D01*
X115521967Y-117832978D01*
X114712022Y-117404184D02*
X115045528Y-117404184D01*
X115045528Y-117928266D02*
X115045528Y-116927746D01*
X114569090Y-116927746D01*
%TO.C,C_HSCAN_2*%
X113773913Y-125998711D02*
X113773913Y-125773407D01*
X113999217Y-125750876D01*
X113976686Y-125773407D01*
X113954156Y-125818468D01*
X113954156Y-125931120D01*
X113976686Y-125976181D01*
X113999217Y-125998711D01*
X114044278Y-126021242D01*
X114156930Y-126021242D01*
X114201991Y-125998711D01*
X114224521Y-125976181D01*
X114247052Y-125931120D01*
X114247052Y-125818468D01*
X114224521Y-125773407D01*
X114201991Y-125750876D01*
X113773913Y-126426789D02*
X113773913Y-126336668D01*
X113796443Y-126291607D01*
X113818973Y-126269076D01*
X113886565Y-126224015D01*
X113976686Y-126201485D01*
X114156930Y-126201485D01*
X114201991Y-126224015D01*
X114224521Y-126246546D01*
X114247052Y-126291607D01*
X114247052Y-126381728D01*
X114224521Y-126426789D01*
X114201991Y-126449320D01*
X114156930Y-126471850D01*
X114044278Y-126471850D01*
X113999217Y-126449320D01*
X113976686Y-126426789D01*
X113954156Y-126381728D01*
X113954156Y-126291607D01*
X113976686Y-126246546D01*
X113999217Y-126224015D01*
X114044278Y-126201485D01*
X113773913Y-126764746D02*
X113773913Y-126809807D01*
X113796443Y-126854867D01*
X113818973Y-126877398D01*
X113864034Y-126899928D01*
X113954156Y-126922459D01*
X114066808Y-126922459D01*
X114156930Y-126899928D01*
X114201991Y-126877398D01*
X114224521Y-126854867D01*
X114247052Y-126809807D01*
X114247052Y-126764746D01*
X114224521Y-126719685D01*
X114201991Y-126697154D01*
X114156930Y-126674624D01*
X114066808Y-126652094D01*
X113954156Y-126652094D01*
X113864034Y-126674624D01*
X113818973Y-126697154D01*
X113796443Y-126719685D01*
X113773913Y-126764746D01*
X113931626Y-127125233D02*
X114404765Y-127125233D01*
X113954156Y-127125233D02*
X113931626Y-127170293D01*
X113931626Y-127260415D01*
X113954156Y-127305476D01*
X113976686Y-127328006D01*
X114021747Y-127350537D01*
X114156930Y-127350537D01*
X114201991Y-127328006D01*
X114224521Y-127305476D01*
X114247052Y-127260415D01*
X114247052Y-127170293D01*
X114224521Y-127125233D01*
X113999217Y-127711024D02*
X113999217Y-127553311D01*
X114247052Y-127553311D02*
X113773913Y-127553311D01*
X113773913Y-127778615D01*
%TO.C,C_HSCAN_1*%
X116567913Y-125998711D02*
X116567913Y-125773407D01*
X116793217Y-125750876D01*
X116770686Y-125773407D01*
X116748156Y-125818468D01*
X116748156Y-125931120D01*
X116770686Y-125976181D01*
X116793217Y-125998711D01*
X116838278Y-126021242D01*
X116950930Y-126021242D01*
X116995991Y-125998711D01*
X117018521Y-125976181D01*
X117041052Y-125931120D01*
X117041052Y-125818468D01*
X117018521Y-125773407D01*
X116995991Y-125750876D01*
X116567913Y-126426789D02*
X116567913Y-126336668D01*
X116590443Y-126291607D01*
X116612973Y-126269076D01*
X116680565Y-126224015D01*
X116770686Y-126201485D01*
X116950930Y-126201485D01*
X116995991Y-126224015D01*
X117018521Y-126246546D01*
X117041052Y-126291607D01*
X117041052Y-126381728D01*
X117018521Y-126426789D01*
X116995991Y-126449320D01*
X116950930Y-126471850D01*
X116838278Y-126471850D01*
X116793217Y-126449320D01*
X116770686Y-126426789D01*
X116748156Y-126381728D01*
X116748156Y-126291607D01*
X116770686Y-126246546D01*
X116793217Y-126224015D01*
X116838278Y-126201485D01*
X116567913Y-126764746D02*
X116567913Y-126809807D01*
X116590443Y-126854867D01*
X116612973Y-126877398D01*
X116658034Y-126899928D01*
X116748156Y-126922459D01*
X116860808Y-126922459D01*
X116950930Y-126899928D01*
X116995991Y-126877398D01*
X117018521Y-126854867D01*
X117041052Y-126809807D01*
X117041052Y-126764746D01*
X117018521Y-126719685D01*
X116995991Y-126697154D01*
X116950930Y-126674624D01*
X116860808Y-126652094D01*
X116748156Y-126652094D01*
X116658034Y-126674624D01*
X116612973Y-126697154D01*
X116590443Y-126719685D01*
X116567913Y-126764746D01*
X116725626Y-127125233D02*
X117198765Y-127125233D01*
X116748156Y-127125233D02*
X116725626Y-127170293D01*
X116725626Y-127260415D01*
X116748156Y-127305476D01*
X116770686Y-127328006D01*
X116815747Y-127350537D01*
X116950930Y-127350537D01*
X116995991Y-127328006D01*
X117018521Y-127305476D01*
X117041052Y-127260415D01*
X117041052Y-127170293D01*
X117018521Y-127125233D01*
X116793217Y-127711024D02*
X116793217Y-127553311D01*
X117041052Y-127553311D02*
X116567913Y-127553311D01*
X116567913Y-127778615D01*
%TO.C,U_HSCAN_1*%
D11*
X118110000Y-122642380D02*
X118110000Y-122880476D01*
X118348095Y-122785238D02*
X118110000Y-122880476D01*
X117871904Y-122785238D01*
X118252857Y-123070952D02*
X118110000Y-122880476D01*
X117967142Y-123070952D01*
%TO.C,C_HST_2*%
D19*
X119593555Y-50745266D02*
X120165281Y-50745266D01*
X119879418Y-50745266D02*
X119879418Y-49744746D01*
X119974706Y-49887677D01*
X120069993Y-49982965D01*
X120165281Y-50030609D01*
X118735967Y-50078252D02*
X118735967Y-50745266D01*
X119164761Y-50078252D02*
X119164761Y-50602334D01*
X119117117Y-50697622D01*
X119021829Y-50745266D01*
X118878898Y-50745266D01*
X118783610Y-50697622D01*
X118735967Y-50649978D01*
X117926022Y-50221184D02*
X118259528Y-50221184D01*
X118259528Y-50745266D02*
X118259528Y-49744746D01*
X117783090Y-49744746D01*
%TO.C,U_MM_1*%
X132353971Y-57480142D02*
X132582542Y-57480142D01*
X132582542Y-57000142D01*
X132216828Y-57457285D02*
X132148257Y-57480142D01*
X132033971Y-57480142D01*
X131988257Y-57457285D01*
X131965400Y-57434428D01*
X131942542Y-57388714D01*
X131942542Y-57343000D01*
X131965400Y-57297285D01*
X131988257Y-57274428D01*
X132033971Y-57251571D01*
X132125400Y-57228714D01*
X132171114Y-57205857D01*
X132193971Y-57183000D01*
X132216828Y-57137285D01*
X132216828Y-57091571D01*
X132193971Y-57045857D01*
X132171114Y-57023000D01*
X132125400Y-57000142D01*
X132011114Y-57000142D01*
X131942542Y-57023000D01*
X131736828Y-57480142D02*
X131736828Y-57000142D01*
X131576828Y-57343000D01*
X131416828Y-57000142D01*
X131416828Y-57480142D01*
X130982542Y-57000142D02*
X131073971Y-57000142D01*
X131119685Y-57023000D01*
X131142542Y-57045857D01*
X131188257Y-57114428D01*
X131211114Y-57205857D01*
X131211114Y-57388714D01*
X131188257Y-57434428D01*
X131165400Y-57457285D01*
X131119685Y-57480142D01*
X131028257Y-57480142D01*
X130982542Y-57457285D01*
X130959685Y-57434428D01*
X130936828Y-57388714D01*
X130936828Y-57274428D01*
X130959685Y-57228714D01*
X130982542Y-57205857D01*
X131028257Y-57183000D01*
X131119685Y-57183000D01*
X131165400Y-57205857D01*
X131188257Y-57228714D01*
X131211114Y-57274428D01*
X130731114Y-57480142D02*
X130731114Y-57000142D01*
X130616828Y-57000142D01*
X130548257Y-57023000D01*
X130502542Y-57068714D01*
X130479685Y-57114428D01*
X130456828Y-57205857D01*
X130456828Y-57274428D01*
X130479685Y-57365857D01*
X130502542Y-57411571D01*
X130548257Y-57457285D01*
X130616828Y-57480142D01*
X130731114Y-57480142D01*
X130273971Y-57457285D02*
X130205400Y-57480142D01*
X130091114Y-57480142D01*
X130045400Y-57457285D01*
X130022542Y-57434428D01*
X129999685Y-57388714D01*
X129999685Y-57343000D01*
X130022542Y-57297285D01*
X130045400Y-57274428D01*
X130091114Y-57251571D01*
X130182542Y-57228714D01*
X130228257Y-57205857D01*
X130251114Y-57183000D01*
X130273971Y-57137285D01*
X130273971Y-57091571D01*
X130251114Y-57045857D01*
X130228257Y-57023000D01*
X130182542Y-57000142D01*
X130068257Y-57000142D01*
X129999685Y-57023000D01*
X129793971Y-57480142D02*
X129793971Y-57000142D01*
X129633971Y-57343000D01*
X129473971Y-57000142D01*
X129473971Y-57480142D01*
X129313971Y-57000142D02*
X129039685Y-57000142D01*
X129176828Y-57480142D02*
X129176828Y-57000142D01*
X128605400Y-57480142D02*
X128765400Y-57251571D01*
X128879685Y-57480142D02*
X128879685Y-57000142D01*
X128696828Y-57000142D01*
X128651114Y-57023000D01*
X128628257Y-57045857D01*
X128605400Y-57091571D01*
X128605400Y-57160142D01*
X128628257Y-57205857D01*
X128651114Y-57228714D01*
X128696828Y-57251571D01*
X128879685Y-57251571D01*
%TO.C,C_J1850_1*%
X154315980Y-62796687D02*
X154270919Y-62796687D01*
X154225859Y-62819217D01*
X154203328Y-62841747D01*
X154180798Y-62886808D01*
X154158267Y-62976930D01*
X154158267Y-63089582D01*
X154180798Y-63179704D01*
X154203328Y-63224765D01*
X154225859Y-63247295D01*
X154270919Y-63269826D01*
X154315980Y-63269826D01*
X154361041Y-63247295D01*
X154383572Y-63224765D01*
X154406102Y-63179704D01*
X154428632Y-63089582D01*
X154428632Y-62976930D01*
X154406102Y-62886808D01*
X154383572Y-62841747D01*
X154361041Y-62819217D01*
X154315980Y-62796687D01*
X153955493Y-63224765D02*
X153932963Y-63247295D01*
X153955493Y-63269826D01*
X153978024Y-63247295D01*
X153955493Y-63224765D01*
X153955493Y-63269826D01*
X153482354Y-63269826D02*
X153752720Y-63269826D01*
X153617537Y-63269826D02*
X153617537Y-62796687D01*
X153662598Y-62864278D01*
X153707659Y-62909339D01*
X153752720Y-62931869D01*
X153076807Y-62954400D02*
X153076807Y-63269826D01*
X153279581Y-62954400D02*
X153279581Y-63202234D01*
X153257050Y-63247295D01*
X153211989Y-63269826D01*
X153144398Y-63269826D01*
X153099337Y-63247295D01*
X153076807Y-63224765D01*
X152693789Y-63021991D02*
X152851502Y-63021991D01*
X152851502Y-63269826D02*
X152851502Y-62796687D01*
X152626198Y-62796687D01*
%TO.C,C_MSCAN_1*%
X120012088Y-153474113D02*
X120237392Y-153474113D01*
X120259923Y-153699417D01*
X120237392Y-153676886D01*
X120192331Y-153654356D01*
X120079679Y-153654356D01*
X120034618Y-153676886D01*
X120012088Y-153699417D01*
X119989557Y-153744478D01*
X119989557Y-153857130D01*
X120012088Y-153902191D01*
X120034618Y-153924721D01*
X120079679Y-153947252D01*
X120192331Y-153947252D01*
X120237392Y-153924721D01*
X120259923Y-153902191D01*
X119584010Y-153474113D02*
X119674131Y-153474113D01*
X119719192Y-153496643D01*
X119741723Y-153519173D01*
X119786784Y-153586765D01*
X119809314Y-153676886D01*
X119809314Y-153857130D01*
X119786784Y-153902191D01*
X119764253Y-153924721D01*
X119719192Y-153947252D01*
X119629071Y-153947252D01*
X119584010Y-153924721D01*
X119561479Y-153902191D01*
X119538949Y-153857130D01*
X119538949Y-153744478D01*
X119561479Y-153699417D01*
X119584010Y-153676886D01*
X119629071Y-153654356D01*
X119719192Y-153654356D01*
X119764253Y-153676886D01*
X119786784Y-153699417D01*
X119809314Y-153744478D01*
X119246053Y-153474113D02*
X119200992Y-153474113D01*
X119155932Y-153496643D01*
X119133401Y-153519173D01*
X119110871Y-153564234D01*
X119088340Y-153654356D01*
X119088340Y-153767008D01*
X119110871Y-153857130D01*
X119133401Y-153902191D01*
X119155932Y-153924721D01*
X119200992Y-153947252D01*
X119246053Y-153947252D01*
X119291114Y-153924721D01*
X119313645Y-153902191D01*
X119336175Y-153857130D01*
X119358705Y-153767008D01*
X119358705Y-153654356D01*
X119336175Y-153564234D01*
X119313645Y-153519173D01*
X119291114Y-153496643D01*
X119246053Y-153474113D01*
X118885566Y-153631826D02*
X118885566Y-154104965D01*
X118885566Y-153654356D02*
X118840506Y-153631826D01*
X118750384Y-153631826D01*
X118705323Y-153654356D01*
X118682793Y-153676886D01*
X118660262Y-153721947D01*
X118660262Y-153857130D01*
X118682793Y-153902191D01*
X118705323Y-153924721D01*
X118750384Y-153947252D01*
X118840506Y-153947252D01*
X118885566Y-153924721D01*
X118299775Y-153699417D02*
X118457488Y-153699417D01*
X118457488Y-153947252D02*
X118457488Y-153474113D01*
X118232184Y-153474113D01*
%TO.C,D_J1850_2*%
D11*
X154018571Y-124039523D02*
X154066190Y-124182380D01*
X154113809Y-124230000D01*
X154209047Y-124277619D01*
X154351904Y-124277619D01*
X154447142Y-124230000D01*
X154494761Y-124182380D01*
X154542380Y-124087142D01*
X154542380Y-123706190D01*
X153542380Y-123706190D01*
X153542380Y-124039523D01*
X153590000Y-124134761D01*
X153637619Y-124182380D01*
X153732857Y-124230000D01*
X153828095Y-124230000D01*
X153923333Y-124182380D01*
X153970952Y-124134761D01*
X154018571Y-124039523D01*
X154018571Y-123706190D01*
X154256666Y-124658571D02*
X154256666Y-125134761D01*
X154542380Y-124563333D02*
X153542380Y-124896666D01*
X154542380Y-125230000D01*
X153542380Y-125420476D02*
X153542380Y-125991904D01*
X154542380Y-125706190D02*
X153542380Y-125706190D01*
X153875714Y-126753809D02*
X154542380Y-126753809D01*
X153494761Y-126515714D02*
X154209047Y-126277619D01*
X154209047Y-126896666D01*
X153542380Y-127706190D02*
X153542380Y-127515714D01*
X153590000Y-127420476D01*
X153637619Y-127372857D01*
X153780476Y-127277619D01*
X153970952Y-127230000D01*
X154351904Y-127230000D01*
X154447142Y-127277619D01*
X154494761Y-127325238D01*
X154542380Y-127420476D01*
X154542380Y-127610952D01*
X154494761Y-127706190D01*
X154447142Y-127753809D01*
X154351904Y-127801428D01*
X154113809Y-127801428D01*
X154018571Y-127753809D01*
X153970952Y-127706190D01*
X153923333Y-127610952D01*
X153923333Y-127420476D01*
X153970952Y-127325238D01*
X154018571Y-127277619D01*
X154113809Y-127230000D01*
D20*
X156571904Y-122701428D02*
X155771904Y-122701428D01*
X155771904Y-122891904D01*
X155810000Y-123006190D01*
X155886190Y-123082380D01*
X155962380Y-123120476D01*
X156114761Y-123158571D01*
X156229047Y-123158571D01*
X156381428Y-123120476D01*
X156457619Y-123082380D01*
X156533809Y-123006190D01*
X156571904Y-122891904D01*
X156571904Y-122701428D01*
X156648095Y-123310952D02*
X156648095Y-123920476D01*
X155771904Y-124339523D02*
X156343333Y-124339523D01*
X156457619Y-124301428D01*
X156533809Y-124225238D01*
X156571904Y-124110952D01*
X156571904Y-124034761D01*
X156571904Y-125139523D02*
X156571904Y-124682380D01*
X156571904Y-124910952D02*
X155771904Y-124910952D01*
X155886190Y-124834761D01*
X155962380Y-124758571D01*
X156000476Y-124682380D01*
X156114761Y-125596666D02*
X156076666Y-125520476D01*
X156038571Y-125482380D01*
X155962380Y-125444285D01*
X155924285Y-125444285D01*
X155848095Y-125482380D01*
X155810000Y-125520476D01*
X155771904Y-125596666D01*
X155771904Y-125749047D01*
X155810000Y-125825238D01*
X155848095Y-125863333D01*
X155924285Y-125901428D01*
X155962380Y-125901428D01*
X156038571Y-125863333D01*
X156076666Y-125825238D01*
X156114761Y-125749047D01*
X156114761Y-125596666D01*
X156152857Y-125520476D01*
X156190952Y-125482380D01*
X156267142Y-125444285D01*
X156419523Y-125444285D01*
X156495714Y-125482380D01*
X156533809Y-125520476D01*
X156571904Y-125596666D01*
X156571904Y-125749047D01*
X156533809Y-125825238D01*
X156495714Y-125863333D01*
X156419523Y-125901428D01*
X156267142Y-125901428D01*
X156190952Y-125863333D01*
X156152857Y-125825238D01*
X156114761Y-125749047D01*
X155771904Y-126625238D02*
X155771904Y-126244285D01*
X156152857Y-126206190D01*
X156114761Y-126244285D01*
X156076666Y-126320476D01*
X156076666Y-126510952D01*
X156114761Y-126587142D01*
X156152857Y-126625238D01*
X156229047Y-126663333D01*
X156419523Y-126663333D01*
X156495714Y-126625238D01*
X156533809Y-126587142D01*
X156571904Y-126510952D01*
X156571904Y-126320476D01*
X156533809Y-126244285D01*
X156495714Y-126206190D01*
X155771904Y-127158571D02*
X155771904Y-127234761D01*
X155810000Y-127310952D01*
X155848095Y-127349047D01*
X155924285Y-127387142D01*
X156076666Y-127425238D01*
X156267142Y-127425238D01*
X156419523Y-127387142D01*
X156495714Y-127349047D01*
X156533809Y-127310952D01*
X156571904Y-127234761D01*
X156571904Y-127158571D01*
X156533809Y-127082380D01*
X156495714Y-127044285D01*
X156419523Y-127006190D01*
X156267142Y-126968095D01*
X156076666Y-126968095D01*
X155924285Y-127006190D01*
X155848095Y-127044285D01*
X155810000Y-127082380D01*
X155771904Y-127158571D01*
X156648095Y-127577619D02*
X156648095Y-128187142D01*
X155848095Y-128339523D02*
X155810000Y-128377619D01*
X155771904Y-128453809D01*
X155771904Y-128644285D01*
X155810000Y-128720476D01*
X155848095Y-128758571D01*
X155924285Y-128796666D01*
X156000476Y-128796666D01*
X156114761Y-128758571D01*
X156571904Y-128301428D01*
X156571904Y-128796666D01*
D11*
X156662380Y-131310095D02*
X155662380Y-131310095D01*
X156662380Y-131881523D02*
X156090952Y-131452952D01*
X155662380Y-131881523D02*
X156233809Y-131310095D01*
%TO.C,C_VR1_3*%
D19*
X157933266Y-143550444D02*
X157933266Y-142978718D01*
X157933266Y-143264581D02*
X156932746Y-143264581D01*
X157075677Y-143169293D01*
X157170965Y-143074006D01*
X157218609Y-142978718D01*
X157266252Y-144408032D02*
X157933266Y-144408032D01*
X157266252Y-143979238D02*
X157790334Y-143979238D01*
X157885622Y-144026882D01*
X157933266Y-144122170D01*
X157933266Y-144265101D01*
X157885622Y-144360389D01*
X157837978Y-144408032D01*
X157409184Y-145217977D02*
X157409184Y-144884471D01*
X157933266Y-144884471D02*
X156932746Y-144884471D01*
X156932746Y-145360909D01*
%TO.C,C_SWCAN_1*%
X148918476Y-60147396D02*
X148918476Y-60009206D01*
X148918476Y-60078301D02*
X148676643Y-60078301D01*
X148711191Y-60055269D01*
X148734222Y-60032238D01*
X148745738Y-60009206D01*
X148676643Y-60366197D02*
X148676643Y-60251039D01*
X148791802Y-60239523D01*
X148780286Y-60251039D01*
X148768770Y-60274071D01*
X148768770Y-60331650D01*
X148780286Y-60354682D01*
X148791802Y-60366197D01*
X148814833Y-60377713D01*
X148872413Y-60377713D01*
X148895444Y-60366197D01*
X148906960Y-60354682D01*
X148918476Y-60331650D01*
X148918476Y-60274071D01*
X148906960Y-60251039D01*
X148895444Y-60239523D01*
X148676643Y-60527419D02*
X148676643Y-60550451D01*
X148688159Y-60573483D01*
X148699675Y-60584999D01*
X148722707Y-60596515D01*
X148768770Y-60608030D01*
X148826349Y-60608030D01*
X148872413Y-60596515D01*
X148895444Y-60584999D01*
X148906960Y-60573483D01*
X148918476Y-60550451D01*
X148918476Y-60527419D01*
X148906960Y-60504388D01*
X148895444Y-60492872D01*
X148872413Y-60481356D01*
X148826349Y-60469840D01*
X148768770Y-60469840D01*
X148722707Y-60481356D01*
X148699675Y-60492872D01*
X148688159Y-60504388D01*
X148676643Y-60527419D01*
X148757254Y-60711673D02*
X148999087Y-60711673D01*
X148768770Y-60711673D02*
X148757254Y-60734705D01*
X148757254Y-60780768D01*
X148768770Y-60803800D01*
X148780286Y-60815316D01*
X148803318Y-60826832D01*
X148872413Y-60826832D01*
X148895444Y-60815316D01*
X148906960Y-60803800D01*
X148918476Y-60780768D01*
X148918476Y-60734705D01*
X148906960Y-60711673D01*
X148791802Y-61011085D02*
X148791802Y-60930474D01*
X148918476Y-60930474D02*
X148676643Y-60930474D01*
X148676643Y-61045633D01*
%TO.C,D_ESD_2*%
X148971653Y-157918642D02*
X147970188Y-157918642D01*
X147970188Y-158300152D01*
X148017877Y-158395530D01*
X148065566Y-158443219D01*
X148160943Y-158490907D01*
X148304010Y-158490907D01*
X148399387Y-158443219D01*
X148447076Y-158395530D01*
X148494765Y-158300152D01*
X148494765Y-157918642D01*
X148447076Y-158920107D02*
X148447076Y-159253928D01*
X148971653Y-159396995D02*
X148971653Y-158920107D01*
X147970188Y-158920107D01*
X147970188Y-159396995D01*
X148923964Y-159778505D02*
X148971653Y-159921572D01*
X148971653Y-160160016D01*
X148923964Y-160255393D01*
X148876276Y-160303082D01*
X148780898Y-160350771D01*
X148685520Y-160350771D01*
X148590143Y-160303082D01*
X148542454Y-160255393D01*
X148494765Y-160160016D01*
X148447076Y-159969260D01*
X148399387Y-159873883D01*
X148351699Y-159826194D01*
X148256321Y-159778505D01*
X148160943Y-159778505D01*
X148065566Y-159826194D01*
X148017877Y-159873883D01*
X147970188Y-159969260D01*
X147970188Y-160207705D01*
X148017877Y-160350771D01*
X148971653Y-160779970D02*
X147970188Y-160779970D01*
X147970188Y-161018414D01*
X148017877Y-161161481D01*
X148113255Y-161256858D01*
X148208632Y-161304547D01*
X148399387Y-161352236D01*
X148542454Y-161352236D01*
X148733209Y-161304547D01*
X148828587Y-161256858D01*
X148923964Y-161161481D01*
X148971653Y-161018414D01*
X148971653Y-160779970D01*
X148065566Y-161733746D02*
X148017877Y-161781435D01*
X147970188Y-161876813D01*
X147970188Y-162115257D01*
X148017877Y-162210635D01*
X148065566Y-162258323D01*
X148160943Y-162306012D01*
X148256321Y-162306012D01*
X148399387Y-162258323D01*
X148971653Y-161686058D01*
X148971653Y-162306012D01*
X148876276Y-163307477D02*
X148923964Y-163259788D01*
X148971653Y-163116722D01*
X148971653Y-163021344D01*
X148923964Y-162878278D01*
X148828587Y-162782900D01*
X148733209Y-162735211D01*
X148542454Y-162687523D01*
X148399387Y-162687523D01*
X148208632Y-162735211D01*
X148113255Y-162782900D01*
X148017877Y-162878278D01*
X147970188Y-163021344D01*
X147970188Y-163116722D01*
X148017877Y-163259788D01*
X148065566Y-163307477D01*
X148685520Y-163688988D02*
X148685520Y-164165876D01*
X148971653Y-163593610D02*
X147970188Y-163927432D01*
X148971653Y-164261253D01*
X148971653Y-164595075D02*
X147970188Y-164595075D01*
X148971653Y-165167341D01*
X147970188Y-165167341D01*
X148923964Y-165691918D02*
X148971653Y-165691918D01*
X149067031Y-165644229D01*
X149114720Y-165596540D01*
X148065566Y-166073428D02*
X148017877Y-166121117D01*
X147970188Y-166216495D01*
X147970188Y-166454939D01*
X148017877Y-166550316D01*
X148065566Y-166598005D01*
X148160943Y-166645694D01*
X148256321Y-166645694D01*
X148399387Y-166598005D01*
X148971653Y-166025739D01*
X148971653Y-166645694D01*
X148971653Y-167599470D02*
X148971653Y-167027204D01*
X148971653Y-167313337D02*
X147970188Y-167313337D01*
X148113255Y-167217960D01*
X148208632Y-167122582D01*
X148256321Y-167027204D01*
X147970188Y-168505557D02*
X147970188Y-168028669D01*
X148447076Y-167980980D01*
X148399387Y-168028669D01*
X148351699Y-168124047D01*
X148351699Y-168362491D01*
X148399387Y-168457869D01*
X148447076Y-168505557D01*
X148542454Y-168553246D01*
X148780898Y-168553246D01*
X148876276Y-168505557D01*
X148923964Y-168457869D01*
X148971653Y-168362491D01*
X148971653Y-168124047D01*
X148923964Y-168028669D01*
X148876276Y-167980980D01*
%TO.C,C_PS_1*%
D11*
X148590000Y-146772380D02*
X148590000Y-147010476D01*
X148828095Y-146915238D02*
X148590000Y-147010476D01*
X148351904Y-146915238D01*
X148732857Y-147200952D02*
X148590000Y-147010476D01*
X148447142Y-147200952D01*
%TO.C,D_J1850_3*%
X162068571Y-124039523D02*
X162116190Y-124182380D01*
X162163809Y-124230000D01*
X162259047Y-124277619D01*
X162401904Y-124277619D01*
X162497142Y-124230000D01*
X162544761Y-124182380D01*
X162592380Y-124087142D01*
X162592380Y-123706190D01*
X161592380Y-123706190D01*
X161592380Y-124039523D01*
X161640000Y-124134761D01*
X161687619Y-124182380D01*
X161782857Y-124230000D01*
X161878095Y-124230000D01*
X161973333Y-124182380D01*
X162020952Y-124134761D01*
X162068571Y-124039523D01*
X162068571Y-123706190D01*
X162306666Y-124658571D02*
X162306666Y-125134761D01*
X162592380Y-124563333D02*
X161592380Y-124896666D01*
X162592380Y-125230000D01*
X161592380Y-125420476D02*
X161592380Y-125991904D01*
X162592380Y-125706190D02*
X161592380Y-125706190D01*
X161925714Y-126753809D02*
X162592380Y-126753809D01*
X161544761Y-126515714D02*
X162259047Y-126277619D01*
X162259047Y-126896666D01*
X161592380Y-127706190D02*
X161592380Y-127515714D01*
X161640000Y-127420476D01*
X161687619Y-127372857D01*
X161830476Y-127277619D01*
X162020952Y-127230000D01*
X162401904Y-127230000D01*
X162497142Y-127277619D01*
X162544761Y-127325238D01*
X162592380Y-127420476D01*
X162592380Y-127610952D01*
X162544761Y-127706190D01*
X162497142Y-127753809D01*
X162401904Y-127801428D01*
X162163809Y-127801428D01*
X162068571Y-127753809D01*
X162020952Y-127706190D01*
X161973333Y-127610952D01*
X161973333Y-127420476D01*
X162020952Y-127325238D01*
X162068571Y-127277619D01*
X162163809Y-127230000D01*
D20*
X160381904Y-123001428D02*
X159581904Y-123001428D01*
X159581904Y-123191904D01*
X159620000Y-123306190D01*
X159696190Y-123382380D01*
X159772380Y-123420476D01*
X159924761Y-123458571D01*
X160039047Y-123458571D01*
X160191428Y-123420476D01*
X160267619Y-123382380D01*
X160343809Y-123306190D01*
X160381904Y-123191904D01*
X160381904Y-123001428D01*
X160458095Y-123610952D02*
X160458095Y-124220476D01*
X159581904Y-124639523D02*
X160153333Y-124639523D01*
X160267619Y-124601428D01*
X160343809Y-124525238D01*
X160381904Y-124410952D01*
X160381904Y-124334761D01*
X160381904Y-125439523D02*
X160381904Y-124982380D01*
X160381904Y-125210952D02*
X159581904Y-125210952D01*
X159696190Y-125134761D01*
X159772380Y-125058571D01*
X159810476Y-124982380D01*
X159924761Y-125896666D02*
X159886666Y-125820476D01*
X159848571Y-125782380D01*
X159772380Y-125744285D01*
X159734285Y-125744285D01*
X159658095Y-125782380D01*
X159620000Y-125820476D01*
X159581904Y-125896666D01*
X159581904Y-126049047D01*
X159620000Y-126125238D01*
X159658095Y-126163333D01*
X159734285Y-126201428D01*
X159772380Y-126201428D01*
X159848571Y-126163333D01*
X159886666Y-126125238D01*
X159924761Y-126049047D01*
X159924761Y-125896666D01*
X159962857Y-125820476D01*
X160000952Y-125782380D01*
X160077142Y-125744285D01*
X160229523Y-125744285D01*
X160305714Y-125782380D01*
X160343809Y-125820476D01*
X160381904Y-125896666D01*
X160381904Y-126049047D01*
X160343809Y-126125238D01*
X160305714Y-126163333D01*
X160229523Y-126201428D01*
X160077142Y-126201428D01*
X160000952Y-126163333D01*
X159962857Y-126125238D01*
X159924761Y-126049047D01*
X159581904Y-126925238D02*
X159581904Y-126544285D01*
X159962857Y-126506190D01*
X159924761Y-126544285D01*
X159886666Y-126620476D01*
X159886666Y-126810952D01*
X159924761Y-126887142D01*
X159962857Y-126925238D01*
X160039047Y-126963333D01*
X160229523Y-126963333D01*
X160305714Y-126925238D01*
X160343809Y-126887142D01*
X160381904Y-126810952D01*
X160381904Y-126620476D01*
X160343809Y-126544285D01*
X160305714Y-126506190D01*
X159581904Y-127458571D02*
X159581904Y-127534761D01*
X159620000Y-127610952D01*
X159658095Y-127649047D01*
X159734285Y-127687142D01*
X159886666Y-127725238D01*
X160077142Y-127725238D01*
X160229523Y-127687142D01*
X160305714Y-127649047D01*
X160343809Y-127610952D01*
X160381904Y-127534761D01*
X160381904Y-127458571D01*
X160343809Y-127382380D01*
X160305714Y-127344285D01*
X160229523Y-127306190D01*
X160077142Y-127268095D01*
X159886666Y-127268095D01*
X159734285Y-127306190D01*
X159658095Y-127344285D01*
X159620000Y-127382380D01*
X159581904Y-127458571D01*
X160458095Y-127877619D02*
X160458095Y-128487142D01*
X159581904Y-128601428D02*
X159581904Y-129096666D01*
X159886666Y-128830000D01*
X159886666Y-128944285D01*
X159924761Y-129020476D01*
X159962857Y-129058571D01*
X160039047Y-129096666D01*
X160229523Y-129096666D01*
X160305714Y-129058571D01*
X160343809Y-129020476D01*
X160381904Y-128944285D01*
X160381904Y-128715714D01*
X160343809Y-128639523D01*
X160305714Y-128601428D01*
D11*
X162758380Y-120896095D02*
X161758380Y-120896095D01*
X162758380Y-121467523D02*
X162186952Y-121038952D01*
X161758380Y-121467523D02*
X162329809Y-120896095D01*
%TO.C,C_PS_2*%
X160742380Y-141099998D02*
X160980476Y-141099998D01*
X160885238Y-140861902D02*
X160980476Y-141099998D01*
X160885238Y-141338093D01*
X161170952Y-140957140D02*
X160980476Y-141099998D01*
X161170952Y-141242855D01*
%TO.C,C_MM_1*%
X132745800Y-60412380D02*
X132745800Y-60650476D01*
X132983895Y-60555238D02*
X132745800Y-60650476D01*
X132507704Y-60555238D01*
X132888657Y-60840952D02*
X132745800Y-60650476D01*
X132602942Y-60840952D01*
%TO.C,C_MSCAN_3*%
D19*
X115529555Y-140153266D02*
X116101281Y-140153266D01*
X115815418Y-140153266D02*
X115815418Y-139152746D01*
X115910706Y-139295677D01*
X116005993Y-139390965D01*
X116101281Y-139438609D01*
X114671967Y-139486252D02*
X114671967Y-140153266D01*
X115100761Y-139486252D02*
X115100761Y-140010334D01*
X115053117Y-140105622D01*
X114957829Y-140153266D01*
X114814898Y-140153266D01*
X114719610Y-140105622D01*
X114671967Y-140057978D01*
X113862022Y-139629184D02*
X114195528Y-139629184D01*
X114195528Y-140153266D02*
X114195528Y-139152746D01*
X113719090Y-139152746D01*
%TO.C,C_PS_3*%
D11*
X135890000Y-132802380D02*
X135890000Y-133040476D01*
X136128095Y-132945238D02*
X135890000Y-133040476D01*
X135651904Y-132945238D01*
X136032857Y-133230952D02*
X135890000Y-133040476D01*
X135747142Y-133230952D01*
%TO.C,C_STN_5*%
D19*
X129501539Y-105861966D02*
X130073265Y-105861966D01*
X129787402Y-105861966D02*
X129787402Y-104861446D01*
X129882690Y-105004377D01*
X129977977Y-105099665D01*
X130073265Y-105147309D01*
X128643951Y-105194952D02*
X128643951Y-105861966D01*
X129072745Y-105194952D02*
X129072745Y-105719034D01*
X129025101Y-105814322D01*
X128929813Y-105861966D01*
X128786882Y-105861966D01*
X128691594Y-105814322D01*
X128643951Y-105766678D01*
X127834006Y-105337884D02*
X128167512Y-105337884D01*
X128167512Y-105861966D02*
X128167512Y-104861446D01*
X127691074Y-104861446D01*
%TO.C,C_MSCAN_2*%
X122867687Y-152362549D02*
X122867687Y-152137245D01*
X123092991Y-152114714D01*
X123070460Y-152137245D01*
X123047930Y-152182306D01*
X123047930Y-152294958D01*
X123070460Y-152340019D01*
X123092991Y-152362549D01*
X123138052Y-152385080D01*
X123250704Y-152385080D01*
X123295765Y-152362549D01*
X123318295Y-152340019D01*
X123340826Y-152294958D01*
X123340826Y-152182306D01*
X123318295Y-152137245D01*
X123295765Y-152114714D01*
X122867687Y-152790627D02*
X122867687Y-152700506D01*
X122890217Y-152655445D01*
X122912747Y-152632914D01*
X122980339Y-152587853D01*
X123070460Y-152565323D01*
X123250704Y-152565323D01*
X123295765Y-152587853D01*
X123318295Y-152610384D01*
X123340826Y-152655445D01*
X123340826Y-152745566D01*
X123318295Y-152790627D01*
X123295765Y-152813158D01*
X123250704Y-152835688D01*
X123138052Y-152835688D01*
X123092991Y-152813158D01*
X123070460Y-152790627D01*
X123047930Y-152745566D01*
X123047930Y-152655445D01*
X123070460Y-152610384D01*
X123092991Y-152587853D01*
X123138052Y-152565323D01*
X122867687Y-153128584D02*
X122867687Y-153173645D01*
X122890217Y-153218705D01*
X122912747Y-153241236D01*
X122957808Y-153263766D01*
X123047930Y-153286297D01*
X123160582Y-153286297D01*
X123250704Y-153263766D01*
X123295765Y-153241236D01*
X123318295Y-153218705D01*
X123340826Y-153173645D01*
X123340826Y-153128584D01*
X123318295Y-153083523D01*
X123295765Y-153060992D01*
X123250704Y-153038462D01*
X123160582Y-153015932D01*
X123047930Y-153015932D01*
X122957808Y-153038462D01*
X122912747Y-153060992D01*
X122890217Y-153083523D01*
X122867687Y-153128584D01*
X123025400Y-153489071D02*
X123498539Y-153489071D01*
X123047930Y-153489071D02*
X123025400Y-153534131D01*
X123025400Y-153624253D01*
X123047930Y-153669314D01*
X123070460Y-153691844D01*
X123115521Y-153714375D01*
X123250704Y-153714375D01*
X123295765Y-153691844D01*
X123318295Y-153669314D01*
X123340826Y-153624253D01*
X123340826Y-153534131D01*
X123318295Y-153489071D01*
X123092991Y-154074862D02*
X123092991Y-153917149D01*
X123340826Y-153917149D02*
X122867687Y-153917149D01*
X122867687Y-154142453D01*
%TO.C,C_SWCAN_2*%
D11*
X140335000Y-58507380D02*
X140335000Y-58745476D01*
X140573095Y-58650238D02*
X140335000Y-58745476D01*
X140096904Y-58650238D01*
X140477857Y-58935952D02*
X140335000Y-58745476D01*
X140192142Y-58935952D01*
%TO.C,D_J1850_1*%
X161651271Y-67016523D02*
X161698890Y-67159380D01*
X161746509Y-67207000D01*
X161841747Y-67254619D01*
X161984604Y-67254619D01*
X162079842Y-67207000D01*
X162127461Y-67159380D01*
X162175080Y-67064142D01*
X162175080Y-66683190D01*
X161175080Y-66683190D01*
X161175080Y-67016523D01*
X161222700Y-67111761D01*
X161270319Y-67159380D01*
X161365557Y-67207000D01*
X161460795Y-67207000D01*
X161556033Y-67159380D01*
X161603652Y-67111761D01*
X161651271Y-67016523D01*
X161651271Y-66683190D01*
X161889366Y-67635571D02*
X161889366Y-68111761D01*
X162175080Y-67540333D02*
X161175080Y-67873666D01*
X162175080Y-68207000D01*
X161175080Y-68397476D02*
X161175080Y-68968904D01*
X162175080Y-68683190D02*
X161175080Y-68683190D01*
X161508414Y-69730809D02*
X162175080Y-69730809D01*
X161127461Y-69492714D02*
X161841747Y-69254619D01*
X161841747Y-69873666D01*
X161175080Y-70683190D02*
X161175080Y-70492714D01*
X161222700Y-70397476D01*
X161270319Y-70349857D01*
X161413176Y-70254619D01*
X161603652Y-70207000D01*
X161984604Y-70207000D01*
X162079842Y-70254619D01*
X162127461Y-70302238D01*
X162175080Y-70397476D01*
X162175080Y-70587952D01*
X162127461Y-70683190D01*
X162079842Y-70730809D01*
X161984604Y-70778428D01*
X161746509Y-70778428D01*
X161651271Y-70730809D01*
X161603652Y-70683190D01*
X161556033Y-70587952D01*
X161556033Y-70397476D01*
X161603652Y-70302238D01*
X161651271Y-70254619D01*
X161746509Y-70207000D01*
X164028380Y-73906095D02*
X163028380Y-73906095D01*
X164028380Y-74477523D02*
X163456952Y-74048952D01*
X163028380Y-74477523D02*
X163599809Y-73906095D01*
D20*
X164204604Y-65378428D02*
X163404604Y-65378428D01*
X163404604Y-65568904D01*
X163442700Y-65683190D01*
X163518890Y-65759380D01*
X163595080Y-65797476D01*
X163747461Y-65835571D01*
X163861747Y-65835571D01*
X164014128Y-65797476D01*
X164090319Y-65759380D01*
X164166509Y-65683190D01*
X164204604Y-65568904D01*
X164204604Y-65378428D01*
X164280795Y-65987952D02*
X164280795Y-66597476D01*
X163404604Y-67016523D02*
X163976033Y-67016523D01*
X164090319Y-66978428D01*
X164166509Y-66902238D01*
X164204604Y-66787952D01*
X164204604Y-66711761D01*
X164204604Y-67816523D02*
X164204604Y-67359380D01*
X164204604Y-67587952D02*
X163404604Y-67587952D01*
X163518890Y-67511761D01*
X163595080Y-67435571D01*
X163633176Y-67359380D01*
X163747461Y-68273666D02*
X163709366Y-68197476D01*
X163671271Y-68159380D01*
X163595080Y-68121285D01*
X163556985Y-68121285D01*
X163480795Y-68159380D01*
X163442700Y-68197476D01*
X163404604Y-68273666D01*
X163404604Y-68426047D01*
X163442700Y-68502238D01*
X163480795Y-68540333D01*
X163556985Y-68578428D01*
X163595080Y-68578428D01*
X163671271Y-68540333D01*
X163709366Y-68502238D01*
X163747461Y-68426047D01*
X163747461Y-68273666D01*
X163785557Y-68197476D01*
X163823652Y-68159380D01*
X163899842Y-68121285D01*
X164052223Y-68121285D01*
X164128414Y-68159380D01*
X164166509Y-68197476D01*
X164204604Y-68273666D01*
X164204604Y-68426047D01*
X164166509Y-68502238D01*
X164128414Y-68540333D01*
X164052223Y-68578428D01*
X163899842Y-68578428D01*
X163823652Y-68540333D01*
X163785557Y-68502238D01*
X163747461Y-68426047D01*
X163404604Y-69302238D02*
X163404604Y-68921285D01*
X163785557Y-68883190D01*
X163747461Y-68921285D01*
X163709366Y-68997476D01*
X163709366Y-69187952D01*
X163747461Y-69264142D01*
X163785557Y-69302238D01*
X163861747Y-69340333D01*
X164052223Y-69340333D01*
X164128414Y-69302238D01*
X164166509Y-69264142D01*
X164204604Y-69187952D01*
X164204604Y-68997476D01*
X164166509Y-68921285D01*
X164128414Y-68883190D01*
X163404604Y-69835571D02*
X163404604Y-69911761D01*
X163442700Y-69987952D01*
X163480795Y-70026047D01*
X163556985Y-70064142D01*
X163709366Y-70102238D01*
X163899842Y-70102238D01*
X164052223Y-70064142D01*
X164128414Y-70026047D01*
X164166509Y-69987952D01*
X164204604Y-69911761D01*
X164204604Y-69835571D01*
X164166509Y-69759380D01*
X164128414Y-69721285D01*
X164052223Y-69683190D01*
X163899842Y-69645095D01*
X163709366Y-69645095D01*
X163556985Y-69683190D01*
X163480795Y-69721285D01*
X163442700Y-69759380D01*
X163404604Y-69835571D01*
X164280795Y-70254619D02*
X164280795Y-70864142D01*
X164204604Y-71473666D02*
X164204604Y-71016523D01*
X164204604Y-71245095D02*
X163404604Y-71245095D01*
X163518890Y-71168904D01*
X163595080Y-71092714D01*
X163633176Y-71016523D01*
%TO.C,C_VR1_1*%
D11*
X145502380Y-140840002D02*
X145740476Y-140840002D01*
X145645238Y-140601906D02*
X145740476Y-140840002D01*
X145645238Y-141078097D01*
X145930952Y-140697144D02*
X145740476Y-140840002D01*
X145930952Y-140982859D01*
%TO.C,C_VR2_1*%
X136612380Y-137289998D02*
X136850476Y-137289998D01*
X136755238Y-137051902D02*
X136850476Y-137289998D01*
X136755238Y-137528093D01*
X137040952Y-137147140D02*
X136850476Y-137289998D01*
X137040952Y-137432855D01*
%TO.C,C_VR1_2*%
D19*
X144584113Y-133545381D02*
X144584113Y-133590442D01*
X144606643Y-133635502D01*
X144629173Y-133658033D01*
X144674234Y-133680563D01*
X144764356Y-133703094D01*
X144877008Y-133703094D01*
X144967130Y-133680563D01*
X145012191Y-133658033D01*
X145034721Y-133635502D01*
X145057252Y-133590442D01*
X145057252Y-133545381D01*
X145034721Y-133500320D01*
X145012191Y-133477789D01*
X144967130Y-133455259D01*
X144877008Y-133432729D01*
X144764356Y-133432729D01*
X144674234Y-133455259D01*
X144629173Y-133477789D01*
X144606643Y-133500320D01*
X144584113Y-133545381D01*
X145012191Y-133905868D02*
X145034721Y-133928398D01*
X145057252Y-133905868D01*
X145034721Y-133883337D01*
X145012191Y-133905868D01*
X145057252Y-133905868D01*
X145057252Y-134379007D02*
X145057252Y-134108641D01*
X145057252Y-134243824D02*
X144584113Y-134243824D01*
X144651704Y-134198763D01*
X144696765Y-134153702D01*
X144719295Y-134108641D01*
X144741826Y-134784554D02*
X145057252Y-134784554D01*
X144741826Y-134581780D02*
X144989660Y-134581780D01*
X145034721Y-134604311D01*
X145057252Y-134649372D01*
X145057252Y-134716963D01*
X145034721Y-134762024D01*
X145012191Y-134784554D01*
X144809417Y-135167572D02*
X144809417Y-135009859D01*
X145057252Y-135009859D02*
X144584113Y-135009859D01*
X144584113Y-135235163D01*
%TO.C,Q_ISO_3*%
D11*
X128555047Y-71866380D02*
X128555047Y-70866380D01*
X128221714Y-71580666D01*
X127888380Y-70866380D01*
X127888380Y-71866380D01*
X127412190Y-71866380D02*
X127412190Y-70866380D01*
X127078857Y-71580666D01*
X126745523Y-70866380D01*
X126745523Y-71866380D01*
X125936000Y-71342571D02*
X125793142Y-71390190D01*
X125745523Y-71437809D01*
X125697904Y-71533047D01*
X125697904Y-71675904D01*
X125745523Y-71771142D01*
X125793142Y-71818761D01*
X125888380Y-71866380D01*
X126269333Y-71866380D01*
X126269333Y-70866380D01*
X125936000Y-70866380D01*
X125840761Y-70914000D01*
X125793142Y-70961619D01*
X125745523Y-71056857D01*
X125745523Y-71152095D01*
X125793142Y-71247333D01*
X125840761Y-71294952D01*
X125936000Y-71342571D01*
X126269333Y-71342571D01*
X125412190Y-70866380D02*
X124840761Y-70866380D01*
X125126476Y-71866380D02*
X125126476Y-70866380D01*
X124602666Y-70866380D02*
X123983619Y-70866380D01*
X124316952Y-71247333D01*
X124174095Y-71247333D01*
X124078857Y-71294952D01*
X124031238Y-71342571D01*
X123983619Y-71437809D01*
X123983619Y-71675904D01*
X124031238Y-71771142D01*
X124078857Y-71818761D01*
X124174095Y-71866380D01*
X124459809Y-71866380D01*
X124555047Y-71818761D01*
X124602666Y-71771142D01*
X123507428Y-71866380D02*
X123316952Y-71866380D01*
X123221714Y-71818761D01*
X123174095Y-71771142D01*
X123078857Y-71628285D01*
X123031238Y-71437809D01*
X123031238Y-71056857D01*
X123078857Y-70961619D01*
X123126476Y-70914000D01*
X123221714Y-70866380D01*
X123412190Y-70866380D01*
X123507428Y-70914000D01*
X123555047Y-70961619D01*
X123602666Y-71056857D01*
X123602666Y-71294952D01*
X123555047Y-71390190D01*
X123507428Y-71437809D01*
X123412190Y-71485428D01*
X123221714Y-71485428D01*
X123126476Y-71437809D01*
X123078857Y-71390190D01*
X123031238Y-71294952D01*
X122412190Y-70866380D02*
X122316952Y-70866380D01*
X122221714Y-70914000D01*
X122174095Y-70961619D01*
X122126476Y-71056857D01*
X122078857Y-71247333D01*
X122078857Y-71485428D01*
X122126476Y-71675904D01*
X122174095Y-71771142D01*
X122221714Y-71818761D01*
X122316952Y-71866380D01*
X122412190Y-71866380D01*
X122507428Y-71818761D01*
X122555047Y-71771142D01*
X122602666Y-71675904D01*
X122650285Y-71485428D01*
X122650285Y-71247333D01*
X122602666Y-71056857D01*
X122555047Y-70961619D01*
X122507428Y-70914000D01*
X122412190Y-70866380D01*
X121221714Y-71199714D02*
X121221714Y-71866380D01*
X121459809Y-70818761D02*
X121697904Y-71533047D01*
X121078857Y-71533047D01*
X120793142Y-70866380D02*
X120555047Y-71866380D01*
X120364571Y-71152095D01*
X120174095Y-71866380D01*
X119936000Y-70866380D01*
X119697904Y-70866380D02*
X119126476Y-70866380D01*
X119412190Y-71866380D02*
X119412190Y-70866380D01*
X118269333Y-71866380D02*
X118840761Y-71866380D01*
X118555047Y-71866380D02*
X118555047Y-70866380D01*
X118650285Y-71009238D01*
X118745523Y-71104476D01*
X118840761Y-71152095D01*
X117316952Y-70914000D02*
X117412190Y-70866380D01*
X117555047Y-70866380D01*
X117697904Y-70914000D01*
X117793142Y-71009238D01*
X117840761Y-71104476D01*
X117888380Y-71294952D01*
X117888380Y-71437809D01*
X117840761Y-71628285D01*
X117793142Y-71723523D01*
X117697904Y-71818761D01*
X117555047Y-71866380D01*
X117459809Y-71866380D01*
X117316952Y-71818761D01*
X117269333Y-71771142D01*
X117269333Y-71437809D01*
X117459809Y-71437809D01*
D21*
X123209809Y-72866380D02*
X123186000Y-72818761D01*
X123138380Y-72771142D01*
X123066952Y-72699714D01*
X123043142Y-72652095D01*
X123043142Y-72604476D01*
X123162190Y-72628285D02*
X123138380Y-72580666D01*
X123090761Y-72533047D01*
X122995523Y-72509238D01*
X122828857Y-72509238D01*
X122733619Y-72533047D01*
X122686000Y-72580666D01*
X122662190Y-72628285D01*
X122662190Y-72723523D01*
X122686000Y-72771142D01*
X122733619Y-72818761D01*
X122828857Y-72842571D01*
X122995523Y-72842571D01*
X123090761Y-72818761D01*
X123138380Y-72771142D01*
X123162190Y-72723523D01*
X123162190Y-72628285D01*
X123209809Y-72937809D02*
X123209809Y-73318761D01*
X123162190Y-73437809D02*
X122662190Y-73437809D01*
X123138380Y-73652095D02*
X123162190Y-73723523D01*
X123162190Y-73842571D01*
X123138380Y-73890190D01*
X123114571Y-73914000D01*
X123066952Y-73937809D01*
X123019333Y-73937809D01*
X122971714Y-73914000D01*
X122947904Y-73890190D01*
X122924095Y-73842571D01*
X122900285Y-73747333D01*
X122876476Y-73699714D01*
X122852666Y-73675904D01*
X122805047Y-73652095D01*
X122757428Y-73652095D01*
X122709809Y-73675904D01*
X122686000Y-73699714D01*
X122662190Y-73747333D01*
X122662190Y-73866380D01*
X122686000Y-73937809D01*
X122662190Y-74247333D02*
X122662190Y-74342571D01*
X122686000Y-74390190D01*
X122733619Y-74437809D01*
X122828857Y-74461619D01*
X122995523Y-74461619D01*
X123090761Y-74437809D01*
X123138380Y-74390190D01*
X123162190Y-74342571D01*
X123162190Y-74247333D01*
X123138380Y-74199714D01*
X123090761Y-74152095D01*
X122995523Y-74128285D01*
X122828857Y-74128285D01*
X122733619Y-74152095D01*
X122686000Y-74199714D01*
X122662190Y-74247333D01*
X123209809Y-74556857D02*
X123209809Y-74937809D01*
X122662190Y-75009238D02*
X122662190Y-75318761D01*
X122852666Y-75152095D01*
X122852666Y-75223523D01*
X122876476Y-75271142D01*
X122900285Y-75294952D01*
X122947904Y-75318761D01*
X123066952Y-75318761D01*
X123114571Y-75294952D01*
X123138380Y-75271142D01*
X123162190Y-75223523D01*
X123162190Y-75080666D01*
X123138380Y-75033047D01*
X123114571Y-75009238D01*
%TO.C,Q_J1850_2*%
D19*
X147844433Y-107108286D02*
X146842968Y-107108286D01*
X147844433Y-107680552D01*
X146842968Y-107680552D01*
X146842968Y-108062062D02*
X147844433Y-108729706D01*
X146842968Y-108729706D02*
X147844433Y-108062062D01*
X146842968Y-109015838D02*
X146842968Y-109683482D01*
X147844433Y-109254282D01*
X146842968Y-110255747D02*
X146842968Y-110351125D01*
X146890657Y-110446503D01*
X146938346Y-110494192D01*
X147033723Y-110541880D01*
X147224479Y-110589569D01*
X147462923Y-110589569D01*
X147653678Y-110541880D01*
X147749056Y-110494192D01*
X147796744Y-110446503D01*
X147844433Y-110351125D01*
X147844433Y-110255747D01*
X147796744Y-110160370D01*
X147749056Y-110112681D01*
X147653678Y-110064992D01*
X147462923Y-110017303D01*
X147224479Y-110017303D01*
X147033723Y-110064992D01*
X146938346Y-110112681D01*
X146890657Y-110160370D01*
X146842968Y-110255747D01*
X146842968Y-111209524D02*
X146842968Y-111304901D01*
X146890657Y-111400279D01*
X146938346Y-111447968D01*
X147033723Y-111495657D01*
X147224479Y-111543345D01*
X147462923Y-111543345D01*
X147653678Y-111495657D01*
X147749056Y-111447968D01*
X147796744Y-111400279D01*
X147844433Y-111304901D01*
X147844433Y-111209524D01*
X147796744Y-111114146D01*
X147749056Y-111066457D01*
X147653678Y-111018768D01*
X147462923Y-110971080D01*
X147224479Y-110971080D01*
X147033723Y-111018768D01*
X146938346Y-111066457D01*
X146890657Y-111114146D01*
X146842968Y-111209524D01*
X146938346Y-111924856D02*
X146890657Y-111972545D01*
X146842968Y-112067922D01*
X146842968Y-112306366D01*
X146890657Y-112401744D01*
X146938346Y-112449433D01*
X147033723Y-112497122D01*
X147129101Y-112497122D01*
X147272167Y-112449433D01*
X147844433Y-111877167D01*
X147844433Y-112497122D01*
X147558300Y-112878632D02*
X147558300Y-113355520D01*
X147844433Y-112783254D02*
X146842968Y-113117076D01*
X147844433Y-113450898D01*
X147844433Y-113784719D02*
X146842968Y-113784719D01*
X147844433Y-114356985D02*
X147272167Y-113927786D01*
X146842968Y-114356985D02*
X147415234Y-113784719D01*
X147796744Y-114833873D02*
X147844433Y-114833873D01*
X147939811Y-114786184D01*
X147987500Y-114738496D01*
X146938346Y-115215384D02*
X146890657Y-115263072D01*
X146842968Y-115358450D01*
X146842968Y-115596894D01*
X146890657Y-115692272D01*
X146938346Y-115739961D01*
X147033723Y-115787649D01*
X147129101Y-115787649D01*
X147272167Y-115739961D01*
X147844433Y-115167695D01*
X147844433Y-115787649D01*
X147844433Y-116741426D02*
X147844433Y-116169160D01*
X147844433Y-116455293D02*
X146842968Y-116455293D01*
X146986035Y-116359915D01*
X147081412Y-116264537D01*
X147129101Y-116169160D01*
X146842968Y-117647513D02*
X146842968Y-117170625D01*
X147319856Y-117122936D01*
X147272167Y-117170625D01*
X147224479Y-117266002D01*
X147224479Y-117504447D01*
X147272167Y-117599824D01*
X147319856Y-117647513D01*
X147415234Y-117695202D01*
X147653678Y-117695202D01*
X147749056Y-117647513D01*
X147796744Y-117599824D01*
X147844433Y-117504447D01*
X147844433Y-117266002D01*
X147796744Y-117170625D01*
X147749056Y-117122936D01*
%TO.C,R_COMP_2*%
X161794345Y-118508102D02*
X162019317Y-118508102D01*
X161906831Y-118508102D02*
X161906831Y-118114401D01*
X161944327Y-118170644D01*
X161981822Y-118208140D01*
X162019317Y-118226887D01*
X161550626Y-118114401D02*
X161513130Y-118114401D01*
X161475635Y-118133149D01*
X161456887Y-118151897D01*
X161438140Y-118189392D01*
X161419392Y-118264383D01*
X161419392Y-118358121D01*
X161438140Y-118433112D01*
X161456887Y-118470607D01*
X161475635Y-118489355D01*
X161513130Y-118508102D01*
X161550626Y-118508102D01*
X161588121Y-118489355D01*
X161606869Y-118470607D01*
X161625616Y-118433112D01*
X161644364Y-118358121D01*
X161644364Y-118264383D01*
X161625616Y-118189392D01*
X161606869Y-118151897D01*
X161588121Y-118133149D01*
X161550626Y-118114401D01*
X161250663Y-118508102D02*
X161250663Y-118114401D01*
X161213168Y-118358121D02*
X161100682Y-118508102D01*
X161100682Y-118245635D02*
X161250663Y-118395616D01*
%TO.C,R_COMP_3*%
X149824345Y-104098102D02*
X150049317Y-104098102D01*
X149936831Y-104098102D02*
X149936831Y-103704401D01*
X149974327Y-103760644D01*
X150011822Y-103798140D01*
X150049317Y-103816887D01*
X149580626Y-103704401D02*
X149543130Y-103704401D01*
X149505635Y-103723149D01*
X149486887Y-103741897D01*
X149468140Y-103779392D01*
X149449392Y-103854383D01*
X149449392Y-103948121D01*
X149468140Y-104023112D01*
X149486887Y-104060607D01*
X149505635Y-104079355D01*
X149543130Y-104098102D01*
X149580626Y-104098102D01*
X149618121Y-104079355D01*
X149636869Y-104060607D01*
X149655616Y-104023112D01*
X149674364Y-103948121D01*
X149674364Y-103854383D01*
X149655616Y-103779392D01*
X149636869Y-103741897D01*
X149618121Y-103723149D01*
X149580626Y-103704401D01*
X149280663Y-104098102D02*
X149280663Y-103704401D01*
X149243168Y-103948121D02*
X149130682Y-104098102D01*
X149130682Y-103835635D02*
X149280663Y-103985616D01*
%TO.C,Q_ISO_1*%
D11*
X115022380Y-73660000D02*
X115260476Y-73660000D01*
X115165238Y-73421904D02*
X115260476Y-73660000D01*
X115165238Y-73898095D01*
X115450952Y-73517142D02*
X115260476Y-73660000D01*
X115450952Y-73802857D01*
%TO.C,Q_J1850_1*%
D19*
X158321713Y-68977433D02*
X158321713Y-67975968D01*
X157749447Y-68977433D01*
X157749447Y-67975968D01*
X157367937Y-67975968D02*
X156700293Y-68977433D01*
X156700293Y-67975968D02*
X157367937Y-68977433D01*
X156414161Y-67975968D02*
X155746517Y-67975968D01*
X156175717Y-68977433D01*
X155174252Y-67975968D02*
X155078874Y-67975968D01*
X154983496Y-68023657D01*
X154935807Y-68071346D01*
X154888119Y-68166723D01*
X154840430Y-68357479D01*
X154840430Y-68595923D01*
X154888119Y-68786678D01*
X154935807Y-68882056D01*
X154983496Y-68929744D01*
X155078874Y-68977433D01*
X155174252Y-68977433D01*
X155269629Y-68929744D01*
X155317318Y-68882056D01*
X155365007Y-68786678D01*
X155412696Y-68595923D01*
X155412696Y-68357479D01*
X155365007Y-68166723D01*
X155317318Y-68071346D01*
X155269629Y-68023657D01*
X155174252Y-67975968D01*
X154220475Y-67975968D02*
X154125098Y-67975968D01*
X154029720Y-68023657D01*
X153982031Y-68071346D01*
X153934342Y-68166723D01*
X153886654Y-68357479D01*
X153886654Y-68595923D01*
X153934342Y-68786678D01*
X153982031Y-68882056D01*
X154029720Y-68929744D01*
X154125098Y-68977433D01*
X154220475Y-68977433D01*
X154315853Y-68929744D01*
X154363542Y-68882056D01*
X154411231Y-68786678D01*
X154458919Y-68595923D01*
X154458919Y-68357479D01*
X154411231Y-68166723D01*
X154363542Y-68071346D01*
X154315853Y-68023657D01*
X154220475Y-67975968D01*
X153505143Y-68071346D02*
X153457454Y-68023657D01*
X153362077Y-67975968D01*
X153123633Y-67975968D01*
X153028255Y-68023657D01*
X152980566Y-68071346D01*
X152932877Y-68166723D01*
X152932877Y-68262101D01*
X152980566Y-68405167D01*
X153552832Y-68977433D01*
X152932877Y-68977433D01*
X152551367Y-68691300D02*
X152074479Y-68691300D01*
X152646745Y-68977433D02*
X152312923Y-67975968D01*
X151979101Y-68977433D01*
X151645280Y-68977433D02*
X151645280Y-67975968D01*
X151073014Y-68977433D02*
X151502213Y-68405167D01*
X151073014Y-67975968D02*
X151645280Y-68548234D01*
X150596126Y-68929744D02*
X150596126Y-68977433D01*
X150643815Y-69072811D01*
X150691503Y-69120500D01*
X150214615Y-68071346D02*
X150166927Y-68023657D01*
X150071549Y-67975968D01*
X149833105Y-67975968D01*
X149737727Y-68023657D01*
X149690038Y-68071346D01*
X149642350Y-68166723D01*
X149642350Y-68262101D01*
X149690038Y-68405167D01*
X150262304Y-68977433D01*
X149642350Y-68977433D01*
X148688573Y-68977433D02*
X149260839Y-68977433D01*
X148974706Y-68977433D02*
X148974706Y-67975968D01*
X149070084Y-68119035D01*
X149165462Y-68214412D01*
X149260839Y-68262101D01*
X147782486Y-67975968D02*
X148259374Y-67975968D01*
X148307063Y-68452856D01*
X148259374Y-68405167D01*
X148163997Y-68357479D01*
X147925552Y-68357479D01*
X147830175Y-68405167D01*
X147782486Y-68452856D01*
X147734797Y-68548234D01*
X147734797Y-68786678D01*
X147782486Y-68882056D01*
X147830175Y-68929744D01*
X147925552Y-68977433D01*
X148163997Y-68977433D01*
X148259374Y-68929744D01*
X148307063Y-68882056D01*
%TO.C,R_COMP_4*%
X163127845Y-90822102D02*
X163352817Y-90822102D01*
X163240331Y-90822102D02*
X163240331Y-90428401D01*
X163277827Y-90484644D01*
X163315322Y-90522140D01*
X163352817Y-90540887D01*
X162884126Y-90428401D02*
X162846630Y-90428401D01*
X162809135Y-90447149D01*
X162790387Y-90465897D01*
X162771640Y-90503392D01*
X162752892Y-90578383D01*
X162752892Y-90672121D01*
X162771640Y-90747112D01*
X162790387Y-90784607D01*
X162809135Y-90803355D01*
X162846630Y-90822102D01*
X162884126Y-90822102D01*
X162921621Y-90803355D01*
X162940369Y-90784607D01*
X162959116Y-90747112D01*
X162977864Y-90672121D01*
X162977864Y-90578383D01*
X162959116Y-90503392D01*
X162940369Y-90465897D01*
X162921621Y-90447149D01*
X162884126Y-90428401D01*
X162584163Y-90822102D02*
X162584163Y-90428401D01*
X162546668Y-90672121D02*
X162434182Y-90822102D01*
X162434182Y-90559635D02*
X162584163Y-90709616D01*
%TO.C,R_J1850_5*%
X155539345Y-120608102D02*
X155764317Y-120608102D01*
X155651831Y-120608102D02*
X155651831Y-120214401D01*
X155689327Y-120270644D01*
X155726822Y-120308140D01*
X155764317Y-120326887D01*
X155295626Y-120214401D02*
X155258130Y-120214401D01*
X155220635Y-120233149D01*
X155201887Y-120251897D01*
X155183140Y-120289392D01*
X155164392Y-120364383D01*
X155164392Y-120458121D01*
X155183140Y-120533112D01*
X155201887Y-120570607D01*
X155220635Y-120589355D01*
X155258130Y-120608102D01*
X155295626Y-120608102D01*
X155333121Y-120589355D01*
X155351869Y-120570607D01*
X155370616Y-120533112D01*
X155389364Y-120458121D01*
X155389364Y-120364383D01*
X155370616Y-120289392D01*
X155351869Y-120251897D01*
X155333121Y-120233149D01*
X155295626Y-120214401D01*
X154995663Y-120608102D02*
X154995663Y-120214401D01*
X154958168Y-120458121D02*
X154845682Y-120608102D01*
X154845682Y-120345635D02*
X154995663Y-120495616D01*
%TO.C,R_J1850_2*%
X160282102Y-63291915D02*
X160282102Y-63066943D01*
X160282102Y-63179429D02*
X159888401Y-63179429D01*
X159944644Y-63141934D01*
X159982140Y-63104439D01*
X160000887Y-63066943D01*
X160244607Y-63460644D02*
X160263355Y-63479392D01*
X160282102Y-63460644D01*
X160263355Y-63441897D01*
X160244607Y-63460644D01*
X160282102Y-63460644D01*
X159888401Y-63835598D02*
X159888401Y-63648121D01*
X160075878Y-63629373D01*
X160057130Y-63648121D01*
X160038383Y-63685616D01*
X160038383Y-63779355D01*
X160057130Y-63816850D01*
X160075878Y-63835598D01*
X160113373Y-63854345D01*
X160207112Y-63854345D01*
X160244607Y-63835598D01*
X160263355Y-63816850D01*
X160282102Y-63779355D01*
X160282102Y-63685616D01*
X160263355Y-63648121D01*
X160244607Y-63629373D01*
X160282102Y-64023074D02*
X159888401Y-64023074D01*
X160132121Y-64060570D02*
X160282102Y-64173056D01*
X160019635Y-64173056D02*
X160169616Y-64023074D01*
%TO.C,R_J1850_6*%
X154667439Y-72752897D02*
X154648691Y-72734149D01*
X154611196Y-72715401D01*
X154517458Y-72715401D01*
X154479962Y-72734149D01*
X154461215Y-72752897D01*
X154442467Y-72790392D01*
X154442467Y-72827887D01*
X154461215Y-72884130D01*
X154686187Y-73109102D01*
X154442467Y-73109102D01*
X154105009Y-72846635D02*
X154105009Y-73109102D01*
X154198747Y-72696654D02*
X154292486Y-72977869D01*
X154048766Y-72977869D01*
X153823794Y-72715401D02*
X153786299Y-72715401D01*
X153748803Y-72734149D01*
X153730056Y-72752897D01*
X153711308Y-72790392D01*
X153692560Y-72865383D01*
X153692560Y-72959121D01*
X153711308Y-73034112D01*
X153730056Y-73071607D01*
X153748803Y-73090355D01*
X153786299Y-73109102D01*
X153823794Y-73109102D01*
X153861289Y-73090355D01*
X153880037Y-73071607D01*
X153898785Y-73034112D01*
X153917532Y-72959121D01*
X153917532Y-72865383D01*
X153898785Y-72790392D01*
X153880037Y-72752897D01*
X153861289Y-72734149D01*
X153823794Y-72715401D01*
%TO.C,R_STN_2*%
X117848701Y-106671113D02*
X117848701Y-106914832D01*
X117998683Y-106783599D01*
X117998683Y-106839842D01*
X118017430Y-106877337D01*
X118036178Y-106896085D01*
X118073673Y-106914832D01*
X118167412Y-106914832D01*
X118204907Y-106896085D01*
X118223655Y-106877337D01*
X118242402Y-106839842D01*
X118242402Y-106727356D01*
X118223655Y-106689860D01*
X118204907Y-106671113D01*
X117848701Y-107046066D02*
X117848701Y-107289786D01*
X117998683Y-107158552D01*
X117998683Y-107214795D01*
X118017430Y-107252290D01*
X118036178Y-107271038D01*
X118073673Y-107289786D01*
X118167412Y-107289786D01*
X118204907Y-107271038D01*
X118223655Y-107252290D01*
X118242402Y-107214795D01*
X118242402Y-107102309D01*
X118223655Y-107064814D01*
X118204907Y-107046066D01*
X117848701Y-107533505D02*
X117848701Y-107571001D01*
X117867449Y-107608496D01*
X117886197Y-107627244D01*
X117923692Y-107645991D01*
X117998683Y-107664739D01*
X118092421Y-107664739D01*
X118167412Y-107645991D01*
X118204907Y-107627244D01*
X118223655Y-107608496D01*
X118242402Y-107571001D01*
X118242402Y-107533505D01*
X118223655Y-107496010D01*
X118204907Y-107477262D01*
X118167412Y-107458515D01*
X118092421Y-107439767D01*
X117998683Y-107439767D01*
X117923692Y-107458515D01*
X117886197Y-107477262D01*
X117867449Y-107496010D01*
X117848701Y-107533505D01*
%TO.C,R_STN_7*%
X129114990Y-103438102D02*
X129339962Y-103438102D01*
X129227476Y-103438102D02*
X129227476Y-103044401D01*
X129264972Y-103100644D01*
X129302467Y-103138140D01*
X129339962Y-103156887D01*
X128871271Y-103044401D02*
X128833775Y-103044401D01*
X128796280Y-103063149D01*
X128777532Y-103081897D01*
X128758785Y-103119392D01*
X128740037Y-103194383D01*
X128740037Y-103288121D01*
X128758785Y-103363112D01*
X128777532Y-103400607D01*
X128796280Y-103419355D01*
X128833775Y-103438102D01*
X128871271Y-103438102D01*
X128908766Y-103419355D01*
X128927514Y-103400607D01*
X128946261Y-103363112D01*
X128965009Y-103288121D01*
X128965009Y-103194383D01*
X128946261Y-103119392D01*
X128927514Y-103081897D01*
X128908766Y-103063149D01*
X128871271Y-103044401D01*
%TO.C,R_STN_8*%
X142198102Y-101448177D02*
X142198102Y-101223205D01*
X142198102Y-101335691D02*
X141804401Y-101335691D01*
X141860644Y-101298196D01*
X141898140Y-101260700D01*
X141916887Y-101223205D01*
X141804401Y-101691897D02*
X141804401Y-101729392D01*
X141823149Y-101766887D01*
X141841897Y-101785635D01*
X141879392Y-101804383D01*
X141954383Y-101823130D01*
X142048121Y-101823130D01*
X142123112Y-101804383D01*
X142160607Y-101785635D01*
X142179355Y-101766887D01*
X142198102Y-101729392D01*
X142198102Y-101691897D01*
X142179355Y-101654401D01*
X142160607Y-101635654D01*
X142123112Y-101616906D01*
X142048121Y-101598158D01*
X141954383Y-101598158D01*
X141879392Y-101616906D01*
X141841897Y-101635654D01*
X141823149Y-101654401D01*
X141804401Y-101691897D01*
X141804401Y-102066850D02*
X141804401Y-102104345D01*
X141823149Y-102141841D01*
X141841897Y-102160588D01*
X141879392Y-102179336D01*
X141954383Y-102198084D01*
X142048121Y-102198084D01*
X142123112Y-102179336D01*
X142160607Y-102160588D01*
X142179355Y-102141841D01*
X142198102Y-102104345D01*
X142198102Y-102066850D01*
X142179355Y-102029355D01*
X142160607Y-102010607D01*
X142123112Y-101991859D01*
X142048121Y-101973112D01*
X141954383Y-101973112D01*
X141879392Y-101991859D01*
X141841897Y-102010607D01*
X141823149Y-102029355D01*
X141804401Y-102066850D01*
X142198102Y-102366813D02*
X141804401Y-102366813D01*
X142048121Y-102404308D02*
X142198102Y-102516794D01*
X141935635Y-102516794D02*
X142085616Y-102366813D01*
%TO.C,R_ISO_1*%
D11*
X119151400Y-68667380D02*
X119151400Y-68905476D01*
X119389495Y-68810238D02*
X119151400Y-68905476D01*
X118913304Y-68810238D01*
X119294257Y-69095952D02*
X119151400Y-68905476D01*
X119008542Y-69095952D01*
%TO.C,R_MSCAN_1*%
D19*
X123341822Y-127593102D02*
X123566794Y-127593102D01*
X123454308Y-127593102D02*
X123454308Y-127199401D01*
X123491803Y-127255644D01*
X123529299Y-127293140D01*
X123566794Y-127311887D01*
X123098102Y-127199401D02*
X123060607Y-127199401D01*
X123023112Y-127218149D01*
X123004364Y-127236897D01*
X122985616Y-127274392D01*
X122966869Y-127349383D01*
X122966869Y-127443121D01*
X122985616Y-127518112D01*
X123004364Y-127555607D01*
X123023112Y-127574355D01*
X123060607Y-127593102D01*
X123098102Y-127593102D01*
X123135598Y-127574355D01*
X123154345Y-127555607D01*
X123173093Y-127518112D01*
X123191841Y-127443121D01*
X123191841Y-127349383D01*
X123173093Y-127274392D01*
X123154345Y-127236897D01*
X123135598Y-127218149D01*
X123098102Y-127199401D01*
X122723149Y-127199401D02*
X122685654Y-127199401D01*
X122648158Y-127218149D01*
X122629411Y-127236897D01*
X122610663Y-127274392D01*
X122591915Y-127349383D01*
X122591915Y-127443121D01*
X122610663Y-127518112D01*
X122629411Y-127555607D01*
X122648158Y-127574355D01*
X122685654Y-127593102D01*
X122723149Y-127593102D01*
X122760644Y-127574355D01*
X122779392Y-127555607D01*
X122798140Y-127518112D01*
X122816887Y-127443121D01*
X122816887Y-127349383D01*
X122798140Y-127274392D01*
X122779392Y-127236897D01*
X122760644Y-127218149D01*
X122723149Y-127199401D01*
X122423186Y-127593102D02*
X122423186Y-127199401D01*
X122385691Y-127443121D02*
X122273205Y-127593102D01*
X122273205Y-127330635D02*
X122423186Y-127480616D01*
%TO.C,R_PSW_1*%
X143908102Y-119508177D02*
X143908102Y-119283205D01*
X143908102Y-119395691D02*
X143514401Y-119395691D01*
X143570644Y-119358196D01*
X143608140Y-119320700D01*
X143626887Y-119283205D01*
X143514401Y-119751897D02*
X143514401Y-119789392D01*
X143533149Y-119826887D01*
X143551897Y-119845635D01*
X143589392Y-119864383D01*
X143664383Y-119883130D01*
X143758121Y-119883130D01*
X143833112Y-119864383D01*
X143870607Y-119845635D01*
X143889355Y-119826887D01*
X143908102Y-119789392D01*
X143908102Y-119751897D01*
X143889355Y-119714401D01*
X143870607Y-119695654D01*
X143833112Y-119676906D01*
X143758121Y-119658158D01*
X143664383Y-119658158D01*
X143589392Y-119676906D01*
X143551897Y-119695654D01*
X143533149Y-119714401D01*
X143514401Y-119751897D01*
X143514401Y-120126850D02*
X143514401Y-120164345D01*
X143533149Y-120201841D01*
X143551897Y-120220588D01*
X143589392Y-120239336D01*
X143664383Y-120258084D01*
X143758121Y-120258084D01*
X143833112Y-120239336D01*
X143870607Y-120220588D01*
X143889355Y-120201841D01*
X143908102Y-120164345D01*
X143908102Y-120126850D01*
X143889355Y-120089355D01*
X143870607Y-120070607D01*
X143833112Y-120051859D01*
X143758121Y-120033112D01*
X143664383Y-120033112D01*
X143589392Y-120051859D01*
X143551897Y-120070607D01*
X143533149Y-120089355D01*
X143514401Y-120126850D01*
X143908102Y-120426813D02*
X143514401Y-120426813D01*
X143758121Y-120464308D02*
X143908102Y-120576794D01*
X143645635Y-120576794D02*
X143795616Y-120426813D01*
%TO.C,R_J1850_3*%
X150953448Y-70024130D02*
X150990944Y-70005383D01*
X151009691Y-69986635D01*
X151028439Y-69949140D01*
X151028439Y-69930392D01*
X151009691Y-69892897D01*
X150990944Y-69874149D01*
X150953448Y-69855401D01*
X150878458Y-69855401D01*
X150840962Y-69874149D01*
X150822215Y-69892897D01*
X150803467Y-69930392D01*
X150803467Y-69949140D01*
X150822215Y-69986635D01*
X150840962Y-70005383D01*
X150878458Y-70024130D01*
X150953448Y-70024130D01*
X150990944Y-70042878D01*
X151009691Y-70061626D01*
X151028439Y-70099121D01*
X151028439Y-70174112D01*
X151009691Y-70211607D01*
X150990944Y-70230355D01*
X150953448Y-70249102D01*
X150878458Y-70249102D01*
X150840962Y-70230355D01*
X150822215Y-70211607D01*
X150803467Y-70174112D01*
X150803467Y-70099121D01*
X150822215Y-70061626D01*
X150840962Y-70042878D01*
X150878458Y-70024130D01*
X150466009Y-69855401D02*
X150541000Y-69855401D01*
X150578495Y-69874149D01*
X150597243Y-69892897D01*
X150634738Y-69949140D01*
X150653486Y-70024130D01*
X150653486Y-70174112D01*
X150634738Y-70211607D01*
X150615990Y-70230355D01*
X150578495Y-70249102D01*
X150503504Y-70249102D01*
X150466009Y-70230355D01*
X150447261Y-70211607D01*
X150428514Y-70174112D01*
X150428514Y-70080373D01*
X150447261Y-70042878D01*
X150466009Y-70024130D01*
X150503504Y-70005383D01*
X150578495Y-70005383D01*
X150615990Y-70024130D01*
X150634738Y-70042878D01*
X150653486Y-70080373D01*
X150091056Y-69855401D02*
X150166046Y-69855401D01*
X150203542Y-69874149D01*
X150222289Y-69892897D01*
X150259785Y-69949140D01*
X150278532Y-70024130D01*
X150278532Y-70174112D01*
X150259785Y-70211607D01*
X150241037Y-70230355D01*
X150203542Y-70249102D01*
X150128551Y-70249102D01*
X150091056Y-70230355D01*
X150072308Y-70211607D01*
X150053560Y-70174112D01*
X150053560Y-70080373D01*
X150072308Y-70042878D01*
X150091056Y-70024130D01*
X150128551Y-70005383D01*
X150203542Y-70005383D01*
X150241037Y-70024130D01*
X150259785Y-70042878D01*
X150278532Y-70080373D01*
%TO.C,R_ISO_4*%
X120434401Y-64719541D02*
X120434401Y-64532065D01*
X120621878Y-64513317D01*
X120603130Y-64532065D01*
X120584383Y-64569560D01*
X120584383Y-64663298D01*
X120603130Y-64700794D01*
X120621878Y-64719541D01*
X120659373Y-64738289D01*
X120753112Y-64738289D01*
X120790607Y-64719541D01*
X120809355Y-64700794D01*
X120828102Y-64663298D01*
X120828102Y-64569560D01*
X120809355Y-64532065D01*
X120790607Y-64513317D01*
X120828102Y-65113242D02*
X120828102Y-64888270D01*
X120828102Y-65000756D02*
X120434401Y-65000756D01*
X120490644Y-64963261D01*
X120528140Y-64925766D01*
X120546887Y-64888270D01*
X120434401Y-65356962D02*
X120434401Y-65394457D01*
X120453149Y-65431953D01*
X120471897Y-65450700D01*
X120509392Y-65469448D01*
X120584383Y-65488196D01*
X120678121Y-65488196D01*
X120753112Y-65469448D01*
X120790607Y-65450700D01*
X120809355Y-65431953D01*
X120828102Y-65394457D01*
X120828102Y-65356962D01*
X120809355Y-65319467D01*
X120790607Y-65300719D01*
X120753112Y-65281971D01*
X120678121Y-65263224D01*
X120584383Y-65263224D01*
X120509392Y-65281971D01*
X120471897Y-65300719D01*
X120453149Y-65319467D01*
X120434401Y-65356962D01*
X120828102Y-65656925D02*
X120434401Y-65656925D01*
X120678121Y-65694420D02*
X120828102Y-65806906D01*
X120565635Y-65806906D02*
X120715616Y-65656925D01*
X120415654Y-66256850D02*
X120921841Y-65919392D01*
X120434401Y-66463074D02*
X120434401Y-66500570D01*
X120453149Y-66538065D01*
X120471897Y-66556813D01*
X120509392Y-66575560D01*
X120584383Y-66594308D01*
X120678121Y-66594308D01*
X120753112Y-66575560D01*
X120790607Y-66556813D01*
X120809355Y-66538065D01*
X120828102Y-66500570D01*
X120828102Y-66463074D01*
X120809355Y-66425579D01*
X120790607Y-66406831D01*
X120753112Y-66388084D01*
X120678121Y-66369336D01*
X120584383Y-66369336D01*
X120509392Y-66388084D01*
X120471897Y-66406831D01*
X120453149Y-66425579D01*
X120434401Y-66463074D01*
X120790607Y-66763037D02*
X120809355Y-66781785D01*
X120828102Y-66763037D01*
X120809355Y-66744289D01*
X120790607Y-66763037D01*
X120828102Y-66763037D01*
X120434401Y-67137990D02*
X120434401Y-66950514D01*
X120621878Y-66931766D01*
X120603130Y-66950514D01*
X120584383Y-66988009D01*
X120584383Y-67081747D01*
X120603130Y-67119243D01*
X120621878Y-67137990D01*
X120659373Y-67156738D01*
X120753112Y-67156738D01*
X120790607Y-67137990D01*
X120809355Y-67119243D01*
X120828102Y-67081747D01*
X120828102Y-66988009D01*
X120809355Y-66950514D01*
X120790607Y-66931766D01*
X120434401Y-67287972D02*
X120828102Y-67381710D01*
X120546887Y-67456701D01*
X120828102Y-67531691D01*
X120434401Y-67625430D01*
%TO.C,Q_J1850_4*%
X144317513Y-132461653D02*
X144317513Y-131460188D01*
X143745247Y-132461653D01*
X143745247Y-131460188D01*
X143363737Y-131460188D02*
X142696093Y-132461653D01*
X142696093Y-131460188D02*
X143363737Y-132461653D01*
X142409961Y-131460188D02*
X141742317Y-131460188D01*
X142171517Y-132461653D01*
X141170052Y-131460188D02*
X141074674Y-131460188D01*
X140979296Y-131507877D01*
X140931607Y-131555566D01*
X140883919Y-131650943D01*
X140836230Y-131841699D01*
X140836230Y-132080143D01*
X140883919Y-132270898D01*
X140931607Y-132366276D01*
X140979296Y-132413964D01*
X141074674Y-132461653D01*
X141170052Y-132461653D01*
X141265429Y-132413964D01*
X141313118Y-132366276D01*
X141360807Y-132270898D01*
X141408496Y-132080143D01*
X141408496Y-131841699D01*
X141360807Y-131650943D01*
X141313118Y-131555566D01*
X141265429Y-131507877D01*
X141170052Y-131460188D01*
X140216275Y-131460188D02*
X140120898Y-131460188D01*
X140025520Y-131507877D01*
X139977831Y-131555566D01*
X139930142Y-131650943D01*
X139882454Y-131841699D01*
X139882454Y-132080143D01*
X139930142Y-132270898D01*
X139977831Y-132366276D01*
X140025520Y-132413964D01*
X140120898Y-132461653D01*
X140216275Y-132461653D01*
X140311653Y-132413964D01*
X140359342Y-132366276D01*
X140407031Y-132270898D01*
X140454719Y-132080143D01*
X140454719Y-131841699D01*
X140407031Y-131650943D01*
X140359342Y-131555566D01*
X140311653Y-131507877D01*
X140216275Y-131460188D01*
X139500943Y-131555566D02*
X139453254Y-131507877D01*
X139357877Y-131460188D01*
X139119433Y-131460188D01*
X139024055Y-131507877D01*
X138976366Y-131555566D01*
X138928677Y-131650943D01*
X138928677Y-131746321D01*
X138976366Y-131889387D01*
X139548632Y-132461653D01*
X138928677Y-132461653D01*
X138547167Y-132175520D02*
X138070279Y-132175520D01*
X138642545Y-132461653D02*
X138308723Y-131460188D01*
X137974901Y-132461653D01*
X137641080Y-132461653D02*
X137641080Y-131460188D01*
X137068814Y-132461653D02*
X137498013Y-131889387D01*
X137068814Y-131460188D02*
X137641080Y-132032454D01*
X136591926Y-132413964D02*
X136591926Y-132461653D01*
X136639615Y-132557031D01*
X136687303Y-132604720D01*
X136210415Y-131555566D02*
X136162727Y-131507877D01*
X136067349Y-131460188D01*
X135828905Y-131460188D01*
X135733527Y-131507877D01*
X135685838Y-131555566D01*
X135638150Y-131650943D01*
X135638150Y-131746321D01*
X135685838Y-131889387D01*
X136258104Y-132461653D01*
X135638150Y-132461653D01*
X134684373Y-132461653D02*
X135256639Y-132461653D01*
X134970506Y-132461653D02*
X134970506Y-131460188D01*
X135065884Y-131603255D01*
X135161262Y-131698632D01*
X135256639Y-131746321D01*
X133778286Y-131460188D02*
X134255174Y-131460188D01*
X134302863Y-131937076D01*
X134255174Y-131889387D01*
X134159797Y-131841699D01*
X133921352Y-131841699D01*
X133825975Y-131889387D01*
X133778286Y-131937076D01*
X133730597Y-132032454D01*
X133730597Y-132270898D01*
X133778286Y-132366276D01*
X133825975Y-132413964D01*
X133921352Y-132461653D01*
X134159797Y-132461653D01*
X134255174Y-132413964D01*
X134302863Y-132366276D01*
%TO.C,R_J1850_7*%
X152358102Y-134205654D02*
X152358102Y-133980682D01*
X152358102Y-134093168D02*
X151964401Y-134093168D01*
X152020644Y-134055672D01*
X152058140Y-134018177D01*
X152076887Y-133980682D01*
X151964401Y-134449373D02*
X151964401Y-134486869D01*
X151983149Y-134524364D01*
X152001897Y-134543112D01*
X152039392Y-134561859D01*
X152114383Y-134580607D01*
X152208121Y-134580607D01*
X152283112Y-134561859D01*
X152320607Y-134543112D01*
X152339355Y-134524364D01*
X152358102Y-134486869D01*
X152358102Y-134449373D01*
X152339355Y-134411878D01*
X152320607Y-134393130D01*
X152283112Y-134374383D01*
X152208121Y-134355635D01*
X152114383Y-134355635D01*
X152039392Y-134374383D01*
X152001897Y-134393130D01*
X151983149Y-134411878D01*
X151964401Y-134449373D01*
X152358102Y-134749336D02*
X151964401Y-134749336D01*
X152208121Y-134786831D02*
X152358102Y-134899317D01*
X152095635Y-134899317D02*
X152245616Y-134749336D01*
%TO.C,D_ESD_5*%
X155828342Y-158447657D02*
X155348342Y-158447657D01*
X155691200Y-158607657D01*
X155348342Y-158767657D01*
X155828342Y-158767657D01*
X155828342Y-158996228D02*
X155348342Y-158996228D01*
X155691200Y-159156228D01*
X155348342Y-159316228D01*
X155828342Y-159316228D01*
X155576914Y-159704800D02*
X155599771Y-159773371D01*
X155622628Y-159796228D01*
X155668342Y-159819085D01*
X155736914Y-159819085D01*
X155782628Y-159796228D01*
X155805485Y-159773371D01*
X155828342Y-159727657D01*
X155828342Y-159544800D01*
X155348342Y-159544800D01*
X155348342Y-159704800D01*
X155371200Y-159750514D01*
X155394057Y-159773371D01*
X155439771Y-159796228D01*
X155485485Y-159796228D01*
X155531200Y-159773371D01*
X155554057Y-159750514D01*
X155576914Y-159704800D01*
X155576914Y-159544800D01*
X155348342Y-159979085D02*
X155348342Y-160299085D01*
X155828342Y-159979085D01*
X155828342Y-160299085D01*
X155394057Y-160459085D02*
X155371200Y-160481942D01*
X155348342Y-160527657D01*
X155348342Y-160641942D01*
X155371200Y-160687657D01*
X155394057Y-160710514D01*
X155439771Y-160733371D01*
X155485485Y-160733371D01*
X155554057Y-160710514D01*
X155828342Y-160436228D01*
X155828342Y-160733371D01*
X155348342Y-160893371D02*
X155348342Y-161213371D01*
X155828342Y-161007657D01*
X155348342Y-161327657D02*
X155828342Y-161487657D01*
X155348342Y-161647657D01*
X155691200Y-161784800D02*
X155691200Y-162013371D01*
X155828342Y-161739085D02*
X155348342Y-161899085D01*
X155828342Y-162059085D01*
X155828342Y-162447657D02*
X155828342Y-162219085D01*
X155348342Y-162219085D01*
X155348342Y-162539085D02*
X155348342Y-162813371D01*
X155828342Y-162676228D02*
X155348342Y-162676228D01*
X155348342Y-162927657D02*
X155348342Y-163224800D01*
X155531200Y-163064800D01*
X155531200Y-163133371D01*
X155554057Y-163179085D01*
X155576914Y-163201942D01*
X155622628Y-163224800D01*
X155736914Y-163224800D01*
X155782628Y-163201942D01*
X155805485Y-163179085D01*
X155828342Y-163133371D01*
X155828342Y-162996228D01*
X155805485Y-162950514D01*
X155782628Y-162927657D01*
X155371200Y-163681942D02*
X155348342Y-163636228D01*
X155348342Y-163567657D01*
X155371200Y-163499085D01*
X155416914Y-163453371D01*
X155462628Y-163430514D01*
X155554057Y-163407657D01*
X155622628Y-163407657D01*
X155714057Y-163430514D01*
X155759771Y-163453371D01*
X155805485Y-163499085D01*
X155828342Y-163567657D01*
X155828342Y-163613371D01*
X155805485Y-163681942D01*
X155782628Y-163704800D01*
X155622628Y-163704800D01*
X155622628Y-163613371D01*
%TO.C,D_ESD_4*%
X134492342Y-165559657D02*
X134012342Y-165559657D01*
X134355200Y-165719657D01*
X134012342Y-165879657D01*
X134492342Y-165879657D01*
X134492342Y-166108228D02*
X134012342Y-166108228D01*
X134355200Y-166268228D01*
X134012342Y-166428228D01*
X134492342Y-166428228D01*
X134240914Y-166816800D02*
X134263771Y-166885371D01*
X134286628Y-166908228D01*
X134332342Y-166931085D01*
X134400914Y-166931085D01*
X134446628Y-166908228D01*
X134469485Y-166885371D01*
X134492342Y-166839657D01*
X134492342Y-166656800D01*
X134012342Y-166656800D01*
X134012342Y-166816800D01*
X134035200Y-166862514D01*
X134058057Y-166885371D01*
X134103771Y-166908228D01*
X134149485Y-166908228D01*
X134195200Y-166885371D01*
X134218057Y-166862514D01*
X134240914Y-166816800D01*
X134240914Y-166656800D01*
X134012342Y-167091085D02*
X134012342Y-167411085D01*
X134492342Y-167091085D01*
X134492342Y-167411085D01*
X134058057Y-167571085D02*
X134035200Y-167593942D01*
X134012342Y-167639657D01*
X134012342Y-167753942D01*
X134035200Y-167799657D01*
X134058057Y-167822514D01*
X134103771Y-167845371D01*
X134149485Y-167845371D01*
X134218057Y-167822514D01*
X134492342Y-167548228D01*
X134492342Y-167845371D01*
X134012342Y-168005371D02*
X134012342Y-168325371D01*
X134492342Y-168119657D01*
X134012342Y-168439657D02*
X134492342Y-168599657D01*
X134012342Y-168759657D01*
X134355200Y-168896800D02*
X134355200Y-169125371D01*
X134492342Y-168851085D02*
X134012342Y-169011085D01*
X134492342Y-169171085D01*
X134492342Y-169559657D02*
X134492342Y-169331085D01*
X134012342Y-169331085D01*
X134012342Y-169651085D02*
X134012342Y-169925371D01*
X134492342Y-169788228D02*
X134012342Y-169788228D01*
X134012342Y-170039657D02*
X134012342Y-170336800D01*
X134195200Y-170176800D01*
X134195200Y-170245371D01*
X134218057Y-170291085D01*
X134240914Y-170313942D01*
X134286628Y-170336800D01*
X134400914Y-170336800D01*
X134446628Y-170313942D01*
X134469485Y-170291085D01*
X134492342Y-170245371D01*
X134492342Y-170108228D01*
X134469485Y-170062514D01*
X134446628Y-170039657D01*
X134035200Y-170793942D02*
X134012342Y-170748228D01*
X134012342Y-170679657D01*
X134035200Y-170611085D01*
X134080914Y-170565371D01*
X134126628Y-170542514D01*
X134218057Y-170519657D01*
X134286628Y-170519657D01*
X134378057Y-170542514D01*
X134423771Y-170565371D01*
X134469485Y-170611085D01*
X134492342Y-170679657D01*
X134492342Y-170725371D01*
X134469485Y-170793942D01*
X134446628Y-170816800D01*
X134286628Y-170816800D01*
X134286628Y-170725371D01*
%TO.C,R_J1850_8*%
X145194345Y-126958102D02*
X145419317Y-126958102D01*
X145306831Y-126958102D02*
X145306831Y-126564401D01*
X145344327Y-126620644D01*
X145381822Y-126658140D01*
X145419317Y-126676887D01*
X144950626Y-126564401D02*
X144913130Y-126564401D01*
X144875635Y-126583149D01*
X144856887Y-126601897D01*
X144838140Y-126639392D01*
X144819392Y-126714383D01*
X144819392Y-126808121D01*
X144838140Y-126883112D01*
X144856887Y-126920607D01*
X144875635Y-126939355D01*
X144913130Y-126958102D01*
X144950626Y-126958102D01*
X144988121Y-126939355D01*
X145006869Y-126920607D01*
X145025616Y-126883112D01*
X145044364Y-126808121D01*
X145044364Y-126714383D01*
X145025616Y-126639392D01*
X145006869Y-126601897D01*
X144988121Y-126583149D01*
X144950626Y-126564401D01*
X144650663Y-126958102D02*
X144650663Y-126564401D01*
X144613168Y-126808121D02*
X144500682Y-126958102D01*
X144500682Y-126695635D02*
X144650663Y-126845616D01*
%TO.C,R_STN_1*%
X114800701Y-106671113D02*
X114800701Y-106914832D01*
X114950683Y-106783599D01*
X114950683Y-106839842D01*
X114969430Y-106877337D01*
X114988178Y-106896085D01*
X115025673Y-106914832D01*
X115119412Y-106914832D01*
X115156907Y-106896085D01*
X115175655Y-106877337D01*
X115194402Y-106839842D01*
X115194402Y-106727356D01*
X115175655Y-106689860D01*
X115156907Y-106671113D01*
X114800701Y-107046066D02*
X114800701Y-107289786D01*
X114950683Y-107158552D01*
X114950683Y-107214795D01*
X114969430Y-107252290D01*
X114988178Y-107271038D01*
X115025673Y-107289786D01*
X115119412Y-107289786D01*
X115156907Y-107271038D01*
X115175655Y-107252290D01*
X115194402Y-107214795D01*
X115194402Y-107102309D01*
X115175655Y-107064814D01*
X115156907Y-107046066D01*
X114800701Y-107533505D02*
X114800701Y-107571001D01*
X114819449Y-107608496D01*
X114838197Y-107627244D01*
X114875692Y-107645991D01*
X114950683Y-107664739D01*
X115044421Y-107664739D01*
X115119412Y-107645991D01*
X115156907Y-107627244D01*
X115175655Y-107608496D01*
X115194402Y-107571001D01*
X115194402Y-107533505D01*
X115175655Y-107496010D01*
X115156907Y-107477262D01*
X115119412Y-107458515D01*
X115044421Y-107439767D01*
X114950683Y-107439767D01*
X114875692Y-107458515D01*
X114838197Y-107477262D01*
X114819449Y-107496010D01*
X114800701Y-107533505D01*
%TO.C,R_ISO_3*%
X120395458Y-100114401D02*
X120582934Y-100114401D01*
X120601682Y-100301878D01*
X120582934Y-100283130D01*
X120545439Y-100264383D01*
X120451701Y-100264383D01*
X120414205Y-100283130D01*
X120395458Y-100301878D01*
X120376710Y-100339373D01*
X120376710Y-100433112D01*
X120395458Y-100470607D01*
X120414205Y-100489355D01*
X120451701Y-100508102D01*
X120545439Y-100508102D01*
X120582934Y-100489355D01*
X120601682Y-100470607D01*
X120001757Y-100508102D02*
X120226729Y-100508102D01*
X120114243Y-100508102D02*
X120114243Y-100114401D01*
X120151738Y-100170644D01*
X120189233Y-100208140D01*
X120226729Y-100226887D01*
X119758037Y-100114401D02*
X119720542Y-100114401D01*
X119683046Y-100133149D01*
X119664299Y-100151897D01*
X119645551Y-100189392D01*
X119626803Y-100264383D01*
X119626803Y-100358121D01*
X119645551Y-100433112D01*
X119664299Y-100470607D01*
X119683046Y-100489355D01*
X119720542Y-100508102D01*
X119758037Y-100508102D01*
X119795532Y-100489355D01*
X119814280Y-100470607D01*
X119833028Y-100433112D01*
X119851775Y-100358121D01*
X119851775Y-100264383D01*
X119833028Y-100189392D01*
X119814280Y-100151897D01*
X119795532Y-100133149D01*
X119758037Y-100114401D01*
X119458074Y-100508102D02*
X119458074Y-100114401D01*
X119420579Y-100358121D02*
X119308093Y-100508102D01*
X119308093Y-100245635D02*
X119458074Y-100395616D01*
X118858149Y-100095654D02*
X119195607Y-100601841D01*
X118651925Y-100114401D02*
X118614429Y-100114401D01*
X118576934Y-100133149D01*
X118558186Y-100151897D01*
X118539439Y-100189392D01*
X118520691Y-100264383D01*
X118520691Y-100358121D01*
X118539439Y-100433112D01*
X118558186Y-100470607D01*
X118576934Y-100489355D01*
X118614429Y-100508102D01*
X118651925Y-100508102D01*
X118689420Y-100489355D01*
X118708168Y-100470607D01*
X118726915Y-100433112D01*
X118745663Y-100358121D01*
X118745663Y-100264383D01*
X118726915Y-100189392D01*
X118708168Y-100151897D01*
X118689420Y-100133149D01*
X118651925Y-100114401D01*
X118351962Y-100470607D02*
X118333214Y-100489355D01*
X118351962Y-100508102D01*
X118370710Y-100489355D01*
X118351962Y-100470607D01*
X118351962Y-100508102D01*
X117977009Y-100114401D02*
X118164485Y-100114401D01*
X118183233Y-100301878D01*
X118164485Y-100283130D01*
X118126990Y-100264383D01*
X118033252Y-100264383D01*
X117995756Y-100283130D01*
X117977009Y-100301878D01*
X117958261Y-100339373D01*
X117958261Y-100433112D01*
X117977009Y-100470607D01*
X117995756Y-100489355D01*
X118033252Y-100508102D01*
X118126990Y-100508102D01*
X118164485Y-100489355D01*
X118183233Y-100470607D01*
X117827027Y-100114401D02*
X117733289Y-100508102D01*
X117658298Y-100226887D01*
X117583308Y-100508102D01*
X117489569Y-100114401D01*
%TO.C,R_STN_4*%
X120896701Y-106671113D02*
X120896701Y-106914832D01*
X121046683Y-106783599D01*
X121046683Y-106839842D01*
X121065430Y-106877337D01*
X121084178Y-106896085D01*
X121121673Y-106914832D01*
X121215412Y-106914832D01*
X121252907Y-106896085D01*
X121271655Y-106877337D01*
X121290402Y-106839842D01*
X121290402Y-106727356D01*
X121271655Y-106689860D01*
X121252907Y-106671113D01*
X120896701Y-107046066D02*
X120896701Y-107289786D01*
X121046683Y-107158552D01*
X121046683Y-107214795D01*
X121065430Y-107252290D01*
X121084178Y-107271038D01*
X121121673Y-107289786D01*
X121215412Y-107289786D01*
X121252907Y-107271038D01*
X121271655Y-107252290D01*
X121290402Y-107214795D01*
X121290402Y-107102309D01*
X121271655Y-107064814D01*
X121252907Y-107046066D01*
X120896701Y-107533505D02*
X120896701Y-107571001D01*
X120915449Y-107608496D01*
X120934197Y-107627244D01*
X120971692Y-107645991D01*
X121046683Y-107664739D01*
X121140421Y-107664739D01*
X121215412Y-107645991D01*
X121252907Y-107627244D01*
X121271655Y-107608496D01*
X121290402Y-107571001D01*
X121290402Y-107533505D01*
X121271655Y-107496010D01*
X121252907Y-107477262D01*
X121215412Y-107458515D01*
X121140421Y-107439767D01*
X121046683Y-107439767D01*
X120971692Y-107458515D01*
X120934197Y-107477262D01*
X120915449Y-107496010D01*
X120896701Y-107533505D01*
%TO.C,R_COMP1*%
X156174345Y-93049102D02*
X156399317Y-93049102D01*
X156286831Y-93049102D02*
X156286831Y-92655401D01*
X156324327Y-92711644D01*
X156361822Y-92749140D01*
X156399317Y-92767887D01*
X155930626Y-92655401D02*
X155893130Y-92655401D01*
X155855635Y-92674149D01*
X155836887Y-92692897D01*
X155818140Y-92730392D01*
X155799392Y-92805383D01*
X155799392Y-92899121D01*
X155818140Y-92974112D01*
X155836887Y-93011607D01*
X155855635Y-93030355D01*
X155893130Y-93049102D01*
X155930626Y-93049102D01*
X155968121Y-93030355D01*
X155986869Y-93011607D01*
X156005616Y-92974112D01*
X156024364Y-92899121D01*
X156024364Y-92805383D01*
X156005616Y-92730392D01*
X155986869Y-92692897D01*
X155968121Y-92674149D01*
X155930626Y-92655401D01*
X155630663Y-93049102D02*
X155630663Y-92655401D01*
X155593168Y-92899121D02*
X155480682Y-93049102D01*
X155480682Y-92786635D02*
X155630663Y-92936616D01*
%TO.C,C_STN_3*%
X144445542Y-92079401D02*
X144201822Y-92079401D01*
X144333056Y-92229383D01*
X144276813Y-92229383D01*
X144239317Y-92248130D01*
X144220570Y-92266878D01*
X144201822Y-92304373D01*
X144201822Y-92398112D01*
X144220570Y-92435607D01*
X144239317Y-92454355D01*
X144276813Y-92473102D01*
X144389299Y-92473102D01*
X144426794Y-92454355D01*
X144445542Y-92435607D01*
X143958102Y-92079401D02*
X143920607Y-92079401D01*
X143883112Y-92098149D01*
X143864364Y-92116897D01*
X143845616Y-92154392D01*
X143826869Y-92229383D01*
X143826869Y-92323121D01*
X143845616Y-92398112D01*
X143864364Y-92435607D01*
X143883112Y-92454355D01*
X143920607Y-92473102D01*
X143958102Y-92473102D01*
X143995598Y-92454355D01*
X144014345Y-92435607D01*
X144033093Y-92398112D01*
X144051841Y-92323121D01*
X144051841Y-92229383D01*
X144033093Y-92154392D01*
X144014345Y-92116897D01*
X143995598Y-92098149D01*
X143958102Y-92079401D01*
X143658140Y-92210635D02*
X143658140Y-92604336D01*
X143658140Y-92229383D02*
X143620644Y-92210635D01*
X143545654Y-92210635D01*
X143508158Y-92229383D01*
X143489411Y-92248130D01*
X143470663Y-92285626D01*
X143470663Y-92398112D01*
X143489411Y-92435607D01*
X143508158Y-92454355D01*
X143545654Y-92473102D01*
X143620644Y-92473102D01*
X143658140Y-92454355D01*
X143170700Y-92266878D02*
X143301934Y-92266878D01*
X143301934Y-92473102D02*
X143301934Y-92079401D01*
X143114457Y-92079401D01*
%TO.C,R_J1850_4*%
X145034187Y-68143401D02*
X144790467Y-68143401D01*
X144921701Y-68293383D01*
X144865458Y-68293383D01*
X144827962Y-68312130D01*
X144809215Y-68330878D01*
X144790467Y-68368373D01*
X144790467Y-68462112D01*
X144809215Y-68499607D01*
X144827962Y-68518355D01*
X144865458Y-68537102D01*
X144977944Y-68537102D01*
X145015439Y-68518355D01*
X145034187Y-68499607D01*
X144659233Y-68143401D02*
X144396766Y-68143401D01*
X144565495Y-68537102D01*
X144078056Y-68274635D02*
X144078056Y-68537102D01*
X144171794Y-68124654D02*
X144265532Y-68405869D01*
X144021813Y-68405869D01*
%TO.C,R_SWCAN_7*%
X137568384Y-76090902D02*
X137793356Y-76090902D01*
X137680870Y-76090902D02*
X137680870Y-75697201D01*
X137718365Y-75753444D01*
X137755860Y-75790940D01*
X137793356Y-75809687D01*
X137399655Y-76053407D02*
X137380907Y-76072155D01*
X137399655Y-76090902D01*
X137418402Y-76072155D01*
X137399655Y-76053407D01*
X137399655Y-76090902D01*
X137024701Y-75697201D02*
X137212178Y-75697201D01*
X137230926Y-75884678D01*
X137212178Y-75865930D01*
X137174683Y-75847183D01*
X137080944Y-75847183D01*
X137043449Y-75865930D01*
X137024701Y-75884678D01*
X137005954Y-75922173D01*
X137005954Y-76015912D01*
X137024701Y-76053407D01*
X137043449Y-76072155D01*
X137080944Y-76090902D01*
X137174683Y-76090902D01*
X137212178Y-76072155D01*
X137230926Y-76053407D01*
X136837225Y-76090902D02*
X136837225Y-75697201D01*
X136799729Y-75940921D02*
X136687243Y-76090902D01*
X136687243Y-75828435D02*
X136837225Y-75978416D01*
%TO.C,R_STN_3*%
D11*
X120345300Y-90447880D02*
X120345300Y-90685976D01*
X120583395Y-90590738D02*
X120345300Y-90685976D01*
X120107204Y-90590738D01*
X120488157Y-90876452D02*
X120345300Y-90685976D01*
X120202442Y-90876452D01*
%TO.C,R_SWCAN_6*%
X119380000Y-77557380D02*
X119380000Y-77795476D01*
X119618095Y-77700238D02*
X119380000Y-77795476D01*
X119141904Y-77700238D01*
X119522857Y-77985952D02*
X119380000Y-77795476D01*
X119237142Y-77985952D01*
%TO.C,R_SWCAN_3*%
D19*
X145459177Y-58619401D02*
X145534168Y-58619401D01*
X145571663Y-58638149D01*
X145590411Y-58656897D01*
X145627906Y-58713140D01*
X145646654Y-58788130D01*
X145646654Y-58938112D01*
X145627906Y-58975607D01*
X145609159Y-58994355D01*
X145571663Y-59013102D01*
X145496673Y-59013102D01*
X145459177Y-58994355D01*
X145440430Y-58975607D01*
X145421682Y-58938112D01*
X145421682Y-58844373D01*
X145440430Y-58806878D01*
X145459177Y-58788130D01*
X145496673Y-58769383D01*
X145571663Y-58769383D01*
X145609159Y-58788130D01*
X145627906Y-58806878D01*
X145646654Y-58844373D01*
X145252953Y-58975607D02*
X145234205Y-58994355D01*
X145252953Y-59013102D01*
X145271701Y-58994355D01*
X145252953Y-58975607D01*
X145252953Y-59013102D01*
X144896747Y-58750635D02*
X144896747Y-59013102D01*
X144990486Y-58600654D02*
X145084224Y-58881869D01*
X144840504Y-58881869D01*
X144671775Y-59013102D02*
X144596785Y-59013102D01*
X144559289Y-58994355D01*
X144540542Y-58975607D01*
X144503046Y-58919364D01*
X144484299Y-58844373D01*
X144484299Y-58694392D01*
X144503046Y-58656897D01*
X144521794Y-58638149D01*
X144559289Y-58619401D01*
X144634280Y-58619401D01*
X144671775Y-58638149D01*
X144690523Y-58656897D01*
X144709271Y-58694392D01*
X144709271Y-58788130D01*
X144690523Y-58825626D01*
X144671775Y-58844373D01*
X144634280Y-58863121D01*
X144559289Y-58863121D01*
X144521794Y-58844373D01*
X144503046Y-58825626D01*
X144484299Y-58788130D01*
X144315570Y-59013102D02*
X144315570Y-58619401D01*
X144278074Y-58863121D02*
X144165588Y-59013102D01*
X144165588Y-58750635D02*
X144315570Y-58900616D01*
X143621906Y-58619401D02*
X143584411Y-58619401D01*
X143546915Y-58638149D01*
X143528168Y-58656897D01*
X143509420Y-58694392D01*
X143490672Y-58769383D01*
X143490672Y-58863121D01*
X143509420Y-58938112D01*
X143528168Y-58975607D01*
X143546915Y-58994355D01*
X143584411Y-59013102D01*
X143621906Y-59013102D01*
X143659401Y-58994355D01*
X143678149Y-58975607D01*
X143696897Y-58938112D01*
X143715644Y-58863121D01*
X143715644Y-58769383D01*
X143696897Y-58694392D01*
X143678149Y-58656897D01*
X143659401Y-58638149D01*
X143621906Y-58619401D01*
X143321943Y-58975607D02*
X143303196Y-58994355D01*
X143321943Y-59013102D01*
X143340691Y-58994355D01*
X143321943Y-58975607D01*
X143321943Y-59013102D01*
X142928242Y-59013102D02*
X143153214Y-59013102D01*
X143040728Y-59013102D02*
X143040728Y-58619401D01*
X143078224Y-58675644D01*
X143115719Y-58713140D01*
X143153214Y-58731887D01*
X142778261Y-58656897D02*
X142759513Y-58638149D01*
X142722018Y-58619401D01*
X142628280Y-58619401D01*
X142590784Y-58638149D01*
X142572037Y-58656897D01*
X142553289Y-58694392D01*
X142553289Y-58731887D01*
X142572037Y-58788130D01*
X142797009Y-59013102D01*
X142553289Y-59013102D01*
X142422055Y-58619401D02*
X142328317Y-59013102D01*
X142253326Y-58731887D01*
X142178336Y-59013102D01*
X142084597Y-58619401D01*
%TO.C,R_ISO_2*%
D11*
X115176400Y-60412380D02*
X115176400Y-60650476D01*
X115414495Y-60555238D02*
X115176400Y-60650476D01*
X114938304Y-60555238D01*
X115319257Y-60840952D02*
X115176400Y-60650476D01*
X115033542Y-60840952D01*
%TO.C,D_ESD_1*%
D19*
X131191653Y-160458642D02*
X130190188Y-160458642D01*
X130190188Y-160840152D01*
X130237877Y-160935530D01*
X130285566Y-160983219D01*
X130380943Y-161030907D01*
X130524010Y-161030907D01*
X130619387Y-160983219D01*
X130667076Y-160935530D01*
X130714765Y-160840152D01*
X130714765Y-160458642D01*
X130667076Y-161460107D02*
X130667076Y-161793928D01*
X131191653Y-161936995D02*
X131191653Y-161460107D01*
X130190188Y-161460107D01*
X130190188Y-161936995D01*
X131143964Y-162318505D02*
X131191653Y-162461572D01*
X131191653Y-162700016D01*
X131143964Y-162795393D01*
X131096276Y-162843082D01*
X131000898Y-162890771D01*
X130905520Y-162890771D01*
X130810143Y-162843082D01*
X130762454Y-162795393D01*
X130714765Y-162700016D01*
X130667076Y-162509260D01*
X130619387Y-162413883D01*
X130571699Y-162366194D01*
X130476321Y-162318505D01*
X130380943Y-162318505D01*
X130285566Y-162366194D01*
X130237877Y-162413883D01*
X130190188Y-162509260D01*
X130190188Y-162747705D01*
X130237877Y-162890771D01*
X131191653Y-163319970D02*
X130190188Y-163319970D01*
X130190188Y-163558414D01*
X130237877Y-163701481D01*
X130333255Y-163796858D01*
X130428632Y-163844547D01*
X130619387Y-163892236D01*
X130762454Y-163892236D01*
X130953209Y-163844547D01*
X131048587Y-163796858D01*
X131143964Y-163701481D01*
X131191653Y-163558414D01*
X131191653Y-163319970D01*
X130285566Y-164273746D02*
X130237877Y-164321435D01*
X130190188Y-164416813D01*
X130190188Y-164655257D01*
X130237877Y-164750635D01*
X130285566Y-164798323D01*
X130380943Y-164846012D01*
X130476321Y-164846012D01*
X130619387Y-164798323D01*
X131191653Y-164226058D01*
X131191653Y-164846012D01*
X131096276Y-165847477D02*
X131143964Y-165799788D01*
X131191653Y-165656722D01*
X131191653Y-165561344D01*
X131143964Y-165418278D01*
X131048587Y-165322900D01*
X130953209Y-165275211D01*
X130762454Y-165227523D01*
X130619387Y-165227523D01*
X130428632Y-165275211D01*
X130333255Y-165322900D01*
X130237877Y-165418278D01*
X130190188Y-165561344D01*
X130190188Y-165656722D01*
X130237877Y-165799788D01*
X130285566Y-165847477D01*
X130905520Y-166228988D02*
X130905520Y-166705876D01*
X131191653Y-166133610D02*
X130190188Y-166467432D01*
X131191653Y-166801253D01*
X131191653Y-167135075D02*
X130190188Y-167135075D01*
X131191653Y-167707341D01*
X130190188Y-167707341D01*
X131143964Y-168231918D02*
X131191653Y-168231918D01*
X131287031Y-168184229D01*
X131334720Y-168136540D01*
X130285566Y-168613428D02*
X130237877Y-168661117D01*
X130190188Y-168756495D01*
X130190188Y-168994939D01*
X130237877Y-169090316D01*
X130285566Y-169138005D01*
X130380943Y-169185694D01*
X130476321Y-169185694D01*
X130619387Y-169138005D01*
X131191653Y-168565739D01*
X131191653Y-169185694D01*
X131191653Y-170139470D02*
X131191653Y-169567204D01*
X131191653Y-169853337D02*
X130190188Y-169853337D01*
X130333255Y-169757960D01*
X130428632Y-169662582D01*
X130476321Y-169567204D01*
X130190188Y-171045557D02*
X130190188Y-170568669D01*
X130667076Y-170520980D01*
X130619387Y-170568669D01*
X130571699Y-170664047D01*
X130571699Y-170902491D01*
X130619387Y-170997869D01*
X130667076Y-171045557D01*
X130762454Y-171093246D01*
X131000898Y-171093246D01*
X131096276Y-171045557D01*
X131143964Y-170997869D01*
X131191653Y-170902491D01*
X131191653Y-170664047D01*
X131143964Y-170568669D01*
X131096276Y-170520980D01*
%TO.C,D_ESD_3*%
D11*
X150114000Y-164806380D02*
X150114000Y-165044476D01*
X150352095Y-164949238D02*
X150114000Y-165044476D01*
X149875904Y-164949238D01*
X150256857Y-165234952D02*
X150114000Y-165044476D01*
X149971142Y-165234952D01*
%TO.C,Q_J1850_3*%
X161783780Y-62026800D02*
X162021876Y-62026800D01*
X161926638Y-61788704D02*
X162021876Y-62026800D01*
X161926638Y-62264895D01*
X162212352Y-61883942D02*
X162021876Y-62026800D01*
X162212352Y-62169657D01*
%TO.C,U_COMP_1*%
X154940000Y-112482380D02*
X154940000Y-112720476D01*
X155178095Y-112625238D02*
X154940000Y-112720476D01*
X154701904Y-112625238D01*
X155082857Y-112910952D02*
X154940000Y-112720476D01*
X154797142Y-112910952D01*
X154940000Y-112228380D02*
X154940000Y-112466476D01*
X155178095Y-112371238D02*
X154940000Y-112466476D01*
X154701904Y-112371238D01*
X155082857Y-112656952D02*
X154940000Y-112466476D01*
X154797142Y-112656952D01*
%TO.C,R_VS_2*%
D19*
X129576775Y-123528102D02*
X129801747Y-123528102D01*
X129689261Y-123528102D02*
X129689261Y-123134401D01*
X129726757Y-123190644D01*
X129764252Y-123228140D01*
X129801747Y-123246887D01*
X129333056Y-123134401D02*
X129295560Y-123134401D01*
X129258065Y-123153149D01*
X129239317Y-123171897D01*
X129220570Y-123209392D01*
X129201822Y-123284383D01*
X129201822Y-123378121D01*
X129220570Y-123453112D01*
X129239317Y-123490607D01*
X129258065Y-123509355D01*
X129295560Y-123528102D01*
X129333056Y-123528102D01*
X129370551Y-123509355D01*
X129389299Y-123490607D01*
X129408046Y-123453112D01*
X129426794Y-123378121D01*
X129426794Y-123284383D01*
X129408046Y-123209392D01*
X129389299Y-123171897D01*
X129370551Y-123153149D01*
X129333056Y-123134401D01*
X129033093Y-123528102D02*
X129033093Y-123134401D01*
X128995598Y-123378121D02*
X128883112Y-123528102D01*
X128883112Y-123265635D02*
X129033093Y-123415616D01*
X128208196Y-123528102D02*
X128433168Y-123528102D01*
X128320682Y-123528102D02*
X128320682Y-123134401D01*
X128358177Y-123190644D01*
X128395672Y-123228140D01*
X128433168Y-123246887D01*
X128058214Y-123528102D02*
X127758252Y-123134401D01*
X128001971Y-123134401D02*
X127964476Y-123153149D01*
X127945728Y-123190644D01*
X127964476Y-123228140D01*
X128001971Y-123246887D01*
X128039467Y-123228140D01*
X128058214Y-123190644D01*
X128039467Y-123153149D01*
X128001971Y-123134401D01*
X127776999Y-123509355D02*
X127758252Y-123471859D01*
X127776999Y-123434364D01*
X127814495Y-123415616D01*
X127851990Y-123434364D01*
X127870738Y-123471859D01*
X127851990Y-123509355D01*
X127814495Y-123528102D01*
X127776999Y-123509355D01*
%TO.C,R_VR2_3*%
X133308102Y-135738177D02*
X133308102Y-135513205D01*
X133308102Y-135625691D02*
X132914401Y-135625691D01*
X132970644Y-135588196D01*
X133008140Y-135550700D01*
X133026887Y-135513205D01*
X133308102Y-136113130D02*
X133308102Y-135888158D01*
X133308102Y-136000644D02*
X132914401Y-136000644D01*
X132970644Y-135963149D01*
X133008140Y-135925654D01*
X133026887Y-135888158D01*
X132914401Y-136469336D02*
X132914401Y-136281859D01*
X133101878Y-136263112D01*
X133083130Y-136281859D01*
X133064383Y-136319355D01*
X133064383Y-136413093D01*
X133083130Y-136450588D01*
X133101878Y-136469336D01*
X133139373Y-136488084D01*
X133233112Y-136488084D01*
X133270607Y-136469336D01*
X133289355Y-136450588D01*
X133308102Y-136413093D01*
X133308102Y-136319355D01*
X133289355Y-136281859D01*
X133270607Y-136263112D01*
X133308102Y-136656813D02*
X132914401Y-136656813D01*
X133158121Y-136694308D02*
X133308102Y-136806794D01*
X133045635Y-136806794D02*
X133195616Y-136656813D01*
%TO.C,U_J1850_1*%
X149304428Y-70464380D02*
X149780619Y-70464380D01*
X149780619Y-69464380D01*
X148971095Y-70464380D02*
X148971095Y-69464380D01*
X148637761Y-70178666D01*
X148304428Y-69464380D01*
X148304428Y-70464380D01*
X147923476Y-69464380D02*
X147304428Y-69464380D01*
X147637761Y-69845333D01*
X147494904Y-69845333D01*
X147399666Y-69892952D01*
X147352047Y-69940571D01*
X147304428Y-70035809D01*
X147304428Y-70273904D01*
X147352047Y-70369142D01*
X147399666Y-70416761D01*
X147494904Y-70464380D01*
X147780619Y-70464380D01*
X147875857Y-70416761D01*
X147923476Y-70369142D01*
X146352047Y-70464380D02*
X146923476Y-70464380D01*
X146637761Y-70464380D02*
X146637761Y-69464380D01*
X146733000Y-69607238D01*
X146828238Y-69702476D01*
X146923476Y-69750095D01*
X146018714Y-69464380D02*
X145352047Y-69464380D01*
X145780619Y-70464380D01*
X144494904Y-70464380D02*
X144971095Y-70464380D01*
X144971095Y-69464380D01*
X144161571Y-70464380D02*
X144161571Y-69464380D01*
X143923476Y-69464380D01*
X143780619Y-69512000D01*
X143685380Y-69607238D01*
X143637761Y-69702476D01*
X143590142Y-69892952D01*
X143590142Y-70035809D01*
X143637761Y-70226285D01*
X143685380Y-70321523D01*
X143780619Y-70416761D01*
X143923476Y-70464380D01*
X144161571Y-70464380D01*
X142590142Y-70464380D02*
X142923476Y-69988190D01*
X143161571Y-70464380D02*
X143161571Y-69464380D01*
X142780619Y-69464380D01*
X142685380Y-69512000D01*
X142637761Y-69559619D01*
X142590142Y-69654857D01*
X142590142Y-69797714D01*
X142637761Y-69892952D01*
X142685380Y-69940571D01*
X142780619Y-69988190D01*
X143161571Y-69988190D01*
X142209190Y-69559619D02*
X142161571Y-69512000D01*
X142066333Y-69464380D01*
X141828238Y-69464380D01*
X141733000Y-69512000D01*
X141685380Y-69559619D01*
X141637761Y-69654857D01*
X141637761Y-69750095D01*
X141685380Y-69892952D01*
X142256809Y-70464380D01*
X141637761Y-70464380D01*
X140685380Y-69512000D02*
X140780619Y-69464380D01*
X140923476Y-69464380D01*
X141066333Y-69512000D01*
X141161571Y-69607238D01*
X141209190Y-69702476D01*
X141256809Y-69892952D01*
X141256809Y-70035809D01*
X141209190Y-70226285D01*
X141161571Y-70321523D01*
X141066333Y-70416761D01*
X140923476Y-70464380D01*
X140828238Y-70464380D01*
X140685380Y-70416761D01*
X140637761Y-70369142D01*
X140637761Y-70035809D01*
X140828238Y-70035809D01*
%TO.C,R_VR2_2*%
X144767822Y-141876102D02*
X144992794Y-141876102D01*
X144880308Y-141876102D02*
X144880308Y-141482401D01*
X144917803Y-141538644D01*
X144955299Y-141576140D01*
X144992794Y-141594887D01*
X144524102Y-141482401D02*
X144486607Y-141482401D01*
X144449112Y-141501149D01*
X144430364Y-141519897D01*
X144411616Y-141557392D01*
X144392869Y-141632383D01*
X144392869Y-141726121D01*
X144411616Y-141801112D01*
X144430364Y-141838607D01*
X144449112Y-141857355D01*
X144486607Y-141876102D01*
X144524102Y-141876102D01*
X144561598Y-141857355D01*
X144580345Y-141838607D01*
X144599093Y-141801112D01*
X144617841Y-141726121D01*
X144617841Y-141632383D01*
X144599093Y-141557392D01*
X144580345Y-141519897D01*
X144561598Y-141501149D01*
X144524102Y-141482401D01*
X144149149Y-141482401D02*
X144111654Y-141482401D01*
X144074158Y-141501149D01*
X144055411Y-141519897D01*
X144036663Y-141557392D01*
X144017915Y-141632383D01*
X144017915Y-141726121D01*
X144036663Y-141801112D01*
X144055411Y-141838607D01*
X144074158Y-141857355D01*
X144111654Y-141876102D01*
X144149149Y-141876102D01*
X144186644Y-141857355D01*
X144205392Y-141838607D01*
X144224140Y-141801112D01*
X144242887Y-141726121D01*
X144242887Y-141632383D01*
X144224140Y-141557392D01*
X144205392Y-141519897D01*
X144186644Y-141501149D01*
X144149149Y-141482401D01*
X143849186Y-141876102D02*
X143849186Y-141482401D01*
X143811691Y-141726121D02*
X143699205Y-141876102D01*
X143699205Y-141613635D02*
X143849186Y-141763616D01*
%TO.C,C_STN_2*%
X146884401Y-97394457D02*
X146884401Y-97638177D01*
X147034383Y-97506943D01*
X147034383Y-97563186D01*
X147053130Y-97600682D01*
X147071878Y-97619429D01*
X147109373Y-97638177D01*
X147203112Y-97638177D01*
X147240607Y-97619429D01*
X147259355Y-97600682D01*
X147278102Y-97563186D01*
X147278102Y-97450700D01*
X147259355Y-97413205D01*
X147240607Y-97394457D01*
X146884401Y-97881897D02*
X146884401Y-97919392D01*
X146903149Y-97956887D01*
X146921897Y-97975635D01*
X146959392Y-97994383D01*
X147034383Y-98013130D01*
X147128121Y-98013130D01*
X147203112Y-97994383D01*
X147240607Y-97975635D01*
X147259355Y-97956887D01*
X147278102Y-97919392D01*
X147278102Y-97881897D01*
X147259355Y-97844401D01*
X147240607Y-97825654D01*
X147203112Y-97806906D01*
X147128121Y-97788158D01*
X147034383Y-97788158D01*
X146959392Y-97806906D01*
X146921897Y-97825654D01*
X146903149Y-97844401D01*
X146884401Y-97881897D01*
X147015635Y-98181859D02*
X147409336Y-98181859D01*
X147034383Y-98181859D02*
X147015635Y-98219355D01*
X147015635Y-98294345D01*
X147034383Y-98331841D01*
X147053130Y-98350588D01*
X147090626Y-98369336D01*
X147203112Y-98369336D01*
X147240607Y-98350588D01*
X147259355Y-98331841D01*
X147278102Y-98294345D01*
X147278102Y-98219355D01*
X147259355Y-98181859D01*
X147071878Y-98669299D02*
X147071878Y-98538065D01*
X147278102Y-98538065D02*
X146884401Y-98538065D01*
X146884401Y-98725542D01*
%TO.C,C_STN_4*%
X155393266Y-108205444D02*
X155393266Y-107633718D01*
X155393266Y-107919581D02*
X154392746Y-107919581D01*
X154535677Y-107824293D01*
X154630965Y-107729006D01*
X154678609Y-107633718D01*
X154726252Y-109063032D02*
X155393266Y-109063032D01*
X154726252Y-108634238D02*
X155250334Y-108634238D01*
X155345622Y-108681882D01*
X155393266Y-108777170D01*
X155393266Y-108920101D01*
X155345622Y-109015389D01*
X155297978Y-109063032D01*
X154869184Y-109872977D02*
X154869184Y-109539471D01*
X155393266Y-109539471D02*
X154392746Y-109539471D01*
X154392746Y-110015909D01*
%TO.C,Q_ISO_4*%
D11*
X124405447Y-57642380D02*
X124405447Y-56642380D01*
X124072114Y-57356666D01*
X123738780Y-56642380D01*
X123738780Y-57642380D01*
X123262590Y-57642380D02*
X123262590Y-56642380D01*
X122929257Y-57356666D01*
X122595923Y-56642380D01*
X122595923Y-57642380D01*
X121786400Y-57118571D02*
X121643542Y-57166190D01*
X121595923Y-57213809D01*
X121548304Y-57309047D01*
X121548304Y-57451904D01*
X121595923Y-57547142D01*
X121643542Y-57594761D01*
X121738780Y-57642380D01*
X122119733Y-57642380D01*
X122119733Y-56642380D01*
X121786400Y-56642380D01*
X121691161Y-56690000D01*
X121643542Y-56737619D01*
X121595923Y-56832857D01*
X121595923Y-56928095D01*
X121643542Y-57023333D01*
X121691161Y-57070952D01*
X121786400Y-57118571D01*
X122119733Y-57118571D01*
X121262590Y-56642380D02*
X120691161Y-56642380D01*
X120976876Y-57642380D02*
X120976876Y-56642380D01*
X120453066Y-56642380D02*
X119834019Y-56642380D01*
X120167352Y-57023333D01*
X120024495Y-57023333D01*
X119929257Y-57070952D01*
X119881638Y-57118571D01*
X119834019Y-57213809D01*
X119834019Y-57451904D01*
X119881638Y-57547142D01*
X119929257Y-57594761D01*
X120024495Y-57642380D01*
X120310209Y-57642380D01*
X120405447Y-57594761D01*
X120453066Y-57547142D01*
X119357828Y-57642380D02*
X119167352Y-57642380D01*
X119072114Y-57594761D01*
X119024495Y-57547142D01*
X118929257Y-57404285D01*
X118881638Y-57213809D01*
X118881638Y-56832857D01*
X118929257Y-56737619D01*
X118976876Y-56690000D01*
X119072114Y-56642380D01*
X119262590Y-56642380D01*
X119357828Y-56690000D01*
X119405447Y-56737619D01*
X119453066Y-56832857D01*
X119453066Y-57070952D01*
X119405447Y-57166190D01*
X119357828Y-57213809D01*
X119262590Y-57261428D01*
X119072114Y-57261428D01*
X118976876Y-57213809D01*
X118929257Y-57166190D01*
X118881638Y-57070952D01*
X118262590Y-56642380D02*
X118167352Y-56642380D01*
X118072114Y-56690000D01*
X118024495Y-56737619D01*
X117976876Y-56832857D01*
X117929257Y-57023333D01*
X117929257Y-57261428D01*
X117976876Y-57451904D01*
X118024495Y-57547142D01*
X118072114Y-57594761D01*
X118167352Y-57642380D01*
X118262590Y-57642380D01*
X118357828Y-57594761D01*
X118405447Y-57547142D01*
X118453066Y-57451904D01*
X118500685Y-57261428D01*
X118500685Y-57023333D01*
X118453066Y-56832857D01*
X118405447Y-56737619D01*
X118357828Y-56690000D01*
X118262590Y-56642380D01*
X117072114Y-56975714D02*
X117072114Y-57642380D01*
X117310209Y-56594761D02*
X117548304Y-57309047D01*
X116929257Y-57309047D01*
X116643542Y-56642380D02*
X116405447Y-57642380D01*
X116214971Y-56928095D01*
X116024495Y-57642380D01*
X115786400Y-56642380D01*
X115548304Y-56642380D02*
X114976876Y-56642380D01*
X115262590Y-57642380D02*
X115262590Y-56642380D01*
X114119733Y-57642380D02*
X114691161Y-57642380D01*
X114405447Y-57642380D02*
X114405447Y-56642380D01*
X114500685Y-56785238D01*
X114595923Y-56880476D01*
X114691161Y-56928095D01*
X113167352Y-56690000D02*
X113262590Y-56642380D01*
X113405447Y-56642380D01*
X113548304Y-56690000D01*
X113643542Y-56785238D01*
X113691161Y-56880476D01*
X113738780Y-57070952D01*
X113738780Y-57213809D01*
X113691161Y-57404285D01*
X113643542Y-57499523D01*
X113548304Y-57594761D01*
X113405447Y-57642380D01*
X113310209Y-57642380D01*
X113167352Y-57594761D01*
X113119733Y-57547142D01*
X113119733Y-57213809D01*
X113310209Y-57213809D01*
D21*
X118512590Y-60737619D02*
X118536400Y-60785238D01*
X118584019Y-60832857D01*
X118655447Y-60904285D01*
X118679257Y-60951904D01*
X118679257Y-60999523D01*
X118560209Y-60975714D02*
X118584019Y-61023333D01*
X118631638Y-61070952D01*
X118726876Y-61094761D01*
X118893542Y-61094761D01*
X118988780Y-61070952D01*
X119036400Y-61023333D01*
X119060209Y-60975714D01*
X119060209Y-60880476D01*
X119036400Y-60832857D01*
X118988780Y-60785238D01*
X118893542Y-60761428D01*
X118726876Y-60761428D01*
X118631638Y-60785238D01*
X118584019Y-60832857D01*
X118560209Y-60880476D01*
X118560209Y-60975714D01*
X118512590Y-60666190D02*
X118512590Y-60285238D01*
X118560209Y-60166190D02*
X119060209Y-60166190D01*
X118584019Y-59951904D02*
X118560209Y-59880476D01*
X118560209Y-59761428D01*
X118584019Y-59713809D01*
X118607828Y-59690000D01*
X118655447Y-59666190D01*
X118703066Y-59666190D01*
X118750685Y-59690000D01*
X118774495Y-59713809D01*
X118798304Y-59761428D01*
X118822114Y-59856666D01*
X118845923Y-59904285D01*
X118869733Y-59928095D01*
X118917352Y-59951904D01*
X118964971Y-59951904D01*
X119012590Y-59928095D01*
X119036400Y-59904285D01*
X119060209Y-59856666D01*
X119060209Y-59737619D01*
X119036400Y-59666190D01*
X119060209Y-59356666D02*
X119060209Y-59261428D01*
X119036400Y-59213809D01*
X118988780Y-59166190D01*
X118893542Y-59142380D01*
X118726876Y-59142380D01*
X118631638Y-59166190D01*
X118584019Y-59213809D01*
X118560209Y-59261428D01*
X118560209Y-59356666D01*
X118584019Y-59404285D01*
X118631638Y-59451904D01*
X118726876Y-59475714D01*
X118893542Y-59475714D01*
X118988780Y-59451904D01*
X119036400Y-59404285D01*
X119060209Y-59356666D01*
X118512590Y-59047142D02*
X118512590Y-58666190D01*
X118893542Y-58332857D02*
X118560209Y-58332857D01*
X119084019Y-58451904D02*
X118726876Y-58570952D01*
X118726876Y-58261428D01*
%TO.C,Q_ISO_2*%
D11*
X115022380Y-64770000D02*
X115260476Y-64770000D01*
X115165238Y-64531904D02*
X115260476Y-64770000D01*
X115165238Y-65008095D01*
X115450952Y-64627142D02*
X115260476Y-64770000D01*
X115450952Y-64912857D01*
%TO.C,U_SWCAN_1*%
X137590280Y-69862700D02*
X137828376Y-69862700D01*
X137733138Y-69624604D02*
X137828376Y-69862700D01*
X137733138Y-70100795D01*
X138018852Y-69719842D02*
X137828376Y-69862700D01*
X138018852Y-70005557D01*
X137590280Y-69862700D02*
X137828376Y-69862700D01*
X137733138Y-69624604D02*
X137828376Y-69862700D01*
X137733138Y-70100795D01*
X138018852Y-69719842D02*
X137828376Y-69862700D01*
X138018852Y-70005557D01*
%TO.C,R_SWCAN_4*%
D19*
X130634645Y-78240902D02*
X130859617Y-78240902D01*
X130747131Y-78240902D02*
X130747131Y-77847201D01*
X130784627Y-77903444D01*
X130822122Y-77940940D01*
X130859617Y-77959687D01*
X130390926Y-77847201D02*
X130353430Y-77847201D01*
X130315935Y-77865949D01*
X130297187Y-77884697D01*
X130278440Y-77922192D01*
X130259692Y-77997183D01*
X130259692Y-78090921D01*
X130278440Y-78165912D01*
X130297187Y-78203407D01*
X130315935Y-78222155D01*
X130353430Y-78240902D01*
X130390926Y-78240902D01*
X130428421Y-78222155D01*
X130447169Y-78203407D01*
X130465916Y-78165912D01*
X130484664Y-78090921D01*
X130484664Y-77997183D01*
X130465916Y-77922192D01*
X130447169Y-77884697D01*
X130428421Y-77865949D01*
X130390926Y-77847201D01*
X130090963Y-78240902D02*
X130090963Y-77847201D01*
X130053468Y-78090921D02*
X129940982Y-78240902D01*
X129940982Y-77978435D02*
X130090963Y-78128416D01*
%TO.C,R_SWCAN_5*%
X127040545Y-78164702D02*
X127265517Y-78164702D01*
X127153031Y-78164702D02*
X127153031Y-77771001D01*
X127190527Y-77827244D01*
X127228022Y-77864740D01*
X127265517Y-77883487D01*
X126796826Y-77771001D02*
X126759330Y-77771001D01*
X126721835Y-77789749D01*
X126703087Y-77808497D01*
X126684340Y-77845992D01*
X126665592Y-77920983D01*
X126665592Y-78014721D01*
X126684340Y-78089712D01*
X126703087Y-78127207D01*
X126721835Y-78145955D01*
X126759330Y-78164702D01*
X126796826Y-78164702D01*
X126834321Y-78145955D01*
X126853069Y-78127207D01*
X126871816Y-78089712D01*
X126890564Y-78014721D01*
X126890564Y-77920983D01*
X126871816Y-77845992D01*
X126853069Y-77808497D01*
X126834321Y-77789749D01*
X126796826Y-77771001D01*
X126496863Y-78164702D02*
X126496863Y-77771001D01*
X126459368Y-78014721D02*
X126346882Y-78164702D01*
X126346882Y-77902235D02*
X126496863Y-78052216D01*
%TD*%
M02*
