%TF.GenerationSoftware,KiCad,Pcbnew,(5.1.7)-1*%
%TF.CreationDate,2020-11-30T00:01:55-08:00*%
%TF.ProjectId,Reader,52656164-6572-42e6-9b69-6361645f7063,0.0.05*%
%TF.SameCoordinates,Original*%
%TF.FileFunction,Paste,Bot*%
%TF.FilePolarity,Positive*%
%FSLAX46Y46*%
G04 Gerber Fmt 4.6, Leading zero omitted, Abs format (unit mm)*
G04 Created by KiCad (PCBNEW (5.1.7)-1) date 2020-11-30 00:01:55*
%MOMM*%
%LPD*%
G01*
G04 APERTURE LIST*
%ADD10R,0.980000X0.810000*%
%ADD11R,1.100000X1.000000*%
%ADD12R,1.000000X1.100000*%
%ADD13R,1.299998X1.799996*%
%ADD14R,1.000000X0.600000*%
%ADD15R,0.600000X1.000000*%
%ADD16R,0.568000X0.903199*%
%ADD17R,1.230000X0.600000*%
%ADD18R,0.600000X1.230000*%
%ADD19R,0.930000X0.790000*%
%ADD20R,0.790000X0.930000*%
%ADD21R,1.680000X1.080000*%
%ADD22R,1.020000X1.040000*%
G04 APERTURE END LIST*
D10*
%TO.C,R_STN_10*%
X96012000Y-111751000D03*
X96012000Y-113293000D03*
%TD*%
D11*
%TO.C,C_ESP_1*%
X88988000Y-59436000D03*
X87288000Y-59436000D03*
%TD*%
D12*
%TO.C,C_HSCAN_1*%
X76454000Y-91669500D03*
X76454000Y-93369500D03*
%TD*%
%TO.C,C_HSCAN_2*%
X86296500Y-93560000D03*
X86296500Y-91860000D03*
%TD*%
D13*
%TO.C,C_PS_1*%
X110749996Y-155448000D03*
X107950000Y-155448000D03*
%TD*%
D14*
%TO.C,D_ESD_1*%
X89655000Y-151574500D03*
X91955000Y-152524500D03*
X91955000Y-150624500D03*
%TD*%
D15*
%TO.C,D_ESD_2*%
X100650000Y-159314500D03*
X102550000Y-159314500D03*
X101600000Y-161614500D03*
%TD*%
D16*
%TO.C,D_ESD_3*%
X109031999Y-158826200D03*
X110932001Y-158826200D03*
X109982000Y-161213800D03*
%TD*%
D17*
%TO.C,D_ESD_4*%
X91230000Y-155069500D03*
X91230000Y-156969500D03*
X89110000Y-156019500D03*
%TD*%
D18*
%TO.C,D_ESD_5*%
X96520000Y-161524500D03*
X97470000Y-159404500D03*
X95570000Y-159404500D03*
%TD*%
D19*
%TO.C,R_COMP_5*%
X119443500Y-104590000D03*
X119443500Y-106230000D03*
%TD*%
%TO.C,R_COMP_4*%
X119380000Y-110230500D03*
X119380000Y-108590500D03*
%TD*%
%TO.C,R_COMP_11*%
X121983500Y-106166500D03*
X121983500Y-104526500D03*
%TD*%
%TO.C,R_ESP_4*%
X121539000Y-66559000D03*
X121539000Y-68199000D03*
%TD*%
D10*
%TO.C,R_ESP_5*%
X118364000Y-66793000D03*
X118364000Y-68335000D03*
%TD*%
D20*
%TO.C,R_HSCAN_1*%
X78936000Y-79248000D03*
X80576000Y-79248000D03*
%TD*%
D21*
%TO.C,R_HSCAN_2*%
X76581000Y-89773500D03*
X76581000Y-86883500D03*
%TD*%
%TO.C,R_HSCAN_3*%
X86169500Y-86947000D03*
X86169500Y-89837000D03*
%TD*%
D22*
%TO.C,R_J1850_2*%
X106045000Y-129195500D03*
X106045000Y-127725500D03*
%TD*%
D21*
%TO.C,R_J1850_6*%
X79121000Y-123142000D03*
X79121000Y-126032000D03*
%TD*%
D22*
%TO.C,R_STN_7*%
X93472000Y-95731000D03*
X93472000Y-94261000D03*
%TD*%
%TO.C,R_STN_8*%
X95758000Y-94261000D03*
X95758000Y-95731000D03*
%TD*%
D19*
%TO.C,R_STN_13*%
X106172000Y-99764000D03*
X106172000Y-101404000D03*
%TD*%
M02*
