%TF.GenerationSoftware,KiCad,Pcbnew,(5.1.7)-1*%
%TF.CreationDate,2020-11-30T00:01:55-08:00*%
%TF.ProjectId,Reader,52656164-6572-42e6-9b69-6361645f7063,0.0.05*%
%TF.SameCoordinates,Original*%
%TF.FileFunction,Other,Fab,Top*%
%FSLAX46Y46*%
G04 Gerber Fmt 4.6, Leading zero omitted, Abs format (unit mm)*
G04 Created by KiCad (PCBNEW (5.1.7)-1) date 2020-11-30 00:01:55*
%MOMM*%
%LPD*%
G01*
G04 APERTURE LIST*
%ADD10C,0.101600*%
%ADD11C,0.010000*%
%ADD12C,0.100000*%
%ADD13C,0.152400*%
%ADD14C,0.127000*%
%ADD15C,0.200000*%
%ADD16C,0.150000*%
%ADD17C,0.120000*%
%ADD18C,0.060000*%
%ADD19C,0.070000*%
%ADD20C,0.075000*%
G04 APERTURE END LIST*
D10*
%TO.C,C_STN_4*%
X85446000Y-116256000D02*
X84734000Y-116256000D01*
X85446000Y-115405000D02*
X84734000Y-115405000D01*
D11*
G36*
X85928505Y-116304100D02*
G01*
X85428100Y-116304100D01*
X85428100Y-115353929D01*
X85928505Y-115353929D01*
X85928505Y-116304100D01*
G37*
X85928505Y-116304100D02*
X85428100Y-116304100D01*
X85428100Y-115353929D01*
X85928505Y-115353929D01*
X85928505Y-116304100D01*
G36*
X84759786Y-116304100D02*
G01*
X84259700Y-116304100D01*
X84259700Y-115354080D01*
X84759786Y-115354080D01*
X84759786Y-116304100D01*
G37*
X84759786Y-116304100D02*
X84259700Y-116304100D01*
X84259700Y-115354080D01*
X84759786Y-115354080D01*
X84759786Y-116304100D01*
D12*
%TO.C,J_ESP_1*%
X69850000Y-57150000D02*
X71755000Y-57150000D01*
X71755000Y-57150000D02*
X72390000Y-57785000D01*
X72390000Y-57785000D02*
X72390000Y-107950000D01*
X72390000Y-107950000D02*
X69850000Y-107950000D01*
X69850000Y-107950000D02*
X69850000Y-57150000D01*
D13*
%TO.C,D_VS_1*%
X72859900Y-135966200D02*
X72428100Y-135966200D01*
X72428100Y-135966200D02*
X72428100Y-136410700D01*
X72428100Y-136410700D02*
X72859900Y-136410700D01*
X72859900Y-136410700D02*
X72859900Y-135966200D01*
X72428100Y-134162800D02*
X72859900Y-134162800D01*
X72859900Y-134162800D02*
X72859900Y-133718300D01*
X72859900Y-133718300D02*
X72428100Y-133718300D01*
X72428100Y-133718300D02*
X72428100Y-134162800D01*
X72644000Y-137401300D02*
X72644000Y-138671300D01*
X72009000Y-138417300D02*
X73279000Y-138417300D01*
X72644000Y-138417300D02*
X72009000Y-137655300D01*
X72644000Y-138417300D02*
X72136000Y-137655300D01*
X72644000Y-138417300D02*
X72263000Y-137655300D01*
X72644000Y-138417300D02*
X72390000Y-137655300D01*
X72644000Y-138417300D02*
X72517000Y-137655300D01*
X72644000Y-138417300D02*
X73279000Y-137655300D01*
X72644000Y-138417300D02*
X73152000Y-137655300D01*
X72644000Y-138417300D02*
X73025000Y-137655300D01*
X72644000Y-138417300D02*
X72898000Y-137655300D01*
X72644000Y-138417300D02*
X72771000Y-137655300D01*
X72009000Y-137655300D02*
X73279000Y-137655300D01*
X72282050Y-135966200D02*
X71920100Y-135604250D01*
X73005950Y-135966200D02*
X73367900Y-135604250D01*
X73367900Y-135966200D02*
X73367900Y-134162800D01*
X73367900Y-134162800D02*
X71920100Y-134162800D01*
X71920100Y-134162800D02*
X71920100Y-135966200D01*
X71920100Y-135966200D02*
X73367900Y-135966200D01*
D12*
%TO.C,J_ESP_2*%
X126238000Y-107950000D02*
X126238000Y-57150000D01*
X128778000Y-107950000D02*
X126238000Y-107950000D01*
X128778000Y-57785000D02*
X128778000Y-107950000D01*
X128143000Y-57150000D02*
X128778000Y-57785000D01*
X126238000Y-57150000D02*
X128143000Y-57150000D01*
D14*
%TO.C,R_COMP_7*%
X112688000Y-120708000D02*
X114388000Y-120708000D01*
X112688000Y-121608000D02*
X114388000Y-121608000D01*
X112688000Y-120708000D02*
X112688000Y-121608000D01*
X114388000Y-120708000D02*
X114388000Y-121608000D01*
D13*
%TO.C,U_CN_1*%
X107226100Y-169875200D02*
X107226100Y-164084000D01*
X90893900Y-169875200D02*
X107226100Y-169875200D01*
X90893900Y-164084000D02*
X90893900Y-169875200D01*
X107226100Y-164084000D02*
X90893900Y-164084000D01*
X114465100Y-164084000D02*
X114465100Y-147980400D01*
X83654900Y-164084000D02*
X114465100Y-164084000D01*
X83654900Y-147980400D02*
X83654900Y-164084000D01*
X114465100Y-147980400D02*
X83654900Y-147980400D01*
X103005000Y-147980400D02*
X103640000Y-146710400D01*
X104275000Y-147980400D02*
X103640000Y-146710400D01*
D10*
%TO.C,C_ESP_2*%
X116738000Y-81102000D02*
X117450000Y-81102000D01*
X116738000Y-81953000D02*
X117450000Y-81953000D01*
D11*
G36*
X116255394Y-81053900D02*
G01*
X116755900Y-81053900D01*
X116755900Y-82004129D01*
X116255394Y-82004129D01*
X116255394Y-81053900D01*
G37*
X116255394Y-81053900D02*
X116755900Y-81053900D01*
X116755900Y-82004129D01*
X116255394Y-82004129D01*
X116255394Y-81053900D01*
G36*
X117424881Y-81053900D02*
G01*
X117924300Y-81053900D01*
X117924300Y-82004869D01*
X117424881Y-82004869D01*
X117424881Y-81053900D01*
G37*
X117424881Y-81053900D02*
X117924300Y-81053900D01*
X117924300Y-82004869D01*
X117424881Y-82004869D01*
X117424881Y-81053900D01*
%TO.C,C_HSCAN_3*%
G36*
X77442100Y-84658214D02*
G01*
X77442100Y-85158300D01*
X76492080Y-85158300D01*
X76492080Y-84658214D01*
X77442100Y-84658214D01*
G37*
X77442100Y-84658214D02*
X77442100Y-85158300D01*
X76492080Y-85158300D01*
X76492080Y-84658214D01*
X77442100Y-84658214D01*
G36*
X77442100Y-83489495D02*
G01*
X77442100Y-83989900D01*
X76491929Y-83989900D01*
X76491929Y-83489495D01*
X77442100Y-83489495D01*
G37*
X77442100Y-83489495D02*
X77442100Y-83989900D01*
X76491929Y-83989900D01*
X76491929Y-83489495D01*
X77442100Y-83489495D01*
D10*
X76543000Y-83972000D02*
X76543000Y-84684000D01*
X77394000Y-83972000D02*
X77394000Y-84684000D01*
D14*
%TO.C,C_IMU_1*%
X79190000Y-68414000D02*
X78290000Y-68414000D01*
X79190000Y-66714000D02*
X78290000Y-66714000D01*
X78290000Y-66714000D02*
X78290000Y-68414000D01*
X79190000Y-66714000D02*
X79190000Y-68414000D01*
%TO.C,C_IMU_2*%
X84778000Y-72302000D02*
X84778000Y-74002000D01*
X83878000Y-72302000D02*
X83878000Y-74002000D01*
X84778000Y-72302000D02*
X83878000Y-72302000D01*
X84778000Y-74002000D02*
X83878000Y-74002000D01*
D11*
%TO.C,C_J1850_1*%
G36*
X83085900Y-118961119D02*
G01*
X83085900Y-118461700D01*
X84036869Y-118461700D01*
X84036869Y-118961119D01*
X83085900Y-118961119D01*
G37*
X83085900Y-118961119D02*
X83085900Y-118461700D01*
X84036869Y-118461700D01*
X84036869Y-118961119D01*
X83085900Y-118961119D01*
G36*
X83085900Y-120130606D02*
G01*
X83085900Y-119630100D01*
X84036129Y-119630100D01*
X84036129Y-120130606D01*
X83085900Y-120130606D01*
G37*
X83085900Y-120130606D02*
X83085900Y-119630100D01*
X84036129Y-119630100D01*
X84036129Y-120130606D01*
X83085900Y-120130606D01*
D10*
X83985000Y-119648000D02*
X83985000Y-118936000D01*
X83134000Y-119648000D02*
X83134000Y-118936000D01*
D13*
%TO.C,C_PS_2*%
X124127997Y-152283998D02*
X124127997Y-150484002D01*
X120728003Y-152283998D02*
X124127997Y-152283998D01*
X120728003Y-150484002D02*
X120728003Y-152283998D01*
X124127997Y-150484002D02*
X120728003Y-150484002D01*
X120728003Y-152283998D02*
X121478002Y-152283998D01*
X120728003Y-150484002D02*
X120728003Y-152283998D01*
X121478002Y-150484002D02*
X120728003Y-150484002D01*
X121478002Y-152283998D02*
X121478002Y-150484002D01*
X124127997Y-150484002D02*
X123377998Y-150484002D01*
X124127997Y-152283998D02*
X124127997Y-150484002D01*
X123377998Y-152283998D02*
X124127997Y-152283998D01*
X123377998Y-150484002D02*
X123377998Y-152283998D01*
%TO.C,C_PS_3*%
X77406004Y-155331998D02*
X77406004Y-153532002D01*
X77406004Y-153532002D02*
X76656005Y-153532002D01*
X76656005Y-153532002D02*
X76656005Y-155331998D01*
X76656005Y-155331998D02*
X77406004Y-155331998D01*
X79306000Y-153532002D02*
X79306000Y-155331998D01*
X79306000Y-155331998D02*
X80055999Y-155331998D01*
X80055999Y-155331998D02*
X80055999Y-153532002D01*
X80055999Y-153532002D02*
X79306000Y-153532002D01*
X76656005Y-155331998D02*
X80055999Y-155331998D01*
X80055999Y-155331998D02*
X80055999Y-153532002D01*
X80055999Y-153532002D02*
X76656005Y-153532002D01*
X76656005Y-153532002D02*
X76656005Y-155331998D01*
D10*
%TO.C,C_STN_1*%
X95072000Y-95098000D02*
X95072000Y-94386000D01*
X95923000Y-95098000D02*
X95923000Y-94386000D01*
D11*
G36*
X95023900Y-95580505D02*
G01*
X95023900Y-95080100D01*
X95974071Y-95080100D01*
X95974071Y-95580505D01*
X95023900Y-95580505D01*
G37*
X95023900Y-95580505D02*
X95023900Y-95080100D01*
X95974071Y-95080100D01*
X95974071Y-95580505D01*
X95023900Y-95580505D01*
G36*
X95023900Y-94411786D02*
G01*
X95023900Y-93911700D01*
X95973920Y-93911700D01*
X95973920Y-94411786D01*
X95023900Y-94411786D01*
G37*
X95023900Y-94411786D02*
X95023900Y-93911700D01*
X95973920Y-93911700D01*
X95973920Y-94411786D01*
X95023900Y-94411786D01*
D14*
%TO.C,C_STN_2*%
X111672000Y-97594000D02*
X113372000Y-97594000D01*
X111672000Y-98494000D02*
X113372000Y-98494000D01*
X111672000Y-97594000D02*
X111672000Y-98494000D01*
X113372000Y-97594000D02*
X113372000Y-98494000D01*
%TO.C,C_STN_3*%
X111672000Y-105860000D02*
X111672000Y-104960000D01*
X113372000Y-105860000D02*
X113372000Y-104960000D01*
X113372000Y-104960000D02*
X111672000Y-104960000D01*
X113372000Y-105860000D02*
X111672000Y-105860000D01*
D10*
%TO.C,C_STN_5*%
X109017000Y-104736500D02*
X109017000Y-105448500D01*
X108166000Y-104736500D02*
X108166000Y-105448500D01*
D11*
G36*
X109065100Y-104253995D02*
G01*
X109065100Y-104754400D01*
X108114929Y-104754400D01*
X108114929Y-104253995D01*
X109065100Y-104253995D01*
G37*
X109065100Y-104253995D02*
X109065100Y-104754400D01*
X108114929Y-104754400D01*
X108114929Y-104253995D01*
X109065100Y-104253995D01*
G36*
X109065100Y-105422714D02*
G01*
X109065100Y-105922800D01*
X108115080Y-105922800D01*
X108115080Y-105422714D01*
X109065100Y-105422714D01*
G37*
X109065100Y-105422714D02*
X109065100Y-105922800D01*
X108115080Y-105922800D01*
X108115080Y-105422714D01*
X109065100Y-105422714D01*
%TO.C,C_STN_6*%
G36*
X92151214Y-122328900D02*
G01*
X92651300Y-122328900D01*
X92651300Y-123278920D01*
X92151214Y-123278920D01*
X92151214Y-122328900D01*
G37*
X92151214Y-122328900D02*
X92651300Y-122328900D01*
X92651300Y-123278920D01*
X92151214Y-123278920D01*
X92151214Y-122328900D01*
G36*
X90982495Y-122328900D02*
G01*
X91482900Y-122328900D01*
X91482900Y-123279071D01*
X90982495Y-123279071D01*
X90982495Y-122328900D01*
G37*
X90982495Y-122328900D02*
X91482900Y-122328900D01*
X91482900Y-123279071D01*
X90982495Y-123279071D01*
X90982495Y-122328900D01*
D10*
X91465000Y-123228000D02*
X92177000Y-123228000D01*
X91465000Y-122377000D02*
X92177000Y-122377000D01*
D13*
%TO.C,C_VR1_1*%
X120533998Y-154256003D02*
X118734002Y-154256003D01*
X120533998Y-157655997D02*
X120533998Y-154256003D01*
X118734002Y-157655997D02*
X120533998Y-157655997D01*
X118734002Y-154256003D02*
X118734002Y-157655997D01*
X120533998Y-157655997D02*
X120533998Y-156905998D01*
X118734002Y-157655997D02*
X120533998Y-157655997D01*
X118734002Y-156905998D02*
X118734002Y-157655997D01*
X120533998Y-156905998D02*
X118734002Y-156905998D01*
X118734002Y-154256003D02*
X118734002Y-155006002D01*
X120533998Y-154256003D02*
X118734002Y-154256003D01*
X120533998Y-155006002D02*
X120533998Y-154256003D01*
X118734002Y-155006002D02*
X120533998Y-155006002D01*
D11*
%TO.C,C_VR1_2*%
G36*
X119098100Y-162192381D02*
G01*
X119098100Y-162691800D01*
X118147131Y-162691800D01*
X118147131Y-162192381D01*
X119098100Y-162192381D01*
G37*
X119098100Y-162192381D02*
X119098100Y-162691800D01*
X118147131Y-162691800D01*
X118147131Y-162192381D01*
X119098100Y-162192381D01*
G36*
X119098100Y-161022894D02*
G01*
X119098100Y-161523400D01*
X118147871Y-161523400D01*
X118147871Y-161022894D01*
X119098100Y-161022894D01*
G37*
X119098100Y-161022894D02*
X119098100Y-161523400D01*
X118147871Y-161523400D01*
X118147871Y-161022894D01*
X119098100Y-161022894D01*
D10*
X118199000Y-161505500D02*
X118199000Y-162217500D01*
X119050000Y-161505500D02*
X119050000Y-162217500D01*
%TO.C,C_VR1_3*%
X128448000Y-163474000D02*
X128448000Y-164186000D01*
X127597000Y-163474000D02*
X127597000Y-164186000D01*
D11*
G36*
X128496100Y-162991495D02*
G01*
X128496100Y-163491900D01*
X127545929Y-163491900D01*
X127545929Y-162991495D01*
X128496100Y-162991495D01*
G37*
X128496100Y-162991495D02*
X128496100Y-163491900D01*
X127545929Y-163491900D01*
X127545929Y-162991495D01*
X128496100Y-162991495D01*
G36*
X128496100Y-164160214D02*
G01*
X128496100Y-164660300D01*
X127546080Y-164660300D01*
X127546080Y-164160214D01*
X128496100Y-164160214D01*
G37*
X128496100Y-164160214D02*
X128496100Y-164660300D01*
X127546080Y-164660300D01*
X127546080Y-164160214D01*
X128496100Y-164160214D01*
D13*
%TO.C,C_VR2_1*%
X75829998Y-164479503D02*
X74030002Y-164479503D01*
X75829998Y-167879497D02*
X75829998Y-164479503D01*
X74030002Y-167879497D02*
X75829998Y-167879497D01*
X74030002Y-164479503D02*
X74030002Y-167879497D01*
X75829998Y-167879497D02*
X75829998Y-167129498D01*
X74030002Y-167879497D02*
X75829998Y-167879497D01*
X74030002Y-167129498D02*
X74030002Y-167879497D01*
X75829998Y-167129498D02*
X74030002Y-167129498D01*
X74030002Y-164479503D02*
X74030002Y-165229502D01*
X75829998Y-164479503D02*
X74030002Y-164479503D01*
X75829998Y-165229502D02*
X75829998Y-164479503D01*
X74030002Y-165229502D02*
X75829998Y-165229502D01*
D10*
%TO.C,C_VR2_2*%
X70536000Y-160172000D02*
X70536000Y-160884000D01*
X69685000Y-160172000D02*
X69685000Y-160884000D01*
D11*
G36*
X70584100Y-159689394D02*
G01*
X70584100Y-160189900D01*
X69633871Y-160189900D01*
X69633871Y-159689394D01*
X70584100Y-159689394D01*
G37*
X70584100Y-159689394D02*
X70584100Y-160189900D01*
X69633871Y-160189900D01*
X69633871Y-159689394D01*
X70584100Y-159689394D01*
G36*
X70584100Y-160858881D02*
G01*
X70584100Y-161358300D01*
X69633131Y-161358300D01*
X69633131Y-160858881D01*
X70584100Y-160858881D01*
G37*
X70584100Y-160858881D02*
X70584100Y-161358300D01*
X69633131Y-161358300D01*
X69633131Y-160858881D01*
X70584100Y-160858881D01*
%TO.C,C_VR2_3*%
G36*
X80975214Y-158079400D02*
G01*
X81475300Y-158079400D01*
X81475300Y-159029420D01*
X80975214Y-159029420D01*
X80975214Y-158079400D01*
G37*
X80975214Y-158079400D02*
X81475300Y-158079400D01*
X81475300Y-159029420D01*
X80975214Y-159029420D01*
X80975214Y-158079400D01*
G36*
X79806495Y-158079400D02*
G01*
X80306900Y-158079400D01*
X80306900Y-159029571D01*
X79806495Y-159029571D01*
X79806495Y-158079400D01*
G37*
X79806495Y-158079400D02*
X80306900Y-158079400D01*
X80306900Y-159029571D01*
X79806495Y-159029571D01*
X79806495Y-158079400D01*
D10*
X80289000Y-158978500D02*
X81001000Y-158978500D01*
X80289000Y-158127500D02*
X81001000Y-158127500D01*
%TO.C,C_VS_1*%
X79400000Y-130822500D02*
X80112000Y-130822500D01*
X79400000Y-131673500D02*
X80112000Y-131673500D01*
D11*
G36*
X78917394Y-130774400D02*
G01*
X79417900Y-130774400D01*
X79417900Y-131724629D01*
X78917394Y-131724629D01*
X78917394Y-130774400D01*
G37*
X78917394Y-130774400D02*
X79417900Y-130774400D01*
X79417900Y-131724629D01*
X78917394Y-131724629D01*
X78917394Y-130774400D01*
G36*
X80086881Y-130774400D02*
G01*
X80586300Y-130774400D01*
X80586300Y-131725369D01*
X80086881Y-131725369D01*
X80086881Y-130774400D01*
G37*
X80086881Y-130774400D02*
X80586300Y-130774400D01*
X80586300Y-131725369D01*
X80086881Y-131725369D01*
X80086881Y-130774400D01*
D13*
%TO.C,CP_ESP_1*%
X89535000Y-70104000D02*
G75*
G03*
X89535000Y-70104000I0J0D01*
G01*
X86233000Y-70612000D02*
X92837000Y-70612000D01*
X86233000Y-64008000D02*
X86233000Y-70612000D01*
X92837000Y-64008000D02*
X86233000Y-64008000D01*
X92837000Y-70612000D02*
X92837000Y-64008000D01*
X91186000Y-70612000D02*
X92837000Y-68961000D01*
X87884000Y-70612000D02*
X86233000Y-68961000D01*
D12*
%TO.C,CP_STN_1*%
X85414000Y-104054273D02*
X85814000Y-104054273D01*
X85614000Y-104254273D02*
X85614000Y-103854273D01*
X87764000Y-104829500D02*
X88764000Y-103829500D01*
X85464000Y-104829500D02*
X84464000Y-103829500D01*
X85464000Y-104829500D02*
X87764000Y-104829500D01*
X88764000Y-103829500D02*
X88764000Y-100529500D01*
X84464000Y-103829500D02*
X84464000Y-100529500D01*
X84464000Y-100529500D02*
X88764000Y-100529500D01*
X88614000Y-102679500D02*
G75*
G03*
X88614000Y-102679500I-2000000J0D01*
G01*
D13*
%TO.C,D_J1850_1*%
X113804700Y-132562600D02*
X113804700Y-132994400D01*
X113804700Y-132994400D02*
X114249200Y-132994400D01*
X114249200Y-132994400D02*
X114249200Y-132562600D01*
X114249200Y-132562600D02*
X113804700Y-132562600D01*
X112001300Y-132994400D02*
X112001300Y-132562600D01*
X112001300Y-132562600D02*
X111556800Y-132562600D01*
X111556800Y-132562600D02*
X111556800Y-132994400D01*
X111556800Y-132994400D02*
X112001300Y-132994400D01*
X115239800Y-132778500D02*
X116509800Y-132778500D01*
X116255800Y-133413500D02*
X116255800Y-132143500D01*
X116255800Y-132778500D02*
X115493800Y-133413500D01*
X116255800Y-132778500D02*
X115493800Y-133286500D01*
X116255800Y-132778500D02*
X115493800Y-133159500D01*
X116255800Y-132778500D02*
X115493800Y-133032500D01*
X116255800Y-132778500D02*
X115493800Y-132905500D01*
X116255800Y-132778500D02*
X115493800Y-132143500D01*
X116255800Y-132778500D02*
X115493800Y-132270500D01*
X116255800Y-132778500D02*
X115493800Y-132397500D01*
X116255800Y-132778500D02*
X115493800Y-132524500D01*
X116255800Y-132778500D02*
X115493800Y-132651500D01*
X115493800Y-133413500D02*
X115493800Y-132143500D01*
X113804700Y-133140450D02*
X113442750Y-133502400D01*
X113804700Y-132416550D02*
X113442750Y-132054600D01*
X113804700Y-132054600D02*
X112001300Y-132054600D01*
X112001300Y-132054600D02*
X112001300Y-133502400D01*
X112001300Y-133502400D02*
X113804700Y-133502400D01*
X113804700Y-133502400D02*
X113804700Y-132054600D01*
%TO.C,D_J1850_2*%
X117640100Y-138252200D02*
X119087900Y-138252200D01*
X117640100Y-136448800D02*
X117640100Y-138252200D01*
X119087900Y-136448800D02*
X117640100Y-136448800D01*
X119087900Y-138252200D02*
X119087900Y-136448800D01*
X118725950Y-138252200D02*
X119087900Y-137890250D01*
X118002050Y-138252200D02*
X117640100Y-137890250D01*
X117729000Y-139941300D02*
X118999000Y-139941300D01*
X118364000Y-140703300D02*
X118491000Y-139941300D01*
X118364000Y-140703300D02*
X118618000Y-139941300D01*
X118364000Y-140703300D02*
X118745000Y-139941300D01*
X118364000Y-140703300D02*
X118872000Y-139941300D01*
X118364000Y-140703300D02*
X118999000Y-139941300D01*
X118364000Y-140703300D02*
X118237000Y-139941300D01*
X118364000Y-140703300D02*
X118110000Y-139941300D01*
X118364000Y-140703300D02*
X117983000Y-139941300D01*
X118364000Y-140703300D02*
X117856000Y-139941300D01*
X118364000Y-140703300D02*
X117729000Y-139941300D01*
X117729000Y-140703300D02*
X118999000Y-140703300D01*
X118364000Y-139687300D02*
X118364000Y-140957300D01*
X118148100Y-136004300D02*
X118148100Y-136448800D01*
X118579900Y-136004300D02*
X118148100Y-136004300D01*
X118579900Y-136448800D02*
X118579900Y-136004300D01*
X118148100Y-136448800D02*
X118579900Y-136448800D01*
X118579900Y-138696700D02*
X118579900Y-138252200D01*
X118148100Y-138696700D02*
X118579900Y-138696700D01*
X118148100Y-138252200D02*
X118148100Y-138696700D01*
X118579900Y-138252200D02*
X118148100Y-138252200D01*
%TO.C,D_J1850_3*%
X118884700Y-142392400D02*
X118884700Y-140944600D01*
X117081300Y-142392400D02*
X118884700Y-142392400D01*
X117081300Y-140944600D02*
X117081300Y-142392400D01*
X118884700Y-140944600D02*
X117081300Y-140944600D01*
X118884700Y-141306550D02*
X118522750Y-140944600D01*
X118884700Y-142030450D02*
X118522750Y-142392400D01*
X120573800Y-142303500D02*
X120573800Y-141033500D01*
X121335800Y-141668500D02*
X120573800Y-141541500D01*
X121335800Y-141668500D02*
X120573800Y-141414500D01*
X121335800Y-141668500D02*
X120573800Y-141287500D01*
X121335800Y-141668500D02*
X120573800Y-141160500D01*
X121335800Y-141668500D02*
X120573800Y-141033500D01*
X121335800Y-141668500D02*
X120573800Y-141795500D01*
X121335800Y-141668500D02*
X120573800Y-141922500D01*
X121335800Y-141668500D02*
X120573800Y-142049500D01*
X121335800Y-141668500D02*
X120573800Y-142176500D01*
X121335800Y-141668500D02*
X120573800Y-142303500D01*
X121335800Y-142303500D02*
X121335800Y-141033500D01*
X120319800Y-141668500D02*
X121589800Y-141668500D01*
X116636800Y-141884400D02*
X117081300Y-141884400D01*
X116636800Y-141452600D02*
X116636800Y-141884400D01*
X117081300Y-141452600D02*
X116636800Y-141452600D01*
X117081300Y-141884400D02*
X117081300Y-141452600D01*
X119329200Y-141452600D02*
X118884700Y-141452600D01*
X119329200Y-141884400D02*
X119329200Y-141452600D01*
X118884700Y-141884400D02*
X119329200Y-141884400D01*
X118884700Y-141452600D02*
X118884700Y-141884400D01*
%TO.C,D_VS_2*%
X77076300Y-135610600D02*
X77076300Y-137058400D01*
X78879700Y-135610600D02*
X77076300Y-135610600D01*
X78879700Y-137058400D02*
X78879700Y-135610600D01*
X77076300Y-137058400D02*
X78879700Y-137058400D01*
X77076300Y-136696450D02*
X77438250Y-137058400D01*
X77076300Y-135972550D02*
X77438250Y-135610600D01*
X75387200Y-135699500D02*
X75387200Y-136969500D01*
X74625200Y-136334500D02*
X75387200Y-136461500D01*
X74625200Y-136334500D02*
X75387200Y-136588500D01*
X74625200Y-136334500D02*
X75387200Y-136715500D01*
X74625200Y-136334500D02*
X75387200Y-136842500D01*
X74625200Y-136334500D02*
X75387200Y-136969500D01*
X74625200Y-136334500D02*
X75387200Y-136207500D01*
X74625200Y-136334500D02*
X75387200Y-136080500D01*
X74625200Y-136334500D02*
X75387200Y-135953500D01*
X74625200Y-136334500D02*
X75387200Y-135826500D01*
X74625200Y-136334500D02*
X75387200Y-135699500D01*
X74625200Y-135699500D02*
X74625200Y-136969500D01*
X75641200Y-136334500D02*
X74371200Y-136334500D01*
X79324200Y-136118600D02*
X78879700Y-136118600D01*
X79324200Y-136550400D02*
X79324200Y-136118600D01*
X78879700Y-136550400D02*
X79324200Y-136550400D01*
X78879700Y-136118600D02*
X78879700Y-136550400D01*
X76631800Y-136550400D02*
X77076300Y-136550400D01*
X76631800Y-136118600D02*
X76631800Y-136550400D01*
X77076300Y-136118600D02*
X76631800Y-136118600D01*
X77076300Y-136550400D02*
X77076300Y-136118600D01*
D12*
%TO.C,J_CN_1*%
X73406000Y-144526000D02*
X124206000Y-144526000D01*
X73406000Y-147066000D02*
X73406000Y-144526000D01*
X123571000Y-147066000D02*
X73406000Y-147066000D01*
X124206000Y-146431000D02*
X123571000Y-147066000D01*
X124206000Y-144526000D02*
X124206000Y-146431000D01*
%TO.C,J_ESP_3*%
X93154500Y-86614000D02*
X93154500Y-84709000D01*
X93154500Y-84709000D02*
X113474500Y-84709000D01*
X113474500Y-84709000D02*
X113474500Y-87249000D01*
X113474500Y-87249000D02*
X93789500Y-87249000D01*
X93789500Y-87249000D02*
X93154500Y-86614000D01*
%TO.C,J_PS_1*%
X107696000Y-140906500D02*
X108331000Y-141541500D01*
X88011000Y-140906500D02*
X107696000Y-140906500D01*
X88011000Y-143446500D02*
X88011000Y-140906500D01*
X108331000Y-143446500D02*
X88011000Y-143446500D01*
X108331000Y-141541500D02*
X108331000Y-143446500D01*
%TO.C,J_STN_1*%
X91440000Y-92710000D02*
X90805000Y-92075000D01*
X95885000Y-92710000D02*
X91440000Y-92710000D01*
X95885000Y-90170000D02*
X95885000Y-92710000D01*
X90805000Y-90170000D02*
X95885000Y-90170000D01*
X90805000Y-92075000D02*
X90805000Y-90170000D01*
%TO.C,J_STN_2*%
X83058000Y-89979500D02*
X83693000Y-90614500D01*
X78613000Y-89979500D02*
X83058000Y-89979500D01*
X78613000Y-92519500D02*
X78613000Y-89979500D01*
X83693000Y-92519500D02*
X78613000Y-92519500D01*
X83693000Y-90614500D02*
X83693000Y-92519500D01*
%TO.C,J_STN_4*%
X98425000Y-92075000D02*
X98425000Y-90170000D01*
X98425000Y-90170000D02*
X103505000Y-90170000D01*
X103505000Y-90170000D02*
X103505000Y-92710000D01*
X103505000Y-92710000D02*
X99060000Y-92710000D01*
X99060000Y-92710000D02*
X98425000Y-92075000D01*
%TO.C,J_STN_5*%
X104711500Y-103314500D02*
X105346500Y-102679500D01*
X104711500Y-107759500D02*
X104711500Y-103314500D01*
X107251500Y-107759500D02*
X104711500Y-107759500D01*
X107251500Y-102679500D02*
X107251500Y-107759500D01*
X105346500Y-102679500D02*
X107251500Y-102679500D01*
%TO.C,J_STN_6*%
X100774500Y-112395000D02*
X102679500Y-112395000D01*
X102679500Y-112395000D02*
X102679500Y-117475000D01*
X102679500Y-117475000D02*
X100139500Y-117475000D01*
X100139500Y-117475000D02*
X100139500Y-113030000D01*
X100139500Y-113030000D02*
X100774500Y-112395000D01*
D13*
%TO.C,L_VR1*%
X123024900Y-165544500D02*
G75*
G03*
X123024900Y-165544500I-76200J0D01*
G01*
X123024900Y-166268400D02*
X123024900Y-164820600D01*
X120815100Y-166268400D02*
X123024900Y-166268400D01*
X120815100Y-164820600D02*
X120815100Y-166268400D01*
X123024900Y-164820600D02*
X120815100Y-164820600D01*
%TO.C,L_VR2*%
X71793100Y-154152600D02*
X71793100Y-156362400D01*
X71793100Y-156362400D02*
X73240900Y-156362400D01*
X73240900Y-156362400D02*
X73240900Y-154152600D01*
X73240900Y-154152600D02*
X71793100Y-154152600D01*
X72593200Y-154228800D02*
G75*
G03*
X72593200Y-154228800I-76200J0D01*
G01*
D12*
%TO.C,LED_ESP_1*%
X119596000Y-83966000D02*
X120896000Y-83966000D01*
X120896000Y-83966000D02*
X121196000Y-83666000D01*
X121196000Y-83666000D02*
X121196000Y-83166000D01*
X121196000Y-83166000D02*
X119596000Y-83166000D01*
X119596000Y-83166000D02*
X119596000Y-83966000D01*
%TO.C,LED_STN_1*%
X74828500Y-110217000D02*
X74828500Y-111017000D01*
X76428500Y-110217000D02*
X74828500Y-110217000D01*
X76428500Y-110717000D02*
X76428500Y-110217000D01*
X76128500Y-111017000D02*
X76428500Y-110717000D01*
X74828500Y-111017000D02*
X76128500Y-111017000D01*
%TO.C,LED_STN_2*%
X74638000Y-104540000D02*
X75938000Y-104540000D01*
X75938000Y-104540000D02*
X76238000Y-104240000D01*
X76238000Y-104240000D02*
X76238000Y-103740000D01*
X76238000Y-103740000D02*
X74638000Y-103740000D01*
X74638000Y-103740000D02*
X74638000Y-104540000D01*
%TO.C,LED_STN_3*%
X74638000Y-107296000D02*
X74638000Y-108096000D01*
X76238000Y-107296000D02*
X74638000Y-107296000D01*
X76238000Y-107796000D02*
X76238000Y-107296000D01*
X75938000Y-108096000D02*
X76238000Y-107796000D01*
X74638000Y-108096000D02*
X75938000Y-108096000D01*
D13*
%TO.C,Q_ISO_1*%
X122110500Y-94615000D02*
X122618500Y-94615000D01*
X122618500Y-94615000D02*
X122618500Y-94005400D01*
X122618500Y-94005400D02*
X122110500Y-94005400D01*
X122110500Y-94005400D02*
X122110500Y-94615000D01*
X120205500Y-94615000D02*
X120713500Y-94615000D01*
X120713500Y-94615000D02*
X120713500Y-94005400D01*
X120713500Y-94005400D02*
X120205500Y-94005400D01*
X120205500Y-94005400D02*
X120205500Y-94615000D01*
X121666000Y-96012000D02*
X121158000Y-96012000D01*
X121158000Y-96012000D02*
X121158000Y-96621600D01*
X121158000Y-96621600D02*
X121666000Y-96621600D01*
X121666000Y-96621600D02*
X121666000Y-96012000D01*
X122923300Y-94615000D02*
X119900700Y-94615000D01*
X119900700Y-94615000D02*
X119900700Y-96012000D01*
X119900700Y-96012000D02*
X122923300Y-96012000D01*
X122923300Y-96012000D02*
X122923300Y-94615000D01*
X122796300Y-94869000D02*
G75*
G03*
X122796300Y-94869000I-127000J0D01*
G01*
%TO.C,Q_ISO_2*%
X121348500Y-89420700D02*
G75*
G03*
X121348500Y-89420700I-127000J0D01*
G01*
X122364500Y-89166700D02*
X120967500Y-89166700D01*
X122364500Y-92189300D02*
X122364500Y-89166700D01*
X120967500Y-92189300D02*
X122364500Y-92189300D01*
X120967500Y-89166700D02*
X120967500Y-92189300D01*
X122974100Y-90424000D02*
X122364500Y-90424000D01*
X122974100Y-90932000D02*
X122974100Y-90424000D01*
X122364500Y-90932000D02*
X122974100Y-90932000D01*
X122364500Y-90424000D02*
X122364500Y-90932000D01*
X120357900Y-91884500D02*
X120967500Y-91884500D01*
X120357900Y-91376500D02*
X120357900Y-91884500D01*
X120967500Y-91376500D02*
X120357900Y-91376500D01*
X120967500Y-91884500D02*
X120967500Y-91376500D01*
X120357900Y-89979500D02*
X120967500Y-89979500D01*
X120357900Y-89471500D02*
X120357900Y-89979500D01*
X120967500Y-89471500D02*
X120357900Y-89471500D01*
X120967500Y-89979500D02*
X120967500Y-89471500D01*
D12*
%TO.C,Q_ISO_3*%
X113092000Y-94363500D02*
X113092000Y-96813500D01*
X113642000Y-93793500D02*
X114492000Y-93793500D01*
X113092000Y-94363500D02*
X113642000Y-93793500D01*
X114492000Y-93793500D02*
X114492000Y-96833500D01*
X113092000Y-96833500D02*
X114492000Y-96833500D01*
%TO.C,Q_ISO_4*%
X113092000Y-91753500D02*
X114492000Y-91753500D01*
X114492000Y-88713500D02*
X114492000Y-91753500D01*
X113092000Y-89283500D02*
X113642000Y-88713500D01*
X113642000Y-88713500D02*
X114492000Y-88713500D01*
X113092000Y-89283500D02*
X113092000Y-91733500D01*
D13*
%TO.C,Q_J1850_3*%
X109766100Y-127256500D02*
G75*
G03*
X109766100Y-127256500I-76200J0D01*
G01*
X110782100Y-126758700D02*
X109435900Y-126758700D01*
X110782100Y-129654300D02*
X110782100Y-126758700D01*
X109435900Y-129654300D02*
X110782100Y-129654300D01*
X109435900Y-126758700D02*
X109435900Y-129654300D01*
X111404400Y-127952500D02*
X110782100Y-127952500D01*
X111404400Y-128460500D02*
X111404400Y-127952500D01*
X110782100Y-128460500D02*
X111404400Y-128460500D01*
X110782100Y-127952500D02*
X110782100Y-128460500D01*
X108813600Y-129410500D02*
X109435900Y-129410500D01*
X108813600Y-128902500D02*
X108813600Y-129410500D01*
X109435900Y-128902500D02*
X108813600Y-128902500D01*
X109435900Y-129410500D02*
X109435900Y-128902500D01*
X108813600Y-127510500D02*
X109435900Y-127510500D01*
X108813600Y-127002500D02*
X108813600Y-127510500D01*
X109435900Y-127002500D02*
X108813600Y-127002500D01*
X109435900Y-127510500D02*
X109435900Y-127002500D01*
D14*
%TO.C,R_COMP_1*%
X113289500Y-115355000D02*
X113289500Y-117055000D01*
X112389500Y-115355000D02*
X112389500Y-117055000D01*
X113289500Y-115355000D02*
X112389500Y-115355000D01*
X113289500Y-117055000D02*
X112389500Y-117055000D01*
%TO.C,R_COMP_2*%
X111233000Y-119258500D02*
X111233000Y-118358500D01*
X112933000Y-119258500D02*
X112933000Y-118358500D01*
X112933000Y-118358500D02*
X111233000Y-118358500D01*
X112933000Y-119258500D02*
X111233000Y-119258500D01*
%TO.C,R_COMP_3*%
X113226000Y-111721000D02*
X112326000Y-111721000D01*
X113226000Y-110021000D02*
X112326000Y-110021000D01*
X112326000Y-110021000D02*
X112326000Y-111721000D01*
X113226000Y-110021000D02*
X113226000Y-111721000D01*
%TO.C,R_COMP_6*%
X114339000Y-129926500D02*
X114339000Y-129026500D01*
X116039000Y-129926500D02*
X116039000Y-129026500D01*
X116039000Y-129026500D02*
X114339000Y-129026500D01*
X116039000Y-129926500D02*
X114339000Y-129926500D01*
%TO.C,R_COMP_8*%
X119595000Y-126370500D02*
X117895000Y-126370500D01*
X119595000Y-125470500D02*
X117895000Y-125470500D01*
X119595000Y-126370500D02*
X119595000Y-125470500D01*
X117895000Y-126370500D02*
X117895000Y-125470500D01*
%TO.C,R_COMP_9*%
X122340000Y-126370500D02*
X122340000Y-125470500D01*
X124040000Y-126370500D02*
X124040000Y-125470500D01*
X124040000Y-125470500D02*
X122340000Y-125470500D01*
X124040000Y-126370500D02*
X122340000Y-126370500D01*
%TO.C,R_COMP_10*%
X127248500Y-117450500D02*
X128148500Y-117450500D01*
X127248500Y-119150500D02*
X128148500Y-119150500D01*
X128148500Y-119150500D02*
X128148500Y-117450500D01*
X127248500Y-119150500D02*
X127248500Y-117450500D01*
%TO.C,R_ESP_1*%
X74715000Y-58235000D02*
X74715000Y-57335000D01*
X76415000Y-58235000D02*
X76415000Y-57335000D01*
X76415000Y-57335000D02*
X74715000Y-57335000D01*
X76415000Y-58235000D02*
X74715000Y-58235000D01*
%TO.C,R_ESP_2*%
X79286000Y-62954000D02*
X80226000Y-62954000D01*
X79286000Y-64554000D02*
X80226000Y-64554000D01*
X80226000Y-64554000D02*
X80226000Y-62954000D01*
X79286000Y-64554000D02*
X79286000Y-62954000D01*
%TO.C,R_ESP_3*%
X117259000Y-83096000D02*
X117259000Y-84036000D01*
X115659000Y-83096000D02*
X115659000Y-84036000D01*
X115659000Y-84036000D02*
X117259000Y-84036000D01*
X115659000Y-83096000D02*
X117259000Y-83096000D01*
%TO.C,R_IMU_1*%
X74099000Y-71540000D02*
X74999000Y-71540000D01*
X74099000Y-73240000D02*
X74999000Y-73240000D01*
X74999000Y-73240000D02*
X74999000Y-71540000D01*
X74099000Y-73240000D02*
X74099000Y-71540000D01*
%TO.C,R_IMU_2*%
X76639000Y-73240000D02*
X76639000Y-71540000D01*
X77539000Y-73240000D02*
X77539000Y-71540000D01*
X76639000Y-73240000D02*
X77539000Y-73240000D01*
X76639000Y-71540000D02*
X77539000Y-71540000D01*
D13*
%TO.C,R_ISO_1*%
X108566000Y-95140201D02*
X109366000Y-95140201D01*
X109366000Y-95140201D02*
X109366000Y-94790201D01*
X109366000Y-94790201D02*
X108566000Y-94790201D01*
X108566000Y-94790201D02*
X108566000Y-95140201D01*
X109366000Y-96040201D02*
X108566000Y-96040201D01*
X108566000Y-96040201D02*
X108566000Y-96390201D01*
X108566000Y-96390201D02*
X109366000Y-96390201D01*
X109366000Y-96390201D02*
X109366000Y-96040201D01*
X108566000Y-94790201D02*
X108566000Y-96390201D01*
X108566000Y-96390201D02*
X109366000Y-96390201D01*
X109366000Y-96390201D02*
X109366000Y-94790201D01*
X109366000Y-94790201D02*
X108566000Y-94790201D01*
%TO.C,R_ISO_2*%
X109366000Y-89370000D02*
X108566000Y-89370000D01*
X109366000Y-90970000D02*
X109366000Y-89370000D01*
X108566000Y-90970000D02*
X109366000Y-90970000D01*
X108566000Y-89370000D02*
X108566000Y-90970000D01*
X109366000Y-90970000D02*
X109366000Y-90620000D01*
X108566000Y-90970000D02*
X109366000Y-90970000D01*
X108566000Y-90620000D02*
X108566000Y-90970000D01*
X109366000Y-90620000D02*
X108566000Y-90620000D01*
X108566000Y-89370000D02*
X108566000Y-89720000D01*
X109366000Y-89370000D02*
X108566000Y-89370000D01*
X109366000Y-89720000D02*
X109366000Y-89370000D01*
X108566000Y-89720000D02*
X109366000Y-89720000D01*
D14*
%TO.C,R_ISO_3*%
X118322000Y-94213500D02*
X118322000Y-96413500D01*
X116882000Y-94213500D02*
X116882000Y-96413500D01*
X118322000Y-94213500D02*
X116882000Y-94213500D01*
X118322000Y-96413500D02*
X116882000Y-96413500D01*
%TO.C,R_ISO_4*%
X118322000Y-91333500D02*
X116882000Y-91333500D01*
X118322000Y-89133500D02*
X116882000Y-89133500D01*
X116882000Y-89133500D02*
X116882000Y-91333500D01*
X118322000Y-89133500D02*
X118322000Y-91333500D01*
%TO.C,R_J1850_1*%
X124040000Y-129291500D02*
X122340000Y-129291500D01*
X124040000Y-128391500D02*
X122340000Y-128391500D01*
X124040000Y-129291500D02*
X124040000Y-128391500D01*
X122340000Y-129291500D02*
X122340000Y-128391500D01*
%TO.C,R_J1850_3*%
X78291000Y-126217000D02*
X78291000Y-122957000D01*
X79951000Y-126217000D02*
X79951000Y-122957000D01*
X78291000Y-126217000D02*
X79951000Y-126217000D01*
X78291000Y-122957000D02*
X79951000Y-122957000D01*
%TO.C,R_J1850_4*%
X75116000Y-126217000D02*
X75116000Y-122957000D01*
X76776000Y-126217000D02*
X76776000Y-122957000D01*
X75116000Y-126217000D02*
X76776000Y-126217000D01*
X75116000Y-122957000D02*
X76776000Y-122957000D01*
%TO.C,R_J1850_5*%
X117787000Y-131928500D02*
X118687000Y-131928500D01*
X117787000Y-133628500D02*
X118687000Y-133628500D01*
X118687000Y-133628500D02*
X118687000Y-131928500D01*
X117787000Y-133628500D02*
X117787000Y-131928500D01*
%TO.C,R_J1850_7*%
X124040000Y-130550500D02*
X124040000Y-131450500D01*
X122340000Y-130550500D02*
X122340000Y-131450500D01*
X122340000Y-131450500D02*
X124040000Y-131450500D01*
X122340000Y-130550500D02*
X124040000Y-130550500D01*
%TO.C,R_J1850_8*%
X121724000Y-141629500D02*
X121724000Y-139929500D01*
X122624000Y-141629500D02*
X122624000Y-139929500D01*
X121724000Y-141629500D02*
X122624000Y-141629500D01*
X121724000Y-139929500D02*
X122624000Y-139929500D01*
%TO.C,R_PS_1*%
X91225000Y-137916500D02*
X92925000Y-137916500D01*
X91225000Y-138816500D02*
X92925000Y-138816500D01*
X91225000Y-137916500D02*
X91225000Y-138816500D01*
X92925000Y-137916500D02*
X92925000Y-138816500D01*
%TO.C,R_PS_2*%
X86556000Y-139534000D02*
X85656000Y-139534000D01*
X86556000Y-137834000D02*
X85656000Y-137834000D01*
X85656000Y-137834000D02*
X85656000Y-139534000D01*
X86556000Y-137834000D02*
X86556000Y-139534000D01*
%TO.C,R_STN_1*%
X81592000Y-111383500D02*
X78332000Y-111383500D01*
X81592000Y-109723500D02*
X78332000Y-109723500D01*
X81592000Y-111383500D02*
X81592000Y-109723500D01*
X78332000Y-111383500D02*
X78332000Y-109723500D01*
%TO.C,R_STN_2*%
X78380000Y-105033500D02*
X78380000Y-103373500D01*
X81640000Y-105033500D02*
X81640000Y-103373500D01*
X81640000Y-103373500D02*
X78380000Y-103373500D01*
X81640000Y-105033500D02*
X78380000Y-105033500D01*
%TO.C,R_STN_3*%
X78380000Y-108335500D02*
X78380000Y-106675500D01*
X81640000Y-108335500D02*
X81640000Y-106675500D01*
X81640000Y-106675500D02*
X78380000Y-106675500D01*
X81640000Y-108335500D02*
X78380000Y-108335500D01*
D13*
%TO.C,R_STN_4*%
X89535000Y-94850000D02*
X89535000Y-95650000D01*
X91135000Y-94850000D02*
X89535000Y-94850000D01*
X91135000Y-95650000D02*
X91135000Y-94850000D01*
X89535000Y-95650000D02*
X91135000Y-95650000D01*
X91135000Y-94850000D02*
X90785000Y-94850000D01*
X91135000Y-95650000D02*
X91135000Y-94850000D01*
X90785000Y-95650000D02*
X91135000Y-95650000D01*
X90785000Y-94850000D02*
X90785000Y-95650000D01*
X89535000Y-95650000D02*
X89885000Y-95650000D01*
X89535000Y-94850000D02*
X89535000Y-95650000D01*
X89885000Y-94850000D02*
X89535000Y-94850000D01*
X89885000Y-95650000D02*
X89885000Y-94850000D01*
D14*
%TO.C,R_STN_5*%
X80239500Y-112516500D02*
X81939500Y-112516500D01*
X80239500Y-113416500D02*
X81939500Y-113416500D01*
X80239500Y-112516500D02*
X80239500Y-113416500D01*
X81939500Y-112516500D02*
X81939500Y-113416500D01*
%TO.C,R_STN_6*%
X80239500Y-114993000D02*
X81939500Y-114993000D01*
X80239500Y-115893000D02*
X81939500Y-115893000D01*
X80239500Y-114993000D02*
X80239500Y-115893000D01*
X81939500Y-114993000D02*
X81939500Y-115893000D01*
%TO.C,R_STN_9*%
X90971000Y-119819000D02*
X92671000Y-119819000D01*
X90971000Y-120719000D02*
X92671000Y-120719000D01*
X90971000Y-119819000D02*
X90971000Y-120719000D01*
X92671000Y-119819000D02*
X92671000Y-120719000D01*
%TO.C,R_STN_11*%
X99129000Y-114212000D02*
X99129000Y-115912000D01*
X98229000Y-114212000D02*
X98229000Y-115912000D01*
X99129000Y-114212000D02*
X98229000Y-114212000D01*
X99129000Y-115912000D02*
X98229000Y-115912000D01*
%TO.C,R_STN_12*%
X96589000Y-114212000D02*
X96589000Y-115912000D01*
X95689000Y-114212000D02*
X95689000Y-115912000D01*
X96589000Y-114212000D02*
X95689000Y-114212000D01*
X96589000Y-115912000D02*
X95689000Y-115912000D01*
%TO.C,R_VR2_1*%
X78534001Y-167537500D02*
X77634001Y-167537500D01*
X78534001Y-165837500D02*
X77634001Y-165837500D01*
X77634001Y-165837500D02*
X77634001Y-167537500D01*
X78534001Y-165837500D02*
X78534001Y-167537500D01*
%TO.C,R_VR2_2*%
X80195000Y-167664500D02*
X80195000Y-165964500D01*
X81095000Y-167664500D02*
X81095000Y-165964500D01*
X80195000Y-167664500D02*
X81095000Y-167664500D01*
X80195000Y-165964500D02*
X81095000Y-165964500D01*
%TO.C,R_VR2_3*%
X79160000Y-163189500D02*
X80860000Y-163189500D01*
X79160000Y-164089500D02*
X80860000Y-164089500D01*
X79160000Y-163189500D02*
X79160000Y-164089500D01*
X80860000Y-163189500D02*
X80860000Y-164089500D01*
%TO.C,R_VS_1*%
X81822000Y-139337500D02*
X81822000Y-140697500D01*
X79722000Y-139337500D02*
X79722000Y-140697500D01*
X79722000Y-140697500D02*
X81822000Y-140697500D01*
X79722000Y-139337500D02*
X81822000Y-139337500D01*
%TO.C,R_VS_2*%
X80606000Y-134244500D02*
X78906000Y-134244500D01*
X80606000Y-133344500D02*
X78906000Y-133344500D01*
X80606000Y-134244500D02*
X80606000Y-133344500D01*
X78906000Y-134244500D02*
X78906000Y-133344500D01*
D13*
%TO.C,SW_ESP_1*%
X80302100Y-57454999D02*
X80302100Y-57454999D01*
X80302100Y-57454999D02*
X79925000Y-57454999D01*
X79925000Y-57454999D02*
X79925000Y-57454999D01*
X79925000Y-57454999D02*
X80302100Y-57454999D01*
X80302100Y-60655001D02*
X80302100Y-60655001D01*
X80302100Y-60655001D02*
X79925000Y-60655001D01*
X79925000Y-60655001D02*
X79925000Y-60655001D01*
X79925000Y-60655001D02*
X80302100Y-60655001D01*
X84797900Y-60655001D02*
X84797900Y-60655001D01*
X84797900Y-60655001D02*
X85175000Y-60655001D01*
X85175000Y-60655001D02*
X85175000Y-60655001D01*
X85175000Y-60655001D02*
X84797900Y-60655001D01*
X84797900Y-57454999D02*
X84797900Y-57454999D01*
X84797900Y-57454999D02*
X85175000Y-57454999D01*
X85175000Y-57454999D02*
X85175000Y-57454999D01*
X85175000Y-57454999D02*
X84797900Y-57454999D01*
X80302100Y-61302900D02*
X84797900Y-61302900D01*
X84797900Y-61302900D02*
X84797900Y-56807100D01*
X84797900Y-56807100D02*
X80302100Y-56807100D01*
X80302100Y-56807100D02*
X80302100Y-61302900D01*
X80128200Y-56070699D02*
G75*
G03*
X80128200Y-56070699I-203200J0D01*
G01*
X83947000Y-59055000D02*
G75*
G03*
X83947000Y-59055000I-1397000J0D01*
G01*
%TO.C,SW_ESP_2*%
X121285000Y-74168000D02*
G75*
G03*
X121285000Y-74168000I-1397000J0D01*
G01*
X117106899Y-76793000D02*
G75*
G03*
X117106899Y-76793000I-203200J0D01*
G01*
X117640100Y-76415900D02*
X122135900Y-76415900D01*
X117640100Y-71920100D02*
X117640100Y-76415900D01*
X122135900Y-71920100D02*
X117640100Y-71920100D01*
X122135900Y-76415900D02*
X122135900Y-71920100D01*
X118287999Y-71543000D02*
X118287999Y-71920100D01*
X118287999Y-71543000D02*
X118287999Y-71543000D01*
X118287999Y-71920100D02*
X118287999Y-71543000D01*
X118287999Y-71920100D02*
X118287999Y-71920100D01*
X121488001Y-71543000D02*
X121488001Y-71920100D01*
X121488001Y-71543000D02*
X121488001Y-71543000D01*
X121488001Y-71920100D02*
X121488001Y-71543000D01*
X121488001Y-71920100D02*
X121488001Y-71920100D01*
X121488001Y-76793000D02*
X121488001Y-76415900D01*
X121488001Y-76793000D02*
X121488001Y-76793000D01*
X121488001Y-76415900D02*
X121488001Y-76793000D01*
X121488001Y-76415900D02*
X121488001Y-76415900D01*
X118287999Y-76793000D02*
X118287999Y-76415900D01*
X118287999Y-76793000D02*
X118287999Y-76793000D01*
X118287999Y-76415900D02*
X118287999Y-76793000D01*
X118287999Y-76415900D02*
X118287999Y-76415900D01*
%TO.C,SW_STN_1*%
X92456000Y-114427000D02*
G75*
G03*
X92456000Y-114427000I-1397000J0D01*
G01*
X93887200Y-117411301D02*
G75*
G03*
X93887200Y-117411301I-203200J0D01*
G01*
X93306900Y-116674900D02*
X93306900Y-112179100D01*
X88811100Y-116674900D02*
X93306900Y-116674900D01*
X88811100Y-112179100D02*
X88811100Y-116674900D01*
X93306900Y-112179100D02*
X88811100Y-112179100D01*
X88434000Y-116027001D02*
X88811100Y-116027001D01*
X88434000Y-116027001D02*
X88434000Y-116027001D01*
X88811100Y-116027001D02*
X88434000Y-116027001D01*
X88811100Y-116027001D02*
X88811100Y-116027001D01*
X88434000Y-112826999D02*
X88811100Y-112826999D01*
X88434000Y-112826999D02*
X88434000Y-112826999D01*
X88811100Y-112826999D02*
X88434000Y-112826999D01*
X88811100Y-112826999D02*
X88811100Y-112826999D01*
X93684000Y-112826999D02*
X93306900Y-112826999D01*
X93684000Y-112826999D02*
X93684000Y-112826999D01*
X93306900Y-112826999D02*
X93684000Y-112826999D01*
X93306900Y-112826999D02*
X93306900Y-112826999D01*
X93684000Y-116027001D02*
X93306900Y-116027001D01*
X93684000Y-116027001D02*
X93684000Y-116027001D01*
X93306900Y-116027001D02*
X93684000Y-116027001D01*
X93306900Y-116027001D02*
X93306900Y-116027001D01*
%TO.C,U_COMP_1*%
X117221000Y-103822500D02*
X117221000Y-123507500D01*
X123825000Y-103822500D02*
X117221000Y-103822500D01*
X123825000Y-123507500D02*
X123825000Y-103822500D01*
X117221000Y-123507500D02*
X123825000Y-123507500D01*
X124726700Y-105651300D02*
X123825000Y-105651300D01*
X124726700Y-106438700D02*
X124726700Y-105651300D01*
X123825000Y-106438700D02*
X124726700Y-106438700D01*
X123825000Y-105651300D02*
X123825000Y-106438700D01*
X124726700Y-108191300D02*
X123825000Y-108191300D01*
X124726700Y-108978700D02*
X124726700Y-108191300D01*
X123825000Y-108978700D02*
X124726700Y-108978700D01*
X123825000Y-108191300D02*
X123825000Y-108978700D01*
X124726700Y-110731300D02*
X123825000Y-110731300D01*
X124726700Y-111518700D02*
X124726700Y-110731300D01*
X123825000Y-111518700D02*
X124726700Y-111518700D01*
X123825000Y-110731300D02*
X123825000Y-111518700D01*
X124726700Y-113271300D02*
X123825000Y-113271300D01*
X124726700Y-114058700D02*
X124726700Y-113271300D01*
X123825000Y-114058700D02*
X124726700Y-114058700D01*
X123825000Y-113271300D02*
X123825000Y-114058700D01*
X124726700Y-115811300D02*
X123825000Y-115811300D01*
X124726700Y-116598700D02*
X124726700Y-115811300D01*
X123825000Y-116598700D02*
X124726700Y-116598700D01*
X123825000Y-115811300D02*
X123825000Y-116598700D01*
X124726700Y-118351300D02*
X123825000Y-118351300D01*
X124726700Y-119138700D02*
X124726700Y-118351300D01*
X123825000Y-119138700D02*
X124726700Y-119138700D01*
X123825000Y-118351300D02*
X123825000Y-119138700D01*
X124726700Y-120891300D02*
X123825000Y-120891300D01*
X124726700Y-121678700D02*
X124726700Y-120891300D01*
X123825000Y-121678700D02*
X124726700Y-121678700D01*
X123825000Y-120891300D02*
X123825000Y-121678700D01*
X116319300Y-121678700D02*
X117221000Y-121678700D01*
X116319300Y-120891300D02*
X116319300Y-121678700D01*
X117221000Y-120891300D02*
X116319300Y-120891300D01*
X117221000Y-121678700D02*
X117221000Y-120891300D01*
X116319300Y-119138700D02*
X117221000Y-119138700D01*
X116319300Y-118351300D02*
X116319300Y-119138700D01*
X117221000Y-118351300D02*
X116319300Y-118351300D01*
X117221000Y-119138700D02*
X117221000Y-118351300D01*
X116319300Y-116598700D02*
X117221000Y-116598700D01*
X116319300Y-115811300D02*
X116319300Y-116598700D01*
X117221000Y-115811300D02*
X116319300Y-115811300D01*
X117221000Y-116598700D02*
X117221000Y-115811300D01*
X116319300Y-114058700D02*
X117221000Y-114058700D01*
X116319300Y-113271300D02*
X116319300Y-114058700D01*
X117221000Y-113271300D02*
X116319300Y-113271300D01*
X117221000Y-114058700D02*
X117221000Y-113271300D01*
X116319300Y-111518700D02*
X117221000Y-111518700D01*
X116319300Y-110731300D02*
X116319300Y-111518700D01*
X117221000Y-110731300D02*
X116319300Y-110731300D01*
X117221000Y-111518700D02*
X117221000Y-110731300D01*
X116319300Y-108978700D02*
X117221000Y-108978700D01*
X116319300Y-108191300D02*
X116319300Y-108978700D01*
X117221000Y-108191300D02*
X116319300Y-108191300D01*
X117221000Y-108978700D02*
X117221000Y-108191300D01*
X116319300Y-106438700D02*
X117221000Y-106438700D01*
X116319300Y-105651300D02*
X116319300Y-106438700D01*
X117221000Y-105651300D02*
X116319300Y-105651300D01*
X117221000Y-106438700D02*
X117221000Y-105651300D01*
X120218200Y-103822500D02*
G75*
G03*
X120827800Y-103822500I304800J0D01*
G01*
D12*
%TO.C,U_ESP_1*%
X113775000Y-82150000D02*
X113775000Y-56645000D01*
X95775000Y-82150000D02*
X113775000Y-82150000D01*
X95775000Y-56645000D02*
X95775000Y-62370000D01*
X95775000Y-56645000D02*
X113775000Y-56645000D01*
X95775000Y-63370000D02*
X95775000Y-82150000D01*
X96275000Y-62870000D02*
X95775000Y-62370000D01*
X95775000Y-63370000D02*
X96275000Y-62870000D01*
D13*
%TO.C,U_HSCAN_1*%
X80416400Y-82321400D02*
X80416400Y-85318600D01*
X83413600Y-82321400D02*
X80416400Y-82321400D01*
X83413600Y-85318600D02*
X83413600Y-82321400D01*
X80416400Y-85318600D02*
X83413600Y-85318600D01*
X81610200Y-82321400D02*
G75*
G03*
X82219800Y-82321400I304800J0D01*
G01*
D12*
%TO.C,U_IMU_1*%
X80076000Y-74998000D02*
G75*
G03*
X80076000Y-74998000I-50000J0D01*
G01*
D14*
X82326000Y-74448000D02*
X79726000Y-74448000D01*
X82326000Y-71348000D02*
X82326000Y-74448000D01*
X79726000Y-71348000D02*
X82326000Y-71348000D01*
X79726000Y-74448000D02*
X79726000Y-71348000D01*
%TO.C,U_J1850_1*%
X88106000Y-122087000D02*
X88106000Y-127087000D01*
X84106000Y-122087000D02*
X84106000Y-127087000D01*
X84106000Y-127087000D02*
X88106000Y-127087000D01*
X84106000Y-122087000D02*
X88106000Y-122087000D01*
D15*
X81911000Y-122082000D02*
G75*
G03*
X81911000Y-122082000I-100000J0D01*
G01*
D12*
%TO.C,U_STN_1*%
X91885000Y-100632000D02*
X92885000Y-99632000D01*
X91885000Y-107632000D02*
X91885000Y-100632000D01*
X99885000Y-107632000D02*
X91885000Y-107632000D01*
X99885000Y-99632000D02*
X99885000Y-107632000D01*
X92885000Y-99632000D02*
X99885000Y-99632000D01*
D13*
%TO.C,U_VR1*%
X121945400Y-162280600D02*
X124942600Y-162280600D01*
X124942600Y-162280600D02*
X124942600Y-159283400D01*
X124942600Y-159283400D02*
X121945400Y-159283400D01*
X121945400Y-159283400D02*
X121945400Y-162280600D01*
X122478800Y-159532000D02*
G75*
G03*
X122478800Y-159532000I-76200J0D01*
G01*
X123139200Y-159283400D02*
G75*
G03*
X123748800Y-159283400I304800J0D01*
G01*
%TO.C,U_VR2*%
X75234800Y-159214500D02*
G75*
G03*
X75234800Y-159214500I-76200J0D01*
G01*
X74701400Y-158965900D02*
X74701400Y-161963100D01*
X77698600Y-158965900D02*
X74701400Y-158965900D01*
X77698600Y-161963100D02*
X77698600Y-158965900D01*
X74701400Y-161963100D02*
X77698600Y-161963100D01*
X75895200Y-158965900D02*
G75*
G03*
X76504800Y-158965900I304800J0D01*
G01*
D15*
%TO.C,Y_STN_1*%
X111985500Y-99623000D02*
G75*
G03*
X111985500Y-99623000I-100000J0D01*
G01*
D14*
X111585500Y-100350000D02*
X113585500Y-100350000D01*
X111585500Y-102850000D02*
X111585500Y-100350000D01*
X113585500Y-102850000D02*
X111585500Y-102850000D01*
X113585500Y-100350000D02*
X113585500Y-102850000D01*
%TD*%
%TO.C,J_ESP_1*%
D16*
X70572380Y-85073809D02*
X71286666Y-85073809D01*
X71429523Y-85121428D01*
X71524761Y-85216666D01*
X71572380Y-85359523D01*
X71572380Y-85454761D01*
X71667619Y-84835714D02*
X71667619Y-84073809D01*
X71048571Y-83835714D02*
X71048571Y-83502380D01*
X71572380Y-83359523D02*
X71572380Y-83835714D01*
X70572380Y-83835714D01*
X70572380Y-83359523D01*
X71524761Y-82978571D02*
X71572380Y-82835714D01*
X71572380Y-82597619D01*
X71524761Y-82502380D01*
X71477142Y-82454761D01*
X71381904Y-82407142D01*
X71286666Y-82407142D01*
X71191428Y-82454761D01*
X71143809Y-82502380D01*
X71096190Y-82597619D01*
X71048571Y-82788095D01*
X71000952Y-82883333D01*
X70953333Y-82930952D01*
X70858095Y-82978571D01*
X70762857Y-82978571D01*
X70667619Y-82930952D01*
X70620000Y-82883333D01*
X70572380Y-82788095D01*
X70572380Y-82550000D01*
X70620000Y-82407142D01*
X71572380Y-81978571D02*
X70572380Y-81978571D01*
X70572380Y-81597619D01*
X70620000Y-81502380D01*
X70667619Y-81454761D01*
X70762857Y-81407142D01*
X70905714Y-81407142D01*
X71000952Y-81454761D01*
X71048571Y-81502380D01*
X71096190Y-81597619D01*
X71096190Y-81978571D01*
X71667619Y-81216666D02*
X71667619Y-80454761D01*
X71572380Y-79692857D02*
X71572380Y-80264285D01*
X71572380Y-79978571D02*
X70572380Y-79978571D01*
X70715238Y-80073809D01*
X70810476Y-80169047D01*
X70858095Y-80264285D01*
%TO.C,D_VS_1*%
X72096380Y-135064500D02*
X72334476Y-135064500D01*
X72239238Y-135302595D02*
X72334476Y-135064500D01*
X72239238Y-134826404D01*
X72524952Y-135207357D02*
X72334476Y-135064500D01*
X72524952Y-134921642D01*
%TO.C,J_ESP_2*%
X126960380Y-85073809D02*
X127674666Y-85073809D01*
X127817523Y-85121428D01*
X127912761Y-85216666D01*
X127960380Y-85359523D01*
X127960380Y-85454761D01*
X128055619Y-84835714D02*
X128055619Y-84073809D01*
X127436571Y-83835714D02*
X127436571Y-83502380D01*
X127960380Y-83359523D02*
X127960380Y-83835714D01*
X126960380Y-83835714D01*
X126960380Y-83359523D01*
X127912761Y-82978571D02*
X127960380Y-82835714D01*
X127960380Y-82597619D01*
X127912761Y-82502380D01*
X127865142Y-82454761D01*
X127769904Y-82407142D01*
X127674666Y-82407142D01*
X127579428Y-82454761D01*
X127531809Y-82502380D01*
X127484190Y-82597619D01*
X127436571Y-82788095D01*
X127388952Y-82883333D01*
X127341333Y-82930952D01*
X127246095Y-82978571D01*
X127150857Y-82978571D01*
X127055619Y-82930952D01*
X127008000Y-82883333D01*
X126960380Y-82788095D01*
X126960380Y-82550000D01*
X127008000Y-82407142D01*
X127960380Y-81978571D02*
X126960380Y-81978571D01*
X126960380Y-81597619D01*
X127008000Y-81502380D01*
X127055619Y-81454761D01*
X127150857Y-81407142D01*
X127293714Y-81407142D01*
X127388952Y-81454761D01*
X127436571Y-81502380D01*
X127484190Y-81597619D01*
X127484190Y-81978571D01*
X128055619Y-81216666D02*
X128055619Y-80454761D01*
X127055619Y-80264285D02*
X127008000Y-80216666D01*
X126960380Y-80121428D01*
X126960380Y-79883333D01*
X127008000Y-79788095D01*
X127055619Y-79740476D01*
X127150857Y-79692857D01*
X127246095Y-79692857D01*
X127388952Y-79740476D01*
X127960380Y-80311904D01*
X127960380Y-79692857D01*
%TO.C,U_CN_1*%
X99060000Y-163536380D02*
X99060000Y-163774476D01*
X98821904Y-163679238D02*
X99060000Y-163774476D01*
X99298095Y-163679238D01*
X98917142Y-163964952D02*
X99060000Y-163774476D01*
X99202857Y-163964952D01*
%TO.C,C_PS_2*%
X122428000Y-150836380D02*
X122428000Y-151074476D01*
X122189904Y-150979238D02*
X122428000Y-151074476D01*
X122666095Y-150979238D01*
X122285142Y-151264952D02*
X122428000Y-151074476D01*
X122570857Y-151264952D01*
%TO.C,C_PS_3*%
X78356002Y-153884380D02*
X78356002Y-154122476D01*
X78117906Y-154027238D02*
X78356002Y-154122476D01*
X78594097Y-154027238D01*
X78213144Y-154312952D02*
X78356002Y-154122476D01*
X78498859Y-154312952D01*
%TO.C,C_VR1_1*%
X119086380Y-155956000D02*
X119324476Y-155956000D01*
X119229238Y-156194095D02*
X119324476Y-155956000D01*
X119229238Y-155717904D01*
X119514952Y-156098857D02*
X119324476Y-155956000D01*
X119514952Y-155813142D01*
%TO.C,C_VR2_1*%
X74382380Y-166179500D02*
X74620476Y-166179500D01*
X74525238Y-166417595D02*
X74620476Y-166179500D01*
X74525238Y-165941404D01*
X74810952Y-166322357D02*
X74620476Y-166179500D01*
X74810952Y-166036642D01*
%TO.C,CP_ESP_1*%
X88987380Y-67310000D02*
X89225476Y-67310000D01*
X89130238Y-67548095D02*
X89225476Y-67310000D01*
X89130238Y-67071904D01*
X89415952Y-67452857D02*
X89225476Y-67310000D01*
X89415952Y-67167142D01*
%TO.C,CP_STN_1*%
D17*
X86899714Y-104927119D02*
X86937809Y-104965214D01*
X86975904Y-105079500D01*
X86975904Y-105155690D01*
X86937809Y-105269976D01*
X86861619Y-105346166D01*
X86785428Y-105384261D01*
X86633047Y-105422357D01*
X86518761Y-105422357D01*
X86366380Y-105384261D01*
X86290190Y-105346166D01*
X86214000Y-105269976D01*
X86175904Y-105155690D01*
X86175904Y-105079500D01*
X86214000Y-104965214D01*
X86252095Y-104927119D01*
X86975904Y-104584261D02*
X86175904Y-104584261D01*
X86175904Y-104279500D01*
X86214000Y-104203309D01*
X86252095Y-104165214D01*
X86328285Y-104127119D01*
X86442571Y-104127119D01*
X86518761Y-104165214D01*
X86556857Y-104203309D01*
X86594952Y-104279500D01*
X86594952Y-104584261D01*
X87052095Y-103974738D02*
X87052095Y-103365214D01*
X86937809Y-103212833D02*
X86975904Y-103098547D01*
X86975904Y-102908071D01*
X86937809Y-102831880D01*
X86899714Y-102793785D01*
X86823523Y-102755690D01*
X86747333Y-102755690D01*
X86671142Y-102793785D01*
X86633047Y-102831880D01*
X86594952Y-102908071D01*
X86556857Y-103060452D01*
X86518761Y-103136642D01*
X86480666Y-103174738D01*
X86404476Y-103212833D01*
X86328285Y-103212833D01*
X86252095Y-103174738D01*
X86214000Y-103136642D01*
X86175904Y-103060452D01*
X86175904Y-102869976D01*
X86214000Y-102755690D01*
X86175904Y-102527119D02*
X86175904Y-102069976D01*
X86975904Y-102298547D02*
X86175904Y-102298547D01*
X86975904Y-101803309D02*
X86175904Y-101803309D01*
X86975904Y-101346166D01*
X86175904Y-101346166D01*
X87052095Y-101155690D02*
X87052095Y-100546166D01*
X86975904Y-99936642D02*
X86975904Y-100393785D01*
X86975904Y-100165214D02*
X86175904Y-100165214D01*
X86290190Y-100241404D01*
X86366380Y-100317595D01*
X86404476Y-100393785D01*
%TO.C,D_J1850_1*%
D16*
X112903000Y-132230880D02*
X112903000Y-132468976D01*
X112664904Y-132373738D02*
X112903000Y-132468976D01*
X113141095Y-132373738D01*
X112760142Y-132659452D02*
X112903000Y-132468976D01*
X113045857Y-132659452D01*
%TO.C,D_J1850_2*%
X117816380Y-137350500D02*
X118054476Y-137350500D01*
X117959238Y-137588595D02*
X118054476Y-137350500D01*
X117959238Y-137112404D01*
X118244952Y-137493357D02*
X118054476Y-137350500D01*
X118244952Y-137207642D01*
%TO.C,D_J1850_3*%
X117983000Y-141120880D02*
X117983000Y-141358976D01*
X117744904Y-141263738D02*
X117983000Y-141358976D01*
X118221095Y-141263738D01*
X117840142Y-141549452D02*
X117983000Y-141358976D01*
X118125857Y-141549452D01*
%TO.C,D_VS_2*%
X77978000Y-135786880D02*
X77978000Y-136024976D01*
X77739904Y-135929738D02*
X77978000Y-136024976D01*
X78216095Y-135929738D01*
X77835142Y-136215452D02*
X77978000Y-136024976D01*
X78120857Y-136215452D01*
%TO.C,J_CN_1*%
X96686952Y-145248380D02*
X96686952Y-145962666D01*
X96639333Y-146105523D01*
X96544095Y-146200761D01*
X96401238Y-146248380D01*
X96306000Y-146248380D01*
X96925047Y-146343619D02*
X97686952Y-146343619D01*
X98496476Y-146153142D02*
X98448857Y-146200761D01*
X98306000Y-146248380D01*
X98210761Y-146248380D01*
X98067904Y-146200761D01*
X97972666Y-146105523D01*
X97925047Y-146010285D01*
X97877428Y-145819809D01*
X97877428Y-145676952D01*
X97925047Y-145486476D01*
X97972666Y-145391238D01*
X98067904Y-145296000D01*
X98210761Y-145248380D01*
X98306000Y-145248380D01*
X98448857Y-145296000D01*
X98496476Y-145343619D01*
X98925047Y-146248380D02*
X98925047Y-145248380D01*
X99496476Y-146248380D01*
X99496476Y-145248380D01*
X99734571Y-146343619D02*
X100496476Y-146343619D01*
X101258380Y-146248380D02*
X100686952Y-146248380D01*
X100972666Y-146248380D02*
X100972666Y-145248380D01*
X100877428Y-145391238D01*
X100782190Y-145486476D01*
X100686952Y-145534095D01*
%TO.C,J_ESP_3*%
X100790690Y-85431380D02*
X100790690Y-86145666D01*
X100743071Y-86288523D01*
X100647833Y-86383761D01*
X100504976Y-86431380D01*
X100409738Y-86431380D01*
X101028785Y-86526619D02*
X101790690Y-86526619D01*
X102028785Y-85907571D02*
X102362119Y-85907571D01*
X102504976Y-86431380D02*
X102028785Y-86431380D01*
X102028785Y-85431380D01*
X102504976Y-85431380D01*
X102885928Y-86383761D02*
X103028785Y-86431380D01*
X103266880Y-86431380D01*
X103362119Y-86383761D01*
X103409738Y-86336142D01*
X103457357Y-86240904D01*
X103457357Y-86145666D01*
X103409738Y-86050428D01*
X103362119Y-86002809D01*
X103266880Y-85955190D01*
X103076404Y-85907571D01*
X102981166Y-85859952D01*
X102933547Y-85812333D01*
X102885928Y-85717095D01*
X102885928Y-85621857D01*
X102933547Y-85526619D01*
X102981166Y-85479000D01*
X103076404Y-85431380D01*
X103314500Y-85431380D01*
X103457357Y-85479000D01*
X103885928Y-86431380D02*
X103885928Y-85431380D01*
X104266880Y-85431380D01*
X104362119Y-85479000D01*
X104409738Y-85526619D01*
X104457357Y-85621857D01*
X104457357Y-85764714D01*
X104409738Y-85859952D01*
X104362119Y-85907571D01*
X104266880Y-85955190D01*
X103885928Y-85955190D01*
X104647833Y-86526619D02*
X105409738Y-86526619D01*
X105552595Y-85431380D02*
X106171642Y-85431380D01*
X105838309Y-85812333D01*
X105981166Y-85812333D01*
X106076404Y-85859952D01*
X106124023Y-85907571D01*
X106171642Y-86002809D01*
X106171642Y-86240904D01*
X106124023Y-86336142D01*
X106076404Y-86383761D01*
X105981166Y-86431380D01*
X105695452Y-86431380D01*
X105600214Y-86383761D01*
X105552595Y-86336142D01*
%TO.C,J_PS_1*%
X96099571Y-141628880D02*
X96099571Y-142343166D01*
X96051952Y-142486023D01*
X95956714Y-142581261D01*
X95813857Y-142628880D01*
X95718619Y-142628880D01*
X96337666Y-142724119D02*
X97099571Y-142724119D01*
X97337666Y-142628880D02*
X97337666Y-141628880D01*
X97718619Y-141628880D01*
X97813857Y-141676500D01*
X97861476Y-141724119D01*
X97909095Y-141819357D01*
X97909095Y-141962214D01*
X97861476Y-142057452D01*
X97813857Y-142105071D01*
X97718619Y-142152690D01*
X97337666Y-142152690D01*
X98290047Y-142581261D02*
X98432904Y-142628880D01*
X98671000Y-142628880D01*
X98766238Y-142581261D01*
X98813857Y-142533642D01*
X98861476Y-142438404D01*
X98861476Y-142343166D01*
X98813857Y-142247928D01*
X98766238Y-142200309D01*
X98671000Y-142152690D01*
X98480523Y-142105071D01*
X98385285Y-142057452D01*
X98337666Y-142009833D01*
X98290047Y-141914595D01*
X98290047Y-141819357D01*
X98337666Y-141724119D01*
X98385285Y-141676500D01*
X98480523Y-141628880D01*
X98718619Y-141628880D01*
X98861476Y-141676500D01*
X99051952Y-142724119D02*
X99813857Y-142724119D01*
X100575761Y-142628880D02*
X100004333Y-142628880D01*
X100290047Y-142628880D02*
X100290047Y-141628880D01*
X100194809Y-141771738D01*
X100099571Y-141866976D01*
X100004333Y-141914595D01*
%TO.C,J_STN_1*%
X90868809Y-90892380D02*
X90868809Y-91606666D01*
X90821190Y-91749523D01*
X90725952Y-91844761D01*
X90583095Y-91892380D01*
X90487857Y-91892380D01*
X91106904Y-91987619D02*
X91868809Y-91987619D01*
X92059285Y-91844761D02*
X92202142Y-91892380D01*
X92440238Y-91892380D01*
X92535476Y-91844761D01*
X92583095Y-91797142D01*
X92630714Y-91701904D01*
X92630714Y-91606666D01*
X92583095Y-91511428D01*
X92535476Y-91463809D01*
X92440238Y-91416190D01*
X92249761Y-91368571D01*
X92154523Y-91320952D01*
X92106904Y-91273333D01*
X92059285Y-91178095D01*
X92059285Y-91082857D01*
X92106904Y-90987619D01*
X92154523Y-90940000D01*
X92249761Y-90892380D01*
X92487857Y-90892380D01*
X92630714Y-90940000D01*
X92916428Y-90892380D02*
X93487857Y-90892380D01*
X93202142Y-91892380D02*
X93202142Y-90892380D01*
X93821190Y-91892380D02*
X93821190Y-90892380D01*
X94392619Y-91892380D01*
X94392619Y-90892380D01*
X94630714Y-91987619D02*
X95392619Y-91987619D01*
X96154523Y-91892380D02*
X95583095Y-91892380D01*
X95868809Y-91892380D02*
X95868809Y-90892380D01*
X95773571Y-91035238D01*
X95678333Y-91130476D01*
X95583095Y-91178095D01*
%TO.C,J_STN_2*%
X78676809Y-90701880D02*
X78676809Y-91416166D01*
X78629190Y-91559023D01*
X78533952Y-91654261D01*
X78391095Y-91701880D01*
X78295857Y-91701880D01*
X78914904Y-91797119D02*
X79676809Y-91797119D01*
X79867285Y-91654261D02*
X80010142Y-91701880D01*
X80248238Y-91701880D01*
X80343476Y-91654261D01*
X80391095Y-91606642D01*
X80438714Y-91511404D01*
X80438714Y-91416166D01*
X80391095Y-91320928D01*
X80343476Y-91273309D01*
X80248238Y-91225690D01*
X80057761Y-91178071D01*
X79962523Y-91130452D01*
X79914904Y-91082833D01*
X79867285Y-90987595D01*
X79867285Y-90892357D01*
X79914904Y-90797119D01*
X79962523Y-90749500D01*
X80057761Y-90701880D01*
X80295857Y-90701880D01*
X80438714Y-90749500D01*
X80724428Y-90701880D02*
X81295857Y-90701880D01*
X81010142Y-91701880D02*
X81010142Y-90701880D01*
X81629190Y-91701880D02*
X81629190Y-90701880D01*
X82200619Y-91701880D01*
X82200619Y-90701880D01*
X82438714Y-91797119D02*
X83200619Y-91797119D01*
X83391095Y-90797119D02*
X83438714Y-90749500D01*
X83533952Y-90701880D01*
X83772047Y-90701880D01*
X83867285Y-90749500D01*
X83914904Y-90797119D01*
X83962523Y-90892357D01*
X83962523Y-90987595D01*
X83914904Y-91130452D01*
X83343476Y-91701880D01*
X83962523Y-91701880D01*
%TO.C,J_STN_5*%
X105433880Y-107695690D02*
X106148166Y-107695690D01*
X106291023Y-107743309D01*
X106386261Y-107838547D01*
X106433880Y-107981404D01*
X106433880Y-108076642D01*
X106529119Y-107457595D02*
X106529119Y-106695690D01*
X106386261Y-106505214D02*
X106433880Y-106362357D01*
X106433880Y-106124261D01*
X106386261Y-106029023D01*
X106338642Y-105981404D01*
X106243404Y-105933785D01*
X106148166Y-105933785D01*
X106052928Y-105981404D01*
X106005309Y-106029023D01*
X105957690Y-106124261D01*
X105910071Y-106314738D01*
X105862452Y-106409976D01*
X105814833Y-106457595D01*
X105719595Y-106505214D01*
X105624357Y-106505214D01*
X105529119Y-106457595D01*
X105481500Y-106409976D01*
X105433880Y-106314738D01*
X105433880Y-106076642D01*
X105481500Y-105933785D01*
X105433880Y-105648071D02*
X105433880Y-105076642D01*
X106433880Y-105362357D02*
X105433880Y-105362357D01*
X106433880Y-104743309D02*
X105433880Y-104743309D01*
X106433880Y-104171880D01*
X105433880Y-104171880D01*
X106529119Y-103933785D02*
X106529119Y-103171880D01*
X105433880Y-102457595D02*
X105433880Y-102933785D01*
X105910071Y-102981404D01*
X105862452Y-102933785D01*
X105814833Y-102838547D01*
X105814833Y-102600452D01*
X105862452Y-102505214D01*
X105910071Y-102457595D01*
X106005309Y-102409976D01*
X106243404Y-102409976D01*
X106338642Y-102457595D01*
X106386261Y-102505214D01*
X106433880Y-102600452D01*
X106433880Y-102838547D01*
X106386261Y-102933785D01*
X106338642Y-102981404D01*
%TO.C,J_STN_6*%
X100861880Y-117411190D02*
X101576166Y-117411190D01*
X101719023Y-117458809D01*
X101814261Y-117554047D01*
X101861880Y-117696904D01*
X101861880Y-117792142D01*
X101957119Y-117173095D02*
X101957119Y-116411190D01*
X101814261Y-116220714D02*
X101861880Y-116077857D01*
X101861880Y-115839761D01*
X101814261Y-115744523D01*
X101766642Y-115696904D01*
X101671404Y-115649285D01*
X101576166Y-115649285D01*
X101480928Y-115696904D01*
X101433309Y-115744523D01*
X101385690Y-115839761D01*
X101338071Y-116030238D01*
X101290452Y-116125476D01*
X101242833Y-116173095D01*
X101147595Y-116220714D01*
X101052357Y-116220714D01*
X100957119Y-116173095D01*
X100909500Y-116125476D01*
X100861880Y-116030238D01*
X100861880Y-115792142D01*
X100909500Y-115649285D01*
X100861880Y-115363571D02*
X100861880Y-114792142D01*
X101861880Y-115077857D02*
X100861880Y-115077857D01*
X101861880Y-114458809D02*
X100861880Y-114458809D01*
X101861880Y-113887380D01*
X100861880Y-113887380D01*
X101957119Y-113649285D02*
X101957119Y-112887380D01*
X100861880Y-112220714D02*
X100861880Y-112411190D01*
X100909500Y-112506428D01*
X100957119Y-112554047D01*
X101099976Y-112649285D01*
X101290452Y-112696904D01*
X101671404Y-112696904D01*
X101766642Y-112649285D01*
X101814261Y-112601666D01*
X101861880Y-112506428D01*
X101861880Y-112315952D01*
X101814261Y-112220714D01*
X101766642Y-112173095D01*
X101671404Y-112125476D01*
X101433309Y-112125476D01*
X101338071Y-112173095D01*
X101290452Y-112220714D01*
X101242833Y-112315952D01*
X101242833Y-112506428D01*
X101290452Y-112601666D01*
X101338071Y-112649285D01*
X101433309Y-112696904D01*
%TO.C,L_VR1*%
X121920000Y-164996880D02*
X121920000Y-165234976D01*
X121681904Y-165139738D02*
X121920000Y-165234976D01*
X122158095Y-165139738D01*
X121777142Y-165425452D02*
X121920000Y-165234976D01*
X122062857Y-165425452D01*
%TO.C,L_VR2*%
X71969380Y-155257500D02*
X72207476Y-155257500D01*
X72112238Y-155495595D02*
X72207476Y-155257500D01*
X72112238Y-155019404D01*
X72397952Y-155400357D02*
X72207476Y-155257500D01*
X72397952Y-155114642D01*
%TO.C,LED_ESP_1*%
D18*
X119072190Y-83746952D02*
X118881714Y-83746952D01*
X118881714Y-83346952D01*
X119205523Y-83537428D02*
X119338857Y-83537428D01*
X119396000Y-83746952D02*
X119205523Y-83746952D01*
X119205523Y-83346952D01*
X119396000Y-83346952D01*
X119567428Y-83746952D02*
X119567428Y-83346952D01*
X119662666Y-83346952D01*
X119719809Y-83366000D01*
X119757904Y-83404095D01*
X119776952Y-83442190D01*
X119796000Y-83518380D01*
X119796000Y-83575523D01*
X119776952Y-83651714D01*
X119757904Y-83689809D01*
X119719809Y-83727904D01*
X119662666Y-83746952D01*
X119567428Y-83746952D01*
X119872190Y-83785047D02*
X120176952Y-83785047D01*
X120272190Y-83537428D02*
X120405523Y-83537428D01*
X120462666Y-83746952D02*
X120272190Y-83746952D01*
X120272190Y-83346952D01*
X120462666Y-83346952D01*
X120615047Y-83727904D02*
X120672190Y-83746952D01*
X120767428Y-83746952D01*
X120805523Y-83727904D01*
X120824571Y-83708857D01*
X120843619Y-83670761D01*
X120843619Y-83632666D01*
X120824571Y-83594571D01*
X120805523Y-83575523D01*
X120767428Y-83556476D01*
X120691238Y-83537428D01*
X120653142Y-83518380D01*
X120634095Y-83499333D01*
X120615047Y-83461238D01*
X120615047Y-83423142D01*
X120634095Y-83385047D01*
X120653142Y-83366000D01*
X120691238Y-83346952D01*
X120786476Y-83346952D01*
X120843619Y-83366000D01*
X121015047Y-83746952D02*
X121015047Y-83346952D01*
X121167428Y-83346952D01*
X121205523Y-83366000D01*
X121224571Y-83385047D01*
X121243619Y-83423142D01*
X121243619Y-83480285D01*
X121224571Y-83518380D01*
X121205523Y-83537428D01*
X121167428Y-83556476D01*
X121015047Y-83556476D01*
X121319809Y-83785047D02*
X121624571Y-83785047D01*
X121929333Y-83746952D02*
X121700761Y-83746952D01*
X121815047Y-83746952D02*
X121815047Y-83346952D01*
X121776952Y-83404095D01*
X121738857Y-83442190D01*
X121700761Y-83461238D01*
%TO.C,LED_STN_1*%
D19*
X73997547Y-110843190D02*
X73759452Y-110843190D01*
X73759452Y-110343190D01*
X74164214Y-110581285D02*
X74330880Y-110581285D01*
X74402309Y-110843190D02*
X74164214Y-110843190D01*
X74164214Y-110343190D01*
X74402309Y-110343190D01*
X74616595Y-110843190D02*
X74616595Y-110343190D01*
X74735642Y-110343190D01*
X74807071Y-110367000D01*
X74854690Y-110414619D01*
X74878500Y-110462238D01*
X74902309Y-110557476D01*
X74902309Y-110628904D01*
X74878500Y-110724142D01*
X74854690Y-110771761D01*
X74807071Y-110819380D01*
X74735642Y-110843190D01*
X74616595Y-110843190D01*
X74997547Y-110890809D02*
X75378500Y-110890809D01*
X75473738Y-110819380D02*
X75545166Y-110843190D01*
X75664214Y-110843190D01*
X75711833Y-110819380D01*
X75735642Y-110795571D01*
X75759452Y-110747952D01*
X75759452Y-110700333D01*
X75735642Y-110652714D01*
X75711833Y-110628904D01*
X75664214Y-110605095D01*
X75568976Y-110581285D01*
X75521357Y-110557476D01*
X75497547Y-110533666D01*
X75473738Y-110486047D01*
X75473738Y-110438428D01*
X75497547Y-110390809D01*
X75521357Y-110367000D01*
X75568976Y-110343190D01*
X75688023Y-110343190D01*
X75759452Y-110367000D01*
X75902309Y-110343190D02*
X76188023Y-110343190D01*
X76045166Y-110843190D02*
X76045166Y-110343190D01*
X76354690Y-110843190D02*
X76354690Y-110343190D01*
X76640404Y-110843190D01*
X76640404Y-110343190D01*
X76759452Y-110890809D02*
X77140404Y-110890809D01*
X77521357Y-110843190D02*
X77235642Y-110843190D01*
X77378500Y-110843190D02*
X77378500Y-110343190D01*
X77330880Y-110414619D01*
X77283261Y-110462238D01*
X77235642Y-110486047D01*
%TO.C,LED_STN_2*%
D18*
X74133238Y-104320952D02*
X73942761Y-104320952D01*
X73942761Y-103920952D01*
X74266571Y-104111428D02*
X74399904Y-104111428D01*
X74457047Y-104320952D02*
X74266571Y-104320952D01*
X74266571Y-103920952D01*
X74457047Y-103920952D01*
X74628476Y-104320952D02*
X74628476Y-103920952D01*
X74723714Y-103920952D01*
X74780857Y-103940000D01*
X74818952Y-103978095D01*
X74838000Y-104016190D01*
X74857047Y-104092380D01*
X74857047Y-104149523D01*
X74838000Y-104225714D01*
X74818952Y-104263809D01*
X74780857Y-104301904D01*
X74723714Y-104320952D01*
X74628476Y-104320952D01*
X74933238Y-104359047D02*
X75238000Y-104359047D01*
X75314190Y-104301904D02*
X75371333Y-104320952D01*
X75466571Y-104320952D01*
X75504666Y-104301904D01*
X75523714Y-104282857D01*
X75542761Y-104244761D01*
X75542761Y-104206666D01*
X75523714Y-104168571D01*
X75504666Y-104149523D01*
X75466571Y-104130476D01*
X75390380Y-104111428D01*
X75352285Y-104092380D01*
X75333238Y-104073333D01*
X75314190Y-104035238D01*
X75314190Y-103997142D01*
X75333238Y-103959047D01*
X75352285Y-103940000D01*
X75390380Y-103920952D01*
X75485619Y-103920952D01*
X75542761Y-103940000D01*
X75657047Y-103920952D02*
X75885619Y-103920952D01*
X75771333Y-104320952D02*
X75771333Y-103920952D01*
X76018952Y-104320952D02*
X76018952Y-103920952D01*
X76247523Y-104320952D01*
X76247523Y-103920952D01*
X76342761Y-104359047D02*
X76647523Y-104359047D01*
X76723714Y-103959047D02*
X76742761Y-103940000D01*
X76780857Y-103920952D01*
X76876095Y-103920952D01*
X76914190Y-103940000D01*
X76933238Y-103959047D01*
X76952285Y-103997142D01*
X76952285Y-104035238D01*
X76933238Y-104092380D01*
X76704666Y-104320952D01*
X76952285Y-104320952D01*
%TO.C,LED_STN_3*%
X74133238Y-107876952D02*
X73942761Y-107876952D01*
X73942761Y-107476952D01*
X74266571Y-107667428D02*
X74399904Y-107667428D01*
X74457047Y-107876952D02*
X74266571Y-107876952D01*
X74266571Y-107476952D01*
X74457047Y-107476952D01*
X74628476Y-107876952D02*
X74628476Y-107476952D01*
X74723714Y-107476952D01*
X74780857Y-107496000D01*
X74818952Y-107534095D01*
X74838000Y-107572190D01*
X74857047Y-107648380D01*
X74857047Y-107705523D01*
X74838000Y-107781714D01*
X74818952Y-107819809D01*
X74780857Y-107857904D01*
X74723714Y-107876952D01*
X74628476Y-107876952D01*
X74933238Y-107915047D02*
X75238000Y-107915047D01*
X75314190Y-107857904D02*
X75371333Y-107876952D01*
X75466571Y-107876952D01*
X75504666Y-107857904D01*
X75523714Y-107838857D01*
X75542761Y-107800761D01*
X75542761Y-107762666D01*
X75523714Y-107724571D01*
X75504666Y-107705523D01*
X75466571Y-107686476D01*
X75390380Y-107667428D01*
X75352285Y-107648380D01*
X75333238Y-107629333D01*
X75314190Y-107591238D01*
X75314190Y-107553142D01*
X75333238Y-107515047D01*
X75352285Y-107496000D01*
X75390380Y-107476952D01*
X75485619Y-107476952D01*
X75542761Y-107496000D01*
X75657047Y-107476952D02*
X75885619Y-107476952D01*
X75771333Y-107876952D02*
X75771333Y-107476952D01*
X76018952Y-107876952D02*
X76018952Y-107476952D01*
X76247523Y-107876952D01*
X76247523Y-107476952D01*
X76342761Y-107915047D02*
X76647523Y-107915047D01*
X76704666Y-107476952D02*
X76952285Y-107476952D01*
X76818952Y-107629333D01*
X76876095Y-107629333D01*
X76914190Y-107648380D01*
X76933238Y-107667428D01*
X76952285Y-107705523D01*
X76952285Y-107800761D01*
X76933238Y-107838857D01*
X76914190Y-107857904D01*
X76876095Y-107876952D01*
X76761809Y-107876952D01*
X76723714Y-107857904D01*
X76704666Y-107838857D01*
%TO.C,Q_ISO_1*%
D16*
X121412000Y-94765880D02*
X121412000Y-95003976D01*
X121173904Y-94908738D02*
X121412000Y-95003976D01*
X121650095Y-94908738D01*
X121269142Y-95194452D02*
X121412000Y-95003976D01*
X121554857Y-95194452D01*
%TO.C,Q_ISO_2*%
X121118380Y-90678000D02*
X121356476Y-90678000D01*
X121261238Y-90916095D02*
X121356476Y-90678000D01*
X121261238Y-90439904D01*
X121546952Y-90820857D02*
X121356476Y-90678000D01*
X121546952Y-90535142D01*
%TO.C,Q_ISO_3*%
D20*
X114065809Y-96361119D02*
X114042000Y-96408738D01*
X113994380Y-96456357D01*
X113922952Y-96527785D01*
X113899142Y-96575404D01*
X113899142Y-96623023D01*
X114018190Y-96599214D02*
X113994380Y-96646833D01*
X113946761Y-96694452D01*
X113851523Y-96718261D01*
X113684857Y-96718261D01*
X113589619Y-96694452D01*
X113542000Y-96646833D01*
X113518190Y-96599214D01*
X113518190Y-96503976D01*
X113542000Y-96456357D01*
X113589619Y-96408738D01*
X113684857Y-96384928D01*
X113851523Y-96384928D01*
X113946761Y-96408738D01*
X113994380Y-96456357D01*
X114018190Y-96503976D01*
X114018190Y-96599214D01*
X114065809Y-96289690D02*
X114065809Y-95908738D01*
X114018190Y-95789690D02*
X113518190Y-95789690D01*
X113994380Y-95575404D02*
X114018190Y-95503976D01*
X114018190Y-95384928D01*
X113994380Y-95337309D01*
X113970571Y-95313500D01*
X113922952Y-95289690D01*
X113875333Y-95289690D01*
X113827714Y-95313500D01*
X113803904Y-95337309D01*
X113780095Y-95384928D01*
X113756285Y-95480166D01*
X113732476Y-95527785D01*
X113708666Y-95551595D01*
X113661047Y-95575404D01*
X113613428Y-95575404D01*
X113565809Y-95551595D01*
X113542000Y-95527785D01*
X113518190Y-95480166D01*
X113518190Y-95361119D01*
X113542000Y-95289690D01*
X113518190Y-94980166D02*
X113518190Y-94884928D01*
X113542000Y-94837309D01*
X113589619Y-94789690D01*
X113684857Y-94765880D01*
X113851523Y-94765880D01*
X113946761Y-94789690D01*
X113994380Y-94837309D01*
X114018190Y-94884928D01*
X114018190Y-94980166D01*
X113994380Y-95027785D01*
X113946761Y-95075404D01*
X113851523Y-95099214D01*
X113684857Y-95099214D01*
X113589619Y-95075404D01*
X113542000Y-95027785D01*
X113518190Y-94980166D01*
X114065809Y-94670642D02*
X114065809Y-94289690D01*
X113518190Y-94218261D02*
X113518190Y-93908738D01*
X113708666Y-94075404D01*
X113708666Y-94003976D01*
X113732476Y-93956357D01*
X113756285Y-93932547D01*
X113803904Y-93908738D01*
X113922952Y-93908738D01*
X113970571Y-93932547D01*
X113994380Y-93956357D01*
X114018190Y-94003976D01*
X114018190Y-94146833D01*
X113994380Y-94194452D01*
X113970571Y-94218261D01*
%TO.C,Q_ISO_4*%
X114065809Y-91281119D02*
X114042000Y-91328738D01*
X113994380Y-91376357D01*
X113922952Y-91447785D01*
X113899142Y-91495404D01*
X113899142Y-91543023D01*
X114018190Y-91519214D02*
X113994380Y-91566833D01*
X113946761Y-91614452D01*
X113851523Y-91638261D01*
X113684857Y-91638261D01*
X113589619Y-91614452D01*
X113542000Y-91566833D01*
X113518190Y-91519214D01*
X113518190Y-91423976D01*
X113542000Y-91376357D01*
X113589619Y-91328738D01*
X113684857Y-91304928D01*
X113851523Y-91304928D01*
X113946761Y-91328738D01*
X113994380Y-91376357D01*
X114018190Y-91423976D01*
X114018190Y-91519214D01*
X114065809Y-91209690D02*
X114065809Y-90828738D01*
X114018190Y-90709690D02*
X113518190Y-90709690D01*
X113994380Y-90495404D02*
X114018190Y-90423976D01*
X114018190Y-90304928D01*
X113994380Y-90257309D01*
X113970571Y-90233500D01*
X113922952Y-90209690D01*
X113875333Y-90209690D01*
X113827714Y-90233500D01*
X113803904Y-90257309D01*
X113780095Y-90304928D01*
X113756285Y-90400166D01*
X113732476Y-90447785D01*
X113708666Y-90471595D01*
X113661047Y-90495404D01*
X113613428Y-90495404D01*
X113565809Y-90471595D01*
X113542000Y-90447785D01*
X113518190Y-90400166D01*
X113518190Y-90281119D01*
X113542000Y-90209690D01*
X113518190Y-89900166D02*
X113518190Y-89804928D01*
X113542000Y-89757309D01*
X113589619Y-89709690D01*
X113684857Y-89685880D01*
X113851523Y-89685880D01*
X113946761Y-89709690D01*
X113994380Y-89757309D01*
X114018190Y-89804928D01*
X114018190Y-89900166D01*
X113994380Y-89947785D01*
X113946761Y-89995404D01*
X113851523Y-90019214D01*
X113684857Y-90019214D01*
X113589619Y-89995404D01*
X113542000Y-89947785D01*
X113518190Y-89900166D01*
X114065809Y-89590642D02*
X114065809Y-89209690D01*
X113684857Y-88876357D02*
X114018190Y-88876357D01*
X113494380Y-88995404D02*
X113851523Y-89114452D01*
X113851523Y-88804928D01*
%TO.C,Q_J1850_3*%
D16*
X109561380Y-128206500D02*
X109799476Y-128206500D01*
X109704238Y-128444595D02*
X109799476Y-128206500D01*
X109704238Y-127968404D01*
X109989952Y-128349357D02*
X109799476Y-128206500D01*
X109989952Y-128063642D01*
%TO.C,R_ISO_1*%
X108418380Y-95590201D02*
X108656476Y-95590201D01*
X108561238Y-95828296D02*
X108656476Y-95590201D01*
X108561238Y-95352105D01*
X108846952Y-95733058D02*
X108656476Y-95590201D01*
X108846952Y-95447343D01*
%TO.C,R_ISO_2*%
X108418380Y-90170000D02*
X108656476Y-90170000D01*
X108561238Y-90408095D02*
X108656476Y-90170000D01*
X108561238Y-89931904D01*
X108846952Y-90312857D02*
X108656476Y-90170000D01*
X108846952Y-90027142D01*
%TO.C,R_STN_4*%
X90335000Y-94702380D02*
X90335000Y-94940476D01*
X90096904Y-94845238D02*
X90335000Y-94940476D01*
X90573095Y-94845238D01*
X90192142Y-95130952D02*
X90335000Y-94940476D01*
X90477857Y-95130952D01*
%TO.C,SW_ESP_1*%
X82550000Y-58507380D02*
X82550000Y-58745476D01*
X82311904Y-58650238D02*
X82550000Y-58745476D01*
X82788095Y-58650238D01*
X82407142Y-58935952D02*
X82550000Y-58745476D01*
X82692857Y-58935952D01*
%TO.C,SW_ESP_2*%
X119340380Y-74168000D02*
X119578476Y-74168000D01*
X119483238Y-74406095D02*
X119578476Y-74168000D01*
X119483238Y-73929904D01*
X119768952Y-74310857D02*
X119578476Y-74168000D01*
X119768952Y-74025142D01*
%TO.C,SW_STN_1*%
X91059000Y-113879380D02*
X91059000Y-114117476D01*
X90820904Y-114022238D02*
X91059000Y-114117476D01*
X91297095Y-114022238D01*
X90916142Y-114307952D02*
X91059000Y-114117476D01*
X91201857Y-114307952D01*
%TO.C,U_COMP_1*%
X117475000Y-105497380D02*
X117475000Y-105735476D01*
X117236904Y-105640238D02*
X117475000Y-105735476D01*
X117713095Y-105640238D01*
X117332142Y-105925952D02*
X117475000Y-105735476D01*
X117617857Y-105925952D01*
X117475000Y-105497380D02*
X117475000Y-105735476D01*
X117236904Y-105640238D02*
X117475000Y-105735476D01*
X117713095Y-105640238D01*
X117332142Y-105925952D02*
X117475000Y-105735476D01*
X117617857Y-105925952D01*
%TO.C,U_ESP_1*%
X101822619Y-71842380D02*
X101822619Y-72651904D01*
X101870238Y-72747142D01*
X101917857Y-72794761D01*
X102013095Y-72842380D01*
X102203571Y-72842380D01*
X102298809Y-72794761D01*
X102346428Y-72747142D01*
X102394047Y-72651904D01*
X102394047Y-71842380D01*
X102632142Y-72937619D02*
X103394047Y-72937619D01*
X103632142Y-72318571D02*
X103965476Y-72318571D01*
X104108333Y-72842380D02*
X103632142Y-72842380D01*
X103632142Y-71842380D01*
X104108333Y-71842380D01*
X104489285Y-72794761D02*
X104632142Y-72842380D01*
X104870238Y-72842380D01*
X104965476Y-72794761D01*
X105013095Y-72747142D01*
X105060714Y-72651904D01*
X105060714Y-72556666D01*
X105013095Y-72461428D01*
X104965476Y-72413809D01*
X104870238Y-72366190D01*
X104679761Y-72318571D01*
X104584523Y-72270952D01*
X104536904Y-72223333D01*
X104489285Y-72128095D01*
X104489285Y-72032857D01*
X104536904Y-71937619D01*
X104584523Y-71890000D01*
X104679761Y-71842380D01*
X104917857Y-71842380D01*
X105060714Y-71890000D01*
X105489285Y-72842380D02*
X105489285Y-71842380D01*
X105870238Y-71842380D01*
X105965476Y-71890000D01*
X106013095Y-71937619D01*
X106060714Y-72032857D01*
X106060714Y-72175714D01*
X106013095Y-72270952D01*
X105965476Y-72318571D01*
X105870238Y-72366190D01*
X105489285Y-72366190D01*
X106251190Y-72937619D02*
X107013095Y-72937619D01*
X107775000Y-72842380D02*
X107203571Y-72842380D01*
X107489285Y-72842380D02*
X107489285Y-71842380D01*
X107394047Y-71985238D01*
X107298809Y-72080476D01*
X107203571Y-72128095D01*
%TO.C,U_HSCAN_1*%
X81915000Y-83272380D02*
X81915000Y-83510476D01*
X81676904Y-83415238D02*
X81915000Y-83510476D01*
X82153095Y-83415238D01*
X81772142Y-83700952D02*
X81915000Y-83510476D01*
X82057857Y-83700952D01*
%TO.C,U_STN_1*%
X92980238Y-103084380D02*
X92980238Y-103893904D01*
X93027857Y-103989142D01*
X93075476Y-104036761D01*
X93170714Y-104084380D01*
X93361190Y-104084380D01*
X93456428Y-104036761D01*
X93504047Y-103989142D01*
X93551666Y-103893904D01*
X93551666Y-103084380D01*
X93789761Y-104179619D02*
X94551666Y-104179619D01*
X94742142Y-104036761D02*
X94885000Y-104084380D01*
X95123095Y-104084380D01*
X95218333Y-104036761D01*
X95265952Y-103989142D01*
X95313571Y-103893904D01*
X95313571Y-103798666D01*
X95265952Y-103703428D01*
X95218333Y-103655809D01*
X95123095Y-103608190D01*
X94932619Y-103560571D01*
X94837380Y-103512952D01*
X94789761Y-103465333D01*
X94742142Y-103370095D01*
X94742142Y-103274857D01*
X94789761Y-103179619D01*
X94837380Y-103132000D01*
X94932619Y-103084380D01*
X95170714Y-103084380D01*
X95313571Y-103132000D01*
X95599285Y-103084380D02*
X96170714Y-103084380D01*
X95885000Y-104084380D02*
X95885000Y-103084380D01*
X96504047Y-104084380D02*
X96504047Y-103084380D01*
X97075476Y-104084380D01*
X97075476Y-103084380D01*
X97313571Y-104179619D02*
X98075476Y-104179619D01*
X98837380Y-104084380D02*
X98265952Y-104084380D01*
X98551666Y-104084380D02*
X98551666Y-103084380D01*
X98456428Y-103227238D01*
X98361190Y-103322476D01*
X98265952Y-103370095D01*
%TO.C,U_VR1*%
X123444000Y-160234380D02*
X123444000Y-160472476D01*
X123205904Y-160377238D02*
X123444000Y-160472476D01*
X123682095Y-160377238D01*
X123301142Y-160662952D02*
X123444000Y-160472476D01*
X123586857Y-160662952D01*
%TO.C,U_VR2*%
X76200000Y-159916880D02*
X76200000Y-160154976D01*
X75961904Y-160059738D02*
X76200000Y-160154976D01*
X76438095Y-160059738D01*
X76057142Y-160345452D02*
X76200000Y-160154976D01*
X76342857Y-160345452D01*
%TD*%
M02*
