%TF.GenerationSoftware,KiCad,Pcbnew,(5.1.7)-1*%
%TF.CreationDate,2020-10-25T19:47:16-07:00*%
%TF.ProjectId,Reader,52656164-6572-42e6-9b69-6361645f7063,0.0.01*%
%TF.SameCoordinates,Original*%
%TF.FileFunction,Soldermask,Top*%
%TF.FilePolarity,Negative*%
%FSLAX46Y46*%
G04 Gerber Fmt 4.6, Leading zero omitted, Abs format (unit mm)*
G04 Created by KiCad (PCBNEW (5.1.7)-1) date 2020-10-25 19:47:16*
%MOMM*%
%LPD*%
G01*
G04 APERTURE LIST*
%ADD10C,0.100000*%
%ADD11C,0.150000*%
%ADD12C,0.300000*%
%ADD13C,0.400000*%
%ADD14R,0.600000X1.230000*%
%ADD15R,0.568000X0.903199*%
%ADD16R,0.600000X1.000000*%
%ADD17R,1.100000X1.000000*%
%ADD18C,1.117600*%
%ADD19R,1.799996X1.299998*%
%ADD20R,1.160000X1.470000*%
%ADD21R,1.470000X1.160000*%
%ADD22R,0.540000X0.600000*%
%ADD23R,1.299998X1.799996*%
%ADD24R,1.000000X1.100000*%
%ADD25C,1.549400*%
%ADD26C,3.302000*%
%ADD27O,1.600000X1.600000*%
%ADD28R,1.600000X1.600000*%
%ADD29C,2.032000*%
%ADD30R,1.003300X0.990600*%
%ADD31R,1.000000X0.600000*%
%ADD32R,0.568000X1.309599*%
%ADD33R,0.900000X0.800000*%
%ADD34R,0.568000X1.004799*%
%ADD35R,0.790000X0.930000*%
%ADD36R,1.080000X1.680000*%
%ADD37R,0.700000X0.800000*%
%ADD38R,1.040000X1.380000*%
%ADD39R,1.040000X1.020000*%
%ADD40R,0.930000X0.790000*%
%ADD41R,0.560000X0.600000*%
%ADD42R,0.400000X0.380000*%
%ADD43R,1.680000X1.080000*%
%ADD44R,1.549400X0.990600*%
%ADD45R,1.295400X1.295400*%
%ADD46C,1.295400*%
%ADD47R,1.600200X2.413000*%
%ADD48R,0.858799X0.305600*%
%ADD49R,1.670000X0.600000*%
%ADD50R,0.600000X0.350000*%
%ADD51R,0.350000X0.600000*%
%ADD52R,6.450000X6.450000*%
%ADD53R,1.327899X0.507200*%
%ADD54R,0.757199X0.254800*%
%ADD55R,1.803400X2.590800*%
%ADD56R,1.100000X0.900000*%
G04 APERTURE END LIST*
D10*
D11*
X159400000Y-171900000D02*
X159400000Y-203900000D01*
X267400000Y-203900000D01*
X267400000Y-171900000D01*
X159400000Y-171900000D01*
D10*
D11*
X10000000Y-10000000D02*
X10000000Y-205900000D01*
X269400000Y-205900000D01*
X269400000Y-10000000D01*
X10000000Y-10000000D01*
D10*
D11*
X12000000Y-12000000D02*
X12000000Y-203900000D01*
X267400000Y-203900000D01*
X267400000Y-12000000D01*
X12000000Y-12000000D01*
D10*
D11*
X60000000Y-12000000D02*
X60000000Y-10000000D01*
D10*
D11*
X110000000Y-12000000D02*
X110000000Y-10000000D01*
D10*
D11*
X160000000Y-12000000D02*
X160000000Y-10000000D01*
D10*
D11*
X210000000Y-12000000D02*
X210000000Y-10000000D01*
D10*
D11*
X260000000Y-12000000D02*
X260000000Y-10000000D01*
D10*
D11*
X36065476Y-11588095D02*
X35322619Y-11588095D01*
X35694047Y-11588095D02*
X35694047Y-10288095D01*
X35570238Y-10473809D01*
X35446428Y-10597619D01*
X35322619Y-10659523D01*
D10*
D11*
X85322619Y-10411904D02*
X85384523Y-10350000D01*
X85508333Y-10288095D01*
X85817857Y-10288095D01*
X85941666Y-10350000D01*
X86003571Y-10411904D01*
X86065476Y-10535714D01*
X86065476Y-10659523D01*
X86003571Y-10845238D01*
X85260714Y-11588095D01*
X86065476Y-11588095D01*
D10*
D11*
X135260714Y-10288095D02*
X136065476Y-10288095D01*
X135632142Y-10783333D01*
X135817857Y-10783333D01*
X135941666Y-10845238D01*
X136003571Y-10907142D01*
X136065476Y-11030952D01*
X136065476Y-11340476D01*
X136003571Y-11464285D01*
X135941666Y-11526190D01*
X135817857Y-11588095D01*
X135446428Y-11588095D01*
X135322619Y-11526190D01*
X135260714Y-11464285D01*
D10*
D11*
X185941666Y-10721428D02*
X185941666Y-11588095D01*
X185632142Y-10226190D02*
X185322619Y-11154761D01*
X186127380Y-11154761D01*
D10*
D11*
X236003571Y-10288095D02*
X235384523Y-10288095D01*
X235322619Y-10907142D01*
X235384523Y-10845238D01*
X235508333Y-10783333D01*
X235817857Y-10783333D01*
X235941666Y-10845238D01*
X236003571Y-10907142D01*
X236065476Y-11030952D01*
X236065476Y-11340476D01*
X236003571Y-11464285D01*
X235941666Y-11526190D01*
X235817857Y-11588095D01*
X235508333Y-11588095D01*
X235384523Y-11526190D01*
X235322619Y-11464285D01*
D10*
D11*
X60000000Y-203900000D02*
X60000000Y-205900000D01*
D10*
D11*
X110000000Y-203900000D02*
X110000000Y-205900000D01*
D10*
D11*
X160000000Y-203900000D02*
X160000000Y-205900000D01*
D10*
D11*
X210000000Y-203900000D02*
X210000000Y-205900000D01*
D10*
D11*
X260000000Y-203900000D02*
X260000000Y-205900000D01*
D10*
D11*
X36065476Y-205488095D02*
X35322619Y-205488095D01*
X35694047Y-205488095D02*
X35694047Y-204188095D01*
X35570238Y-204373809D01*
X35446428Y-204497619D01*
X35322619Y-204559523D01*
D10*
D11*
X85322619Y-204311904D02*
X85384523Y-204250000D01*
X85508333Y-204188095D01*
X85817857Y-204188095D01*
X85941666Y-204250000D01*
X86003571Y-204311904D01*
X86065476Y-204435714D01*
X86065476Y-204559523D01*
X86003571Y-204745238D01*
X85260714Y-205488095D01*
X86065476Y-205488095D01*
D10*
D11*
X135260714Y-204188095D02*
X136065476Y-204188095D01*
X135632142Y-204683333D01*
X135817857Y-204683333D01*
X135941666Y-204745238D01*
X136003571Y-204807142D01*
X136065476Y-204930952D01*
X136065476Y-205240476D01*
X136003571Y-205364285D01*
X135941666Y-205426190D01*
X135817857Y-205488095D01*
X135446428Y-205488095D01*
X135322619Y-205426190D01*
X135260714Y-205364285D01*
D10*
D11*
X185941666Y-204621428D02*
X185941666Y-205488095D01*
X185632142Y-204126190D02*
X185322619Y-205054761D01*
X186127380Y-205054761D01*
D10*
D11*
X236003571Y-204188095D02*
X235384523Y-204188095D01*
X235322619Y-204807142D01*
X235384523Y-204745238D01*
X235508333Y-204683333D01*
X235817857Y-204683333D01*
X235941666Y-204745238D01*
X236003571Y-204807142D01*
X236065476Y-204930952D01*
X236065476Y-205240476D01*
X236003571Y-205364285D01*
X235941666Y-205426190D01*
X235817857Y-205488095D01*
X235508333Y-205488095D01*
X235384523Y-205426190D01*
X235322619Y-205364285D01*
D10*
D11*
X10000000Y-60000000D02*
X12000000Y-60000000D01*
D10*
D11*
X10000000Y-110000000D02*
X12000000Y-110000000D01*
D10*
D11*
X10000000Y-160000000D02*
X12000000Y-160000000D01*
D10*
D11*
X10690476Y-35216666D02*
X11309523Y-35216666D01*
X10566666Y-35588095D02*
X11000000Y-34288095D01*
X11433333Y-35588095D01*
D10*
D11*
X11092857Y-84907142D02*
X11278571Y-84969047D01*
X11340476Y-85030952D01*
X11402380Y-85154761D01*
X11402380Y-85340476D01*
X11340476Y-85464285D01*
X11278571Y-85526190D01*
X11154761Y-85588095D01*
X10659523Y-85588095D01*
X10659523Y-84288095D01*
X11092857Y-84288095D01*
X11216666Y-84350000D01*
X11278571Y-84411904D01*
X11340476Y-84535714D01*
X11340476Y-84659523D01*
X11278571Y-84783333D01*
X11216666Y-84845238D01*
X11092857Y-84907142D01*
X10659523Y-84907142D01*
D10*
D11*
X11402380Y-135464285D02*
X11340476Y-135526190D01*
X11154761Y-135588095D01*
X11030952Y-135588095D01*
X10845238Y-135526190D01*
X10721428Y-135402380D01*
X10659523Y-135278571D01*
X10597619Y-135030952D01*
X10597619Y-134845238D01*
X10659523Y-134597619D01*
X10721428Y-134473809D01*
X10845238Y-134350000D01*
X11030952Y-134288095D01*
X11154761Y-134288095D01*
X11340476Y-134350000D01*
X11402380Y-134411904D01*
D10*
D11*
X10659523Y-185588095D02*
X10659523Y-184288095D01*
X10969047Y-184288095D01*
X11154761Y-184350000D01*
X11278571Y-184473809D01*
X11340476Y-184597619D01*
X11402380Y-184845238D01*
X11402380Y-185030952D01*
X11340476Y-185278571D01*
X11278571Y-185402380D01*
X11154761Y-185526190D01*
X10969047Y-185588095D01*
X10659523Y-185588095D01*
D10*
D11*
X269400000Y-60000000D02*
X267400000Y-60000000D01*
D10*
D11*
X269400000Y-110000000D02*
X267400000Y-110000000D01*
D10*
D11*
X269400000Y-160000000D02*
X267400000Y-160000000D01*
D10*
D11*
X268090476Y-35216666D02*
X268709523Y-35216666D01*
X267966666Y-35588095D02*
X268400000Y-34288095D01*
X268833333Y-35588095D01*
D10*
D11*
X268492857Y-84907142D02*
X268678571Y-84969047D01*
X268740476Y-85030952D01*
X268802380Y-85154761D01*
X268802380Y-85340476D01*
X268740476Y-85464285D01*
X268678571Y-85526190D01*
X268554761Y-85588095D01*
X268059523Y-85588095D01*
X268059523Y-84288095D01*
X268492857Y-84288095D01*
X268616666Y-84350000D01*
X268678571Y-84411904D01*
X268740476Y-84535714D01*
X268740476Y-84659523D01*
X268678571Y-84783333D01*
X268616666Y-84845238D01*
X268492857Y-84907142D01*
X268059523Y-84907142D01*
D10*
D11*
X268802380Y-135464285D02*
X268740476Y-135526190D01*
X268554761Y-135588095D01*
X268430952Y-135588095D01*
X268245238Y-135526190D01*
X268121428Y-135402380D01*
X268059523Y-135278571D01*
X267997619Y-135030952D01*
X267997619Y-134845238D01*
X268059523Y-134597619D01*
X268121428Y-134473809D01*
X268245238Y-134350000D01*
X268430952Y-134288095D01*
X268554761Y-134288095D01*
X268740476Y-134350000D01*
X268802380Y-134411904D01*
D10*
D11*
X268059523Y-185588095D02*
X268059523Y-184288095D01*
X268369047Y-184288095D01*
X268554761Y-184350000D01*
X268678571Y-184473809D01*
X268740476Y-184597619D01*
X268802380Y-184845238D01*
X268802380Y-185030952D01*
X268740476Y-185278571D01*
X268678571Y-185402380D01*
X268554761Y-185526190D01*
X268369047Y-185588095D01*
X268059523Y-185588095D01*
D10*
D11*
X182832142Y-199678571D02*
X182832142Y-198178571D01*
X183189285Y-198178571D01*
X183403571Y-198250000D01*
X183546428Y-198392857D01*
X183617857Y-198535714D01*
X183689285Y-198821428D01*
X183689285Y-199035714D01*
X183617857Y-199321428D01*
X183546428Y-199464285D01*
X183403571Y-199607142D01*
X183189285Y-199678571D01*
X182832142Y-199678571D01*
X184975000Y-199678571D02*
X184975000Y-198892857D01*
X184903571Y-198750000D01*
X184760714Y-198678571D01*
X184475000Y-198678571D01*
X184332142Y-198750000D01*
X184975000Y-199607142D02*
X184832142Y-199678571D01*
X184475000Y-199678571D01*
X184332142Y-199607142D01*
X184260714Y-199464285D01*
X184260714Y-199321428D01*
X184332142Y-199178571D01*
X184475000Y-199107142D01*
X184832142Y-199107142D01*
X184975000Y-199035714D01*
X185475000Y-198678571D02*
X186046428Y-198678571D01*
X185689285Y-198178571D02*
X185689285Y-199464285D01*
X185760714Y-199607142D01*
X185903571Y-199678571D01*
X186046428Y-199678571D01*
X187117857Y-199607142D02*
X186975000Y-199678571D01*
X186689285Y-199678571D01*
X186546428Y-199607142D01*
X186475000Y-199464285D01*
X186475000Y-198892857D01*
X186546428Y-198750000D01*
X186689285Y-198678571D01*
X186975000Y-198678571D01*
X187117857Y-198750000D01*
X187189285Y-198892857D01*
X187189285Y-199035714D01*
X186475000Y-199178571D01*
X187832142Y-199535714D02*
X187903571Y-199607142D01*
X187832142Y-199678571D01*
X187760714Y-199607142D01*
X187832142Y-199535714D01*
X187832142Y-199678571D01*
X187832142Y-198750000D02*
X187903571Y-198821428D01*
X187832142Y-198892857D01*
X187760714Y-198821428D01*
X187832142Y-198750000D01*
X187832142Y-198892857D01*
X189617857Y-198321428D02*
X189689285Y-198250000D01*
X189832142Y-198178571D01*
X190189285Y-198178571D01*
X190332142Y-198250000D01*
X190403571Y-198321428D01*
X190475000Y-198464285D01*
X190475000Y-198607142D01*
X190403571Y-198821428D01*
X189546428Y-199678571D01*
X190475000Y-199678571D01*
X191403571Y-198178571D02*
X191546428Y-198178571D01*
X191689285Y-198250000D01*
X191760714Y-198321428D01*
X191832142Y-198464285D01*
X191903571Y-198750000D01*
X191903571Y-199107142D01*
X191832142Y-199392857D01*
X191760714Y-199535714D01*
X191689285Y-199607142D01*
X191546428Y-199678571D01*
X191403571Y-199678571D01*
X191260714Y-199607142D01*
X191189285Y-199535714D01*
X191117857Y-199392857D01*
X191046428Y-199107142D01*
X191046428Y-198750000D01*
X191117857Y-198464285D01*
X191189285Y-198321428D01*
X191260714Y-198250000D01*
X191403571Y-198178571D01*
X192475000Y-198321428D02*
X192546428Y-198250000D01*
X192689285Y-198178571D01*
X193046428Y-198178571D01*
X193189285Y-198250000D01*
X193260714Y-198321428D01*
X193332142Y-198464285D01*
X193332142Y-198607142D01*
X193260714Y-198821428D01*
X192403571Y-199678571D01*
X193332142Y-199678571D01*
X194260714Y-198178571D02*
X194403571Y-198178571D01*
X194546428Y-198250000D01*
X194617857Y-198321428D01*
X194689285Y-198464285D01*
X194760714Y-198750000D01*
X194760714Y-199107142D01*
X194689285Y-199392857D01*
X194617857Y-199535714D01*
X194546428Y-199607142D01*
X194403571Y-199678571D01*
X194260714Y-199678571D01*
X194117857Y-199607142D01*
X194046428Y-199535714D01*
X193975000Y-199392857D01*
X193903571Y-199107142D01*
X193903571Y-198750000D01*
X193975000Y-198464285D01*
X194046428Y-198321428D01*
X194117857Y-198250000D01*
X194260714Y-198178571D01*
X195403571Y-199107142D02*
X196546428Y-199107142D01*
X198046428Y-199678571D02*
X197189285Y-199678571D01*
X197617857Y-199678571D02*
X197617857Y-198178571D01*
X197475000Y-198392857D01*
X197332142Y-198535714D01*
X197189285Y-198607142D01*
X198975000Y-198178571D02*
X199117857Y-198178571D01*
X199260714Y-198250000D01*
X199332142Y-198321428D01*
X199403571Y-198464285D01*
X199475000Y-198750000D01*
X199475000Y-199107142D01*
X199403571Y-199392857D01*
X199332142Y-199535714D01*
X199260714Y-199607142D01*
X199117857Y-199678571D01*
X198975000Y-199678571D01*
X198832142Y-199607142D01*
X198760714Y-199535714D01*
X198689285Y-199392857D01*
X198617857Y-199107142D01*
X198617857Y-198750000D01*
X198689285Y-198464285D01*
X198760714Y-198321428D01*
X198832142Y-198250000D01*
X198975000Y-198178571D01*
X200117857Y-199107142D02*
X201260714Y-199107142D01*
X201903571Y-198321428D02*
X201975000Y-198250000D01*
X202117857Y-198178571D01*
X202475000Y-198178571D01*
X202617857Y-198250000D01*
X202689285Y-198321428D01*
X202760714Y-198464285D01*
X202760714Y-198607142D01*
X202689285Y-198821428D01*
X201832142Y-199678571D01*
X202760714Y-199678571D01*
X204117857Y-198178571D02*
X203403571Y-198178571D01*
X203332142Y-198892857D01*
X203403571Y-198821428D01*
X203546428Y-198750000D01*
X203903571Y-198750000D01*
X204046428Y-198821428D01*
X204117857Y-198892857D01*
X204189285Y-199035714D01*
X204189285Y-199392857D01*
X204117857Y-199535714D01*
X204046428Y-199607142D01*
X203903571Y-199678571D01*
X203546428Y-199678571D01*
X203403571Y-199607142D01*
X203332142Y-199535714D01*
D10*
D11*
X159400000Y-200400000D02*
X267400000Y-200400000D01*
D10*
D11*
X160832142Y-202478571D02*
X160832142Y-200978571D01*
X161689285Y-202478571D02*
X161046428Y-201621428D01*
X161689285Y-200978571D02*
X160832142Y-201835714D01*
X162332142Y-202478571D02*
X162332142Y-201478571D01*
X162332142Y-200978571D02*
X162260714Y-201050000D01*
X162332142Y-201121428D01*
X162403571Y-201050000D01*
X162332142Y-200978571D01*
X162332142Y-201121428D01*
X163903571Y-202335714D02*
X163832142Y-202407142D01*
X163617857Y-202478571D01*
X163475000Y-202478571D01*
X163260714Y-202407142D01*
X163117857Y-202264285D01*
X163046428Y-202121428D01*
X162975000Y-201835714D01*
X162975000Y-201621428D01*
X163046428Y-201335714D01*
X163117857Y-201192857D01*
X163260714Y-201050000D01*
X163475000Y-200978571D01*
X163617857Y-200978571D01*
X163832142Y-201050000D01*
X163903571Y-201121428D01*
X165189285Y-202478571D02*
X165189285Y-201692857D01*
X165117857Y-201550000D01*
X164975000Y-201478571D01*
X164689285Y-201478571D01*
X164546428Y-201550000D01*
X165189285Y-202407142D02*
X165046428Y-202478571D01*
X164689285Y-202478571D01*
X164546428Y-202407142D01*
X164475000Y-202264285D01*
X164475000Y-202121428D01*
X164546428Y-201978571D01*
X164689285Y-201907142D01*
X165046428Y-201907142D01*
X165189285Y-201835714D01*
X166546428Y-202478571D02*
X166546428Y-200978571D01*
X166546428Y-202407142D02*
X166403571Y-202478571D01*
X166117857Y-202478571D01*
X165975000Y-202407142D01*
X165903571Y-202335714D01*
X165832142Y-202192857D01*
X165832142Y-201764285D01*
X165903571Y-201621428D01*
X165975000Y-201550000D01*
X166117857Y-201478571D01*
X166403571Y-201478571D01*
X166546428Y-201550000D01*
X168403571Y-201692857D02*
X168903571Y-201692857D01*
X169117857Y-202478571D02*
X168403571Y-202478571D01*
X168403571Y-200978571D01*
X169117857Y-200978571D01*
X169760714Y-202335714D02*
X169832142Y-202407142D01*
X169760714Y-202478571D01*
X169689285Y-202407142D01*
X169760714Y-202335714D01*
X169760714Y-202478571D01*
X170475000Y-202478571D02*
X170475000Y-200978571D01*
X170832142Y-200978571D01*
X171046428Y-201050000D01*
X171189285Y-201192857D01*
X171260714Y-201335714D01*
X171332142Y-201621428D01*
X171332142Y-201835714D01*
X171260714Y-202121428D01*
X171189285Y-202264285D01*
X171046428Y-202407142D01*
X170832142Y-202478571D01*
X170475000Y-202478571D01*
X171975000Y-202335714D02*
X172046428Y-202407142D01*
X171975000Y-202478571D01*
X171903571Y-202407142D01*
X171975000Y-202335714D01*
X171975000Y-202478571D01*
X172617857Y-202050000D02*
X173332142Y-202050000D01*
X172475000Y-202478571D02*
X172975000Y-200978571D01*
X173475000Y-202478571D01*
X173975000Y-202335714D02*
X174046428Y-202407142D01*
X173975000Y-202478571D01*
X173903571Y-202407142D01*
X173975000Y-202335714D01*
X173975000Y-202478571D01*
X176975000Y-202478571D02*
X176975000Y-200978571D01*
X177117857Y-201907142D02*
X177546428Y-202478571D01*
X177546428Y-201478571D02*
X176975000Y-202050000D01*
X178189285Y-202478571D02*
X178189285Y-201478571D01*
X178189285Y-200978571D02*
X178117857Y-201050000D01*
X178189285Y-201121428D01*
X178260714Y-201050000D01*
X178189285Y-200978571D01*
X178189285Y-201121428D01*
X179546428Y-202407142D02*
X179403571Y-202478571D01*
X179117857Y-202478571D01*
X178975000Y-202407142D01*
X178903571Y-202335714D01*
X178832142Y-202192857D01*
X178832142Y-201764285D01*
X178903571Y-201621428D01*
X178975000Y-201550000D01*
X179117857Y-201478571D01*
X179403571Y-201478571D01*
X179546428Y-201550000D01*
X180832142Y-202478571D02*
X180832142Y-201692857D01*
X180760714Y-201550000D01*
X180617857Y-201478571D01*
X180332142Y-201478571D01*
X180189285Y-201550000D01*
X180832142Y-202407142D02*
X180689285Y-202478571D01*
X180332142Y-202478571D01*
X180189285Y-202407142D01*
X180117857Y-202264285D01*
X180117857Y-202121428D01*
X180189285Y-201978571D01*
X180332142Y-201907142D01*
X180689285Y-201907142D01*
X180832142Y-201835714D01*
X182189285Y-202478571D02*
X182189285Y-200978571D01*
X182189285Y-202407142D02*
X182046428Y-202478571D01*
X181760714Y-202478571D01*
X181617857Y-202407142D01*
X181546428Y-202335714D01*
X181475000Y-202192857D01*
X181475000Y-201764285D01*
X181546428Y-201621428D01*
X181617857Y-201550000D01*
X181760714Y-201478571D01*
X182046428Y-201478571D01*
X182189285Y-201550000D01*
X184475000Y-203050000D02*
X184403571Y-202978571D01*
X184260714Y-202764285D01*
X184189285Y-202621428D01*
X184117857Y-202407142D01*
X184046428Y-202050000D01*
X184046428Y-201764285D01*
X184117857Y-201407142D01*
X184189285Y-201192857D01*
X184260714Y-201050000D01*
X184403571Y-200835714D01*
X184475000Y-200764285D01*
X185760714Y-200978571D02*
X185046428Y-200978571D01*
X184975000Y-201692857D01*
X185046428Y-201621428D01*
X185189285Y-201550000D01*
X185546428Y-201550000D01*
X185689285Y-201621428D01*
X185760714Y-201692857D01*
X185832142Y-201835714D01*
X185832142Y-202192857D01*
X185760714Y-202335714D01*
X185689285Y-202407142D01*
X185546428Y-202478571D01*
X185189285Y-202478571D01*
X185046428Y-202407142D01*
X184975000Y-202335714D01*
X186475000Y-202335714D02*
X186546428Y-202407142D01*
X186475000Y-202478571D01*
X186403571Y-202407142D01*
X186475000Y-202335714D01*
X186475000Y-202478571D01*
X187975000Y-202478571D02*
X187117857Y-202478571D01*
X187546428Y-202478571D02*
X187546428Y-200978571D01*
X187403571Y-201192857D01*
X187260714Y-201335714D01*
X187117857Y-201407142D01*
X188617857Y-202335714D02*
X188689285Y-202407142D01*
X188617857Y-202478571D01*
X188546428Y-202407142D01*
X188617857Y-202335714D01*
X188617857Y-202478571D01*
X189189285Y-200978571D02*
X190189285Y-200978571D01*
X189546428Y-202478571D01*
X190617857Y-203050000D02*
X190689285Y-202978571D01*
X190832142Y-202764285D01*
X190903571Y-202621428D01*
X190975000Y-202407142D01*
X191046428Y-202050000D01*
X191046428Y-201764285D01*
X190975000Y-201407142D01*
X190903571Y-201192857D01*
X190832142Y-201050000D01*
X190689285Y-200835714D01*
X190617857Y-200764285D01*
X191760714Y-201907142D02*
X192903571Y-201907142D01*
X194403571Y-202478571D02*
X193546428Y-202478571D01*
X193975000Y-202478571D02*
X193975000Y-200978571D01*
X193832142Y-201192857D01*
X193689285Y-201335714D01*
X193546428Y-201407142D01*
D10*
D11*
X159400000Y-197400000D02*
X267400000Y-197400000D01*
D10*
D12*
X246809285Y-199678571D02*
X246309285Y-198964285D01*
X245952142Y-199678571D02*
X245952142Y-198178571D01*
X246523571Y-198178571D01*
X246666428Y-198250000D01*
X246737857Y-198321428D01*
X246809285Y-198464285D01*
X246809285Y-198678571D01*
X246737857Y-198821428D01*
X246666428Y-198892857D01*
X246523571Y-198964285D01*
X245952142Y-198964285D01*
X248023571Y-199607142D02*
X247880714Y-199678571D01*
X247595000Y-199678571D01*
X247452142Y-199607142D01*
X247380714Y-199464285D01*
X247380714Y-198892857D01*
X247452142Y-198750000D01*
X247595000Y-198678571D01*
X247880714Y-198678571D01*
X248023571Y-198750000D01*
X248095000Y-198892857D01*
X248095000Y-199035714D01*
X247380714Y-199178571D01*
X248595000Y-198678571D02*
X248952142Y-199678571D01*
X249309285Y-198678571D01*
X249880714Y-199535714D02*
X249952142Y-199607142D01*
X249880714Y-199678571D01*
X249809285Y-199607142D01*
X249880714Y-199535714D01*
X249880714Y-199678571D01*
X249880714Y-198750000D02*
X249952142Y-198821428D01*
X249880714Y-198892857D01*
X249809285Y-198821428D01*
X249880714Y-198750000D01*
X249880714Y-198892857D01*
X252023571Y-198178571D02*
X252166428Y-198178571D01*
X252309285Y-198250000D01*
X252380714Y-198321428D01*
X252452142Y-198464285D01*
X252523571Y-198750000D01*
X252523571Y-199107142D01*
X252452142Y-199392857D01*
X252380714Y-199535714D01*
X252309285Y-199607142D01*
X252166428Y-199678571D01*
X252023571Y-199678571D01*
X251880714Y-199607142D01*
X251809285Y-199535714D01*
X251737857Y-199392857D01*
X251666428Y-199107142D01*
X251666428Y-198750000D01*
X251737857Y-198464285D01*
X251809285Y-198321428D01*
X251880714Y-198250000D01*
X252023571Y-198178571D01*
X253166428Y-199535714D02*
X253237857Y-199607142D01*
X253166428Y-199678571D01*
X253095000Y-199607142D01*
X253166428Y-199535714D01*
X253166428Y-199678571D01*
X254166428Y-198178571D02*
X254309285Y-198178571D01*
X254452142Y-198250000D01*
X254523571Y-198321428D01*
X254595000Y-198464285D01*
X254666428Y-198750000D01*
X254666428Y-199107142D01*
X254595000Y-199392857D01*
X254523571Y-199535714D01*
X254452142Y-199607142D01*
X254309285Y-199678571D01*
X254166428Y-199678571D01*
X254023571Y-199607142D01*
X253952142Y-199535714D01*
X253880714Y-199392857D01*
X253809285Y-199107142D01*
X253809285Y-198750000D01*
X253880714Y-198464285D01*
X253952142Y-198321428D01*
X254023571Y-198250000D01*
X254166428Y-198178571D01*
X255309285Y-199535714D02*
X255380714Y-199607142D01*
X255309285Y-199678571D01*
X255237857Y-199607142D01*
X255309285Y-199535714D01*
X255309285Y-199678571D01*
X256309285Y-198178571D02*
X256452142Y-198178571D01*
X256595000Y-198250000D01*
X256666428Y-198321428D01*
X256737857Y-198464285D01*
X256809285Y-198750000D01*
X256809285Y-199107142D01*
X256737857Y-199392857D01*
X256666428Y-199535714D01*
X256595000Y-199607142D01*
X256452142Y-199678571D01*
X256309285Y-199678571D01*
X256166428Y-199607142D01*
X256095000Y-199535714D01*
X256023571Y-199392857D01*
X255952142Y-199107142D01*
X255952142Y-198750000D01*
X256023571Y-198464285D01*
X256095000Y-198321428D01*
X256166428Y-198250000D01*
X256309285Y-198178571D01*
X258237857Y-199678571D02*
X257380714Y-199678571D01*
X257809285Y-199678571D02*
X257809285Y-198178571D01*
X257666428Y-198392857D01*
X257523571Y-198535714D01*
X257380714Y-198607142D01*
D10*
D11*
X160760714Y-199607142D02*
X160975000Y-199678571D01*
X161332142Y-199678571D01*
X161475000Y-199607142D01*
X161546428Y-199535714D01*
X161617857Y-199392857D01*
X161617857Y-199250000D01*
X161546428Y-199107142D01*
X161475000Y-199035714D01*
X161332142Y-198964285D01*
X161046428Y-198892857D01*
X160903571Y-198821428D01*
X160832142Y-198750000D01*
X160760714Y-198607142D01*
X160760714Y-198464285D01*
X160832142Y-198321428D01*
X160903571Y-198250000D01*
X161046428Y-198178571D01*
X161403571Y-198178571D01*
X161617857Y-198250000D01*
X162260714Y-199678571D02*
X162260714Y-198678571D01*
X162260714Y-198178571D02*
X162189285Y-198250000D01*
X162260714Y-198321428D01*
X162332142Y-198250000D01*
X162260714Y-198178571D01*
X162260714Y-198321428D01*
X162832142Y-198678571D02*
X163617857Y-198678571D01*
X162832142Y-199678571D01*
X163617857Y-199678571D01*
X164760714Y-199607142D02*
X164617857Y-199678571D01*
X164332142Y-199678571D01*
X164189285Y-199607142D01*
X164117857Y-199464285D01*
X164117857Y-198892857D01*
X164189285Y-198750000D01*
X164332142Y-198678571D01*
X164617857Y-198678571D01*
X164760714Y-198750000D01*
X164832142Y-198892857D01*
X164832142Y-199035714D01*
X164117857Y-199178571D01*
X165475000Y-199535714D02*
X165546428Y-199607142D01*
X165475000Y-199678571D01*
X165403571Y-199607142D01*
X165475000Y-199535714D01*
X165475000Y-199678571D01*
X165475000Y-198750000D02*
X165546428Y-198821428D01*
X165475000Y-198892857D01*
X165403571Y-198821428D01*
X165475000Y-198750000D01*
X165475000Y-198892857D01*
X167332142Y-198178571D02*
X167332142Y-199392857D01*
X167403571Y-199535714D01*
X167475000Y-199607142D01*
X167617857Y-199678571D01*
X167903571Y-199678571D01*
X168046428Y-199607142D01*
X168117857Y-199535714D01*
X168189285Y-199392857D01*
X168189285Y-198178571D01*
X168832142Y-199607142D02*
X169046428Y-199678571D01*
X169403571Y-199678571D01*
X169546428Y-199607142D01*
X169617857Y-199535714D01*
X169689285Y-199392857D01*
X169689285Y-199250000D01*
X169617857Y-199107142D01*
X169546428Y-199035714D01*
X169403571Y-198964285D01*
X169117857Y-198892857D01*
X168975000Y-198821428D01*
X168903571Y-198750000D01*
X168832142Y-198607142D01*
X168832142Y-198464285D01*
X168903571Y-198321428D01*
X168975000Y-198250000D01*
X169117857Y-198178571D01*
X169475000Y-198178571D01*
X169689285Y-198250000D01*
X171046428Y-199678571D02*
X170332142Y-199678571D01*
X170332142Y-198178571D01*
X172117857Y-199607142D02*
X171975000Y-199678571D01*
X171689285Y-199678571D01*
X171546428Y-199607142D01*
X171475000Y-199464285D01*
X171475000Y-198892857D01*
X171546428Y-198750000D01*
X171689285Y-198678571D01*
X171975000Y-198678571D01*
X172117857Y-198750000D01*
X172189285Y-198892857D01*
X172189285Y-199035714D01*
X171475000Y-199178571D01*
X172617857Y-198678571D02*
X173189285Y-198678571D01*
X172832142Y-198178571D02*
X172832142Y-199464285D01*
X172903571Y-199607142D01*
X173046428Y-199678571D01*
X173189285Y-199678571D01*
X173475000Y-198678571D02*
X174046428Y-198678571D01*
X173689285Y-198178571D02*
X173689285Y-199464285D01*
X173760714Y-199607142D01*
X173903571Y-199678571D01*
X174046428Y-199678571D01*
X175117857Y-199607142D02*
X174975000Y-199678571D01*
X174689285Y-199678571D01*
X174546428Y-199607142D01*
X174475000Y-199464285D01*
X174475000Y-198892857D01*
X174546428Y-198750000D01*
X174689285Y-198678571D01*
X174975000Y-198678571D01*
X175117857Y-198750000D01*
X175189285Y-198892857D01*
X175189285Y-199035714D01*
X174475000Y-199178571D01*
X175832142Y-199678571D02*
X175832142Y-198678571D01*
X175832142Y-198964285D02*
X175903571Y-198821428D01*
X175975000Y-198750000D01*
X176117857Y-198678571D01*
X176260714Y-198678571D01*
D10*
D11*
X245832142Y-202478571D02*
X245832142Y-200978571D01*
X247189285Y-202478571D02*
X247189285Y-200978571D01*
X247189285Y-202407142D02*
X247046428Y-202478571D01*
X246760714Y-202478571D01*
X246617857Y-202407142D01*
X246546428Y-202335714D01*
X246475000Y-202192857D01*
X246475000Y-201764285D01*
X246546428Y-201621428D01*
X246617857Y-201550000D01*
X246760714Y-201478571D01*
X247046428Y-201478571D01*
X247189285Y-201550000D01*
X247903571Y-202335714D02*
X247975000Y-202407142D01*
X247903571Y-202478571D01*
X247832142Y-202407142D01*
X247903571Y-202335714D01*
X247903571Y-202478571D01*
X247903571Y-201550000D02*
X247975000Y-201621428D01*
X247903571Y-201692857D01*
X247832142Y-201621428D01*
X247903571Y-201550000D01*
X247903571Y-201692857D01*
X250546428Y-202478571D02*
X249689285Y-202478571D01*
X250117857Y-202478571D02*
X250117857Y-200978571D01*
X249975000Y-201192857D01*
X249832142Y-201335714D01*
X249689285Y-201407142D01*
X252260714Y-200907142D02*
X250975000Y-202835714D01*
X253546428Y-202478571D02*
X252689285Y-202478571D01*
X253117857Y-202478571D02*
X253117857Y-200978571D01*
X252975000Y-201192857D01*
X252832142Y-201335714D01*
X252689285Y-201407142D01*
D10*
D11*
X159400000Y-193400000D02*
X267400000Y-193400000D01*
D10*
D13*
X161112380Y-194104761D02*
X162255238Y-194104761D01*
X161433809Y-196104761D02*
X161683809Y-194104761D01*
X162671904Y-196104761D02*
X162838571Y-194771428D01*
X162921904Y-194104761D02*
X162814761Y-194200000D01*
X162898095Y-194295238D01*
X163005238Y-194200000D01*
X162921904Y-194104761D01*
X162898095Y-194295238D01*
X163505238Y-194771428D02*
X164267142Y-194771428D01*
X163874285Y-194104761D02*
X163660000Y-195819047D01*
X163731428Y-196009523D01*
X163910000Y-196104761D01*
X164100476Y-196104761D01*
X165052857Y-196104761D02*
X164874285Y-196009523D01*
X164802857Y-195819047D01*
X165017142Y-194104761D01*
X166588571Y-196009523D02*
X166386190Y-196104761D01*
X166005238Y-196104761D01*
X165826666Y-196009523D01*
X165755238Y-195819047D01*
X165850476Y-195057142D01*
X165969523Y-194866666D01*
X166171904Y-194771428D01*
X166552857Y-194771428D01*
X166731428Y-194866666D01*
X166802857Y-195057142D01*
X166779047Y-195247619D01*
X165802857Y-195438095D01*
X167552857Y-195914285D02*
X167636190Y-196009523D01*
X167529047Y-196104761D01*
X167445714Y-196009523D01*
X167552857Y-195914285D01*
X167529047Y-196104761D01*
X167683809Y-194866666D02*
X167767142Y-194961904D01*
X167660000Y-195057142D01*
X167576666Y-194961904D01*
X167683809Y-194866666D01*
X167660000Y-195057142D01*
X171171904Y-195914285D02*
X171064761Y-196009523D01*
X170767142Y-196104761D01*
X170576666Y-196104761D01*
X170302857Y-196009523D01*
X170136190Y-195819047D01*
X170064761Y-195628571D01*
X170017142Y-195247619D01*
X170052857Y-194961904D01*
X170195714Y-194580952D01*
X170314761Y-194390476D01*
X170529047Y-194200000D01*
X170826666Y-194104761D01*
X171017142Y-194104761D01*
X171290952Y-194200000D01*
X171374285Y-194295238D01*
X171981428Y-195533333D02*
X172933809Y-195533333D01*
X171719523Y-196104761D02*
X172636190Y-194104761D01*
X173052857Y-196104761D01*
X173719523Y-196104761D02*
X173969523Y-194104761D01*
X174862380Y-196104761D01*
X175112380Y-194104761D01*
X175981428Y-194771428D02*
X175814761Y-196104761D01*
X175957619Y-194961904D02*
X176064761Y-194866666D01*
X176267142Y-194771428D01*
X176552857Y-194771428D01*
X176731428Y-194866666D01*
X176802857Y-195057142D01*
X176671904Y-196104761D01*
X178398095Y-196009523D02*
X178195714Y-196104761D01*
X177814761Y-196104761D01*
X177636190Y-196009523D01*
X177564761Y-195819047D01*
X177660000Y-195057142D01*
X177779047Y-194866666D01*
X177981428Y-194771428D01*
X178362380Y-194771428D01*
X178540952Y-194866666D01*
X178612380Y-195057142D01*
X178588571Y-195247619D01*
X177612380Y-195438095D01*
X180207619Y-196009523D02*
X180005238Y-196104761D01*
X179624285Y-196104761D01*
X179445714Y-196009523D01*
X179362380Y-195914285D01*
X179290952Y-195723809D01*
X179362380Y-195152380D01*
X179481428Y-194961904D01*
X179588571Y-194866666D01*
X179790952Y-194771428D01*
X180171904Y-194771428D01*
X180350476Y-194866666D01*
X180933809Y-194771428D02*
X181695714Y-194771428D01*
X181302857Y-194104761D02*
X181088571Y-195819047D01*
X181160000Y-196009523D01*
X181338571Y-196104761D01*
X181529047Y-196104761D01*
X184862380Y-196104761D02*
X184314761Y-195152380D01*
X183719523Y-196104761D02*
X183969523Y-194104761D01*
X184731428Y-194104761D01*
X184910000Y-194200000D01*
X184993333Y-194295238D01*
X185064761Y-194485714D01*
X185029047Y-194771428D01*
X184910000Y-194961904D01*
X184802857Y-195057142D01*
X184600476Y-195152380D01*
X183838571Y-195152380D01*
X186493333Y-196009523D02*
X186290952Y-196104761D01*
X185910000Y-196104761D01*
X185731428Y-196009523D01*
X185660000Y-195819047D01*
X185755238Y-195057142D01*
X185874285Y-194866666D01*
X186076666Y-194771428D01*
X186457619Y-194771428D01*
X186636190Y-194866666D01*
X186707619Y-195057142D01*
X186683809Y-195247619D01*
X185707619Y-195438095D01*
X188290952Y-196104761D02*
X188421904Y-195057142D01*
X188350476Y-194866666D01*
X188171904Y-194771428D01*
X187790952Y-194771428D01*
X187588571Y-194866666D01*
X188302857Y-196009523D02*
X188100476Y-196104761D01*
X187624285Y-196104761D01*
X187445714Y-196009523D01*
X187374285Y-195819047D01*
X187398095Y-195628571D01*
X187517142Y-195438095D01*
X187719523Y-195342857D01*
X188195714Y-195342857D01*
X188398095Y-195247619D01*
X190100476Y-196104761D02*
X190350476Y-194104761D01*
X190112380Y-196009523D02*
X189910000Y-196104761D01*
X189529047Y-196104761D01*
X189350476Y-196009523D01*
X189267142Y-195914285D01*
X189195714Y-195723809D01*
X189267142Y-195152380D01*
X189386190Y-194961904D01*
X189493333Y-194866666D01*
X189695714Y-194771428D01*
X190076666Y-194771428D01*
X190255238Y-194866666D01*
X191826666Y-196009523D02*
X191624285Y-196104761D01*
X191243333Y-196104761D01*
X191064761Y-196009523D01*
X190993333Y-195819047D01*
X191088571Y-195057142D01*
X191207619Y-194866666D01*
X191410000Y-194771428D01*
X191790952Y-194771428D01*
X191969523Y-194866666D01*
X192040952Y-195057142D01*
X192017142Y-195247619D01*
X191040952Y-195438095D01*
X192767142Y-196104761D02*
X192933809Y-194771428D01*
X192886190Y-195152380D02*
X193005238Y-194961904D01*
X193112380Y-194866666D01*
X193314761Y-194771428D01*
X193505238Y-194771428D01*
X195529047Y-196104761D02*
X195779047Y-194104761D01*
X196540952Y-194104761D01*
X196719523Y-194200000D01*
X196802857Y-194295238D01*
X196874285Y-194485714D01*
X196838571Y-194771428D01*
X196719523Y-194961904D01*
X196612380Y-195057142D01*
X196410000Y-195152380D01*
X195648095Y-195152380D01*
X198695714Y-195914285D02*
X198588571Y-196009523D01*
X198290952Y-196104761D01*
X198100476Y-196104761D01*
X197826666Y-196009523D01*
X197660000Y-195819047D01*
X197588571Y-195628571D01*
X197540952Y-195247619D01*
X197576666Y-194961904D01*
X197719523Y-194580952D01*
X197838571Y-194390476D01*
X198052857Y-194200000D01*
X198350476Y-194104761D01*
X198540952Y-194104761D01*
X198814761Y-194200000D01*
X198898095Y-194295238D01*
X200326666Y-195057142D02*
X200600476Y-195152380D01*
X200683809Y-195247619D01*
X200755238Y-195438095D01*
X200719523Y-195723809D01*
X200600476Y-195914285D01*
X200493333Y-196009523D01*
X200290952Y-196104761D01*
X199529047Y-196104761D01*
X199779047Y-194104761D01*
X200445714Y-194104761D01*
X200624285Y-194200000D01*
X200707619Y-194295238D01*
X200779047Y-194485714D01*
X200755238Y-194676190D01*
X200636190Y-194866666D01*
X200529047Y-194961904D01*
X200326666Y-195057142D01*
X199660000Y-195057142D01*
X204005238Y-196104761D02*
X203052857Y-196104761D01*
X203302857Y-194104761D01*
X205529047Y-196104761D02*
X205660000Y-195057142D01*
X205588571Y-194866666D01*
X205410000Y-194771428D01*
X205029047Y-194771428D01*
X204826666Y-194866666D01*
X205540952Y-196009523D02*
X205338571Y-196104761D01*
X204862380Y-196104761D01*
X204683809Y-196009523D01*
X204612380Y-195819047D01*
X204636190Y-195628571D01*
X204755238Y-195438095D01*
X204957619Y-195342857D01*
X205433809Y-195342857D01*
X205636190Y-195247619D01*
X206457619Y-194771428D02*
X206767142Y-196104761D01*
X207410000Y-194771428D02*
X206767142Y-196104761D01*
X206517142Y-196580952D01*
X206410000Y-196676190D01*
X206207619Y-196771428D01*
X208290952Y-196104761D02*
X208112380Y-196009523D01*
X208029047Y-195914285D01*
X207957619Y-195723809D01*
X208029047Y-195152380D01*
X208148095Y-194961904D01*
X208255238Y-194866666D01*
X208457619Y-194771428D01*
X208743333Y-194771428D01*
X208921904Y-194866666D01*
X209005238Y-194961904D01*
X209076666Y-195152380D01*
X209005238Y-195723809D01*
X208886190Y-195914285D01*
X208779047Y-196009523D01*
X208576666Y-196104761D01*
X208290952Y-196104761D01*
X210838571Y-194771428D02*
X210671904Y-196104761D01*
X209981428Y-194771428D02*
X209850476Y-195819047D01*
X209921904Y-196009523D01*
X210100476Y-196104761D01*
X210386190Y-196104761D01*
X210588571Y-196009523D01*
X210695714Y-195914285D01*
X211505238Y-194771428D02*
X212267142Y-194771428D01*
X211874285Y-194104761D02*
X211659999Y-195819047D01*
X211731428Y-196009523D01*
X211909999Y-196104761D01*
X212100476Y-196104761D01*
D10*
D11*
X161332142Y-191492857D02*
X160832142Y-191492857D01*
X160832142Y-192278571D02*
X160832142Y-190778571D01*
X161546428Y-190778571D01*
X162117857Y-192278571D02*
X162117857Y-191278571D01*
X162117857Y-190778571D02*
X162046428Y-190850000D01*
X162117857Y-190921428D01*
X162189285Y-190850000D01*
X162117857Y-190778571D01*
X162117857Y-190921428D01*
X163046428Y-192278571D02*
X162903571Y-192207142D01*
X162832142Y-192064285D01*
X162832142Y-190778571D01*
X164189285Y-192207142D02*
X164046428Y-192278571D01*
X163760714Y-192278571D01*
X163617857Y-192207142D01*
X163546428Y-192064285D01*
X163546428Y-191492857D01*
X163617857Y-191350000D01*
X163760714Y-191278571D01*
X164046428Y-191278571D01*
X164189285Y-191350000D01*
X164260714Y-191492857D01*
X164260714Y-191635714D01*
X163546428Y-191778571D01*
X164903571Y-192135714D02*
X164975000Y-192207142D01*
X164903571Y-192278571D01*
X164832142Y-192207142D01*
X164903571Y-192135714D01*
X164903571Y-192278571D01*
X164903571Y-191350000D02*
X164975000Y-191421428D01*
X164903571Y-191492857D01*
X164832142Y-191421428D01*
X164903571Y-191350000D01*
X164903571Y-191492857D01*
X167617857Y-192278571D02*
X167117857Y-191564285D01*
X166760714Y-192278571D02*
X166760714Y-190778571D01*
X167332142Y-190778571D01*
X167475000Y-190850000D01*
X167546428Y-190921428D01*
X167617857Y-191064285D01*
X167617857Y-191278571D01*
X167546428Y-191421428D01*
X167475000Y-191492857D01*
X167332142Y-191564285D01*
X166760714Y-191564285D01*
X168832142Y-192207142D02*
X168689285Y-192278571D01*
X168403571Y-192278571D01*
X168260714Y-192207142D01*
X168189285Y-192064285D01*
X168189285Y-191492857D01*
X168260714Y-191350000D01*
X168403571Y-191278571D01*
X168689285Y-191278571D01*
X168832142Y-191350000D01*
X168903571Y-191492857D01*
X168903571Y-191635714D01*
X168189285Y-191778571D01*
X170189285Y-192278571D02*
X170189285Y-191492857D01*
X170117857Y-191350000D01*
X169975000Y-191278571D01*
X169689285Y-191278571D01*
X169546428Y-191350000D01*
X170189285Y-192207142D02*
X170046428Y-192278571D01*
X169689285Y-192278571D01*
X169546428Y-192207142D01*
X169475000Y-192064285D01*
X169475000Y-191921428D01*
X169546428Y-191778571D01*
X169689285Y-191707142D01*
X170046428Y-191707142D01*
X170189285Y-191635714D01*
X171546428Y-192278571D02*
X171546428Y-190778571D01*
X171546428Y-192207142D02*
X171403571Y-192278571D01*
X171117857Y-192278571D01*
X170975000Y-192207142D01*
X170903571Y-192135714D01*
X170832142Y-191992857D01*
X170832142Y-191564285D01*
X170903571Y-191421428D01*
X170975000Y-191350000D01*
X171117857Y-191278571D01*
X171403571Y-191278571D01*
X171546428Y-191350000D01*
X172832142Y-192207142D02*
X172689285Y-192278571D01*
X172403571Y-192278571D01*
X172260714Y-192207142D01*
X172189285Y-192064285D01*
X172189285Y-191492857D01*
X172260714Y-191350000D01*
X172403571Y-191278571D01*
X172689285Y-191278571D01*
X172832142Y-191350000D01*
X172903571Y-191492857D01*
X172903571Y-191635714D01*
X172189285Y-191778571D01*
X173546428Y-192278571D02*
X173546428Y-191278571D01*
X173546428Y-191564285D02*
X173617857Y-191421428D01*
X173689285Y-191350000D01*
X173832142Y-191278571D01*
X173975000Y-191278571D01*
X174475000Y-192135714D02*
X174546428Y-192207142D01*
X174475000Y-192278571D01*
X174403571Y-192207142D01*
X174475000Y-192135714D01*
X174475000Y-192278571D01*
X175189285Y-192278571D02*
X175189285Y-190778571D01*
X175332142Y-191707142D02*
X175760714Y-192278571D01*
X175760714Y-191278571D02*
X175189285Y-191850000D01*
X176403571Y-192278571D02*
X176403571Y-191278571D01*
X176403571Y-190778571D02*
X176332142Y-190850000D01*
X176403571Y-190921428D01*
X176475000Y-190850000D01*
X176403571Y-190778571D01*
X176403571Y-190921428D01*
X177760714Y-192207142D02*
X177617857Y-192278571D01*
X177332142Y-192278571D01*
X177189285Y-192207142D01*
X177117857Y-192135714D01*
X177046428Y-191992857D01*
X177046428Y-191564285D01*
X177117857Y-191421428D01*
X177189285Y-191350000D01*
X177332142Y-191278571D01*
X177617857Y-191278571D01*
X177760714Y-191350000D01*
X179046428Y-192278571D02*
X179046428Y-191492857D01*
X178975000Y-191350000D01*
X178832142Y-191278571D01*
X178546428Y-191278571D01*
X178403571Y-191350000D01*
X179046428Y-192207142D02*
X178903571Y-192278571D01*
X178546428Y-192278571D01*
X178403571Y-192207142D01*
X178332142Y-192064285D01*
X178332142Y-191921428D01*
X178403571Y-191778571D01*
X178546428Y-191707142D01*
X178903571Y-191707142D01*
X179046428Y-191635714D01*
X180403571Y-192278571D02*
X180403571Y-190778571D01*
X180403571Y-192207142D02*
X180260714Y-192278571D01*
X179975000Y-192278571D01*
X179832142Y-192207142D01*
X179760714Y-192135714D01*
X179689285Y-191992857D01*
X179689285Y-191564285D01*
X179760714Y-191421428D01*
X179832142Y-191350000D01*
X179975000Y-191278571D01*
X180260714Y-191278571D01*
X180403571Y-191350000D01*
X180760714Y-192421428D02*
X181903571Y-192421428D01*
X182260714Y-191278571D02*
X182260714Y-192778571D01*
X182260714Y-191350000D02*
X182403571Y-191278571D01*
X182689285Y-191278571D01*
X182832142Y-191350000D01*
X182903571Y-191421428D01*
X182975000Y-191564285D01*
X182975000Y-191992857D01*
X182903571Y-192135714D01*
X182832142Y-192207142D01*
X182689285Y-192278571D01*
X182403571Y-192278571D01*
X182260714Y-192207142D01*
X184260714Y-192207142D02*
X184117857Y-192278571D01*
X183832142Y-192278571D01*
X183689285Y-192207142D01*
X183617857Y-192135714D01*
X183546428Y-191992857D01*
X183546428Y-191564285D01*
X183617857Y-191421428D01*
X183689285Y-191350000D01*
X183832142Y-191278571D01*
X184117857Y-191278571D01*
X184260714Y-191350000D01*
X184903571Y-192278571D02*
X184903571Y-190778571D01*
X184903571Y-191350000D02*
X185046428Y-191278571D01*
X185332142Y-191278571D01*
X185475000Y-191350000D01*
X185546428Y-191421428D01*
X185617857Y-191564285D01*
X185617857Y-191992857D01*
X185546428Y-192135714D01*
X185475000Y-192207142D01*
X185332142Y-192278571D01*
X185046428Y-192278571D01*
X184903571Y-192207142D01*
D10*
D11*
X159400000Y-187400000D02*
X267400000Y-187400000D01*
D10*
D11*
X160760714Y-189507142D02*
X160975000Y-189578571D01*
X161332142Y-189578571D01*
X161475000Y-189507142D01*
X161546428Y-189435714D01*
X161617857Y-189292857D01*
X161617857Y-189150000D01*
X161546428Y-189007142D01*
X161475000Y-188935714D01*
X161332142Y-188864285D01*
X161046428Y-188792857D01*
X160903571Y-188721428D01*
X160832142Y-188650000D01*
X160760714Y-188507142D01*
X160760714Y-188364285D01*
X160832142Y-188221428D01*
X160903571Y-188150000D01*
X161046428Y-188078571D01*
X161403571Y-188078571D01*
X161617857Y-188150000D01*
X162260714Y-189578571D02*
X162260714Y-188078571D01*
X162903571Y-189578571D02*
X162903571Y-188792857D01*
X162832142Y-188650000D01*
X162689285Y-188578571D01*
X162475000Y-188578571D01*
X162332142Y-188650000D01*
X162260714Y-188721428D01*
X164189285Y-189507142D02*
X164046428Y-189578571D01*
X163760714Y-189578571D01*
X163617857Y-189507142D01*
X163546428Y-189364285D01*
X163546428Y-188792857D01*
X163617857Y-188650000D01*
X163760714Y-188578571D01*
X164046428Y-188578571D01*
X164189285Y-188650000D01*
X164260714Y-188792857D01*
X164260714Y-188935714D01*
X163546428Y-189078571D01*
X165475000Y-189507142D02*
X165332142Y-189578571D01*
X165046428Y-189578571D01*
X164903571Y-189507142D01*
X164832142Y-189364285D01*
X164832142Y-188792857D01*
X164903571Y-188650000D01*
X165046428Y-188578571D01*
X165332142Y-188578571D01*
X165475000Y-188650000D01*
X165546428Y-188792857D01*
X165546428Y-188935714D01*
X164832142Y-189078571D01*
X165975000Y-188578571D02*
X166546428Y-188578571D01*
X166189285Y-188078571D02*
X166189285Y-189364285D01*
X166260714Y-189507142D01*
X166403571Y-189578571D01*
X166546428Y-189578571D01*
X167046428Y-189435714D02*
X167117857Y-189507142D01*
X167046428Y-189578571D01*
X166975000Y-189507142D01*
X167046428Y-189435714D01*
X167046428Y-189578571D01*
X167046428Y-188650000D02*
X167117857Y-188721428D01*
X167046428Y-188792857D01*
X166975000Y-188721428D01*
X167046428Y-188650000D01*
X167046428Y-188792857D01*
D10*
D12*
X161809285Y-186435714D02*
X161737857Y-186507142D01*
X161523571Y-186578571D01*
X161380714Y-186578571D01*
X161166428Y-186507142D01*
X161023571Y-186364285D01*
X160952142Y-186221428D01*
X160880714Y-185935714D01*
X160880714Y-185721428D01*
X160952142Y-185435714D01*
X161023571Y-185292857D01*
X161166428Y-185150000D01*
X161380714Y-185078571D01*
X161523571Y-185078571D01*
X161737857Y-185150000D01*
X161809285Y-185221428D01*
X162380714Y-186150000D02*
X163095000Y-186150000D01*
X162237857Y-186578571D02*
X162737857Y-185078571D01*
X163237857Y-186578571D01*
X163737857Y-186578571D02*
X163737857Y-185078571D01*
X164595000Y-186578571D01*
X164595000Y-185078571D01*
X165095000Y-185578571D02*
X165666428Y-185578571D01*
X165309285Y-185078571D02*
X165309285Y-186364285D01*
X165380714Y-186507142D01*
X165523571Y-186578571D01*
X165666428Y-186578571D01*
X166737857Y-186507142D02*
X166595000Y-186578571D01*
X166309285Y-186578571D01*
X166166428Y-186507142D01*
X166095000Y-186364285D01*
X166095000Y-185792857D01*
X166166428Y-185650000D01*
X166309285Y-185578571D01*
X166595000Y-185578571D01*
X166737857Y-185650000D01*
X166809285Y-185792857D01*
X166809285Y-185935714D01*
X166095000Y-186078571D01*
X168095000Y-186507142D02*
X167952142Y-186578571D01*
X167666428Y-186578571D01*
X167523571Y-186507142D01*
X167452142Y-186435714D01*
X167380714Y-186292857D01*
X167380714Y-185864285D01*
X167452142Y-185721428D01*
X167523571Y-185650000D01*
X167666428Y-185578571D01*
X167952142Y-185578571D01*
X168095000Y-185650000D01*
X168737857Y-186578571D02*
X168737857Y-185078571D01*
X169380714Y-186578571D02*
X169380714Y-185792857D01*
X169309285Y-185650000D01*
X169166428Y-185578571D01*
X168952142Y-185578571D01*
X168809285Y-185650000D01*
X168737857Y-185721428D01*
D10*
D11*
X161689285Y-183435714D02*
X161617857Y-183507142D01*
X161403571Y-183578571D01*
X161260714Y-183578571D01*
X161046428Y-183507142D01*
X160903571Y-183364285D01*
X160832142Y-183221428D01*
X160760714Y-182935714D01*
X160760714Y-182721428D01*
X160832142Y-182435714D01*
X160903571Y-182292857D01*
X161046428Y-182150000D01*
X161260714Y-182078571D01*
X161403571Y-182078571D01*
X161617857Y-182150000D01*
X161689285Y-182221428D01*
X162332142Y-183578571D02*
X162332142Y-182578571D01*
X162332142Y-182864285D02*
X162403571Y-182721428D01*
X162475000Y-182650000D01*
X162617857Y-182578571D01*
X162760714Y-182578571D01*
X163832142Y-183507142D02*
X163689285Y-183578571D01*
X163403571Y-183578571D01*
X163260714Y-183507142D01*
X163189285Y-183364285D01*
X163189285Y-182792857D01*
X163260714Y-182650000D01*
X163403571Y-182578571D01*
X163689285Y-182578571D01*
X163832142Y-182650000D01*
X163903571Y-182792857D01*
X163903571Y-182935714D01*
X163189285Y-183078571D01*
X165189285Y-183578571D02*
X165189285Y-182792857D01*
X165117857Y-182650000D01*
X164975000Y-182578571D01*
X164689285Y-182578571D01*
X164546428Y-182650000D01*
X165189285Y-183507142D02*
X165046428Y-183578571D01*
X164689285Y-183578571D01*
X164546428Y-183507142D01*
X164475000Y-183364285D01*
X164475000Y-183221428D01*
X164546428Y-183078571D01*
X164689285Y-183007142D01*
X165046428Y-183007142D01*
X165189285Y-182935714D01*
X165689285Y-182578571D02*
X166260714Y-182578571D01*
X165903571Y-182078571D02*
X165903571Y-183364285D01*
X165975000Y-183507142D01*
X166117857Y-183578571D01*
X166260714Y-183578571D01*
X167332142Y-183507142D02*
X167189285Y-183578571D01*
X166903571Y-183578571D01*
X166760714Y-183507142D01*
X166689285Y-183364285D01*
X166689285Y-182792857D01*
X166760714Y-182650000D01*
X166903571Y-182578571D01*
X167189285Y-182578571D01*
X167332142Y-182650000D01*
X167403571Y-182792857D01*
X167403571Y-182935714D01*
X166689285Y-183078571D01*
X168689285Y-183578571D02*
X168689285Y-182078571D01*
X168689285Y-183507142D02*
X168546428Y-183578571D01*
X168260714Y-183578571D01*
X168117857Y-183507142D01*
X168046428Y-183435714D01*
X167975000Y-183292857D01*
X167975000Y-182864285D01*
X168046428Y-182721428D01*
X168117857Y-182650000D01*
X168260714Y-182578571D01*
X168546428Y-182578571D01*
X168689285Y-182650000D01*
X170546428Y-183578571D02*
X170546428Y-182078571D01*
X170546428Y-182650000D02*
X170689285Y-182578571D01*
X170975000Y-182578571D01*
X171117857Y-182650000D01*
X171189285Y-182721428D01*
X171260714Y-182864285D01*
X171260714Y-183292857D01*
X171189285Y-183435714D01*
X171117857Y-183507142D01*
X170975000Y-183578571D01*
X170689285Y-183578571D01*
X170546428Y-183507142D01*
X171760714Y-182578571D02*
X172117857Y-183578571D01*
X172475000Y-182578571D02*
X172117857Y-183578571D01*
X171975000Y-183935714D01*
X171903571Y-184007142D01*
X171760714Y-184078571D01*
X175046428Y-183435714D02*
X174975000Y-183507142D01*
X174760714Y-183578571D01*
X174617857Y-183578571D01*
X174403571Y-183507142D01*
X174260714Y-183364285D01*
X174189285Y-183221428D01*
X174117857Y-182935714D01*
X174117857Y-182721428D01*
X174189285Y-182435714D01*
X174260714Y-182292857D01*
X174403571Y-182150000D01*
X174617857Y-182078571D01*
X174760714Y-182078571D01*
X174975000Y-182150000D01*
X175046428Y-182221428D01*
X175689285Y-183578571D02*
X175689285Y-182078571D01*
X176332142Y-183578571D02*
X176332142Y-182792857D01*
X176260714Y-182650000D01*
X176117857Y-182578571D01*
X175903571Y-182578571D01*
X175760714Y-182650000D01*
X175689285Y-182721428D01*
X177260714Y-183578571D02*
X177117857Y-183507142D01*
X177046428Y-183435714D01*
X176975000Y-183292857D01*
X176975000Y-182864285D01*
X177046428Y-182721428D01*
X177117857Y-182650000D01*
X177260714Y-182578571D01*
X177475000Y-182578571D01*
X177617857Y-182650000D01*
X177689285Y-182721428D01*
X177760714Y-182864285D01*
X177760714Y-183292857D01*
X177689285Y-183435714D01*
X177617857Y-183507142D01*
X177475000Y-183578571D01*
X177260714Y-183578571D01*
X178617857Y-183578571D02*
X178475000Y-183507142D01*
X178403571Y-183435714D01*
X178332142Y-183292857D01*
X178332142Y-182864285D01*
X178403571Y-182721428D01*
X178475000Y-182650000D01*
X178617857Y-182578571D01*
X178832142Y-182578571D01*
X178975000Y-182650000D01*
X179046428Y-182721428D01*
X179117857Y-182864285D01*
X179117857Y-183292857D01*
X179046428Y-183435714D01*
X178975000Y-183507142D01*
X178832142Y-183578571D01*
X178617857Y-183578571D01*
X179760714Y-182578571D02*
X179760714Y-183578571D01*
X179760714Y-182721428D02*
X179832142Y-182650000D01*
X179975000Y-182578571D01*
X180189285Y-182578571D01*
X180332142Y-182650000D01*
X180403571Y-182792857D01*
X180403571Y-183578571D01*
X181760714Y-182578571D02*
X181760714Y-183792857D01*
X181689285Y-183935714D01*
X181617857Y-184007142D01*
X181475000Y-184078571D01*
X181260714Y-184078571D01*
X181117857Y-184007142D01*
X181760714Y-183507142D02*
X181617857Y-183578571D01*
X181332142Y-183578571D01*
X181189285Y-183507142D01*
X181117857Y-183435714D01*
X181046428Y-183292857D01*
X181046428Y-182864285D01*
X181117857Y-182721428D01*
X181189285Y-182650000D01*
X181332142Y-182578571D01*
X181617857Y-182578571D01*
X181760714Y-182650000D01*
X184046428Y-182078571D02*
X184046428Y-183150000D01*
X183975000Y-183364285D01*
X183832142Y-183507142D01*
X183617857Y-183578571D01*
X183475000Y-183578571D01*
X184760714Y-183578571D02*
X184760714Y-182578571D01*
X184760714Y-182078571D02*
X184689285Y-182150000D01*
X184760714Y-182221428D01*
X184832142Y-182150000D01*
X184760714Y-182078571D01*
X184760714Y-182221428D01*
X185475000Y-182578571D02*
X185475000Y-183578571D01*
X185475000Y-182721428D02*
X185546428Y-182650000D01*
X185689285Y-182578571D01*
X185903571Y-182578571D01*
X186046428Y-182650000D01*
X186117857Y-182792857D01*
X186117857Y-183578571D01*
X187975000Y-183578571D02*
X187975000Y-182078571D01*
X188832142Y-183578571D01*
X188832142Y-182078571D01*
X190189285Y-182578571D02*
X190189285Y-183792857D01*
X190117857Y-183935714D01*
X190046428Y-184007142D01*
X189903571Y-184078571D01*
X189689285Y-184078571D01*
X189546428Y-184007142D01*
X190189285Y-183507142D02*
X190046428Y-183578571D01*
X189760714Y-183578571D01*
X189617857Y-183507142D01*
X189546428Y-183435714D01*
X189475000Y-183292857D01*
X189475000Y-182864285D01*
X189546428Y-182721428D01*
X189617857Y-182650000D01*
X189760714Y-182578571D01*
X190046428Y-182578571D01*
X190189285Y-182650000D01*
X192403571Y-184078571D02*
X192403571Y-181935714D01*
X194617857Y-182578571D02*
X194617857Y-183864285D01*
X194546428Y-184007142D01*
X194403571Y-184078571D01*
X194332142Y-184078571D01*
X194617857Y-182078571D02*
X194546428Y-182150000D01*
X194617857Y-182221428D01*
X194689285Y-182150000D01*
X194617857Y-182078571D01*
X194617857Y-182221428D01*
X195332142Y-183578571D02*
X195332142Y-182578571D01*
X195332142Y-182078571D02*
X195260714Y-182150000D01*
X195332142Y-182221428D01*
X195403571Y-182150000D01*
X195332142Y-182078571D01*
X195332142Y-182221428D01*
X196046428Y-182578571D02*
X196046428Y-183578571D01*
X196046428Y-182721428D02*
X196117857Y-182650000D01*
X196260714Y-182578571D01*
X196475000Y-182578571D01*
X196617857Y-182650000D01*
X196689285Y-182792857D01*
X196689285Y-183578571D01*
X197617857Y-182721428D02*
X197475000Y-182650000D01*
X197403571Y-182578571D01*
X197332142Y-182435714D01*
X197332142Y-182364285D01*
X197403571Y-182221428D01*
X197475000Y-182150000D01*
X197617857Y-182078571D01*
X197903571Y-182078571D01*
X198046428Y-182150000D01*
X198117857Y-182221428D01*
X198189285Y-182364285D01*
X198189285Y-182435714D01*
X198117857Y-182578571D01*
X198046428Y-182650000D01*
X197903571Y-182721428D01*
X197617857Y-182721428D01*
X197475000Y-182792857D01*
X197403571Y-182864285D01*
X197332142Y-183007142D01*
X197332142Y-183292857D01*
X197403571Y-183435714D01*
X197475000Y-183507142D01*
X197617857Y-183578571D01*
X197903571Y-183578571D01*
X198046428Y-183507142D01*
X198117857Y-183435714D01*
X198189285Y-183292857D01*
X198189285Y-183007142D01*
X198117857Y-182864285D01*
X198046428Y-182792857D01*
X197903571Y-182721428D01*
X198689285Y-182078571D02*
X199617857Y-182078571D01*
X199117857Y-182650000D01*
X199332142Y-182650000D01*
X199475000Y-182721428D01*
X199546428Y-182792857D01*
X199617857Y-182935714D01*
X199617857Y-183292857D01*
X199546428Y-183435714D01*
X199475000Y-183507142D01*
X199332142Y-183578571D01*
X198903571Y-183578571D01*
X198760714Y-183507142D01*
X198689285Y-183435714D01*
X200475000Y-182721428D02*
X200332142Y-182650000D01*
X200260714Y-182578571D01*
X200189285Y-182435714D01*
X200189285Y-182364285D01*
X200260714Y-182221428D01*
X200332142Y-182150000D01*
X200475000Y-182078571D01*
X200760714Y-182078571D01*
X200903571Y-182150000D01*
X200975000Y-182221428D01*
X201046428Y-182364285D01*
X201046428Y-182435714D01*
X200975000Y-182578571D01*
X200903571Y-182650000D01*
X200760714Y-182721428D01*
X200475000Y-182721428D01*
X200332142Y-182792857D01*
X200260714Y-182864285D01*
X200189285Y-183007142D01*
X200189285Y-183292857D01*
X200260714Y-183435714D01*
X200332142Y-183507142D01*
X200475000Y-183578571D01*
X200760714Y-183578571D01*
X200903571Y-183507142D01*
X200975000Y-183435714D01*
X201046428Y-183292857D01*
X201046428Y-183007142D01*
X200975000Y-182864285D01*
X200903571Y-182792857D01*
X200760714Y-182721428D01*
X201546428Y-182078571D02*
X202475000Y-182078571D01*
X201975000Y-182650000D01*
X202189285Y-182650000D01*
X202332142Y-182721428D01*
X202403571Y-182792857D01*
X202475000Y-182935714D01*
X202475000Y-183292857D01*
X202403571Y-183435714D01*
X202332142Y-183507142D01*
X202189285Y-183578571D01*
X201760714Y-183578571D01*
X201617857Y-183507142D01*
X201546428Y-183435714D01*
X204046428Y-182864285D02*
X203975000Y-182792857D01*
X203832142Y-182721428D01*
X203689285Y-182721428D01*
X203546428Y-182792857D01*
X203475000Y-182864285D01*
X203403571Y-183007142D01*
X203403571Y-183150000D01*
X203475000Y-183292857D01*
X203546428Y-183364285D01*
X203689285Y-183435714D01*
X203832142Y-183435714D01*
X203975000Y-183364285D01*
X204046428Y-183292857D01*
X204046428Y-182721428D02*
X204046428Y-183292857D01*
X204117857Y-183364285D01*
X204189285Y-183364285D01*
X204332142Y-183292857D01*
X204403571Y-183150000D01*
X204403571Y-182792857D01*
X204260714Y-182578571D01*
X204046428Y-182435714D01*
X203760714Y-182364285D01*
X203475000Y-182435714D01*
X203260714Y-182578571D01*
X203117857Y-182792857D01*
X203046428Y-183078571D01*
X203117857Y-183364285D01*
X203260714Y-183578571D01*
X203475000Y-183721428D01*
X203760714Y-183792857D01*
X204046428Y-183721428D01*
X204260714Y-183578571D01*
X205689285Y-182578571D02*
X205689285Y-183792857D01*
X205617857Y-183935714D01*
X205546428Y-184007142D01*
X205403571Y-184078571D01*
X205189285Y-184078571D01*
X205046428Y-184007142D01*
X205689285Y-183507142D02*
X205546428Y-183578571D01*
X205260714Y-183578571D01*
X205117857Y-183507142D01*
X205046428Y-183435714D01*
X204975000Y-183292857D01*
X204975000Y-182864285D01*
X205046428Y-182721428D01*
X205117857Y-182650000D01*
X205260714Y-182578571D01*
X205546428Y-182578571D01*
X205689285Y-182650000D01*
X206403571Y-183578571D02*
X206403571Y-182578571D01*
X206403571Y-182721428D02*
X206475000Y-182650000D01*
X206617857Y-182578571D01*
X206832142Y-182578571D01*
X206975000Y-182650000D01*
X207046428Y-182792857D01*
X207046428Y-183578571D01*
X207046428Y-182792857D02*
X207117857Y-182650000D01*
X207260714Y-182578571D01*
X207475000Y-182578571D01*
X207617857Y-182650000D01*
X207689285Y-182792857D01*
X207689285Y-183578571D01*
X209046428Y-183578571D02*
X209046428Y-182792857D01*
X208975000Y-182650000D01*
X208832142Y-182578571D01*
X208546428Y-182578571D01*
X208403571Y-182650000D01*
X209046428Y-183507142D02*
X208903571Y-183578571D01*
X208546428Y-183578571D01*
X208403571Y-183507142D01*
X208332142Y-183364285D01*
X208332142Y-183221428D01*
X208403571Y-183078571D01*
X208546428Y-183007142D01*
X208903571Y-183007142D01*
X209046428Y-182935714D01*
X209760714Y-183578571D02*
X209760714Y-182578571D01*
X209760714Y-182078571D02*
X209689285Y-182150000D01*
X209760714Y-182221428D01*
X209832142Y-182150000D01*
X209760714Y-182078571D01*
X209760714Y-182221428D01*
X210689285Y-183578571D02*
X210546428Y-183507142D01*
X210475000Y-183364285D01*
X210475000Y-182078571D01*
X211260714Y-183435714D02*
X211332142Y-183507142D01*
X211260714Y-183578571D01*
X211189285Y-183507142D01*
X211260714Y-183435714D01*
X211260714Y-183578571D01*
X212617857Y-183507142D02*
X212475000Y-183578571D01*
X212189285Y-183578571D01*
X212046428Y-183507142D01*
X211975000Y-183435714D01*
X211903571Y-183292857D01*
X211903571Y-182864285D01*
X211975000Y-182721428D01*
X212046428Y-182650000D01*
X212189285Y-182578571D01*
X212475000Y-182578571D01*
X212617857Y-182650000D01*
X213475000Y-183578571D02*
X213332142Y-183507142D01*
X213260714Y-183435714D01*
X213189285Y-183292857D01*
X213189285Y-182864285D01*
X213260714Y-182721428D01*
X213332142Y-182650000D01*
X213475000Y-182578571D01*
X213689285Y-182578571D01*
X213832142Y-182650000D01*
X213903571Y-182721428D01*
X213975000Y-182864285D01*
X213975000Y-183292857D01*
X213903571Y-183435714D01*
X213832142Y-183507142D01*
X213689285Y-183578571D01*
X213475000Y-183578571D01*
X214617857Y-183578571D02*
X214617857Y-182578571D01*
X214617857Y-182721428D02*
X214689285Y-182650000D01*
X214832142Y-182578571D01*
X215046428Y-182578571D01*
X215189285Y-182650000D01*
X215260714Y-182792857D01*
X215260714Y-183578571D01*
X215260714Y-182792857D02*
X215332142Y-182650000D01*
X215475000Y-182578571D01*
X215689285Y-182578571D01*
X215832142Y-182650000D01*
X215903571Y-182792857D01*
X215903571Y-183578571D01*
D10*
D11*
X179400000Y-197400000D02*
X179400000Y-200400000D01*
D10*
D11*
X243400000Y-197400000D02*
X243400000Y-203900000D01*
D14*
%TO.C,D_ESD_5*%
X146050000Y-128060000D03*
X145100000Y-125940000D03*
X147000000Y-125940000D03*
%TD*%
%TO.C,D_ESD_4*%
X131760000Y-127850000D03*
X130810000Y-125730000D03*
X132710000Y-125730000D03*
%TD*%
D15*
%TO.C,D_ESD_3*%
X138430000Y-128193800D03*
X137479999Y-125806200D03*
X139380001Y-125806200D03*
%TD*%
D16*
%TO.C,D_ESD_2*%
X153670000Y-128150000D03*
X152720000Y-125850000D03*
X154620000Y-125850000D03*
%TD*%
%TO.C,D_ESD_1*%
X125730000Y-125850000D03*
X126680000Y-128150000D03*
X124780000Y-128150000D03*
%TD*%
D17*
%TO.C,C_HSCAN_1*%
X108518401Y-94838401D03*
X106818401Y-94838401D03*
%TD*%
%TO.C,C_HSCAN_2*%
X96448401Y-96648401D03*
X98148401Y-96648401D03*
%TD*%
%TO.C,C_HSCAN_3*%
X110910000Y-94430000D03*
X112610000Y-94430000D03*
%TD*%
%TO.C,C_J1850_1*%
X210888401Y-100188401D03*
X212588401Y-100188401D03*
%TD*%
D18*
%TO.C,C_MM_1*%
X113010000Y-74930000D03*
X110510000Y-74930000D03*
%TD*%
D17*
%TO.C,C_MSCAN_1*%
X168388401Y-103888401D03*
X166688401Y-103888401D03*
%TD*%
%TO.C,C_MSCAN_2*%
X177058401Y-102078401D03*
X178758401Y-102078401D03*
%TD*%
%TO.C,C_MSCAN_3*%
X182850000Y-101670000D03*
X181150000Y-101670000D03*
%TD*%
D19*
%TO.C,C_PS_1*%
X170180000Y-114429998D03*
X170180000Y-111630002D03*
%TD*%
%TO.C,C_PS_2*%
X170180000Y-128399998D03*
X170180000Y-125600002D03*
%TD*%
%TO.C,C_PS_3*%
X118110000Y-126870002D03*
X118110000Y-129669998D03*
%TD*%
D17*
%TO.C,C_STN_1*%
X154520000Y-50800000D03*
X152820000Y-50800000D03*
%TD*%
%TO.C,C_STN_2*%
X168480000Y-60960000D03*
X170180000Y-60960000D03*
%TD*%
D20*
%TO.C,C_STN_3*%
X182005000Y-57150000D03*
X183755000Y-57150000D03*
%TD*%
D21*
%TO.C,C_STN_4*%
X184150000Y-52465000D03*
X184150000Y-54215000D03*
%TD*%
D17*
%TO.C,C_STN_5*%
X169760000Y-63500000D03*
X168060000Y-63500000D03*
%TD*%
D22*
%TO.C,C_SWCAN_1*%
X101170000Y-113030000D03*
X102030000Y-113030000D03*
%TD*%
D23*
%TO.C,C_SWCAN_2*%
X89159996Y-109220000D03*
X86360000Y-109220000D03*
%TD*%
D17*
%TO.C,C_VR1_BIAS1*%
X182030000Y-143510000D03*
X183730000Y-143510000D03*
%TD*%
%TO.C,C_VR1_BST1*%
X178650000Y-129540000D03*
X176950000Y-129540000D03*
%TD*%
D19*
%TO.C,C_VR1_in1*%
X172720000Y-137289998D03*
X172720000Y-134490002D03*
%TD*%
D17*
%TO.C,C_VR2_BIAS1*%
X119380000Y-137160000D03*
X117680000Y-137160000D03*
%TD*%
D24*
%TO.C,C_VR2_BST1*%
X104140000Y-132080000D03*
X104140000Y-130380000D03*
%TD*%
D19*
%TO.C,C_VR2_in1*%
X102870000Y-137030002D03*
X102870000Y-139829998D03*
%TD*%
D17*
%TO.C,C_VS_1*%
X121490000Y-113030000D03*
X123190000Y-113030000D03*
%TD*%
D25*
%TO.C,CN1*%
X134850000Y-151130000D03*
X137140000Y-151130000D03*
X139430001Y-151130000D03*
X141719998Y-151130000D03*
X144009999Y-151130000D03*
X135995001Y-148590000D03*
X138284999Y-148590000D03*
X140575000Y-148590000D03*
X142865000Y-148590000D03*
X145155001Y-148590000D03*
X134850000Y-146050000D03*
X137140000Y-146050000D03*
X139430001Y-146050000D03*
X141719998Y-146050000D03*
X144009999Y-146050000D03*
D26*
X127205000Y-148590000D03*
X152195000Y-148590000D03*
%TD*%
%TO.C,CP_STN_1*%
G36*
G01*
X145870000Y-61680000D02*
X145870000Y-62780000D01*
G75*
G02*
X145620000Y-63030000I-250000J0D01*
G01*
X143520000Y-63030000D01*
G75*
G02*
X143270000Y-62780000I0J250000D01*
G01*
X143270000Y-61680000D01*
G75*
G02*
X143520000Y-61430000I250000J0D01*
G01*
X145620000Y-61430000D01*
G75*
G02*
X145870000Y-61680000I0J-250000D01*
G01*
G37*
G36*
G01*
X142270000Y-61680000D02*
X142270000Y-62780000D01*
G75*
G02*
X142020000Y-63030000I-250000J0D01*
G01*
X139920000Y-63030000D01*
G75*
G02*
X139670000Y-62780000I0J250000D01*
G01*
X139670000Y-61680000D01*
G75*
G02*
X139920000Y-61430000I250000J0D01*
G01*
X142020000Y-61430000D01*
G75*
G02*
X142270000Y-61680000I0J-250000D01*
G01*
G37*
%TD*%
D27*
%TO.C,D_J1850_1*%
X204655001Y-91575001D03*
D28*
X197035001Y-91575001D03*
%TD*%
%TO.C,D_J1850_2*%
X207805001Y-91575001D03*
D27*
X215425001Y-91575001D03*
%TD*%
D28*
%TO.C,D_J1850_3*%
X197035001Y-95125001D03*
D27*
X204655001Y-95125001D03*
%TD*%
D28*
%TO.C,D_VS_1*%
X130810000Y-106680000D03*
D27*
X123190000Y-106680000D03*
%TD*%
%TO.C,D_VS_2*%
X123190000Y-101600000D03*
D28*
X130810000Y-101600000D03*
%TD*%
D29*
%TO.C,J_CN_1*%
X101520000Y-147320000D03*
X96520000Y-147320000D03*
%TD*%
%TO.C,J_CN_2*%
X111760000Y-147320000D03*
X116760000Y-147320000D03*
%TD*%
%TO.C,J_HST_1*%
X144780000Y-46990000D03*
X144780000Y-41990000D03*
%TD*%
%TO.C,J_HST_2*%
X154940000Y-46990000D03*
X154940000Y-41990000D03*
%TD*%
%TO.C,J_HST_3*%
X106680000Y-62230000D03*
X106680000Y-57230000D03*
%TD*%
%TO.C,J_HST_4*%
X93980000Y-57230000D03*
X93980000Y-62230000D03*
%TD*%
%TO.C,J_HST_5*%
X149860000Y-46910000D03*
X149860000Y-41910000D03*
%TD*%
%TO.C,J_HST_6*%
X100330000Y-62230000D03*
X100330000Y-57230000D03*
%TD*%
%TO.C,J_PS_1*%
X178990000Y-147320000D03*
X173990000Y-147320000D03*
%TD*%
%TO.C,J_PS_2*%
X153670000Y-119300000D03*
X153670000Y-114300000D03*
%TD*%
%TO.C,J_PSW_1*%
X128270000Y-114380000D03*
X128270000Y-119380000D03*
%TD*%
%TO.C,J_PSW_2*%
X134620000Y-119380000D03*
X134620000Y-114380000D03*
%TD*%
%TO.C,J_PSW_3*%
X146050000Y-114380000D03*
X146050000Y-119380000D03*
%TD*%
%TO.C,J_STN_1*%
X160020000Y-46990000D03*
X160020000Y-41990000D03*
%TD*%
%TO.C,J_STN_3*%
X165100000Y-46910000D03*
X165100000Y-41910000D03*
%TD*%
%TO.C,J_STN_RST1*%
X139700000Y-46910000D03*
X139700000Y-41910000D03*
%TD*%
%TO.C,J_SWCAN_1*%
X87630000Y-147320000D03*
X82630000Y-147320000D03*
%TD*%
D30*
%TO.C,L_VR1*%
X178073050Y-124460000D03*
X180066950Y-124460000D03*
%TD*%
%TO.C,L_VR2*%
X110763050Y-129540000D03*
X112756950Y-129540000D03*
%TD*%
%TO.C,LED_STN_1*%
G36*
G01*
X122752500Y-58676250D02*
X122752500Y-58163750D01*
G75*
G02*
X122971250Y-57945000I218750J0D01*
G01*
X123408750Y-57945000D01*
G75*
G02*
X123627500Y-58163750I0J-218750D01*
G01*
X123627500Y-58676250D01*
G75*
G02*
X123408750Y-58895000I-218750J0D01*
G01*
X122971250Y-58895000D01*
G75*
G02*
X122752500Y-58676250I0J218750D01*
G01*
G37*
G36*
G01*
X121177500Y-58676250D02*
X121177500Y-58163750D01*
G75*
G02*
X121396250Y-57945000I218750J0D01*
G01*
X121833750Y-57945000D01*
G75*
G02*
X122052500Y-58163750I0J-218750D01*
G01*
X122052500Y-58676250D01*
G75*
G02*
X121833750Y-58895000I-218750J0D01*
G01*
X121396250Y-58895000D01*
G75*
G02*
X121177500Y-58676250I0J218750D01*
G01*
G37*
%TD*%
%TO.C,LED_STN_2*%
G36*
G01*
X126257500Y-58676250D02*
X126257500Y-58163750D01*
G75*
G02*
X126476250Y-57945000I218750J0D01*
G01*
X126913750Y-57945000D01*
G75*
G02*
X127132500Y-58163750I0J-218750D01*
G01*
X127132500Y-58676250D01*
G75*
G02*
X126913750Y-58895000I-218750J0D01*
G01*
X126476250Y-58895000D01*
G75*
G02*
X126257500Y-58676250I0J218750D01*
G01*
G37*
G36*
G01*
X127832500Y-58676250D02*
X127832500Y-58163750D01*
G75*
G02*
X128051250Y-57945000I218750J0D01*
G01*
X128488750Y-57945000D01*
G75*
G02*
X128707500Y-58163750I0J-218750D01*
G01*
X128707500Y-58676250D01*
G75*
G02*
X128488750Y-58895000I-218750J0D01*
G01*
X128051250Y-58895000D01*
G75*
G02*
X127832500Y-58676250I0J218750D01*
G01*
G37*
%TD*%
%TO.C,LED_STN_3*%
G36*
G01*
X132125000Y-58676250D02*
X132125000Y-58163750D01*
G75*
G02*
X132343750Y-57945000I218750J0D01*
G01*
X132781250Y-57945000D01*
G75*
G02*
X133000000Y-58163750I0J-218750D01*
G01*
X133000000Y-58676250D01*
G75*
G02*
X132781250Y-58895000I-218750J0D01*
G01*
X132343750Y-58895000D01*
G75*
G02*
X132125000Y-58676250I0J218750D01*
G01*
G37*
G36*
G01*
X133700000Y-58676250D02*
X133700000Y-58163750D01*
G75*
G02*
X133918750Y-57945000I218750J0D01*
G01*
X134356250Y-57945000D01*
G75*
G02*
X134575000Y-58163750I0J-218750D01*
G01*
X134575000Y-58676250D01*
G75*
G02*
X134356250Y-58895000I-218750J0D01*
G01*
X133918750Y-58895000D01*
G75*
G02*
X133700000Y-58676250I0J218750D01*
G01*
G37*
%TD*%
D31*
%TO.C,Q_HSCAN_1*%
X107395001Y-90205001D03*
X107395001Y-92105001D03*
X109695001Y-91155001D03*
%TD*%
D32*
%TO.C,Q_ISO_1*%
X167972001Y-80501600D03*
X169877001Y-80501600D03*
X168924501Y-78495000D03*
%TD*%
D33*
%TO.C,Q_ISO_3*%
X179995001Y-74315001D03*
X177995001Y-75265001D03*
X177995001Y-73365001D03*
%TD*%
D32*
%TO.C,Q_ISO_4*%
X168924501Y-73525000D03*
X169877001Y-75531600D03*
X167972001Y-75531600D03*
%TD*%
D33*
%TO.C,Q_ISO_5*%
X172485001Y-77815001D03*
X172485001Y-79715001D03*
X174485001Y-78765001D03*
%TD*%
D31*
%TO.C,Q_J1850_1*%
X208265001Y-101155001D03*
X205965001Y-102105001D03*
X205965001Y-100205001D03*
%TD*%
%TO.C,Q_J1850_2*%
X214355001Y-95625001D03*
X212055001Y-96575001D03*
X212055001Y-94675001D03*
%TD*%
%TO.C,Q_J1850_3*%
X220575001Y-95305001D03*
X218275001Y-96255001D03*
X218275001Y-94355001D03*
%TD*%
D34*
%TO.C,Q_J1850_4*%
X207558000Y-96968600D03*
X209458002Y-96968600D03*
X208508001Y-94682600D03*
%TD*%
D31*
%TO.C,Q_MSCAN_1*%
X177635001Y-97445001D03*
X177635001Y-99345001D03*
X179935001Y-98395001D03*
%TD*%
D16*
%TO.C,Q_PSW_1*%
X139070000Y-108270000D03*
X140970000Y-108270000D03*
X140020000Y-105970000D03*
%TD*%
D32*
%TO.C,Q_PSW_2*%
X137160000Y-98056700D03*
X135255000Y-98056700D03*
X136207500Y-100063300D03*
%TD*%
%TO.C,Q_PSW_3*%
X149542500Y-98056700D03*
X147637500Y-98056700D03*
X148590000Y-100063300D03*
%TD*%
%TO.C,Q_PSW_4*%
X142240000Y-100063300D03*
X141287500Y-98056700D03*
X143192500Y-98056700D03*
%TD*%
D16*
%TO.C,Q_SWCAN_1*%
X81600000Y-131960000D03*
X83500000Y-131960000D03*
X82550000Y-129660000D03*
%TD*%
D35*
%TO.C,R_COMP5*%
X135440000Y-72390000D03*
X133800000Y-72390000D03*
%TD*%
%TO.C,R_COMP_1*%
X135440000Y-82550000D03*
X133800000Y-82550000D03*
%TD*%
%TO.C,R_COMP_2*%
X135440000Y-85090000D03*
X133800000Y-85090000D03*
%TD*%
%TO.C,R_COMP_3*%
X135440000Y-80010000D03*
X133800000Y-80010000D03*
%TD*%
%TO.C,R_COMP_4*%
X133800000Y-74930000D03*
X135440000Y-74930000D03*
%TD*%
%TO.C,R_COMP_6*%
X133800000Y-87630000D03*
X135440000Y-87630000D03*
%TD*%
%TO.C,R_COMP_7*%
X133800000Y-90170000D03*
X135440000Y-90170000D03*
%TD*%
%TO.C,R_COMP_8*%
X153220000Y-87630000D03*
X151580000Y-87630000D03*
%TD*%
%TO.C,R_COMP_9*%
X153220000Y-90170000D03*
X151580000Y-90170000D03*
%TD*%
%TO.C,R_COMP_10*%
X151580000Y-82550000D03*
X153220000Y-82550000D03*
%TD*%
%TO.C,R_COMP_11*%
X151580000Y-72390000D03*
X153220000Y-72390000D03*
%TD*%
%TO.C,R_HSCAN_1*%
X106640001Y-97380001D03*
X108280001Y-97380001D03*
%TD*%
D36*
%TO.C,R_HSCAN_2*%
X99307001Y-90495001D03*
X96417001Y-90495001D03*
%TD*%
%TO.C,R_HSCAN_3*%
X96417001Y-93725001D03*
X99307001Y-93725001D03*
%TD*%
D37*
%TO.C,R_ISO_1*%
X182950201Y-77820201D03*
X181350201Y-77820201D03*
%TD*%
D38*
%TO.C,R_ISO_2*%
X177003001Y-80985001D03*
X178883001Y-80985001D03*
%TD*%
%TO.C,R_ISO_3*%
X178883001Y-78055001D03*
X177003001Y-78055001D03*
%TD*%
D37*
%TO.C,R_ISO_4*%
X181350201Y-80280201D03*
X182950201Y-80280201D03*
%TD*%
D36*
%TO.C,R_J1850_1*%
X205187001Y-105065001D03*
X202297001Y-105065001D03*
%TD*%
%TO.C,R_J1850_2*%
X199667001Y-105065001D03*
X196777001Y-105065001D03*
%TD*%
%TO.C,R_J1850_3*%
X218317001Y-91415001D03*
X221207001Y-91415001D03*
%TD*%
D35*
%TO.C,R_J1850_4*%
X224660001Y-94270001D03*
X223020001Y-94270001D03*
%TD*%
%TO.C,R_J1850_5*%
X211730001Y-102730001D03*
X213370001Y-102730001D03*
%TD*%
%TO.C,R_J1850_6*%
X218440001Y-98820001D03*
X216800001Y-98820001D03*
%TD*%
D39*
%TO.C,R_J1850_7*%
X207798001Y-104716001D03*
X209268001Y-104716001D03*
%TD*%
D35*
%TO.C,R_J1850_8*%
X225330001Y-91040001D03*
X223690001Y-91040001D03*
%TD*%
%TO.C,R_MSCAN_1*%
X176880001Y-104620001D03*
X178520001Y-104620001D03*
%TD*%
D36*
%TO.C,R_MSCAN_2*%
X166657001Y-97735001D03*
X169547001Y-97735001D03*
%TD*%
%TO.C,R_MSCAN_3*%
X169547001Y-100965001D03*
X166657001Y-100965001D03*
%TD*%
D40*
%TO.C,R_PSW_1*%
X139700000Y-113850000D03*
X139700000Y-112210000D03*
%TD*%
D35*
%TO.C,R_PSW_2*%
X146870000Y-107950000D03*
X145230000Y-107950000D03*
%TD*%
D37*
%TO.C,R_STN_1*%
X146380000Y-50800000D03*
X144780000Y-50800000D03*
%TD*%
D36*
%TO.C,R_STN_2*%
X124635000Y-62230000D03*
X121745000Y-62230000D03*
%TD*%
%TO.C,R_STN_3*%
X126825000Y-62230000D03*
X129715000Y-62230000D03*
%TD*%
%TO.C,R_STN_4*%
X131905000Y-62230000D03*
X134795000Y-62230000D03*
%TD*%
D35*
%TO.C,R_STN_5*%
X165920000Y-63500000D03*
X164280000Y-63500000D03*
%TD*%
%TO.C,R_STN_6*%
X169360000Y-55880000D03*
X171000000Y-55880000D03*
%TD*%
D41*
%TO.C,R_STN_7*%
X169745000Y-58420000D03*
X170615000Y-58420000D03*
%TD*%
D35*
%TO.C,R_STN_8*%
X164280000Y-60960000D03*
X165920000Y-60960000D03*
%TD*%
%TO.C,R_SWCAN_1*%
X95700000Y-109220000D03*
X97340000Y-109220000D03*
%TD*%
D37*
%TO.C,R_SWCAN_2*%
X86830000Y-113030000D03*
X88430000Y-113030000D03*
%TD*%
D39*
%TO.C,R_SWCAN_3*%
X68448001Y-125316001D03*
X66978001Y-125316001D03*
%TD*%
D35*
%TO.C,R_SWCAN_4*%
X76530001Y-124520001D03*
X74890001Y-124520001D03*
%TD*%
%TO.C,R_SWCAN_5*%
X72550001Y-127000001D03*
X70910001Y-127000001D03*
%TD*%
D42*
%TO.C,R_SWCAN_6*%
X82550000Y-141251000D03*
X82550000Y-140689000D03*
%TD*%
D35*
%TO.C,R_SWCAN_7*%
X70910001Y-124520001D03*
X72550001Y-124520001D03*
%TD*%
%TO.C,R_VR2_1*%
X109670000Y-133350000D03*
X111310000Y-133350000D03*
%TD*%
%TO.C,R_VR2_2*%
X120200000Y-133350000D03*
X118560000Y-133350000D03*
%TD*%
D43*
%TO.C,R_VS_1*%
X121920000Y-124810000D03*
X121920000Y-121920000D03*
%TD*%
D36*
%TO.C,R_VS_2*%
X120475000Y-116840000D03*
X123365000Y-116840000D03*
%TD*%
D44*
%TO.C,SW_STN_1*%
X144865001Y-57479999D03*
X144865001Y-54280001D03*
X139614999Y-54280001D03*
X139614999Y-57479999D03*
%TD*%
D45*
%TO.C,U_COMP_1*%
X139700000Y-72390000D03*
D46*
X139700000Y-74930000D03*
X139700000Y-77470000D03*
X139700000Y-80010000D03*
X139700000Y-82550000D03*
X139700000Y-85090000D03*
X139700000Y-87630000D03*
X147320000Y-87630000D03*
X147320000Y-85090000D03*
X147320000Y-82550000D03*
X147320000Y-80010000D03*
X147320000Y-77470000D03*
X147320000Y-74930000D03*
X147320000Y-72390000D03*
%TD*%
D47*
%TO.C,U_HSCAN_1*%
X103497600Y-91208801D03*
D48*
X104866800Y-90233802D03*
X104866800Y-90883800D03*
X104866800Y-91533802D03*
X104866800Y-92183800D03*
X102128400Y-92183800D03*
X102128400Y-91533802D03*
X102128400Y-90883800D03*
X102128400Y-90233802D03*
%TD*%
D49*
%TO.C,U_J1850_1*%
X197830001Y-98270001D03*
X197830001Y-99540001D03*
X197830001Y-100810001D03*
X197830001Y-102080001D03*
X203080001Y-102080001D03*
X203080001Y-100810001D03*
X203080001Y-99540001D03*
X203080001Y-98270001D03*
%TD*%
D50*
%TO.C,U_MM_1*%
X104250000Y-68330000D03*
X104250000Y-68830000D03*
X104250000Y-67830000D03*
X104250000Y-69330000D03*
X106570000Y-68330000D03*
X106570000Y-68830000D03*
X106570000Y-67830000D03*
X106570000Y-69330000D03*
D51*
X104910000Y-67670000D03*
X105410000Y-67670000D03*
X105910000Y-67670000D03*
X104910000Y-69490000D03*
X105410000Y-69490000D03*
X105910000Y-69490000D03*
%TD*%
D48*
%TO.C,U_MSCAN_1*%
X172368400Y-97473802D03*
X172368400Y-98123800D03*
X172368400Y-98773802D03*
X172368400Y-99423800D03*
X175106800Y-99423800D03*
X175106800Y-98773802D03*
X175106800Y-98123800D03*
X175106800Y-97473802D03*
D47*
X173737600Y-98448801D03*
%TD*%
%TO.C,U_STN_1*%
G36*
G01*
X150590000Y-55257500D02*
X150590000Y-55082500D01*
G75*
G02*
X150677500Y-54995000I87500J0D01*
G01*
X151327500Y-54995000D01*
G75*
G02*
X151415000Y-55082500I0J-87500D01*
G01*
X151415000Y-55257500D01*
G75*
G02*
X151327500Y-55345000I-87500J0D01*
G01*
X150677500Y-55345000D01*
G75*
G02*
X150590000Y-55257500I0J87500D01*
G01*
G37*
G36*
G01*
X150590000Y-55907500D02*
X150590000Y-55732500D01*
G75*
G02*
X150677500Y-55645000I87500J0D01*
G01*
X151327500Y-55645000D01*
G75*
G02*
X151415000Y-55732500I0J-87500D01*
G01*
X151415000Y-55907500D01*
G75*
G02*
X151327500Y-55995000I-87500J0D01*
G01*
X150677500Y-55995000D01*
G75*
G02*
X150590000Y-55907500I0J87500D01*
G01*
G37*
G36*
G01*
X150590000Y-56557500D02*
X150590000Y-56382500D01*
G75*
G02*
X150677500Y-56295000I87500J0D01*
G01*
X151327500Y-56295000D01*
G75*
G02*
X151415000Y-56382500I0J-87500D01*
G01*
X151415000Y-56557500D01*
G75*
G02*
X151327500Y-56645000I-87500J0D01*
G01*
X150677500Y-56645000D01*
G75*
G02*
X150590000Y-56557500I0J87500D01*
G01*
G37*
G36*
G01*
X150590000Y-57207500D02*
X150590000Y-57032500D01*
G75*
G02*
X150677500Y-56945000I87500J0D01*
G01*
X151327500Y-56945000D01*
G75*
G02*
X151415000Y-57032500I0J-87500D01*
G01*
X151415000Y-57207500D01*
G75*
G02*
X151327500Y-57295000I-87500J0D01*
G01*
X150677500Y-57295000D01*
G75*
G02*
X150590000Y-57207500I0J87500D01*
G01*
G37*
G36*
G01*
X150590000Y-57857500D02*
X150590000Y-57682500D01*
G75*
G02*
X150677500Y-57595000I87500J0D01*
G01*
X151327500Y-57595000D01*
G75*
G02*
X151415000Y-57682500I0J-87500D01*
G01*
X151415000Y-57857500D01*
G75*
G02*
X151327500Y-57945000I-87500J0D01*
G01*
X150677500Y-57945000D01*
G75*
G02*
X150590000Y-57857500I0J87500D01*
G01*
G37*
G36*
G01*
X150590000Y-58507500D02*
X150590000Y-58332500D01*
G75*
G02*
X150677500Y-58245000I87500J0D01*
G01*
X151327500Y-58245000D01*
G75*
G02*
X151415000Y-58332500I0J-87500D01*
G01*
X151415000Y-58507500D01*
G75*
G02*
X151327500Y-58595000I-87500J0D01*
G01*
X150677500Y-58595000D01*
G75*
G02*
X150590000Y-58507500I0J87500D01*
G01*
G37*
G36*
G01*
X150590000Y-59157500D02*
X150590000Y-58982500D01*
G75*
G02*
X150677500Y-58895000I87500J0D01*
G01*
X151327500Y-58895000D01*
G75*
G02*
X151415000Y-58982500I0J-87500D01*
G01*
X151415000Y-59157500D01*
G75*
G02*
X151327500Y-59245000I-87500J0D01*
G01*
X150677500Y-59245000D01*
G75*
G02*
X150590000Y-59157500I0J87500D01*
G01*
G37*
G36*
G01*
X150590000Y-59807500D02*
X150590000Y-59632500D01*
G75*
G02*
X150677500Y-59545000I87500J0D01*
G01*
X151327500Y-59545000D01*
G75*
G02*
X151415000Y-59632500I0J-87500D01*
G01*
X151415000Y-59807500D01*
G75*
G02*
X151327500Y-59895000I-87500J0D01*
G01*
X150677500Y-59895000D01*
G75*
G02*
X150590000Y-59807500I0J87500D01*
G01*
G37*
G36*
G01*
X150590000Y-60457500D02*
X150590000Y-60282500D01*
G75*
G02*
X150677500Y-60195000I87500J0D01*
G01*
X151327500Y-60195000D01*
G75*
G02*
X151415000Y-60282500I0J-87500D01*
G01*
X151415000Y-60457500D01*
G75*
G02*
X151327500Y-60545000I-87500J0D01*
G01*
X150677500Y-60545000D01*
G75*
G02*
X150590000Y-60457500I0J87500D01*
G01*
G37*
G36*
G01*
X150590000Y-61107500D02*
X150590000Y-60932500D01*
G75*
G02*
X150677500Y-60845000I87500J0D01*
G01*
X151327500Y-60845000D01*
G75*
G02*
X151415000Y-60932500I0J-87500D01*
G01*
X151415000Y-61107500D01*
G75*
G02*
X151327500Y-61195000I-87500J0D01*
G01*
X150677500Y-61195000D01*
G75*
G02*
X150590000Y-61107500I0J87500D01*
G01*
G37*
G36*
G01*
X150590000Y-61757500D02*
X150590000Y-61582500D01*
G75*
G02*
X150677500Y-61495000I87500J0D01*
G01*
X151327500Y-61495000D01*
G75*
G02*
X151415000Y-61582500I0J-87500D01*
G01*
X151415000Y-61757500D01*
G75*
G02*
X151327500Y-61845000I-87500J0D01*
G01*
X150677500Y-61845000D01*
G75*
G02*
X150590000Y-61757500I0J87500D01*
G01*
G37*
G36*
G01*
X151515000Y-62682500D02*
X151515000Y-62032500D01*
G75*
G02*
X151602500Y-61945000I87500J0D01*
G01*
X151777500Y-61945000D01*
G75*
G02*
X151865000Y-62032500I0J-87500D01*
G01*
X151865000Y-62682500D01*
G75*
G02*
X151777500Y-62770000I-87500J0D01*
G01*
X151602500Y-62770000D01*
G75*
G02*
X151515000Y-62682500I0J87500D01*
G01*
G37*
G36*
G01*
X152165000Y-62682500D02*
X152165000Y-62032500D01*
G75*
G02*
X152252500Y-61945000I87500J0D01*
G01*
X152427500Y-61945000D01*
G75*
G02*
X152515000Y-62032500I0J-87500D01*
G01*
X152515000Y-62682500D01*
G75*
G02*
X152427500Y-62770000I-87500J0D01*
G01*
X152252500Y-62770000D01*
G75*
G02*
X152165000Y-62682500I0J87500D01*
G01*
G37*
G36*
G01*
X152815000Y-62682500D02*
X152815000Y-62032500D01*
G75*
G02*
X152902500Y-61945000I87500J0D01*
G01*
X153077500Y-61945000D01*
G75*
G02*
X153165000Y-62032500I0J-87500D01*
G01*
X153165000Y-62682500D01*
G75*
G02*
X153077500Y-62770000I-87500J0D01*
G01*
X152902500Y-62770000D01*
G75*
G02*
X152815000Y-62682500I0J87500D01*
G01*
G37*
G36*
G01*
X153465000Y-62682500D02*
X153465000Y-62032500D01*
G75*
G02*
X153552500Y-61945000I87500J0D01*
G01*
X153727500Y-61945000D01*
G75*
G02*
X153815000Y-62032500I0J-87500D01*
G01*
X153815000Y-62682500D01*
G75*
G02*
X153727500Y-62770000I-87500J0D01*
G01*
X153552500Y-62770000D01*
G75*
G02*
X153465000Y-62682500I0J87500D01*
G01*
G37*
G36*
G01*
X154115000Y-62682500D02*
X154115000Y-62032500D01*
G75*
G02*
X154202500Y-61945000I87500J0D01*
G01*
X154377500Y-61945000D01*
G75*
G02*
X154465000Y-62032500I0J-87500D01*
G01*
X154465000Y-62682500D01*
G75*
G02*
X154377500Y-62770000I-87500J0D01*
G01*
X154202500Y-62770000D01*
G75*
G02*
X154115000Y-62682500I0J87500D01*
G01*
G37*
G36*
G01*
X154765000Y-62682500D02*
X154765000Y-62032500D01*
G75*
G02*
X154852500Y-61945000I87500J0D01*
G01*
X155027500Y-61945000D01*
G75*
G02*
X155115000Y-62032500I0J-87500D01*
G01*
X155115000Y-62682500D01*
G75*
G02*
X155027500Y-62770000I-87500J0D01*
G01*
X154852500Y-62770000D01*
G75*
G02*
X154765000Y-62682500I0J87500D01*
G01*
G37*
G36*
G01*
X155415000Y-62682500D02*
X155415000Y-62032500D01*
G75*
G02*
X155502500Y-61945000I87500J0D01*
G01*
X155677500Y-61945000D01*
G75*
G02*
X155765000Y-62032500I0J-87500D01*
G01*
X155765000Y-62682500D01*
G75*
G02*
X155677500Y-62770000I-87500J0D01*
G01*
X155502500Y-62770000D01*
G75*
G02*
X155415000Y-62682500I0J87500D01*
G01*
G37*
G36*
G01*
X156065000Y-62682500D02*
X156065000Y-62032500D01*
G75*
G02*
X156152500Y-61945000I87500J0D01*
G01*
X156327500Y-61945000D01*
G75*
G02*
X156415000Y-62032500I0J-87500D01*
G01*
X156415000Y-62682500D01*
G75*
G02*
X156327500Y-62770000I-87500J0D01*
G01*
X156152500Y-62770000D01*
G75*
G02*
X156065000Y-62682500I0J87500D01*
G01*
G37*
G36*
G01*
X156715000Y-62682500D02*
X156715000Y-62032500D01*
G75*
G02*
X156802500Y-61945000I87500J0D01*
G01*
X156977500Y-61945000D01*
G75*
G02*
X157065000Y-62032500I0J-87500D01*
G01*
X157065000Y-62682500D01*
G75*
G02*
X156977500Y-62770000I-87500J0D01*
G01*
X156802500Y-62770000D01*
G75*
G02*
X156715000Y-62682500I0J87500D01*
G01*
G37*
G36*
G01*
X157365000Y-62682500D02*
X157365000Y-62032500D01*
G75*
G02*
X157452500Y-61945000I87500J0D01*
G01*
X157627500Y-61945000D01*
G75*
G02*
X157715000Y-62032500I0J-87500D01*
G01*
X157715000Y-62682500D01*
G75*
G02*
X157627500Y-62770000I-87500J0D01*
G01*
X157452500Y-62770000D01*
G75*
G02*
X157365000Y-62682500I0J87500D01*
G01*
G37*
G36*
G01*
X158015000Y-62682500D02*
X158015000Y-62032500D01*
G75*
G02*
X158102500Y-61945000I87500J0D01*
G01*
X158277500Y-61945000D01*
G75*
G02*
X158365000Y-62032500I0J-87500D01*
G01*
X158365000Y-62682500D01*
G75*
G02*
X158277500Y-62770000I-87500J0D01*
G01*
X158102500Y-62770000D01*
G75*
G02*
X158015000Y-62682500I0J87500D01*
G01*
G37*
G36*
G01*
X158465000Y-61757500D02*
X158465000Y-61582500D01*
G75*
G02*
X158552500Y-61495000I87500J0D01*
G01*
X159202500Y-61495000D01*
G75*
G02*
X159290000Y-61582500I0J-87500D01*
G01*
X159290000Y-61757500D01*
G75*
G02*
X159202500Y-61845000I-87500J0D01*
G01*
X158552500Y-61845000D01*
G75*
G02*
X158465000Y-61757500I0J87500D01*
G01*
G37*
G36*
G01*
X158465000Y-61107500D02*
X158465000Y-60932500D01*
G75*
G02*
X158552500Y-60845000I87500J0D01*
G01*
X159202500Y-60845000D01*
G75*
G02*
X159290000Y-60932500I0J-87500D01*
G01*
X159290000Y-61107500D01*
G75*
G02*
X159202500Y-61195000I-87500J0D01*
G01*
X158552500Y-61195000D01*
G75*
G02*
X158465000Y-61107500I0J87500D01*
G01*
G37*
G36*
G01*
X158465000Y-60457500D02*
X158465000Y-60282500D01*
G75*
G02*
X158552500Y-60195000I87500J0D01*
G01*
X159202500Y-60195000D01*
G75*
G02*
X159290000Y-60282500I0J-87500D01*
G01*
X159290000Y-60457500D01*
G75*
G02*
X159202500Y-60545000I-87500J0D01*
G01*
X158552500Y-60545000D01*
G75*
G02*
X158465000Y-60457500I0J87500D01*
G01*
G37*
G36*
G01*
X158465000Y-59807500D02*
X158465000Y-59632500D01*
G75*
G02*
X158552500Y-59545000I87500J0D01*
G01*
X159202500Y-59545000D01*
G75*
G02*
X159290000Y-59632500I0J-87500D01*
G01*
X159290000Y-59807500D01*
G75*
G02*
X159202500Y-59895000I-87500J0D01*
G01*
X158552500Y-59895000D01*
G75*
G02*
X158465000Y-59807500I0J87500D01*
G01*
G37*
G36*
G01*
X158465000Y-59157500D02*
X158465000Y-58982500D01*
G75*
G02*
X158552500Y-58895000I87500J0D01*
G01*
X159202500Y-58895000D01*
G75*
G02*
X159290000Y-58982500I0J-87500D01*
G01*
X159290000Y-59157500D01*
G75*
G02*
X159202500Y-59245000I-87500J0D01*
G01*
X158552500Y-59245000D01*
G75*
G02*
X158465000Y-59157500I0J87500D01*
G01*
G37*
G36*
G01*
X158465000Y-58507500D02*
X158465000Y-58332500D01*
G75*
G02*
X158552500Y-58245000I87500J0D01*
G01*
X159202500Y-58245000D01*
G75*
G02*
X159290000Y-58332500I0J-87500D01*
G01*
X159290000Y-58507500D01*
G75*
G02*
X159202500Y-58595000I-87500J0D01*
G01*
X158552500Y-58595000D01*
G75*
G02*
X158465000Y-58507500I0J87500D01*
G01*
G37*
G36*
G01*
X158465000Y-57857500D02*
X158465000Y-57682500D01*
G75*
G02*
X158552500Y-57595000I87500J0D01*
G01*
X159202500Y-57595000D01*
G75*
G02*
X159290000Y-57682500I0J-87500D01*
G01*
X159290000Y-57857500D01*
G75*
G02*
X159202500Y-57945000I-87500J0D01*
G01*
X158552500Y-57945000D01*
G75*
G02*
X158465000Y-57857500I0J87500D01*
G01*
G37*
G36*
G01*
X158465000Y-57207500D02*
X158465000Y-57032500D01*
G75*
G02*
X158552500Y-56945000I87500J0D01*
G01*
X159202500Y-56945000D01*
G75*
G02*
X159290000Y-57032500I0J-87500D01*
G01*
X159290000Y-57207500D01*
G75*
G02*
X159202500Y-57295000I-87500J0D01*
G01*
X158552500Y-57295000D01*
G75*
G02*
X158465000Y-57207500I0J87500D01*
G01*
G37*
G36*
G01*
X158465000Y-56557500D02*
X158465000Y-56382500D01*
G75*
G02*
X158552500Y-56295000I87500J0D01*
G01*
X159202500Y-56295000D01*
G75*
G02*
X159290000Y-56382500I0J-87500D01*
G01*
X159290000Y-56557500D01*
G75*
G02*
X159202500Y-56645000I-87500J0D01*
G01*
X158552500Y-56645000D01*
G75*
G02*
X158465000Y-56557500I0J87500D01*
G01*
G37*
G36*
G01*
X158465000Y-55907500D02*
X158465000Y-55732500D01*
G75*
G02*
X158552500Y-55645000I87500J0D01*
G01*
X159202500Y-55645000D01*
G75*
G02*
X159290000Y-55732500I0J-87500D01*
G01*
X159290000Y-55907500D01*
G75*
G02*
X159202500Y-55995000I-87500J0D01*
G01*
X158552500Y-55995000D01*
G75*
G02*
X158465000Y-55907500I0J87500D01*
G01*
G37*
G36*
G01*
X158465000Y-55257500D02*
X158465000Y-55082500D01*
G75*
G02*
X158552500Y-54995000I87500J0D01*
G01*
X159202500Y-54995000D01*
G75*
G02*
X159290000Y-55082500I0J-87500D01*
G01*
X159290000Y-55257500D01*
G75*
G02*
X159202500Y-55345000I-87500J0D01*
G01*
X158552500Y-55345000D01*
G75*
G02*
X158465000Y-55257500I0J87500D01*
G01*
G37*
G36*
G01*
X158015000Y-54807500D02*
X158015000Y-54157500D01*
G75*
G02*
X158102500Y-54070000I87500J0D01*
G01*
X158277500Y-54070000D01*
G75*
G02*
X158365000Y-54157500I0J-87500D01*
G01*
X158365000Y-54807500D01*
G75*
G02*
X158277500Y-54895000I-87500J0D01*
G01*
X158102500Y-54895000D01*
G75*
G02*
X158015000Y-54807500I0J87500D01*
G01*
G37*
G36*
G01*
X157365000Y-54807500D02*
X157365000Y-54157500D01*
G75*
G02*
X157452500Y-54070000I87500J0D01*
G01*
X157627500Y-54070000D01*
G75*
G02*
X157715000Y-54157500I0J-87500D01*
G01*
X157715000Y-54807500D01*
G75*
G02*
X157627500Y-54895000I-87500J0D01*
G01*
X157452500Y-54895000D01*
G75*
G02*
X157365000Y-54807500I0J87500D01*
G01*
G37*
G36*
G01*
X156715000Y-54807500D02*
X156715000Y-54157500D01*
G75*
G02*
X156802500Y-54070000I87500J0D01*
G01*
X156977500Y-54070000D01*
G75*
G02*
X157065000Y-54157500I0J-87500D01*
G01*
X157065000Y-54807500D01*
G75*
G02*
X156977500Y-54895000I-87500J0D01*
G01*
X156802500Y-54895000D01*
G75*
G02*
X156715000Y-54807500I0J87500D01*
G01*
G37*
G36*
G01*
X156065000Y-54807500D02*
X156065000Y-54157500D01*
G75*
G02*
X156152500Y-54070000I87500J0D01*
G01*
X156327500Y-54070000D01*
G75*
G02*
X156415000Y-54157500I0J-87500D01*
G01*
X156415000Y-54807500D01*
G75*
G02*
X156327500Y-54895000I-87500J0D01*
G01*
X156152500Y-54895000D01*
G75*
G02*
X156065000Y-54807500I0J87500D01*
G01*
G37*
G36*
G01*
X155415000Y-54807500D02*
X155415000Y-54157500D01*
G75*
G02*
X155502500Y-54070000I87500J0D01*
G01*
X155677500Y-54070000D01*
G75*
G02*
X155765000Y-54157500I0J-87500D01*
G01*
X155765000Y-54807500D01*
G75*
G02*
X155677500Y-54895000I-87500J0D01*
G01*
X155502500Y-54895000D01*
G75*
G02*
X155415000Y-54807500I0J87500D01*
G01*
G37*
G36*
G01*
X154765000Y-54807500D02*
X154765000Y-54157500D01*
G75*
G02*
X154852500Y-54070000I87500J0D01*
G01*
X155027500Y-54070000D01*
G75*
G02*
X155115000Y-54157500I0J-87500D01*
G01*
X155115000Y-54807500D01*
G75*
G02*
X155027500Y-54895000I-87500J0D01*
G01*
X154852500Y-54895000D01*
G75*
G02*
X154765000Y-54807500I0J87500D01*
G01*
G37*
G36*
G01*
X154115000Y-54807500D02*
X154115000Y-54157500D01*
G75*
G02*
X154202500Y-54070000I87500J0D01*
G01*
X154377500Y-54070000D01*
G75*
G02*
X154465000Y-54157500I0J-87500D01*
G01*
X154465000Y-54807500D01*
G75*
G02*
X154377500Y-54895000I-87500J0D01*
G01*
X154202500Y-54895000D01*
G75*
G02*
X154115000Y-54807500I0J87500D01*
G01*
G37*
G36*
G01*
X153465000Y-54807500D02*
X153465000Y-54157500D01*
G75*
G02*
X153552500Y-54070000I87500J0D01*
G01*
X153727500Y-54070000D01*
G75*
G02*
X153815000Y-54157500I0J-87500D01*
G01*
X153815000Y-54807500D01*
G75*
G02*
X153727500Y-54895000I-87500J0D01*
G01*
X153552500Y-54895000D01*
G75*
G02*
X153465000Y-54807500I0J87500D01*
G01*
G37*
G36*
G01*
X152815000Y-54807500D02*
X152815000Y-54157500D01*
G75*
G02*
X152902500Y-54070000I87500J0D01*
G01*
X153077500Y-54070000D01*
G75*
G02*
X153165000Y-54157500I0J-87500D01*
G01*
X153165000Y-54807500D01*
G75*
G02*
X153077500Y-54895000I-87500J0D01*
G01*
X152902500Y-54895000D01*
G75*
G02*
X152815000Y-54807500I0J87500D01*
G01*
G37*
G36*
G01*
X152165000Y-54807500D02*
X152165000Y-54157500D01*
G75*
G02*
X152252500Y-54070000I87500J0D01*
G01*
X152427500Y-54070000D01*
G75*
G02*
X152515000Y-54157500I0J-87500D01*
G01*
X152515000Y-54807500D01*
G75*
G02*
X152427500Y-54895000I-87500J0D01*
G01*
X152252500Y-54895000D01*
G75*
G02*
X152165000Y-54807500I0J87500D01*
G01*
G37*
G36*
G01*
X151515000Y-54807500D02*
X151515000Y-54157500D01*
G75*
G02*
X151602500Y-54070000I87500J0D01*
G01*
X151777500Y-54070000D01*
G75*
G02*
X151865000Y-54157500I0J-87500D01*
G01*
X151865000Y-54807500D01*
G75*
G02*
X151777500Y-54895000I-87500J0D01*
G01*
X151602500Y-54895000D01*
G75*
G02*
X151515000Y-54807500I0J87500D01*
G01*
G37*
D52*
X154940000Y-58420000D03*
%TD*%
D53*
%TO.C,U_SWCAN_1*%
X68335152Y-110490000D03*
X68335152Y-111760000D03*
X68335152Y-113030000D03*
X68335152Y-114300000D03*
X68335152Y-115570000D03*
X68335152Y-116840000D03*
X68335152Y-118110000D03*
X73904848Y-118110000D03*
X73904848Y-116840000D03*
X73904848Y-115570000D03*
X73904848Y-114300000D03*
X73904848Y-113030000D03*
X73904848Y-111760000D03*
X73904848Y-110490000D03*
%TD*%
D54*
%TO.C,U_VR1*%
X177650000Y-134640000D03*
X177650000Y-135139999D03*
X177650000Y-135640000D03*
X177650000Y-136140000D03*
X177650000Y-136640001D03*
X177650000Y-137140000D03*
X180490000Y-137140000D03*
X180490000Y-136640001D03*
X180490000Y-136140000D03*
X180490000Y-135640000D03*
X180490000Y-135139999D03*
X180490000Y-134640000D03*
D55*
X179070000Y-135890000D03*
%TD*%
%TO.C,U_VR2*%
X109220000Y-138430000D03*
D54*
X110640000Y-137180000D03*
X110640000Y-137679999D03*
X110640000Y-138180000D03*
X110640000Y-138680000D03*
X110640000Y-139180001D03*
X110640000Y-139680000D03*
X107800000Y-139680000D03*
X107800000Y-139180001D03*
X107800000Y-138680000D03*
X107800000Y-138180000D03*
X107800000Y-137679999D03*
X107800000Y-137180000D03*
%TD*%
D56*
%TO.C,Y_STN_1*%
X178540000Y-53340000D03*
X180340000Y-53340000D03*
X180340000Y-51940000D03*
X178540000Y-51940000D03*
%TD*%
M02*
