%TF.GenerationSoftware,KiCad,Pcbnew,(5.1.7)-1*%
%TF.CreationDate,2020-11-30T00:01:55-08:00*%
%TF.ProjectId,Reader,52656164-6572-42e6-9b69-6361645f7063,0.0.05*%
%TF.SameCoordinates,Original*%
%TF.FileFunction,Other,Fab,Bot*%
%FSLAX46Y46*%
G04 Gerber Fmt 4.6, Leading zero omitted, Abs format (unit mm)*
G04 Created by KiCad (PCBNEW (5.1.7)-1) date 2020-11-30 00:01:55*
%MOMM*%
%LPD*%
G01*
G04 APERTURE LIST*
%ADD10C,0.127000*%
%ADD11C,0.010000*%
%ADD12C,0.101600*%
%ADD13C,0.152400*%
%ADD14C,0.200000*%
%ADD15C,0.150000*%
G04 APERTURE END LIST*
D10*
%TO.C,R_STN_10*%
X95542000Y-111722000D02*
X95542000Y-113322000D01*
X96482000Y-111722000D02*
X96482000Y-113322000D01*
X95542000Y-111722000D02*
X96482000Y-111722000D01*
X95542000Y-113322000D02*
X96482000Y-113322000D01*
D11*
%TO.C,C_ESP_1*%
G36*
X87807119Y-58955900D02*
G01*
X87307700Y-58955900D01*
X87307700Y-59906869D01*
X87807119Y-59906869D01*
X87807119Y-58955900D01*
G37*
X87807119Y-58955900D02*
X87307700Y-58955900D01*
X87307700Y-59906869D01*
X87807119Y-59906869D01*
X87807119Y-58955900D01*
G36*
X88976606Y-58955900D02*
G01*
X88476100Y-58955900D01*
X88476100Y-59906129D01*
X88976606Y-59906129D01*
X88976606Y-58955900D01*
G37*
X88976606Y-58955900D02*
X88476100Y-58955900D01*
X88476100Y-59906129D01*
X88976606Y-59906129D01*
X88976606Y-58955900D01*
D12*
X88494000Y-59855000D02*
X87782000Y-59855000D01*
X88494000Y-59004000D02*
X87782000Y-59004000D01*
D11*
%TO.C,C_HSCAN_1*%
G36*
X75973900Y-92850381D02*
G01*
X75973900Y-93349800D01*
X76924869Y-93349800D01*
X76924869Y-92850381D01*
X75973900Y-92850381D01*
G37*
X75973900Y-92850381D02*
X75973900Y-93349800D01*
X76924869Y-93349800D01*
X76924869Y-92850381D01*
X75973900Y-92850381D01*
G36*
X75973900Y-91680894D02*
G01*
X75973900Y-92181400D01*
X76924129Y-92181400D01*
X76924129Y-91680894D01*
X75973900Y-91680894D01*
G37*
X75973900Y-91680894D02*
X75973900Y-92181400D01*
X76924129Y-92181400D01*
X76924129Y-91680894D01*
X75973900Y-91680894D01*
D12*
X76873000Y-92163500D02*
X76873000Y-92875500D01*
X76022000Y-92163500D02*
X76022000Y-92875500D01*
%TO.C,C_HSCAN_2*%
X85864500Y-92354000D02*
X85864500Y-93066000D01*
X86715500Y-92354000D02*
X86715500Y-93066000D01*
D11*
G36*
X85816400Y-91871394D02*
G01*
X85816400Y-92371900D01*
X86766629Y-92371900D01*
X86766629Y-91871394D01*
X85816400Y-91871394D01*
G37*
X85816400Y-91871394D02*
X85816400Y-92371900D01*
X86766629Y-92371900D01*
X86766629Y-91871394D01*
X85816400Y-91871394D01*
G36*
X85816400Y-93040881D02*
G01*
X85816400Y-93540300D01*
X86767369Y-93540300D01*
X86767369Y-93040881D01*
X85816400Y-93040881D01*
G37*
X85816400Y-93040881D02*
X85816400Y-93540300D01*
X86767369Y-93540300D01*
X86767369Y-93040881D01*
X85816400Y-93040881D01*
D13*
%TO.C,C_PS_1*%
X108400000Y-154548002D02*
X108400000Y-156347998D01*
X108400000Y-156347998D02*
X107650001Y-156347998D01*
X107650001Y-156347998D02*
X107650001Y-154548002D01*
X107650001Y-154548002D02*
X108400000Y-154548002D01*
X110299996Y-156347998D02*
X110299996Y-154548002D01*
X110299996Y-154548002D02*
X111049995Y-154548002D01*
X111049995Y-154548002D02*
X111049995Y-156347998D01*
X111049995Y-156347998D02*
X110299996Y-156347998D01*
X107650001Y-154548002D02*
X111049995Y-154548002D01*
X111049995Y-154548002D02*
X111049995Y-156347998D01*
X111049995Y-156347998D02*
X107650001Y-156347998D01*
X107650001Y-156347998D02*
X107650001Y-154548002D01*
%TO.C,D_ESD_3*%
X109108200Y-159626300D02*
G75*
G03*
X109108200Y-159626300I-76200J0D01*
G01*
X108534200Y-160667700D02*
X108534200Y-159372300D01*
X111429800Y-160667700D02*
X108534200Y-160667700D01*
X111429800Y-159372300D02*
X111429800Y-160667700D01*
X108534200Y-159372300D02*
X111429800Y-159372300D01*
X109728000Y-161315400D02*
X109728000Y-160667700D01*
X110236000Y-161315400D02*
X109728000Y-161315400D01*
X110236000Y-160667700D02*
X110236000Y-161315400D01*
X109728000Y-160667700D02*
X110236000Y-160667700D01*
X111186000Y-158724600D02*
X111186000Y-159372300D01*
X110678000Y-158724600D02*
X111186000Y-158724600D01*
X110678000Y-159372300D02*
X110678000Y-158724600D01*
X111186000Y-159372300D02*
X110678000Y-159372300D01*
X109286000Y-158724600D02*
X109286000Y-159372300D01*
X108778000Y-158724600D02*
X109286000Y-158724600D01*
X108778000Y-159372300D02*
X108778000Y-158724600D01*
X109286000Y-159372300D02*
X108778000Y-159372300D01*
D14*
%TO.C,D_ESD_4*%
X92630000Y-155069500D02*
G75*
G03*
X92630000Y-155069500I-100000J0D01*
G01*
D10*
X90820000Y-154569500D02*
X89520000Y-154569500D01*
X90820000Y-157469500D02*
X90820000Y-154569500D01*
X89520000Y-157469500D02*
X90820000Y-157469500D01*
X89520000Y-154569500D02*
X89520000Y-157469500D01*
%TO.C,D_ESD_5*%
X95070000Y-161114500D02*
X97970000Y-161114500D01*
X97970000Y-161114500D02*
X97970000Y-159814500D01*
X97970000Y-159814500D02*
X95070000Y-159814500D01*
X95070000Y-159814500D02*
X95070000Y-161114500D01*
D14*
X95670000Y-158104500D02*
G75*
G03*
X95670000Y-158104500I-100000J0D01*
G01*
D10*
%TO.C,R_COMP_5*%
X119893500Y-104560000D02*
X118993500Y-104560000D01*
X119893500Y-106260000D02*
X118993500Y-106260000D01*
X118993500Y-106260000D02*
X118993500Y-104560000D01*
X119893500Y-106260000D02*
X119893500Y-104560000D01*
%TO.C,R_COMP_4*%
X118930000Y-110260500D02*
X119830000Y-110260500D01*
X118930000Y-108560500D02*
X119830000Y-108560500D01*
X119830000Y-108560500D02*
X119830000Y-110260500D01*
X118930000Y-108560500D02*
X118930000Y-110260500D01*
%TO.C,R_COMP_11*%
X122433500Y-106196500D02*
X122433500Y-104496500D01*
X121533500Y-106196500D02*
X121533500Y-104496500D01*
X122433500Y-106196500D02*
X121533500Y-106196500D01*
X122433500Y-104496500D02*
X121533500Y-104496500D01*
%TO.C,R_ESP_4*%
X121989000Y-66529000D02*
X121089000Y-66529000D01*
X121989000Y-68229000D02*
X121089000Y-68229000D01*
X121089000Y-68229000D02*
X121089000Y-66529000D01*
X121989000Y-68229000D02*
X121989000Y-66529000D01*
%TO.C,R_ESP_5*%
X117894000Y-66764000D02*
X117894000Y-68364000D01*
X118834000Y-66764000D02*
X118834000Y-68364000D01*
X117894000Y-66764000D02*
X118834000Y-66764000D01*
X117894000Y-68364000D02*
X118834000Y-68364000D01*
%TO.C,R_HSCAN_1*%
X78906000Y-78798000D02*
X78906000Y-79698000D01*
X80606000Y-78798000D02*
X80606000Y-79698000D01*
X80606000Y-79698000D02*
X78906000Y-79698000D01*
X80606000Y-78798000D02*
X78906000Y-78798000D01*
%TO.C,R_HSCAN_2*%
X77411000Y-89958500D02*
X77411000Y-86698500D01*
X75751000Y-89958500D02*
X75751000Y-86698500D01*
X77411000Y-89958500D02*
X75751000Y-89958500D01*
X77411000Y-86698500D02*
X75751000Y-86698500D01*
%TO.C,R_HSCAN_3*%
X86999500Y-86762000D02*
X85339500Y-86762000D01*
X86999500Y-90022000D02*
X85339500Y-90022000D01*
X85339500Y-90022000D02*
X85339500Y-86762000D01*
X86999500Y-90022000D02*
X86999500Y-86762000D01*
%TO.C,R_J1850_2*%
X105535000Y-129360500D02*
X106555000Y-129360500D01*
X105535000Y-127560500D02*
X106555000Y-127560500D01*
X106555000Y-127560500D02*
X106555000Y-129360500D01*
X105535000Y-127560500D02*
X105535000Y-129360500D01*
%TO.C,R_J1850_6*%
X79951000Y-122957000D02*
X78291000Y-122957000D01*
X79951000Y-126217000D02*
X78291000Y-126217000D01*
X78291000Y-126217000D02*
X78291000Y-122957000D01*
X79951000Y-126217000D02*
X79951000Y-122957000D01*
%TO.C,R_STN_7*%
X93982000Y-95896000D02*
X93982000Y-94096000D01*
X92962000Y-95896000D02*
X92962000Y-94096000D01*
X93982000Y-95896000D02*
X92962000Y-95896000D01*
X93982000Y-94096000D02*
X92962000Y-94096000D01*
%TO.C,R_STN_8*%
X96268000Y-94096000D02*
X95248000Y-94096000D01*
X96268000Y-95896000D02*
X95248000Y-95896000D01*
X95248000Y-95896000D02*
X95248000Y-94096000D01*
X96268000Y-95896000D02*
X96268000Y-94096000D01*
%TO.C,R_STN_13*%
X106622000Y-99734000D02*
X105722000Y-99734000D01*
X106622000Y-101434000D02*
X105722000Y-101434000D01*
X105722000Y-101434000D02*
X105722000Y-99734000D01*
X106622000Y-101434000D02*
X106622000Y-99734000D01*
%TD*%
%TO.C,C_PS_1*%
D15*
X109349998Y-154900380D02*
X109349998Y-155138476D01*
X109588093Y-155043238D02*
X109349998Y-155138476D01*
X109111902Y-155043238D01*
X109492855Y-155328952D02*
X109349998Y-155138476D01*
X109207140Y-155328952D01*
%TO.C,D_ESD_3*%
X109982000Y-159472380D02*
X109982000Y-159710476D01*
X110220095Y-159615238D02*
X109982000Y-159710476D01*
X109743904Y-159615238D01*
X110124857Y-159900952D02*
X109982000Y-159710476D01*
X109839142Y-159900952D01*
%TD*%
M02*
