M48
; DRILL file {KiCad (5.1.7)-1} date 11/30/20 00:01:51
; FORMAT={-:-/ absolute / metric / decimal}
; #@! TF.CreationDate,2020-11-30T00:01:51-08:00
; #@! TF.GenerationSoftware,Kicad,Pcbnew,(5.1.7)-1
; #@! TF.FileFunction,Plated,1,4,PTH
FMAT,2
METRIC
T1C0.200
T2C0.320
T3C0.787
T4C1.000
T5C1.041
T6C3.302
%
G90
G05
T1
X94.1Y-101.847
X94.1Y-103.037
X94.1Y-104.227
X94.1Y-105.417
X95.29Y-101.847
X95.29Y-103.037
X95.29Y-104.227
X95.29Y-105.417
X96.48Y-101.847
X96.48Y-103.037
X96.48Y-104.227
X96.48Y-105.417
X97.67Y-101.847
X97.67Y-103.037
X97.67Y-104.227
X97.67Y-105.417
T2
X69.13Y-79.502
X69.13Y-143.764
X70.358Y-87.63
X70.358Y-141.986
X71.628Y-158.242
X71.628Y-161.29
X72.136Y-162.814
X72.644Y-116.332
X72.644Y-146.304
X73.406Y-86.106
X73.66Y-148.59
X73.914Y-81.28
X73.914Y-82.804
X73.914Y-152.908
X74.168Y-85.598
X74.168Y-87.122
X74.422Y-74.676
X74.745Y-57.785
X75.438Y-68.834
X75.946Y-78.994
X75.946Y-82.042
X76.2Y-163.068
X76.454Y-130.302
X77.216Y-134.112
X77.724Y-169.418
X78.232Y-75.184
X78.486Y-73.914
X78.486Y-82.042
X78.486Y-102.362
X79.121Y-126.032
X79.248Y-100.33
X79.502Y-116.84
X80.01Y-86.614
X80.518Y-156.464
X80.576Y-79.248
X81.026Y-76.708
X81.026Y-77.978
X81.026Y-125.222
X81.534Y-142.494
X81.788Y-117.094
X82.042Y-132.588
X82.477Y-136.334
X82.55Y-86.614
X82.804Y-159.004
X83.058Y-109.474
X83.312Y-110.49
X83.566Y-98.298
X83.82Y-139.954
X84.074Y-109.474
X84.582Y-137.668
X84.836Y-82.296
X85.09Y-69.85
X86.106Y-72.898
X86.36Y-117.094
X86.478Y-77.842
X86.614Y-82.55
X86.868Y-57.658
X87.122Y-61.214
X87.122Y-73.914
X87.376Y-120.904
X87.448Y-108.276
X87.653Y-130.048
X87.8Y-79.164
X88.392Y-109.982
X88.646Y-104.902
X88.9Y-88.646
X89.154Y-78.74
X89.154Y-87.63
X89.535Y-70.015
X89.558Y-102.857
X90.18Y-102.354
X90.678Y-80.01
X90.932Y-76.2
X91.186Y-84.582
X91.186Y-110.998
X91.694Y-69.596
X91.948Y-68.834
X91.948Y-70.612
X91.948Y-71.628
X92.456Y-132.334
X92.51Y-72.844
X92.71Y-97.536
X92.71Y-136.652
X92.964Y-157.226
X93.335Y-98.044
X93.472Y-94.261
X93.472Y-95.731
X93.726Y-112.776
X93.98Y-66.802
X93.98Y-83.312
X94.535Y-97.028
X94.742Y-110.744
X96.774Y-118.11
X97.282Y-112.268
X97.67Y-95.878
X97.79Y-110.236
X98.806Y-153.919
X99.314Y-131.318
X99.568Y-128.27
X101.6Y-64.262
X102.312Y-101.032
X102.362Y-98.806
X102.362Y-107.95
X102.87Y-120.904
X103.124Y-105.664
X103.124Y-106.934
X103.162Y-107.95
X103.632Y-99.568
X103.632Y-102.87
X103.632Y-129.286
X103.775Y-71.635
X104.14Y-162.306
X104.394Y-135.382
X105.664Y-126.238
X105.664Y-159.512
X106.355Y-88.681
X106.426Y-87.884
X107.442Y-110.452
X107.442Y-111.252
X108.712Y-92.71
X108.966Y-98.044
X108.966Y-112.268
X109.22Y-109.474
X109.982Y-101.082
X110.236Y-102.616
X111.263Y-118.808
X112.014Y-130.302
X112.268Y-139.192
X113.792Y-141.732
X115.732Y-96.254
X115.824Y-71.628
X115.824Y-99.568
X115.824Y-102.616
X116.078Y-104.14
X116.332Y-86.614
X116.332Y-138.684
X116.84Y-63.5
X116.84Y-75.692
X116.84Y-159.258
X117.094Y-80.01
X117.856Y-102.87
X117.856Y-128.524
X118.11Y-130.048
X119.126Y-151.384
X119.38Y-92.71
X119.634Y-82.042
X119.888Y-161.798
X120.65Y-101.854
X120.709Y-119.693
X120.904Y-109.728
X120.904Y-126.238
X121.158Y-100.838
X121.488Y-76.793
X121.539Y-80.391
X121.666Y-85.852
X121.92Y-157.48
X122.428Y-64.262
X123.444Y-163.83
X123.952Y-86.36
X123.952Y-99.06
X124.206Y-71.628
X124.714Y-101.092
X124.968Y-166.37
X125.73Y-82.042
X125.73Y-141.986
X126.492Y-145.796
X126.492Y-156.718
X126.492Y-161.036
X127.254Y-123.952
T3
X116.713Y-106.045
X116.713Y-108.585
X116.713Y-111.125
X116.713Y-113.665
X116.713Y-116.205
X116.713Y-118.745
X116.713Y-121.285
X124.333Y-106.045
X124.333Y-108.585
X124.333Y-111.125
X124.333Y-113.665
X124.333Y-116.205
X124.333Y-118.745
X124.333Y-121.285
T4
X89.281Y-142.177
X91.821Y-142.177
X94.361Y-142.177
X96.901Y-142.177
X99.441Y-142.177
X101.981Y-142.177
X104.521Y-142.177
X107.061Y-142.177
X94.424Y-85.979
X96.965Y-85.979
X99.504Y-85.979
X102.044Y-85.979
X104.584Y-85.979
X107.124Y-85.979
X109.664Y-85.979
X112.204Y-85.979
X99.695Y-91.44
X102.235Y-91.44
X92.075Y-91.44
X94.615Y-91.44
X105.981Y-103.95
X105.981Y-106.489
X74.676Y-145.796
X77.216Y-145.796
X79.756Y-145.796
X82.296Y-145.796
X84.836Y-145.796
X87.376Y-145.796
X89.916Y-145.796
X92.456Y-145.796
X94.996Y-145.796
X97.536Y-145.796
X100.076Y-145.796
X102.616Y-145.796
X105.156Y-145.796
X107.696Y-145.796
X110.236Y-145.796
X112.776Y-145.796
X115.316Y-145.796
X117.856Y-145.796
X120.396Y-145.796
X122.936Y-145.796
X79.883Y-91.249
X82.423Y-91.249
X127.508Y-58.42
X127.508Y-60.96
X127.508Y-63.5
X127.508Y-66.04
X127.508Y-68.58
X127.508Y-71.12
X127.508Y-73.66
X127.508Y-76.2
X127.508Y-78.74
X127.508Y-81.28
X127.508Y-83.82
X127.508Y-86.36
X127.508Y-88.9
X127.508Y-91.44
X127.508Y-93.98
X127.508Y-96.52
X127.508Y-99.06
X127.508Y-101.6
X127.508Y-104.14
X127.508Y-106.68
X101.409Y-113.665
X101.409Y-116.205
X71.12Y-58.42
X71.12Y-60.96
X71.12Y-63.5
X71.12Y-66.04
X71.12Y-68.58
X71.12Y-71.12
X71.12Y-73.66
X71.12Y-76.2
X71.12Y-78.74
X71.12Y-81.28
X71.12Y-83.82
X71.12Y-86.36
X71.12Y-88.9
X71.12Y-91.44
X71.12Y-93.98
X71.12Y-96.52
X71.12Y-99.06
X71.12Y-101.6
X71.12Y-104.14
X71.12Y-106.68
T5
X94.21Y-150.114
X94.21Y-155.194
X95.355Y-152.654
X96.5Y-150.114
X96.5Y-155.194
X97.645Y-152.654
X98.79Y-150.114
X98.79Y-155.194
X99.935Y-152.654
X101.08Y-150.114
X101.08Y-155.194
X102.225Y-152.654
X103.37Y-150.114
X103.37Y-155.194
X104.515Y-152.654
T6
X86.565Y-152.654
X111.555Y-152.654
T0
M30
