%TF.GenerationSoftware,KiCad,Pcbnew,(5.1.7)-1*%
%TF.CreationDate,2020-12-02T23:54:22-08:00*%
%TF.ProjectId,Reader,52656164-6572-42e6-9b69-6361645f7063,0.0.05b*%
%TF.SameCoordinates,Original*%
%TF.FileFunction,Legend,Bot*%
%TF.FilePolarity,Positive*%
%FSLAX46Y46*%
G04 Gerber Fmt 4.6, Leading zero omitted, Abs format (unit mm)*
G04 Created by KiCad (PCBNEW (5.1.7)-1) date 2020-12-02 23:54:22*
%MOMM*%
%LPD*%
G01*
G04 APERTURE LIST*
%ADD10C,0.150000*%
%ADD11C,0.127000*%
%ADD12C,0.152400*%
%ADD13C,0.050000*%
%ADD14C,0.200000*%
%ADD15C,0.100000*%
%ADD16C,0.080000*%
%ADD17C,0.060000*%
%ADD18C,0.015000*%
%ADD19C,0.070000*%
G04 APERTURE END LIST*
D10*
X202071333Y-78176380D02*
X202071333Y-77176380D01*
X201690380Y-77176380D01*
X201595142Y-77224000D01*
X201547523Y-77271619D01*
X201499904Y-77366857D01*
X201499904Y-77509714D01*
X201547523Y-77604952D01*
X201595142Y-77652571D01*
X201690380Y-77700190D01*
X202071333Y-77700190D01*
X200642761Y-77509714D02*
X200642761Y-78176380D01*
X201071333Y-77509714D02*
X201071333Y-78033523D01*
X201023714Y-78128761D01*
X200928476Y-78176380D01*
X200785619Y-78176380D01*
X200690380Y-78128761D01*
X200642761Y-78081142D01*
X200166571Y-78176380D02*
X200166571Y-77176380D01*
X200166571Y-77557333D02*
X200071333Y-77509714D01*
X199880857Y-77509714D01*
X199785619Y-77557333D01*
X199738000Y-77604952D01*
X199690380Y-77700190D01*
X199690380Y-77985904D01*
X199738000Y-78081142D01*
X199785619Y-78128761D01*
X199880857Y-78176380D01*
X200071333Y-78176380D01*
X200166571Y-78128761D01*
X199118952Y-78176380D02*
X199214190Y-78128761D01*
X199261809Y-78033523D01*
X199261809Y-77176380D01*
X198738000Y-78176380D02*
X198738000Y-77509714D01*
X198738000Y-77176380D02*
X198785619Y-77224000D01*
X198738000Y-77271619D01*
X198690380Y-77224000D01*
X198738000Y-77176380D01*
X198738000Y-77271619D01*
X198309428Y-78128761D02*
X198214190Y-78176380D01*
X198023714Y-78176380D01*
X197928476Y-78128761D01*
X197880857Y-78033523D01*
X197880857Y-77985904D01*
X197928476Y-77890666D01*
X198023714Y-77843047D01*
X198166571Y-77843047D01*
X198261809Y-77795428D01*
X198309428Y-77700190D01*
X198309428Y-77652571D01*
X198261809Y-77557333D01*
X198166571Y-77509714D01*
X198023714Y-77509714D01*
X197928476Y-77557333D01*
X197452285Y-78176380D02*
X197452285Y-77176380D01*
X197023714Y-78176380D02*
X197023714Y-77652571D01*
X197071333Y-77557333D01*
X197166571Y-77509714D01*
X197309428Y-77509714D01*
X197404666Y-77557333D01*
X197452285Y-77604952D01*
X196166571Y-78128761D02*
X196261809Y-78176380D01*
X196452285Y-78176380D01*
X196547523Y-78128761D01*
X196595142Y-78033523D01*
X196595142Y-77652571D01*
X196547523Y-77557333D01*
X196452285Y-77509714D01*
X196261809Y-77509714D01*
X196166571Y-77557333D01*
X196118952Y-77652571D01*
X196118952Y-77747809D01*
X196595142Y-77843047D01*
X195261809Y-78176380D02*
X195261809Y-77176380D01*
X195261809Y-78128761D02*
X195357047Y-78176380D01*
X195547523Y-78176380D01*
X195642761Y-78128761D01*
X195690380Y-78081142D01*
X195738000Y-77985904D01*
X195738000Y-77700190D01*
X195690380Y-77604952D01*
X195642761Y-77557333D01*
X195547523Y-77509714D01*
X195357047Y-77509714D01*
X195261809Y-77557333D01*
X193880857Y-78176380D02*
X193976095Y-78128761D01*
X194023714Y-78081142D01*
X194071333Y-77985904D01*
X194071333Y-77700190D01*
X194023714Y-77604952D01*
X193976095Y-77557333D01*
X193880857Y-77509714D01*
X193738000Y-77509714D01*
X193642761Y-77557333D01*
X193595142Y-77604952D01*
X193547523Y-77700190D01*
X193547523Y-77985904D01*
X193595142Y-78081142D01*
X193642761Y-78128761D01*
X193738000Y-78176380D01*
X193880857Y-78176380D01*
X193118952Y-77509714D02*
X193118952Y-78176380D01*
X193118952Y-77604952D02*
X193071333Y-77557333D01*
X192976095Y-77509714D01*
X192833238Y-77509714D01*
X192738000Y-77557333D01*
X192690380Y-77652571D01*
X192690380Y-78176380D01*
X191261809Y-77176380D02*
X191166571Y-77176380D01*
X191071333Y-77224000D01*
X191023714Y-77271619D01*
X190976095Y-77366857D01*
X190928476Y-77557333D01*
X190928476Y-77795428D01*
X190976095Y-77985904D01*
X191023714Y-78081142D01*
X191071333Y-78128761D01*
X191166571Y-78176380D01*
X191261809Y-78176380D01*
X191357047Y-78128761D01*
X191404666Y-78081142D01*
X191452285Y-77985904D01*
X191499904Y-77795428D01*
X191499904Y-77557333D01*
X191452285Y-77366857D01*
X191404666Y-77271619D01*
X191357047Y-77224000D01*
X191261809Y-77176380D01*
X190547523Y-77271619D02*
X190499904Y-77224000D01*
X190404666Y-77176380D01*
X190166571Y-77176380D01*
X190071333Y-77224000D01*
X190023714Y-77271619D01*
X189976095Y-77366857D01*
X189976095Y-77462095D01*
X190023714Y-77604952D01*
X190595142Y-78176380D01*
X189976095Y-78176380D01*
X188785619Y-78176380D02*
X188785619Y-77176380D01*
X188547523Y-77176380D01*
X188404666Y-77224000D01*
X188309428Y-77319238D01*
X188261809Y-77414476D01*
X188214190Y-77604952D01*
X188214190Y-77747809D01*
X188261809Y-77938285D01*
X188309428Y-78033523D01*
X188404666Y-78128761D01*
X188547523Y-78176380D01*
X188785619Y-78176380D01*
X187404666Y-78128761D02*
X187499904Y-78176380D01*
X187690380Y-78176380D01*
X187785619Y-78128761D01*
X187833238Y-78033523D01*
X187833238Y-77652571D01*
X187785619Y-77557333D01*
X187690380Y-77509714D01*
X187499904Y-77509714D01*
X187404666Y-77557333D01*
X187357047Y-77652571D01*
X187357047Y-77747809D01*
X187833238Y-77843047D01*
X186499904Y-78128761D02*
X186595142Y-78176380D01*
X186785619Y-78176380D01*
X186880857Y-78128761D01*
X186928476Y-78081142D01*
X186976095Y-77985904D01*
X186976095Y-77700190D01*
X186928476Y-77604952D01*
X186880857Y-77557333D01*
X186785619Y-77509714D01*
X186595142Y-77509714D01*
X186499904Y-77557333D01*
X185690380Y-78128761D02*
X185785619Y-78176380D01*
X185976095Y-78176380D01*
X186071333Y-78128761D01*
X186118952Y-78033523D01*
X186118952Y-77652571D01*
X186071333Y-77557333D01*
X185976095Y-77509714D01*
X185785619Y-77509714D01*
X185690380Y-77557333D01*
X185642761Y-77652571D01*
X185642761Y-77747809D01*
X186118952Y-77843047D01*
X185214190Y-78176380D02*
X185214190Y-77509714D01*
X185214190Y-77604952D02*
X185166571Y-77557333D01*
X185071333Y-77509714D01*
X184928476Y-77509714D01*
X184833238Y-77557333D01*
X184785619Y-77652571D01*
X184785619Y-78176380D01*
X184785619Y-77652571D02*
X184738000Y-77557333D01*
X184642761Y-77509714D01*
X184499904Y-77509714D01*
X184404666Y-77557333D01*
X184357047Y-77652571D01*
X184357047Y-78176380D01*
X183880857Y-78176380D02*
X183880857Y-77176380D01*
X183880857Y-77557333D02*
X183785619Y-77509714D01*
X183595142Y-77509714D01*
X183499904Y-77557333D01*
X183452285Y-77604952D01*
X183404666Y-77700190D01*
X183404666Y-77985904D01*
X183452285Y-78081142D01*
X183499904Y-78128761D01*
X183595142Y-78176380D01*
X183785619Y-78176380D01*
X183880857Y-78128761D01*
X182595142Y-78128761D02*
X182690380Y-78176380D01*
X182880857Y-78176380D01*
X182976095Y-78128761D01*
X183023714Y-78033523D01*
X183023714Y-77652571D01*
X182976095Y-77557333D01*
X182880857Y-77509714D01*
X182690380Y-77509714D01*
X182595142Y-77557333D01*
X182547523Y-77652571D01*
X182547523Y-77747809D01*
X183023714Y-77843047D01*
X182118952Y-78176380D02*
X182118952Y-77509714D01*
X182118952Y-77700190D02*
X182071333Y-77604952D01*
X182023714Y-77557333D01*
X181928476Y-77509714D01*
X181833238Y-77509714D01*
X180785619Y-77271619D02*
X180738000Y-77224000D01*
X180642761Y-77176380D01*
X180404666Y-77176380D01*
X180309428Y-77224000D01*
X180261809Y-77271619D01*
X180214190Y-77366857D01*
X180214190Y-77462095D01*
X180261809Y-77604952D01*
X180833238Y-78176380D01*
X180214190Y-78176380D01*
X179595142Y-77176380D02*
X179499904Y-77176380D01*
X179404666Y-77224000D01*
X179357047Y-77271619D01*
X179309428Y-77366857D01*
X179261809Y-77557333D01*
X179261809Y-77795428D01*
X179309428Y-77985904D01*
X179357047Y-78081142D01*
X179404666Y-78128761D01*
X179499904Y-78176380D01*
X179595142Y-78176380D01*
X179690380Y-78128761D01*
X179738000Y-78081142D01*
X179785619Y-77985904D01*
X179833238Y-77795428D01*
X179833238Y-77557333D01*
X179785619Y-77366857D01*
X179738000Y-77271619D01*
X179690380Y-77224000D01*
X179595142Y-77176380D01*
X178880857Y-77271619D02*
X178833238Y-77224000D01*
X178738000Y-77176380D01*
X178499904Y-77176380D01*
X178404666Y-77224000D01*
X178357047Y-77271619D01*
X178309428Y-77366857D01*
X178309428Y-77462095D01*
X178357047Y-77604952D01*
X178928476Y-78176380D01*
X178309428Y-78176380D01*
X177690380Y-77176380D02*
X177595142Y-77176380D01*
X177499904Y-77224000D01*
X177452285Y-77271619D01*
X177404666Y-77366857D01*
X177357047Y-77557333D01*
X177357047Y-77795428D01*
X177404666Y-77985904D01*
X177452285Y-78081142D01*
X177499904Y-78128761D01*
X177595142Y-78176380D01*
X177690380Y-78176380D01*
X177785619Y-78128761D01*
X177833238Y-78081142D01*
X177880857Y-77985904D01*
X177928476Y-77795428D01*
X177928476Y-77557333D01*
X177880857Y-77366857D01*
X177833238Y-77271619D01*
X177785619Y-77224000D01*
X177690380Y-77176380D01*
X201539428Y-75795142D02*
X201587047Y-75842761D01*
X201729904Y-75890380D01*
X201825142Y-75890380D01*
X201968000Y-75842761D01*
X202063238Y-75747523D01*
X202110857Y-75652285D01*
X202158476Y-75461809D01*
X202158476Y-75318952D01*
X202110857Y-75128476D01*
X202063238Y-75033238D01*
X201968000Y-74938000D01*
X201825142Y-74890380D01*
X201729904Y-74890380D01*
X201587047Y-74938000D01*
X201539428Y-74985619D01*
X201158476Y-75604666D02*
X200682285Y-75604666D01*
X201253714Y-75890380D02*
X200920380Y-74890380D01*
X200587047Y-75890380D01*
X200253714Y-75890380D02*
X200253714Y-74890380D01*
X199682285Y-75890380D01*
X199682285Y-74890380D01*
X199348952Y-75223714D02*
X198968000Y-75223714D01*
X199206095Y-74890380D02*
X199206095Y-75747523D01*
X199158476Y-75842761D01*
X199063238Y-75890380D01*
X198968000Y-75890380D01*
X198253714Y-75842761D02*
X198348952Y-75890380D01*
X198539428Y-75890380D01*
X198634666Y-75842761D01*
X198682285Y-75747523D01*
X198682285Y-75366571D01*
X198634666Y-75271333D01*
X198539428Y-75223714D01*
X198348952Y-75223714D01*
X198253714Y-75271333D01*
X198206095Y-75366571D01*
X198206095Y-75461809D01*
X198682285Y-75557047D01*
X197348952Y-75842761D02*
X197444190Y-75890380D01*
X197634666Y-75890380D01*
X197729904Y-75842761D01*
X197777523Y-75795142D01*
X197825142Y-75699904D01*
X197825142Y-75414190D01*
X197777523Y-75318952D01*
X197729904Y-75271333D01*
X197634666Y-75223714D01*
X197444190Y-75223714D01*
X197348952Y-75271333D01*
X196920380Y-75890380D02*
X196920380Y-74890380D01*
X196491809Y-75890380D02*
X196491809Y-75366571D01*
X196539428Y-75271333D01*
X196634666Y-75223714D01*
X196777523Y-75223714D01*
X196872761Y-75271333D01*
X196920380Y-75318952D01*
X195015619Y-76223714D02*
X195015619Y-74795142D01*
X192968000Y-75795142D02*
X193015619Y-75842761D01*
X193158476Y-75890380D01*
X193253714Y-75890380D01*
X193396571Y-75842761D01*
X193491809Y-75747523D01*
X193539428Y-75652285D01*
X193587047Y-75461809D01*
X193587047Y-75318952D01*
X193539428Y-75128476D01*
X193491809Y-75033238D01*
X193396571Y-74938000D01*
X193253714Y-74890380D01*
X193158476Y-74890380D01*
X193015619Y-74938000D01*
X192968000Y-74985619D01*
X192587047Y-75604666D02*
X192110857Y-75604666D01*
X192682285Y-75890380D02*
X192348952Y-74890380D01*
X192015619Y-75890380D01*
X191682285Y-75890380D02*
X191682285Y-74890380D01*
X191110857Y-75890380D01*
X191110857Y-74890380D01*
X190634666Y-75223714D02*
X190634666Y-75890380D01*
X190634666Y-75318952D02*
X190587047Y-75271333D01*
X190491809Y-75223714D01*
X190348952Y-75223714D01*
X190253714Y-75271333D01*
X190206095Y-75366571D01*
X190206095Y-75890380D01*
X189348952Y-75842761D02*
X189444190Y-75890380D01*
X189634666Y-75890380D01*
X189729904Y-75842761D01*
X189777523Y-75747523D01*
X189777523Y-75366571D01*
X189729904Y-75271333D01*
X189634666Y-75223714D01*
X189444190Y-75223714D01*
X189348952Y-75271333D01*
X189301333Y-75366571D01*
X189301333Y-75461809D01*
X189777523Y-75557047D01*
X188444190Y-75842761D02*
X188539428Y-75890380D01*
X188729904Y-75890380D01*
X188825142Y-75842761D01*
X188872761Y-75795142D01*
X188920380Y-75699904D01*
X188920380Y-75414190D01*
X188872761Y-75318952D01*
X188825142Y-75271333D01*
X188729904Y-75223714D01*
X188539428Y-75223714D01*
X188444190Y-75271333D01*
X188158476Y-75223714D02*
X187777523Y-75223714D01*
X188015619Y-74890380D02*
X188015619Y-75747523D01*
X187968000Y-75842761D01*
X187872761Y-75890380D01*
X187777523Y-75890380D01*
X186110857Y-75890380D02*
X186444190Y-75414190D01*
X186682285Y-75890380D02*
X186682285Y-74890380D01*
X186301333Y-74890380D01*
X186206095Y-74938000D01*
X186158476Y-74985619D01*
X186110857Y-75080857D01*
X186110857Y-75223714D01*
X186158476Y-75318952D01*
X186206095Y-75366571D01*
X186301333Y-75414190D01*
X186682285Y-75414190D01*
X185301333Y-75842761D02*
X185396571Y-75890380D01*
X185587047Y-75890380D01*
X185682285Y-75842761D01*
X185729904Y-75747523D01*
X185729904Y-75366571D01*
X185682285Y-75271333D01*
X185587047Y-75223714D01*
X185396571Y-75223714D01*
X185301333Y-75271333D01*
X185253714Y-75366571D01*
X185253714Y-75461809D01*
X185729904Y-75557047D01*
X184396571Y-75890380D02*
X184396571Y-75366571D01*
X184444190Y-75271333D01*
X184539428Y-75223714D01*
X184729904Y-75223714D01*
X184825142Y-75271333D01*
X184396571Y-75842761D02*
X184491809Y-75890380D01*
X184729904Y-75890380D01*
X184825142Y-75842761D01*
X184872761Y-75747523D01*
X184872761Y-75652285D01*
X184825142Y-75557047D01*
X184729904Y-75509428D01*
X184491809Y-75509428D01*
X184396571Y-75461809D01*
X183491809Y-75890380D02*
X183491809Y-74890380D01*
X183491809Y-75842761D02*
X183587047Y-75890380D01*
X183777523Y-75890380D01*
X183872761Y-75842761D01*
X183920380Y-75795142D01*
X183968000Y-75699904D01*
X183968000Y-75414190D01*
X183920380Y-75318952D01*
X183872761Y-75271333D01*
X183777523Y-75223714D01*
X183587047Y-75223714D01*
X183491809Y-75271333D01*
X182634666Y-75842761D02*
X182729904Y-75890380D01*
X182920380Y-75890380D01*
X183015619Y-75842761D01*
X183063238Y-75747523D01*
X183063238Y-75366571D01*
X183015619Y-75271333D01*
X182920380Y-75223714D01*
X182729904Y-75223714D01*
X182634666Y-75271333D01*
X182587047Y-75366571D01*
X182587047Y-75461809D01*
X183063238Y-75557047D01*
X182158476Y-75890380D02*
X182158476Y-75223714D01*
X182158476Y-75414190D02*
X182110857Y-75318952D01*
X182063238Y-75271333D01*
X181968000Y-75223714D01*
X181872761Y-75223714D01*
X180872761Y-75223714D02*
X180634666Y-75890380D01*
X180396571Y-75223714D01*
X179825142Y-74890380D02*
X179729904Y-74890380D01*
X179634666Y-74938000D01*
X179587047Y-74985619D01*
X179539428Y-75080857D01*
X179491809Y-75271333D01*
X179491809Y-75509428D01*
X179539428Y-75699904D01*
X179587047Y-75795142D01*
X179634666Y-75842761D01*
X179729904Y-75890380D01*
X179825142Y-75890380D01*
X179920380Y-75842761D01*
X179968000Y-75795142D01*
X180015619Y-75699904D01*
X180063238Y-75509428D01*
X180063238Y-75271333D01*
X180015619Y-75080857D01*
X179968000Y-74985619D01*
X179920380Y-74938000D01*
X179825142Y-74890380D01*
X179063238Y-75795142D02*
X179015619Y-75842761D01*
X179063238Y-75890380D01*
X179110857Y-75842761D01*
X179063238Y-75795142D01*
X179063238Y-75890380D01*
X178396571Y-74890380D02*
X178301333Y-74890380D01*
X178206095Y-74938000D01*
X178158476Y-74985619D01*
X178110857Y-75080857D01*
X178063238Y-75271333D01*
X178063238Y-75509428D01*
X178110857Y-75699904D01*
X178158476Y-75795142D01*
X178206095Y-75842761D01*
X178301333Y-75890380D01*
X178396571Y-75890380D01*
X178491809Y-75842761D01*
X178539428Y-75795142D01*
X178587047Y-75699904D01*
X178634666Y-75509428D01*
X178634666Y-75271333D01*
X178587047Y-75080857D01*
X178539428Y-74985619D01*
X178491809Y-74938000D01*
X178396571Y-74890380D01*
X177634666Y-75795142D02*
X177587047Y-75842761D01*
X177634666Y-75890380D01*
X177682285Y-75842761D01*
X177634666Y-75795142D01*
X177634666Y-75890380D01*
X176968000Y-74890380D02*
X176872761Y-74890380D01*
X176777523Y-74938000D01*
X176729904Y-74985619D01*
X176682285Y-75080857D01*
X176634666Y-75271333D01*
X176634666Y-75509428D01*
X176682285Y-75699904D01*
X176729904Y-75795142D01*
X176777523Y-75842761D01*
X176872761Y-75890380D01*
X176968000Y-75890380D01*
X177063238Y-75842761D01*
X177110857Y-75795142D01*
X177158476Y-75699904D01*
X177206095Y-75509428D01*
X177206095Y-75271333D01*
X177158476Y-75080857D01*
X177110857Y-74985619D01*
X177063238Y-74938000D01*
X176968000Y-74890380D01*
X175729904Y-74890380D02*
X176206095Y-74890380D01*
X176253714Y-75366571D01*
X176206095Y-75318952D01*
X176110857Y-75271333D01*
X175872761Y-75271333D01*
X175777523Y-75318952D01*
X175729904Y-75366571D01*
X175682285Y-75461809D01*
X175682285Y-75699904D01*
X175729904Y-75795142D01*
X175777523Y-75842761D01*
X175872761Y-75890380D01*
X176110857Y-75890380D01*
X176206095Y-75842761D01*
X176253714Y-75795142D01*
X175253714Y-75890380D02*
X175253714Y-74890380D01*
X175253714Y-75271333D02*
X175158476Y-75223714D01*
X174968000Y-75223714D01*
X174872761Y-75271333D01*
X174825142Y-75318952D01*
X174777523Y-75414190D01*
X174777523Y-75699904D01*
X174825142Y-75795142D01*
X174872761Y-75842761D01*
X174968000Y-75890380D01*
X175158476Y-75890380D01*
X175253714Y-75842761D01*
X201427714Y-73255142D02*
X201475333Y-73302761D01*
X201618190Y-73350380D01*
X201713428Y-73350380D01*
X201856285Y-73302761D01*
X201951523Y-73207523D01*
X201999142Y-73112285D01*
X202046761Y-72921809D01*
X202046761Y-72778952D01*
X201999142Y-72588476D01*
X201951523Y-72493238D01*
X201856285Y-72398000D01*
X201713428Y-72350380D01*
X201618190Y-72350380D01*
X201475333Y-72398000D01*
X201427714Y-72445619D01*
X200999142Y-73350380D02*
X200999142Y-72683714D01*
X200999142Y-72874190D02*
X200951523Y-72778952D01*
X200903904Y-72731333D01*
X200808666Y-72683714D01*
X200713428Y-72683714D01*
X199999142Y-73302761D02*
X200094380Y-73350380D01*
X200284857Y-73350380D01*
X200380095Y-73302761D01*
X200427714Y-73207523D01*
X200427714Y-72826571D01*
X200380095Y-72731333D01*
X200284857Y-72683714D01*
X200094380Y-72683714D01*
X199999142Y-72731333D01*
X199951523Y-72826571D01*
X199951523Y-72921809D01*
X200427714Y-73017047D01*
X199094380Y-73350380D02*
X199094380Y-72826571D01*
X199142000Y-72731333D01*
X199237238Y-72683714D01*
X199427714Y-72683714D01*
X199522952Y-72731333D01*
X199094380Y-73302761D02*
X199189619Y-73350380D01*
X199427714Y-73350380D01*
X199522952Y-73302761D01*
X199570571Y-73207523D01*
X199570571Y-73112285D01*
X199522952Y-73017047D01*
X199427714Y-72969428D01*
X199189619Y-72969428D01*
X199094380Y-72921809D01*
X198761047Y-72683714D02*
X198380095Y-72683714D01*
X198618190Y-72350380D02*
X198618190Y-73207523D01*
X198570571Y-73302761D01*
X198475333Y-73350380D01*
X198380095Y-73350380D01*
X197665809Y-73302761D02*
X197761047Y-73350380D01*
X197951523Y-73350380D01*
X198046761Y-73302761D01*
X198094380Y-73207523D01*
X198094380Y-72826571D01*
X198046761Y-72731333D01*
X197951523Y-72683714D01*
X197761047Y-72683714D01*
X197665809Y-72731333D01*
X197618190Y-72826571D01*
X197618190Y-72921809D01*
X198094380Y-73017047D01*
X196761047Y-73350380D02*
X196761047Y-72350380D01*
X196761047Y-73302761D02*
X196856285Y-73350380D01*
X197046761Y-73350380D01*
X197142000Y-73302761D01*
X197189619Y-73255142D01*
X197237238Y-73159904D01*
X197237238Y-72874190D01*
X197189619Y-72778952D01*
X197142000Y-72731333D01*
X197046761Y-72683714D01*
X196856285Y-72683714D01*
X196761047Y-72731333D01*
X195522952Y-73350380D02*
X195522952Y-72350380D01*
X195522952Y-72731333D02*
X195427714Y-72683714D01*
X195237238Y-72683714D01*
X195142000Y-72731333D01*
X195094380Y-72778952D01*
X195046761Y-72874190D01*
X195046761Y-73159904D01*
X195094380Y-73255142D01*
X195142000Y-73302761D01*
X195237238Y-73350380D01*
X195427714Y-73350380D01*
X195522952Y-73302761D01*
X194713428Y-72683714D02*
X194475333Y-73350380D01*
X194237238Y-72683714D02*
X194475333Y-73350380D01*
X194570571Y-73588476D01*
X194618190Y-73636095D01*
X194713428Y-73683714D01*
X192522952Y-73255142D02*
X192570571Y-73302761D01*
X192713428Y-73350380D01*
X192808666Y-73350380D01*
X192951523Y-73302761D01*
X193046761Y-73207523D01*
X193094380Y-73112285D01*
X193142000Y-72921809D01*
X193142000Y-72778952D01*
X193094380Y-72588476D01*
X193046761Y-72493238D01*
X192951523Y-72398000D01*
X192808666Y-72350380D01*
X192713428Y-72350380D01*
X192570571Y-72398000D01*
X192522952Y-72445619D01*
X192094380Y-73350380D02*
X192094380Y-72350380D01*
X191665809Y-73350380D02*
X191665809Y-72826571D01*
X191713428Y-72731333D01*
X191808666Y-72683714D01*
X191951523Y-72683714D01*
X192046761Y-72731333D01*
X192094380Y-72778952D01*
X191046761Y-73350380D02*
X191142000Y-73302761D01*
X191189619Y-73255142D01*
X191237238Y-73159904D01*
X191237238Y-72874190D01*
X191189619Y-72778952D01*
X191142000Y-72731333D01*
X191046761Y-72683714D01*
X190903904Y-72683714D01*
X190808666Y-72731333D01*
X190761047Y-72778952D01*
X190713428Y-72874190D01*
X190713428Y-73159904D01*
X190761047Y-73255142D01*
X190808666Y-73302761D01*
X190903904Y-73350380D01*
X191046761Y-73350380D01*
X190142000Y-73350380D02*
X190237238Y-73302761D01*
X190284857Y-73255142D01*
X190332476Y-73159904D01*
X190332476Y-72874190D01*
X190284857Y-72778952D01*
X190237238Y-72731333D01*
X190142000Y-72683714D01*
X189999142Y-72683714D01*
X189903904Y-72731333D01*
X189856285Y-72778952D01*
X189808666Y-72874190D01*
X189808666Y-73159904D01*
X189856285Y-73255142D01*
X189903904Y-73302761D01*
X189999142Y-73350380D01*
X190142000Y-73350380D01*
X189380095Y-72683714D02*
X189380095Y-73350380D01*
X189380095Y-72778952D02*
X189332476Y-72731333D01*
X189237238Y-72683714D01*
X189094380Y-72683714D01*
X188999142Y-72731333D01*
X188951523Y-72826571D01*
X188951523Y-73350380D01*
X188046761Y-72683714D02*
X188046761Y-73493238D01*
X188094380Y-73588476D01*
X188142000Y-73636095D01*
X188237238Y-73683714D01*
X188380095Y-73683714D01*
X188475333Y-73636095D01*
X188046761Y-73302761D02*
X188142000Y-73350380D01*
X188332476Y-73350380D01*
X188427714Y-73302761D01*
X188475333Y-73255142D01*
X188522952Y-73159904D01*
X188522952Y-72874190D01*
X188475333Y-72778952D01*
X188427714Y-72731333D01*
X188332476Y-72683714D01*
X188142000Y-72683714D01*
X188046761Y-72731333D01*
X186522952Y-72350380D02*
X186522952Y-73064666D01*
X186570571Y-73207523D01*
X186665809Y-73302761D01*
X186808666Y-73350380D01*
X186903904Y-73350380D01*
X186046761Y-73350380D02*
X186046761Y-72683714D01*
X186046761Y-72350380D02*
X186094380Y-72398000D01*
X186046761Y-72445619D01*
X185999142Y-72398000D01*
X186046761Y-72350380D01*
X186046761Y-72445619D01*
X185570571Y-72683714D02*
X185570571Y-73350380D01*
X185570571Y-72778952D02*
X185522952Y-72731333D01*
X185427714Y-72683714D01*
X185284857Y-72683714D01*
X185189619Y-72731333D01*
X185142000Y-72826571D01*
X185142000Y-73350380D01*
X183903904Y-73350380D02*
X183903904Y-72350380D01*
X183332476Y-73350380D01*
X183332476Y-72350380D01*
X182427714Y-72683714D02*
X182427714Y-73493238D01*
X182475333Y-73588476D01*
X182522952Y-73636095D01*
X182618190Y-73683714D01*
X182761047Y-73683714D01*
X182856285Y-73636095D01*
X182427714Y-73302761D02*
X182522952Y-73350380D01*
X182713428Y-73350380D01*
X182808666Y-73302761D01*
X182856285Y-73255142D01*
X182903904Y-73159904D01*
X182903904Y-72874190D01*
X182856285Y-72778952D01*
X182808666Y-72731333D01*
X182713428Y-72683714D01*
X182522952Y-72683714D01*
X182427714Y-72731333D01*
X180951523Y-73683714D02*
X180951523Y-72255142D01*
X179475333Y-72683714D02*
X179475333Y-73540857D01*
X179522952Y-73636095D01*
X179618190Y-73683714D01*
X179665809Y-73683714D01*
X179475333Y-72350380D02*
X179522952Y-72398000D01*
X179475333Y-72445619D01*
X179427714Y-72398000D01*
X179475333Y-72350380D01*
X179475333Y-72445619D01*
X178999142Y-73350380D02*
X178999142Y-72683714D01*
X178999142Y-72350380D02*
X179046761Y-72398000D01*
X178999142Y-72445619D01*
X178951523Y-72398000D01*
X178999142Y-72350380D01*
X178999142Y-72445619D01*
X178522952Y-72683714D02*
X178522952Y-73350380D01*
X178522952Y-72778952D02*
X178475333Y-72731333D01*
X178380095Y-72683714D01*
X178237238Y-72683714D01*
X178142000Y-72731333D01*
X178094380Y-72826571D01*
X178094380Y-73350380D01*
X177475333Y-72778952D02*
X177570571Y-72731333D01*
X177618190Y-72683714D01*
X177665809Y-72588476D01*
X177665809Y-72540857D01*
X177618190Y-72445619D01*
X177570571Y-72398000D01*
X177475333Y-72350380D01*
X177284857Y-72350380D01*
X177189619Y-72398000D01*
X177142000Y-72445619D01*
X177094380Y-72540857D01*
X177094380Y-72588476D01*
X177142000Y-72683714D01*
X177189619Y-72731333D01*
X177284857Y-72778952D01*
X177475333Y-72778952D01*
X177570571Y-72826571D01*
X177618190Y-72874190D01*
X177665809Y-72969428D01*
X177665809Y-73159904D01*
X177618190Y-73255142D01*
X177570571Y-73302761D01*
X177475333Y-73350380D01*
X177284857Y-73350380D01*
X177189619Y-73302761D01*
X177142000Y-73255142D01*
X177094380Y-73159904D01*
X177094380Y-72969428D01*
X177142000Y-72874190D01*
X177189619Y-72826571D01*
X177284857Y-72778952D01*
X176761047Y-72350380D02*
X176142000Y-72350380D01*
X176475333Y-72731333D01*
X176332476Y-72731333D01*
X176237238Y-72778952D01*
X176189619Y-72826571D01*
X176142000Y-72921809D01*
X176142000Y-73159904D01*
X176189619Y-73255142D01*
X176237238Y-73302761D01*
X176332476Y-73350380D01*
X176618190Y-73350380D01*
X176713428Y-73302761D01*
X176761047Y-73255142D01*
X175570571Y-72778952D02*
X175665809Y-72731333D01*
X175713428Y-72683714D01*
X175761047Y-72588476D01*
X175761047Y-72540857D01*
X175713428Y-72445619D01*
X175665809Y-72398000D01*
X175570571Y-72350380D01*
X175380095Y-72350380D01*
X175284857Y-72398000D01*
X175237238Y-72445619D01*
X175189619Y-72540857D01*
X175189619Y-72588476D01*
X175237238Y-72683714D01*
X175284857Y-72731333D01*
X175380095Y-72778952D01*
X175570571Y-72778952D01*
X175665809Y-72826571D01*
X175713428Y-72874190D01*
X175761047Y-72969428D01*
X175761047Y-73159904D01*
X175713428Y-73255142D01*
X175665809Y-73302761D01*
X175570571Y-73350380D01*
X175380095Y-73350380D01*
X175284857Y-73302761D01*
X175237238Y-73255142D01*
X175189619Y-73159904D01*
X175189619Y-72969428D01*
X175237238Y-72874190D01*
X175284857Y-72826571D01*
X175380095Y-72778952D01*
X174856285Y-72350380D02*
X174237238Y-72350380D01*
X174570571Y-72731333D01*
X174427714Y-72731333D01*
X174332476Y-72778952D01*
X174284857Y-72826571D01*
X174237238Y-72921809D01*
X174237238Y-73159904D01*
X174284857Y-73255142D01*
X174332476Y-73302761D01*
X174427714Y-73350380D01*
X174713428Y-73350380D01*
X174808666Y-73302761D01*
X174856285Y-73255142D01*
X173189619Y-72874190D02*
X173237238Y-72826571D01*
X173332476Y-72778952D01*
X173427714Y-72778952D01*
X173522952Y-72826571D01*
X173570571Y-72874190D01*
X173618190Y-72969428D01*
X173618190Y-73064666D01*
X173570571Y-73159904D01*
X173522952Y-73207523D01*
X173427714Y-73255142D01*
X173332476Y-73255142D01*
X173237238Y-73207523D01*
X173189619Y-73159904D01*
X173189619Y-72778952D02*
X173189619Y-73159904D01*
X173142000Y-73207523D01*
X173094380Y-73207523D01*
X172999142Y-73159904D01*
X172951523Y-73064666D01*
X172951523Y-72826571D01*
X173046761Y-72683714D01*
X173189619Y-72588476D01*
X173380095Y-72540857D01*
X173570571Y-72588476D01*
X173713428Y-72683714D01*
X173808666Y-72826571D01*
X173856285Y-73017047D01*
X173808666Y-73207523D01*
X173713428Y-73350380D01*
X173570571Y-73445619D01*
X173380095Y-73493238D01*
X173189619Y-73445619D01*
X173046761Y-73350380D01*
X172094380Y-72683714D02*
X172094380Y-73493238D01*
X172142000Y-73588476D01*
X172189619Y-73636095D01*
X172284857Y-73683714D01*
X172427714Y-73683714D01*
X172522952Y-73636095D01*
X172094380Y-73302761D02*
X172189619Y-73350380D01*
X172380095Y-73350380D01*
X172475333Y-73302761D01*
X172522952Y-73255142D01*
X172570571Y-73159904D01*
X172570571Y-72874190D01*
X172522952Y-72778952D01*
X172475333Y-72731333D01*
X172380095Y-72683714D01*
X172189619Y-72683714D01*
X172094380Y-72731333D01*
X171618190Y-73350380D02*
X171618190Y-72683714D01*
X171618190Y-72778952D02*
X171570571Y-72731333D01*
X171475333Y-72683714D01*
X171332476Y-72683714D01*
X171237238Y-72731333D01*
X171189619Y-72826571D01*
X171189619Y-73350380D01*
X171189619Y-72826571D02*
X171142000Y-72731333D01*
X171046761Y-72683714D01*
X170903904Y-72683714D01*
X170808666Y-72731333D01*
X170761047Y-72826571D01*
X170761047Y-73350380D01*
X169856285Y-73350380D02*
X169856285Y-72826571D01*
X169903904Y-72731333D01*
X169999142Y-72683714D01*
X170189619Y-72683714D01*
X170284857Y-72731333D01*
X169856285Y-73302761D02*
X169951523Y-73350380D01*
X170189619Y-73350380D01*
X170284857Y-73302761D01*
X170332476Y-73207523D01*
X170332476Y-73112285D01*
X170284857Y-73017047D01*
X170189619Y-72969428D01*
X169951523Y-72969428D01*
X169856285Y-72921809D01*
X169380095Y-73350380D02*
X169380095Y-72683714D01*
X169380095Y-72350380D02*
X169427714Y-72398000D01*
X169380095Y-72445619D01*
X169332476Y-72398000D01*
X169380095Y-72350380D01*
X169380095Y-72445619D01*
X168761047Y-73350380D02*
X168856285Y-73302761D01*
X168903904Y-73207523D01*
X168903904Y-72350380D01*
X168380095Y-73255142D02*
X168332476Y-73302761D01*
X168380095Y-73350380D01*
X168427714Y-73302761D01*
X168380095Y-73255142D01*
X168380095Y-73350380D01*
X167475333Y-73302761D02*
X167570571Y-73350380D01*
X167761047Y-73350380D01*
X167856285Y-73302761D01*
X167903904Y-73255142D01*
X167951523Y-73159904D01*
X167951523Y-72874190D01*
X167903904Y-72778952D01*
X167856285Y-72731333D01*
X167761047Y-72683714D01*
X167570571Y-72683714D01*
X167475333Y-72731333D01*
X166903904Y-73350380D02*
X166999142Y-73302761D01*
X167046761Y-73255142D01*
X167094380Y-73159904D01*
X167094380Y-72874190D01*
X167046761Y-72778952D01*
X166999142Y-72731333D01*
X166903904Y-72683714D01*
X166761047Y-72683714D01*
X166665809Y-72731333D01*
X166618190Y-72778952D01*
X166570571Y-72874190D01*
X166570571Y-73159904D01*
X166618190Y-73255142D01*
X166665809Y-73302761D01*
X166761047Y-73350380D01*
X166903904Y-73350380D01*
X166142000Y-73350380D02*
X166142000Y-72683714D01*
X166142000Y-72778952D02*
X166094380Y-72731333D01*
X165999142Y-72683714D01*
X165856285Y-72683714D01*
X165761047Y-72731333D01*
X165713428Y-72826571D01*
X165713428Y-73350380D01*
X165713428Y-72826571D02*
X165665809Y-72731333D01*
X165570571Y-72683714D01*
X165427714Y-72683714D01*
X165332476Y-72731333D01*
X165284857Y-72826571D01*
X165284857Y-73350380D01*
D11*
%TO.C,R_COMP_7*%
X217123500Y-70733500D02*
X217343500Y-70733500D01*
X217123500Y-71633500D02*
X217343500Y-71633500D01*
%TO.C,C_ESP_1*%
X141102500Y-67396500D02*
X141102500Y-67096500D01*
X140202500Y-67396500D02*
X140202500Y-67096500D01*
%TO.C,C_ESP_2*%
X176154500Y-85384500D02*
X176154500Y-85684500D01*
X175254500Y-85384500D02*
X175254500Y-85684500D01*
D12*
%TO.C,C_PS_1*%
X114289002Y-98870447D02*
X114289002Y-97985549D01*
X116342998Y-97985549D02*
X116342998Y-98870447D01*
%TO.C,C_VR2_1*%
X97601551Y-73649002D02*
X98486449Y-73649002D01*
X98486449Y-75702998D02*
X97601551Y-75702998D01*
D13*
%TO.C,D_ESD_1*%
X118429419Y-84960000D02*
G75*
G03*
X118429419Y-84960000I-141419J0D01*
G01*
X118429419Y-84960000D02*
G75*
G03*
X118429419Y-84960000I-141419J0D01*
G01*
%TO.C,D_ESD_2*%
X114365419Y-84960000D02*
G75*
G03*
X114365419Y-84960000I-141419J0D01*
G01*
X114365419Y-84960000D02*
G75*
G03*
X114365419Y-84960000I-141419J0D01*
G01*
D12*
%TO.C,D_ESD_3*%
X116665261Y-92722700D02*
X115998739Y-92722700D01*
X114757200Y-92722700D02*
X114757200Y-91173300D01*
X114757200Y-91173300D02*
X115715260Y-91173300D01*
X117906800Y-91173300D02*
X117906800Y-92722700D01*
X116948740Y-91173300D02*
X117906800Y-91173300D01*
X117358200Y-94355399D02*
G75*
G03*
X117358200Y-94355399I-76200J0D01*
G01*
D14*
%TO.C,D_ESD_5*%
X89066000Y-112956000D02*
G75*
G03*
X89066000Y-112956000I-100000J0D01*
G01*
D11*
X88352000Y-115966000D02*
X89302000Y-115966000D01*
X91480000Y-115966000D02*
X90530000Y-115966000D01*
X91480000Y-115966000D02*
X91480000Y-114666000D01*
X88352000Y-114666000D02*
X88352000Y-115966000D01*
%TO.C,R_COMP_5*%
X194558500Y-68978000D02*
X194558500Y-69198000D01*
X195458500Y-68978000D02*
X195458500Y-69198000D01*
%TO.C,R_COMP_1*%
X204666000Y-86562000D02*
X204666000Y-86782000D01*
X203766000Y-86562000D02*
X203766000Y-86782000D01*
%TO.C,R_COMP_4*%
X196654000Y-68978000D02*
X196654000Y-69198000D01*
X197554000Y-68978000D02*
X197554000Y-69198000D01*
%TO.C,R_COMP_11*%
X197692500Y-63558000D02*
X197912500Y-63558000D01*
X197692500Y-64458000D02*
X197912500Y-64458000D01*
%TO.C,R_ESP_1*%
X122000500Y-63886500D02*
X122220500Y-63886500D01*
X122000500Y-62986500D02*
X122220500Y-62986500D01*
%TO.C,R_IMU_2*%
X122306500Y-76280500D02*
X122306500Y-76500500D01*
X121406500Y-76280500D02*
X121406500Y-76500500D01*
%TO.C,R_J1850_1*%
X182482000Y-102050000D02*
X182262000Y-102050000D01*
X182482000Y-101150000D02*
X182262000Y-101150000D01*
%TO.C,R_J1850_5*%
X190864000Y-120962000D02*
X190644000Y-120962000D01*
X190864000Y-121862000D02*
X190644000Y-121862000D01*
%TO.C,R_STN_1*%
X141152000Y-120074000D02*
X142312000Y-120074000D01*
X141152000Y-121734000D02*
X142312000Y-121734000D01*
%TO.C,R_STN_2*%
X141152000Y-116146000D02*
X142312000Y-116146000D01*
X141152000Y-114486000D02*
X142312000Y-114486000D01*
%TO.C,R_STN_3*%
X141152000Y-118686000D02*
X142312000Y-118686000D01*
X141152000Y-117026000D02*
X142312000Y-117026000D01*
D12*
%TO.C,R_STN_4*%
X173052950Y-91776500D02*
X172768050Y-91776500D01*
X172768050Y-90722500D02*
X173052950Y-90722500D01*
D11*
%TO.C,R_VS_1*%
X110914000Y-109048000D02*
X110574000Y-109048000D01*
X110914000Y-110408000D02*
X110574000Y-110408000D01*
D15*
%TO.C,U_IMU_1*%
X132844500Y-79370500D02*
G75*
G03*
X132844500Y-79370500I-50000J0D01*
G01*
D11*
X132494500Y-80320500D02*
X132494500Y-79920500D01*
X132494500Y-83020500D02*
X132494500Y-82620500D01*
X135094500Y-79920500D02*
X135094500Y-80320500D01*
X135094500Y-83020500D02*
X135094500Y-82620500D01*
%TO.C,R_STN_10*%
D16*
X142108857Y-125194190D02*
X142275523Y-124956095D01*
X142394571Y-125194190D02*
X142394571Y-124694190D01*
X142204095Y-124694190D01*
X142156476Y-124718000D01*
X142132666Y-124741809D01*
X142108857Y-124789428D01*
X142108857Y-124860857D01*
X142132666Y-124908476D01*
X142156476Y-124932285D01*
X142204095Y-124956095D01*
X142394571Y-124956095D01*
X142013619Y-125241809D02*
X141632666Y-125241809D01*
X141537428Y-125170380D02*
X141466000Y-125194190D01*
X141346952Y-125194190D01*
X141299333Y-125170380D01*
X141275523Y-125146571D01*
X141251714Y-125098952D01*
X141251714Y-125051333D01*
X141275523Y-125003714D01*
X141299333Y-124979904D01*
X141346952Y-124956095D01*
X141442190Y-124932285D01*
X141489809Y-124908476D01*
X141513619Y-124884666D01*
X141537428Y-124837047D01*
X141537428Y-124789428D01*
X141513619Y-124741809D01*
X141489809Y-124718000D01*
X141442190Y-124694190D01*
X141323142Y-124694190D01*
X141251714Y-124718000D01*
X141108857Y-124694190D02*
X140823142Y-124694190D01*
X140966000Y-125194190D02*
X140966000Y-124694190D01*
X140656476Y-125194190D02*
X140656476Y-124694190D01*
X140370761Y-125194190D01*
X140370761Y-124694190D01*
X140251714Y-125241809D02*
X139870761Y-125241809D01*
X139489809Y-125194190D02*
X139775523Y-125194190D01*
X139632666Y-125194190D02*
X139632666Y-124694190D01*
X139680285Y-124765619D01*
X139727904Y-124813238D01*
X139775523Y-124837047D01*
X139180285Y-124694190D02*
X139132666Y-124694190D01*
X139085047Y-124718000D01*
X139061238Y-124741809D01*
X139037428Y-124789428D01*
X139013619Y-124884666D01*
X139013619Y-125003714D01*
X139037428Y-125098952D01*
X139061238Y-125146571D01*
X139085047Y-125170380D01*
X139132666Y-125194190D01*
X139180285Y-125194190D01*
X139227904Y-125170380D01*
X139251714Y-125146571D01*
X139275523Y-125098952D01*
X139299333Y-125003714D01*
X139299333Y-124884666D01*
X139275523Y-124789428D01*
X139251714Y-124741809D01*
X139227904Y-124718000D01*
X139180285Y-124694190D01*
%TO.C,J_ESP_1*%
D17*
X100828500Y-61890309D02*
X100809452Y-61852214D01*
X100809452Y-61795071D01*
X100828500Y-61737928D01*
X100866595Y-61699833D01*
X100904690Y-61680785D01*
X100980880Y-61661738D01*
X101038023Y-61661738D01*
X101114214Y-61680785D01*
X101152309Y-61699833D01*
X101190404Y-61737928D01*
X101209452Y-61795071D01*
X101209452Y-61833166D01*
X101190404Y-61890309D01*
X101171357Y-61909357D01*
X101038023Y-61909357D01*
X101038023Y-61833166D01*
X100942785Y-62080785D02*
X101209452Y-62080785D01*
X100980880Y-62080785D02*
X100961833Y-62099833D01*
X100942785Y-62137928D01*
X100942785Y-62195071D01*
X100961833Y-62233166D01*
X100999928Y-62252214D01*
X101209452Y-62252214D01*
X101209452Y-62442690D02*
X100809452Y-62442690D01*
X100809452Y-62537928D01*
X100828500Y-62595071D01*
X100866595Y-62633166D01*
X100904690Y-62652214D01*
X100980880Y-62671261D01*
X101038023Y-62671261D01*
X101114214Y-62652214D01*
X101152309Y-62633166D01*
X101190404Y-62595071D01*
X101209452Y-62537928D01*
X101209452Y-62442690D01*
X133829452Y-61417261D02*
X134229452Y-61550595D01*
X133829452Y-61683928D01*
X134229452Y-61988690D02*
X133829452Y-61988690D01*
X134210404Y-61988690D02*
X134229452Y-61950595D01*
X134229452Y-61874404D01*
X134210404Y-61836309D01*
X134191357Y-61817261D01*
X134153261Y-61798214D01*
X134038976Y-61798214D01*
X134000880Y-61817261D01*
X133981833Y-61836309D01*
X133962785Y-61874404D01*
X133962785Y-61950595D01*
X133981833Y-61988690D01*
X134229452Y-62350595D02*
X133829452Y-62350595D01*
X134210404Y-62350595D02*
X134229452Y-62312500D01*
X134229452Y-62236309D01*
X134210404Y-62198214D01*
X134191357Y-62179166D01*
X134153261Y-62160119D01*
X134038976Y-62160119D01*
X134000880Y-62179166D01*
X133981833Y-62198214D01*
X133962785Y-62236309D01*
X133962785Y-62312500D01*
X133981833Y-62350595D01*
X131479928Y-61515738D02*
X131479928Y-61649071D01*
X131689452Y-61706214D02*
X131689452Y-61515738D01*
X131289452Y-61515738D01*
X131289452Y-61706214D01*
X131422785Y-61877642D02*
X131689452Y-61877642D01*
X131460880Y-61877642D02*
X131441833Y-61896690D01*
X131422785Y-61934785D01*
X131422785Y-61991928D01*
X131441833Y-62030023D01*
X131479928Y-62049071D01*
X131689452Y-62049071D01*
X131689452Y-62410976D02*
X131479928Y-62410976D01*
X131441833Y-62391928D01*
X131422785Y-62353833D01*
X131422785Y-62277642D01*
X131441833Y-62239547D01*
X131670404Y-62410976D02*
X131689452Y-62372880D01*
X131689452Y-62277642D01*
X131670404Y-62239547D01*
X131632309Y-62220500D01*
X131594214Y-62220500D01*
X131556119Y-62239547D01*
X131537071Y-62277642D01*
X131537071Y-62372880D01*
X131518023Y-62410976D01*
X131689452Y-62601452D02*
X131289452Y-62601452D01*
X131441833Y-62601452D02*
X131422785Y-62639547D01*
X131422785Y-62715738D01*
X131441833Y-62753833D01*
X131460880Y-62772880D01*
X131498976Y-62791928D01*
X131613261Y-62791928D01*
X131651357Y-62772880D01*
X131670404Y-62753833D01*
X131689452Y-62715738D01*
X131689452Y-62639547D01*
X131670404Y-62601452D01*
X131689452Y-63020500D02*
X131670404Y-62982404D01*
X131632309Y-62963357D01*
X131289452Y-62963357D01*
X131670404Y-63325261D02*
X131689452Y-63287166D01*
X131689452Y-63210976D01*
X131670404Y-63172880D01*
X131632309Y-63153833D01*
X131479928Y-63153833D01*
X131441833Y-63172880D01*
X131422785Y-63210976D01*
X131422785Y-63287166D01*
X131441833Y-63325261D01*
X131479928Y-63344309D01*
X131518023Y-63344309D01*
X131556119Y-63153833D01*
X129130404Y-61369738D02*
X129149452Y-61426880D01*
X129149452Y-61522119D01*
X129130404Y-61560214D01*
X129111357Y-61579261D01*
X129073261Y-61598309D01*
X129035166Y-61598309D01*
X128997071Y-61579261D01*
X128978023Y-61560214D01*
X128958976Y-61522119D01*
X128939928Y-61445928D01*
X128920880Y-61407833D01*
X128901833Y-61388785D01*
X128863738Y-61369738D01*
X128825642Y-61369738D01*
X128787547Y-61388785D01*
X128768500Y-61407833D01*
X128749452Y-61445928D01*
X128749452Y-61541166D01*
X128768500Y-61598309D01*
X129130404Y-61922119D02*
X129149452Y-61884023D01*
X129149452Y-61807833D01*
X129130404Y-61769738D01*
X129092309Y-61750690D01*
X128939928Y-61750690D01*
X128901833Y-61769738D01*
X128882785Y-61807833D01*
X128882785Y-61884023D01*
X128901833Y-61922119D01*
X128939928Y-61941166D01*
X128978023Y-61941166D01*
X129016119Y-61750690D01*
X128882785Y-62112595D02*
X129149452Y-62112595D01*
X128920880Y-62112595D02*
X128901833Y-62131642D01*
X128882785Y-62169738D01*
X128882785Y-62226880D01*
X128901833Y-62264976D01*
X128939928Y-62284023D01*
X129149452Y-62284023D01*
X129130404Y-62455452D02*
X129149452Y-62493547D01*
X129149452Y-62569738D01*
X129130404Y-62607833D01*
X129092309Y-62626880D01*
X129073261Y-62626880D01*
X129035166Y-62607833D01*
X129016119Y-62569738D01*
X129016119Y-62512595D01*
X128997071Y-62474500D01*
X128958976Y-62455452D01*
X128939928Y-62455452D01*
X128901833Y-62474500D01*
X128882785Y-62512595D01*
X128882785Y-62569738D01*
X128901833Y-62607833D01*
X129149452Y-62855452D02*
X129130404Y-62817357D01*
X129111357Y-62798309D01*
X129073261Y-62779261D01*
X128958976Y-62779261D01*
X128920880Y-62798309D01*
X128901833Y-62817357D01*
X128882785Y-62855452D01*
X128882785Y-62912595D01*
X128901833Y-62950690D01*
X128920880Y-62969738D01*
X128958976Y-62988785D01*
X129073261Y-62988785D01*
X129111357Y-62969738D01*
X129130404Y-62950690D01*
X129149452Y-62912595D01*
X129149452Y-62855452D01*
X129149452Y-63160214D02*
X128882785Y-63160214D01*
X128958976Y-63160214D02*
X128920880Y-63179261D01*
X128901833Y-63198309D01*
X128882785Y-63236404D01*
X128882785Y-63274500D01*
X128749452Y-63350690D02*
X129149452Y-63484023D01*
X128749452Y-63617357D01*
X129149452Y-63750690D02*
X128749452Y-63750690D01*
X128749452Y-63903071D01*
X128768500Y-63941166D01*
X128787547Y-63960214D01*
X128825642Y-63979261D01*
X128882785Y-63979261D01*
X128920880Y-63960214D01*
X128939928Y-63941166D01*
X128958976Y-63903071D01*
X128958976Y-63750690D01*
X126590404Y-61360214D02*
X126609452Y-61417357D01*
X126609452Y-61512595D01*
X126590404Y-61550690D01*
X126571357Y-61569738D01*
X126533261Y-61588785D01*
X126495166Y-61588785D01*
X126457071Y-61569738D01*
X126438023Y-61550690D01*
X126418976Y-61512595D01*
X126399928Y-61436404D01*
X126380880Y-61398309D01*
X126361833Y-61379261D01*
X126323738Y-61360214D01*
X126285642Y-61360214D01*
X126247547Y-61379261D01*
X126228500Y-61398309D01*
X126209452Y-61436404D01*
X126209452Y-61531642D01*
X126228500Y-61588785D01*
X126590404Y-61912595D02*
X126609452Y-61874500D01*
X126609452Y-61798309D01*
X126590404Y-61760214D01*
X126552309Y-61741166D01*
X126399928Y-61741166D01*
X126361833Y-61760214D01*
X126342785Y-61798309D01*
X126342785Y-61874500D01*
X126361833Y-61912595D01*
X126399928Y-61931642D01*
X126438023Y-61931642D01*
X126476119Y-61741166D01*
X126342785Y-62103071D02*
X126609452Y-62103071D01*
X126380880Y-62103071D02*
X126361833Y-62122119D01*
X126342785Y-62160214D01*
X126342785Y-62217357D01*
X126361833Y-62255452D01*
X126399928Y-62274500D01*
X126609452Y-62274500D01*
X126590404Y-62445928D02*
X126609452Y-62484023D01*
X126609452Y-62560214D01*
X126590404Y-62598309D01*
X126552309Y-62617357D01*
X126533261Y-62617357D01*
X126495166Y-62598309D01*
X126476119Y-62560214D01*
X126476119Y-62503071D01*
X126457071Y-62464976D01*
X126418976Y-62445928D01*
X126399928Y-62445928D01*
X126361833Y-62464976D01*
X126342785Y-62503071D01*
X126342785Y-62560214D01*
X126361833Y-62598309D01*
X126609452Y-62845928D02*
X126590404Y-62807833D01*
X126571357Y-62788785D01*
X126533261Y-62769738D01*
X126418976Y-62769738D01*
X126380880Y-62788785D01*
X126361833Y-62807833D01*
X126342785Y-62845928D01*
X126342785Y-62903071D01*
X126361833Y-62941166D01*
X126380880Y-62960214D01*
X126418976Y-62979261D01*
X126533261Y-62979261D01*
X126571357Y-62960214D01*
X126590404Y-62941166D01*
X126609452Y-62903071D01*
X126609452Y-62845928D01*
X126609452Y-63150690D02*
X126342785Y-63150690D01*
X126418976Y-63150690D02*
X126380880Y-63169738D01*
X126361833Y-63188785D01*
X126342785Y-63226880D01*
X126342785Y-63264976D01*
X126209452Y-63341166D02*
X126609452Y-63474500D01*
X126209452Y-63607833D01*
X126609452Y-63741166D02*
X126209452Y-63741166D01*
X126609452Y-63969738D01*
X126209452Y-63969738D01*
X124069452Y-61322023D02*
X123669452Y-61322023D01*
X123669452Y-61588690D02*
X123669452Y-61664880D01*
X123688500Y-61702976D01*
X123726595Y-61741071D01*
X123802785Y-61760119D01*
X123936119Y-61760119D01*
X124012309Y-61741071D01*
X124050404Y-61702976D01*
X124069452Y-61664880D01*
X124069452Y-61588690D01*
X124050404Y-61550595D01*
X124012309Y-61512500D01*
X123936119Y-61493452D01*
X123802785Y-61493452D01*
X123726595Y-61512500D01*
X123688500Y-61550595D01*
X123669452Y-61588690D01*
X123669452Y-61893452D02*
X123669452Y-62141071D01*
X123821833Y-62007738D01*
X123821833Y-62064880D01*
X123840880Y-62102976D01*
X123859928Y-62122023D01*
X123898023Y-62141071D01*
X123993261Y-62141071D01*
X124031357Y-62122023D01*
X124050404Y-62102976D01*
X124069452Y-62064880D01*
X124069452Y-61950595D01*
X124050404Y-61912500D01*
X124031357Y-61893452D01*
X123802785Y-62483928D02*
X124069452Y-62483928D01*
X123650404Y-62388690D02*
X123936119Y-62293452D01*
X123936119Y-62541071D01*
X121529452Y-61322023D02*
X121129452Y-61322023D01*
X121129452Y-61588690D02*
X121129452Y-61664880D01*
X121148500Y-61702976D01*
X121186595Y-61741071D01*
X121262785Y-61760119D01*
X121396119Y-61760119D01*
X121472309Y-61741071D01*
X121510404Y-61702976D01*
X121529452Y-61664880D01*
X121529452Y-61588690D01*
X121510404Y-61550595D01*
X121472309Y-61512500D01*
X121396119Y-61493452D01*
X121262785Y-61493452D01*
X121186595Y-61512500D01*
X121148500Y-61550595D01*
X121129452Y-61588690D01*
X121129452Y-61893452D02*
X121129452Y-62141071D01*
X121281833Y-62007738D01*
X121281833Y-62064880D01*
X121300880Y-62102976D01*
X121319928Y-62122023D01*
X121358023Y-62141071D01*
X121453261Y-62141071D01*
X121491357Y-62122023D01*
X121510404Y-62102976D01*
X121529452Y-62064880D01*
X121529452Y-61950595D01*
X121510404Y-61912500D01*
X121491357Y-61893452D01*
X121129452Y-62502976D02*
X121129452Y-62312500D01*
X121319928Y-62293452D01*
X121300880Y-62312500D01*
X121281833Y-62350595D01*
X121281833Y-62445833D01*
X121300880Y-62483928D01*
X121319928Y-62502976D01*
X121358023Y-62522023D01*
X121453261Y-62522023D01*
X121491357Y-62502976D01*
X121510404Y-62483928D01*
X121529452Y-62445833D01*
X121529452Y-62350595D01*
X121510404Y-62312500D01*
X121491357Y-62293452D01*
X118989452Y-61322023D02*
X118589452Y-61322023D01*
X118589452Y-61588690D02*
X118589452Y-61664880D01*
X118608500Y-61702976D01*
X118646595Y-61741071D01*
X118722785Y-61760119D01*
X118856119Y-61760119D01*
X118932309Y-61741071D01*
X118970404Y-61702976D01*
X118989452Y-61664880D01*
X118989452Y-61588690D01*
X118970404Y-61550595D01*
X118932309Y-61512500D01*
X118856119Y-61493452D01*
X118722785Y-61493452D01*
X118646595Y-61512500D01*
X118608500Y-61550595D01*
X118589452Y-61588690D01*
X118589452Y-61893452D02*
X118589452Y-62141071D01*
X118741833Y-62007738D01*
X118741833Y-62064880D01*
X118760880Y-62102976D01*
X118779928Y-62122023D01*
X118818023Y-62141071D01*
X118913261Y-62141071D01*
X118951357Y-62122023D01*
X118970404Y-62102976D01*
X118989452Y-62064880D01*
X118989452Y-61950595D01*
X118970404Y-61912500D01*
X118951357Y-61893452D01*
X118627547Y-62293452D02*
X118608500Y-62312500D01*
X118589452Y-62350595D01*
X118589452Y-62445833D01*
X118608500Y-62483928D01*
X118627547Y-62502976D01*
X118665642Y-62522023D01*
X118703738Y-62522023D01*
X118760880Y-62502976D01*
X118989452Y-62274404D01*
X118989452Y-62522023D01*
X115648500Y-61433261D02*
X115648500Y-61833261D01*
X116195452Y-61528500D02*
X115795452Y-61528500D01*
X115795452Y-61680880D01*
X115814500Y-61718976D01*
X115833547Y-61738023D01*
X115871642Y-61757071D01*
X115928785Y-61757071D01*
X115966880Y-61738023D01*
X115985928Y-61718976D01*
X116004976Y-61680880D01*
X116004976Y-61528500D01*
X115648500Y-61833261D02*
X115648500Y-62290404D01*
X115795452Y-61890404D02*
X116195452Y-61985642D01*
X115909738Y-62061833D01*
X116195452Y-62138023D01*
X115795452Y-62233261D01*
X115648500Y-62290404D02*
X115648500Y-62690404D01*
X116195452Y-62614214D02*
X116004976Y-62480880D01*
X116195452Y-62385642D02*
X115795452Y-62385642D01*
X115795452Y-62538023D01*
X115814500Y-62576119D01*
X115833547Y-62595166D01*
X115871642Y-62614214D01*
X115928785Y-62614214D01*
X115966880Y-62595166D01*
X115985928Y-62576119D01*
X116004976Y-62538023D01*
X116004976Y-62385642D01*
X115648500Y-62690404D02*
X115648500Y-62995166D01*
X116233547Y-62690404D02*
X116233547Y-62995166D01*
X115648500Y-62995166D02*
X115648500Y-63395166D01*
X116157357Y-63318976D02*
X116176404Y-63299928D01*
X116195452Y-63242785D01*
X116195452Y-63204690D01*
X116176404Y-63147547D01*
X116138309Y-63109452D01*
X116100214Y-63090404D01*
X116024023Y-63071357D01*
X115966880Y-63071357D01*
X115890690Y-63090404D01*
X115852595Y-63109452D01*
X115814500Y-63147547D01*
X115795452Y-63204690D01*
X115795452Y-63242785D01*
X115814500Y-63299928D01*
X115833547Y-63318976D01*
X115648500Y-63395166D02*
X115648500Y-63699928D01*
X115795452Y-63433261D02*
X115795452Y-63661833D01*
X116195452Y-63547547D02*
X115795452Y-63547547D01*
X115648500Y-63699928D02*
X115648500Y-64099928D01*
X116195452Y-64023738D02*
X116004976Y-63890404D01*
X116195452Y-63795166D02*
X115795452Y-63795166D01*
X115795452Y-63947547D01*
X115814500Y-63985642D01*
X115833547Y-64004690D01*
X115871642Y-64023738D01*
X115928785Y-64023738D01*
X115966880Y-64004690D01*
X115985928Y-63985642D01*
X116004976Y-63947547D01*
X116004976Y-63795166D01*
X115648500Y-64099928D02*
X115648500Y-64423738D01*
X116195452Y-64385642D02*
X116195452Y-64195166D01*
X115795452Y-64195166D01*
X113108500Y-61433357D02*
X113108500Y-61833357D01*
X113655452Y-61757166D02*
X113464976Y-61623833D01*
X113655452Y-61528595D02*
X113255452Y-61528595D01*
X113255452Y-61680976D01*
X113274500Y-61719071D01*
X113293547Y-61738119D01*
X113331642Y-61757166D01*
X113388785Y-61757166D01*
X113426880Y-61738119D01*
X113445928Y-61719071D01*
X113464976Y-61680976D01*
X113464976Y-61528595D01*
X113108500Y-61833357D02*
X113108500Y-62195261D01*
X113445928Y-61928595D02*
X113445928Y-62061928D01*
X113655452Y-62119071D02*
X113655452Y-61928595D01*
X113255452Y-61928595D01*
X113255452Y-62119071D01*
X113108500Y-62195261D02*
X113108500Y-62576214D01*
X113636404Y-62271452D02*
X113655452Y-62328595D01*
X113655452Y-62423833D01*
X113636404Y-62461928D01*
X113617357Y-62480976D01*
X113579261Y-62500023D01*
X113541166Y-62500023D01*
X113503071Y-62480976D01*
X113484023Y-62461928D01*
X113464976Y-62423833D01*
X113445928Y-62347642D01*
X113426880Y-62309547D01*
X113407833Y-62290500D01*
X113369738Y-62271452D01*
X113331642Y-62271452D01*
X113293547Y-62290500D01*
X113274500Y-62309547D01*
X113255452Y-62347642D01*
X113255452Y-62442880D01*
X113274500Y-62500023D01*
X113108500Y-62576214D02*
X113108500Y-62938119D01*
X113445928Y-62671452D02*
X113445928Y-62804785D01*
X113655452Y-62861928D02*
X113655452Y-62671452D01*
X113255452Y-62671452D01*
X113255452Y-62861928D01*
X113108500Y-62938119D02*
X113108500Y-63242880D01*
X113255452Y-62976214D02*
X113255452Y-63204785D01*
X113655452Y-63090500D02*
X113255452Y-63090500D01*
X113108500Y-63242880D02*
X113108500Y-63547642D01*
X113693547Y-63242880D02*
X113693547Y-63547642D01*
X113108500Y-63547642D02*
X113108500Y-63966690D01*
X113255452Y-63719071D02*
X113255452Y-63795261D01*
X113274500Y-63833357D01*
X113312595Y-63871452D01*
X113388785Y-63890500D01*
X113522119Y-63890500D01*
X113598309Y-63871452D01*
X113636404Y-63833357D01*
X113655452Y-63795261D01*
X113655452Y-63719071D01*
X113636404Y-63680976D01*
X113598309Y-63642880D01*
X113522119Y-63623833D01*
X113388785Y-63623833D01*
X113312595Y-63642880D01*
X113274500Y-63680976D01*
X113255452Y-63719071D01*
X113108500Y-63966690D02*
X113108500Y-64366690D01*
X113445928Y-64195261D02*
X113464976Y-64252404D01*
X113484023Y-64271452D01*
X113522119Y-64290500D01*
X113579261Y-64290500D01*
X113617357Y-64271452D01*
X113636404Y-64252404D01*
X113655452Y-64214309D01*
X113655452Y-64061928D01*
X113255452Y-64061928D01*
X113255452Y-64195261D01*
X113274500Y-64233357D01*
X113293547Y-64252404D01*
X113331642Y-64271452D01*
X113369738Y-64271452D01*
X113407833Y-64252404D01*
X113426880Y-64233357D01*
X113445928Y-64195261D01*
X113445928Y-64061928D01*
X113108500Y-64366690D02*
X113108500Y-64766690D01*
X113655452Y-64461928D02*
X113255452Y-64461928D01*
X113255452Y-64557166D01*
X113274500Y-64614309D01*
X113312595Y-64652404D01*
X113350690Y-64671452D01*
X113426880Y-64690500D01*
X113484023Y-64690500D01*
X113560214Y-64671452D01*
X113598309Y-64652404D01*
X113636404Y-64614309D01*
X113655452Y-64557166D01*
X113655452Y-64461928D01*
X113108500Y-64766690D02*
X113108500Y-65071452D01*
X113693547Y-64766690D02*
X113693547Y-65071452D01*
X113108500Y-65071452D02*
X113108500Y-65490500D01*
X113655452Y-65166690D02*
X113255452Y-65166690D01*
X113445928Y-65166690D02*
X113445928Y-65395261D01*
X113655452Y-65395261D02*
X113255452Y-65395261D01*
X113108500Y-65490500D02*
X113108500Y-65947642D01*
X113255452Y-65547642D02*
X113655452Y-65642880D01*
X113369738Y-65719071D01*
X113655452Y-65795261D01*
X113255452Y-65890500D01*
X111369452Y-61436404D02*
X110969452Y-61436404D01*
X111369452Y-61626880D02*
X110969452Y-61626880D01*
X111255166Y-61760214D01*
X110969452Y-61893547D01*
X111369452Y-61893547D01*
X110969452Y-62084023D02*
X111293261Y-62084023D01*
X111331357Y-62103071D01*
X111350404Y-62122119D01*
X111369452Y-62160214D01*
X111369452Y-62236404D01*
X111350404Y-62274500D01*
X111331357Y-62293547D01*
X111293261Y-62312595D01*
X110969452Y-62312595D01*
X111369452Y-62807833D02*
X110969452Y-62807833D01*
X111369452Y-62998309D02*
X110969452Y-62998309D01*
X111369452Y-63226880D01*
X110969452Y-63226880D01*
X110969452Y-63360214D02*
X110969452Y-63588785D01*
X111369452Y-63474500D02*
X110969452Y-63474500D01*
X111007547Y-63703071D02*
X110988500Y-63722119D01*
X110969452Y-63760214D01*
X110969452Y-63855452D01*
X110988500Y-63893547D01*
X111007547Y-63912595D01*
X111045642Y-63931642D01*
X111083738Y-63931642D01*
X111140880Y-63912595D01*
X111369452Y-63684023D01*
X111369452Y-63931642D01*
X108829452Y-61182404D02*
X108429452Y-61182404D01*
X108829452Y-61372880D02*
X108429452Y-61372880D01*
X108715166Y-61506214D01*
X108429452Y-61639547D01*
X108829452Y-61639547D01*
X108429452Y-61830023D02*
X108753261Y-61830023D01*
X108791357Y-61849071D01*
X108810404Y-61868119D01*
X108829452Y-61906214D01*
X108829452Y-61982404D01*
X108810404Y-62020500D01*
X108791357Y-62039547D01*
X108753261Y-62058595D01*
X108429452Y-62058595D01*
X108829452Y-62553833D02*
X108429452Y-62553833D01*
X108829452Y-62744309D02*
X108429452Y-62744309D01*
X108829452Y-62972880D01*
X108429452Y-62972880D01*
X108429452Y-63106214D02*
X108429452Y-63334785D01*
X108829452Y-63220500D02*
X108429452Y-63220500D01*
X108829452Y-63677642D02*
X108829452Y-63449071D01*
X108829452Y-63563357D02*
X108429452Y-63563357D01*
X108486595Y-63525261D01*
X108524690Y-63487166D01*
X108543738Y-63449071D01*
X106289452Y-61277642D02*
X105889452Y-61277642D01*
X106289452Y-61468119D02*
X105889452Y-61468119D01*
X106175166Y-61601452D01*
X105889452Y-61734785D01*
X106289452Y-61734785D01*
X105889452Y-61925261D02*
X106213261Y-61925261D01*
X106251357Y-61944309D01*
X106270404Y-61963357D01*
X106289452Y-62001452D01*
X106289452Y-62077642D01*
X106270404Y-62115738D01*
X106251357Y-62134785D01*
X106213261Y-62153833D01*
X105889452Y-62153833D01*
X106270404Y-62630023D02*
X106289452Y-62687166D01*
X106289452Y-62782404D01*
X106270404Y-62820500D01*
X106251357Y-62839547D01*
X106213261Y-62858595D01*
X106175166Y-62858595D01*
X106137071Y-62839547D01*
X106118023Y-62820500D01*
X106098976Y-62782404D01*
X106079928Y-62706214D01*
X106060880Y-62668119D01*
X106041833Y-62649071D01*
X106003738Y-62630023D01*
X105965642Y-62630023D01*
X105927547Y-62649071D01*
X105908500Y-62668119D01*
X105889452Y-62706214D01*
X105889452Y-62801452D01*
X105908500Y-62858595D01*
X106251357Y-63258595D02*
X106270404Y-63239547D01*
X106289452Y-63182404D01*
X106289452Y-63144309D01*
X106270404Y-63087166D01*
X106232309Y-63049071D01*
X106194214Y-63030023D01*
X106118023Y-63010976D01*
X106060880Y-63010976D01*
X105984690Y-63030023D01*
X105946595Y-63049071D01*
X105908500Y-63087166D01*
X105889452Y-63144309D01*
X105889452Y-63182404D01*
X105908500Y-63239547D01*
X105927547Y-63258595D01*
X106289452Y-63620500D02*
X106289452Y-63430023D01*
X105889452Y-63430023D01*
X103749452Y-61268119D02*
X103349452Y-61268119D01*
X103749452Y-61458595D02*
X103349452Y-61458595D01*
X103635166Y-61591928D01*
X103349452Y-61725261D01*
X103749452Y-61725261D01*
X103349452Y-61915738D02*
X103673261Y-61915738D01*
X103711357Y-61934785D01*
X103730404Y-61953833D01*
X103749452Y-61991928D01*
X103749452Y-62068119D01*
X103730404Y-62106214D01*
X103711357Y-62125261D01*
X103673261Y-62144309D01*
X103349452Y-62144309D01*
X103730404Y-62620500D02*
X103749452Y-62677642D01*
X103749452Y-62772880D01*
X103730404Y-62810976D01*
X103711357Y-62830023D01*
X103673261Y-62849071D01*
X103635166Y-62849071D01*
X103597071Y-62830023D01*
X103578023Y-62810976D01*
X103558976Y-62772880D01*
X103539928Y-62696690D01*
X103520880Y-62658595D01*
X103501833Y-62639547D01*
X103463738Y-62620500D01*
X103425642Y-62620500D01*
X103387547Y-62639547D01*
X103368500Y-62658595D01*
X103349452Y-62696690D01*
X103349452Y-62791928D01*
X103368500Y-62849071D01*
X103749452Y-63020500D02*
X103349452Y-63020500D01*
X103349452Y-63115738D01*
X103368500Y-63172880D01*
X103406595Y-63210976D01*
X103444690Y-63230023D01*
X103520880Y-63249071D01*
X103578023Y-63249071D01*
X103654214Y-63230023D01*
X103692309Y-63210976D01*
X103730404Y-63172880D01*
X103749452Y-63115738D01*
X103749452Y-63020500D01*
X103635166Y-63401452D02*
X103635166Y-63591928D01*
X103749452Y-63363357D02*
X103349452Y-63496690D01*
X103749452Y-63630023D01*
X90668500Y-61636309D02*
X90649452Y-61598214D01*
X90649452Y-61541071D01*
X90668500Y-61483928D01*
X90706595Y-61445833D01*
X90744690Y-61426785D01*
X90820880Y-61407738D01*
X90878023Y-61407738D01*
X90954214Y-61426785D01*
X90992309Y-61445833D01*
X91030404Y-61483928D01*
X91049452Y-61541071D01*
X91049452Y-61579166D01*
X91030404Y-61636309D01*
X91011357Y-61655357D01*
X90878023Y-61655357D01*
X90878023Y-61579166D01*
X90782785Y-61826785D02*
X91049452Y-61826785D01*
X90820880Y-61826785D02*
X90801833Y-61845833D01*
X90782785Y-61883928D01*
X90782785Y-61941071D01*
X90801833Y-61979166D01*
X90839928Y-61998214D01*
X91049452Y-61998214D01*
X91049452Y-62188690D02*
X90649452Y-62188690D01*
X90649452Y-62283928D01*
X90668500Y-62341071D01*
X90706595Y-62379166D01*
X90744690Y-62398214D01*
X90820880Y-62417261D01*
X90878023Y-62417261D01*
X90954214Y-62398214D01*
X90992309Y-62379166D01*
X91030404Y-62341071D01*
X91049452Y-62283928D01*
X91049452Y-62188690D01*
X98669452Y-61531642D02*
X98269452Y-61531642D01*
X98669452Y-61722119D02*
X98269452Y-61722119D01*
X98555166Y-61855452D01*
X98269452Y-61988785D01*
X98669452Y-61988785D01*
X98269452Y-62179261D02*
X98593261Y-62179261D01*
X98631357Y-62198309D01*
X98650404Y-62217357D01*
X98669452Y-62255452D01*
X98669452Y-62331642D01*
X98650404Y-62369738D01*
X98631357Y-62388785D01*
X98593261Y-62407833D01*
X98269452Y-62407833D01*
X98650404Y-62884023D02*
X98669452Y-62941166D01*
X98669452Y-63036404D01*
X98650404Y-63074500D01*
X98631357Y-63093547D01*
X98593261Y-63112595D01*
X98555166Y-63112595D01*
X98517071Y-63093547D01*
X98498023Y-63074500D01*
X98478976Y-63036404D01*
X98459928Y-62960214D01*
X98440880Y-62922119D01*
X98421833Y-62903071D01*
X98383738Y-62884023D01*
X98345642Y-62884023D01*
X98307547Y-62903071D01*
X98288500Y-62922119D01*
X98269452Y-62960214D01*
X98269452Y-63055452D01*
X98288500Y-63112595D01*
X98555166Y-63264976D02*
X98555166Y-63455452D01*
X98669452Y-63226880D02*
X98269452Y-63360214D01*
X98669452Y-63493547D01*
X98269452Y-63703071D02*
X98269452Y-63741166D01*
X98288500Y-63779261D01*
X98307547Y-63798309D01*
X98345642Y-63817357D01*
X98421833Y-63836404D01*
X98517071Y-63836404D01*
X98593261Y-63817357D01*
X98631357Y-63798309D01*
X98650404Y-63779261D01*
X98669452Y-63741166D01*
X98669452Y-63703071D01*
X98650404Y-63664976D01*
X98631357Y-63645928D01*
X98593261Y-63626880D01*
X98517071Y-63607833D01*
X98421833Y-63607833D01*
X98345642Y-63626880D01*
X98307547Y-63645928D01*
X98288500Y-63664976D01*
X98269452Y-63703071D01*
X136388500Y-61636309D02*
X136369452Y-61598214D01*
X136369452Y-61541071D01*
X136388500Y-61483928D01*
X136426595Y-61445833D01*
X136464690Y-61426785D01*
X136540880Y-61407738D01*
X136598023Y-61407738D01*
X136674214Y-61426785D01*
X136712309Y-61445833D01*
X136750404Y-61483928D01*
X136769452Y-61541071D01*
X136769452Y-61579166D01*
X136750404Y-61636309D01*
X136731357Y-61655357D01*
X136598023Y-61655357D01*
X136598023Y-61579166D01*
X136502785Y-61826785D02*
X136769452Y-61826785D01*
X136540880Y-61826785D02*
X136521833Y-61845833D01*
X136502785Y-61883928D01*
X136502785Y-61941071D01*
X136521833Y-61979166D01*
X136559928Y-61998214D01*
X136769452Y-61998214D01*
X136769452Y-62188690D02*
X136369452Y-62188690D01*
X136369452Y-62283928D01*
X136388500Y-62341071D01*
X136426595Y-62379166D01*
X136464690Y-62398214D01*
X136540880Y-62417261D01*
X136598023Y-62417261D01*
X136674214Y-62398214D01*
X136712309Y-62379166D01*
X136750404Y-62341071D01*
X136769452Y-62283928D01*
X136769452Y-62188690D01*
X87855452Y-61322023D02*
X87855452Y-61569642D01*
X88007833Y-61436309D01*
X88007833Y-61493452D01*
X88026880Y-61531547D01*
X88045928Y-61550595D01*
X88084023Y-61569642D01*
X88179261Y-61569642D01*
X88217357Y-61550595D01*
X88236404Y-61531547D01*
X88255452Y-61493452D01*
X88255452Y-61379166D01*
X88236404Y-61341071D01*
X88217357Y-61322023D01*
X88217357Y-61741071D02*
X88236404Y-61760119D01*
X88255452Y-61741071D01*
X88236404Y-61722023D01*
X88217357Y-61741071D01*
X88255452Y-61741071D01*
X87855452Y-61893452D02*
X87855452Y-62141071D01*
X88007833Y-62007738D01*
X88007833Y-62064880D01*
X88026880Y-62102976D01*
X88045928Y-62122023D01*
X88084023Y-62141071D01*
X88179261Y-62141071D01*
X88217357Y-62122023D01*
X88236404Y-62102976D01*
X88255452Y-62064880D01*
X88255452Y-61950595D01*
X88236404Y-61912500D01*
X88217357Y-61893452D01*
X87855452Y-62255357D02*
X88255452Y-62388690D01*
X87855452Y-62522023D01*
%TO.C,J_ESP_2*%
X169408500Y-61636309D02*
X169389452Y-61598214D01*
X169389452Y-61541071D01*
X169408500Y-61483928D01*
X169446595Y-61445833D01*
X169484690Y-61426785D01*
X169560880Y-61407738D01*
X169618023Y-61407738D01*
X169694214Y-61426785D01*
X169732309Y-61445833D01*
X169770404Y-61483928D01*
X169789452Y-61541071D01*
X169789452Y-61579166D01*
X169770404Y-61636309D01*
X169751357Y-61655357D01*
X169618023Y-61655357D01*
X169618023Y-61579166D01*
X169522785Y-61826785D02*
X169789452Y-61826785D01*
X169560880Y-61826785D02*
X169541833Y-61845833D01*
X169522785Y-61883928D01*
X169522785Y-61941071D01*
X169541833Y-61979166D01*
X169579928Y-61998214D01*
X169789452Y-61998214D01*
X169789452Y-62188690D02*
X169389452Y-62188690D01*
X169389452Y-62283928D01*
X169408500Y-62341071D01*
X169446595Y-62379166D01*
X169484690Y-62398214D01*
X169560880Y-62417261D01*
X169618023Y-62417261D01*
X169694214Y-62398214D01*
X169732309Y-62379166D01*
X169770404Y-62341071D01*
X169789452Y-62283928D01*
X169789452Y-62188690D01*
X172329452Y-61322023D02*
X171929452Y-61322023D01*
X171929452Y-61588690D02*
X171929452Y-61664880D01*
X171948500Y-61702976D01*
X171986595Y-61741071D01*
X172062785Y-61760119D01*
X172196119Y-61760119D01*
X172272309Y-61741071D01*
X172310404Y-61702976D01*
X172329452Y-61664880D01*
X172329452Y-61588690D01*
X172310404Y-61550595D01*
X172272309Y-61512500D01*
X172196119Y-61493452D01*
X172062785Y-61493452D01*
X171986595Y-61512500D01*
X171948500Y-61550595D01*
X171929452Y-61588690D01*
X171967547Y-61912500D02*
X171948500Y-61931547D01*
X171929452Y-61969642D01*
X171929452Y-62064880D01*
X171948500Y-62102976D01*
X171967547Y-62122023D01*
X172005642Y-62141071D01*
X172043738Y-62141071D01*
X172100880Y-62122023D01*
X172329452Y-61893452D01*
X172329452Y-62141071D01*
X171929452Y-62274404D02*
X171929452Y-62522023D01*
X172081833Y-62388690D01*
X172081833Y-62445833D01*
X172100880Y-62483928D01*
X172119928Y-62502976D01*
X172158023Y-62522023D01*
X172253261Y-62522023D01*
X172291357Y-62502976D01*
X172310404Y-62483928D01*
X172329452Y-62445833D01*
X172329452Y-62331547D01*
X172310404Y-62293452D01*
X172291357Y-62274404D01*
X174869452Y-61322023D02*
X174469452Y-61322023D01*
X174469452Y-61588690D02*
X174469452Y-61664880D01*
X174488500Y-61702976D01*
X174526595Y-61741071D01*
X174602785Y-61760119D01*
X174736119Y-61760119D01*
X174812309Y-61741071D01*
X174850404Y-61702976D01*
X174869452Y-61664880D01*
X174869452Y-61588690D01*
X174850404Y-61550595D01*
X174812309Y-61512500D01*
X174736119Y-61493452D01*
X174602785Y-61493452D01*
X174526595Y-61512500D01*
X174488500Y-61550595D01*
X174469452Y-61588690D01*
X174507547Y-61912500D02*
X174488500Y-61931547D01*
X174469452Y-61969642D01*
X174469452Y-62064880D01*
X174488500Y-62102976D01*
X174507547Y-62122023D01*
X174545642Y-62141071D01*
X174583738Y-62141071D01*
X174640880Y-62122023D01*
X174869452Y-61893452D01*
X174869452Y-62141071D01*
X174507547Y-62293452D02*
X174488500Y-62312500D01*
X174469452Y-62350595D01*
X174469452Y-62445833D01*
X174488500Y-62483928D01*
X174507547Y-62502976D01*
X174545642Y-62522023D01*
X174583738Y-62522023D01*
X174640880Y-62502976D01*
X174869452Y-62274404D01*
X174869452Y-62522023D01*
X177009452Y-61217261D02*
X177009452Y-61445833D01*
X177409452Y-61331547D02*
X177009452Y-61331547D01*
X177009452Y-61541071D02*
X177409452Y-61807738D01*
X177009452Y-61807738D02*
X177409452Y-61541071D01*
X177409452Y-61960119D02*
X177009452Y-61960119D01*
X177009452Y-62055357D01*
X177028500Y-62112500D01*
X177066595Y-62150595D01*
X177104690Y-62169642D01*
X177180880Y-62188690D01*
X177238023Y-62188690D01*
X177314214Y-62169642D01*
X177352309Y-62150595D01*
X177390404Y-62112500D01*
X177409452Y-62055357D01*
X177409452Y-61960119D01*
X177009452Y-62436309D02*
X177009452Y-62474404D01*
X177028500Y-62512500D01*
X177047547Y-62531547D01*
X177085642Y-62550595D01*
X177161833Y-62569642D01*
X177257071Y-62569642D01*
X177333261Y-62550595D01*
X177371357Y-62531547D01*
X177390404Y-62512500D01*
X177409452Y-62474404D01*
X177409452Y-62436309D01*
X177390404Y-62398214D01*
X177371357Y-62379166D01*
X177333261Y-62360119D01*
X177257071Y-62341071D01*
X177161833Y-62341071D01*
X177085642Y-62360119D01*
X177047547Y-62379166D01*
X177028500Y-62398214D01*
X177009452Y-62436309D01*
X179949452Y-61455357D02*
X179758976Y-61322023D01*
X179949452Y-61226785D02*
X179549452Y-61226785D01*
X179549452Y-61379166D01*
X179568500Y-61417261D01*
X179587547Y-61436309D01*
X179625642Y-61455357D01*
X179682785Y-61455357D01*
X179720880Y-61436309D01*
X179739928Y-61417261D01*
X179758976Y-61379166D01*
X179758976Y-61226785D01*
X179549452Y-61588690D02*
X179949452Y-61855357D01*
X179549452Y-61855357D02*
X179949452Y-61588690D01*
X179949452Y-62007738D02*
X179549452Y-62007738D01*
X179549452Y-62102976D01*
X179568500Y-62160119D01*
X179606595Y-62198214D01*
X179644690Y-62217261D01*
X179720880Y-62236309D01*
X179778023Y-62236309D01*
X179854214Y-62217261D01*
X179892309Y-62198214D01*
X179930404Y-62160119D01*
X179949452Y-62102976D01*
X179949452Y-62007738D01*
X179549452Y-62483928D02*
X179549452Y-62522023D01*
X179568500Y-62560119D01*
X179587547Y-62579166D01*
X179625642Y-62598214D01*
X179701833Y-62617261D01*
X179797071Y-62617261D01*
X179873261Y-62598214D01*
X179911357Y-62579166D01*
X179930404Y-62560119D01*
X179949452Y-62522023D01*
X179949452Y-62483928D01*
X179930404Y-62445833D01*
X179911357Y-62426785D01*
X179873261Y-62407738D01*
X179797071Y-62388690D01*
X179701833Y-62388690D01*
X179625642Y-62407738D01*
X179587547Y-62426785D01*
X179568500Y-62445833D01*
X179549452Y-62483928D01*
X182489452Y-61322023D02*
X182089452Y-61322023D01*
X182089452Y-61588690D02*
X182089452Y-61664880D01*
X182108500Y-61702976D01*
X182146595Y-61741071D01*
X182222785Y-61760119D01*
X182356119Y-61760119D01*
X182432309Y-61741071D01*
X182470404Y-61702976D01*
X182489452Y-61664880D01*
X182489452Y-61588690D01*
X182470404Y-61550595D01*
X182432309Y-61512500D01*
X182356119Y-61493452D01*
X182222785Y-61493452D01*
X182146595Y-61512500D01*
X182108500Y-61550595D01*
X182089452Y-61588690D01*
X182127547Y-61912500D02*
X182108500Y-61931547D01*
X182089452Y-61969642D01*
X182089452Y-62064880D01*
X182108500Y-62102976D01*
X182127547Y-62122023D01*
X182165642Y-62141071D01*
X182203738Y-62141071D01*
X182260880Y-62122023D01*
X182489452Y-61893452D01*
X182489452Y-62141071D01*
X182489452Y-62522023D02*
X182489452Y-62293452D01*
X182489452Y-62407738D02*
X182089452Y-62407738D01*
X182146595Y-62369642D01*
X182184690Y-62331547D01*
X182203738Y-62293452D01*
X187569452Y-61322023D02*
X187169452Y-61322023D01*
X187169452Y-61588690D02*
X187169452Y-61664880D01*
X187188500Y-61702976D01*
X187226595Y-61741071D01*
X187302785Y-61760119D01*
X187436119Y-61760119D01*
X187512309Y-61741071D01*
X187550404Y-61702976D01*
X187569452Y-61664880D01*
X187569452Y-61588690D01*
X187550404Y-61550595D01*
X187512309Y-61512500D01*
X187436119Y-61493452D01*
X187302785Y-61493452D01*
X187226595Y-61512500D01*
X187188500Y-61550595D01*
X187169452Y-61588690D01*
X187569452Y-62141071D02*
X187569452Y-61912500D01*
X187569452Y-62026785D02*
X187169452Y-62026785D01*
X187226595Y-61988690D01*
X187264690Y-61950595D01*
X187283738Y-61912500D01*
X187569452Y-62331547D02*
X187569452Y-62407738D01*
X187550404Y-62445833D01*
X187531357Y-62464880D01*
X187474214Y-62502976D01*
X187398023Y-62522023D01*
X187245642Y-62522023D01*
X187207547Y-62502976D01*
X187188500Y-62483928D01*
X187169452Y-62445833D01*
X187169452Y-62369642D01*
X187188500Y-62331547D01*
X187207547Y-62312500D01*
X187245642Y-62293452D01*
X187340880Y-62293452D01*
X187378976Y-62312500D01*
X187398023Y-62331547D01*
X187417071Y-62369642D01*
X187417071Y-62445833D01*
X187398023Y-62483928D01*
X187378976Y-62502976D01*
X187340880Y-62522023D01*
X189562500Y-60944404D02*
X189562500Y-61344404D01*
X190109452Y-61268214D02*
X189918976Y-61134880D01*
X190109452Y-61039642D02*
X189709452Y-61039642D01*
X189709452Y-61192023D01*
X189728500Y-61230119D01*
X189747547Y-61249166D01*
X189785642Y-61268214D01*
X189842785Y-61268214D01*
X189880880Y-61249166D01*
X189899928Y-61230119D01*
X189918976Y-61192023D01*
X189918976Y-61039642D01*
X189562500Y-61344404D02*
X189562500Y-61706309D01*
X189899928Y-61439642D02*
X189899928Y-61572976D01*
X190109452Y-61630119D02*
X190109452Y-61439642D01*
X189709452Y-61439642D01*
X189709452Y-61630119D01*
X189562500Y-61706309D02*
X189562500Y-62087261D01*
X190090404Y-61782500D02*
X190109452Y-61839642D01*
X190109452Y-61934880D01*
X190090404Y-61972976D01*
X190071357Y-61992023D01*
X190033261Y-62011071D01*
X189995166Y-62011071D01*
X189957071Y-61992023D01*
X189938023Y-61972976D01*
X189918976Y-61934880D01*
X189899928Y-61858690D01*
X189880880Y-61820595D01*
X189861833Y-61801547D01*
X189823738Y-61782500D01*
X189785642Y-61782500D01*
X189747547Y-61801547D01*
X189728500Y-61820595D01*
X189709452Y-61858690D01*
X189709452Y-61953928D01*
X189728500Y-62011071D01*
X189562500Y-62087261D02*
X189562500Y-62449166D01*
X189899928Y-62182500D02*
X189899928Y-62315833D01*
X190109452Y-62372976D02*
X190109452Y-62182500D01*
X189709452Y-62182500D01*
X189709452Y-62372976D01*
X189562500Y-62449166D02*
X189562500Y-62753928D01*
X189709452Y-62487261D02*
X189709452Y-62715833D01*
X190109452Y-62601547D02*
X189709452Y-62601547D01*
X189562500Y-62753928D02*
X189562500Y-63058690D01*
X190147547Y-62753928D02*
X190147547Y-63058690D01*
X189562500Y-63058690D02*
X189562500Y-63477738D01*
X189709452Y-63230119D02*
X189709452Y-63306309D01*
X189728500Y-63344404D01*
X189766595Y-63382500D01*
X189842785Y-63401547D01*
X189976119Y-63401547D01*
X190052309Y-63382500D01*
X190090404Y-63344404D01*
X190109452Y-63306309D01*
X190109452Y-63230119D01*
X190090404Y-63192023D01*
X190052309Y-63153928D01*
X189976119Y-63134880D01*
X189842785Y-63134880D01*
X189766595Y-63153928D01*
X189728500Y-63192023D01*
X189709452Y-63230119D01*
X189562500Y-63477738D02*
X189562500Y-63877738D01*
X189899928Y-63706309D02*
X189918976Y-63763452D01*
X189938023Y-63782500D01*
X189976119Y-63801547D01*
X190033261Y-63801547D01*
X190071357Y-63782500D01*
X190090404Y-63763452D01*
X190109452Y-63725357D01*
X190109452Y-63572976D01*
X189709452Y-63572976D01*
X189709452Y-63706309D01*
X189728500Y-63744404D01*
X189747547Y-63763452D01*
X189785642Y-63782500D01*
X189823738Y-63782500D01*
X189861833Y-63763452D01*
X189880880Y-63744404D01*
X189899928Y-63706309D01*
X189899928Y-63572976D01*
X189562500Y-63877738D02*
X189562500Y-64277738D01*
X190109452Y-63972976D02*
X189709452Y-63972976D01*
X189709452Y-64068214D01*
X189728500Y-64125357D01*
X189766595Y-64163452D01*
X189804690Y-64182500D01*
X189880880Y-64201547D01*
X189938023Y-64201547D01*
X190014214Y-64182500D01*
X190052309Y-64163452D01*
X190090404Y-64125357D01*
X190109452Y-64068214D01*
X190109452Y-63972976D01*
X189562500Y-64277738D02*
X189562500Y-64582500D01*
X190147547Y-64277738D02*
X190147547Y-64582500D01*
X189562500Y-64582500D02*
X189562500Y-64963452D01*
X190090404Y-64658690D02*
X190109452Y-64715833D01*
X190109452Y-64811071D01*
X190090404Y-64849166D01*
X190071357Y-64868214D01*
X190033261Y-64887261D01*
X189995166Y-64887261D01*
X189957071Y-64868214D01*
X189938023Y-64849166D01*
X189918976Y-64811071D01*
X189899928Y-64734880D01*
X189880880Y-64696785D01*
X189861833Y-64677738D01*
X189823738Y-64658690D01*
X189785642Y-64658690D01*
X189747547Y-64677738D01*
X189728500Y-64696785D01*
X189709452Y-64734880D01*
X189709452Y-64830119D01*
X189728500Y-64887261D01*
X189562500Y-64963452D02*
X189562500Y-65420595D01*
X189709452Y-65020595D02*
X190109452Y-65115833D01*
X189823738Y-65192023D01*
X190109452Y-65268214D01*
X189709452Y-65363452D01*
X192102500Y-60998309D02*
X192102500Y-61379261D01*
X192630404Y-61074500D02*
X192649452Y-61131642D01*
X192649452Y-61226880D01*
X192630404Y-61264976D01*
X192611357Y-61284023D01*
X192573261Y-61303071D01*
X192535166Y-61303071D01*
X192497071Y-61284023D01*
X192478023Y-61264976D01*
X192458976Y-61226880D01*
X192439928Y-61150690D01*
X192420880Y-61112595D01*
X192401833Y-61093547D01*
X192363738Y-61074500D01*
X192325642Y-61074500D01*
X192287547Y-61093547D01*
X192268500Y-61112595D01*
X192249452Y-61150690D01*
X192249452Y-61245928D01*
X192268500Y-61303071D01*
X192102500Y-61379261D02*
X192102500Y-61703071D01*
X192649452Y-61664976D02*
X192649452Y-61474500D01*
X192249452Y-61474500D01*
X192102500Y-61703071D02*
X192102500Y-62064976D01*
X192439928Y-61798309D02*
X192439928Y-61931642D01*
X192649452Y-61988785D02*
X192649452Y-61798309D01*
X192249452Y-61798309D01*
X192249452Y-61988785D01*
X192102500Y-62064976D02*
X192102500Y-62426880D01*
X192439928Y-62160214D02*
X192439928Y-62293547D01*
X192649452Y-62350690D02*
X192649452Y-62160214D01*
X192249452Y-62160214D01*
X192249452Y-62350690D01*
X192102500Y-62426880D02*
X192102500Y-62826880D01*
X192649452Y-62522119D02*
X192249452Y-62522119D01*
X192249452Y-62674500D01*
X192268500Y-62712595D01*
X192287547Y-62731642D01*
X192325642Y-62750690D01*
X192382785Y-62750690D01*
X192420880Y-62731642D01*
X192439928Y-62712595D01*
X192458976Y-62674500D01*
X192458976Y-62522119D01*
X192102500Y-62826880D02*
X192102500Y-63131642D01*
X192687547Y-62826880D02*
X192687547Y-63131642D01*
X192102500Y-63131642D02*
X192102500Y-63550690D01*
X192249452Y-63303071D02*
X192249452Y-63379261D01*
X192268500Y-63417357D01*
X192306595Y-63455452D01*
X192382785Y-63474500D01*
X192516119Y-63474500D01*
X192592309Y-63455452D01*
X192630404Y-63417357D01*
X192649452Y-63379261D01*
X192649452Y-63303071D01*
X192630404Y-63264976D01*
X192592309Y-63226880D01*
X192516119Y-63207833D01*
X192382785Y-63207833D01*
X192306595Y-63226880D01*
X192268500Y-63264976D01*
X192249452Y-63303071D01*
X192102500Y-63550690D02*
X192102500Y-63950690D01*
X192439928Y-63779261D02*
X192458976Y-63836404D01*
X192478023Y-63855452D01*
X192516119Y-63874500D01*
X192573261Y-63874500D01*
X192611357Y-63855452D01*
X192630404Y-63836404D01*
X192649452Y-63798309D01*
X192649452Y-63645928D01*
X192249452Y-63645928D01*
X192249452Y-63779261D01*
X192268500Y-63817357D01*
X192287547Y-63836404D01*
X192325642Y-63855452D01*
X192363738Y-63855452D01*
X192401833Y-63836404D01*
X192420880Y-63817357D01*
X192439928Y-63779261D01*
X192439928Y-63645928D01*
X192102500Y-63950690D02*
X192102500Y-64350690D01*
X192649452Y-64045928D02*
X192249452Y-64045928D01*
X192249452Y-64141166D01*
X192268500Y-64198309D01*
X192306595Y-64236404D01*
X192344690Y-64255452D01*
X192420880Y-64274500D01*
X192478023Y-64274500D01*
X192554214Y-64255452D01*
X192592309Y-64236404D01*
X192630404Y-64198309D01*
X192649452Y-64141166D01*
X192649452Y-64045928D01*
X195189452Y-61214119D02*
X194789452Y-61214119D01*
X194979928Y-61214119D02*
X194979928Y-61442690D01*
X195189452Y-61442690D02*
X194789452Y-61442690D01*
X195170404Y-61614119D02*
X195189452Y-61671261D01*
X195189452Y-61766500D01*
X195170404Y-61804595D01*
X195151357Y-61823642D01*
X195113261Y-61842690D01*
X195075166Y-61842690D01*
X195037071Y-61823642D01*
X195018023Y-61804595D01*
X194998976Y-61766500D01*
X194979928Y-61690309D01*
X194960880Y-61652214D01*
X194941833Y-61633166D01*
X194903738Y-61614119D01*
X194865642Y-61614119D01*
X194827547Y-61633166D01*
X194808500Y-61652214D01*
X194789452Y-61690309D01*
X194789452Y-61785547D01*
X194808500Y-61842690D01*
X194789452Y-61956976D02*
X194789452Y-62185547D01*
X195189452Y-62071261D02*
X194789452Y-62071261D01*
X195227547Y-62223642D02*
X195227547Y-62528404D01*
X194789452Y-62566500D02*
X194789452Y-62795071D01*
X195189452Y-62680785D02*
X194789452Y-62680785D01*
X194789452Y-62890309D02*
X195189452Y-63156976D01*
X194789452Y-63156976D02*
X195189452Y-62890309D01*
X197729452Y-61166500D02*
X197329452Y-61166500D01*
X197519928Y-61166500D02*
X197519928Y-61395071D01*
X197729452Y-61395071D02*
X197329452Y-61395071D01*
X197710404Y-61566500D02*
X197729452Y-61623642D01*
X197729452Y-61718880D01*
X197710404Y-61756976D01*
X197691357Y-61776023D01*
X197653261Y-61795071D01*
X197615166Y-61795071D01*
X197577071Y-61776023D01*
X197558023Y-61756976D01*
X197538976Y-61718880D01*
X197519928Y-61642690D01*
X197500880Y-61604595D01*
X197481833Y-61585547D01*
X197443738Y-61566500D01*
X197405642Y-61566500D01*
X197367547Y-61585547D01*
X197348500Y-61604595D01*
X197329452Y-61642690D01*
X197329452Y-61737928D01*
X197348500Y-61795071D01*
X197329452Y-61909357D02*
X197329452Y-62137928D01*
X197729452Y-62023642D02*
X197329452Y-62023642D01*
X197767547Y-62176023D02*
X197767547Y-62480785D01*
X197729452Y-62804595D02*
X197538976Y-62671261D01*
X197729452Y-62576023D02*
X197329452Y-62576023D01*
X197329452Y-62728404D01*
X197348500Y-62766500D01*
X197367547Y-62785547D01*
X197405642Y-62804595D01*
X197462785Y-62804595D01*
X197500880Y-62785547D01*
X197519928Y-62766500D01*
X197538976Y-62728404D01*
X197538976Y-62576023D01*
X197329452Y-62937928D02*
X197729452Y-63204595D01*
X197329452Y-63204595D02*
X197729452Y-62937928D01*
X200269452Y-61004500D02*
X199869452Y-61004500D01*
X199869452Y-61271166D02*
X199869452Y-61347357D01*
X199888500Y-61385452D01*
X199926595Y-61423547D01*
X200002785Y-61442595D01*
X200136119Y-61442595D01*
X200212309Y-61423547D01*
X200250404Y-61385452D01*
X200269452Y-61347357D01*
X200269452Y-61271166D01*
X200250404Y-61233071D01*
X200212309Y-61194976D01*
X200136119Y-61175928D01*
X200002785Y-61175928D01*
X199926595Y-61194976D01*
X199888500Y-61233071D01*
X199869452Y-61271166D01*
X200002785Y-61785452D02*
X200269452Y-61785452D01*
X199850404Y-61690214D02*
X200136119Y-61594976D01*
X200136119Y-61842595D01*
X202809452Y-61004500D02*
X202409452Y-61004500D01*
X202409452Y-61271166D02*
X202409452Y-61347357D01*
X202428500Y-61385452D01*
X202466595Y-61423547D01*
X202542785Y-61442595D01*
X202676119Y-61442595D01*
X202752309Y-61423547D01*
X202790404Y-61385452D01*
X202809452Y-61347357D01*
X202809452Y-61271166D01*
X202790404Y-61233071D01*
X202752309Y-61194976D01*
X202676119Y-61175928D01*
X202542785Y-61175928D01*
X202466595Y-61194976D01*
X202428500Y-61233071D01*
X202409452Y-61271166D01*
X202409452Y-61690214D02*
X202409452Y-61728309D01*
X202428500Y-61766404D01*
X202447547Y-61785452D01*
X202485642Y-61804500D01*
X202561833Y-61823547D01*
X202657071Y-61823547D01*
X202733261Y-61804500D01*
X202771357Y-61785452D01*
X202790404Y-61766404D01*
X202809452Y-61728309D01*
X202809452Y-61690214D01*
X202790404Y-61652119D01*
X202771357Y-61633071D01*
X202733261Y-61614023D01*
X202657071Y-61594976D01*
X202561833Y-61594976D01*
X202485642Y-61614023D01*
X202447547Y-61633071D01*
X202428500Y-61652119D01*
X202409452Y-61690214D01*
X205349452Y-61004500D02*
X204949452Y-61004500D01*
X204949452Y-61271166D02*
X204949452Y-61347357D01*
X204968500Y-61385452D01*
X205006595Y-61423547D01*
X205082785Y-61442595D01*
X205216119Y-61442595D01*
X205292309Y-61423547D01*
X205330404Y-61385452D01*
X205349452Y-61347357D01*
X205349452Y-61271166D01*
X205330404Y-61233071D01*
X205292309Y-61194976D01*
X205216119Y-61175928D01*
X205082785Y-61175928D01*
X205006595Y-61194976D01*
X204968500Y-61233071D01*
X204949452Y-61271166D01*
X204987547Y-61594976D02*
X204968500Y-61614023D01*
X204949452Y-61652119D01*
X204949452Y-61747357D01*
X204968500Y-61785452D01*
X204987547Y-61804500D01*
X205025642Y-61823547D01*
X205063738Y-61823547D01*
X205120880Y-61804500D01*
X205349452Y-61575928D01*
X205349452Y-61823547D01*
X207889452Y-60814023D02*
X207489452Y-60814023D01*
X207489452Y-61080690D02*
X207489452Y-61156880D01*
X207508500Y-61194976D01*
X207546595Y-61233071D01*
X207622785Y-61252119D01*
X207756119Y-61252119D01*
X207832309Y-61233071D01*
X207870404Y-61194976D01*
X207889452Y-61156880D01*
X207889452Y-61080690D01*
X207870404Y-61042595D01*
X207832309Y-61004500D01*
X207756119Y-60985452D01*
X207622785Y-60985452D01*
X207546595Y-61004500D01*
X207508500Y-61042595D01*
X207489452Y-61080690D01*
X207527547Y-61404500D02*
X207508500Y-61423547D01*
X207489452Y-61461642D01*
X207489452Y-61556880D01*
X207508500Y-61594976D01*
X207527547Y-61614023D01*
X207565642Y-61633071D01*
X207603738Y-61633071D01*
X207660880Y-61614023D01*
X207889452Y-61385452D01*
X207889452Y-61633071D01*
X207489452Y-61766404D02*
X207489452Y-62014023D01*
X207641833Y-61880690D01*
X207641833Y-61937833D01*
X207660880Y-61975928D01*
X207679928Y-61994976D01*
X207718023Y-62014023D01*
X207813261Y-62014023D01*
X207851357Y-61994976D01*
X207870404Y-61975928D01*
X207889452Y-61937833D01*
X207889452Y-61823547D01*
X207870404Y-61785452D01*
X207851357Y-61766404D01*
X210029452Y-61328309D02*
X210029452Y-61137833D01*
X210219928Y-61118785D01*
X210200880Y-61137833D01*
X210181833Y-61175928D01*
X210181833Y-61271166D01*
X210200880Y-61309261D01*
X210219928Y-61328309D01*
X210258023Y-61347357D01*
X210353261Y-61347357D01*
X210391357Y-61328309D01*
X210410404Y-61309261D01*
X210429452Y-61271166D01*
X210429452Y-61175928D01*
X210410404Y-61137833D01*
X210391357Y-61118785D01*
X210029452Y-61461642D02*
X210429452Y-61594976D01*
X210029452Y-61728309D01*
X217668500Y-61128309D02*
X217649452Y-61090214D01*
X217649452Y-61033071D01*
X217668500Y-60975928D01*
X217706595Y-60937833D01*
X217744690Y-60918785D01*
X217820880Y-60899738D01*
X217878023Y-60899738D01*
X217954214Y-60918785D01*
X217992309Y-60937833D01*
X218030404Y-60975928D01*
X218049452Y-61033071D01*
X218049452Y-61071166D01*
X218030404Y-61128309D01*
X218011357Y-61147357D01*
X217878023Y-61147357D01*
X217878023Y-61071166D01*
X217782785Y-61318785D02*
X218049452Y-61318785D01*
X217820880Y-61318785D02*
X217801833Y-61337833D01*
X217782785Y-61375928D01*
X217782785Y-61433071D01*
X217801833Y-61471166D01*
X217839928Y-61490214D01*
X218049452Y-61490214D01*
X218049452Y-61680690D02*
X217649452Y-61680690D01*
X217649452Y-61775928D01*
X217668500Y-61833071D01*
X217706595Y-61871166D01*
X217744690Y-61890214D01*
X217820880Y-61909261D01*
X217878023Y-61909261D01*
X217954214Y-61890214D01*
X217992309Y-61871166D01*
X218030404Y-61833071D01*
X218049452Y-61775928D01*
X218049452Y-61680690D01*
%TO.C,R_COMP_7*%
D16*
X218745404Y-72933690D02*
X218912071Y-72695595D01*
X219031119Y-72933690D02*
X219031119Y-72433690D01*
X218840642Y-72433690D01*
X218793023Y-72457500D01*
X218769214Y-72481309D01*
X218745404Y-72528928D01*
X218745404Y-72600357D01*
X218769214Y-72647976D01*
X218793023Y-72671785D01*
X218840642Y-72695595D01*
X219031119Y-72695595D01*
X218650166Y-72981309D02*
X218269214Y-72981309D01*
X217864452Y-72886071D02*
X217888261Y-72909880D01*
X217959690Y-72933690D01*
X218007309Y-72933690D01*
X218078738Y-72909880D01*
X218126357Y-72862261D01*
X218150166Y-72814642D01*
X218173976Y-72719404D01*
X218173976Y-72647976D01*
X218150166Y-72552738D01*
X218126357Y-72505119D01*
X218078738Y-72457500D01*
X218007309Y-72433690D01*
X217959690Y-72433690D01*
X217888261Y-72457500D01*
X217864452Y-72481309D01*
X217554928Y-72433690D02*
X217459690Y-72433690D01*
X217412071Y-72457500D01*
X217364452Y-72505119D01*
X217340642Y-72600357D01*
X217340642Y-72767023D01*
X217364452Y-72862261D01*
X217412071Y-72909880D01*
X217459690Y-72933690D01*
X217554928Y-72933690D01*
X217602547Y-72909880D01*
X217650166Y-72862261D01*
X217673976Y-72767023D01*
X217673976Y-72600357D01*
X217650166Y-72505119D01*
X217602547Y-72457500D01*
X217554928Y-72433690D01*
X217126357Y-72933690D02*
X217126357Y-72433690D01*
X216959690Y-72790833D01*
X216793023Y-72433690D01*
X216793023Y-72933690D01*
X216554928Y-72933690D02*
X216554928Y-72433690D01*
X216364452Y-72433690D01*
X216316833Y-72457500D01*
X216293023Y-72481309D01*
X216269214Y-72528928D01*
X216269214Y-72600357D01*
X216293023Y-72647976D01*
X216316833Y-72671785D01*
X216364452Y-72695595D01*
X216554928Y-72695595D01*
X216173976Y-72981309D02*
X215793023Y-72981309D01*
X215721595Y-72433690D02*
X215388261Y-72433690D01*
X215602547Y-72933690D01*
%TO.C,C_ESP_1*%
X142070324Y-66303736D02*
X142094133Y-66279927D01*
X142117943Y-66208498D01*
X142117943Y-66160879D01*
X142094133Y-66089450D01*
X142046514Y-66041831D01*
X141998895Y-66018022D01*
X141903657Y-65994212D01*
X141832229Y-65994212D01*
X141736991Y-66018022D01*
X141689372Y-66041831D01*
X141641753Y-66089450D01*
X141617943Y-66160879D01*
X141617943Y-66208498D01*
X141641753Y-66279927D01*
X141665562Y-66303736D01*
X142165562Y-66398974D02*
X142165562Y-66779927D01*
X141856038Y-66898974D02*
X141856038Y-67065641D01*
X142117943Y-67137069D02*
X142117943Y-66898974D01*
X141617943Y-66898974D01*
X141617943Y-67137069D01*
X142094133Y-67327546D02*
X142117943Y-67398974D01*
X142117943Y-67518022D01*
X142094133Y-67565641D01*
X142070324Y-67589450D01*
X142022705Y-67613260D01*
X141975086Y-67613260D01*
X141927467Y-67589450D01*
X141903657Y-67565641D01*
X141879848Y-67518022D01*
X141856038Y-67422784D01*
X141832229Y-67375165D01*
X141808419Y-67351355D01*
X141760800Y-67327546D01*
X141713181Y-67327546D01*
X141665562Y-67351355D01*
X141641753Y-67375165D01*
X141617943Y-67422784D01*
X141617943Y-67541831D01*
X141641753Y-67613260D01*
X142117943Y-67827546D02*
X141617943Y-67827546D01*
X141617943Y-68018022D01*
X141641753Y-68065641D01*
X141665562Y-68089450D01*
X141713181Y-68113260D01*
X141784610Y-68113260D01*
X141832229Y-68089450D01*
X141856038Y-68065641D01*
X141879848Y-68018022D01*
X141879848Y-67827546D01*
X142165562Y-68208498D02*
X142165562Y-68589450D01*
X142117943Y-68970403D02*
X142117943Y-68684688D01*
X142117943Y-68827546D02*
X141617943Y-68827546D01*
X141689372Y-68779927D01*
X141736991Y-68732308D01*
X141760800Y-68684688D01*
%TO.C,C_ESP_2*%
X174643818Y-84355928D02*
X174667627Y-84332119D01*
X174691437Y-84260690D01*
X174691437Y-84213071D01*
X174667627Y-84141642D01*
X174620008Y-84094023D01*
X174572389Y-84070214D01*
X174477151Y-84046404D01*
X174405723Y-84046404D01*
X174310485Y-84070214D01*
X174262866Y-84094023D01*
X174215247Y-84141642D01*
X174191437Y-84213071D01*
X174191437Y-84260690D01*
X174215247Y-84332119D01*
X174239056Y-84355928D01*
X174739056Y-84451166D02*
X174739056Y-84832119D01*
X174429532Y-84951166D02*
X174429532Y-85117833D01*
X174691437Y-85189261D02*
X174691437Y-84951166D01*
X174191437Y-84951166D01*
X174191437Y-85189261D01*
X174667627Y-85379738D02*
X174691437Y-85451166D01*
X174691437Y-85570214D01*
X174667627Y-85617833D01*
X174643818Y-85641642D01*
X174596199Y-85665452D01*
X174548580Y-85665452D01*
X174500961Y-85641642D01*
X174477151Y-85617833D01*
X174453342Y-85570214D01*
X174429532Y-85474976D01*
X174405723Y-85427357D01*
X174381913Y-85403547D01*
X174334294Y-85379738D01*
X174286675Y-85379738D01*
X174239056Y-85403547D01*
X174215247Y-85427357D01*
X174191437Y-85474976D01*
X174191437Y-85594023D01*
X174215247Y-85665452D01*
X174691437Y-85879738D02*
X174191437Y-85879738D01*
X174191437Y-86070214D01*
X174215247Y-86117833D01*
X174239056Y-86141642D01*
X174286675Y-86165452D01*
X174358104Y-86165452D01*
X174405723Y-86141642D01*
X174429532Y-86117833D01*
X174453342Y-86070214D01*
X174453342Y-85879738D01*
X174739056Y-86260690D02*
X174739056Y-86641642D01*
X174239056Y-86736880D02*
X174215247Y-86760690D01*
X174191437Y-86808309D01*
X174191437Y-86927357D01*
X174215247Y-86974976D01*
X174239056Y-86998785D01*
X174286675Y-87022595D01*
X174334294Y-87022595D01*
X174405723Y-86998785D01*
X174691437Y-86713071D01*
X174691437Y-87022595D01*
%TO.C,C_HSCAN_3*%
X133452976Y-107239571D02*
X133476785Y-107263380D01*
X133548214Y-107287190D01*
X133595833Y-107287190D01*
X133667261Y-107263380D01*
X133714880Y-107215761D01*
X133738690Y-107168142D01*
X133762500Y-107072904D01*
X133762500Y-107001476D01*
X133738690Y-106906238D01*
X133714880Y-106858619D01*
X133667261Y-106811000D01*
X133595833Y-106787190D01*
X133548214Y-106787190D01*
X133476785Y-106811000D01*
X133452976Y-106834809D01*
X133357738Y-107334809D02*
X132976785Y-107334809D01*
X132857738Y-107287190D02*
X132857738Y-106787190D01*
X132857738Y-107025285D02*
X132572023Y-107025285D01*
X132572023Y-107287190D02*
X132572023Y-106787190D01*
X132357738Y-107263380D02*
X132286309Y-107287190D01*
X132167261Y-107287190D01*
X132119642Y-107263380D01*
X132095833Y-107239571D01*
X132072023Y-107191952D01*
X132072023Y-107144333D01*
X132095833Y-107096714D01*
X132119642Y-107072904D01*
X132167261Y-107049095D01*
X132262500Y-107025285D01*
X132310119Y-107001476D01*
X132333928Y-106977666D01*
X132357738Y-106930047D01*
X132357738Y-106882428D01*
X132333928Y-106834809D01*
X132310119Y-106811000D01*
X132262500Y-106787190D01*
X132143452Y-106787190D01*
X132072023Y-106811000D01*
X131572023Y-107239571D02*
X131595833Y-107263380D01*
X131667261Y-107287190D01*
X131714880Y-107287190D01*
X131786309Y-107263380D01*
X131833928Y-107215761D01*
X131857738Y-107168142D01*
X131881547Y-107072904D01*
X131881547Y-107001476D01*
X131857738Y-106906238D01*
X131833928Y-106858619D01*
X131786309Y-106811000D01*
X131714880Y-106787190D01*
X131667261Y-106787190D01*
X131595833Y-106811000D01*
X131572023Y-106834809D01*
X131381547Y-107144333D02*
X131143452Y-107144333D01*
X131429166Y-107287190D02*
X131262500Y-106787190D01*
X131095833Y-107287190D01*
X130929166Y-107287190D02*
X130929166Y-106787190D01*
X130643452Y-107287190D01*
X130643452Y-106787190D01*
X130524404Y-107334809D02*
X130143452Y-107334809D01*
X130072023Y-106787190D02*
X129762500Y-106787190D01*
X129929166Y-106977666D01*
X129857738Y-106977666D01*
X129810119Y-107001476D01*
X129786309Y-107025285D01*
X129762500Y-107072904D01*
X129762500Y-107191952D01*
X129786309Y-107239571D01*
X129810119Y-107263380D01*
X129857738Y-107287190D01*
X130000595Y-107287190D01*
X130048214Y-107263380D01*
X130072023Y-107239571D01*
%TO.C,C_IMU_1*%
X137763452Y-85493071D02*
X137787261Y-85516880D01*
X137858690Y-85540690D01*
X137906309Y-85540690D01*
X137977738Y-85516880D01*
X138025357Y-85469261D01*
X138049166Y-85421642D01*
X138072976Y-85326404D01*
X138072976Y-85254976D01*
X138049166Y-85159738D01*
X138025357Y-85112119D01*
X137977738Y-85064500D01*
X137906309Y-85040690D01*
X137858690Y-85040690D01*
X137787261Y-85064500D01*
X137763452Y-85088309D01*
X137668214Y-85588309D02*
X137287261Y-85588309D01*
X137168214Y-85540690D02*
X137168214Y-85040690D01*
X136930119Y-85540690D02*
X136930119Y-85040690D01*
X136763452Y-85397833D01*
X136596785Y-85040690D01*
X136596785Y-85540690D01*
X136358690Y-85040690D02*
X136358690Y-85445452D01*
X136334880Y-85493071D01*
X136311071Y-85516880D01*
X136263452Y-85540690D01*
X136168214Y-85540690D01*
X136120595Y-85516880D01*
X136096785Y-85493071D01*
X136072976Y-85445452D01*
X136072976Y-85040690D01*
X135953928Y-85588309D02*
X135572976Y-85588309D01*
X135192023Y-85540690D02*
X135477738Y-85540690D01*
X135334880Y-85540690D02*
X135334880Y-85040690D01*
X135382500Y-85112119D01*
X135430119Y-85159738D01*
X135477738Y-85183547D01*
%TO.C,C_IMU_2*%
X138227452Y-79617071D02*
X138251261Y-79640880D01*
X138322690Y-79664690D01*
X138370309Y-79664690D01*
X138441738Y-79640880D01*
X138489357Y-79593261D01*
X138513166Y-79545642D01*
X138536976Y-79450404D01*
X138536976Y-79378976D01*
X138513166Y-79283738D01*
X138489357Y-79236119D01*
X138441738Y-79188500D01*
X138370309Y-79164690D01*
X138322690Y-79164690D01*
X138251261Y-79188500D01*
X138227452Y-79212309D01*
X138132214Y-79712309D02*
X137751261Y-79712309D01*
X137632214Y-79664690D02*
X137632214Y-79164690D01*
X137394119Y-79664690D02*
X137394119Y-79164690D01*
X137227452Y-79521833D01*
X137060785Y-79164690D01*
X137060785Y-79664690D01*
X136822690Y-79164690D02*
X136822690Y-79569452D01*
X136798880Y-79617071D01*
X136775071Y-79640880D01*
X136727452Y-79664690D01*
X136632214Y-79664690D01*
X136584595Y-79640880D01*
X136560785Y-79617071D01*
X136536976Y-79569452D01*
X136536976Y-79164690D01*
X136417928Y-79712309D02*
X136036976Y-79712309D01*
X135941738Y-79212309D02*
X135917928Y-79188500D01*
X135870309Y-79164690D01*
X135751261Y-79164690D01*
X135703642Y-79188500D01*
X135679833Y-79212309D01*
X135656023Y-79259928D01*
X135656023Y-79307547D01*
X135679833Y-79378976D01*
X135965547Y-79664690D01*
X135656023Y-79664690D01*
%TO.C,C_PS_1*%
X117308285Y-96139142D02*
X117336857Y-96110571D01*
X117365428Y-96024857D01*
X117365428Y-95967714D01*
X117336857Y-95882000D01*
X117279714Y-95824857D01*
X117222571Y-95796285D01*
X117108285Y-95767714D01*
X117022571Y-95767714D01*
X116908285Y-95796285D01*
X116851142Y-95824857D01*
X116794000Y-95882000D01*
X116765428Y-95967714D01*
X116765428Y-96024857D01*
X116794000Y-96110571D01*
X116822571Y-96139142D01*
X117422571Y-96253428D02*
X117422571Y-96710571D01*
X117365428Y-96853428D02*
X116765428Y-96853428D01*
X116765428Y-97082000D01*
X116794000Y-97139142D01*
X116822571Y-97167714D01*
X116879714Y-97196285D01*
X116965428Y-97196285D01*
X117022571Y-97167714D01*
X117051142Y-97139142D01*
X117079714Y-97082000D01*
X117079714Y-96853428D01*
X117336857Y-97424857D02*
X117365428Y-97510571D01*
X117365428Y-97653428D01*
X117336857Y-97710571D01*
X117308285Y-97739142D01*
X117251142Y-97767714D01*
X117194000Y-97767714D01*
X117136857Y-97739142D01*
X117108285Y-97710571D01*
X117079714Y-97653428D01*
X117051142Y-97539142D01*
X117022571Y-97482000D01*
X116994000Y-97453428D01*
X116936857Y-97424857D01*
X116879714Y-97424857D01*
X116822571Y-97453428D01*
X116794000Y-97482000D01*
X116765428Y-97539142D01*
X116765428Y-97682000D01*
X116794000Y-97767714D01*
X117422571Y-97882000D02*
X117422571Y-98339142D01*
X117365428Y-98796285D02*
X117365428Y-98453428D01*
X117365428Y-98624857D02*
X116765428Y-98624857D01*
X116851142Y-98567714D01*
X116908285Y-98510571D01*
X116936857Y-98453428D01*
D10*
X114768380Y-98427998D02*
X115006476Y-98427998D01*
X114911238Y-98189902D02*
X115006476Y-98427998D01*
X114911238Y-98666093D01*
X115196952Y-98285140D02*
X115006476Y-98427998D01*
X115196952Y-98570855D01*
%TO.C,C_STN_1*%
D16*
X154253261Y-100064071D02*
X154277071Y-100087880D01*
X154348500Y-100111690D01*
X154396119Y-100111690D01*
X154467547Y-100087880D01*
X154515166Y-100040261D01*
X154538976Y-99992642D01*
X154562785Y-99897404D01*
X154562785Y-99825976D01*
X154538976Y-99730738D01*
X154515166Y-99683119D01*
X154467547Y-99635500D01*
X154396119Y-99611690D01*
X154348500Y-99611690D01*
X154277071Y-99635500D01*
X154253261Y-99659309D01*
X154158023Y-100159309D02*
X153777071Y-100159309D01*
X153681833Y-100087880D02*
X153610404Y-100111690D01*
X153491357Y-100111690D01*
X153443738Y-100087880D01*
X153419928Y-100064071D01*
X153396119Y-100016452D01*
X153396119Y-99968833D01*
X153419928Y-99921214D01*
X153443738Y-99897404D01*
X153491357Y-99873595D01*
X153586595Y-99849785D01*
X153634214Y-99825976D01*
X153658023Y-99802166D01*
X153681833Y-99754547D01*
X153681833Y-99706928D01*
X153658023Y-99659309D01*
X153634214Y-99635500D01*
X153586595Y-99611690D01*
X153467547Y-99611690D01*
X153396119Y-99635500D01*
X153253261Y-99611690D02*
X152967547Y-99611690D01*
X153110404Y-100111690D02*
X153110404Y-99611690D01*
X152800880Y-100111690D02*
X152800880Y-99611690D01*
X152515166Y-100111690D01*
X152515166Y-99611690D01*
X152396119Y-100159309D02*
X152015166Y-100159309D01*
X151634214Y-100111690D02*
X151919928Y-100111690D01*
X151777071Y-100111690D02*
X151777071Y-99611690D01*
X151824690Y-99683119D01*
X151872309Y-99730738D01*
X151919928Y-99754547D01*
%TO.C,C_VR2_1*%
X99380500Y-72858285D02*
X99409071Y-72886857D01*
X99494785Y-72915428D01*
X99551928Y-72915428D01*
X99637642Y-72886857D01*
X99694785Y-72829714D01*
X99723357Y-72772571D01*
X99751928Y-72658285D01*
X99751928Y-72572571D01*
X99723357Y-72458285D01*
X99694785Y-72401142D01*
X99637642Y-72344000D01*
X99551928Y-72315428D01*
X99494785Y-72315428D01*
X99409071Y-72344000D01*
X99380500Y-72372571D01*
X99266214Y-72972571D02*
X98809071Y-72972571D01*
X98751928Y-72315428D02*
X98551928Y-72915428D01*
X98351928Y-72315428D01*
X97809071Y-72915428D02*
X98009071Y-72629714D01*
X98151928Y-72915428D02*
X98151928Y-72315428D01*
X97923357Y-72315428D01*
X97866214Y-72344000D01*
X97837642Y-72372571D01*
X97809071Y-72429714D01*
X97809071Y-72515428D01*
X97837642Y-72572571D01*
X97866214Y-72601142D01*
X97923357Y-72629714D01*
X98151928Y-72629714D01*
X97580500Y-72372571D02*
X97551928Y-72344000D01*
X97494785Y-72315428D01*
X97351928Y-72315428D01*
X97294785Y-72344000D01*
X97266214Y-72372571D01*
X97237642Y-72429714D01*
X97237642Y-72486857D01*
X97266214Y-72572571D01*
X97609071Y-72915428D01*
X97237642Y-72915428D01*
X97123357Y-72972571D02*
X96666214Y-72972571D01*
X96209071Y-72915428D02*
X96551928Y-72915428D01*
X96380500Y-72915428D02*
X96380500Y-72315428D01*
X96437642Y-72401142D01*
X96494785Y-72458285D01*
X96551928Y-72486857D01*
D10*
X98044000Y-74128380D02*
X98044000Y-74366476D01*
X98282095Y-74271238D02*
X98044000Y-74366476D01*
X97805904Y-74271238D01*
X98186857Y-74556952D02*
X98044000Y-74366476D01*
X97901142Y-74556952D01*
%TO.C,D_ESD_1*%
D16*
X117891690Y-85022714D02*
X117391690Y-85022714D01*
X117391690Y-85141761D01*
X117415500Y-85213190D01*
X117463119Y-85260809D01*
X117510738Y-85284619D01*
X117605976Y-85308428D01*
X117677404Y-85308428D01*
X117772642Y-85284619D01*
X117820261Y-85260809D01*
X117867880Y-85213190D01*
X117891690Y-85141761D01*
X117891690Y-85022714D01*
X117939309Y-85403666D02*
X117939309Y-85784619D01*
X117629785Y-85903666D02*
X117629785Y-86070333D01*
X117891690Y-86141761D02*
X117891690Y-85903666D01*
X117391690Y-85903666D01*
X117391690Y-86141761D01*
X117867880Y-86332238D02*
X117891690Y-86403666D01*
X117891690Y-86522714D01*
X117867880Y-86570333D01*
X117844071Y-86594142D01*
X117796452Y-86617952D01*
X117748833Y-86617952D01*
X117701214Y-86594142D01*
X117677404Y-86570333D01*
X117653595Y-86522714D01*
X117629785Y-86427476D01*
X117605976Y-86379857D01*
X117582166Y-86356047D01*
X117534547Y-86332238D01*
X117486928Y-86332238D01*
X117439309Y-86356047D01*
X117415500Y-86379857D01*
X117391690Y-86427476D01*
X117391690Y-86546523D01*
X117415500Y-86617952D01*
X117891690Y-86832238D02*
X117391690Y-86832238D01*
X117391690Y-86951285D01*
X117415500Y-87022714D01*
X117463119Y-87070333D01*
X117510738Y-87094142D01*
X117605976Y-87117952D01*
X117677404Y-87117952D01*
X117772642Y-87094142D01*
X117820261Y-87070333D01*
X117867880Y-87022714D01*
X117891690Y-86951285D01*
X117891690Y-86832238D01*
X117939309Y-87213190D02*
X117939309Y-87594142D01*
X117891690Y-87975095D02*
X117891690Y-87689380D01*
X117891690Y-87832238D02*
X117391690Y-87832238D01*
X117463119Y-87784619D01*
X117510738Y-87737000D01*
X117534547Y-87689380D01*
%TO.C,D_ESD_2*%
X113809428Y-84666357D02*
X113209428Y-84666357D01*
X113209428Y-84809214D01*
X113238000Y-84894928D01*
X113295142Y-84952071D01*
X113352285Y-84980642D01*
X113466571Y-85009214D01*
X113552285Y-85009214D01*
X113666571Y-84980642D01*
X113723714Y-84952071D01*
X113780857Y-84894928D01*
X113809428Y-84809214D01*
X113809428Y-84666357D01*
X113866571Y-85123500D02*
X113866571Y-85580642D01*
X113495142Y-85723500D02*
X113495142Y-85923500D01*
X113809428Y-86009214D02*
X113809428Y-85723500D01*
X113209428Y-85723500D01*
X113209428Y-86009214D01*
X113780857Y-86237785D02*
X113809428Y-86323500D01*
X113809428Y-86466357D01*
X113780857Y-86523500D01*
X113752285Y-86552071D01*
X113695142Y-86580642D01*
X113638000Y-86580642D01*
X113580857Y-86552071D01*
X113552285Y-86523500D01*
X113523714Y-86466357D01*
X113495142Y-86352071D01*
X113466571Y-86294928D01*
X113438000Y-86266357D01*
X113380857Y-86237785D01*
X113323714Y-86237785D01*
X113266571Y-86266357D01*
X113238000Y-86294928D01*
X113209428Y-86352071D01*
X113209428Y-86494928D01*
X113238000Y-86580642D01*
X113809428Y-86837785D02*
X113209428Y-86837785D01*
X113209428Y-86980642D01*
X113238000Y-87066357D01*
X113295142Y-87123500D01*
X113352285Y-87152071D01*
X113466571Y-87180642D01*
X113552285Y-87180642D01*
X113666571Y-87152071D01*
X113723714Y-87123500D01*
X113780857Y-87066357D01*
X113809428Y-86980642D01*
X113809428Y-86837785D01*
X113866571Y-87294928D02*
X113866571Y-87752071D01*
X113266571Y-87866357D02*
X113238000Y-87894928D01*
X113209428Y-87952071D01*
X113209428Y-88094928D01*
X113238000Y-88152071D01*
X113266571Y-88180642D01*
X113323714Y-88209214D01*
X113380857Y-88209214D01*
X113466571Y-88180642D01*
X113809428Y-87837785D01*
X113809428Y-88209214D01*
%TO.C,D_ESD_3*%
X117796285Y-89634190D02*
X117796285Y-89134190D01*
X117677238Y-89134190D01*
X117605809Y-89158000D01*
X117558190Y-89205619D01*
X117534380Y-89253238D01*
X117510571Y-89348476D01*
X117510571Y-89419904D01*
X117534380Y-89515142D01*
X117558190Y-89562761D01*
X117605809Y-89610380D01*
X117677238Y-89634190D01*
X117796285Y-89634190D01*
X117415333Y-89681809D02*
X117034380Y-89681809D01*
X116915333Y-89372285D02*
X116748666Y-89372285D01*
X116677238Y-89634190D02*
X116915333Y-89634190D01*
X116915333Y-89134190D01*
X116677238Y-89134190D01*
X116486761Y-89610380D02*
X116415333Y-89634190D01*
X116296285Y-89634190D01*
X116248666Y-89610380D01*
X116224857Y-89586571D01*
X116201047Y-89538952D01*
X116201047Y-89491333D01*
X116224857Y-89443714D01*
X116248666Y-89419904D01*
X116296285Y-89396095D01*
X116391523Y-89372285D01*
X116439142Y-89348476D01*
X116462952Y-89324666D01*
X116486761Y-89277047D01*
X116486761Y-89229428D01*
X116462952Y-89181809D01*
X116439142Y-89158000D01*
X116391523Y-89134190D01*
X116272476Y-89134190D01*
X116201047Y-89158000D01*
X115986761Y-89634190D02*
X115986761Y-89134190D01*
X115867714Y-89134190D01*
X115796285Y-89158000D01*
X115748666Y-89205619D01*
X115724857Y-89253238D01*
X115701047Y-89348476D01*
X115701047Y-89419904D01*
X115724857Y-89515142D01*
X115748666Y-89562761D01*
X115796285Y-89610380D01*
X115867714Y-89634190D01*
X115986761Y-89634190D01*
X115605809Y-89681809D02*
X115224857Y-89681809D01*
X115153428Y-89134190D02*
X114843904Y-89134190D01*
X115010571Y-89324666D01*
X114939142Y-89324666D01*
X114891523Y-89348476D01*
X114867714Y-89372285D01*
X114843904Y-89419904D01*
X114843904Y-89538952D01*
X114867714Y-89586571D01*
X114891523Y-89610380D01*
X114939142Y-89634190D01*
X115082000Y-89634190D01*
X115129619Y-89610380D01*
X115153428Y-89586571D01*
D10*
X116332000Y-91400380D02*
X116332000Y-91638476D01*
X116570095Y-91543238D02*
X116332000Y-91638476D01*
X116093904Y-91543238D01*
X116474857Y-91828952D02*
X116332000Y-91638476D01*
X116189142Y-91828952D01*
%TO.C,D_ESD_5*%
D16*
X87937390Y-113575714D02*
X87437390Y-113575714D01*
X87437390Y-113694761D01*
X87461200Y-113766190D01*
X87508819Y-113813809D01*
X87556438Y-113837619D01*
X87651676Y-113861428D01*
X87723104Y-113861428D01*
X87818342Y-113837619D01*
X87865961Y-113813809D01*
X87913580Y-113766190D01*
X87937390Y-113694761D01*
X87937390Y-113575714D01*
X87985009Y-113956666D02*
X87985009Y-114337619D01*
X87675485Y-114456666D02*
X87675485Y-114623333D01*
X87937390Y-114694761D02*
X87937390Y-114456666D01*
X87437390Y-114456666D01*
X87437390Y-114694761D01*
X87913580Y-114885238D02*
X87937390Y-114956666D01*
X87937390Y-115075714D01*
X87913580Y-115123333D01*
X87889771Y-115147142D01*
X87842152Y-115170952D01*
X87794533Y-115170952D01*
X87746914Y-115147142D01*
X87723104Y-115123333D01*
X87699295Y-115075714D01*
X87675485Y-114980476D01*
X87651676Y-114932857D01*
X87627866Y-114909047D01*
X87580247Y-114885238D01*
X87532628Y-114885238D01*
X87485009Y-114909047D01*
X87461200Y-114932857D01*
X87437390Y-114980476D01*
X87437390Y-115099523D01*
X87461200Y-115170952D01*
X87937390Y-115385238D02*
X87437390Y-115385238D01*
X87437390Y-115504285D01*
X87461200Y-115575714D01*
X87508819Y-115623333D01*
X87556438Y-115647142D01*
X87651676Y-115670952D01*
X87723104Y-115670952D01*
X87818342Y-115647142D01*
X87865961Y-115623333D01*
X87913580Y-115575714D01*
X87937390Y-115504285D01*
X87937390Y-115385238D01*
X87985009Y-115766190D02*
X87985009Y-116147142D01*
X87437390Y-116504285D02*
X87437390Y-116266190D01*
X87675485Y-116242380D01*
X87651676Y-116266190D01*
X87627866Y-116313809D01*
X87627866Y-116432857D01*
X87651676Y-116480476D01*
X87675485Y-116504285D01*
X87723104Y-116528095D01*
X87842152Y-116528095D01*
X87889771Y-116504285D01*
X87913580Y-116480476D01*
X87937390Y-116432857D01*
X87937390Y-116313809D01*
X87913580Y-116266190D01*
X87889771Y-116242380D01*
%TO.C,R_COMP_5*%
X194184690Y-67366095D02*
X193946595Y-67199428D01*
X194184690Y-67080380D02*
X193684690Y-67080380D01*
X193684690Y-67270857D01*
X193708500Y-67318476D01*
X193732309Y-67342285D01*
X193779928Y-67366095D01*
X193851357Y-67366095D01*
X193898976Y-67342285D01*
X193922785Y-67318476D01*
X193946595Y-67270857D01*
X193946595Y-67080380D01*
X194232309Y-67461333D02*
X194232309Y-67842285D01*
X194137071Y-68247047D02*
X194160880Y-68223238D01*
X194184690Y-68151809D01*
X194184690Y-68104190D01*
X194160880Y-68032761D01*
X194113261Y-67985142D01*
X194065642Y-67961333D01*
X193970404Y-67937523D01*
X193898976Y-67937523D01*
X193803738Y-67961333D01*
X193756119Y-67985142D01*
X193708500Y-68032761D01*
X193684690Y-68104190D01*
X193684690Y-68151809D01*
X193708500Y-68223238D01*
X193732309Y-68247047D01*
X193684690Y-68556571D02*
X193684690Y-68651809D01*
X193708500Y-68699428D01*
X193756119Y-68747047D01*
X193851357Y-68770857D01*
X194018023Y-68770857D01*
X194113261Y-68747047D01*
X194160880Y-68699428D01*
X194184690Y-68651809D01*
X194184690Y-68556571D01*
X194160880Y-68508952D01*
X194113261Y-68461333D01*
X194018023Y-68437523D01*
X193851357Y-68437523D01*
X193756119Y-68461333D01*
X193708500Y-68508952D01*
X193684690Y-68556571D01*
X194184690Y-68985142D02*
X193684690Y-68985142D01*
X194041833Y-69151809D01*
X193684690Y-69318476D01*
X194184690Y-69318476D01*
X194184690Y-69556571D02*
X193684690Y-69556571D01*
X193684690Y-69747047D01*
X193708500Y-69794666D01*
X193732309Y-69818476D01*
X193779928Y-69842285D01*
X193851357Y-69842285D01*
X193898976Y-69818476D01*
X193922785Y-69794666D01*
X193946595Y-69747047D01*
X193946595Y-69556571D01*
X194232309Y-69937523D02*
X194232309Y-70318476D01*
X193684690Y-70675619D02*
X193684690Y-70437523D01*
X193922785Y-70413714D01*
X193898976Y-70437523D01*
X193875166Y-70485142D01*
X193875166Y-70604190D01*
X193898976Y-70651809D01*
X193922785Y-70675619D01*
X193970404Y-70699428D01*
X194089452Y-70699428D01*
X194137071Y-70675619D01*
X194160880Y-70651809D01*
X194184690Y-70604190D01*
X194184690Y-70485142D01*
X194160880Y-70437523D01*
X194137071Y-70413714D01*
%TO.C,R_COMP_1*%
D18*
X203344102Y-85271523D02*
X203156626Y-85140289D01*
X203344102Y-85046551D02*
X202950401Y-85046551D01*
X202950401Y-85196532D01*
X202969149Y-85234027D01*
X202987897Y-85252775D01*
X203025392Y-85271523D01*
X203081635Y-85271523D01*
X203119130Y-85252775D01*
X203137878Y-85234027D01*
X203156626Y-85196532D01*
X203156626Y-85046551D01*
X203381598Y-85346513D02*
X203381598Y-85646476D01*
X203306607Y-85965186D02*
X203325355Y-85946439D01*
X203344102Y-85890196D01*
X203344102Y-85852700D01*
X203325355Y-85796457D01*
X203287859Y-85758962D01*
X203250364Y-85740214D01*
X203175373Y-85721467D01*
X203119130Y-85721467D01*
X203044140Y-85740214D01*
X203006644Y-85758962D01*
X202969149Y-85796457D01*
X202950401Y-85852700D01*
X202950401Y-85890196D01*
X202969149Y-85946439D01*
X202987897Y-85965186D01*
X202950401Y-86208906D02*
X202950401Y-86283897D01*
X202969149Y-86321392D01*
X203006644Y-86358887D01*
X203081635Y-86377635D01*
X203212869Y-86377635D01*
X203287859Y-86358887D01*
X203325355Y-86321392D01*
X203344102Y-86283897D01*
X203344102Y-86208906D01*
X203325355Y-86171411D01*
X203287859Y-86133915D01*
X203212869Y-86115168D01*
X203081635Y-86115168D01*
X203006644Y-86133915D01*
X202969149Y-86171411D01*
X202950401Y-86208906D01*
X203344102Y-86546364D02*
X202950401Y-86546364D01*
X203231616Y-86677598D01*
X202950401Y-86808831D01*
X203344102Y-86808831D01*
X203344102Y-86996308D02*
X202950401Y-86996308D01*
X202950401Y-87146289D01*
X202969149Y-87183785D01*
X202987897Y-87202532D01*
X203025392Y-87221280D01*
X203081635Y-87221280D01*
X203119130Y-87202532D01*
X203137878Y-87183785D01*
X203156626Y-87146289D01*
X203156626Y-86996308D01*
X203381598Y-87296271D02*
X203381598Y-87596233D01*
X203344102Y-87896196D02*
X203344102Y-87671224D01*
X203344102Y-87783710D02*
X202950401Y-87783710D01*
X203006644Y-87746215D01*
X203044140Y-87708719D01*
X203062887Y-87671224D01*
%TO.C,R_COMP_4*%
D16*
X196280190Y-67366095D02*
X196042095Y-67199428D01*
X196280190Y-67080380D02*
X195780190Y-67080380D01*
X195780190Y-67270857D01*
X195804000Y-67318476D01*
X195827809Y-67342285D01*
X195875428Y-67366095D01*
X195946857Y-67366095D01*
X195994476Y-67342285D01*
X196018285Y-67318476D01*
X196042095Y-67270857D01*
X196042095Y-67080380D01*
X196327809Y-67461333D02*
X196327809Y-67842285D01*
X196232571Y-68247047D02*
X196256380Y-68223238D01*
X196280190Y-68151809D01*
X196280190Y-68104190D01*
X196256380Y-68032761D01*
X196208761Y-67985142D01*
X196161142Y-67961333D01*
X196065904Y-67937523D01*
X195994476Y-67937523D01*
X195899238Y-67961333D01*
X195851619Y-67985142D01*
X195804000Y-68032761D01*
X195780190Y-68104190D01*
X195780190Y-68151809D01*
X195804000Y-68223238D01*
X195827809Y-68247047D01*
X195780190Y-68556571D02*
X195780190Y-68651809D01*
X195804000Y-68699428D01*
X195851619Y-68747047D01*
X195946857Y-68770857D01*
X196113523Y-68770857D01*
X196208761Y-68747047D01*
X196256380Y-68699428D01*
X196280190Y-68651809D01*
X196280190Y-68556571D01*
X196256380Y-68508952D01*
X196208761Y-68461333D01*
X196113523Y-68437523D01*
X195946857Y-68437523D01*
X195851619Y-68461333D01*
X195804000Y-68508952D01*
X195780190Y-68556571D01*
X196280190Y-68985142D02*
X195780190Y-68985142D01*
X196137333Y-69151809D01*
X195780190Y-69318476D01*
X196280190Y-69318476D01*
X196280190Y-69556571D02*
X195780190Y-69556571D01*
X195780190Y-69747047D01*
X195804000Y-69794666D01*
X195827809Y-69818476D01*
X195875428Y-69842285D01*
X195946857Y-69842285D01*
X195994476Y-69818476D01*
X196018285Y-69794666D01*
X196042095Y-69747047D01*
X196042095Y-69556571D01*
X196327809Y-69937523D02*
X196327809Y-70318476D01*
X195946857Y-70651809D02*
X196280190Y-70651809D01*
X195756380Y-70532761D02*
X196113523Y-70413714D01*
X196113523Y-70723238D01*
%TO.C,R_COMP_11*%
X199342500Y-65284190D02*
X199509166Y-65046095D01*
X199628214Y-65284190D02*
X199628214Y-64784190D01*
X199437738Y-64784190D01*
X199390119Y-64808000D01*
X199366309Y-64831809D01*
X199342500Y-64879428D01*
X199342500Y-64950857D01*
X199366309Y-64998476D01*
X199390119Y-65022285D01*
X199437738Y-65046095D01*
X199628214Y-65046095D01*
X199247261Y-65331809D02*
X198866309Y-65331809D01*
X198461547Y-65236571D02*
X198485357Y-65260380D01*
X198556785Y-65284190D01*
X198604404Y-65284190D01*
X198675833Y-65260380D01*
X198723452Y-65212761D01*
X198747261Y-65165142D01*
X198771071Y-65069904D01*
X198771071Y-64998476D01*
X198747261Y-64903238D01*
X198723452Y-64855619D01*
X198675833Y-64808000D01*
X198604404Y-64784190D01*
X198556785Y-64784190D01*
X198485357Y-64808000D01*
X198461547Y-64831809D01*
X198152023Y-64784190D02*
X198056785Y-64784190D01*
X198009166Y-64808000D01*
X197961547Y-64855619D01*
X197937738Y-64950857D01*
X197937738Y-65117523D01*
X197961547Y-65212761D01*
X198009166Y-65260380D01*
X198056785Y-65284190D01*
X198152023Y-65284190D01*
X198199642Y-65260380D01*
X198247261Y-65212761D01*
X198271071Y-65117523D01*
X198271071Y-64950857D01*
X198247261Y-64855619D01*
X198199642Y-64808000D01*
X198152023Y-64784190D01*
X197723452Y-65284190D02*
X197723452Y-64784190D01*
X197556785Y-65141333D01*
X197390119Y-64784190D01*
X197390119Y-65284190D01*
X197152023Y-65284190D02*
X197152023Y-64784190D01*
X196961547Y-64784190D01*
X196913928Y-64808000D01*
X196890119Y-64831809D01*
X196866309Y-64879428D01*
X196866309Y-64950857D01*
X196890119Y-64998476D01*
X196913928Y-65022285D01*
X196961547Y-65046095D01*
X197152023Y-65046095D01*
X196771071Y-65331809D02*
X196390119Y-65331809D01*
X196009166Y-65284190D02*
X196294880Y-65284190D01*
X196152023Y-65284190D02*
X196152023Y-64784190D01*
X196199642Y-64855619D01*
X196247261Y-64903238D01*
X196294880Y-64927047D01*
X195532976Y-65284190D02*
X195818690Y-65284190D01*
X195675833Y-65284190D02*
X195675833Y-64784190D01*
X195723452Y-64855619D01*
X195771071Y-64903238D01*
X195818690Y-64927047D01*
%TO.C,R_ESP_1*%
X123352571Y-64996190D02*
X123519238Y-64758095D01*
X123638285Y-64996190D02*
X123638285Y-64496190D01*
X123447809Y-64496190D01*
X123400190Y-64520000D01*
X123376380Y-64543809D01*
X123352571Y-64591428D01*
X123352571Y-64662857D01*
X123376380Y-64710476D01*
X123400190Y-64734285D01*
X123447809Y-64758095D01*
X123638285Y-64758095D01*
X123257333Y-65043809D02*
X122876380Y-65043809D01*
X122757333Y-64734285D02*
X122590666Y-64734285D01*
X122519238Y-64996190D02*
X122757333Y-64996190D01*
X122757333Y-64496190D01*
X122519238Y-64496190D01*
X122328761Y-64972380D02*
X122257333Y-64996190D01*
X122138285Y-64996190D01*
X122090666Y-64972380D01*
X122066857Y-64948571D01*
X122043047Y-64900952D01*
X122043047Y-64853333D01*
X122066857Y-64805714D01*
X122090666Y-64781904D01*
X122138285Y-64758095D01*
X122233523Y-64734285D01*
X122281142Y-64710476D01*
X122304952Y-64686666D01*
X122328761Y-64639047D01*
X122328761Y-64591428D01*
X122304952Y-64543809D01*
X122281142Y-64520000D01*
X122233523Y-64496190D01*
X122114476Y-64496190D01*
X122043047Y-64520000D01*
X121828761Y-64996190D02*
X121828761Y-64496190D01*
X121638285Y-64496190D01*
X121590666Y-64520000D01*
X121566857Y-64543809D01*
X121543047Y-64591428D01*
X121543047Y-64662857D01*
X121566857Y-64710476D01*
X121590666Y-64734285D01*
X121638285Y-64758095D01*
X121828761Y-64758095D01*
X121447809Y-65043809D02*
X121066857Y-65043809D01*
X120685904Y-64996190D02*
X120971619Y-64996190D01*
X120828761Y-64996190D02*
X120828761Y-64496190D01*
X120876380Y-64567619D01*
X120924000Y-64615238D01*
X120971619Y-64639047D01*
%TO.C,R_ESP_2*%
X123289071Y-68044190D02*
X123455738Y-67806095D01*
X123574785Y-68044190D02*
X123574785Y-67544190D01*
X123384309Y-67544190D01*
X123336690Y-67568000D01*
X123312880Y-67591809D01*
X123289071Y-67639428D01*
X123289071Y-67710857D01*
X123312880Y-67758476D01*
X123336690Y-67782285D01*
X123384309Y-67806095D01*
X123574785Y-67806095D01*
X123193833Y-68091809D02*
X122812880Y-68091809D01*
X122693833Y-67782285D02*
X122527166Y-67782285D01*
X122455738Y-68044190D02*
X122693833Y-68044190D01*
X122693833Y-67544190D01*
X122455738Y-67544190D01*
X122265261Y-68020380D02*
X122193833Y-68044190D01*
X122074785Y-68044190D01*
X122027166Y-68020380D01*
X122003357Y-67996571D01*
X121979547Y-67948952D01*
X121979547Y-67901333D01*
X122003357Y-67853714D01*
X122027166Y-67829904D01*
X122074785Y-67806095D01*
X122170023Y-67782285D01*
X122217642Y-67758476D01*
X122241452Y-67734666D01*
X122265261Y-67687047D01*
X122265261Y-67639428D01*
X122241452Y-67591809D01*
X122217642Y-67568000D01*
X122170023Y-67544190D01*
X122050976Y-67544190D01*
X121979547Y-67568000D01*
X121765261Y-68044190D02*
X121765261Y-67544190D01*
X121574785Y-67544190D01*
X121527166Y-67568000D01*
X121503357Y-67591809D01*
X121479547Y-67639428D01*
X121479547Y-67710857D01*
X121503357Y-67758476D01*
X121527166Y-67782285D01*
X121574785Y-67806095D01*
X121765261Y-67806095D01*
X121384309Y-68091809D02*
X121003357Y-68091809D01*
X120908119Y-67591809D02*
X120884309Y-67568000D01*
X120836690Y-67544190D01*
X120717642Y-67544190D01*
X120670023Y-67568000D01*
X120646214Y-67591809D01*
X120622404Y-67639428D01*
X120622404Y-67687047D01*
X120646214Y-67758476D01*
X120931928Y-68044190D01*
X120622404Y-68044190D01*
%TO.C,R_ESP_5*%
X174470071Y-65186690D02*
X174636738Y-64948595D01*
X174755785Y-65186690D02*
X174755785Y-64686690D01*
X174565309Y-64686690D01*
X174517690Y-64710500D01*
X174493880Y-64734309D01*
X174470071Y-64781928D01*
X174470071Y-64853357D01*
X174493880Y-64900976D01*
X174517690Y-64924785D01*
X174565309Y-64948595D01*
X174755785Y-64948595D01*
X174374833Y-65234309D02*
X173993880Y-65234309D01*
X173874833Y-64924785D02*
X173708166Y-64924785D01*
X173636738Y-65186690D02*
X173874833Y-65186690D01*
X173874833Y-64686690D01*
X173636738Y-64686690D01*
X173446261Y-65162880D02*
X173374833Y-65186690D01*
X173255785Y-65186690D01*
X173208166Y-65162880D01*
X173184357Y-65139071D01*
X173160547Y-65091452D01*
X173160547Y-65043833D01*
X173184357Y-64996214D01*
X173208166Y-64972404D01*
X173255785Y-64948595D01*
X173351023Y-64924785D01*
X173398642Y-64900976D01*
X173422452Y-64877166D01*
X173446261Y-64829547D01*
X173446261Y-64781928D01*
X173422452Y-64734309D01*
X173398642Y-64710500D01*
X173351023Y-64686690D01*
X173231976Y-64686690D01*
X173160547Y-64710500D01*
X172946261Y-65186690D02*
X172946261Y-64686690D01*
X172755785Y-64686690D01*
X172708166Y-64710500D01*
X172684357Y-64734309D01*
X172660547Y-64781928D01*
X172660547Y-64853357D01*
X172684357Y-64900976D01*
X172708166Y-64924785D01*
X172755785Y-64948595D01*
X172946261Y-64948595D01*
X172565309Y-65234309D02*
X172184357Y-65234309D01*
X171827214Y-64686690D02*
X172065309Y-64686690D01*
X172089119Y-64924785D01*
X172065309Y-64900976D01*
X172017690Y-64877166D01*
X171898642Y-64877166D01*
X171851023Y-64900976D01*
X171827214Y-64924785D01*
X171803404Y-64972404D01*
X171803404Y-65091452D01*
X171827214Y-65139071D01*
X171851023Y-65162880D01*
X171898642Y-65186690D01*
X172017690Y-65186690D01*
X172065309Y-65162880D01*
X172089119Y-65139071D01*
%TO.C,R_IMU_2*%
X120939690Y-75259547D02*
X120701595Y-75092880D01*
X120939690Y-74973833D02*
X120439690Y-74973833D01*
X120439690Y-75164309D01*
X120463500Y-75211928D01*
X120487309Y-75235738D01*
X120534928Y-75259547D01*
X120606357Y-75259547D01*
X120653976Y-75235738D01*
X120677785Y-75211928D01*
X120701595Y-75164309D01*
X120701595Y-74973833D01*
X120987309Y-75354785D02*
X120987309Y-75735738D01*
X120939690Y-75854785D02*
X120439690Y-75854785D01*
X120939690Y-76092880D02*
X120439690Y-76092880D01*
X120796833Y-76259547D01*
X120439690Y-76426214D01*
X120939690Y-76426214D01*
X120439690Y-76664309D02*
X120844452Y-76664309D01*
X120892071Y-76688119D01*
X120915880Y-76711928D01*
X120939690Y-76759547D01*
X120939690Y-76854785D01*
X120915880Y-76902404D01*
X120892071Y-76926214D01*
X120844452Y-76950023D01*
X120439690Y-76950023D01*
X120987309Y-77069071D02*
X120987309Y-77450023D01*
X120487309Y-77545261D02*
X120463500Y-77569071D01*
X120439690Y-77616690D01*
X120439690Y-77735738D01*
X120463500Y-77783357D01*
X120487309Y-77807166D01*
X120534928Y-77830976D01*
X120582547Y-77830976D01*
X120653976Y-77807166D01*
X120939690Y-77521452D01*
X120939690Y-77830976D01*
%TO.C,R_J1850_1*%
X184189142Y-100776190D02*
X184355809Y-100538095D01*
X184474857Y-100776190D02*
X184474857Y-100276190D01*
X184284380Y-100276190D01*
X184236761Y-100300000D01*
X184212952Y-100323809D01*
X184189142Y-100371428D01*
X184189142Y-100442857D01*
X184212952Y-100490476D01*
X184236761Y-100514285D01*
X184284380Y-100538095D01*
X184474857Y-100538095D01*
X184093904Y-100823809D02*
X183712952Y-100823809D01*
X183451047Y-100276190D02*
X183451047Y-100633333D01*
X183474857Y-100704761D01*
X183522476Y-100752380D01*
X183593904Y-100776190D01*
X183641523Y-100776190D01*
X182951047Y-100776190D02*
X183236761Y-100776190D01*
X183093904Y-100776190D02*
X183093904Y-100276190D01*
X183141523Y-100347619D01*
X183189142Y-100395238D01*
X183236761Y-100419047D01*
X182665333Y-100490476D02*
X182712952Y-100466666D01*
X182736761Y-100442857D01*
X182760571Y-100395238D01*
X182760571Y-100371428D01*
X182736761Y-100323809D01*
X182712952Y-100300000D01*
X182665333Y-100276190D01*
X182570095Y-100276190D01*
X182522476Y-100300000D01*
X182498666Y-100323809D01*
X182474857Y-100371428D01*
X182474857Y-100395238D01*
X182498666Y-100442857D01*
X182522476Y-100466666D01*
X182570095Y-100490476D01*
X182665333Y-100490476D01*
X182712952Y-100514285D01*
X182736761Y-100538095D01*
X182760571Y-100585714D01*
X182760571Y-100680952D01*
X182736761Y-100728571D01*
X182712952Y-100752380D01*
X182665333Y-100776190D01*
X182570095Y-100776190D01*
X182522476Y-100752380D01*
X182498666Y-100728571D01*
X182474857Y-100680952D01*
X182474857Y-100585714D01*
X182498666Y-100538095D01*
X182522476Y-100514285D01*
X182570095Y-100490476D01*
X182022476Y-100276190D02*
X182260571Y-100276190D01*
X182284380Y-100514285D01*
X182260571Y-100490476D01*
X182212952Y-100466666D01*
X182093904Y-100466666D01*
X182046285Y-100490476D01*
X182022476Y-100514285D01*
X181998666Y-100561904D01*
X181998666Y-100680952D01*
X182022476Y-100728571D01*
X182046285Y-100752380D01*
X182093904Y-100776190D01*
X182212952Y-100776190D01*
X182260571Y-100752380D01*
X182284380Y-100728571D01*
X181689142Y-100276190D02*
X181641523Y-100276190D01*
X181593904Y-100300000D01*
X181570095Y-100323809D01*
X181546285Y-100371428D01*
X181522476Y-100466666D01*
X181522476Y-100585714D01*
X181546285Y-100680952D01*
X181570095Y-100728571D01*
X181593904Y-100752380D01*
X181641523Y-100776190D01*
X181689142Y-100776190D01*
X181736761Y-100752380D01*
X181760571Y-100728571D01*
X181784380Y-100680952D01*
X181808190Y-100585714D01*
X181808190Y-100466666D01*
X181784380Y-100371428D01*
X181760571Y-100323809D01*
X181736761Y-100300000D01*
X181689142Y-100276190D01*
X181427238Y-100823809D02*
X181046285Y-100823809D01*
X180665333Y-100776190D02*
X180951047Y-100776190D01*
X180808190Y-100776190D02*
X180808190Y-100276190D01*
X180855809Y-100347619D01*
X180903428Y-100395238D01*
X180951047Y-100419047D01*
%TO.C,R_J1850_5*%
X192361142Y-120368190D02*
X192527809Y-120130095D01*
X192646857Y-120368190D02*
X192646857Y-119868190D01*
X192456380Y-119868190D01*
X192408761Y-119892000D01*
X192384952Y-119915809D01*
X192361142Y-119963428D01*
X192361142Y-120034857D01*
X192384952Y-120082476D01*
X192408761Y-120106285D01*
X192456380Y-120130095D01*
X192646857Y-120130095D01*
X192265904Y-120415809D02*
X191884952Y-120415809D01*
X191623047Y-119868190D02*
X191623047Y-120225333D01*
X191646857Y-120296761D01*
X191694476Y-120344380D01*
X191765904Y-120368190D01*
X191813523Y-120368190D01*
X191123047Y-120368190D02*
X191408761Y-120368190D01*
X191265904Y-120368190D02*
X191265904Y-119868190D01*
X191313523Y-119939619D01*
X191361142Y-119987238D01*
X191408761Y-120011047D01*
X190837333Y-120082476D02*
X190884952Y-120058666D01*
X190908761Y-120034857D01*
X190932571Y-119987238D01*
X190932571Y-119963428D01*
X190908761Y-119915809D01*
X190884952Y-119892000D01*
X190837333Y-119868190D01*
X190742095Y-119868190D01*
X190694476Y-119892000D01*
X190670666Y-119915809D01*
X190646857Y-119963428D01*
X190646857Y-119987238D01*
X190670666Y-120034857D01*
X190694476Y-120058666D01*
X190742095Y-120082476D01*
X190837333Y-120082476D01*
X190884952Y-120106285D01*
X190908761Y-120130095D01*
X190932571Y-120177714D01*
X190932571Y-120272952D01*
X190908761Y-120320571D01*
X190884952Y-120344380D01*
X190837333Y-120368190D01*
X190742095Y-120368190D01*
X190694476Y-120344380D01*
X190670666Y-120320571D01*
X190646857Y-120272952D01*
X190646857Y-120177714D01*
X190670666Y-120130095D01*
X190694476Y-120106285D01*
X190742095Y-120082476D01*
X190194476Y-119868190D02*
X190432571Y-119868190D01*
X190456380Y-120106285D01*
X190432571Y-120082476D01*
X190384952Y-120058666D01*
X190265904Y-120058666D01*
X190218285Y-120082476D01*
X190194476Y-120106285D01*
X190170666Y-120153904D01*
X190170666Y-120272952D01*
X190194476Y-120320571D01*
X190218285Y-120344380D01*
X190265904Y-120368190D01*
X190384952Y-120368190D01*
X190432571Y-120344380D01*
X190456380Y-120320571D01*
X189861142Y-119868190D02*
X189813523Y-119868190D01*
X189765904Y-119892000D01*
X189742095Y-119915809D01*
X189718285Y-119963428D01*
X189694476Y-120058666D01*
X189694476Y-120177714D01*
X189718285Y-120272952D01*
X189742095Y-120320571D01*
X189765904Y-120344380D01*
X189813523Y-120368190D01*
X189861142Y-120368190D01*
X189908761Y-120344380D01*
X189932571Y-120320571D01*
X189956380Y-120272952D01*
X189980190Y-120177714D01*
X189980190Y-120058666D01*
X189956380Y-119963428D01*
X189932571Y-119915809D01*
X189908761Y-119892000D01*
X189861142Y-119868190D01*
X189599238Y-120415809D02*
X189218285Y-120415809D01*
X188861142Y-119868190D02*
X189099238Y-119868190D01*
X189123047Y-120106285D01*
X189099238Y-120082476D01*
X189051619Y-120058666D01*
X188932571Y-120058666D01*
X188884952Y-120082476D01*
X188861142Y-120106285D01*
X188837333Y-120153904D01*
X188837333Y-120272952D01*
X188861142Y-120320571D01*
X188884952Y-120344380D01*
X188932571Y-120368190D01*
X189051619Y-120368190D01*
X189099238Y-120344380D01*
X189123047Y-120320571D01*
%TO.C,R_STN_1*%
D19*
X146950761Y-120876190D02*
X147117428Y-120638095D01*
X147236476Y-120876190D02*
X147236476Y-120376190D01*
X147046000Y-120376190D01*
X146998380Y-120400000D01*
X146974571Y-120423809D01*
X146950761Y-120471428D01*
X146950761Y-120542857D01*
X146974571Y-120590476D01*
X146998380Y-120614285D01*
X147046000Y-120638095D01*
X147236476Y-120638095D01*
X146855523Y-120923809D02*
X146474571Y-120923809D01*
X146379333Y-120852380D02*
X146307904Y-120876190D01*
X146188857Y-120876190D01*
X146141238Y-120852380D01*
X146117428Y-120828571D01*
X146093619Y-120780952D01*
X146093619Y-120733333D01*
X146117428Y-120685714D01*
X146141238Y-120661904D01*
X146188857Y-120638095D01*
X146284095Y-120614285D01*
X146331714Y-120590476D01*
X146355523Y-120566666D01*
X146379333Y-120519047D01*
X146379333Y-120471428D01*
X146355523Y-120423809D01*
X146331714Y-120400000D01*
X146284095Y-120376190D01*
X146165047Y-120376190D01*
X146093619Y-120400000D01*
X145950761Y-120376190D02*
X145665047Y-120376190D01*
X145807904Y-120876190D02*
X145807904Y-120376190D01*
X145498380Y-120876190D02*
X145498380Y-120376190D01*
X145212666Y-120876190D01*
X145212666Y-120376190D01*
X145093619Y-120923809D02*
X144712666Y-120923809D01*
X144331714Y-120876190D02*
X144617428Y-120876190D01*
X144474571Y-120876190D02*
X144474571Y-120376190D01*
X144522190Y-120447619D01*
X144569809Y-120495238D01*
X144617428Y-120519047D01*
%TO.C,R_STN_2*%
D16*
X146950761Y-115542190D02*
X147117428Y-115304095D01*
X147236476Y-115542190D02*
X147236476Y-115042190D01*
X147046000Y-115042190D01*
X146998380Y-115066000D01*
X146974571Y-115089809D01*
X146950761Y-115137428D01*
X146950761Y-115208857D01*
X146974571Y-115256476D01*
X146998380Y-115280285D01*
X147046000Y-115304095D01*
X147236476Y-115304095D01*
X146855523Y-115589809D02*
X146474571Y-115589809D01*
X146379333Y-115518380D02*
X146307904Y-115542190D01*
X146188857Y-115542190D01*
X146141238Y-115518380D01*
X146117428Y-115494571D01*
X146093619Y-115446952D01*
X146093619Y-115399333D01*
X146117428Y-115351714D01*
X146141238Y-115327904D01*
X146188857Y-115304095D01*
X146284095Y-115280285D01*
X146331714Y-115256476D01*
X146355523Y-115232666D01*
X146379333Y-115185047D01*
X146379333Y-115137428D01*
X146355523Y-115089809D01*
X146331714Y-115066000D01*
X146284095Y-115042190D01*
X146165047Y-115042190D01*
X146093619Y-115066000D01*
X145950761Y-115042190D02*
X145665047Y-115042190D01*
X145807904Y-115542190D02*
X145807904Y-115042190D01*
X145498380Y-115542190D02*
X145498380Y-115042190D01*
X145212666Y-115542190D01*
X145212666Y-115042190D01*
X145093619Y-115589809D02*
X144712666Y-115589809D01*
X144617428Y-115089809D02*
X144593619Y-115066000D01*
X144546000Y-115042190D01*
X144426952Y-115042190D01*
X144379333Y-115066000D01*
X144355523Y-115089809D01*
X144331714Y-115137428D01*
X144331714Y-115185047D01*
X144355523Y-115256476D01*
X144641238Y-115542190D01*
X144331714Y-115542190D01*
%TO.C,R_STN_3*%
X146950761Y-118082190D02*
X147117428Y-117844095D01*
X147236476Y-118082190D02*
X147236476Y-117582190D01*
X147046000Y-117582190D01*
X146998380Y-117606000D01*
X146974571Y-117629809D01*
X146950761Y-117677428D01*
X146950761Y-117748857D01*
X146974571Y-117796476D01*
X146998380Y-117820285D01*
X147046000Y-117844095D01*
X147236476Y-117844095D01*
X146855523Y-118129809D02*
X146474571Y-118129809D01*
X146379333Y-118058380D02*
X146307904Y-118082190D01*
X146188857Y-118082190D01*
X146141238Y-118058380D01*
X146117428Y-118034571D01*
X146093619Y-117986952D01*
X146093619Y-117939333D01*
X146117428Y-117891714D01*
X146141238Y-117867904D01*
X146188857Y-117844095D01*
X146284095Y-117820285D01*
X146331714Y-117796476D01*
X146355523Y-117772666D01*
X146379333Y-117725047D01*
X146379333Y-117677428D01*
X146355523Y-117629809D01*
X146331714Y-117606000D01*
X146284095Y-117582190D01*
X146165047Y-117582190D01*
X146093619Y-117606000D01*
X145950761Y-117582190D02*
X145665047Y-117582190D01*
X145807904Y-118082190D02*
X145807904Y-117582190D01*
X145498380Y-118082190D02*
X145498380Y-117582190D01*
X145212666Y-118082190D01*
X145212666Y-117582190D01*
X145093619Y-118129809D02*
X144712666Y-118129809D01*
X144641238Y-117582190D02*
X144331714Y-117582190D01*
X144498380Y-117772666D01*
X144426952Y-117772666D01*
X144379333Y-117796476D01*
X144355523Y-117820285D01*
X144331714Y-117867904D01*
X144331714Y-117986952D01*
X144355523Y-118034571D01*
X144379333Y-118058380D01*
X144426952Y-118082190D01*
X144569809Y-118082190D01*
X144617428Y-118058380D01*
X144641238Y-118034571D01*
%TO.C,R_STN_4*%
X174461214Y-90250928D02*
X174661214Y-89965214D01*
X174804071Y-90250928D02*
X174804071Y-89650928D01*
X174575500Y-89650928D01*
X174518357Y-89679500D01*
X174489785Y-89708071D01*
X174461214Y-89765214D01*
X174461214Y-89850928D01*
X174489785Y-89908071D01*
X174518357Y-89936642D01*
X174575500Y-89965214D01*
X174804071Y-89965214D01*
X174346928Y-90308071D02*
X173889785Y-90308071D01*
X173775500Y-90222357D02*
X173689785Y-90250928D01*
X173546928Y-90250928D01*
X173489785Y-90222357D01*
X173461214Y-90193785D01*
X173432642Y-90136642D01*
X173432642Y-90079500D01*
X173461214Y-90022357D01*
X173489785Y-89993785D01*
X173546928Y-89965214D01*
X173661214Y-89936642D01*
X173718357Y-89908071D01*
X173746928Y-89879500D01*
X173775500Y-89822357D01*
X173775500Y-89765214D01*
X173746928Y-89708071D01*
X173718357Y-89679500D01*
X173661214Y-89650928D01*
X173518357Y-89650928D01*
X173432642Y-89679500D01*
X173261214Y-89650928D02*
X172918357Y-89650928D01*
X173089785Y-90250928D02*
X173089785Y-89650928D01*
X172718357Y-90250928D02*
X172718357Y-89650928D01*
X172375500Y-90250928D01*
X172375500Y-89650928D01*
X172232642Y-90308071D02*
X171775500Y-90308071D01*
X171375500Y-89850928D02*
X171375500Y-90250928D01*
X171518357Y-89622357D02*
X171661214Y-90050928D01*
X171289785Y-90050928D01*
D10*
X172910500Y-90701880D02*
X172910500Y-90939976D01*
X173148595Y-90844738D02*
X172910500Y-90939976D01*
X172672404Y-90844738D01*
X173053357Y-91130452D02*
X172910500Y-90939976D01*
X172767642Y-91130452D01*
%TO.C,R_VS_1*%
D16*
X111660666Y-108493690D02*
X111827333Y-108255595D01*
X111946380Y-108493690D02*
X111946380Y-107993690D01*
X111755904Y-107993690D01*
X111708285Y-108017500D01*
X111684476Y-108041309D01*
X111660666Y-108088928D01*
X111660666Y-108160357D01*
X111684476Y-108207976D01*
X111708285Y-108231785D01*
X111755904Y-108255595D01*
X111946380Y-108255595D01*
X111565428Y-108541309D02*
X111184476Y-108541309D01*
X111136857Y-107993690D02*
X110970190Y-108493690D01*
X110803523Y-107993690D01*
X110660666Y-108469880D02*
X110589238Y-108493690D01*
X110470190Y-108493690D01*
X110422571Y-108469880D01*
X110398761Y-108446071D01*
X110374952Y-108398452D01*
X110374952Y-108350833D01*
X110398761Y-108303214D01*
X110422571Y-108279404D01*
X110470190Y-108255595D01*
X110565428Y-108231785D01*
X110613047Y-108207976D01*
X110636857Y-108184166D01*
X110660666Y-108136547D01*
X110660666Y-108088928D01*
X110636857Y-108041309D01*
X110613047Y-108017500D01*
X110565428Y-107993690D01*
X110446380Y-107993690D01*
X110374952Y-108017500D01*
X110279714Y-108541309D02*
X109898761Y-108541309D01*
X109517809Y-108493690D02*
X109803523Y-108493690D01*
X109660666Y-108493690D02*
X109660666Y-107993690D01*
X109708285Y-108065119D01*
X109755904Y-108112738D01*
X109803523Y-108136547D01*
%TO.C,U_IMU_1*%
X131762285Y-81205428D02*
X131762285Y-81691142D01*
X131733714Y-81748285D01*
X131705142Y-81776857D01*
X131648000Y-81805428D01*
X131533714Y-81805428D01*
X131476571Y-81776857D01*
X131448000Y-81748285D01*
X131419428Y-81691142D01*
X131419428Y-81205428D01*
X131276571Y-81862571D02*
X130819428Y-81862571D01*
X130676571Y-81805428D02*
X130676571Y-81205428D01*
X130390857Y-81805428D02*
X130390857Y-81205428D01*
X130190857Y-81634000D01*
X129990857Y-81205428D01*
X129990857Y-81805428D01*
X129705142Y-81205428D02*
X129705142Y-81691142D01*
X129676571Y-81748285D01*
X129648000Y-81776857D01*
X129590857Y-81805428D01*
X129476571Y-81805428D01*
X129419428Y-81776857D01*
X129390857Y-81748285D01*
X129362285Y-81691142D01*
X129362285Y-81205428D01*
X129219428Y-81862571D02*
X128762285Y-81862571D01*
X128305142Y-81805428D02*
X128648000Y-81805428D01*
X128476571Y-81805428D02*
X128476571Y-81205428D01*
X128533714Y-81291142D01*
X128590857Y-81348285D01*
X128648000Y-81376857D01*
%TD*%
M02*
