M48
; DRILL file {KiCad (5.1.7)-1} date 10/27/20 12:51:02
; FORMAT={-:-/ absolute / metric / decimal}
; #@! TF.CreationDate,2020-10-27T12:51:02-07:00
; #@! TF.GenerationSoftware,Kicad,Pcbnew,(5.1.7)-1
; #@! TF.FileFunction,Plated,1,4,PTH
FMAT,2
METRIC
T1C0.200
T2C0.400
T3C0.610
T4C0.787
T5C0.800
T6C1.041
T7C1.524
T8C3.302
%
G90
G05
T1
X125.295Y-79.575
X125.295Y-80.765
X125.295Y-81.955
X125.295Y-83.145
X125.295Y-84.335
X125.295Y-85.525
X126.485Y-79.575
X126.485Y-80.765
X126.485Y-81.955
X126.485Y-83.145
X126.485Y-84.335
X126.485Y-85.525
X127.675Y-79.575
X127.675Y-80.765
X127.675Y-81.955
X127.675Y-83.145
X127.675Y-84.335
X127.675Y-85.525
X128.865Y-79.575
X128.865Y-80.765
X128.865Y-81.955
X128.865Y-83.145
X128.865Y-84.335
X128.865Y-85.525
X130.055Y-79.575
X130.055Y-80.765
X130.055Y-81.955
X130.055Y-83.145
X130.055Y-84.335
X130.055Y-85.525
X131.245Y-79.575
X131.245Y-80.765
X131.245Y-81.955
X131.245Y-83.145
X131.245Y-84.335
X131.245Y-85.525
T2
X109.855Y-92.075
X111.76Y-121.92
X113.03Y-90.17
X113.665Y-105.41
X114.462Y-109.868
X114.462Y-115.964
X114.592Y-112.916
X114.935Y-93.98
X115.57Y-73.66
X116.152Y-90.798
X116.205Y-63.5
X116.205Y-74.295
X116.205Y-105.41
X116.205Y-146.685
X117.441Y-100.364
X117.441Y-107.915
X117.475Y-89.535
X117.475Y-112.395
X118.11Y-75.565
X118.11Y-84.455
X118.745Y-93.345
X118.745Y-102.87
X119.38Y-64.135
X119.38Y-76.2
X119.38Y-142.875
X119.519Y-93.305
X119.591Y-101.6
X120.015Y-83.82
X120.015Y-92.075
X120.015Y-137.16
X120.65Y-93.98
X120.65Y-102.87
X120.65Y-107.95
X120.65Y-139.7
X121.285Y-65.405
X121.828Y-55.152
X121.92Y-56.515
X121.92Y-81.28
X121.92Y-91.44
X122.027Y-85.832
X122.555Y-78.74
X122.555Y-130.81
X122.662Y-85.197
X123.19Y-83.185
X123.19Y-95.25
X123.19Y-123.825
X123.19Y-136.525
X123.825Y-89.535
X123.825Y-129.54
X124.46Y-58.42
X124.46Y-77.47
X125.095Y-57.785
X125.72Y-77.47
X125.73Y-142.875
X125.857Y-70.612
X126.365Y-73.66
X126.365Y-122.555
X127.0Y-68.58
X127.0Y-71.755
X127.62Y-76.42
X127.635Y-58.42
X127.635Y-130.81
X127.762Y-125.6
X128.27Y-87.63
X128.27Y-110.49
X128.84Y-89.535
X129.54Y-87.63
X129.54Y-130.175
X129.54Y-132.08
X129.54Y-140.97
X129.54Y-147.955
X130.22Y-71.964
X130.82Y-74.93
X131.583Y-88.714
X132.043Y-127.672
X132.08Y-154.94
X132.537Y-93.802
X132.715Y-62.865
X132.715Y-66.04
X132.715Y-119.38
X132.715Y-127.0
X133.35Y-140.97
X133.985Y-129.54
X134.62Y-149.225
X134.747Y-70.612
X135.351Y-150.399
X137.16Y-92.71
X137.75Y-80.6
X137.795Y-64.77
X137.795Y-130.81
X137.834Y-129.918
X139.065Y-62.865
X139.065Y-88.9
X139.218Y-73.025
X139.218Y-74.295
X139.655Y-84.5
X139.7Y-69.215
X139.7Y-116.84
X139.708Y-85.198
X140.335Y-63.5
X140.97Y-86.36
X141.605Y-62.23
X142.105Y-86.86
X142.24Y-114.935
X142.804Y-63.429
X142.875Y-62.23
X142.875Y-100.33
X143.51Y-69.215
X143.51Y-85.1
X143.52Y-81.23
X144.145Y-84.455
X144.145Y-142.875
X144.78Y-73.025
X144.78Y-89.535
X145.415Y-78.105
X145.415Y-82.406
X145.415Y-95.885
X146.05Y-60.96
X146.05Y-129.54
X146.05Y-136.525
X146.685Y-76.2
X147.222Y-83.087
X147.891Y-78.595
X147.955Y-64.135
X147.955Y-79.375
X147.955Y-137.795
X148.59Y-83.82
X148.59Y-88.9
X149.86Y-95.25
X149.86Y-98.425
X149.86Y-128.27
X149.86Y-132.715
X149.86Y-157.48
X150.495Y-109.855
X150.495Y-123.825
X150.495Y-154.94
X151.107Y-129.027
X151.13Y-112.395
X151.13Y-124.46
X151.13Y-125.73
X152.4Y-135.89
X154.305Y-83.82
X154.305Y-85.725
X156.21Y-83.82
X156.21Y-103.505
X156.673Y-143.338
X156.845Y-98.425
X157.48Y-111.125
X157.755Y-116.795
X158.355Y-123.19
X158.75Y-132.715
X158.768Y-86.382
X159.385Y-127.061
X159.385Y-142.875
X160.655Y-87.63
X161.29Y-111.76
X161.29Y-132.715
X161.607Y-148.272
X161.925Y-90.805
X161.925Y-118.745
X162.221Y-122.894
X162.56Y-80.645
X162.56Y-147.955
X163.195Y-77.47
X163.195Y-90.17
X163.83Y-97.155
X163.937Y-135.148
X164.465Y-130.175
X164.465Y-153.67
X165.1Y-138.43
X165.735Y-139.7
X166.37Y-128.905
X167.005Y-84.455
X167.005Y-137.795
X167.493Y-82.061
X168.91Y-69.85
X168.91Y-76.2
X168.91Y-76.2
X168.91Y-99.06
X169.508Y-116.168
X169.545Y-100.33
X169.545Y-118.671
X169.545Y-137.16
X171.45Y-85.725
X172.085Y-141.605
X172.085Y-151.765
X172.72Y-95.885
X173.355Y-134.62
T3
X140.228Y-76.835
X142.728Y-76.835
T4
X149.733Y-68.58
X149.733Y-76.2
X152.273Y-68.58
X152.273Y-76.2
X154.813Y-68.58
X154.813Y-76.2
X157.353Y-68.58
X157.353Y-76.2
X159.893Y-68.58
X159.893Y-76.2
X162.433Y-68.58
X162.433Y-76.2
X164.973Y-68.58
X164.973Y-76.2
T5
X169.405Y-104.47
X169.405Y-112.09
X123.19Y-101.6
X130.81Y-101.6
X123.19Y-106.68
X130.81Y-106.68
X173.152Y-104.47
X173.152Y-112.09
X172.72Y-73.66
X172.72Y-81.28
T6
X137.39Y-149.86
X137.39Y-154.94
X138.535Y-152.4
X139.68Y-149.86
X139.68Y-154.94
X140.825Y-152.4
X141.97Y-149.86
X141.97Y-154.94
X143.115Y-152.4
X144.26Y-149.86
X144.26Y-154.94
X145.405Y-152.4
X146.55Y-149.86
X146.55Y-154.94
X147.695Y-152.4
T7
X142.32Y-119.38
X147.32Y-119.38
X173.355Y-61.773
X173.355Y-66.773
X112.09Y-59.872
X112.09Y-64.872
X117.094Y-155.702
X122.094Y-155.702
X136.042Y-113.415
X136.042Y-118.415
X137.24Y-56.286
X142.24Y-56.286
X162.306Y-155.702
X167.306Y-155.702
X112.141Y-83.305
X112.141Y-88.305
X172.72Y-118.19
X172.72Y-123.19
X112.09Y-71.588
X112.09Y-76.588
X153.899Y-101.07
X153.899Y-106.07
X125.175Y-56.286
X130.175Y-56.286
X112.192Y-95.91
X112.192Y-100.91
X153.924Y-89.205
X153.924Y-94.205
X153.924Y-113.161
X153.924Y-118.161
X149.94Y-56.286
X154.94Y-56.286
X141.478Y-132.08
X146.478Y-132.08
X162.005Y-56.286
X167.005Y-56.286
T8
X129.745Y-152.4
X154.735Y-152.4
T0
M30
