%TF.GenerationSoftware,KiCad,Pcbnew,(5.1.7)-1*%
%TF.CreationDate,2020-10-22T11:39:08-07:00*%
%TF.ProjectId,Reader,52656164-6572-42e6-9b69-6361645f7063,0.0.01*%
%TF.SameCoordinates,Original*%
%TF.FileFunction,Copper,L1,Top*%
%TF.FilePolarity,Positive*%
%FSLAX46Y46*%
G04 Gerber Fmt 4.6, Leading zero omitted, Abs format (unit mm)*
G04 Created by KiCad (PCBNEW (5.1.7)-1) date 2020-10-22 11:39:08*
%MOMM*%
%LPD*%
G01*
G04 APERTURE LIST*
%TA.AperFunction,EtchedComponent*%
%ADD10C,0.152400*%
%TD*%
%TA.AperFunction,SMDPad,CuDef*%
%ADD11R,1.100000X1.000000*%
%TD*%
%TA.AperFunction,ComponentPad*%
%ADD12C,1.117600*%
%TD*%
%TA.AperFunction,SMDPad,CuDef*%
%ADD13R,1.010000X0.930000*%
%TD*%
%TA.AperFunction,SMDPad,CuDef*%
%ADD14R,1.299998X1.799996*%
%TD*%
%TA.AperFunction,SMDPad,CuDef*%
%ADD15R,1.160000X1.470000*%
%TD*%
%TA.AperFunction,SMDPad,CuDef*%
%ADD16R,0.540000X0.600000*%
%TD*%
%TA.AperFunction,ComponentPad*%
%ADD17C,1.549400*%
%TD*%
%TA.AperFunction,ComponentPad*%
%ADD18C,3.302000*%
%TD*%
%TA.AperFunction,SMDPad,CuDef*%
%ADD19R,1.230000X0.600000*%
%TD*%
%TA.AperFunction,ComponentPad*%
%ADD20O,1.600000X1.600000*%
%TD*%
%TA.AperFunction,ComponentPad*%
%ADD21R,1.600000X1.600000*%
%TD*%
%TA.AperFunction,SMDPad,CuDef*%
%ADD22R,2.500000X1.800000*%
%TD*%
%TA.AperFunction,SMDPad,CuDef*%
%ADD23R,0.568000X0.903199*%
%TD*%
%TA.AperFunction,SMDPad,CuDef*%
%ADD24R,6.450000X6.450000*%
%TD*%
%TA.AperFunction,ComponentPad*%
%ADD25C,0.500000*%
%TD*%
%TA.AperFunction,SMDPad,CuDef*%
%ADD26R,1.600200X2.413000*%
%TD*%
%TA.AperFunction,SMDPad,CuDef*%
%ADD27R,0.858799X0.305600*%
%TD*%
%TA.AperFunction,SMDPad,CuDef*%
%ADD28R,1.327899X0.507200*%
%TD*%
%TA.AperFunction,ComponentPad*%
%ADD29R,1.295400X1.295400*%
%TD*%
%TA.AperFunction,ComponentPad*%
%ADD30C,1.295400*%
%TD*%
%TA.AperFunction,SMDPad,CuDef*%
%ADD31R,1.670000X0.600000*%
%TD*%
%TA.AperFunction,ComponentPad*%
%ADD32C,2.032000*%
%TD*%
%TA.AperFunction,SMDPad,CuDef*%
%ADD33R,1.003300X0.990600*%
%TD*%
%TA.AperFunction,SMDPad,CuDef*%
%ADD34R,0.600000X0.350000*%
%TD*%
%TA.AperFunction,SMDPad,CuDef*%
%ADD35R,0.350000X0.600000*%
%TD*%
%TA.AperFunction,SMDPad,CuDef*%
%ADD36R,1.000000X0.600000*%
%TD*%
%TA.AperFunction,SMDPad,CuDef*%
%ADD37R,0.568000X1.309599*%
%TD*%
%TA.AperFunction,SMDPad,CuDef*%
%ADD38R,0.900000X0.800000*%
%TD*%
%TA.AperFunction,SMDPad,CuDef*%
%ADD39R,0.568000X1.004799*%
%TD*%
%TA.AperFunction,SMDPad,CuDef*%
%ADD40R,0.482600X1.635100*%
%TD*%
%TA.AperFunction,SMDPad,CuDef*%
%ADD41R,0.790000X0.930000*%
%TD*%
%TA.AperFunction,SMDPad,CuDef*%
%ADD42R,1.080000X1.680000*%
%TD*%
%TA.AperFunction,SMDPad,CuDef*%
%ADD43R,0.700000X0.800000*%
%TD*%
%TA.AperFunction,SMDPad,CuDef*%
%ADD44R,1.040000X1.380000*%
%TD*%
%TA.AperFunction,SMDPad,CuDef*%
%ADD45R,1.040000X1.020000*%
%TD*%
%TA.AperFunction,SMDPad,CuDef*%
%ADD46R,0.560000X0.600000*%
%TD*%
%TA.AperFunction,SMDPad,CuDef*%
%ADD47R,0.380000X0.400000*%
%TD*%
%TA.AperFunction,SMDPad,CuDef*%
%ADD48R,1.549400X0.990600*%
%TD*%
%TA.AperFunction,SMDPad,CuDef*%
%ADD49R,0.757199X0.254800*%
%TD*%
%TA.AperFunction,SMDPad,CuDef*%
%ADD50R,1.803400X2.590800*%
%TD*%
%TA.AperFunction,SMDPad,CuDef*%
%ADD51R,1.100000X0.900000*%
%TD*%
G04 APERTURE END LIST*
D10*
%TO.C,Q_OVP_2*%
X163373201Y-67496501D02*
X162890601Y-67496501D01*
X163373201Y-67153201D02*
X163373201Y-67496501D01*
X164058601Y-66492801D02*
X163373201Y-67153201D01*
X164058601Y-63730201D02*
X164058601Y-66492801D01*
X163607751Y-63730201D02*
X164058601Y-63730201D01*
X162656051Y-63730201D02*
X163607751Y-63730201D01*
X162205201Y-63730201D02*
X162656051Y-63730201D01*
X162205201Y-66492801D02*
X162205201Y-63730201D01*
X162890601Y-67153201D02*
X162205201Y-66492801D01*
X162890601Y-67496501D02*
X162890601Y-67153201D01*
%TD*%
D11*
%TO.P,C_HSCAN_1,2*%
%TO.N,Pin4_GnD_Chassis*%
X156778401Y-93308401D03*
%TO.P,C_HSCAN_1,1*%
%TO.N,Net-(C_HSCAN_1-Pad1)*%
X155078401Y-93308401D03*
%TD*%
%TO.P,C_HSCAN_2,1*%
%TO.N,Net-(C_HSCAN_2-Pad1)*%
X144708401Y-95118401D03*
%TO.P,C_HSCAN_2,2*%
%TO.N,Pin4_GnD_Chassis*%
X146408401Y-95118401D03*
%TD*%
%TO.P,C_HSCAN_3,1*%
%TO.N,Pin4_GnD_Chassis*%
X159170000Y-92900000D03*
%TO.P,C_HSCAN_3,2*%
X160870000Y-92900000D03*
%TD*%
%TO.P,C_J1850_1,1*%
%TO.N,Net-(C_J1850_1-Pad1)*%
X139768401Y-76058401D03*
%TO.P,C_J1850_1,2*%
%TO.N,Pin4_GnD_Chassis*%
X141468401Y-76058401D03*
%TD*%
D12*
%TO.P,C_MM_1,1*%
%TO.N,+3.3V_SW*%
X187506101Y-100872801D03*
%TO.P,C_MM_1,2*%
%TO.N,Pin4_GnD_Chassis*%
X190006101Y-100872801D03*
%TD*%
D11*
%TO.P,C_MSCAN_1,2*%
%TO.N,Pin4_GnD_Chassis*%
X186168401Y-61978401D03*
%TO.P,C_MSCAN_1,1*%
%TO.N,Net-(C_MSCAN_1-Pad1)*%
X184468401Y-61978401D03*
%TD*%
%TO.P,C_MSCAN_2,2*%
%TO.N,Pin4_GnD_Chassis*%
X196538401Y-60168401D03*
%TO.P,C_MSCAN_2,1*%
%TO.N,Net-(C_MSCAN_2-Pad1)*%
X194838401Y-60168401D03*
%TD*%
%TO.P,C_MSCAN_3,1*%
%TO.N,Pin4_GnD_Chassis*%
X198930000Y-59760000D03*
%TO.P,C_MSCAN_3,2*%
X200630000Y-59760000D03*
%TD*%
D13*
%TO.P,C_OVP_1,1*%
%TO.N,Net-(C_OVP_1-Pad1)*%
X176071001Y-67370001D03*
%TO.P,C_OVP_1,2*%
%TO.N,Pin4_GnD_Chassis*%
X177489001Y-67370001D03*
%TD*%
D11*
%TO.P,C_OVP_2,2*%
%TO.N,Pin4_GnD_Chassis*%
X178660000Y-65060000D03*
%TO.P,C_OVP_2,1*%
%TO.N,Net-(C_OVP_2-Pad1)*%
X176960000Y-65060000D03*
%TD*%
D14*
%TO.P,C_PS_1,1*%
%TO.N,+12V*%
X172880199Y-75040199D03*
%TO.P,C_PS_1,2*%
%TO.N,Pin4_GnD_Chassis*%
X175680195Y-75040199D03*
%TD*%
D11*
%TO.P,C_STN_1,2*%
%TO.N,Pin4_GnD_Chassis*%
X168120000Y-47730000D03*
%TO.P,C_STN_1,1*%
X166420000Y-47730000D03*
%TD*%
%TO.P,C_STN_2,2*%
%TO.N,Pin4_GnD_Chassis*%
X164630000Y-50210000D03*
%TO.P,C_STN_2,1*%
X162930000Y-50210000D03*
%TD*%
D15*
%TO.P,C_STN_3,2*%
%TO.N,Net-(C_STN_3-Pad2)*%
X165558001Y-42418001D03*
%TO.P,C_STN_3,1*%
%TO.N,Pin4_GnD_Chassis*%
X163808001Y-42418001D03*
%TD*%
%TO.P,C_STN_4,1*%
%TO.N,Net-(C_STN_4-Pad1)*%
X158288001Y-45648001D03*
%TO.P,C_STN_4,2*%
%TO.N,Pin4_GnD_Chassis*%
X160038001Y-45648001D03*
%TD*%
D11*
%TO.P,C_STN_5,1*%
%TO.N,Net-(C_STN_5-Pad1)*%
X154900000Y-53990000D03*
%TO.P,C_STN_5,2*%
%TO.N,Pin4_GnD_Chassis*%
X156600000Y-53990000D03*
%TD*%
D16*
%TO.P,C_SWCAN_1,1*%
%TO.N,Pin1_SW_CAN*%
X122925001Y-103965001D03*
%TO.P,C_SWCAN_1,2*%
%TO.N,Pin4_GnD_Chassis*%
X123785001Y-103965001D03*
%TD*%
D14*
%TO.P,C_SWCAN_2,2*%
%TO.N,Pin4_GnD_Chassis*%
X118220195Y-97600199D03*
%TO.P,C_SWCAN_2,1*%
%TO.N,+12V*%
X115420199Y-97600199D03*
%TD*%
D11*
%TO.P,C_VR1_BIAS1,2*%
%TO.N,Pin4_GnD_Chassis*%
X174000000Y-106600000D03*
%TO.P,C_VR1_BIAS1,1*%
%TO.N,Net-(C_VR1_BIAS1-Pad1)*%
X172300000Y-106600000D03*
%TD*%
%TO.P,C_VR1_BST1,2*%
%TO.N,Net-(C_VR1_BST1-Pad2)*%
X174298401Y-104298401D03*
%TO.P,C_VR1_BST1,1*%
%TO.N,Net-(C_VR1_BST1-Pad1)*%
X172598401Y-104298401D03*
%TD*%
D14*
%TO.P,C_VR1_in1,2*%
%TO.N,+12V*%
X170140195Y-101260199D03*
%TO.P,C_VR1_in1,1*%
%TO.N,Net-(C_VR1_in1-Pad1)*%
X167340199Y-101260199D03*
%TD*%
D11*
%TO.P,C_VR2_BIAS1,1*%
%TO.N,Net-(C_VR2_BIAS1-Pad1)*%
X191610000Y-94100000D03*
%TO.P,C_VR2_BIAS1,2*%
%TO.N,Pin4_GnD_Chassis*%
X193310000Y-94100000D03*
%TD*%
%TO.P,C_VR2_BST1,1*%
%TO.N,Net-(C_VR2_BST1-Pad1)*%
X191908401Y-91798401D03*
%TO.P,C_VR2_BST1,2*%
%TO.N,Net-(C_VR2_BST1-Pad2)*%
X193608401Y-91798401D03*
%TD*%
D14*
%TO.P,C_VR2_in1,1*%
%TO.N,Net-(C_VR2_in1-Pad1)*%
X186650199Y-88760199D03*
%TO.P,C_VR2_in1,2*%
%TO.N,Pin4_GnD_Chassis*%
X189450195Y-88760199D03*
%TD*%
D11*
%TO.P,C_VS_1,1*%
%TO.N,/OBDII Interpreter/Analog_Voltage*%
X177978401Y-95118401D03*
%TO.P,C_VS_1,2*%
%TO.N,Pin4_GnD_Chassis*%
X179678401Y-95118401D03*
%TD*%
D17*
%TO.P,CN1,1*%
%TO.N,Pin2_SAE_J1850_BUS+*%
X93435301Y-55651401D03*
%TO.P,CN1,2*%
%TO.N,Pin10_SAE_J1850_BUS-*%
X95725301Y-55651401D03*
%TO.P,CN1,3*%
%TO.N,Pin3_MS_CAN_High*%
X98015302Y-55651401D03*
%TO.P,CN1,4*%
%TO.N,Pin11_MS_CAN_Low*%
X100305299Y-55651401D03*
%TO.P,CN1,5*%
%TO.N,Pin13*%
X102595300Y-55651401D03*
%TO.P,CN1,6*%
%TO.N,Pin7_ISO9141_K-Line*%
X94580302Y-53111401D03*
%TO.P,CN1,7*%
%TO.N,Pin15_ISO9141_L-Line*%
X96870300Y-53111401D03*
%TO.P,CN1,8*%
%TO.N,Pin8*%
X99160301Y-53111401D03*
%TO.P,CN1,9*%
%TO.N,Pin1_SW_CAN*%
X101450301Y-53111401D03*
%TO.P,CN1,10*%
%TO.N,Pin16_Raw_+12V_Battery*%
X103740302Y-53111401D03*
%TO.P,CN1,11*%
%TO.N,Pin6_ISO15765-4_CAN_BUS_High*%
X93435301Y-50571401D03*
%TO.P,CN1,12*%
%TO.N,Pin14_ISO15765-4_CAN_BUS_Low*%
X95725301Y-50571401D03*
%TO.P,CN1,13*%
%TO.N,Pin4_GnD_Chassis*%
X98015302Y-50571401D03*
%TO.P,CN1,14*%
%TO.N,Pin9*%
X100305299Y-50571401D03*
%TO.P,CN1,15*%
%TO.N,Pin12*%
X102595300Y-50571401D03*
D18*
%TO.P,CN1,0*%
%TO.N,Pin4_GnD_Chassis*%
X85790301Y-53111401D03*
X110780301Y-53111401D03*
%TD*%
%TO.P,CP_STN_1,1*%
%TO.N,Net-(CP_STN_1-Pad1)*%
%TA.AperFunction,SMDPad,CuDef*%
G36*
G01*
X159995001Y-38535001D02*
X159995001Y-37435001D01*
G75*
G02*
X160245001Y-37185001I250000J0D01*
G01*
X162345001Y-37185001D01*
G75*
G02*
X162595001Y-37435001I0J-250000D01*
G01*
X162595001Y-38535001D01*
G75*
G02*
X162345001Y-38785001I-250000J0D01*
G01*
X160245001Y-38785001D01*
G75*
G02*
X159995001Y-38535001I0J250000D01*
G01*
G37*
%TD.AperFunction*%
%TO.P,CP_STN_1,2*%
%TO.N,Pin4_GnD_Chassis*%
%TA.AperFunction,SMDPad,CuDef*%
G36*
G01*
X163595001Y-38535001D02*
X163595001Y-37435001D01*
G75*
G02*
X163845001Y-37185001I250000J0D01*
G01*
X165945001Y-37185001D01*
G75*
G02*
X166195001Y-37435001I0J-250000D01*
G01*
X166195001Y-38535001D01*
G75*
G02*
X165945001Y-38785001I-250000J0D01*
G01*
X163845001Y-38785001D01*
G75*
G02*
X163595001Y-38535001I0J250000D01*
G01*
G37*
%TD.AperFunction*%
%TD*%
D19*
%TO.P,D_ISO_6,1*%
%TO.N,Pin7_ISO9141_K-Line*%
X189300001Y-74585001D03*
%TO.P,D_ISO_6,2*%
%TO.N,Pin15_ISO9141_L-Line*%
X189300001Y-76485001D03*
%TO.P,D_ISO_6,3*%
%TO.N,Pin4_GnD_Chassis*%
X191420001Y-75535001D03*
%TD*%
D20*
%TO.P,D_J1850_1,2*%
%TO.N,+5V_SW*%
X144305001Y-67445001D03*
D21*
%TO.P,D_J1850_1,1*%
%TO.N,Net-(D_J1850_1-Pad1)*%
X136685001Y-67445001D03*
%TD*%
%TO.P,D_J1850_2,1*%
%TO.N,Pin2_SAE_J1850_BUS+*%
X125915001Y-70995001D03*
D20*
%TO.P,D_J1850_2,2*%
%TO.N,Net-(D_J1850_2-Pad2)*%
X133535001Y-70995001D03*
%TD*%
D21*
%TO.P,D_J1850_3,1*%
%TO.N,Pin4_GnD_Chassis*%
X125915001Y-67445001D03*
D20*
%TO.P,D_J1850_3,2*%
%TO.N,Net-(D_J1850_3-Pad2)*%
X133535001Y-67445001D03*
%TD*%
D22*
%TO.P,D_OVP_1,1*%
%TO.N,Net-(D_OVP_1-Pad1)*%
X160885001Y-60625001D03*
%TO.P,D_OVP_1,2*%
%TO.N,Net-(C_OVP_1-Pad1)*%
X164885001Y-60625001D03*
%TD*%
D23*
%TO.P,D_OVP_2,1*%
%TO.N,Net-(D_OVP_2-Pad1)*%
X168238000Y-62019400D03*
%TO.P,D_OVP_2,2*%
%TO.N,Pin4_GnD_Chassis*%
X170138002Y-62019400D03*
%TO.P,D_OVP_2,3*%
%TO.N,N/C*%
X169188001Y-59631800D03*
%TD*%
%TO.P,D_OVP_3,3*%
%TO.N,N/C*%
X168538001Y-65161800D03*
%TO.P,D_OVP_3,2*%
%TO.N,Net-(C_OVP_2-Pad1)*%
X169488002Y-67549400D03*
%TO.P,D_OVP_3,1*%
%TO.N,Net-(D_OVP_1-Pad1)*%
X167588000Y-67549400D03*
%TD*%
D21*
%TO.P,D_VS_1,1*%
%TO.N,Pin4_GnD_Chassis*%
X167435001Y-92675001D03*
D20*
%TO.P,D_VS_1,2*%
%TO.N,/OBDII Interpreter/Analog_Voltage*%
X175055001Y-92675001D03*
%TD*%
%TO.P,D_VS_2,2*%
%TO.N,Pin4_GnD_Chassis*%
X175055001Y-89125001D03*
D21*
%TO.P,D_VS_2,1*%
%TO.N,/OBDII Interpreter/Analog_Voltage*%
X167435001Y-89125001D03*
%TD*%
%TO.P,IC2,1*%
%TO.N,Pin4_GnD_Chassis*%
%TA.AperFunction,SMDPad,CuDef*%
G36*
G01*
X147455001Y-42112501D02*
X147455001Y-41937501D01*
G75*
G02*
X147542501Y-41850001I87500J0D01*
G01*
X148192501Y-41850001D01*
G75*
G02*
X148280001Y-41937501I0J-87500D01*
G01*
X148280001Y-42112501D01*
G75*
G02*
X148192501Y-42200001I-87500J0D01*
G01*
X147542501Y-42200001D01*
G75*
G02*
X147455001Y-42112501I0J87500D01*
G01*
G37*
%TD.AperFunction*%
%TO.P,IC2,2*%
%TA.AperFunction,SMDPad,CuDef*%
G36*
G01*
X147455001Y-42762501D02*
X147455001Y-42587501D01*
G75*
G02*
X147542501Y-42500001I87500J0D01*
G01*
X148192501Y-42500001D01*
G75*
G02*
X148280001Y-42587501I0J-87500D01*
G01*
X148280001Y-42762501D01*
G75*
G02*
X148192501Y-42850001I-87500J0D01*
G01*
X147542501Y-42850001D01*
G75*
G02*
X147455001Y-42762501I0J87500D01*
G01*
G37*
%TD.AperFunction*%
%TO.P,IC2,3*%
%TA.AperFunction,SMDPad,CuDef*%
G36*
G01*
X147455001Y-43412501D02*
X147455001Y-43237501D01*
G75*
G02*
X147542501Y-43150001I87500J0D01*
G01*
X148192501Y-43150001D01*
G75*
G02*
X148280001Y-43237501I0J-87500D01*
G01*
X148280001Y-43412501D01*
G75*
G02*
X148192501Y-43500001I-87500J0D01*
G01*
X147542501Y-43500001D01*
G75*
G02*
X147455001Y-43412501I0J87500D01*
G01*
G37*
%TD.AperFunction*%
%TO.P,IC2,4*%
%TO.N,/Host/HOST_TX*%
%TA.AperFunction,SMDPad,CuDef*%
G36*
G01*
X147455001Y-44062501D02*
X147455001Y-43887501D01*
G75*
G02*
X147542501Y-43800001I87500J0D01*
G01*
X148192501Y-43800001D01*
G75*
G02*
X148280001Y-43887501I0J-87500D01*
G01*
X148280001Y-44062501D01*
G75*
G02*
X148192501Y-44150001I-87500J0D01*
G01*
X147542501Y-44150001D01*
G75*
G02*
X147455001Y-44062501I0J87500D01*
G01*
G37*
%TD.AperFunction*%
%TO.P,IC2,5*%
%TO.N,/Host/HOST_RX*%
%TA.AperFunction,SMDPad,CuDef*%
G36*
G01*
X147455001Y-44712501D02*
X147455001Y-44537501D01*
G75*
G02*
X147542501Y-44450001I87500J0D01*
G01*
X148192501Y-44450001D01*
G75*
G02*
X148280001Y-44537501I0J-87500D01*
G01*
X148280001Y-44712501D01*
G75*
G02*
X148192501Y-44800001I-87500J0D01*
G01*
X147542501Y-44800001D01*
G75*
G02*
X147455001Y-44712501I0J87500D01*
G01*
G37*
%TD.AperFunction*%
%TO.P,IC2,6*%
%TO.N,Pin4_GnD_Chassis*%
%TA.AperFunction,SMDPad,CuDef*%
G36*
G01*
X147455001Y-45362501D02*
X147455001Y-45187501D01*
G75*
G02*
X147542501Y-45100001I87500J0D01*
G01*
X148192501Y-45100001D01*
G75*
G02*
X148280001Y-45187501I0J-87500D01*
G01*
X148280001Y-45362501D01*
G75*
G02*
X148192501Y-45450001I-87500J0D01*
G01*
X147542501Y-45450001D01*
G75*
G02*
X147455001Y-45362501I0J87500D01*
G01*
G37*
%TD.AperFunction*%
%TO.P,IC2,7*%
%TO.N,Net-(CP_STN_1-Pad1)*%
%TA.AperFunction,SMDPad,CuDef*%
G36*
G01*
X147455001Y-46012501D02*
X147455001Y-45837501D01*
G75*
G02*
X147542501Y-45750001I87500J0D01*
G01*
X148192501Y-45750001D01*
G75*
G02*
X148280001Y-45837501I0J-87500D01*
G01*
X148280001Y-46012501D01*
G75*
G02*
X148192501Y-46100001I-87500J0D01*
G01*
X147542501Y-46100001D01*
G75*
G02*
X147455001Y-46012501I0J87500D01*
G01*
G37*
%TD.AperFunction*%
%TO.P,IC2,8*%
%TO.N,/OBDII Interpreter/High Speed CAN Transceiver/HS_CAN_TX*%
%TA.AperFunction,SMDPad,CuDef*%
G36*
G01*
X147455001Y-46662501D02*
X147455001Y-46487501D01*
G75*
G02*
X147542501Y-46400001I87500J0D01*
G01*
X148192501Y-46400001D01*
G75*
G02*
X148280001Y-46487501I0J-87500D01*
G01*
X148280001Y-46662501D01*
G75*
G02*
X148192501Y-46750001I-87500J0D01*
G01*
X147542501Y-46750001D01*
G75*
G02*
X147455001Y-46662501I0J87500D01*
G01*
G37*
%TD.AperFunction*%
%TO.P,IC2,9*%
%TO.N,/OBDII Interpreter/Medium Speed CAN Transceiver/MS_CAN_TX*%
%TA.AperFunction,SMDPad,CuDef*%
G36*
G01*
X147455001Y-47312501D02*
X147455001Y-47137501D01*
G75*
G02*
X147542501Y-47050001I87500J0D01*
G01*
X148192501Y-47050001D01*
G75*
G02*
X148280001Y-47137501I0J-87500D01*
G01*
X148280001Y-47312501D01*
G75*
G02*
X148192501Y-47400001I-87500J0D01*
G01*
X147542501Y-47400001D01*
G75*
G02*
X147455001Y-47312501I0J87500D01*
G01*
G37*
%TD.AperFunction*%
%TO.P,IC2,10*%
%TO.N,/OBDII Interpreter/High Speed CAN Transceiver/HS_CAN_RX*%
%TA.AperFunction,SMDPad,CuDef*%
G36*
G01*
X147455001Y-47962501D02*
X147455001Y-47787501D01*
G75*
G02*
X147542501Y-47700001I87500J0D01*
G01*
X148192501Y-47700001D01*
G75*
G02*
X148280001Y-47787501I0J-87500D01*
G01*
X148280001Y-47962501D01*
G75*
G02*
X148192501Y-48050001I-87500J0D01*
G01*
X147542501Y-48050001D01*
G75*
G02*
X147455001Y-47962501I0J87500D01*
G01*
G37*
%TD.AperFunction*%
%TO.P,IC2,11*%
%TO.N,/OBDII Interpreter/Medium Speed CAN Transceiver/MS_CAN_RX*%
%TA.AperFunction,SMDPad,CuDef*%
G36*
G01*
X147455001Y-48612501D02*
X147455001Y-48437501D01*
G75*
G02*
X147542501Y-48350001I87500J0D01*
G01*
X148192501Y-48350001D01*
G75*
G02*
X148280001Y-48437501I0J-87500D01*
G01*
X148280001Y-48612501D01*
G75*
G02*
X148192501Y-48700001I-87500J0D01*
G01*
X147542501Y-48700001D01*
G75*
G02*
X147455001Y-48612501I0J87500D01*
G01*
G37*
%TD.AperFunction*%
%TO.P,IC2,12*%
%TO.N,/OBDII Interpreter/~RESET_OBD_HW~*%
%TA.AperFunction,SMDPad,CuDef*%
G36*
G01*
X148380001Y-49537501D02*
X148380001Y-48887501D01*
G75*
G02*
X148467501Y-48800001I87500J0D01*
G01*
X148642501Y-48800001D01*
G75*
G02*
X148730001Y-48887501I0J-87500D01*
G01*
X148730001Y-49537501D01*
G75*
G02*
X148642501Y-49625001I-87500J0D01*
G01*
X148467501Y-49625001D01*
G75*
G02*
X148380001Y-49537501I0J87500D01*
G01*
G37*
%TD.AperFunction*%
%TO.P,IC2,13*%
%TO.N,/OBDII Interpreter/OBDII Chip/~HOST_ACT_LED~*%
%TA.AperFunction,SMDPad,CuDef*%
G36*
G01*
X149030001Y-49537501D02*
X149030001Y-48887501D01*
G75*
G02*
X149117501Y-48800001I87500J0D01*
G01*
X149292501Y-48800001D01*
G75*
G02*
X149380001Y-48887501I0J-87500D01*
G01*
X149380001Y-49537501D01*
G75*
G02*
X149292501Y-49625001I-87500J0D01*
G01*
X149117501Y-49625001D01*
G75*
G02*
X149030001Y-49537501I0J87500D01*
G01*
G37*
%TD.AperFunction*%
%TO.P,IC2,14*%
%TO.N,/OBDII Interpreter/OBDII Chip/STATUS_LED*%
%TA.AperFunction,SMDPad,CuDef*%
G36*
G01*
X149680001Y-49537501D02*
X149680001Y-48887501D01*
G75*
G02*
X149767501Y-48800001I87500J0D01*
G01*
X149942501Y-48800001D01*
G75*
G02*
X150030001Y-48887501I0J-87500D01*
G01*
X150030001Y-49537501D01*
G75*
G02*
X149942501Y-49625001I-87500J0D01*
G01*
X149767501Y-49625001D01*
G75*
G02*
X149680001Y-49537501I0J87500D01*
G01*
G37*
%TD.AperFunction*%
%TO.P,IC2,15*%
%TO.N,Pin4_GnD_Chassis*%
%TA.AperFunction,SMDPad,CuDef*%
G36*
G01*
X150330001Y-49537501D02*
X150330001Y-48887501D01*
G75*
G02*
X150417501Y-48800001I87500J0D01*
G01*
X150592501Y-48800001D01*
G75*
G02*
X150680001Y-48887501I0J-87500D01*
G01*
X150680001Y-49537501D01*
G75*
G02*
X150592501Y-49625001I-87500J0D01*
G01*
X150417501Y-49625001D01*
G75*
G02*
X150330001Y-49537501I0J87500D01*
G01*
G37*
%TD.AperFunction*%
%TO.P,IC2,16*%
%TA.AperFunction,SMDPad,CuDef*%
G36*
G01*
X150980001Y-49537501D02*
X150980001Y-48887501D01*
G75*
G02*
X151067501Y-48800001I87500J0D01*
G01*
X151242501Y-48800001D01*
G75*
G02*
X151330001Y-48887501I0J-87500D01*
G01*
X151330001Y-49537501D01*
G75*
G02*
X151242501Y-49625001I-87500J0D01*
G01*
X151067501Y-49625001D01*
G75*
G02*
X150980001Y-49537501I0J87500D01*
G01*
G37*
%TD.AperFunction*%
%TO.P,IC2,17*%
%TO.N,VDDA*%
%TA.AperFunction,SMDPad,CuDef*%
G36*
G01*
X151630001Y-49537501D02*
X151630001Y-48887501D01*
G75*
G02*
X151717501Y-48800001I87500J0D01*
G01*
X151892501Y-48800001D01*
G75*
G02*
X151980001Y-48887501I0J-87500D01*
G01*
X151980001Y-49537501D01*
G75*
G02*
X151892501Y-49625001I-87500J0D01*
G01*
X151717501Y-49625001D01*
G75*
G02*
X151630001Y-49537501I0J87500D01*
G01*
G37*
%TD.AperFunction*%
%TO.P,IC2,18*%
%TO.N,/OBDII Interpreter/RESET_OBD_SW*%
%TA.AperFunction,SMDPad,CuDef*%
G36*
G01*
X152280001Y-49537501D02*
X152280001Y-48887501D01*
G75*
G02*
X152367501Y-48800001I87500J0D01*
G01*
X152542501Y-48800001D01*
G75*
G02*
X152630001Y-48887501I0J-87500D01*
G01*
X152630001Y-49537501D01*
G75*
G02*
X152542501Y-49625001I-87500J0D01*
G01*
X152367501Y-49625001D01*
G75*
G02*
X152280001Y-49537501I0J87500D01*
G01*
G37*
%TD.AperFunction*%
%TO.P,IC2,19*%
%TO.N,/OBDII Interpreter/Analog_Voltage*%
%TA.AperFunction,SMDPad,CuDef*%
G36*
G01*
X152930001Y-49537501D02*
X152930001Y-48887501D01*
G75*
G02*
X153017501Y-48800001I87500J0D01*
G01*
X153192501Y-48800001D01*
G75*
G02*
X153280001Y-48887501I0J-87500D01*
G01*
X153280001Y-49537501D01*
G75*
G02*
X153192501Y-49625001I-87500J0D01*
G01*
X153017501Y-49625001D01*
G75*
G02*
X152930001Y-49537501I0J87500D01*
G01*
G37*
%TD.AperFunction*%
%TO.P,IC2,20*%
%TO.N,Pin4_GnD_Chassis*%
%TA.AperFunction,SMDPad,CuDef*%
G36*
G01*
X153580001Y-49537501D02*
X153580001Y-48887501D01*
G75*
G02*
X153667501Y-48800001I87500J0D01*
G01*
X153842501Y-48800001D01*
G75*
G02*
X153930001Y-48887501I0J-87500D01*
G01*
X153930001Y-49537501D01*
G75*
G02*
X153842501Y-49625001I-87500J0D01*
G01*
X153667501Y-49625001D01*
G75*
G02*
X153580001Y-49537501I0J87500D01*
G01*
G37*
%TD.AperFunction*%
%TO.P,IC2,21*%
%TO.N,/OBDII Interpreter/OBDII Chip/~ISO_RX~*%
%TA.AperFunction,SMDPad,CuDef*%
G36*
G01*
X154230001Y-49537501D02*
X154230001Y-48887501D01*
G75*
G02*
X154317501Y-48800001I87500J0D01*
G01*
X154492501Y-48800001D01*
G75*
G02*
X154580001Y-48887501I0J-87500D01*
G01*
X154580001Y-49537501D01*
G75*
G02*
X154492501Y-49625001I-87500J0D01*
G01*
X154317501Y-49625001D01*
G75*
G02*
X154230001Y-49537501I0J87500D01*
G01*
G37*
%TD.AperFunction*%
%TO.P,IC2,22*%
%TO.N,/OBDII Interpreter/Comparator Transceiver/VPW_RX*%
%TA.AperFunction,SMDPad,CuDef*%
G36*
G01*
X154880001Y-49537501D02*
X154880001Y-48887501D01*
G75*
G02*
X154967501Y-48800001I87500J0D01*
G01*
X155142501Y-48800001D01*
G75*
G02*
X155230001Y-48887501I0J-87500D01*
G01*
X155230001Y-49537501D01*
G75*
G02*
X155142501Y-49625001I-87500J0D01*
G01*
X154967501Y-49625001D01*
G75*
G02*
X154880001Y-49537501I0J87500D01*
G01*
G37*
%TD.AperFunction*%
%TO.P,IC2,23*%
%TO.N,/OBDII Interpreter/Comparator Transceiver/PWM_RX*%
%TA.AperFunction,SMDPad,CuDef*%
G36*
G01*
X155330001Y-48612501D02*
X155330001Y-48437501D01*
G75*
G02*
X155417501Y-48350001I87500J0D01*
G01*
X156067501Y-48350001D01*
G75*
G02*
X156155001Y-48437501I0J-87500D01*
G01*
X156155001Y-48612501D01*
G75*
G02*
X156067501Y-48700001I-87500J0D01*
G01*
X155417501Y-48700001D01*
G75*
G02*
X155330001Y-48612501I0J87500D01*
G01*
G37*
%TD.AperFunction*%
%TO.P,IC2,24*%
%TO.N,/OBDII Interpreter/OBDII Chip/J1850_BUS+_TX*%
%TA.AperFunction,SMDPad,CuDef*%
G36*
G01*
X155330001Y-47962501D02*
X155330001Y-47787501D01*
G75*
G02*
X155417501Y-47700001I87500J0D01*
G01*
X156067501Y-47700001D01*
G75*
G02*
X156155001Y-47787501I0J-87500D01*
G01*
X156155001Y-47962501D01*
G75*
G02*
X156067501Y-48050001I-87500J0D01*
G01*
X155417501Y-48050001D01*
G75*
G02*
X155330001Y-47962501I0J87500D01*
G01*
G37*
%TD.AperFunction*%
%TO.P,IC2,25*%
%TO.N,/OBDII Interpreter/OBDII Chip/~J1850_BUS+_VH~*%
%TA.AperFunction,SMDPad,CuDef*%
G36*
G01*
X155330001Y-47312501D02*
X155330001Y-47137501D01*
G75*
G02*
X155417501Y-47050001I87500J0D01*
G01*
X156067501Y-47050001D01*
G75*
G02*
X156155001Y-47137501I0J-87500D01*
G01*
X156155001Y-47312501D01*
G75*
G02*
X156067501Y-47400001I-87500J0D01*
G01*
X155417501Y-47400001D01*
G75*
G02*
X155330001Y-47312501I0J87500D01*
G01*
G37*
%TD.AperFunction*%
%TO.P,IC2,26*%
%TO.N,Pin4_GnD_Chassis*%
%TA.AperFunction,SMDPad,CuDef*%
G36*
G01*
X155330001Y-46662501D02*
X155330001Y-46487501D01*
G75*
G02*
X155417501Y-46400001I87500J0D01*
G01*
X156067501Y-46400001D01*
G75*
G02*
X156155001Y-46487501I0J-87500D01*
G01*
X156155001Y-46662501D01*
G75*
G02*
X156067501Y-46750001I-87500J0D01*
G01*
X155417501Y-46750001D01*
G75*
G02*
X155330001Y-46662501I0J87500D01*
G01*
G37*
%TD.AperFunction*%
%TO.P,IC2,27*%
%TO.N,/Host/~RESET_OBD_HW~*%
%TA.AperFunction,SMDPad,CuDef*%
G36*
G01*
X155330001Y-46012501D02*
X155330001Y-45837501D01*
G75*
G02*
X155417501Y-45750001I87500J0D01*
G01*
X156067501Y-45750001D01*
G75*
G02*
X156155001Y-45837501I0J-87500D01*
G01*
X156155001Y-46012501D01*
G75*
G02*
X156067501Y-46100001I-87500J0D01*
G01*
X155417501Y-46100001D01*
G75*
G02*
X155330001Y-46012501I0J87500D01*
G01*
G37*
%TD.AperFunction*%
%TO.P,IC2,28*%
%TO.N,Pin4_GnD_Chassis*%
%TA.AperFunction,SMDPad,CuDef*%
G36*
G01*
X155330001Y-45362501D02*
X155330001Y-45187501D01*
G75*
G02*
X155417501Y-45100001I87500J0D01*
G01*
X156067501Y-45100001D01*
G75*
G02*
X156155001Y-45187501I0J-87500D01*
G01*
X156155001Y-45362501D01*
G75*
G02*
X156067501Y-45450001I-87500J0D01*
G01*
X155417501Y-45450001D01*
G75*
G02*
X155330001Y-45362501I0J87500D01*
G01*
G37*
%TD.AperFunction*%
%TO.P,IC2,29*%
%TO.N,Net-(C_STN_5-Pad1)*%
%TA.AperFunction,SMDPad,CuDef*%
G36*
G01*
X155330001Y-44712501D02*
X155330001Y-44537501D01*
G75*
G02*
X155417501Y-44450001I87500J0D01*
G01*
X156067501Y-44450001D01*
G75*
G02*
X156155001Y-44537501I0J-87500D01*
G01*
X156155001Y-44712501D01*
G75*
G02*
X156067501Y-44800001I-87500J0D01*
G01*
X155417501Y-44800001D01*
G75*
G02*
X155330001Y-44712501I0J87500D01*
G01*
G37*
%TD.AperFunction*%
%TO.P,IC2,30*%
%TO.N,Net-(C_STN_4-Pad1)*%
%TA.AperFunction,SMDPad,CuDef*%
G36*
G01*
X155330001Y-44062501D02*
X155330001Y-43887501D01*
G75*
G02*
X155417501Y-43800001I87500J0D01*
G01*
X156067501Y-43800001D01*
G75*
G02*
X156155001Y-43887501I0J-87500D01*
G01*
X156155001Y-44062501D01*
G75*
G02*
X156067501Y-44150001I-87500J0D01*
G01*
X155417501Y-44150001D01*
G75*
G02*
X155330001Y-44062501I0J87500D01*
G01*
G37*
%TD.AperFunction*%
%TO.P,IC2,31*%
%TO.N,Net-(C_STN_3-Pad2)*%
%TA.AperFunction,SMDPad,CuDef*%
G36*
G01*
X155330001Y-43412501D02*
X155330001Y-43237501D01*
G75*
G02*
X155417501Y-43150001I87500J0D01*
G01*
X156067501Y-43150001D01*
G75*
G02*
X156155001Y-43237501I0J-87500D01*
G01*
X156155001Y-43412501D01*
G75*
G02*
X156067501Y-43500001I-87500J0D01*
G01*
X155417501Y-43500001D01*
G75*
G02*
X155330001Y-43412501I0J87500D01*
G01*
G37*
%TD.AperFunction*%
%TO.P,IC2,32*%
%TO.N,/OBDII Interpreter/~PWR_CTRL~*%
%TA.AperFunction,SMDPad,CuDef*%
G36*
G01*
X155330001Y-42762501D02*
X155330001Y-42587501D01*
G75*
G02*
X155417501Y-42500001I87500J0D01*
G01*
X156067501Y-42500001D01*
G75*
G02*
X156155001Y-42587501I0J-87500D01*
G01*
X156155001Y-42762501D01*
G75*
G02*
X156067501Y-42850001I-87500J0D01*
G01*
X155417501Y-42850001D01*
G75*
G02*
X155330001Y-42762501I0J87500D01*
G01*
G37*
%TD.AperFunction*%
%TO.P,IC2,33*%
%TO.N,/OBDII Interpreter/OBDII Chip/J1850_BUS-_TX*%
%TA.AperFunction,SMDPad,CuDef*%
G36*
G01*
X155330001Y-42112501D02*
X155330001Y-41937501D01*
G75*
G02*
X155417501Y-41850001I87500J0D01*
G01*
X156067501Y-41850001D01*
G75*
G02*
X156155001Y-41937501I0J-87500D01*
G01*
X156155001Y-42112501D01*
G75*
G02*
X156067501Y-42200001I-87500J0D01*
G01*
X155417501Y-42200001D01*
G75*
G02*
X155330001Y-42112501I0J87500D01*
G01*
G37*
%TD.AperFunction*%
%TO.P,IC2,34*%
%TO.N,/OBDII Interpreter/OBDII Chip/SW_CAN_LOAD*%
%TA.AperFunction,SMDPad,CuDef*%
G36*
G01*
X154880001Y-41662501D02*
X154880001Y-41012501D01*
G75*
G02*
X154967501Y-40925001I87500J0D01*
G01*
X155142501Y-40925001D01*
G75*
G02*
X155230001Y-41012501I0J-87500D01*
G01*
X155230001Y-41662501D01*
G75*
G02*
X155142501Y-41750001I-87500J0D01*
G01*
X154967501Y-41750001D01*
G75*
G02*
X154880001Y-41662501I0J87500D01*
G01*
G37*
%TD.AperFunction*%
%TO.P,IC2,35*%
%TO.N,/OBDII Interpreter/OBDII Chip/SW_CAN_MODE0*%
%TA.AperFunction,SMDPad,CuDef*%
G36*
G01*
X154230001Y-41662501D02*
X154230001Y-41012501D01*
G75*
G02*
X154317501Y-40925001I87500J0D01*
G01*
X154492501Y-40925001D01*
G75*
G02*
X154580001Y-41012501I0J-87500D01*
G01*
X154580001Y-41662501D01*
G75*
G02*
X154492501Y-41750001I-87500J0D01*
G01*
X154317501Y-41750001D01*
G75*
G02*
X154230001Y-41662501I0J87500D01*
G01*
G37*
%TD.AperFunction*%
%TO.P,IC2,36*%
%TO.N,/OBDII Interpreter/OBDII Chip/SW_CAN_MODE1*%
%TA.AperFunction,SMDPad,CuDef*%
G36*
G01*
X153580001Y-41662501D02*
X153580001Y-41012501D01*
G75*
G02*
X153667501Y-40925001I87500J0D01*
G01*
X153842501Y-40925001D01*
G75*
G02*
X153930001Y-41012501I0J-87500D01*
G01*
X153930001Y-41662501D01*
G75*
G02*
X153842501Y-41750001I-87500J0D01*
G01*
X153667501Y-41750001D01*
G75*
G02*
X153580001Y-41662501I0J87500D01*
G01*
G37*
%TD.AperFunction*%
%TO.P,IC2,37*%
%TO.N,Pin4_GnD_Chassis*%
%TA.AperFunction,SMDPad,CuDef*%
G36*
G01*
X152930001Y-41662501D02*
X152930001Y-41012501D01*
G75*
G02*
X153017501Y-40925001I87500J0D01*
G01*
X153192501Y-40925001D01*
G75*
G02*
X153280001Y-41012501I0J-87500D01*
G01*
X153280001Y-41662501D01*
G75*
G02*
X153192501Y-41750001I-87500J0D01*
G01*
X153017501Y-41750001D01*
G75*
G02*
X152930001Y-41662501I0J87500D01*
G01*
G37*
%TD.AperFunction*%
%TO.P,IC2,38*%
%TA.AperFunction,SMDPad,CuDef*%
G36*
G01*
X152280001Y-41662501D02*
X152280001Y-41012501D01*
G75*
G02*
X152367501Y-40925001I87500J0D01*
G01*
X152542501Y-40925001D01*
G75*
G02*
X152630001Y-41012501I0J-87500D01*
G01*
X152630001Y-41662501D01*
G75*
G02*
X152542501Y-41750001I-87500J0D01*
G01*
X152367501Y-41750001D01*
G75*
G02*
X152280001Y-41662501I0J87500D01*
G01*
G37*
%TD.AperFunction*%
%TO.P,IC2,39*%
%TA.AperFunction,SMDPad,CuDef*%
G36*
G01*
X151630001Y-41662501D02*
X151630001Y-41012501D01*
G75*
G02*
X151717501Y-40925001I87500J0D01*
G01*
X151892501Y-40925001D01*
G75*
G02*
X151980001Y-41012501I0J-87500D01*
G01*
X151980001Y-41662501D01*
G75*
G02*
X151892501Y-41750001I-87500J0D01*
G01*
X151717501Y-41750001D01*
G75*
G02*
X151630001Y-41662501I0J87500D01*
G01*
G37*
%TD.AperFunction*%
%TO.P,IC2,40*%
%TA.AperFunction,SMDPad,CuDef*%
G36*
G01*
X150980001Y-41662501D02*
X150980001Y-41012501D01*
G75*
G02*
X151067501Y-40925001I87500J0D01*
G01*
X151242501Y-40925001D01*
G75*
G02*
X151330001Y-41012501I0J-87500D01*
G01*
X151330001Y-41662501D01*
G75*
G02*
X151242501Y-41750001I-87500J0D01*
G01*
X151067501Y-41750001D01*
G75*
G02*
X150980001Y-41662501I0J87500D01*
G01*
G37*
%TD.AperFunction*%
%TO.P,IC2,41*%
%TO.N,/OBDII Interpreter/OBDII Chip/SW_CAN_TX*%
%TA.AperFunction,SMDPad,CuDef*%
G36*
G01*
X150330001Y-41662501D02*
X150330001Y-41012501D01*
G75*
G02*
X150417501Y-40925001I87500J0D01*
G01*
X150592501Y-40925001D01*
G75*
G02*
X150680001Y-41012501I0J-87500D01*
G01*
X150680001Y-41662501D01*
G75*
G02*
X150592501Y-41750001I-87500J0D01*
G01*
X150417501Y-41750001D01*
G75*
G02*
X150330001Y-41662501I0J87500D01*
G01*
G37*
%TD.AperFunction*%
%TO.P,IC2,42*%
%TO.N,/OBDII Interpreter/OBDII Chip/SW_CAN_RX*%
%TA.AperFunction,SMDPad,CuDef*%
G36*
G01*
X149680001Y-41662501D02*
X149680001Y-41012501D01*
G75*
G02*
X149767501Y-40925001I87500J0D01*
G01*
X149942501Y-40925001D01*
G75*
G02*
X150030001Y-41012501I0J-87500D01*
G01*
X150030001Y-41662501D01*
G75*
G02*
X149942501Y-41750001I-87500J0D01*
G01*
X149767501Y-41750001D01*
G75*
G02*
X149680001Y-41662501I0J87500D01*
G01*
G37*
%TD.AperFunction*%
%TO.P,IC2,43*%
%TO.N,/OBDII Interpreter/ISO 9141/ISO 14230 Transceiver/~ISO_K_TX~*%
%TA.AperFunction,SMDPad,CuDef*%
G36*
G01*
X149030001Y-41662501D02*
X149030001Y-41012501D01*
G75*
G02*
X149117501Y-40925001I87500J0D01*
G01*
X149292501Y-40925001D01*
G75*
G02*
X149380001Y-41012501I0J-87500D01*
G01*
X149380001Y-41662501D01*
G75*
G02*
X149292501Y-41750001I-87500J0D01*
G01*
X149117501Y-41750001D01*
G75*
G02*
X149030001Y-41662501I0J87500D01*
G01*
G37*
%TD.AperFunction*%
%TO.P,IC2,44*%
%TO.N,/OBDII Interpreter/ISO 9141/ISO 14230 Transceiver/~ISO_L_TX~*%
%TA.AperFunction,SMDPad,CuDef*%
G36*
G01*
X148380001Y-41662501D02*
X148380001Y-41012501D01*
G75*
G02*
X148467501Y-40925001I87500J0D01*
G01*
X148642501Y-40925001D01*
G75*
G02*
X148730001Y-41012501I0J-87500D01*
G01*
X148730001Y-41662501D01*
G75*
G02*
X148642501Y-41750001I-87500J0D01*
G01*
X148467501Y-41750001D01*
G75*
G02*
X148380001Y-41662501I0J87500D01*
G01*
G37*
%TD.AperFunction*%
D24*
%TO.P,IC2,45*%
%TO.N,Pin4_GnD_Chassis*%
X151805001Y-45275001D03*
D25*
X148830001Y-42300001D03*
X150020001Y-42300001D03*
X151210001Y-42300001D03*
X152400001Y-42300001D03*
X153590001Y-42300001D03*
X154780001Y-42300001D03*
X148830001Y-43490001D03*
X150020001Y-43490001D03*
X151210001Y-43490001D03*
X152400001Y-43490001D03*
X153590001Y-43490001D03*
X154780001Y-43490001D03*
X148830001Y-44680001D03*
X150020001Y-44680001D03*
X151210001Y-44680001D03*
X152400001Y-44680001D03*
X153590001Y-44680001D03*
X154780001Y-44680001D03*
X148830001Y-45870001D03*
X150020001Y-45870001D03*
X151210001Y-45870001D03*
X152400001Y-45870001D03*
X153590001Y-45870001D03*
X154780001Y-45870001D03*
X148830001Y-47060001D03*
X150020001Y-47060001D03*
X151210001Y-47060001D03*
X152400001Y-47060001D03*
X153590001Y-47060001D03*
X154780001Y-47060001D03*
X148830001Y-48250001D03*
X150020001Y-48250001D03*
X151210001Y-48250001D03*
X152400001Y-48250001D03*
X153590001Y-48250001D03*
X154780001Y-48250001D03*
%TD*%
D26*
%TO.P,IC3,9*%
%TO.N,Pin4_GnD_Chassis*%
X151757600Y-89678801D03*
D27*
%TO.P,IC3,8*%
%TO.N,Net-(IC3-Pad8)*%
X153126800Y-88703802D03*
%TO.P,IC3,7*%
%TO.N,Pin6_ISO15765-4_CAN_BUS_High*%
X153126800Y-89353800D03*
%TO.P,IC3,6*%
%TO.N,Pin14_ISO15765-4_CAN_BUS_Low*%
X153126800Y-90003802D03*
%TO.P,IC3,5*%
%TO.N,Pin4_GnD_Chassis*%
X153126800Y-90653800D03*
%TO.P,IC3,4*%
%TO.N,/OBDII Interpreter/High Speed CAN Transceiver/HS_CAN_RX*%
X150388400Y-90653800D03*
%TO.P,IC3,3*%
%TO.N,Pin4_GnD_Chassis*%
X150388400Y-90003802D03*
%TO.P,IC3,2*%
X150388400Y-89353800D03*
%TO.P,IC3,1*%
%TO.N,/OBDII Interpreter/High Speed CAN Transceiver/HS_CAN_TX*%
X150388400Y-88703802D03*
%TD*%
%TO.P,IC5,1*%
%TO.N,/OBDII Interpreter/Medium Speed CAN Transceiver/MS_CAN_TX*%
X190148400Y-55563802D03*
%TO.P,IC5,2*%
%TO.N,Pin4_GnD_Chassis*%
X190148400Y-56213800D03*
%TO.P,IC5,3*%
X190148400Y-56863802D03*
%TO.P,IC5,4*%
%TO.N,/OBDII Interpreter/Medium Speed CAN Transceiver/MS_CAN_RX*%
X190148400Y-57513800D03*
%TO.P,IC5,5*%
%TO.N,Pin4_GnD_Chassis*%
X192886800Y-57513800D03*
%TO.P,IC5,6*%
%TO.N,Pin11_MS_CAN_Low*%
X192886800Y-56863802D03*
%TO.P,IC5,7*%
%TO.N,Pin3_MS_CAN_High*%
X192886800Y-56213800D03*
%TO.P,IC5,8*%
%TO.N,Net-(IC5-Pad8)*%
X192886800Y-55563802D03*
D26*
%TO.P,IC5,9*%
%TO.N,Pin4_GnD_Chassis*%
X191517600Y-56538801D03*
%TD*%
D28*
%TO.P,IC6,1*%
%TO.N,Pin4_GnD_Chassis*%
X127974152Y-92169001D03*
%TO.P,IC6,2*%
%TO.N,/OBDII Interpreter/OBDII Chip/SW_CAN_TX*%
X127974152Y-93439001D03*
%TO.P,IC6,3*%
%TO.N,/OBDII Interpreter/OBDII Chip/SW_CAN_MODE0*%
X127974152Y-94709001D03*
%TO.P,IC6,4*%
%TO.N,/OBDII Interpreter/OBDII Chip/SW_CAN_MODE1*%
X127974152Y-95979001D03*
%TO.P,IC6,5*%
%TO.N,/OBDII Interpreter/OBDII Chip/SW_CAN_RX*%
X127974152Y-97249001D03*
%TO.P,IC6,6*%
%TO.N,Net-(IC6-Pad6)*%
X127974152Y-98519001D03*
%TO.P,IC6,7*%
%TO.N,Pin4_GnD_Chassis*%
X127974152Y-99789001D03*
%TO.P,IC6,8*%
X133543848Y-99789001D03*
%TO.P,IC6,9*%
%TO.N,Net-(IC6-Pad9)*%
X133543848Y-98519001D03*
%TO.P,IC6,10*%
%TO.N,+12V*%
X133543848Y-97249001D03*
%TO.P,IC6,11*%
%TO.N,Net-(IC6-Pad11)*%
X133543848Y-95979001D03*
%TO.P,IC6,12*%
%TO.N,Pin1_SW_CAN*%
X133543848Y-94709001D03*
%TO.P,IC6,13*%
%TO.N,Net-(IC6-Pad13)*%
X133543848Y-93439001D03*
%TO.P,IC6,14*%
%TO.N,Pin4_GnD_Chassis*%
X133543848Y-92169001D03*
%TD*%
D29*
%TO.P,IC7,1*%
%TO.N,/OBDII Interpreter/Comparator Transceiver/~ISO_RX~*%
X83527901Y-68722701D03*
D30*
%TO.P,IC7,2*%
%TO.N,/OBDII Interpreter/Comparator Transceiver/PWM_RX*%
X83527901Y-71262701D03*
%TO.P,IC7,3*%
%TO.N,+12V_SW*%
X83527901Y-73802701D03*
%TO.P,IC7,4*%
%TO.N,Net-(IC7-Pad4)*%
X83527901Y-76342701D03*
%TO.P,IC7,5*%
%TO.N,Net-(IC7-Pad5)*%
X83527901Y-78882701D03*
%TO.P,IC7,6*%
%TO.N,Net-(IC7-Pad6)*%
X83527901Y-81422701D03*
%TO.P,IC7,7*%
%TO.N,Net-(IC7-Pad7)*%
X83527901Y-83962701D03*
%TO.P,IC7,8*%
%TO.N,Net-(IC7-Pad8)*%
X91147901Y-83962701D03*
%TO.P,IC7,9*%
%TO.N,Net-(IC7-Pad9)*%
X91147901Y-81422701D03*
%TO.P,IC7,10*%
%TO.N,Net-(IC7-Pad10)*%
X91147901Y-78882701D03*
%TO.P,IC7,11*%
%TO.N,Net-(IC7-Pad11)*%
X91147901Y-76342701D03*
%TO.P,IC7,12*%
%TO.N,Pin4_GnD_Chassis*%
X91147901Y-73802701D03*
%TO.P,IC7,13*%
%TO.N,Net-(IC7-Pad13)*%
X91147901Y-71262701D03*
%TO.P,IC7,14*%
%TO.N,/OBDII Interpreter/Comparator Transceiver/VPW_RX*%
X91147901Y-68722701D03*
%TD*%
D31*
%TO.P,IC8,1*%
%TO.N,Net-(C_J1850_1-Pad1)*%
X126710001Y-74140001D03*
%TO.P,IC8,2*%
%TO.N,+V_J1850*%
X126710001Y-75410001D03*
%TO.P,IC8,3*%
X126710001Y-76680001D03*
%TO.P,IC8,4*%
%TO.N,Net-(IC8-Pad4)*%
X126710001Y-77950001D03*
%TO.P,IC8,5*%
%TO.N,Net-(IC8-Pad5)*%
X131960001Y-77950001D03*
%TO.P,IC8,6*%
%TO.N,+V_J1850*%
X131960001Y-76680001D03*
%TO.P,IC8,7*%
X131960001Y-75410001D03*
%TO.P,IC8,8*%
%TO.N,Net-(IC8-Pad5)*%
X131960001Y-74140001D03*
%TD*%
D32*
%TO.P,J_CN_1,2*%
%TO.N,Pin14_ISO15765-4_CAN_BUS_Low*%
X123739201Y-37922201D03*
%TO.P,J_CN_1,1*%
%TO.N,Pin6_ISO15765-4_CAN_BUS_High*%
X118739201Y-37922201D03*
%TD*%
%TO.P,J_CN_2,1*%
%TO.N,Pin7_ISO9141_K-Line*%
X118739201Y-43012201D03*
%TO.P,J_CN_2,2*%
%TO.N,Pin15_ISO9141_L-Line*%
X123739201Y-43012201D03*
%TD*%
%TO.P,J_HST_1,2*%
%TO.N,/OBDII Interpreter/RESET_OBD_SW*%
X182429201Y-37922201D03*
%TO.P,J_HST_1,1*%
%TO.N,/OBDII Interpreter/~RESET_OBD_HW~*%
X177429201Y-37922201D03*
%TD*%
%TO.P,J_HST_2,2*%
%TO.N,/Host/HOST_TX*%
X182429201Y-43012201D03*
%TO.P,J_HST_2,1*%
%TO.N,/Host/HOST_RX*%
X177429201Y-43012201D03*
%TD*%
%TO.P,J_HST_3,1*%
%TO.N,/Host/I2C_SCL*%
X189969201Y-37922201D03*
%TO.P,J_HST_3,2*%
%TO.N,/Host/I2C_SDA*%
X194969201Y-37922201D03*
%TD*%
%TO.P,J_HST_4,1*%
%TO.N,/Host/MEMS_INT*%
X177429201Y-48102201D03*
%TO.P,J_HST_4,2*%
%TO.N,/Host/MEMS_CS*%
X182429201Y-48102201D03*
%TD*%
%TO.P,J_HST_5,2*%
%TO.N,Pin4_GnD_Chassis*%
X194969201Y-43012201D03*
%TO.P,J_HST_5,1*%
X189969201Y-43012201D03*
%TD*%
%TO.P,J_HST_6,1*%
%TO.N,Pin4_GnD_Chassis*%
X189969201Y-48102201D03*
%TO.P,J_HST_6,2*%
%TO.N,/Host/MEMS_CS*%
X194969201Y-48102201D03*
%TD*%
%TO.P,J_PS_1,1*%
%TO.N,+12V*%
X163079201Y-81262201D03*
%TO.P,J_PS_1,2*%
%TO.N,Pin16_Raw_+12V_Battery*%
X168079201Y-81262201D03*
%TD*%
%TO.P,J_PS_2,2*%
%TO.N,Pin4_GnD_Chassis*%
X168079201Y-76172201D03*
%TO.P,J_PS_2,1*%
X163079201Y-76172201D03*
%TD*%
%TO.P,J_PSW_1,1*%
%TO.N,+12V_SW*%
X98809201Y-93642201D03*
%TO.P,J_PSW_1,2*%
%TO.N,+12V*%
X103809201Y-93642201D03*
%TD*%
%TO.P,J_PSW_2,1*%
%TO.N,+5V_SW*%
X86269201Y-93642201D03*
%TO.P,J_PSW_2,2*%
%TO.N,Pin4_GnD_Chassis*%
X91269201Y-93642201D03*
%TD*%
%TO.P,J_PSW_3,2*%
%TO.N,Pin4_GnD_Chassis*%
X91269201Y-98732201D03*
%TO.P,J_PSW_3,1*%
%TO.N,+3.3V_SW*%
X86269201Y-98732201D03*
%TD*%
%TO.P,J_STN_1,2*%
%TO.N,/OBDII Interpreter/High Speed CAN Transceiver/HS_CAN_TX*%
X143359201Y-37922201D03*
%TO.P,J_STN_1,1*%
%TO.N,/OBDII Interpreter/High Speed CAN Transceiver/HS_CAN_RX*%
X138359201Y-37922201D03*
%TD*%
%TO.P,J_STN_3,1*%
%TO.N,/OBDII Interpreter/~PWR_CTRL~*%
X150899201Y-37922201D03*
%TO.P,J_STN_3,2*%
%TO.N,/Host/~RESET_OBD_HW~*%
X155899201Y-37922201D03*
%TD*%
%TO.P,J_STN_RST1,1*%
%TO.N,/OBDII Interpreter/~RESET_OBD_HW~*%
X138359201Y-43012201D03*
%TO.P,J_STN_RST1,2*%
%TO.N,Pin4_GnD_Chassis*%
X143359201Y-43012201D03*
%TD*%
%TO.P,J_SWCAN_1,2*%
%TO.N,Net-(J_SWCAN_1-Pad2)*%
X123159201Y-93642201D03*
%TO.P,J_SWCAN_1,1*%
%TO.N,Pin1_SW_CAN*%
X118159201Y-93642201D03*
%TD*%
D33*
%TO.P,L_VR1,1*%
%TO.N,Pin4_GnD_Chassis*%
X173536051Y-101084101D03*
%TO.P,L_VR1,2*%
%TO.N,Net-(C_VR1_BST1-Pad2)*%
X175529951Y-101084101D03*
%TD*%
%TO.P,L_VR2,2*%
%TO.N,Net-(C_VR2_BST1-Pad2)*%
X194839951Y-88584101D03*
%TO.P,L_VR2,1*%
%TO.N,Pin4_GnD_Chassis*%
X192846051Y-88584101D03*
%TD*%
%TO.P,LED_STN_1,2*%
%TO.N,Pin4_GnD_Chassis*%
%TA.AperFunction,SMDPad,CuDef*%
G36*
G01*
X156245001Y-51951251D02*
X156245001Y-51438751D01*
G75*
G02*
X156463751Y-51220001I218750J0D01*
G01*
X156901251Y-51220001D01*
G75*
G02*
X157120001Y-51438751I0J-218750D01*
G01*
X157120001Y-51951251D01*
G75*
G02*
X156901251Y-52170001I-218750J0D01*
G01*
X156463751Y-52170001D01*
G75*
G02*
X156245001Y-51951251I0J218750D01*
G01*
G37*
%TD.AperFunction*%
%TO.P,LED_STN_1,1*%
%TO.N,Net-(LED_STN_1-Pad1)*%
%TA.AperFunction,SMDPad,CuDef*%
G36*
G01*
X154670001Y-51951251D02*
X154670001Y-51438751D01*
G75*
G02*
X154888751Y-51220001I218750J0D01*
G01*
X155326251Y-51220001D01*
G75*
G02*
X155545001Y-51438751I0J-218750D01*
G01*
X155545001Y-51951251D01*
G75*
G02*
X155326251Y-52170001I-218750J0D01*
G01*
X154888751Y-52170001D01*
G75*
G02*
X154670001Y-51951251I0J218750D01*
G01*
G37*
%TD.AperFunction*%
%TD*%
%TO.P,LED_STN_2,1*%
%TO.N,Net-(LED_STN_2-Pad1)*%
%TA.AperFunction,SMDPad,CuDef*%
G36*
G01*
X157750001Y-48701251D02*
X157750001Y-48188751D01*
G75*
G02*
X157968751Y-47970001I218750J0D01*
G01*
X158406251Y-47970001D01*
G75*
G02*
X158625001Y-48188751I0J-218750D01*
G01*
X158625001Y-48701251D01*
G75*
G02*
X158406251Y-48920001I-218750J0D01*
G01*
X157968751Y-48920001D01*
G75*
G02*
X157750001Y-48701251I0J218750D01*
G01*
G37*
%TD.AperFunction*%
%TO.P,LED_STN_2,2*%
%TO.N,Pin4_GnD_Chassis*%
%TA.AperFunction,SMDPad,CuDef*%
G36*
G01*
X159325001Y-48701251D02*
X159325001Y-48188751D01*
G75*
G02*
X159543751Y-47970001I218750J0D01*
G01*
X159981251Y-47970001D01*
G75*
G02*
X160200001Y-48188751I0J-218750D01*
G01*
X160200001Y-48701251D01*
G75*
G02*
X159981251Y-48920001I-218750J0D01*
G01*
X159543751Y-48920001D01*
G75*
G02*
X159325001Y-48701251I0J218750D01*
G01*
G37*
%TD.AperFunction*%
%TD*%
%TO.P,LED_STN_3,1*%
%TO.N,Net-(LED_STN_3-Pad1)*%
%TA.AperFunction,SMDPad,CuDef*%
G36*
G01*
X162210001Y-45691251D02*
X162210001Y-45178751D01*
G75*
G02*
X162428751Y-44960001I218750J0D01*
G01*
X162866251Y-44960001D01*
G75*
G02*
X163085001Y-45178751I0J-218750D01*
G01*
X163085001Y-45691251D01*
G75*
G02*
X162866251Y-45910001I-218750J0D01*
G01*
X162428751Y-45910001D01*
G75*
G02*
X162210001Y-45691251I0J218750D01*
G01*
G37*
%TD.AperFunction*%
%TO.P,LED_STN_3,2*%
%TO.N,Pin4_GnD_Chassis*%
%TA.AperFunction,SMDPad,CuDef*%
G36*
G01*
X163785001Y-45691251D02*
X163785001Y-45178751D01*
G75*
G02*
X164003751Y-44960001I218750J0D01*
G01*
X164441251Y-44960001D01*
G75*
G02*
X164660001Y-45178751I0J-218750D01*
G01*
X164660001Y-45691251D01*
G75*
G02*
X164441251Y-45910001I-218750J0D01*
G01*
X164003751Y-45910001D01*
G75*
G02*
X163785001Y-45691251I0J218750D01*
G01*
G37*
%TD.AperFunction*%
%TD*%
D34*
%TO.P,MEMS1,2*%
%TO.N,Pin4_GnD_Chassis*%
X193880001Y-100115001D03*
%TO.P,MEMS1,3*%
X193880001Y-100615001D03*
%TO.P,MEMS1,1*%
%TO.N,/Host/MEMS_SA0*%
X193880001Y-99615001D03*
%TO.P,MEMS1,4*%
%TO.N,/Host/MEMS_INT*%
X193880001Y-101115001D03*
%TO.P,MEMS1,10*%
%TO.N,Net-(MEMS1-Pad10)*%
X196200001Y-100115001D03*
%TO.P,MEMS1,9*%
%TO.N,/Reader MEMs/MEMS_INT2*%
X196200001Y-100615001D03*
%TO.P,MEMS1,11*%
%TO.N,Net-(MEMS1-Pad11)*%
X196200001Y-99615001D03*
%TO.P,MEMS1,8*%
%TO.N,+3.3V_SW*%
X196200001Y-101115001D03*
D35*
%TO.P,MEMS1,14*%
%TO.N,/Host/I2C_SDA*%
X194540001Y-99455001D03*
%TO.P,MEMS1,13*%
%TO.N,/Host/I2C_SCL*%
X195040001Y-99455001D03*
%TO.P,MEMS1,12*%
%TO.N,/Host/MEMS_CS*%
X195540001Y-99455001D03*
%TO.P,MEMS1,5*%
%TO.N,+3.3V_SW*%
X194540001Y-101275001D03*
%TO.P,MEMS1,6*%
%TO.N,Pin4_GnD_Chassis*%
X195040001Y-101275001D03*
%TO.P,MEMS1,7*%
X195540001Y-101275001D03*
%TD*%
D36*
%TO.P,Q_HSCAN_1,1*%
%TO.N,/OBDII Interpreter/~PWR_CTRL~*%
X155655001Y-88675001D03*
%TO.P,Q_HSCAN_1,2*%
%TO.N,Pin4_GnD_Chassis*%
X155655001Y-90575001D03*
%TO.P,Q_HSCAN_1,3*%
%TO.N,Net-(IC3-Pad8)*%
X157955001Y-89625001D03*
%TD*%
%TO.P,Q_HSCAN_2,3*%
%TO.N,Pin4_GnD_Chassis*%
X152455001Y-94275001D03*
%TO.P,Q_HSCAN_2,2*%
%TO.N,Pin14_ISO15765-4_CAN_BUS_Low*%
X150155001Y-95225001D03*
%TO.P,Q_HSCAN_2,1*%
%TO.N,Pin6_ISO15765-4_CAN_BUS_High*%
X150155001Y-93325001D03*
%TD*%
D37*
%TO.P,Q_ISO_1,1*%
%TO.N,/OBDII Interpreter/PWR_CTRL*%
X184012001Y-76801600D03*
%TO.P,Q_ISO_1,2*%
%TO.N,Net-(Q_ISO_1-Pad2)*%
X185917001Y-76801600D03*
%TO.P,Q_ISO_1,3*%
%TO.N,+12V*%
X184964501Y-74795000D03*
%TD*%
D38*
%TO.P,Q_ISO_3,1*%
%TO.N,Net-(Q_ISO_3-Pad1)*%
X194035001Y-74635001D03*
%TO.P,Q_ISO_3,2*%
%TO.N,Pin4_GnD_Chassis*%
X194035001Y-76535001D03*
%TO.P,Q_ISO_3,3*%
%TO.N,Pin7_ISO9141_K-Line*%
X196035001Y-75585001D03*
%TD*%
D37*
%TO.P,Q_ISO_4,3*%
%TO.N,+12V*%
X184964501Y-79765000D03*
%TO.P,Q_ISO_4,2*%
%TO.N,Net-(Q_ISO_4-Pad2)*%
X185917001Y-81771600D03*
%TO.P,Q_ISO_4,1*%
%TO.N,/OBDII Interpreter/PWR_CTRL*%
X184012001Y-81771600D03*
%TD*%
D38*
%TO.P,Q_ISO_5,3*%
%TO.N,Pin15_ISO9141_L-Line*%
X190525001Y-80035001D03*
%TO.P,Q_ISO_5,2*%
%TO.N,Pin4_GnD_Chassis*%
X188525001Y-80985001D03*
%TO.P,Q_ISO_5,1*%
%TO.N,Net-(Q_ISO_5-Pad1)*%
X188525001Y-79085001D03*
%TD*%
D36*
%TO.P,Q_J1850_1,1*%
%TO.N,/OBDII Interpreter/OBDII Chip/~J1850_BUS+_VH~*%
X140935001Y-70545001D03*
%TO.P,Q_J1850_1,2*%
%TO.N,Pin4_GnD_Chassis*%
X140935001Y-72445001D03*
%TO.P,Q_J1850_1,3*%
%TO.N,Net-(Q_J1850_1-Pad3)*%
X143235001Y-71495001D03*
%TD*%
%TO.P,Q_J1850_2,1*%
%TO.N,/OBDII Interpreter/OBDII Chip/J1850_BUS-_TX*%
X134845001Y-76075001D03*
%TO.P,Q_J1850_2,2*%
%TO.N,Pin4_GnD_Chassis*%
X134845001Y-77975001D03*
%TO.P,Q_J1850_2,3*%
%TO.N,Pin10_SAE_J1850_BUS-*%
X137145001Y-77025001D03*
%TD*%
%TO.P,Q_J1850_3,3*%
%TO.N,Net-(Q_J1850_3-Pad3)*%
X149455001Y-71175001D03*
%TO.P,Q_J1850_3,2*%
%TO.N,Pin4_GnD_Chassis*%
X147155001Y-72125001D03*
%TO.P,Q_J1850_3,1*%
%TO.N,/OBDII Interpreter/OBDII Chip/J1850_BUS+_TX*%
X147155001Y-70225001D03*
%TD*%
D39*
%TO.P,Q_J1850_4,1*%
%TO.N,Net-(Q_J1850_3-Pad3)*%
X136438000Y-72838600D03*
%TO.P,Q_J1850_4,2*%
%TO.N,+V_J1850*%
X138338002Y-72838600D03*
%TO.P,Q_J1850_4,3*%
%TO.N,Net-(D_J1850_2-Pad2)*%
X137388001Y-70552600D03*
%TD*%
D36*
%TO.P,Q_MSCAN_1,1*%
%TO.N,/OBDII Interpreter/Medium Speed CAN Transceiver/~PWR_CTRL~*%
X195415001Y-55535001D03*
%TO.P,Q_MSCAN_1,2*%
%TO.N,Pin4_GnD_Chassis*%
X195415001Y-57435001D03*
%TO.P,Q_MSCAN_1,3*%
%TO.N,Net-(IC5-Pad8)*%
X197715001Y-56485001D03*
%TD*%
%TO.P,Q_MSCAN_2,3*%
%TO.N,Pin4_GnD_Chassis*%
X192215001Y-61135001D03*
%TO.P,Q_MSCAN_2,2*%
%TO.N,Pin11_MS_CAN_Low*%
X189915001Y-62085001D03*
%TO.P,Q_MSCAN_2,1*%
%TO.N,Pin3_MS_CAN_High*%
X189915001Y-60185001D03*
%TD*%
D38*
%TO.P,Q_OVP_1,1*%
%TO.N,Net-(Q_OVP_1-Pad1)*%
X172685001Y-62905001D03*
%TO.P,Q_OVP_1,2*%
%TO.N,Net-(D_OVP_1-Pad1)*%
X172685001Y-64805001D03*
%TO.P,Q_OVP_1,3*%
%TO.N,Net-(C_OVP_2-Pad1)*%
X174685001Y-63855001D03*
%TD*%
D40*
%TO.P,Q_OVP_2,1*%
%TO.N,Net-(D_OVP_1-Pad1)*%
X161631901Y-67704451D03*
%TO.P,Q_OVP_2,2*%
%TO.N,Net-(Q_OVP_2-Pad2)*%
X163131901Y-67704451D03*
%TO.P,Q_OVP_2,3*%
%TO.N,Net-(C_OVP_2-Pad1)*%
X164631901Y-67704451D03*
%TD*%
D36*
%TO.P,Q_PSW_1,1*%
%TO.N,/OBDII Interpreter/~PWR_CTRL~*%
X94965001Y-102285001D03*
%TO.P,Q_PSW_1,2*%
%TO.N,Pin4_GnD_Chassis*%
X94965001Y-104185001D03*
%TO.P,Q_PSW_1,3*%
%TO.N,/OBDII Interpreter/PWR_CTRL*%
X97265001Y-103235001D03*
%TD*%
D37*
%TO.P,Q_PSW_2,1*%
%TO.N,/OBDII Interpreter/PWR_CTRL*%
X90402001Y-104451600D03*
%TO.P,Q_PSW_2,2*%
%TO.N,+12V_SW*%
X92307001Y-104451600D03*
%TO.P,Q_PSW_2,3*%
%TO.N,+12V*%
X91354501Y-102445000D03*
%TD*%
%TO.P,Q_PSW_3,1*%
%TO.N,/OBDII Interpreter/PWR_CTRL*%
X97122001Y-99361600D03*
%TO.P,Q_PSW_3,2*%
%TO.N,+5V_SW*%
X99027001Y-99361600D03*
%TO.P,Q_PSW_3,3*%
%TO.N,Pin4_GnD_Chassis*%
X98074501Y-97355000D03*
%TD*%
%TO.P,Q_PSW_4,3*%
%TO.N,Pin4_GnD_Chassis*%
X85534501Y-102445000D03*
%TO.P,Q_PSW_4,2*%
%TO.N,+3.3V_SW*%
X86487001Y-104451600D03*
%TO.P,Q_PSW_4,1*%
%TO.N,/OBDII Interpreter/PWR_CTRL*%
X84582001Y-104451600D03*
%TD*%
D36*
%TO.P,Q_SWCAN_1,3*%
%TO.N,Net-(Q_SWCAN_1-Pad3)*%
X123275001Y-98145001D03*
%TO.P,Q_SWCAN_1,2*%
%TO.N,Pin4_GnD_Chassis*%
X120975001Y-99095001D03*
%TO.P,Q_SWCAN_1,1*%
%TO.N,/OBDII Interpreter/OBDII Chip/SW_CAN_LOAD*%
X120975001Y-97195001D03*
%TD*%
D41*
%TO.P,R_COMP5,2*%
%TO.N,/OBDII Interpreter/Comparator Transceiver/~ISO_RX~*%
X103390001Y-66910001D03*
%TO.P,R_COMP5,1*%
%TO.N,Pin4_GnD_Chassis*%
X101750001Y-66910001D03*
%TD*%
%TO.P,R_COMP_1,1*%
%TO.N,Pin2_SAE_J1850_BUS+*%
X93790001Y-69390001D03*
%TO.P,R_COMP_1,2*%
%TO.N,Net-(IC7-Pad5)*%
X95430001Y-69390001D03*
%TD*%
%TO.P,R_COMP_2,1*%
%TO.N,Pin7_ISO9141_K-Line*%
X97770001Y-69390001D03*
%TO.P,R_COMP_2,2*%
%TO.N,Net-(IC7-Pad6)*%
X99410001Y-69390001D03*
%TD*%
%TO.P,R_COMP_3,1*%
%TO.N,Net-(IC7-Pad4)*%
X101750001Y-69390001D03*
%TO.P,R_COMP_3,2*%
%TO.N,Pin10_SAE_J1850_BUS-*%
X103390001Y-69390001D03*
%TD*%
%TO.P,R_COMP_4,1*%
%TO.N,Pin4_GnD_Chassis*%
X93790001Y-71870001D03*
%TO.P,R_COMP_4,2*%
%TO.N,/OBDII Interpreter/Comparator Transceiver/PWM_RX*%
X95430001Y-71870001D03*
%TD*%
%TO.P,R_COMP_6,2*%
%TO.N,Net-(IC7-Pad7)*%
X95430001Y-66910001D03*
%TO.P,R_COMP_6,1*%
%TO.N,+12V_SW*%
X93790001Y-66910001D03*
%TD*%
%TO.P,R_COMP_7,1*%
%TO.N,Net-(IC7-Pad7)*%
X97770001Y-71870001D03*
%TO.P,R_COMP_7,2*%
%TO.N,Pin4_GnD_Chassis*%
X99410001Y-71870001D03*
%TD*%
%TO.P,R_COMP_8,2*%
%TO.N,Net-(IC7-Pad8)*%
X95430001Y-74350001D03*
%TO.P,R_COMP_8,1*%
%TO.N,+5V_SW*%
X93790001Y-74350001D03*
%TD*%
%TO.P,R_COMP_9,1*%
%TO.N,Net-(IC7-Pad8)*%
X93790001Y-76830001D03*
%TO.P,R_COMP_9,2*%
%TO.N,Pin4_GnD_Chassis*%
X95430001Y-76830001D03*
%TD*%
%TO.P,R_COMP_10,2*%
%TO.N,Pin2_SAE_J1850_BUS+*%
X99410001Y-66910001D03*
%TO.P,R_COMP_10,1*%
%TO.N,Net-(IC7-Pad9)*%
X97770001Y-66910001D03*
%TD*%
%TO.P,R_COMP_11,2*%
%TO.N,/OBDII Interpreter/Comparator Transceiver/VPW_RX*%
X107370001Y-66910001D03*
%TO.P,R_COMP_11,1*%
%TO.N,Pin4_GnD_Chassis*%
X105730001Y-66910001D03*
%TD*%
%TO.P,R_HSCAN_1,2*%
%TO.N,Net-(IC3-Pad8)*%
X156540001Y-95850001D03*
%TO.P,R_HSCAN_1,1*%
%TO.N,Pin4_GnD_Chassis*%
X154900001Y-95850001D03*
%TD*%
D42*
%TO.P,R_HSCAN_2,2*%
%TO.N,Net-(C_HSCAN_1-Pad1)*%
X147567001Y-88965001D03*
%TO.P,R_HSCAN_2,1*%
%TO.N,Pin14_ISO15765-4_CAN_BUS_Low*%
X144677001Y-88965001D03*
%TD*%
%TO.P,R_HSCAN_3,1*%
%TO.N,Pin6_ISO15765-4_CAN_BUS_High*%
X144677001Y-92195001D03*
%TO.P,R_HSCAN_3,2*%
%TO.N,Net-(C_HSCAN_2-Pad1)*%
X147567001Y-92195001D03*
%TD*%
D43*
%TO.P,R_ISO_1,2*%
%TO.N,/OBDII Interpreter/ISO 9141/ISO 14230 Transceiver/~ISO_K_TX~*%
X198990201Y-79090201D03*
%TO.P,R_ISO_1,1*%
%TO.N,Net-(Q_ISO_3-Pad1)*%
X197390201Y-79090201D03*
%TD*%
D44*
%TO.P,R_ISO_2,2*%
%TO.N,Net-(Q_ISO_1-Pad2)*%
X194923001Y-79325001D03*
%TO.P,R_ISO_2,1*%
%TO.N,Pin7_ISO9141_K-Line*%
X193043001Y-79325001D03*
%TD*%
%TO.P,R_ISO_3,1*%
%TO.N,Pin15_ISO9141_L-Line*%
X193043001Y-82255001D03*
%TO.P,R_ISO_3,2*%
%TO.N,Net-(Q_ISO_4-Pad2)*%
X194923001Y-82255001D03*
%TD*%
D43*
%TO.P,R_ISO_4,2*%
%TO.N,/OBDII Interpreter/ISO 9141/ISO 14230 Transceiver/~ISO_L_TX~*%
X198990201Y-81550201D03*
%TO.P,R_ISO_4,1*%
%TO.N,Net-(Q_ISO_5-Pad1)*%
X197390201Y-81550201D03*
%TD*%
D42*
%TO.P,R_J1850_1,1*%
%TO.N,Net-(Q_J1850_1-Pad3)*%
X131177001Y-80935001D03*
%TO.P,R_J1850_1,2*%
%TO.N,Pin4_GnD_Chassis*%
X134067001Y-80935001D03*
%TD*%
%TO.P,R_J1850_2,2*%
%TO.N,Net-(IC8-Pad4)*%
X128547001Y-80935001D03*
%TO.P,R_J1850_2,1*%
%TO.N,Net-(Q_J1850_1-Pad3)*%
X125657001Y-80935001D03*
%TD*%
%TO.P,R_J1850_3,2*%
%TO.N,Net-(IC8-Pad4)*%
X150087001Y-67285001D03*
%TO.P,R_J1850_3,1*%
%TO.N,+V_J1850*%
X147197001Y-67285001D03*
%TD*%
D41*
%TO.P,R_J1850_4,2*%
%TO.N,Pin4_GnD_Chassis*%
X154210001Y-66910001D03*
%TO.P,R_J1850_4,1*%
%TO.N,/OBDII Interpreter/OBDII Chip/J1850_BUS-_TX*%
X152570001Y-66910001D03*
%TD*%
%TO.P,R_J1850_5,2*%
%TO.N,Pin10_SAE_J1850_BUS-*%
X147320001Y-74690001D03*
%TO.P,R_J1850_5,1*%
%TO.N,Net-(D_J1850_1-Pad1)*%
X145680001Y-74690001D03*
%TD*%
%TO.P,R_J1850_6,1*%
%TO.N,/OBDII Interpreter/OBDII Chip/J1850_BUS+_TX*%
X140610001Y-78600001D03*
%TO.P,R_J1850_6,2*%
%TO.N,Pin4_GnD_Chassis*%
X142250001Y-78600001D03*
%TD*%
D45*
%TO.P,R_J1850_7,1*%
%TO.N,+V_J1850*%
X136678001Y-80586001D03*
%TO.P,R_J1850_7,2*%
%TO.N,Net-(Q_J1850_3-Pad3)*%
X138148001Y-80586001D03*
%TD*%
D41*
%TO.P,R_J1850_8,1*%
%TO.N,Pin2_SAE_J1850_BUS+*%
X151900001Y-70140001D03*
%TO.P,R_J1850_8,2*%
%TO.N,Net-(D_J1850_3-Pad2)*%
X153540001Y-70140001D03*
%TD*%
%TO.P,R_MSCAN_1,1*%
%TO.N,Pin4_GnD_Chassis*%
X194660001Y-62710001D03*
%TO.P,R_MSCAN_1,2*%
%TO.N,Net-(IC5-Pad8)*%
X196300001Y-62710001D03*
%TD*%
D42*
%TO.P,R_MSCAN_2,1*%
%TO.N,Pin11_MS_CAN_Low*%
X184437001Y-59055001D03*
%TO.P,R_MSCAN_2,2*%
%TO.N,Net-(C_MSCAN_1-Pad1)*%
X187327001Y-59055001D03*
%TD*%
%TO.P,R_MSCAN_3,2*%
%TO.N,Net-(C_MSCAN_2-Pad1)*%
X187327001Y-55825001D03*
%TO.P,R_MSCAN_3,1*%
%TO.N,Pin3_MS_CAN_High*%
X184437001Y-55825001D03*
%TD*%
%TO.P,R_OVP_1,1*%
%TO.N,Net-(D_OVP_1-Pad1)*%
X172777001Y-59965001D03*
%TO.P,R_OVP_1,2*%
%TO.N,Net-(D_OVP_2-Pad1)*%
X175667001Y-59965001D03*
%TD*%
D41*
%TO.P,R_OVP_3,1*%
%TO.N,Net-(Q_OVP_1-Pad1)*%
X171980001Y-67370001D03*
%TO.P,R_OVP_3,2*%
%TO.N,Net-(D_OVP_2-Pad1)*%
X173620001Y-67370001D03*
%TD*%
%TO.P,R_OVP_4,1*%
%TO.N,Pin4_GnD_Chassis*%
X177080001Y-62820001D03*
%TO.P,R_OVP_4,2*%
%TO.N,Net-(C_OVP_2-Pad1)*%
X178720001Y-62820001D03*
%TD*%
%TO.P,R_PSW_1,1*%
%TO.N,Pin4_GnD_Chassis*%
X101580001Y-99590001D03*
%TO.P,R_PSW_1,2*%
%TO.N,/OBDII Interpreter/~PWR_CTRL~*%
X103220001Y-99590001D03*
%TD*%
%TO.P,R_PSW_2,2*%
%TO.N,/OBDII Interpreter/PWR_CTRL*%
X103220001Y-97110001D03*
%TO.P,R_PSW_2,1*%
%TO.N,+12V*%
X101580001Y-97110001D03*
%TD*%
D43*
%TO.P,R_STN_1,1*%
%TO.N,Pin4_GnD_Chassis*%
X159080201Y-53450201D03*
%TO.P,R_STN_1,2*%
%TO.N,/Host/HOST_TX*%
X160680201Y-53450201D03*
%TD*%
D42*
%TO.P,R_STN_2,1*%
%TO.N,Net-(LED_STN_1-Pad1)*%
X158247001Y-42525001D03*
%TO.P,R_STN_2,2*%
%TO.N,/OBDII Interpreter/OBDII Chip/STATUS_LED*%
X161137001Y-42525001D03*
%TD*%
%TO.P,R_STN_3,1*%
%TO.N,Net-(LED_STN_2-Pad1)*%
X144747001Y-52015001D03*
%TO.P,R_STN_3,2*%
%TO.N,/OBDII Interpreter/~RESET_OBD_HW~*%
X147637001Y-52015001D03*
%TD*%
%TO.P,R_STN_4,1*%
%TO.N,Net-(LED_STN_3-Pad1)*%
X135457001Y-53695001D03*
%TO.P,R_STN_4,2*%
%TO.N,/OBDII Interpreter/~RESET_OBD_HW~*%
X138347001Y-53695001D03*
%TD*%
D41*
%TO.P,R_STN_5,1*%
%TO.N,/OBDII Interpreter/~RESET_OBD_HW~*%
X166610001Y-45160001D03*
%TO.P,R_STN_5,2*%
%TO.N,Pin4_GnD_Chassis*%
X168250001Y-45160001D03*
%TD*%
%TO.P,R_STN_6,2*%
%TO.N,/OBDII Interpreter/RESET_OBD_SW*%
X160710001Y-50980001D03*
%TO.P,R_STN_6,1*%
%TO.N,Pin4_GnD_Chassis*%
X159070001Y-50980001D03*
%TD*%
D46*
%TO.P,R_STN_7,1*%
%TO.N,Pin4_GnD_Chassis*%
X144485001Y-46315001D03*
%TO.P,R_STN_7,2*%
%TO.N,VDDA*%
X145355001Y-46315001D03*
%TD*%
D41*
%TO.P,R_STN_8,1*%
%TO.N,Pin4_GnD_Chassis*%
X162560001Y-47970001D03*
%TO.P,R_STN_8,2*%
%TO.N,/Host/~RESET_OBD_HW~*%
X164200001Y-47970001D03*
%TD*%
%TO.P,R_SWCAN_1,2*%
%TO.N,Net-(IC6-Pad11)*%
X120810001Y-101660001D03*
%TO.P,R_SWCAN_1,1*%
%TO.N,Pin1_SW_CAN*%
X119170001Y-101660001D03*
%TD*%
D43*
%TO.P,R_SWCAN_2,1*%
%TO.N,/OBDII Interpreter/OBDII Chip/SW_CAN_RX*%
X136470201Y-94490201D03*
%TO.P,R_SWCAN_2,2*%
%TO.N,Pin4_GnD_Chassis*%
X138070201Y-94490201D03*
%TD*%
D45*
%TO.P,R_SWCAN_3,2*%
%TO.N,Pin4_GnD_Chassis*%
X116708001Y-102456001D03*
%TO.P,R_SWCAN_3,1*%
%TO.N,/OBDII Interpreter/OBDII Chip/SW_CAN_TX*%
X115238001Y-102456001D03*
%TD*%
D41*
%TO.P,R_SWCAN_4,1*%
%TO.N,+5V_SW*%
X119170001Y-104140001D03*
%TO.P,R_SWCAN_4,2*%
%TO.N,/OBDII Interpreter/OBDII Chip/SW_CAN_MODE0*%
X120810001Y-104140001D03*
%TD*%
%TO.P,R_SWCAN_5,2*%
%TO.N,/OBDII Interpreter/OBDII Chip/SW_CAN_MODE1*%
X124790001Y-101660001D03*
%TO.P,R_SWCAN_5,1*%
%TO.N,+5V_SW*%
X123150001Y-101660001D03*
%TD*%
D47*
%TO.P,R_SWCAN_6,1*%
%TO.N,Net-(J_SWCAN_1-Pad2)*%
X125692001Y-103873001D03*
%TO.P,R_SWCAN_6,2*%
%TO.N,Net-(Q_SWCAN_1-Pad3)*%
X126254001Y-103873001D03*
%TD*%
D41*
%TO.P,R_SWCAN_7,2*%
%TO.N,Pin4_GnD_Chassis*%
X138100001Y-92020001D03*
%TO.P,R_SWCAN_7,1*%
%TO.N,/OBDII Interpreter/OBDII Chip/SW_CAN_LOAD*%
X136460001Y-92020001D03*
%TD*%
%TO.P,R_VR2_1,2*%
%TO.N,Net-(R_VR2_1-Pad2)*%
X197760001Y-91370001D03*
%TO.P,R_VR2_1,1*%
%TO.N,Pin4_GnD_Chassis*%
X196120001Y-91370001D03*
%TD*%
%TO.P,R_VR2_2,2*%
%TO.N,Pin4_GnD_Chassis*%
X197760001Y-93850001D03*
%TO.P,R_VR2_2,1*%
X196120001Y-93850001D03*
%TD*%
D42*
%TO.P,R_VS_1,2*%
%TO.N,/OBDII Interpreter/Analog_Voltage*%
X180837001Y-88965001D03*
%TO.P,R_VS_1,1*%
%TO.N,Pin16_Raw_+12V_Battery*%
X177947001Y-88965001D03*
%TD*%
%TO.P,R_VS_2,2*%
%TO.N,Pin4_GnD_Chassis*%
X180837001Y-92195001D03*
%TO.P,R_VS_2,1*%
%TO.N,/OBDII Interpreter/Analog_Voltage*%
X177947001Y-92195001D03*
%TD*%
D48*
%TO.P,SW_STN_1,1*%
%TO.N,Pin4_GnD_Chassis*%
X136583100Y-47403703D03*
%TO.P,SW_STN_1,3*%
%TO.N,Net-(SW_STN_1-Pad3)*%
X136583100Y-50603701D03*
%TO.P,SW_STN_1,4*%
%TO.N,Net-(SW_STN_1-Pad4)*%
X141833102Y-50603701D03*
%TO.P,SW_STN_1,2*%
%TO.N,/OBDII Interpreter/~RESET_OBD_HW~*%
X141833102Y-47403703D03*
%TD*%
D49*
%TO.P,VR1,1*%
%TO.N,/Power Supply/Voltage Regulator (5V)/Spread_Spectrum_Enable*%
X167202946Y-104068801D03*
%TO.P,VR1,2*%
%TO.N,+12V*%
X167202946Y-104568800D03*
%TO.P,VR1,3*%
%TO.N,Net-(C_VR1_BST1-Pad1)*%
X167202946Y-105068801D03*
%TO.P,VR1,4*%
%TO.N,Net-(C_VR1_in1-Pad1)*%
X167202946Y-105568801D03*
%TO.P,VR1,5*%
%TO.N,Net-(C_VR1_BST1-Pad2)*%
X167202946Y-106068802D03*
%TO.P,VR1,6*%
%TO.N,Pin4_GnD_Chassis*%
X167202946Y-106568801D03*
%TO.P,VR1,7*%
X170042946Y-106568801D03*
%TO.P,VR1,8*%
%TO.N,Net-(C_VR1_BIAS1-Pad1)*%
X170042946Y-106068802D03*
%TO.P,VR1,9*%
%TO.N,Pin4_GnD_Chassis*%
X170042946Y-105568801D03*
%TO.P,VR1,10*%
%TO.N,Net-(C_VR1_BIAS1-Pad1)*%
X170042946Y-105068801D03*
%TO.P,VR1,11*%
%TO.N,/Power Supply/Voltage Regulator (5V)/Sync_Signal*%
X170042946Y-104568800D03*
%TO.P,VR1,12*%
%TO.N,/Power Supply/Voltage Regulator (5V)/PGood*%
X170042946Y-104068801D03*
D50*
%TO.P,VR1,13*%
%TO.N,Pin4_GnD_Chassis*%
X168622946Y-105318801D03*
%TD*%
%TO.P,VR2,13*%
%TO.N,Pin4_GnD_Chassis*%
X187932946Y-92818801D03*
D49*
%TO.P,VR2,12*%
%TO.N,/Power Supply/Voltage Regulator (3.3V)/PGood*%
X189352946Y-91568801D03*
%TO.P,VR2,11*%
%TO.N,/Power Supply/Voltage Regulator (3.3V)/Sync_Signal*%
X189352946Y-92068800D03*
%TO.P,VR2,10*%
%TO.N,Net-(C_VR2_BIAS1-Pad1)*%
X189352946Y-92568801D03*
%TO.P,VR2,9*%
%TO.N,Pin4_GnD_Chassis*%
X189352946Y-93068801D03*
%TO.P,VR2,8*%
%TO.N,Net-(R_VR2_1-Pad2)*%
X189352946Y-93568802D03*
%TO.P,VR2,7*%
%TO.N,Pin4_GnD_Chassis*%
X189352946Y-94068801D03*
%TO.P,VR2,6*%
X186512946Y-94068801D03*
%TO.P,VR2,5*%
%TO.N,Net-(C_VR2_BST1-Pad2)*%
X186512946Y-93568802D03*
%TO.P,VR2,4*%
%TO.N,Net-(C_VR2_in1-Pad1)*%
X186512946Y-93068801D03*
%TO.P,VR2,3*%
%TO.N,Net-(C_VR2_BST1-Pad1)*%
X186512946Y-92568801D03*
%TO.P,VR2,2*%
%TO.N,Pin4_GnD_Chassis*%
X186512946Y-92068800D03*
%TO.P,VR2,1*%
%TO.N,/Power Supply/Voltage Regulator (3.3V)/Spread_Spectrum_Enable*%
X186512946Y-91568801D03*
%TD*%
D51*
%TO.P,X1,1*%
%TO.N,Net-(C_STN_3-Pad2)*%
X150727001Y-53025001D03*
%TO.P,X1,2*%
%TO.N,Pin4_GnD_Chassis*%
X152527001Y-53025001D03*
%TO.P,X1,3*%
%TO.N,Net-(C_STN_4-Pad1)*%
X152527001Y-51625001D03*
%TO.P,X1,4*%
%TO.N,Pin4_GnD_Chassis*%
X150727001Y-51625001D03*
%TD*%
M02*
