%TF.GenerationSoftware,KiCad,Pcbnew,(5.1.7)-1*%
%TF.CreationDate,2020-11-01T00:02:27-07:00*%
%TF.ProjectId,Reader,52656164-6572-42e6-9b69-6361645f7063,0.0.03*%
%TF.SameCoordinates,Original*%
%TF.FileFunction,Other,Fab,Bot*%
%FSLAX46Y46*%
G04 Gerber Fmt 4.6, Leading zero omitted, Abs format (unit mm)*
G04 Created by KiCad (PCBNEW (5.1.7)-1) date 2020-11-01 00:02:27*
%MOMM*%
%LPD*%
G01*
G04 APERTURE LIST*
%ADD10C,0.101600*%
%ADD11C,0.010000*%
%ADD12C,0.152400*%
%ADD13C,0.127000*%
%ADD14C,0.100000*%
%ADD15C,0.200000*%
%ADD16C,0.150000*%
%ADD17C,0.120000*%
%ADD18C,0.075000*%
G04 APERTURE END LIST*
D10*
%TO.C,C_HSCAN_3*%
X118046000Y-115773000D02*
X117334000Y-115773000D01*
X118046000Y-116624000D02*
X117334000Y-116624000D01*
D11*
G36*
X118528505Y-115724900D02*
G01*
X118028100Y-115724900D01*
X118028100Y-116675071D01*
X118528505Y-116675071D01*
X118528505Y-115724900D01*
G37*
X118528505Y-115724900D02*
X118028100Y-115724900D01*
X118028100Y-116675071D01*
X118528505Y-116675071D01*
X118528505Y-115724900D01*
G36*
X117359786Y-115724900D02*
G01*
X116859700Y-115724900D01*
X116859700Y-116674920D01*
X117359786Y-116674920D01*
X117359786Y-115724900D01*
G37*
X117359786Y-115724900D02*
X116859700Y-115724900D01*
X116859700Y-116674920D01*
X117359786Y-116674920D01*
X117359786Y-115724900D01*
D10*
%TO.C,C_HSCAN_2*%
X115671800Y-128676800D02*
X115671800Y-127964800D01*
X114820800Y-128676800D02*
X114820800Y-127964800D01*
D11*
G36*
X115719900Y-129159406D02*
G01*
X115719900Y-128658900D01*
X114769671Y-128658900D01*
X114769671Y-129159406D01*
X115719900Y-129159406D01*
G37*
X115719900Y-129159406D02*
X115719900Y-128658900D01*
X114769671Y-128658900D01*
X114769671Y-129159406D01*
X115719900Y-129159406D01*
G36*
X115719900Y-127989919D02*
G01*
X115719900Y-127490500D01*
X114768931Y-127490500D01*
X114768931Y-127989919D01*
X115719900Y-127989919D01*
G37*
X115719900Y-127989919D02*
X115719900Y-127490500D01*
X114768931Y-127490500D01*
X114768931Y-127989919D01*
X115719900Y-127989919D01*
%TO.C,C_HSCAN_1*%
G36*
X118513900Y-127989919D02*
G01*
X118513900Y-127490500D01*
X117562931Y-127490500D01*
X117562931Y-127989919D01*
X118513900Y-127989919D01*
G37*
X118513900Y-127989919D02*
X118513900Y-127490500D01*
X117562931Y-127490500D01*
X117562931Y-127989919D01*
X118513900Y-127989919D01*
G36*
X118513900Y-129159406D02*
G01*
X118513900Y-128658900D01*
X117563671Y-128658900D01*
X117563671Y-129159406D01*
X118513900Y-129159406D01*
G37*
X118513900Y-129159406D02*
X118513900Y-128658900D01*
X117563671Y-128658900D01*
X117563671Y-129159406D01*
X118513900Y-129159406D01*
D10*
X117614800Y-128676800D02*
X117614800Y-127964800D01*
X118465800Y-128676800D02*
X118465800Y-127964800D01*
D12*
%TO.C,U_HSCAN_1*%
X119608600Y-121691400D02*
X119608600Y-124688600D01*
X116611400Y-121691400D02*
X119608600Y-121691400D01*
X116611400Y-124688600D02*
X116611400Y-121691400D01*
X119608600Y-124688600D02*
X116611400Y-124688600D01*
X118414800Y-121691400D02*
G75*
G02*
X117805200Y-121691400I-304800J0D01*
G01*
D10*
%TO.C,C_HST_2*%
X121260000Y-48590000D02*
X120548000Y-48590000D01*
X121260000Y-49441000D02*
X120548000Y-49441000D01*
D11*
G36*
X121742505Y-48541900D02*
G01*
X121242100Y-48541900D01*
X121242100Y-49492071D01*
X121742505Y-49492071D01*
X121742505Y-48541900D01*
G37*
X121742505Y-48541900D02*
X121242100Y-48541900D01*
X121242100Y-49492071D01*
X121742505Y-49492071D01*
X121742505Y-48541900D01*
G36*
X120573786Y-48541900D02*
G01*
X120073700Y-48541900D01*
X120073700Y-49491920D01*
X120573786Y-49491920D01*
X120573786Y-48541900D01*
G37*
X120573786Y-48541900D02*
X120073700Y-48541900D01*
X120073700Y-49491920D01*
X120573786Y-49491920D01*
X120573786Y-48541900D01*
D13*
%TO.C,U_MM_1*%
X124154600Y-60558200D02*
X127254600Y-60558200D01*
X127254600Y-60558200D02*
X127254600Y-57958200D01*
X127254600Y-57958200D02*
X124154600Y-57958200D01*
X124154600Y-57958200D02*
X124154600Y-60558200D01*
D14*
X123654600Y-60258200D02*
G75*
G03*
X123654600Y-60258200I-50000J0D01*
G01*
D10*
%TO.C,C_J1850_1*%
X155462000Y-61417000D02*
X154750000Y-61417000D01*
X155462000Y-62268000D02*
X154750000Y-62268000D01*
D11*
G36*
X155944606Y-61368900D02*
G01*
X155444100Y-61368900D01*
X155444100Y-62319129D01*
X155944606Y-62319129D01*
X155944606Y-61368900D01*
G37*
X155944606Y-61368900D02*
X155444100Y-61368900D01*
X155444100Y-62319129D01*
X155944606Y-62319129D01*
X155944606Y-61368900D01*
G36*
X154775119Y-61368900D02*
G01*
X154275700Y-61368900D01*
X154275700Y-62319869D01*
X154775119Y-62319869D01*
X154775119Y-61368900D01*
G37*
X154775119Y-61368900D02*
X154275700Y-61368900D01*
X154275700Y-62319869D01*
X154775119Y-62319869D01*
X154775119Y-61368900D01*
%TO.C,C_MSCAN_1*%
G36*
X118020881Y-155420100D02*
G01*
X118520300Y-155420100D01*
X118520300Y-154469131D01*
X118020881Y-154469131D01*
X118020881Y-155420100D01*
G37*
X118020881Y-155420100D02*
X118520300Y-155420100D01*
X118520300Y-154469131D01*
X118020881Y-154469131D01*
X118020881Y-155420100D01*
G36*
X116851394Y-155420100D02*
G01*
X117351900Y-155420100D01*
X117351900Y-154469871D01*
X116851394Y-154469871D01*
X116851394Y-155420100D01*
G37*
X116851394Y-155420100D02*
X117351900Y-155420100D01*
X117351900Y-154469871D01*
X116851394Y-154469871D01*
X116851394Y-155420100D01*
D10*
X117334000Y-154521000D02*
X118046000Y-154521000D01*
X117334000Y-155372000D02*
X118046000Y-155372000D01*
D14*
%TO.C,D_J1850_2*%
X157210000Y-127730000D02*
X155210000Y-127730000D01*
X155210000Y-127730000D02*
X155210000Y-123730000D01*
X155210000Y-123730000D02*
X157210000Y-123730000D01*
X157210000Y-123730000D02*
X157210000Y-127730000D01*
X156210000Y-129540000D02*
X156210000Y-127730000D01*
X156210000Y-121920000D02*
X156210000Y-123730000D01*
X157210000Y-127130000D02*
X155210000Y-127130000D01*
X157210000Y-127030000D02*
X155210000Y-127030000D01*
X157210000Y-127230000D02*
X155210000Y-127230000D01*
D11*
%TO.C,C_VR1_3*%
G36*
X155729900Y-142570214D02*
G01*
X155729900Y-143070300D01*
X156679920Y-143070300D01*
X156679920Y-142570214D01*
X155729900Y-142570214D01*
G37*
X155729900Y-142570214D02*
X155729900Y-143070300D01*
X156679920Y-143070300D01*
X156679920Y-142570214D01*
X155729900Y-142570214D01*
G36*
X155729900Y-141401495D02*
G01*
X155729900Y-141901900D01*
X156680071Y-141901900D01*
X156680071Y-141401495D01*
X155729900Y-141401495D01*
G37*
X155729900Y-141401495D02*
X155729900Y-141901900D01*
X156680071Y-141901900D01*
X156680071Y-141401495D01*
X155729900Y-141401495D01*
D10*
X156629000Y-141884000D02*
X156629000Y-142596000D01*
X155778000Y-141884000D02*
X155778000Y-142596000D01*
D13*
%TO.C,C_SWCAN_1*%
X147675000Y-60015000D02*
X147675000Y-58955000D01*
X147675000Y-58955000D02*
X148235000Y-58955000D01*
X148235000Y-58955000D02*
X148235000Y-60015000D01*
X148235000Y-60015000D02*
X147675000Y-60015000D01*
D12*
%TO.C,C_PS_1*%
X146890003Y-148219998D02*
X146890003Y-146420002D01*
X150289997Y-148219998D02*
X146890003Y-148219998D01*
X150289997Y-146420002D02*
X150289997Y-148219998D01*
X146890003Y-146420002D02*
X150289997Y-146420002D01*
X150289997Y-148219998D02*
X149539998Y-148219998D01*
X150289997Y-146420002D02*
X150289997Y-148219998D01*
X149539998Y-146420002D02*
X150289997Y-146420002D01*
X149539998Y-148219998D02*
X149539998Y-146420002D01*
X146890003Y-146420002D02*
X147640002Y-146420002D01*
X146890003Y-148219998D02*
X146890003Y-146420002D01*
X147640002Y-148219998D02*
X146890003Y-148219998D01*
X147640002Y-146420002D02*
X147640002Y-148219998D01*
D14*
%TO.C,D_J1850_3*%
X159020000Y-123730000D02*
X161020000Y-123730000D01*
X161020000Y-123730000D02*
X161020000Y-127730000D01*
X161020000Y-127730000D02*
X159020000Y-127730000D01*
X159020000Y-127730000D02*
X159020000Y-123730000D01*
X160020000Y-121920000D02*
X160020000Y-123730000D01*
X160020000Y-129540000D02*
X160020000Y-127730000D01*
X159020000Y-124330000D02*
X161020000Y-124330000D01*
X159020000Y-124430000D02*
X161020000Y-124430000D01*
X159020000Y-124230000D02*
X161020000Y-124230000D01*
D12*
%TO.C,C_PS_2*%
X160390002Y-139400001D02*
X162189998Y-139400001D01*
X160390002Y-142799995D02*
X160390002Y-139400001D01*
X162189998Y-142799995D02*
X160390002Y-142799995D01*
X162189998Y-139400001D02*
X162189998Y-142799995D01*
X160390002Y-142799995D02*
X160390002Y-142049996D01*
X162189998Y-142799995D02*
X160390002Y-142799995D01*
X162189998Y-142049996D02*
X162189998Y-142799995D01*
X160390002Y-142049996D02*
X162189998Y-142049996D01*
X162189998Y-139400001D02*
X162189998Y-140150000D01*
X160390002Y-139400001D02*
X162189998Y-139400001D01*
X160390002Y-140150000D02*
X160390002Y-139400001D01*
X162189998Y-140150000D02*
X160390002Y-140150000D01*
%TO.C,C_MM_1*%
X131742500Y-62712600D02*
X133749100Y-62712600D01*
X131742500Y-59207400D02*
X133749100Y-59207400D01*
X131742500Y-62712600D02*
G75*
G02*
X131742500Y-59207400I0J1752600D01*
G01*
X133749100Y-59207400D02*
G75*
G02*
X133749100Y-62712600I0J-1752600D01*
G01*
D11*
%TO.C,C_MSCAN_3*%
G36*
X116509786Y-137949900D02*
G01*
X116009700Y-137949900D01*
X116009700Y-138899920D01*
X116509786Y-138899920D01*
X116509786Y-137949900D01*
G37*
X116509786Y-137949900D02*
X116009700Y-137949900D01*
X116009700Y-138899920D01*
X116509786Y-138899920D01*
X116509786Y-137949900D01*
G36*
X117678505Y-137949900D02*
G01*
X117178100Y-137949900D01*
X117178100Y-138900071D01*
X117678505Y-138900071D01*
X117678505Y-137949900D01*
G37*
X117678505Y-137949900D02*
X117178100Y-137949900D01*
X117178100Y-138900071D01*
X117678505Y-138900071D01*
X117678505Y-137949900D01*
D10*
X117196000Y-138849000D02*
X116484000Y-138849000D01*
X117196000Y-137998000D02*
X116484000Y-137998000D01*
D12*
%TO.C,C_PS_3*%
X134940002Y-132450002D02*
X134940002Y-134249998D01*
X134940002Y-134249998D02*
X134190003Y-134249998D01*
X134190003Y-134249998D02*
X134190003Y-132450002D01*
X134190003Y-132450002D02*
X134940002Y-132450002D01*
X136839998Y-134249998D02*
X136839998Y-132450002D01*
X136839998Y-132450002D02*
X137589997Y-132450002D01*
X137589997Y-132450002D02*
X137589997Y-134249998D01*
X137589997Y-134249998D02*
X136839998Y-134249998D01*
X134190003Y-132450002D02*
X137589997Y-132450002D01*
X137589997Y-132450002D02*
X137589997Y-134249998D01*
X137589997Y-134249998D02*
X134190003Y-134249998D01*
X134190003Y-134249998D02*
X134190003Y-132450002D01*
D11*
%TO.C,C_STN_5*%
G36*
X127330214Y-107160100D02*
G01*
X127830300Y-107160100D01*
X127830300Y-106210080D01*
X127330214Y-106210080D01*
X127330214Y-107160100D01*
G37*
X127330214Y-107160100D02*
X127830300Y-107160100D01*
X127830300Y-106210080D01*
X127330214Y-106210080D01*
X127330214Y-107160100D01*
G36*
X126161495Y-107160100D02*
G01*
X126661900Y-107160100D01*
X126661900Y-106209929D01*
X126161495Y-106209929D01*
X126161495Y-107160100D01*
G37*
X126161495Y-107160100D02*
X126661900Y-107160100D01*
X126661900Y-106209929D01*
X126161495Y-106209929D01*
X126161495Y-107160100D01*
D10*
X126644000Y-106261000D02*
X127356000Y-106261000D01*
X126644000Y-107112000D02*
X127356000Y-107112000D01*
%TO.C,C_MSCAN_2*%
X121488000Y-151194000D02*
X121488000Y-151906000D01*
X122339000Y-151194000D02*
X122339000Y-151906000D01*
D11*
G36*
X121439900Y-150711394D02*
G01*
X121439900Y-151211900D01*
X122390129Y-151211900D01*
X122390129Y-150711394D01*
X121439900Y-150711394D01*
G37*
X121439900Y-150711394D02*
X121439900Y-151211900D01*
X122390129Y-151211900D01*
X122390129Y-150711394D01*
X121439900Y-150711394D01*
G36*
X121439900Y-151880881D02*
G01*
X121439900Y-152380300D01*
X122390869Y-152380300D01*
X122390869Y-151880881D01*
X121439900Y-151880881D01*
G37*
X121439900Y-151880881D02*
X121439900Y-152380300D01*
X122390869Y-152380300D01*
X122390869Y-151880881D01*
X121439900Y-151880881D01*
D12*
%TO.C,C_SWCAN_2*%
X141284998Y-59954998D02*
X141284998Y-58155002D01*
X141284998Y-58155002D02*
X142034997Y-58155002D01*
X142034997Y-58155002D02*
X142034997Y-59954998D01*
X142034997Y-59954998D02*
X141284998Y-59954998D01*
X139385002Y-58155002D02*
X139385002Y-59954998D01*
X139385002Y-59954998D02*
X138635003Y-59954998D01*
X138635003Y-59954998D02*
X138635003Y-58155002D01*
X138635003Y-58155002D02*
X139385002Y-58155002D01*
X142034997Y-59954998D02*
X138635003Y-59954998D01*
X138635003Y-59954998D02*
X138635003Y-58155002D01*
X138635003Y-58155002D02*
X142034997Y-58155002D01*
X142034997Y-58155002D02*
X142034997Y-59954998D01*
D14*
%TO.C,D_J1850_1*%
X164842700Y-70207000D02*
X162842700Y-70207000D01*
X164842700Y-70007000D02*
X162842700Y-70007000D01*
X164842700Y-70107000D02*
X162842700Y-70107000D01*
X163842700Y-64897000D02*
X163842700Y-66707000D01*
X163842700Y-72517000D02*
X163842700Y-70707000D01*
X164842700Y-66707000D02*
X164842700Y-70707000D01*
X162842700Y-66707000D02*
X164842700Y-66707000D01*
X162842700Y-70707000D02*
X162842700Y-66707000D01*
X164842700Y-70707000D02*
X162842700Y-70707000D01*
D12*
%TO.C,C_VR1_1*%
X145150002Y-141790000D02*
X146949998Y-141790000D01*
X146949998Y-141790000D02*
X146949998Y-142539999D01*
X146949998Y-142539999D02*
X145150002Y-142539999D01*
X145150002Y-142539999D02*
X145150002Y-141790000D01*
X146949998Y-139890004D02*
X145150002Y-139890004D01*
X145150002Y-139890004D02*
X145150002Y-139140005D01*
X145150002Y-139140005D02*
X146949998Y-139140005D01*
X146949998Y-139140005D02*
X146949998Y-139890004D01*
X145150002Y-142539999D02*
X145150002Y-139140005D01*
X145150002Y-139140005D02*
X146949998Y-139140005D01*
X146949998Y-139140005D02*
X146949998Y-142539999D01*
X146949998Y-142539999D02*
X145150002Y-142539999D01*
%TO.C,C_VR2_1*%
X138059998Y-138989995D02*
X136260002Y-138989995D01*
X138059998Y-135590001D02*
X138059998Y-138989995D01*
X136260002Y-135590001D02*
X138059998Y-135590001D01*
X136260002Y-138989995D02*
X136260002Y-135590001D01*
X138059998Y-135590001D02*
X138059998Y-136340000D01*
X136260002Y-135590001D02*
X138059998Y-135590001D01*
X136260002Y-136340000D02*
X136260002Y-135590001D01*
X138059998Y-136340000D02*
X136260002Y-136340000D01*
X136260002Y-138989995D02*
X136260002Y-138239996D01*
X138059998Y-138989995D02*
X136260002Y-138989995D01*
X138059998Y-138239996D02*
X138059998Y-138989995D01*
X136260002Y-138239996D02*
X138059998Y-138239996D01*
D11*
%TO.C,C_VR1_2*%
G36*
X146530100Y-135559119D02*
G01*
X146530100Y-135059700D01*
X145579131Y-135059700D01*
X145579131Y-135559119D01*
X146530100Y-135559119D01*
G37*
X146530100Y-135559119D02*
X146530100Y-135059700D01*
X145579131Y-135059700D01*
X145579131Y-135559119D01*
X146530100Y-135559119D01*
G36*
X146530100Y-136728606D02*
G01*
X146530100Y-136228100D01*
X145579871Y-136228100D01*
X145579871Y-136728606D01*
X146530100Y-136728606D01*
G37*
X146530100Y-136728606D02*
X146530100Y-136228100D01*
X145579871Y-136228100D01*
X145579871Y-136728606D01*
X146530100Y-136728606D01*
D10*
X145631000Y-136246000D02*
X145631000Y-135534000D01*
X146482000Y-136246000D02*
X146482000Y-135534000D01*
D14*
%TO.C,Q_ISO_3*%
X122236000Y-72394000D02*
X123636000Y-72394000D01*
X123636000Y-75434000D02*
X123636000Y-72394000D01*
X122236000Y-74864000D02*
X122786000Y-75434000D01*
X122786000Y-75434000D02*
X123636000Y-75434000D01*
X122236000Y-74864000D02*
X122236000Y-72414000D01*
D13*
%TO.C,R_COMP_2*%
X159170000Y-118930000D02*
X159170000Y-119830000D01*
X160870000Y-118930000D02*
X160870000Y-119830000D01*
X160870000Y-119830000D02*
X159170000Y-119830000D01*
X160870000Y-118930000D02*
X159170000Y-118930000D01*
%TO.C,R_COMP_3*%
X151980000Y-103320000D02*
X151980000Y-102420000D01*
X150280000Y-103320000D02*
X150280000Y-102420000D01*
X150280000Y-102420000D02*
X151980000Y-102420000D01*
X150280000Y-103320000D02*
X151980000Y-103320000D01*
D12*
%TO.C,Q_ISO_1*%
X116268500Y-72961500D02*
X116268500Y-72453500D01*
X116268500Y-72453500D02*
X116878100Y-72453500D01*
X116878100Y-72453500D02*
X116878100Y-72961500D01*
X116878100Y-72961500D02*
X116268500Y-72961500D01*
X116268500Y-74866500D02*
X116268500Y-74358500D01*
X116268500Y-74358500D02*
X116878100Y-74358500D01*
X116878100Y-74358500D02*
X116878100Y-74866500D01*
X116878100Y-74866500D02*
X116268500Y-74866500D01*
X114871500Y-73406000D02*
X114871500Y-73914000D01*
X114871500Y-73914000D02*
X114261900Y-73914000D01*
X114261900Y-73914000D02*
X114261900Y-73406000D01*
X114261900Y-73406000D02*
X114871500Y-73406000D01*
X116268500Y-72148700D02*
X116268500Y-75171300D01*
X116268500Y-75171300D02*
X114871500Y-75171300D01*
X114871500Y-75171300D02*
X114871500Y-72148700D01*
X114871500Y-72148700D02*
X116268500Y-72148700D01*
X116141500Y-72402700D02*
G75*
G03*
X116141500Y-72402700I-127000J0D01*
G01*
D13*
%TO.C,R_COMP_4*%
X162203500Y-91244000D02*
X160503500Y-91244000D01*
X162203500Y-92144000D02*
X160503500Y-92144000D01*
X162203500Y-91244000D02*
X162203500Y-92144000D01*
X160503500Y-91244000D02*
X160503500Y-92144000D01*
%TO.C,R_J1850_5*%
X155995000Y-119830000D02*
X157695000Y-119830000D01*
X155995000Y-118930000D02*
X157695000Y-118930000D01*
X155995000Y-119830000D02*
X155995000Y-118930000D01*
X157695000Y-119830000D02*
X157695000Y-118930000D01*
%TO.C,R_J1850_2*%
X159514000Y-63030000D02*
X159514000Y-61230000D01*
X158494000Y-63030000D02*
X158494000Y-61230000D01*
X159514000Y-63030000D02*
X158494000Y-63030000D01*
X159514000Y-61230000D02*
X158494000Y-61230000D01*
%TO.C,R_J1850_6*%
X153310000Y-72331000D02*
X156570000Y-72331000D01*
X153310000Y-70671000D02*
X156570000Y-70671000D01*
X153310000Y-72331000D02*
X153310000Y-70671000D01*
X156570000Y-72331000D02*
X156570000Y-70671000D01*
%TO.C,R_STN_2*%
X118664300Y-109567300D02*
X120324300Y-109567300D01*
X118664300Y-106307300D02*
X120324300Y-106307300D01*
X120324300Y-106307300D02*
X120324300Y-109567300D01*
X118664300Y-106307300D02*
X118664300Y-109567300D01*
%TO.C,R_STN_7*%
X127550000Y-103860000D02*
X126450000Y-103860000D01*
X127550000Y-104420000D02*
X126450000Y-104420000D01*
X127550000Y-103860000D02*
X127550000Y-104420000D01*
X126450000Y-103860000D02*
X126450000Y-104420000D01*
%TO.C,R_STN_8*%
X141420000Y-101180000D02*
X141420000Y-99480000D01*
X140520000Y-101180000D02*
X140520000Y-99480000D01*
X141420000Y-101180000D02*
X140520000Y-101180000D01*
X141420000Y-99480000D02*
X140520000Y-99480000D01*
D12*
%TO.C,R_ISO_1*%
X119951400Y-68815000D02*
X119951400Y-69615000D01*
X118351400Y-68815000D02*
X119951400Y-68815000D01*
X118351400Y-69615000D02*
X118351400Y-68815000D01*
X119951400Y-69615000D02*
X118351400Y-69615000D01*
X118351400Y-68815000D02*
X118701400Y-68815000D01*
X118351400Y-69615000D02*
X118351400Y-68815000D01*
X118701400Y-69615000D02*
X118351400Y-69615000D01*
X118701400Y-68815000D02*
X118701400Y-69615000D01*
X119951400Y-69615000D02*
X119601400Y-69615000D01*
X119951400Y-68815000D02*
X119951400Y-69615000D01*
X119601400Y-68815000D02*
X119951400Y-68815000D01*
X119601400Y-69615000D02*
X119601400Y-68815000D01*
D13*
%TO.C,R_MSCAN_1*%
X123610000Y-126815000D02*
X125310000Y-126815000D01*
X123610000Y-125915000D02*
X125310000Y-125915000D01*
X123610000Y-126815000D02*
X123610000Y-125915000D01*
X125310000Y-126815000D02*
X125310000Y-125915000D01*
%TO.C,R_PSW_1*%
X144330000Y-122320000D02*
X145230000Y-122320000D01*
X144330000Y-120620000D02*
X145230000Y-120620000D01*
X145230000Y-120620000D02*
X145230000Y-122320000D01*
X144330000Y-120620000D02*
X144330000Y-122320000D01*
%TO.C,R_J1850_3*%
X151411000Y-70671000D02*
X148151000Y-70671000D01*
X151411000Y-72331000D02*
X148151000Y-72331000D01*
X151411000Y-70671000D02*
X151411000Y-72331000D01*
X148151000Y-70671000D02*
X148151000Y-72331000D01*
%TO.C,R_ISO_4*%
X120060000Y-65870000D02*
X120060000Y-63670000D01*
X118700000Y-65870000D02*
X118700000Y-63670000D01*
X120060000Y-65870000D02*
X118700000Y-65870000D01*
X120060000Y-63670000D02*
X118700000Y-63670000D01*
%TO.C,R_J1850_7*%
X151580000Y-133750000D02*
X151580000Y-132050000D01*
X150680000Y-133750000D02*
X150680000Y-132050000D01*
X151580000Y-133750000D02*
X150680000Y-133750000D01*
X151580000Y-132050000D02*
X150680000Y-132050000D01*
D15*
%TO.C,D_ESD_5*%
X152566000Y-155628000D02*
G75*
G03*
X152566000Y-155628000I-100000J0D01*
G01*
D13*
X151966000Y-157338000D02*
X151966000Y-158638000D01*
X154866000Y-157338000D02*
X151966000Y-157338000D01*
X154866000Y-158638000D02*
X154866000Y-157338000D01*
X151966000Y-158638000D02*
X154866000Y-158638000D01*
%TO.C,D_ESD_4*%
X130630000Y-165750000D02*
X133530000Y-165750000D01*
X133530000Y-165750000D02*
X133530000Y-164450000D01*
X133530000Y-164450000D02*
X130630000Y-164450000D01*
X130630000Y-164450000D02*
X130630000Y-165750000D01*
D15*
X131230000Y-162740000D02*
G75*
G03*
X131230000Y-162740000I-100000J0D01*
G01*
D13*
%TO.C,R_J1850_8*%
X147350000Y-126180000D02*
X147350000Y-125280000D01*
X145650000Y-126180000D02*
X145650000Y-125280000D01*
X145650000Y-125280000D02*
X147350000Y-125280000D01*
X145650000Y-126180000D02*
X147350000Y-126180000D01*
%TO.C,R_STN_1*%
X115616300Y-106307300D02*
X115616300Y-109567300D01*
X117276300Y-106307300D02*
X117276300Y-109567300D01*
X115616300Y-106307300D02*
X117276300Y-106307300D01*
X115616300Y-109567300D02*
X117276300Y-109567300D01*
%TO.C,R_ISO_3*%
X121445000Y-99740000D02*
X121445000Y-98380000D01*
X119245000Y-99740000D02*
X119245000Y-98380000D01*
X119245000Y-98380000D02*
X121445000Y-98380000D01*
X119245000Y-99740000D02*
X121445000Y-99740000D01*
%TO.C,R_STN_4*%
X121712300Y-106307300D02*
X121712300Y-109567300D01*
X123372300Y-106307300D02*
X123372300Y-109567300D01*
X121712300Y-106307300D02*
X123372300Y-106307300D01*
X121712300Y-109567300D02*
X123372300Y-109567300D01*
%TO.C,R_COMP1*%
X156630000Y-92271000D02*
X158330000Y-92271000D01*
X156630000Y-91371000D02*
X158330000Y-91371000D01*
X156630000Y-92271000D02*
X156630000Y-91371000D01*
X158330000Y-92271000D02*
X158330000Y-91371000D01*
%TO.C,C_STN_3*%
X143090000Y-92895000D02*
X141390000Y-92895000D01*
X143090000Y-93795000D02*
X141390000Y-93795000D01*
X143090000Y-92895000D02*
X143090000Y-93795000D01*
X141390000Y-92895000D02*
X141390000Y-93795000D01*
%TO.C,R_J1850_4*%
X143658000Y-67759000D02*
X146918000Y-67759000D01*
X143658000Y-66099000D02*
X146918000Y-66099000D01*
X143658000Y-67759000D02*
X143658000Y-66099000D01*
X146918000Y-67759000D02*
X146918000Y-66099000D01*
%TO.C,R_SWCAN_7*%
X136650300Y-76502800D02*
X134850300Y-76502800D01*
X136650300Y-77522800D02*
X134850300Y-77522800D01*
X136650300Y-76502800D02*
X136650300Y-77522800D01*
X134850300Y-76502800D02*
X134850300Y-77522800D01*
D12*
%TO.C,R_STN_3*%
X119895300Y-90595500D02*
X119895300Y-91395500D01*
X119895300Y-91395500D02*
X119545300Y-91395500D01*
X119545300Y-91395500D02*
X119545300Y-90595500D01*
X119545300Y-90595500D02*
X119895300Y-90595500D01*
X120795300Y-91395500D02*
X120795300Y-90595500D01*
X120795300Y-90595500D02*
X121145300Y-90595500D01*
X121145300Y-90595500D02*
X121145300Y-91395500D01*
X121145300Y-91395500D02*
X120795300Y-91395500D01*
X119545300Y-90595500D02*
X121145300Y-90595500D01*
X121145300Y-90595500D02*
X121145300Y-91395500D01*
X121145300Y-91395500D02*
X119545300Y-91395500D01*
X119545300Y-91395500D02*
X119545300Y-90595500D01*
%TO.C,R_SWCAN_6*%
X119830000Y-78505000D02*
X119830000Y-77705000D01*
X119830000Y-77705000D02*
X120180000Y-77705000D01*
X120180000Y-77705000D02*
X120180000Y-78505000D01*
X120180000Y-78505000D02*
X119830000Y-78505000D01*
X118930000Y-77705000D02*
X118930000Y-78505000D01*
X118930000Y-78505000D02*
X118580000Y-78505000D01*
X118580000Y-78505000D02*
X118580000Y-77705000D01*
X118580000Y-77705000D02*
X118930000Y-77705000D01*
X120180000Y-78505000D02*
X118580000Y-78505000D01*
X118580000Y-78505000D02*
X118580000Y-77705000D01*
X118580000Y-77705000D02*
X120180000Y-77705000D01*
X120180000Y-77705000D02*
X120180000Y-78505000D01*
D13*
%TO.C,R_SWCAN_3*%
X144565000Y-58235000D02*
X146265000Y-58235000D01*
X144565000Y-57335000D02*
X146265000Y-57335000D01*
X144565000Y-58235000D02*
X144565000Y-57335000D01*
X146265000Y-58235000D02*
X146265000Y-57335000D01*
D12*
%TO.C,R_ISO_2*%
X115976400Y-60560000D02*
X115976400Y-61360000D01*
X114376400Y-60560000D02*
X115976400Y-60560000D01*
X114376400Y-61360000D02*
X114376400Y-60560000D01*
X115976400Y-61360000D02*
X114376400Y-61360000D01*
X114376400Y-60560000D02*
X114726400Y-60560000D01*
X114376400Y-61360000D02*
X114376400Y-60560000D01*
X114726400Y-61360000D02*
X114376400Y-61360000D01*
X114726400Y-60560000D02*
X114726400Y-61360000D01*
X115976400Y-61360000D02*
X115626400Y-61360000D01*
X115976400Y-60560000D02*
X115976400Y-61360000D01*
X115626400Y-60560000D02*
X115976400Y-60560000D01*
X115626400Y-61360000D02*
X115626400Y-60560000D01*
%TO.C,D_ESD_3*%
X150810000Y-166001700D02*
X151318000Y-166001700D01*
X151318000Y-166001700D02*
X151318000Y-166649400D01*
X151318000Y-166649400D02*
X150810000Y-166649400D01*
X150810000Y-166649400D02*
X150810000Y-166001700D01*
X148910000Y-166001700D02*
X149418000Y-166001700D01*
X149418000Y-166001700D02*
X149418000Y-166649400D01*
X149418000Y-166649400D02*
X148910000Y-166649400D01*
X148910000Y-166649400D02*
X148910000Y-166001700D01*
X150368000Y-164706300D02*
X149860000Y-164706300D01*
X149860000Y-164706300D02*
X149860000Y-164058600D01*
X149860000Y-164058600D02*
X150368000Y-164058600D01*
X150368000Y-164058600D02*
X150368000Y-164706300D01*
X151561800Y-166001700D02*
X148666200Y-166001700D01*
X148666200Y-166001700D02*
X148666200Y-164706300D01*
X148666200Y-164706300D02*
X151561800Y-164706300D01*
X151561800Y-164706300D02*
X151561800Y-166001700D01*
X151140200Y-165747700D02*
G75*
G03*
X151140200Y-165747700I-76200J0D01*
G01*
%TO.C,Q_J1850_3*%
X161658300Y-62722800D02*
X161658300Y-63230800D01*
X161658300Y-63230800D02*
X161036000Y-63230800D01*
X161036000Y-63230800D02*
X161036000Y-62722800D01*
X161036000Y-62722800D02*
X161658300Y-62722800D01*
X161658300Y-60822800D02*
X161658300Y-61330800D01*
X161658300Y-61330800D02*
X161036000Y-61330800D01*
X161036000Y-61330800D02*
X161036000Y-60822800D01*
X161036000Y-60822800D02*
X161658300Y-60822800D01*
X163004500Y-62280800D02*
X163004500Y-61772800D01*
X163004500Y-61772800D02*
X163626800Y-61772800D01*
X163626800Y-61772800D02*
X163626800Y-62280800D01*
X163626800Y-62280800D02*
X163004500Y-62280800D01*
X161658300Y-63474600D02*
X161658300Y-60579000D01*
X161658300Y-60579000D02*
X163004500Y-60579000D01*
X163004500Y-60579000D02*
X163004500Y-63474600D01*
X163004500Y-63474600D02*
X161658300Y-63474600D01*
X161988500Y-62976800D02*
G75*
G03*
X161988500Y-62976800I-76200J0D01*
G01*
%TO.C,U_COMP_1*%
X156083000Y-110096300D02*
X156083000Y-110883700D01*
X156083000Y-110883700D02*
X155181300Y-110883700D01*
X155181300Y-110883700D02*
X155181300Y-110096300D01*
X155181300Y-110096300D02*
X156083000Y-110096300D01*
X156083000Y-107556300D02*
X156083000Y-108343700D01*
X156083000Y-108343700D02*
X155181300Y-108343700D01*
X155181300Y-108343700D02*
X155181300Y-107556300D01*
X155181300Y-107556300D02*
X156083000Y-107556300D01*
X156083000Y-105016300D02*
X156083000Y-105803700D01*
X156083000Y-105803700D02*
X155181300Y-105803700D01*
X155181300Y-105803700D02*
X155181300Y-105016300D01*
X155181300Y-105016300D02*
X156083000Y-105016300D01*
X156083000Y-102476300D02*
X156083000Y-103263700D01*
X156083000Y-103263700D02*
X155181300Y-103263700D01*
X155181300Y-103263700D02*
X155181300Y-102476300D01*
X155181300Y-102476300D02*
X156083000Y-102476300D01*
X156083000Y-99936300D02*
X156083000Y-100723700D01*
X156083000Y-100723700D02*
X155181300Y-100723700D01*
X155181300Y-100723700D02*
X155181300Y-99936300D01*
X155181300Y-99936300D02*
X156083000Y-99936300D01*
X156083000Y-97396300D02*
X156083000Y-98183700D01*
X156083000Y-98183700D02*
X155181300Y-98183700D01*
X155181300Y-98183700D02*
X155181300Y-97396300D01*
X155181300Y-97396300D02*
X156083000Y-97396300D01*
X156083000Y-94856300D02*
X156083000Y-95643700D01*
X156083000Y-95643700D02*
X155181300Y-95643700D01*
X155181300Y-95643700D02*
X155181300Y-94856300D01*
X155181300Y-94856300D02*
X156083000Y-94856300D01*
X162687000Y-95643700D02*
X162687000Y-94856300D01*
X162687000Y-94856300D02*
X163588700Y-94856300D01*
X163588700Y-94856300D02*
X163588700Y-95643700D01*
X163588700Y-95643700D02*
X162687000Y-95643700D01*
X162687000Y-98183700D02*
X162687000Y-97396300D01*
X162687000Y-97396300D02*
X163588700Y-97396300D01*
X163588700Y-97396300D02*
X163588700Y-98183700D01*
X163588700Y-98183700D02*
X162687000Y-98183700D01*
X162687000Y-100723700D02*
X162687000Y-99936300D01*
X162687000Y-99936300D02*
X163588700Y-99936300D01*
X163588700Y-99936300D02*
X163588700Y-100723700D01*
X163588700Y-100723700D02*
X162687000Y-100723700D01*
X162687000Y-103263700D02*
X162687000Y-102476300D01*
X162687000Y-102476300D02*
X163588700Y-102476300D01*
X163588700Y-102476300D02*
X163588700Y-103263700D01*
X163588700Y-103263700D02*
X162687000Y-103263700D01*
X162687000Y-105803700D02*
X162687000Y-105016300D01*
X162687000Y-105016300D02*
X163588700Y-105016300D01*
X163588700Y-105016300D02*
X163588700Y-105803700D01*
X163588700Y-105803700D02*
X162687000Y-105803700D01*
X162687000Y-108343700D02*
X162687000Y-107556300D01*
X162687000Y-107556300D02*
X163588700Y-107556300D01*
X163588700Y-107556300D02*
X163588700Y-108343700D01*
X163588700Y-108343700D02*
X162687000Y-108343700D01*
X162687000Y-110883700D02*
X162687000Y-110096300D01*
X162687000Y-110096300D02*
X163588700Y-110096300D01*
X163588700Y-110096300D02*
X163588700Y-110883700D01*
X163588700Y-110883700D02*
X162687000Y-110883700D01*
X156083000Y-93027500D02*
X162687000Y-93027500D01*
X162687000Y-93027500D02*
X162687000Y-112712500D01*
X162687000Y-112712500D02*
X156083000Y-112712500D01*
X156083000Y-112712500D02*
X156083000Y-93027500D01*
X159080200Y-112712500D02*
G75*
G02*
X159689800Y-112712500I304800J0D01*
G01*
D13*
%TO.C,R_VS_2*%
X127910000Y-122750000D02*
X131170000Y-122750000D01*
X127910000Y-121090000D02*
X131170000Y-121090000D01*
X127910000Y-122750000D02*
X127910000Y-121090000D01*
X131170000Y-122750000D02*
X131170000Y-121090000D01*
%TO.C,R_VR2_3*%
X132530000Y-133770000D02*
X131630000Y-133770000D01*
X132530000Y-135470000D02*
X131630000Y-135470000D01*
X131630000Y-135470000D02*
X131630000Y-133770000D01*
X132530000Y-135470000D02*
X132530000Y-133770000D01*
D15*
%TO.C,U_J1850_1*%
X157388000Y-64170000D02*
G75*
G03*
X157388000Y-64170000I-100000J0D01*
G01*
D13*
X154993000Y-64175000D02*
X150993000Y-64175000D01*
X154993000Y-69175000D02*
X150993000Y-69175000D01*
X154993000Y-64175000D02*
X154993000Y-69175000D01*
X150993000Y-64175000D02*
X150993000Y-69175000D01*
%TO.C,R_VR2_2*%
X143656000Y-142298000D02*
X141956000Y-142298000D01*
X143656000Y-143198000D02*
X141956000Y-143198000D01*
X143656000Y-142298000D02*
X143656000Y-143198000D01*
X141956000Y-142298000D02*
X141956000Y-143198000D01*
%TO.C,C_STN_2*%
X146500000Y-97370000D02*
X146500000Y-95670000D01*
X145600000Y-97370000D02*
X145600000Y-95670000D01*
X146500000Y-97370000D02*
X145600000Y-97370000D01*
X146500000Y-95670000D02*
X145600000Y-95670000D01*
D10*
%TO.C,C_STN_4*%
X153238000Y-106539000D02*
X153238000Y-107251000D01*
X154089000Y-106539000D02*
X154089000Y-107251000D01*
D11*
G36*
X153189900Y-106056495D02*
G01*
X153189900Y-106556900D01*
X154140071Y-106556900D01*
X154140071Y-106056495D01*
X153189900Y-106056495D01*
G37*
X153189900Y-106056495D02*
X153189900Y-106556900D01*
X154140071Y-106556900D01*
X154140071Y-106056495D01*
X153189900Y-106056495D01*
G36*
X153189900Y-107225214D02*
G01*
X153189900Y-107725300D01*
X154139920Y-107725300D01*
X154139920Y-107225214D01*
X153189900Y-107225214D01*
G37*
X153189900Y-107225214D02*
X153189900Y-107725300D01*
X154139920Y-107725300D01*
X154139920Y-107225214D01*
X153189900Y-107225214D01*
D14*
%TO.C,Q_ISO_4*%
X118086400Y-60640000D02*
X118086400Y-58190000D01*
X118636400Y-61210000D02*
X119486400Y-61210000D01*
X118086400Y-60640000D02*
X118636400Y-61210000D01*
X119486400Y-61210000D02*
X119486400Y-58170000D01*
X118086400Y-58170000D02*
X119486400Y-58170000D01*
D12*
%TO.C,Q_ISO_2*%
X116268500Y-64071500D02*
X116268500Y-63563500D01*
X116268500Y-63563500D02*
X116878100Y-63563500D01*
X116878100Y-63563500D02*
X116878100Y-64071500D01*
X116878100Y-64071500D02*
X116268500Y-64071500D01*
X116268500Y-65976500D02*
X116268500Y-65468500D01*
X116268500Y-65468500D02*
X116878100Y-65468500D01*
X116878100Y-65468500D02*
X116878100Y-65976500D01*
X116878100Y-65976500D02*
X116268500Y-65976500D01*
X114871500Y-64516000D02*
X114871500Y-65024000D01*
X114871500Y-65024000D02*
X114261900Y-65024000D01*
X114261900Y-65024000D02*
X114261900Y-64516000D01*
X114261900Y-64516000D02*
X114871500Y-64516000D01*
X116268500Y-63258700D02*
X116268500Y-66281300D01*
X116268500Y-66281300D02*
X114871500Y-66281300D01*
X114871500Y-66281300D02*
X114871500Y-63258700D01*
X114871500Y-63258700D02*
X116268500Y-63258700D01*
X116141500Y-63512700D02*
G75*
G03*
X116141500Y-63512700I-127000J0D01*
G01*
%TO.C,U_SWCAN_1*%
X137426700Y-70243700D02*
X137883900Y-70243700D01*
X137883900Y-70243700D02*
X137883900Y-71221600D01*
X137883900Y-71221600D02*
X137426700Y-71221600D01*
X137426700Y-71221600D02*
X137426700Y-70243700D01*
X136156700Y-70243700D02*
X136613900Y-70243700D01*
X136613900Y-70243700D02*
X136613900Y-71221600D01*
X136613900Y-71221600D02*
X136156700Y-71221600D01*
X136156700Y-71221600D02*
X136156700Y-70243700D01*
X134886700Y-70243700D02*
X135343900Y-70243700D01*
X135343900Y-70243700D02*
X135343900Y-71221600D01*
X135343900Y-71221600D02*
X134886700Y-71221600D01*
X134886700Y-71221600D02*
X134886700Y-70243700D01*
X133616700Y-70243700D02*
X134073900Y-70243700D01*
X134073900Y-70243700D02*
X134073900Y-71221600D01*
X134073900Y-71221600D02*
X133616700Y-71221600D01*
X133616700Y-71221600D02*
X133616700Y-70243700D01*
X132346700Y-70243700D02*
X132803900Y-70243700D01*
X132803900Y-70243700D02*
X132803900Y-71221600D01*
X132803900Y-71221600D02*
X132346700Y-71221600D01*
X132346700Y-71221600D02*
X132346700Y-70243700D01*
X131076700Y-70243700D02*
X131533900Y-70243700D01*
X131533900Y-70243700D02*
X131533900Y-71221600D01*
X131533900Y-71221600D02*
X131076700Y-71221600D01*
X131076700Y-71221600D02*
X131076700Y-70243700D01*
X129806700Y-70243700D02*
X130263900Y-70243700D01*
X130263900Y-70243700D02*
X130263900Y-71221600D01*
X130263900Y-71221600D02*
X129806700Y-71221600D01*
X129806700Y-71221600D02*
X129806700Y-70243700D01*
X130263900Y-66001900D02*
X129806700Y-66001900D01*
X129806700Y-66001900D02*
X129806700Y-65024000D01*
X129806700Y-65024000D02*
X130263900Y-65024000D01*
X130263900Y-65024000D02*
X130263900Y-66001900D01*
X131533900Y-66001900D02*
X131076700Y-66001900D01*
X131076700Y-66001900D02*
X131076700Y-65024000D01*
X131076700Y-65024000D02*
X131533900Y-65024000D01*
X131533900Y-65024000D02*
X131533900Y-66001900D01*
X132803900Y-66001900D02*
X132346700Y-66001900D01*
X132346700Y-66001900D02*
X132346700Y-65024000D01*
X132346700Y-65024000D02*
X132803900Y-65024000D01*
X132803900Y-65024000D02*
X132803900Y-66001900D01*
X134073900Y-66001900D02*
X133616700Y-66001900D01*
X133616700Y-66001900D02*
X133616700Y-65024000D01*
X133616700Y-65024000D02*
X134073900Y-65024000D01*
X134073900Y-65024000D02*
X134073900Y-66001900D01*
X135343900Y-66001900D02*
X134886700Y-66001900D01*
X134886700Y-66001900D02*
X134886700Y-65024000D01*
X134886700Y-65024000D02*
X135343900Y-65024000D01*
X135343900Y-65024000D02*
X135343900Y-66001900D01*
X136613900Y-66001900D02*
X136156700Y-66001900D01*
X136156700Y-66001900D02*
X136156700Y-65024000D01*
X136156700Y-65024000D02*
X136613900Y-65024000D01*
X136613900Y-65024000D02*
X136613900Y-66001900D01*
X137883900Y-66001900D02*
X137426700Y-66001900D01*
X137426700Y-66001900D02*
X137426700Y-65024000D01*
X137426700Y-65024000D02*
X137883900Y-65024000D01*
X137883900Y-65024000D02*
X137883900Y-66001900D01*
X129476500Y-70243700D02*
X129476500Y-66001900D01*
X129476500Y-66001900D02*
X138214100Y-66001900D01*
X138214100Y-66001900D02*
X138214100Y-70243700D01*
X138214100Y-70243700D02*
X129476500Y-70243700D01*
X138214100Y-68427600D02*
G75*
G02*
X138214100Y-67818000I0J304800D01*
G01*
D13*
%TO.C,R_SWCAN_4*%
X132790300Y-77462800D02*
X132790300Y-76562800D01*
X131090300Y-77462800D02*
X131090300Y-76562800D01*
X131090300Y-76562800D02*
X132790300Y-76562800D01*
X131090300Y-77462800D02*
X132790300Y-77462800D01*
%TO.C,R_SWCAN_5*%
X129196200Y-77386600D02*
X129196200Y-76486600D01*
X127496200Y-77386600D02*
X127496200Y-76486600D01*
X127496200Y-76486600D02*
X129196200Y-76486600D01*
X127496200Y-77386600D02*
X129196200Y-77386600D01*
%TD*%
%TO.C,U_HSCAN_1*%
D16*
X118110000Y-122642380D02*
X118110000Y-122880476D01*
X118348095Y-122785238D02*
X118110000Y-122880476D01*
X117871904Y-122785238D01*
X118252857Y-123070952D02*
X118110000Y-122880476D01*
X117967142Y-123070952D01*
%TO.C,D_J1850_2*%
D17*
X156571904Y-122701428D02*
X155771904Y-122701428D01*
X155771904Y-122891904D01*
X155810000Y-123006190D01*
X155886190Y-123082380D01*
X155962380Y-123120476D01*
X156114761Y-123158571D01*
X156229047Y-123158571D01*
X156381428Y-123120476D01*
X156457619Y-123082380D01*
X156533809Y-123006190D01*
X156571904Y-122891904D01*
X156571904Y-122701428D01*
X156648095Y-123310952D02*
X156648095Y-123920476D01*
X155771904Y-124339523D02*
X156343333Y-124339523D01*
X156457619Y-124301428D01*
X156533809Y-124225238D01*
X156571904Y-124110952D01*
X156571904Y-124034761D01*
X156571904Y-125139523D02*
X156571904Y-124682380D01*
X156571904Y-124910952D02*
X155771904Y-124910952D01*
X155886190Y-124834761D01*
X155962380Y-124758571D01*
X156000476Y-124682380D01*
X156114761Y-125596666D02*
X156076666Y-125520476D01*
X156038571Y-125482380D01*
X155962380Y-125444285D01*
X155924285Y-125444285D01*
X155848095Y-125482380D01*
X155810000Y-125520476D01*
X155771904Y-125596666D01*
X155771904Y-125749047D01*
X155810000Y-125825238D01*
X155848095Y-125863333D01*
X155924285Y-125901428D01*
X155962380Y-125901428D01*
X156038571Y-125863333D01*
X156076666Y-125825238D01*
X156114761Y-125749047D01*
X156114761Y-125596666D01*
X156152857Y-125520476D01*
X156190952Y-125482380D01*
X156267142Y-125444285D01*
X156419523Y-125444285D01*
X156495714Y-125482380D01*
X156533809Y-125520476D01*
X156571904Y-125596666D01*
X156571904Y-125749047D01*
X156533809Y-125825238D01*
X156495714Y-125863333D01*
X156419523Y-125901428D01*
X156267142Y-125901428D01*
X156190952Y-125863333D01*
X156152857Y-125825238D01*
X156114761Y-125749047D01*
X155771904Y-126625238D02*
X155771904Y-126244285D01*
X156152857Y-126206190D01*
X156114761Y-126244285D01*
X156076666Y-126320476D01*
X156076666Y-126510952D01*
X156114761Y-126587142D01*
X156152857Y-126625238D01*
X156229047Y-126663333D01*
X156419523Y-126663333D01*
X156495714Y-126625238D01*
X156533809Y-126587142D01*
X156571904Y-126510952D01*
X156571904Y-126320476D01*
X156533809Y-126244285D01*
X156495714Y-126206190D01*
X155771904Y-127158571D02*
X155771904Y-127234761D01*
X155810000Y-127310952D01*
X155848095Y-127349047D01*
X155924285Y-127387142D01*
X156076666Y-127425238D01*
X156267142Y-127425238D01*
X156419523Y-127387142D01*
X156495714Y-127349047D01*
X156533809Y-127310952D01*
X156571904Y-127234761D01*
X156571904Y-127158571D01*
X156533809Y-127082380D01*
X156495714Y-127044285D01*
X156419523Y-127006190D01*
X156267142Y-126968095D01*
X156076666Y-126968095D01*
X155924285Y-127006190D01*
X155848095Y-127044285D01*
X155810000Y-127082380D01*
X155771904Y-127158571D01*
X156648095Y-127577619D02*
X156648095Y-128187142D01*
X155848095Y-128339523D02*
X155810000Y-128377619D01*
X155771904Y-128453809D01*
X155771904Y-128644285D01*
X155810000Y-128720476D01*
X155848095Y-128758571D01*
X155924285Y-128796666D01*
X156000476Y-128796666D01*
X156114761Y-128758571D01*
X156571904Y-128301428D01*
X156571904Y-128796666D01*
D16*
X156662380Y-131310095D02*
X155662380Y-131310095D01*
X156662380Y-131881523D02*
X156090952Y-131452952D01*
X155662380Y-131881523D02*
X156233809Y-131310095D01*
%TO.C,C_PS_1*%
X148590000Y-146772380D02*
X148590000Y-147010476D01*
X148828095Y-146915238D02*
X148590000Y-147010476D01*
X148351904Y-146915238D01*
X148732857Y-147200952D02*
X148590000Y-147010476D01*
X148447142Y-147200952D01*
%TO.C,D_J1850_3*%
D17*
X160381904Y-123001428D02*
X159581904Y-123001428D01*
X159581904Y-123191904D01*
X159620000Y-123306190D01*
X159696190Y-123382380D01*
X159772380Y-123420476D01*
X159924761Y-123458571D01*
X160039047Y-123458571D01*
X160191428Y-123420476D01*
X160267619Y-123382380D01*
X160343809Y-123306190D01*
X160381904Y-123191904D01*
X160381904Y-123001428D01*
X160458095Y-123610952D02*
X160458095Y-124220476D01*
X159581904Y-124639523D02*
X160153333Y-124639523D01*
X160267619Y-124601428D01*
X160343809Y-124525238D01*
X160381904Y-124410952D01*
X160381904Y-124334761D01*
X160381904Y-125439523D02*
X160381904Y-124982380D01*
X160381904Y-125210952D02*
X159581904Y-125210952D01*
X159696190Y-125134761D01*
X159772380Y-125058571D01*
X159810476Y-124982380D01*
X159924761Y-125896666D02*
X159886666Y-125820476D01*
X159848571Y-125782380D01*
X159772380Y-125744285D01*
X159734285Y-125744285D01*
X159658095Y-125782380D01*
X159620000Y-125820476D01*
X159581904Y-125896666D01*
X159581904Y-126049047D01*
X159620000Y-126125238D01*
X159658095Y-126163333D01*
X159734285Y-126201428D01*
X159772380Y-126201428D01*
X159848571Y-126163333D01*
X159886666Y-126125238D01*
X159924761Y-126049047D01*
X159924761Y-125896666D01*
X159962857Y-125820476D01*
X160000952Y-125782380D01*
X160077142Y-125744285D01*
X160229523Y-125744285D01*
X160305714Y-125782380D01*
X160343809Y-125820476D01*
X160381904Y-125896666D01*
X160381904Y-126049047D01*
X160343809Y-126125238D01*
X160305714Y-126163333D01*
X160229523Y-126201428D01*
X160077142Y-126201428D01*
X160000952Y-126163333D01*
X159962857Y-126125238D01*
X159924761Y-126049047D01*
X159581904Y-126925238D02*
X159581904Y-126544285D01*
X159962857Y-126506190D01*
X159924761Y-126544285D01*
X159886666Y-126620476D01*
X159886666Y-126810952D01*
X159924761Y-126887142D01*
X159962857Y-126925238D01*
X160039047Y-126963333D01*
X160229523Y-126963333D01*
X160305714Y-126925238D01*
X160343809Y-126887142D01*
X160381904Y-126810952D01*
X160381904Y-126620476D01*
X160343809Y-126544285D01*
X160305714Y-126506190D01*
X159581904Y-127458571D02*
X159581904Y-127534761D01*
X159620000Y-127610952D01*
X159658095Y-127649047D01*
X159734285Y-127687142D01*
X159886666Y-127725238D01*
X160077142Y-127725238D01*
X160229523Y-127687142D01*
X160305714Y-127649047D01*
X160343809Y-127610952D01*
X160381904Y-127534761D01*
X160381904Y-127458571D01*
X160343809Y-127382380D01*
X160305714Y-127344285D01*
X160229523Y-127306190D01*
X160077142Y-127268095D01*
X159886666Y-127268095D01*
X159734285Y-127306190D01*
X159658095Y-127344285D01*
X159620000Y-127382380D01*
X159581904Y-127458571D01*
X160458095Y-127877619D02*
X160458095Y-128487142D01*
X159581904Y-128601428D02*
X159581904Y-129096666D01*
X159886666Y-128830000D01*
X159886666Y-128944285D01*
X159924761Y-129020476D01*
X159962857Y-129058571D01*
X160039047Y-129096666D01*
X160229523Y-129096666D01*
X160305714Y-129058571D01*
X160343809Y-129020476D01*
X160381904Y-128944285D01*
X160381904Y-128715714D01*
X160343809Y-128639523D01*
X160305714Y-128601428D01*
D16*
X162758380Y-120896095D02*
X161758380Y-120896095D01*
X162758380Y-121467523D02*
X162186952Y-121038952D01*
X161758380Y-121467523D02*
X162329809Y-120896095D01*
%TO.C,C_PS_2*%
X160742380Y-141099998D02*
X160980476Y-141099998D01*
X160885238Y-140861902D02*
X160980476Y-141099998D01*
X160885238Y-141338093D01*
X161170952Y-140957140D02*
X160980476Y-141099998D01*
X161170952Y-141242855D01*
%TO.C,C_MM_1*%
X132745800Y-60412380D02*
X132745800Y-60650476D01*
X132983895Y-60555238D02*
X132745800Y-60650476D01*
X132507704Y-60555238D01*
X132888657Y-60840952D02*
X132745800Y-60650476D01*
X132602942Y-60840952D01*
%TO.C,C_PS_3*%
X135890000Y-132802380D02*
X135890000Y-133040476D01*
X136128095Y-132945238D02*
X135890000Y-133040476D01*
X135651904Y-132945238D01*
X136032857Y-133230952D02*
X135890000Y-133040476D01*
X135747142Y-133230952D01*
%TO.C,C_SWCAN_2*%
X140335000Y-58507380D02*
X140335000Y-58745476D01*
X140573095Y-58650238D02*
X140335000Y-58745476D01*
X140096904Y-58650238D01*
X140477857Y-58935952D02*
X140335000Y-58745476D01*
X140192142Y-58935952D01*
%TO.C,D_J1850_1*%
X164028380Y-73906095D02*
X163028380Y-73906095D01*
X164028380Y-74477523D02*
X163456952Y-74048952D01*
X163028380Y-74477523D02*
X163599809Y-73906095D01*
D17*
X164204604Y-65378428D02*
X163404604Y-65378428D01*
X163404604Y-65568904D01*
X163442700Y-65683190D01*
X163518890Y-65759380D01*
X163595080Y-65797476D01*
X163747461Y-65835571D01*
X163861747Y-65835571D01*
X164014128Y-65797476D01*
X164090319Y-65759380D01*
X164166509Y-65683190D01*
X164204604Y-65568904D01*
X164204604Y-65378428D01*
X164280795Y-65987952D02*
X164280795Y-66597476D01*
X163404604Y-67016523D02*
X163976033Y-67016523D01*
X164090319Y-66978428D01*
X164166509Y-66902238D01*
X164204604Y-66787952D01*
X164204604Y-66711761D01*
X164204604Y-67816523D02*
X164204604Y-67359380D01*
X164204604Y-67587952D02*
X163404604Y-67587952D01*
X163518890Y-67511761D01*
X163595080Y-67435571D01*
X163633176Y-67359380D01*
X163747461Y-68273666D02*
X163709366Y-68197476D01*
X163671271Y-68159380D01*
X163595080Y-68121285D01*
X163556985Y-68121285D01*
X163480795Y-68159380D01*
X163442700Y-68197476D01*
X163404604Y-68273666D01*
X163404604Y-68426047D01*
X163442700Y-68502238D01*
X163480795Y-68540333D01*
X163556985Y-68578428D01*
X163595080Y-68578428D01*
X163671271Y-68540333D01*
X163709366Y-68502238D01*
X163747461Y-68426047D01*
X163747461Y-68273666D01*
X163785557Y-68197476D01*
X163823652Y-68159380D01*
X163899842Y-68121285D01*
X164052223Y-68121285D01*
X164128414Y-68159380D01*
X164166509Y-68197476D01*
X164204604Y-68273666D01*
X164204604Y-68426047D01*
X164166509Y-68502238D01*
X164128414Y-68540333D01*
X164052223Y-68578428D01*
X163899842Y-68578428D01*
X163823652Y-68540333D01*
X163785557Y-68502238D01*
X163747461Y-68426047D01*
X163404604Y-69302238D02*
X163404604Y-68921285D01*
X163785557Y-68883190D01*
X163747461Y-68921285D01*
X163709366Y-68997476D01*
X163709366Y-69187952D01*
X163747461Y-69264142D01*
X163785557Y-69302238D01*
X163861747Y-69340333D01*
X164052223Y-69340333D01*
X164128414Y-69302238D01*
X164166509Y-69264142D01*
X164204604Y-69187952D01*
X164204604Y-68997476D01*
X164166509Y-68921285D01*
X164128414Y-68883190D01*
X163404604Y-69835571D02*
X163404604Y-69911761D01*
X163442700Y-69987952D01*
X163480795Y-70026047D01*
X163556985Y-70064142D01*
X163709366Y-70102238D01*
X163899842Y-70102238D01*
X164052223Y-70064142D01*
X164128414Y-70026047D01*
X164166509Y-69987952D01*
X164204604Y-69911761D01*
X164204604Y-69835571D01*
X164166509Y-69759380D01*
X164128414Y-69721285D01*
X164052223Y-69683190D01*
X163899842Y-69645095D01*
X163709366Y-69645095D01*
X163556985Y-69683190D01*
X163480795Y-69721285D01*
X163442700Y-69759380D01*
X163404604Y-69835571D01*
X164280795Y-70254619D02*
X164280795Y-70864142D01*
X164204604Y-71473666D02*
X164204604Y-71016523D01*
X164204604Y-71245095D02*
X163404604Y-71245095D01*
X163518890Y-71168904D01*
X163595080Y-71092714D01*
X163633176Y-71016523D01*
%TO.C,C_VR1_1*%
D16*
X145502380Y-140840002D02*
X145740476Y-140840002D01*
X145645238Y-140601906D02*
X145740476Y-140840002D01*
X145645238Y-141078097D01*
X145930952Y-140697144D02*
X145740476Y-140840002D01*
X145930952Y-140982859D01*
%TO.C,C_VR2_1*%
X136612380Y-137289998D02*
X136850476Y-137289998D01*
X136755238Y-137051902D02*
X136850476Y-137289998D01*
X136755238Y-137528093D01*
X137040952Y-137147140D02*
X136850476Y-137289998D01*
X137040952Y-137432855D01*
%TO.C,Q_ISO_3*%
D18*
X123209809Y-72866380D02*
X123186000Y-72818761D01*
X123138380Y-72771142D01*
X123066952Y-72699714D01*
X123043142Y-72652095D01*
X123043142Y-72604476D01*
X123162190Y-72628285D02*
X123138380Y-72580666D01*
X123090761Y-72533047D01*
X122995523Y-72509238D01*
X122828857Y-72509238D01*
X122733619Y-72533047D01*
X122686000Y-72580666D01*
X122662190Y-72628285D01*
X122662190Y-72723523D01*
X122686000Y-72771142D01*
X122733619Y-72818761D01*
X122828857Y-72842571D01*
X122995523Y-72842571D01*
X123090761Y-72818761D01*
X123138380Y-72771142D01*
X123162190Y-72723523D01*
X123162190Y-72628285D01*
X123209809Y-72937809D02*
X123209809Y-73318761D01*
X123162190Y-73437809D02*
X122662190Y-73437809D01*
X123138380Y-73652095D02*
X123162190Y-73723523D01*
X123162190Y-73842571D01*
X123138380Y-73890190D01*
X123114571Y-73914000D01*
X123066952Y-73937809D01*
X123019333Y-73937809D01*
X122971714Y-73914000D01*
X122947904Y-73890190D01*
X122924095Y-73842571D01*
X122900285Y-73747333D01*
X122876476Y-73699714D01*
X122852666Y-73675904D01*
X122805047Y-73652095D01*
X122757428Y-73652095D01*
X122709809Y-73675904D01*
X122686000Y-73699714D01*
X122662190Y-73747333D01*
X122662190Y-73866380D01*
X122686000Y-73937809D01*
X122662190Y-74247333D02*
X122662190Y-74342571D01*
X122686000Y-74390190D01*
X122733619Y-74437809D01*
X122828857Y-74461619D01*
X122995523Y-74461619D01*
X123090761Y-74437809D01*
X123138380Y-74390190D01*
X123162190Y-74342571D01*
X123162190Y-74247333D01*
X123138380Y-74199714D01*
X123090761Y-74152095D01*
X122995523Y-74128285D01*
X122828857Y-74128285D01*
X122733619Y-74152095D01*
X122686000Y-74199714D01*
X122662190Y-74247333D01*
X123209809Y-74556857D02*
X123209809Y-74937809D01*
X122662190Y-75009238D02*
X122662190Y-75318761D01*
X122852666Y-75152095D01*
X122852666Y-75223523D01*
X122876476Y-75271142D01*
X122900285Y-75294952D01*
X122947904Y-75318761D01*
X123066952Y-75318761D01*
X123114571Y-75294952D01*
X123138380Y-75271142D01*
X123162190Y-75223523D01*
X123162190Y-75080666D01*
X123138380Y-75033047D01*
X123114571Y-75009238D01*
%TO.C,Q_ISO_1*%
D16*
X115022380Y-73660000D02*
X115260476Y-73660000D01*
X115165238Y-73421904D02*
X115260476Y-73660000D01*
X115165238Y-73898095D01*
X115450952Y-73517142D02*
X115260476Y-73660000D01*
X115450952Y-73802857D01*
%TO.C,R_ISO_1*%
X119151400Y-68667380D02*
X119151400Y-68905476D01*
X119389495Y-68810238D02*
X119151400Y-68905476D01*
X118913304Y-68810238D01*
X119294257Y-69095952D02*
X119151400Y-68905476D01*
X119008542Y-69095952D01*
%TO.C,R_STN_3*%
X120345300Y-90447880D02*
X120345300Y-90685976D01*
X120583395Y-90590738D02*
X120345300Y-90685976D01*
X120107204Y-90590738D01*
X120488157Y-90876452D02*
X120345300Y-90685976D01*
X120202442Y-90876452D01*
%TO.C,R_SWCAN_6*%
X119380000Y-77557380D02*
X119380000Y-77795476D01*
X119618095Y-77700238D02*
X119380000Y-77795476D01*
X119141904Y-77700238D01*
X119522857Y-77985952D02*
X119380000Y-77795476D01*
X119237142Y-77985952D01*
%TO.C,R_ISO_2*%
X115176400Y-60412380D02*
X115176400Y-60650476D01*
X115414495Y-60555238D02*
X115176400Y-60650476D01*
X114938304Y-60555238D01*
X115319257Y-60840952D02*
X115176400Y-60650476D01*
X115033542Y-60840952D01*
%TO.C,D_ESD_3*%
X150114000Y-164806380D02*
X150114000Y-165044476D01*
X150352095Y-164949238D02*
X150114000Y-165044476D01*
X149875904Y-164949238D01*
X150256857Y-165234952D02*
X150114000Y-165044476D01*
X149971142Y-165234952D01*
%TO.C,Q_J1850_3*%
X161783780Y-62026800D02*
X162021876Y-62026800D01*
X161926638Y-61788704D02*
X162021876Y-62026800D01*
X161926638Y-62264895D01*
X162212352Y-61883942D02*
X162021876Y-62026800D01*
X162212352Y-62169657D01*
%TO.C,U_COMP_1*%
X154940000Y-112482380D02*
X154940000Y-112720476D01*
X155178095Y-112625238D02*
X154940000Y-112720476D01*
X154701904Y-112625238D01*
X155082857Y-112910952D02*
X154940000Y-112720476D01*
X154797142Y-112910952D01*
X154940000Y-112228380D02*
X154940000Y-112466476D01*
X155178095Y-112371238D02*
X154940000Y-112466476D01*
X154701904Y-112371238D01*
X155082857Y-112656952D02*
X154940000Y-112466476D01*
X154797142Y-112656952D01*
%TO.C,Q_ISO_4*%
D18*
X118512590Y-60737619D02*
X118536400Y-60785238D01*
X118584019Y-60832857D01*
X118655447Y-60904285D01*
X118679257Y-60951904D01*
X118679257Y-60999523D01*
X118560209Y-60975714D02*
X118584019Y-61023333D01*
X118631638Y-61070952D01*
X118726876Y-61094761D01*
X118893542Y-61094761D01*
X118988780Y-61070952D01*
X119036400Y-61023333D01*
X119060209Y-60975714D01*
X119060209Y-60880476D01*
X119036400Y-60832857D01*
X118988780Y-60785238D01*
X118893542Y-60761428D01*
X118726876Y-60761428D01*
X118631638Y-60785238D01*
X118584019Y-60832857D01*
X118560209Y-60880476D01*
X118560209Y-60975714D01*
X118512590Y-60666190D02*
X118512590Y-60285238D01*
X118560209Y-60166190D02*
X119060209Y-60166190D01*
X118584019Y-59951904D02*
X118560209Y-59880476D01*
X118560209Y-59761428D01*
X118584019Y-59713809D01*
X118607828Y-59690000D01*
X118655447Y-59666190D01*
X118703066Y-59666190D01*
X118750685Y-59690000D01*
X118774495Y-59713809D01*
X118798304Y-59761428D01*
X118822114Y-59856666D01*
X118845923Y-59904285D01*
X118869733Y-59928095D01*
X118917352Y-59951904D01*
X118964971Y-59951904D01*
X119012590Y-59928095D01*
X119036400Y-59904285D01*
X119060209Y-59856666D01*
X119060209Y-59737619D01*
X119036400Y-59666190D01*
X119060209Y-59356666D02*
X119060209Y-59261428D01*
X119036400Y-59213809D01*
X118988780Y-59166190D01*
X118893542Y-59142380D01*
X118726876Y-59142380D01*
X118631638Y-59166190D01*
X118584019Y-59213809D01*
X118560209Y-59261428D01*
X118560209Y-59356666D01*
X118584019Y-59404285D01*
X118631638Y-59451904D01*
X118726876Y-59475714D01*
X118893542Y-59475714D01*
X118988780Y-59451904D01*
X119036400Y-59404285D01*
X119060209Y-59356666D01*
X118512590Y-59047142D02*
X118512590Y-58666190D01*
X118893542Y-58332857D02*
X118560209Y-58332857D01*
X119084019Y-58451904D02*
X118726876Y-58570952D01*
X118726876Y-58261428D01*
%TO.C,Q_ISO_2*%
D16*
X115022380Y-64770000D02*
X115260476Y-64770000D01*
X115165238Y-64531904D02*
X115260476Y-64770000D01*
X115165238Y-65008095D01*
X115450952Y-64627142D02*
X115260476Y-64770000D01*
X115450952Y-64912857D01*
%TO.C,U_SWCAN_1*%
X137590280Y-69862700D02*
X137828376Y-69862700D01*
X137733138Y-69624604D02*
X137828376Y-69862700D01*
X137733138Y-70100795D01*
X138018852Y-69719842D02*
X137828376Y-69862700D01*
X138018852Y-70005557D01*
X137590280Y-69862700D02*
X137828376Y-69862700D01*
X137733138Y-69624604D02*
X137828376Y-69862700D01*
X137733138Y-70100795D01*
X138018852Y-69719842D02*
X137828376Y-69862700D01*
X138018852Y-70005557D01*
%TD*%
M02*
