%TF.GenerationSoftware,KiCad,Pcbnew,(5.1.7)-1*%
%TF.CreationDate,2020-11-23T11:29:42-08:00*%
%TF.ProjectId,esp32_sensor,65737033-325f-4736-956e-736f722e6b69,v0.0.1*%
%TF.SameCoordinates,Original*%
%TF.FileFunction,Legend,Top*%
%TF.FilePolarity,Positive*%
%FSLAX46Y46*%
G04 Gerber Fmt 4.6, Leading zero omitted, Abs format (unit mm)*
G04 Created by KiCad (PCBNEW (5.1.7)-1) date 2020-11-23 11:29:42*
%MOMM*%
%LPD*%
G01*
G04 APERTURE LIST*
%ADD10C,0.100000*%
%ADD11C,0.150000*%
%ADD12C,0.300000*%
%ADD13C,0.400000*%
%ADD14C,0.130000*%
%ADD15C,0.200000*%
%ADD16C,0.203200*%
%ADD17C,0.120000*%
%ADD18C,0.152400*%
%ADD19C,0.127000*%
%ADD20C,0.015000*%
G04 APERTURE END LIST*
D10*
D11*
X159400000Y-171900000D02*
X159400000Y-203900000D01*
X267400000Y-203900000D01*
X267400000Y-171900000D01*
X159400000Y-171900000D01*
D10*
D11*
X10000000Y-10000000D02*
X10000000Y-205900000D01*
X269400000Y-205900000D01*
X269400000Y-10000000D01*
X10000000Y-10000000D01*
D10*
D11*
X12000000Y-12000000D02*
X12000000Y-203900000D01*
X267400000Y-203900000D01*
X267400000Y-12000000D01*
X12000000Y-12000000D01*
D10*
D11*
X60000000Y-12000000D02*
X60000000Y-10000000D01*
D10*
D11*
X110000000Y-12000000D02*
X110000000Y-10000000D01*
D10*
D11*
X160000000Y-12000000D02*
X160000000Y-10000000D01*
D10*
D11*
X210000000Y-12000000D02*
X210000000Y-10000000D01*
D10*
D11*
X260000000Y-12000000D02*
X260000000Y-10000000D01*
D10*
D11*
X36065476Y-11588095D02*
X35322619Y-11588095D01*
X35694047Y-11588095D02*
X35694047Y-10288095D01*
X35570238Y-10473809D01*
X35446428Y-10597619D01*
X35322619Y-10659523D01*
D10*
D11*
X85322619Y-10411904D02*
X85384523Y-10350000D01*
X85508333Y-10288095D01*
X85817857Y-10288095D01*
X85941666Y-10350000D01*
X86003571Y-10411904D01*
X86065476Y-10535714D01*
X86065476Y-10659523D01*
X86003571Y-10845238D01*
X85260714Y-11588095D01*
X86065476Y-11588095D01*
D10*
D11*
X135260714Y-10288095D02*
X136065476Y-10288095D01*
X135632142Y-10783333D01*
X135817857Y-10783333D01*
X135941666Y-10845238D01*
X136003571Y-10907142D01*
X136065476Y-11030952D01*
X136065476Y-11340476D01*
X136003571Y-11464285D01*
X135941666Y-11526190D01*
X135817857Y-11588095D01*
X135446428Y-11588095D01*
X135322619Y-11526190D01*
X135260714Y-11464285D01*
D10*
D11*
X185941666Y-10721428D02*
X185941666Y-11588095D01*
X185632142Y-10226190D02*
X185322619Y-11154761D01*
X186127380Y-11154761D01*
D10*
D11*
X236003571Y-10288095D02*
X235384523Y-10288095D01*
X235322619Y-10907142D01*
X235384523Y-10845238D01*
X235508333Y-10783333D01*
X235817857Y-10783333D01*
X235941666Y-10845238D01*
X236003571Y-10907142D01*
X236065476Y-11030952D01*
X236065476Y-11340476D01*
X236003571Y-11464285D01*
X235941666Y-11526190D01*
X235817857Y-11588095D01*
X235508333Y-11588095D01*
X235384523Y-11526190D01*
X235322619Y-11464285D01*
D10*
D11*
X60000000Y-203900000D02*
X60000000Y-205900000D01*
D10*
D11*
X110000000Y-203900000D02*
X110000000Y-205900000D01*
D10*
D11*
X160000000Y-203900000D02*
X160000000Y-205900000D01*
D10*
D11*
X210000000Y-203900000D02*
X210000000Y-205900000D01*
D10*
D11*
X260000000Y-203900000D02*
X260000000Y-205900000D01*
D10*
D11*
X36065476Y-205488095D02*
X35322619Y-205488095D01*
X35694047Y-205488095D02*
X35694047Y-204188095D01*
X35570238Y-204373809D01*
X35446428Y-204497619D01*
X35322619Y-204559523D01*
D10*
D11*
X85322619Y-204311904D02*
X85384523Y-204250000D01*
X85508333Y-204188095D01*
X85817857Y-204188095D01*
X85941666Y-204250000D01*
X86003571Y-204311904D01*
X86065476Y-204435714D01*
X86065476Y-204559523D01*
X86003571Y-204745238D01*
X85260714Y-205488095D01*
X86065476Y-205488095D01*
D10*
D11*
X135260714Y-204188095D02*
X136065476Y-204188095D01*
X135632142Y-204683333D01*
X135817857Y-204683333D01*
X135941666Y-204745238D01*
X136003571Y-204807142D01*
X136065476Y-204930952D01*
X136065476Y-205240476D01*
X136003571Y-205364285D01*
X135941666Y-205426190D01*
X135817857Y-205488095D01*
X135446428Y-205488095D01*
X135322619Y-205426190D01*
X135260714Y-205364285D01*
D10*
D11*
X185941666Y-204621428D02*
X185941666Y-205488095D01*
X185632142Y-204126190D02*
X185322619Y-205054761D01*
X186127380Y-205054761D01*
D10*
D11*
X236003571Y-204188095D02*
X235384523Y-204188095D01*
X235322619Y-204807142D01*
X235384523Y-204745238D01*
X235508333Y-204683333D01*
X235817857Y-204683333D01*
X235941666Y-204745238D01*
X236003571Y-204807142D01*
X236065476Y-204930952D01*
X236065476Y-205240476D01*
X236003571Y-205364285D01*
X235941666Y-205426190D01*
X235817857Y-205488095D01*
X235508333Y-205488095D01*
X235384523Y-205426190D01*
X235322619Y-205364285D01*
D10*
D11*
X10000000Y-60000000D02*
X12000000Y-60000000D01*
D10*
D11*
X10000000Y-110000000D02*
X12000000Y-110000000D01*
D10*
D11*
X10000000Y-160000000D02*
X12000000Y-160000000D01*
D10*
D11*
X10690476Y-35216666D02*
X11309523Y-35216666D01*
X10566666Y-35588095D02*
X11000000Y-34288095D01*
X11433333Y-35588095D01*
D10*
D11*
X11092857Y-84907142D02*
X11278571Y-84969047D01*
X11340476Y-85030952D01*
X11402380Y-85154761D01*
X11402380Y-85340476D01*
X11340476Y-85464285D01*
X11278571Y-85526190D01*
X11154761Y-85588095D01*
X10659523Y-85588095D01*
X10659523Y-84288095D01*
X11092857Y-84288095D01*
X11216666Y-84350000D01*
X11278571Y-84411904D01*
X11340476Y-84535714D01*
X11340476Y-84659523D01*
X11278571Y-84783333D01*
X11216666Y-84845238D01*
X11092857Y-84907142D01*
X10659523Y-84907142D01*
D10*
D11*
X11402380Y-135464285D02*
X11340476Y-135526190D01*
X11154761Y-135588095D01*
X11030952Y-135588095D01*
X10845238Y-135526190D01*
X10721428Y-135402380D01*
X10659523Y-135278571D01*
X10597619Y-135030952D01*
X10597619Y-134845238D01*
X10659523Y-134597619D01*
X10721428Y-134473809D01*
X10845238Y-134350000D01*
X11030952Y-134288095D01*
X11154761Y-134288095D01*
X11340476Y-134350000D01*
X11402380Y-134411904D01*
D10*
D11*
X10659523Y-185588095D02*
X10659523Y-184288095D01*
X10969047Y-184288095D01*
X11154761Y-184350000D01*
X11278571Y-184473809D01*
X11340476Y-184597619D01*
X11402380Y-184845238D01*
X11402380Y-185030952D01*
X11340476Y-185278571D01*
X11278571Y-185402380D01*
X11154761Y-185526190D01*
X10969047Y-185588095D01*
X10659523Y-185588095D01*
D10*
D11*
X269400000Y-60000000D02*
X267400000Y-60000000D01*
D10*
D11*
X269400000Y-110000000D02*
X267400000Y-110000000D01*
D10*
D11*
X269400000Y-160000000D02*
X267400000Y-160000000D01*
D10*
D11*
X268090476Y-35216666D02*
X268709523Y-35216666D01*
X267966666Y-35588095D02*
X268400000Y-34288095D01*
X268833333Y-35588095D01*
D10*
D11*
X268492857Y-84907142D02*
X268678571Y-84969047D01*
X268740476Y-85030952D01*
X268802380Y-85154761D01*
X268802380Y-85340476D01*
X268740476Y-85464285D01*
X268678571Y-85526190D01*
X268554761Y-85588095D01*
X268059523Y-85588095D01*
X268059523Y-84288095D01*
X268492857Y-84288095D01*
X268616666Y-84350000D01*
X268678571Y-84411904D01*
X268740476Y-84535714D01*
X268740476Y-84659523D01*
X268678571Y-84783333D01*
X268616666Y-84845238D01*
X268492857Y-84907142D01*
X268059523Y-84907142D01*
D10*
D11*
X268802380Y-135464285D02*
X268740476Y-135526190D01*
X268554761Y-135588095D01*
X268430952Y-135588095D01*
X268245238Y-135526190D01*
X268121428Y-135402380D01*
X268059523Y-135278571D01*
X267997619Y-135030952D01*
X267997619Y-134845238D01*
X268059523Y-134597619D01*
X268121428Y-134473809D01*
X268245238Y-134350000D01*
X268430952Y-134288095D01*
X268554761Y-134288095D01*
X268740476Y-134350000D01*
X268802380Y-134411904D01*
D10*
D11*
X268059523Y-185588095D02*
X268059523Y-184288095D01*
X268369047Y-184288095D01*
X268554761Y-184350000D01*
X268678571Y-184473809D01*
X268740476Y-184597619D01*
X268802380Y-184845238D01*
X268802380Y-185030952D01*
X268740476Y-185278571D01*
X268678571Y-185402380D01*
X268554761Y-185526190D01*
X268369047Y-185588095D01*
X268059523Y-185588095D01*
D10*
D11*
X182832142Y-199678571D02*
X182832142Y-198178571D01*
X183189285Y-198178571D01*
X183403571Y-198250000D01*
X183546428Y-198392857D01*
X183617857Y-198535714D01*
X183689285Y-198821428D01*
X183689285Y-199035714D01*
X183617857Y-199321428D01*
X183546428Y-199464285D01*
X183403571Y-199607142D01*
X183189285Y-199678571D01*
X182832142Y-199678571D01*
X184975000Y-199678571D02*
X184975000Y-198892857D01*
X184903571Y-198750000D01*
X184760714Y-198678571D01*
X184475000Y-198678571D01*
X184332142Y-198750000D01*
X184975000Y-199607142D02*
X184832142Y-199678571D01*
X184475000Y-199678571D01*
X184332142Y-199607142D01*
X184260714Y-199464285D01*
X184260714Y-199321428D01*
X184332142Y-199178571D01*
X184475000Y-199107142D01*
X184832142Y-199107142D01*
X184975000Y-199035714D01*
X185475000Y-198678571D02*
X186046428Y-198678571D01*
X185689285Y-198178571D02*
X185689285Y-199464285D01*
X185760714Y-199607142D01*
X185903571Y-199678571D01*
X186046428Y-199678571D01*
X187117857Y-199607142D02*
X186975000Y-199678571D01*
X186689285Y-199678571D01*
X186546428Y-199607142D01*
X186475000Y-199464285D01*
X186475000Y-198892857D01*
X186546428Y-198750000D01*
X186689285Y-198678571D01*
X186975000Y-198678571D01*
X187117857Y-198750000D01*
X187189285Y-198892857D01*
X187189285Y-199035714D01*
X186475000Y-199178571D01*
X187832142Y-199535714D02*
X187903571Y-199607142D01*
X187832142Y-199678571D01*
X187760714Y-199607142D01*
X187832142Y-199535714D01*
X187832142Y-199678571D01*
X187832142Y-198750000D02*
X187903571Y-198821428D01*
X187832142Y-198892857D01*
X187760714Y-198821428D01*
X187832142Y-198750000D01*
X187832142Y-198892857D01*
X189617857Y-198321428D02*
X189689285Y-198250000D01*
X189832142Y-198178571D01*
X190189285Y-198178571D01*
X190332142Y-198250000D01*
X190403571Y-198321428D01*
X190475000Y-198464285D01*
X190475000Y-198607142D01*
X190403571Y-198821428D01*
X189546428Y-199678571D01*
X190475000Y-199678571D01*
X191403571Y-198178571D02*
X191546428Y-198178571D01*
X191689285Y-198250000D01*
X191760714Y-198321428D01*
X191832142Y-198464285D01*
X191903571Y-198750000D01*
X191903571Y-199107142D01*
X191832142Y-199392857D01*
X191760714Y-199535714D01*
X191689285Y-199607142D01*
X191546428Y-199678571D01*
X191403571Y-199678571D01*
X191260714Y-199607142D01*
X191189285Y-199535714D01*
X191117857Y-199392857D01*
X191046428Y-199107142D01*
X191046428Y-198750000D01*
X191117857Y-198464285D01*
X191189285Y-198321428D01*
X191260714Y-198250000D01*
X191403571Y-198178571D01*
X192475000Y-198321428D02*
X192546428Y-198250000D01*
X192689285Y-198178571D01*
X193046428Y-198178571D01*
X193189285Y-198250000D01*
X193260714Y-198321428D01*
X193332142Y-198464285D01*
X193332142Y-198607142D01*
X193260714Y-198821428D01*
X192403571Y-199678571D01*
X193332142Y-199678571D01*
X194260714Y-198178571D02*
X194403571Y-198178571D01*
X194546428Y-198250000D01*
X194617857Y-198321428D01*
X194689285Y-198464285D01*
X194760714Y-198750000D01*
X194760714Y-199107142D01*
X194689285Y-199392857D01*
X194617857Y-199535714D01*
X194546428Y-199607142D01*
X194403571Y-199678571D01*
X194260714Y-199678571D01*
X194117857Y-199607142D01*
X194046428Y-199535714D01*
X193975000Y-199392857D01*
X193903571Y-199107142D01*
X193903571Y-198750000D01*
X193975000Y-198464285D01*
X194046428Y-198321428D01*
X194117857Y-198250000D01*
X194260714Y-198178571D01*
X195403571Y-199107142D02*
X196546428Y-199107142D01*
X198046428Y-199678571D02*
X197189285Y-199678571D01*
X197617857Y-199678571D02*
X197617857Y-198178571D01*
X197475000Y-198392857D01*
X197332142Y-198535714D01*
X197189285Y-198607142D01*
X199475000Y-199678571D02*
X198617857Y-199678571D01*
X199046428Y-199678571D02*
X199046428Y-198178571D01*
X198903571Y-198392857D01*
X198760714Y-198535714D01*
X198617857Y-198607142D01*
X200117857Y-199107142D02*
X201260714Y-199107142D01*
X201903571Y-198321428D02*
X201975000Y-198250000D01*
X202117857Y-198178571D01*
X202475000Y-198178571D01*
X202617857Y-198250000D01*
X202689285Y-198321428D01*
X202760714Y-198464285D01*
X202760714Y-198607142D01*
X202689285Y-198821428D01*
X201832142Y-199678571D01*
X202760714Y-199678571D01*
X203260714Y-198178571D02*
X204189285Y-198178571D01*
X203689285Y-198750000D01*
X203903571Y-198750000D01*
X204046428Y-198821428D01*
X204117857Y-198892857D01*
X204189285Y-199035714D01*
X204189285Y-199392857D01*
X204117857Y-199535714D01*
X204046428Y-199607142D01*
X203903571Y-199678571D01*
X203475000Y-199678571D01*
X203332142Y-199607142D01*
X203260714Y-199535714D01*
D10*
D11*
X159400000Y-200400000D02*
X267400000Y-200400000D01*
D10*
D11*
X160832142Y-202478571D02*
X160832142Y-200978571D01*
X161689285Y-202478571D02*
X161046428Y-201621428D01*
X161689285Y-200978571D02*
X160832142Y-201835714D01*
X162332142Y-202478571D02*
X162332142Y-201478571D01*
X162332142Y-200978571D02*
X162260714Y-201050000D01*
X162332142Y-201121428D01*
X162403571Y-201050000D01*
X162332142Y-200978571D01*
X162332142Y-201121428D01*
X163903571Y-202335714D02*
X163832142Y-202407142D01*
X163617857Y-202478571D01*
X163475000Y-202478571D01*
X163260714Y-202407142D01*
X163117857Y-202264285D01*
X163046428Y-202121428D01*
X162975000Y-201835714D01*
X162975000Y-201621428D01*
X163046428Y-201335714D01*
X163117857Y-201192857D01*
X163260714Y-201050000D01*
X163475000Y-200978571D01*
X163617857Y-200978571D01*
X163832142Y-201050000D01*
X163903571Y-201121428D01*
X165189285Y-202478571D02*
X165189285Y-201692857D01*
X165117857Y-201550000D01*
X164975000Y-201478571D01*
X164689285Y-201478571D01*
X164546428Y-201550000D01*
X165189285Y-202407142D02*
X165046428Y-202478571D01*
X164689285Y-202478571D01*
X164546428Y-202407142D01*
X164475000Y-202264285D01*
X164475000Y-202121428D01*
X164546428Y-201978571D01*
X164689285Y-201907142D01*
X165046428Y-201907142D01*
X165189285Y-201835714D01*
X166546428Y-202478571D02*
X166546428Y-200978571D01*
X166546428Y-202407142D02*
X166403571Y-202478571D01*
X166117857Y-202478571D01*
X165975000Y-202407142D01*
X165903571Y-202335714D01*
X165832142Y-202192857D01*
X165832142Y-201764285D01*
X165903571Y-201621428D01*
X165975000Y-201550000D01*
X166117857Y-201478571D01*
X166403571Y-201478571D01*
X166546428Y-201550000D01*
X168403571Y-201692857D02*
X168903571Y-201692857D01*
X169117857Y-202478571D02*
X168403571Y-202478571D01*
X168403571Y-200978571D01*
X169117857Y-200978571D01*
X169760714Y-202335714D02*
X169832142Y-202407142D01*
X169760714Y-202478571D01*
X169689285Y-202407142D01*
X169760714Y-202335714D01*
X169760714Y-202478571D01*
X170475000Y-202478571D02*
X170475000Y-200978571D01*
X170832142Y-200978571D01*
X171046428Y-201050000D01*
X171189285Y-201192857D01*
X171260714Y-201335714D01*
X171332142Y-201621428D01*
X171332142Y-201835714D01*
X171260714Y-202121428D01*
X171189285Y-202264285D01*
X171046428Y-202407142D01*
X170832142Y-202478571D01*
X170475000Y-202478571D01*
X171975000Y-202335714D02*
X172046428Y-202407142D01*
X171975000Y-202478571D01*
X171903571Y-202407142D01*
X171975000Y-202335714D01*
X171975000Y-202478571D01*
X172617857Y-202050000D02*
X173332142Y-202050000D01*
X172475000Y-202478571D02*
X172975000Y-200978571D01*
X173475000Y-202478571D01*
X173975000Y-202335714D02*
X174046428Y-202407142D01*
X173975000Y-202478571D01*
X173903571Y-202407142D01*
X173975000Y-202335714D01*
X173975000Y-202478571D01*
X176975000Y-202478571D02*
X176975000Y-200978571D01*
X177117857Y-201907142D02*
X177546428Y-202478571D01*
X177546428Y-201478571D02*
X176975000Y-202050000D01*
X178189285Y-202478571D02*
X178189285Y-201478571D01*
X178189285Y-200978571D02*
X178117857Y-201050000D01*
X178189285Y-201121428D01*
X178260714Y-201050000D01*
X178189285Y-200978571D01*
X178189285Y-201121428D01*
X179546428Y-202407142D02*
X179403571Y-202478571D01*
X179117857Y-202478571D01*
X178975000Y-202407142D01*
X178903571Y-202335714D01*
X178832142Y-202192857D01*
X178832142Y-201764285D01*
X178903571Y-201621428D01*
X178975000Y-201550000D01*
X179117857Y-201478571D01*
X179403571Y-201478571D01*
X179546428Y-201550000D01*
X180832142Y-202478571D02*
X180832142Y-201692857D01*
X180760714Y-201550000D01*
X180617857Y-201478571D01*
X180332142Y-201478571D01*
X180189285Y-201550000D01*
X180832142Y-202407142D02*
X180689285Y-202478571D01*
X180332142Y-202478571D01*
X180189285Y-202407142D01*
X180117857Y-202264285D01*
X180117857Y-202121428D01*
X180189285Y-201978571D01*
X180332142Y-201907142D01*
X180689285Y-201907142D01*
X180832142Y-201835714D01*
X182189285Y-202478571D02*
X182189285Y-200978571D01*
X182189285Y-202407142D02*
X182046428Y-202478571D01*
X181760714Y-202478571D01*
X181617857Y-202407142D01*
X181546428Y-202335714D01*
X181475000Y-202192857D01*
X181475000Y-201764285D01*
X181546428Y-201621428D01*
X181617857Y-201550000D01*
X181760714Y-201478571D01*
X182046428Y-201478571D01*
X182189285Y-201550000D01*
X184475000Y-203050000D02*
X184403571Y-202978571D01*
X184260714Y-202764285D01*
X184189285Y-202621428D01*
X184117857Y-202407142D01*
X184046428Y-202050000D01*
X184046428Y-201764285D01*
X184117857Y-201407142D01*
X184189285Y-201192857D01*
X184260714Y-201050000D01*
X184403571Y-200835714D01*
X184475000Y-200764285D01*
X185760714Y-200978571D02*
X185046428Y-200978571D01*
X184975000Y-201692857D01*
X185046428Y-201621428D01*
X185189285Y-201550000D01*
X185546428Y-201550000D01*
X185689285Y-201621428D01*
X185760714Y-201692857D01*
X185832142Y-201835714D01*
X185832142Y-202192857D01*
X185760714Y-202335714D01*
X185689285Y-202407142D01*
X185546428Y-202478571D01*
X185189285Y-202478571D01*
X185046428Y-202407142D01*
X184975000Y-202335714D01*
X186475000Y-202335714D02*
X186546428Y-202407142D01*
X186475000Y-202478571D01*
X186403571Y-202407142D01*
X186475000Y-202335714D01*
X186475000Y-202478571D01*
X187975000Y-202478571D02*
X187117857Y-202478571D01*
X187546428Y-202478571D02*
X187546428Y-200978571D01*
X187403571Y-201192857D01*
X187260714Y-201335714D01*
X187117857Y-201407142D01*
X188617857Y-202335714D02*
X188689285Y-202407142D01*
X188617857Y-202478571D01*
X188546428Y-202407142D01*
X188617857Y-202335714D01*
X188617857Y-202478571D01*
X189189285Y-200978571D02*
X190189285Y-200978571D01*
X189546428Y-202478571D01*
X190617857Y-203050000D02*
X190689285Y-202978571D01*
X190832142Y-202764285D01*
X190903571Y-202621428D01*
X190975000Y-202407142D01*
X191046428Y-202050000D01*
X191046428Y-201764285D01*
X190975000Y-201407142D01*
X190903571Y-201192857D01*
X190832142Y-201050000D01*
X190689285Y-200835714D01*
X190617857Y-200764285D01*
X191760714Y-201907142D02*
X192903571Y-201907142D01*
X194403571Y-202478571D02*
X193546428Y-202478571D01*
X193975000Y-202478571D02*
X193975000Y-200978571D01*
X193832142Y-201192857D01*
X193689285Y-201335714D01*
X193546428Y-201407142D01*
D10*
D11*
X159400000Y-197400000D02*
X267400000Y-197400000D01*
D10*
D12*
X246809285Y-199678571D02*
X246309285Y-198964285D01*
X245952142Y-199678571D02*
X245952142Y-198178571D01*
X246523571Y-198178571D01*
X246666428Y-198250000D01*
X246737857Y-198321428D01*
X246809285Y-198464285D01*
X246809285Y-198678571D01*
X246737857Y-198821428D01*
X246666428Y-198892857D01*
X246523571Y-198964285D01*
X245952142Y-198964285D01*
X248023571Y-199607142D02*
X247880714Y-199678571D01*
X247595000Y-199678571D01*
X247452142Y-199607142D01*
X247380714Y-199464285D01*
X247380714Y-198892857D01*
X247452142Y-198750000D01*
X247595000Y-198678571D01*
X247880714Y-198678571D01*
X248023571Y-198750000D01*
X248095000Y-198892857D01*
X248095000Y-199035714D01*
X247380714Y-199178571D01*
X248595000Y-198678571D02*
X248952142Y-199678571D01*
X249309285Y-198678571D01*
X249880714Y-199535714D02*
X249952142Y-199607142D01*
X249880714Y-199678571D01*
X249809285Y-199607142D01*
X249880714Y-199535714D01*
X249880714Y-199678571D01*
X249880714Y-198750000D02*
X249952142Y-198821428D01*
X249880714Y-198892857D01*
X249809285Y-198821428D01*
X249880714Y-198750000D01*
X249880714Y-198892857D01*
X251595000Y-198678571D02*
X251952142Y-199678571D01*
X252309285Y-198678571D01*
X253166428Y-198178571D02*
X253309285Y-198178571D01*
X253452142Y-198250000D01*
X253523571Y-198321428D01*
X253595000Y-198464285D01*
X253666428Y-198750000D01*
X253666428Y-199107142D01*
X253595000Y-199392857D01*
X253523571Y-199535714D01*
X253452142Y-199607142D01*
X253309285Y-199678571D01*
X253166428Y-199678571D01*
X253023571Y-199607142D01*
X252952142Y-199535714D01*
X252880714Y-199392857D01*
X252809285Y-199107142D01*
X252809285Y-198750000D01*
X252880714Y-198464285D01*
X252952142Y-198321428D01*
X253023571Y-198250000D01*
X253166428Y-198178571D01*
X254309285Y-199535714D02*
X254380714Y-199607142D01*
X254309285Y-199678571D01*
X254237857Y-199607142D01*
X254309285Y-199535714D01*
X254309285Y-199678571D01*
X255309285Y-198178571D02*
X255452142Y-198178571D01*
X255595000Y-198250000D01*
X255666428Y-198321428D01*
X255737857Y-198464285D01*
X255809285Y-198750000D01*
X255809285Y-199107142D01*
X255737857Y-199392857D01*
X255666428Y-199535714D01*
X255595000Y-199607142D01*
X255452142Y-199678571D01*
X255309285Y-199678571D01*
X255166428Y-199607142D01*
X255095000Y-199535714D01*
X255023571Y-199392857D01*
X254952142Y-199107142D01*
X254952142Y-198750000D01*
X255023571Y-198464285D01*
X255095000Y-198321428D01*
X255166428Y-198250000D01*
X255309285Y-198178571D01*
X256452142Y-199535714D02*
X256523571Y-199607142D01*
X256452142Y-199678571D01*
X256380714Y-199607142D01*
X256452142Y-199535714D01*
X256452142Y-199678571D01*
X257952142Y-199678571D02*
X257095000Y-199678571D01*
X257523571Y-199678571D02*
X257523571Y-198178571D01*
X257380714Y-198392857D01*
X257237857Y-198535714D01*
X257095000Y-198607142D01*
D10*
D11*
X160760714Y-199607142D02*
X160975000Y-199678571D01*
X161332142Y-199678571D01*
X161475000Y-199607142D01*
X161546428Y-199535714D01*
X161617857Y-199392857D01*
X161617857Y-199250000D01*
X161546428Y-199107142D01*
X161475000Y-199035714D01*
X161332142Y-198964285D01*
X161046428Y-198892857D01*
X160903571Y-198821428D01*
X160832142Y-198750000D01*
X160760714Y-198607142D01*
X160760714Y-198464285D01*
X160832142Y-198321428D01*
X160903571Y-198250000D01*
X161046428Y-198178571D01*
X161403571Y-198178571D01*
X161617857Y-198250000D01*
X162260714Y-199678571D02*
X162260714Y-198678571D01*
X162260714Y-198178571D02*
X162189285Y-198250000D01*
X162260714Y-198321428D01*
X162332142Y-198250000D01*
X162260714Y-198178571D01*
X162260714Y-198321428D01*
X162832142Y-198678571D02*
X163617857Y-198678571D01*
X162832142Y-199678571D01*
X163617857Y-199678571D01*
X164760714Y-199607142D02*
X164617857Y-199678571D01*
X164332142Y-199678571D01*
X164189285Y-199607142D01*
X164117857Y-199464285D01*
X164117857Y-198892857D01*
X164189285Y-198750000D01*
X164332142Y-198678571D01*
X164617857Y-198678571D01*
X164760714Y-198750000D01*
X164832142Y-198892857D01*
X164832142Y-199035714D01*
X164117857Y-199178571D01*
X165475000Y-199535714D02*
X165546428Y-199607142D01*
X165475000Y-199678571D01*
X165403571Y-199607142D01*
X165475000Y-199535714D01*
X165475000Y-199678571D01*
X165475000Y-198750000D02*
X165546428Y-198821428D01*
X165475000Y-198892857D01*
X165403571Y-198821428D01*
X165475000Y-198750000D01*
X165475000Y-198892857D01*
X167332142Y-198178571D02*
X167332142Y-199392857D01*
X167403571Y-199535714D01*
X167475000Y-199607142D01*
X167617857Y-199678571D01*
X167903571Y-199678571D01*
X168046428Y-199607142D01*
X168117857Y-199535714D01*
X168189285Y-199392857D01*
X168189285Y-198178571D01*
X168832142Y-199607142D02*
X169046428Y-199678571D01*
X169403571Y-199678571D01*
X169546428Y-199607142D01*
X169617857Y-199535714D01*
X169689285Y-199392857D01*
X169689285Y-199250000D01*
X169617857Y-199107142D01*
X169546428Y-199035714D01*
X169403571Y-198964285D01*
X169117857Y-198892857D01*
X168975000Y-198821428D01*
X168903571Y-198750000D01*
X168832142Y-198607142D01*
X168832142Y-198464285D01*
X168903571Y-198321428D01*
X168975000Y-198250000D01*
X169117857Y-198178571D01*
X169475000Y-198178571D01*
X169689285Y-198250000D01*
X171046428Y-199678571D02*
X170332142Y-199678571D01*
X170332142Y-198178571D01*
X172117857Y-199607142D02*
X171975000Y-199678571D01*
X171689285Y-199678571D01*
X171546428Y-199607142D01*
X171475000Y-199464285D01*
X171475000Y-198892857D01*
X171546428Y-198750000D01*
X171689285Y-198678571D01*
X171975000Y-198678571D01*
X172117857Y-198750000D01*
X172189285Y-198892857D01*
X172189285Y-199035714D01*
X171475000Y-199178571D01*
X172617857Y-198678571D02*
X173189285Y-198678571D01*
X172832142Y-198178571D02*
X172832142Y-199464285D01*
X172903571Y-199607142D01*
X173046428Y-199678571D01*
X173189285Y-199678571D01*
X173475000Y-198678571D02*
X174046428Y-198678571D01*
X173689285Y-198178571D02*
X173689285Y-199464285D01*
X173760714Y-199607142D01*
X173903571Y-199678571D01*
X174046428Y-199678571D01*
X175117857Y-199607142D02*
X174975000Y-199678571D01*
X174689285Y-199678571D01*
X174546428Y-199607142D01*
X174475000Y-199464285D01*
X174475000Y-198892857D01*
X174546428Y-198750000D01*
X174689285Y-198678571D01*
X174975000Y-198678571D01*
X175117857Y-198750000D01*
X175189285Y-198892857D01*
X175189285Y-199035714D01*
X174475000Y-199178571D01*
X175832142Y-199678571D02*
X175832142Y-198678571D01*
X175832142Y-198964285D02*
X175903571Y-198821428D01*
X175975000Y-198750000D01*
X176117857Y-198678571D01*
X176260714Y-198678571D01*
D10*
D11*
X245832142Y-202478571D02*
X245832142Y-200978571D01*
X247189285Y-202478571D02*
X247189285Y-200978571D01*
X247189285Y-202407142D02*
X247046428Y-202478571D01*
X246760714Y-202478571D01*
X246617857Y-202407142D01*
X246546428Y-202335714D01*
X246475000Y-202192857D01*
X246475000Y-201764285D01*
X246546428Y-201621428D01*
X246617857Y-201550000D01*
X246760714Y-201478571D01*
X247046428Y-201478571D01*
X247189285Y-201550000D01*
X247903571Y-202335714D02*
X247975000Y-202407142D01*
X247903571Y-202478571D01*
X247832142Y-202407142D01*
X247903571Y-202335714D01*
X247903571Y-202478571D01*
X247903571Y-201550000D02*
X247975000Y-201621428D01*
X247903571Y-201692857D01*
X247832142Y-201621428D01*
X247903571Y-201550000D01*
X247903571Y-201692857D01*
X250546428Y-202478571D02*
X249689285Y-202478571D01*
X250117857Y-202478571D02*
X250117857Y-200978571D01*
X249975000Y-201192857D01*
X249832142Y-201335714D01*
X249689285Y-201407142D01*
X252260714Y-200907142D02*
X250975000Y-202835714D01*
X253546428Y-202478571D02*
X252689285Y-202478571D01*
X253117857Y-202478571D02*
X253117857Y-200978571D01*
X252975000Y-201192857D01*
X252832142Y-201335714D01*
X252689285Y-201407142D01*
D10*
D11*
X159400000Y-193400000D02*
X267400000Y-193400000D01*
D10*
D13*
X161112380Y-194104761D02*
X162255238Y-194104761D01*
X161433809Y-196104761D02*
X161683809Y-194104761D01*
X162671904Y-196104761D02*
X162838571Y-194771428D01*
X162921904Y-194104761D02*
X162814761Y-194200000D01*
X162898095Y-194295238D01*
X163005238Y-194200000D01*
X162921904Y-194104761D01*
X162898095Y-194295238D01*
X163505238Y-194771428D02*
X164267142Y-194771428D01*
X163874285Y-194104761D02*
X163660000Y-195819047D01*
X163731428Y-196009523D01*
X163910000Y-196104761D01*
X164100476Y-196104761D01*
X165052857Y-196104761D02*
X164874285Y-196009523D01*
X164802857Y-195819047D01*
X165017142Y-194104761D01*
X166588571Y-196009523D02*
X166386190Y-196104761D01*
X166005238Y-196104761D01*
X165826666Y-196009523D01*
X165755238Y-195819047D01*
X165850476Y-195057142D01*
X165969523Y-194866666D01*
X166171904Y-194771428D01*
X166552857Y-194771428D01*
X166731428Y-194866666D01*
X166802857Y-195057142D01*
X166779047Y-195247619D01*
X165802857Y-195438095D01*
X167552857Y-195914285D02*
X167636190Y-196009523D01*
X167529047Y-196104761D01*
X167445714Y-196009523D01*
X167552857Y-195914285D01*
X167529047Y-196104761D01*
X167683809Y-194866666D02*
X167767142Y-194961904D01*
X167660000Y-195057142D01*
X167576666Y-194961904D01*
X167683809Y-194866666D01*
X167660000Y-195057142D01*
X170136190Y-195057142D02*
X170802857Y-195057142D01*
X170957619Y-196104761D02*
X170005238Y-196104761D01*
X170255238Y-194104761D01*
X171207619Y-194104761D01*
X171731428Y-196009523D02*
X172005238Y-196104761D01*
X172481428Y-196104761D01*
X172683809Y-196009523D01*
X172790952Y-195914285D01*
X172910000Y-195723809D01*
X172933809Y-195533333D01*
X172862380Y-195342857D01*
X172779047Y-195247619D01*
X172600476Y-195152380D01*
X172231428Y-195057142D01*
X172052857Y-194961904D01*
X171969523Y-194866666D01*
X171898095Y-194676190D01*
X171921904Y-194485714D01*
X172040952Y-194295238D01*
X172148095Y-194200000D01*
X172350476Y-194104761D01*
X172826666Y-194104761D01*
X173100476Y-194200000D01*
X173719523Y-196104761D02*
X173969523Y-194104761D01*
X174731428Y-194104761D01*
X174910000Y-194200000D01*
X174993333Y-194295238D01*
X175064761Y-194485714D01*
X175029047Y-194771428D01*
X174910000Y-194961904D01*
X174802857Y-195057142D01*
X174600476Y-195152380D01*
X173838571Y-195152380D01*
X175779047Y-194104761D02*
X177017142Y-194104761D01*
X176255238Y-194866666D01*
X176540952Y-194866666D01*
X176719523Y-194961904D01*
X176802857Y-195057142D01*
X176874285Y-195247619D01*
X176814761Y-195723809D01*
X176695714Y-195914285D01*
X176588571Y-196009523D01*
X176386190Y-196104761D01*
X175814761Y-196104761D01*
X175636190Y-196009523D01*
X175552857Y-195914285D01*
X177755238Y-194295238D02*
X177862380Y-194200000D01*
X178064761Y-194104761D01*
X178540952Y-194104761D01*
X178719523Y-194200000D01*
X178802857Y-194295238D01*
X178874285Y-194485714D01*
X178850476Y-194676190D01*
X178719523Y-194961904D01*
X177433809Y-196104761D01*
X178671904Y-196104761D01*
X180969523Y-196009523D02*
X181243333Y-196104761D01*
X181719523Y-196104761D01*
X181921904Y-196009523D01*
X182029047Y-195914285D01*
X182148095Y-195723809D01*
X182171904Y-195533333D01*
X182100476Y-195342857D01*
X182017142Y-195247619D01*
X181838571Y-195152380D01*
X181469523Y-195057142D01*
X181290952Y-194961904D01*
X181207619Y-194866666D01*
X181136190Y-194676190D01*
X181160000Y-194485714D01*
X181279047Y-194295238D01*
X181386190Y-194200000D01*
X181588571Y-194104761D01*
X182064761Y-194104761D01*
X182338571Y-194200000D01*
X183731428Y-196009523D02*
X183529047Y-196104761D01*
X183148095Y-196104761D01*
X182969523Y-196009523D01*
X182898095Y-195819047D01*
X182993333Y-195057142D01*
X183112380Y-194866666D01*
X183314761Y-194771428D01*
X183695714Y-194771428D01*
X183874285Y-194866666D01*
X183945714Y-195057142D01*
X183921904Y-195247619D01*
X182945714Y-195438095D01*
X184838571Y-194771428D02*
X184671904Y-196104761D01*
X184814761Y-194961904D02*
X184921904Y-194866666D01*
X185124285Y-194771428D01*
X185410000Y-194771428D01*
X185588571Y-194866666D01*
X185660000Y-195057142D01*
X185529047Y-196104761D01*
X186398095Y-196009523D02*
X186576666Y-196104761D01*
X186957619Y-196104761D01*
X187160000Y-196009523D01*
X187279047Y-195819047D01*
X187290952Y-195723809D01*
X187219523Y-195533333D01*
X187040952Y-195438095D01*
X186755238Y-195438095D01*
X186576666Y-195342857D01*
X186505238Y-195152380D01*
X186517142Y-195057142D01*
X186636190Y-194866666D01*
X186838571Y-194771428D01*
X187124285Y-194771428D01*
X187302857Y-194866666D01*
X188386190Y-196104761D02*
X188207619Y-196009523D01*
X188124285Y-195914285D01*
X188052857Y-195723809D01*
X188124285Y-195152380D01*
X188243333Y-194961904D01*
X188350476Y-194866666D01*
X188552857Y-194771428D01*
X188838571Y-194771428D01*
X189017142Y-194866666D01*
X189100476Y-194961904D01*
X189171904Y-195152380D01*
X189100476Y-195723809D01*
X188981428Y-195914285D01*
X188874285Y-196009523D01*
X188671904Y-196104761D01*
X188386190Y-196104761D01*
X189910000Y-196104761D02*
X190076666Y-194771428D01*
X190029047Y-195152380D02*
X190148095Y-194961904D01*
X190255238Y-194866666D01*
X190457619Y-194771428D01*
X190648095Y-194771428D01*
X192671904Y-196104761D02*
X192921904Y-194104761D01*
X193410000Y-195533333D01*
X194255238Y-194104761D01*
X194005238Y-196104761D01*
X195243333Y-196104761D02*
X195064761Y-196009523D01*
X194981428Y-195914285D01*
X194910000Y-195723809D01*
X194981428Y-195152380D01*
X195100476Y-194961904D01*
X195207619Y-194866666D01*
X195410000Y-194771428D01*
X195695714Y-194771428D01*
X195874285Y-194866666D01*
X195957619Y-194961904D01*
X196029047Y-195152380D01*
X195957619Y-195723809D01*
X195838571Y-195914285D01*
X195731428Y-196009523D01*
X195529047Y-196104761D01*
X195243333Y-196104761D01*
X197624285Y-196104761D02*
X197874285Y-194104761D01*
X197636190Y-196009523D02*
X197433809Y-196104761D01*
X197052857Y-196104761D01*
X196874285Y-196009523D01*
X196790952Y-195914285D01*
X196719523Y-195723809D01*
X196790952Y-195152380D01*
X196910000Y-194961904D01*
X197017142Y-194866666D01*
X197219523Y-194771428D01*
X197600476Y-194771428D01*
X197779047Y-194866666D01*
X199600476Y-194771428D02*
X199433809Y-196104761D01*
X198743333Y-194771428D02*
X198612380Y-195819047D01*
X198683809Y-196009523D01*
X198862380Y-196104761D01*
X199148095Y-196104761D01*
X199350476Y-196009523D01*
X199457619Y-195914285D01*
X200671904Y-196104761D02*
X200493333Y-196009523D01*
X200421904Y-195819047D01*
X200636190Y-194104761D01*
X202207619Y-196009523D02*
X202005238Y-196104761D01*
X201624285Y-196104761D01*
X201445714Y-196009523D01*
X201374285Y-195819047D01*
X201469523Y-195057142D01*
X201588571Y-194866666D01*
X201790952Y-194771428D01*
X202171904Y-194771428D01*
X202350476Y-194866666D01*
X202421904Y-195057142D01*
X202398095Y-195247619D01*
X201421904Y-195438095D01*
D10*
D11*
X161332142Y-191492857D02*
X160832142Y-191492857D01*
X160832142Y-192278571D02*
X160832142Y-190778571D01*
X161546428Y-190778571D01*
X162117857Y-192278571D02*
X162117857Y-191278571D01*
X162117857Y-190778571D02*
X162046428Y-190850000D01*
X162117857Y-190921428D01*
X162189285Y-190850000D01*
X162117857Y-190778571D01*
X162117857Y-190921428D01*
X163046428Y-192278571D02*
X162903571Y-192207142D01*
X162832142Y-192064285D01*
X162832142Y-190778571D01*
X164189285Y-192207142D02*
X164046428Y-192278571D01*
X163760714Y-192278571D01*
X163617857Y-192207142D01*
X163546428Y-192064285D01*
X163546428Y-191492857D01*
X163617857Y-191350000D01*
X163760714Y-191278571D01*
X164046428Y-191278571D01*
X164189285Y-191350000D01*
X164260714Y-191492857D01*
X164260714Y-191635714D01*
X163546428Y-191778571D01*
X164903571Y-192135714D02*
X164975000Y-192207142D01*
X164903571Y-192278571D01*
X164832142Y-192207142D01*
X164903571Y-192135714D01*
X164903571Y-192278571D01*
X164903571Y-191350000D02*
X164975000Y-191421428D01*
X164903571Y-191492857D01*
X164832142Y-191421428D01*
X164903571Y-191350000D01*
X164903571Y-191492857D01*
X167332142Y-192207142D02*
X167189285Y-192278571D01*
X166903571Y-192278571D01*
X166760714Y-192207142D01*
X166689285Y-192064285D01*
X166689285Y-191492857D01*
X166760714Y-191350000D01*
X166903571Y-191278571D01*
X167189285Y-191278571D01*
X167332142Y-191350000D01*
X167403571Y-191492857D01*
X167403571Y-191635714D01*
X166689285Y-191778571D01*
X167975000Y-192207142D02*
X168117857Y-192278571D01*
X168403571Y-192278571D01*
X168546428Y-192207142D01*
X168617857Y-192064285D01*
X168617857Y-191992857D01*
X168546428Y-191850000D01*
X168403571Y-191778571D01*
X168189285Y-191778571D01*
X168046428Y-191707142D01*
X167975000Y-191564285D01*
X167975000Y-191492857D01*
X168046428Y-191350000D01*
X168189285Y-191278571D01*
X168403571Y-191278571D01*
X168546428Y-191350000D01*
X169260714Y-191278571D02*
X169260714Y-192778571D01*
X169260714Y-191350000D02*
X169403571Y-191278571D01*
X169689285Y-191278571D01*
X169832142Y-191350000D01*
X169903571Y-191421428D01*
X169975000Y-191564285D01*
X169975000Y-191992857D01*
X169903571Y-192135714D01*
X169832142Y-192207142D01*
X169689285Y-192278571D01*
X169403571Y-192278571D01*
X169260714Y-192207142D01*
X170475000Y-190778571D02*
X171403571Y-190778571D01*
X170903571Y-191350000D01*
X171117857Y-191350000D01*
X171260714Y-191421428D01*
X171332142Y-191492857D01*
X171403571Y-191635714D01*
X171403571Y-191992857D01*
X171332142Y-192135714D01*
X171260714Y-192207142D01*
X171117857Y-192278571D01*
X170689285Y-192278571D01*
X170546428Y-192207142D01*
X170475000Y-192135714D01*
X171975000Y-190921428D02*
X172046428Y-190850000D01*
X172189285Y-190778571D01*
X172546428Y-190778571D01*
X172689285Y-190850000D01*
X172760714Y-190921428D01*
X172832142Y-191064285D01*
X172832142Y-191207142D01*
X172760714Y-191421428D01*
X171903571Y-192278571D01*
X172832142Y-192278571D01*
X173117857Y-192421428D02*
X174260714Y-192421428D01*
X174546428Y-192207142D02*
X174689285Y-192278571D01*
X174975000Y-192278571D01*
X175117857Y-192207142D01*
X175189285Y-192064285D01*
X175189285Y-191992857D01*
X175117857Y-191850000D01*
X174975000Y-191778571D01*
X174760714Y-191778571D01*
X174617857Y-191707142D01*
X174546428Y-191564285D01*
X174546428Y-191492857D01*
X174617857Y-191350000D01*
X174760714Y-191278571D01*
X174975000Y-191278571D01*
X175117857Y-191350000D01*
X176403571Y-192207142D02*
X176260714Y-192278571D01*
X175975000Y-192278571D01*
X175832142Y-192207142D01*
X175760714Y-192064285D01*
X175760714Y-191492857D01*
X175832142Y-191350000D01*
X175975000Y-191278571D01*
X176260714Y-191278571D01*
X176403571Y-191350000D01*
X176475000Y-191492857D01*
X176475000Y-191635714D01*
X175760714Y-191778571D01*
X177117857Y-191278571D02*
X177117857Y-192278571D01*
X177117857Y-191421428D02*
X177189285Y-191350000D01*
X177332142Y-191278571D01*
X177546428Y-191278571D01*
X177689285Y-191350000D01*
X177760714Y-191492857D01*
X177760714Y-192278571D01*
X178403571Y-192207142D02*
X178546428Y-192278571D01*
X178832142Y-192278571D01*
X178975000Y-192207142D01*
X179046428Y-192064285D01*
X179046428Y-191992857D01*
X178975000Y-191850000D01*
X178832142Y-191778571D01*
X178617857Y-191778571D01*
X178475000Y-191707142D01*
X178403571Y-191564285D01*
X178403571Y-191492857D01*
X178475000Y-191350000D01*
X178617857Y-191278571D01*
X178832142Y-191278571D01*
X178975000Y-191350000D01*
X179903571Y-192278571D02*
X179760714Y-192207142D01*
X179689285Y-192135714D01*
X179617857Y-191992857D01*
X179617857Y-191564285D01*
X179689285Y-191421428D01*
X179760714Y-191350000D01*
X179903571Y-191278571D01*
X180117857Y-191278571D01*
X180260714Y-191350000D01*
X180332142Y-191421428D01*
X180403571Y-191564285D01*
X180403571Y-191992857D01*
X180332142Y-192135714D01*
X180260714Y-192207142D01*
X180117857Y-192278571D01*
X179903571Y-192278571D01*
X181046428Y-192278571D02*
X181046428Y-191278571D01*
X181046428Y-191564285D02*
X181117857Y-191421428D01*
X181189285Y-191350000D01*
X181332142Y-191278571D01*
X181475000Y-191278571D01*
X181975000Y-192135714D02*
X182046428Y-192207142D01*
X181975000Y-192278571D01*
X181903571Y-192207142D01*
X181975000Y-192135714D01*
X181975000Y-192278571D01*
X182689285Y-192278571D02*
X182689285Y-190778571D01*
X182832142Y-191707142D02*
X183260714Y-192278571D01*
X183260714Y-191278571D02*
X182689285Y-191850000D01*
X183903571Y-192278571D02*
X183903571Y-191278571D01*
X183903571Y-190778571D02*
X183832142Y-190850000D01*
X183903571Y-190921428D01*
X183975000Y-190850000D01*
X183903571Y-190778571D01*
X183903571Y-190921428D01*
X185260714Y-192207142D02*
X185117857Y-192278571D01*
X184832142Y-192278571D01*
X184689285Y-192207142D01*
X184617857Y-192135714D01*
X184546428Y-191992857D01*
X184546428Y-191564285D01*
X184617857Y-191421428D01*
X184689285Y-191350000D01*
X184832142Y-191278571D01*
X185117857Y-191278571D01*
X185260714Y-191350000D01*
X186546428Y-192278571D02*
X186546428Y-191492857D01*
X186475000Y-191350000D01*
X186332142Y-191278571D01*
X186046428Y-191278571D01*
X185903571Y-191350000D01*
X186546428Y-192207142D02*
X186403571Y-192278571D01*
X186046428Y-192278571D01*
X185903571Y-192207142D01*
X185832142Y-192064285D01*
X185832142Y-191921428D01*
X185903571Y-191778571D01*
X186046428Y-191707142D01*
X186403571Y-191707142D01*
X186546428Y-191635714D01*
X187903571Y-192278571D02*
X187903571Y-190778571D01*
X187903571Y-192207142D02*
X187760714Y-192278571D01*
X187475000Y-192278571D01*
X187332142Y-192207142D01*
X187260714Y-192135714D01*
X187189285Y-191992857D01*
X187189285Y-191564285D01*
X187260714Y-191421428D01*
X187332142Y-191350000D01*
X187475000Y-191278571D01*
X187760714Y-191278571D01*
X187903571Y-191350000D01*
X188260714Y-192421428D02*
X189403571Y-192421428D01*
X189760714Y-191278571D02*
X189760714Y-192778571D01*
X189760714Y-191350000D02*
X189903571Y-191278571D01*
X190189285Y-191278571D01*
X190332142Y-191350000D01*
X190403571Y-191421428D01*
X190475000Y-191564285D01*
X190475000Y-191992857D01*
X190403571Y-192135714D01*
X190332142Y-192207142D01*
X190189285Y-192278571D01*
X189903571Y-192278571D01*
X189760714Y-192207142D01*
X191760714Y-192207142D02*
X191617857Y-192278571D01*
X191332142Y-192278571D01*
X191189285Y-192207142D01*
X191117857Y-192135714D01*
X191046428Y-191992857D01*
X191046428Y-191564285D01*
X191117857Y-191421428D01*
X191189285Y-191350000D01*
X191332142Y-191278571D01*
X191617857Y-191278571D01*
X191760714Y-191350000D01*
X192403571Y-192278571D02*
X192403571Y-190778571D01*
X192403571Y-191350000D02*
X192546428Y-191278571D01*
X192832142Y-191278571D01*
X192975000Y-191350000D01*
X193046428Y-191421428D01*
X193117857Y-191564285D01*
X193117857Y-191992857D01*
X193046428Y-192135714D01*
X192975000Y-192207142D01*
X192832142Y-192278571D01*
X192546428Y-192278571D01*
X192403571Y-192207142D01*
D10*
D11*
X159400000Y-187400000D02*
X267400000Y-187400000D01*
D10*
D11*
X160760714Y-189507142D02*
X160975000Y-189578571D01*
X161332142Y-189578571D01*
X161475000Y-189507142D01*
X161546428Y-189435714D01*
X161617857Y-189292857D01*
X161617857Y-189150000D01*
X161546428Y-189007142D01*
X161475000Y-188935714D01*
X161332142Y-188864285D01*
X161046428Y-188792857D01*
X160903571Y-188721428D01*
X160832142Y-188650000D01*
X160760714Y-188507142D01*
X160760714Y-188364285D01*
X160832142Y-188221428D01*
X160903571Y-188150000D01*
X161046428Y-188078571D01*
X161403571Y-188078571D01*
X161617857Y-188150000D01*
X162260714Y-189578571D02*
X162260714Y-188078571D01*
X162903571Y-189578571D02*
X162903571Y-188792857D01*
X162832142Y-188650000D01*
X162689285Y-188578571D01*
X162475000Y-188578571D01*
X162332142Y-188650000D01*
X162260714Y-188721428D01*
X164189285Y-189507142D02*
X164046428Y-189578571D01*
X163760714Y-189578571D01*
X163617857Y-189507142D01*
X163546428Y-189364285D01*
X163546428Y-188792857D01*
X163617857Y-188650000D01*
X163760714Y-188578571D01*
X164046428Y-188578571D01*
X164189285Y-188650000D01*
X164260714Y-188792857D01*
X164260714Y-188935714D01*
X163546428Y-189078571D01*
X165475000Y-189507142D02*
X165332142Y-189578571D01*
X165046428Y-189578571D01*
X164903571Y-189507142D01*
X164832142Y-189364285D01*
X164832142Y-188792857D01*
X164903571Y-188650000D01*
X165046428Y-188578571D01*
X165332142Y-188578571D01*
X165475000Y-188650000D01*
X165546428Y-188792857D01*
X165546428Y-188935714D01*
X164832142Y-189078571D01*
X165975000Y-188578571D02*
X166546428Y-188578571D01*
X166189285Y-188078571D02*
X166189285Y-189364285D01*
X166260714Y-189507142D01*
X166403571Y-189578571D01*
X166546428Y-189578571D01*
X167046428Y-189435714D02*
X167117857Y-189507142D01*
X167046428Y-189578571D01*
X166975000Y-189507142D01*
X167046428Y-189435714D01*
X167046428Y-189578571D01*
X167046428Y-188650000D02*
X167117857Y-188721428D01*
X167046428Y-188792857D01*
X166975000Y-188721428D01*
X167046428Y-188650000D01*
X167046428Y-188792857D01*
D10*
D12*
X161809285Y-186435714D02*
X161737857Y-186507142D01*
X161523571Y-186578571D01*
X161380714Y-186578571D01*
X161166428Y-186507142D01*
X161023571Y-186364285D01*
X160952142Y-186221428D01*
X160880714Y-185935714D01*
X160880714Y-185721428D01*
X160952142Y-185435714D01*
X161023571Y-185292857D01*
X161166428Y-185150000D01*
X161380714Y-185078571D01*
X161523571Y-185078571D01*
X161737857Y-185150000D01*
X161809285Y-185221428D01*
X162452142Y-186578571D02*
X162452142Y-185578571D01*
X162452142Y-185864285D02*
X162523571Y-185721428D01*
X162595000Y-185650000D01*
X162737857Y-185578571D01*
X162880714Y-185578571D01*
X163952142Y-186507142D02*
X163809285Y-186578571D01*
X163523571Y-186578571D01*
X163380714Y-186507142D01*
X163309285Y-186364285D01*
X163309285Y-185792857D01*
X163380714Y-185650000D01*
X163523571Y-185578571D01*
X163809285Y-185578571D01*
X163952142Y-185650000D01*
X164023571Y-185792857D01*
X164023571Y-185935714D01*
X163309285Y-186078571D01*
X165309285Y-186578571D02*
X165309285Y-185792857D01*
X165237857Y-185650000D01*
X165095000Y-185578571D01*
X164809285Y-185578571D01*
X164666428Y-185650000D01*
X165309285Y-186507142D02*
X165166428Y-186578571D01*
X164809285Y-186578571D01*
X164666428Y-186507142D01*
X164595000Y-186364285D01*
X164595000Y-186221428D01*
X164666428Y-186078571D01*
X164809285Y-186007142D01*
X165166428Y-186007142D01*
X165309285Y-185935714D01*
X165809285Y-185578571D02*
X166380714Y-185578571D01*
X166023571Y-185078571D02*
X166023571Y-186364285D01*
X166095000Y-186507142D01*
X166237857Y-186578571D01*
X166380714Y-186578571D01*
X167452142Y-186507142D02*
X167309285Y-186578571D01*
X167023571Y-186578571D01*
X166880714Y-186507142D01*
X166809285Y-186364285D01*
X166809285Y-185792857D01*
X166880714Y-185650000D01*
X167023571Y-185578571D01*
X167309285Y-185578571D01*
X167452142Y-185650000D01*
X167523571Y-185792857D01*
X167523571Y-185935714D01*
X166809285Y-186078571D01*
X168809285Y-186578571D02*
X168809285Y-185078571D01*
X168809285Y-186507142D02*
X168666428Y-186578571D01*
X168380714Y-186578571D01*
X168237857Y-186507142D01*
X168166428Y-186435714D01*
X168095000Y-186292857D01*
X168095000Y-185864285D01*
X168166428Y-185721428D01*
X168237857Y-185650000D01*
X168380714Y-185578571D01*
X168666428Y-185578571D01*
X168809285Y-185650000D01*
X170666428Y-186578571D02*
X170666428Y-185078571D01*
X170666428Y-185650000D02*
X170809285Y-185578571D01*
X171095000Y-185578571D01*
X171237857Y-185650000D01*
X171309285Y-185721428D01*
X171380714Y-185864285D01*
X171380714Y-186292857D01*
X171309285Y-186435714D01*
X171237857Y-186507142D01*
X171095000Y-186578571D01*
X170809285Y-186578571D01*
X170666428Y-186507142D01*
X171880714Y-185578571D02*
X172237857Y-186578571D01*
X172595000Y-185578571D02*
X172237857Y-186578571D01*
X172095000Y-186935714D01*
X172023571Y-187007142D01*
X171880714Y-187078571D01*
X175166428Y-186435714D02*
X175095000Y-186507142D01*
X174880714Y-186578571D01*
X174737857Y-186578571D01*
X174523571Y-186507142D01*
X174380714Y-186364285D01*
X174309285Y-186221428D01*
X174237857Y-185935714D01*
X174237857Y-185721428D01*
X174309285Y-185435714D01*
X174380714Y-185292857D01*
X174523571Y-185150000D01*
X174737857Y-185078571D01*
X174880714Y-185078571D01*
X175095000Y-185150000D01*
X175166428Y-185221428D01*
X175809285Y-186578571D02*
X175809285Y-185078571D01*
X176452142Y-186578571D02*
X176452142Y-185792857D01*
X176380714Y-185650000D01*
X176237857Y-185578571D01*
X176023571Y-185578571D01*
X175880714Y-185650000D01*
X175809285Y-185721428D01*
X177380714Y-186578571D02*
X177237857Y-186507142D01*
X177166428Y-186435714D01*
X177095000Y-186292857D01*
X177095000Y-185864285D01*
X177166428Y-185721428D01*
X177237857Y-185650000D01*
X177380714Y-185578571D01*
X177595000Y-185578571D01*
X177737857Y-185650000D01*
X177809285Y-185721428D01*
X177880714Y-185864285D01*
X177880714Y-186292857D01*
X177809285Y-186435714D01*
X177737857Y-186507142D01*
X177595000Y-186578571D01*
X177380714Y-186578571D01*
X178737857Y-186578571D02*
X178595000Y-186507142D01*
X178523571Y-186435714D01*
X178452142Y-186292857D01*
X178452142Y-185864285D01*
X178523571Y-185721428D01*
X178595000Y-185650000D01*
X178737857Y-185578571D01*
X178952142Y-185578571D01*
X179095000Y-185650000D01*
X179166428Y-185721428D01*
X179237857Y-185864285D01*
X179237857Y-186292857D01*
X179166428Y-186435714D01*
X179095000Y-186507142D01*
X178952142Y-186578571D01*
X178737857Y-186578571D01*
X179880714Y-185578571D02*
X179880714Y-186578571D01*
X179880714Y-185721428D02*
X179952142Y-185650000D01*
X180095000Y-185578571D01*
X180309285Y-185578571D01*
X180452142Y-185650000D01*
X180523571Y-185792857D01*
X180523571Y-186578571D01*
X181880714Y-185578571D02*
X181880714Y-186792857D01*
X181809285Y-186935714D01*
X181737857Y-187007142D01*
X181595000Y-187078571D01*
X181380714Y-187078571D01*
X181237857Y-187007142D01*
X181880714Y-186507142D02*
X181737857Y-186578571D01*
X181452142Y-186578571D01*
X181309285Y-186507142D01*
X181237857Y-186435714D01*
X181166428Y-186292857D01*
X181166428Y-185864285D01*
X181237857Y-185721428D01*
X181309285Y-185650000D01*
X181452142Y-185578571D01*
X181737857Y-185578571D01*
X181880714Y-185650000D01*
X184166428Y-185078571D02*
X184166428Y-186150000D01*
X184095000Y-186364285D01*
X183952142Y-186507142D01*
X183737857Y-186578571D01*
X183595000Y-186578571D01*
X184880714Y-186578571D02*
X184880714Y-185578571D01*
X184880714Y-185078571D02*
X184809285Y-185150000D01*
X184880714Y-185221428D01*
X184952142Y-185150000D01*
X184880714Y-185078571D01*
X184880714Y-185221428D01*
X185595000Y-185578571D02*
X185595000Y-186578571D01*
X185595000Y-185721428D02*
X185666428Y-185650000D01*
X185809285Y-185578571D01*
X186023571Y-185578571D01*
X186166428Y-185650000D01*
X186237857Y-185792857D01*
X186237857Y-186578571D01*
X188095000Y-186578571D02*
X188095000Y-185078571D01*
X188952142Y-186578571D01*
X188952142Y-185078571D01*
X190309285Y-185578571D02*
X190309285Y-186792857D01*
X190237857Y-186935714D01*
X190166428Y-187007142D01*
X190023571Y-187078571D01*
X189809285Y-187078571D01*
X189666428Y-187007142D01*
X190309285Y-186507142D02*
X190166428Y-186578571D01*
X189880714Y-186578571D01*
X189737857Y-186507142D01*
X189666428Y-186435714D01*
X189595000Y-186292857D01*
X189595000Y-185864285D01*
X189666428Y-185721428D01*
X189737857Y-185650000D01*
X189880714Y-185578571D01*
X190166428Y-185578571D01*
X190309285Y-185650000D01*
X192523571Y-187078571D02*
X192523571Y-184935714D01*
X194737857Y-185578571D02*
X194737857Y-186864285D01*
X194666428Y-187007142D01*
X194523571Y-187078571D01*
X194452142Y-187078571D01*
X194737857Y-185078571D02*
X194666428Y-185150000D01*
X194737857Y-185221428D01*
X194809285Y-185150000D01*
X194737857Y-185078571D01*
X194737857Y-185221428D01*
X195452142Y-186578571D02*
X195452142Y-185578571D01*
X195452142Y-185078571D02*
X195380714Y-185150000D01*
X195452142Y-185221428D01*
X195523571Y-185150000D01*
X195452142Y-185078571D01*
X195452142Y-185221428D01*
X196166428Y-185578571D02*
X196166428Y-186578571D01*
X196166428Y-185721428D02*
X196237857Y-185650000D01*
X196380714Y-185578571D01*
X196595000Y-185578571D01*
X196737857Y-185650000D01*
X196809285Y-185792857D01*
X196809285Y-186578571D01*
X197737857Y-185721428D02*
X197595000Y-185650000D01*
X197523571Y-185578571D01*
X197452142Y-185435714D01*
X197452142Y-185364285D01*
X197523571Y-185221428D01*
X197595000Y-185150000D01*
X197737857Y-185078571D01*
X198023571Y-185078571D01*
X198166428Y-185150000D01*
X198237857Y-185221428D01*
X198309285Y-185364285D01*
X198309285Y-185435714D01*
X198237857Y-185578571D01*
X198166428Y-185650000D01*
X198023571Y-185721428D01*
X197737857Y-185721428D01*
X197595000Y-185792857D01*
X197523571Y-185864285D01*
X197452142Y-186007142D01*
X197452142Y-186292857D01*
X197523571Y-186435714D01*
X197595000Y-186507142D01*
X197737857Y-186578571D01*
X198023571Y-186578571D01*
X198166428Y-186507142D01*
X198237857Y-186435714D01*
X198309285Y-186292857D01*
X198309285Y-186007142D01*
X198237857Y-185864285D01*
X198166428Y-185792857D01*
X198023571Y-185721428D01*
X198809285Y-185078571D02*
X199737857Y-185078571D01*
X199237857Y-185650000D01*
X199452142Y-185650000D01*
X199595000Y-185721428D01*
X199666428Y-185792857D01*
X199737857Y-185935714D01*
X199737857Y-186292857D01*
X199666428Y-186435714D01*
X199595000Y-186507142D01*
X199452142Y-186578571D01*
X199023571Y-186578571D01*
X198880714Y-186507142D01*
X198809285Y-186435714D01*
X200595000Y-185721428D02*
X200452142Y-185650000D01*
X200380714Y-185578571D01*
X200309285Y-185435714D01*
X200309285Y-185364285D01*
X200380714Y-185221428D01*
X200452142Y-185150000D01*
X200595000Y-185078571D01*
X200880714Y-185078571D01*
X201023571Y-185150000D01*
X201095000Y-185221428D01*
X201166428Y-185364285D01*
X201166428Y-185435714D01*
X201095000Y-185578571D01*
X201023571Y-185650000D01*
X200880714Y-185721428D01*
X200595000Y-185721428D01*
X200452142Y-185792857D01*
X200380714Y-185864285D01*
X200309285Y-186007142D01*
X200309285Y-186292857D01*
X200380714Y-186435714D01*
X200452142Y-186507142D01*
X200595000Y-186578571D01*
X200880714Y-186578571D01*
X201023571Y-186507142D01*
X201095000Y-186435714D01*
X201166428Y-186292857D01*
X201166428Y-186007142D01*
X201095000Y-185864285D01*
X201023571Y-185792857D01*
X200880714Y-185721428D01*
X201666428Y-185078571D02*
X202595000Y-185078571D01*
X202095000Y-185650000D01*
X202309285Y-185650000D01*
X202452142Y-185721428D01*
X202523571Y-185792857D01*
X202595000Y-185935714D01*
X202595000Y-186292857D01*
X202523571Y-186435714D01*
X202452142Y-186507142D01*
X202309285Y-186578571D01*
X201880714Y-186578571D01*
X201737857Y-186507142D01*
X201666428Y-186435714D01*
X204166428Y-185864285D02*
X204095000Y-185792857D01*
X203952142Y-185721428D01*
X203809285Y-185721428D01*
X203666428Y-185792857D01*
X203595000Y-185864285D01*
X203523571Y-186007142D01*
X203523571Y-186150000D01*
X203595000Y-186292857D01*
X203666428Y-186364285D01*
X203809285Y-186435714D01*
X203952142Y-186435714D01*
X204095000Y-186364285D01*
X204166428Y-186292857D01*
X204166428Y-185721428D02*
X204166428Y-186292857D01*
X204237857Y-186364285D01*
X204309285Y-186364285D01*
X204452142Y-186292857D01*
X204523571Y-186150000D01*
X204523571Y-185792857D01*
X204380714Y-185578571D01*
X204166428Y-185435714D01*
X203880714Y-185364285D01*
X203595000Y-185435714D01*
X203380714Y-185578571D01*
X203237857Y-185792857D01*
X203166428Y-186078571D01*
X203237857Y-186364285D01*
X203380714Y-186578571D01*
X203595000Y-186721428D01*
X203880714Y-186792857D01*
X204166428Y-186721428D01*
X204380714Y-186578571D01*
X205809285Y-185578571D02*
X205809285Y-186792857D01*
X205737857Y-186935714D01*
X205666428Y-187007142D01*
X205523571Y-187078571D01*
X205309285Y-187078571D01*
X205166428Y-187007142D01*
X205809285Y-186507142D02*
X205666428Y-186578571D01*
X205380714Y-186578571D01*
X205237857Y-186507142D01*
X205166428Y-186435714D01*
X205095000Y-186292857D01*
X205095000Y-185864285D01*
X205166428Y-185721428D01*
X205237857Y-185650000D01*
X205380714Y-185578571D01*
X205666428Y-185578571D01*
X205809285Y-185650000D01*
X206523571Y-186578571D02*
X206523571Y-185578571D01*
X206523571Y-185721428D02*
X206595000Y-185650000D01*
X206737857Y-185578571D01*
X206952142Y-185578571D01*
X207095000Y-185650000D01*
X207166428Y-185792857D01*
X207166428Y-186578571D01*
X207166428Y-185792857D02*
X207237857Y-185650000D01*
X207380714Y-185578571D01*
X207595000Y-185578571D01*
X207737857Y-185650000D01*
X207809285Y-185792857D01*
X207809285Y-186578571D01*
X209166428Y-186578571D02*
X209166428Y-185792857D01*
X209095000Y-185650000D01*
X208952142Y-185578571D01*
X208666428Y-185578571D01*
X208523571Y-185650000D01*
X209166428Y-186507142D02*
X209023571Y-186578571D01*
X208666428Y-186578571D01*
X208523571Y-186507142D01*
X208452142Y-186364285D01*
X208452142Y-186221428D01*
X208523571Y-186078571D01*
X208666428Y-186007142D01*
X209023571Y-186007142D01*
X209166428Y-185935714D01*
X209880714Y-186578571D02*
X209880714Y-185578571D01*
X209880714Y-185078571D02*
X209809285Y-185150000D01*
X209880714Y-185221428D01*
X209952142Y-185150000D01*
X209880714Y-185078571D01*
X209880714Y-185221428D01*
X210809285Y-186578571D02*
X210666428Y-186507142D01*
X210595000Y-186364285D01*
X210595000Y-185078571D01*
X211380714Y-186435714D02*
X211452142Y-186507142D01*
X211380714Y-186578571D01*
X211309285Y-186507142D01*
X211380714Y-186435714D01*
X211380714Y-186578571D01*
X212737857Y-186507142D02*
X212595000Y-186578571D01*
X212309285Y-186578571D01*
X212166428Y-186507142D01*
X212095000Y-186435714D01*
X212023571Y-186292857D01*
X212023571Y-185864285D01*
X212095000Y-185721428D01*
X212166428Y-185650000D01*
X212309285Y-185578571D01*
X212595000Y-185578571D01*
X212737857Y-185650000D01*
X213595000Y-186578571D02*
X213452142Y-186507142D01*
X213380714Y-186435714D01*
X213309285Y-186292857D01*
X213309285Y-185864285D01*
X213380714Y-185721428D01*
X213452142Y-185650000D01*
X213595000Y-185578571D01*
X213809285Y-185578571D01*
X213952142Y-185650000D01*
X214023571Y-185721428D01*
X214095000Y-185864285D01*
X214095000Y-186292857D01*
X214023571Y-186435714D01*
X213952142Y-186507142D01*
X213809285Y-186578571D01*
X213595000Y-186578571D01*
X214737857Y-186578571D02*
X214737857Y-185578571D01*
X214737857Y-185721428D02*
X214809285Y-185650000D01*
X214952142Y-185578571D01*
X215166428Y-185578571D01*
X215309285Y-185650000D01*
X215380714Y-185792857D01*
X215380714Y-186578571D01*
X215380714Y-185792857D02*
X215452142Y-185650000D01*
X215595000Y-185578571D01*
X215809285Y-185578571D01*
X215952142Y-185650000D01*
X216023571Y-185792857D01*
X216023571Y-186578571D01*
D10*
D11*
X179400000Y-197400000D02*
X179400000Y-200400000D01*
D10*
D11*
X243400000Y-197400000D02*
X243400000Y-203900000D01*
X95861095Y-75255428D02*
X95527761Y-75255428D01*
X95384904Y-74731619D02*
X95861095Y-74731619D01*
X95861095Y-75731619D01*
X95384904Y-75731619D01*
X94956333Y-74731619D02*
X94956333Y-75731619D01*
X94384904Y-74731619D01*
X94384904Y-75731619D01*
X140318285Y-88341857D02*
X140361142Y-88213285D01*
X140361142Y-87999000D01*
X140318285Y-87913285D01*
X140275428Y-87870428D01*
X140189714Y-87827571D01*
X140104000Y-87827571D01*
X140018285Y-87870428D01*
X139975428Y-87913285D01*
X139932571Y-87999000D01*
X139889714Y-88170428D01*
X139846857Y-88256142D01*
X139804000Y-88299000D01*
X139718285Y-88341857D01*
X139632571Y-88341857D01*
X139546857Y-88299000D01*
X139504000Y-88256142D01*
X139461142Y-88170428D01*
X139461142Y-87956142D01*
X139504000Y-87827571D01*
X140361142Y-87441857D02*
X139461142Y-87441857D01*
X139461142Y-87227571D01*
X139504000Y-87099000D01*
X139589714Y-87013285D01*
X139675428Y-86970428D01*
X139846857Y-86927571D01*
X139975428Y-86927571D01*
X140146857Y-86970428D01*
X140232571Y-87013285D01*
X140318285Y-87099000D01*
X140361142Y-87227571D01*
X140361142Y-87441857D01*
X140104000Y-86584714D02*
X140104000Y-86156142D01*
X140361142Y-86670428D02*
X139461142Y-86370428D01*
X140361142Y-86070428D01*
X140445285Y-83494428D02*
X140488142Y-83365857D01*
X140488142Y-83151571D01*
X140445285Y-83065857D01*
X140402428Y-83023000D01*
X140316714Y-82980142D01*
X140231000Y-82980142D01*
X140145285Y-83023000D01*
X140102428Y-83065857D01*
X140059571Y-83151571D01*
X140016714Y-83323000D01*
X139973857Y-83408714D01*
X139931000Y-83451571D01*
X139845285Y-83494428D01*
X139759571Y-83494428D01*
X139673857Y-83451571D01*
X139631000Y-83408714D01*
X139588142Y-83323000D01*
X139588142Y-83108714D01*
X139631000Y-82980142D01*
X140402428Y-82080142D02*
X140445285Y-82123000D01*
X140488142Y-82251571D01*
X140488142Y-82337285D01*
X140445285Y-82465857D01*
X140359571Y-82551571D01*
X140273857Y-82594428D01*
X140102428Y-82637285D01*
X139973857Y-82637285D01*
X139802428Y-82594428D01*
X139716714Y-82551571D01*
X139631000Y-82465857D01*
X139588142Y-82337285D01*
X139588142Y-82251571D01*
X139631000Y-82123000D01*
X139673857Y-82080142D01*
X140488142Y-81265857D02*
X140488142Y-81694428D01*
X139588142Y-81694428D01*
X126881333Y-111402761D02*
X127024190Y-111450380D01*
X127262285Y-111450380D01*
X127357523Y-111402761D01*
X127405142Y-111355142D01*
X127452761Y-111259904D01*
X127452761Y-111164666D01*
X127405142Y-111069428D01*
X127357523Y-111021809D01*
X127262285Y-110974190D01*
X127071809Y-110926571D01*
X126976571Y-110878952D01*
X126928952Y-110831333D01*
X126881333Y-110736095D01*
X126881333Y-110640857D01*
X126928952Y-110545619D01*
X126976571Y-110498000D01*
X127071809Y-110450380D01*
X127309904Y-110450380D01*
X127452761Y-110498000D01*
X127881333Y-111450380D02*
X127881333Y-110450380D01*
X128119428Y-110450380D01*
X128262285Y-110498000D01*
X128357523Y-110593238D01*
X128405142Y-110688476D01*
X128452761Y-110878952D01*
X128452761Y-111021809D01*
X128405142Y-111212285D01*
X128357523Y-111307523D01*
X128262285Y-111402761D01*
X128119428Y-111450380D01*
X127881333Y-111450380D01*
X129071809Y-110450380D02*
X129167047Y-110450380D01*
X129262285Y-110498000D01*
X129309904Y-110545619D01*
X129357523Y-110640857D01*
X129405142Y-110831333D01*
X129405142Y-111069428D01*
X129357523Y-111259904D01*
X129309904Y-111355142D01*
X129262285Y-111402761D01*
X129167047Y-111450380D01*
X129071809Y-111450380D01*
X128976571Y-111402761D01*
X128928952Y-111355142D01*
X128881333Y-111259904D01*
X128833714Y-111069428D01*
X128833714Y-110831333D01*
X128881333Y-110640857D01*
X128928952Y-110545619D01*
X128976571Y-110498000D01*
X129071809Y-110450380D01*
X130548000Y-110402761D02*
X129690857Y-111688476D01*
X130833714Y-111402761D02*
X130976571Y-111450380D01*
X131214666Y-111450380D01*
X131309904Y-111402761D01*
X131357523Y-111355142D01*
X131405142Y-111259904D01*
X131405142Y-111164666D01*
X131357523Y-111069428D01*
X131309904Y-111021809D01*
X131214666Y-110974190D01*
X131024190Y-110926571D01*
X130928952Y-110878952D01*
X130881333Y-110831333D01*
X130833714Y-110736095D01*
X130833714Y-110640857D01*
X130881333Y-110545619D01*
X130928952Y-110498000D01*
X131024190Y-110450380D01*
X131262285Y-110450380D01*
X131405142Y-110498000D01*
X131786095Y-111164666D02*
X132262285Y-111164666D01*
X131690857Y-111450380D02*
X132024190Y-110450380D01*
X132357523Y-111450380D01*
X132881333Y-110450380D02*
X132976571Y-110450380D01*
X133071809Y-110498000D01*
X133119428Y-110545619D01*
X133167047Y-110640857D01*
X133214666Y-110831333D01*
X133214666Y-111069428D01*
X133167047Y-111259904D01*
X133119428Y-111355142D01*
X133071809Y-111402761D01*
X132976571Y-111450380D01*
X132881333Y-111450380D01*
X132786095Y-111402761D01*
X132738476Y-111355142D01*
X132690857Y-111259904D01*
X132643238Y-111069428D01*
X132643238Y-110831333D01*
X132690857Y-110640857D01*
X132738476Y-110545619D01*
X132786095Y-110498000D01*
X132881333Y-110450380D01*
X136395009Y-110551980D02*
X137014057Y-110551980D01*
X136680723Y-110932933D01*
X136823580Y-110932933D01*
X136918819Y-110980552D01*
X136966438Y-111028171D01*
X137014057Y-111123409D01*
X137014057Y-111361504D01*
X136966438Y-111456742D01*
X136918819Y-111504361D01*
X136823580Y-111551980D01*
X136537866Y-111551980D01*
X136442628Y-111504361D01*
X136395009Y-111456742D01*
X137442628Y-111456742D02*
X137490247Y-111504361D01*
X137442628Y-111551980D01*
X137395009Y-111504361D01*
X137442628Y-111456742D01*
X137442628Y-111551980D01*
X137823580Y-110551980D02*
X138442628Y-110551980D01*
X138109295Y-110932933D01*
X138252152Y-110932933D01*
X138347390Y-110980552D01*
X138395009Y-111028171D01*
X138442628Y-111123409D01*
X138442628Y-111361504D01*
X138395009Y-111456742D01*
X138347390Y-111504361D01*
X138252152Y-111551980D01*
X137966438Y-111551980D01*
X137871200Y-111504361D01*
X137823580Y-111456742D01*
X138728342Y-110551980D02*
X139061676Y-111551980D01*
X139395009Y-110551980D01*
D14*
X116867142Y-101245142D02*
X116867142Y-100345142D01*
X117295714Y-101245142D02*
X117295714Y-100345142D01*
X117810000Y-101245142D01*
X117810000Y-100345142D01*
X118110000Y-100345142D02*
X118624285Y-100345142D01*
X118367142Y-101245142D02*
X118367142Y-100345142D01*
X118881428Y-100430857D02*
X118924285Y-100388000D01*
X119010000Y-100345142D01*
X119224285Y-100345142D01*
X119310000Y-100388000D01*
X119352857Y-100430857D01*
X119395714Y-100516571D01*
X119395714Y-100602285D01*
X119352857Y-100730857D01*
X118838571Y-101245142D01*
X119395714Y-101245142D01*
X109755142Y-101245142D02*
X109755142Y-100345142D01*
X110183714Y-101245142D02*
X110183714Y-100345142D01*
X110698000Y-101245142D01*
X110698000Y-100345142D01*
X110998000Y-100345142D02*
X111512285Y-100345142D01*
X111255142Y-101245142D02*
X111255142Y-100345142D01*
X112283714Y-101245142D02*
X111769428Y-101245142D01*
X112026571Y-101245142D02*
X112026571Y-100345142D01*
X111940857Y-100473714D01*
X111855142Y-100559428D01*
X111769428Y-100602285D01*
D15*
X114418380Y-110602000D02*
X114294571Y-110540095D01*
X114108857Y-110540095D01*
X113923142Y-110602000D01*
X113799333Y-110725809D01*
X113737428Y-110849619D01*
X113675523Y-111097238D01*
X113675523Y-111282952D01*
X113737428Y-111530571D01*
X113799333Y-111654380D01*
X113923142Y-111778190D01*
X114108857Y-111840095D01*
X114232666Y-111840095D01*
X114418380Y-111778190D01*
X114480285Y-111716285D01*
X114480285Y-111282952D01*
X114232666Y-111282952D01*
X115037428Y-110973428D02*
X115037428Y-111840095D01*
X115037428Y-111097238D02*
X115099333Y-111035333D01*
X115223142Y-110973428D01*
X115408857Y-110973428D01*
X115532666Y-111035333D01*
X115594571Y-111159142D01*
X115594571Y-111840095D01*
X116213619Y-111840095D02*
X116213619Y-110540095D01*
X116523142Y-110540095D01*
X116708857Y-110602000D01*
X116832666Y-110725809D01*
X116894571Y-110849619D01*
X116956476Y-111097238D01*
X116956476Y-111282952D01*
X116894571Y-111530571D01*
X116832666Y-111654380D01*
X116708857Y-111778190D01*
X116523142Y-111840095D01*
X116213619Y-111840095D01*
X107752476Y-110540095D02*
X108185809Y-111840095D01*
X108619142Y-110540095D01*
X108990571Y-111778190D02*
X109114380Y-111840095D01*
X109362000Y-111840095D01*
X109485809Y-111778190D01*
X109547714Y-111654380D01*
X109547714Y-111592476D01*
X109485809Y-111468666D01*
X109362000Y-111406761D01*
X109176285Y-111406761D01*
X109052476Y-111344857D01*
X108990571Y-111221047D01*
X108990571Y-111159142D01*
X109052476Y-111035333D01*
X109176285Y-110973428D01*
X109362000Y-110973428D01*
X109485809Y-111035333D01*
X86162476Y-123748095D02*
X86595809Y-125048095D01*
X87029142Y-123748095D01*
X87400571Y-124986190D02*
X87524380Y-125048095D01*
X87772000Y-125048095D01*
X87895809Y-124986190D01*
X87957714Y-124862380D01*
X87957714Y-124800476D01*
X87895809Y-124676666D01*
X87772000Y-124614761D01*
X87586285Y-124614761D01*
X87462476Y-124552857D01*
X87400571Y-124429047D01*
X87400571Y-124367142D01*
X87462476Y-124243333D01*
X87586285Y-124181428D01*
X87772000Y-124181428D01*
X87895809Y-124243333D01*
X86472000Y-117991619D02*
X86410095Y-118115428D01*
X86410095Y-118301142D01*
X86472000Y-118486857D01*
X86595809Y-118610666D01*
X86719619Y-118672571D01*
X86967238Y-118734476D01*
X87152952Y-118734476D01*
X87400571Y-118672571D01*
X87524380Y-118610666D01*
X87648190Y-118486857D01*
X87710095Y-118301142D01*
X87710095Y-118177333D01*
X87648190Y-117991619D01*
X87586285Y-117929714D01*
X87152952Y-117929714D01*
X87152952Y-118177333D01*
X86843428Y-117372571D02*
X87710095Y-117372571D01*
X86967238Y-117372571D02*
X86905333Y-117310666D01*
X86843428Y-117186857D01*
X86843428Y-117001142D01*
X86905333Y-116877333D01*
X87029142Y-116815428D01*
X87710095Y-116815428D01*
X87710095Y-116196380D02*
X86410095Y-116196380D01*
X86410095Y-115886857D01*
X86472000Y-115701142D01*
X86595809Y-115577333D01*
X86719619Y-115515428D01*
X86967238Y-115453523D01*
X87152952Y-115453523D01*
X87400571Y-115515428D01*
X87524380Y-115577333D01*
X87648190Y-115701142D01*
X87710095Y-115886857D01*
X87710095Y-116196380D01*
X101972380Y-122032000D02*
X101848571Y-121970095D01*
X101662857Y-121970095D01*
X101477142Y-122032000D01*
X101353333Y-122155809D01*
X101291428Y-122279619D01*
X101229523Y-122527238D01*
X101229523Y-122712952D01*
X101291428Y-122960571D01*
X101353333Y-123084380D01*
X101477142Y-123208190D01*
X101662857Y-123270095D01*
X101786666Y-123270095D01*
X101972380Y-123208190D01*
X102034285Y-123146285D01*
X102034285Y-122712952D01*
X101786666Y-122712952D01*
X102591428Y-122403428D02*
X102591428Y-123270095D01*
X102591428Y-122527238D02*
X102653333Y-122465333D01*
X102777142Y-122403428D01*
X102962857Y-122403428D01*
X103086666Y-122465333D01*
X103148571Y-122589142D01*
X103148571Y-123270095D01*
X103767619Y-123270095D02*
X103767619Y-121970095D01*
X104077142Y-121970095D01*
X104262857Y-122032000D01*
X104386666Y-122155809D01*
X104448571Y-122279619D01*
X104510476Y-122527238D01*
X104510476Y-122712952D01*
X104448571Y-122960571D01*
X104386666Y-123084380D01*
X104262857Y-123208190D01*
X104077142Y-123270095D01*
X103767619Y-123270095D01*
X93256285Y-121770857D02*
X93656285Y-122970857D01*
X94056285Y-121770857D01*
X94970571Y-122970857D02*
X94970571Y-121770857D01*
X94970571Y-122913714D02*
X94856285Y-122970857D01*
X94627714Y-122970857D01*
X94513428Y-122913714D01*
X94456285Y-122856571D01*
X94399142Y-122742285D01*
X94399142Y-122399428D01*
X94456285Y-122285142D01*
X94513428Y-122228000D01*
X94627714Y-122170857D01*
X94856285Y-122170857D01*
X94970571Y-122228000D01*
X96056285Y-122970857D02*
X96056285Y-121770857D01*
X96056285Y-122913714D02*
X95942000Y-122970857D01*
X95713428Y-122970857D01*
X95599142Y-122913714D01*
X95542000Y-122856571D01*
X95484857Y-122742285D01*
X95484857Y-122399428D01*
X95542000Y-122285142D01*
X95599142Y-122228000D01*
X95713428Y-122170857D01*
X95942000Y-122170857D01*
X96056285Y-122228000D01*
D16*
%TO.C,D_PW_3*%
X106056000Y-93106000D02*
X105656000Y-93106000D01*
X105656000Y-93106000D02*
X104256000Y-93106000D01*
X106056000Y-91806000D02*
X105656000Y-91806000D01*
X105656000Y-91806000D02*
X104256000Y-91806000D01*
X105656000Y-93106000D02*
X105656000Y-91806000D01*
D15*
%TO.C,U_CN_1*%
X117418000Y-125674000D02*
G75*
G03*
X117418000Y-125674000I-100000J0D01*
G01*
X109068000Y-122584000D02*
X109068000Y-121374000D01*
X118008000Y-122584000D02*
X118008000Y-121374000D01*
X109068000Y-117164000D02*
X109068000Y-118654000D01*
X118008000Y-117164000D02*
X109068000Y-117164000D01*
X118008000Y-118654000D02*
X118008000Y-117164000D01*
D17*
%TO.C,U_ESP_1*%
X112800000Y-93936000D02*
X112800000Y-94716000D01*
X112800000Y-94716000D02*
X113800000Y-94716000D01*
X131040000Y-93936000D02*
X131040000Y-94716000D01*
X131040000Y-94716000D02*
X130040000Y-94716000D01*
X112800000Y-68971000D02*
X131040000Y-68971000D01*
X131040000Y-68971000D02*
X131040000Y-75391000D01*
X112800000Y-68971000D02*
X112800000Y-75391000D01*
X112800000Y-75391000D02*
X112420000Y-75391000D01*
D16*
%TO.C,D_PW_1*%
X105425000Y-114670000D02*
X105425000Y-115070000D01*
X105425000Y-115070000D02*
X105425000Y-116470000D01*
X104125000Y-114670000D02*
X104125000Y-115070000D01*
X104125000Y-115070000D02*
X104125000Y-116470000D01*
X105425000Y-115070000D02*
X104125000Y-115070000D01*
D18*
%TO.C,C_PW_2*%
X89672998Y-106106449D02*
X89672998Y-105221551D01*
X87619002Y-105221551D02*
X87619002Y-106106449D01*
D19*
%TO.C,C_PW_4*%
X95188000Y-100526000D02*
X95488000Y-100526000D01*
X95188000Y-99626000D02*
X95488000Y-99626000D01*
D18*
%TO.C,C_PW_5*%
X97470449Y-91683002D02*
X96585551Y-91683002D01*
X96585551Y-93736998D02*
X97470449Y-93736998D01*
%TO.C,CP_ESP_1*%
X106352340Y-89027000D02*
X108839000Y-89027000D01*
X104467660Y-82169000D02*
X101981000Y-82169000D01*
X108839000Y-82169000D02*
X106352340Y-82169000D01*
X108839000Y-89027000D02*
X108839000Y-82169000D01*
X101981000Y-89027000D02*
X104467660Y-89027000D01*
X101981000Y-82169000D02*
X101981000Y-89027000D01*
D16*
%TO.C,D_PW_2*%
X105806000Y-107450000D02*
X104506000Y-107450000D01*
X104506000Y-107450000D02*
X104506000Y-108850000D01*
X104506000Y-107050000D02*
X104506000Y-107450000D01*
X105806000Y-107450000D02*
X105806000Y-108850000D01*
X105806000Y-107050000D02*
X105806000Y-107450000D01*
D15*
%TO.C,H_CN_1*%
X126632000Y-115710000D02*
G75*
G03*
X126632000Y-115710000I-100000J0D01*
G01*
D19*
X134032000Y-119510000D02*
X124032000Y-119510000D01*
X134032000Y-116710000D02*
X134032000Y-119510000D01*
X124032000Y-116710000D02*
X134032000Y-116710000D01*
X124032000Y-119510000D02*
X124032000Y-116710000D01*
%TO.C,H_CN_2*%
X134998000Y-116666000D02*
X137798000Y-116666000D01*
X137798000Y-116666000D02*
X137798000Y-126666000D01*
X137798000Y-126666000D02*
X134998000Y-126666000D01*
X134998000Y-126666000D02*
X134998000Y-116666000D01*
D15*
X138898000Y-119166000D02*
G75*
G03*
X138898000Y-119166000I-100000J0D01*
G01*
%TO.C,H_CN_3*%
X87616000Y-122388000D02*
G75*
G03*
X87616000Y-122388000I-100000J0D01*
G01*
D19*
X91316000Y-114888000D02*
X91316000Y-124888000D01*
X88516000Y-114888000D02*
X91316000Y-114888000D01*
X88516000Y-124888000D02*
X88516000Y-114888000D01*
X91316000Y-124888000D02*
X88516000Y-124888000D01*
D15*
%TO.C,H_CN_4*%
X126632000Y-122822000D02*
G75*
G03*
X126632000Y-122822000I-100000J0D01*
G01*
D19*
X134032000Y-126622000D02*
X124032000Y-126622000D01*
X134032000Y-123822000D02*
X134032000Y-126622000D01*
X124032000Y-123822000D02*
X134032000Y-123822000D01*
X124032000Y-126622000D02*
X124032000Y-123822000D01*
%TO.C,H_CN_5*%
X92028000Y-117732000D02*
X92028000Y-114932000D01*
X92028000Y-114932000D02*
X102028000Y-114932000D01*
X102028000Y-114932000D02*
X102028000Y-117732000D01*
X102028000Y-117732000D02*
X92028000Y-117732000D01*
D15*
X94628000Y-113932000D02*
G75*
G03*
X94628000Y-113932000I-100000J0D01*
G01*
%TO.C,H_IMU_1*%
X135114000Y-87336000D02*
G75*
G03*
X135114000Y-87336000I-100000J0D01*
G01*
D19*
X138814000Y-79836000D02*
X138814000Y-89836000D01*
X136014000Y-79836000D02*
X138814000Y-79836000D01*
X136014000Y-89836000D02*
X136014000Y-79836000D01*
X138814000Y-89836000D02*
X136014000Y-89836000D01*
D15*
%TO.C,H_IMU_2*%
X112662000Y-100724000D02*
G75*
G03*
X112662000Y-100724000I-100000J0D01*
G01*
D19*
X120062000Y-104524000D02*
X110062000Y-104524000D01*
X120062000Y-101724000D02*
X120062000Y-104524000D01*
X110062000Y-101724000D02*
X120062000Y-101724000D01*
X110062000Y-104524000D02*
X110062000Y-101724000D01*
%TO.C,H_IMU_3*%
X137882000Y-112138000D02*
X137882000Y-114938000D01*
X137882000Y-114938000D02*
X127882000Y-114938000D01*
X127882000Y-114938000D02*
X127882000Y-112138000D01*
X127882000Y-112138000D02*
X137882000Y-112138000D01*
D15*
X135482000Y-115938000D02*
G75*
G03*
X135482000Y-115938000I-100000J0D01*
G01*
%TO.C,H_PW_1*%
X110376000Y-111392000D02*
G75*
G03*
X110376000Y-111392000I-100000J0D01*
G01*
D19*
X117776000Y-115192000D02*
X107776000Y-115192000D01*
X117776000Y-112392000D02*
X117776000Y-115192000D01*
X107776000Y-112392000D02*
X117776000Y-112392000D01*
X107776000Y-115192000D02*
X107776000Y-112392000D01*
D15*
%TO.C,H_PW_2*%
X97422000Y-122822000D02*
G75*
G03*
X97422000Y-122822000I-100000J0D01*
G01*
D19*
X104822000Y-126622000D02*
X94822000Y-126622000D01*
X104822000Y-123822000D02*
X104822000Y-126622000D01*
X94822000Y-123822000D02*
X104822000Y-123822000D01*
X94822000Y-126622000D02*
X94822000Y-123822000D01*
D15*
%TO.C,H_PW_3*%
X103364000Y-76668000D02*
G75*
G03*
X103364000Y-76668000I-100000J0D01*
G01*
D19*
X107064000Y-69168000D02*
X107064000Y-79168000D01*
X104264000Y-69168000D02*
X107064000Y-69168000D01*
X104264000Y-79168000D02*
X104264000Y-69168000D01*
X107064000Y-79168000D02*
X104264000Y-79168000D01*
D17*
%TO.C,J_ESP_1*%
X81026000Y-75124000D02*
X82356000Y-75124000D01*
X82356000Y-75124000D02*
X82356000Y-76454000D01*
X82356000Y-77724000D02*
X82356000Y-126044000D01*
X79696000Y-126044000D02*
X82356000Y-126044000D01*
X79696000Y-77724000D02*
X79696000Y-126044000D01*
X79696000Y-77724000D02*
X82356000Y-77724000D01*
%TO.C,J_ESP_2*%
X144078000Y-123698000D02*
X141418000Y-123698000D01*
X144078000Y-123698000D02*
X144078000Y-75378000D01*
X144078000Y-75378000D02*
X141418000Y-75378000D01*
X141418000Y-123698000D02*
X141418000Y-75378000D01*
X141418000Y-126298000D02*
X141418000Y-124968000D01*
X142748000Y-126298000D02*
X141418000Y-126298000D01*
D18*
%TO.C,L_PW_1*%
X101676200Y-101574600D02*
G75*
G03*
X101676200Y-101574600I-76200J0D01*
G01*
X100749100Y-98082100D02*
X100749100Y-100545900D01*
X102450900Y-100545900D02*
X102450900Y-98082100D01*
D17*
%TO.C,LED_ESP_1*%
X93753000Y-82563500D02*
X93753000Y-84848500D01*
X95223000Y-82563500D02*
X93753000Y-82563500D01*
X95223000Y-84848500D02*
X95223000Y-82563500D01*
D18*
%TO.C,Q_PW_1*%
X108597700Y-108750100D02*
G75*
G03*
X108597700Y-108750100I-127000J0D01*
G01*
X110635260Y-106616500D02*
X109613700Y-106616500D01*
X109613700Y-106616500D02*
X109613700Y-108267500D01*
X112890300Y-106616500D02*
X111868740Y-106616500D01*
X112890300Y-108267500D02*
X112890300Y-106616500D01*
X110916240Y-108267500D02*
X111587760Y-108267500D01*
D19*
%TO.C,R_ESP_2*%
X97340000Y-78342000D02*
X97340000Y-78122000D01*
X98240000Y-78342000D02*
X98240000Y-78122000D01*
%TO.C,R_ESP_4*%
X94165000Y-78122000D02*
X94165000Y-78342000D01*
X95065000Y-78122000D02*
X95065000Y-78342000D01*
%TO.C,R_IMU_1*%
X135578000Y-94090000D02*
X135578000Y-93870000D01*
X134678000Y-94090000D02*
X134678000Y-93870000D01*
%TO.C,R_IMU_2*%
X138626000Y-93870000D02*
X138626000Y-94090000D01*
X137726000Y-93870000D02*
X137726000Y-94090000D01*
%TO.C,R_PW_1*%
X122826000Y-106738000D02*
X123046000Y-106738000D01*
X122826000Y-107638000D02*
X123046000Y-107638000D01*
%TO.C,R_PW_2*%
X123386000Y-110854000D02*
X123386000Y-110634000D01*
X122486000Y-110854000D02*
X122486000Y-110634000D01*
%TO.C,R_PW_3*%
X119438000Y-110854000D02*
X119438000Y-110634000D01*
X120338000Y-110854000D02*
X120338000Y-110634000D01*
%TO.C,R_PW_4*%
X115968000Y-107892000D02*
X116188000Y-107892000D01*
X115968000Y-106992000D02*
X116188000Y-106992000D01*
D18*
%TO.C,SW_ESP_1*%
X91164500Y-70154999D02*
G75*
G03*
X91164500Y-70154999I-203200J0D01*
G01*
X92875100Y-70983041D02*
X92875100Y-72526959D01*
X96919914Y-69380100D02*
X93580086Y-69380100D01*
X97624900Y-72526959D02*
X97624900Y-70983041D01*
X93580086Y-74129900D02*
X96919914Y-74129900D01*
%TO.C,SW_ESP_2*%
X90258900Y-96665914D02*
X90258900Y-93326086D01*
X88655959Y-92621100D02*
X87112041Y-92621100D01*
X85509100Y-93326086D02*
X85509100Y-96665914D01*
X87112041Y-97370900D02*
X88655959Y-97370900D01*
X86487199Y-99284700D02*
G75*
G03*
X86487199Y-99284700I-203200J0D01*
G01*
D19*
%TO.C,U_IMU_1*%
X134392000Y-100614000D02*
X133992000Y-100614000D01*
X131292000Y-100614000D02*
X131692000Y-100614000D01*
X134392000Y-98014000D02*
X133992000Y-98014000D01*
X131692000Y-98014000D02*
X131292000Y-98014000D01*
D10*
X130792000Y-98314000D02*
G75*
G03*
X130792000Y-98314000I-50000J0D01*
G01*
D18*
%TO.C,U_PW_1*%
X97690745Y-106847136D02*
G75*
G03*
X97654199Y-106990200I-36546J-66864D01*
G01*
%TO.C,D_PW_3*%
D20*
X104205347Y-93821103D02*
X104205347Y-93500835D01*
X104281602Y-93500835D01*
X104327354Y-93516086D01*
X104357856Y-93546587D01*
X104373107Y-93577089D01*
X104388358Y-93638092D01*
X104388358Y-93683845D01*
X104373107Y-93744848D01*
X104357856Y-93775350D01*
X104327354Y-93805852D01*
X104281602Y-93821103D01*
X104205347Y-93821103D01*
X104449361Y-93851604D02*
X104693375Y-93851604D01*
X104769629Y-93821103D02*
X104769629Y-93500835D01*
X104891636Y-93500835D01*
X104922138Y-93516086D01*
X104937388Y-93531336D01*
X104952639Y-93561838D01*
X104952639Y-93607591D01*
X104937388Y-93638092D01*
X104922138Y-93653343D01*
X104891636Y-93668594D01*
X104769629Y-93668594D01*
X105059395Y-93500835D02*
X105135650Y-93821103D01*
X105196653Y-93592340D01*
X105257656Y-93821103D01*
X105333911Y-93500835D01*
X105379663Y-93851604D02*
X105623677Y-93851604D01*
X105669430Y-93500835D02*
X105867691Y-93500835D01*
X105760935Y-93622842D01*
X105806687Y-93622842D01*
X105837189Y-93638092D01*
X105852440Y-93653343D01*
X105867691Y-93683845D01*
X105867691Y-93760099D01*
X105852440Y-93790601D01*
X105837189Y-93805852D01*
X105806687Y-93821103D01*
X105715182Y-93821103D01*
X105684680Y-93805852D01*
X105669430Y-93790601D01*
%TO.C,C_PW_1*%
X99925306Y-109950914D02*
X99972946Y-109998554D01*
X100020587Y-110141477D01*
X100020587Y-110236758D01*
X99972946Y-110379681D01*
X99877665Y-110474962D01*
X99782383Y-110522603D01*
X99591820Y-110570244D01*
X99448897Y-110570244D01*
X99258334Y-110522603D01*
X99163053Y-110474962D01*
X99067771Y-110379681D01*
X99020130Y-110236758D01*
X99020130Y-110141477D01*
X99067771Y-109998554D01*
X99115412Y-109950914D01*
X100115869Y-109760350D02*
X100115869Y-108998097D01*
X100020587Y-108759893D02*
X99020130Y-108759893D01*
X99020130Y-108378767D01*
X99067771Y-108283485D01*
X99115412Y-108235844D01*
X99210693Y-108188204D01*
X99353616Y-108188204D01*
X99448897Y-108235844D01*
X99496538Y-108283485D01*
X99544179Y-108378767D01*
X99544179Y-108759893D01*
X99020130Y-107854718D02*
X100020587Y-107616514D01*
X99305975Y-107425951D01*
X100020587Y-107235387D01*
X99020130Y-106997183D01*
X100115869Y-106854261D02*
X100115869Y-106092008D01*
X100020587Y-105329755D02*
X100020587Y-105901445D01*
X100020587Y-105615600D02*
X99020130Y-105615600D01*
X99163053Y-105710881D01*
X99258334Y-105806163D01*
X99305975Y-105901445D01*
%TO.C,U_ESP_1*%
D11*
X110196380Y-82835380D02*
X111005904Y-82835380D01*
X111101142Y-82787761D01*
X111148761Y-82740142D01*
X111196380Y-82644904D01*
X111196380Y-82454428D01*
X111148761Y-82359190D01*
X111101142Y-82311571D01*
X111005904Y-82263952D01*
X110196380Y-82263952D01*
X111291619Y-82025857D02*
X111291619Y-81263952D01*
X110672571Y-81025857D02*
X110672571Y-80692523D01*
X111196380Y-80549666D02*
X111196380Y-81025857D01*
X110196380Y-81025857D01*
X110196380Y-80549666D01*
X111148761Y-80168714D02*
X111196380Y-80025857D01*
X111196380Y-79787761D01*
X111148761Y-79692523D01*
X111101142Y-79644904D01*
X111005904Y-79597285D01*
X110910666Y-79597285D01*
X110815428Y-79644904D01*
X110767809Y-79692523D01*
X110720190Y-79787761D01*
X110672571Y-79978238D01*
X110624952Y-80073476D01*
X110577333Y-80121095D01*
X110482095Y-80168714D01*
X110386857Y-80168714D01*
X110291619Y-80121095D01*
X110244000Y-80073476D01*
X110196380Y-79978238D01*
X110196380Y-79740142D01*
X110244000Y-79597285D01*
X111196380Y-79168714D02*
X110196380Y-79168714D01*
X110196380Y-78787761D01*
X110244000Y-78692523D01*
X110291619Y-78644904D01*
X110386857Y-78597285D01*
X110529714Y-78597285D01*
X110624952Y-78644904D01*
X110672571Y-78692523D01*
X110720190Y-78787761D01*
X110720190Y-79168714D01*
X111291619Y-78406809D02*
X111291619Y-77644904D01*
X111196380Y-76883000D02*
X111196380Y-77454428D01*
X111196380Y-77168714D02*
X110196380Y-77168714D01*
X110339238Y-77263952D01*
X110434476Y-77359190D01*
X110482095Y-77454428D01*
%TO.C,D_PW_1*%
D20*
X106140103Y-116520652D02*
X105819835Y-116520652D01*
X105819835Y-116444398D01*
X105835086Y-116398645D01*
X105865587Y-116368143D01*
X105896089Y-116352892D01*
X105957092Y-116337642D01*
X106002845Y-116337642D01*
X106063848Y-116352892D01*
X106094350Y-116368143D01*
X106124852Y-116398645D01*
X106140103Y-116444398D01*
X106140103Y-116520652D01*
X106170604Y-116276638D02*
X106170604Y-116032624D01*
X106140103Y-115956370D02*
X105819835Y-115956370D01*
X105819835Y-115834363D01*
X105835086Y-115803862D01*
X105850336Y-115788611D01*
X105880838Y-115773360D01*
X105926591Y-115773360D01*
X105957092Y-115788611D01*
X105972343Y-115803862D01*
X105987594Y-115834363D01*
X105987594Y-115956370D01*
X105819835Y-115666604D02*
X106140103Y-115590350D01*
X105911340Y-115529346D01*
X106140103Y-115468343D01*
X105819835Y-115392088D01*
X106170604Y-115346336D02*
X106170604Y-115102322D01*
X106140103Y-114858308D02*
X106140103Y-115041319D01*
X106140103Y-114949814D02*
X105819835Y-114949814D01*
X105865587Y-114980315D01*
X105896089Y-115010817D01*
X105911340Y-115041319D01*
%TO.C,C_ESP_1*%
X133901990Y-77390607D02*
X133883242Y-77409355D01*
X133826999Y-77428102D01*
X133789504Y-77428102D01*
X133733261Y-77409355D01*
X133695766Y-77371859D01*
X133677018Y-77334364D01*
X133658270Y-77259373D01*
X133658270Y-77203130D01*
X133677018Y-77128140D01*
X133695766Y-77090644D01*
X133733261Y-77053149D01*
X133789504Y-77034401D01*
X133826999Y-77034401D01*
X133883242Y-77053149D01*
X133901990Y-77071897D01*
X133976981Y-77465598D02*
X134276943Y-77465598D01*
X134370682Y-77221878D02*
X134501915Y-77221878D01*
X134558158Y-77428102D02*
X134370682Y-77428102D01*
X134370682Y-77034401D01*
X134558158Y-77034401D01*
X134708140Y-77409355D02*
X134764383Y-77428102D01*
X134858121Y-77428102D01*
X134895616Y-77409355D01*
X134914364Y-77390607D01*
X134933112Y-77353112D01*
X134933112Y-77315616D01*
X134914364Y-77278121D01*
X134895616Y-77259373D01*
X134858121Y-77240626D01*
X134783130Y-77221878D01*
X134745635Y-77203130D01*
X134726887Y-77184383D01*
X134708140Y-77146887D01*
X134708140Y-77109392D01*
X134726887Y-77071897D01*
X134745635Y-77053149D01*
X134783130Y-77034401D01*
X134876869Y-77034401D01*
X134933112Y-77053149D01*
X135101841Y-77428102D02*
X135101841Y-77034401D01*
X135251822Y-77034401D01*
X135289317Y-77053149D01*
X135308065Y-77071897D01*
X135326813Y-77109392D01*
X135326813Y-77165635D01*
X135308065Y-77203130D01*
X135289317Y-77221878D01*
X135251822Y-77240626D01*
X135101841Y-77240626D01*
X135401803Y-77465598D02*
X135701766Y-77465598D01*
X136001729Y-77428102D02*
X135776757Y-77428102D01*
X135889243Y-77428102D02*
X135889243Y-77034401D01*
X135851747Y-77090644D01*
X135814252Y-77128140D01*
X135776757Y-77146887D01*
%TO.C,C_IMU_1*%
X122255485Y-100758607D02*
X122236738Y-100777355D01*
X122180495Y-100796102D01*
X122142999Y-100796102D01*
X122086756Y-100777355D01*
X122049261Y-100739859D01*
X122030513Y-100702364D01*
X122011766Y-100627373D01*
X122011766Y-100571130D01*
X122030513Y-100496140D01*
X122049261Y-100458644D01*
X122086756Y-100421149D01*
X122142999Y-100402401D01*
X122180495Y-100402401D01*
X122236738Y-100421149D01*
X122255485Y-100439897D01*
X122330476Y-100833598D02*
X122630439Y-100833598D01*
X122724177Y-100796102D02*
X122724177Y-100402401D01*
X122911654Y-100796102D02*
X122911654Y-100402401D01*
X123042887Y-100683616D01*
X123174121Y-100402401D01*
X123174121Y-100796102D01*
X123361598Y-100402401D02*
X123361598Y-100721112D01*
X123380345Y-100758607D01*
X123399093Y-100777355D01*
X123436588Y-100796102D01*
X123511579Y-100796102D01*
X123549074Y-100777355D01*
X123567822Y-100758607D01*
X123586570Y-100721112D01*
X123586570Y-100402401D01*
X123680308Y-100833598D02*
X123980271Y-100833598D01*
X124280233Y-100796102D02*
X124055261Y-100796102D01*
X124167747Y-100796102D02*
X124167747Y-100402401D01*
X124130252Y-100458644D01*
X124092757Y-100496140D01*
X124055261Y-100514887D01*
%TO.C,C_IMU_2*%
X126598607Y-101176514D02*
X126617355Y-101195261D01*
X126636102Y-101251504D01*
X126636102Y-101289000D01*
X126617355Y-101345243D01*
X126579859Y-101382738D01*
X126542364Y-101401486D01*
X126467373Y-101420233D01*
X126411130Y-101420233D01*
X126336140Y-101401486D01*
X126298644Y-101382738D01*
X126261149Y-101345243D01*
X126242401Y-101289000D01*
X126242401Y-101251504D01*
X126261149Y-101195261D01*
X126279897Y-101176514D01*
X126673598Y-101101523D02*
X126673598Y-100801560D01*
X126636102Y-100707822D02*
X126242401Y-100707822D01*
X126636102Y-100520345D02*
X126242401Y-100520345D01*
X126523616Y-100389112D01*
X126242401Y-100257878D01*
X126636102Y-100257878D01*
X126242401Y-100070401D02*
X126561112Y-100070401D01*
X126598607Y-100051654D01*
X126617355Y-100032906D01*
X126636102Y-99995411D01*
X126636102Y-99920420D01*
X126617355Y-99882925D01*
X126598607Y-99864177D01*
X126561112Y-99845429D01*
X126242401Y-99845429D01*
X126673598Y-99751691D02*
X126673598Y-99451728D01*
X126279897Y-99376738D02*
X126261149Y-99357990D01*
X126242401Y-99320495D01*
X126242401Y-99226756D01*
X126261149Y-99189261D01*
X126279897Y-99170513D01*
X126317392Y-99151766D01*
X126354887Y-99151766D01*
X126411130Y-99170513D01*
X126636102Y-99395485D01*
X126636102Y-99151766D01*
%TO.C,C_IMU_3*%
X133519485Y-102214607D02*
X133500738Y-102233355D01*
X133444495Y-102252102D01*
X133406999Y-102252102D01*
X133350756Y-102233355D01*
X133313261Y-102195859D01*
X133294513Y-102158364D01*
X133275766Y-102083373D01*
X133275766Y-102027130D01*
X133294513Y-101952140D01*
X133313261Y-101914644D01*
X133350756Y-101877149D01*
X133406999Y-101858401D01*
X133444495Y-101858401D01*
X133500738Y-101877149D01*
X133519485Y-101895897D01*
X133594476Y-102289598D02*
X133894439Y-102289598D01*
X133988177Y-102252102D02*
X133988177Y-101858401D01*
X134175654Y-102252102D02*
X134175654Y-101858401D01*
X134306887Y-102139616D01*
X134438121Y-101858401D01*
X134438121Y-102252102D01*
X134625598Y-101858401D02*
X134625598Y-102177112D01*
X134644345Y-102214607D01*
X134663093Y-102233355D01*
X134700588Y-102252102D01*
X134775579Y-102252102D01*
X134813074Y-102233355D01*
X134831822Y-102214607D01*
X134850570Y-102177112D01*
X134850570Y-101858401D01*
X134944308Y-102289598D02*
X135244271Y-102289598D01*
X135300514Y-101858401D02*
X135544233Y-101858401D01*
X135413000Y-102008383D01*
X135469243Y-102008383D01*
X135506738Y-102027130D01*
X135525486Y-102045878D01*
X135544233Y-102083373D01*
X135544233Y-102177112D01*
X135525486Y-102214607D01*
X135506738Y-102233355D01*
X135469243Y-102252102D01*
X135356757Y-102252102D01*
X135319261Y-102233355D01*
X135300514Y-102214607D01*
%TO.C,C_IMU_4*%
X139874607Y-101264514D02*
X139893355Y-101283261D01*
X139912102Y-101339504D01*
X139912102Y-101377000D01*
X139893355Y-101433243D01*
X139855859Y-101470738D01*
X139818364Y-101489486D01*
X139743373Y-101508233D01*
X139687130Y-101508233D01*
X139612140Y-101489486D01*
X139574644Y-101470738D01*
X139537149Y-101433243D01*
X139518401Y-101377000D01*
X139518401Y-101339504D01*
X139537149Y-101283261D01*
X139555897Y-101264514D01*
X139949598Y-101189523D02*
X139949598Y-100889560D01*
X139912102Y-100795822D02*
X139518401Y-100795822D01*
X139912102Y-100608345D02*
X139518401Y-100608345D01*
X139799616Y-100477112D01*
X139518401Y-100345878D01*
X139912102Y-100345878D01*
X139518401Y-100158401D02*
X139837112Y-100158401D01*
X139874607Y-100139654D01*
X139893355Y-100120906D01*
X139912102Y-100083411D01*
X139912102Y-100008420D01*
X139893355Y-99970925D01*
X139874607Y-99952177D01*
X139837112Y-99933429D01*
X139518401Y-99933429D01*
X139949598Y-99839691D02*
X139949598Y-99539728D01*
X139649635Y-99277261D02*
X139912102Y-99277261D01*
X139499654Y-99370999D02*
X139780869Y-99464738D01*
X139780869Y-99221018D01*
%TO.C,C_IMU_5*%
X128947485Y-102468607D02*
X128928738Y-102487355D01*
X128872495Y-102506102D01*
X128834999Y-102506102D01*
X128778756Y-102487355D01*
X128741261Y-102449859D01*
X128722513Y-102412364D01*
X128703766Y-102337373D01*
X128703766Y-102281130D01*
X128722513Y-102206140D01*
X128741261Y-102168644D01*
X128778756Y-102131149D01*
X128834999Y-102112401D01*
X128872495Y-102112401D01*
X128928738Y-102131149D01*
X128947485Y-102149897D01*
X129022476Y-102543598D02*
X129322439Y-102543598D01*
X129416177Y-102506102D02*
X129416177Y-102112401D01*
X129603654Y-102506102D02*
X129603654Y-102112401D01*
X129734887Y-102393616D01*
X129866121Y-102112401D01*
X129866121Y-102506102D01*
X130053598Y-102112401D02*
X130053598Y-102431112D01*
X130072345Y-102468607D01*
X130091093Y-102487355D01*
X130128588Y-102506102D01*
X130203579Y-102506102D01*
X130241074Y-102487355D01*
X130259822Y-102468607D01*
X130278570Y-102431112D01*
X130278570Y-102112401D01*
X130372308Y-102543598D02*
X130672271Y-102543598D01*
X130953486Y-102112401D02*
X130766009Y-102112401D01*
X130747261Y-102299878D01*
X130766009Y-102281130D01*
X130803504Y-102262383D01*
X130897243Y-102262383D01*
X130934738Y-102281130D01*
X130953486Y-102299878D01*
X130972233Y-102337373D01*
X130972233Y-102431112D01*
X130953486Y-102468607D01*
X130934738Y-102487355D01*
X130897243Y-102506102D01*
X130803504Y-102506102D01*
X130766009Y-102487355D01*
X130747261Y-102468607D01*
%TO.C,C_PW_2*%
D11*
X86971142Y-107664000D02*
X87018761Y-107711619D01*
X87066380Y-107854476D01*
X87066380Y-107949714D01*
X87018761Y-108092571D01*
X86923523Y-108187809D01*
X86828285Y-108235428D01*
X86637809Y-108283047D01*
X86494952Y-108283047D01*
X86304476Y-108235428D01*
X86209238Y-108187809D01*
X86114000Y-108092571D01*
X86066380Y-107949714D01*
X86066380Y-107854476D01*
X86114000Y-107711619D01*
X86161619Y-107664000D01*
X87161619Y-107473523D02*
X87161619Y-106711619D01*
X87066380Y-106473523D02*
X86066380Y-106473523D01*
X86066380Y-106092571D01*
X86114000Y-105997333D01*
X86161619Y-105949714D01*
X86256857Y-105902095D01*
X86399714Y-105902095D01*
X86494952Y-105949714D01*
X86542571Y-105997333D01*
X86590190Y-106092571D01*
X86590190Y-106473523D01*
X86066380Y-105568761D02*
X87066380Y-105330666D01*
X86352095Y-105140190D01*
X87066380Y-104949714D01*
X86066380Y-104711619D01*
X87161619Y-104568761D02*
X87161619Y-103806857D01*
X86161619Y-103616380D02*
X86114000Y-103568761D01*
X86066380Y-103473523D01*
X86066380Y-103235428D01*
X86114000Y-103140190D01*
X86161619Y-103092571D01*
X86256857Y-103044952D01*
X86352095Y-103044952D01*
X86494952Y-103092571D01*
X87066380Y-103664000D01*
X87066380Y-103044952D01*
%TO.C,C_PW_3*%
D20*
X83597086Y-110847306D02*
X83549445Y-110894946D01*
X83406522Y-110942587D01*
X83311241Y-110942587D01*
X83168318Y-110894946D01*
X83073037Y-110799665D01*
X83025396Y-110704383D01*
X82977755Y-110513820D01*
X82977755Y-110370897D01*
X83025396Y-110180334D01*
X83073037Y-110085053D01*
X83168318Y-109989771D01*
X83311241Y-109942130D01*
X83406522Y-109942130D01*
X83549445Y-109989771D01*
X83597086Y-110037412D01*
X83787649Y-111037869D02*
X84549902Y-111037869D01*
X84788106Y-110942587D02*
X84788106Y-109942130D01*
X85169232Y-109942130D01*
X85264514Y-109989771D01*
X85312155Y-110037412D01*
X85359795Y-110132693D01*
X85359795Y-110275616D01*
X85312155Y-110370897D01*
X85264514Y-110418538D01*
X85169232Y-110466179D01*
X84788106Y-110466179D01*
X85693281Y-109942130D02*
X85931485Y-110942587D01*
X86122048Y-110227975D01*
X86312612Y-110942587D01*
X86550816Y-109942130D01*
X86693738Y-111037869D02*
X87455991Y-111037869D01*
X87598914Y-109942130D02*
X88218244Y-109942130D01*
X87884758Y-110323257D01*
X88027681Y-110323257D01*
X88122962Y-110370897D01*
X88170603Y-110418538D01*
X88218244Y-110513820D01*
X88218244Y-110752024D01*
X88170603Y-110847306D01*
X88122962Y-110894946D01*
X88027681Y-110942587D01*
X87741836Y-110942587D01*
X87646554Y-110894946D01*
X87598914Y-110847306D01*
%TO.C,C_PW_4*%
X94154058Y-99006056D02*
X94131483Y-99028631D01*
X94063759Y-99051205D01*
X94018610Y-99051205D01*
X93950886Y-99028631D01*
X93905737Y-98983482D01*
X93883162Y-98938332D01*
X93860587Y-98848034D01*
X93860587Y-98780310D01*
X93883162Y-98690011D01*
X93905737Y-98644862D01*
X93950886Y-98599713D01*
X94018610Y-98577138D01*
X94063759Y-98577138D01*
X94131483Y-98599713D01*
X94154058Y-98622288D01*
X94244356Y-99096355D02*
X94605550Y-99096355D01*
X94718423Y-99051205D02*
X94718423Y-98577138D01*
X94899020Y-98577138D01*
X94944169Y-98599713D01*
X94966744Y-98622288D01*
X94989318Y-98667437D01*
X94989318Y-98735161D01*
X94966744Y-98780310D01*
X94944169Y-98802885D01*
X94899020Y-98825459D01*
X94718423Y-98825459D01*
X95147341Y-98577138D02*
X95260214Y-99051205D01*
X95350512Y-98712586D01*
X95440811Y-99051205D01*
X95553684Y-98577138D01*
X95621408Y-99096355D02*
X95982602Y-99096355D01*
X96298646Y-98735161D02*
X96298646Y-99051205D01*
X96185773Y-98554564D02*
X96072900Y-98893183D01*
X96366370Y-98893183D01*
%TO.C,C_PW_5*%
D11*
X94774000Y-95353142D02*
X94726380Y-95400761D01*
X94583523Y-95448380D01*
X94488285Y-95448380D01*
X94345428Y-95400761D01*
X94250190Y-95305523D01*
X94202571Y-95210285D01*
X94154952Y-95019809D01*
X94154952Y-94876952D01*
X94202571Y-94686476D01*
X94250190Y-94591238D01*
X94345428Y-94496000D01*
X94488285Y-94448380D01*
X94583523Y-94448380D01*
X94726380Y-94496000D01*
X94774000Y-94543619D01*
X94964476Y-95543619D02*
X95726380Y-95543619D01*
X95964476Y-95448380D02*
X95964476Y-94448380D01*
X96345428Y-94448380D01*
X96440666Y-94496000D01*
X96488285Y-94543619D01*
X96535904Y-94638857D01*
X96535904Y-94781714D01*
X96488285Y-94876952D01*
X96440666Y-94924571D01*
X96345428Y-94972190D01*
X95964476Y-94972190D01*
X96869238Y-94448380D02*
X97107333Y-95448380D01*
X97297809Y-94734095D01*
X97488285Y-95448380D01*
X97726380Y-94448380D01*
X97869238Y-95543619D02*
X98631142Y-95543619D01*
X99345428Y-94448380D02*
X98869238Y-94448380D01*
X98821619Y-94924571D01*
X98869238Y-94876952D01*
X98964476Y-94829333D01*
X99202571Y-94829333D01*
X99297809Y-94876952D01*
X99345428Y-94924571D01*
X99393047Y-95019809D01*
X99393047Y-95257904D01*
X99345428Y-95353142D01*
X99297809Y-95400761D01*
X99202571Y-95448380D01*
X98964476Y-95448380D01*
X98869238Y-95400761D01*
X98821619Y-95353142D01*
X97028000Y-92162380D02*
X97028000Y-92400476D01*
X96789904Y-92305238D02*
X97028000Y-92400476D01*
X97266095Y-92305238D01*
X96885142Y-92590952D02*
X97028000Y-92400476D01*
X97170857Y-92590952D01*
%TO.C,CP_ESP_1*%
X102552857Y-85955142D02*
X102505238Y-86002761D01*
X102362380Y-86050380D01*
X102267142Y-86050380D01*
X102124285Y-86002761D01*
X102029047Y-85907523D01*
X101981428Y-85812285D01*
X101933809Y-85621809D01*
X101933809Y-85478952D01*
X101981428Y-85288476D01*
X102029047Y-85193238D01*
X102124285Y-85098000D01*
X102267142Y-85050380D01*
X102362380Y-85050380D01*
X102505238Y-85098000D01*
X102552857Y-85145619D01*
X102981428Y-86050380D02*
X102981428Y-85050380D01*
X103362380Y-85050380D01*
X103457619Y-85098000D01*
X103505238Y-85145619D01*
X103552857Y-85240857D01*
X103552857Y-85383714D01*
X103505238Y-85478952D01*
X103457619Y-85526571D01*
X103362380Y-85574190D01*
X102981428Y-85574190D01*
X103743333Y-86145619D02*
X104505238Y-86145619D01*
X104743333Y-85526571D02*
X105076666Y-85526571D01*
X105219523Y-86050380D02*
X104743333Y-86050380D01*
X104743333Y-85050380D01*
X105219523Y-85050380D01*
X105600476Y-86002761D02*
X105743333Y-86050380D01*
X105981428Y-86050380D01*
X106076666Y-86002761D01*
X106124285Y-85955142D01*
X106171904Y-85859904D01*
X106171904Y-85764666D01*
X106124285Y-85669428D01*
X106076666Y-85621809D01*
X105981428Y-85574190D01*
X105790952Y-85526571D01*
X105695714Y-85478952D01*
X105648095Y-85431333D01*
X105600476Y-85336095D01*
X105600476Y-85240857D01*
X105648095Y-85145619D01*
X105695714Y-85098000D01*
X105790952Y-85050380D01*
X106029047Y-85050380D01*
X106171904Y-85098000D01*
X106600476Y-86050380D02*
X106600476Y-85050380D01*
X106981428Y-85050380D01*
X107076666Y-85098000D01*
X107124285Y-85145619D01*
X107171904Y-85240857D01*
X107171904Y-85383714D01*
X107124285Y-85478952D01*
X107076666Y-85526571D01*
X106981428Y-85574190D01*
X106600476Y-85574190D01*
X107362380Y-86145619D02*
X108124285Y-86145619D01*
X108886190Y-86050380D02*
X108314761Y-86050380D01*
X108600476Y-86050380D02*
X108600476Y-85050380D01*
X108505238Y-85193238D01*
X108410000Y-85288476D01*
X108314761Y-85336095D01*
X104862380Y-85598000D02*
X105100476Y-85598000D01*
X105005238Y-85836095D02*
X105100476Y-85598000D01*
X105005238Y-85359904D01*
X105290952Y-85740857D02*
X105100476Y-85598000D01*
X105290952Y-85455142D01*
%TO.C,D_PW_2*%
D20*
X104030883Y-109789546D02*
X103710615Y-109789546D01*
X103710615Y-109713292D01*
X103725866Y-109667539D01*
X103756367Y-109637037D01*
X103786869Y-109621786D01*
X103847872Y-109606536D01*
X103893625Y-109606536D01*
X103954628Y-109621786D01*
X103985130Y-109637037D01*
X104015632Y-109667539D01*
X104030883Y-109713292D01*
X104030883Y-109789546D01*
X104061384Y-109545532D02*
X104061384Y-109301518D01*
X104030883Y-109225264D02*
X103710615Y-109225264D01*
X103710615Y-109103257D01*
X103725866Y-109072756D01*
X103741116Y-109057505D01*
X103771618Y-109042254D01*
X103817371Y-109042254D01*
X103847872Y-109057505D01*
X103863123Y-109072756D01*
X103878374Y-109103257D01*
X103878374Y-109225264D01*
X103710615Y-108935498D02*
X104030883Y-108859244D01*
X103802120Y-108798240D01*
X104030883Y-108737237D01*
X103710615Y-108660982D01*
X104061384Y-108615230D02*
X104061384Y-108371216D01*
X103741116Y-108310213D02*
X103725866Y-108294962D01*
X103710615Y-108264460D01*
X103710615Y-108188206D01*
X103725866Y-108157704D01*
X103741116Y-108142453D01*
X103771618Y-108127202D01*
X103802120Y-108127202D01*
X103847872Y-108142453D01*
X104030883Y-108325464D01*
X104030883Y-108127202D01*
%TO.C,H_PW_3*%
X103008333Y-79356333D02*
X101608333Y-79356333D01*
X102275000Y-79356333D02*
X102275000Y-78556333D01*
X103008333Y-78556333D02*
X101608333Y-78556333D01*
X103141666Y-78223000D02*
X103141666Y-77156333D01*
X103008333Y-76823000D02*
X101608333Y-76823000D01*
X101608333Y-76289666D01*
X101675000Y-76156333D01*
X101741666Y-76089666D01*
X101875000Y-76023000D01*
X102075000Y-76023000D01*
X102208333Y-76089666D01*
X102275000Y-76156333D01*
X102341666Y-76289666D01*
X102341666Y-76823000D01*
X101608333Y-75556333D02*
X103008333Y-75223000D01*
X102008333Y-74956333D01*
X103008333Y-74689666D01*
X101608333Y-74356333D01*
X103141666Y-74156333D02*
X103141666Y-73089666D01*
X101608333Y-72889666D02*
X101608333Y-72023000D01*
X102141666Y-72489666D01*
X102141666Y-72289666D01*
X102208333Y-72156333D01*
X102275000Y-72089666D01*
X102408333Y-72023000D01*
X102741666Y-72023000D01*
X102875000Y-72089666D01*
X102941666Y-72156333D01*
X103008333Y-72289666D01*
X103008333Y-72689666D01*
X102941666Y-72823000D01*
X102875000Y-72889666D01*
%TO.C,J_ESP_1*%
D11*
X80097380Y-74024809D02*
X80811666Y-74024809D01*
X80954523Y-74072428D01*
X81049761Y-74167666D01*
X81097380Y-74310523D01*
X81097380Y-74405761D01*
X81192619Y-73786714D02*
X81192619Y-73024809D01*
X80573571Y-72786714D02*
X80573571Y-72453380D01*
X81097380Y-72310523D02*
X81097380Y-72786714D01*
X80097380Y-72786714D01*
X80097380Y-72310523D01*
X81049761Y-71929571D02*
X81097380Y-71786714D01*
X81097380Y-71548619D01*
X81049761Y-71453380D01*
X81002142Y-71405761D01*
X80906904Y-71358142D01*
X80811666Y-71358142D01*
X80716428Y-71405761D01*
X80668809Y-71453380D01*
X80621190Y-71548619D01*
X80573571Y-71739095D01*
X80525952Y-71834333D01*
X80478333Y-71881952D01*
X80383095Y-71929571D01*
X80287857Y-71929571D01*
X80192619Y-71881952D01*
X80145000Y-71834333D01*
X80097380Y-71739095D01*
X80097380Y-71501000D01*
X80145000Y-71358142D01*
X81097380Y-70929571D02*
X80097380Y-70929571D01*
X80097380Y-70548619D01*
X80145000Y-70453380D01*
X80192619Y-70405761D01*
X80287857Y-70358142D01*
X80430714Y-70358142D01*
X80525952Y-70405761D01*
X80573571Y-70453380D01*
X80621190Y-70548619D01*
X80621190Y-70929571D01*
X81192619Y-70167666D02*
X81192619Y-69405761D01*
X81097380Y-68643857D02*
X81097380Y-69215285D01*
X81097380Y-68929571D02*
X80097380Y-68929571D01*
X80240238Y-69024809D01*
X80335476Y-69120047D01*
X80383095Y-69215285D01*
%TO.C,J_ESP_2*%
X143216380Y-74278809D02*
X143930666Y-74278809D01*
X144073523Y-74326428D01*
X144168761Y-74421666D01*
X144216380Y-74564523D01*
X144216380Y-74659761D01*
X144311619Y-74040714D02*
X144311619Y-73278809D01*
X143692571Y-73040714D02*
X143692571Y-72707380D01*
X144216380Y-72564523D02*
X144216380Y-73040714D01*
X143216380Y-73040714D01*
X143216380Y-72564523D01*
X144168761Y-72183571D02*
X144216380Y-72040714D01*
X144216380Y-71802619D01*
X144168761Y-71707380D01*
X144121142Y-71659761D01*
X144025904Y-71612142D01*
X143930666Y-71612142D01*
X143835428Y-71659761D01*
X143787809Y-71707380D01*
X143740190Y-71802619D01*
X143692571Y-71993095D01*
X143644952Y-72088333D01*
X143597333Y-72135952D01*
X143502095Y-72183571D01*
X143406857Y-72183571D01*
X143311619Y-72135952D01*
X143264000Y-72088333D01*
X143216380Y-71993095D01*
X143216380Y-71755000D01*
X143264000Y-71612142D01*
X144216380Y-71183571D02*
X143216380Y-71183571D01*
X143216380Y-70802619D01*
X143264000Y-70707380D01*
X143311619Y-70659761D01*
X143406857Y-70612142D01*
X143549714Y-70612142D01*
X143644952Y-70659761D01*
X143692571Y-70707380D01*
X143740190Y-70802619D01*
X143740190Y-71183571D01*
X144311619Y-70421666D02*
X144311619Y-69659761D01*
X143311619Y-69469285D02*
X143264000Y-69421666D01*
X143216380Y-69326428D01*
X143216380Y-69088333D01*
X143264000Y-68993095D01*
X143311619Y-68945476D01*
X143406857Y-68897857D01*
X143502095Y-68897857D01*
X143644952Y-68945476D01*
X144216380Y-69516904D01*
X144216380Y-68897857D01*
%TO.C,L_PW_1*%
X104084380Y-100806000D02*
X104084380Y-101282190D01*
X103084380Y-101282190D01*
X104179619Y-100710761D02*
X104179619Y-99948857D01*
X104084380Y-99710761D02*
X103084380Y-99710761D01*
X103084380Y-99329809D01*
X103132000Y-99234571D01*
X103179619Y-99186952D01*
X103274857Y-99139333D01*
X103417714Y-99139333D01*
X103512952Y-99186952D01*
X103560571Y-99234571D01*
X103608190Y-99329809D01*
X103608190Y-99710761D01*
X103084380Y-98806000D02*
X104084380Y-98567904D01*
X103370095Y-98377428D01*
X104084380Y-98186952D01*
X103084380Y-97948857D01*
X104179619Y-97806000D02*
X104179619Y-97044095D01*
X104084380Y-96282190D02*
X104084380Y-96853619D01*
X104084380Y-96567904D02*
X103084380Y-96567904D01*
X103227238Y-96663142D01*
X103322476Y-96758380D01*
X103370095Y-96853619D01*
%TO.C,LED_ESP_1*%
X96546142Y-87306571D02*
X96546142Y-87735142D01*
X95646142Y-87735142D01*
X96074714Y-87006571D02*
X96074714Y-86706571D01*
X96546142Y-86578000D02*
X96546142Y-87006571D01*
X95646142Y-87006571D01*
X95646142Y-86578000D01*
X96546142Y-86192285D02*
X95646142Y-86192285D01*
X95646142Y-85978000D01*
X95689000Y-85849428D01*
X95774714Y-85763714D01*
X95860428Y-85720857D01*
X96031857Y-85678000D01*
X96160428Y-85678000D01*
X96331857Y-85720857D01*
X96417571Y-85763714D01*
X96503285Y-85849428D01*
X96546142Y-85978000D01*
X96546142Y-86192285D01*
X96631857Y-85506571D02*
X96631857Y-84820857D01*
X96074714Y-84606571D02*
X96074714Y-84306571D01*
X96546142Y-84178000D02*
X96546142Y-84606571D01*
X95646142Y-84606571D01*
X95646142Y-84178000D01*
X96503285Y-83835142D02*
X96546142Y-83706571D01*
X96546142Y-83492285D01*
X96503285Y-83406571D01*
X96460428Y-83363714D01*
X96374714Y-83320857D01*
X96289000Y-83320857D01*
X96203285Y-83363714D01*
X96160428Y-83406571D01*
X96117571Y-83492285D01*
X96074714Y-83663714D01*
X96031857Y-83749428D01*
X95989000Y-83792285D01*
X95903285Y-83835142D01*
X95817571Y-83835142D01*
X95731857Y-83792285D01*
X95689000Y-83749428D01*
X95646142Y-83663714D01*
X95646142Y-83449428D01*
X95689000Y-83320857D01*
X96546142Y-82935142D02*
X95646142Y-82935142D01*
X95646142Y-82592285D01*
X95689000Y-82506571D01*
X95731857Y-82463714D01*
X95817571Y-82420857D01*
X95946142Y-82420857D01*
X96031857Y-82463714D01*
X96074714Y-82506571D01*
X96117571Y-82592285D01*
X96117571Y-82935142D01*
X96631857Y-82249428D02*
X96631857Y-81563714D01*
X96546142Y-80878000D02*
X96546142Y-81392285D01*
X96546142Y-81135142D02*
X95646142Y-81135142D01*
X95774714Y-81220857D01*
X95860428Y-81306571D01*
X95903285Y-81392285D01*
%TO.C,Q_PW_1*%
X108243619Y-107338571D02*
X108196000Y-107433809D01*
X108100761Y-107529047D01*
X107957904Y-107671904D01*
X107910285Y-107767142D01*
X107910285Y-107862380D01*
X108148380Y-107814761D02*
X108100761Y-107910000D01*
X108005523Y-108005238D01*
X107815047Y-108052857D01*
X107481714Y-108052857D01*
X107291238Y-108005238D01*
X107196000Y-107910000D01*
X107148380Y-107814761D01*
X107148380Y-107624285D01*
X107196000Y-107529047D01*
X107291238Y-107433809D01*
X107481714Y-107386190D01*
X107815047Y-107386190D01*
X108005523Y-107433809D01*
X108100761Y-107529047D01*
X108148380Y-107624285D01*
X108148380Y-107814761D01*
X108243619Y-107195714D02*
X108243619Y-106433809D01*
X108148380Y-106195714D02*
X107148380Y-106195714D01*
X107148380Y-105814761D01*
X107196000Y-105719523D01*
X107243619Y-105671904D01*
X107338857Y-105624285D01*
X107481714Y-105624285D01*
X107576952Y-105671904D01*
X107624571Y-105719523D01*
X107672190Y-105814761D01*
X107672190Y-106195714D01*
X107148380Y-105290952D02*
X108148380Y-105052857D01*
X107434095Y-104862380D01*
X108148380Y-104671904D01*
X107148380Y-104433809D01*
X108243619Y-104290952D02*
X108243619Y-103529047D01*
X108148380Y-102767142D02*
X108148380Y-103338571D01*
X108148380Y-103052857D02*
X107148380Y-103052857D01*
X107291238Y-103148095D01*
X107386476Y-103243333D01*
X107434095Y-103338571D01*
X111252000Y-106894380D02*
X111252000Y-107132476D01*
X111013904Y-107037238D02*
X111252000Y-107132476D01*
X111490095Y-107037238D01*
X111109142Y-107322952D02*
X111252000Y-107132476D01*
X111394857Y-107322952D01*
%TO.C,R_ESP_1*%
D20*
X86411102Y-71032009D02*
X86223626Y-71163243D01*
X86411102Y-71256981D02*
X86017401Y-71256981D01*
X86017401Y-71107000D01*
X86036149Y-71069504D01*
X86054897Y-71050757D01*
X86092392Y-71032009D01*
X86148635Y-71032009D01*
X86186130Y-71050757D01*
X86204878Y-71069504D01*
X86223626Y-71107000D01*
X86223626Y-71256981D01*
X86448598Y-70957018D02*
X86448598Y-70657056D01*
X86204878Y-70563317D02*
X86204878Y-70432084D01*
X86411102Y-70375841D02*
X86411102Y-70563317D01*
X86017401Y-70563317D01*
X86017401Y-70375841D01*
X86392355Y-70225859D02*
X86411102Y-70169616D01*
X86411102Y-70075878D01*
X86392355Y-70038383D01*
X86373607Y-70019635D01*
X86336112Y-70000887D01*
X86298616Y-70000887D01*
X86261121Y-70019635D01*
X86242373Y-70038383D01*
X86223626Y-70075878D01*
X86204878Y-70150869D01*
X86186130Y-70188364D01*
X86167383Y-70207112D01*
X86129887Y-70225859D01*
X86092392Y-70225859D01*
X86054897Y-70207112D01*
X86036149Y-70188364D01*
X86017401Y-70150869D01*
X86017401Y-70057130D01*
X86036149Y-70000887D01*
X86411102Y-69832158D02*
X86017401Y-69832158D01*
X86017401Y-69682177D01*
X86036149Y-69644682D01*
X86054897Y-69625934D01*
X86092392Y-69607186D01*
X86148635Y-69607186D01*
X86186130Y-69625934D01*
X86204878Y-69644682D01*
X86223626Y-69682177D01*
X86223626Y-69832158D01*
X86448598Y-69532196D02*
X86448598Y-69232233D01*
X86411102Y-68932270D02*
X86411102Y-69157242D01*
X86411102Y-69044756D02*
X86017401Y-69044756D01*
X86073644Y-69082252D01*
X86111140Y-69119747D01*
X86129887Y-69157242D01*
%TO.C,R_ESP_2*%
X96918102Y-79370009D02*
X96730626Y-79501243D01*
X96918102Y-79594981D02*
X96524401Y-79594981D01*
X96524401Y-79445000D01*
X96543149Y-79407504D01*
X96561897Y-79388757D01*
X96599392Y-79370009D01*
X96655635Y-79370009D01*
X96693130Y-79388757D01*
X96711878Y-79407504D01*
X96730626Y-79445000D01*
X96730626Y-79594981D01*
X96955598Y-79295018D02*
X96955598Y-78995056D01*
X96711878Y-78901317D02*
X96711878Y-78770084D01*
X96918102Y-78713841D02*
X96918102Y-78901317D01*
X96524401Y-78901317D01*
X96524401Y-78713841D01*
X96899355Y-78563859D02*
X96918102Y-78507616D01*
X96918102Y-78413878D01*
X96899355Y-78376383D01*
X96880607Y-78357635D01*
X96843112Y-78338887D01*
X96805616Y-78338887D01*
X96768121Y-78357635D01*
X96749373Y-78376383D01*
X96730626Y-78413878D01*
X96711878Y-78488869D01*
X96693130Y-78526364D01*
X96674383Y-78545112D01*
X96636887Y-78563859D01*
X96599392Y-78563859D01*
X96561897Y-78545112D01*
X96543149Y-78526364D01*
X96524401Y-78488869D01*
X96524401Y-78395130D01*
X96543149Y-78338887D01*
X96918102Y-78170158D02*
X96524401Y-78170158D01*
X96524401Y-78020177D01*
X96543149Y-77982682D01*
X96561897Y-77963934D01*
X96599392Y-77945186D01*
X96655635Y-77945186D01*
X96693130Y-77963934D01*
X96711878Y-77982682D01*
X96730626Y-78020177D01*
X96730626Y-78170158D01*
X96955598Y-77870196D02*
X96955598Y-77570233D01*
X96561897Y-77495242D02*
X96543149Y-77476495D01*
X96524401Y-77438999D01*
X96524401Y-77345261D01*
X96543149Y-77307766D01*
X96561897Y-77289018D01*
X96599392Y-77270270D01*
X96636887Y-77270270D01*
X96693130Y-77289018D01*
X96918102Y-77513990D01*
X96918102Y-77270270D01*
%TO.C,R_ESP_3*%
X89024102Y-85173009D02*
X88836626Y-85304243D01*
X89024102Y-85397981D02*
X88630401Y-85397981D01*
X88630401Y-85248000D01*
X88649149Y-85210504D01*
X88667897Y-85191757D01*
X88705392Y-85173009D01*
X88761635Y-85173009D01*
X88799130Y-85191757D01*
X88817878Y-85210504D01*
X88836626Y-85248000D01*
X88836626Y-85397981D01*
X89061598Y-85098018D02*
X89061598Y-84798056D01*
X88817878Y-84704317D02*
X88817878Y-84573084D01*
X89024102Y-84516841D02*
X89024102Y-84704317D01*
X88630401Y-84704317D01*
X88630401Y-84516841D01*
X89005355Y-84366859D02*
X89024102Y-84310616D01*
X89024102Y-84216878D01*
X89005355Y-84179383D01*
X88986607Y-84160635D01*
X88949112Y-84141887D01*
X88911616Y-84141887D01*
X88874121Y-84160635D01*
X88855373Y-84179383D01*
X88836626Y-84216878D01*
X88817878Y-84291869D01*
X88799130Y-84329364D01*
X88780383Y-84348112D01*
X88742887Y-84366859D01*
X88705392Y-84366859D01*
X88667897Y-84348112D01*
X88649149Y-84329364D01*
X88630401Y-84291869D01*
X88630401Y-84198130D01*
X88649149Y-84141887D01*
X89024102Y-83973158D02*
X88630401Y-83973158D01*
X88630401Y-83823177D01*
X88649149Y-83785682D01*
X88667897Y-83766934D01*
X88705392Y-83748186D01*
X88761635Y-83748186D01*
X88799130Y-83766934D01*
X88817878Y-83785682D01*
X88836626Y-83823177D01*
X88836626Y-83973158D01*
X89061598Y-83673196D02*
X89061598Y-83373233D01*
X88630401Y-83316990D02*
X88630401Y-83073270D01*
X88780383Y-83204504D01*
X88780383Y-83148261D01*
X88799130Y-83110766D01*
X88817878Y-83092018D01*
X88855373Y-83073270D01*
X88949112Y-83073270D01*
X88986607Y-83092018D01*
X89005355Y-83110766D01*
X89024102Y-83148261D01*
X89024102Y-83260747D01*
X89005355Y-83298242D01*
X88986607Y-83316990D01*
%TO.C,R_ESP_4*%
X95843102Y-78950009D02*
X95655626Y-79081243D01*
X95843102Y-79174981D02*
X95449401Y-79174981D01*
X95449401Y-79025000D01*
X95468149Y-78987504D01*
X95486897Y-78968757D01*
X95524392Y-78950009D01*
X95580635Y-78950009D01*
X95618130Y-78968757D01*
X95636878Y-78987504D01*
X95655626Y-79025000D01*
X95655626Y-79174981D01*
X95880598Y-78875018D02*
X95880598Y-78575056D01*
X95636878Y-78481317D02*
X95636878Y-78350084D01*
X95843102Y-78293841D02*
X95843102Y-78481317D01*
X95449401Y-78481317D01*
X95449401Y-78293841D01*
X95824355Y-78143859D02*
X95843102Y-78087616D01*
X95843102Y-77993878D01*
X95824355Y-77956383D01*
X95805607Y-77937635D01*
X95768112Y-77918887D01*
X95730616Y-77918887D01*
X95693121Y-77937635D01*
X95674373Y-77956383D01*
X95655626Y-77993878D01*
X95636878Y-78068869D01*
X95618130Y-78106364D01*
X95599383Y-78125112D01*
X95561887Y-78143859D01*
X95524392Y-78143859D01*
X95486897Y-78125112D01*
X95468149Y-78106364D01*
X95449401Y-78068869D01*
X95449401Y-77975130D01*
X95468149Y-77918887D01*
X95843102Y-77750158D02*
X95449401Y-77750158D01*
X95449401Y-77600177D01*
X95468149Y-77562682D01*
X95486897Y-77543934D01*
X95524392Y-77525186D01*
X95580635Y-77525186D01*
X95618130Y-77543934D01*
X95636878Y-77562682D01*
X95655626Y-77600177D01*
X95655626Y-77750158D01*
X95880598Y-77450196D02*
X95880598Y-77150233D01*
X95580635Y-76887766D02*
X95843102Y-76887766D01*
X95430654Y-76981504D02*
X95711869Y-77075242D01*
X95711869Y-76831523D01*
%TO.C,R_ESP_5*%
X86411102Y-75096009D02*
X86223626Y-75227243D01*
X86411102Y-75320981D02*
X86017401Y-75320981D01*
X86017401Y-75171000D01*
X86036149Y-75133504D01*
X86054897Y-75114757D01*
X86092392Y-75096009D01*
X86148635Y-75096009D01*
X86186130Y-75114757D01*
X86204878Y-75133504D01*
X86223626Y-75171000D01*
X86223626Y-75320981D01*
X86448598Y-75021018D02*
X86448598Y-74721056D01*
X86204878Y-74627317D02*
X86204878Y-74496084D01*
X86411102Y-74439841D02*
X86411102Y-74627317D01*
X86017401Y-74627317D01*
X86017401Y-74439841D01*
X86392355Y-74289859D02*
X86411102Y-74233616D01*
X86411102Y-74139878D01*
X86392355Y-74102383D01*
X86373607Y-74083635D01*
X86336112Y-74064887D01*
X86298616Y-74064887D01*
X86261121Y-74083635D01*
X86242373Y-74102383D01*
X86223626Y-74139878D01*
X86204878Y-74214869D01*
X86186130Y-74252364D01*
X86167383Y-74271112D01*
X86129887Y-74289859D01*
X86092392Y-74289859D01*
X86054897Y-74271112D01*
X86036149Y-74252364D01*
X86017401Y-74214869D01*
X86017401Y-74121130D01*
X86036149Y-74064887D01*
X86411102Y-73896158D02*
X86017401Y-73896158D01*
X86017401Y-73746177D01*
X86036149Y-73708682D01*
X86054897Y-73689934D01*
X86092392Y-73671186D01*
X86148635Y-73671186D01*
X86186130Y-73689934D01*
X86204878Y-73708682D01*
X86223626Y-73746177D01*
X86223626Y-73896158D01*
X86448598Y-73596196D02*
X86448598Y-73296233D01*
X86017401Y-73015018D02*
X86017401Y-73202495D01*
X86204878Y-73221242D01*
X86186130Y-73202495D01*
X86167383Y-73164999D01*
X86167383Y-73071261D01*
X86186130Y-73033766D01*
X86204878Y-73015018D01*
X86242373Y-72996270D01*
X86336112Y-72996270D01*
X86373607Y-73015018D01*
X86392355Y-73033766D01*
X86411102Y-73071261D01*
X86411102Y-73164999D01*
X86392355Y-73202495D01*
X86373607Y-73221242D01*
%TO.C,R_IMU_1*%
X134256102Y-95080514D02*
X134068626Y-95211747D01*
X134256102Y-95305486D02*
X133862401Y-95305486D01*
X133862401Y-95155504D01*
X133881149Y-95118009D01*
X133899897Y-95099261D01*
X133937392Y-95080514D01*
X133993635Y-95080514D01*
X134031130Y-95099261D01*
X134049878Y-95118009D01*
X134068626Y-95155504D01*
X134068626Y-95305486D01*
X134293598Y-95005523D02*
X134293598Y-94705560D01*
X134256102Y-94611822D02*
X133862401Y-94611822D01*
X134256102Y-94424345D02*
X133862401Y-94424345D01*
X134143616Y-94293112D01*
X133862401Y-94161878D01*
X134256102Y-94161878D01*
X133862401Y-93974401D02*
X134181112Y-93974401D01*
X134218607Y-93955654D01*
X134237355Y-93936906D01*
X134256102Y-93899411D01*
X134256102Y-93824420D01*
X134237355Y-93786925D01*
X134218607Y-93768177D01*
X134181112Y-93749429D01*
X133862401Y-93749429D01*
X134293598Y-93655691D02*
X134293598Y-93355728D01*
X134256102Y-93055766D02*
X134256102Y-93280738D01*
X134256102Y-93168252D02*
X133862401Y-93168252D01*
X133918644Y-93205747D01*
X133956140Y-93243242D01*
X133974887Y-93280738D01*
%TO.C,R_IMU_2*%
X139404102Y-94660514D02*
X139216626Y-94791747D01*
X139404102Y-94885486D02*
X139010401Y-94885486D01*
X139010401Y-94735504D01*
X139029149Y-94698009D01*
X139047897Y-94679261D01*
X139085392Y-94660514D01*
X139141635Y-94660514D01*
X139179130Y-94679261D01*
X139197878Y-94698009D01*
X139216626Y-94735504D01*
X139216626Y-94885486D01*
X139441598Y-94585523D02*
X139441598Y-94285560D01*
X139404102Y-94191822D02*
X139010401Y-94191822D01*
X139404102Y-94004345D02*
X139010401Y-94004345D01*
X139291616Y-93873112D01*
X139010401Y-93741878D01*
X139404102Y-93741878D01*
X139010401Y-93554401D02*
X139329112Y-93554401D01*
X139366607Y-93535654D01*
X139385355Y-93516906D01*
X139404102Y-93479411D01*
X139404102Y-93404420D01*
X139385355Y-93366925D01*
X139366607Y-93348177D01*
X139329112Y-93329429D01*
X139010401Y-93329429D01*
X139441598Y-93235691D02*
X139441598Y-92935728D01*
X139047897Y-92860738D02*
X139029149Y-92841990D01*
X139010401Y-92804495D01*
X139010401Y-92710756D01*
X139029149Y-92673261D01*
X139047897Y-92654513D01*
X139085392Y-92635766D01*
X139122887Y-92635766D01*
X139179130Y-92654513D01*
X139404102Y-92879485D01*
X139404102Y-92635766D01*
%TO.C,R_PW_1*%
X121938598Y-106316102D02*
X121807364Y-106128626D01*
X121713626Y-106316102D02*
X121713626Y-105922401D01*
X121863607Y-105922401D01*
X121901102Y-105941149D01*
X121919850Y-105959897D01*
X121938598Y-105997392D01*
X121938598Y-106053635D01*
X121919850Y-106091130D01*
X121901102Y-106109878D01*
X121863607Y-106128626D01*
X121713626Y-106128626D01*
X122013588Y-106353598D02*
X122313551Y-106353598D01*
X122407289Y-106316102D02*
X122407289Y-105922401D01*
X122557271Y-105922401D01*
X122594766Y-105941149D01*
X122613514Y-105959897D01*
X122632261Y-105997392D01*
X122632261Y-106053635D01*
X122613514Y-106091130D01*
X122594766Y-106109878D01*
X122557271Y-106128626D01*
X122407289Y-106128626D01*
X122763495Y-105922401D02*
X122857233Y-106316102D01*
X122932224Y-106034887D01*
X123007215Y-106316102D01*
X123100953Y-105922401D01*
X123157196Y-106353598D02*
X123457159Y-106353598D01*
X123757121Y-106316102D02*
X123532149Y-106316102D01*
X123644635Y-106316102D02*
X123644635Y-105922401D01*
X123607140Y-105978644D01*
X123569645Y-106016140D01*
X123532149Y-106034887D01*
%TO.C,R_PW_2*%
X122064102Y-111741402D02*
X121876626Y-111872635D01*
X122064102Y-111966374D02*
X121670401Y-111966374D01*
X121670401Y-111816392D01*
X121689149Y-111778897D01*
X121707897Y-111760149D01*
X121745392Y-111741402D01*
X121801635Y-111741402D01*
X121839130Y-111760149D01*
X121857878Y-111778897D01*
X121876626Y-111816392D01*
X121876626Y-111966374D01*
X122101598Y-111666411D02*
X122101598Y-111366448D01*
X122064102Y-111272710D02*
X121670401Y-111272710D01*
X121670401Y-111122729D01*
X121689149Y-111085233D01*
X121707897Y-111066486D01*
X121745392Y-111047738D01*
X121801635Y-111047738D01*
X121839130Y-111066486D01*
X121857878Y-111085233D01*
X121876626Y-111122729D01*
X121876626Y-111272710D01*
X121670401Y-110916504D02*
X122064102Y-110822766D01*
X121782887Y-110747775D01*
X122064102Y-110672785D01*
X121670401Y-110579046D01*
X122101598Y-110522803D02*
X122101598Y-110222841D01*
X121707897Y-110147850D02*
X121689149Y-110129102D01*
X121670401Y-110091607D01*
X121670401Y-109997869D01*
X121689149Y-109960373D01*
X121707897Y-109941626D01*
X121745392Y-109922878D01*
X121782887Y-109922878D01*
X121839130Y-109941626D01*
X122064102Y-110166598D01*
X122064102Y-109922878D01*
%TO.C,R_PW_3*%
X119016102Y-111741402D02*
X118828626Y-111872635D01*
X119016102Y-111966374D02*
X118622401Y-111966374D01*
X118622401Y-111816392D01*
X118641149Y-111778897D01*
X118659897Y-111760149D01*
X118697392Y-111741402D01*
X118753635Y-111741402D01*
X118791130Y-111760149D01*
X118809878Y-111778897D01*
X118828626Y-111816392D01*
X118828626Y-111966374D01*
X119053598Y-111666411D02*
X119053598Y-111366448D01*
X119016102Y-111272710D02*
X118622401Y-111272710D01*
X118622401Y-111122729D01*
X118641149Y-111085233D01*
X118659897Y-111066486D01*
X118697392Y-111047738D01*
X118753635Y-111047738D01*
X118791130Y-111066486D01*
X118809878Y-111085233D01*
X118828626Y-111122729D01*
X118828626Y-111272710D01*
X118622401Y-110916504D02*
X119016102Y-110822766D01*
X118734887Y-110747775D01*
X119016102Y-110672785D01*
X118622401Y-110579046D01*
X119053598Y-110522803D02*
X119053598Y-110222841D01*
X118622401Y-110166598D02*
X118622401Y-109922878D01*
X118772383Y-110054112D01*
X118772383Y-109997869D01*
X118791130Y-109960373D01*
X118809878Y-109941626D01*
X118847373Y-109922878D01*
X118941112Y-109922878D01*
X118978607Y-109941626D01*
X118997355Y-109960373D01*
X119016102Y-109997869D01*
X119016102Y-110110355D01*
X118997355Y-110147850D01*
X118978607Y-110166598D01*
%TO.C,R_PW_4*%
X115080598Y-106570102D02*
X114949364Y-106382626D01*
X114855626Y-106570102D02*
X114855626Y-106176401D01*
X115005607Y-106176401D01*
X115043102Y-106195149D01*
X115061850Y-106213897D01*
X115080598Y-106251392D01*
X115080598Y-106307635D01*
X115061850Y-106345130D01*
X115043102Y-106363878D01*
X115005607Y-106382626D01*
X114855626Y-106382626D01*
X115155588Y-106607598D02*
X115455551Y-106607598D01*
X115549289Y-106570102D02*
X115549289Y-106176401D01*
X115699271Y-106176401D01*
X115736766Y-106195149D01*
X115755514Y-106213897D01*
X115774261Y-106251392D01*
X115774261Y-106307635D01*
X115755514Y-106345130D01*
X115736766Y-106363878D01*
X115699271Y-106382626D01*
X115549289Y-106382626D01*
X115905495Y-106176401D02*
X115999233Y-106570102D01*
X116074224Y-106288887D01*
X116149215Y-106570102D01*
X116242953Y-106176401D01*
X116299196Y-106607598D02*
X116599159Y-106607598D01*
X116861626Y-106307635D02*
X116861626Y-106570102D01*
X116767888Y-106157654D02*
X116674149Y-106438869D01*
X116917869Y-106438869D01*
%TO.C,SW_ESP_1*%
D11*
X100226761Y-75786809D02*
X100274380Y-75643952D01*
X100274380Y-75405857D01*
X100226761Y-75310619D01*
X100179142Y-75263000D01*
X100083904Y-75215380D01*
X99988666Y-75215380D01*
X99893428Y-75263000D01*
X99845809Y-75310619D01*
X99798190Y-75405857D01*
X99750571Y-75596333D01*
X99702952Y-75691571D01*
X99655333Y-75739190D01*
X99560095Y-75786809D01*
X99464857Y-75786809D01*
X99369619Y-75739190D01*
X99322000Y-75691571D01*
X99274380Y-75596333D01*
X99274380Y-75358238D01*
X99322000Y-75215380D01*
X99274380Y-74882047D02*
X100274380Y-74643952D01*
X99560095Y-74453476D01*
X100274380Y-74263000D01*
X99274380Y-74024904D01*
X100369619Y-73882047D02*
X100369619Y-73120142D01*
X99750571Y-72882047D02*
X99750571Y-72548714D01*
X100274380Y-72405857D02*
X100274380Y-72882047D01*
X99274380Y-72882047D01*
X99274380Y-72405857D01*
X100226761Y-72024904D02*
X100274380Y-71882047D01*
X100274380Y-71643952D01*
X100226761Y-71548714D01*
X100179142Y-71501095D01*
X100083904Y-71453476D01*
X99988666Y-71453476D01*
X99893428Y-71501095D01*
X99845809Y-71548714D01*
X99798190Y-71643952D01*
X99750571Y-71834428D01*
X99702952Y-71929666D01*
X99655333Y-71977285D01*
X99560095Y-72024904D01*
X99464857Y-72024904D01*
X99369619Y-71977285D01*
X99322000Y-71929666D01*
X99274380Y-71834428D01*
X99274380Y-71596333D01*
X99322000Y-71453476D01*
X100274380Y-71024904D02*
X99274380Y-71024904D01*
X99274380Y-70643952D01*
X99322000Y-70548714D01*
X99369619Y-70501095D01*
X99464857Y-70453476D01*
X99607714Y-70453476D01*
X99702952Y-70501095D01*
X99750571Y-70548714D01*
X99798190Y-70643952D01*
X99798190Y-71024904D01*
X100369619Y-70263000D02*
X100369619Y-69501095D01*
X100274380Y-68739190D02*
X100274380Y-69310619D01*
X100274380Y-69024904D02*
X99274380Y-69024904D01*
X99417238Y-69120142D01*
X99512476Y-69215380D01*
X99560095Y-69310619D01*
X95250000Y-71207380D02*
X95250000Y-71445476D01*
X95011904Y-71350238D02*
X95250000Y-71445476D01*
X95488095Y-71350238D01*
X95107142Y-71635952D02*
X95250000Y-71445476D01*
X95392857Y-71635952D01*
%TO.C,SW_ESP_2*%
X84732761Y-98519809D02*
X84780380Y-98376952D01*
X84780380Y-98138857D01*
X84732761Y-98043619D01*
X84685142Y-97996000D01*
X84589904Y-97948380D01*
X84494666Y-97948380D01*
X84399428Y-97996000D01*
X84351809Y-98043619D01*
X84304190Y-98138857D01*
X84256571Y-98329333D01*
X84208952Y-98424571D01*
X84161333Y-98472190D01*
X84066095Y-98519809D01*
X83970857Y-98519809D01*
X83875619Y-98472190D01*
X83828000Y-98424571D01*
X83780380Y-98329333D01*
X83780380Y-98091238D01*
X83828000Y-97948380D01*
X83780380Y-97615047D02*
X84780380Y-97376952D01*
X84066095Y-97186476D01*
X84780380Y-96996000D01*
X83780380Y-96757904D01*
X84875619Y-96615047D02*
X84875619Y-95853142D01*
X84256571Y-95615047D02*
X84256571Y-95281714D01*
X84780380Y-95138857D02*
X84780380Y-95615047D01*
X83780380Y-95615047D01*
X83780380Y-95138857D01*
X84732761Y-94757904D02*
X84780380Y-94615047D01*
X84780380Y-94376952D01*
X84732761Y-94281714D01*
X84685142Y-94234095D01*
X84589904Y-94186476D01*
X84494666Y-94186476D01*
X84399428Y-94234095D01*
X84351809Y-94281714D01*
X84304190Y-94376952D01*
X84256571Y-94567428D01*
X84208952Y-94662666D01*
X84161333Y-94710285D01*
X84066095Y-94757904D01*
X83970857Y-94757904D01*
X83875619Y-94710285D01*
X83828000Y-94662666D01*
X83780380Y-94567428D01*
X83780380Y-94329333D01*
X83828000Y-94186476D01*
X84780380Y-93757904D02*
X83780380Y-93757904D01*
X83780380Y-93376952D01*
X83828000Y-93281714D01*
X83875619Y-93234095D01*
X83970857Y-93186476D01*
X84113714Y-93186476D01*
X84208952Y-93234095D01*
X84256571Y-93281714D01*
X84304190Y-93376952D01*
X84304190Y-93757904D01*
X84875619Y-92996000D02*
X84875619Y-92234095D01*
X83875619Y-92043619D02*
X83828000Y-91996000D01*
X83780380Y-91900761D01*
X83780380Y-91662666D01*
X83828000Y-91567428D01*
X83875619Y-91519809D01*
X83970857Y-91472190D01*
X84066095Y-91472190D01*
X84208952Y-91519809D01*
X84780380Y-92091238D01*
X84780380Y-91472190D01*
X87336380Y-94996000D02*
X87574476Y-94996000D01*
X87479238Y-95234095D02*
X87574476Y-94996000D01*
X87479238Y-94757904D01*
X87764952Y-95138857D02*
X87574476Y-94996000D01*
X87764952Y-94853142D01*
%TO.C,U_IMU_1*%
D20*
X131494571Y-97046342D02*
X131494571Y-97434914D01*
X131517428Y-97480628D01*
X131540285Y-97503485D01*
X131586000Y-97526342D01*
X131677428Y-97526342D01*
X131723142Y-97503485D01*
X131746000Y-97480628D01*
X131768857Y-97434914D01*
X131768857Y-97046342D01*
X131883142Y-97572057D02*
X132248857Y-97572057D01*
X132363142Y-97526342D02*
X132363142Y-97046342D01*
X132591714Y-97526342D02*
X132591714Y-97046342D01*
X132751714Y-97389200D01*
X132911714Y-97046342D01*
X132911714Y-97526342D01*
X133140285Y-97046342D02*
X133140285Y-97434914D01*
X133163142Y-97480628D01*
X133186000Y-97503485D01*
X133231714Y-97526342D01*
X133323142Y-97526342D01*
X133368857Y-97503485D01*
X133391714Y-97480628D01*
X133414571Y-97434914D01*
X133414571Y-97046342D01*
X133528857Y-97572057D02*
X133894571Y-97572057D01*
X134260285Y-97526342D02*
X133986000Y-97526342D01*
X134123142Y-97526342D02*
X134123142Y-97046342D01*
X134077428Y-97114914D01*
X134031714Y-97160628D01*
X133986000Y-97183485D01*
%TO.C,U_PW_1*%
D11*
X92654761Y-102576380D02*
X92654761Y-103385904D01*
X92702380Y-103481142D01*
X92750000Y-103528761D01*
X92845238Y-103576380D01*
X93035714Y-103576380D01*
X93130952Y-103528761D01*
X93178571Y-103481142D01*
X93226190Y-103385904D01*
X93226190Y-102576380D01*
X93464285Y-103671619D02*
X94226190Y-103671619D01*
X94464285Y-103576380D02*
X94464285Y-102576380D01*
X94845238Y-102576380D01*
X94940476Y-102624000D01*
X94988095Y-102671619D01*
X95035714Y-102766857D01*
X95035714Y-102909714D01*
X94988095Y-103004952D01*
X94940476Y-103052571D01*
X94845238Y-103100190D01*
X94464285Y-103100190D01*
X95369047Y-102576380D02*
X95607142Y-103576380D01*
X95797619Y-102862095D01*
X95988095Y-103576380D01*
X96226190Y-102576380D01*
X96369047Y-103671619D02*
X97130952Y-103671619D01*
X97892857Y-103576380D02*
X97321428Y-103576380D01*
X97607142Y-103576380D02*
X97607142Y-102576380D01*
X97511904Y-102719238D01*
X97416666Y-102814476D01*
X97321428Y-102862095D01*
%TD*%
M02*
