M48
; DRILL file {KiCad (5.1.7)-1} date 11/24/20 16:35:38
; FORMAT={-:-/ absolute / metric / decimal}
; #@! TF.CreationDate,2020-11-24T16:35:38-08:00
; #@! TF.GenerationSoftware,Kicad,Pcbnew,(5.1.7)-1
; #@! TF.FileFunction,Plated,1,2,PTH
FMAT,2
METRIC
T1C0.320
T2C1.000
%
G90
G05
T1
X89.789Y-114.808
X90.678Y-76.708
X95.035Y-104.687
X95.504Y-113.665
X95.604Y-118.264
X95.885Y-120.523
X96.52Y-121.793
X96.774Y-104.902
X97.028Y-114.808
X97.409Y-83.566
X98.418Y-104.334
X98.872Y-124.907
X99.187Y-102.87
X99.695Y-117.221
X99.695Y-122.428
X100.076Y-101.981
X100.139Y-106.617
X101.854Y-98.044
X103.251Y-93.218
X103.251Y-119.705
X105.283Y-106.172
X106.172Y-77.597
X106.68Y-93.726
X107.315Y-109.22
X108.458Y-94.488
X108.458Y-100.711
X110.49Y-103.632
X110.617Y-75.946
X112.903Y-92.15
X113.779Y-113.424
X113.919Y-102.108
X114.427Y-127.508
X119.38Y-96.52
X123.587Y-83.7
X123.952Y-127.508
X128.905Y-108.331
X130.302Y-108.331
X134.62Y-115.951
T2
X128.016Y-127.254
X130.556Y-127.254
X133.096Y-127.254
X135.636Y-127.254
X119.126Y-116.586
X121.666Y-116.586
X139.446Y-76.581
X139.446Y-79.121
X139.446Y-81.661
X139.446Y-84.201
X139.446Y-86.741
X139.446Y-89.281
X139.446Y-91.821
X139.446Y-94.361
X139.446Y-96.901
X139.446Y-99.441
X139.446Y-101.981
X139.446Y-104.521
X139.446Y-107.061
X139.446Y-109.601
X139.446Y-112.141
X139.446Y-114.681
X139.446Y-117.221
X139.446Y-119.761
X139.446Y-122.301
X139.446Y-124.841
X102.489Y-127.127
X105.029Y-127.127
X107.569Y-127.127
X110.109Y-127.127
X120.904Y-109.728
X113.792Y-100.33
X116.332Y-100.33
X118.872Y-100.33
X121.412Y-100.33
X123.952Y-100.33
X126.492Y-100.33
X129.032Y-100.33
X131.572Y-100.33
X88.773Y-102.235
X91.313Y-102.235
X114.808Y-116.586
X88.773Y-106.045
X91.313Y-106.045
X85.09Y-76.327
X85.09Y-78.867
X85.09Y-81.407
X85.09Y-83.947
X85.09Y-86.487
X85.09Y-89.027
X85.09Y-91.567
X85.09Y-94.107
X85.09Y-96.647
X85.09Y-99.187
X85.09Y-101.727
X85.09Y-104.267
X85.09Y-106.807
X85.09Y-109.347
X85.09Y-111.887
X85.09Y-114.427
X85.09Y-116.967
X85.09Y-119.507
X85.09Y-122.047
X85.09Y-124.587
X88.773Y-109.855
X91.313Y-109.855
X125.476Y-116.586
X88.773Y-98.425
X91.313Y-98.425
X94.996Y-127.127
X97.536Y-127.127
T0
M30
