%TF.GenerationSoftware,KiCad,Pcbnew,(5.1.7)-1*%
%TF.CreationDate,2020-11-25T11:44:14-08:00*%
%TF.ProjectId,esp32_sensor,65737033-325f-4736-956e-736f722e6b69,v0.0.3b*%
%TF.SameCoordinates,Original*%
%TF.FileFunction,Copper,L2,Bot*%
%TF.FilePolarity,Positive*%
%FSLAX46Y46*%
G04 Gerber Fmt 4.6, Leading zero omitted, Abs format (unit mm)*
G04 Created by KiCad (PCBNEW (5.1.7)-1) date 2020-11-25 11:44:14*
%MOMM*%
%LPD*%
G01*
G04 APERTURE LIST*
%TA.AperFunction,ComponentPad*%
%ADD10O,1.700000X1.700000*%
%TD*%
%TA.AperFunction,ComponentPad*%
%ADD11R,1.700000X1.700000*%
%TD*%
%TA.AperFunction,ViaPad*%
%ADD12C,0.600000*%
%TD*%
%TA.AperFunction,Conductor*%
%ADD13C,0.400000*%
%TD*%
%TA.AperFunction,Conductor*%
%ADD14C,0.200000*%
%TD*%
%TA.AperFunction,Conductor*%
%ADD15C,0.220000*%
%TD*%
%TA.AperFunction,Conductor*%
%ADD16C,0.350000*%
%TD*%
%TA.AperFunction,Conductor*%
%ADD17C,0.254000*%
%TD*%
%TA.AperFunction,Conductor*%
%ADD18C,0.100000*%
%TD*%
G04 APERTURE END LIST*
D10*
%TO.P,J_PW_2,2*%
%TO.N,VDD*%
X97536000Y-127127000D03*
D11*
%TO.P,J_PW_2,1*%
%TO.N,GND*%
X94996000Y-127127000D03*
%TD*%
D10*
%TO.P,J_7,2*%
%TO.N,/ESP32 Chip/ESP32_Pin14*%
X88773000Y-109855000D03*
D11*
%TO.P,J_7,1*%
%TO.N,/IMU/IMU_SDA*%
X91313000Y-109855000D03*
%TD*%
D10*
%TO.P,J_6,2*%
%TO.N,/IMU/IMU_SCL*%
X91313000Y-106045000D03*
D11*
%TO.P,J_6,1*%
%TO.N,/ESP32 Chip/ESP32_Pin13*%
X88773000Y-106045000D03*
%TD*%
D10*
%TO.P,J_5,2*%
%TO.N,/ESP32 Chip/ESP32_Pin12*%
X88773000Y-102235000D03*
D11*
%TO.P,J_5,1*%
%TO.N,/IMU/IMU_INT1*%
X91313000Y-102235000D03*
%TD*%
D10*
%TO.P,J_4,2*%
%TO.N,/IMU/IMU_INT2*%
X91313000Y-98425000D03*
D11*
%TO.P,J_4,1*%
%TO.N,/ESP32 Chip/ESP32_Pin11*%
X88773000Y-98425000D03*
%TD*%
D10*
%TO.P,J_3,8*%
%TO.N,/ESP32 Chip/ESP32_Pin22*%
X131572000Y-100330000D03*
%TO.P,J_3,7*%
%TO.N,/ESP32 Chip/ESP32_Pin21*%
X129032000Y-100330000D03*
%TO.P,J_3,6*%
%TO.N,/ESP32 Chip/ESP32_Pin20*%
X126492000Y-100330000D03*
%TO.P,J_3,5*%
%TO.N,+3V3*%
X123952000Y-100330000D03*
%TO.P,J_3,4*%
%TO.N,GND*%
X121412000Y-100330000D03*
%TO.P,J_3,3*%
%TO.N,/ESP32 Chip/ESP32_Pin19*%
X118872000Y-100330000D03*
%TO.P,J_3,2*%
%TO.N,/ESP32 Chip/ESP32_Pin18*%
X116332000Y-100330000D03*
D11*
%TO.P,J_3,1*%
%TO.N,/ESP32 Chip/ESP32_Pin17*%
X113792000Y-100330000D03*
%TD*%
D10*
%TO.P,J_2,20*%
%TO.N,GND*%
X139446000Y-124841000D03*
%TO.P,J_2,19*%
%TO.N,VS*%
X139446000Y-122301000D03*
%TO.P,J_2,18*%
%TO.N,Net-(J_2-Pad18)*%
X139446000Y-119761000D03*
%TO.P,J_2,17*%
%TO.N,+3V3*%
X139446000Y-117221000D03*
%TO.P,J_2,16*%
%TO.N,/ESP32 Chip/ESP32_Pin23*%
X139446000Y-114681000D03*
%TO.P,J_2,15*%
%TO.N,/ESP32 Chip/ESP32_Pin24*%
X139446000Y-112141000D03*
%TO.P,J_2,14*%
%TO.N,/ESP32 Chip/ESP32_Pin25*%
X139446000Y-109601000D03*
%TO.P,J_2,13*%
%TO.N,/ESP32 Chip/ESP32_Pin26*%
X139446000Y-107061000D03*
%TO.P,J_2,12*%
%TO.N,/ESP32 Chip/ESP32_Pin27*%
X139446000Y-104521000D03*
%TO.P,J_2,11*%
%TO.N,/ESP32 Chip/ESP32_Pin28*%
X139446000Y-101981000D03*
%TO.P,J_2,10*%
%TO.N,/ESP32 Chip/ESP32_Pin29*%
X139446000Y-99441000D03*
%TO.P,J_2,9*%
%TO.N,/ESP32 Chip/ESP32_Pin30*%
X139446000Y-96901000D03*
%TO.P,J_2,8*%
%TO.N,/ESP32 Chip/ESP32_Pin31*%
X139446000Y-94361000D03*
%TO.P,J_2,7*%
%TO.N,Net-(J_2-Pad7)*%
X139446000Y-91821000D03*
%TO.P,J_2,6*%
%TO.N,/ESP32 Chip/ESP32_Pin33*%
X139446000Y-89281000D03*
%TO.P,J_2,5*%
%TO.N,/ESP32 Chip/ESP32_RX0*%
X139446000Y-86741000D03*
%TO.P,J_2,4*%
%TO.N,/ESP32 Chip/ESP32_TX0*%
X139446000Y-84201000D03*
%TO.P,J_2,3*%
%TO.N,/ESP32 Chip/ESP32_Pin36*%
X139446000Y-81661000D03*
%TO.P,J_2,2*%
%TO.N,/ESP32 Chip/ESP32_Pin37*%
X139446000Y-79121000D03*
D11*
%TO.P,J_2,1*%
%TO.N,GND*%
X139446000Y-76581000D03*
%TD*%
D10*
%TO.P,J_1,20*%
%TO.N,VDD*%
X85090000Y-124587000D03*
%TO.P,J_1,19*%
%TO.N,GND*%
X85090000Y-122047000D03*
%TO.P,J_1,18*%
%TO.N,Net-(J_1-Pad18)*%
X85090000Y-119507000D03*
%TO.P,J_1,17*%
%TO.N,/IMU/IMU_SDO_SAO*%
X85090000Y-116967000D03*
%TO.P,J_1,16*%
%TO.N,/ESP32 Chip/ESP32_Pin16*%
X85090000Y-114427000D03*
%TO.P,J_1,15*%
%TO.N,Net-(J_1-Pad15)*%
X85090000Y-111887000D03*
%TO.P,J_1,14*%
%TO.N,/ESP32 Chip/ESP32_Pin14*%
X85090000Y-109347000D03*
%TO.P,J_1,13*%
%TO.N,/ESP32 Chip/ESP32_Pin13*%
X85090000Y-106807000D03*
%TO.P,J_1,12*%
%TO.N,/ESP32 Chip/ESP32_Pin12*%
X85090000Y-104267000D03*
%TO.P,J_1,11*%
%TO.N,/ESP32 Chip/ESP32_Pin11*%
X85090000Y-101727000D03*
%TO.P,J_1,10*%
%TO.N,/ESP32 Chip/ESP32_Pin10*%
X85090000Y-99187000D03*
%TO.P,J_1,9*%
%TO.N,/ESP32 Chip/ESP32_Pin9*%
X85090000Y-96647000D03*
%TO.P,J_1,8*%
%TO.N,/ESP32 Chip/ESP32_Pin8*%
X85090000Y-94107000D03*
%TO.P,J_1,7*%
%TO.N,/ESP32 Chip/ESP32_Pin7*%
X85090000Y-91567000D03*
%TO.P,J_1,6*%
%TO.N,/ESP32 Chip/ESP32_Pin6*%
X85090000Y-89027000D03*
%TO.P,J_1,5*%
%TO.N,/ESP32 Chip/ESP32_Pin5*%
X85090000Y-86487000D03*
%TO.P,J_1,4*%
%TO.N,/ESP32 Chip/ESP32_Pin4*%
X85090000Y-83947000D03*
%TO.P,J_1,3*%
%TO.N,/ESP32 Chip/ESP32_EN*%
X85090000Y-81407000D03*
%TO.P,J_1,2*%
%TO.N,+3V3*%
X85090000Y-78867000D03*
D11*
%TO.P,J_1,1*%
%TO.N,GND*%
X85090000Y-76327000D03*
%TD*%
%TO.P,J_PW_3,1*%
%TO.N,+3V3*%
X120904000Y-109728000D03*
%TD*%
D10*
%TO.P,J_PW_1,2*%
%TO.N,VS*%
X121666000Y-116586000D03*
D11*
%TO.P,J_PW_1,1*%
%TO.N,+BATT*%
X119126000Y-116586000D03*
%TD*%
%TO.P,J_CN_4,1*%
%TO.N,GND*%
X114808000Y-116586000D03*
%TD*%
%TO.P,J_CN_3,1*%
%TO.N,VS*%
X125476000Y-116586000D03*
%TD*%
D10*
%TO.P,J_CN_2,4*%
%TO.N,Net-(J_CN_2-Pad4)*%
X109093000Y-127127000D03*
%TO.P,J_CN_2,3*%
%TO.N,Net-(J_CN_2-Pad3)*%
X106553000Y-127127000D03*
%TO.P,J_CN_2,2*%
%TO.N,Net-(J_CN_2-Pad2)*%
X104013000Y-127127000D03*
D11*
%TO.P,J_CN_2,1*%
%TO.N,Net-(J_CN_2-Pad1)*%
X101473000Y-127127000D03*
%TD*%
D10*
%TO.P,J_CN_1,4*%
%TO.N,Net-(J_CN_1-Pad4)*%
X135255000Y-127127000D03*
%TO.P,J_CN_1,3*%
%TO.N,Net-(J_CN_1-Pad3)*%
X132715000Y-127127000D03*
%TO.P,J_CN_1,2*%
%TO.N,Net-(J_CN_1-Pad2)*%
X130175000Y-127127000D03*
D11*
%TO.P,J_CN_1,1*%
%TO.N,Net-(J_CN_1-Pad1)*%
X127635000Y-127127000D03*
%TD*%
D12*
%TO.N,GND*%
X110617000Y-75946000D03*
X106680000Y-93726000D03*
X123587000Y-83700000D03*
X105283000Y-106172000D03*
X99695000Y-117221000D03*
X99695000Y-122428000D03*
X101854000Y-98044000D03*
X95504000Y-113665000D03*
X114016000Y-126620000D03*
X124236000Y-126620000D03*
X100457000Y-102362000D03*
X96266000Y-84709000D03*
%TO.N,+3V3*%
X113919000Y-102108000D03*
X100139500Y-106616500D03*
X107315000Y-109220000D03*
X108458000Y-94488000D03*
X134620000Y-115951000D03*
X106172000Y-77597000D03*
X88900000Y-77597000D03*
%TO.N,Net-(C_PW_2-Pad1)*%
X99949000Y-123698000D03*
X104495600Y-119126000D03*
%TO.N,Net-(C_PW_3-Pad2)*%
X95885000Y-120523000D03*
X96012000Y-117221000D03*
%TO.N,Net-(C_PW_5-Pad1)*%
X96520000Y-121793000D03*
X97028000Y-114808000D03*
%TO.N,VS*%
X113779300Y-113423700D03*
X115697000Y-120523000D03*
X121526000Y-120536000D03*
%TO.N,/IMU/IMU_SDO_SAO*%
X89789000Y-114808000D03*
X98418252Y-104333904D03*
%TO.N,/ESP32 Chip/ESP32_Pin16*%
X108979001Y-105142999D03*
X115343998Y-96520000D03*
%TO.N,/ESP32 Chip/ESP32_Pin24*%
X128905000Y-108331000D03*
%TO.N,/ESP32 Chip/ESP32_Pin25*%
X129413000Y-107315000D03*
%TO.N,/IMU/IMU_INT2*%
X103251000Y-93218000D03*
X113030000Y-92075000D03*
X107569000Y-100711000D03*
%TO.N,/IMU/IMU_INT1*%
X99441000Y-103124000D03*
%TO.N,/IMU/IMU_SCL*%
X96774000Y-104902000D03*
X95758000Y-103378000D03*
%TD*%
D13*
%TO.N,GND*%
X85471000Y-75946000D02*
X85090000Y-76327000D01*
X110617000Y-75946000D02*
X85471000Y-75946000D01*
X85090000Y-76327000D02*
X87884000Y-79121000D01*
X87884000Y-79121000D02*
X90678000Y-79121000D01*
X90678000Y-79121000D02*
X95123000Y-83566000D01*
X89916000Y-122047000D02*
X94996000Y-127127000D01*
X85090000Y-122047000D02*
X89916000Y-122047000D01*
X106680000Y-93726000D02*
X105283000Y-93726000D01*
X105156000Y-93599000D02*
X105156000Y-94615000D01*
X105283000Y-93726000D02*
X105156000Y-93599000D01*
X121412000Y-85875000D02*
X123587000Y-83700000D01*
X121412000Y-100330000D02*
X121412000Y-85875000D01*
X118371000Y-83700000D02*
X110617000Y-75946000D01*
X123587000Y-83700000D02*
X118371000Y-83700000D01*
X132327000Y-83700000D02*
X139446000Y-76581000D01*
X123587000Y-83700000D02*
X132327000Y-83700000D01*
X102743000Y-103632000D02*
X105283000Y-106172000D01*
X99695000Y-122428000D02*
X94996000Y-127127000D01*
X99695000Y-117221000D02*
X99695000Y-122428000D01*
D14*
X114173000Y-117221000D02*
X114808000Y-116586000D01*
D13*
X99695000Y-117221000D02*
X114173000Y-117221000D01*
D14*
X114808000Y-116586000D02*
X114808000Y-115697000D01*
D13*
X102743000Y-103632000D02*
X101727000Y-103632000D01*
X100076000Y-101981000D02*
X100076000Y-99695000D01*
X101790500Y-97980500D02*
X101854000Y-98044000D01*
X100076000Y-99695000D02*
X101790500Y-97980500D01*
X101790500Y-97980500D02*
X105156000Y-94615000D01*
D15*
X95504000Y-113665000D02*
X96075500Y-113093500D01*
D13*
X112204500Y-113093500D02*
X105283000Y-106172000D01*
D15*
X96075500Y-113093500D02*
X112204500Y-113093500D01*
D13*
X114808000Y-115697000D02*
X112204500Y-113093500D01*
X114016000Y-126620000D02*
X124236000Y-126620000D01*
X114016000Y-117378000D02*
X114808000Y-116586000D01*
X114016000Y-126620000D02*
X114016000Y-117378000D01*
X100457000Y-102362000D02*
X100076000Y-101981000D01*
X101727000Y-103632000D02*
X100457000Y-102362000D01*
X96266000Y-84709000D02*
X95123000Y-83566000D01*
X105156000Y-93599000D02*
X96266000Y-84709000D01*
D16*
%TO.N,+3V3*%
X123952000Y-100330000D02*
X123444000Y-100330000D01*
X120904000Y-109093000D02*
X120904000Y-109728000D01*
X113919000Y-102108000D02*
X120904000Y-109093000D01*
X100139500Y-106616500D02*
X104711500Y-106616500D01*
X104711500Y-106616500D02*
X107315000Y-109220000D01*
X108458000Y-94488000D02*
X106172000Y-92202000D01*
X106172000Y-92202000D02*
X106172000Y-77597000D01*
X134620000Y-115951000D02*
X132715000Y-114046000D01*
X125222000Y-114046000D02*
X120904000Y-109728000D01*
X132715000Y-114046000D02*
X125222000Y-114046000D01*
X106172000Y-77597000D02*
X88900000Y-77597000D01*
%TO.N,VDD*%
X96310999Y-128352001D02*
X88093001Y-128352001D01*
X97536000Y-127127000D02*
X96310999Y-128352001D01*
X85090000Y-125349000D02*
X85090000Y-124587000D01*
X88093001Y-128352001D02*
X85090000Y-125349000D01*
%TO.N,Net-(C_PW_2-Pad1)*%
X99949000Y-123698000D02*
X102997000Y-120650000D01*
X102997000Y-120624600D02*
X104495600Y-119126000D01*
X102997000Y-120650000D02*
X102997000Y-120624600D01*
%TO.N,Net-(C_PW_3-Pad2)*%
X96012000Y-120396000D02*
X95885000Y-120523000D01*
X96012000Y-117221000D02*
X96012000Y-120396000D01*
%TO.N,Net-(C_PW_5-Pad1)*%
X96520000Y-121793000D02*
X97028000Y-121285000D01*
X97028000Y-121285000D02*
X97028000Y-114808000D01*
%TO.N,VS*%
X121666000Y-116586000D02*
X125476000Y-116586000D01*
X133731000Y-116586000D02*
X139446000Y-122301000D01*
X125476000Y-116586000D02*
X133731000Y-116586000D01*
X116033001Y-116287001D02*
X116033001Y-115435999D01*
X114020702Y-113423700D02*
X113779300Y-113423700D01*
X116033001Y-115435999D02*
X114020702Y-113423700D01*
X121513000Y-120523000D02*
X121526000Y-120536000D01*
X118237000Y-120523000D02*
X118237000Y-118491000D01*
X118237000Y-118491000D02*
X116033001Y-116287001D01*
X115697000Y-120523000D02*
X118237000Y-120523000D01*
X118237000Y-120523000D02*
X121513000Y-120523000D01*
D15*
%TO.N,/IMU/IMU_SDO_SAO*%
X92522802Y-114808000D02*
X98425000Y-108905802D01*
X89789000Y-114808000D02*
X92522802Y-114808000D01*
X98425000Y-104340652D02*
X98418252Y-104333904D01*
X98425000Y-108905802D02*
X98425000Y-104340652D01*
%TO.N,/ESP32 Chip/ESP32_Pin16*%
X110490000Y-101373998D02*
X115343998Y-96520000D01*
X110490000Y-103632000D02*
X110490000Y-101373998D01*
X110490000Y-103632000D02*
X108979001Y-105142999D01*
%TO.N,/ESP32 Chip/ESP32_Pin24*%
X136196001Y-108891001D02*
X139446000Y-112141000D01*
X129465001Y-108891001D02*
X136196001Y-108891001D01*
X128905000Y-108331000D02*
X129465001Y-108891001D01*
%TO.N,/ESP32 Chip/ESP32_Pin25*%
X136652000Y-106807000D02*
X139446000Y-109601000D01*
X131826000Y-106807000D02*
X136652000Y-106807000D01*
X129921000Y-106807000D02*
X129413000Y-107315000D01*
X131826000Y-106807000D02*
X129921000Y-106807000D01*
%TO.N,/IMU/IMU_INT2*%
X91313000Y-98425000D02*
X98044000Y-98425000D01*
X98044000Y-98425000D02*
X103251000Y-93218000D01*
X114046000Y-93091000D02*
X113030000Y-92075000D01*
X114046000Y-97028000D02*
X114046000Y-93091000D01*
X110363000Y-100711000D02*
X114046000Y-97028000D01*
X107569000Y-100711000D02*
X110363000Y-100711000D01*
%TO.N,/IMU/IMU_INT1*%
X98552000Y-102235000D02*
X91313000Y-102235000D01*
X99187000Y-102870000D02*
X98552000Y-102235000D01*
X99187000Y-102870000D02*
X99441000Y-103124000D01*
%TO.N,/IMU/IMU_SCL*%
X95631000Y-106045000D02*
X96774000Y-104902000D01*
X94615000Y-106045000D02*
X95631000Y-106045000D01*
X93853000Y-105869958D02*
X93853000Y-106045000D01*
X95035479Y-104687479D02*
X93853000Y-105869958D01*
X93853000Y-106045000D02*
X91313000Y-106045000D01*
X94615000Y-106045000D02*
X93853000Y-106045000D01*
X95035479Y-104100521D02*
X95758000Y-103378000D01*
X95035479Y-104687479D02*
X95035479Y-104100521D01*
%TD*%
D17*
%TO.N,GND*%
X140778027Y-75317396D02*
X140747185Y-75279815D01*
X140650494Y-75200463D01*
X140540180Y-75141498D01*
X140420482Y-75105188D01*
X140296000Y-75092928D01*
X139731750Y-75096000D01*
X139573000Y-75254750D01*
X139573000Y-76454000D01*
X139593000Y-76454000D01*
X139593000Y-76708000D01*
X139573000Y-76708000D01*
X139573000Y-76728000D01*
X139319000Y-76728000D01*
X139319000Y-76708000D01*
X138119750Y-76708000D01*
X137961000Y-76866750D01*
X137957928Y-77431000D01*
X137970188Y-77555482D01*
X138006498Y-77675180D01*
X138065463Y-77785494D01*
X138144815Y-77882185D01*
X138241506Y-77961537D01*
X138351820Y-78020502D01*
X138424380Y-78042513D01*
X138292525Y-78174368D01*
X138130010Y-78417589D01*
X138018068Y-78687842D01*
X137961000Y-78974740D01*
X137961000Y-79267260D01*
X138018068Y-79554158D01*
X138130010Y-79824411D01*
X138292525Y-80067632D01*
X138499368Y-80274475D01*
X138673760Y-80391000D01*
X138499368Y-80507525D01*
X138292525Y-80714368D01*
X138130010Y-80957589D01*
X138018068Y-81227842D01*
X137961000Y-81514740D01*
X137961000Y-81807260D01*
X138018068Y-82094158D01*
X138130010Y-82364411D01*
X138292525Y-82607632D01*
X138499368Y-82814475D01*
X138673760Y-82931000D01*
X138499368Y-83047525D01*
X138292525Y-83254368D01*
X138130010Y-83497589D01*
X138018068Y-83767842D01*
X137961000Y-84054740D01*
X137961000Y-84347260D01*
X138018068Y-84634158D01*
X138130010Y-84904411D01*
X138292525Y-85147632D01*
X138499368Y-85354475D01*
X138673760Y-85471000D01*
X138499368Y-85587525D01*
X138292525Y-85794368D01*
X138130010Y-86037589D01*
X138018068Y-86307842D01*
X137961000Y-86594740D01*
X137961000Y-86887260D01*
X138018068Y-87174158D01*
X138130010Y-87444411D01*
X138292525Y-87687632D01*
X138499368Y-87894475D01*
X138673760Y-88011000D01*
X138499368Y-88127525D01*
X138292525Y-88334368D01*
X138130010Y-88577589D01*
X138018068Y-88847842D01*
X137961000Y-89134740D01*
X137961000Y-89427260D01*
X138018068Y-89714158D01*
X138130010Y-89984411D01*
X138292525Y-90227632D01*
X138499368Y-90434475D01*
X138673760Y-90551000D01*
X138499368Y-90667525D01*
X138292525Y-90874368D01*
X138130010Y-91117589D01*
X138018068Y-91387842D01*
X137961000Y-91674740D01*
X137961000Y-91967260D01*
X138018068Y-92254158D01*
X138130010Y-92524411D01*
X138292525Y-92767632D01*
X138499368Y-92974475D01*
X138673760Y-93091000D01*
X138499368Y-93207525D01*
X138292525Y-93414368D01*
X138130010Y-93657589D01*
X138018068Y-93927842D01*
X137961000Y-94214740D01*
X137961000Y-94507260D01*
X138018068Y-94794158D01*
X138130010Y-95064411D01*
X138292525Y-95307632D01*
X138499368Y-95514475D01*
X138673760Y-95631000D01*
X138499368Y-95747525D01*
X138292525Y-95954368D01*
X138130010Y-96197589D01*
X138018068Y-96467842D01*
X137961000Y-96754740D01*
X137961000Y-97047260D01*
X138018068Y-97334158D01*
X138130010Y-97604411D01*
X138292525Y-97847632D01*
X138499368Y-98054475D01*
X138673760Y-98171000D01*
X138499368Y-98287525D01*
X138292525Y-98494368D01*
X138130010Y-98737589D01*
X138018068Y-99007842D01*
X137961000Y-99294740D01*
X137961000Y-99587260D01*
X138018068Y-99874158D01*
X138130010Y-100144411D01*
X138292525Y-100387632D01*
X138499368Y-100594475D01*
X138673760Y-100711000D01*
X138499368Y-100827525D01*
X138292525Y-101034368D01*
X138130010Y-101277589D01*
X138018068Y-101547842D01*
X137961000Y-101834740D01*
X137961000Y-102127260D01*
X138018068Y-102414158D01*
X138130010Y-102684411D01*
X138292525Y-102927632D01*
X138499368Y-103134475D01*
X138673760Y-103251000D01*
X138499368Y-103367525D01*
X138292525Y-103574368D01*
X138130010Y-103817589D01*
X138018068Y-104087842D01*
X137961000Y-104374740D01*
X137961000Y-104667260D01*
X138018068Y-104954158D01*
X138130010Y-105224411D01*
X138292525Y-105467632D01*
X138499368Y-105674475D01*
X138673760Y-105791000D01*
X138499368Y-105907525D01*
X138292525Y-106114368D01*
X138130010Y-106357589D01*
X138018068Y-106627842D01*
X137961000Y-106914740D01*
X137961000Y-107062411D01*
X137204669Y-106306080D01*
X137181343Y-106277657D01*
X137067902Y-106184559D01*
X136938478Y-106115380D01*
X136798045Y-106072780D01*
X136688592Y-106062000D01*
X136688590Y-106062000D01*
X136652000Y-106058396D01*
X136615410Y-106062000D01*
X129957581Y-106062000D01*
X129920999Y-106058397D01*
X129884417Y-106062000D01*
X129884408Y-106062000D01*
X129774955Y-106072780D01*
X129634522Y-106115380D01*
X129634520Y-106115381D01*
X129505097Y-106184559D01*
X129435133Y-106241978D01*
X129391657Y-106277657D01*
X129368331Y-106306080D01*
X129287831Y-106386580D01*
X129140271Y-106415932D01*
X128970111Y-106486414D01*
X128816972Y-106588738D01*
X128686738Y-106718972D01*
X128584414Y-106872111D01*
X128513932Y-107042271D01*
X128478000Y-107222911D01*
X128478000Y-107407089D01*
X128494309Y-107489077D01*
X128462111Y-107502414D01*
X128308972Y-107604738D01*
X128178738Y-107734972D01*
X128076414Y-107888111D01*
X128005932Y-108058271D01*
X127970000Y-108238911D01*
X127970000Y-108423089D01*
X128005932Y-108603729D01*
X128076414Y-108773889D01*
X128178738Y-108927028D01*
X128308972Y-109057262D01*
X128462111Y-109159586D01*
X128632271Y-109230068D01*
X128779831Y-109259420D01*
X128912332Y-109391921D01*
X128935658Y-109420344D01*
X128964080Y-109443669D01*
X129049098Y-109513442D01*
X129082832Y-109531473D01*
X129178523Y-109582621D01*
X129318956Y-109625221D01*
X129428409Y-109636001D01*
X129428410Y-109636001D01*
X129465000Y-109639605D01*
X129501590Y-109636001D01*
X135887412Y-109636001D01*
X138008310Y-111756899D01*
X137961000Y-111994740D01*
X137961000Y-112287260D01*
X138018068Y-112574158D01*
X138130010Y-112844411D01*
X138292525Y-113087632D01*
X138499368Y-113294475D01*
X138673760Y-113411000D01*
X138499368Y-113527525D01*
X138292525Y-113734368D01*
X138130010Y-113977589D01*
X138018068Y-114247842D01*
X137961000Y-114534740D01*
X137961000Y-114827260D01*
X138018068Y-115114158D01*
X138130010Y-115384411D01*
X138292525Y-115627632D01*
X138499368Y-115834475D01*
X138673760Y-115951000D01*
X138499368Y-116067525D01*
X138292525Y-116274368D01*
X138130010Y-116517589D01*
X138018068Y-116787842D01*
X137961000Y-117074740D01*
X137961000Y-117367260D01*
X138018068Y-117654158D01*
X138130010Y-117924411D01*
X138292525Y-118167632D01*
X138499368Y-118374475D01*
X138673760Y-118491000D01*
X138499368Y-118607525D01*
X138292525Y-118814368D01*
X138130010Y-119057589D01*
X138018068Y-119327842D01*
X137961000Y-119614740D01*
X137961000Y-119670487D01*
X135067211Y-116776698D01*
X135216028Y-116677262D01*
X135346262Y-116547028D01*
X135448586Y-116393889D01*
X135519068Y-116223729D01*
X135555000Y-116043089D01*
X135555000Y-115858911D01*
X135519068Y-115678271D01*
X135448586Y-115508111D01*
X135346262Y-115354972D01*
X135216028Y-115224738D01*
X135062889Y-115122414D01*
X134892729Y-115051932D01*
X134859918Y-115045405D01*
X133315899Y-113501387D01*
X133290528Y-113470472D01*
X133167189Y-113369251D01*
X133026473Y-113294037D01*
X132873788Y-113247720D01*
X132754791Y-113236000D01*
X132754788Y-113236000D01*
X132715000Y-113232081D01*
X132675212Y-113236000D01*
X125557513Y-113236000D01*
X122392072Y-110070560D01*
X122392072Y-108878000D01*
X122379812Y-108753518D01*
X122343502Y-108633820D01*
X122284537Y-108523506D01*
X122205185Y-108426815D01*
X122108494Y-108347463D01*
X121998180Y-108288498D01*
X121878482Y-108252188D01*
X121754000Y-108239928D01*
X121196441Y-108239928D01*
X114824595Y-101868083D01*
X114818068Y-101835271D01*
X114801470Y-101795199D01*
X114886180Y-101769502D01*
X114996494Y-101710537D01*
X115093185Y-101631185D01*
X115172537Y-101534494D01*
X115231502Y-101424180D01*
X115253513Y-101351620D01*
X115385368Y-101483475D01*
X115628589Y-101645990D01*
X115898842Y-101757932D01*
X116185740Y-101815000D01*
X116478260Y-101815000D01*
X116765158Y-101757932D01*
X117035411Y-101645990D01*
X117278632Y-101483475D01*
X117485475Y-101276632D01*
X117602000Y-101102240D01*
X117718525Y-101276632D01*
X117925368Y-101483475D01*
X118168589Y-101645990D01*
X118438842Y-101757932D01*
X118725740Y-101815000D01*
X119018260Y-101815000D01*
X119305158Y-101757932D01*
X119575411Y-101645990D01*
X119818632Y-101483475D01*
X120025475Y-101276632D01*
X120147195Y-101094466D01*
X120216822Y-101211355D01*
X120411731Y-101427588D01*
X120645080Y-101601641D01*
X120907901Y-101726825D01*
X121055110Y-101771476D01*
X121285000Y-101650155D01*
X121285000Y-100457000D01*
X121265000Y-100457000D01*
X121265000Y-100203000D01*
X121285000Y-100203000D01*
X121285000Y-99009845D01*
X121539000Y-99009845D01*
X121539000Y-100203000D01*
X121559000Y-100203000D01*
X121559000Y-100457000D01*
X121539000Y-100457000D01*
X121539000Y-101650155D01*
X121768890Y-101771476D01*
X121916099Y-101726825D01*
X122178920Y-101601641D01*
X122412269Y-101427588D01*
X122607178Y-101211355D01*
X122676805Y-101094466D01*
X122798525Y-101276632D01*
X123005368Y-101483475D01*
X123248589Y-101645990D01*
X123518842Y-101757932D01*
X123805740Y-101815000D01*
X124098260Y-101815000D01*
X124385158Y-101757932D01*
X124655411Y-101645990D01*
X124898632Y-101483475D01*
X125105475Y-101276632D01*
X125222000Y-101102240D01*
X125338525Y-101276632D01*
X125545368Y-101483475D01*
X125788589Y-101645990D01*
X126058842Y-101757932D01*
X126345740Y-101815000D01*
X126638260Y-101815000D01*
X126925158Y-101757932D01*
X127195411Y-101645990D01*
X127438632Y-101483475D01*
X127645475Y-101276632D01*
X127762000Y-101102240D01*
X127878525Y-101276632D01*
X128085368Y-101483475D01*
X128328589Y-101645990D01*
X128598842Y-101757932D01*
X128885740Y-101815000D01*
X129178260Y-101815000D01*
X129465158Y-101757932D01*
X129735411Y-101645990D01*
X129978632Y-101483475D01*
X130185475Y-101276632D01*
X130302000Y-101102240D01*
X130418525Y-101276632D01*
X130625368Y-101483475D01*
X130868589Y-101645990D01*
X131138842Y-101757932D01*
X131425740Y-101815000D01*
X131718260Y-101815000D01*
X132005158Y-101757932D01*
X132275411Y-101645990D01*
X132518632Y-101483475D01*
X132725475Y-101276632D01*
X132887990Y-101033411D01*
X132999932Y-100763158D01*
X133057000Y-100476260D01*
X133057000Y-100183740D01*
X132999932Y-99896842D01*
X132887990Y-99626589D01*
X132725475Y-99383368D01*
X132518632Y-99176525D01*
X132275411Y-99014010D01*
X132005158Y-98902068D01*
X131718260Y-98845000D01*
X131425740Y-98845000D01*
X131138842Y-98902068D01*
X130868589Y-99014010D01*
X130625368Y-99176525D01*
X130418525Y-99383368D01*
X130302000Y-99557760D01*
X130185475Y-99383368D01*
X129978632Y-99176525D01*
X129735411Y-99014010D01*
X129465158Y-98902068D01*
X129178260Y-98845000D01*
X128885740Y-98845000D01*
X128598842Y-98902068D01*
X128328589Y-99014010D01*
X128085368Y-99176525D01*
X127878525Y-99383368D01*
X127762000Y-99557760D01*
X127645475Y-99383368D01*
X127438632Y-99176525D01*
X127195411Y-99014010D01*
X126925158Y-98902068D01*
X126638260Y-98845000D01*
X126345740Y-98845000D01*
X126058842Y-98902068D01*
X125788589Y-99014010D01*
X125545368Y-99176525D01*
X125338525Y-99383368D01*
X125222000Y-99557760D01*
X125105475Y-99383368D01*
X124898632Y-99176525D01*
X124655411Y-99014010D01*
X124385158Y-98902068D01*
X124098260Y-98845000D01*
X123805740Y-98845000D01*
X123518842Y-98902068D01*
X123248589Y-99014010D01*
X123005368Y-99176525D01*
X122798525Y-99383368D01*
X122676805Y-99565534D01*
X122607178Y-99448645D01*
X122412269Y-99232412D01*
X122178920Y-99058359D01*
X121916099Y-98933175D01*
X121768890Y-98888524D01*
X121539000Y-99009845D01*
X121285000Y-99009845D01*
X121055110Y-98888524D01*
X120907901Y-98933175D01*
X120645080Y-99058359D01*
X120411731Y-99232412D01*
X120216822Y-99448645D01*
X120147195Y-99565534D01*
X120025475Y-99383368D01*
X119818632Y-99176525D01*
X119575411Y-99014010D01*
X119305158Y-98902068D01*
X119018260Y-98845000D01*
X118725740Y-98845000D01*
X118438842Y-98902068D01*
X118168589Y-99014010D01*
X117925368Y-99176525D01*
X117718525Y-99383368D01*
X117602000Y-99557760D01*
X117485475Y-99383368D01*
X117278632Y-99176525D01*
X117035411Y-99014010D01*
X116765158Y-98902068D01*
X116478260Y-98845000D01*
X116185740Y-98845000D01*
X115898842Y-98902068D01*
X115628589Y-99014010D01*
X115385368Y-99176525D01*
X115253513Y-99308380D01*
X115231502Y-99235820D01*
X115172537Y-99125506D01*
X115093185Y-99028815D01*
X114996494Y-98949463D01*
X114886180Y-98890498D01*
X114766482Y-98854188D01*
X114642000Y-98841928D01*
X114075659Y-98841928D01*
X115469167Y-97448420D01*
X115616727Y-97419068D01*
X115786887Y-97348586D01*
X115940026Y-97246262D01*
X116070260Y-97116028D01*
X116172584Y-96962889D01*
X116243066Y-96792729D01*
X116278998Y-96612089D01*
X116278998Y-96427911D01*
X116243066Y-96247271D01*
X116172584Y-96077111D01*
X116070260Y-95923972D01*
X115940026Y-95793738D01*
X115786887Y-95691414D01*
X115616727Y-95620932D01*
X115436087Y-95585000D01*
X115251909Y-95585000D01*
X115071269Y-95620932D01*
X114901109Y-95691414D01*
X114791000Y-95764986D01*
X114791000Y-93127590D01*
X114794604Y-93091000D01*
X114786626Y-93010000D01*
X114780220Y-92944955D01*
X114737620Y-92804522D01*
X114675689Y-92688658D01*
X114668441Y-92675097D01*
X114598669Y-92590079D01*
X114598664Y-92590074D01*
X114575343Y-92561657D01*
X114546925Y-92538335D01*
X113958420Y-91949830D01*
X113929068Y-91802271D01*
X113858586Y-91632111D01*
X113756262Y-91478972D01*
X113626028Y-91348738D01*
X113472889Y-91246414D01*
X113302729Y-91175932D01*
X113122089Y-91140000D01*
X112937911Y-91140000D01*
X112757271Y-91175932D01*
X112587111Y-91246414D01*
X112433972Y-91348738D01*
X112303738Y-91478972D01*
X112201414Y-91632111D01*
X112130932Y-91802271D01*
X112095000Y-91982911D01*
X112095000Y-92167089D01*
X112130932Y-92347729D01*
X112201414Y-92517889D01*
X112303738Y-92671028D01*
X112433972Y-92801262D01*
X112587111Y-92903586D01*
X112757271Y-92974068D01*
X112904830Y-93003420D01*
X113301001Y-93399591D01*
X113301000Y-96719411D01*
X110054411Y-99966000D01*
X108136985Y-99966000D01*
X108011889Y-99882414D01*
X107841729Y-99811932D01*
X107661089Y-99776000D01*
X107476911Y-99776000D01*
X107296271Y-99811932D01*
X107126111Y-99882414D01*
X106972972Y-99984738D01*
X106842738Y-100114972D01*
X106740414Y-100268111D01*
X106669932Y-100438271D01*
X106634000Y-100618911D01*
X106634000Y-100803089D01*
X106669932Y-100983729D01*
X106740414Y-101153889D01*
X106842738Y-101307028D01*
X106972972Y-101437262D01*
X107126111Y-101539586D01*
X107296271Y-101610068D01*
X107476911Y-101646000D01*
X107661089Y-101646000D01*
X107841729Y-101610068D01*
X108011889Y-101539586D01*
X108136985Y-101456000D01*
X109745001Y-101456000D01*
X109745000Y-103323411D01*
X108853832Y-104214579D01*
X108706272Y-104243931D01*
X108536112Y-104314413D01*
X108382973Y-104416737D01*
X108252739Y-104546971D01*
X108150415Y-104700110D01*
X108079933Y-104870270D01*
X108044001Y-105050910D01*
X108044001Y-105235088D01*
X108079933Y-105415728D01*
X108150415Y-105585888D01*
X108252739Y-105739027D01*
X108382973Y-105869261D01*
X108536112Y-105971585D01*
X108706272Y-106042067D01*
X108886912Y-106077999D01*
X109071090Y-106077999D01*
X109251730Y-106042067D01*
X109421890Y-105971585D01*
X109575029Y-105869261D01*
X109705263Y-105739027D01*
X109807587Y-105585888D01*
X109878069Y-105415728D01*
X109907421Y-105268168D01*
X110990921Y-104184668D01*
X111019343Y-104161343D01*
X111069258Y-104100521D01*
X111112441Y-104047903D01*
X111155684Y-103967000D01*
X111181620Y-103918478D01*
X111224220Y-103778045D01*
X111235000Y-103668592D01*
X111235000Y-103668583D01*
X111238603Y-103632001D01*
X111235000Y-103595419D01*
X111235000Y-101682587D01*
X112303928Y-100613659D01*
X112303928Y-101180000D01*
X112316188Y-101304482D01*
X112352498Y-101424180D01*
X112411463Y-101534494D01*
X112490815Y-101631185D01*
X112587506Y-101710537D01*
X112697820Y-101769502D01*
X112817518Y-101805812D01*
X112942000Y-101818072D01*
X113027056Y-101818072D01*
X113019932Y-101835271D01*
X112984000Y-102015911D01*
X112984000Y-102200089D01*
X113019932Y-102380729D01*
X113090414Y-102550889D01*
X113192738Y-102704028D01*
X113322972Y-102834262D01*
X113476111Y-102936586D01*
X113646271Y-103007068D01*
X113679083Y-103013595D01*
X119427365Y-108761878D01*
X119415928Y-108878000D01*
X119415928Y-110578000D01*
X119428188Y-110702482D01*
X119464498Y-110822180D01*
X119523463Y-110932494D01*
X119602815Y-111029185D01*
X119699506Y-111108537D01*
X119809820Y-111167502D01*
X119929518Y-111203812D01*
X120054000Y-111216072D01*
X121246560Y-111216072D01*
X124621105Y-114590618D01*
X124646472Y-114621528D01*
X124695733Y-114661955D01*
X124769810Y-114722749D01*
X124838100Y-114759250D01*
X124910527Y-114797963D01*
X125063212Y-114844280D01*
X125182209Y-114856000D01*
X125182211Y-114856000D01*
X125221999Y-114859919D01*
X125261787Y-114856000D01*
X132379488Y-114856000D01*
X133299487Y-115776000D01*
X126964072Y-115776000D01*
X126964072Y-115736000D01*
X126951812Y-115611518D01*
X126915502Y-115491820D01*
X126856537Y-115381506D01*
X126777185Y-115284815D01*
X126680494Y-115205463D01*
X126570180Y-115146498D01*
X126450482Y-115110188D01*
X126326000Y-115097928D01*
X124626000Y-115097928D01*
X124501518Y-115110188D01*
X124381820Y-115146498D01*
X124271506Y-115205463D01*
X124174815Y-115284815D01*
X124095463Y-115381506D01*
X124036498Y-115491820D01*
X124000188Y-115611518D01*
X123987928Y-115736000D01*
X123987928Y-115776000D01*
X122910770Y-115776000D01*
X122819475Y-115639368D01*
X122612632Y-115432525D01*
X122369411Y-115270010D01*
X122099158Y-115158068D01*
X121812260Y-115101000D01*
X121519740Y-115101000D01*
X121232842Y-115158068D01*
X120962589Y-115270010D01*
X120719368Y-115432525D01*
X120587513Y-115564380D01*
X120565502Y-115491820D01*
X120506537Y-115381506D01*
X120427185Y-115284815D01*
X120330494Y-115205463D01*
X120220180Y-115146498D01*
X120100482Y-115110188D01*
X119976000Y-115097928D01*
X118276000Y-115097928D01*
X118151518Y-115110188D01*
X118031820Y-115146498D01*
X117921506Y-115205463D01*
X117824815Y-115284815D01*
X117745463Y-115381506D01*
X117686498Y-115491820D01*
X117650188Y-115611518D01*
X117637928Y-115736000D01*
X117637928Y-116746416D01*
X116843001Y-115951489D01*
X116843001Y-115475790D01*
X116846920Y-115435999D01*
X116831281Y-115277211D01*
X116784964Y-115124525D01*
X116709750Y-114983810D01*
X116633894Y-114891379D01*
X116608529Y-114860471D01*
X116577619Y-114835104D01*
X114621601Y-112879087D01*
X114596230Y-112848172D01*
X114472891Y-112746951D01*
X114355613Y-112684265D01*
X114222189Y-112595114D01*
X114052029Y-112524632D01*
X113871389Y-112488700D01*
X113687211Y-112488700D01*
X113506571Y-112524632D01*
X113336411Y-112595114D01*
X113183272Y-112697438D01*
X113053038Y-112827672D01*
X112950714Y-112980811D01*
X112880232Y-113150971D01*
X112844300Y-113331611D01*
X112844300Y-113515789D01*
X112880232Y-113696429D01*
X112950714Y-113866589D01*
X113053038Y-114019728D01*
X113183272Y-114149962D01*
X113336411Y-114252286D01*
X113506571Y-114322768D01*
X113687211Y-114358700D01*
X113810190Y-114358700D01*
X114680998Y-115229509D01*
X114680998Y-115259748D01*
X114522250Y-115101000D01*
X113958000Y-115097928D01*
X113833518Y-115110188D01*
X113713820Y-115146498D01*
X113603506Y-115205463D01*
X113506815Y-115284815D01*
X113427463Y-115381506D01*
X113368498Y-115491820D01*
X113332188Y-115611518D01*
X113319928Y-115736000D01*
X113323000Y-116300250D01*
X113481750Y-116459000D01*
X114681000Y-116459000D01*
X114681000Y-116439000D01*
X114935000Y-116439000D01*
X114935000Y-116459000D01*
X114955000Y-116459000D01*
X114955000Y-116713000D01*
X114935000Y-116713000D01*
X114935000Y-117912250D01*
X115093750Y-118071000D01*
X115658000Y-118074072D01*
X115782482Y-118061812D01*
X115902180Y-118025502D01*
X116012494Y-117966537D01*
X116109185Y-117887185D01*
X116188537Y-117790494D01*
X116247502Y-117680180D01*
X116255221Y-117654733D01*
X117427001Y-118826514D01*
X117427000Y-119713000D01*
X116167705Y-119713000D01*
X116139889Y-119694414D01*
X115969729Y-119623932D01*
X115789089Y-119588000D01*
X115604911Y-119588000D01*
X115424271Y-119623932D01*
X115254111Y-119694414D01*
X115100972Y-119796738D01*
X114970738Y-119926972D01*
X114868414Y-120080111D01*
X114797932Y-120250271D01*
X114762000Y-120430911D01*
X114762000Y-120615089D01*
X114797932Y-120795729D01*
X114868414Y-120965889D01*
X114970738Y-121119028D01*
X115100972Y-121249262D01*
X115254111Y-121351586D01*
X115424271Y-121422068D01*
X115604911Y-121458000D01*
X115789089Y-121458000D01*
X115969729Y-121422068D01*
X116139889Y-121351586D01*
X116167705Y-121333000D01*
X118197209Y-121333000D01*
X118237000Y-121336919D01*
X118276791Y-121333000D01*
X121035839Y-121333000D01*
X121083111Y-121364586D01*
X121253271Y-121435068D01*
X121433911Y-121471000D01*
X121618089Y-121471000D01*
X121798729Y-121435068D01*
X121968889Y-121364586D01*
X122122028Y-121262262D01*
X122252262Y-121132028D01*
X122354586Y-120978889D01*
X122425068Y-120808729D01*
X122461000Y-120628089D01*
X122461000Y-120443911D01*
X122425068Y-120263271D01*
X122354586Y-120093111D01*
X122252262Y-119939972D01*
X122122028Y-119809738D01*
X121968889Y-119707414D01*
X121798729Y-119636932D01*
X121618089Y-119601000D01*
X121433911Y-119601000D01*
X121253271Y-119636932D01*
X121083111Y-119707414D01*
X121074751Y-119713000D01*
X119047000Y-119713000D01*
X119047000Y-118530787D01*
X119050919Y-118490999D01*
X119046389Y-118445010D01*
X119035280Y-118332212D01*
X118988963Y-118179527D01*
X118935267Y-118079068D01*
X118932597Y-118074072D01*
X119976000Y-118074072D01*
X120100482Y-118061812D01*
X120220180Y-118025502D01*
X120330494Y-117966537D01*
X120427185Y-117887185D01*
X120506537Y-117790494D01*
X120565502Y-117680180D01*
X120587513Y-117607620D01*
X120719368Y-117739475D01*
X120962589Y-117901990D01*
X121232842Y-118013932D01*
X121519740Y-118071000D01*
X121812260Y-118071000D01*
X122099158Y-118013932D01*
X122369411Y-117901990D01*
X122612632Y-117739475D01*
X122819475Y-117532632D01*
X122910770Y-117396000D01*
X123987928Y-117396000D01*
X123987928Y-117436000D01*
X124000188Y-117560482D01*
X124036498Y-117680180D01*
X124095463Y-117790494D01*
X124174815Y-117887185D01*
X124271506Y-117966537D01*
X124381820Y-118025502D01*
X124501518Y-118061812D01*
X124626000Y-118074072D01*
X126326000Y-118074072D01*
X126450482Y-118061812D01*
X126570180Y-118025502D01*
X126680494Y-117966537D01*
X126777185Y-117887185D01*
X126856537Y-117790494D01*
X126915502Y-117680180D01*
X126951812Y-117560482D01*
X126964072Y-117436000D01*
X126964072Y-117396000D01*
X133395488Y-117396000D01*
X137993059Y-121993571D01*
X137961000Y-122154740D01*
X137961000Y-122447260D01*
X138018068Y-122734158D01*
X138130010Y-123004411D01*
X138292525Y-123247632D01*
X138499368Y-123454475D01*
X138681534Y-123576195D01*
X138564645Y-123645822D01*
X138348412Y-123840731D01*
X138174359Y-124074080D01*
X138049175Y-124336901D01*
X138004524Y-124484110D01*
X138125845Y-124714000D01*
X139319000Y-124714000D01*
X139319000Y-124694000D01*
X139573000Y-124694000D01*
X139573000Y-124714000D01*
X139593000Y-124714000D01*
X139593000Y-124968000D01*
X139573000Y-124968000D01*
X139573000Y-126161814D01*
X139802891Y-126282481D01*
X140077252Y-126185157D01*
X140327355Y-126036178D01*
X140543588Y-125841269D01*
X140666116Y-125676998D01*
X140666075Y-125695594D01*
X140666000Y-125696354D01*
X140666000Y-125729271D01*
X140665927Y-125762124D01*
X140666000Y-125762883D01*
X140666001Y-129109000D01*
X96605871Y-129109000D01*
X96622472Y-129103964D01*
X96763188Y-129028750D01*
X96886527Y-128927529D01*
X96911898Y-128896614D01*
X97228571Y-128579941D01*
X97389740Y-128612000D01*
X97682260Y-128612000D01*
X97969158Y-128554932D01*
X98239411Y-128442990D01*
X98482632Y-128280475D01*
X98689475Y-128073632D01*
X98851990Y-127830411D01*
X98963932Y-127560158D01*
X99021000Y-127273260D01*
X99021000Y-126980740D01*
X98963932Y-126693842D01*
X98851990Y-126423589D01*
X98754043Y-126277000D01*
X99984928Y-126277000D01*
X99984928Y-127977000D01*
X99997188Y-128101482D01*
X100033498Y-128221180D01*
X100092463Y-128331494D01*
X100171815Y-128428185D01*
X100268506Y-128507537D01*
X100378820Y-128566502D01*
X100498518Y-128602812D01*
X100623000Y-128615072D01*
X102323000Y-128615072D01*
X102447482Y-128602812D01*
X102567180Y-128566502D01*
X102677494Y-128507537D01*
X102774185Y-128428185D01*
X102853537Y-128331494D01*
X102912502Y-128221180D01*
X102934513Y-128148620D01*
X103066368Y-128280475D01*
X103309589Y-128442990D01*
X103579842Y-128554932D01*
X103866740Y-128612000D01*
X104159260Y-128612000D01*
X104446158Y-128554932D01*
X104716411Y-128442990D01*
X104959632Y-128280475D01*
X105166475Y-128073632D01*
X105283000Y-127899240D01*
X105399525Y-128073632D01*
X105606368Y-128280475D01*
X105849589Y-128442990D01*
X106119842Y-128554932D01*
X106406740Y-128612000D01*
X106699260Y-128612000D01*
X106986158Y-128554932D01*
X107256411Y-128442990D01*
X107499632Y-128280475D01*
X107706475Y-128073632D01*
X107823000Y-127899240D01*
X107939525Y-128073632D01*
X108146368Y-128280475D01*
X108389589Y-128442990D01*
X108659842Y-128554932D01*
X108946740Y-128612000D01*
X109239260Y-128612000D01*
X109526158Y-128554932D01*
X109796411Y-128442990D01*
X110039632Y-128280475D01*
X110246475Y-128073632D01*
X110408990Y-127830411D01*
X110520932Y-127560158D01*
X110578000Y-127273260D01*
X110578000Y-126980740D01*
X110520932Y-126693842D01*
X110408990Y-126423589D01*
X110311043Y-126277000D01*
X126146928Y-126277000D01*
X126146928Y-127977000D01*
X126159188Y-128101482D01*
X126195498Y-128221180D01*
X126254463Y-128331494D01*
X126333815Y-128428185D01*
X126430506Y-128507537D01*
X126540820Y-128566502D01*
X126660518Y-128602812D01*
X126785000Y-128615072D01*
X128485000Y-128615072D01*
X128609482Y-128602812D01*
X128729180Y-128566502D01*
X128839494Y-128507537D01*
X128936185Y-128428185D01*
X129015537Y-128331494D01*
X129074502Y-128221180D01*
X129096513Y-128148620D01*
X129228368Y-128280475D01*
X129471589Y-128442990D01*
X129741842Y-128554932D01*
X130028740Y-128612000D01*
X130321260Y-128612000D01*
X130608158Y-128554932D01*
X130878411Y-128442990D01*
X131121632Y-128280475D01*
X131328475Y-128073632D01*
X131445000Y-127899240D01*
X131561525Y-128073632D01*
X131768368Y-128280475D01*
X132011589Y-128442990D01*
X132281842Y-128554932D01*
X132568740Y-128612000D01*
X132861260Y-128612000D01*
X133148158Y-128554932D01*
X133418411Y-128442990D01*
X133661632Y-128280475D01*
X133868475Y-128073632D01*
X133985000Y-127899240D01*
X134101525Y-128073632D01*
X134308368Y-128280475D01*
X134551589Y-128442990D01*
X134821842Y-128554932D01*
X135108740Y-128612000D01*
X135401260Y-128612000D01*
X135688158Y-128554932D01*
X135958411Y-128442990D01*
X136201632Y-128280475D01*
X136408475Y-128073632D01*
X136570990Y-127830411D01*
X136682932Y-127560158D01*
X136740000Y-127273260D01*
X136740000Y-126980740D01*
X136682932Y-126693842D01*
X136570990Y-126423589D01*
X136408475Y-126180368D01*
X136201632Y-125973525D01*
X135958411Y-125811010D01*
X135688158Y-125699068D01*
X135401260Y-125642000D01*
X135108740Y-125642000D01*
X134821842Y-125699068D01*
X134551589Y-125811010D01*
X134308368Y-125973525D01*
X134101525Y-126180368D01*
X133985000Y-126354760D01*
X133868475Y-126180368D01*
X133661632Y-125973525D01*
X133418411Y-125811010D01*
X133148158Y-125699068D01*
X132861260Y-125642000D01*
X132568740Y-125642000D01*
X132281842Y-125699068D01*
X132011589Y-125811010D01*
X131768368Y-125973525D01*
X131561525Y-126180368D01*
X131445000Y-126354760D01*
X131328475Y-126180368D01*
X131121632Y-125973525D01*
X130878411Y-125811010D01*
X130608158Y-125699068D01*
X130321260Y-125642000D01*
X130028740Y-125642000D01*
X129741842Y-125699068D01*
X129471589Y-125811010D01*
X129228368Y-125973525D01*
X129096513Y-126105380D01*
X129074502Y-126032820D01*
X129015537Y-125922506D01*
X128936185Y-125825815D01*
X128839494Y-125746463D01*
X128729180Y-125687498D01*
X128609482Y-125651188D01*
X128485000Y-125638928D01*
X126785000Y-125638928D01*
X126660518Y-125651188D01*
X126540820Y-125687498D01*
X126430506Y-125746463D01*
X126333815Y-125825815D01*
X126254463Y-125922506D01*
X126195498Y-126032820D01*
X126159188Y-126152518D01*
X126146928Y-126277000D01*
X110311043Y-126277000D01*
X110246475Y-126180368D01*
X110039632Y-125973525D01*
X109796411Y-125811010D01*
X109526158Y-125699068D01*
X109239260Y-125642000D01*
X108946740Y-125642000D01*
X108659842Y-125699068D01*
X108389589Y-125811010D01*
X108146368Y-125973525D01*
X107939525Y-126180368D01*
X107823000Y-126354760D01*
X107706475Y-126180368D01*
X107499632Y-125973525D01*
X107256411Y-125811010D01*
X106986158Y-125699068D01*
X106699260Y-125642000D01*
X106406740Y-125642000D01*
X106119842Y-125699068D01*
X105849589Y-125811010D01*
X105606368Y-125973525D01*
X105399525Y-126180368D01*
X105283000Y-126354760D01*
X105166475Y-126180368D01*
X104959632Y-125973525D01*
X104716411Y-125811010D01*
X104446158Y-125699068D01*
X104159260Y-125642000D01*
X103866740Y-125642000D01*
X103579842Y-125699068D01*
X103309589Y-125811010D01*
X103066368Y-125973525D01*
X102934513Y-126105380D01*
X102912502Y-126032820D01*
X102853537Y-125922506D01*
X102774185Y-125825815D01*
X102677494Y-125746463D01*
X102567180Y-125687498D01*
X102447482Y-125651188D01*
X102323000Y-125638928D01*
X100623000Y-125638928D01*
X100498518Y-125651188D01*
X100378820Y-125687498D01*
X100268506Y-125746463D01*
X100171815Y-125825815D01*
X100092463Y-125922506D01*
X100033498Y-126032820D01*
X99997188Y-126152518D01*
X99984928Y-126277000D01*
X98754043Y-126277000D01*
X98689475Y-126180368D01*
X98482632Y-125973525D01*
X98239411Y-125811010D01*
X97969158Y-125699068D01*
X97682260Y-125642000D01*
X97389740Y-125642000D01*
X97102842Y-125699068D01*
X96832589Y-125811010D01*
X96589368Y-125973525D01*
X96457513Y-126105380D01*
X96435502Y-126032820D01*
X96376537Y-125922506D01*
X96297185Y-125825815D01*
X96200494Y-125746463D01*
X96090180Y-125687498D01*
X95970482Y-125651188D01*
X95846000Y-125638928D01*
X95281750Y-125642000D01*
X95123000Y-125800750D01*
X95123000Y-127000000D01*
X95143000Y-127000000D01*
X95143000Y-127254000D01*
X95123000Y-127254000D01*
X95123000Y-127274000D01*
X94869000Y-127274000D01*
X94869000Y-127254000D01*
X93669750Y-127254000D01*
X93511000Y-127412750D01*
X93510296Y-127542001D01*
X88428514Y-127542001D01*
X87163513Y-126277000D01*
X93507928Y-126277000D01*
X93511000Y-126841250D01*
X93669750Y-127000000D01*
X94869000Y-127000000D01*
X94869000Y-125800750D01*
X94710250Y-125642000D01*
X94146000Y-125638928D01*
X94021518Y-125651188D01*
X93901820Y-125687498D01*
X93791506Y-125746463D01*
X93694815Y-125825815D01*
X93615463Y-125922506D01*
X93556498Y-126032820D01*
X93520188Y-126152518D01*
X93507928Y-126277000D01*
X87163513Y-126277000D01*
X86314239Y-125427727D01*
X86405990Y-125290411D01*
X86444313Y-125197890D01*
X138004524Y-125197890D01*
X138049175Y-125345099D01*
X138174359Y-125607920D01*
X138348412Y-125841269D01*
X138564645Y-126036178D01*
X138814748Y-126185157D01*
X139089109Y-126282481D01*
X139319000Y-126161814D01*
X139319000Y-124968000D01*
X138125845Y-124968000D01*
X138004524Y-125197890D01*
X86444313Y-125197890D01*
X86517932Y-125020158D01*
X86575000Y-124733260D01*
X86575000Y-124440740D01*
X86517932Y-124153842D01*
X86405990Y-123883589D01*
X86243475Y-123640368D01*
X86209018Y-123605911D01*
X99014000Y-123605911D01*
X99014000Y-123790089D01*
X99049932Y-123970729D01*
X99120414Y-124140889D01*
X99222738Y-124294028D01*
X99352972Y-124424262D01*
X99506111Y-124526586D01*
X99676271Y-124597068D01*
X99856911Y-124633000D01*
X100041089Y-124633000D01*
X100221729Y-124597068D01*
X100391889Y-124526586D01*
X100545028Y-124424262D01*
X100675262Y-124294028D01*
X100777586Y-124140889D01*
X100848068Y-123970729D01*
X100854595Y-123937917D01*
X101697064Y-123095448D01*
X115276000Y-123095448D01*
X115276000Y-123284552D01*
X115312892Y-123470022D01*
X115385259Y-123644731D01*
X115490319Y-123801964D01*
X115624036Y-123935681D01*
X115781269Y-124040741D01*
X115955978Y-124113108D01*
X116141448Y-124150000D01*
X116330552Y-124150000D01*
X116516022Y-124113108D01*
X116690731Y-124040741D01*
X116847964Y-123935681D01*
X116981681Y-123801964D01*
X117086741Y-123644731D01*
X117159108Y-123470022D01*
X117196000Y-123284552D01*
X117196000Y-123095448D01*
X121056000Y-123095448D01*
X121056000Y-123284552D01*
X121092892Y-123470022D01*
X121165259Y-123644731D01*
X121270319Y-123801964D01*
X121404036Y-123935681D01*
X121561269Y-124040741D01*
X121735978Y-124113108D01*
X121921448Y-124150000D01*
X122110552Y-124150000D01*
X122296022Y-124113108D01*
X122470731Y-124040741D01*
X122627964Y-123935681D01*
X122761681Y-123801964D01*
X122866741Y-123644731D01*
X122939108Y-123470022D01*
X122976000Y-123284552D01*
X122976000Y-123095448D01*
X122939108Y-122909978D01*
X122866741Y-122735269D01*
X122761681Y-122578036D01*
X122627964Y-122444319D01*
X122470731Y-122339259D01*
X122296022Y-122266892D01*
X122110552Y-122230000D01*
X121921448Y-122230000D01*
X121735978Y-122266892D01*
X121561269Y-122339259D01*
X121404036Y-122444319D01*
X121270319Y-122578036D01*
X121165259Y-122735269D01*
X121092892Y-122909978D01*
X121056000Y-123095448D01*
X117196000Y-123095448D01*
X117159108Y-122909978D01*
X117086741Y-122735269D01*
X116981681Y-122578036D01*
X116847964Y-122444319D01*
X116690731Y-122339259D01*
X116516022Y-122266892D01*
X116330552Y-122230000D01*
X116141448Y-122230000D01*
X115955978Y-122266892D01*
X115781269Y-122339259D01*
X115624036Y-122444319D01*
X115490319Y-122578036D01*
X115385259Y-122735269D01*
X115312892Y-122909978D01*
X115276000Y-123095448D01*
X101697064Y-123095448D01*
X103541619Y-121250894D01*
X103572528Y-121225528D01*
X103636543Y-121147525D01*
X103673749Y-121102190D01*
X103683884Y-121083228D01*
X104735518Y-120031595D01*
X104768329Y-120025068D01*
X104938489Y-119954586D01*
X105091628Y-119852262D01*
X105221862Y-119722028D01*
X105324186Y-119568889D01*
X105394668Y-119398729D01*
X105430600Y-119218089D01*
X105430600Y-119033911D01*
X105394668Y-118853271D01*
X105324186Y-118683111D01*
X105221862Y-118529972D01*
X105091628Y-118399738D01*
X104938489Y-118297414D01*
X104768329Y-118226932D01*
X104587689Y-118191000D01*
X104403511Y-118191000D01*
X104222871Y-118226932D01*
X104052711Y-118297414D01*
X103899572Y-118399738D01*
X103769338Y-118529972D01*
X103667014Y-118683111D01*
X103596532Y-118853271D01*
X103590005Y-118886082D01*
X102452386Y-120023702D01*
X102421472Y-120049072D01*
X102320251Y-120172411D01*
X102310117Y-120191370D01*
X99709083Y-122792405D01*
X99676271Y-122798932D01*
X99506111Y-122869414D01*
X99352972Y-122971738D01*
X99222738Y-123101972D01*
X99120414Y-123255111D01*
X99049932Y-123425271D01*
X99014000Y-123605911D01*
X86209018Y-123605911D01*
X86036632Y-123433525D01*
X85854466Y-123311805D01*
X85971355Y-123242178D01*
X86187588Y-123047269D01*
X86361641Y-122813920D01*
X86486825Y-122551099D01*
X86531476Y-122403890D01*
X86410155Y-122174000D01*
X85217000Y-122174000D01*
X85217000Y-122194000D01*
X84963000Y-122194000D01*
X84963000Y-122174000D01*
X84943000Y-122174000D01*
X84943000Y-121920000D01*
X84963000Y-121920000D01*
X84963000Y-121900000D01*
X85217000Y-121900000D01*
X85217000Y-121920000D01*
X86410155Y-121920000D01*
X86531476Y-121690110D01*
X86486825Y-121542901D01*
X86361641Y-121280080D01*
X86187588Y-121046731D01*
X85971355Y-120851822D01*
X85854466Y-120782195D01*
X86036632Y-120660475D01*
X86243475Y-120453632D01*
X86258656Y-120430911D01*
X94950000Y-120430911D01*
X94950000Y-120615089D01*
X94985932Y-120795729D01*
X95056414Y-120965889D01*
X95158738Y-121119028D01*
X95288972Y-121249262D01*
X95442111Y-121351586D01*
X95612271Y-121422068D01*
X95657853Y-121431135D01*
X95620932Y-121520271D01*
X95585000Y-121700911D01*
X95585000Y-121885089D01*
X95620932Y-122065729D01*
X95691414Y-122235889D01*
X95793738Y-122389028D01*
X95923972Y-122519262D01*
X96077111Y-122621586D01*
X96247271Y-122692068D01*
X96427911Y-122728000D01*
X96612089Y-122728000D01*
X96792729Y-122692068D01*
X96962889Y-122621586D01*
X97116028Y-122519262D01*
X97246262Y-122389028D01*
X97348586Y-122235889D01*
X97419068Y-122065729D01*
X97425595Y-122032917D01*
X97572614Y-121885898D01*
X97603528Y-121860528D01*
X97704749Y-121737189D01*
X97779963Y-121596473D01*
X97826280Y-121443788D01*
X97838000Y-121324791D01*
X97838000Y-121324789D01*
X97841919Y-121285001D01*
X97838000Y-121245213D01*
X97838000Y-117436000D01*
X113319928Y-117436000D01*
X113332188Y-117560482D01*
X113368498Y-117680180D01*
X113427463Y-117790494D01*
X113506815Y-117887185D01*
X113603506Y-117966537D01*
X113713820Y-118025502D01*
X113833518Y-118061812D01*
X113958000Y-118074072D01*
X114522250Y-118071000D01*
X114681000Y-117912250D01*
X114681000Y-116713000D01*
X113481750Y-116713000D01*
X113323000Y-116871750D01*
X113319928Y-117436000D01*
X97838000Y-117436000D01*
X97838000Y-115278705D01*
X97856586Y-115250889D01*
X97927068Y-115080729D01*
X97963000Y-114900089D01*
X97963000Y-114715911D01*
X97927068Y-114535271D01*
X97856586Y-114365111D01*
X97754262Y-114211972D01*
X97624028Y-114081738D01*
X97470889Y-113979414D01*
X97300729Y-113908932D01*
X97120089Y-113873000D01*
X96935911Y-113873000D01*
X96755271Y-113908932D01*
X96585111Y-113979414D01*
X96431972Y-114081738D01*
X96301738Y-114211972D01*
X96199414Y-114365111D01*
X96128932Y-114535271D01*
X96093000Y-114715911D01*
X96093000Y-114900089D01*
X96128932Y-115080729D01*
X96199414Y-115250889D01*
X96218001Y-115278706D01*
X96218001Y-116308659D01*
X96104089Y-116286000D01*
X95919911Y-116286000D01*
X95739271Y-116321932D01*
X95569111Y-116392414D01*
X95415972Y-116494738D01*
X95285738Y-116624972D01*
X95183414Y-116778111D01*
X95112932Y-116948271D01*
X95077000Y-117128911D01*
X95077000Y-117313089D01*
X95112932Y-117493729D01*
X95183414Y-117663889D01*
X95202000Y-117691705D01*
X95202001Y-119883709D01*
X95158738Y-119926972D01*
X95056414Y-120080111D01*
X94985932Y-120250271D01*
X94950000Y-120430911D01*
X86258656Y-120430911D01*
X86405990Y-120210411D01*
X86517932Y-119940158D01*
X86575000Y-119653260D01*
X86575000Y-119360740D01*
X86517932Y-119073842D01*
X86405990Y-118803589D01*
X86243475Y-118560368D01*
X86036632Y-118353525D01*
X85862240Y-118237000D01*
X86036632Y-118120475D01*
X86243475Y-117913632D01*
X86405990Y-117670411D01*
X86517932Y-117400158D01*
X86575000Y-117113260D01*
X86575000Y-116820740D01*
X86517932Y-116533842D01*
X86405990Y-116263589D01*
X86243475Y-116020368D01*
X86036632Y-115813525D01*
X85862240Y-115697000D01*
X86036632Y-115580475D01*
X86243475Y-115373632D01*
X86405990Y-115130411D01*
X86517932Y-114860158D01*
X86575000Y-114573260D01*
X86575000Y-114280740D01*
X86517932Y-113993842D01*
X86405990Y-113723589D01*
X86243475Y-113480368D01*
X86036632Y-113273525D01*
X85862240Y-113157000D01*
X86036632Y-113040475D01*
X86243475Y-112833632D01*
X86405990Y-112590411D01*
X86517932Y-112320158D01*
X86575000Y-112033260D01*
X86575000Y-111740740D01*
X86517932Y-111453842D01*
X86405990Y-111183589D01*
X86243475Y-110940368D01*
X86036632Y-110733525D01*
X85862240Y-110617000D01*
X86036632Y-110500475D01*
X86243475Y-110293632D01*
X86405990Y-110050411D01*
X86517932Y-109780158D01*
X86532138Y-109708740D01*
X87288000Y-109708740D01*
X87288000Y-110001260D01*
X87345068Y-110288158D01*
X87457010Y-110558411D01*
X87619525Y-110801632D01*
X87826368Y-111008475D01*
X88069589Y-111170990D01*
X88339842Y-111282932D01*
X88626740Y-111340000D01*
X88919260Y-111340000D01*
X89206158Y-111282932D01*
X89476411Y-111170990D01*
X89719632Y-111008475D01*
X89851487Y-110876620D01*
X89873498Y-110949180D01*
X89932463Y-111059494D01*
X90011815Y-111156185D01*
X90108506Y-111235537D01*
X90218820Y-111294502D01*
X90338518Y-111330812D01*
X90463000Y-111343072D01*
X92163000Y-111343072D01*
X92287482Y-111330812D01*
X92407180Y-111294502D01*
X92517494Y-111235537D01*
X92614185Y-111156185D01*
X92693537Y-111059494D01*
X92752502Y-110949180D01*
X92788812Y-110829482D01*
X92801072Y-110705000D01*
X92801072Y-109005000D01*
X92788812Y-108880518D01*
X92752502Y-108760820D01*
X92693537Y-108650506D01*
X92614185Y-108553815D01*
X92517494Y-108474463D01*
X92407180Y-108415498D01*
X92287482Y-108379188D01*
X92163000Y-108366928D01*
X90463000Y-108366928D01*
X90338518Y-108379188D01*
X90218820Y-108415498D01*
X90108506Y-108474463D01*
X90011815Y-108553815D01*
X89932463Y-108650506D01*
X89873498Y-108760820D01*
X89851487Y-108833380D01*
X89719632Y-108701525D01*
X89476411Y-108539010D01*
X89206158Y-108427068D01*
X88919260Y-108370000D01*
X88626740Y-108370000D01*
X88339842Y-108427068D01*
X88069589Y-108539010D01*
X87826368Y-108701525D01*
X87619525Y-108908368D01*
X87457010Y-109151589D01*
X87345068Y-109421842D01*
X87288000Y-109708740D01*
X86532138Y-109708740D01*
X86575000Y-109493260D01*
X86575000Y-109200740D01*
X86517932Y-108913842D01*
X86405990Y-108643589D01*
X86243475Y-108400368D01*
X86036632Y-108193525D01*
X85862240Y-108077000D01*
X86036632Y-107960475D01*
X86243475Y-107753632D01*
X86405990Y-107510411D01*
X86517932Y-107240158D01*
X86575000Y-106953260D01*
X86575000Y-106660740D01*
X86517932Y-106373842D01*
X86405990Y-106103589D01*
X86243475Y-105860368D01*
X86036632Y-105653525D01*
X85862240Y-105537000D01*
X86036632Y-105420475D01*
X86243475Y-105213632D01*
X86255924Y-105195000D01*
X87284928Y-105195000D01*
X87284928Y-106895000D01*
X87297188Y-107019482D01*
X87333498Y-107139180D01*
X87392463Y-107249494D01*
X87471815Y-107346185D01*
X87568506Y-107425537D01*
X87678820Y-107484502D01*
X87798518Y-107520812D01*
X87923000Y-107533072D01*
X89623000Y-107533072D01*
X89747482Y-107520812D01*
X89867180Y-107484502D01*
X89977494Y-107425537D01*
X90074185Y-107346185D01*
X90153537Y-107249494D01*
X90212502Y-107139180D01*
X90234513Y-107066620D01*
X90366368Y-107198475D01*
X90609589Y-107360990D01*
X90879842Y-107472932D01*
X91166740Y-107530000D01*
X91459260Y-107530000D01*
X91746158Y-107472932D01*
X92016411Y-107360990D01*
X92259632Y-107198475D01*
X92466475Y-106991632D01*
X92601201Y-106790000D01*
X93816408Y-106790000D01*
X93853000Y-106793604D01*
X93889592Y-106790000D01*
X95594410Y-106790000D01*
X95631000Y-106793604D01*
X95667590Y-106790000D01*
X95667592Y-106790000D01*
X95777045Y-106779220D01*
X95917478Y-106736620D01*
X96046902Y-106667441D01*
X96160343Y-106574343D01*
X96183669Y-106545920D01*
X96899169Y-105830420D01*
X97046729Y-105801068D01*
X97216889Y-105730586D01*
X97370028Y-105628262D01*
X97500262Y-105498028D01*
X97602586Y-105344889D01*
X97673068Y-105174729D01*
X97680001Y-105139876D01*
X97680000Y-108597213D01*
X92214213Y-114063000D01*
X90356985Y-114063000D01*
X90231889Y-113979414D01*
X90061729Y-113908932D01*
X89881089Y-113873000D01*
X89696911Y-113873000D01*
X89516271Y-113908932D01*
X89346111Y-113979414D01*
X89192972Y-114081738D01*
X89062738Y-114211972D01*
X88960414Y-114365111D01*
X88889932Y-114535271D01*
X88854000Y-114715911D01*
X88854000Y-114900089D01*
X88889932Y-115080729D01*
X88960414Y-115250889D01*
X89062738Y-115404028D01*
X89192972Y-115534262D01*
X89346111Y-115636586D01*
X89516271Y-115707068D01*
X89696911Y-115743000D01*
X89881089Y-115743000D01*
X90061729Y-115707068D01*
X90231889Y-115636586D01*
X90356985Y-115553000D01*
X92486212Y-115553000D01*
X92522802Y-115556604D01*
X92559392Y-115553000D01*
X92559394Y-115553000D01*
X92668847Y-115542220D01*
X92809280Y-115499620D01*
X92938704Y-115430441D01*
X93052145Y-115337343D01*
X93075471Y-115308920D01*
X98925921Y-109458470D01*
X98954343Y-109435145D01*
X99000595Y-109378787D01*
X99047441Y-109321705D01*
X99116619Y-109192281D01*
X99116620Y-109192280D01*
X99159220Y-109051847D01*
X99170000Y-108942394D01*
X99170000Y-108942385D01*
X99173603Y-108905803D01*
X99170000Y-108869221D01*
X99170000Y-106524411D01*
X99204500Y-106524411D01*
X99204500Y-106708589D01*
X99240432Y-106889229D01*
X99310914Y-107059389D01*
X99413238Y-107212528D01*
X99543472Y-107342762D01*
X99696611Y-107445086D01*
X99866771Y-107515568D01*
X100047411Y-107551500D01*
X100231589Y-107551500D01*
X100412229Y-107515568D01*
X100582389Y-107445086D01*
X100610205Y-107426500D01*
X104375988Y-107426500D01*
X106409405Y-109459918D01*
X106415932Y-109492729D01*
X106486414Y-109662889D01*
X106588738Y-109816028D01*
X106718972Y-109946262D01*
X106872111Y-110048586D01*
X107042271Y-110119068D01*
X107222911Y-110155000D01*
X107407089Y-110155000D01*
X107587729Y-110119068D01*
X107757889Y-110048586D01*
X107911028Y-109946262D01*
X108041262Y-109816028D01*
X108143586Y-109662889D01*
X108214068Y-109492729D01*
X108250000Y-109312089D01*
X108250000Y-109127911D01*
X108214068Y-108947271D01*
X108143586Y-108777111D01*
X108041262Y-108623972D01*
X107911028Y-108493738D01*
X107757889Y-108391414D01*
X107587729Y-108320932D01*
X107554918Y-108314405D01*
X105312400Y-106071887D01*
X105287028Y-106040972D01*
X105163689Y-105939751D01*
X105022973Y-105864537D01*
X104870288Y-105818220D01*
X104751291Y-105806500D01*
X104751288Y-105806500D01*
X104711500Y-105802581D01*
X104671712Y-105806500D01*
X100610205Y-105806500D01*
X100582389Y-105787914D01*
X100412229Y-105717432D01*
X100231589Y-105681500D01*
X100047411Y-105681500D01*
X99866771Y-105717432D01*
X99696611Y-105787914D01*
X99543472Y-105890238D01*
X99413238Y-106020472D01*
X99310914Y-106173611D01*
X99240432Y-106343771D01*
X99204500Y-106524411D01*
X99170000Y-106524411D01*
X99170000Y-104891789D01*
X99246838Y-104776793D01*
X99317320Y-104606633D01*
X99353252Y-104425993D01*
X99353252Y-104241815D01*
X99317320Y-104061175D01*
X99313502Y-104051957D01*
X99348911Y-104059000D01*
X99533089Y-104059000D01*
X99713729Y-104023068D01*
X99883889Y-103952586D01*
X100037028Y-103850262D01*
X100167262Y-103720028D01*
X100269586Y-103566889D01*
X100340068Y-103396729D01*
X100376000Y-103216089D01*
X100376000Y-103031911D01*
X100340068Y-102851271D01*
X100269586Y-102681111D01*
X100167262Y-102527972D01*
X100037028Y-102397738D01*
X99883889Y-102295414D01*
X99713729Y-102224932D01*
X99566169Y-102195580D01*
X99104669Y-101734080D01*
X99081343Y-101705657D01*
X98967902Y-101612559D01*
X98838478Y-101543380D01*
X98698045Y-101500780D01*
X98588592Y-101490000D01*
X98588590Y-101490000D01*
X98552000Y-101486396D01*
X98515410Y-101490000D01*
X92801072Y-101490000D01*
X92801072Y-101385000D01*
X92788812Y-101260518D01*
X92752502Y-101140820D01*
X92693537Y-101030506D01*
X92614185Y-100933815D01*
X92517494Y-100854463D01*
X92407180Y-100795498D01*
X92287482Y-100759188D01*
X92163000Y-100746928D01*
X90463000Y-100746928D01*
X90338518Y-100759188D01*
X90218820Y-100795498D01*
X90108506Y-100854463D01*
X90011815Y-100933815D01*
X89932463Y-101030506D01*
X89873498Y-101140820D01*
X89851487Y-101213380D01*
X89719632Y-101081525D01*
X89476411Y-100919010D01*
X89206158Y-100807068D01*
X88919260Y-100750000D01*
X88626740Y-100750000D01*
X88339842Y-100807068D01*
X88069589Y-100919010D01*
X87826368Y-101081525D01*
X87619525Y-101288368D01*
X87457010Y-101531589D01*
X87345068Y-101801842D01*
X87288000Y-102088740D01*
X87288000Y-102381260D01*
X87345068Y-102668158D01*
X87457010Y-102938411D01*
X87619525Y-103181632D01*
X87826368Y-103388475D01*
X88069589Y-103550990D01*
X88339842Y-103662932D01*
X88626740Y-103720000D01*
X88919260Y-103720000D01*
X89206158Y-103662932D01*
X89476411Y-103550990D01*
X89719632Y-103388475D01*
X89851487Y-103256620D01*
X89873498Y-103329180D01*
X89932463Y-103439494D01*
X90011815Y-103536185D01*
X90108506Y-103615537D01*
X90218820Y-103674502D01*
X90338518Y-103710812D01*
X90463000Y-103723072D01*
X92163000Y-103723072D01*
X92287482Y-103710812D01*
X92407180Y-103674502D01*
X92517494Y-103615537D01*
X92614185Y-103536185D01*
X92693537Y-103439494D01*
X92752502Y-103329180D01*
X92788812Y-103209482D01*
X92801072Y-103085000D01*
X92801072Y-102980000D01*
X94910821Y-102980000D01*
X94858932Y-103105271D01*
X94829580Y-103252830D01*
X94534554Y-103547857D01*
X94506137Y-103571178D01*
X94482816Y-103599595D01*
X94482810Y-103599601D01*
X94413038Y-103684619D01*
X94399038Y-103710812D01*
X94343859Y-103814043D01*
X94301259Y-103954476D01*
X94290750Y-104061175D01*
X94286875Y-104100521D01*
X94290479Y-104137111D01*
X94290479Y-104378890D01*
X93369369Y-105300000D01*
X92601201Y-105300000D01*
X92466475Y-105098368D01*
X92259632Y-104891525D01*
X92016411Y-104729010D01*
X91746158Y-104617068D01*
X91459260Y-104560000D01*
X91166740Y-104560000D01*
X90879842Y-104617068D01*
X90609589Y-104729010D01*
X90366368Y-104891525D01*
X90234513Y-105023380D01*
X90212502Y-104950820D01*
X90153537Y-104840506D01*
X90074185Y-104743815D01*
X89977494Y-104664463D01*
X89867180Y-104605498D01*
X89747482Y-104569188D01*
X89623000Y-104556928D01*
X87923000Y-104556928D01*
X87798518Y-104569188D01*
X87678820Y-104605498D01*
X87568506Y-104664463D01*
X87471815Y-104743815D01*
X87392463Y-104840506D01*
X87333498Y-104950820D01*
X87297188Y-105070518D01*
X87284928Y-105195000D01*
X86255924Y-105195000D01*
X86405990Y-104970411D01*
X86517932Y-104700158D01*
X86575000Y-104413260D01*
X86575000Y-104120740D01*
X86517932Y-103833842D01*
X86405990Y-103563589D01*
X86243475Y-103320368D01*
X86036632Y-103113525D01*
X85862240Y-102997000D01*
X86036632Y-102880475D01*
X86243475Y-102673632D01*
X86405990Y-102430411D01*
X86517932Y-102160158D01*
X86575000Y-101873260D01*
X86575000Y-101580740D01*
X86517932Y-101293842D01*
X86405990Y-101023589D01*
X86243475Y-100780368D01*
X86036632Y-100573525D01*
X85862240Y-100457000D01*
X86036632Y-100340475D01*
X86243475Y-100133632D01*
X86405990Y-99890411D01*
X86517932Y-99620158D01*
X86575000Y-99333260D01*
X86575000Y-99040740D01*
X86517932Y-98753842D01*
X86405990Y-98483589D01*
X86243475Y-98240368D01*
X86036632Y-98033525D01*
X85862240Y-97917000D01*
X86036632Y-97800475D01*
X86243475Y-97593632D01*
X86255924Y-97575000D01*
X87284928Y-97575000D01*
X87284928Y-99275000D01*
X87297188Y-99399482D01*
X87333498Y-99519180D01*
X87392463Y-99629494D01*
X87471815Y-99726185D01*
X87568506Y-99805537D01*
X87678820Y-99864502D01*
X87798518Y-99900812D01*
X87923000Y-99913072D01*
X89623000Y-99913072D01*
X89747482Y-99900812D01*
X89867180Y-99864502D01*
X89977494Y-99805537D01*
X90074185Y-99726185D01*
X90153537Y-99629494D01*
X90212502Y-99519180D01*
X90234513Y-99446620D01*
X90366368Y-99578475D01*
X90609589Y-99740990D01*
X90879842Y-99852932D01*
X91166740Y-99910000D01*
X91459260Y-99910000D01*
X91746158Y-99852932D01*
X92016411Y-99740990D01*
X92259632Y-99578475D01*
X92466475Y-99371632D01*
X92601201Y-99170000D01*
X98007410Y-99170000D01*
X98044000Y-99173604D01*
X98080590Y-99170000D01*
X98080592Y-99170000D01*
X98190045Y-99159220D01*
X98330478Y-99116620D01*
X98459902Y-99047441D01*
X98573343Y-98954343D01*
X98596669Y-98925920D01*
X103376169Y-94146420D01*
X103523729Y-94117068D01*
X103693889Y-94046586D01*
X103847028Y-93944262D01*
X103977262Y-93814028D01*
X104079586Y-93660889D01*
X104150068Y-93490729D01*
X104186000Y-93310089D01*
X104186000Y-93125911D01*
X104150068Y-92945271D01*
X104079586Y-92775111D01*
X103977262Y-92621972D01*
X103847028Y-92491738D01*
X103693889Y-92389414D01*
X103523729Y-92318932D01*
X103343089Y-92283000D01*
X103158911Y-92283000D01*
X102978271Y-92318932D01*
X102808111Y-92389414D01*
X102654972Y-92491738D01*
X102524738Y-92621972D01*
X102422414Y-92775111D01*
X102351932Y-92945271D01*
X102322580Y-93092831D01*
X97735411Y-97680000D01*
X92601201Y-97680000D01*
X92466475Y-97478368D01*
X92259632Y-97271525D01*
X92016411Y-97109010D01*
X91746158Y-96997068D01*
X91459260Y-96940000D01*
X91166740Y-96940000D01*
X90879842Y-96997068D01*
X90609589Y-97109010D01*
X90366368Y-97271525D01*
X90234513Y-97403380D01*
X90212502Y-97330820D01*
X90153537Y-97220506D01*
X90074185Y-97123815D01*
X89977494Y-97044463D01*
X89867180Y-96985498D01*
X89747482Y-96949188D01*
X89623000Y-96936928D01*
X87923000Y-96936928D01*
X87798518Y-96949188D01*
X87678820Y-96985498D01*
X87568506Y-97044463D01*
X87471815Y-97123815D01*
X87392463Y-97220506D01*
X87333498Y-97330820D01*
X87297188Y-97450518D01*
X87284928Y-97575000D01*
X86255924Y-97575000D01*
X86405990Y-97350411D01*
X86517932Y-97080158D01*
X86575000Y-96793260D01*
X86575000Y-96500740D01*
X86517932Y-96213842D01*
X86405990Y-95943589D01*
X86243475Y-95700368D01*
X86036632Y-95493525D01*
X85862240Y-95377000D01*
X86036632Y-95260475D01*
X86243475Y-95053632D01*
X86405990Y-94810411D01*
X86517932Y-94540158D01*
X86575000Y-94253260D01*
X86575000Y-93960740D01*
X86517932Y-93673842D01*
X86405990Y-93403589D01*
X86243475Y-93160368D01*
X86036632Y-92953525D01*
X85862240Y-92837000D01*
X86036632Y-92720475D01*
X86243475Y-92513632D01*
X86405990Y-92270411D01*
X86517932Y-92000158D01*
X86575000Y-91713260D01*
X86575000Y-91420740D01*
X86517932Y-91133842D01*
X86405990Y-90863589D01*
X86243475Y-90620368D01*
X86036632Y-90413525D01*
X85862240Y-90297000D01*
X86036632Y-90180475D01*
X86243475Y-89973632D01*
X86405990Y-89730411D01*
X86517932Y-89460158D01*
X86575000Y-89173260D01*
X86575000Y-88880740D01*
X86517932Y-88593842D01*
X86405990Y-88323589D01*
X86243475Y-88080368D01*
X86036632Y-87873525D01*
X85862240Y-87757000D01*
X86036632Y-87640475D01*
X86243475Y-87433632D01*
X86405990Y-87190411D01*
X86517932Y-86920158D01*
X86575000Y-86633260D01*
X86575000Y-86340740D01*
X86517932Y-86053842D01*
X86405990Y-85783589D01*
X86243475Y-85540368D01*
X86036632Y-85333525D01*
X85862240Y-85217000D01*
X86036632Y-85100475D01*
X86243475Y-84893632D01*
X86405990Y-84650411D01*
X86517932Y-84380158D01*
X86575000Y-84093260D01*
X86575000Y-83800740D01*
X86517932Y-83513842D01*
X86405990Y-83243589D01*
X86243475Y-83000368D01*
X86036632Y-82793525D01*
X85862240Y-82677000D01*
X86036632Y-82560475D01*
X86243475Y-82353632D01*
X86405990Y-82110411D01*
X86517932Y-81840158D01*
X86575000Y-81553260D01*
X86575000Y-81260740D01*
X86517932Y-80973842D01*
X86405990Y-80703589D01*
X86243475Y-80460368D01*
X86036632Y-80253525D01*
X85862240Y-80137000D01*
X86036632Y-80020475D01*
X86243475Y-79813632D01*
X86405990Y-79570411D01*
X86517932Y-79300158D01*
X86575000Y-79013260D01*
X86575000Y-78720740D01*
X86517932Y-78433842D01*
X86405990Y-78163589D01*
X86243475Y-77920368D01*
X86111620Y-77788513D01*
X86184180Y-77766502D01*
X86294494Y-77707537D01*
X86391185Y-77628185D01*
X86470537Y-77531494D01*
X86484746Y-77504911D01*
X87965000Y-77504911D01*
X87965000Y-77689089D01*
X88000932Y-77869729D01*
X88071414Y-78039889D01*
X88173738Y-78193028D01*
X88303972Y-78323262D01*
X88457111Y-78425586D01*
X88627271Y-78496068D01*
X88807911Y-78532000D01*
X88992089Y-78532000D01*
X89172729Y-78496068D01*
X89342889Y-78425586D01*
X89370705Y-78407000D01*
X105362001Y-78407000D01*
X105362000Y-92162212D01*
X105358081Y-92202000D01*
X105362000Y-92241788D01*
X105362000Y-92241790D01*
X105373720Y-92360787D01*
X105420037Y-92513472D01*
X105420038Y-92513473D01*
X105495251Y-92654189D01*
X105509071Y-92671028D01*
X105596472Y-92777528D01*
X105627387Y-92802899D01*
X107552405Y-94727918D01*
X107558932Y-94760729D01*
X107629414Y-94930889D01*
X107731738Y-95084028D01*
X107861972Y-95214262D01*
X108015111Y-95316586D01*
X108185271Y-95387068D01*
X108365911Y-95423000D01*
X108550089Y-95423000D01*
X108730729Y-95387068D01*
X108900889Y-95316586D01*
X109054028Y-95214262D01*
X109184262Y-95084028D01*
X109286586Y-94930889D01*
X109357068Y-94760729D01*
X109393000Y-94580089D01*
X109393000Y-94395911D01*
X109357068Y-94215271D01*
X109286586Y-94045111D01*
X109184262Y-93891972D01*
X109054028Y-93761738D01*
X108900889Y-93659414D01*
X108730729Y-93588932D01*
X108697918Y-93582405D01*
X106982000Y-91866488D01*
X106982000Y-78067705D01*
X107000586Y-78039889D01*
X107071068Y-77869729D01*
X107107000Y-77689089D01*
X107107000Y-77504911D01*
X107071068Y-77324271D01*
X107000586Y-77154111D01*
X106898262Y-77000972D01*
X106768028Y-76870738D01*
X106614889Y-76768414D01*
X106444729Y-76697932D01*
X106264089Y-76662000D01*
X106079911Y-76662000D01*
X105899271Y-76697932D01*
X105729111Y-76768414D01*
X105701295Y-76787000D01*
X89370705Y-76787000D01*
X89342889Y-76768414D01*
X89172729Y-76697932D01*
X88992089Y-76662000D01*
X88807911Y-76662000D01*
X88627271Y-76697932D01*
X88457111Y-76768414D01*
X88303972Y-76870738D01*
X88173738Y-77000972D01*
X88071414Y-77154111D01*
X88000932Y-77324271D01*
X87965000Y-77504911D01*
X86484746Y-77504911D01*
X86529502Y-77421180D01*
X86565812Y-77301482D01*
X86578072Y-77177000D01*
X86575000Y-76612750D01*
X86416250Y-76454000D01*
X85217000Y-76454000D01*
X85217000Y-76474000D01*
X84963000Y-76474000D01*
X84963000Y-76454000D01*
X84943000Y-76454000D01*
X84943000Y-76200000D01*
X84963000Y-76200000D01*
X84963000Y-75000750D01*
X85217000Y-75000750D01*
X85217000Y-76200000D01*
X86416250Y-76200000D01*
X86575000Y-76041250D01*
X86576689Y-75731000D01*
X137957928Y-75731000D01*
X137961000Y-76295250D01*
X138119750Y-76454000D01*
X139319000Y-76454000D01*
X139319000Y-75254750D01*
X139160250Y-75096000D01*
X138596000Y-75092928D01*
X138471518Y-75105188D01*
X138351820Y-75141498D01*
X138241506Y-75200463D01*
X138144815Y-75279815D01*
X138065463Y-75376506D01*
X138006498Y-75486820D01*
X137970188Y-75606518D01*
X137957928Y-75731000D01*
X86576689Y-75731000D01*
X86578072Y-75477000D01*
X86565812Y-75352518D01*
X86529502Y-75232820D01*
X86470537Y-75122506D01*
X86391185Y-75025815D01*
X86294494Y-74946463D01*
X86184180Y-74887498D01*
X86064482Y-74851188D01*
X85940000Y-74838928D01*
X85375750Y-74842000D01*
X85217000Y-75000750D01*
X84963000Y-75000750D01*
X84804250Y-74842000D01*
X84240000Y-74838928D01*
X84115518Y-74851188D01*
X83995820Y-74887498D01*
X83885506Y-74946463D01*
X83788815Y-75025815D01*
X83709463Y-75122506D01*
X83650498Y-75232820D01*
X83616000Y-75346545D01*
X83616000Y-69265000D01*
X140791477Y-69265000D01*
X140778027Y-75317396D01*
%TA.AperFunction,Conductor*%
D18*
G36*
X140778027Y-75317396D02*
G01*
X140747185Y-75279815D01*
X140650494Y-75200463D01*
X140540180Y-75141498D01*
X140420482Y-75105188D01*
X140296000Y-75092928D01*
X139731750Y-75096000D01*
X139573000Y-75254750D01*
X139573000Y-76454000D01*
X139593000Y-76454000D01*
X139593000Y-76708000D01*
X139573000Y-76708000D01*
X139573000Y-76728000D01*
X139319000Y-76728000D01*
X139319000Y-76708000D01*
X138119750Y-76708000D01*
X137961000Y-76866750D01*
X137957928Y-77431000D01*
X137970188Y-77555482D01*
X138006498Y-77675180D01*
X138065463Y-77785494D01*
X138144815Y-77882185D01*
X138241506Y-77961537D01*
X138351820Y-78020502D01*
X138424380Y-78042513D01*
X138292525Y-78174368D01*
X138130010Y-78417589D01*
X138018068Y-78687842D01*
X137961000Y-78974740D01*
X137961000Y-79267260D01*
X138018068Y-79554158D01*
X138130010Y-79824411D01*
X138292525Y-80067632D01*
X138499368Y-80274475D01*
X138673760Y-80391000D01*
X138499368Y-80507525D01*
X138292525Y-80714368D01*
X138130010Y-80957589D01*
X138018068Y-81227842D01*
X137961000Y-81514740D01*
X137961000Y-81807260D01*
X138018068Y-82094158D01*
X138130010Y-82364411D01*
X138292525Y-82607632D01*
X138499368Y-82814475D01*
X138673760Y-82931000D01*
X138499368Y-83047525D01*
X138292525Y-83254368D01*
X138130010Y-83497589D01*
X138018068Y-83767842D01*
X137961000Y-84054740D01*
X137961000Y-84347260D01*
X138018068Y-84634158D01*
X138130010Y-84904411D01*
X138292525Y-85147632D01*
X138499368Y-85354475D01*
X138673760Y-85471000D01*
X138499368Y-85587525D01*
X138292525Y-85794368D01*
X138130010Y-86037589D01*
X138018068Y-86307842D01*
X137961000Y-86594740D01*
X137961000Y-86887260D01*
X138018068Y-87174158D01*
X138130010Y-87444411D01*
X138292525Y-87687632D01*
X138499368Y-87894475D01*
X138673760Y-88011000D01*
X138499368Y-88127525D01*
X138292525Y-88334368D01*
X138130010Y-88577589D01*
X138018068Y-88847842D01*
X137961000Y-89134740D01*
X137961000Y-89427260D01*
X138018068Y-89714158D01*
X138130010Y-89984411D01*
X138292525Y-90227632D01*
X138499368Y-90434475D01*
X138673760Y-90551000D01*
X138499368Y-90667525D01*
X138292525Y-90874368D01*
X138130010Y-91117589D01*
X138018068Y-91387842D01*
X137961000Y-91674740D01*
X137961000Y-91967260D01*
X138018068Y-92254158D01*
X138130010Y-92524411D01*
X138292525Y-92767632D01*
X138499368Y-92974475D01*
X138673760Y-93091000D01*
X138499368Y-93207525D01*
X138292525Y-93414368D01*
X138130010Y-93657589D01*
X138018068Y-93927842D01*
X137961000Y-94214740D01*
X137961000Y-94507260D01*
X138018068Y-94794158D01*
X138130010Y-95064411D01*
X138292525Y-95307632D01*
X138499368Y-95514475D01*
X138673760Y-95631000D01*
X138499368Y-95747525D01*
X138292525Y-95954368D01*
X138130010Y-96197589D01*
X138018068Y-96467842D01*
X137961000Y-96754740D01*
X137961000Y-97047260D01*
X138018068Y-97334158D01*
X138130010Y-97604411D01*
X138292525Y-97847632D01*
X138499368Y-98054475D01*
X138673760Y-98171000D01*
X138499368Y-98287525D01*
X138292525Y-98494368D01*
X138130010Y-98737589D01*
X138018068Y-99007842D01*
X137961000Y-99294740D01*
X137961000Y-99587260D01*
X138018068Y-99874158D01*
X138130010Y-100144411D01*
X138292525Y-100387632D01*
X138499368Y-100594475D01*
X138673760Y-100711000D01*
X138499368Y-100827525D01*
X138292525Y-101034368D01*
X138130010Y-101277589D01*
X138018068Y-101547842D01*
X137961000Y-101834740D01*
X137961000Y-102127260D01*
X138018068Y-102414158D01*
X138130010Y-102684411D01*
X138292525Y-102927632D01*
X138499368Y-103134475D01*
X138673760Y-103251000D01*
X138499368Y-103367525D01*
X138292525Y-103574368D01*
X138130010Y-103817589D01*
X138018068Y-104087842D01*
X137961000Y-104374740D01*
X137961000Y-104667260D01*
X138018068Y-104954158D01*
X138130010Y-105224411D01*
X138292525Y-105467632D01*
X138499368Y-105674475D01*
X138673760Y-105791000D01*
X138499368Y-105907525D01*
X138292525Y-106114368D01*
X138130010Y-106357589D01*
X138018068Y-106627842D01*
X137961000Y-106914740D01*
X137961000Y-107062411D01*
X137204669Y-106306080D01*
X137181343Y-106277657D01*
X137067902Y-106184559D01*
X136938478Y-106115380D01*
X136798045Y-106072780D01*
X136688592Y-106062000D01*
X136688590Y-106062000D01*
X136652000Y-106058396D01*
X136615410Y-106062000D01*
X129957581Y-106062000D01*
X129920999Y-106058397D01*
X129884417Y-106062000D01*
X129884408Y-106062000D01*
X129774955Y-106072780D01*
X129634522Y-106115380D01*
X129634520Y-106115381D01*
X129505097Y-106184559D01*
X129435133Y-106241978D01*
X129391657Y-106277657D01*
X129368331Y-106306080D01*
X129287831Y-106386580D01*
X129140271Y-106415932D01*
X128970111Y-106486414D01*
X128816972Y-106588738D01*
X128686738Y-106718972D01*
X128584414Y-106872111D01*
X128513932Y-107042271D01*
X128478000Y-107222911D01*
X128478000Y-107407089D01*
X128494309Y-107489077D01*
X128462111Y-107502414D01*
X128308972Y-107604738D01*
X128178738Y-107734972D01*
X128076414Y-107888111D01*
X128005932Y-108058271D01*
X127970000Y-108238911D01*
X127970000Y-108423089D01*
X128005932Y-108603729D01*
X128076414Y-108773889D01*
X128178738Y-108927028D01*
X128308972Y-109057262D01*
X128462111Y-109159586D01*
X128632271Y-109230068D01*
X128779831Y-109259420D01*
X128912332Y-109391921D01*
X128935658Y-109420344D01*
X128964080Y-109443669D01*
X129049098Y-109513442D01*
X129082832Y-109531473D01*
X129178523Y-109582621D01*
X129318956Y-109625221D01*
X129428409Y-109636001D01*
X129428410Y-109636001D01*
X129465000Y-109639605D01*
X129501590Y-109636001D01*
X135887412Y-109636001D01*
X138008310Y-111756899D01*
X137961000Y-111994740D01*
X137961000Y-112287260D01*
X138018068Y-112574158D01*
X138130010Y-112844411D01*
X138292525Y-113087632D01*
X138499368Y-113294475D01*
X138673760Y-113411000D01*
X138499368Y-113527525D01*
X138292525Y-113734368D01*
X138130010Y-113977589D01*
X138018068Y-114247842D01*
X137961000Y-114534740D01*
X137961000Y-114827260D01*
X138018068Y-115114158D01*
X138130010Y-115384411D01*
X138292525Y-115627632D01*
X138499368Y-115834475D01*
X138673760Y-115951000D01*
X138499368Y-116067525D01*
X138292525Y-116274368D01*
X138130010Y-116517589D01*
X138018068Y-116787842D01*
X137961000Y-117074740D01*
X137961000Y-117367260D01*
X138018068Y-117654158D01*
X138130010Y-117924411D01*
X138292525Y-118167632D01*
X138499368Y-118374475D01*
X138673760Y-118491000D01*
X138499368Y-118607525D01*
X138292525Y-118814368D01*
X138130010Y-119057589D01*
X138018068Y-119327842D01*
X137961000Y-119614740D01*
X137961000Y-119670487D01*
X135067211Y-116776698D01*
X135216028Y-116677262D01*
X135346262Y-116547028D01*
X135448586Y-116393889D01*
X135519068Y-116223729D01*
X135555000Y-116043089D01*
X135555000Y-115858911D01*
X135519068Y-115678271D01*
X135448586Y-115508111D01*
X135346262Y-115354972D01*
X135216028Y-115224738D01*
X135062889Y-115122414D01*
X134892729Y-115051932D01*
X134859918Y-115045405D01*
X133315899Y-113501387D01*
X133290528Y-113470472D01*
X133167189Y-113369251D01*
X133026473Y-113294037D01*
X132873788Y-113247720D01*
X132754791Y-113236000D01*
X132754788Y-113236000D01*
X132715000Y-113232081D01*
X132675212Y-113236000D01*
X125557513Y-113236000D01*
X122392072Y-110070560D01*
X122392072Y-108878000D01*
X122379812Y-108753518D01*
X122343502Y-108633820D01*
X122284537Y-108523506D01*
X122205185Y-108426815D01*
X122108494Y-108347463D01*
X121998180Y-108288498D01*
X121878482Y-108252188D01*
X121754000Y-108239928D01*
X121196441Y-108239928D01*
X114824595Y-101868083D01*
X114818068Y-101835271D01*
X114801470Y-101795199D01*
X114886180Y-101769502D01*
X114996494Y-101710537D01*
X115093185Y-101631185D01*
X115172537Y-101534494D01*
X115231502Y-101424180D01*
X115253513Y-101351620D01*
X115385368Y-101483475D01*
X115628589Y-101645990D01*
X115898842Y-101757932D01*
X116185740Y-101815000D01*
X116478260Y-101815000D01*
X116765158Y-101757932D01*
X117035411Y-101645990D01*
X117278632Y-101483475D01*
X117485475Y-101276632D01*
X117602000Y-101102240D01*
X117718525Y-101276632D01*
X117925368Y-101483475D01*
X118168589Y-101645990D01*
X118438842Y-101757932D01*
X118725740Y-101815000D01*
X119018260Y-101815000D01*
X119305158Y-101757932D01*
X119575411Y-101645990D01*
X119818632Y-101483475D01*
X120025475Y-101276632D01*
X120147195Y-101094466D01*
X120216822Y-101211355D01*
X120411731Y-101427588D01*
X120645080Y-101601641D01*
X120907901Y-101726825D01*
X121055110Y-101771476D01*
X121285000Y-101650155D01*
X121285000Y-100457000D01*
X121265000Y-100457000D01*
X121265000Y-100203000D01*
X121285000Y-100203000D01*
X121285000Y-99009845D01*
X121539000Y-99009845D01*
X121539000Y-100203000D01*
X121559000Y-100203000D01*
X121559000Y-100457000D01*
X121539000Y-100457000D01*
X121539000Y-101650155D01*
X121768890Y-101771476D01*
X121916099Y-101726825D01*
X122178920Y-101601641D01*
X122412269Y-101427588D01*
X122607178Y-101211355D01*
X122676805Y-101094466D01*
X122798525Y-101276632D01*
X123005368Y-101483475D01*
X123248589Y-101645990D01*
X123518842Y-101757932D01*
X123805740Y-101815000D01*
X124098260Y-101815000D01*
X124385158Y-101757932D01*
X124655411Y-101645990D01*
X124898632Y-101483475D01*
X125105475Y-101276632D01*
X125222000Y-101102240D01*
X125338525Y-101276632D01*
X125545368Y-101483475D01*
X125788589Y-101645990D01*
X126058842Y-101757932D01*
X126345740Y-101815000D01*
X126638260Y-101815000D01*
X126925158Y-101757932D01*
X127195411Y-101645990D01*
X127438632Y-101483475D01*
X127645475Y-101276632D01*
X127762000Y-101102240D01*
X127878525Y-101276632D01*
X128085368Y-101483475D01*
X128328589Y-101645990D01*
X128598842Y-101757932D01*
X128885740Y-101815000D01*
X129178260Y-101815000D01*
X129465158Y-101757932D01*
X129735411Y-101645990D01*
X129978632Y-101483475D01*
X130185475Y-101276632D01*
X130302000Y-101102240D01*
X130418525Y-101276632D01*
X130625368Y-101483475D01*
X130868589Y-101645990D01*
X131138842Y-101757932D01*
X131425740Y-101815000D01*
X131718260Y-101815000D01*
X132005158Y-101757932D01*
X132275411Y-101645990D01*
X132518632Y-101483475D01*
X132725475Y-101276632D01*
X132887990Y-101033411D01*
X132999932Y-100763158D01*
X133057000Y-100476260D01*
X133057000Y-100183740D01*
X132999932Y-99896842D01*
X132887990Y-99626589D01*
X132725475Y-99383368D01*
X132518632Y-99176525D01*
X132275411Y-99014010D01*
X132005158Y-98902068D01*
X131718260Y-98845000D01*
X131425740Y-98845000D01*
X131138842Y-98902068D01*
X130868589Y-99014010D01*
X130625368Y-99176525D01*
X130418525Y-99383368D01*
X130302000Y-99557760D01*
X130185475Y-99383368D01*
X129978632Y-99176525D01*
X129735411Y-99014010D01*
X129465158Y-98902068D01*
X129178260Y-98845000D01*
X128885740Y-98845000D01*
X128598842Y-98902068D01*
X128328589Y-99014010D01*
X128085368Y-99176525D01*
X127878525Y-99383368D01*
X127762000Y-99557760D01*
X127645475Y-99383368D01*
X127438632Y-99176525D01*
X127195411Y-99014010D01*
X126925158Y-98902068D01*
X126638260Y-98845000D01*
X126345740Y-98845000D01*
X126058842Y-98902068D01*
X125788589Y-99014010D01*
X125545368Y-99176525D01*
X125338525Y-99383368D01*
X125222000Y-99557760D01*
X125105475Y-99383368D01*
X124898632Y-99176525D01*
X124655411Y-99014010D01*
X124385158Y-98902068D01*
X124098260Y-98845000D01*
X123805740Y-98845000D01*
X123518842Y-98902068D01*
X123248589Y-99014010D01*
X123005368Y-99176525D01*
X122798525Y-99383368D01*
X122676805Y-99565534D01*
X122607178Y-99448645D01*
X122412269Y-99232412D01*
X122178920Y-99058359D01*
X121916099Y-98933175D01*
X121768890Y-98888524D01*
X121539000Y-99009845D01*
X121285000Y-99009845D01*
X121055110Y-98888524D01*
X120907901Y-98933175D01*
X120645080Y-99058359D01*
X120411731Y-99232412D01*
X120216822Y-99448645D01*
X120147195Y-99565534D01*
X120025475Y-99383368D01*
X119818632Y-99176525D01*
X119575411Y-99014010D01*
X119305158Y-98902068D01*
X119018260Y-98845000D01*
X118725740Y-98845000D01*
X118438842Y-98902068D01*
X118168589Y-99014010D01*
X117925368Y-99176525D01*
X117718525Y-99383368D01*
X117602000Y-99557760D01*
X117485475Y-99383368D01*
X117278632Y-99176525D01*
X117035411Y-99014010D01*
X116765158Y-98902068D01*
X116478260Y-98845000D01*
X116185740Y-98845000D01*
X115898842Y-98902068D01*
X115628589Y-99014010D01*
X115385368Y-99176525D01*
X115253513Y-99308380D01*
X115231502Y-99235820D01*
X115172537Y-99125506D01*
X115093185Y-99028815D01*
X114996494Y-98949463D01*
X114886180Y-98890498D01*
X114766482Y-98854188D01*
X114642000Y-98841928D01*
X114075659Y-98841928D01*
X115469167Y-97448420D01*
X115616727Y-97419068D01*
X115786887Y-97348586D01*
X115940026Y-97246262D01*
X116070260Y-97116028D01*
X116172584Y-96962889D01*
X116243066Y-96792729D01*
X116278998Y-96612089D01*
X116278998Y-96427911D01*
X116243066Y-96247271D01*
X116172584Y-96077111D01*
X116070260Y-95923972D01*
X115940026Y-95793738D01*
X115786887Y-95691414D01*
X115616727Y-95620932D01*
X115436087Y-95585000D01*
X115251909Y-95585000D01*
X115071269Y-95620932D01*
X114901109Y-95691414D01*
X114791000Y-95764986D01*
X114791000Y-93127590D01*
X114794604Y-93091000D01*
X114786626Y-93010000D01*
X114780220Y-92944955D01*
X114737620Y-92804522D01*
X114675689Y-92688658D01*
X114668441Y-92675097D01*
X114598669Y-92590079D01*
X114598664Y-92590074D01*
X114575343Y-92561657D01*
X114546925Y-92538335D01*
X113958420Y-91949830D01*
X113929068Y-91802271D01*
X113858586Y-91632111D01*
X113756262Y-91478972D01*
X113626028Y-91348738D01*
X113472889Y-91246414D01*
X113302729Y-91175932D01*
X113122089Y-91140000D01*
X112937911Y-91140000D01*
X112757271Y-91175932D01*
X112587111Y-91246414D01*
X112433972Y-91348738D01*
X112303738Y-91478972D01*
X112201414Y-91632111D01*
X112130932Y-91802271D01*
X112095000Y-91982911D01*
X112095000Y-92167089D01*
X112130932Y-92347729D01*
X112201414Y-92517889D01*
X112303738Y-92671028D01*
X112433972Y-92801262D01*
X112587111Y-92903586D01*
X112757271Y-92974068D01*
X112904830Y-93003420D01*
X113301001Y-93399591D01*
X113301000Y-96719411D01*
X110054411Y-99966000D01*
X108136985Y-99966000D01*
X108011889Y-99882414D01*
X107841729Y-99811932D01*
X107661089Y-99776000D01*
X107476911Y-99776000D01*
X107296271Y-99811932D01*
X107126111Y-99882414D01*
X106972972Y-99984738D01*
X106842738Y-100114972D01*
X106740414Y-100268111D01*
X106669932Y-100438271D01*
X106634000Y-100618911D01*
X106634000Y-100803089D01*
X106669932Y-100983729D01*
X106740414Y-101153889D01*
X106842738Y-101307028D01*
X106972972Y-101437262D01*
X107126111Y-101539586D01*
X107296271Y-101610068D01*
X107476911Y-101646000D01*
X107661089Y-101646000D01*
X107841729Y-101610068D01*
X108011889Y-101539586D01*
X108136985Y-101456000D01*
X109745001Y-101456000D01*
X109745000Y-103323411D01*
X108853832Y-104214579D01*
X108706272Y-104243931D01*
X108536112Y-104314413D01*
X108382973Y-104416737D01*
X108252739Y-104546971D01*
X108150415Y-104700110D01*
X108079933Y-104870270D01*
X108044001Y-105050910D01*
X108044001Y-105235088D01*
X108079933Y-105415728D01*
X108150415Y-105585888D01*
X108252739Y-105739027D01*
X108382973Y-105869261D01*
X108536112Y-105971585D01*
X108706272Y-106042067D01*
X108886912Y-106077999D01*
X109071090Y-106077999D01*
X109251730Y-106042067D01*
X109421890Y-105971585D01*
X109575029Y-105869261D01*
X109705263Y-105739027D01*
X109807587Y-105585888D01*
X109878069Y-105415728D01*
X109907421Y-105268168D01*
X110990921Y-104184668D01*
X111019343Y-104161343D01*
X111069258Y-104100521D01*
X111112441Y-104047903D01*
X111155684Y-103967000D01*
X111181620Y-103918478D01*
X111224220Y-103778045D01*
X111235000Y-103668592D01*
X111235000Y-103668583D01*
X111238603Y-103632001D01*
X111235000Y-103595419D01*
X111235000Y-101682587D01*
X112303928Y-100613659D01*
X112303928Y-101180000D01*
X112316188Y-101304482D01*
X112352498Y-101424180D01*
X112411463Y-101534494D01*
X112490815Y-101631185D01*
X112587506Y-101710537D01*
X112697820Y-101769502D01*
X112817518Y-101805812D01*
X112942000Y-101818072D01*
X113027056Y-101818072D01*
X113019932Y-101835271D01*
X112984000Y-102015911D01*
X112984000Y-102200089D01*
X113019932Y-102380729D01*
X113090414Y-102550889D01*
X113192738Y-102704028D01*
X113322972Y-102834262D01*
X113476111Y-102936586D01*
X113646271Y-103007068D01*
X113679083Y-103013595D01*
X119427365Y-108761878D01*
X119415928Y-108878000D01*
X119415928Y-110578000D01*
X119428188Y-110702482D01*
X119464498Y-110822180D01*
X119523463Y-110932494D01*
X119602815Y-111029185D01*
X119699506Y-111108537D01*
X119809820Y-111167502D01*
X119929518Y-111203812D01*
X120054000Y-111216072D01*
X121246560Y-111216072D01*
X124621105Y-114590618D01*
X124646472Y-114621528D01*
X124695733Y-114661955D01*
X124769810Y-114722749D01*
X124838100Y-114759250D01*
X124910527Y-114797963D01*
X125063212Y-114844280D01*
X125182209Y-114856000D01*
X125182211Y-114856000D01*
X125221999Y-114859919D01*
X125261787Y-114856000D01*
X132379488Y-114856000D01*
X133299487Y-115776000D01*
X126964072Y-115776000D01*
X126964072Y-115736000D01*
X126951812Y-115611518D01*
X126915502Y-115491820D01*
X126856537Y-115381506D01*
X126777185Y-115284815D01*
X126680494Y-115205463D01*
X126570180Y-115146498D01*
X126450482Y-115110188D01*
X126326000Y-115097928D01*
X124626000Y-115097928D01*
X124501518Y-115110188D01*
X124381820Y-115146498D01*
X124271506Y-115205463D01*
X124174815Y-115284815D01*
X124095463Y-115381506D01*
X124036498Y-115491820D01*
X124000188Y-115611518D01*
X123987928Y-115736000D01*
X123987928Y-115776000D01*
X122910770Y-115776000D01*
X122819475Y-115639368D01*
X122612632Y-115432525D01*
X122369411Y-115270010D01*
X122099158Y-115158068D01*
X121812260Y-115101000D01*
X121519740Y-115101000D01*
X121232842Y-115158068D01*
X120962589Y-115270010D01*
X120719368Y-115432525D01*
X120587513Y-115564380D01*
X120565502Y-115491820D01*
X120506537Y-115381506D01*
X120427185Y-115284815D01*
X120330494Y-115205463D01*
X120220180Y-115146498D01*
X120100482Y-115110188D01*
X119976000Y-115097928D01*
X118276000Y-115097928D01*
X118151518Y-115110188D01*
X118031820Y-115146498D01*
X117921506Y-115205463D01*
X117824815Y-115284815D01*
X117745463Y-115381506D01*
X117686498Y-115491820D01*
X117650188Y-115611518D01*
X117637928Y-115736000D01*
X117637928Y-116746416D01*
X116843001Y-115951489D01*
X116843001Y-115475790D01*
X116846920Y-115435999D01*
X116831281Y-115277211D01*
X116784964Y-115124525D01*
X116709750Y-114983810D01*
X116633894Y-114891379D01*
X116608529Y-114860471D01*
X116577619Y-114835104D01*
X114621601Y-112879087D01*
X114596230Y-112848172D01*
X114472891Y-112746951D01*
X114355613Y-112684265D01*
X114222189Y-112595114D01*
X114052029Y-112524632D01*
X113871389Y-112488700D01*
X113687211Y-112488700D01*
X113506571Y-112524632D01*
X113336411Y-112595114D01*
X113183272Y-112697438D01*
X113053038Y-112827672D01*
X112950714Y-112980811D01*
X112880232Y-113150971D01*
X112844300Y-113331611D01*
X112844300Y-113515789D01*
X112880232Y-113696429D01*
X112950714Y-113866589D01*
X113053038Y-114019728D01*
X113183272Y-114149962D01*
X113336411Y-114252286D01*
X113506571Y-114322768D01*
X113687211Y-114358700D01*
X113810190Y-114358700D01*
X114680998Y-115229509D01*
X114680998Y-115259748D01*
X114522250Y-115101000D01*
X113958000Y-115097928D01*
X113833518Y-115110188D01*
X113713820Y-115146498D01*
X113603506Y-115205463D01*
X113506815Y-115284815D01*
X113427463Y-115381506D01*
X113368498Y-115491820D01*
X113332188Y-115611518D01*
X113319928Y-115736000D01*
X113323000Y-116300250D01*
X113481750Y-116459000D01*
X114681000Y-116459000D01*
X114681000Y-116439000D01*
X114935000Y-116439000D01*
X114935000Y-116459000D01*
X114955000Y-116459000D01*
X114955000Y-116713000D01*
X114935000Y-116713000D01*
X114935000Y-117912250D01*
X115093750Y-118071000D01*
X115658000Y-118074072D01*
X115782482Y-118061812D01*
X115902180Y-118025502D01*
X116012494Y-117966537D01*
X116109185Y-117887185D01*
X116188537Y-117790494D01*
X116247502Y-117680180D01*
X116255221Y-117654733D01*
X117427001Y-118826514D01*
X117427000Y-119713000D01*
X116167705Y-119713000D01*
X116139889Y-119694414D01*
X115969729Y-119623932D01*
X115789089Y-119588000D01*
X115604911Y-119588000D01*
X115424271Y-119623932D01*
X115254111Y-119694414D01*
X115100972Y-119796738D01*
X114970738Y-119926972D01*
X114868414Y-120080111D01*
X114797932Y-120250271D01*
X114762000Y-120430911D01*
X114762000Y-120615089D01*
X114797932Y-120795729D01*
X114868414Y-120965889D01*
X114970738Y-121119028D01*
X115100972Y-121249262D01*
X115254111Y-121351586D01*
X115424271Y-121422068D01*
X115604911Y-121458000D01*
X115789089Y-121458000D01*
X115969729Y-121422068D01*
X116139889Y-121351586D01*
X116167705Y-121333000D01*
X118197209Y-121333000D01*
X118237000Y-121336919D01*
X118276791Y-121333000D01*
X121035839Y-121333000D01*
X121083111Y-121364586D01*
X121253271Y-121435068D01*
X121433911Y-121471000D01*
X121618089Y-121471000D01*
X121798729Y-121435068D01*
X121968889Y-121364586D01*
X122122028Y-121262262D01*
X122252262Y-121132028D01*
X122354586Y-120978889D01*
X122425068Y-120808729D01*
X122461000Y-120628089D01*
X122461000Y-120443911D01*
X122425068Y-120263271D01*
X122354586Y-120093111D01*
X122252262Y-119939972D01*
X122122028Y-119809738D01*
X121968889Y-119707414D01*
X121798729Y-119636932D01*
X121618089Y-119601000D01*
X121433911Y-119601000D01*
X121253271Y-119636932D01*
X121083111Y-119707414D01*
X121074751Y-119713000D01*
X119047000Y-119713000D01*
X119047000Y-118530787D01*
X119050919Y-118490999D01*
X119046389Y-118445010D01*
X119035280Y-118332212D01*
X118988963Y-118179527D01*
X118935267Y-118079068D01*
X118932597Y-118074072D01*
X119976000Y-118074072D01*
X120100482Y-118061812D01*
X120220180Y-118025502D01*
X120330494Y-117966537D01*
X120427185Y-117887185D01*
X120506537Y-117790494D01*
X120565502Y-117680180D01*
X120587513Y-117607620D01*
X120719368Y-117739475D01*
X120962589Y-117901990D01*
X121232842Y-118013932D01*
X121519740Y-118071000D01*
X121812260Y-118071000D01*
X122099158Y-118013932D01*
X122369411Y-117901990D01*
X122612632Y-117739475D01*
X122819475Y-117532632D01*
X122910770Y-117396000D01*
X123987928Y-117396000D01*
X123987928Y-117436000D01*
X124000188Y-117560482D01*
X124036498Y-117680180D01*
X124095463Y-117790494D01*
X124174815Y-117887185D01*
X124271506Y-117966537D01*
X124381820Y-118025502D01*
X124501518Y-118061812D01*
X124626000Y-118074072D01*
X126326000Y-118074072D01*
X126450482Y-118061812D01*
X126570180Y-118025502D01*
X126680494Y-117966537D01*
X126777185Y-117887185D01*
X126856537Y-117790494D01*
X126915502Y-117680180D01*
X126951812Y-117560482D01*
X126964072Y-117436000D01*
X126964072Y-117396000D01*
X133395488Y-117396000D01*
X137993059Y-121993571D01*
X137961000Y-122154740D01*
X137961000Y-122447260D01*
X138018068Y-122734158D01*
X138130010Y-123004411D01*
X138292525Y-123247632D01*
X138499368Y-123454475D01*
X138681534Y-123576195D01*
X138564645Y-123645822D01*
X138348412Y-123840731D01*
X138174359Y-124074080D01*
X138049175Y-124336901D01*
X138004524Y-124484110D01*
X138125845Y-124714000D01*
X139319000Y-124714000D01*
X139319000Y-124694000D01*
X139573000Y-124694000D01*
X139573000Y-124714000D01*
X139593000Y-124714000D01*
X139593000Y-124968000D01*
X139573000Y-124968000D01*
X139573000Y-126161814D01*
X139802891Y-126282481D01*
X140077252Y-126185157D01*
X140327355Y-126036178D01*
X140543588Y-125841269D01*
X140666116Y-125676998D01*
X140666075Y-125695594D01*
X140666000Y-125696354D01*
X140666000Y-125729271D01*
X140665927Y-125762124D01*
X140666000Y-125762883D01*
X140666001Y-129109000D01*
X96605871Y-129109000D01*
X96622472Y-129103964D01*
X96763188Y-129028750D01*
X96886527Y-128927529D01*
X96911898Y-128896614D01*
X97228571Y-128579941D01*
X97389740Y-128612000D01*
X97682260Y-128612000D01*
X97969158Y-128554932D01*
X98239411Y-128442990D01*
X98482632Y-128280475D01*
X98689475Y-128073632D01*
X98851990Y-127830411D01*
X98963932Y-127560158D01*
X99021000Y-127273260D01*
X99021000Y-126980740D01*
X98963932Y-126693842D01*
X98851990Y-126423589D01*
X98754043Y-126277000D01*
X99984928Y-126277000D01*
X99984928Y-127977000D01*
X99997188Y-128101482D01*
X100033498Y-128221180D01*
X100092463Y-128331494D01*
X100171815Y-128428185D01*
X100268506Y-128507537D01*
X100378820Y-128566502D01*
X100498518Y-128602812D01*
X100623000Y-128615072D01*
X102323000Y-128615072D01*
X102447482Y-128602812D01*
X102567180Y-128566502D01*
X102677494Y-128507537D01*
X102774185Y-128428185D01*
X102853537Y-128331494D01*
X102912502Y-128221180D01*
X102934513Y-128148620D01*
X103066368Y-128280475D01*
X103309589Y-128442990D01*
X103579842Y-128554932D01*
X103866740Y-128612000D01*
X104159260Y-128612000D01*
X104446158Y-128554932D01*
X104716411Y-128442990D01*
X104959632Y-128280475D01*
X105166475Y-128073632D01*
X105283000Y-127899240D01*
X105399525Y-128073632D01*
X105606368Y-128280475D01*
X105849589Y-128442990D01*
X106119842Y-128554932D01*
X106406740Y-128612000D01*
X106699260Y-128612000D01*
X106986158Y-128554932D01*
X107256411Y-128442990D01*
X107499632Y-128280475D01*
X107706475Y-128073632D01*
X107823000Y-127899240D01*
X107939525Y-128073632D01*
X108146368Y-128280475D01*
X108389589Y-128442990D01*
X108659842Y-128554932D01*
X108946740Y-128612000D01*
X109239260Y-128612000D01*
X109526158Y-128554932D01*
X109796411Y-128442990D01*
X110039632Y-128280475D01*
X110246475Y-128073632D01*
X110408990Y-127830411D01*
X110520932Y-127560158D01*
X110578000Y-127273260D01*
X110578000Y-126980740D01*
X110520932Y-126693842D01*
X110408990Y-126423589D01*
X110311043Y-126277000D01*
X126146928Y-126277000D01*
X126146928Y-127977000D01*
X126159188Y-128101482D01*
X126195498Y-128221180D01*
X126254463Y-128331494D01*
X126333815Y-128428185D01*
X126430506Y-128507537D01*
X126540820Y-128566502D01*
X126660518Y-128602812D01*
X126785000Y-128615072D01*
X128485000Y-128615072D01*
X128609482Y-128602812D01*
X128729180Y-128566502D01*
X128839494Y-128507537D01*
X128936185Y-128428185D01*
X129015537Y-128331494D01*
X129074502Y-128221180D01*
X129096513Y-128148620D01*
X129228368Y-128280475D01*
X129471589Y-128442990D01*
X129741842Y-128554932D01*
X130028740Y-128612000D01*
X130321260Y-128612000D01*
X130608158Y-128554932D01*
X130878411Y-128442990D01*
X131121632Y-128280475D01*
X131328475Y-128073632D01*
X131445000Y-127899240D01*
X131561525Y-128073632D01*
X131768368Y-128280475D01*
X132011589Y-128442990D01*
X132281842Y-128554932D01*
X132568740Y-128612000D01*
X132861260Y-128612000D01*
X133148158Y-128554932D01*
X133418411Y-128442990D01*
X133661632Y-128280475D01*
X133868475Y-128073632D01*
X133985000Y-127899240D01*
X134101525Y-128073632D01*
X134308368Y-128280475D01*
X134551589Y-128442990D01*
X134821842Y-128554932D01*
X135108740Y-128612000D01*
X135401260Y-128612000D01*
X135688158Y-128554932D01*
X135958411Y-128442990D01*
X136201632Y-128280475D01*
X136408475Y-128073632D01*
X136570990Y-127830411D01*
X136682932Y-127560158D01*
X136740000Y-127273260D01*
X136740000Y-126980740D01*
X136682932Y-126693842D01*
X136570990Y-126423589D01*
X136408475Y-126180368D01*
X136201632Y-125973525D01*
X135958411Y-125811010D01*
X135688158Y-125699068D01*
X135401260Y-125642000D01*
X135108740Y-125642000D01*
X134821842Y-125699068D01*
X134551589Y-125811010D01*
X134308368Y-125973525D01*
X134101525Y-126180368D01*
X133985000Y-126354760D01*
X133868475Y-126180368D01*
X133661632Y-125973525D01*
X133418411Y-125811010D01*
X133148158Y-125699068D01*
X132861260Y-125642000D01*
X132568740Y-125642000D01*
X132281842Y-125699068D01*
X132011589Y-125811010D01*
X131768368Y-125973525D01*
X131561525Y-126180368D01*
X131445000Y-126354760D01*
X131328475Y-126180368D01*
X131121632Y-125973525D01*
X130878411Y-125811010D01*
X130608158Y-125699068D01*
X130321260Y-125642000D01*
X130028740Y-125642000D01*
X129741842Y-125699068D01*
X129471589Y-125811010D01*
X129228368Y-125973525D01*
X129096513Y-126105380D01*
X129074502Y-126032820D01*
X129015537Y-125922506D01*
X128936185Y-125825815D01*
X128839494Y-125746463D01*
X128729180Y-125687498D01*
X128609482Y-125651188D01*
X128485000Y-125638928D01*
X126785000Y-125638928D01*
X126660518Y-125651188D01*
X126540820Y-125687498D01*
X126430506Y-125746463D01*
X126333815Y-125825815D01*
X126254463Y-125922506D01*
X126195498Y-126032820D01*
X126159188Y-126152518D01*
X126146928Y-126277000D01*
X110311043Y-126277000D01*
X110246475Y-126180368D01*
X110039632Y-125973525D01*
X109796411Y-125811010D01*
X109526158Y-125699068D01*
X109239260Y-125642000D01*
X108946740Y-125642000D01*
X108659842Y-125699068D01*
X108389589Y-125811010D01*
X108146368Y-125973525D01*
X107939525Y-126180368D01*
X107823000Y-126354760D01*
X107706475Y-126180368D01*
X107499632Y-125973525D01*
X107256411Y-125811010D01*
X106986158Y-125699068D01*
X106699260Y-125642000D01*
X106406740Y-125642000D01*
X106119842Y-125699068D01*
X105849589Y-125811010D01*
X105606368Y-125973525D01*
X105399525Y-126180368D01*
X105283000Y-126354760D01*
X105166475Y-126180368D01*
X104959632Y-125973525D01*
X104716411Y-125811010D01*
X104446158Y-125699068D01*
X104159260Y-125642000D01*
X103866740Y-125642000D01*
X103579842Y-125699068D01*
X103309589Y-125811010D01*
X103066368Y-125973525D01*
X102934513Y-126105380D01*
X102912502Y-126032820D01*
X102853537Y-125922506D01*
X102774185Y-125825815D01*
X102677494Y-125746463D01*
X102567180Y-125687498D01*
X102447482Y-125651188D01*
X102323000Y-125638928D01*
X100623000Y-125638928D01*
X100498518Y-125651188D01*
X100378820Y-125687498D01*
X100268506Y-125746463D01*
X100171815Y-125825815D01*
X100092463Y-125922506D01*
X100033498Y-126032820D01*
X99997188Y-126152518D01*
X99984928Y-126277000D01*
X98754043Y-126277000D01*
X98689475Y-126180368D01*
X98482632Y-125973525D01*
X98239411Y-125811010D01*
X97969158Y-125699068D01*
X97682260Y-125642000D01*
X97389740Y-125642000D01*
X97102842Y-125699068D01*
X96832589Y-125811010D01*
X96589368Y-125973525D01*
X96457513Y-126105380D01*
X96435502Y-126032820D01*
X96376537Y-125922506D01*
X96297185Y-125825815D01*
X96200494Y-125746463D01*
X96090180Y-125687498D01*
X95970482Y-125651188D01*
X95846000Y-125638928D01*
X95281750Y-125642000D01*
X95123000Y-125800750D01*
X95123000Y-127000000D01*
X95143000Y-127000000D01*
X95143000Y-127254000D01*
X95123000Y-127254000D01*
X95123000Y-127274000D01*
X94869000Y-127274000D01*
X94869000Y-127254000D01*
X93669750Y-127254000D01*
X93511000Y-127412750D01*
X93510296Y-127542001D01*
X88428514Y-127542001D01*
X87163513Y-126277000D01*
X93507928Y-126277000D01*
X93511000Y-126841250D01*
X93669750Y-127000000D01*
X94869000Y-127000000D01*
X94869000Y-125800750D01*
X94710250Y-125642000D01*
X94146000Y-125638928D01*
X94021518Y-125651188D01*
X93901820Y-125687498D01*
X93791506Y-125746463D01*
X93694815Y-125825815D01*
X93615463Y-125922506D01*
X93556498Y-126032820D01*
X93520188Y-126152518D01*
X93507928Y-126277000D01*
X87163513Y-126277000D01*
X86314239Y-125427727D01*
X86405990Y-125290411D01*
X86444313Y-125197890D01*
X138004524Y-125197890D01*
X138049175Y-125345099D01*
X138174359Y-125607920D01*
X138348412Y-125841269D01*
X138564645Y-126036178D01*
X138814748Y-126185157D01*
X139089109Y-126282481D01*
X139319000Y-126161814D01*
X139319000Y-124968000D01*
X138125845Y-124968000D01*
X138004524Y-125197890D01*
X86444313Y-125197890D01*
X86517932Y-125020158D01*
X86575000Y-124733260D01*
X86575000Y-124440740D01*
X86517932Y-124153842D01*
X86405990Y-123883589D01*
X86243475Y-123640368D01*
X86209018Y-123605911D01*
X99014000Y-123605911D01*
X99014000Y-123790089D01*
X99049932Y-123970729D01*
X99120414Y-124140889D01*
X99222738Y-124294028D01*
X99352972Y-124424262D01*
X99506111Y-124526586D01*
X99676271Y-124597068D01*
X99856911Y-124633000D01*
X100041089Y-124633000D01*
X100221729Y-124597068D01*
X100391889Y-124526586D01*
X100545028Y-124424262D01*
X100675262Y-124294028D01*
X100777586Y-124140889D01*
X100848068Y-123970729D01*
X100854595Y-123937917D01*
X101697064Y-123095448D01*
X115276000Y-123095448D01*
X115276000Y-123284552D01*
X115312892Y-123470022D01*
X115385259Y-123644731D01*
X115490319Y-123801964D01*
X115624036Y-123935681D01*
X115781269Y-124040741D01*
X115955978Y-124113108D01*
X116141448Y-124150000D01*
X116330552Y-124150000D01*
X116516022Y-124113108D01*
X116690731Y-124040741D01*
X116847964Y-123935681D01*
X116981681Y-123801964D01*
X117086741Y-123644731D01*
X117159108Y-123470022D01*
X117196000Y-123284552D01*
X117196000Y-123095448D01*
X121056000Y-123095448D01*
X121056000Y-123284552D01*
X121092892Y-123470022D01*
X121165259Y-123644731D01*
X121270319Y-123801964D01*
X121404036Y-123935681D01*
X121561269Y-124040741D01*
X121735978Y-124113108D01*
X121921448Y-124150000D01*
X122110552Y-124150000D01*
X122296022Y-124113108D01*
X122470731Y-124040741D01*
X122627964Y-123935681D01*
X122761681Y-123801964D01*
X122866741Y-123644731D01*
X122939108Y-123470022D01*
X122976000Y-123284552D01*
X122976000Y-123095448D01*
X122939108Y-122909978D01*
X122866741Y-122735269D01*
X122761681Y-122578036D01*
X122627964Y-122444319D01*
X122470731Y-122339259D01*
X122296022Y-122266892D01*
X122110552Y-122230000D01*
X121921448Y-122230000D01*
X121735978Y-122266892D01*
X121561269Y-122339259D01*
X121404036Y-122444319D01*
X121270319Y-122578036D01*
X121165259Y-122735269D01*
X121092892Y-122909978D01*
X121056000Y-123095448D01*
X117196000Y-123095448D01*
X117159108Y-122909978D01*
X117086741Y-122735269D01*
X116981681Y-122578036D01*
X116847964Y-122444319D01*
X116690731Y-122339259D01*
X116516022Y-122266892D01*
X116330552Y-122230000D01*
X116141448Y-122230000D01*
X115955978Y-122266892D01*
X115781269Y-122339259D01*
X115624036Y-122444319D01*
X115490319Y-122578036D01*
X115385259Y-122735269D01*
X115312892Y-122909978D01*
X115276000Y-123095448D01*
X101697064Y-123095448D01*
X103541619Y-121250894D01*
X103572528Y-121225528D01*
X103636543Y-121147525D01*
X103673749Y-121102190D01*
X103683884Y-121083228D01*
X104735518Y-120031595D01*
X104768329Y-120025068D01*
X104938489Y-119954586D01*
X105091628Y-119852262D01*
X105221862Y-119722028D01*
X105324186Y-119568889D01*
X105394668Y-119398729D01*
X105430600Y-119218089D01*
X105430600Y-119033911D01*
X105394668Y-118853271D01*
X105324186Y-118683111D01*
X105221862Y-118529972D01*
X105091628Y-118399738D01*
X104938489Y-118297414D01*
X104768329Y-118226932D01*
X104587689Y-118191000D01*
X104403511Y-118191000D01*
X104222871Y-118226932D01*
X104052711Y-118297414D01*
X103899572Y-118399738D01*
X103769338Y-118529972D01*
X103667014Y-118683111D01*
X103596532Y-118853271D01*
X103590005Y-118886082D01*
X102452386Y-120023702D01*
X102421472Y-120049072D01*
X102320251Y-120172411D01*
X102310117Y-120191370D01*
X99709083Y-122792405D01*
X99676271Y-122798932D01*
X99506111Y-122869414D01*
X99352972Y-122971738D01*
X99222738Y-123101972D01*
X99120414Y-123255111D01*
X99049932Y-123425271D01*
X99014000Y-123605911D01*
X86209018Y-123605911D01*
X86036632Y-123433525D01*
X85854466Y-123311805D01*
X85971355Y-123242178D01*
X86187588Y-123047269D01*
X86361641Y-122813920D01*
X86486825Y-122551099D01*
X86531476Y-122403890D01*
X86410155Y-122174000D01*
X85217000Y-122174000D01*
X85217000Y-122194000D01*
X84963000Y-122194000D01*
X84963000Y-122174000D01*
X84943000Y-122174000D01*
X84943000Y-121920000D01*
X84963000Y-121920000D01*
X84963000Y-121900000D01*
X85217000Y-121900000D01*
X85217000Y-121920000D01*
X86410155Y-121920000D01*
X86531476Y-121690110D01*
X86486825Y-121542901D01*
X86361641Y-121280080D01*
X86187588Y-121046731D01*
X85971355Y-120851822D01*
X85854466Y-120782195D01*
X86036632Y-120660475D01*
X86243475Y-120453632D01*
X86258656Y-120430911D01*
X94950000Y-120430911D01*
X94950000Y-120615089D01*
X94985932Y-120795729D01*
X95056414Y-120965889D01*
X95158738Y-121119028D01*
X95288972Y-121249262D01*
X95442111Y-121351586D01*
X95612271Y-121422068D01*
X95657853Y-121431135D01*
X95620932Y-121520271D01*
X95585000Y-121700911D01*
X95585000Y-121885089D01*
X95620932Y-122065729D01*
X95691414Y-122235889D01*
X95793738Y-122389028D01*
X95923972Y-122519262D01*
X96077111Y-122621586D01*
X96247271Y-122692068D01*
X96427911Y-122728000D01*
X96612089Y-122728000D01*
X96792729Y-122692068D01*
X96962889Y-122621586D01*
X97116028Y-122519262D01*
X97246262Y-122389028D01*
X97348586Y-122235889D01*
X97419068Y-122065729D01*
X97425595Y-122032917D01*
X97572614Y-121885898D01*
X97603528Y-121860528D01*
X97704749Y-121737189D01*
X97779963Y-121596473D01*
X97826280Y-121443788D01*
X97838000Y-121324791D01*
X97838000Y-121324789D01*
X97841919Y-121285001D01*
X97838000Y-121245213D01*
X97838000Y-117436000D01*
X113319928Y-117436000D01*
X113332188Y-117560482D01*
X113368498Y-117680180D01*
X113427463Y-117790494D01*
X113506815Y-117887185D01*
X113603506Y-117966537D01*
X113713820Y-118025502D01*
X113833518Y-118061812D01*
X113958000Y-118074072D01*
X114522250Y-118071000D01*
X114681000Y-117912250D01*
X114681000Y-116713000D01*
X113481750Y-116713000D01*
X113323000Y-116871750D01*
X113319928Y-117436000D01*
X97838000Y-117436000D01*
X97838000Y-115278705D01*
X97856586Y-115250889D01*
X97927068Y-115080729D01*
X97963000Y-114900089D01*
X97963000Y-114715911D01*
X97927068Y-114535271D01*
X97856586Y-114365111D01*
X97754262Y-114211972D01*
X97624028Y-114081738D01*
X97470889Y-113979414D01*
X97300729Y-113908932D01*
X97120089Y-113873000D01*
X96935911Y-113873000D01*
X96755271Y-113908932D01*
X96585111Y-113979414D01*
X96431972Y-114081738D01*
X96301738Y-114211972D01*
X96199414Y-114365111D01*
X96128932Y-114535271D01*
X96093000Y-114715911D01*
X96093000Y-114900089D01*
X96128932Y-115080729D01*
X96199414Y-115250889D01*
X96218001Y-115278706D01*
X96218001Y-116308659D01*
X96104089Y-116286000D01*
X95919911Y-116286000D01*
X95739271Y-116321932D01*
X95569111Y-116392414D01*
X95415972Y-116494738D01*
X95285738Y-116624972D01*
X95183414Y-116778111D01*
X95112932Y-116948271D01*
X95077000Y-117128911D01*
X95077000Y-117313089D01*
X95112932Y-117493729D01*
X95183414Y-117663889D01*
X95202000Y-117691705D01*
X95202001Y-119883709D01*
X95158738Y-119926972D01*
X95056414Y-120080111D01*
X94985932Y-120250271D01*
X94950000Y-120430911D01*
X86258656Y-120430911D01*
X86405990Y-120210411D01*
X86517932Y-119940158D01*
X86575000Y-119653260D01*
X86575000Y-119360740D01*
X86517932Y-119073842D01*
X86405990Y-118803589D01*
X86243475Y-118560368D01*
X86036632Y-118353525D01*
X85862240Y-118237000D01*
X86036632Y-118120475D01*
X86243475Y-117913632D01*
X86405990Y-117670411D01*
X86517932Y-117400158D01*
X86575000Y-117113260D01*
X86575000Y-116820740D01*
X86517932Y-116533842D01*
X86405990Y-116263589D01*
X86243475Y-116020368D01*
X86036632Y-115813525D01*
X85862240Y-115697000D01*
X86036632Y-115580475D01*
X86243475Y-115373632D01*
X86405990Y-115130411D01*
X86517932Y-114860158D01*
X86575000Y-114573260D01*
X86575000Y-114280740D01*
X86517932Y-113993842D01*
X86405990Y-113723589D01*
X86243475Y-113480368D01*
X86036632Y-113273525D01*
X85862240Y-113157000D01*
X86036632Y-113040475D01*
X86243475Y-112833632D01*
X86405990Y-112590411D01*
X86517932Y-112320158D01*
X86575000Y-112033260D01*
X86575000Y-111740740D01*
X86517932Y-111453842D01*
X86405990Y-111183589D01*
X86243475Y-110940368D01*
X86036632Y-110733525D01*
X85862240Y-110617000D01*
X86036632Y-110500475D01*
X86243475Y-110293632D01*
X86405990Y-110050411D01*
X86517932Y-109780158D01*
X86532138Y-109708740D01*
X87288000Y-109708740D01*
X87288000Y-110001260D01*
X87345068Y-110288158D01*
X87457010Y-110558411D01*
X87619525Y-110801632D01*
X87826368Y-111008475D01*
X88069589Y-111170990D01*
X88339842Y-111282932D01*
X88626740Y-111340000D01*
X88919260Y-111340000D01*
X89206158Y-111282932D01*
X89476411Y-111170990D01*
X89719632Y-111008475D01*
X89851487Y-110876620D01*
X89873498Y-110949180D01*
X89932463Y-111059494D01*
X90011815Y-111156185D01*
X90108506Y-111235537D01*
X90218820Y-111294502D01*
X90338518Y-111330812D01*
X90463000Y-111343072D01*
X92163000Y-111343072D01*
X92287482Y-111330812D01*
X92407180Y-111294502D01*
X92517494Y-111235537D01*
X92614185Y-111156185D01*
X92693537Y-111059494D01*
X92752502Y-110949180D01*
X92788812Y-110829482D01*
X92801072Y-110705000D01*
X92801072Y-109005000D01*
X92788812Y-108880518D01*
X92752502Y-108760820D01*
X92693537Y-108650506D01*
X92614185Y-108553815D01*
X92517494Y-108474463D01*
X92407180Y-108415498D01*
X92287482Y-108379188D01*
X92163000Y-108366928D01*
X90463000Y-108366928D01*
X90338518Y-108379188D01*
X90218820Y-108415498D01*
X90108506Y-108474463D01*
X90011815Y-108553815D01*
X89932463Y-108650506D01*
X89873498Y-108760820D01*
X89851487Y-108833380D01*
X89719632Y-108701525D01*
X89476411Y-108539010D01*
X89206158Y-108427068D01*
X88919260Y-108370000D01*
X88626740Y-108370000D01*
X88339842Y-108427068D01*
X88069589Y-108539010D01*
X87826368Y-108701525D01*
X87619525Y-108908368D01*
X87457010Y-109151589D01*
X87345068Y-109421842D01*
X87288000Y-109708740D01*
X86532138Y-109708740D01*
X86575000Y-109493260D01*
X86575000Y-109200740D01*
X86517932Y-108913842D01*
X86405990Y-108643589D01*
X86243475Y-108400368D01*
X86036632Y-108193525D01*
X85862240Y-108077000D01*
X86036632Y-107960475D01*
X86243475Y-107753632D01*
X86405990Y-107510411D01*
X86517932Y-107240158D01*
X86575000Y-106953260D01*
X86575000Y-106660740D01*
X86517932Y-106373842D01*
X86405990Y-106103589D01*
X86243475Y-105860368D01*
X86036632Y-105653525D01*
X85862240Y-105537000D01*
X86036632Y-105420475D01*
X86243475Y-105213632D01*
X86255924Y-105195000D01*
X87284928Y-105195000D01*
X87284928Y-106895000D01*
X87297188Y-107019482D01*
X87333498Y-107139180D01*
X87392463Y-107249494D01*
X87471815Y-107346185D01*
X87568506Y-107425537D01*
X87678820Y-107484502D01*
X87798518Y-107520812D01*
X87923000Y-107533072D01*
X89623000Y-107533072D01*
X89747482Y-107520812D01*
X89867180Y-107484502D01*
X89977494Y-107425537D01*
X90074185Y-107346185D01*
X90153537Y-107249494D01*
X90212502Y-107139180D01*
X90234513Y-107066620D01*
X90366368Y-107198475D01*
X90609589Y-107360990D01*
X90879842Y-107472932D01*
X91166740Y-107530000D01*
X91459260Y-107530000D01*
X91746158Y-107472932D01*
X92016411Y-107360990D01*
X92259632Y-107198475D01*
X92466475Y-106991632D01*
X92601201Y-106790000D01*
X93816408Y-106790000D01*
X93853000Y-106793604D01*
X93889592Y-106790000D01*
X95594410Y-106790000D01*
X95631000Y-106793604D01*
X95667590Y-106790000D01*
X95667592Y-106790000D01*
X95777045Y-106779220D01*
X95917478Y-106736620D01*
X96046902Y-106667441D01*
X96160343Y-106574343D01*
X96183669Y-106545920D01*
X96899169Y-105830420D01*
X97046729Y-105801068D01*
X97216889Y-105730586D01*
X97370028Y-105628262D01*
X97500262Y-105498028D01*
X97602586Y-105344889D01*
X97673068Y-105174729D01*
X97680001Y-105139876D01*
X97680000Y-108597213D01*
X92214213Y-114063000D01*
X90356985Y-114063000D01*
X90231889Y-113979414D01*
X90061729Y-113908932D01*
X89881089Y-113873000D01*
X89696911Y-113873000D01*
X89516271Y-113908932D01*
X89346111Y-113979414D01*
X89192972Y-114081738D01*
X89062738Y-114211972D01*
X88960414Y-114365111D01*
X88889932Y-114535271D01*
X88854000Y-114715911D01*
X88854000Y-114900089D01*
X88889932Y-115080729D01*
X88960414Y-115250889D01*
X89062738Y-115404028D01*
X89192972Y-115534262D01*
X89346111Y-115636586D01*
X89516271Y-115707068D01*
X89696911Y-115743000D01*
X89881089Y-115743000D01*
X90061729Y-115707068D01*
X90231889Y-115636586D01*
X90356985Y-115553000D01*
X92486212Y-115553000D01*
X92522802Y-115556604D01*
X92559392Y-115553000D01*
X92559394Y-115553000D01*
X92668847Y-115542220D01*
X92809280Y-115499620D01*
X92938704Y-115430441D01*
X93052145Y-115337343D01*
X93075471Y-115308920D01*
X98925921Y-109458470D01*
X98954343Y-109435145D01*
X99000595Y-109378787D01*
X99047441Y-109321705D01*
X99116619Y-109192281D01*
X99116620Y-109192280D01*
X99159220Y-109051847D01*
X99170000Y-108942394D01*
X99170000Y-108942385D01*
X99173603Y-108905803D01*
X99170000Y-108869221D01*
X99170000Y-106524411D01*
X99204500Y-106524411D01*
X99204500Y-106708589D01*
X99240432Y-106889229D01*
X99310914Y-107059389D01*
X99413238Y-107212528D01*
X99543472Y-107342762D01*
X99696611Y-107445086D01*
X99866771Y-107515568D01*
X100047411Y-107551500D01*
X100231589Y-107551500D01*
X100412229Y-107515568D01*
X100582389Y-107445086D01*
X100610205Y-107426500D01*
X104375988Y-107426500D01*
X106409405Y-109459918D01*
X106415932Y-109492729D01*
X106486414Y-109662889D01*
X106588738Y-109816028D01*
X106718972Y-109946262D01*
X106872111Y-110048586D01*
X107042271Y-110119068D01*
X107222911Y-110155000D01*
X107407089Y-110155000D01*
X107587729Y-110119068D01*
X107757889Y-110048586D01*
X107911028Y-109946262D01*
X108041262Y-109816028D01*
X108143586Y-109662889D01*
X108214068Y-109492729D01*
X108250000Y-109312089D01*
X108250000Y-109127911D01*
X108214068Y-108947271D01*
X108143586Y-108777111D01*
X108041262Y-108623972D01*
X107911028Y-108493738D01*
X107757889Y-108391414D01*
X107587729Y-108320932D01*
X107554918Y-108314405D01*
X105312400Y-106071887D01*
X105287028Y-106040972D01*
X105163689Y-105939751D01*
X105022973Y-105864537D01*
X104870288Y-105818220D01*
X104751291Y-105806500D01*
X104751288Y-105806500D01*
X104711500Y-105802581D01*
X104671712Y-105806500D01*
X100610205Y-105806500D01*
X100582389Y-105787914D01*
X100412229Y-105717432D01*
X100231589Y-105681500D01*
X100047411Y-105681500D01*
X99866771Y-105717432D01*
X99696611Y-105787914D01*
X99543472Y-105890238D01*
X99413238Y-106020472D01*
X99310914Y-106173611D01*
X99240432Y-106343771D01*
X99204500Y-106524411D01*
X99170000Y-106524411D01*
X99170000Y-104891789D01*
X99246838Y-104776793D01*
X99317320Y-104606633D01*
X99353252Y-104425993D01*
X99353252Y-104241815D01*
X99317320Y-104061175D01*
X99313502Y-104051957D01*
X99348911Y-104059000D01*
X99533089Y-104059000D01*
X99713729Y-104023068D01*
X99883889Y-103952586D01*
X100037028Y-103850262D01*
X100167262Y-103720028D01*
X100269586Y-103566889D01*
X100340068Y-103396729D01*
X100376000Y-103216089D01*
X100376000Y-103031911D01*
X100340068Y-102851271D01*
X100269586Y-102681111D01*
X100167262Y-102527972D01*
X100037028Y-102397738D01*
X99883889Y-102295414D01*
X99713729Y-102224932D01*
X99566169Y-102195580D01*
X99104669Y-101734080D01*
X99081343Y-101705657D01*
X98967902Y-101612559D01*
X98838478Y-101543380D01*
X98698045Y-101500780D01*
X98588592Y-101490000D01*
X98588590Y-101490000D01*
X98552000Y-101486396D01*
X98515410Y-101490000D01*
X92801072Y-101490000D01*
X92801072Y-101385000D01*
X92788812Y-101260518D01*
X92752502Y-101140820D01*
X92693537Y-101030506D01*
X92614185Y-100933815D01*
X92517494Y-100854463D01*
X92407180Y-100795498D01*
X92287482Y-100759188D01*
X92163000Y-100746928D01*
X90463000Y-100746928D01*
X90338518Y-100759188D01*
X90218820Y-100795498D01*
X90108506Y-100854463D01*
X90011815Y-100933815D01*
X89932463Y-101030506D01*
X89873498Y-101140820D01*
X89851487Y-101213380D01*
X89719632Y-101081525D01*
X89476411Y-100919010D01*
X89206158Y-100807068D01*
X88919260Y-100750000D01*
X88626740Y-100750000D01*
X88339842Y-100807068D01*
X88069589Y-100919010D01*
X87826368Y-101081525D01*
X87619525Y-101288368D01*
X87457010Y-101531589D01*
X87345068Y-101801842D01*
X87288000Y-102088740D01*
X87288000Y-102381260D01*
X87345068Y-102668158D01*
X87457010Y-102938411D01*
X87619525Y-103181632D01*
X87826368Y-103388475D01*
X88069589Y-103550990D01*
X88339842Y-103662932D01*
X88626740Y-103720000D01*
X88919260Y-103720000D01*
X89206158Y-103662932D01*
X89476411Y-103550990D01*
X89719632Y-103388475D01*
X89851487Y-103256620D01*
X89873498Y-103329180D01*
X89932463Y-103439494D01*
X90011815Y-103536185D01*
X90108506Y-103615537D01*
X90218820Y-103674502D01*
X90338518Y-103710812D01*
X90463000Y-103723072D01*
X92163000Y-103723072D01*
X92287482Y-103710812D01*
X92407180Y-103674502D01*
X92517494Y-103615537D01*
X92614185Y-103536185D01*
X92693537Y-103439494D01*
X92752502Y-103329180D01*
X92788812Y-103209482D01*
X92801072Y-103085000D01*
X92801072Y-102980000D01*
X94910821Y-102980000D01*
X94858932Y-103105271D01*
X94829580Y-103252830D01*
X94534554Y-103547857D01*
X94506137Y-103571178D01*
X94482816Y-103599595D01*
X94482810Y-103599601D01*
X94413038Y-103684619D01*
X94399038Y-103710812D01*
X94343859Y-103814043D01*
X94301259Y-103954476D01*
X94290750Y-104061175D01*
X94286875Y-104100521D01*
X94290479Y-104137111D01*
X94290479Y-104378890D01*
X93369369Y-105300000D01*
X92601201Y-105300000D01*
X92466475Y-105098368D01*
X92259632Y-104891525D01*
X92016411Y-104729010D01*
X91746158Y-104617068D01*
X91459260Y-104560000D01*
X91166740Y-104560000D01*
X90879842Y-104617068D01*
X90609589Y-104729010D01*
X90366368Y-104891525D01*
X90234513Y-105023380D01*
X90212502Y-104950820D01*
X90153537Y-104840506D01*
X90074185Y-104743815D01*
X89977494Y-104664463D01*
X89867180Y-104605498D01*
X89747482Y-104569188D01*
X89623000Y-104556928D01*
X87923000Y-104556928D01*
X87798518Y-104569188D01*
X87678820Y-104605498D01*
X87568506Y-104664463D01*
X87471815Y-104743815D01*
X87392463Y-104840506D01*
X87333498Y-104950820D01*
X87297188Y-105070518D01*
X87284928Y-105195000D01*
X86255924Y-105195000D01*
X86405990Y-104970411D01*
X86517932Y-104700158D01*
X86575000Y-104413260D01*
X86575000Y-104120740D01*
X86517932Y-103833842D01*
X86405990Y-103563589D01*
X86243475Y-103320368D01*
X86036632Y-103113525D01*
X85862240Y-102997000D01*
X86036632Y-102880475D01*
X86243475Y-102673632D01*
X86405990Y-102430411D01*
X86517932Y-102160158D01*
X86575000Y-101873260D01*
X86575000Y-101580740D01*
X86517932Y-101293842D01*
X86405990Y-101023589D01*
X86243475Y-100780368D01*
X86036632Y-100573525D01*
X85862240Y-100457000D01*
X86036632Y-100340475D01*
X86243475Y-100133632D01*
X86405990Y-99890411D01*
X86517932Y-99620158D01*
X86575000Y-99333260D01*
X86575000Y-99040740D01*
X86517932Y-98753842D01*
X86405990Y-98483589D01*
X86243475Y-98240368D01*
X86036632Y-98033525D01*
X85862240Y-97917000D01*
X86036632Y-97800475D01*
X86243475Y-97593632D01*
X86255924Y-97575000D01*
X87284928Y-97575000D01*
X87284928Y-99275000D01*
X87297188Y-99399482D01*
X87333498Y-99519180D01*
X87392463Y-99629494D01*
X87471815Y-99726185D01*
X87568506Y-99805537D01*
X87678820Y-99864502D01*
X87798518Y-99900812D01*
X87923000Y-99913072D01*
X89623000Y-99913072D01*
X89747482Y-99900812D01*
X89867180Y-99864502D01*
X89977494Y-99805537D01*
X90074185Y-99726185D01*
X90153537Y-99629494D01*
X90212502Y-99519180D01*
X90234513Y-99446620D01*
X90366368Y-99578475D01*
X90609589Y-99740990D01*
X90879842Y-99852932D01*
X91166740Y-99910000D01*
X91459260Y-99910000D01*
X91746158Y-99852932D01*
X92016411Y-99740990D01*
X92259632Y-99578475D01*
X92466475Y-99371632D01*
X92601201Y-99170000D01*
X98007410Y-99170000D01*
X98044000Y-99173604D01*
X98080590Y-99170000D01*
X98080592Y-99170000D01*
X98190045Y-99159220D01*
X98330478Y-99116620D01*
X98459902Y-99047441D01*
X98573343Y-98954343D01*
X98596669Y-98925920D01*
X103376169Y-94146420D01*
X103523729Y-94117068D01*
X103693889Y-94046586D01*
X103847028Y-93944262D01*
X103977262Y-93814028D01*
X104079586Y-93660889D01*
X104150068Y-93490729D01*
X104186000Y-93310089D01*
X104186000Y-93125911D01*
X104150068Y-92945271D01*
X104079586Y-92775111D01*
X103977262Y-92621972D01*
X103847028Y-92491738D01*
X103693889Y-92389414D01*
X103523729Y-92318932D01*
X103343089Y-92283000D01*
X103158911Y-92283000D01*
X102978271Y-92318932D01*
X102808111Y-92389414D01*
X102654972Y-92491738D01*
X102524738Y-92621972D01*
X102422414Y-92775111D01*
X102351932Y-92945271D01*
X102322580Y-93092831D01*
X97735411Y-97680000D01*
X92601201Y-97680000D01*
X92466475Y-97478368D01*
X92259632Y-97271525D01*
X92016411Y-97109010D01*
X91746158Y-96997068D01*
X91459260Y-96940000D01*
X91166740Y-96940000D01*
X90879842Y-96997068D01*
X90609589Y-97109010D01*
X90366368Y-97271525D01*
X90234513Y-97403380D01*
X90212502Y-97330820D01*
X90153537Y-97220506D01*
X90074185Y-97123815D01*
X89977494Y-97044463D01*
X89867180Y-96985498D01*
X89747482Y-96949188D01*
X89623000Y-96936928D01*
X87923000Y-96936928D01*
X87798518Y-96949188D01*
X87678820Y-96985498D01*
X87568506Y-97044463D01*
X87471815Y-97123815D01*
X87392463Y-97220506D01*
X87333498Y-97330820D01*
X87297188Y-97450518D01*
X87284928Y-97575000D01*
X86255924Y-97575000D01*
X86405990Y-97350411D01*
X86517932Y-97080158D01*
X86575000Y-96793260D01*
X86575000Y-96500740D01*
X86517932Y-96213842D01*
X86405990Y-95943589D01*
X86243475Y-95700368D01*
X86036632Y-95493525D01*
X85862240Y-95377000D01*
X86036632Y-95260475D01*
X86243475Y-95053632D01*
X86405990Y-94810411D01*
X86517932Y-94540158D01*
X86575000Y-94253260D01*
X86575000Y-93960740D01*
X86517932Y-93673842D01*
X86405990Y-93403589D01*
X86243475Y-93160368D01*
X86036632Y-92953525D01*
X85862240Y-92837000D01*
X86036632Y-92720475D01*
X86243475Y-92513632D01*
X86405990Y-92270411D01*
X86517932Y-92000158D01*
X86575000Y-91713260D01*
X86575000Y-91420740D01*
X86517932Y-91133842D01*
X86405990Y-90863589D01*
X86243475Y-90620368D01*
X86036632Y-90413525D01*
X85862240Y-90297000D01*
X86036632Y-90180475D01*
X86243475Y-89973632D01*
X86405990Y-89730411D01*
X86517932Y-89460158D01*
X86575000Y-89173260D01*
X86575000Y-88880740D01*
X86517932Y-88593842D01*
X86405990Y-88323589D01*
X86243475Y-88080368D01*
X86036632Y-87873525D01*
X85862240Y-87757000D01*
X86036632Y-87640475D01*
X86243475Y-87433632D01*
X86405990Y-87190411D01*
X86517932Y-86920158D01*
X86575000Y-86633260D01*
X86575000Y-86340740D01*
X86517932Y-86053842D01*
X86405990Y-85783589D01*
X86243475Y-85540368D01*
X86036632Y-85333525D01*
X85862240Y-85217000D01*
X86036632Y-85100475D01*
X86243475Y-84893632D01*
X86405990Y-84650411D01*
X86517932Y-84380158D01*
X86575000Y-84093260D01*
X86575000Y-83800740D01*
X86517932Y-83513842D01*
X86405990Y-83243589D01*
X86243475Y-83000368D01*
X86036632Y-82793525D01*
X85862240Y-82677000D01*
X86036632Y-82560475D01*
X86243475Y-82353632D01*
X86405990Y-82110411D01*
X86517932Y-81840158D01*
X86575000Y-81553260D01*
X86575000Y-81260740D01*
X86517932Y-80973842D01*
X86405990Y-80703589D01*
X86243475Y-80460368D01*
X86036632Y-80253525D01*
X85862240Y-80137000D01*
X86036632Y-80020475D01*
X86243475Y-79813632D01*
X86405990Y-79570411D01*
X86517932Y-79300158D01*
X86575000Y-79013260D01*
X86575000Y-78720740D01*
X86517932Y-78433842D01*
X86405990Y-78163589D01*
X86243475Y-77920368D01*
X86111620Y-77788513D01*
X86184180Y-77766502D01*
X86294494Y-77707537D01*
X86391185Y-77628185D01*
X86470537Y-77531494D01*
X86484746Y-77504911D01*
X87965000Y-77504911D01*
X87965000Y-77689089D01*
X88000932Y-77869729D01*
X88071414Y-78039889D01*
X88173738Y-78193028D01*
X88303972Y-78323262D01*
X88457111Y-78425586D01*
X88627271Y-78496068D01*
X88807911Y-78532000D01*
X88992089Y-78532000D01*
X89172729Y-78496068D01*
X89342889Y-78425586D01*
X89370705Y-78407000D01*
X105362001Y-78407000D01*
X105362000Y-92162212D01*
X105358081Y-92202000D01*
X105362000Y-92241788D01*
X105362000Y-92241790D01*
X105373720Y-92360787D01*
X105420037Y-92513472D01*
X105420038Y-92513473D01*
X105495251Y-92654189D01*
X105509071Y-92671028D01*
X105596472Y-92777528D01*
X105627387Y-92802899D01*
X107552405Y-94727918D01*
X107558932Y-94760729D01*
X107629414Y-94930889D01*
X107731738Y-95084028D01*
X107861972Y-95214262D01*
X108015111Y-95316586D01*
X108185271Y-95387068D01*
X108365911Y-95423000D01*
X108550089Y-95423000D01*
X108730729Y-95387068D01*
X108900889Y-95316586D01*
X109054028Y-95214262D01*
X109184262Y-95084028D01*
X109286586Y-94930889D01*
X109357068Y-94760729D01*
X109393000Y-94580089D01*
X109393000Y-94395911D01*
X109357068Y-94215271D01*
X109286586Y-94045111D01*
X109184262Y-93891972D01*
X109054028Y-93761738D01*
X108900889Y-93659414D01*
X108730729Y-93588932D01*
X108697918Y-93582405D01*
X106982000Y-91866488D01*
X106982000Y-78067705D01*
X107000586Y-78039889D01*
X107071068Y-77869729D01*
X107107000Y-77689089D01*
X107107000Y-77504911D01*
X107071068Y-77324271D01*
X107000586Y-77154111D01*
X106898262Y-77000972D01*
X106768028Y-76870738D01*
X106614889Y-76768414D01*
X106444729Y-76697932D01*
X106264089Y-76662000D01*
X106079911Y-76662000D01*
X105899271Y-76697932D01*
X105729111Y-76768414D01*
X105701295Y-76787000D01*
X89370705Y-76787000D01*
X89342889Y-76768414D01*
X89172729Y-76697932D01*
X88992089Y-76662000D01*
X88807911Y-76662000D01*
X88627271Y-76697932D01*
X88457111Y-76768414D01*
X88303972Y-76870738D01*
X88173738Y-77000972D01*
X88071414Y-77154111D01*
X88000932Y-77324271D01*
X87965000Y-77504911D01*
X86484746Y-77504911D01*
X86529502Y-77421180D01*
X86565812Y-77301482D01*
X86578072Y-77177000D01*
X86575000Y-76612750D01*
X86416250Y-76454000D01*
X85217000Y-76454000D01*
X85217000Y-76474000D01*
X84963000Y-76474000D01*
X84963000Y-76454000D01*
X84943000Y-76454000D01*
X84943000Y-76200000D01*
X84963000Y-76200000D01*
X84963000Y-75000750D01*
X85217000Y-75000750D01*
X85217000Y-76200000D01*
X86416250Y-76200000D01*
X86575000Y-76041250D01*
X86576689Y-75731000D01*
X137957928Y-75731000D01*
X137961000Y-76295250D01*
X138119750Y-76454000D01*
X139319000Y-76454000D01*
X139319000Y-75254750D01*
X139160250Y-75096000D01*
X138596000Y-75092928D01*
X138471518Y-75105188D01*
X138351820Y-75141498D01*
X138241506Y-75200463D01*
X138144815Y-75279815D01*
X138065463Y-75376506D01*
X138006498Y-75486820D01*
X137970188Y-75606518D01*
X137957928Y-75731000D01*
X86576689Y-75731000D01*
X86578072Y-75477000D01*
X86565812Y-75352518D01*
X86529502Y-75232820D01*
X86470537Y-75122506D01*
X86391185Y-75025815D01*
X86294494Y-74946463D01*
X86184180Y-74887498D01*
X86064482Y-74851188D01*
X85940000Y-74838928D01*
X85375750Y-74842000D01*
X85217000Y-75000750D01*
X84963000Y-75000750D01*
X84804250Y-74842000D01*
X84240000Y-74838928D01*
X84115518Y-74851188D01*
X83995820Y-74887498D01*
X83885506Y-74946463D01*
X83788815Y-75025815D01*
X83709463Y-75122506D01*
X83650498Y-75232820D01*
X83616000Y-75346545D01*
X83616000Y-69265000D01*
X140791477Y-69265000D01*
X140778027Y-75317396D01*
G37*
%TD.AperFunction*%
%TD*%
M02*
