%TF.GenerationSoftware,KiCad,Pcbnew,(5.1.7)-1*%
%TF.CreationDate,2020-11-25T11:44:14-08:00*%
%TF.ProjectId,esp32_sensor,65737033-325f-4736-956e-736f722e6b69,v0.0.3b*%
%TF.SameCoordinates,Original*%
%TF.FileFunction,Other,Comment*%
%FSLAX46Y46*%
G04 Gerber Fmt 4.6, Leading zero omitted, Abs format (unit mm)*
G04 Created by KiCad (PCBNEW (5.1.7)-1) date 2020-11-25 11:44:14*
%MOMM*%
%LPD*%
G01*
G04 APERTURE LIST*
%ADD10C,0.100000*%
%ADD11C,0.150000*%
%ADD12C,0.002000*%
G04 APERTURE END LIST*
D10*
%TO.C,U_ESP_1*%
X133787000Y-70580000D02*
X138387000Y-70580000D01*
X138387000Y-70580000D02*
X138187000Y-70380000D01*
X138387000Y-70580000D02*
X138187000Y-70780000D01*
X133787000Y-70580000D02*
X133987000Y-70380000D01*
X133787000Y-70580000D02*
X133987000Y-70780000D01*
X110787000Y-70580000D02*
X110987000Y-70380000D01*
X110787000Y-70580000D02*
X110987000Y-70780000D01*
X115387000Y-70580000D02*
X115187000Y-70780000D01*
X110787000Y-70580000D02*
X115387000Y-70580000D01*
X115387000Y-70580000D02*
X115187000Y-70380000D01*
X132987000Y-68455000D02*
X132787000Y-68255000D01*
X132987000Y-68455000D02*
X133187000Y-68255000D01*
X132987000Y-63855000D02*
X133187000Y-64055000D01*
X132987000Y-68455000D02*
X132987000Y-63855000D01*
X132987000Y-63855000D02*
X132787000Y-64055000D01*
%TD*%
%TO.C,U_ESP_1*%
D11*
X118515571Y-65907380D02*
X118515571Y-64907380D01*
X119087000Y-65907380D02*
X118658428Y-65335952D01*
X119087000Y-64907380D02*
X118515571Y-65478809D01*
X119515571Y-65383571D02*
X119848904Y-65383571D01*
X119991761Y-65907380D02*
X119515571Y-65907380D01*
X119515571Y-64907380D01*
X119991761Y-64907380D01*
X120420333Y-65383571D02*
X120753666Y-65383571D01*
X120896523Y-65907380D02*
X120420333Y-65907380D01*
X120420333Y-64907380D01*
X120896523Y-64907380D01*
X121325095Y-65907380D02*
X121325095Y-64907380D01*
X121706047Y-64907380D01*
X121801285Y-64955000D01*
X121848904Y-65002619D01*
X121896523Y-65097857D01*
X121896523Y-65240714D01*
X121848904Y-65335952D01*
X121801285Y-65383571D01*
X121706047Y-65431190D01*
X121325095Y-65431190D01*
X122325095Y-65526428D02*
X123087000Y-65526428D01*
X123753666Y-64907380D02*
X123944142Y-64907380D01*
X124039380Y-64955000D01*
X124134619Y-65050238D01*
X124182238Y-65240714D01*
X124182238Y-65574047D01*
X124134619Y-65764523D01*
X124039380Y-65859761D01*
X123944142Y-65907380D01*
X123753666Y-65907380D01*
X123658428Y-65859761D01*
X123563190Y-65764523D01*
X123515571Y-65574047D01*
X123515571Y-65240714D01*
X123563190Y-65050238D01*
X123658428Y-64955000D01*
X123753666Y-64907380D01*
X124610809Y-64907380D02*
X124610809Y-65716904D01*
X124658428Y-65812142D01*
X124706047Y-65859761D01*
X124801285Y-65907380D01*
X124991761Y-65907380D01*
X125087000Y-65859761D01*
X125134619Y-65812142D01*
X125182238Y-65716904D01*
X125182238Y-64907380D01*
X125515571Y-64907380D02*
X126087000Y-64907380D01*
X125801285Y-65907380D02*
X125801285Y-64907380D01*
X127087000Y-64907380D02*
X127753666Y-64907380D01*
X127087000Y-65907380D01*
X127753666Y-65907380D01*
X128325095Y-64907380D02*
X128515571Y-64907380D01*
X128610809Y-64955000D01*
X128706047Y-65050238D01*
X128753666Y-65240714D01*
X128753666Y-65574047D01*
X128706047Y-65764523D01*
X128610809Y-65859761D01*
X128515571Y-65907380D01*
X128325095Y-65907380D01*
X128229857Y-65859761D01*
X128134619Y-65764523D01*
X128087000Y-65574047D01*
X128087000Y-65240714D01*
X128134619Y-65050238D01*
X128229857Y-64955000D01*
X128325095Y-64907380D01*
X129182238Y-65907380D02*
X129182238Y-64907380D01*
X129753666Y-65907380D01*
X129753666Y-64907380D01*
X130229857Y-65383571D02*
X130563190Y-65383571D01*
X130706047Y-65907380D02*
X130229857Y-65907380D01*
X130229857Y-64907380D01*
X130706047Y-64907380D01*
X121825095Y-71621666D02*
X122301285Y-71621666D01*
X121729857Y-71907380D02*
X122063190Y-70907380D01*
X122396523Y-71907380D01*
X122729857Y-71240714D02*
X122729857Y-71907380D01*
X122729857Y-71335952D02*
X122777476Y-71288333D01*
X122872714Y-71240714D01*
X123015571Y-71240714D01*
X123110809Y-71288333D01*
X123158428Y-71383571D01*
X123158428Y-71907380D01*
X123491761Y-71240714D02*
X123872714Y-71240714D01*
X123634619Y-70907380D02*
X123634619Y-71764523D01*
X123682238Y-71859761D01*
X123777476Y-71907380D01*
X123872714Y-71907380D01*
X124587000Y-71859761D02*
X124491761Y-71907380D01*
X124301285Y-71907380D01*
X124206047Y-71859761D01*
X124158428Y-71764523D01*
X124158428Y-71383571D01*
X124206047Y-71288333D01*
X124301285Y-71240714D01*
X124491761Y-71240714D01*
X124587000Y-71288333D01*
X124634619Y-71383571D01*
X124634619Y-71478809D01*
X124158428Y-71574047D01*
X125063190Y-71240714D02*
X125063190Y-71907380D01*
X125063190Y-71335952D02*
X125110809Y-71288333D01*
X125206047Y-71240714D01*
X125348904Y-71240714D01*
X125444142Y-71288333D01*
X125491761Y-71383571D01*
X125491761Y-71907380D01*
X125967952Y-71240714D02*
X125967952Y-71907380D01*
X125967952Y-71335952D02*
X126015571Y-71288333D01*
X126110809Y-71240714D01*
X126253666Y-71240714D01*
X126348904Y-71288333D01*
X126396523Y-71383571D01*
X126396523Y-71907380D01*
X127301285Y-71907380D02*
X127301285Y-71383571D01*
X127253666Y-71288333D01*
X127158428Y-71240714D01*
X126967952Y-71240714D01*
X126872714Y-71288333D01*
X127301285Y-71859761D02*
X127206047Y-71907380D01*
X126967952Y-71907380D01*
X126872714Y-71859761D01*
X126825095Y-71764523D01*
X126825095Y-71669285D01*
X126872714Y-71574047D01*
X126967952Y-71526428D01*
X127206047Y-71526428D01*
X127301285Y-71478809D01*
D10*
X135648904Y-69806190D02*
X135410809Y-69806190D01*
X135387000Y-70044285D01*
X135410809Y-70020476D01*
X135458428Y-69996666D01*
X135577476Y-69996666D01*
X135625095Y-70020476D01*
X135648904Y-70044285D01*
X135672714Y-70091904D01*
X135672714Y-70210952D01*
X135648904Y-70258571D01*
X135625095Y-70282380D01*
X135577476Y-70306190D01*
X135458428Y-70306190D01*
X135410809Y-70282380D01*
X135387000Y-70258571D01*
X136267952Y-70306190D02*
X136267952Y-69972857D01*
X136267952Y-70020476D02*
X136291761Y-69996666D01*
X136339380Y-69972857D01*
X136410809Y-69972857D01*
X136458428Y-69996666D01*
X136482238Y-70044285D01*
X136482238Y-70306190D01*
X136482238Y-70044285D02*
X136506047Y-69996666D01*
X136553666Y-69972857D01*
X136625095Y-69972857D01*
X136672714Y-69996666D01*
X136696523Y-70044285D01*
X136696523Y-70306190D01*
X136934619Y-70306190D02*
X136934619Y-69972857D01*
X136934619Y-70020476D02*
X136958428Y-69996666D01*
X137006047Y-69972857D01*
X137077476Y-69972857D01*
X137125095Y-69996666D01*
X137148904Y-70044285D01*
X137148904Y-70306190D01*
X137148904Y-70044285D02*
X137172714Y-69996666D01*
X137220333Y-69972857D01*
X137291761Y-69972857D01*
X137339380Y-69996666D01*
X137363190Y-70044285D01*
X137363190Y-70306190D01*
X112648904Y-69806190D02*
X112410809Y-69806190D01*
X112387000Y-70044285D01*
X112410809Y-70020476D01*
X112458428Y-69996666D01*
X112577476Y-69996666D01*
X112625095Y-70020476D01*
X112648904Y-70044285D01*
X112672714Y-70091904D01*
X112672714Y-70210952D01*
X112648904Y-70258571D01*
X112625095Y-70282380D01*
X112577476Y-70306190D01*
X112458428Y-70306190D01*
X112410809Y-70282380D01*
X112387000Y-70258571D01*
X113267952Y-70306190D02*
X113267952Y-69972857D01*
X113267952Y-70020476D02*
X113291761Y-69996666D01*
X113339380Y-69972857D01*
X113410809Y-69972857D01*
X113458428Y-69996666D01*
X113482238Y-70044285D01*
X113482238Y-70306190D01*
X113482238Y-70044285D02*
X113506047Y-69996666D01*
X113553666Y-69972857D01*
X113625095Y-69972857D01*
X113672714Y-69996666D01*
X113696523Y-70044285D01*
X113696523Y-70306190D01*
X113934619Y-70306190D02*
X113934619Y-69972857D01*
X113934619Y-70020476D02*
X113958428Y-69996666D01*
X114006047Y-69972857D01*
X114077476Y-69972857D01*
X114125095Y-69996666D01*
X114148904Y-70044285D01*
X114148904Y-70306190D01*
X114148904Y-70044285D02*
X114172714Y-69996666D01*
X114220333Y-69972857D01*
X114291761Y-69972857D01*
X114339380Y-69996666D01*
X114363190Y-70044285D01*
X114363190Y-70306190D01*
X132113190Y-66118095D02*
X132113190Y-66356190D01*
X132351285Y-66380000D01*
X132327476Y-66356190D01*
X132303666Y-66308571D01*
X132303666Y-66189523D01*
X132327476Y-66141904D01*
X132351285Y-66118095D01*
X132398904Y-66094285D01*
X132517952Y-66094285D01*
X132565571Y-66118095D01*
X132589380Y-66141904D01*
X132613190Y-66189523D01*
X132613190Y-66308571D01*
X132589380Y-66356190D01*
X132565571Y-66380000D01*
X132613190Y-65499047D02*
X132279857Y-65499047D01*
X132327476Y-65499047D02*
X132303666Y-65475238D01*
X132279857Y-65427619D01*
X132279857Y-65356190D01*
X132303666Y-65308571D01*
X132351285Y-65284761D01*
X132613190Y-65284761D01*
X132351285Y-65284761D02*
X132303666Y-65260952D01*
X132279857Y-65213333D01*
X132279857Y-65141904D01*
X132303666Y-65094285D01*
X132351285Y-65070476D01*
X132613190Y-65070476D01*
X132613190Y-64832380D02*
X132279857Y-64832380D01*
X132327476Y-64832380D02*
X132303666Y-64808571D01*
X132279857Y-64760952D01*
X132279857Y-64689523D01*
X132303666Y-64641904D01*
X132351285Y-64618095D01*
X132613190Y-64618095D01*
X132351285Y-64618095D02*
X132303666Y-64594285D01*
X132279857Y-64546666D01*
X132279857Y-64475238D01*
X132303666Y-64427619D01*
X132351285Y-64403809D01*
X132613190Y-64403809D01*
%TO.C,SW_ESP_1*%
D12*
X93874166Y-81452357D02*
X93868119Y-81458404D01*
X93849976Y-81464452D01*
X93837880Y-81464452D01*
X93819738Y-81458404D01*
X93807642Y-81446309D01*
X93801595Y-81434214D01*
X93795547Y-81410023D01*
X93795547Y-81391880D01*
X93801595Y-81367690D01*
X93807642Y-81355595D01*
X93819738Y-81343500D01*
X93837880Y-81337452D01*
X93849976Y-81337452D01*
X93868119Y-81343500D01*
X93874166Y-81349547D01*
X93946738Y-81464452D02*
X93934642Y-81458404D01*
X93928595Y-81452357D01*
X93922547Y-81440261D01*
X93922547Y-81403976D01*
X93928595Y-81391880D01*
X93934642Y-81385833D01*
X93946738Y-81379785D01*
X93964880Y-81379785D01*
X93976976Y-81385833D01*
X93983023Y-81391880D01*
X93989071Y-81403976D01*
X93989071Y-81440261D01*
X93983023Y-81452357D01*
X93976976Y-81458404D01*
X93964880Y-81464452D01*
X93946738Y-81464452D01*
X94043500Y-81379785D02*
X94043500Y-81506785D01*
X94043500Y-81385833D02*
X94055595Y-81379785D01*
X94079785Y-81379785D01*
X94091880Y-81385833D01*
X94097928Y-81391880D01*
X94103976Y-81403976D01*
X94103976Y-81440261D01*
X94097928Y-81452357D01*
X94091880Y-81458404D01*
X94079785Y-81464452D01*
X94055595Y-81464452D01*
X94043500Y-81458404D01*
X94146309Y-81379785D02*
X94176547Y-81464452D01*
X94206785Y-81379785D02*
X94176547Y-81464452D01*
X94164452Y-81494690D01*
X94158404Y-81500738D01*
X94146309Y-81506785D01*
X94255166Y-81464452D02*
X94255166Y-81379785D01*
X94255166Y-81403976D02*
X94261214Y-81391880D01*
X94267261Y-81385833D01*
X94279357Y-81379785D01*
X94291452Y-81379785D01*
X94333785Y-81464452D02*
X94333785Y-81379785D01*
X94333785Y-81337452D02*
X94327738Y-81343500D01*
X94333785Y-81349547D01*
X94339833Y-81343500D01*
X94333785Y-81337452D01*
X94333785Y-81349547D01*
X94448690Y-81379785D02*
X94448690Y-81482595D01*
X94442642Y-81494690D01*
X94436595Y-81500738D01*
X94424500Y-81506785D01*
X94406357Y-81506785D01*
X94394261Y-81500738D01*
X94448690Y-81458404D02*
X94436595Y-81464452D01*
X94412404Y-81464452D01*
X94400309Y-81458404D01*
X94394261Y-81452357D01*
X94388214Y-81440261D01*
X94388214Y-81403976D01*
X94394261Y-81391880D01*
X94400309Y-81385833D01*
X94412404Y-81379785D01*
X94436595Y-81379785D01*
X94448690Y-81385833D01*
X94509166Y-81464452D02*
X94509166Y-81337452D01*
X94563595Y-81464452D02*
X94563595Y-81397928D01*
X94557547Y-81385833D01*
X94545452Y-81379785D01*
X94527309Y-81379785D01*
X94515214Y-81385833D01*
X94509166Y-81391880D01*
X94605928Y-81379785D02*
X94654309Y-81379785D01*
X94624071Y-81337452D02*
X94624071Y-81446309D01*
X94630119Y-81458404D01*
X94642214Y-81464452D01*
X94654309Y-81464452D01*
X94787357Y-81349547D02*
X94793404Y-81343500D01*
X94805500Y-81337452D01*
X94835738Y-81337452D01*
X94847833Y-81343500D01*
X94853880Y-81349547D01*
X94859928Y-81361642D01*
X94859928Y-81373738D01*
X94853880Y-81391880D01*
X94781309Y-81464452D01*
X94859928Y-81464452D01*
X94938547Y-81337452D02*
X94950642Y-81337452D01*
X94962738Y-81343500D01*
X94968785Y-81349547D01*
X94974833Y-81361642D01*
X94980880Y-81385833D01*
X94980880Y-81416071D01*
X94974833Y-81440261D01*
X94968785Y-81452357D01*
X94962738Y-81458404D01*
X94950642Y-81464452D01*
X94938547Y-81464452D01*
X94926452Y-81458404D01*
X94920404Y-81452357D01*
X94914357Y-81440261D01*
X94908309Y-81416071D01*
X94908309Y-81385833D01*
X94914357Y-81361642D01*
X94920404Y-81349547D01*
X94926452Y-81343500D01*
X94938547Y-81337452D01*
X95101833Y-81464452D02*
X95029261Y-81464452D01*
X95065547Y-81464452D02*
X95065547Y-81337452D01*
X95053452Y-81355595D01*
X95041357Y-81367690D01*
X95029261Y-81373738D01*
X95210690Y-81337452D02*
X95186500Y-81337452D01*
X95174404Y-81343500D01*
X95168357Y-81349547D01*
X95156261Y-81367690D01*
X95150214Y-81391880D01*
X95150214Y-81440261D01*
X95156261Y-81452357D01*
X95162309Y-81458404D01*
X95174404Y-81464452D01*
X95198595Y-81464452D01*
X95210690Y-81458404D01*
X95216738Y-81452357D01*
X95222785Y-81440261D01*
X95222785Y-81410023D01*
X95216738Y-81397928D01*
X95210690Y-81391880D01*
X95198595Y-81385833D01*
X95174404Y-81385833D01*
X95162309Y-81391880D01*
X95156261Y-81397928D01*
X95150214Y-81410023D01*
X95367928Y-81428166D02*
X95428404Y-81428166D01*
X95355833Y-81464452D02*
X95398166Y-81337452D01*
X95440500Y-81464452D01*
X95537261Y-81458404D02*
X95525166Y-81464452D01*
X95500976Y-81464452D01*
X95488880Y-81458404D01*
X95482833Y-81452357D01*
X95476785Y-81440261D01*
X95476785Y-81403976D01*
X95482833Y-81391880D01*
X95488880Y-81385833D01*
X95500976Y-81379785D01*
X95525166Y-81379785D01*
X95537261Y-81385833D01*
X95646119Y-81458404D02*
X95634023Y-81464452D01*
X95609833Y-81464452D01*
X95597738Y-81458404D01*
X95591690Y-81452357D01*
X95585642Y-81440261D01*
X95585642Y-81403976D01*
X95591690Y-81391880D01*
X95597738Y-81385833D01*
X95609833Y-81379785D01*
X95634023Y-81379785D01*
X95646119Y-81385833D01*
X95748928Y-81458404D02*
X95736833Y-81464452D01*
X95712642Y-81464452D01*
X95700547Y-81458404D01*
X95694500Y-81446309D01*
X95694500Y-81397928D01*
X95700547Y-81385833D01*
X95712642Y-81379785D01*
X95736833Y-81379785D01*
X95748928Y-81385833D01*
X95754976Y-81397928D01*
X95754976Y-81410023D01*
X95694500Y-81422119D01*
X95827547Y-81464452D02*
X95815452Y-81458404D01*
X95809404Y-81446309D01*
X95809404Y-81337452D01*
X95924309Y-81458404D02*
X95912214Y-81464452D01*
X95888023Y-81464452D01*
X95875928Y-81458404D01*
X95869880Y-81446309D01*
X95869880Y-81397928D01*
X95875928Y-81385833D01*
X95888023Y-81379785D01*
X95912214Y-81379785D01*
X95924309Y-81385833D01*
X95930357Y-81397928D01*
X95930357Y-81410023D01*
X95869880Y-81422119D01*
X95984785Y-81464452D02*
X95984785Y-81379785D01*
X95984785Y-81403976D02*
X95990833Y-81391880D01*
X95996880Y-81385833D01*
X96008976Y-81379785D01*
X96021071Y-81379785D01*
X96117833Y-81464452D02*
X96117833Y-81397928D01*
X96111785Y-81385833D01*
X96099690Y-81379785D01*
X96075500Y-81379785D01*
X96063404Y-81385833D01*
X96117833Y-81458404D02*
X96105738Y-81464452D01*
X96075500Y-81464452D01*
X96063404Y-81458404D01*
X96057357Y-81446309D01*
X96057357Y-81434214D01*
X96063404Y-81422119D01*
X96075500Y-81416071D01*
X96105738Y-81416071D01*
X96117833Y-81410023D01*
X96160166Y-81379785D02*
X96208547Y-81379785D01*
X96178309Y-81337452D02*
X96178309Y-81446309D01*
X96184357Y-81458404D01*
X96196452Y-81464452D01*
X96208547Y-81464452D01*
X96299261Y-81458404D02*
X96287166Y-81464452D01*
X96262976Y-81464452D01*
X96250880Y-81458404D01*
X96244833Y-81446309D01*
X96244833Y-81397928D01*
X96250880Y-81385833D01*
X96262976Y-81379785D01*
X96287166Y-81379785D01*
X96299261Y-81385833D01*
X96305309Y-81397928D01*
X96305309Y-81410023D01*
X96244833Y-81422119D01*
X96414166Y-81464452D02*
X96414166Y-81337452D01*
X96414166Y-81458404D02*
X96402071Y-81464452D01*
X96377880Y-81464452D01*
X96365785Y-81458404D01*
X96359738Y-81452357D01*
X96353690Y-81440261D01*
X96353690Y-81403976D01*
X96359738Y-81391880D01*
X96365785Y-81385833D01*
X96377880Y-81379785D01*
X96402071Y-81379785D01*
X96414166Y-81385833D01*
X96571404Y-81464452D02*
X96571404Y-81337452D01*
X96601642Y-81337452D01*
X96619785Y-81343500D01*
X96631880Y-81355595D01*
X96637928Y-81367690D01*
X96643976Y-81391880D01*
X96643976Y-81410023D01*
X96637928Y-81434214D01*
X96631880Y-81446309D01*
X96619785Y-81458404D01*
X96601642Y-81464452D01*
X96571404Y-81464452D01*
X96746785Y-81458404D02*
X96734690Y-81464452D01*
X96710500Y-81464452D01*
X96698404Y-81458404D01*
X96692357Y-81446309D01*
X96692357Y-81397928D01*
X96698404Y-81385833D01*
X96710500Y-81379785D01*
X96734690Y-81379785D01*
X96746785Y-81385833D01*
X96752833Y-81397928D01*
X96752833Y-81410023D01*
X96692357Y-81422119D01*
X96801214Y-81458404D02*
X96813309Y-81464452D01*
X96837500Y-81464452D01*
X96849595Y-81458404D01*
X96855642Y-81446309D01*
X96855642Y-81440261D01*
X96849595Y-81428166D01*
X96837500Y-81422119D01*
X96819357Y-81422119D01*
X96807261Y-81416071D01*
X96801214Y-81403976D01*
X96801214Y-81397928D01*
X96807261Y-81385833D01*
X96819357Y-81379785D01*
X96837500Y-81379785D01*
X96849595Y-81385833D01*
X96910071Y-81464452D02*
X96910071Y-81379785D01*
X96910071Y-81337452D02*
X96904023Y-81343500D01*
X96910071Y-81349547D01*
X96916119Y-81343500D01*
X96910071Y-81337452D01*
X96910071Y-81349547D01*
X97024976Y-81379785D02*
X97024976Y-81482595D01*
X97018928Y-81494690D01*
X97012880Y-81500738D01*
X97000785Y-81506785D01*
X96982642Y-81506785D01*
X96970547Y-81500738D01*
X97024976Y-81458404D02*
X97012880Y-81464452D01*
X96988690Y-81464452D01*
X96976595Y-81458404D01*
X96970547Y-81452357D01*
X96964500Y-81440261D01*
X96964500Y-81403976D01*
X96970547Y-81391880D01*
X96976595Y-81385833D01*
X96988690Y-81379785D01*
X97012880Y-81379785D01*
X97024976Y-81385833D01*
X97085452Y-81379785D02*
X97085452Y-81464452D01*
X97085452Y-81391880D02*
X97091500Y-81385833D01*
X97103595Y-81379785D01*
X97121738Y-81379785D01*
X97133833Y-81385833D01*
X97139880Y-81397928D01*
X97139880Y-81464452D01*
X97194309Y-81458404D02*
X97206404Y-81464452D01*
X97230595Y-81464452D01*
X97242690Y-81458404D01*
X97248738Y-81446309D01*
X97248738Y-81440261D01*
X97242690Y-81428166D01*
X97230595Y-81422119D01*
X97212452Y-81422119D01*
X97200357Y-81416071D01*
X97194309Y-81403976D01*
X97194309Y-81397928D01*
X97200357Y-81385833D01*
X97212452Y-81379785D01*
X97230595Y-81379785D01*
X97242690Y-81385833D01*
X97303166Y-81452357D02*
X97309214Y-81458404D01*
X97303166Y-81464452D01*
X97297119Y-81458404D01*
X97303166Y-81452357D01*
X97303166Y-81464452D01*
X97454357Y-81428166D02*
X97514833Y-81428166D01*
X97442261Y-81464452D02*
X97484595Y-81337452D01*
X97526928Y-81464452D01*
X97587404Y-81464452D02*
X97575309Y-81458404D01*
X97569261Y-81446309D01*
X97569261Y-81337452D01*
X97653928Y-81464452D02*
X97641833Y-81458404D01*
X97635785Y-81446309D01*
X97635785Y-81337452D01*
X97799071Y-81464452D02*
X97799071Y-81379785D01*
X97799071Y-81403976D02*
X97805119Y-81391880D01*
X97811166Y-81385833D01*
X97823261Y-81379785D01*
X97835357Y-81379785D01*
X97877690Y-81464452D02*
X97877690Y-81379785D01*
X97877690Y-81337452D02*
X97871642Y-81343500D01*
X97877690Y-81349547D01*
X97883738Y-81343500D01*
X97877690Y-81337452D01*
X97877690Y-81349547D01*
X97992595Y-81379785D02*
X97992595Y-81482595D01*
X97986547Y-81494690D01*
X97980500Y-81500738D01*
X97968404Y-81506785D01*
X97950261Y-81506785D01*
X97938166Y-81500738D01*
X97992595Y-81458404D02*
X97980500Y-81464452D01*
X97956309Y-81464452D01*
X97944214Y-81458404D01*
X97938166Y-81452357D01*
X97932119Y-81440261D01*
X97932119Y-81403976D01*
X97938166Y-81391880D01*
X97944214Y-81385833D01*
X97956309Y-81379785D01*
X97980500Y-81379785D01*
X97992595Y-81385833D01*
X98053071Y-81464452D02*
X98053071Y-81337452D01*
X98107500Y-81464452D02*
X98107500Y-81397928D01*
X98101452Y-81385833D01*
X98089357Y-81379785D01*
X98071214Y-81379785D01*
X98059119Y-81385833D01*
X98053071Y-81391880D01*
X98149833Y-81379785D02*
X98198214Y-81379785D01*
X98167976Y-81337452D02*
X98167976Y-81446309D01*
X98174023Y-81458404D01*
X98186119Y-81464452D01*
X98198214Y-81464452D01*
X98234500Y-81458404D02*
X98246595Y-81464452D01*
X98270785Y-81464452D01*
X98282880Y-81458404D01*
X98288928Y-81446309D01*
X98288928Y-81440261D01*
X98282880Y-81428166D01*
X98270785Y-81422119D01*
X98252642Y-81422119D01*
X98240547Y-81416071D01*
X98234500Y-81403976D01*
X98234500Y-81397928D01*
X98240547Y-81385833D01*
X98252642Y-81379785D01*
X98270785Y-81379785D01*
X98282880Y-81385833D01*
X98440119Y-81464452D02*
X98440119Y-81379785D01*
X98440119Y-81403976D02*
X98446166Y-81391880D01*
X98452214Y-81385833D01*
X98464309Y-81379785D01*
X98476404Y-81379785D01*
X98567119Y-81458404D02*
X98555023Y-81464452D01*
X98530833Y-81464452D01*
X98518738Y-81458404D01*
X98512690Y-81446309D01*
X98512690Y-81397928D01*
X98518738Y-81385833D01*
X98530833Y-81379785D01*
X98555023Y-81379785D01*
X98567119Y-81385833D01*
X98573166Y-81397928D01*
X98573166Y-81410023D01*
X98512690Y-81422119D01*
X98621547Y-81458404D02*
X98633642Y-81464452D01*
X98657833Y-81464452D01*
X98669928Y-81458404D01*
X98675976Y-81446309D01*
X98675976Y-81440261D01*
X98669928Y-81428166D01*
X98657833Y-81422119D01*
X98639690Y-81422119D01*
X98627595Y-81416071D01*
X98621547Y-81403976D01*
X98621547Y-81397928D01*
X98627595Y-81385833D01*
X98639690Y-81379785D01*
X98657833Y-81379785D01*
X98669928Y-81385833D01*
X98778785Y-81458404D02*
X98766690Y-81464452D01*
X98742500Y-81464452D01*
X98730404Y-81458404D01*
X98724357Y-81446309D01*
X98724357Y-81397928D01*
X98730404Y-81385833D01*
X98742500Y-81379785D01*
X98766690Y-81379785D01*
X98778785Y-81385833D01*
X98784833Y-81397928D01*
X98784833Y-81410023D01*
X98724357Y-81422119D01*
X98839261Y-81464452D02*
X98839261Y-81379785D01*
X98839261Y-81403976D02*
X98845309Y-81391880D01*
X98851357Y-81385833D01*
X98863452Y-81379785D01*
X98875547Y-81379785D01*
X98905785Y-81379785D02*
X98936023Y-81464452D01*
X98966261Y-81379785D01*
X99063023Y-81458404D02*
X99050928Y-81464452D01*
X99026738Y-81464452D01*
X99014642Y-81458404D01*
X99008595Y-81446309D01*
X99008595Y-81397928D01*
X99014642Y-81385833D01*
X99026738Y-81379785D01*
X99050928Y-81379785D01*
X99063023Y-81385833D01*
X99069071Y-81397928D01*
X99069071Y-81410023D01*
X99008595Y-81422119D01*
X99177928Y-81464452D02*
X99177928Y-81337452D01*
X99177928Y-81458404D02*
X99165833Y-81464452D01*
X99141642Y-81464452D01*
X99129547Y-81458404D01*
X99123500Y-81452357D01*
X99117452Y-81440261D01*
X99117452Y-81403976D01*
X99123500Y-81391880D01*
X99129547Y-81385833D01*
X99141642Y-81379785D01*
X99165833Y-81379785D01*
X99177928Y-81385833D01*
X99238404Y-81452357D02*
X99244452Y-81458404D01*
X99238404Y-81464452D01*
X99232357Y-81458404D01*
X99238404Y-81452357D01*
X99238404Y-81464452D01*
%TD*%
M02*
