%TF.GenerationSoftware,KiCad,Pcbnew,(5.1.7)-1*%
%TF.CreationDate,2020-11-25T11:18:57-08:00*%
%TF.ProjectId,esp32_sensor,65737033-325f-4736-956e-736f722e6b69,v0.0.3*%
%TF.SameCoordinates,Original*%
%TF.FileFunction,Legend,Bot*%
%TF.FilePolarity,Positive*%
%FSLAX46Y46*%
G04 Gerber Fmt 4.6, Leading zero omitted, Abs format (unit mm)*
G04 Created by KiCad (PCBNEW (5.1.7)-1) date 2020-11-25 11:18:57*
%MOMM*%
%LPD*%
G01*
G04 APERTURE LIST*
%ADD10C,0.140000*%
%ADD11C,0.070000*%
G04 APERTURE END LIST*
D10*
X121184142Y-76022000D02*
X120284142Y-76022000D01*
X120284142Y-76364857D01*
X120327000Y-76450571D01*
X120369857Y-76493428D01*
X120455571Y-76536285D01*
X120584142Y-76536285D01*
X120669857Y-76493428D01*
X120712714Y-76450571D01*
X120755571Y-76364857D01*
X120755571Y-76022000D01*
X120584142Y-77307714D02*
X121184142Y-77307714D01*
X120584142Y-76922000D02*
X121055571Y-76922000D01*
X121141285Y-76964857D01*
X121184142Y-77050571D01*
X121184142Y-77179142D01*
X121141285Y-77264857D01*
X121098428Y-77307714D01*
X121184142Y-77736285D02*
X120284142Y-77736285D01*
X120627000Y-77736285D02*
X120584142Y-77822000D01*
X120584142Y-77993428D01*
X120627000Y-78079142D01*
X120669857Y-78122000D01*
X120755571Y-78164857D01*
X121012714Y-78164857D01*
X121098428Y-78122000D01*
X121141285Y-78079142D01*
X121184142Y-77993428D01*
X121184142Y-77822000D01*
X121141285Y-77736285D01*
X121184142Y-78679142D02*
X121141285Y-78593428D01*
X121055571Y-78550571D01*
X120284142Y-78550571D01*
X121184142Y-79022000D02*
X120584142Y-79022000D01*
X120284142Y-79022000D02*
X120327000Y-78979142D01*
X120369857Y-79022000D01*
X120327000Y-79064857D01*
X120284142Y-79022000D01*
X120369857Y-79022000D01*
X121141285Y-79407714D02*
X121184142Y-79493428D01*
X121184142Y-79664857D01*
X121141285Y-79750571D01*
X121055571Y-79793428D01*
X121012714Y-79793428D01*
X120927000Y-79750571D01*
X120884142Y-79664857D01*
X120884142Y-79536285D01*
X120841285Y-79450571D01*
X120755571Y-79407714D01*
X120712714Y-79407714D01*
X120627000Y-79450571D01*
X120584142Y-79536285D01*
X120584142Y-79664857D01*
X120627000Y-79750571D01*
X121184142Y-80179142D02*
X120284142Y-80179142D01*
X121184142Y-80564857D02*
X120712714Y-80564857D01*
X120627000Y-80522000D01*
X120584142Y-80436285D01*
X120584142Y-80307714D01*
X120627000Y-80222000D01*
X120669857Y-80179142D01*
X121141285Y-81336285D02*
X121184142Y-81250571D01*
X121184142Y-81079142D01*
X121141285Y-80993428D01*
X121055571Y-80950571D01*
X120712714Y-80950571D01*
X120627000Y-80993428D01*
X120584142Y-81079142D01*
X120584142Y-81250571D01*
X120627000Y-81336285D01*
X120712714Y-81379142D01*
X120798428Y-81379142D01*
X120884142Y-80950571D01*
X121184142Y-82150571D02*
X120284142Y-82150571D01*
X121141285Y-82150571D02*
X121184142Y-82064857D01*
X121184142Y-81893428D01*
X121141285Y-81807714D01*
X121098428Y-81764857D01*
X121012714Y-81722000D01*
X120755571Y-81722000D01*
X120669857Y-81764857D01*
X120627000Y-81807714D01*
X120584142Y-81893428D01*
X120584142Y-82064857D01*
X120627000Y-82150571D01*
X121184142Y-83393428D02*
X121141285Y-83307714D01*
X121098428Y-83264857D01*
X121012714Y-83222000D01*
X120755571Y-83222000D01*
X120669857Y-83264857D01*
X120627000Y-83307714D01*
X120584142Y-83393428D01*
X120584142Y-83522000D01*
X120627000Y-83607714D01*
X120669857Y-83650571D01*
X120755571Y-83693428D01*
X121012714Y-83693428D01*
X121098428Y-83650571D01*
X121141285Y-83607714D01*
X121184142Y-83522000D01*
X121184142Y-83393428D01*
X120584142Y-84079142D02*
X121184142Y-84079142D01*
X120669857Y-84079142D02*
X120627000Y-84122000D01*
X120584142Y-84207714D01*
X120584142Y-84336285D01*
X120627000Y-84422000D01*
X120712714Y-84464857D01*
X121184142Y-84464857D01*
X120369857Y-85536285D02*
X120327000Y-85579142D01*
X120284142Y-85664857D01*
X120284142Y-85879142D01*
X120327000Y-85964857D01*
X120369857Y-86007714D01*
X120455571Y-86050571D01*
X120541285Y-86050571D01*
X120669857Y-86007714D01*
X121184142Y-85493428D01*
X121184142Y-86050571D01*
X120284142Y-86864857D02*
X120284142Y-86436285D01*
X120712714Y-86393428D01*
X120669857Y-86436285D01*
X120627000Y-86522000D01*
X120627000Y-86736285D01*
X120669857Y-86822000D01*
X120712714Y-86864857D01*
X120798428Y-86907714D01*
X121012714Y-86907714D01*
X121098428Y-86864857D01*
X121141285Y-86822000D01*
X121184142Y-86736285D01*
X121184142Y-86522000D01*
X121141285Y-86436285D01*
X121098428Y-86393428D01*
X121184142Y-87979142D02*
X120284142Y-87979142D01*
X121184142Y-88493428D01*
X120284142Y-88493428D01*
X121184142Y-89050571D02*
X121141285Y-88964857D01*
X121098428Y-88921999D01*
X121012714Y-88879142D01*
X120755571Y-88879142D01*
X120669857Y-88921999D01*
X120627000Y-88964857D01*
X120584142Y-89050571D01*
X120584142Y-89179142D01*
X120627000Y-89264857D01*
X120669857Y-89307714D01*
X120755571Y-89350571D01*
X121012714Y-89350571D01*
X121098428Y-89307714D01*
X121141285Y-89264857D01*
X121184142Y-89179142D01*
X121184142Y-89050571D01*
X120584142Y-89650571D02*
X121184142Y-89864857D01*
X120584142Y-90079142D01*
X121141285Y-90764857D02*
X121184142Y-90679142D01*
X121184142Y-90507714D01*
X121141285Y-90421999D01*
X121055571Y-90379142D01*
X120712714Y-90379142D01*
X120627000Y-90421999D01*
X120584142Y-90507714D01*
X120584142Y-90679142D01*
X120627000Y-90764857D01*
X120712714Y-90807714D01*
X120798428Y-90807714D01*
X120884142Y-90379142D01*
X121184142Y-91193428D02*
X120584142Y-91193428D01*
X120669857Y-91193428D02*
X120627000Y-91236285D01*
X120584142Y-91321999D01*
X120584142Y-91450571D01*
X120627000Y-91536285D01*
X120712714Y-91579142D01*
X121184142Y-91579142D01*
X120712714Y-91579142D02*
X120627000Y-91621999D01*
X120584142Y-91707714D01*
X120584142Y-91836285D01*
X120627000Y-91921999D01*
X120712714Y-91964857D01*
X121184142Y-91964857D01*
X121184142Y-92393428D02*
X120284142Y-92393428D01*
X120627000Y-92393428D02*
X120584142Y-92479142D01*
X120584142Y-92650571D01*
X120627000Y-92736285D01*
X120669857Y-92779142D01*
X120755571Y-92821999D01*
X121012714Y-92821999D01*
X121098428Y-92779142D01*
X121141285Y-92736285D01*
X121184142Y-92650571D01*
X121184142Y-92479142D01*
X121141285Y-92393428D01*
X121141285Y-93550571D02*
X121184142Y-93464857D01*
X121184142Y-93293428D01*
X121141285Y-93207714D01*
X121055571Y-93164857D01*
X120712714Y-93164857D01*
X120627000Y-93207714D01*
X120584142Y-93293428D01*
X120584142Y-93464857D01*
X120627000Y-93550571D01*
X120712714Y-93593428D01*
X120798428Y-93593428D01*
X120884142Y-93164857D01*
X121184142Y-93979142D02*
X120584142Y-93979142D01*
X120755571Y-93979142D02*
X120669857Y-94021999D01*
X120627000Y-94064857D01*
X120584142Y-94150571D01*
X120584142Y-94236285D01*
X120369857Y-95179142D02*
X120327000Y-95221999D01*
X120284142Y-95307714D01*
X120284142Y-95521999D01*
X120327000Y-95607714D01*
X120369857Y-95650571D01*
X120455571Y-95693428D01*
X120541285Y-95693428D01*
X120669857Y-95650571D01*
X121184142Y-95136285D01*
X121184142Y-95693428D01*
X120284142Y-96250571D02*
X120284142Y-96336285D01*
X120327000Y-96421999D01*
X120369857Y-96464857D01*
X120455571Y-96507714D01*
X120627000Y-96550571D01*
X120841285Y-96550571D01*
X121012714Y-96507714D01*
X121098428Y-96464857D01*
X121141285Y-96421999D01*
X121184142Y-96336285D01*
X121184142Y-96250571D01*
X121141285Y-96164857D01*
X121098428Y-96121999D01*
X121012714Y-96079142D01*
X120841285Y-96036285D01*
X120627000Y-96036285D01*
X120455571Y-96079142D01*
X120369857Y-96121999D01*
X120327000Y-96164857D01*
X120284142Y-96250571D01*
X120369857Y-96893428D02*
X120327000Y-96936285D01*
X120284142Y-97021999D01*
X120284142Y-97236285D01*
X120327000Y-97321999D01*
X120369857Y-97364857D01*
X120455571Y-97407714D01*
X120541285Y-97407714D01*
X120669857Y-97364857D01*
X121184142Y-96850571D01*
X121184142Y-97407714D01*
X120284142Y-97964857D02*
X120284142Y-98050571D01*
X120327000Y-98136285D01*
X120369857Y-98179142D01*
X120455571Y-98221999D01*
X120627000Y-98264857D01*
X120841285Y-98264857D01*
X121012714Y-98221999D01*
X121098428Y-98179142D01*
X121141285Y-98136285D01*
X121184142Y-98050571D01*
X121184142Y-97964857D01*
X121141285Y-97879142D01*
X121098428Y-97836285D01*
X121012714Y-97793428D01*
X120841285Y-97750571D01*
X120627000Y-97750571D01*
X120455571Y-97793428D01*
X120369857Y-97836285D01*
X120327000Y-97879142D01*
X120284142Y-97964857D01*
X119066428Y-76392000D02*
X119109285Y-76349142D01*
X119152142Y-76220571D01*
X119152142Y-76134857D01*
X119109285Y-76006285D01*
X119023571Y-75920571D01*
X118937857Y-75877714D01*
X118766428Y-75834857D01*
X118637857Y-75834857D01*
X118466428Y-75877714D01*
X118380714Y-75920571D01*
X118295000Y-76006285D01*
X118252142Y-76134857D01*
X118252142Y-76220571D01*
X118295000Y-76349142D01*
X118337857Y-76392000D01*
X119152142Y-76777714D02*
X118252142Y-76777714D01*
X119152142Y-77163428D02*
X118680714Y-77163428D01*
X118595000Y-77120571D01*
X118552142Y-77034857D01*
X118552142Y-76906285D01*
X118595000Y-76820571D01*
X118637857Y-76777714D01*
X119152142Y-77720571D02*
X119109285Y-77634857D01*
X119066428Y-77592000D01*
X118980714Y-77549142D01*
X118723571Y-77549142D01*
X118637857Y-77592000D01*
X118595000Y-77634857D01*
X118552142Y-77720571D01*
X118552142Y-77849142D01*
X118595000Y-77934857D01*
X118637857Y-77977714D01*
X118723571Y-78020571D01*
X118980714Y-78020571D01*
X119066428Y-77977714D01*
X119109285Y-77934857D01*
X119152142Y-77849142D01*
X119152142Y-77720571D01*
X119152142Y-78534857D02*
X119109285Y-78449142D01*
X119066428Y-78406285D01*
X118980714Y-78363428D01*
X118723571Y-78363428D01*
X118637857Y-78406285D01*
X118595000Y-78449142D01*
X118552142Y-78534857D01*
X118552142Y-78663428D01*
X118595000Y-78749142D01*
X118637857Y-78792000D01*
X118723571Y-78834857D01*
X118980714Y-78834857D01*
X119066428Y-78792000D01*
X119109285Y-78749142D01*
X119152142Y-78663428D01*
X119152142Y-78534857D01*
X118552142Y-79220571D02*
X119152142Y-79220571D01*
X118637857Y-79220571D02*
X118595000Y-79263428D01*
X118552142Y-79349142D01*
X118552142Y-79477714D01*
X118595000Y-79563428D01*
X118680714Y-79606285D01*
X119152142Y-79606285D01*
X118552142Y-80420571D02*
X119280714Y-80420571D01*
X119366428Y-80377714D01*
X119409285Y-80334857D01*
X119452142Y-80249142D01*
X119452142Y-80120571D01*
X119409285Y-80034857D01*
X119109285Y-80420571D02*
X119152142Y-80334857D01*
X119152142Y-80163428D01*
X119109285Y-80077714D01*
X119066428Y-80034857D01*
X118980714Y-79992000D01*
X118723571Y-79992000D01*
X118637857Y-80034857D01*
X118595000Y-80077714D01*
X118552142Y-80163428D01*
X118552142Y-80334857D01*
X118595000Y-80420571D01*
X118252142Y-81792000D02*
X118895000Y-81792000D01*
X119023571Y-81749142D01*
X119109285Y-81663428D01*
X119152142Y-81534857D01*
X119152142Y-81449142D01*
X119152142Y-82220571D02*
X118552142Y-82220571D01*
X118252142Y-82220571D02*
X118295000Y-82177714D01*
X118337857Y-82220571D01*
X118295000Y-82263428D01*
X118252142Y-82220571D01*
X118337857Y-82220571D01*
X118552142Y-82649142D02*
X119152142Y-82649142D01*
X118637857Y-82649142D02*
X118595000Y-82692000D01*
X118552142Y-82777714D01*
X118552142Y-82906285D01*
X118595000Y-82992000D01*
X118680714Y-83034857D01*
X119152142Y-83034857D01*
X119152142Y-84149142D02*
X118252142Y-84149142D01*
X119152142Y-84663428D01*
X118252142Y-84663428D01*
X118552142Y-85477714D02*
X119280714Y-85477714D01*
X119366428Y-85434857D01*
X119409285Y-85392000D01*
X119452142Y-85306285D01*
X119452142Y-85177714D01*
X119409285Y-85092000D01*
X119109285Y-85477714D02*
X119152142Y-85392000D01*
X119152142Y-85220571D01*
X119109285Y-85134857D01*
X119066428Y-85092000D01*
X118980714Y-85049142D01*
X118723571Y-85049142D01*
X118637857Y-85092000D01*
X118595000Y-85134857D01*
X118552142Y-85220571D01*
X118552142Y-85392000D01*
X118595000Y-85477714D01*
X119452142Y-86806285D02*
X118166428Y-86806285D01*
X118552142Y-88134857D02*
X119323571Y-88134857D01*
X119409285Y-88092000D01*
X119452142Y-88006285D01*
X119452142Y-87963428D01*
X118252142Y-88134857D02*
X118295000Y-88092000D01*
X118337857Y-88134857D01*
X118295000Y-88177714D01*
X118252142Y-88134857D01*
X118337857Y-88134857D01*
X119152142Y-88563428D02*
X118552142Y-88563428D01*
X118252142Y-88563428D02*
X118295000Y-88520571D01*
X118337857Y-88563428D01*
X118295000Y-88606285D01*
X118252142Y-88563428D01*
X118337857Y-88563428D01*
X118552142Y-88992000D02*
X119152142Y-88992000D01*
X118637857Y-88992000D02*
X118595000Y-89034857D01*
X118552142Y-89120571D01*
X118552142Y-89249142D01*
X118595000Y-89334857D01*
X118680714Y-89377714D01*
X119152142Y-89377714D01*
X118637857Y-89934857D02*
X118595000Y-89849142D01*
X118552142Y-89806285D01*
X118466428Y-89763428D01*
X118423571Y-89763428D01*
X118337857Y-89806285D01*
X118295000Y-89849142D01*
X118252142Y-89934857D01*
X118252142Y-90106285D01*
X118295000Y-90192000D01*
X118337857Y-90234857D01*
X118423571Y-90277714D01*
X118466428Y-90277714D01*
X118552142Y-90234857D01*
X118595000Y-90192000D01*
X118637857Y-90106285D01*
X118637857Y-89934857D01*
X118680714Y-89849142D01*
X118723571Y-89806285D01*
X118809285Y-89763428D01*
X118980714Y-89763428D01*
X119066428Y-89806285D01*
X119109285Y-89849142D01*
X119152142Y-89934857D01*
X119152142Y-90106285D01*
X119109285Y-90192000D01*
X119066428Y-90234857D01*
X118980714Y-90277714D01*
X118809285Y-90277714D01*
X118723571Y-90234857D01*
X118680714Y-90192000D01*
X118637857Y-90106285D01*
X118252142Y-90577714D02*
X118252142Y-91134857D01*
X118595000Y-90834857D01*
X118595000Y-90963428D01*
X118637857Y-91049142D01*
X118680714Y-91092000D01*
X118766428Y-91134857D01*
X118980714Y-91134857D01*
X119066428Y-91092000D01*
X119109285Y-91049142D01*
X119152142Y-90963428D01*
X119152142Y-90706285D01*
X119109285Y-90620571D01*
X119066428Y-90577714D01*
X118637857Y-91649142D02*
X118595000Y-91563428D01*
X118552142Y-91520571D01*
X118466428Y-91477714D01*
X118423571Y-91477714D01*
X118337857Y-91520571D01*
X118295000Y-91563428D01*
X118252142Y-91649142D01*
X118252142Y-91820571D01*
X118295000Y-91906285D01*
X118337857Y-91949142D01*
X118423571Y-91992000D01*
X118466428Y-91992000D01*
X118552142Y-91949142D01*
X118595000Y-91906285D01*
X118637857Y-91820571D01*
X118637857Y-91649142D01*
X118680714Y-91563428D01*
X118723571Y-91520571D01*
X118809285Y-91477714D01*
X118980714Y-91477714D01*
X119066428Y-91520571D01*
X119109285Y-91563428D01*
X119152142Y-91649142D01*
X119152142Y-91820571D01*
X119109285Y-91906285D01*
X119066428Y-91949142D01*
X118980714Y-91992000D01*
X118809285Y-91992000D01*
X118723571Y-91949142D01*
X118680714Y-91906285D01*
X118637857Y-91820571D01*
X118252142Y-92292000D02*
X118252142Y-92849142D01*
X118595000Y-92549142D01*
X118595000Y-92677714D01*
X118637857Y-92763428D01*
X118680714Y-92806285D01*
X118766428Y-92849142D01*
X118980714Y-92849142D01*
X119066428Y-92806285D01*
X119109285Y-92763428D01*
X119152142Y-92677714D01*
X119152142Y-92420571D01*
X119109285Y-92334857D01*
X119066428Y-92292000D01*
X118723571Y-93792000D02*
X118680714Y-93749142D01*
X118637857Y-93663428D01*
X118637857Y-93577714D01*
X118680714Y-93492000D01*
X118723571Y-93449142D01*
X118809285Y-93406285D01*
X118895000Y-93406285D01*
X118980714Y-93449142D01*
X119023571Y-93492000D01*
X119066428Y-93577714D01*
X119066428Y-93663428D01*
X119023571Y-93749142D01*
X118980714Y-93792000D01*
X118637857Y-93792000D02*
X118980714Y-93792000D01*
X119023571Y-93834857D01*
X119023571Y-93877714D01*
X118980714Y-93963428D01*
X118895000Y-94006285D01*
X118680714Y-94006285D01*
X118552142Y-93920571D01*
X118466428Y-93792000D01*
X118423571Y-93620571D01*
X118466428Y-93449142D01*
X118552142Y-93320571D01*
X118680714Y-93234857D01*
X118852142Y-93192000D01*
X119023571Y-93234857D01*
X119152142Y-93320571D01*
X119237857Y-93449142D01*
X119280714Y-93620571D01*
X119237857Y-93792000D01*
X119152142Y-93920571D01*
X118552142Y-94777714D02*
X119280714Y-94777714D01*
X119366428Y-94734857D01*
X119409285Y-94692000D01*
X119452142Y-94606285D01*
X119452142Y-94477714D01*
X119409285Y-94392000D01*
X119109285Y-94777714D02*
X119152142Y-94692000D01*
X119152142Y-94520571D01*
X119109285Y-94434857D01*
X119066428Y-94392000D01*
X118980714Y-94349142D01*
X118723571Y-94349142D01*
X118637857Y-94392000D01*
X118595000Y-94434857D01*
X118552142Y-94520571D01*
X118552142Y-94692000D01*
X118595000Y-94777714D01*
X119152142Y-95206285D02*
X118552142Y-95206285D01*
X118637857Y-95206285D02*
X118595000Y-95249142D01*
X118552142Y-95334857D01*
X118552142Y-95463428D01*
X118595000Y-95549142D01*
X118680714Y-95592000D01*
X119152142Y-95592000D01*
X118680714Y-95592000D02*
X118595000Y-95634857D01*
X118552142Y-95720571D01*
X118552142Y-95849142D01*
X118595000Y-95934857D01*
X118680714Y-95977714D01*
X119152142Y-95977714D01*
X119152142Y-96792000D02*
X118680714Y-96792000D01*
X118595000Y-96749142D01*
X118552142Y-96663428D01*
X118552142Y-96492000D01*
X118595000Y-96406285D01*
X119109285Y-96792000D02*
X119152142Y-96706285D01*
X119152142Y-96492000D01*
X119109285Y-96406285D01*
X119023571Y-96363428D01*
X118937857Y-96363428D01*
X118852142Y-96406285D01*
X118809285Y-96492000D01*
X118809285Y-96706285D01*
X118766428Y-96792000D01*
X119152142Y-97220571D02*
X118552142Y-97220571D01*
X118252142Y-97220571D02*
X118295000Y-97177714D01*
X118337857Y-97220571D01*
X118295000Y-97263428D01*
X118252142Y-97220571D01*
X118337857Y-97220571D01*
X119152142Y-97777714D02*
X119109285Y-97692000D01*
X119023571Y-97649142D01*
X118252142Y-97649142D01*
X119066428Y-98120571D02*
X119109285Y-98163428D01*
X119152142Y-98120571D01*
X119109285Y-98077714D01*
X119066428Y-98120571D01*
X119152142Y-98120571D01*
X119109285Y-98934857D02*
X119152142Y-98849142D01*
X119152142Y-98677714D01*
X119109285Y-98592000D01*
X119066428Y-98549142D01*
X118980714Y-98506285D01*
X118723571Y-98506285D01*
X118637857Y-98549142D01*
X118595000Y-98592000D01*
X118552142Y-98677714D01*
X118552142Y-98849142D01*
X118595000Y-98934857D01*
X119152142Y-99449142D02*
X119109285Y-99363428D01*
X119066428Y-99320571D01*
X118980714Y-99277714D01*
X118723571Y-99277714D01*
X118637857Y-99320571D01*
X118595000Y-99363428D01*
X118552142Y-99449142D01*
X118552142Y-99577714D01*
X118595000Y-99663428D01*
X118637857Y-99706285D01*
X118723571Y-99749142D01*
X118980714Y-99749142D01*
X119066428Y-99706285D01*
X119109285Y-99663428D01*
X119152142Y-99577714D01*
X119152142Y-99449142D01*
X119152142Y-100134857D02*
X118552142Y-100134857D01*
X118637857Y-100134857D02*
X118595000Y-100177714D01*
X118552142Y-100263428D01*
X118552142Y-100392000D01*
X118595000Y-100477714D01*
X118680714Y-100520571D01*
X119152142Y-100520571D01*
X118680714Y-100520571D02*
X118595000Y-100563428D01*
X118552142Y-100649142D01*
X118552142Y-100777714D01*
X118595000Y-100863428D01*
X118680714Y-100906285D01*
X119152142Y-100906285D01*
X116521714Y-75828142D02*
X116521714Y-76128142D01*
X116993142Y-76256714D02*
X116993142Y-75828142D01*
X116093142Y-75828142D01*
X116093142Y-76256714D01*
X116950285Y-76599571D02*
X116993142Y-76728142D01*
X116993142Y-76942428D01*
X116950285Y-77028142D01*
X116907428Y-77071000D01*
X116821714Y-77113857D01*
X116736000Y-77113857D01*
X116650285Y-77071000D01*
X116607428Y-77028142D01*
X116564571Y-76942428D01*
X116521714Y-76771000D01*
X116478857Y-76685285D01*
X116436000Y-76642428D01*
X116350285Y-76599571D01*
X116264571Y-76599571D01*
X116178857Y-76642428D01*
X116136000Y-76685285D01*
X116093142Y-76771000D01*
X116093142Y-76985285D01*
X116136000Y-77113857D01*
X116993142Y-77499571D02*
X116093142Y-77499571D01*
X116093142Y-77842428D01*
X116136000Y-77928142D01*
X116178857Y-77971000D01*
X116264571Y-78013857D01*
X116393142Y-78013857D01*
X116478857Y-77971000D01*
X116521714Y-77928142D01*
X116564571Y-77842428D01*
X116564571Y-77499571D01*
X116093142Y-78313857D02*
X116093142Y-78871000D01*
X116436000Y-78571000D01*
X116436000Y-78699571D01*
X116478857Y-78785285D01*
X116521714Y-78828142D01*
X116607428Y-78871000D01*
X116821714Y-78871000D01*
X116907428Y-78828142D01*
X116950285Y-78785285D01*
X116993142Y-78699571D01*
X116993142Y-78442428D01*
X116950285Y-78356714D01*
X116907428Y-78313857D01*
X116178857Y-79213857D02*
X116136000Y-79256714D01*
X116093142Y-79342428D01*
X116093142Y-79556714D01*
X116136000Y-79642428D01*
X116178857Y-79685285D01*
X116264571Y-79728142D01*
X116350285Y-79728142D01*
X116478857Y-79685285D01*
X116993142Y-79171000D01*
X116993142Y-79728142D01*
X116950285Y-80756714D02*
X116993142Y-80885285D01*
X116993142Y-81099571D01*
X116950285Y-81185285D01*
X116907428Y-81228142D01*
X116821714Y-81271000D01*
X116736000Y-81271000D01*
X116650285Y-81228142D01*
X116607428Y-81185285D01*
X116564571Y-81099571D01*
X116521714Y-80928142D01*
X116478857Y-80842428D01*
X116436000Y-80799571D01*
X116350285Y-80756714D01*
X116264571Y-80756714D01*
X116178857Y-80799571D01*
X116136000Y-80842428D01*
X116093142Y-80928142D01*
X116093142Y-81142428D01*
X116136000Y-81271000D01*
X116950285Y-81999571D02*
X116993142Y-81913857D01*
X116993142Y-81742428D01*
X116950285Y-81656714D01*
X116864571Y-81613857D01*
X116521714Y-81613857D01*
X116436000Y-81656714D01*
X116393142Y-81742428D01*
X116393142Y-81913857D01*
X116436000Y-81999571D01*
X116521714Y-82042428D01*
X116607428Y-82042428D01*
X116693142Y-81613857D01*
X116393142Y-82428142D02*
X116993142Y-82428142D01*
X116478857Y-82428142D02*
X116436000Y-82470999D01*
X116393142Y-82556714D01*
X116393142Y-82685285D01*
X116436000Y-82770999D01*
X116521714Y-82813857D01*
X116993142Y-82813857D01*
X116950285Y-83199571D02*
X116993142Y-83285285D01*
X116993142Y-83456714D01*
X116950285Y-83542428D01*
X116864571Y-83585285D01*
X116821714Y-83585285D01*
X116736000Y-83542428D01*
X116693142Y-83456714D01*
X116693142Y-83328142D01*
X116650285Y-83242428D01*
X116564571Y-83199571D01*
X116521714Y-83199571D01*
X116436000Y-83242428D01*
X116393142Y-83328142D01*
X116393142Y-83456714D01*
X116436000Y-83542428D01*
X116993142Y-84099571D02*
X116950285Y-84013857D01*
X116907428Y-83971000D01*
X116821714Y-83928142D01*
X116564571Y-83928142D01*
X116478857Y-83971000D01*
X116436000Y-84013857D01*
X116393142Y-84099571D01*
X116393142Y-84228142D01*
X116436000Y-84313857D01*
X116478857Y-84356714D01*
X116564571Y-84399571D01*
X116821714Y-84399571D01*
X116907428Y-84356714D01*
X116950285Y-84313857D01*
X116993142Y-84228142D01*
X116993142Y-84099571D01*
X116993142Y-84785285D02*
X116393142Y-84785285D01*
X116564571Y-84785285D02*
X116478857Y-84828142D01*
X116436000Y-84871000D01*
X116393142Y-84956714D01*
X116393142Y-85042428D01*
X116993142Y-86028142D02*
X116093142Y-86028142D01*
X116736000Y-86328142D01*
X116093142Y-86628142D01*
X116993142Y-86628142D01*
X116993142Y-87185285D02*
X116950285Y-87099571D01*
X116907428Y-87056714D01*
X116821714Y-87013857D01*
X116564571Y-87013857D01*
X116478857Y-87056714D01*
X116436000Y-87099571D01*
X116393142Y-87185285D01*
X116393142Y-87313857D01*
X116436000Y-87399571D01*
X116478857Y-87442428D01*
X116564571Y-87485285D01*
X116821714Y-87485285D01*
X116907428Y-87442428D01*
X116950285Y-87399571D01*
X116993142Y-87313857D01*
X116993142Y-87185285D01*
X116993142Y-88256714D02*
X116093142Y-88256714D01*
X116950285Y-88256714D02*
X116993142Y-88171000D01*
X116993142Y-87999571D01*
X116950285Y-87913857D01*
X116907428Y-87871000D01*
X116821714Y-87828142D01*
X116564571Y-87828142D01*
X116478857Y-87871000D01*
X116436000Y-87913857D01*
X116393142Y-87999571D01*
X116393142Y-88171000D01*
X116436000Y-88256714D01*
X116393142Y-89071000D02*
X116993142Y-89071000D01*
X116393142Y-88685285D02*
X116864571Y-88685285D01*
X116950285Y-88728142D01*
X116993142Y-88813857D01*
X116993142Y-88942428D01*
X116950285Y-89028142D01*
X116907428Y-89071000D01*
X116993142Y-89628142D02*
X116950285Y-89542428D01*
X116864571Y-89499571D01*
X116093142Y-89499571D01*
X116950285Y-90313857D02*
X116993142Y-90228142D01*
X116993142Y-90056714D01*
X116950285Y-89971000D01*
X116864571Y-89928142D01*
X116521714Y-89928142D01*
X116436000Y-89971000D01*
X116393142Y-90056714D01*
X116393142Y-90228142D01*
X116436000Y-90313857D01*
X116521714Y-90356714D01*
X116607428Y-90356714D01*
X116693142Y-89928142D01*
X116393142Y-91342428D02*
X116993142Y-91556714D01*
X116393142Y-91770999D01*
X116093142Y-92285285D02*
X116093142Y-92370999D01*
X116136000Y-92456714D01*
X116178857Y-92499571D01*
X116264571Y-92542428D01*
X116436000Y-92585285D01*
X116650285Y-92585285D01*
X116821714Y-92542428D01*
X116907428Y-92499571D01*
X116950285Y-92456714D01*
X116993142Y-92370999D01*
X116993142Y-92285285D01*
X116950285Y-92199571D01*
X116907428Y-92156714D01*
X116821714Y-92113857D01*
X116650285Y-92070999D01*
X116436000Y-92070999D01*
X116264571Y-92113857D01*
X116178857Y-92156714D01*
X116136000Y-92199571D01*
X116093142Y-92285285D01*
X116907428Y-92970999D02*
X116950285Y-93013857D01*
X116993142Y-92970999D01*
X116950285Y-92928142D01*
X116907428Y-92970999D01*
X116993142Y-92970999D01*
X116093142Y-93570999D02*
X116093142Y-93656714D01*
X116136000Y-93742428D01*
X116178857Y-93785285D01*
X116264571Y-93828142D01*
X116436000Y-93870999D01*
X116650285Y-93870999D01*
X116821714Y-93828142D01*
X116907428Y-93785285D01*
X116950285Y-93742428D01*
X116993142Y-93656714D01*
X116993142Y-93570999D01*
X116950285Y-93485285D01*
X116907428Y-93442428D01*
X116821714Y-93399571D01*
X116650285Y-93356714D01*
X116436000Y-93356714D01*
X116264571Y-93399571D01*
X116178857Y-93442428D01*
X116136000Y-93485285D01*
X116093142Y-93570999D01*
X116907428Y-94256714D02*
X116950285Y-94299571D01*
X116993142Y-94256714D01*
X116950285Y-94213857D01*
X116907428Y-94256714D01*
X116993142Y-94256714D01*
X116093142Y-94599571D02*
X116093142Y-95156714D01*
X116436000Y-94856714D01*
X116436000Y-94985285D01*
X116478857Y-95070999D01*
X116521714Y-95113857D01*
X116607428Y-95156714D01*
X116821714Y-95156714D01*
X116907428Y-95113857D01*
X116950285Y-95070999D01*
X116993142Y-94985285D01*
X116993142Y-94728142D01*
X116950285Y-94642428D01*
X116907428Y-94599571D01*
%TO.C,J_2*%
D11*
X137124238Y-76204000D02*
X137171857Y-76180190D01*
X137243285Y-76180190D01*
X137314714Y-76204000D01*
X137362333Y-76251619D01*
X137386142Y-76299238D01*
X137409952Y-76394476D01*
X137409952Y-76465904D01*
X137386142Y-76561142D01*
X137362333Y-76608761D01*
X137314714Y-76656380D01*
X137243285Y-76680190D01*
X137195666Y-76680190D01*
X137124238Y-76656380D01*
X137100428Y-76632571D01*
X137100428Y-76465904D01*
X137195666Y-76465904D01*
X136886142Y-76346857D02*
X136886142Y-76680190D01*
X136886142Y-76394476D02*
X136862333Y-76370666D01*
X136814714Y-76346857D01*
X136743285Y-76346857D01*
X136695666Y-76370666D01*
X136671857Y-76418285D01*
X136671857Y-76680190D01*
X136433761Y-76680190D02*
X136433761Y-76180190D01*
X136314714Y-76180190D01*
X136243285Y-76204000D01*
X136195666Y-76251619D01*
X136171857Y-76299238D01*
X136148047Y-76394476D01*
X136148047Y-76465904D01*
X136171857Y-76561142D01*
X136195666Y-76608761D01*
X136243285Y-76656380D01*
X136314714Y-76680190D01*
X136433761Y-76680190D01*
X137390095Y-79347190D02*
X137390095Y-78847190D01*
X137056761Y-78847190D02*
X136961523Y-78847190D01*
X136913904Y-78871000D01*
X136866285Y-78918619D01*
X136842476Y-79013857D01*
X136842476Y-79180523D01*
X136866285Y-79275761D01*
X136913904Y-79323380D01*
X136961523Y-79347190D01*
X137056761Y-79347190D01*
X137104380Y-79323380D01*
X137152000Y-79275761D01*
X137175809Y-79180523D01*
X137175809Y-79013857D01*
X137152000Y-78918619D01*
X137104380Y-78871000D01*
X137056761Y-78847190D01*
X136652000Y-78894809D02*
X136628190Y-78871000D01*
X136580571Y-78847190D01*
X136461523Y-78847190D01*
X136413904Y-78871000D01*
X136390095Y-78894809D01*
X136366285Y-78942428D01*
X136366285Y-78990047D01*
X136390095Y-79061476D01*
X136675809Y-79347190D01*
X136366285Y-79347190D01*
X136199619Y-78847190D02*
X135890095Y-78847190D01*
X136056761Y-79037666D01*
X135985333Y-79037666D01*
X135937714Y-79061476D01*
X135913904Y-79085285D01*
X135890095Y-79132904D01*
X135890095Y-79251952D01*
X135913904Y-79299571D01*
X135937714Y-79323380D01*
X135985333Y-79347190D01*
X136128190Y-79347190D01*
X136175809Y-79323380D01*
X136199619Y-79299571D01*
X137390095Y-81760190D02*
X137390095Y-81260190D01*
X137056761Y-81260190D02*
X136961523Y-81260190D01*
X136913904Y-81284000D01*
X136866285Y-81331619D01*
X136842476Y-81426857D01*
X136842476Y-81593523D01*
X136866285Y-81688761D01*
X136913904Y-81736380D01*
X136961523Y-81760190D01*
X137056761Y-81760190D01*
X137104380Y-81736380D01*
X137152000Y-81688761D01*
X137175809Y-81593523D01*
X137175809Y-81426857D01*
X137152000Y-81331619D01*
X137104380Y-81284000D01*
X137056761Y-81260190D01*
X136652000Y-81307809D02*
X136628190Y-81284000D01*
X136580571Y-81260190D01*
X136461523Y-81260190D01*
X136413904Y-81284000D01*
X136390095Y-81307809D01*
X136366285Y-81355428D01*
X136366285Y-81403047D01*
X136390095Y-81474476D01*
X136675809Y-81760190D01*
X136366285Y-81760190D01*
X136175809Y-81307809D02*
X136152000Y-81284000D01*
X136104380Y-81260190D01*
X135985333Y-81260190D01*
X135937714Y-81284000D01*
X135913904Y-81307809D01*
X135890095Y-81355428D01*
X135890095Y-81403047D01*
X135913904Y-81474476D01*
X136199619Y-81760190D01*
X135890095Y-81760190D01*
X137223428Y-86967190D02*
X137390095Y-86729095D01*
X137509142Y-86967190D02*
X137509142Y-86467190D01*
X137318666Y-86467190D01*
X137271047Y-86491000D01*
X137247238Y-86514809D01*
X137223428Y-86562428D01*
X137223428Y-86633857D01*
X137247238Y-86681476D01*
X137271047Y-86705285D01*
X137318666Y-86729095D01*
X137509142Y-86729095D01*
X137056761Y-86467190D02*
X136723428Y-86967190D01*
X136723428Y-86467190D02*
X137056761Y-86967190D01*
X136532952Y-86967190D02*
X136532952Y-86467190D01*
X136413904Y-86467190D01*
X136342476Y-86491000D01*
X136294857Y-86538619D01*
X136271047Y-86586238D01*
X136247238Y-86681476D01*
X136247238Y-86752904D01*
X136271047Y-86848142D01*
X136294857Y-86895761D01*
X136342476Y-86943380D01*
X136413904Y-86967190D01*
X136532952Y-86967190D01*
X135937714Y-86467190D02*
X135890095Y-86467190D01*
X135842476Y-86491000D01*
X135818666Y-86514809D01*
X135794857Y-86562428D01*
X135771047Y-86657666D01*
X135771047Y-86776714D01*
X135794857Y-86871952D01*
X135818666Y-86919571D01*
X135842476Y-86943380D01*
X135890095Y-86967190D01*
X135937714Y-86967190D01*
X135985333Y-86943380D01*
X136009142Y-86919571D01*
X136032952Y-86871952D01*
X136056761Y-86776714D01*
X136056761Y-86657666D01*
X136032952Y-86562428D01*
X136009142Y-86514809D01*
X135985333Y-86491000D01*
X135937714Y-86467190D01*
X137521047Y-83800190D02*
X137235333Y-83800190D01*
X137378190Y-84300190D02*
X137378190Y-83800190D01*
X137116285Y-83800190D02*
X136782952Y-84300190D01*
X136782952Y-83800190D02*
X137116285Y-84300190D01*
X136592476Y-84300190D02*
X136592476Y-83800190D01*
X136473428Y-83800190D01*
X136402000Y-83824000D01*
X136354380Y-83871619D01*
X136330571Y-83919238D01*
X136306761Y-84014476D01*
X136306761Y-84085904D01*
X136330571Y-84181142D01*
X136354380Y-84228761D01*
X136402000Y-84276380D01*
X136473428Y-84300190D01*
X136592476Y-84300190D01*
X135997238Y-83800190D02*
X135949619Y-83800190D01*
X135902000Y-83824000D01*
X135878190Y-83847809D01*
X135854380Y-83895428D01*
X135830571Y-83990666D01*
X135830571Y-84109714D01*
X135854380Y-84204952D01*
X135878190Y-84252571D01*
X135902000Y-84276380D01*
X135949619Y-84300190D01*
X135997238Y-84300190D01*
X136044857Y-84276380D01*
X136068666Y-84252571D01*
X136092476Y-84204952D01*
X136116285Y-84109714D01*
X136116285Y-83990666D01*
X136092476Y-83895428D01*
X136068666Y-83847809D01*
X136044857Y-83824000D01*
X135997238Y-83800190D01*
X137517095Y-89253190D02*
X137517095Y-88753190D01*
X137183761Y-88753190D02*
X137088523Y-88753190D01*
X137040904Y-88777000D01*
X136993285Y-88824619D01*
X136969476Y-88919857D01*
X136969476Y-89086523D01*
X136993285Y-89181761D01*
X137040904Y-89229380D01*
X137088523Y-89253190D01*
X137183761Y-89253190D01*
X137231380Y-89229380D01*
X137279000Y-89181761D01*
X137302809Y-89086523D01*
X137302809Y-88919857D01*
X137279000Y-88824619D01*
X137231380Y-88777000D01*
X137183761Y-88753190D01*
X136779000Y-88800809D02*
X136755190Y-88777000D01*
X136707571Y-88753190D01*
X136588523Y-88753190D01*
X136540904Y-88777000D01*
X136517095Y-88800809D01*
X136493285Y-88848428D01*
X136493285Y-88896047D01*
X136517095Y-88967476D01*
X136802809Y-89253190D01*
X136493285Y-89253190D01*
X136017095Y-89253190D02*
X136302809Y-89253190D01*
X136159952Y-89253190D02*
X136159952Y-88753190D01*
X136207571Y-88824619D01*
X136255190Y-88872238D01*
X136302809Y-88896047D01*
X137644095Y-94587190D02*
X137644095Y-94087190D01*
X137310761Y-94087190D02*
X137215523Y-94087190D01*
X137167904Y-94111000D01*
X137120285Y-94158619D01*
X137096476Y-94253857D01*
X137096476Y-94420523D01*
X137120285Y-94515761D01*
X137167904Y-94563380D01*
X137215523Y-94587190D01*
X137310761Y-94587190D01*
X137358380Y-94563380D01*
X137406000Y-94515761D01*
X137429809Y-94420523D01*
X137429809Y-94253857D01*
X137406000Y-94158619D01*
X137358380Y-94111000D01*
X137310761Y-94087190D01*
X136620285Y-94587190D02*
X136906000Y-94587190D01*
X136763142Y-94587190D02*
X136763142Y-94087190D01*
X136810761Y-94158619D01*
X136858380Y-94206238D01*
X136906000Y-94230047D01*
X136382190Y-94587190D02*
X136286952Y-94587190D01*
X136239333Y-94563380D01*
X136215523Y-94539571D01*
X136167904Y-94468142D01*
X136144095Y-94372904D01*
X136144095Y-94182428D01*
X136167904Y-94134809D01*
X136191714Y-94111000D01*
X136239333Y-94087190D01*
X136334571Y-94087190D01*
X136382190Y-94111000D01*
X136406000Y-94134809D01*
X136429809Y-94182428D01*
X136429809Y-94301476D01*
X136406000Y-94349095D01*
X136382190Y-94372904D01*
X136334571Y-94396714D01*
X136239333Y-94396714D01*
X136191714Y-94372904D01*
X136167904Y-94349095D01*
X136144095Y-94301476D01*
X137771095Y-97127190D02*
X137771095Y-96627190D01*
X137437761Y-96627190D02*
X137342523Y-96627190D01*
X137294904Y-96651000D01*
X137247285Y-96698619D01*
X137223476Y-96793857D01*
X137223476Y-96960523D01*
X137247285Y-97055761D01*
X137294904Y-97103380D01*
X137342523Y-97127190D01*
X137437761Y-97127190D01*
X137485380Y-97103380D01*
X137533000Y-97055761D01*
X137556809Y-96960523D01*
X137556809Y-96793857D01*
X137533000Y-96698619D01*
X137485380Y-96651000D01*
X137437761Y-96627190D01*
X136747285Y-97127190D02*
X137033000Y-97127190D01*
X136890142Y-97127190D02*
X136890142Y-96627190D01*
X136937761Y-96698619D01*
X136985380Y-96746238D01*
X137033000Y-96770047D01*
X136461571Y-96841476D02*
X136509190Y-96817666D01*
X136533000Y-96793857D01*
X136556809Y-96746238D01*
X136556809Y-96722428D01*
X136533000Y-96674809D01*
X136509190Y-96651000D01*
X136461571Y-96627190D01*
X136366333Y-96627190D01*
X136318714Y-96651000D01*
X136294904Y-96674809D01*
X136271095Y-96722428D01*
X136271095Y-96746238D01*
X136294904Y-96793857D01*
X136318714Y-96817666D01*
X136366333Y-96841476D01*
X136461571Y-96841476D01*
X136509190Y-96865285D01*
X136533000Y-96889095D01*
X136556809Y-96936714D01*
X136556809Y-97031952D01*
X136533000Y-97079571D01*
X136509190Y-97103380D01*
X136461571Y-97127190D01*
X136366333Y-97127190D01*
X136318714Y-97103380D01*
X136294904Y-97079571D01*
X136271095Y-97031952D01*
X136271095Y-96936714D01*
X136294904Y-96889095D01*
X136318714Y-96865285D01*
X136366333Y-96841476D01*
X137660000Y-99667190D02*
X137660000Y-99167190D01*
X137326666Y-99167190D02*
X137231428Y-99167190D01*
X137183809Y-99191000D01*
X137136190Y-99238619D01*
X137112380Y-99333857D01*
X137112380Y-99500523D01*
X137136190Y-99595761D01*
X137183809Y-99643380D01*
X137231428Y-99667190D01*
X137326666Y-99667190D01*
X137374285Y-99643380D01*
X137421904Y-99595761D01*
X137445714Y-99500523D01*
X137445714Y-99333857D01*
X137421904Y-99238619D01*
X137374285Y-99191000D01*
X137326666Y-99167190D01*
X136660000Y-99167190D02*
X136898095Y-99167190D01*
X136921904Y-99405285D01*
X136898095Y-99381476D01*
X136850476Y-99357666D01*
X136731428Y-99357666D01*
X136683809Y-99381476D01*
X136660000Y-99405285D01*
X136636190Y-99452904D01*
X136636190Y-99571952D01*
X136660000Y-99619571D01*
X136683809Y-99643380D01*
X136731428Y-99667190D01*
X136850476Y-99667190D01*
X136898095Y-99643380D01*
X136921904Y-99619571D01*
X137771095Y-102334190D02*
X137771095Y-101834190D01*
X137437761Y-101834190D02*
X137342523Y-101834190D01*
X137294904Y-101858000D01*
X137247285Y-101905619D01*
X137223476Y-102000857D01*
X137223476Y-102167523D01*
X137247285Y-102262761D01*
X137294904Y-102310380D01*
X137342523Y-102334190D01*
X137437761Y-102334190D01*
X137485380Y-102310380D01*
X137533000Y-102262761D01*
X137556809Y-102167523D01*
X137556809Y-102000857D01*
X137533000Y-101905619D01*
X137485380Y-101858000D01*
X137437761Y-101834190D01*
X136747285Y-102334190D02*
X137033000Y-102334190D01*
X136890142Y-102334190D02*
X136890142Y-101834190D01*
X136937761Y-101905619D01*
X136985380Y-101953238D01*
X137033000Y-101977047D01*
X136580619Y-101834190D02*
X136247285Y-101834190D01*
X136461571Y-102334190D01*
X137771095Y-104747190D02*
X137771095Y-104247190D01*
X137437761Y-104247190D02*
X137342523Y-104247190D01*
X137294904Y-104271000D01*
X137247285Y-104318619D01*
X137223476Y-104413857D01*
X137223476Y-104580523D01*
X137247285Y-104675761D01*
X137294904Y-104723380D01*
X137342523Y-104747190D01*
X137437761Y-104747190D01*
X137485380Y-104723380D01*
X137533000Y-104675761D01*
X137556809Y-104580523D01*
X137556809Y-104413857D01*
X137533000Y-104318619D01*
X137485380Y-104271000D01*
X137437761Y-104247190D01*
X136747285Y-104747190D02*
X137033000Y-104747190D01*
X136890142Y-104747190D02*
X136890142Y-104247190D01*
X136937761Y-104318619D01*
X136985380Y-104366238D01*
X137033000Y-104390047D01*
X136318714Y-104247190D02*
X136413952Y-104247190D01*
X136461571Y-104271000D01*
X136485380Y-104294809D01*
X136533000Y-104366238D01*
X136556809Y-104461476D01*
X136556809Y-104651952D01*
X136533000Y-104699571D01*
X136509190Y-104723380D01*
X136461571Y-104747190D01*
X136366333Y-104747190D01*
X136318714Y-104723380D01*
X136294904Y-104699571D01*
X136271095Y-104651952D01*
X136271095Y-104532904D01*
X136294904Y-104485285D01*
X136318714Y-104461476D01*
X136366333Y-104437666D01*
X136461571Y-104437666D01*
X136509190Y-104461476D01*
X136533000Y-104485285D01*
X136556809Y-104532904D01*
X137660000Y-107287190D02*
X137660000Y-106787190D01*
X137326666Y-106787190D02*
X137231428Y-106787190D01*
X137183809Y-106811000D01*
X137136190Y-106858619D01*
X137112380Y-106953857D01*
X137112380Y-107120523D01*
X137136190Y-107215761D01*
X137183809Y-107263380D01*
X137231428Y-107287190D01*
X137326666Y-107287190D01*
X137374285Y-107263380D01*
X137421904Y-107215761D01*
X137445714Y-107120523D01*
X137445714Y-106953857D01*
X137421904Y-106858619D01*
X137374285Y-106811000D01*
X137326666Y-106787190D01*
X136683809Y-106953857D02*
X136683809Y-107287190D01*
X136802857Y-106763380D02*
X136921904Y-107120523D01*
X136612380Y-107120523D01*
X137787000Y-109954190D02*
X137787000Y-109454190D01*
X137453666Y-109454190D02*
X137358428Y-109454190D01*
X137310809Y-109478000D01*
X137263190Y-109525619D01*
X137239380Y-109620857D01*
X137239380Y-109787523D01*
X137263190Y-109882761D01*
X137310809Y-109930380D01*
X137358428Y-109954190D01*
X137453666Y-109954190D01*
X137501285Y-109930380D01*
X137548904Y-109882761D01*
X137572714Y-109787523D01*
X137572714Y-109620857D01*
X137548904Y-109525619D01*
X137501285Y-109478000D01*
X137453666Y-109454190D01*
X136929857Y-109454190D02*
X136882238Y-109454190D01*
X136834619Y-109478000D01*
X136810809Y-109501809D01*
X136787000Y-109549428D01*
X136763190Y-109644666D01*
X136763190Y-109763714D01*
X136787000Y-109858952D01*
X136810809Y-109906571D01*
X136834619Y-109930380D01*
X136882238Y-109954190D01*
X136929857Y-109954190D01*
X136977476Y-109930380D01*
X137001285Y-109906571D01*
X137025095Y-109858952D01*
X137048904Y-109763714D01*
X137048904Y-109644666D01*
X137025095Y-109549428D01*
X137001285Y-109501809D01*
X136977476Y-109478000D01*
X136929857Y-109454190D01*
X137660000Y-112367190D02*
X137660000Y-111867190D01*
X137326666Y-111867190D02*
X137231428Y-111867190D01*
X137183809Y-111891000D01*
X137136190Y-111938619D01*
X137112380Y-112033857D01*
X137112380Y-112200523D01*
X137136190Y-112295761D01*
X137183809Y-112343380D01*
X137231428Y-112367190D01*
X137326666Y-112367190D01*
X137374285Y-112343380D01*
X137421904Y-112295761D01*
X137445714Y-112200523D01*
X137445714Y-112033857D01*
X137421904Y-111938619D01*
X137374285Y-111891000D01*
X137326666Y-111867190D01*
X136921904Y-111914809D02*
X136898095Y-111891000D01*
X136850476Y-111867190D01*
X136731428Y-111867190D01*
X136683809Y-111891000D01*
X136660000Y-111914809D01*
X136636190Y-111962428D01*
X136636190Y-112010047D01*
X136660000Y-112081476D01*
X136945714Y-112367190D01*
X136636190Y-112367190D01*
X137771095Y-114907190D02*
X137771095Y-114407190D01*
X137437761Y-114407190D02*
X137342523Y-114407190D01*
X137294904Y-114431000D01*
X137247285Y-114478619D01*
X137223476Y-114573857D01*
X137223476Y-114740523D01*
X137247285Y-114835761D01*
X137294904Y-114883380D01*
X137342523Y-114907190D01*
X137437761Y-114907190D01*
X137485380Y-114883380D01*
X137533000Y-114835761D01*
X137556809Y-114740523D01*
X137556809Y-114573857D01*
X137533000Y-114478619D01*
X137485380Y-114431000D01*
X137437761Y-114407190D01*
X136747285Y-114907190D02*
X137033000Y-114907190D01*
X136890142Y-114907190D02*
X136890142Y-114407190D01*
X136937761Y-114478619D01*
X136985380Y-114526238D01*
X137033000Y-114550047D01*
X136294904Y-114407190D02*
X136533000Y-114407190D01*
X136556809Y-114645285D01*
X136533000Y-114621476D01*
X136485380Y-114597666D01*
X136366333Y-114597666D01*
X136318714Y-114621476D01*
X136294904Y-114645285D01*
X136271095Y-114692904D01*
X136271095Y-114811952D01*
X136294904Y-114859571D01*
X136318714Y-114883380D01*
X136366333Y-114907190D01*
X136485380Y-114907190D01*
X136533000Y-114883380D01*
X136556809Y-114859571D01*
X137771095Y-116947190D02*
X137461571Y-116947190D01*
X137628238Y-117137666D01*
X137556809Y-117137666D01*
X137509190Y-117161476D01*
X137485380Y-117185285D01*
X137461571Y-117232904D01*
X137461571Y-117351952D01*
X137485380Y-117399571D01*
X137509190Y-117423380D01*
X137556809Y-117447190D01*
X137699666Y-117447190D01*
X137747285Y-117423380D01*
X137771095Y-117399571D01*
X137247285Y-117399571D02*
X137223476Y-117423380D01*
X137247285Y-117447190D01*
X137271095Y-117423380D01*
X137247285Y-117399571D01*
X137247285Y-117447190D01*
X137056809Y-116947190D02*
X136747285Y-116947190D01*
X136913952Y-117137666D01*
X136842523Y-117137666D01*
X136794904Y-117161476D01*
X136771095Y-117185285D01*
X136747285Y-117232904D01*
X136747285Y-117351952D01*
X136771095Y-117399571D01*
X136794904Y-117423380D01*
X136842523Y-117447190D01*
X136985380Y-117447190D01*
X137033000Y-117423380D01*
X137056809Y-117399571D01*
X136604428Y-116947190D02*
X136437761Y-117447190D01*
X136271095Y-116947190D01*
X137783047Y-122027190D02*
X137616380Y-122527190D01*
X137449714Y-122027190D01*
X137306857Y-122503380D02*
X137259238Y-122527190D01*
X137164000Y-122527190D01*
X137116380Y-122503380D01*
X137092571Y-122455761D01*
X137092571Y-122431952D01*
X137116380Y-122384333D01*
X137164000Y-122360523D01*
X137235428Y-122360523D01*
X137283047Y-122336714D01*
X137306857Y-122289095D01*
X137306857Y-122265285D01*
X137283047Y-122217666D01*
X137235428Y-122193857D01*
X137164000Y-122193857D01*
X137116380Y-122217666D01*
X137505238Y-124591000D02*
X137552857Y-124567190D01*
X137624285Y-124567190D01*
X137695714Y-124591000D01*
X137743333Y-124638619D01*
X137767142Y-124686238D01*
X137790952Y-124781476D01*
X137790952Y-124852904D01*
X137767142Y-124948142D01*
X137743333Y-124995761D01*
X137695714Y-125043380D01*
X137624285Y-125067190D01*
X137576666Y-125067190D01*
X137505238Y-125043380D01*
X137481428Y-125019571D01*
X137481428Y-124852904D01*
X137576666Y-124852904D01*
X137267142Y-124733857D02*
X137267142Y-125067190D01*
X137267142Y-124781476D02*
X137243333Y-124757666D01*
X137195714Y-124733857D01*
X137124285Y-124733857D01*
X137076666Y-124757666D01*
X137052857Y-124805285D01*
X137052857Y-125067190D01*
X136814761Y-125067190D02*
X136814761Y-124567190D01*
X136695714Y-124567190D01*
X136624285Y-124591000D01*
X136576666Y-124638619D01*
X136552857Y-124686238D01*
X136529047Y-124781476D01*
X136529047Y-124852904D01*
X136552857Y-124948142D01*
X136576666Y-124995761D01*
X136624285Y-125043380D01*
X136695714Y-125067190D01*
X136814761Y-125067190D01*
%TO.C,J_1*%
X88102238Y-76077000D02*
X88149857Y-76053190D01*
X88221285Y-76053190D01*
X88292714Y-76077000D01*
X88340333Y-76124619D01*
X88364142Y-76172238D01*
X88387952Y-76267476D01*
X88387952Y-76338904D01*
X88364142Y-76434142D01*
X88340333Y-76481761D01*
X88292714Y-76529380D01*
X88221285Y-76553190D01*
X88173666Y-76553190D01*
X88102238Y-76529380D01*
X88078428Y-76505571D01*
X88078428Y-76338904D01*
X88173666Y-76338904D01*
X87864142Y-76219857D02*
X87864142Y-76553190D01*
X87864142Y-76267476D02*
X87840333Y-76243666D01*
X87792714Y-76219857D01*
X87721285Y-76219857D01*
X87673666Y-76243666D01*
X87649857Y-76291285D01*
X87649857Y-76553190D01*
X87411761Y-76553190D02*
X87411761Y-76053190D01*
X87292714Y-76053190D01*
X87221285Y-76077000D01*
X87173666Y-76124619D01*
X87149857Y-76172238D01*
X87126047Y-76267476D01*
X87126047Y-76338904D01*
X87149857Y-76434142D01*
X87173666Y-76481761D01*
X87221285Y-76529380D01*
X87292714Y-76553190D01*
X87411761Y-76553190D01*
X88495095Y-78593190D02*
X88185571Y-78593190D01*
X88352238Y-78783666D01*
X88280809Y-78783666D01*
X88233190Y-78807476D01*
X88209380Y-78831285D01*
X88185571Y-78878904D01*
X88185571Y-78997952D01*
X88209380Y-79045571D01*
X88233190Y-79069380D01*
X88280809Y-79093190D01*
X88423666Y-79093190D01*
X88471285Y-79069380D01*
X88495095Y-79045571D01*
X87971285Y-79045571D02*
X87947476Y-79069380D01*
X87971285Y-79093190D01*
X87995095Y-79069380D01*
X87971285Y-79045571D01*
X87971285Y-79093190D01*
X87780809Y-78593190D02*
X87471285Y-78593190D01*
X87637952Y-78783666D01*
X87566523Y-78783666D01*
X87518904Y-78807476D01*
X87495095Y-78831285D01*
X87471285Y-78878904D01*
X87471285Y-78997952D01*
X87495095Y-79045571D01*
X87518904Y-79069380D01*
X87566523Y-79093190D01*
X87709380Y-79093190D01*
X87757000Y-79069380D01*
X87780809Y-79045571D01*
X87328428Y-78593190D02*
X87161761Y-79093190D01*
X86995095Y-78593190D01*
X87328333Y-81498285D02*
X87161666Y-81498285D01*
X87090238Y-81760190D02*
X87328333Y-81760190D01*
X87328333Y-81260190D01*
X87090238Y-81260190D01*
X86875952Y-81426857D02*
X86875952Y-81760190D01*
X86875952Y-81474476D02*
X86852142Y-81450666D01*
X86804523Y-81426857D01*
X86733095Y-81426857D01*
X86685476Y-81450666D01*
X86661666Y-81498285D01*
X86661666Y-81760190D01*
X90340428Y-84149380D02*
X90269000Y-84173190D01*
X90149952Y-84173190D01*
X90102333Y-84149380D01*
X90078523Y-84125571D01*
X90054714Y-84077952D01*
X90054714Y-84030333D01*
X90078523Y-83982714D01*
X90102333Y-83958904D01*
X90149952Y-83935095D01*
X90245190Y-83911285D01*
X90292809Y-83887476D01*
X90316619Y-83863666D01*
X90340428Y-83816047D01*
X90340428Y-83768428D01*
X90316619Y-83720809D01*
X90292809Y-83697000D01*
X90245190Y-83673190D01*
X90126142Y-83673190D01*
X90054714Y-83697000D01*
X89649952Y-84149380D02*
X89697571Y-84173190D01*
X89792809Y-84173190D01*
X89840428Y-84149380D01*
X89864238Y-84101761D01*
X89864238Y-83911285D01*
X89840428Y-83863666D01*
X89792809Y-83839857D01*
X89697571Y-83839857D01*
X89649952Y-83863666D01*
X89626142Y-83911285D01*
X89626142Y-83958904D01*
X89864238Y-84006523D01*
X89411857Y-83839857D02*
X89411857Y-84173190D01*
X89411857Y-83887476D02*
X89388047Y-83863666D01*
X89340428Y-83839857D01*
X89269000Y-83839857D01*
X89221380Y-83863666D01*
X89197571Y-83911285D01*
X89197571Y-84173190D01*
X88983285Y-84149380D02*
X88935666Y-84173190D01*
X88840428Y-84173190D01*
X88792809Y-84149380D01*
X88769000Y-84101761D01*
X88769000Y-84077952D01*
X88792809Y-84030333D01*
X88840428Y-84006523D01*
X88911857Y-84006523D01*
X88959476Y-83982714D01*
X88983285Y-83935095D01*
X88983285Y-83911285D01*
X88959476Y-83863666D01*
X88911857Y-83839857D01*
X88840428Y-83839857D01*
X88792809Y-83863666D01*
X88483285Y-84173190D02*
X88530904Y-84149380D01*
X88554714Y-84125571D01*
X88578523Y-84077952D01*
X88578523Y-83935095D01*
X88554714Y-83887476D01*
X88530904Y-83863666D01*
X88483285Y-83839857D01*
X88411857Y-83839857D01*
X88364238Y-83863666D01*
X88340428Y-83887476D01*
X88316619Y-83935095D01*
X88316619Y-84077952D01*
X88340428Y-84125571D01*
X88364238Y-84149380D01*
X88411857Y-84173190D01*
X88483285Y-84173190D01*
X88102333Y-84173190D02*
X88102333Y-83839857D01*
X88102333Y-83935095D02*
X88078523Y-83887476D01*
X88054714Y-83863666D01*
X88007095Y-83839857D01*
X87959476Y-83839857D01*
X87483285Y-83673190D02*
X87316619Y-84173190D01*
X87149952Y-83673190D01*
X86983285Y-84173190D02*
X86983285Y-83673190D01*
X86792809Y-83673190D01*
X86745190Y-83697000D01*
X86721380Y-83720809D01*
X86697571Y-83768428D01*
X86697571Y-83839857D01*
X86721380Y-83887476D01*
X86745190Y-83911285D01*
X86792809Y-83935095D01*
X86983285Y-83935095D01*
X90352333Y-86816380D02*
X90280904Y-86840190D01*
X90161857Y-86840190D01*
X90114238Y-86816380D01*
X90090428Y-86792571D01*
X90066619Y-86744952D01*
X90066619Y-86697333D01*
X90090428Y-86649714D01*
X90114238Y-86625904D01*
X90161857Y-86602095D01*
X90257095Y-86578285D01*
X90304714Y-86554476D01*
X90328523Y-86530666D01*
X90352333Y-86483047D01*
X90352333Y-86435428D01*
X90328523Y-86387809D01*
X90304714Y-86364000D01*
X90257095Y-86340190D01*
X90138047Y-86340190D01*
X90066619Y-86364000D01*
X89661857Y-86816380D02*
X89709476Y-86840190D01*
X89804714Y-86840190D01*
X89852333Y-86816380D01*
X89876142Y-86768761D01*
X89876142Y-86578285D01*
X89852333Y-86530666D01*
X89804714Y-86506857D01*
X89709476Y-86506857D01*
X89661857Y-86530666D01*
X89638047Y-86578285D01*
X89638047Y-86625904D01*
X89876142Y-86673523D01*
X89423761Y-86506857D02*
X89423761Y-86840190D01*
X89423761Y-86554476D02*
X89399952Y-86530666D01*
X89352333Y-86506857D01*
X89280904Y-86506857D01*
X89233285Y-86530666D01*
X89209476Y-86578285D01*
X89209476Y-86840190D01*
X88995190Y-86816380D02*
X88947571Y-86840190D01*
X88852333Y-86840190D01*
X88804714Y-86816380D01*
X88780904Y-86768761D01*
X88780904Y-86744952D01*
X88804714Y-86697333D01*
X88852333Y-86673523D01*
X88923761Y-86673523D01*
X88971380Y-86649714D01*
X88995190Y-86602095D01*
X88995190Y-86578285D01*
X88971380Y-86530666D01*
X88923761Y-86506857D01*
X88852333Y-86506857D01*
X88804714Y-86530666D01*
X88495190Y-86840190D02*
X88542809Y-86816380D01*
X88566619Y-86792571D01*
X88590428Y-86744952D01*
X88590428Y-86602095D01*
X88566619Y-86554476D01*
X88542809Y-86530666D01*
X88495190Y-86506857D01*
X88423761Y-86506857D01*
X88376142Y-86530666D01*
X88352333Y-86554476D01*
X88328523Y-86602095D01*
X88328523Y-86744952D01*
X88352333Y-86792571D01*
X88376142Y-86816380D01*
X88423761Y-86840190D01*
X88495190Y-86840190D01*
X88114238Y-86840190D02*
X88114238Y-86506857D01*
X88114238Y-86602095D02*
X88090428Y-86554476D01*
X88066619Y-86530666D01*
X88019000Y-86506857D01*
X87971380Y-86506857D01*
X87495190Y-86340190D02*
X87328523Y-86840190D01*
X87161857Y-86340190D01*
X86995190Y-86840190D02*
X86995190Y-86340190D01*
X86709476Y-86840190D01*
X86709476Y-86340190D01*
X88241095Y-89253190D02*
X88241095Y-88753190D01*
X87907761Y-88753190D02*
X87812523Y-88753190D01*
X87764904Y-88777000D01*
X87717285Y-88824619D01*
X87693476Y-88919857D01*
X87693476Y-89086523D01*
X87717285Y-89181761D01*
X87764904Y-89229380D01*
X87812523Y-89253190D01*
X87907761Y-89253190D01*
X87955380Y-89229380D01*
X88003000Y-89181761D01*
X88026809Y-89086523D01*
X88026809Y-88919857D01*
X88003000Y-88824619D01*
X87955380Y-88777000D01*
X87907761Y-88753190D01*
X87526809Y-88753190D02*
X87217285Y-88753190D01*
X87383952Y-88943666D01*
X87312523Y-88943666D01*
X87264904Y-88967476D01*
X87241095Y-88991285D01*
X87217285Y-89038904D01*
X87217285Y-89157952D01*
X87241095Y-89205571D01*
X87264904Y-89229380D01*
X87312523Y-89253190D01*
X87455380Y-89253190D01*
X87503000Y-89229380D01*
X87526809Y-89205571D01*
X86788714Y-88919857D02*
X86788714Y-89253190D01*
X86907761Y-88729380D02*
X87026809Y-89086523D01*
X86717285Y-89086523D01*
X88241095Y-91793190D02*
X88241095Y-91293190D01*
X87907761Y-91293190D02*
X87812523Y-91293190D01*
X87764904Y-91317000D01*
X87717285Y-91364619D01*
X87693476Y-91459857D01*
X87693476Y-91626523D01*
X87717285Y-91721761D01*
X87764904Y-91769380D01*
X87812523Y-91793190D01*
X87907761Y-91793190D01*
X87955380Y-91769380D01*
X88003000Y-91721761D01*
X88026809Y-91626523D01*
X88026809Y-91459857D01*
X88003000Y-91364619D01*
X87955380Y-91317000D01*
X87907761Y-91293190D01*
X87526809Y-91293190D02*
X87217285Y-91293190D01*
X87383952Y-91483666D01*
X87312523Y-91483666D01*
X87264904Y-91507476D01*
X87241095Y-91531285D01*
X87217285Y-91578904D01*
X87217285Y-91697952D01*
X87241095Y-91745571D01*
X87264904Y-91769380D01*
X87312523Y-91793190D01*
X87455380Y-91793190D01*
X87503000Y-91769380D01*
X87526809Y-91745571D01*
X86764904Y-91293190D02*
X87003000Y-91293190D01*
X87026809Y-91531285D01*
X87003000Y-91507476D01*
X86955380Y-91483666D01*
X86836333Y-91483666D01*
X86788714Y-91507476D01*
X86764904Y-91531285D01*
X86741095Y-91578904D01*
X86741095Y-91697952D01*
X86764904Y-91745571D01*
X86788714Y-91769380D01*
X86836333Y-91793190D01*
X86955380Y-91793190D01*
X87003000Y-91769380D01*
X87026809Y-91745571D01*
X88241095Y-94333190D02*
X88241095Y-93833190D01*
X87907761Y-93833190D02*
X87812523Y-93833190D01*
X87764904Y-93857000D01*
X87717285Y-93904619D01*
X87693476Y-93999857D01*
X87693476Y-94166523D01*
X87717285Y-94261761D01*
X87764904Y-94309380D01*
X87812523Y-94333190D01*
X87907761Y-94333190D01*
X87955380Y-94309380D01*
X88003000Y-94261761D01*
X88026809Y-94166523D01*
X88026809Y-93999857D01*
X88003000Y-93904619D01*
X87955380Y-93857000D01*
X87907761Y-93833190D01*
X87526809Y-93833190D02*
X87217285Y-93833190D01*
X87383952Y-94023666D01*
X87312523Y-94023666D01*
X87264904Y-94047476D01*
X87241095Y-94071285D01*
X87217285Y-94118904D01*
X87217285Y-94237952D01*
X87241095Y-94285571D01*
X87264904Y-94309380D01*
X87312523Y-94333190D01*
X87455380Y-94333190D01*
X87503000Y-94309380D01*
X87526809Y-94285571D01*
X87026809Y-93880809D02*
X87003000Y-93857000D01*
X86955380Y-93833190D01*
X86836333Y-93833190D01*
X86788714Y-93857000D01*
X86764904Y-93880809D01*
X86741095Y-93928428D01*
X86741095Y-93976047D01*
X86764904Y-94047476D01*
X87050619Y-94333190D01*
X86741095Y-94333190D01*
X88241095Y-99413190D02*
X88241095Y-98913190D01*
X87907761Y-98913190D02*
X87812523Y-98913190D01*
X87764904Y-98937000D01*
X87717285Y-98984619D01*
X87693476Y-99079857D01*
X87693476Y-99246523D01*
X87717285Y-99341761D01*
X87764904Y-99389380D01*
X87812523Y-99413190D01*
X87907761Y-99413190D01*
X87955380Y-99389380D01*
X88003000Y-99341761D01*
X88026809Y-99246523D01*
X88026809Y-99079857D01*
X88003000Y-98984619D01*
X87955380Y-98937000D01*
X87907761Y-98913190D01*
X87503000Y-98960809D02*
X87479190Y-98937000D01*
X87431571Y-98913190D01*
X87312523Y-98913190D01*
X87264904Y-98937000D01*
X87241095Y-98960809D01*
X87217285Y-99008428D01*
X87217285Y-99056047D01*
X87241095Y-99127476D01*
X87526809Y-99413190D01*
X87217285Y-99413190D01*
X86764904Y-98913190D02*
X87003000Y-98913190D01*
X87026809Y-99151285D01*
X87003000Y-99127476D01*
X86955380Y-99103666D01*
X86836333Y-99103666D01*
X86788714Y-99127476D01*
X86764904Y-99151285D01*
X86741095Y-99198904D01*
X86741095Y-99317952D01*
X86764904Y-99365571D01*
X86788714Y-99389380D01*
X86836333Y-99413190D01*
X86955380Y-99413190D01*
X87003000Y-99389380D01*
X87026809Y-99365571D01*
X88241095Y-114780190D02*
X88241095Y-114280190D01*
X87907761Y-114280190D02*
X87812523Y-114280190D01*
X87764904Y-114304000D01*
X87717285Y-114351619D01*
X87693476Y-114446857D01*
X87693476Y-114613523D01*
X87717285Y-114708761D01*
X87764904Y-114756380D01*
X87812523Y-114780190D01*
X87907761Y-114780190D01*
X87955380Y-114756380D01*
X88003000Y-114708761D01*
X88026809Y-114613523D01*
X88026809Y-114446857D01*
X88003000Y-114351619D01*
X87955380Y-114304000D01*
X87907761Y-114280190D01*
X87217285Y-114780190D02*
X87503000Y-114780190D01*
X87360142Y-114780190D02*
X87360142Y-114280190D01*
X87407761Y-114351619D01*
X87455380Y-114399238D01*
X87503000Y-114423047D01*
X87050619Y-114280190D02*
X86741095Y-114280190D01*
X86907761Y-114470666D01*
X86836333Y-114470666D01*
X86788714Y-114494476D01*
X86764904Y-114518285D01*
X86741095Y-114565904D01*
X86741095Y-114684952D01*
X86764904Y-114732571D01*
X86788714Y-114756380D01*
X86836333Y-114780190D01*
X86979190Y-114780190D01*
X87026809Y-114756380D01*
X87050619Y-114732571D01*
X90617428Y-117147952D02*
X90617428Y-116747952D01*
X90426952Y-117147952D02*
X90426952Y-116747952D01*
X90293619Y-117033666D01*
X90160285Y-116747952D01*
X90160285Y-117147952D01*
X89969809Y-116747952D02*
X89969809Y-117071761D01*
X89950761Y-117109857D01*
X89931714Y-117128904D01*
X89893619Y-117147952D01*
X89817428Y-117147952D01*
X89779333Y-117128904D01*
X89760285Y-117109857D01*
X89741238Y-117071761D01*
X89741238Y-116747952D01*
X89265047Y-117128904D02*
X89207904Y-117147952D01*
X89112666Y-117147952D01*
X89074571Y-117128904D01*
X89055523Y-117109857D01*
X89036476Y-117071761D01*
X89036476Y-117033666D01*
X89055523Y-116995571D01*
X89074571Y-116976523D01*
X89112666Y-116957476D01*
X89188857Y-116938428D01*
X89226952Y-116919380D01*
X89246000Y-116900333D01*
X89265047Y-116862238D01*
X89265047Y-116824142D01*
X89246000Y-116786047D01*
X89226952Y-116767000D01*
X89188857Y-116747952D01*
X89093619Y-116747952D01*
X89036476Y-116767000D01*
X88865047Y-117147952D02*
X88865047Y-116747952D01*
X88769809Y-116747952D01*
X88712666Y-116767000D01*
X88674571Y-116805095D01*
X88655523Y-116843190D01*
X88636476Y-116919380D01*
X88636476Y-116976523D01*
X88655523Y-117052714D01*
X88674571Y-117090809D01*
X88712666Y-117128904D01*
X88769809Y-117147952D01*
X88865047Y-117147952D01*
X88388857Y-116747952D02*
X88312666Y-116747952D01*
X88274571Y-116767000D01*
X88236476Y-116805095D01*
X88217428Y-116881285D01*
X88217428Y-117014619D01*
X88236476Y-117090809D01*
X88274571Y-117128904D01*
X88312666Y-117147952D01*
X88388857Y-117147952D01*
X88426952Y-117128904D01*
X88465047Y-117090809D01*
X88484095Y-117014619D01*
X88484095Y-116881285D01*
X88465047Y-116805095D01*
X88426952Y-116767000D01*
X88388857Y-116747952D01*
X87760285Y-116728904D02*
X88103142Y-117243190D01*
X87646000Y-117128904D02*
X87588857Y-117147952D01*
X87493619Y-117147952D01*
X87455523Y-117128904D01*
X87436476Y-117109857D01*
X87417428Y-117071761D01*
X87417428Y-117033666D01*
X87436476Y-116995571D01*
X87455523Y-116976523D01*
X87493619Y-116957476D01*
X87569809Y-116938428D01*
X87607904Y-116919380D01*
X87626952Y-116900333D01*
X87646000Y-116862238D01*
X87646000Y-116824142D01*
X87626952Y-116786047D01*
X87607904Y-116767000D01*
X87569809Y-116747952D01*
X87474571Y-116747952D01*
X87417428Y-116767000D01*
X87265047Y-117033666D02*
X87074571Y-117033666D01*
X87303142Y-117147952D02*
X87169809Y-116747952D01*
X87036476Y-117147952D01*
X86826952Y-116747952D02*
X86750761Y-116747952D01*
X86712666Y-116767000D01*
X86674571Y-116805095D01*
X86655523Y-116881285D01*
X86655523Y-117014619D01*
X86674571Y-117090809D01*
X86712666Y-117128904D01*
X86750761Y-117147952D01*
X86826952Y-117147952D01*
X86865047Y-117128904D01*
X86903142Y-117090809D01*
X86922190Y-117014619D01*
X86922190Y-116881285D01*
X86903142Y-116805095D01*
X86865047Y-116767000D01*
X86826952Y-116747952D01*
X87721238Y-121797000D02*
X87768857Y-121773190D01*
X87840285Y-121773190D01*
X87911714Y-121797000D01*
X87959333Y-121844619D01*
X87983142Y-121892238D01*
X88006952Y-121987476D01*
X88006952Y-122058904D01*
X87983142Y-122154142D01*
X87959333Y-122201761D01*
X87911714Y-122249380D01*
X87840285Y-122273190D01*
X87792666Y-122273190D01*
X87721238Y-122249380D01*
X87697428Y-122225571D01*
X87697428Y-122058904D01*
X87792666Y-122058904D01*
X87483142Y-121939857D02*
X87483142Y-122273190D01*
X87483142Y-121987476D02*
X87459333Y-121963666D01*
X87411714Y-121939857D01*
X87340285Y-121939857D01*
X87292666Y-121963666D01*
X87268857Y-122011285D01*
X87268857Y-122273190D01*
X87030761Y-122273190D02*
X87030761Y-121773190D01*
X86911714Y-121773190D01*
X86840285Y-121797000D01*
X86792666Y-121844619D01*
X86768857Y-121892238D01*
X86745047Y-121987476D01*
X86745047Y-122058904D01*
X86768857Y-122154142D01*
X86792666Y-122201761D01*
X86840285Y-122249380D01*
X86911714Y-122273190D01*
X87030761Y-122273190D01*
X87995047Y-124567190D02*
X87828380Y-125067190D01*
X87661714Y-124567190D01*
X87280761Y-125067190D02*
X87280761Y-124567190D01*
X87280761Y-125043380D02*
X87328380Y-125067190D01*
X87423619Y-125067190D01*
X87471238Y-125043380D01*
X87495047Y-125019571D01*
X87518857Y-124971952D01*
X87518857Y-124829095D01*
X87495047Y-124781476D01*
X87471238Y-124757666D01*
X87423619Y-124733857D01*
X87328380Y-124733857D01*
X87280761Y-124757666D01*
X86828380Y-125067190D02*
X86828380Y-124567190D01*
X86828380Y-125043380D02*
X86876000Y-125067190D01*
X86971238Y-125067190D01*
X87018857Y-125043380D01*
X87042666Y-125019571D01*
X87066476Y-124971952D01*
X87066476Y-124829095D01*
X87042666Y-124781476D01*
X87018857Y-124757666D01*
X86971238Y-124733857D01*
X86876000Y-124733857D01*
X86828380Y-124757666D01*
X88241095Y-96873190D02*
X88241095Y-96373190D01*
X87907761Y-96373190D02*
X87812523Y-96373190D01*
X87764904Y-96397000D01*
X87717285Y-96444619D01*
X87693476Y-96539857D01*
X87693476Y-96706523D01*
X87717285Y-96801761D01*
X87764904Y-96849380D01*
X87812523Y-96873190D01*
X87907761Y-96873190D01*
X87955380Y-96849380D01*
X88003000Y-96801761D01*
X88026809Y-96706523D01*
X88026809Y-96539857D01*
X88003000Y-96444619D01*
X87955380Y-96397000D01*
X87907761Y-96373190D01*
X87526809Y-96373190D02*
X87217285Y-96373190D01*
X87383952Y-96563666D01*
X87312523Y-96563666D01*
X87264904Y-96587476D01*
X87241095Y-96611285D01*
X87217285Y-96658904D01*
X87217285Y-96777952D01*
X87241095Y-96825571D01*
X87264904Y-96849380D01*
X87312523Y-96873190D01*
X87455380Y-96873190D01*
X87503000Y-96849380D01*
X87526809Y-96825571D01*
X87050619Y-96373190D02*
X86741095Y-96373190D01*
X86907761Y-96563666D01*
X86836333Y-96563666D01*
X86788714Y-96587476D01*
X86764904Y-96611285D01*
X86741095Y-96658904D01*
X86741095Y-96777952D01*
X86764904Y-96825571D01*
X86788714Y-96849380D01*
X86836333Y-96873190D01*
X86979190Y-96873190D01*
X87026809Y-96849380D01*
X87050619Y-96825571D01*
X88114095Y-101953190D02*
X88114095Y-101453190D01*
X87780761Y-101453190D02*
X87685523Y-101453190D01*
X87637904Y-101477000D01*
X87590285Y-101524619D01*
X87566476Y-101619857D01*
X87566476Y-101786523D01*
X87590285Y-101881761D01*
X87637904Y-101929380D01*
X87685523Y-101953190D01*
X87780761Y-101953190D01*
X87828380Y-101929380D01*
X87876000Y-101881761D01*
X87899809Y-101786523D01*
X87899809Y-101619857D01*
X87876000Y-101524619D01*
X87828380Y-101477000D01*
X87780761Y-101453190D01*
X87376000Y-101500809D02*
X87352190Y-101477000D01*
X87304571Y-101453190D01*
X87185523Y-101453190D01*
X87137904Y-101477000D01*
X87114095Y-101500809D01*
X87090285Y-101548428D01*
X87090285Y-101596047D01*
X87114095Y-101667476D01*
X87399809Y-101953190D01*
X87090285Y-101953190D01*
X86661714Y-101453190D02*
X86756952Y-101453190D01*
X86804571Y-101477000D01*
X86828380Y-101500809D01*
X86876000Y-101572238D01*
X86899809Y-101667476D01*
X86899809Y-101857952D01*
X86876000Y-101905571D01*
X86852190Y-101929380D01*
X86804571Y-101953190D01*
X86709333Y-101953190D01*
X86661714Y-101929380D01*
X86637904Y-101905571D01*
X86614095Y-101857952D01*
X86614095Y-101738904D01*
X86637904Y-101691285D01*
X86661714Y-101667476D01*
X86709333Y-101643666D01*
X86804571Y-101643666D01*
X86852190Y-101667476D01*
X86876000Y-101691285D01*
X86899809Y-101738904D01*
X88114095Y-104493190D02*
X88114095Y-103993190D01*
X87780761Y-103993190D02*
X87685523Y-103993190D01*
X87637904Y-104017000D01*
X87590285Y-104064619D01*
X87566476Y-104159857D01*
X87566476Y-104326523D01*
X87590285Y-104421761D01*
X87637904Y-104469380D01*
X87685523Y-104493190D01*
X87780761Y-104493190D01*
X87828380Y-104469380D01*
X87876000Y-104421761D01*
X87899809Y-104326523D01*
X87899809Y-104159857D01*
X87876000Y-104064619D01*
X87828380Y-104017000D01*
X87780761Y-103993190D01*
X87376000Y-104040809D02*
X87352190Y-104017000D01*
X87304571Y-103993190D01*
X87185523Y-103993190D01*
X87137904Y-104017000D01*
X87114095Y-104040809D01*
X87090285Y-104088428D01*
X87090285Y-104136047D01*
X87114095Y-104207476D01*
X87399809Y-104493190D01*
X87090285Y-104493190D01*
X86923619Y-103993190D02*
X86590285Y-103993190D01*
X86804571Y-104493190D01*
X88241095Y-107033190D02*
X88241095Y-106533190D01*
X87907761Y-106533190D02*
X87812523Y-106533190D01*
X87764904Y-106557000D01*
X87717285Y-106604619D01*
X87693476Y-106699857D01*
X87693476Y-106866523D01*
X87717285Y-106961761D01*
X87764904Y-107009380D01*
X87812523Y-107033190D01*
X87907761Y-107033190D01*
X87955380Y-107009380D01*
X88003000Y-106961761D01*
X88026809Y-106866523D01*
X88026809Y-106699857D01*
X88003000Y-106604619D01*
X87955380Y-106557000D01*
X87907761Y-106533190D01*
X87217285Y-107033190D02*
X87503000Y-107033190D01*
X87360142Y-107033190D02*
X87360142Y-106533190D01*
X87407761Y-106604619D01*
X87455380Y-106652238D01*
X87503000Y-106676047D01*
X86788714Y-106699857D02*
X86788714Y-107033190D01*
X86907761Y-106509380D02*
X87026809Y-106866523D01*
X86717285Y-106866523D01*
X88114095Y-109573190D02*
X88114095Y-109073190D01*
X87780761Y-109073190D02*
X87685523Y-109073190D01*
X87637904Y-109097000D01*
X87590285Y-109144619D01*
X87566476Y-109239857D01*
X87566476Y-109406523D01*
X87590285Y-109501761D01*
X87637904Y-109549380D01*
X87685523Y-109573190D01*
X87780761Y-109573190D01*
X87828380Y-109549380D01*
X87876000Y-109501761D01*
X87899809Y-109406523D01*
X87899809Y-109239857D01*
X87876000Y-109144619D01*
X87828380Y-109097000D01*
X87780761Y-109073190D01*
X87090285Y-109573190D02*
X87376000Y-109573190D01*
X87233142Y-109573190D02*
X87233142Y-109073190D01*
X87280761Y-109144619D01*
X87328380Y-109192238D01*
X87376000Y-109216047D01*
X86899809Y-109120809D02*
X86876000Y-109097000D01*
X86828380Y-109073190D01*
X86709333Y-109073190D01*
X86661714Y-109097000D01*
X86637904Y-109120809D01*
X86614095Y-109168428D01*
X86614095Y-109216047D01*
X86637904Y-109287476D01*
X86923619Y-109573190D01*
X86614095Y-109573190D01*
%TD*%
M02*
