M48
; DRILL file {KiCad (5.1.7)-1} date 11/23/20 11:29:40
; FORMAT={-:-/ absolute / metric / decimal}
; #@! TF.CreationDate,2020-11-23T11:29:40-08:00
; #@! TF.GenerationSoftware,Kicad,Pcbnew,(5.1.7)-1
; #@! TF.FileFunction,Plated,1,4,PTH
FMAT,2
METRIC
T1C0.320
T2C1.000
T3C1.400
%
G90
G05
T1
X79.502Y-72.136
X85.09Y-114.554
X85.852Y-121.92
X87.494Y-69.85
X87.494Y-73.66
X88.138Y-90.678
X88.646Y-104.264
X88.646Y-107.064
X89.036Y-73.66
X89.154Y-77.978
X89.484Y-92.371
X89.484Y-97.621
X89.662Y-101.854
X89.916Y-78.427
X90.424Y-106.426
X90.678Y-73.66
X91.107Y-113.205
X91.694Y-105.474
X92.202Y-78.232
X92.254Y-102.616
X92.964Y-78.232
X93.726Y-87.376
X94.2Y-97.756
X94.488Y-88.646
X94.488Y-100.076
X94.615Y-79.052
X94.742Y-80.264
X94.742Y-85.989
X94.742Y-101.854
X95.504Y-105.664
X95.628Y-92.71
X97.282Y-84.328
X97.79Y-77.412
X97.79Y-79.052
X98.306Y-103.928
X98.428Y-92.71
X98.806Y-104.902
X98.866Y-101.879
X99.568Y-73.406
X99.568Y-104.14
X101.092Y-102.616
X101.092Y-106.26
X101.6Y-98.317
X102.997Y-103.632
X104.006Y-92.456
X104.775Y-116.72
X104.868Y-97.756
X104.902Y-96.774
X105.41Y-82.893
X105.41Y-126.492
X106.306Y-92.456
X108.204Y-75.692
X108.204Y-80.951
X108.204Y-96.266
X108.428Y-120.014
X109.474Y-83.058
X109.474Y-84.328
X109.474Y-91.44
X109.728Y-79.756
X110.034Y-88.138
X110.236Y-77.978
X110.299Y-108.445
X110.49Y-84.836
X110.759Y-90.155
X110.998Y-94.996
X111.252Y-91.44
X112.204Y-108.445
X112.268Y-126.492
X112.776Y-96.012
X113.03Y-98.298
X113.728Y-121.158
X113.728Y-122.174
X114.046Y-119.38
X114.3Y-100.838
X114.554Y-97.028
X114.554Y-100.076
X115.316Y-96.266
X115.824Y-97.738
X116.242Y-120.641
X116.84Y-126.525
X117.602Y-111.506
X118.11Y-97.738
X118.618Y-99.516
X118.648Y-120.014
X119.38Y-87.63
X119.38Y-115.124
X119.38Y-115.824
X119.888Y-111.564
X120.562Y-97.665
X120.92Y-84.081
X120.965Y-98.237
X121.639Y-98.661
X122.116Y-107.188
X122.174Y-120.396
X122.174Y-121.614
X122.936Y-111.564
X123.444Y-103.632
X123.756Y-107.188
X125.222Y-103.378
X126.492Y-102.108
X127.508Y-100.785
X127.762Y-98.044
X129.54Y-97.028
X130.757Y-103.378
X130.81Y-97.028
X131.826Y-108.712
X132.588Y-109.22
X132.782Y-94.936
X132.921Y-80.693
X132.969Y-90.551
X133.604Y-81.534
X133.604Y-87.63
X133.911Y-76.2
X134.62Y-104.648
X135.128Y-84.836
X135.128Y-88.721
X135.128Y-94.8
X135.329Y-103.124
X135.382Y-76.2
X135.382Y-104.715
X135.636Y-91.694
X136.144Y-92.202
X136.144Y-93.98
X136.144Y-99.514
X136.652Y-72.898
X136.906Y-91.948
X137.626Y-97.297
X138.134Y-103.886
X138.176Y-93.16
X138.684Y-99.875
X139.234Y-106.68
X139.394Y-102.362
X139.954Y-97.536
X140.156Y-88.9
X140.514Y-104.648
X140.514Y-105.918
X140.716Y-96.52
X140.716Y-99.568
X140.716Y-102.362
X140.731Y-111.999
X141.478Y-70.866
X142.748Y-70.104
T2
X142.748Y-76.708
X142.748Y-79.248
X142.748Y-81.788
X142.748Y-84.328
X142.748Y-86.868
X142.748Y-89.408
X142.748Y-91.948
X142.748Y-94.488
X142.748Y-97.028
X142.748Y-99.568
X142.748Y-102.108
X142.748Y-104.648
X142.748Y-107.188
X142.748Y-109.728
X142.748Y-112.268
X142.748Y-114.808
X142.748Y-117.348
X142.748Y-119.888
X142.748Y-122.428
X142.748Y-124.968
X81.026Y-76.454
X81.026Y-78.994
X81.026Y-81.534
X81.026Y-84.074
X81.026Y-86.614
X81.026Y-89.154
X81.026Y-91.694
X81.026Y-94.234
X81.026Y-96.774
X81.026Y-99.314
X81.026Y-101.854
X81.026Y-104.394
X81.026Y-106.934
X81.026Y-109.474
X81.026Y-112.014
X81.026Y-114.554
X81.026Y-117.094
X81.026Y-119.634
X81.026Y-122.174
X81.026Y-124.714
T3
X110.276Y-113.792
X115.276Y-113.792
X136.398Y-119.166
X136.398Y-124.166
X130.382Y-113.538
X135.382Y-113.538
X126.532Y-125.222
X131.532Y-125.222
X112.562Y-103.124
X117.562Y-103.124
X89.916Y-117.388
X89.916Y-122.388
X126.532Y-118.11
X131.532Y-118.11
X94.528Y-116.332
X99.528Y-116.332
X105.664Y-71.668
X105.664Y-76.668
X137.414Y-82.336
X137.414Y-87.336
X97.322Y-125.222
X102.322Y-125.222
T0
M30
