%TF.GenerationSoftware,KiCad,Pcbnew,(5.1.7)-1*%
%TF.CreationDate,2020-11-25T11:18:57-08:00*%
%TF.ProjectId,esp32_sensor,65737033-325f-4736-956e-736f722e6b69,v0.0.3*%
%TF.SameCoordinates,Original*%
%TF.FileFunction,Copper,L1,Top*%
%TF.FilePolarity,Positive*%
%FSLAX46Y46*%
G04 Gerber Fmt 4.6, Leading zero omitted, Abs format (unit mm)*
G04 Created by KiCad (PCBNEW (5.1.7)-1) date 2020-11-25 11:18:57*
%MOMM*%
%LPD*%
G01*
G04 APERTURE LIST*
%TA.AperFunction,SMDPad,CuDef*%
%ADD10R,2.997200X1.219200*%
%TD*%
%TA.AperFunction,ComponentPad*%
%ADD11O,1.700000X1.700000*%
%TD*%
%TA.AperFunction,ComponentPad*%
%ADD12R,1.700000X1.700000*%
%TD*%
%TA.AperFunction,SMDPad,CuDef*%
%ADD13R,5.000000X5.000000*%
%TD*%
%TA.AperFunction,SMDPad,CuDef*%
%ADD14R,2.000000X0.900000*%
%TD*%
%TA.AperFunction,SMDPad,CuDef*%
%ADD15R,0.900000X2.000000*%
%TD*%
%TA.AperFunction,SMDPad,CuDef*%
%ADD16R,1.000000X1.100000*%
%TD*%
%TA.AperFunction,SMDPad,CuDef*%
%ADD17R,0.757199X0.254800*%
%TD*%
%TA.AperFunction,SMDPad,CuDef*%
%ADD18R,1.803400X2.590800*%
%TD*%
%TA.AperFunction,SMDPad,CuDef*%
%ADD19R,0.830000X0.630000*%
%TD*%
%TA.AperFunction,SMDPad,CuDef*%
%ADD20R,1.100000X1.000000*%
%TD*%
%TA.AperFunction,SMDPad,CuDef*%
%ADD21R,0.930000X1.010000*%
%TD*%
%TA.AperFunction,SMDPad,CuDef*%
%ADD22R,1.799996X1.299998*%
%TD*%
%TA.AperFunction,SMDPad,CuDef*%
%ADD23R,1.299998X1.799996*%
%TD*%
%TA.AperFunction,SMDPad,CuDef*%
%ADD24R,1.003300X0.990600*%
%TD*%
%TA.AperFunction,SMDPad,CuDef*%
%ADD25R,1.309599X0.568000*%
%TD*%
%TA.AperFunction,SMDPad,CuDef*%
%ADD26R,0.810000X0.980000*%
%TD*%
%TA.AperFunction,SMDPad,CuDef*%
%ADD27R,0.790000X0.930000*%
%TD*%
%TA.AperFunction,SMDPad,CuDef*%
%ADD28R,0.980000X0.810000*%
%TD*%
%TA.AperFunction,SMDPad,CuDef*%
%ADD29R,0.930000X0.790000*%
%TD*%
%TA.AperFunction,SMDPad,CuDef*%
%ADD30R,1.549400X0.990600*%
%TD*%
%TA.AperFunction,SMDPad,CuDef*%
%ADD31R,0.600000X0.350000*%
%TD*%
%TA.AperFunction,SMDPad,CuDef*%
%ADD32R,0.350000X0.600000*%
%TD*%
%TA.AperFunction,SMDPad,CuDef*%
%ADD33R,0.600000X1.150000*%
%TD*%
%TA.AperFunction,SMDPad,CuDef*%
%ADD34R,0.300000X1.150000*%
%TD*%
%TA.AperFunction,SMDPad,CuDef*%
%ADD35R,2.180000X2.000000*%
%TD*%
%TA.AperFunction,ViaPad*%
%ADD36C,0.600000*%
%TD*%
%TA.AperFunction,Conductor*%
%ADD37C,0.400000*%
%TD*%
%TA.AperFunction,Conductor*%
%ADD38C,0.200000*%
%TD*%
%TA.AperFunction,Conductor*%
%ADD39C,0.220000*%
%TD*%
%TA.AperFunction,Conductor*%
%ADD40C,0.350000*%
%TD*%
G04 APERTURE END LIST*
D10*
%TO.P,CP_ESP_1,1*%
%TO.N,+3V3*%
X98971100Y-73787000D03*
%TO.P,CP_ESP_1,2*%
%TO.N,GND*%
X93560900Y-73787000D03*
%TD*%
D11*
%TO.P,J_PW_2,2*%
%TO.N,VDD*%
X97536000Y-127127000D03*
D12*
%TO.P,J_PW_2,1*%
%TO.N,GND*%
X94996000Y-127127000D03*
%TD*%
D13*
%TO.P,U_ESP_1,39*%
%TO.N,GND*%
X123587000Y-83700000D03*
D14*
%TO.P,U_ESP_1,1*%
X116087000Y-76200000D03*
%TO.P,U_ESP_1,2*%
%TO.N,+3V3*%
X116087000Y-77470000D03*
%TO.P,U_ESP_1,3*%
%TO.N,/ESP32 Chip/ESP32_EN*%
X116087000Y-78740000D03*
%TO.P,U_ESP_1,4*%
%TO.N,/ESP32 Chip/ESP32_Pin4*%
X116087000Y-80010000D03*
%TO.P,U_ESP_1,5*%
%TO.N,/ESP32 Chip/ESP32_Pin5*%
X116087000Y-81280000D03*
%TO.P,U_ESP_1,6*%
%TO.N,/ESP32 Chip/ESP32_Pin6*%
X116087000Y-82550000D03*
%TO.P,U_ESP_1,7*%
%TO.N,/ESP32 Chip/ESP32_Pin7*%
X116087000Y-83820000D03*
%TO.P,U_ESP_1,8*%
%TO.N,/ESP32 Chip/ESP32_Pin8*%
X116087000Y-85090000D03*
%TO.P,U_ESP_1,9*%
%TO.N,/ESP32 Chip/ESP32_Pin9*%
X116087000Y-86360000D03*
%TO.P,U_ESP_1,10*%
%TO.N,/ESP32 Chip/ESP32_Pin10*%
X116087000Y-87630000D03*
%TO.P,U_ESP_1,11*%
%TO.N,/ESP32 Chip/ESP32_Pin11*%
X116087000Y-88900000D03*
%TO.P,U_ESP_1,12*%
%TO.N,/ESP32 Chip/ESP32_Pin12*%
X116087000Y-90170000D03*
%TO.P,U_ESP_1,13*%
%TO.N,/ESP32 Chip/ESP32_Pin13*%
X116087000Y-91440000D03*
%TO.P,U_ESP_1,14*%
%TO.N,/ESP32 Chip/ESP32_Pin14*%
X116087000Y-92710000D03*
D15*
%TO.P,U_ESP_1,15*%
%TO.N,GND*%
X118872000Y-93710000D03*
%TO.P,U_ESP_1,16*%
%TO.N,/ESP32 Chip/ESP32_Pin16*%
X120142000Y-93710000D03*
%TO.P,U_ESP_1,17*%
%TO.N,/ESP32 Chip/ESP32_Pin17*%
X121412000Y-93710000D03*
%TO.P,U_ESP_1,18*%
%TO.N,/ESP32 Chip/ESP32_Pin18*%
X122682000Y-93710000D03*
%TO.P,U_ESP_1,19*%
%TO.N,/ESP32 Chip/ESP32_Pin19*%
X123952000Y-93710000D03*
%TO.P,U_ESP_1,20*%
%TO.N,/ESP32 Chip/ESP32_Pin20*%
X125222000Y-93710000D03*
%TO.P,U_ESP_1,21*%
%TO.N,/ESP32 Chip/ESP32_Pin21*%
X126492000Y-93710000D03*
%TO.P,U_ESP_1,22*%
%TO.N,/ESP32 Chip/ESP32_Pin22*%
X127762000Y-93710000D03*
%TO.P,U_ESP_1,23*%
%TO.N,/ESP32 Chip/ESP32_Pin23*%
X129032000Y-93710000D03*
%TO.P,U_ESP_1,24*%
%TO.N,/ESP32 Chip/ESP32_Pin24*%
X130302000Y-93710000D03*
D14*
%TO.P,U_ESP_1,25*%
%TO.N,/ESP32 Chip/ESP32_Pin25*%
X133087000Y-92710000D03*
%TO.P,U_ESP_1,26*%
%TO.N,/ESP32 Chip/ESP32_Pin26*%
X133087000Y-91440000D03*
%TO.P,U_ESP_1,27*%
%TO.N,/ESP32 Chip/ESP32_Pin27*%
X133087000Y-90170000D03*
%TO.P,U_ESP_1,28*%
%TO.N,/ESP32 Chip/ESP32_Pin28*%
X133087000Y-88900000D03*
%TO.P,U_ESP_1,29*%
%TO.N,/ESP32 Chip/ESP32_Pin29*%
X133087000Y-87630000D03*
%TO.P,U_ESP_1,30*%
%TO.N,/ESP32 Chip/ESP32_Pin30*%
X133087000Y-86360000D03*
%TO.P,U_ESP_1,31*%
%TO.N,/ESP32 Chip/ESP32_Pin31*%
X133087000Y-85090000D03*
%TO.P,U_ESP_1,32*%
%TO.N,Net-(U_ESP_1-Pad32)*%
X133087000Y-83820000D03*
%TO.P,U_ESP_1,33*%
%TO.N,/ESP32 Chip/ESP32_Pin33*%
X133087000Y-82550000D03*
%TO.P,U_ESP_1,34*%
%TO.N,/ESP32 Chip/ESP32_RX0*%
X133087000Y-81280000D03*
%TO.P,U_ESP_1,35*%
%TO.N,/ESP32 Chip/ESP32_TX0*%
X133087000Y-80010000D03*
%TO.P,U_ESP_1,36*%
%TO.N,/ESP32 Chip/ESP32_Pin36*%
X133087000Y-78740000D03*
%TO.P,U_ESP_1,37*%
%TO.N,/ESP32 Chip/ESP32_Pin37*%
X133087000Y-77470000D03*
%TO.P,U_ESP_1,38*%
%TO.N,GND*%
X133087000Y-76200000D03*
%TD*%
D16*
%TO.P,C_ESP_1,2*%
%TO.N,GND*%
X102616000Y-78017000D03*
%TO.P,C_ESP_1,1*%
%TO.N,/ESP32 Chip/ESP32_EN*%
X102616000Y-79717000D03*
%TD*%
D11*
%TO.P,J_7,2*%
%TO.N,/ESP32 Chip/ESP32_Pin14*%
X88773000Y-109855000D03*
D12*
%TO.P,J_7,1*%
%TO.N,/IMU/IMU_SDA*%
X91313000Y-109855000D03*
%TD*%
D11*
%TO.P,J_6,2*%
%TO.N,/IMU/IMU_SCL*%
X91313000Y-106045000D03*
D12*
%TO.P,J_6,1*%
%TO.N,/ESP32 Chip/ESP32_Pin13*%
X88773000Y-106045000D03*
%TD*%
D11*
%TO.P,J_5,2*%
%TO.N,/ESP32 Chip/ESP32_Pin12*%
X88773000Y-102235000D03*
D12*
%TO.P,J_5,1*%
%TO.N,/IMU/IMU_INT1*%
X91313000Y-102235000D03*
%TD*%
D11*
%TO.P,J_4,2*%
%TO.N,/IMU/IMU_INT2*%
X91313000Y-98425000D03*
D12*
%TO.P,J_4,1*%
%TO.N,/ESP32 Chip/ESP32_Pin11*%
X88773000Y-98425000D03*
%TD*%
D11*
%TO.P,J_3,8*%
%TO.N,/ESP32 Chip/ESP32_Pin22*%
X131572000Y-100330000D03*
%TO.P,J_3,7*%
%TO.N,/ESP32 Chip/ESP32_Pin21*%
X129032000Y-100330000D03*
%TO.P,J_3,6*%
%TO.N,/ESP32 Chip/ESP32_Pin20*%
X126492000Y-100330000D03*
%TO.P,J_3,5*%
%TO.N,+3V3*%
X123952000Y-100330000D03*
%TO.P,J_3,4*%
%TO.N,GND*%
X121412000Y-100330000D03*
%TO.P,J_3,3*%
%TO.N,/ESP32 Chip/ESP32_Pin19*%
X118872000Y-100330000D03*
%TO.P,J_3,2*%
%TO.N,/ESP32 Chip/ESP32_Pin18*%
X116332000Y-100330000D03*
D12*
%TO.P,J_3,1*%
%TO.N,/ESP32 Chip/ESP32_Pin17*%
X113792000Y-100330000D03*
%TD*%
D11*
%TO.P,J_2,20*%
%TO.N,GND*%
X139446000Y-124841000D03*
%TO.P,J_2,19*%
%TO.N,VS*%
X139446000Y-122301000D03*
%TO.P,J_2,18*%
%TO.N,Net-(J_2-Pad18)*%
X139446000Y-119761000D03*
%TO.P,J_2,17*%
%TO.N,+3V3*%
X139446000Y-117221000D03*
%TO.P,J_2,16*%
%TO.N,/ESP32 Chip/ESP32_Pin23*%
X139446000Y-114681000D03*
%TO.P,J_2,15*%
%TO.N,/ESP32 Chip/ESP32_Pin24*%
X139446000Y-112141000D03*
%TO.P,J_2,14*%
%TO.N,/ESP32 Chip/ESP32_Pin25*%
X139446000Y-109601000D03*
%TO.P,J_2,13*%
%TO.N,/ESP32 Chip/ESP32_Pin26*%
X139446000Y-107061000D03*
%TO.P,J_2,12*%
%TO.N,/ESP32 Chip/ESP32_Pin27*%
X139446000Y-104521000D03*
%TO.P,J_2,11*%
%TO.N,/ESP32 Chip/ESP32_Pin28*%
X139446000Y-101981000D03*
%TO.P,J_2,10*%
%TO.N,/ESP32 Chip/ESP32_Pin29*%
X139446000Y-99441000D03*
%TO.P,J_2,9*%
%TO.N,/ESP32 Chip/ESP32_Pin30*%
X139446000Y-96901000D03*
%TO.P,J_2,8*%
%TO.N,/ESP32 Chip/ESP32_Pin31*%
X139446000Y-94361000D03*
%TO.P,J_2,7*%
%TO.N,Net-(J_2-Pad7)*%
X139446000Y-91821000D03*
%TO.P,J_2,6*%
%TO.N,/ESP32 Chip/ESP32_Pin33*%
X139446000Y-89281000D03*
%TO.P,J_2,5*%
%TO.N,/ESP32 Chip/ESP32_RX0*%
X139446000Y-86741000D03*
%TO.P,J_2,4*%
%TO.N,/ESP32 Chip/ESP32_TX0*%
X139446000Y-84201000D03*
%TO.P,J_2,3*%
%TO.N,/ESP32 Chip/ESP32_Pin36*%
X139446000Y-81661000D03*
%TO.P,J_2,2*%
%TO.N,/ESP32 Chip/ESP32_Pin37*%
X139446000Y-79121000D03*
D12*
%TO.P,J_2,1*%
%TO.N,GND*%
X139446000Y-76581000D03*
%TD*%
D11*
%TO.P,J_1,20*%
%TO.N,VDD*%
X85090000Y-124587000D03*
%TO.P,J_1,19*%
%TO.N,GND*%
X85090000Y-122047000D03*
%TO.P,J_1,18*%
%TO.N,Net-(J_1-Pad18)*%
X85090000Y-119507000D03*
%TO.P,J_1,17*%
%TO.N,/IMU/IMU_SDO_SAO*%
X85090000Y-116967000D03*
%TO.P,J_1,16*%
%TO.N,/ESP32 Chip/ESP32_Pin16*%
X85090000Y-114427000D03*
%TO.P,J_1,15*%
%TO.N,Net-(J_1-Pad15)*%
X85090000Y-111887000D03*
%TO.P,J_1,14*%
%TO.N,/ESP32 Chip/ESP32_Pin14*%
X85090000Y-109347000D03*
%TO.P,J_1,13*%
%TO.N,/ESP32 Chip/ESP32_Pin13*%
X85090000Y-106807000D03*
%TO.P,J_1,12*%
%TO.N,/ESP32 Chip/ESP32_Pin12*%
X85090000Y-104267000D03*
%TO.P,J_1,11*%
%TO.N,/ESP32 Chip/ESP32_Pin11*%
X85090000Y-101727000D03*
%TO.P,J_1,10*%
%TO.N,/ESP32 Chip/ESP32_Pin10*%
X85090000Y-99187000D03*
%TO.P,J_1,9*%
%TO.N,/ESP32 Chip/ESP32_Pin9*%
X85090000Y-96647000D03*
%TO.P,J_1,8*%
%TO.N,/ESP32 Chip/ESP32_Pin8*%
X85090000Y-94107000D03*
%TO.P,J_1,7*%
%TO.N,/ESP32 Chip/ESP32_Pin7*%
X85090000Y-91567000D03*
%TO.P,J_1,6*%
%TO.N,/ESP32 Chip/ESP32_Pin6*%
X85090000Y-89027000D03*
%TO.P,J_1,5*%
%TO.N,/ESP32 Chip/ESP32_Pin5*%
X85090000Y-86487000D03*
%TO.P,J_1,4*%
%TO.N,/ESP32 Chip/ESP32_Pin4*%
X85090000Y-83947000D03*
%TO.P,J_1,3*%
%TO.N,/ESP32 Chip/ESP32_EN*%
X85090000Y-81407000D03*
%TO.P,J_1,2*%
%TO.N,+3V3*%
X85090000Y-78867000D03*
D12*
%TO.P,J_1,1*%
%TO.N,GND*%
X85090000Y-76327000D03*
%TD*%
%TO.P,LED_ESP_1,1*%
%TO.N,GND*%
%TA.AperFunction,SMDPad,CuDef*%
G36*
G01*
X129796250Y-122129000D02*
X129283750Y-122129000D01*
G75*
G02*
X129065000Y-121910250I0J218750D01*
G01*
X129065000Y-121472750D01*
G75*
G02*
X129283750Y-121254000I218750J0D01*
G01*
X129796250Y-121254000D01*
G75*
G02*
X130015000Y-121472750I0J-218750D01*
G01*
X130015000Y-121910250D01*
G75*
G02*
X129796250Y-122129000I-218750J0D01*
G01*
G37*
%TD.AperFunction*%
%TO.P,LED_ESP_1,2*%
%TO.N,Net-(LED_ESP_1-Pad2)*%
%TA.AperFunction,SMDPad,CuDef*%
G36*
G01*
X129796250Y-120554000D02*
X129283750Y-120554000D01*
G75*
G02*
X129065000Y-120335250I0J218750D01*
G01*
X129065000Y-119897750D01*
G75*
G02*
X129283750Y-119679000I218750J0D01*
G01*
X129796250Y-119679000D01*
G75*
G02*
X130015000Y-119897750I0J-218750D01*
G01*
X130015000Y-120335250D01*
G75*
G02*
X129796250Y-120554000I-218750J0D01*
G01*
G37*
%TD.AperFunction*%
%TD*%
%TO.P,J_PW_3,1*%
%TO.N,+3V3*%
X120904000Y-109728000D03*
%TD*%
D11*
%TO.P,J_PW_1,2*%
%TO.N,VS*%
X121666000Y-116586000D03*
D12*
%TO.P,J_PW_1,1*%
%TO.N,+BATT*%
X119126000Y-116586000D03*
%TD*%
%TO.P,J_CN_4,1*%
%TO.N,GND*%
X114808000Y-116586000D03*
%TD*%
%TO.P,J_CN_3,1*%
%TO.N,VS*%
X125476000Y-116586000D03*
%TD*%
D11*
%TO.P,J_CN_2,4*%
%TO.N,Net-(J_CN_2-Pad4)*%
X109093000Y-127127000D03*
%TO.P,J_CN_2,3*%
%TO.N,Net-(J_CN_2-Pad3)*%
X106553000Y-127127000D03*
%TO.P,J_CN_2,2*%
%TO.N,Net-(J_CN_2-Pad2)*%
X104013000Y-127127000D03*
D12*
%TO.P,J_CN_2,1*%
%TO.N,Net-(J_CN_2-Pad1)*%
X101473000Y-127127000D03*
%TD*%
D11*
%TO.P,J_CN_1,4*%
%TO.N,Net-(J_CN_1-Pad4)*%
X135255000Y-127127000D03*
%TO.P,J_CN_1,3*%
%TO.N,Net-(J_CN_1-Pad3)*%
X132715000Y-127127000D03*
%TO.P,J_CN_1,2*%
%TO.N,Net-(J_CN_1-Pad2)*%
X130175000Y-127127000D03*
D12*
%TO.P,J_CN_1,1*%
%TO.N,Net-(J_CN_1-Pad1)*%
X127635000Y-127127000D03*
%TD*%
D17*
%TO.P,U_PW_1,1*%
%TO.N,Net-(U_PW_1-Pad1)*%
X101115000Y-121265000D03*
%TO.P,U_PW_1,2*%
%TO.N,VDD*%
X101115000Y-120765001D03*
%TO.P,U_PW_1,3*%
%TO.N,Net-(C_PW_4-Pad2)*%
X101115000Y-120265000D03*
%TO.P,U_PW_1,4*%
%TO.N,Net-(C_PW_2-Pad1)*%
X101115000Y-119765000D03*
%TO.P,U_PW_1,5*%
%TO.N,Net-(C_PW_4-Pad1)*%
X101115000Y-119264999D03*
%TO.P,U_PW_1,6*%
%TO.N,GND*%
X101115000Y-118765000D03*
%TO.P,U_PW_1,7*%
X98275000Y-118765000D03*
%TO.P,U_PW_1,8*%
%TO.N,Net-(R_PW_2-Pad2)*%
X98275000Y-119264999D03*
%TO.P,U_PW_1,9*%
%TO.N,Net-(C_PW_5-Pad1)*%
X98275000Y-119765000D03*
%TO.P,U_PW_1,10*%
%TO.N,Net-(C_PW_3-Pad2)*%
X98275000Y-120265000D03*
%TO.P,U_PW_1,11*%
%TO.N,Net-(U_PW_1-Pad11)*%
X98275000Y-120765001D03*
%TO.P,U_PW_1,12*%
%TO.N,Net-(U_PW_1-Pad12)*%
X98275000Y-121265000D03*
D18*
%TO.P,U_PW_1,13*%
%TO.N,GND*%
X99695000Y-120015000D03*
%TD*%
D19*
%TO.P,D_PW_3,A*%
%TO.N,Net-(C_PW_5-Pad1)*%
X116840000Y-105904000D03*
%TO.P,D_PW_3,C*%
%TO.N,+3V3*%
X116840000Y-108204000D03*
%TD*%
D20*
%TO.P,C_PW_1,2*%
%TO.N,VDD*%
X109640000Y-122936000D03*
%TO.P,C_PW_1,1*%
%TO.N,GND*%
X111340000Y-122936000D03*
%TD*%
D19*
%TO.P,D_PW_1,A*%
%TO.N,VS*%
X111252000Y-117482000D03*
%TO.P,D_PW_1,C*%
%TO.N,Net-(D_PW_1-PadC)*%
X111252000Y-115182000D03*
%TD*%
D21*
%TO.P,C_IMU_1,2*%
%TO.N,GND*%
X103632000Y-98245000D03*
%TO.P,C_IMU_1,1*%
%TO.N,+3V3*%
X103632000Y-96827000D03*
%TD*%
%TO.P,C_IMU_2,1*%
%TO.N,+3V3*%
X102616000Y-104955000D03*
%TO.P,C_IMU_2,2*%
%TO.N,GND*%
X102616000Y-106373000D03*
%TD*%
%TO.P,C_IMU_3,1*%
%TO.N,+3V3*%
X107696000Y-102161000D03*
%TO.P,C_IMU_3,2*%
%TO.N,GND*%
X107696000Y-103579000D03*
%TD*%
D22*
%TO.P,C_PW_2,1*%
%TO.N,Net-(C_PW_2-Pad1)*%
X91440000Y-124838002D03*
%TO.P,C_PW_2,2*%
%TO.N,GND*%
X91440000Y-127637998D03*
%TD*%
D20*
%TO.P,C_PW_3,1*%
%TO.N,GND*%
X93638000Y-115697000D03*
%TO.P,C_PW_3,2*%
%TO.N,Net-(C_PW_3-Pad2)*%
X95338000Y-115697000D03*
%TD*%
%TO.P,C_PW_4,1*%
%TO.N,Net-(C_PW_4-Pad1)*%
X103925000Y-117094000D03*
%TO.P,C_PW_4,2*%
%TO.N,Net-(C_PW_4-Pad2)*%
X105625000Y-117094000D03*
%TD*%
D23*
%TO.P,C_PW_5,2*%
%TO.N,GND*%
X111376002Y-105918000D03*
%TO.P,C_PW_5,1*%
%TO.N,Net-(C_PW_5-Pad1)*%
X114175998Y-105918000D03*
%TD*%
D19*
%TO.P,D_PW_2,C*%
%TO.N,VDD*%
X107823000Y-119641000D03*
%TO.P,D_PW_2,A*%
%TO.N,Net-(D_PW_1-PadC)*%
X107823000Y-117341000D03*
%TD*%
D24*
%TO.P,L_PW_1,1*%
%TO.N,Net-(C_PW_5-Pad1)*%
X100876100Y-113665000D03*
%TO.P,L_PW_1,2*%
%TO.N,Net-(C_PW_4-Pad1)*%
X102870000Y-113665000D03*
%TD*%
D25*
%TO.P,Q_PW_1,1*%
%TO.N,VS*%
X113779300Y-111696500D03*
%TO.P,Q_PW_1,2*%
%TO.N,+BATT*%
X113779300Y-109791500D03*
%TO.P,Q_PW_1,3*%
%TO.N,Net-(D_PW_1-PadC)*%
X111772700Y-110744000D03*
%TD*%
D26*
%TO.P,R_ESP_1,1*%
%TO.N,Net-(R_ESP_1-Pad1)*%
X92701000Y-85471000D03*
%TO.P,R_ESP_1,2*%
%TO.N,GND*%
X94243000Y-85471000D03*
%TD*%
D27*
%TO.P,R_ESP_2,2*%
%TO.N,Net-(R_ESP_2-Pad2)*%
X90355000Y-82677000D03*
%TO.P,R_ESP_2,1*%
%TO.N,+3V3*%
X88715000Y-82677000D03*
%TD*%
D28*
%TO.P,R_ESP_3,1*%
%TO.N,/ESP32 Chip/ESP32_Pin24*%
X126111000Y-108830000D03*
%TO.P,R_ESP_3,2*%
%TO.N,Net-(LED_ESP_1-Pad2)*%
X126111000Y-110372000D03*
%TD*%
D27*
%TO.P,R_ESP_4,1*%
%TO.N,Net-(R_ESP_4-Pad1)*%
X127566000Y-106426000D03*
%TO.P,R_ESP_4,2*%
%TO.N,+3V3*%
X125926000Y-106426000D03*
%TD*%
D28*
%TO.P,R_ESP_5,2*%
%TO.N,GND*%
X132080000Y-121167000D03*
%TO.P,R_ESP_5,1*%
%TO.N,Net-(R_ESP_5-Pad1)*%
X132080000Y-119625000D03*
%TD*%
D29*
%TO.P,R_IMU_1,1*%
%TO.N,/IMU/IMU_SCL*%
X97409000Y-106114000D03*
%TO.P,R_IMU_1,2*%
%TO.N,+3V3*%
X97409000Y-107754000D03*
%TD*%
%TO.P,R_IMU_2,2*%
%TO.N,/IMU/IMU_SDA*%
X97409000Y-109924000D03*
%TO.P,R_IMU_2,1*%
%TO.N,+3V3*%
X97409000Y-111564000D03*
%TD*%
%TO.P,R_PW_1,2*%
%TO.N,GND*%
X111252000Y-121216000D03*
%TO.P,R_PW_1,1*%
%TO.N,VS*%
X111252000Y-119576000D03*
%TD*%
%TO.P,R_PW_2,1*%
%TO.N,GND*%
X91694000Y-119565000D03*
%TO.P,R_PW_2,2*%
%TO.N,Net-(R_PW_2-Pad2)*%
X91694000Y-117925000D03*
%TD*%
%TO.P,R_PW_3,2*%
%TO.N,Net-(R_PW_2-Pad2)*%
X91694000Y-116517000D03*
%TO.P,R_PW_3,1*%
%TO.N,GND*%
X91694000Y-114877000D03*
%TD*%
%TO.P,R_PW_4,1*%
%TO.N,Net-(C_PW_5-Pad1)*%
X94488000Y-119565000D03*
%TO.P,R_PW_4,2*%
%TO.N,Net-(R_PW_2-Pad2)*%
X94488000Y-117925000D03*
%TD*%
D30*
%TO.P,SW_ESP_1,1*%
%TO.N,Net-(SW_ESP_1-Pad1)*%
X99145001Y-83006999D03*
%TO.P,SW_ESP_1,3*%
%TO.N,/ESP32 Chip/ESP32_EN*%
X99145001Y-79807001D03*
%TO.P,SW_ESP_1,4*%
%TO.N,Net-(R_ESP_2-Pad2)*%
X93894999Y-79807001D03*
%TO.P,SW_ESP_1,2*%
%TO.N,Net-(R_ESP_1-Pad1)*%
X93894999Y-83006999D03*
%TD*%
%TO.P,SW_ESP_2,2*%
%TO.N,Net-(SW_ESP_2-Pad2)*%
X128565999Y-113740999D03*
%TO.P,SW_ESP_2,4*%
%TO.N,/ESP32 Chip/ESP32_Pin25*%
X128565999Y-110541001D03*
%TO.P,SW_ESP_2,3*%
%TO.N,Net-(R_ESP_4-Pad1)*%
X133816001Y-110541001D03*
%TO.P,SW_ESP_2,1*%
%TO.N,Net-(R_ESP_5-Pad1)*%
X133816001Y-113740999D03*
%TD*%
D31*
%TO.P,U_IMU_1,2*%
%TO.N,GND*%
X102980000Y-101858000D03*
%TO.P,U_IMU_1,3*%
X102980000Y-102358000D03*
%TO.P,U_IMU_1,1*%
%TO.N,/IMU/IMU_SDO_SAO*%
X102980000Y-101358000D03*
%TO.P,U_IMU_1,4*%
%TO.N,/IMU/IMU_INT1*%
X102980000Y-102858000D03*
%TO.P,U_IMU_1,10*%
%TO.N,Net-(U_IMU_1-Pad10)*%
X105300000Y-101858000D03*
%TO.P,U_IMU_1,9*%
%TO.N,/IMU/IMU_INT2*%
X105300000Y-102358000D03*
%TO.P,U_IMU_1,11*%
%TO.N,Net-(U_IMU_1-Pad11)*%
X105300000Y-101358000D03*
%TO.P,U_IMU_1,8*%
%TO.N,+3V3*%
X105300000Y-102858000D03*
D32*
%TO.P,U_IMU_1,14*%
%TO.N,/IMU/IMU_SDA*%
X103640000Y-101198000D03*
%TO.P,U_IMU_1,13*%
%TO.N,/IMU/IMU_SCL*%
X104140000Y-101198000D03*
%TO.P,U_IMU_1,12*%
%TO.N,+3V3*%
X104640000Y-101198000D03*
%TO.P,U_IMU_1,5*%
X103640000Y-103018000D03*
%TO.P,U_IMU_1,6*%
%TO.N,GND*%
X104140000Y-103018000D03*
%TO.P,U_IMU_1,7*%
X104640000Y-103018000D03*
%TD*%
D33*
%TO.P,U_CN_1,A1/B12*%
%TO.N,GND*%
X115926000Y-122115000D03*
%TO.P,U_CN_1,A4/B9*%
%TO.N,VS*%
X116726000Y-122115000D03*
%TO.P,U_CN_1,B4/A9*%
X121526000Y-122115000D03*
%TO.P,U_CN_1,B1/A12*%
%TO.N,GND*%
X122326000Y-122115000D03*
D34*
%TO.P,U_CN_1,B8*%
%TO.N,Net-(J_CN_2-Pad4)*%
X117376000Y-122115000D03*
%TO.P,U_CN_1,B5*%
%TO.N,Net-(J_CN_1-Pad1)*%
X120876000Y-122115000D03*
%TO.P,U_CN_1,A5*%
%TO.N,Net-(J_CN_2-Pad3)*%
X117876000Y-122115000D03*
%TO.P,U_CN_1,A8*%
%TO.N,Net-(J_CN_1-Pad2)*%
X120376000Y-122115000D03*
%TO.P,U_CN_1,B7*%
%TO.N,Net-(J_CN_2-Pad2)*%
X118376000Y-122115000D03*
%TO.P,U_CN_1,B6*%
%TO.N,Net-(J_CN_1-Pad3)*%
X119876000Y-122115000D03*
%TO.P,U_CN_1,A6*%
%TO.N,Net-(J_CN_2-Pad1)*%
X118876000Y-122115000D03*
%TO.P,U_CN_1,A7*%
%TO.N,Net-(J_CN_1-Pad4)*%
X119376000Y-122115000D03*
D35*
%TO.P,U_CN_1,S1*%
%TO.N,GND*%
X114016000Y-122690000D03*
%TO.P,U_CN_1,S2*%
X124236000Y-122690000D03*
%TO.P,U_CN_1,S3*%
X114016000Y-126620000D03*
%TO.P,U_CN_1,S4*%
X124236000Y-126620000D03*
%TD*%
D36*
%TO.N,GND*%
X110617000Y-75946000D03*
X106680000Y-93726000D03*
X123587000Y-83700000D03*
X105283000Y-106172000D03*
X99695000Y-117221000D03*
X99695000Y-122428000D03*
X101854000Y-98044000D03*
X95504000Y-113665000D03*
X114016000Y-126620000D03*
X124236000Y-126620000D03*
X100457000Y-102362000D03*
X96266000Y-84709000D03*
%TO.N,+3V3*%
X113919000Y-102108000D03*
X100139500Y-106616500D03*
X107315000Y-109220000D03*
X108458000Y-94488000D03*
X134620000Y-115951000D03*
X106172000Y-77597000D03*
X88900000Y-77597000D03*
%TO.N,Net-(C_PW_2-Pad1)*%
X104140000Y-118999000D03*
X99949000Y-123698000D03*
%TO.N,Net-(C_PW_3-Pad2)*%
X95885000Y-120523000D03*
X96012000Y-117221000D03*
%TO.N,Net-(C_PW_5-Pad1)*%
X96520000Y-121793000D03*
X97028000Y-114808000D03*
%TO.N,VS*%
X113779300Y-113423700D03*
X115697000Y-120523000D03*
X121526000Y-120536000D03*
%TO.N,/IMU/IMU_SDO_SAO*%
X89789000Y-114808000D03*
X98418252Y-104333904D03*
%TO.N,/ESP32 Chip/ESP32_Pin16*%
X108979001Y-105142999D03*
X115343998Y-96520000D03*
%TO.N,/ESP32 Chip/ESP32_Pin24*%
X128905000Y-108331000D03*
%TO.N,/ESP32 Chip/ESP32_Pin25*%
X129413000Y-107315000D03*
%TO.N,/IMU/IMU_INT2*%
X103251000Y-93218000D03*
X113030000Y-92075000D03*
X107569000Y-100711000D03*
%TO.N,/IMU/IMU_INT1*%
X99441000Y-103124000D03*
%TO.N,/IMU/IMU_SCL*%
X96774000Y-104902000D03*
X95758000Y-103378000D03*
%TD*%
D37*
%TO.N,GND*%
X139065000Y-76200000D02*
X139446000Y-76581000D01*
X133087000Y-76200000D02*
X139065000Y-76200000D01*
X110871000Y-76200000D02*
X110617000Y-75946000D01*
X116087000Y-76200000D02*
X110871000Y-76200000D01*
X94485002Y-127637998D02*
X94996000Y-127127000D01*
X91440000Y-127637998D02*
X94485002Y-127637998D01*
X118872000Y-93710000D02*
X118729999Y-93852001D01*
X106696000Y-93710000D02*
X106680000Y-93726000D01*
X118872000Y-93710000D02*
X106696000Y-93710000D01*
X132080000Y-124079000D02*
X131318000Y-124841000D01*
X132080000Y-121167000D02*
X132080000Y-124079000D01*
X139446000Y-124841000D02*
X131318000Y-124841000D01*
X113889000Y-117505000D02*
X114808000Y-116586000D01*
X111252000Y-121216000D02*
X111400000Y-121216000D01*
X120161999Y-101580001D02*
X115714001Y-101580001D01*
X121412000Y-100330000D02*
X120161999Y-101580001D01*
X114157999Y-102981999D02*
X114235001Y-103059001D01*
X110177999Y-102981999D02*
X114157999Y-102981999D01*
X109580998Y-103579000D02*
X110177999Y-102981999D01*
X107696000Y-103579000D02*
X109580998Y-103579000D01*
X114235001Y-103059001D02*
X111376002Y-105918000D01*
X115714001Y-101580001D02*
X114235001Y-103059001D01*
X105082000Y-106373000D02*
X105283000Y-106172000D01*
X102616000Y-106373000D02*
X105082000Y-106373000D01*
X105283000Y-105992000D02*
X107696000Y-103579000D01*
X105283000Y-106172000D02*
X105283000Y-105992000D01*
D38*
X104140000Y-105029000D02*
X105283000Y-106172000D01*
X104140000Y-103018000D02*
X104140000Y-105029000D01*
X104640000Y-103018000D02*
X104640000Y-104640000D01*
X105283000Y-105283000D02*
X105283000Y-106172000D01*
X104640000Y-104640000D02*
X105283000Y-105283000D01*
X91694000Y-114877000D02*
X91694000Y-114808000D01*
X87572000Y-119565000D02*
X85090000Y-122047000D01*
X91694000Y-119565000D02*
X87572000Y-119565000D01*
X98275000Y-118641000D02*
X99695000Y-117221000D01*
X98275000Y-118765000D02*
X98275000Y-118641000D01*
X101115000Y-118641000D02*
X99695000Y-117221000D01*
X101115000Y-118765000D02*
X101115000Y-118641000D01*
D39*
X99695000Y-122428000D02*
X99695000Y-120015000D01*
D37*
X102055000Y-98245000D02*
X101854000Y-98044000D01*
X103632000Y-98245000D02*
X102055000Y-98245000D01*
D39*
X93638000Y-115531000D02*
X95504000Y-113665000D01*
X93638000Y-115697000D02*
X93638000Y-115531000D01*
X94292000Y-114877000D02*
X95504000Y-113665000D01*
X91694000Y-114877000D02*
X94292000Y-114877000D01*
D37*
X124266000Y-124841000D02*
X124236000Y-124811000D01*
X131318000Y-124841000D02*
X124266000Y-124841000D01*
X124236000Y-124811000D02*
X124236000Y-122690000D01*
X124236000Y-126620000D02*
X124236000Y-124811000D01*
X111252000Y-122848000D02*
X111340000Y-122936000D01*
X111252000Y-121216000D02*
X111252000Y-122848000D01*
X113770000Y-122936000D02*
X114016000Y-122690000D01*
X111340000Y-122936000D02*
X113770000Y-122936000D01*
X114046000Y-124841000D02*
X114016000Y-124811000D01*
X114016000Y-124811000D02*
X114016000Y-122690000D01*
X114016000Y-126620000D02*
X114016000Y-124811000D01*
X114591000Y-122115000D02*
X114016000Y-122690000D01*
X115926000Y-122115000D02*
X114591000Y-122115000D01*
X123661000Y-122115000D02*
X124236000Y-122690000D01*
X122326000Y-122115000D02*
X123661000Y-122115000D01*
D39*
X100961000Y-101858000D02*
X100457000Y-102362000D01*
X102980000Y-101858000D02*
X100961000Y-101858000D01*
X100461000Y-102358000D02*
X100457000Y-102362000D01*
X102980000Y-102358000D02*
X100461000Y-102358000D01*
D37*
X95504000Y-85471000D02*
X96266000Y-84709000D01*
X94243000Y-85471000D02*
X95504000Y-85471000D01*
X87630000Y-73787000D02*
X85090000Y-76327000D01*
X93560900Y-73787000D02*
X87630000Y-73787000D01*
X89535000Y-76327000D02*
X85090000Y-76327000D01*
X91225000Y-78017000D02*
X89535000Y-76327000D01*
X102616000Y-78017000D02*
X91225000Y-78017000D01*
D40*
%TO.N,+3V3*%
X116087000Y-77470000D02*
X110490000Y-77470000D01*
X100277000Y-104955000D02*
X102616000Y-104955000D01*
X120904000Y-103378000D02*
X123952000Y-100330000D01*
X120904000Y-109728000D02*
X120904000Y-103378000D01*
X119380000Y-108204000D02*
X120904000Y-109728000D01*
X116840000Y-108204000D02*
X119380000Y-108204000D01*
D38*
X103640000Y-103931000D02*
X102616000Y-104955000D01*
X103640000Y-103018000D02*
X103640000Y-103931000D01*
X106999000Y-102858000D02*
X107696000Y-102161000D01*
X105300000Y-102858000D02*
X106999000Y-102858000D01*
X104640000Y-97835000D02*
X103632000Y-96827000D01*
X104640000Y-101198000D02*
X104640000Y-97835000D01*
D40*
X113866000Y-102161000D02*
X113919000Y-102108000D01*
X103632000Y-96827000D02*
X105499002Y-96827000D01*
X109474000Y-100801998D02*
X109966998Y-100801998D01*
X111326000Y-102161000D02*
X113866000Y-102161000D01*
X109966998Y-100801998D02*
X111326000Y-102161000D01*
X107696000Y-102161000D02*
X111326000Y-102161000D01*
X101801000Y-104955000D02*
X102616000Y-104955000D01*
X100139500Y-106616500D02*
X101801000Y-104955000D01*
X108331000Y-108204000D02*
X116840000Y-108204000D01*
X107315000Y-109220000D02*
X108331000Y-108204000D01*
X108285501Y-94660499D02*
X108458000Y-94488000D01*
X108285501Y-99613499D02*
X108285501Y-94660499D01*
X105499002Y-96827000D02*
X108285501Y-99613499D01*
X108285501Y-99613499D02*
X109474000Y-100801998D01*
X110363000Y-77597000D02*
X110490000Y-77470000D01*
X106172000Y-77597000D02*
X110363000Y-77597000D01*
X98546500Y-106616500D02*
X97409000Y-107754000D01*
X100139500Y-106616500D02*
X98546500Y-106616500D01*
X97409000Y-111564000D02*
X99510000Y-111564000D01*
X100139500Y-110934500D02*
X100139500Y-106616500D01*
X99510000Y-111564000D02*
X100139500Y-110934500D01*
X122624000Y-109728000D02*
X125926000Y-106426000D01*
X120904000Y-109728000D02*
X122624000Y-109728000D01*
X135890000Y-117221000D02*
X134620000Y-115951000D01*
X139446000Y-117221000D02*
X135890000Y-117221000D01*
X88715000Y-82492000D02*
X88715000Y-82677000D01*
X85090000Y-78867000D02*
X88715000Y-82492000D01*
X102362000Y-73787000D02*
X98971100Y-73787000D01*
X106172000Y-77597000D02*
X102362000Y-73787000D01*
X86360000Y-77597000D02*
X85090000Y-78867000D01*
X88900000Y-77597000D02*
X86360000Y-77597000D01*
%TO.N,VDD*%
X107823000Y-121119000D02*
X109640000Y-122936000D01*
X107823000Y-119641000D02*
X107823000Y-121119000D01*
X97536000Y-127127000D02*
X101727000Y-122936000D01*
D39*
X103428599Y-120827599D02*
X105537000Y-122936000D01*
X101269599Y-120827599D02*
X103428599Y-120827599D01*
X101207001Y-120765001D02*
X101269599Y-120827599D01*
X101115000Y-120765001D02*
X101207001Y-120765001D01*
D40*
X105537000Y-122936000D02*
X109640000Y-122936000D01*
X101727000Y-122936000D02*
X105537000Y-122936000D01*
D39*
%TO.N,Net-(C_PW_2-Pad1)*%
X101115000Y-119765000D02*
X103191000Y-119765000D01*
X91509056Y-124907058D02*
X91440000Y-124838002D01*
X98872058Y-124907058D02*
X91509056Y-124907058D01*
D40*
X103374000Y-119765000D02*
X104140000Y-118999000D01*
X98872058Y-124774942D02*
X99949000Y-123698000D01*
X98872058Y-124907058D02*
X98872058Y-124774942D01*
D38*
%TO.N,Net-(C_PW_3-Pad2)*%
X96143000Y-120265000D02*
X95885000Y-120523000D01*
X98275000Y-120265000D02*
X96143000Y-120265000D01*
D40*
X95338000Y-116547000D02*
X96012000Y-117221000D01*
X95338000Y-115697000D02*
X95338000Y-116547000D01*
%TO.N,Net-(C_PW_5-Pad1)*%
X114189998Y-105904000D02*
X114175998Y-105918000D01*
X116840000Y-105904000D02*
X114189998Y-105904000D01*
X107348101Y-107192999D02*
X100876100Y-113665000D01*
X112900999Y-107192999D02*
X107348101Y-107192999D01*
X114175998Y-105918000D02*
X112900999Y-107192999D01*
D38*
X94688000Y-119765000D02*
X94488000Y-119565000D01*
X98275000Y-119765000D02*
X94688000Y-119765000D01*
D40*
X95971000Y-121793000D02*
X96520000Y-121793000D01*
X94488000Y-120310000D02*
X95971000Y-121793000D01*
X94488000Y-119565000D02*
X94488000Y-120310000D01*
X99733100Y-114808000D02*
X100876100Y-113665000D01*
X97028000Y-114808000D02*
X99733100Y-114808000D01*
%TO.N,Net-(D_PW_1-PadC)*%
X109093000Y-117341000D02*
X111252000Y-115182000D01*
X107823000Y-117341000D02*
X109093000Y-117341000D01*
X111252000Y-111264700D02*
X111772700Y-110744000D01*
X111252000Y-115182000D02*
X111252000Y-111264700D01*
%TO.N,VS*%
X111252000Y-117482000D02*
X113779300Y-114954700D01*
X111252000Y-119576000D02*
X111252000Y-117482000D01*
X113779300Y-113423700D02*
X113779300Y-111696500D01*
X113779300Y-114954700D02*
X113779300Y-113423700D01*
X121526000Y-116726000D02*
X121666000Y-116586000D01*
X116726000Y-121190000D02*
X116059000Y-120523000D01*
X116726000Y-122115000D02*
X116726000Y-121190000D01*
X116059000Y-120523000D02*
X115697000Y-120523000D01*
X121526000Y-120536000D02*
X121526000Y-116726000D01*
X121526000Y-122115000D02*
X121526000Y-120536000D01*
%TO.N,+BATT*%
X113779300Y-109791500D02*
X117284500Y-109791500D01*
X119126000Y-111633000D02*
X119126000Y-116586000D01*
X117284500Y-109791500D02*
X119126000Y-111633000D01*
D39*
%TO.N,Net-(C_PW_4-Pad1)*%
X101754001Y-119264999D02*
X103925000Y-117094000D01*
X101115000Y-119264999D02*
X101754001Y-119264999D01*
D40*
X102870000Y-116039000D02*
X103925000Y-117094000D01*
X102870000Y-113665000D02*
X102870000Y-116039000D01*
D39*
%TO.N,Net-(LED_ESP_1-Pad2)*%
X127000000Y-111261000D02*
X126111000Y-110372000D01*
X127000000Y-117576500D02*
X127000000Y-111261000D01*
X129540000Y-120116500D02*
X127000000Y-117576500D01*
%TO.N,Net-(R_ESP_1-Pad1)*%
X92701000Y-84200998D02*
X93894999Y-83006999D01*
X92701000Y-85471000D02*
X92701000Y-84200998D01*
%TO.N,Net-(R_ESP_2-Pad2)*%
X93224999Y-79807001D02*
X90355000Y-82677000D01*
X93894999Y-79807001D02*
X93224999Y-79807001D01*
%TO.N,Net-(R_ESP_4-Pad1)*%
X129701000Y-106426000D02*
X133816001Y-110541001D01*
X127566000Y-106426000D02*
X129701000Y-106426000D01*
%TO.N,Net-(R_ESP_5-Pad1)*%
X133816001Y-117888999D02*
X132080000Y-119625000D01*
X133816001Y-113740999D02*
X133816001Y-117888999D01*
D38*
%TO.N,Net-(R_PW_2-Pad2)*%
X91694000Y-117094000D02*
X91694000Y-116517000D01*
X95827999Y-119264999D02*
X94488000Y-117925000D01*
X98275000Y-119264999D02*
X95827999Y-119264999D01*
X94488000Y-117925000D02*
X93541000Y-117925000D01*
X92837000Y-117221000D02*
X91694000Y-117221000D01*
X93541000Y-117925000D02*
X92837000Y-117221000D01*
X91694000Y-117221000D02*
X91694000Y-117094000D01*
X91694000Y-117925000D02*
X91694000Y-117221000D01*
D39*
%TO.N,Net-(C_PW_4-Pad2)*%
X101115000Y-120265000D02*
X104779000Y-120265000D01*
X105625000Y-119419000D02*
X105625000Y-117094000D01*
X104779000Y-120265000D02*
X105625000Y-119419000D01*
%TO.N,Net-(J_CN_1-Pad4)*%
X122376080Y-129190031D02*
X133191969Y-129190031D01*
X133191969Y-129190031D02*
X135255000Y-127127000D01*
X119376000Y-126189951D02*
X122376080Y-129190031D01*
X119376000Y-122115000D02*
X119376000Y-126189951D01*
%TO.N,Net-(J_CN_1-Pad3)*%
X131071979Y-128770021D02*
X132715000Y-127127000D01*
X119876000Y-126095968D02*
X122550053Y-128770021D01*
X122550053Y-128770021D02*
X131071979Y-128770021D01*
X119876000Y-122115000D02*
X119876000Y-126095968D01*
%TO.N,Net-(J_CN_1-Pad2)*%
X122724026Y-128350011D02*
X128951989Y-128350011D01*
X120376000Y-126001985D02*
X122724026Y-128350011D01*
X128951989Y-128350011D02*
X130175000Y-127127000D01*
X120376000Y-122115000D02*
X120376000Y-126001985D01*
%TO.N,Net-(J_CN_1-Pad1)*%
X126831999Y-127930001D02*
X127635000Y-127127000D01*
X122897999Y-127930001D02*
X126831999Y-127930001D01*
X120876000Y-125908002D02*
X122897999Y-127930001D01*
X120876000Y-122115000D02*
X120876000Y-125908002D01*
%TO.N,Net-(J_CN_2-Pad4)*%
X109896001Y-127930001D02*
X109093000Y-127127000D01*
X115354001Y-127930001D02*
X109896001Y-127930001D01*
X117376000Y-125908002D02*
X115354001Y-127930001D01*
X117376000Y-122115000D02*
X117376000Y-125908002D01*
%TO.N,Net-(J_CN_2-Pad3)*%
X107776011Y-128350011D02*
X106553000Y-127127000D01*
X115527974Y-128350011D02*
X107776011Y-128350011D01*
X117876000Y-126001984D02*
X115527974Y-128350011D01*
X117876000Y-122115000D02*
X117876000Y-126001984D01*
%TO.N,Net-(J_CN_2-Pad2)*%
X105656021Y-128770021D02*
X104013000Y-127127000D01*
X115701947Y-128770021D02*
X105656021Y-128770021D01*
X118376000Y-126095968D02*
X115701947Y-128770021D01*
X118376000Y-122115000D02*
X118376000Y-126095968D01*
%TO.N,Net-(J_CN_2-Pad1)*%
X115875920Y-129190031D02*
X103536031Y-129190031D01*
X118876000Y-126189950D02*
X115875920Y-129190031D01*
X103536031Y-129190031D02*
X101473000Y-127127000D01*
X118876000Y-122115000D02*
X118876000Y-126189950D01*
%TO.N,/IMU/IMU_SDO_SAO*%
X85090000Y-116967000D02*
X87630000Y-116967000D01*
X87630000Y-116967000D02*
X89789000Y-114808000D01*
X98418252Y-102809946D02*
X100009198Y-101219000D01*
X98418252Y-104333904D02*
X98418252Y-102809946D01*
X102841000Y-101219000D02*
X102980000Y-101358000D01*
X100009198Y-101219000D02*
X102841000Y-101219000D01*
%TO.N,/ESP32 Chip/ESP32_Pin16*%
X86657301Y-112859699D02*
X100754301Y-112859699D01*
X85090000Y-114427000D02*
X86657301Y-112859699D01*
X108471001Y-105142999D02*
X108979001Y-105142999D01*
X100754301Y-112859699D02*
X108471001Y-105142999D01*
X118552000Y-96520000D02*
X115343998Y-96520000D01*
X120142000Y-94930000D02*
X118552000Y-96520000D01*
X120142000Y-93710000D02*
X120142000Y-94930000D01*
%TO.N,/ESP32 Chip/ESP32_Pin14*%
X88265000Y-109347000D02*
X88773000Y-109855000D01*
X85090000Y-109347000D02*
X88265000Y-109347000D01*
X106220998Y-92710000D02*
X116087000Y-92710000D01*
X104775000Y-92710000D02*
X106220998Y-92710000D01*
X92473001Y-105011999D02*
X104775000Y-92710000D01*
X91869801Y-107205001D02*
X92473001Y-106601801D01*
X92473001Y-106601801D02*
X92473001Y-105011999D01*
X91422999Y-107205001D02*
X91869801Y-107205001D01*
X88773000Y-109855000D02*
X91422999Y-107205001D01*
%TO.N,/ESP32 Chip/ESP32_Pin13*%
X88011000Y-106807000D02*
X88773000Y-106045000D01*
X85090000Y-106807000D02*
X88011000Y-106807000D01*
X90921003Y-104884999D02*
X94107000Y-101699002D01*
X89933001Y-104884999D02*
X90921003Y-104884999D01*
X88773000Y-106045000D02*
X89933001Y-104884999D01*
X94107000Y-101699002D02*
X94107000Y-98171000D01*
X100838000Y-91440000D02*
X116087000Y-91440000D01*
X94107000Y-98171000D02*
X100838000Y-91440000D01*
%TO.N,/ESP32 Chip/ESP32_Pin12*%
X86741000Y-104267000D02*
X88773000Y-102235000D01*
X85090000Y-104267000D02*
X86741000Y-104267000D01*
X88773000Y-102235000D02*
X90678000Y-100330000D01*
X91124802Y-100330000D02*
X96520000Y-94934802D01*
X90678000Y-100330000D02*
X91124802Y-100330000D01*
X96520000Y-94934802D02*
X96708198Y-94934802D01*
X101473000Y-90170000D02*
X116087000Y-90170000D01*
X96708198Y-94934802D02*
X101473000Y-90170000D01*
%TO.N,/ESP32 Chip/ESP32_Pin11*%
X88392000Y-98425000D02*
X88773000Y-98425000D01*
X85090000Y-101727000D02*
X88392000Y-98425000D01*
X88773000Y-98425000D02*
X88773000Y-97409000D01*
X92416990Y-93765010D02*
X97115990Y-93765010D01*
X88773000Y-97409000D02*
X92416990Y-93765010D01*
X101981000Y-88900000D02*
X116087000Y-88900000D01*
X97115990Y-93765010D02*
X101981000Y-88900000D01*
%TO.N,/ESP32 Chip/ESP32_Pin10*%
X85090000Y-99187000D02*
X90932000Y-93345000D01*
X90932000Y-93345000D02*
X96647000Y-93345000D01*
X102362000Y-87630000D02*
X116087000Y-87630000D01*
X96647000Y-93345000D02*
X102362000Y-87630000D01*
%TO.N,/ESP32 Chip/ESP32_Pin9*%
X116087000Y-86360000D02*
X102743000Y-86360000D01*
X102743000Y-86360000D02*
X96393000Y-92710000D01*
X85090000Y-96647000D02*
X87376000Y-94361000D01*
X87376000Y-94361000D02*
X87376000Y-93218000D01*
X87884000Y-92710000D02*
X96393000Y-92710000D01*
X87376000Y-93218000D02*
X87884000Y-92710000D01*
%TO.N,/ESP32 Chip/ESP32_Pin8*%
X85090000Y-94107000D02*
X87122000Y-92075000D01*
X87122000Y-92075000D02*
X96139000Y-92075000D01*
X98552000Y-89662000D02*
X98552000Y-89579964D01*
X96139000Y-92075000D02*
X98552000Y-89662000D01*
X103041964Y-85090000D02*
X116087000Y-85090000D01*
X98552000Y-89579964D02*
X103041964Y-85090000D01*
%TO.N,/ESP32 Chip/ESP32_Pin7*%
X95970982Y-91567000D02*
X85090000Y-91567000D01*
X103717982Y-83820000D02*
X95970982Y-91567000D01*
X116087000Y-83820000D02*
X103717982Y-83820000D01*
%TO.N,/ESP32 Chip/ESP32_Pin6*%
X85090000Y-89027000D02*
X97917000Y-89027000D01*
X104394000Y-82550000D02*
X116087000Y-82550000D01*
X97917000Y-89027000D02*
X104394000Y-82550000D01*
%TO.N,/ESP32 Chip/ESP32_Pin5*%
X86741000Y-88138000D02*
X85090000Y-86487000D01*
X97409000Y-88138000D02*
X86741000Y-88138000D01*
X104267000Y-81280000D02*
X97409000Y-88138000D01*
X116087000Y-81280000D02*
X104267000Y-81280000D01*
%TO.N,/ESP32 Chip/ESP32_Pin4*%
X85090000Y-83947000D02*
X85939999Y-84796999D01*
X104140000Y-80010000D02*
X116087000Y-80010000D01*
X99353001Y-84796999D02*
X104140000Y-80010000D01*
X99353001Y-84796999D02*
X99353001Y-85050999D01*
X99353001Y-85050999D02*
X96901000Y-87503000D01*
X88646000Y-87503000D02*
X85090000Y-83947000D01*
X96901000Y-87503000D02*
X88646000Y-87503000D01*
D40*
%TO.N,/ESP32 Chip/ESP32_EN*%
X103593000Y-78740000D02*
X116087000Y-78740000D01*
X102616000Y-79717000D02*
X103593000Y-78740000D01*
X102616000Y-79835002D02*
X102616000Y-79717000D01*
X85090000Y-81407000D02*
X88519000Y-84836000D01*
X88519000Y-84836000D02*
X88519000Y-84963000D01*
X90551000Y-86995000D02*
X96266000Y-86995000D01*
X88519000Y-84963000D02*
X90551000Y-86995000D01*
X102616000Y-80645000D02*
X102616000Y-79717000D01*
X96266000Y-86995000D02*
X102616000Y-80645000D01*
X102525999Y-79807001D02*
X102616000Y-79717000D01*
X99145001Y-79807001D02*
X102525999Y-79807001D01*
D39*
%TO.N,/ESP32 Chip/ESP32_Pin23*%
X137865989Y-113100989D02*
X139446000Y-114681000D01*
X137865989Y-110227987D02*
X137865989Y-113100989D01*
X134834990Y-107196988D02*
X137865989Y-110227987D01*
X134834990Y-101876188D02*
X134834990Y-107196988D01*
X129032000Y-96073198D02*
X134834990Y-101876188D01*
X129032000Y-93710000D02*
X129032000Y-96073198D01*
%TO.N,/ESP32 Chip/ESP32_Pin24*%
X138285999Y-109034981D02*
X135255000Y-106003982D01*
X138285999Y-110980999D02*
X138285999Y-109034981D01*
X139446000Y-112141000D02*
X138285999Y-110980999D01*
X135255000Y-98663000D02*
X130302000Y-93710000D01*
X135255000Y-106003982D02*
X135255000Y-98663000D01*
X128406000Y-108830000D02*
X128905000Y-108331000D01*
X126111000Y-108830000D02*
X128406000Y-108830000D01*
%TO.N,/ESP32 Chip/ESP32_Pin25*%
X133087000Y-92710000D02*
X134366000Y-92710000D01*
X135765939Y-105920939D02*
X139446000Y-109601000D01*
X135765939Y-94109939D02*
X135765939Y-105920939D01*
X134366000Y-92710000D02*
X135765939Y-94109939D01*
X129712999Y-107614999D02*
X129413000Y-107315000D01*
X129712999Y-109394001D02*
X129712999Y-107614999D01*
X128565999Y-110541001D02*
X129712999Y-109394001D01*
%TO.N,/ESP32 Chip/ESP32_Pin26*%
X136185949Y-93318949D02*
X136185949Y-103800949D01*
X134307000Y-91440000D02*
X136185949Y-93318949D01*
X136185949Y-103800949D02*
X139446000Y-107061000D01*
X133087000Y-91440000D02*
X134307000Y-91440000D01*
%TO.N,/ESP32 Chip/ESP32_Pin27*%
X136605959Y-101680959D02*
X139446000Y-104521000D01*
X136605959Y-92950957D02*
X136605959Y-101680959D01*
X133825002Y-90170000D02*
X136605959Y-92950957D01*
X133087000Y-90170000D02*
X133825002Y-90170000D01*
%TO.N,/ESP32 Chip/ESP32_Pin28*%
X137025969Y-99560969D02*
X139446000Y-101981000D01*
X137025969Y-91618969D02*
X137025969Y-99560969D01*
X134307000Y-88900000D02*
X137025969Y-91618969D01*
X133087000Y-88900000D02*
X134307000Y-88900000D01*
%TO.N,/ESP32 Chip/ESP32_Pin29*%
X137445979Y-97440979D02*
X139446000Y-99441000D01*
X134307000Y-87630000D02*
X137445979Y-90768979D01*
X137445979Y-90768979D02*
X137445979Y-97440979D01*
X133087000Y-87630000D02*
X134307000Y-87630000D01*
%TO.N,/ESP32 Chip/ESP32_Pin30*%
X137865989Y-95320989D02*
X139446000Y-96901000D01*
X137865989Y-89918989D02*
X137865989Y-95320989D01*
X134307000Y-86360000D02*
X137865989Y-89918989D01*
X133087000Y-86360000D02*
X134307000Y-86360000D01*
%TO.N,/ESP32 Chip/ESP32_Pin31*%
X138285999Y-93200999D02*
X139446000Y-94361000D01*
X138285999Y-89068999D02*
X138285999Y-93200999D01*
X134307000Y-85090000D02*
X138285999Y-89068999D01*
X133087000Y-85090000D02*
X134307000Y-85090000D01*
%TO.N,/ESP32 Chip/ESP32_Pin33*%
X138285999Y-88120999D02*
X139446000Y-89281000D01*
X138285999Y-86528999D02*
X138285999Y-88120999D01*
X134307000Y-82550000D02*
X138285999Y-86528999D01*
X133087000Y-82550000D02*
X134307000Y-82550000D01*
%TO.N,/ESP32 Chip/ESP32_RX0*%
X133985000Y-81280000D02*
X139446000Y-86741000D01*
X133087000Y-81280000D02*
X133985000Y-81280000D01*
%TO.N,/ESP32 Chip/ESP32_TX0*%
X135255000Y-80010000D02*
X139446000Y-84201000D01*
X133087000Y-80010000D02*
X135255000Y-80010000D01*
%TO.N,/ESP32 Chip/ESP32_Pin36*%
X136525000Y-78740000D02*
X139446000Y-81661000D01*
X133087000Y-78740000D02*
X136525000Y-78740000D01*
%TO.N,/ESP32 Chip/ESP32_Pin37*%
X137795000Y-77470000D02*
X139446000Y-79121000D01*
X133087000Y-77470000D02*
X137795000Y-77470000D01*
%TO.N,/ESP32 Chip/ESP32_Pin22*%
X127762000Y-96520000D02*
X131572000Y-100330000D01*
X127762000Y-93710000D02*
X127762000Y-96520000D01*
%TO.N,/ESP32 Chip/ESP32_Pin21*%
X126492000Y-97790000D02*
X129032000Y-100330000D01*
X126492000Y-93710000D02*
X126492000Y-97790000D01*
%TO.N,/ESP32 Chip/ESP32_Pin20*%
X125222000Y-99060000D02*
X126492000Y-100330000D01*
X125222000Y-93710000D02*
X125222000Y-99060000D01*
%TO.N,/ESP32 Chip/ESP32_Pin19*%
X123952000Y-95250000D02*
X123952000Y-93710000D01*
X118872000Y-100330000D02*
X123952000Y-95250000D01*
%TO.N,/ESP32 Chip/ESP32_Pin18*%
X122682000Y-94640784D02*
X116992784Y-100330000D01*
X116992784Y-100330000D02*
X116332000Y-100330000D01*
X122682000Y-93710000D02*
X122682000Y-94640784D01*
%TO.N,/ESP32 Chip/ESP32_Pin17*%
X114952001Y-99169999D02*
X113792000Y-100330000D01*
X117558803Y-99169999D02*
X114952001Y-99169999D01*
X121412000Y-95316802D02*
X117558803Y-99169999D01*
X121412000Y-93710000D02*
X121412000Y-95316802D01*
%TO.N,/IMU/IMU_INT2*%
X103251000Y-93218000D02*
X104267000Y-92202000D01*
X105970998Y-102358000D02*
X105300000Y-102358000D01*
X104394000Y-92075000D02*
X104267000Y-92202000D01*
X113030000Y-92075000D02*
X104394000Y-92075000D01*
X105970998Y-102309002D02*
X107569000Y-100711000D01*
X105970998Y-102358000D02*
X105970998Y-102309002D01*
%TO.N,/IMU/IMU_INT1*%
X102714000Y-103124000D02*
X102980000Y-102858000D01*
X99441000Y-103124000D02*
X102714000Y-103124000D01*
%TO.N,/IMU/IMU_SCL*%
X104140000Y-99822000D02*
X104140000Y-101198000D01*
X103378000Y-99060000D02*
X104140000Y-99822000D01*
X100464980Y-99060000D02*
X103378000Y-99060000D01*
X96774000Y-105479000D02*
X97409000Y-106114000D01*
X96774000Y-104902000D02*
X96774000Y-105479000D01*
X100076000Y-99060000D02*
X100464980Y-99060000D01*
X95758000Y-103378000D02*
X100076000Y-99060000D01*
D38*
%TO.N,/IMU/IMU_SDA*%
X91313000Y-109855000D02*
X94292000Y-109855000D01*
D39*
X97340000Y-109855000D02*
X97409000Y-109924000D01*
X94292000Y-109855000D02*
X97340000Y-109855000D01*
X103640000Y-99915982D02*
X103640000Y-101198000D01*
X103204028Y-99480010D02*
X103640000Y-99915982D01*
X101154206Y-99480010D02*
X103204028Y-99480010D01*
X94292000Y-106342216D02*
X101154206Y-99480010D01*
X94292000Y-109855000D02*
X94292000Y-106342216D01*
%TD*%
M02*
