%TF.GenerationSoftware,KiCad,Pcbnew,(5.1.7)-1*%
%TF.CreationDate,2020-11-24T16:35:41-08:00*%
%TF.ProjectId,esp32_sensor,65737033-325f-4736-956e-736f722e6b69,v0.0.2*%
%TF.SameCoordinates,Original*%
%TF.FileFunction,Copper,L2,Bot*%
%TF.FilePolarity,Positive*%
%FSLAX46Y46*%
G04 Gerber Fmt 4.6, Leading zero omitted, Abs format (unit mm)*
G04 Created by KiCad (PCBNEW (5.1.7)-1) date 2020-11-24 16:35:41*
%MOMM*%
%LPD*%
G01*
G04 APERTURE LIST*
%TA.AperFunction,ComponentPad*%
%ADD10O,1.700000X1.700000*%
%TD*%
%TA.AperFunction,ComponentPad*%
%ADD11R,1.700000X1.700000*%
%TD*%
%TA.AperFunction,ViaPad*%
%ADD12C,0.500000*%
%TD*%
%TA.AperFunction,Conductor*%
%ADD13C,0.400000*%
%TD*%
%TA.AperFunction,Conductor*%
%ADD14C,0.200000*%
%TD*%
%TA.AperFunction,Conductor*%
%ADD15C,0.220000*%
%TD*%
%TA.AperFunction,Conductor*%
%ADD16C,0.350000*%
%TD*%
%TA.AperFunction,Conductor*%
%ADD17C,0.254000*%
%TD*%
%TA.AperFunction,Conductor*%
%ADD18C,0.100000*%
%TD*%
G04 APERTURE END LIST*
D10*
%TO.P,J_PW_2,2*%
%TO.N,VDD*%
X97536000Y-127127000D03*
D11*
%TO.P,J_PW_2,1*%
%TO.N,GND*%
X94996000Y-127127000D03*
%TD*%
D10*
%TO.P,J_7,2*%
%TO.N,/ESP32 Chip/ESP32_Pin14*%
X88773000Y-109855000D03*
D11*
%TO.P,J_7,1*%
%TO.N,/IMU/IMU_SDA*%
X91313000Y-109855000D03*
%TD*%
D10*
%TO.P,J_6,2*%
%TO.N,/IMU/IMU_SCL*%
X91313000Y-106045000D03*
D11*
%TO.P,J_6,1*%
%TO.N,/ESP32 Chip/ESP32_Pin13*%
X88773000Y-106045000D03*
%TD*%
D10*
%TO.P,J_5,2*%
%TO.N,/ESP32 Chip/ESP32_Pin12*%
X88773000Y-102235000D03*
D11*
%TO.P,J_5,1*%
%TO.N,/IMU/IMU_INT1*%
X91313000Y-102235000D03*
%TD*%
D10*
%TO.P,J_4,2*%
%TO.N,/IMU/IMU_INT2*%
X91313000Y-98425000D03*
D11*
%TO.P,J_4,1*%
%TO.N,/ESP32 Chip/ESP32_Pin11*%
X88773000Y-98425000D03*
%TD*%
D10*
%TO.P,J_3,8*%
%TO.N,/ESP32 Chip/ESP32_Pin22*%
X131572000Y-100330000D03*
%TO.P,J_3,7*%
%TO.N,/ESP32 Chip/ESP32_Pin21*%
X129032000Y-100330000D03*
%TO.P,J_3,6*%
%TO.N,/ESP32 Chip/ESP32_Pin20*%
X126492000Y-100330000D03*
%TO.P,J_3,5*%
%TO.N,+3V3*%
X123952000Y-100330000D03*
%TO.P,J_3,4*%
%TO.N,GND*%
X121412000Y-100330000D03*
%TO.P,J_3,3*%
%TO.N,/ESP32 Chip/ESP32_Pin19*%
X118872000Y-100330000D03*
%TO.P,J_3,2*%
%TO.N,/ESP32 Chip/ESP32_Pin18*%
X116332000Y-100330000D03*
D11*
%TO.P,J_3,1*%
%TO.N,/ESP32 Chip/ESP32_Pin17*%
X113792000Y-100330000D03*
%TD*%
D10*
%TO.P,J_2,20*%
%TO.N,GND*%
X139446000Y-124841000D03*
%TO.P,J_2,19*%
%TO.N,VS*%
X139446000Y-122301000D03*
%TO.P,J_2,18*%
%TO.N,Net-(J_2-Pad18)*%
X139446000Y-119761000D03*
%TO.P,J_2,17*%
%TO.N,+3V3*%
X139446000Y-117221000D03*
%TO.P,J_2,16*%
%TO.N,/ESP32 Chip/ESP32_Pin23*%
X139446000Y-114681000D03*
%TO.P,J_2,15*%
%TO.N,/ESP32 Chip/ESP32_Pin24*%
X139446000Y-112141000D03*
%TO.P,J_2,14*%
%TO.N,/ESP32 Chip/ESP32_Pin25*%
X139446000Y-109601000D03*
%TO.P,J_2,13*%
%TO.N,/ESP32 Chip/ESP32_Pin26*%
X139446000Y-107061000D03*
%TO.P,J_2,12*%
%TO.N,/ESP32 Chip/ESP32_Pin27*%
X139446000Y-104521000D03*
%TO.P,J_2,11*%
%TO.N,/ESP32 Chip/ESP32_Pin28*%
X139446000Y-101981000D03*
%TO.P,J_2,10*%
%TO.N,/ESP32 Chip/ESP32_Pin29*%
X139446000Y-99441000D03*
%TO.P,J_2,9*%
%TO.N,/ESP32 Chip/ESP32_Pin30*%
X139446000Y-96901000D03*
%TO.P,J_2,8*%
%TO.N,/ESP32 Chip/ESP32_Pin31*%
X139446000Y-94361000D03*
%TO.P,J_2,7*%
%TO.N,Net-(J_2-Pad7)*%
X139446000Y-91821000D03*
%TO.P,J_2,6*%
%TO.N,/ESP32 Chip/ESP32_Pin33*%
X139446000Y-89281000D03*
%TO.P,J_2,5*%
%TO.N,/ESP32 Chip/ESP32_RX0*%
X139446000Y-86741000D03*
%TO.P,J_2,4*%
%TO.N,/ESP32 Chip/ESP32_TX0*%
X139446000Y-84201000D03*
%TO.P,J_2,3*%
%TO.N,/ESP32 Chip/ESP32_Pin36*%
X139446000Y-81661000D03*
%TO.P,J_2,2*%
%TO.N,/ESP32 Chip/ESP32_Pin37*%
X139446000Y-79121000D03*
D11*
%TO.P,J_2,1*%
%TO.N,GND*%
X139446000Y-76581000D03*
%TD*%
D10*
%TO.P,J_1,20*%
%TO.N,VDD*%
X85090000Y-124587000D03*
%TO.P,J_1,19*%
%TO.N,GND*%
X85090000Y-122047000D03*
%TO.P,J_1,18*%
%TO.N,Net-(J_1-Pad18)*%
X85090000Y-119507000D03*
%TO.P,J_1,17*%
%TO.N,/IMU/IMU_SDO_SAO*%
X85090000Y-116967000D03*
%TO.P,J_1,16*%
%TO.N,/ESP32 Chip/ESP32_Pin16*%
X85090000Y-114427000D03*
%TO.P,J_1,15*%
%TO.N,Net-(J_1-Pad15)*%
X85090000Y-111887000D03*
%TO.P,J_1,14*%
%TO.N,/ESP32 Chip/ESP32_Pin14*%
X85090000Y-109347000D03*
%TO.P,J_1,13*%
%TO.N,/ESP32 Chip/ESP32_Pin13*%
X85090000Y-106807000D03*
%TO.P,J_1,12*%
%TO.N,/ESP32 Chip/ESP32_Pin12*%
X85090000Y-104267000D03*
%TO.P,J_1,11*%
%TO.N,/ESP32 Chip/ESP32_Pin11*%
X85090000Y-101727000D03*
%TO.P,J_1,10*%
%TO.N,/ESP32 Chip/ESP32_Pin10*%
X85090000Y-99187000D03*
%TO.P,J_1,9*%
%TO.N,/ESP32 Chip/ESP32_Pin9*%
X85090000Y-96647000D03*
%TO.P,J_1,8*%
%TO.N,/ESP32 Chip/ESP32_Pin8*%
X85090000Y-94107000D03*
%TO.P,J_1,7*%
%TO.N,/ESP32 Chip/ESP32_Pin7*%
X85090000Y-91567000D03*
%TO.P,J_1,6*%
%TO.N,/ESP32 Chip/ESP32_Pin6*%
X85090000Y-89027000D03*
%TO.P,J_1,5*%
%TO.N,/ESP32 Chip/ESP32_Pin5*%
X85090000Y-86487000D03*
%TO.P,J_1,4*%
%TO.N,/ESP32 Chip/ESP32_Pin4*%
X85090000Y-83947000D03*
%TO.P,J_1,3*%
%TO.N,/ESP32 Chip/ESP32_EN*%
X85090000Y-81407000D03*
%TO.P,J_1,2*%
%TO.N,+3V3*%
X85090000Y-78867000D03*
D11*
%TO.P,J_1,1*%
%TO.N,GND*%
X85090000Y-76327000D03*
%TD*%
%TO.P,J_PW_3,1*%
%TO.N,+3V3*%
X120904000Y-109728000D03*
%TD*%
D10*
%TO.P,J_PW_1,2*%
%TO.N,VS*%
X121666000Y-116586000D03*
D11*
%TO.P,J_PW_1,1*%
%TO.N,+BATT*%
X119126000Y-116586000D03*
%TD*%
%TO.P,J_CN_4,1*%
%TO.N,GND*%
X114808000Y-116586000D03*
%TD*%
%TO.P,J_CN_3,1*%
%TO.N,VS*%
X125476000Y-116586000D03*
%TD*%
D10*
%TO.P,J_CN_2,4*%
%TO.N,Net-(J_CN_2-Pad4)*%
X128016000Y-127254000D03*
%TO.P,J_CN_2,3*%
%TO.N,Net-(J_CN_2-Pad3)*%
X130556000Y-127254000D03*
%TO.P,J_CN_2,2*%
%TO.N,Net-(J_CN_2-Pad2)*%
X133096000Y-127254000D03*
D11*
%TO.P,J_CN_2,1*%
%TO.N,Net-(J_CN_2-Pad1)*%
X135636000Y-127254000D03*
%TD*%
D10*
%TO.P,J_CN_1,4*%
%TO.N,Net-(J_CN_1-Pad4)*%
X102489000Y-127127000D03*
%TO.P,J_CN_1,3*%
%TO.N,Net-(J_CN_1-Pad3)*%
X105029000Y-127127000D03*
%TO.P,J_CN_1,2*%
%TO.N,Net-(J_CN_1-Pad2)*%
X107569000Y-127127000D03*
D11*
%TO.P,J_CN_1,1*%
%TO.N,Net-(J_CN_1-Pad1)*%
X110109000Y-127127000D03*
%TD*%
D12*
%TO.N,GND*%
X110617000Y-75946000D03*
X97409000Y-83566000D03*
X106680000Y-93726000D03*
X123587000Y-83700000D03*
X105283000Y-106172000D03*
X100076000Y-101981000D03*
X99695000Y-117221000D03*
X99695000Y-122428000D03*
X101854000Y-98044000D03*
X95504000Y-113665000D03*
%TO.N,+3V3*%
X113919000Y-102108000D03*
X100139500Y-106616500D03*
X107315000Y-109220000D03*
X108458000Y-94488000D03*
X106172000Y-77597000D03*
X90678000Y-76708000D03*
X134620000Y-115951000D03*
%TO.N,Net-(C_PW_2-Pad1)*%
X103251000Y-119705000D03*
X98872058Y-124907058D03*
%TO.N,Net-(C_PW_3-Pad2)*%
X95885000Y-120523000D03*
X95604409Y-118263591D03*
%TO.N,Net-(C_PW_5-Pad1)*%
X96520000Y-121793000D03*
X97028000Y-114808000D03*
%TO.N,VS*%
X114427000Y-127508000D03*
X123952000Y-127508000D03*
X113779300Y-113423700D03*
%TO.N,/IMU/IMU_SDO_SAO*%
X89789000Y-114808000D03*
X98418252Y-104333904D03*
%TO.N,/ESP32 Chip/ESP32_Pin16*%
X110490000Y-103632000D03*
X119380000Y-96520000D03*
%TO.N,/ESP32 Chip/ESP32_Pin24*%
X128905000Y-108331000D03*
%TO.N,/ESP32 Chip/ESP32_Pin25*%
X130302000Y-108331000D03*
%TO.N,/IMU/IMU_INT2*%
X103251000Y-93218000D03*
X108458000Y-100711000D03*
X112903000Y-92150000D03*
%TO.N,/IMU/IMU_INT1*%
X99187000Y-102870000D03*
%TO.N,/IMU/IMU_SCL*%
X96774000Y-104902000D03*
X95035479Y-104687479D03*
%TD*%
D13*
%TO.N,GND*%
X85471000Y-75946000D02*
X85090000Y-76327000D01*
X110617000Y-75946000D02*
X85471000Y-75946000D01*
X85090000Y-76327000D02*
X87884000Y-79121000D01*
X87884000Y-79121000D02*
X90678000Y-79121000D01*
X95123000Y-83566000D02*
X97409000Y-83566000D01*
X90678000Y-79121000D02*
X95123000Y-83566000D01*
X89916000Y-122047000D02*
X94996000Y-127127000D01*
X85090000Y-122047000D02*
X89916000Y-122047000D01*
X106680000Y-93726000D02*
X105283000Y-93726000D01*
X105156000Y-93599000D02*
X105156000Y-94615000D01*
X105283000Y-93726000D02*
X105156000Y-93599000D01*
X105156000Y-93599000D02*
X95123000Y-83566000D01*
X121412000Y-85875000D02*
X123587000Y-83700000D01*
X121412000Y-100330000D02*
X121412000Y-85875000D01*
X118371000Y-83700000D02*
X110617000Y-75946000D01*
X123587000Y-83700000D02*
X118371000Y-83700000D01*
X132327000Y-83700000D02*
X139446000Y-76581000D01*
X123587000Y-83700000D02*
X132327000Y-83700000D01*
X102743000Y-103632000D02*
X105283000Y-106172000D01*
D14*
X99695000Y-122428000D02*
X94996000Y-127127000D01*
X99695000Y-117221000D02*
X99695000Y-122428000D01*
X114173000Y-117221000D02*
X114808000Y-116586000D01*
X99695000Y-117221000D02*
X114173000Y-117221000D01*
X114808000Y-116586000D02*
X114808000Y-115697000D01*
D13*
X101727000Y-103632000D02*
X100076000Y-101981000D01*
X102743000Y-103632000D02*
X101727000Y-103632000D01*
X100076000Y-101981000D02*
X100076000Y-99695000D01*
X101790500Y-97980500D02*
X101854000Y-98044000D01*
X100076000Y-99695000D02*
X101790500Y-97980500D01*
X101790500Y-97980500D02*
X105156000Y-94615000D01*
D15*
X95504000Y-113665000D02*
X96075500Y-113093500D01*
D13*
X112204500Y-113093500D02*
X105283000Y-106172000D01*
D15*
X96075500Y-113093500D02*
X112204500Y-113093500D01*
D13*
X114808000Y-115697000D02*
X112204500Y-113093500D01*
D16*
%TO.N,+3V3*%
X123952000Y-100330000D02*
X123444000Y-100330000D01*
X120904000Y-109093000D02*
X120904000Y-109728000D01*
X113919000Y-102108000D02*
X120904000Y-109093000D01*
X100139500Y-106616500D02*
X104711500Y-106616500D01*
X104711500Y-106616500D02*
X107315000Y-109220000D01*
X108458000Y-94488000D02*
X106172000Y-92202000D01*
X106172000Y-92202000D02*
X106172000Y-77597000D01*
X105283000Y-76708000D02*
X106172000Y-77597000D01*
X90678000Y-76708000D02*
X105283000Y-76708000D01*
X134620000Y-115951000D02*
X132715000Y-114046000D01*
X125222000Y-114046000D02*
X120904000Y-109728000D01*
X132715000Y-114046000D02*
X125222000Y-114046000D01*
%TO.N,VDD*%
X96310999Y-128352001D02*
X88093001Y-128352001D01*
X97536000Y-127127000D02*
X96310999Y-128352001D01*
X85090000Y-125349000D02*
X85090000Y-124587000D01*
X88093001Y-128352001D02*
X85090000Y-125349000D01*
D15*
%TO.N,Net-(C_PW_2-Pad1)*%
X103251000Y-119705000D02*
X103251000Y-120650000D01*
X98993942Y-124907058D02*
X98872058Y-124907058D01*
X103251000Y-120650000D02*
X98993942Y-124907058D01*
D14*
%TO.N,Net-(C_PW_3-Pad2)*%
X95885000Y-120523000D02*
X96520000Y-119888000D01*
X96520000Y-119179182D02*
X95604409Y-118263591D01*
X96520000Y-119888000D02*
X96520000Y-119179182D01*
D16*
%TO.N,Net-(C_PW_5-Pad1)*%
X96520000Y-121793000D02*
X97028000Y-121285000D01*
X97028000Y-121285000D02*
X97028000Y-114808000D01*
%TO.N,VS*%
X114427000Y-127508000D02*
X118999000Y-127508000D01*
X118999000Y-119253000D02*
X121666000Y-116586000D01*
X118999000Y-127508000D02*
X118999000Y-119253000D01*
X118999000Y-127508000D02*
X123952000Y-127508000D01*
X121666000Y-116586000D02*
X125476000Y-116586000D01*
X133731000Y-116586000D02*
X139446000Y-122301000D01*
X125476000Y-116586000D02*
X133731000Y-116586000D01*
X116033001Y-116287001D02*
X116033001Y-115435999D01*
X118999000Y-119253000D02*
X116033001Y-116287001D01*
X114020702Y-113423700D02*
X113779300Y-113423700D01*
X116033001Y-115435999D02*
X114020702Y-113423700D01*
D15*
%TO.N,/IMU/IMU_SDO_SAO*%
X92522802Y-114808000D02*
X98425000Y-108905802D01*
X89789000Y-114808000D02*
X92522802Y-114808000D01*
X98425000Y-104340652D02*
X98418252Y-104333904D01*
X98425000Y-108905802D02*
X98425000Y-104340652D01*
%TO.N,/ESP32 Chip/ESP32_Pin16*%
X110490000Y-101373998D02*
X115343998Y-96520000D01*
X110490000Y-103632000D02*
X110490000Y-101373998D01*
X115343998Y-96520000D02*
X119380000Y-96520000D01*
%TO.N,/ESP32 Chip/ESP32_Pin24*%
X136196001Y-108891001D02*
X139446000Y-112141000D01*
X129465001Y-108891001D02*
X136196001Y-108891001D01*
X128905000Y-108331000D02*
X129465001Y-108891001D01*
%TO.N,/ESP32 Chip/ESP32_Pin25*%
X130302000Y-108331000D02*
X131826000Y-106807000D01*
X136652000Y-106807000D02*
X139446000Y-109601000D01*
X131826000Y-106807000D02*
X136652000Y-106807000D01*
%TO.N,/IMU/IMU_INT2*%
X91313000Y-98425000D02*
X98044000Y-98425000D01*
X98044000Y-98425000D02*
X103251000Y-93218000D01*
X112903000Y-92150000D02*
X114046000Y-93293000D01*
X114046000Y-93293000D02*
X114046000Y-97028000D01*
X110363000Y-100711000D02*
X108458000Y-100711000D01*
X114046000Y-97028000D02*
X110363000Y-100711000D01*
%TO.N,/IMU/IMU_INT1*%
X98552000Y-102235000D02*
X91313000Y-102235000D01*
X99187000Y-102870000D02*
X98552000Y-102235000D01*
%TO.N,/IMU/IMU_SCL*%
X95631000Y-106045000D02*
X96774000Y-104902000D01*
X94615000Y-106045000D02*
X95631000Y-106045000D01*
X93853000Y-105869958D02*
X93853000Y-106045000D01*
X95035479Y-104687479D02*
X93853000Y-105869958D01*
X93853000Y-106045000D02*
X91313000Y-106045000D01*
X94615000Y-106045000D02*
X93853000Y-106045000D01*
%TD*%
D17*
%TO.N,GND*%
X140778027Y-75317396D02*
X140747185Y-75279815D01*
X140650494Y-75200463D01*
X140540180Y-75141498D01*
X140420482Y-75105188D01*
X140296000Y-75092928D01*
X139731750Y-75096000D01*
X139573000Y-75254750D01*
X139573000Y-76454000D01*
X139593000Y-76454000D01*
X139593000Y-76708000D01*
X139573000Y-76708000D01*
X139573000Y-76728000D01*
X139319000Y-76728000D01*
X139319000Y-76708000D01*
X138119750Y-76708000D01*
X137961000Y-76866750D01*
X137957928Y-77431000D01*
X137970188Y-77555482D01*
X138006498Y-77675180D01*
X138065463Y-77785494D01*
X138144815Y-77882185D01*
X138241506Y-77961537D01*
X138351820Y-78020502D01*
X138424380Y-78042513D01*
X138292525Y-78174368D01*
X138130010Y-78417589D01*
X138018068Y-78687842D01*
X137961000Y-78974740D01*
X137961000Y-79267260D01*
X138018068Y-79554158D01*
X138130010Y-79824411D01*
X138292525Y-80067632D01*
X138499368Y-80274475D01*
X138673760Y-80391000D01*
X138499368Y-80507525D01*
X138292525Y-80714368D01*
X138130010Y-80957589D01*
X138018068Y-81227842D01*
X137961000Y-81514740D01*
X137961000Y-81807260D01*
X138018068Y-82094158D01*
X138130010Y-82364411D01*
X138292525Y-82607632D01*
X138499368Y-82814475D01*
X138673760Y-82931000D01*
X138499368Y-83047525D01*
X138292525Y-83254368D01*
X138130010Y-83497589D01*
X138018068Y-83767842D01*
X137961000Y-84054740D01*
X137961000Y-84347260D01*
X138018068Y-84634158D01*
X138130010Y-84904411D01*
X138292525Y-85147632D01*
X138499368Y-85354475D01*
X138673760Y-85471000D01*
X138499368Y-85587525D01*
X138292525Y-85794368D01*
X138130010Y-86037589D01*
X138018068Y-86307842D01*
X137961000Y-86594740D01*
X137961000Y-86887260D01*
X138018068Y-87174158D01*
X138130010Y-87444411D01*
X138292525Y-87687632D01*
X138499368Y-87894475D01*
X138673760Y-88011000D01*
X138499368Y-88127525D01*
X138292525Y-88334368D01*
X138130010Y-88577589D01*
X138018068Y-88847842D01*
X137961000Y-89134740D01*
X137961000Y-89427260D01*
X138018068Y-89714158D01*
X138130010Y-89984411D01*
X138292525Y-90227632D01*
X138499368Y-90434475D01*
X138673760Y-90551000D01*
X138499368Y-90667525D01*
X138292525Y-90874368D01*
X138130010Y-91117589D01*
X138018068Y-91387842D01*
X137961000Y-91674740D01*
X137961000Y-91967260D01*
X138018068Y-92254158D01*
X138130010Y-92524411D01*
X138292525Y-92767632D01*
X138499368Y-92974475D01*
X138673760Y-93091000D01*
X138499368Y-93207525D01*
X138292525Y-93414368D01*
X138130010Y-93657589D01*
X138018068Y-93927842D01*
X137961000Y-94214740D01*
X137961000Y-94507260D01*
X138018068Y-94794158D01*
X138130010Y-95064411D01*
X138292525Y-95307632D01*
X138499368Y-95514475D01*
X138673760Y-95631000D01*
X138499368Y-95747525D01*
X138292525Y-95954368D01*
X138130010Y-96197589D01*
X138018068Y-96467842D01*
X137961000Y-96754740D01*
X137961000Y-97047260D01*
X138018068Y-97334158D01*
X138130010Y-97604411D01*
X138292525Y-97847632D01*
X138499368Y-98054475D01*
X138673760Y-98171000D01*
X138499368Y-98287525D01*
X138292525Y-98494368D01*
X138130010Y-98737589D01*
X138018068Y-99007842D01*
X137961000Y-99294740D01*
X137961000Y-99587260D01*
X138018068Y-99874158D01*
X138130010Y-100144411D01*
X138292525Y-100387632D01*
X138499368Y-100594475D01*
X138673760Y-100711000D01*
X138499368Y-100827525D01*
X138292525Y-101034368D01*
X138130010Y-101277589D01*
X138018068Y-101547842D01*
X137961000Y-101834740D01*
X137961000Y-102127260D01*
X138018068Y-102414158D01*
X138130010Y-102684411D01*
X138292525Y-102927632D01*
X138499368Y-103134475D01*
X138673760Y-103251000D01*
X138499368Y-103367525D01*
X138292525Y-103574368D01*
X138130010Y-103817589D01*
X138018068Y-104087842D01*
X137961000Y-104374740D01*
X137961000Y-104667260D01*
X138018068Y-104954158D01*
X138130010Y-105224411D01*
X138292525Y-105467632D01*
X138499368Y-105674475D01*
X138673760Y-105791000D01*
X138499368Y-105907525D01*
X138292525Y-106114368D01*
X138130010Y-106357589D01*
X138018068Y-106627842D01*
X137961000Y-106914740D01*
X137961000Y-107062411D01*
X137204669Y-106306080D01*
X137181343Y-106277657D01*
X137067902Y-106184559D01*
X136938478Y-106115380D01*
X136798045Y-106072780D01*
X136688592Y-106062000D01*
X136688590Y-106062000D01*
X136652000Y-106058396D01*
X136615410Y-106062000D01*
X131862581Y-106062000D01*
X131825999Y-106058397D01*
X131789417Y-106062000D01*
X131789408Y-106062000D01*
X131679955Y-106072780D01*
X131539522Y-106115380D01*
X131479276Y-106147582D01*
X131410097Y-106184559D01*
X131340133Y-106241978D01*
X131296657Y-106277657D01*
X131273331Y-106306080D01*
X130113193Y-107466218D01*
X130043855Y-107480010D01*
X129882795Y-107546723D01*
X129737845Y-107643576D01*
X129614576Y-107766845D01*
X129603500Y-107783421D01*
X129592424Y-107766845D01*
X129469155Y-107643576D01*
X129324205Y-107546723D01*
X129163145Y-107480010D01*
X128992165Y-107446000D01*
X128817835Y-107446000D01*
X128646855Y-107480010D01*
X128485795Y-107546723D01*
X128340845Y-107643576D01*
X128217576Y-107766845D01*
X128120723Y-107911795D01*
X128054010Y-108072855D01*
X128020000Y-108243835D01*
X128020000Y-108418165D01*
X128054010Y-108589145D01*
X128120723Y-108750205D01*
X128217576Y-108895155D01*
X128340845Y-109018424D01*
X128485795Y-109115277D01*
X128646855Y-109181990D01*
X128716193Y-109195782D01*
X128912332Y-109391921D01*
X128935658Y-109420344D01*
X128964080Y-109443669D01*
X129049098Y-109513442D01*
X129082832Y-109531473D01*
X129178523Y-109582621D01*
X129318956Y-109625221D01*
X129428409Y-109636001D01*
X129428410Y-109636001D01*
X129465000Y-109639605D01*
X129501590Y-109636001D01*
X135887412Y-109636001D01*
X138008310Y-111756899D01*
X137961000Y-111994740D01*
X137961000Y-112287260D01*
X138018068Y-112574158D01*
X138130010Y-112844411D01*
X138292525Y-113087632D01*
X138499368Y-113294475D01*
X138673760Y-113411000D01*
X138499368Y-113527525D01*
X138292525Y-113734368D01*
X138130010Y-113977589D01*
X138018068Y-114247842D01*
X137961000Y-114534740D01*
X137961000Y-114827260D01*
X138018068Y-115114158D01*
X138130010Y-115384411D01*
X138292525Y-115627632D01*
X138499368Y-115834475D01*
X138673760Y-115951000D01*
X138499368Y-116067525D01*
X138292525Y-116274368D01*
X138130010Y-116517589D01*
X138018068Y-116787842D01*
X137961000Y-117074740D01*
X137961000Y-117367260D01*
X138018068Y-117654158D01*
X138130010Y-117924411D01*
X138292525Y-118167632D01*
X138499368Y-118374475D01*
X138673760Y-118491000D01*
X138499368Y-118607525D01*
X138292525Y-118814368D01*
X138130010Y-119057589D01*
X138018068Y-119327842D01*
X137961000Y-119614740D01*
X137961000Y-119670487D01*
X135029719Y-116739206D01*
X135039205Y-116735277D01*
X135184155Y-116638424D01*
X135307424Y-116515155D01*
X135404277Y-116370205D01*
X135470990Y-116209145D01*
X135505000Y-116038165D01*
X135505000Y-115863835D01*
X135470990Y-115692855D01*
X135404277Y-115531795D01*
X135307424Y-115386845D01*
X135184155Y-115263576D01*
X135039205Y-115166723D01*
X134940246Y-115125733D01*
X133315899Y-113501387D01*
X133290528Y-113470472D01*
X133167189Y-113369251D01*
X133026473Y-113294037D01*
X132873788Y-113247720D01*
X132754791Y-113236000D01*
X132754788Y-113236000D01*
X132715000Y-113232081D01*
X132675212Y-113236000D01*
X125557513Y-113236000D01*
X122392072Y-110070560D01*
X122392072Y-108878000D01*
X122379812Y-108753518D01*
X122343502Y-108633820D01*
X122284537Y-108523506D01*
X122205185Y-108426815D01*
X122108494Y-108347463D01*
X121998180Y-108288498D01*
X121878482Y-108252188D01*
X121754000Y-108239928D01*
X121196441Y-108239928D01*
X114762697Y-101806185D01*
X114766482Y-101805812D01*
X114886180Y-101769502D01*
X114996494Y-101710537D01*
X115093185Y-101631185D01*
X115172537Y-101534494D01*
X115231502Y-101424180D01*
X115253513Y-101351620D01*
X115385368Y-101483475D01*
X115628589Y-101645990D01*
X115898842Y-101757932D01*
X116185740Y-101815000D01*
X116478260Y-101815000D01*
X116765158Y-101757932D01*
X117035411Y-101645990D01*
X117278632Y-101483475D01*
X117485475Y-101276632D01*
X117602000Y-101102240D01*
X117718525Y-101276632D01*
X117925368Y-101483475D01*
X118168589Y-101645990D01*
X118438842Y-101757932D01*
X118725740Y-101815000D01*
X119018260Y-101815000D01*
X119305158Y-101757932D01*
X119575411Y-101645990D01*
X119818632Y-101483475D01*
X120025475Y-101276632D01*
X120147195Y-101094466D01*
X120216822Y-101211355D01*
X120411731Y-101427588D01*
X120645080Y-101601641D01*
X120907901Y-101726825D01*
X121055110Y-101771476D01*
X121285000Y-101650155D01*
X121285000Y-100457000D01*
X121265000Y-100457000D01*
X121265000Y-100203000D01*
X121285000Y-100203000D01*
X121285000Y-99009845D01*
X121539000Y-99009845D01*
X121539000Y-100203000D01*
X121559000Y-100203000D01*
X121559000Y-100457000D01*
X121539000Y-100457000D01*
X121539000Y-101650155D01*
X121768890Y-101771476D01*
X121916099Y-101726825D01*
X122178920Y-101601641D01*
X122412269Y-101427588D01*
X122607178Y-101211355D01*
X122676805Y-101094466D01*
X122798525Y-101276632D01*
X123005368Y-101483475D01*
X123248589Y-101645990D01*
X123518842Y-101757932D01*
X123805740Y-101815000D01*
X124098260Y-101815000D01*
X124385158Y-101757932D01*
X124655411Y-101645990D01*
X124898632Y-101483475D01*
X125105475Y-101276632D01*
X125222000Y-101102240D01*
X125338525Y-101276632D01*
X125545368Y-101483475D01*
X125788589Y-101645990D01*
X126058842Y-101757932D01*
X126345740Y-101815000D01*
X126638260Y-101815000D01*
X126925158Y-101757932D01*
X127195411Y-101645990D01*
X127438632Y-101483475D01*
X127645475Y-101276632D01*
X127762000Y-101102240D01*
X127878525Y-101276632D01*
X128085368Y-101483475D01*
X128328589Y-101645990D01*
X128598842Y-101757932D01*
X128885740Y-101815000D01*
X129178260Y-101815000D01*
X129465158Y-101757932D01*
X129735411Y-101645990D01*
X129978632Y-101483475D01*
X130185475Y-101276632D01*
X130302000Y-101102240D01*
X130418525Y-101276632D01*
X130625368Y-101483475D01*
X130868589Y-101645990D01*
X131138842Y-101757932D01*
X131425740Y-101815000D01*
X131718260Y-101815000D01*
X132005158Y-101757932D01*
X132275411Y-101645990D01*
X132518632Y-101483475D01*
X132725475Y-101276632D01*
X132887990Y-101033411D01*
X132999932Y-100763158D01*
X133057000Y-100476260D01*
X133057000Y-100183740D01*
X132999932Y-99896842D01*
X132887990Y-99626589D01*
X132725475Y-99383368D01*
X132518632Y-99176525D01*
X132275411Y-99014010D01*
X132005158Y-98902068D01*
X131718260Y-98845000D01*
X131425740Y-98845000D01*
X131138842Y-98902068D01*
X130868589Y-99014010D01*
X130625368Y-99176525D01*
X130418525Y-99383368D01*
X130302000Y-99557760D01*
X130185475Y-99383368D01*
X129978632Y-99176525D01*
X129735411Y-99014010D01*
X129465158Y-98902068D01*
X129178260Y-98845000D01*
X128885740Y-98845000D01*
X128598842Y-98902068D01*
X128328589Y-99014010D01*
X128085368Y-99176525D01*
X127878525Y-99383368D01*
X127762000Y-99557760D01*
X127645475Y-99383368D01*
X127438632Y-99176525D01*
X127195411Y-99014010D01*
X126925158Y-98902068D01*
X126638260Y-98845000D01*
X126345740Y-98845000D01*
X126058842Y-98902068D01*
X125788589Y-99014010D01*
X125545368Y-99176525D01*
X125338525Y-99383368D01*
X125222000Y-99557760D01*
X125105475Y-99383368D01*
X124898632Y-99176525D01*
X124655411Y-99014010D01*
X124385158Y-98902068D01*
X124098260Y-98845000D01*
X123805740Y-98845000D01*
X123518842Y-98902068D01*
X123248589Y-99014010D01*
X123005368Y-99176525D01*
X122798525Y-99383368D01*
X122676805Y-99565534D01*
X122607178Y-99448645D01*
X122412269Y-99232412D01*
X122178920Y-99058359D01*
X121916099Y-98933175D01*
X121768890Y-98888524D01*
X121539000Y-99009845D01*
X121285000Y-99009845D01*
X121055110Y-98888524D01*
X120907901Y-98933175D01*
X120645080Y-99058359D01*
X120411731Y-99232412D01*
X120216822Y-99448645D01*
X120147195Y-99565534D01*
X120025475Y-99383368D01*
X119818632Y-99176525D01*
X119575411Y-99014010D01*
X119305158Y-98902068D01*
X119018260Y-98845000D01*
X118725740Y-98845000D01*
X118438842Y-98902068D01*
X118168589Y-99014010D01*
X117925368Y-99176525D01*
X117718525Y-99383368D01*
X117602000Y-99557760D01*
X117485475Y-99383368D01*
X117278632Y-99176525D01*
X117035411Y-99014010D01*
X116765158Y-98902068D01*
X116478260Y-98845000D01*
X116185740Y-98845000D01*
X115898842Y-98902068D01*
X115628589Y-99014010D01*
X115385368Y-99176525D01*
X115253513Y-99308380D01*
X115231502Y-99235820D01*
X115172537Y-99125506D01*
X115093185Y-99028815D01*
X114996494Y-98949463D01*
X114886180Y-98890498D01*
X114766482Y-98854188D01*
X114642000Y-98841928D01*
X114075659Y-98841928D01*
X115652587Y-97265000D01*
X118902013Y-97265000D01*
X118960795Y-97304277D01*
X119121855Y-97370990D01*
X119292835Y-97405000D01*
X119467165Y-97405000D01*
X119638145Y-97370990D01*
X119799205Y-97304277D01*
X119944155Y-97207424D01*
X120067424Y-97084155D01*
X120164277Y-96939205D01*
X120230990Y-96778145D01*
X120265000Y-96607165D01*
X120265000Y-96432835D01*
X120230990Y-96261855D01*
X120164277Y-96100795D01*
X120067424Y-95955845D01*
X119944155Y-95832576D01*
X119799205Y-95735723D01*
X119638145Y-95669010D01*
X119467165Y-95635000D01*
X119292835Y-95635000D01*
X119121855Y-95669010D01*
X118960795Y-95735723D01*
X118902013Y-95775000D01*
X115380588Y-95775000D01*
X115343998Y-95771396D01*
X115307408Y-95775000D01*
X115307406Y-95775000D01*
X115197953Y-95785780D01*
X115057520Y-95828380D01*
X115024556Y-95846000D01*
X114928095Y-95897559D01*
X114857074Y-95955845D01*
X114814655Y-95990657D01*
X114791329Y-96019080D01*
X114791000Y-96019409D01*
X114791000Y-93329582D01*
X114794603Y-93292999D01*
X114791000Y-93256417D01*
X114791000Y-93256408D01*
X114780220Y-93146955D01*
X114737620Y-93006522D01*
X114698358Y-92933068D01*
X114668441Y-92877097D01*
X114611022Y-92807133D01*
X114575343Y-92763657D01*
X114546921Y-92740332D01*
X113767782Y-91961193D01*
X113753990Y-91891855D01*
X113687277Y-91730795D01*
X113590424Y-91585845D01*
X113467155Y-91462576D01*
X113322205Y-91365723D01*
X113161145Y-91299010D01*
X112990165Y-91265000D01*
X112815835Y-91265000D01*
X112644855Y-91299010D01*
X112483795Y-91365723D01*
X112338845Y-91462576D01*
X112215576Y-91585845D01*
X112118723Y-91730795D01*
X112052010Y-91891855D01*
X112018000Y-92062835D01*
X112018000Y-92237165D01*
X112052010Y-92408145D01*
X112118723Y-92569205D01*
X112215576Y-92714155D01*
X112338845Y-92837424D01*
X112483795Y-92934277D01*
X112644855Y-93000990D01*
X112714193Y-93014782D01*
X113301000Y-93601589D01*
X113301001Y-96719410D01*
X110054411Y-99966000D01*
X108935987Y-99966000D01*
X108877205Y-99926723D01*
X108716145Y-99860010D01*
X108545165Y-99826000D01*
X108370835Y-99826000D01*
X108199855Y-99860010D01*
X108038795Y-99926723D01*
X107893845Y-100023576D01*
X107770576Y-100146845D01*
X107673723Y-100291795D01*
X107607010Y-100452855D01*
X107573000Y-100623835D01*
X107573000Y-100798165D01*
X107607010Y-100969145D01*
X107673723Y-101130205D01*
X107770576Y-101275155D01*
X107893845Y-101398424D01*
X108038795Y-101495277D01*
X108199855Y-101561990D01*
X108370835Y-101596000D01*
X108545165Y-101596000D01*
X108716145Y-101561990D01*
X108877205Y-101495277D01*
X108935987Y-101456000D01*
X109745001Y-101456000D01*
X109745000Y-103154013D01*
X109705723Y-103212795D01*
X109639010Y-103373855D01*
X109605000Y-103544835D01*
X109605000Y-103719165D01*
X109639010Y-103890145D01*
X109705723Y-104051205D01*
X109802576Y-104196155D01*
X109925845Y-104319424D01*
X110070795Y-104416277D01*
X110231855Y-104482990D01*
X110402835Y-104517000D01*
X110577165Y-104517000D01*
X110748145Y-104482990D01*
X110909205Y-104416277D01*
X111054155Y-104319424D01*
X111177424Y-104196155D01*
X111274277Y-104051205D01*
X111340990Y-103890145D01*
X111375000Y-103719165D01*
X111375000Y-103544835D01*
X111340990Y-103373855D01*
X111274277Y-103212795D01*
X111235000Y-103154013D01*
X111235000Y-101682587D01*
X112303928Y-100613659D01*
X112303928Y-101180000D01*
X112316188Y-101304482D01*
X112352498Y-101424180D01*
X112411463Y-101534494D01*
X112490815Y-101631185D01*
X112587506Y-101710537D01*
X112697820Y-101769502D01*
X112817518Y-101805812D01*
X112942000Y-101818072D01*
X113081175Y-101818072D01*
X113068010Y-101849855D01*
X113034000Y-102020835D01*
X113034000Y-102195165D01*
X113068010Y-102366145D01*
X113134723Y-102527205D01*
X113231576Y-102672155D01*
X113354845Y-102795424D01*
X113499795Y-102892277D01*
X113598756Y-102933268D01*
X119427365Y-108761878D01*
X119415928Y-108878000D01*
X119415928Y-110578000D01*
X119428188Y-110702482D01*
X119464498Y-110822180D01*
X119523463Y-110932494D01*
X119602815Y-111029185D01*
X119699506Y-111108537D01*
X119809820Y-111167502D01*
X119929518Y-111203812D01*
X120054000Y-111216072D01*
X121246560Y-111216072D01*
X124621105Y-114590618D01*
X124646472Y-114621528D01*
X124695733Y-114661955D01*
X124769810Y-114722749D01*
X124838100Y-114759250D01*
X124910527Y-114797963D01*
X125063212Y-114844280D01*
X125182209Y-114856000D01*
X125182211Y-114856000D01*
X125221999Y-114859919D01*
X125261787Y-114856000D01*
X132379488Y-114856000D01*
X133299487Y-115776000D01*
X126964072Y-115776000D01*
X126964072Y-115736000D01*
X126951812Y-115611518D01*
X126915502Y-115491820D01*
X126856537Y-115381506D01*
X126777185Y-115284815D01*
X126680494Y-115205463D01*
X126570180Y-115146498D01*
X126450482Y-115110188D01*
X126326000Y-115097928D01*
X124626000Y-115097928D01*
X124501518Y-115110188D01*
X124381820Y-115146498D01*
X124271506Y-115205463D01*
X124174815Y-115284815D01*
X124095463Y-115381506D01*
X124036498Y-115491820D01*
X124000188Y-115611518D01*
X123987928Y-115736000D01*
X123987928Y-115776000D01*
X122910770Y-115776000D01*
X122819475Y-115639368D01*
X122612632Y-115432525D01*
X122369411Y-115270010D01*
X122099158Y-115158068D01*
X121812260Y-115101000D01*
X121519740Y-115101000D01*
X121232842Y-115158068D01*
X120962589Y-115270010D01*
X120719368Y-115432525D01*
X120587513Y-115564380D01*
X120565502Y-115491820D01*
X120506537Y-115381506D01*
X120427185Y-115284815D01*
X120330494Y-115205463D01*
X120220180Y-115146498D01*
X120100482Y-115110188D01*
X119976000Y-115097928D01*
X118276000Y-115097928D01*
X118151518Y-115110188D01*
X118031820Y-115146498D01*
X117921506Y-115205463D01*
X117824815Y-115284815D01*
X117745463Y-115381506D01*
X117686498Y-115491820D01*
X117650188Y-115611518D01*
X117637928Y-115736000D01*
X117637928Y-116746416D01*
X116843001Y-115951489D01*
X116843001Y-115475790D01*
X116846920Y-115435999D01*
X116831281Y-115277211D01*
X116784964Y-115124525D01*
X116709750Y-114983810D01*
X116633894Y-114891379D01*
X116608529Y-114860471D01*
X116577619Y-114835104D01*
X114621601Y-112879087D01*
X114596230Y-112848172D01*
X114472891Y-112746951D01*
X114332175Y-112671737D01*
X114179490Y-112625420D01*
X114160084Y-112623509D01*
X114037445Y-112572710D01*
X113866465Y-112538700D01*
X113692135Y-112538700D01*
X113521155Y-112572710D01*
X113360095Y-112639423D01*
X113215145Y-112736276D01*
X113091876Y-112859545D01*
X112995023Y-113004495D01*
X112928310Y-113165555D01*
X112894300Y-113336535D01*
X112894300Y-113510865D01*
X112928310Y-113681845D01*
X112995023Y-113842905D01*
X113091876Y-113987855D01*
X113215145Y-114111124D01*
X113360095Y-114207977D01*
X113521155Y-114274690D01*
X113692135Y-114308700D01*
X113760190Y-114308700D01*
X114680998Y-115229509D01*
X114680998Y-115259748D01*
X114522250Y-115101000D01*
X113958000Y-115097928D01*
X113833518Y-115110188D01*
X113713820Y-115146498D01*
X113603506Y-115205463D01*
X113506815Y-115284815D01*
X113427463Y-115381506D01*
X113368498Y-115491820D01*
X113332188Y-115611518D01*
X113319928Y-115736000D01*
X113323000Y-116300250D01*
X113481750Y-116459000D01*
X114681000Y-116459000D01*
X114681000Y-116439000D01*
X114935000Y-116439000D01*
X114935000Y-116459000D01*
X114955000Y-116459000D01*
X114955000Y-116713000D01*
X114935000Y-116713000D01*
X114935000Y-117912250D01*
X115093750Y-118071000D01*
X115658000Y-118074072D01*
X115782482Y-118061812D01*
X115902180Y-118025502D01*
X116012494Y-117966537D01*
X116109185Y-117887185D01*
X116188537Y-117790494D01*
X116247502Y-117680180D01*
X116255221Y-117654733D01*
X118189001Y-119588514D01*
X118189000Y-126698000D01*
X114784104Y-126698000D01*
X114685145Y-126657010D01*
X114514165Y-126623000D01*
X114339835Y-126623000D01*
X114168855Y-126657010D01*
X114007795Y-126723723D01*
X113862845Y-126820576D01*
X113739576Y-126943845D01*
X113642723Y-127088795D01*
X113576010Y-127249855D01*
X113542000Y-127420835D01*
X113542000Y-127595165D01*
X113576010Y-127766145D01*
X113642723Y-127927205D01*
X113739576Y-128072155D01*
X113862845Y-128195424D01*
X114007795Y-128292277D01*
X114168855Y-128358990D01*
X114339835Y-128393000D01*
X114514165Y-128393000D01*
X114685145Y-128358990D01*
X114784104Y-128318000D01*
X118959209Y-128318000D01*
X118999000Y-128321919D01*
X119038791Y-128318000D01*
X123594896Y-128318000D01*
X123693855Y-128358990D01*
X123864835Y-128393000D01*
X124039165Y-128393000D01*
X124210145Y-128358990D01*
X124371205Y-128292277D01*
X124516155Y-128195424D01*
X124639424Y-128072155D01*
X124736277Y-127927205D01*
X124802990Y-127766145D01*
X124837000Y-127595165D01*
X124837000Y-127420835D01*
X124802990Y-127249855D01*
X124744125Y-127107740D01*
X126531000Y-127107740D01*
X126531000Y-127400260D01*
X126588068Y-127687158D01*
X126700010Y-127957411D01*
X126862525Y-128200632D01*
X127069368Y-128407475D01*
X127312589Y-128569990D01*
X127582842Y-128681932D01*
X127869740Y-128739000D01*
X128162260Y-128739000D01*
X128449158Y-128681932D01*
X128719411Y-128569990D01*
X128962632Y-128407475D01*
X129169475Y-128200632D01*
X129286000Y-128026240D01*
X129402525Y-128200632D01*
X129609368Y-128407475D01*
X129852589Y-128569990D01*
X130122842Y-128681932D01*
X130409740Y-128739000D01*
X130702260Y-128739000D01*
X130989158Y-128681932D01*
X131259411Y-128569990D01*
X131502632Y-128407475D01*
X131709475Y-128200632D01*
X131826000Y-128026240D01*
X131942525Y-128200632D01*
X132149368Y-128407475D01*
X132392589Y-128569990D01*
X132662842Y-128681932D01*
X132949740Y-128739000D01*
X133242260Y-128739000D01*
X133529158Y-128681932D01*
X133799411Y-128569990D01*
X134042632Y-128407475D01*
X134174487Y-128275620D01*
X134196498Y-128348180D01*
X134255463Y-128458494D01*
X134334815Y-128555185D01*
X134431506Y-128634537D01*
X134541820Y-128693502D01*
X134661518Y-128729812D01*
X134786000Y-128742072D01*
X136486000Y-128742072D01*
X136610482Y-128729812D01*
X136730180Y-128693502D01*
X136840494Y-128634537D01*
X136937185Y-128555185D01*
X137016537Y-128458494D01*
X137075502Y-128348180D01*
X137111812Y-128228482D01*
X137124072Y-128104000D01*
X137124072Y-126404000D01*
X137111812Y-126279518D01*
X137075502Y-126159820D01*
X137016537Y-126049506D01*
X136937185Y-125952815D01*
X136840494Y-125873463D01*
X136730180Y-125814498D01*
X136610482Y-125778188D01*
X136486000Y-125765928D01*
X134786000Y-125765928D01*
X134661518Y-125778188D01*
X134541820Y-125814498D01*
X134431506Y-125873463D01*
X134334815Y-125952815D01*
X134255463Y-126049506D01*
X134196498Y-126159820D01*
X134174487Y-126232380D01*
X134042632Y-126100525D01*
X133799411Y-125938010D01*
X133529158Y-125826068D01*
X133242260Y-125769000D01*
X132949740Y-125769000D01*
X132662842Y-125826068D01*
X132392589Y-125938010D01*
X132149368Y-126100525D01*
X131942525Y-126307368D01*
X131826000Y-126481760D01*
X131709475Y-126307368D01*
X131502632Y-126100525D01*
X131259411Y-125938010D01*
X130989158Y-125826068D01*
X130702260Y-125769000D01*
X130409740Y-125769000D01*
X130122842Y-125826068D01*
X129852589Y-125938010D01*
X129609368Y-126100525D01*
X129402525Y-126307368D01*
X129286000Y-126481760D01*
X129169475Y-126307368D01*
X128962632Y-126100525D01*
X128719411Y-125938010D01*
X128449158Y-125826068D01*
X128162260Y-125769000D01*
X127869740Y-125769000D01*
X127582842Y-125826068D01*
X127312589Y-125938010D01*
X127069368Y-126100525D01*
X126862525Y-126307368D01*
X126700010Y-126550589D01*
X126588068Y-126820842D01*
X126531000Y-127107740D01*
X124744125Y-127107740D01*
X124736277Y-127088795D01*
X124639424Y-126943845D01*
X124516155Y-126820576D01*
X124371205Y-126723723D01*
X124210145Y-126657010D01*
X124039165Y-126623000D01*
X123864835Y-126623000D01*
X123693855Y-126657010D01*
X123594896Y-126698000D01*
X119809000Y-126698000D01*
X119809000Y-125381448D01*
X120929000Y-125381448D01*
X120929000Y-125570552D01*
X120965892Y-125756022D01*
X121038259Y-125930731D01*
X121143319Y-126087964D01*
X121277036Y-126221681D01*
X121434269Y-126326741D01*
X121608978Y-126399108D01*
X121794448Y-126436000D01*
X121983552Y-126436000D01*
X122169022Y-126399108D01*
X122343731Y-126326741D01*
X122500964Y-126221681D01*
X122634681Y-126087964D01*
X122739741Y-125930731D01*
X122812108Y-125756022D01*
X122849000Y-125570552D01*
X122849000Y-125381448D01*
X122812489Y-125197890D01*
X138004524Y-125197890D01*
X138049175Y-125345099D01*
X138174359Y-125607920D01*
X138348412Y-125841269D01*
X138564645Y-126036178D01*
X138814748Y-126185157D01*
X139089109Y-126282481D01*
X139319000Y-126161814D01*
X139319000Y-124968000D01*
X138125845Y-124968000D01*
X138004524Y-125197890D01*
X122812489Y-125197890D01*
X122812108Y-125195978D01*
X122739741Y-125021269D01*
X122634681Y-124864036D01*
X122500964Y-124730319D01*
X122343731Y-124625259D01*
X122169022Y-124552892D01*
X121983552Y-124516000D01*
X121794448Y-124516000D01*
X121608978Y-124552892D01*
X121434269Y-124625259D01*
X121277036Y-124730319D01*
X121143319Y-124864036D01*
X121038259Y-125021269D01*
X120965892Y-125195978D01*
X120929000Y-125381448D01*
X119809000Y-125381448D01*
X119809000Y-119588512D01*
X121358571Y-118038941D01*
X121519740Y-118071000D01*
X121812260Y-118071000D01*
X122099158Y-118013932D01*
X122369411Y-117901990D01*
X122612632Y-117739475D01*
X122819475Y-117532632D01*
X122910770Y-117396000D01*
X123987928Y-117396000D01*
X123987928Y-117436000D01*
X124000188Y-117560482D01*
X124036498Y-117680180D01*
X124095463Y-117790494D01*
X124174815Y-117887185D01*
X124271506Y-117966537D01*
X124381820Y-118025502D01*
X124501518Y-118061812D01*
X124626000Y-118074072D01*
X126326000Y-118074072D01*
X126450482Y-118061812D01*
X126570180Y-118025502D01*
X126680494Y-117966537D01*
X126777185Y-117887185D01*
X126856537Y-117790494D01*
X126915502Y-117680180D01*
X126951812Y-117560482D01*
X126964072Y-117436000D01*
X126964072Y-117396000D01*
X133395488Y-117396000D01*
X137993059Y-121993571D01*
X137961000Y-122154740D01*
X137961000Y-122447260D01*
X138018068Y-122734158D01*
X138130010Y-123004411D01*
X138292525Y-123247632D01*
X138499368Y-123454475D01*
X138681534Y-123576195D01*
X138564645Y-123645822D01*
X138348412Y-123840731D01*
X138174359Y-124074080D01*
X138049175Y-124336901D01*
X138004524Y-124484110D01*
X138125845Y-124714000D01*
X139319000Y-124714000D01*
X139319000Y-124694000D01*
X139573000Y-124694000D01*
X139573000Y-124714000D01*
X139593000Y-124714000D01*
X139593000Y-124968000D01*
X139573000Y-124968000D01*
X139573000Y-126161814D01*
X139802891Y-126282481D01*
X140077252Y-126185157D01*
X140327355Y-126036178D01*
X140543588Y-125841269D01*
X140666116Y-125676998D01*
X140666075Y-125695594D01*
X140666000Y-125696354D01*
X140666000Y-125729271D01*
X140665927Y-125762124D01*
X140666000Y-125762883D01*
X140666001Y-129109000D01*
X96605871Y-129109000D01*
X96622472Y-129103964D01*
X96763188Y-129028750D01*
X96886527Y-128927529D01*
X96911898Y-128896614D01*
X97228571Y-128579941D01*
X97389740Y-128612000D01*
X97682260Y-128612000D01*
X97969158Y-128554932D01*
X98239411Y-128442990D01*
X98482632Y-128280475D01*
X98689475Y-128073632D01*
X98851990Y-127830411D01*
X98963932Y-127560158D01*
X99021000Y-127273260D01*
X99021000Y-126980740D01*
X101004000Y-126980740D01*
X101004000Y-127273260D01*
X101061068Y-127560158D01*
X101173010Y-127830411D01*
X101335525Y-128073632D01*
X101542368Y-128280475D01*
X101785589Y-128442990D01*
X102055842Y-128554932D01*
X102342740Y-128612000D01*
X102635260Y-128612000D01*
X102922158Y-128554932D01*
X103192411Y-128442990D01*
X103435632Y-128280475D01*
X103642475Y-128073632D01*
X103759000Y-127899240D01*
X103875525Y-128073632D01*
X104082368Y-128280475D01*
X104325589Y-128442990D01*
X104595842Y-128554932D01*
X104882740Y-128612000D01*
X105175260Y-128612000D01*
X105462158Y-128554932D01*
X105732411Y-128442990D01*
X105975632Y-128280475D01*
X106182475Y-128073632D01*
X106299000Y-127899240D01*
X106415525Y-128073632D01*
X106622368Y-128280475D01*
X106865589Y-128442990D01*
X107135842Y-128554932D01*
X107422740Y-128612000D01*
X107715260Y-128612000D01*
X108002158Y-128554932D01*
X108272411Y-128442990D01*
X108515632Y-128280475D01*
X108647487Y-128148620D01*
X108669498Y-128221180D01*
X108728463Y-128331494D01*
X108807815Y-128428185D01*
X108904506Y-128507537D01*
X109014820Y-128566502D01*
X109134518Y-128602812D01*
X109259000Y-128615072D01*
X110959000Y-128615072D01*
X111083482Y-128602812D01*
X111203180Y-128566502D01*
X111313494Y-128507537D01*
X111410185Y-128428185D01*
X111489537Y-128331494D01*
X111548502Y-128221180D01*
X111584812Y-128101482D01*
X111597072Y-127977000D01*
X111597072Y-126277000D01*
X111584812Y-126152518D01*
X111548502Y-126032820D01*
X111489537Y-125922506D01*
X111410185Y-125825815D01*
X111313494Y-125746463D01*
X111203180Y-125687498D01*
X111083482Y-125651188D01*
X110959000Y-125638928D01*
X109259000Y-125638928D01*
X109134518Y-125651188D01*
X109014820Y-125687498D01*
X108904506Y-125746463D01*
X108807815Y-125825815D01*
X108728463Y-125922506D01*
X108669498Y-126032820D01*
X108647487Y-126105380D01*
X108515632Y-125973525D01*
X108272411Y-125811010D01*
X108002158Y-125699068D01*
X107715260Y-125642000D01*
X107422740Y-125642000D01*
X107135842Y-125699068D01*
X106865589Y-125811010D01*
X106622368Y-125973525D01*
X106415525Y-126180368D01*
X106299000Y-126354760D01*
X106182475Y-126180368D01*
X105975632Y-125973525D01*
X105732411Y-125811010D01*
X105462158Y-125699068D01*
X105175260Y-125642000D01*
X104882740Y-125642000D01*
X104595842Y-125699068D01*
X104325589Y-125811010D01*
X104082368Y-125973525D01*
X103875525Y-126180368D01*
X103759000Y-126354760D01*
X103642475Y-126180368D01*
X103435632Y-125973525D01*
X103192411Y-125811010D01*
X102922158Y-125699068D01*
X102635260Y-125642000D01*
X102342740Y-125642000D01*
X102055842Y-125699068D01*
X101785589Y-125811010D01*
X101542368Y-125973525D01*
X101335525Y-126180368D01*
X101173010Y-126423589D01*
X101061068Y-126693842D01*
X101004000Y-126980740D01*
X99021000Y-126980740D01*
X98963932Y-126693842D01*
X98851990Y-126423589D01*
X98689475Y-126180368D01*
X98482632Y-125973525D01*
X98239411Y-125811010D01*
X97969158Y-125699068D01*
X97682260Y-125642000D01*
X97389740Y-125642000D01*
X97102842Y-125699068D01*
X96832589Y-125811010D01*
X96589368Y-125973525D01*
X96457513Y-126105380D01*
X96435502Y-126032820D01*
X96376537Y-125922506D01*
X96297185Y-125825815D01*
X96200494Y-125746463D01*
X96090180Y-125687498D01*
X95970482Y-125651188D01*
X95846000Y-125638928D01*
X95281750Y-125642000D01*
X95123000Y-125800750D01*
X95123000Y-127000000D01*
X95143000Y-127000000D01*
X95143000Y-127254000D01*
X95123000Y-127254000D01*
X95123000Y-127274000D01*
X94869000Y-127274000D01*
X94869000Y-127254000D01*
X93669750Y-127254000D01*
X93511000Y-127412750D01*
X93510296Y-127542001D01*
X88428514Y-127542001D01*
X87163513Y-126277000D01*
X93507928Y-126277000D01*
X93511000Y-126841250D01*
X93669750Y-127000000D01*
X94869000Y-127000000D01*
X94869000Y-125800750D01*
X94710250Y-125642000D01*
X94146000Y-125638928D01*
X94021518Y-125651188D01*
X93901820Y-125687498D01*
X93791506Y-125746463D01*
X93694815Y-125825815D01*
X93615463Y-125922506D01*
X93556498Y-126032820D01*
X93520188Y-126152518D01*
X93507928Y-126277000D01*
X87163513Y-126277000D01*
X86314239Y-125427727D01*
X86405990Y-125290411D01*
X86517932Y-125020158D01*
X86557767Y-124819893D01*
X97987058Y-124819893D01*
X97987058Y-124994223D01*
X98021068Y-125165203D01*
X98087781Y-125326263D01*
X98184634Y-125471213D01*
X98307903Y-125594482D01*
X98452853Y-125691335D01*
X98613913Y-125758048D01*
X98784893Y-125792058D01*
X98959223Y-125792058D01*
X99130203Y-125758048D01*
X99291263Y-125691335D01*
X99436213Y-125594482D01*
X99559482Y-125471213D01*
X99619461Y-125381448D01*
X115149000Y-125381448D01*
X115149000Y-125570552D01*
X115185892Y-125756022D01*
X115258259Y-125930731D01*
X115363319Y-126087964D01*
X115497036Y-126221681D01*
X115654269Y-126326741D01*
X115828978Y-126399108D01*
X116014448Y-126436000D01*
X116203552Y-126436000D01*
X116389022Y-126399108D01*
X116563731Y-126326741D01*
X116720964Y-126221681D01*
X116854681Y-126087964D01*
X116959741Y-125930731D01*
X117032108Y-125756022D01*
X117069000Y-125570552D01*
X117069000Y-125381448D01*
X117032108Y-125195978D01*
X116959741Y-125021269D01*
X116854681Y-124864036D01*
X116720964Y-124730319D01*
X116563731Y-124625259D01*
X116389022Y-124552892D01*
X116203552Y-124516000D01*
X116014448Y-124516000D01*
X115828978Y-124552892D01*
X115654269Y-124625259D01*
X115497036Y-124730319D01*
X115363319Y-124864036D01*
X115258259Y-125021269D01*
X115185892Y-125195978D01*
X115149000Y-125381448D01*
X99619461Y-125381448D01*
X99656335Y-125326263D01*
X99676140Y-125278449D01*
X103751920Y-121202669D01*
X103780343Y-121179343D01*
X103840882Y-121105576D01*
X103873441Y-121065903D01*
X103922817Y-120973527D01*
X103942620Y-120936478D01*
X103985220Y-120796045D01*
X103996000Y-120686592D01*
X103996000Y-120686583D01*
X103999603Y-120650001D01*
X103996000Y-120613418D01*
X103996000Y-120182987D01*
X104035277Y-120124205D01*
X104101990Y-119963145D01*
X104136000Y-119792165D01*
X104136000Y-119617835D01*
X104101990Y-119446855D01*
X104035277Y-119285795D01*
X103938424Y-119140845D01*
X103815155Y-119017576D01*
X103670205Y-118920723D01*
X103509145Y-118854010D01*
X103338165Y-118820000D01*
X103163835Y-118820000D01*
X102992855Y-118854010D01*
X102831795Y-118920723D01*
X102686845Y-119017576D01*
X102563576Y-119140845D01*
X102466723Y-119285795D01*
X102400010Y-119446855D01*
X102366000Y-119617835D01*
X102366000Y-119792165D01*
X102400010Y-119963145D01*
X102466723Y-120124205D01*
X102506001Y-120182988D01*
X102506001Y-120341410D01*
X98825353Y-124022058D01*
X98784893Y-124022058D01*
X98613913Y-124056068D01*
X98452853Y-124122781D01*
X98307903Y-124219634D01*
X98184634Y-124342903D01*
X98087781Y-124487853D01*
X98021068Y-124648913D01*
X97987058Y-124819893D01*
X86557767Y-124819893D01*
X86575000Y-124733260D01*
X86575000Y-124440740D01*
X86517932Y-124153842D01*
X86405990Y-123883589D01*
X86243475Y-123640368D01*
X86036632Y-123433525D01*
X85854466Y-123311805D01*
X85971355Y-123242178D01*
X86187588Y-123047269D01*
X86361641Y-122813920D01*
X86486825Y-122551099D01*
X86531476Y-122403890D01*
X86410155Y-122174000D01*
X85217000Y-122174000D01*
X85217000Y-122194000D01*
X84963000Y-122194000D01*
X84963000Y-122174000D01*
X84943000Y-122174000D01*
X84943000Y-121920000D01*
X84963000Y-121920000D01*
X84963000Y-121900000D01*
X85217000Y-121900000D01*
X85217000Y-121920000D01*
X86410155Y-121920000D01*
X86531476Y-121690110D01*
X86486825Y-121542901D01*
X86361641Y-121280080D01*
X86187588Y-121046731D01*
X85971355Y-120851822D01*
X85854466Y-120782195D01*
X86036632Y-120660475D01*
X86243475Y-120453632D01*
X86405990Y-120210411D01*
X86517932Y-119940158D01*
X86575000Y-119653260D01*
X86575000Y-119360740D01*
X86517932Y-119073842D01*
X86405990Y-118803589D01*
X86243475Y-118560368D01*
X86036632Y-118353525D01*
X85862240Y-118237000D01*
X85952895Y-118176426D01*
X94719409Y-118176426D01*
X94719409Y-118350756D01*
X94753419Y-118521736D01*
X94820132Y-118682796D01*
X94916985Y-118827746D01*
X95040254Y-118951015D01*
X95185204Y-119047868D01*
X95346264Y-119114581D01*
X95433256Y-119131885D01*
X95785000Y-119483629D01*
X95785000Y-119583553D01*
X95713847Y-119654706D01*
X95626855Y-119672010D01*
X95465795Y-119738723D01*
X95320845Y-119835576D01*
X95197576Y-119958845D01*
X95100723Y-120103795D01*
X95034010Y-120264855D01*
X95000000Y-120435835D01*
X95000000Y-120610165D01*
X95034010Y-120781145D01*
X95100723Y-120942205D01*
X95197576Y-121087155D01*
X95320845Y-121210424D01*
X95465795Y-121307277D01*
X95626855Y-121373990D01*
X95727361Y-121393982D01*
X95669010Y-121534855D01*
X95635000Y-121705835D01*
X95635000Y-121880165D01*
X95669010Y-122051145D01*
X95735723Y-122212205D01*
X95832576Y-122357155D01*
X95955845Y-122480424D01*
X96100795Y-122577277D01*
X96261855Y-122643990D01*
X96432835Y-122678000D01*
X96607165Y-122678000D01*
X96778145Y-122643990D01*
X96939205Y-122577277D01*
X97084155Y-122480424D01*
X97207424Y-122357155D01*
X97304277Y-122212205D01*
X97345268Y-122113244D01*
X97572614Y-121885898D01*
X97603528Y-121860528D01*
X97704749Y-121737189D01*
X97779963Y-121596473D01*
X97826280Y-121443788D01*
X97838000Y-121324791D01*
X97838000Y-121324789D01*
X97841919Y-121285001D01*
X97838000Y-121245213D01*
X97838000Y-117436000D01*
X113319928Y-117436000D01*
X113332188Y-117560482D01*
X113368498Y-117680180D01*
X113427463Y-117790494D01*
X113506815Y-117887185D01*
X113603506Y-117966537D01*
X113713820Y-118025502D01*
X113833518Y-118061812D01*
X113958000Y-118074072D01*
X114522250Y-118071000D01*
X114681000Y-117912250D01*
X114681000Y-116713000D01*
X113481750Y-116713000D01*
X113323000Y-116871750D01*
X113319928Y-117436000D01*
X97838000Y-117436000D01*
X97838000Y-115165104D01*
X97878990Y-115066145D01*
X97913000Y-114895165D01*
X97913000Y-114720835D01*
X97878990Y-114549855D01*
X97812277Y-114388795D01*
X97715424Y-114243845D01*
X97592155Y-114120576D01*
X97447205Y-114023723D01*
X97286145Y-113957010D01*
X97115165Y-113923000D01*
X96940835Y-113923000D01*
X96769855Y-113957010D01*
X96608795Y-114023723D01*
X96463845Y-114120576D01*
X96340576Y-114243845D01*
X96243723Y-114388795D01*
X96177010Y-114549855D01*
X96143000Y-114720835D01*
X96143000Y-114895165D01*
X96177010Y-115066145D01*
X96218001Y-115165106D01*
X96218001Y-117625604D01*
X96168564Y-117576167D01*
X96023614Y-117479314D01*
X95862554Y-117412601D01*
X95691574Y-117378591D01*
X95517244Y-117378591D01*
X95346264Y-117412601D01*
X95185204Y-117479314D01*
X95040254Y-117576167D01*
X94916985Y-117699436D01*
X94820132Y-117844386D01*
X94753419Y-118005446D01*
X94719409Y-118176426D01*
X85952895Y-118176426D01*
X86036632Y-118120475D01*
X86243475Y-117913632D01*
X86405990Y-117670411D01*
X86517932Y-117400158D01*
X86575000Y-117113260D01*
X86575000Y-116820740D01*
X86517932Y-116533842D01*
X86405990Y-116263589D01*
X86243475Y-116020368D01*
X86036632Y-115813525D01*
X85862240Y-115697000D01*
X86036632Y-115580475D01*
X86243475Y-115373632D01*
X86405990Y-115130411D01*
X86517932Y-114860158D01*
X86575000Y-114573260D01*
X86575000Y-114280740D01*
X86517932Y-113993842D01*
X86405990Y-113723589D01*
X86243475Y-113480368D01*
X86036632Y-113273525D01*
X85862240Y-113157000D01*
X86036632Y-113040475D01*
X86243475Y-112833632D01*
X86405990Y-112590411D01*
X86517932Y-112320158D01*
X86575000Y-112033260D01*
X86575000Y-111740740D01*
X86517932Y-111453842D01*
X86405990Y-111183589D01*
X86243475Y-110940368D01*
X86036632Y-110733525D01*
X85862240Y-110617000D01*
X86036632Y-110500475D01*
X86243475Y-110293632D01*
X86405990Y-110050411D01*
X86517932Y-109780158D01*
X86532138Y-109708740D01*
X87288000Y-109708740D01*
X87288000Y-110001260D01*
X87345068Y-110288158D01*
X87457010Y-110558411D01*
X87619525Y-110801632D01*
X87826368Y-111008475D01*
X88069589Y-111170990D01*
X88339842Y-111282932D01*
X88626740Y-111340000D01*
X88919260Y-111340000D01*
X89206158Y-111282932D01*
X89476411Y-111170990D01*
X89719632Y-111008475D01*
X89851487Y-110876620D01*
X89873498Y-110949180D01*
X89932463Y-111059494D01*
X90011815Y-111156185D01*
X90108506Y-111235537D01*
X90218820Y-111294502D01*
X90338518Y-111330812D01*
X90463000Y-111343072D01*
X92163000Y-111343072D01*
X92287482Y-111330812D01*
X92407180Y-111294502D01*
X92517494Y-111235537D01*
X92614185Y-111156185D01*
X92693537Y-111059494D01*
X92752502Y-110949180D01*
X92788812Y-110829482D01*
X92801072Y-110705000D01*
X92801072Y-109005000D01*
X92788812Y-108880518D01*
X92752502Y-108760820D01*
X92693537Y-108650506D01*
X92614185Y-108553815D01*
X92517494Y-108474463D01*
X92407180Y-108415498D01*
X92287482Y-108379188D01*
X92163000Y-108366928D01*
X90463000Y-108366928D01*
X90338518Y-108379188D01*
X90218820Y-108415498D01*
X90108506Y-108474463D01*
X90011815Y-108553815D01*
X89932463Y-108650506D01*
X89873498Y-108760820D01*
X89851487Y-108833380D01*
X89719632Y-108701525D01*
X89476411Y-108539010D01*
X89206158Y-108427068D01*
X88919260Y-108370000D01*
X88626740Y-108370000D01*
X88339842Y-108427068D01*
X88069589Y-108539010D01*
X87826368Y-108701525D01*
X87619525Y-108908368D01*
X87457010Y-109151589D01*
X87345068Y-109421842D01*
X87288000Y-109708740D01*
X86532138Y-109708740D01*
X86575000Y-109493260D01*
X86575000Y-109200740D01*
X86517932Y-108913842D01*
X86405990Y-108643589D01*
X86243475Y-108400368D01*
X86036632Y-108193525D01*
X85862240Y-108077000D01*
X86036632Y-107960475D01*
X86243475Y-107753632D01*
X86405990Y-107510411D01*
X86517932Y-107240158D01*
X86575000Y-106953260D01*
X86575000Y-106660740D01*
X86517932Y-106373842D01*
X86405990Y-106103589D01*
X86243475Y-105860368D01*
X86036632Y-105653525D01*
X85862240Y-105537000D01*
X86036632Y-105420475D01*
X86243475Y-105213632D01*
X86255924Y-105195000D01*
X87284928Y-105195000D01*
X87284928Y-106895000D01*
X87297188Y-107019482D01*
X87333498Y-107139180D01*
X87392463Y-107249494D01*
X87471815Y-107346185D01*
X87568506Y-107425537D01*
X87678820Y-107484502D01*
X87798518Y-107520812D01*
X87923000Y-107533072D01*
X89623000Y-107533072D01*
X89747482Y-107520812D01*
X89867180Y-107484502D01*
X89977494Y-107425537D01*
X90074185Y-107346185D01*
X90153537Y-107249494D01*
X90212502Y-107139180D01*
X90234513Y-107066620D01*
X90366368Y-107198475D01*
X90609589Y-107360990D01*
X90879842Y-107472932D01*
X91166740Y-107530000D01*
X91459260Y-107530000D01*
X91746158Y-107472932D01*
X92016411Y-107360990D01*
X92259632Y-107198475D01*
X92466475Y-106991632D01*
X92601201Y-106790000D01*
X93816408Y-106790000D01*
X93853000Y-106793604D01*
X93889592Y-106790000D01*
X95594410Y-106790000D01*
X95631000Y-106793604D01*
X95667590Y-106790000D01*
X95667592Y-106790000D01*
X95777045Y-106779220D01*
X95917478Y-106736620D01*
X96046902Y-106667441D01*
X96160343Y-106574343D01*
X96183669Y-106545920D01*
X96962807Y-105766782D01*
X97032145Y-105752990D01*
X97193205Y-105686277D01*
X97338155Y-105589424D01*
X97461424Y-105466155D01*
X97558277Y-105321205D01*
X97624990Y-105160145D01*
X97659000Y-104989165D01*
X97659000Y-104814835D01*
X97652125Y-104780272D01*
X97680001Y-104821991D01*
X97680000Y-108597213D01*
X92214213Y-114063000D01*
X90266987Y-114063000D01*
X90208205Y-114023723D01*
X90047145Y-113957010D01*
X89876165Y-113923000D01*
X89701835Y-113923000D01*
X89530855Y-113957010D01*
X89369795Y-114023723D01*
X89224845Y-114120576D01*
X89101576Y-114243845D01*
X89004723Y-114388795D01*
X88938010Y-114549855D01*
X88904000Y-114720835D01*
X88904000Y-114895165D01*
X88938010Y-115066145D01*
X89004723Y-115227205D01*
X89101576Y-115372155D01*
X89224845Y-115495424D01*
X89369795Y-115592277D01*
X89530855Y-115658990D01*
X89701835Y-115693000D01*
X89876165Y-115693000D01*
X90047145Y-115658990D01*
X90208205Y-115592277D01*
X90266987Y-115553000D01*
X92486212Y-115553000D01*
X92522802Y-115556604D01*
X92559392Y-115553000D01*
X92559394Y-115553000D01*
X92668847Y-115542220D01*
X92809280Y-115499620D01*
X92938704Y-115430441D01*
X93052145Y-115337343D01*
X93075471Y-115308920D01*
X98925921Y-109458470D01*
X98954343Y-109435145D01*
X99000595Y-109378787D01*
X99047441Y-109321705D01*
X99116619Y-109192281D01*
X99116620Y-109192280D01*
X99159220Y-109051847D01*
X99170000Y-108942394D01*
X99170000Y-108942385D01*
X99173603Y-108905803D01*
X99170000Y-108869221D01*
X99170000Y-106529335D01*
X99254500Y-106529335D01*
X99254500Y-106703665D01*
X99288510Y-106874645D01*
X99355223Y-107035705D01*
X99452076Y-107180655D01*
X99575345Y-107303924D01*
X99720295Y-107400777D01*
X99881355Y-107467490D01*
X100052335Y-107501500D01*
X100226665Y-107501500D01*
X100397645Y-107467490D01*
X100496604Y-107426500D01*
X104375988Y-107426500D01*
X106489733Y-109540246D01*
X106530723Y-109639205D01*
X106627576Y-109784155D01*
X106750845Y-109907424D01*
X106895795Y-110004277D01*
X107056855Y-110070990D01*
X107227835Y-110105000D01*
X107402165Y-110105000D01*
X107573145Y-110070990D01*
X107734205Y-110004277D01*
X107879155Y-109907424D01*
X108002424Y-109784155D01*
X108099277Y-109639205D01*
X108165990Y-109478145D01*
X108200000Y-109307165D01*
X108200000Y-109132835D01*
X108165990Y-108961855D01*
X108099277Y-108800795D01*
X108002424Y-108655845D01*
X107879155Y-108532576D01*
X107734205Y-108435723D01*
X107635246Y-108394733D01*
X105312400Y-106071887D01*
X105287028Y-106040972D01*
X105163689Y-105939751D01*
X105022973Y-105864537D01*
X104870288Y-105818220D01*
X104751291Y-105806500D01*
X104751288Y-105806500D01*
X104711500Y-105802581D01*
X104671712Y-105806500D01*
X100496604Y-105806500D01*
X100397645Y-105765510D01*
X100226665Y-105731500D01*
X100052335Y-105731500D01*
X99881355Y-105765510D01*
X99720295Y-105832223D01*
X99575345Y-105929076D01*
X99452076Y-106052345D01*
X99355223Y-106197295D01*
X99288510Y-106358355D01*
X99254500Y-106529335D01*
X99170000Y-106529335D01*
X99170000Y-104801792D01*
X99202529Y-104753109D01*
X99269242Y-104592049D01*
X99303252Y-104421069D01*
X99303252Y-104246739D01*
X99269242Y-104075759D01*
X99202529Y-103914699D01*
X99105676Y-103769749D01*
X99088715Y-103752788D01*
X99099835Y-103755000D01*
X99274165Y-103755000D01*
X99445145Y-103720990D01*
X99606205Y-103654277D01*
X99751155Y-103557424D01*
X99874424Y-103434155D01*
X99971277Y-103289205D01*
X100037990Y-103128145D01*
X100072000Y-102957165D01*
X100072000Y-102782835D01*
X100037990Y-102611855D01*
X99971277Y-102450795D01*
X99874424Y-102305845D01*
X99751155Y-102182576D01*
X99606205Y-102085723D01*
X99445145Y-102019010D01*
X99375807Y-102005218D01*
X99104669Y-101734080D01*
X99081343Y-101705657D01*
X98967902Y-101612559D01*
X98838478Y-101543380D01*
X98698045Y-101500780D01*
X98588592Y-101490000D01*
X98588590Y-101490000D01*
X98552000Y-101486396D01*
X98515410Y-101490000D01*
X92801072Y-101490000D01*
X92801072Y-101385000D01*
X92788812Y-101260518D01*
X92752502Y-101140820D01*
X92693537Y-101030506D01*
X92614185Y-100933815D01*
X92517494Y-100854463D01*
X92407180Y-100795498D01*
X92287482Y-100759188D01*
X92163000Y-100746928D01*
X90463000Y-100746928D01*
X90338518Y-100759188D01*
X90218820Y-100795498D01*
X90108506Y-100854463D01*
X90011815Y-100933815D01*
X89932463Y-101030506D01*
X89873498Y-101140820D01*
X89851487Y-101213380D01*
X89719632Y-101081525D01*
X89476411Y-100919010D01*
X89206158Y-100807068D01*
X88919260Y-100750000D01*
X88626740Y-100750000D01*
X88339842Y-100807068D01*
X88069589Y-100919010D01*
X87826368Y-101081525D01*
X87619525Y-101288368D01*
X87457010Y-101531589D01*
X87345068Y-101801842D01*
X87288000Y-102088740D01*
X87288000Y-102381260D01*
X87345068Y-102668158D01*
X87457010Y-102938411D01*
X87619525Y-103181632D01*
X87826368Y-103388475D01*
X88069589Y-103550990D01*
X88339842Y-103662932D01*
X88626740Y-103720000D01*
X88919260Y-103720000D01*
X89206158Y-103662932D01*
X89476411Y-103550990D01*
X89719632Y-103388475D01*
X89851487Y-103256620D01*
X89873498Y-103329180D01*
X89932463Y-103439494D01*
X90011815Y-103536185D01*
X90108506Y-103615537D01*
X90218820Y-103674502D01*
X90338518Y-103710812D01*
X90463000Y-103723072D01*
X92163000Y-103723072D01*
X92287482Y-103710812D01*
X92407180Y-103674502D01*
X92517494Y-103615537D01*
X92614185Y-103536185D01*
X92693537Y-103439494D01*
X92752502Y-103329180D01*
X92788812Y-103209482D01*
X92801072Y-103085000D01*
X92801072Y-102980000D01*
X98243411Y-102980000D01*
X98322218Y-103058807D01*
X98336010Y-103128145D01*
X98402723Y-103289205D01*
X98499576Y-103434155D01*
X98516537Y-103451116D01*
X98505417Y-103448904D01*
X98331087Y-103448904D01*
X98160107Y-103482914D01*
X97999047Y-103549627D01*
X97854097Y-103646480D01*
X97730828Y-103769749D01*
X97633975Y-103914699D01*
X97567262Y-104075759D01*
X97533252Y-104246739D01*
X97533252Y-104421069D01*
X97540127Y-104455632D01*
X97461424Y-104337845D01*
X97338155Y-104214576D01*
X97193205Y-104117723D01*
X97032145Y-104051010D01*
X96861165Y-104017000D01*
X96686835Y-104017000D01*
X96515855Y-104051010D01*
X96354795Y-104117723D01*
X96209845Y-104214576D01*
X96086576Y-104337845D01*
X95989723Y-104482795D01*
X95923010Y-104643855D01*
X95920479Y-104656579D01*
X95920479Y-104600314D01*
X95886469Y-104429334D01*
X95819756Y-104268274D01*
X95722903Y-104123324D01*
X95599634Y-104000055D01*
X95454684Y-103903202D01*
X95293624Y-103836489D01*
X95122644Y-103802479D01*
X94948314Y-103802479D01*
X94777334Y-103836489D01*
X94616274Y-103903202D01*
X94471324Y-104000055D01*
X94348055Y-104123324D01*
X94251202Y-104268274D01*
X94184489Y-104429334D01*
X94170697Y-104498672D01*
X93369369Y-105300000D01*
X92601201Y-105300000D01*
X92466475Y-105098368D01*
X92259632Y-104891525D01*
X92016411Y-104729010D01*
X91746158Y-104617068D01*
X91459260Y-104560000D01*
X91166740Y-104560000D01*
X90879842Y-104617068D01*
X90609589Y-104729010D01*
X90366368Y-104891525D01*
X90234513Y-105023380D01*
X90212502Y-104950820D01*
X90153537Y-104840506D01*
X90074185Y-104743815D01*
X89977494Y-104664463D01*
X89867180Y-104605498D01*
X89747482Y-104569188D01*
X89623000Y-104556928D01*
X87923000Y-104556928D01*
X87798518Y-104569188D01*
X87678820Y-104605498D01*
X87568506Y-104664463D01*
X87471815Y-104743815D01*
X87392463Y-104840506D01*
X87333498Y-104950820D01*
X87297188Y-105070518D01*
X87284928Y-105195000D01*
X86255924Y-105195000D01*
X86405990Y-104970411D01*
X86517932Y-104700158D01*
X86575000Y-104413260D01*
X86575000Y-104120740D01*
X86517932Y-103833842D01*
X86405990Y-103563589D01*
X86243475Y-103320368D01*
X86036632Y-103113525D01*
X85862240Y-102997000D01*
X86036632Y-102880475D01*
X86243475Y-102673632D01*
X86405990Y-102430411D01*
X86517932Y-102160158D01*
X86575000Y-101873260D01*
X86575000Y-101580740D01*
X86517932Y-101293842D01*
X86405990Y-101023589D01*
X86243475Y-100780368D01*
X86036632Y-100573525D01*
X85862240Y-100457000D01*
X86036632Y-100340475D01*
X86243475Y-100133632D01*
X86405990Y-99890411D01*
X86517932Y-99620158D01*
X86575000Y-99333260D01*
X86575000Y-99040740D01*
X86517932Y-98753842D01*
X86405990Y-98483589D01*
X86243475Y-98240368D01*
X86036632Y-98033525D01*
X85862240Y-97917000D01*
X86036632Y-97800475D01*
X86243475Y-97593632D01*
X86255924Y-97575000D01*
X87284928Y-97575000D01*
X87284928Y-99275000D01*
X87297188Y-99399482D01*
X87333498Y-99519180D01*
X87392463Y-99629494D01*
X87471815Y-99726185D01*
X87568506Y-99805537D01*
X87678820Y-99864502D01*
X87798518Y-99900812D01*
X87923000Y-99913072D01*
X89623000Y-99913072D01*
X89747482Y-99900812D01*
X89867180Y-99864502D01*
X89977494Y-99805537D01*
X90074185Y-99726185D01*
X90153537Y-99629494D01*
X90212502Y-99519180D01*
X90234513Y-99446620D01*
X90366368Y-99578475D01*
X90609589Y-99740990D01*
X90879842Y-99852932D01*
X91166740Y-99910000D01*
X91459260Y-99910000D01*
X91746158Y-99852932D01*
X92016411Y-99740990D01*
X92259632Y-99578475D01*
X92466475Y-99371632D01*
X92601201Y-99170000D01*
X98007410Y-99170000D01*
X98044000Y-99173604D01*
X98080590Y-99170000D01*
X98080592Y-99170000D01*
X98190045Y-99159220D01*
X98330478Y-99116620D01*
X98459902Y-99047441D01*
X98573343Y-98954343D01*
X98596669Y-98925920D01*
X103439807Y-94082782D01*
X103509145Y-94068990D01*
X103670205Y-94002277D01*
X103815155Y-93905424D01*
X103938424Y-93782155D01*
X104035277Y-93637205D01*
X104101990Y-93476145D01*
X104136000Y-93305165D01*
X104136000Y-93130835D01*
X104101990Y-92959855D01*
X104035277Y-92798795D01*
X103938424Y-92653845D01*
X103815155Y-92530576D01*
X103670205Y-92433723D01*
X103509145Y-92367010D01*
X103338165Y-92333000D01*
X103163835Y-92333000D01*
X102992855Y-92367010D01*
X102831795Y-92433723D01*
X102686845Y-92530576D01*
X102563576Y-92653845D01*
X102466723Y-92798795D01*
X102400010Y-92959855D01*
X102386218Y-93029193D01*
X97735411Y-97680000D01*
X92601201Y-97680000D01*
X92466475Y-97478368D01*
X92259632Y-97271525D01*
X92016411Y-97109010D01*
X91746158Y-96997068D01*
X91459260Y-96940000D01*
X91166740Y-96940000D01*
X90879842Y-96997068D01*
X90609589Y-97109010D01*
X90366368Y-97271525D01*
X90234513Y-97403380D01*
X90212502Y-97330820D01*
X90153537Y-97220506D01*
X90074185Y-97123815D01*
X89977494Y-97044463D01*
X89867180Y-96985498D01*
X89747482Y-96949188D01*
X89623000Y-96936928D01*
X87923000Y-96936928D01*
X87798518Y-96949188D01*
X87678820Y-96985498D01*
X87568506Y-97044463D01*
X87471815Y-97123815D01*
X87392463Y-97220506D01*
X87333498Y-97330820D01*
X87297188Y-97450518D01*
X87284928Y-97575000D01*
X86255924Y-97575000D01*
X86405990Y-97350411D01*
X86517932Y-97080158D01*
X86575000Y-96793260D01*
X86575000Y-96500740D01*
X86517932Y-96213842D01*
X86405990Y-95943589D01*
X86243475Y-95700368D01*
X86036632Y-95493525D01*
X85862240Y-95377000D01*
X86036632Y-95260475D01*
X86243475Y-95053632D01*
X86405990Y-94810411D01*
X86517932Y-94540158D01*
X86575000Y-94253260D01*
X86575000Y-93960740D01*
X86517932Y-93673842D01*
X86405990Y-93403589D01*
X86243475Y-93160368D01*
X86036632Y-92953525D01*
X85862240Y-92837000D01*
X86036632Y-92720475D01*
X86243475Y-92513632D01*
X86405990Y-92270411D01*
X86517932Y-92000158D01*
X86575000Y-91713260D01*
X86575000Y-91420740D01*
X86517932Y-91133842D01*
X86405990Y-90863589D01*
X86243475Y-90620368D01*
X86036632Y-90413525D01*
X85862240Y-90297000D01*
X86036632Y-90180475D01*
X86243475Y-89973632D01*
X86405990Y-89730411D01*
X86517932Y-89460158D01*
X86575000Y-89173260D01*
X86575000Y-88880740D01*
X86517932Y-88593842D01*
X86405990Y-88323589D01*
X86243475Y-88080368D01*
X86036632Y-87873525D01*
X85862240Y-87757000D01*
X86036632Y-87640475D01*
X86243475Y-87433632D01*
X86405990Y-87190411D01*
X86517932Y-86920158D01*
X86575000Y-86633260D01*
X86575000Y-86340740D01*
X86517932Y-86053842D01*
X86405990Y-85783589D01*
X86243475Y-85540368D01*
X86036632Y-85333525D01*
X85862240Y-85217000D01*
X86036632Y-85100475D01*
X86243475Y-84893632D01*
X86405990Y-84650411D01*
X86517932Y-84380158D01*
X86575000Y-84093260D01*
X86575000Y-83800740D01*
X86517932Y-83513842D01*
X86405990Y-83243589D01*
X86243475Y-83000368D01*
X86036632Y-82793525D01*
X85862240Y-82677000D01*
X86036632Y-82560475D01*
X86243475Y-82353632D01*
X86405990Y-82110411D01*
X86517932Y-81840158D01*
X86575000Y-81553260D01*
X86575000Y-81260740D01*
X86517932Y-80973842D01*
X86405990Y-80703589D01*
X86243475Y-80460368D01*
X86036632Y-80253525D01*
X85862240Y-80137000D01*
X86036632Y-80020475D01*
X86243475Y-79813632D01*
X86405990Y-79570411D01*
X86517932Y-79300158D01*
X86575000Y-79013260D01*
X86575000Y-78720740D01*
X86517932Y-78433842D01*
X86405990Y-78163589D01*
X86243475Y-77920368D01*
X86111620Y-77788513D01*
X86184180Y-77766502D01*
X86294494Y-77707537D01*
X86391185Y-77628185D01*
X86470537Y-77531494D01*
X86529502Y-77421180D01*
X86565812Y-77301482D01*
X86578072Y-77177000D01*
X86575045Y-76620835D01*
X89793000Y-76620835D01*
X89793000Y-76795165D01*
X89827010Y-76966145D01*
X89893723Y-77127205D01*
X89990576Y-77272155D01*
X90113845Y-77395424D01*
X90258795Y-77492277D01*
X90419855Y-77558990D01*
X90590835Y-77593000D01*
X90765165Y-77593000D01*
X90936145Y-77558990D01*
X91035104Y-77518000D01*
X104947488Y-77518000D01*
X105346733Y-77917245D01*
X105362001Y-77954106D01*
X105362000Y-92162212D01*
X105358081Y-92202000D01*
X105362000Y-92241788D01*
X105362000Y-92241790D01*
X105373720Y-92360787D01*
X105420037Y-92513472D01*
X105436566Y-92544396D01*
X105495251Y-92654189D01*
X105508686Y-92670559D01*
X105596472Y-92777528D01*
X105627387Y-92802899D01*
X107632733Y-94808246D01*
X107673723Y-94907205D01*
X107770576Y-95052155D01*
X107893845Y-95175424D01*
X108038795Y-95272277D01*
X108199855Y-95338990D01*
X108370835Y-95373000D01*
X108545165Y-95373000D01*
X108716145Y-95338990D01*
X108877205Y-95272277D01*
X109022155Y-95175424D01*
X109145424Y-95052155D01*
X109242277Y-94907205D01*
X109308990Y-94746145D01*
X109343000Y-94575165D01*
X109343000Y-94400835D01*
X109308990Y-94229855D01*
X109242277Y-94068795D01*
X109145424Y-93923845D01*
X109022155Y-93800576D01*
X108877205Y-93703723D01*
X108778246Y-93662733D01*
X106982000Y-91866488D01*
X106982000Y-77954104D01*
X107022990Y-77855145D01*
X107057000Y-77684165D01*
X107057000Y-77509835D01*
X107022990Y-77338855D01*
X106956277Y-77177795D01*
X106859424Y-77032845D01*
X106736155Y-76909576D01*
X106591205Y-76812723D01*
X106492245Y-76771733D01*
X105883899Y-76163387D01*
X105858528Y-76132472D01*
X105735189Y-76031251D01*
X105594473Y-75956037D01*
X105441788Y-75909720D01*
X105322791Y-75898000D01*
X105322788Y-75898000D01*
X105283000Y-75894081D01*
X105243212Y-75898000D01*
X91035104Y-75898000D01*
X90936145Y-75857010D01*
X90765165Y-75823000D01*
X90590835Y-75823000D01*
X90419855Y-75857010D01*
X90258795Y-75923723D01*
X90113845Y-76020576D01*
X89990576Y-76143845D01*
X89893723Y-76288795D01*
X89827010Y-76449855D01*
X89793000Y-76620835D01*
X86575045Y-76620835D01*
X86575000Y-76612750D01*
X86416250Y-76454000D01*
X85217000Y-76454000D01*
X85217000Y-76474000D01*
X84963000Y-76474000D01*
X84963000Y-76454000D01*
X84943000Y-76454000D01*
X84943000Y-76200000D01*
X84963000Y-76200000D01*
X84963000Y-75000750D01*
X85217000Y-75000750D01*
X85217000Y-76200000D01*
X86416250Y-76200000D01*
X86575000Y-76041250D01*
X86576689Y-75731000D01*
X137957928Y-75731000D01*
X137961000Y-76295250D01*
X138119750Y-76454000D01*
X139319000Y-76454000D01*
X139319000Y-75254750D01*
X139160250Y-75096000D01*
X138596000Y-75092928D01*
X138471518Y-75105188D01*
X138351820Y-75141498D01*
X138241506Y-75200463D01*
X138144815Y-75279815D01*
X138065463Y-75376506D01*
X138006498Y-75486820D01*
X137970188Y-75606518D01*
X137957928Y-75731000D01*
X86576689Y-75731000D01*
X86578072Y-75477000D01*
X86565812Y-75352518D01*
X86529502Y-75232820D01*
X86470537Y-75122506D01*
X86391185Y-75025815D01*
X86294494Y-74946463D01*
X86184180Y-74887498D01*
X86064482Y-74851188D01*
X85940000Y-74838928D01*
X85375750Y-74842000D01*
X85217000Y-75000750D01*
X84963000Y-75000750D01*
X84804250Y-74842000D01*
X84240000Y-74838928D01*
X84115518Y-74851188D01*
X83995820Y-74887498D01*
X83885506Y-74946463D01*
X83788815Y-75025815D01*
X83709463Y-75122506D01*
X83650498Y-75232820D01*
X83616000Y-75346545D01*
X83616000Y-69265000D01*
X140791477Y-69265000D01*
X140778027Y-75317396D01*
%TA.AperFunction,Conductor*%
D18*
G36*
X140778027Y-75317396D02*
G01*
X140747185Y-75279815D01*
X140650494Y-75200463D01*
X140540180Y-75141498D01*
X140420482Y-75105188D01*
X140296000Y-75092928D01*
X139731750Y-75096000D01*
X139573000Y-75254750D01*
X139573000Y-76454000D01*
X139593000Y-76454000D01*
X139593000Y-76708000D01*
X139573000Y-76708000D01*
X139573000Y-76728000D01*
X139319000Y-76728000D01*
X139319000Y-76708000D01*
X138119750Y-76708000D01*
X137961000Y-76866750D01*
X137957928Y-77431000D01*
X137970188Y-77555482D01*
X138006498Y-77675180D01*
X138065463Y-77785494D01*
X138144815Y-77882185D01*
X138241506Y-77961537D01*
X138351820Y-78020502D01*
X138424380Y-78042513D01*
X138292525Y-78174368D01*
X138130010Y-78417589D01*
X138018068Y-78687842D01*
X137961000Y-78974740D01*
X137961000Y-79267260D01*
X138018068Y-79554158D01*
X138130010Y-79824411D01*
X138292525Y-80067632D01*
X138499368Y-80274475D01*
X138673760Y-80391000D01*
X138499368Y-80507525D01*
X138292525Y-80714368D01*
X138130010Y-80957589D01*
X138018068Y-81227842D01*
X137961000Y-81514740D01*
X137961000Y-81807260D01*
X138018068Y-82094158D01*
X138130010Y-82364411D01*
X138292525Y-82607632D01*
X138499368Y-82814475D01*
X138673760Y-82931000D01*
X138499368Y-83047525D01*
X138292525Y-83254368D01*
X138130010Y-83497589D01*
X138018068Y-83767842D01*
X137961000Y-84054740D01*
X137961000Y-84347260D01*
X138018068Y-84634158D01*
X138130010Y-84904411D01*
X138292525Y-85147632D01*
X138499368Y-85354475D01*
X138673760Y-85471000D01*
X138499368Y-85587525D01*
X138292525Y-85794368D01*
X138130010Y-86037589D01*
X138018068Y-86307842D01*
X137961000Y-86594740D01*
X137961000Y-86887260D01*
X138018068Y-87174158D01*
X138130010Y-87444411D01*
X138292525Y-87687632D01*
X138499368Y-87894475D01*
X138673760Y-88011000D01*
X138499368Y-88127525D01*
X138292525Y-88334368D01*
X138130010Y-88577589D01*
X138018068Y-88847842D01*
X137961000Y-89134740D01*
X137961000Y-89427260D01*
X138018068Y-89714158D01*
X138130010Y-89984411D01*
X138292525Y-90227632D01*
X138499368Y-90434475D01*
X138673760Y-90551000D01*
X138499368Y-90667525D01*
X138292525Y-90874368D01*
X138130010Y-91117589D01*
X138018068Y-91387842D01*
X137961000Y-91674740D01*
X137961000Y-91967260D01*
X138018068Y-92254158D01*
X138130010Y-92524411D01*
X138292525Y-92767632D01*
X138499368Y-92974475D01*
X138673760Y-93091000D01*
X138499368Y-93207525D01*
X138292525Y-93414368D01*
X138130010Y-93657589D01*
X138018068Y-93927842D01*
X137961000Y-94214740D01*
X137961000Y-94507260D01*
X138018068Y-94794158D01*
X138130010Y-95064411D01*
X138292525Y-95307632D01*
X138499368Y-95514475D01*
X138673760Y-95631000D01*
X138499368Y-95747525D01*
X138292525Y-95954368D01*
X138130010Y-96197589D01*
X138018068Y-96467842D01*
X137961000Y-96754740D01*
X137961000Y-97047260D01*
X138018068Y-97334158D01*
X138130010Y-97604411D01*
X138292525Y-97847632D01*
X138499368Y-98054475D01*
X138673760Y-98171000D01*
X138499368Y-98287525D01*
X138292525Y-98494368D01*
X138130010Y-98737589D01*
X138018068Y-99007842D01*
X137961000Y-99294740D01*
X137961000Y-99587260D01*
X138018068Y-99874158D01*
X138130010Y-100144411D01*
X138292525Y-100387632D01*
X138499368Y-100594475D01*
X138673760Y-100711000D01*
X138499368Y-100827525D01*
X138292525Y-101034368D01*
X138130010Y-101277589D01*
X138018068Y-101547842D01*
X137961000Y-101834740D01*
X137961000Y-102127260D01*
X138018068Y-102414158D01*
X138130010Y-102684411D01*
X138292525Y-102927632D01*
X138499368Y-103134475D01*
X138673760Y-103251000D01*
X138499368Y-103367525D01*
X138292525Y-103574368D01*
X138130010Y-103817589D01*
X138018068Y-104087842D01*
X137961000Y-104374740D01*
X137961000Y-104667260D01*
X138018068Y-104954158D01*
X138130010Y-105224411D01*
X138292525Y-105467632D01*
X138499368Y-105674475D01*
X138673760Y-105791000D01*
X138499368Y-105907525D01*
X138292525Y-106114368D01*
X138130010Y-106357589D01*
X138018068Y-106627842D01*
X137961000Y-106914740D01*
X137961000Y-107062411D01*
X137204669Y-106306080D01*
X137181343Y-106277657D01*
X137067902Y-106184559D01*
X136938478Y-106115380D01*
X136798045Y-106072780D01*
X136688592Y-106062000D01*
X136688590Y-106062000D01*
X136652000Y-106058396D01*
X136615410Y-106062000D01*
X131862581Y-106062000D01*
X131825999Y-106058397D01*
X131789417Y-106062000D01*
X131789408Y-106062000D01*
X131679955Y-106072780D01*
X131539522Y-106115380D01*
X131479276Y-106147582D01*
X131410097Y-106184559D01*
X131340133Y-106241978D01*
X131296657Y-106277657D01*
X131273331Y-106306080D01*
X130113193Y-107466218D01*
X130043855Y-107480010D01*
X129882795Y-107546723D01*
X129737845Y-107643576D01*
X129614576Y-107766845D01*
X129603500Y-107783421D01*
X129592424Y-107766845D01*
X129469155Y-107643576D01*
X129324205Y-107546723D01*
X129163145Y-107480010D01*
X128992165Y-107446000D01*
X128817835Y-107446000D01*
X128646855Y-107480010D01*
X128485795Y-107546723D01*
X128340845Y-107643576D01*
X128217576Y-107766845D01*
X128120723Y-107911795D01*
X128054010Y-108072855D01*
X128020000Y-108243835D01*
X128020000Y-108418165D01*
X128054010Y-108589145D01*
X128120723Y-108750205D01*
X128217576Y-108895155D01*
X128340845Y-109018424D01*
X128485795Y-109115277D01*
X128646855Y-109181990D01*
X128716193Y-109195782D01*
X128912332Y-109391921D01*
X128935658Y-109420344D01*
X128964080Y-109443669D01*
X129049098Y-109513442D01*
X129082832Y-109531473D01*
X129178523Y-109582621D01*
X129318956Y-109625221D01*
X129428409Y-109636001D01*
X129428410Y-109636001D01*
X129465000Y-109639605D01*
X129501590Y-109636001D01*
X135887412Y-109636001D01*
X138008310Y-111756899D01*
X137961000Y-111994740D01*
X137961000Y-112287260D01*
X138018068Y-112574158D01*
X138130010Y-112844411D01*
X138292525Y-113087632D01*
X138499368Y-113294475D01*
X138673760Y-113411000D01*
X138499368Y-113527525D01*
X138292525Y-113734368D01*
X138130010Y-113977589D01*
X138018068Y-114247842D01*
X137961000Y-114534740D01*
X137961000Y-114827260D01*
X138018068Y-115114158D01*
X138130010Y-115384411D01*
X138292525Y-115627632D01*
X138499368Y-115834475D01*
X138673760Y-115951000D01*
X138499368Y-116067525D01*
X138292525Y-116274368D01*
X138130010Y-116517589D01*
X138018068Y-116787842D01*
X137961000Y-117074740D01*
X137961000Y-117367260D01*
X138018068Y-117654158D01*
X138130010Y-117924411D01*
X138292525Y-118167632D01*
X138499368Y-118374475D01*
X138673760Y-118491000D01*
X138499368Y-118607525D01*
X138292525Y-118814368D01*
X138130010Y-119057589D01*
X138018068Y-119327842D01*
X137961000Y-119614740D01*
X137961000Y-119670487D01*
X135029719Y-116739206D01*
X135039205Y-116735277D01*
X135184155Y-116638424D01*
X135307424Y-116515155D01*
X135404277Y-116370205D01*
X135470990Y-116209145D01*
X135505000Y-116038165D01*
X135505000Y-115863835D01*
X135470990Y-115692855D01*
X135404277Y-115531795D01*
X135307424Y-115386845D01*
X135184155Y-115263576D01*
X135039205Y-115166723D01*
X134940246Y-115125733D01*
X133315899Y-113501387D01*
X133290528Y-113470472D01*
X133167189Y-113369251D01*
X133026473Y-113294037D01*
X132873788Y-113247720D01*
X132754791Y-113236000D01*
X132754788Y-113236000D01*
X132715000Y-113232081D01*
X132675212Y-113236000D01*
X125557513Y-113236000D01*
X122392072Y-110070560D01*
X122392072Y-108878000D01*
X122379812Y-108753518D01*
X122343502Y-108633820D01*
X122284537Y-108523506D01*
X122205185Y-108426815D01*
X122108494Y-108347463D01*
X121998180Y-108288498D01*
X121878482Y-108252188D01*
X121754000Y-108239928D01*
X121196441Y-108239928D01*
X114762697Y-101806185D01*
X114766482Y-101805812D01*
X114886180Y-101769502D01*
X114996494Y-101710537D01*
X115093185Y-101631185D01*
X115172537Y-101534494D01*
X115231502Y-101424180D01*
X115253513Y-101351620D01*
X115385368Y-101483475D01*
X115628589Y-101645990D01*
X115898842Y-101757932D01*
X116185740Y-101815000D01*
X116478260Y-101815000D01*
X116765158Y-101757932D01*
X117035411Y-101645990D01*
X117278632Y-101483475D01*
X117485475Y-101276632D01*
X117602000Y-101102240D01*
X117718525Y-101276632D01*
X117925368Y-101483475D01*
X118168589Y-101645990D01*
X118438842Y-101757932D01*
X118725740Y-101815000D01*
X119018260Y-101815000D01*
X119305158Y-101757932D01*
X119575411Y-101645990D01*
X119818632Y-101483475D01*
X120025475Y-101276632D01*
X120147195Y-101094466D01*
X120216822Y-101211355D01*
X120411731Y-101427588D01*
X120645080Y-101601641D01*
X120907901Y-101726825D01*
X121055110Y-101771476D01*
X121285000Y-101650155D01*
X121285000Y-100457000D01*
X121265000Y-100457000D01*
X121265000Y-100203000D01*
X121285000Y-100203000D01*
X121285000Y-99009845D01*
X121539000Y-99009845D01*
X121539000Y-100203000D01*
X121559000Y-100203000D01*
X121559000Y-100457000D01*
X121539000Y-100457000D01*
X121539000Y-101650155D01*
X121768890Y-101771476D01*
X121916099Y-101726825D01*
X122178920Y-101601641D01*
X122412269Y-101427588D01*
X122607178Y-101211355D01*
X122676805Y-101094466D01*
X122798525Y-101276632D01*
X123005368Y-101483475D01*
X123248589Y-101645990D01*
X123518842Y-101757932D01*
X123805740Y-101815000D01*
X124098260Y-101815000D01*
X124385158Y-101757932D01*
X124655411Y-101645990D01*
X124898632Y-101483475D01*
X125105475Y-101276632D01*
X125222000Y-101102240D01*
X125338525Y-101276632D01*
X125545368Y-101483475D01*
X125788589Y-101645990D01*
X126058842Y-101757932D01*
X126345740Y-101815000D01*
X126638260Y-101815000D01*
X126925158Y-101757932D01*
X127195411Y-101645990D01*
X127438632Y-101483475D01*
X127645475Y-101276632D01*
X127762000Y-101102240D01*
X127878525Y-101276632D01*
X128085368Y-101483475D01*
X128328589Y-101645990D01*
X128598842Y-101757932D01*
X128885740Y-101815000D01*
X129178260Y-101815000D01*
X129465158Y-101757932D01*
X129735411Y-101645990D01*
X129978632Y-101483475D01*
X130185475Y-101276632D01*
X130302000Y-101102240D01*
X130418525Y-101276632D01*
X130625368Y-101483475D01*
X130868589Y-101645990D01*
X131138842Y-101757932D01*
X131425740Y-101815000D01*
X131718260Y-101815000D01*
X132005158Y-101757932D01*
X132275411Y-101645990D01*
X132518632Y-101483475D01*
X132725475Y-101276632D01*
X132887990Y-101033411D01*
X132999932Y-100763158D01*
X133057000Y-100476260D01*
X133057000Y-100183740D01*
X132999932Y-99896842D01*
X132887990Y-99626589D01*
X132725475Y-99383368D01*
X132518632Y-99176525D01*
X132275411Y-99014010D01*
X132005158Y-98902068D01*
X131718260Y-98845000D01*
X131425740Y-98845000D01*
X131138842Y-98902068D01*
X130868589Y-99014010D01*
X130625368Y-99176525D01*
X130418525Y-99383368D01*
X130302000Y-99557760D01*
X130185475Y-99383368D01*
X129978632Y-99176525D01*
X129735411Y-99014010D01*
X129465158Y-98902068D01*
X129178260Y-98845000D01*
X128885740Y-98845000D01*
X128598842Y-98902068D01*
X128328589Y-99014010D01*
X128085368Y-99176525D01*
X127878525Y-99383368D01*
X127762000Y-99557760D01*
X127645475Y-99383368D01*
X127438632Y-99176525D01*
X127195411Y-99014010D01*
X126925158Y-98902068D01*
X126638260Y-98845000D01*
X126345740Y-98845000D01*
X126058842Y-98902068D01*
X125788589Y-99014010D01*
X125545368Y-99176525D01*
X125338525Y-99383368D01*
X125222000Y-99557760D01*
X125105475Y-99383368D01*
X124898632Y-99176525D01*
X124655411Y-99014010D01*
X124385158Y-98902068D01*
X124098260Y-98845000D01*
X123805740Y-98845000D01*
X123518842Y-98902068D01*
X123248589Y-99014010D01*
X123005368Y-99176525D01*
X122798525Y-99383368D01*
X122676805Y-99565534D01*
X122607178Y-99448645D01*
X122412269Y-99232412D01*
X122178920Y-99058359D01*
X121916099Y-98933175D01*
X121768890Y-98888524D01*
X121539000Y-99009845D01*
X121285000Y-99009845D01*
X121055110Y-98888524D01*
X120907901Y-98933175D01*
X120645080Y-99058359D01*
X120411731Y-99232412D01*
X120216822Y-99448645D01*
X120147195Y-99565534D01*
X120025475Y-99383368D01*
X119818632Y-99176525D01*
X119575411Y-99014010D01*
X119305158Y-98902068D01*
X119018260Y-98845000D01*
X118725740Y-98845000D01*
X118438842Y-98902068D01*
X118168589Y-99014010D01*
X117925368Y-99176525D01*
X117718525Y-99383368D01*
X117602000Y-99557760D01*
X117485475Y-99383368D01*
X117278632Y-99176525D01*
X117035411Y-99014010D01*
X116765158Y-98902068D01*
X116478260Y-98845000D01*
X116185740Y-98845000D01*
X115898842Y-98902068D01*
X115628589Y-99014010D01*
X115385368Y-99176525D01*
X115253513Y-99308380D01*
X115231502Y-99235820D01*
X115172537Y-99125506D01*
X115093185Y-99028815D01*
X114996494Y-98949463D01*
X114886180Y-98890498D01*
X114766482Y-98854188D01*
X114642000Y-98841928D01*
X114075659Y-98841928D01*
X115652587Y-97265000D01*
X118902013Y-97265000D01*
X118960795Y-97304277D01*
X119121855Y-97370990D01*
X119292835Y-97405000D01*
X119467165Y-97405000D01*
X119638145Y-97370990D01*
X119799205Y-97304277D01*
X119944155Y-97207424D01*
X120067424Y-97084155D01*
X120164277Y-96939205D01*
X120230990Y-96778145D01*
X120265000Y-96607165D01*
X120265000Y-96432835D01*
X120230990Y-96261855D01*
X120164277Y-96100795D01*
X120067424Y-95955845D01*
X119944155Y-95832576D01*
X119799205Y-95735723D01*
X119638145Y-95669010D01*
X119467165Y-95635000D01*
X119292835Y-95635000D01*
X119121855Y-95669010D01*
X118960795Y-95735723D01*
X118902013Y-95775000D01*
X115380588Y-95775000D01*
X115343998Y-95771396D01*
X115307408Y-95775000D01*
X115307406Y-95775000D01*
X115197953Y-95785780D01*
X115057520Y-95828380D01*
X115024556Y-95846000D01*
X114928095Y-95897559D01*
X114857074Y-95955845D01*
X114814655Y-95990657D01*
X114791329Y-96019080D01*
X114791000Y-96019409D01*
X114791000Y-93329582D01*
X114794603Y-93292999D01*
X114791000Y-93256417D01*
X114791000Y-93256408D01*
X114780220Y-93146955D01*
X114737620Y-93006522D01*
X114698358Y-92933068D01*
X114668441Y-92877097D01*
X114611022Y-92807133D01*
X114575343Y-92763657D01*
X114546921Y-92740332D01*
X113767782Y-91961193D01*
X113753990Y-91891855D01*
X113687277Y-91730795D01*
X113590424Y-91585845D01*
X113467155Y-91462576D01*
X113322205Y-91365723D01*
X113161145Y-91299010D01*
X112990165Y-91265000D01*
X112815835Y-91265000D01*
X112644855Y-91299010D01*
X112483795Y-91365723D01*
X112338845Y-91462576D01*
X112215576Y-91585845D01*
X112118723Y-91730795D01*
X112052010Y-91891855D01*
X112018000Y-92062835D01*
X112018000Y-92237165D01*
X112052010Y-92408145D01*
X112118723Y-92569205D01*
X112215576Y-92714155D01*
X112338845Y-92837424D01*
X112483795Y-92934277D01*
X112644855Y-93000990D01*
X112714193Y-93014782D01*
X113301000Y-93601589D01*
X113301001Y-96719410D01*
X110054411Y-99966000D01*
X108935987Y-99966000D01*
X108877205Y-99926723D01*
X108716145Y-99860010D01*
X108545165Y-99826000D01*
X108370835Y-99826000D01*
X108199855Y-99860010D01*
X108038795Y-99926723D01*
X107893845Y-100023576D01*
X107770576Y-100146845D01*
X107673723Y-100291795D01*
X107607010Y-100452855D01*
X107573000Y-100623835D01*
X107573000Y-100798165D01*
X107607010Y-100969145D01*
X107673723Y-101130205D01*
X107770576Y-101275155D01*
X107893845Y-101398424D01*
X108038795Y-101495277D01*
X108199855Y-101561990D01*
X108370835Y-101596000D01*
X108545165Y-101596000D01*
X108716145Y-101561990D01*
X108877205Y-101495277D01*
X108935987Y-101456000D01*
X109745001Y-101456000D01*
X109745000Y-103154013D01*
X109705723Y-103212795D01*
X109639010Y-103373855D01*
X109605000Y-103544835D01*
X109605000Y-103719165D01*
X109639010Y-103890145D01*
X109705723Y-104051205D01*
X109802576Y-104196155D01*
X109925845Y-104319424D01*
X110070795Y-104416277D01*
X110231855Y-104482990D01*
X110402835Y-104517000D01*
X110577165Y-104517000D01*
X110748145Y-104482990D01*
X110909205Y-104416277D01*
X111054155Y-104319424D01*
X111177424Y-104196155D01*
X111274277Y-104051205D01*
X111340990Y-103890145D01*
X111375000Y-103719165D01*
X111375000Y-103544835D01*
X111340990Y-103373855D01*
X111274277Y-103212795D01*
X111235000Y-103154013D01*
X111235000Y-101682587D01*
X112303928Y-100613659D01*
X112303928Y-101180000D01*
X112316188Y-101304482D01*
X112352498Y-101424180D01*
X112411463Y-101534494D01*
X112490815Y-101631185D01*
X112587506Y-101710537D01*
X112697820Y-101769502D01*
X112817518Y-101805812D01*
X112942000Y-101818072D01*
X113081175Y-101818072D01*
X113068010Y-101849855D01*
X113034000Y-102020835D01*
X113034000Y-102195165D01*
X113068010Y-102366145D01*
X113134723Y-102527205D01*
X113231576Y-102672155D01*
X113354845Y-102795424D01*
X113499795Y-102892277D01*
X113598756Y-102933268D01*
X119427365Y-108761878D01*
X119415928Y-108878000D01*
X119415928Y-110578000D01*
X119428188Y-110702482D01*
X119464498Y-110822180D01*
X119523463Y-110932494D01*
X119602815Y-111029185D01*
X119699506Y-111108537D01*
X119809820Y-111167502D01*
X119929518Y-111203812D01*
X120054000Y-111216072D01*
X121246560Y-111216072D01*
X124621105Y-114590618D01*
X124646472Y-114621528D01*
X124695733Y-114661955D01*
X124769810Y-114722749D01*
X124838100Y-114759250D01*
X124910527Y-114797963D01*
X125063212Y-114844280D01*
X125182209Y-114856000D01*
X125182211Y-114856000D01*
X125221999Y-114859919D01*
X125261787Y-114856000D01*
X132379488Y-114856000D01*
X133299487Y-115776000D01*
X126964072Y-115776000D01*
X126964072Y-115736000D01*
X126951812Y-115611518D01*
X126915502Y-115491820D01*
X126856537Y-115381506D01*
X126777185Y-115284815D01*
X126680494Y-115205463D01*
X126570180Y-115146498D01*
X126450482Y-115110188D01*
X126326000Y-115097928D01*
X124626000Y-115097928D01*
X124501518Y-115110188D01*
X124381820Y-115146498D01*
X124271506Y-115205463D01*
X124174815Y-115284815D01*
X124095463Y-115381506D01*
X124036498Y-115491820D01*
X124000188Y-115611518D01*
X123987928Y-115736000D01*
X123987928Y-115776000D01*
X122910770Y-115776000D01*
X122819475Y-115639368D01*
X122612632Y-115432525D01*
X122369411Y-115270010D01*
X122099158Y-115158068D01*
X121812260Y-115101000D01*
X121519740Y-115101000D01*
X121232842Y-115158068D01*
X120962589Y-115270010D01*
X120719368Y-115432525D01*
X120587513Y-115564380D01*
X120565502Y-115491820D01*
X120506537Y-115381506D01*
X120427185Y-115284815D01*
X120330494Y-115205463D01*
X120220180Y-115146498D01*
X120100482Y-115110188D01*
X119976000Y-115097928D01*
X118276000Y-115097928D01*
X118151518Y-115110188D01*
X118031820Y-115146498D01*
X117921506Y-115205463D01*
X117824815Y-115284815D01*
X117745463Y-115381506D01*
X117686498Y-115491820D01*
X117650188Y-115611518D01*
X117637928Y-115736000D01*
X117637928Y-116746416D01*
X116843001Y-115951489D01*
X116843001Y-115475790D01*
X116846920Y-115435999D01*
X116831281Y-115277211D01*
X116784964Y-115124525D01*
X116709750Y-114983810D01*
X116633894Y-114891379D01*
X116608529Y-114860471D01*
X116577619Y-114835104D01*
X114621601Y-112879087D01*
X114596230Y-112848172D01*
X114472891Y-112746951D01*
X114332175Y-112671737D01*
X114179490Y-112625420D01*
X114160084Y-112623509D01*
X114037445Y-112572710D01*
X113866465Y-112538700D01*
X113692135Y-112538700D01*
X113521155Y-112572710D01*
X113360095Y-112639423D01*
X113215145Y-112736276D01*
X113091876Y-112859545D01*
X112995023Y-113004495D01*
X112928310Y-113165555D01*
X112894300Y-113336535D01*
X112894300Y-113510865D01*
X112928310Y-113681845D01*
X112995023Y-113842905D01*
X113091876Y-113987855D01*
X113215145Y-114111124D01*
X113360095Y-114207977D01*
X113521155Y-114274690D01*
X113692135Y-114308700D01*
X113760190Y-114308700D01*
X114680998Y-115229509D01*
X114680998Y-115259748D01*
X114522250Y-115101000D01*
X113958000Y-115097928D01*
X113833518Y-115110188D01*
X113713820Y-115146498D01*
X113603506Y-115205463D01*
X113506815Y-115284815D01*
X113427463Y-115381506D01*
X113368498Y-115491820D01*
X113332188Y-115611518D01*
X113319928Y-115736000D01*
X113323000Y-116300250D01*
X113481750Y-116459000D01*
X114681000Y-116459000D01*
X114681000Y-116439000D01*
X114935000Y-116439000D01*
X114935000Y-116459000D01*
X114955000Y-116459000D01*
X114955000Y-116713000D01*
X114935000Y-116713000D01*
X114935000Y-117912250D01*
X115093750Y-118071000D01*
X115658000Y-118074072D01*
X115782482Y-118061812D01*
X115902180Y-118025502D01*
X116012494Y-117966537D01*
X116109185Y-117887185D01*
X116188537Y-117790494D01*
X116247502Y-117680180D01*
X116255221Y-117654733D01*
X118189001Y-119588514D01*
X118189000Y-126698000D01*
X114784104Y-126698000D01*
X114685145Y-126657010D01*
X114514165Y-126623000D01*
X114339835Y-126623000D01*
X114168855Y-126657010D01*
X114007795Y-126723723D01*
X113862845Y-126820576D01*
X113739576Y-126943845D01*
X113642723Y-127088795D01*
X113576010Y-127249855D01*
X113542000Y-127420835D01*
X113542000Y-127595165D01*
X113576010Y-127766145D01*
X113642723Y-127927205D01*
X113739576Y-128072155D01*
X113862845Y-128195424D01*
X114007795Y-128292277D01*
X114168855Y-128358990D01*
X114339835Y-128393000D01*
X114514165Y-128393000D01*
X114685145Y-128358990D01*
X114784104Y-128318000D01*
X118959209Y-128318000D01*
X118999000Y-128321919D01*
X119038791Y-128318000D01*
X123594896Y-128318000D01*
X123693855Y-128358990D01*
X123864835Y-128393000D01*
X124039165Y-128393000D01*
X124210145Y-128358990D01*
X124371205Y-128292277D01*
X124516155Y-128195424D01*
X124639424Y-128072155D01*
X124736277Y-127927205D01*
X124802990Y-127766145D01*
X124837000Y-127595165D01*
X124837000Y-127420835D01*
X124802990Y-127249855D01*
X124744125Y-127107740D01*
X126531000Y-127107740D01*
X126531000Y-127400260D01*
X126588068Y-127687158D01*
X126700010Y-127957411D01*
X126862525Y-128200632D01*
X127069368Y-128407475D01*
X127312589Y-128569990D01*
X127582842Y-128681932D01*
X127869740Y-128739000D01*
X128162260Y-128739000D01*
X128449158Y-128681932D01*
X128719411Y-128569990D01*
X128962632Y-128407475D01*
X129169475Y-128200632D01*
X129286000Y-128026240D01*
X129402525Y-128200632D01*
X129609368Y-128407475D01*
X129852589Y-128569990D01*
X130122842Y-128681932D01*
X130409740Y-128739000D01*
X130702260Y-128739000D01*
X130989158Y-128681932D01*
X131259411Y-128569990D01*
X131502632Y-128407475D01*
X131709475Y-128200632D01*
X131826000Y-128026240D01*
X131942525Y-128200632D01*
X132149368Y-128407475D01*
X132392589Y-128569990D01*
X132662842Y-128681932D01*
X132949740Y-128739000D01*
X133242260Y-128739000D01*
X133529158Y-128681932D01*
X133799411Y-128569990D01*
X134042632Y-128407475D01*
X134174487Y-128275620D01*
X134196498Y-128348180D01*
X134255463Y-128458494D01*
X134334815Y-128555185D01*
X134431506Y-128634537D01*
X134541820Y-128693502D01*
X134661518Y-128729812D01*
X134786000Y-128742072D01*
X136486000Y-128742072D01*
X136610482Y-128729812D01*
X136730180Y-128693502D01*
X136840494Y-128634537D01*
X136937185Y-128555185D01*
X137016537Y-128458494D01*
X137075502Y-128348180D01*
X137111812Y-128228482D01*
X137124072Y-128104000D01*
X137124072Y-126404000D01*
X137111812Y-126279518D01*
X137075502Y-126159820D01*
X137016537Y-126049506D01*
X136937185Y-125952815D01*
X136840494Y-125873463D01*
X136730180Y-125814498D01*
X136610482Y-125778188D01*
X136486000Y-125765928D01*
X134786000Y-125765928D01*
X134661518Y-125778188D01*
X134541820Y-125814498D01*
X134431506Y-125873463D01*
X134334815Y-125952815D01*
X134255463Y-126049506D01*
X134196498Y-126159820D01*
X134174487Y-126232380D01*
X134042632Y-126100525D01*
X133799411Y-125938010D01*
X133529158Y-125826068D01*
X133242260Y-125769000D01*
X132949740Y-125769000D01*
X132662842Y-125826068D01*
X132392589Y-125938010D01*
X132149368Y-126100525D01*
X131942525Y-126307368D01*
X131826000Y-126481760D01*
X131709475Y-126307368D01*
X131502632Y-126100525D01*
X131259411Y-125938010D01*
X130989158Y-125826068D01*
X130702260Y-125769000D01*
X130409740Y-125769000D01*
X130122842Y-125826068D01*
X129852589Y-125938010D01*
X129609368Y-126100525D01*
X129402525Y-126307368D01*
X129286000Y-126481760D01*
X129169475Y-126307368D01*
X128962632Y-126100525D01*
X128719411Y-125938010D01*
X128449158Y-125826068D01*
X128162260Y-125769000D01*
X127869740Y-125769000D01*
X127582842Y-125826068D01*
X127312589Y-125938010D01*
X127069368Y-126100525D01*
X126862525Y-126307368D01*
X126700010Y-126550589D01*
X126588068Y-126820842D01*
X126531000Y-127107740D01*
X124744125Y-127107740D01*
X124736277Y-127088795D01*
X124639424Y-126943845D01*
X124516155Y-126820576D01*
X124371205Y-126723723D01*
X124210145Y-126657010D01*
X124039165Y-126623000D01*
X123864835Y-126623000D01*
X123693855Y-126657010D01*
X123594896Y-126698000D01*
X119809000Y-126698000D01*
X119809000Y-125381448D01*
X120929000Y-125381448D01*
X120929000Y-125570552D01*
X120965892Y-125756022D01*
X121038259Y-125930731D01*
X121143319Y-126087964D01*
X121277036Y-126221681D01*
X121434269Y-126326741D01*
X121608978Y-126399108D01*
X121794448Y-126436000D01*
X121983552Y-126436000D01*
X122169022Y-126399108D01*
X122343731Y-126326741D01*
X122500964Y-126221681D01*
X122634681Y-126087964D01*
X122739741Y-125930731D01*
X122812108Y-125756022D01*
X122849000Y-125570552D01*
X122849000Y-125381448D01*
X122812489Y-125197890D01*
X138004524Y-125197890D01*
X138049175Y-125345099D01*
X138174359Y-125607920D01*
X138348412Y-125841269D01*
X138564645Y-126036178D01*
X138814748Y-126185157D01*
X139089109Y-126282481D01*
X139319000Y-126161814D01*
X139319000Y-124968000D01*
X138125845Y-124968000D01*
X138004524Y-125197890D01*
X122812489Y-125197890D01*
X122812108Y-125195978D01*
X122739741Y-125021269D01*
X122634681Y-124864036D01*
X122500964Y-124730319D01*
X122343731Y-124625259D01*
X122169022Y-124552892D01*
X121983552Y-124516000D01*
X121794448Y-124516000D01*
X121608978Y-124552892D01*
X121434269Y-124625259D01*
X121277036Y-124730319D01*
X121143319Y-124864036D01*
X121038259Y-125021269D01*
X120965892Y-125195978D01*
X120929000Y-125381448D01*
X119809000Y-125381448D01*
X119809000Y-119588512D01*
X121358571Y-118038941D01*
X121519740Y-118071000D01*
X121812260Y-118071000D01*
X122099158Y-118013932D01*
X122369411Y-117901990D01*
X122612632Y-117739475D01*
X122819475Y-117532632D01*
X122910770Y-117396000D01*
X123987928Y-117396000D01*
X123987928Y-117436000D01*
X124000188Y-117560482D01*
X124036498Y-117680180D01*
X124095463Y-117790494D01*
X124174815Y-117887185D01*
X124271506Y-117966537D01*
X124381820Y-118025502D01*
X124501518Y-118061812D01*
X124626000Y-118074072D01*
X126326000Y-118074072D01*
X126450482Y-118061812D01*
X126570180Y-118025502D01*
X126680494Y-117966537D01*
X126777185Y-117887185D01*
X126856537Y-117790494D01*
X126915502Y-117680180D01*
X126951812Y-117560482D01*
X126964072Y-117436000D01*
X126964072Y-117396000D01*
X133395488Y-117396000D01*
X137993059Y-121993571D01*
X137961000Y-122154740D01*
X137961000Y-122447260D01*
X138018068Y-122734158D01*
X138130010Y-123004411D01*
X138292525Y-123247632D01*
X138499368Y-123454475D01*
X138681534Y-123576195D01*
X138564645Y-123645822D01*
X138348412Y-123840731D01*
X138174359Y-124074080D01*
X138049175Y-124336901D01*
X138004524Y-124484110D01*
X138125845Y-124714000D01*
X139319000Y-124714000D01*
X139319000Y-124694000D01*
X139573000Y-124694000D01*
X139573000Y-124714000D01*
X139593000Y-124714000D01*
X139593000Y-124968000D01*
X139573000Y-124968000D01*
X139573000Y-126161814D01*
X139802891Y-126282481D01*
X140077252Y-126185157D01*
X140327355Y-126036178D01*
X140543588Y-125841269D01*
X140666116Y-125676998D01*
X140666075Y-125695594D01*
X140666000Y-125696354D01*
X140666000Y-125729271D01*
X140665927Y-125762124D01*
X140666000Y-125762883D01*
X140666001Y-129109000D01*
X96605871Y-129109000D01*
X96622472Y-129103964D01*
X96763188Y-129028750D01*
X96886527Y-128927529D01*
X96911898Y-128896614D01*
X97228571Y-128579941D01*
X97389740Y-128612000D01*
X97682260Y-128612000D01*
X97969158Y-128554932D01*
X98239411Y-128442990D01*
X98482632Y-128280475D01*
X98689475Y-128073632D01*
X98851990Y-127830411D01*
X98963932Y-127560158D01*
X99021000Y-127273260D01*
X99021000Y-126980740D01*
X101004000Y-126980740D01*
X101004000Y-127273260D01*
X101061068Y-127560158D01*
X101173010Y-127830411D01*
X101335525Y-128073632D01*
X101542368Y-128280475D01*
X101785589Y-128442990D01*
X102055842Y-128554932D01*
X102342740Y-128612000D01*
X102635260Y-128612000D01*
X102922158Y-128554932D01*
X103192411Y-128442990D01*
X103435632Y-128280475D01*
X103642475Y-128073632D01*
X103759000Y-127899240D01*
X103875525Y-128073632D01*
X104082368Y-128280475D01*
X104325589Y-128442990D01*
X104595842Y-128554932D01*
X104882740Y-128612000D01*
X105175260Y-128612000D01*
X105462158Y-128554932D01*
X105732411Y-128442990D01*
X105975632Y-128280475D01*
X106182475Y-128073632D01*
X106299000Y-127899240D01*
X106415525Y-128073632D01*
X106622368Y-128280475D01*
X106865589Y-128442990D01*
X107135842Y-128554932D01*
X107422740Y-128612000D01*
X107715260Y-128612000D01*
X108002158Y-128554932D01*
X108272411Y-128442990D01*
X108515632Y-128280475D01*
X108647487Y-128148620D01*
X108669498Y-128221180D01*
X108728463Y-128331494D01*
X108807815Y-128428185D01*
X108904506Y-128507537D01*
X109014820Y-128566502D01*
X109134518Y-128602812D01*
X109259000Y-128615072D01*
X110959000Y-128615072D01*
X111083482Y-128602812D01*
X111203180Y-128566502D01*
X111313494Y-128507537D01*
X111410185Y-128428185D01*
X111489537Y-128331494D01*
X111548502Y-128221180D01*
X111584812Y-128101482D01*
X111597072Y-127977000D01*
X111597072Y-126277000D01*
X111584812Y-126152518D01*
X111548502Y-126032820D01*
X111489537Y-125922506D01*
X111410185Y-125825815D01*
X111313494Y-125746463D01*
X111203180Y-125687498D01*
X111083482Y-125651188D01*
X110959000Y-125638928D01*
X109259000Y-125638928D01*
X109134518Y-125651188D01*
X109014820Y-125687498D01*
X108904506Y-125746463D01*
X108807815Y-125825815D01*
X108728463Y-125922506D01*
X108669498Y-126032820D01*
X108647487Y-126105380D01*
X108515632Y-125973525D01*
X108272411Y-125811010D01*
X108002158Y-125699068D01*
X107715260Y-125642000D01*
X107422740Y-125642000D01*
X107135842Y-125699068D01*
X106865589Y-125811010D01*
X106622368Y-125973525D01*
X106415525Y-126180368D01*
X106299000Y-126354760D01*
X106182475Y-126180368D01*
X105975632Y-125973525D01*
X105732411Y-125811010D01*
X105462158Y-125699068D01*
X105175260Y-125642000D01*
X104882740Y-125642000D01*
X104595842Y-125699068D01*
X104325589Y-125811010D01*
X104082368Y-125973525D01*
X103875525Y-126180368D01*
X103759000Y-126354760D01*
X103642475Y-126180368D01*
X103435632Y-125973525D01*
X103192411Y-125811010D01*
X102922158Y-125699068D01*
X102635260Y-125642000D01*
X102342740Y-125642000D01*
X102055842Y-125699068D01*
X101785589Y-125811010D01*
X101542368Y-125973525D01*
X101335525Y-126180368D01*
X101173010Y-126423589D01*
X101061068Y-126693842D01*
X101004000Y-126980740D01*
X99021000Y-126980740D01*
X98963932Y-126693842D01*
X98851990Y-126423589D01*
X98689475Y-126180368D01*
X98482632Y-125973525D01*
X98239411Y-125811010D01*
X97969158Y-125699068D01*
X97682260Y-125642000D01*
X97389740Y-125642000D01*
X97102842Y-125699068D01*
X96832589Y-125811010D01*
X96589368Y-125973525D01*
X96457513Y-126105380D01*
X96435502Y-126032820D01*
X96376537Y-125922506D01*
X96297185Y-125825815D01*
X96200494Y-125746463D01*
X96090180Y-125687498D01*
X95970482Y-125651188D01*
X95846000Y-125638928D01*
X95281750Y-125642000D01*
X95123000Y-125800750D01*
X95123000Y-127000000D01*
X95143000Y-127000000D01*
X95143000Y-127254000D01*
X95123000Y-127254000D01*
X95123000Y-127274000D01*
X94869000Y-127274000D01*
X94869000Y-127254000D01*
X93669750Y-127254000D01*
X93511000Y-127412750D01*
X93510296Y-127542001D01*
X88428514Y-127542001D01*
X87163513Y-126277000D01*
X93507928Y-126277000D01*
X93511000Y-126841250D01*
X93669750Y-127000000D01*
X94869000Y-127000000D01*
X94869000Y-125800750D01*
X94710250Y-125642000D01*
X94146000Y-125638928D01*
X94021518Y-125651188D01*
X93901820Y-125687498D01*
X93791506Y-125746463D01*
X93694815Y-125825815D01*
X93615463Y-125922506D01*
X93556498Y-126032820D01*
X93520188Y-126152518D01*
X93507928Y-126277000D01*
X87163513Y-126277000D01*
X86314239Y-125427727D01*
X86405990Y-125290411D01*
X86517932Y-125020158D01*
X86557767Y-124819893D01*
X97987058Y-124819893D01*
X97987058Y-124994223D01*
X98021068Y-125165203D01*
X98087781Y-125326263D01*
X98184634Y-125471213D01*
X98307903Y-125594482D01*
X98452853Y-125691335D01*
X98613913Y-125758048D01*
X98784893Y-125792058D01*
X98959223Y-125792058D01*
X99130203Y-125758048D01*
X99291263Y-125691335D01*
X99436213Y-125594482D01*
X99559482Y-125471213D01*
X99619461Y-125381448D01*
X115149000Y-125381448D01*
X115149000Y-125570552D01*
X115185892Y-125756022D01*
X115258259Y-125930731D01*
X115363319Y-126087964D01*
X115497036Y-126221681D01*
X115654269Y-126326741D01*
X115828978Y-126399108D01*
X116014448Y-126436000D01*
X116203552Y-126436000D01*
X116389022Y-126399108D01*
X116563731Y-126326741D01*
X116720964Y-126221681D01*
X116854681Y-126087964D01*
X116959741Y-125930731D01*
X117032108Y-125756022D01*
X117069000Y-125570552D01*
X117069000Y-125381448D01*
X117032108Y-125195978D01*
X116959741Y-125021269D01*
X116854681Y-124864036D01*
X116720964Y-124730319D01*
X116563731Y-124625259D01*
X116389022Y-124552892D01*
X116203552Y-124516000D01*
X116014448Y-124516000D01*
X115828978Y-124552892D01*
X115654269Y-124625259D01*
X115497036Y-124730319D01*
X115363319Y-124864036D01*
X115258259Y-125021269D01*
X115185892Y-125195978D01*
X115149000Y-125381448D01*
X99619461Y-125381448D01*
X99656335Y-125326263D01*
X99676140Y-125278449D01*
X103751920Y-121202669D01*
X103780343Y-121179343D01*
X103840882Y-121105576D01*
X103873441Y-121065903D01*
X103922817Y-120973527D01*
X103942620Y-120936478D01*
X103985220Y-120796045D01*
X103996000Y-120686592D01*
X103996000Y-120686583D01*
X103999603Y-120650001D01*
X103996000Y-120613418D01*
X103996000Y-120182987D01*
X104035277Y-120124205D01*
X104101990Y-119963145D01*
X104136000Y-119792165D01*
X104136000Y-119617835D01*
X104101990Y-119446855D01*
X104035277Y-119285795D01*
X103938424Y-119140845D01*
X103815155Y-119017576D01*
X103670205Y-118920723D01*
X103509145Y-118854010D01*
X103338165Y-118820000D01*
X103163835Y-118820000D01*
X102992855Y-118854010D01*
X102831795Y-118920723D01*
X102686845Y-119017576D01*
X102563576Y-119140845D01*
X102466723Y-119285795D01*
X102400010Y-119446855D01*
X102366000Y-119617835D01*
X102366000Y-119792165D01*
X102400010Y-119963145D01*
X102466723Y-120124205D01*
X102506001Y-120182988D01*
X102506001Y-120341410D01*
X98825353Y-124022058D01*
X98784893Y-124022058D01*
X98613913Y-124056068D01*
X98452853Y-124122781D01*
X98307903Y-124219634D01*
X98184634Y-124342903D01*
X98087781Y-124487853D01*
X98021068Y-124648913D01*
X97987058Y-124819893D01*
X86557767Y-124819893D01*
X86575000Y-124733260D01*
X86575000Y-124440740D01*
X86517932Y-124153842D01*
X86405990Y-123883589D01*
X86243475Y-123640368D01*
X86036632Y-123433525D01*
X85854466Y-123311805D01*
X85971355Y-123242178D01*
X86187588Y-123047269D01*
X86361641Y-122813920D01*
X86486825Y-122551099D01*
X86531476Y-122403890D01*
X86410155Y-122174000D01*
X85217000Y-122174000D01*
X85217000Y-122194000D01*
X84963000Y-122194000D01*
X84963000Y-122174000D01*
X84943000Y-122174000D01*
X84943000Y-121920000D01*
X84963000Y-121920000D01*
X84963000Y-121900000D01*
X85217000Y-121900000D01*
X85217000Y-121920000D01*
X86410155Y-121920000D01*
X86531476Y-121690110D01*
X86486825Y-121542901D01*
X86361641Y-121280080D01*
X86187588Y-121046731D01*
X85971355Y-120851822D01*
X85854466Y-120782195D01*
X86036632Y-120660475D01*
X86243475Y-120453632D01*
X86405990Y-120210411D01*
X86517932Y-119940158D01*
X86575000Y-119653260D01*
X86575000Y-119360740D01*
X86517932Y-119073842D01*
X86405990Y-118803589D01*
X86243475Y-118560368D01*
X86036632Y-118353525D01*
X85862240Y-118237000D01*
X85952895Y-118176426D01*
X94719409Y-118176426D01*
X94719409Y-118350756D01*
X94753419Y-118521736D01*
X94820132Y-118682796D01*
X94916985Y-118827746D01*
X95040254Y-118951015D01*
X95185204Y-119047868D01*
X95346264Y-119114581D01*
X95433256Y-119131885D01*
X95785000Y-119483629D01*
X95785000Y-119583553D01*
X95713847Y-119654706D01*
X95626855Y-119672010D01*
X95465795Y-119738723D01*
X95320845Y-119835576D01*
X95197576Y-119958845D01*
X95100723Y-120103795D01*
X95034010Y-120264855D01*
X95000000Y-120435835D01*
X95000000Y-120610165D01*
X95034010Y-120781145D01*
X95100723Y-120942205D01*
X95197576Y-121087155D01*
X95320845Y-121210424D01*
X95465795Y-121307277D01*
X95626855Y-121373990D01*
X95727361Y-121393982D01*
X95669010Y-121534855D01*
X95635000Y-121705835D01*
X95635000Y-121880165D01*
X95669010Y-122051145D01*
X95735723Y-122212205D01*
X95832576Y-122357155D01*
X95955845Y-122480424D01*
X96100795Y-122577277D01*
X96261855Y-122643990D01*
X96432835Y-122678000D01*
X96607165Y-122678000D01*
X96778145Y-122643990D01*
X96939205Y-122577277D01*
X97084155Y-122480424D01*
X97207424Y-122357155D01*
X97304277Y-122212205D01*
X97345268Y-122113244D01*
X97572614Y-121885898D01*
X97603528Y-121860528D01*
X97704749Y-121737189D01*
X97779963Y-121596473D01*
X97826280Y-121443788D01*
X97838000Y-121324791D01*
X97838000Y-121324789D01*
X97841919Y-121285001D01*
X97838000Y-121245213D01*
X97838000Y-117436000D01*
X113319928Y-117436000D01*
X113332188Y-117560482D01*
X113368498Y-117680180D01*
X113427463Y-117790494D01*
X113506815Y-117887185D01*
X113603506Y-117966537D01*
X113713820Y-118025502D01*
X113833518Y-118061812D01*
X113958000Y-118074072D01*
X114522250Y-118071000D01*
X114681000Y-117912250D01*
X114681000Y-116713000D01*
X113481750Y-116713000D01*
X113323000Y-116871750D01*
X113319928Y-117436000D01*
X97838000Y-117436000D01*
X97838000Y-115165104D01*
X97878990Y-115066145D01*
X97913000Y-114895165D01*
X97913000Y-114720835D01*
X97878990Y-114549855D01*
X97812277Y-114388795D01*
X97715424Y-114243845D01*
X97592155Y-114120576D01*
X97447205Y-114023723D01*
X97286145Y-113957010D01*
X97115165Y-113923000D01*
X96940835Y-113923000D01*
X96769855Y-113957010D01*
X96608795Y-114023723D01*
X96463845Y-114120576D01*
X96340576Y-114243845D01*
X96243723Y-114388795D01*
X96177010Y-114549855D01*
X96143000Y-114720835D01*
X96143000Y-114895165D01*
X96177010Y-115066145D01*
X96218001Y-115165106D01*
X96218001Y-117625604D01*
X96168564Y-117576167D01*
X96023614Y-117479314D01*
X95862554Y-117412601D01*
X95691574Y-117378591D01*
X95517244Y-117378591D01*
X95346264Y-117412601D01*
X95185204Y-117479314D01*
X95040254Y-117576167D01*
X94916985Y-117699436D01*
X94820132Y-117844386D01*
X94753419Y-118005446D01*
X94719409Y-118176426D01*
X85952895Y-118176426D01*
X86036632Y-118120475D01*
X86243475Y-117913632D01*
X86405990Y-117670411D01*
X86517932Y-117400158D01*
X86575000Y-117113260D01*
X86575000Y-116820740D01*
X86517932Y-116533842D01*
X86405990Y-116263589D01*
X86243475Y-116020368D01*
X86036632Y-115813525D01*
X85862240Y-115697000D01*
X86036632Y-115580475D01*
X86243475Y-115373632D01*
X86405990Y-115130411D01*
X86517932Y-114860158D01*
X86575000Y-114573260D01*
X86575000Y-114280740D01*
X86517932Y-113993842D01*
X86405990Y-113723589D01*
X86243475Y-113480368D01*
X86036632Y-113273525D01*
X85862240Y-113157000D01*
X86036632Y-113040475D01*
X86243475Y-112833632D01*
X86405990Y-112590411D01*
X86517932Y-112320158D01*
X86575000Y-112033260D01*
X86575000Y-111740740D01*
X86517932Y-111453842D01*
X86405990Y-111183589D01*
X86243475Y-110940368D01*
X86036632Y-110733525D01*
X85862240Y-110617000D01*
X86036632Y-110500475D01*
X86243475Y-110293632D01*
X86405990Y-110050411D01*
X86517932Y-109780158D01*
X86532138Y-109708740D01*
X87288000Y-109708740D01*
X87288000Y-110001260D01*
X87345068Y-110288158D01*
X87457010Y-110558411D01*
X87619525Y-110801632D01*
X87826368Y-111008475D01*
X88069589Y-111170990D01*
X88339842Y-111282932D01*
X88626740Y-111340000D01*
X88919260Y-111340000D01*
X89206158Y-111282932D01*
X89476411Y-111170990D01*
X89719632Y-111008475D01*
X89851487Y-110876620D01*
X89873498Y-110949180D01*
X89932463Y-111059494D01*
X90011815Y-111156185D01*
X90108506Y-111235537D01*
X90218820Y-111294502D01*
X90338518Y-111330812D01*
X90463000Y-111343072D01*
X92163000Y-111343072D01*
X92287482Y-111330812D01*
X92407180Y-111294502D01*
X92517494Y-111235537D01*
X92614185Y-111156185D01*
X92693537Y-111059494D01*
X92752502Y-110949180D01*
X92788812Y-110829482D01*
X92801072Y-110705000D01*
X92801072Y-109005000D01*
X92788812Y-108880518D01*
X92752502Y-108760820D01*
X92693537Y-108650506D01*
X92614185Y-108553815D01*
X92517494Y-108474463D01*
X92407180Y-108415498D01*
X92287482Y-108379188D01*
X92163000Y-108366928D01*
X90463000Y-108366928D01*
X90338518Y-108379188D01*
X90218820Y-108415498D01*
X90108506Y-108474463D01*
X90011815Y-108553815D01*
X89932463Y-108650506D01*
X89873498Y-108760820D01*
X89851487Y-108833380D01*
X89719632Y-108701525D01*
X89476411Y-108539010D01*
X89206158Y-108427068D01*
X88919260Y-108370000D01*
X88626740Y-108370000D01*
X88339842Y-108427068D01*
X88069589Y-108539010D01*
X87826368Y-108701525D01*
X87619525Y-108908368D01*
X87457010Y-109151589D01*
X87345068Y-109421842D01*
X87288000Y-109708740D01*
X86532138Y-109708740D01*
X86575000Y-109493260D01*
X86575000Y-109200740D01*
X86517932Y-108913842D01*
X86405990Y-108643589D01*
X86243475Y-108400368D01*
X86036632Y-108193525D01*
X85862240Y-108077000D01*
X86036632Y-107960475D01*
X86243475Y-107753632D01*
X86405990Y-107510411D01*
X86517932Y-107240158D01*
X86575000Y-106953260D01*
X86575000Y-106660740D01*
X86517932Y-106373842D01*
X86405990Y-106103589D01*
X86243475Y-105860368D01*
X86036632Y-105653525D01*
X85862240Y-105537000D01*
X86036632Y-105420475D01*
X86243475Y-105213632D01*
X86255924Y-105195000D01*
X87284928Y-105195000D01*
X87284928Y-106895000D01*
X87297188Y-107019482D01*
X87333498Y-107139180D01*
X87392463Y-107249494D01*
X87471815Y-107346185D01*
X87568506Y-107425537D01*
X87678820Y-107484502D01*
X87798518Y-107520812D01*
X87923000Y-107533072D01*
X89623000Y-107533072D01*
X89747482Y-107520812D01*
X89867180Y-107484502D01*
X89977494Y-107425537D01*
X90074185Y-107346185D01*
X90153537Y-107249494D01*
X90212502Y-107139180D01*
X90234513Y-107066620D01*
X90366368Y-107198475D01*
X90609589Y-107360990D01*
X90879842Y-107472932D01*
X91166740Y-107530000D01*
X91459260Y-107530000D01*
X91746158Y-107472932D01*
X92016411Y-107360990D01*
X92259632Y-107198475D01*
X92466475Y-106991632D01*
X92601201Y-106790000D01*
X93816408Y-106790000D01*
X93853000Y-106793604D01*
X93889592Y-106790000D01*
X95594410Y-106790000D01*
X95631000Y-106793604D01*
X95667590Y-106790000D01*
X95667592Y-106790000D01*
X95777045Y-106779220D01*
X95917478Y-106736620D01*
X96046902Y-106667441D01*
X96160343Y-106574343D01*
X96183669Y-106545920D01*
X96962807Y-105766782D01*
X97032145Y-105752990D01*
X97193205Y-105686277D01*
X97338155Y-105589424D01*
X97461424Y-105466155D01*
X97558277Y-105321205D01*
X97624990Y-105160145D01*
X97659000Y-104989165D01*
X97659000Y-104814835D01*
X97652125Y-104780272D01*
X97680001Y-104821991D01*
X97680000Y-108597213D01*
X92214213Y-114063000D01*
X90266987Y-114063000D01*
X90208205Y-114023723D01*
X90047145Y-113957010D01*
X89876165Y-113923000D01*
X89701835Y-113923000D01*
X89530855Y-113957010D01*
X89369795Y-114023723D01*
X89224845Y-114120576D01*
X89101576Y-114243845D01*
X89004723Y-114388795D01*
X88938010Y-114549855D01*
X88904000Y-114720835D01*
X88904000Y-114895165D01*
X88938010Y-115066145D01*
X89004723Y-115227205D01*
X89101576Y-115372155D01*
X89224845Y-115495424D01*
X89369795Y-115592277D01*
X89530855Y-115658990D01*
X89701835Y-115693000D01*
X89876165Y-115693000D01*
X90047145Y-115658990D01*
X90208205Y-115592277D01*
X90266987Y-115553000D01*
X92486212Y-115553000D01*
X92522802Y-115556604D01*
X92559392Y-115553000D01*
X92559394Y-115553000D01*
X92668847Y-115542220D01*
X92809280Y-115499620D01*
X92938704Y-115430441D01*
X93052145Y-115337343D01*
X93075471Y-115308920D01*
X98925921Y-109458470D01*
X98954343Y-109435145D01*
X99000595Y-109378787D01*
X99047441Y-109321705D01*
X99116619Y-109192281D01*
X99116620Y-109192280D01*
X99159220Y-109051847D01*
X99170000Y-108942394D01*
X99170000Y-108942385D01*
X99173603Y-108905803D01*
X99170000Y-108869221D01*
X99170000Y-106529335D01*
X99254500Y-106529335D01*
X99254500Y-106703665D01*
X99288510Y-106874645D01*
X99355223Y-107035705D01*
X99452076Y-107180655D01*
X99575345Y-107303924D01*
X99720295Y-107400777D01*
X99881355Y-107467490D01*
X100052335Y-107501500D01*
X100226665Y-107501500D01*
X100397645Y-107467490D01*
X100496604Y-107426500D01*
X104375988Y-107426500D01*
X106489733Y-109540246D01*
X106530723Y-109639205D01*
X106627576Y-109784155D01*
X106750845Y-109907424D01*
X106895795Y-110004277D01*
X107056855Y-110070990D01*
X107227835Y-110105000D01*
X107402165Y-110105000D01*
X107573145Y-110070990D01*
X107734205Y-110004277D01*
X107879155Y-109907424D01*
X108002424Y-109784155D01*
X108099277Y-109639205D01*
X108165990Y-109478145D01*
X108200000Y-109307165D01*
X108200000Y-109132835D01*
X108165990Y-108961855D01*
X108099277Y-108800795D01*
X108002424Y-108655845D01*
X107879155Y-108532576D01*
X107734205Y-108435723D01*
X107635246Y-108394733D01*
X105312400Y-106071887D01*
X105287028Y-106040972D01*
X105163689Y-105939751D01*
X105022973Y-105864537D01*
X104870288Y-105818220D01*
X104751291Y-105806500D01*
X104751288Y-105806500D01*
X104711500Y-105802581D01*
X104671712Y-105806500D01*
X100496604Y-105806500D01*
X100397645Y-105765510D01*
X100226665Y-105731500D01*
X100052335Y-105731500D01*
X99881355Y-105765510D01*
X99720295Y-105832223D01*
X99575345Y-105929076D01*
X99452076Y-106052345D01*
X99355223Y-106197295D01*
X99288510Y-106358355D01*
X99254500Y-106529335D01*
X99170000Y-106529335D01*
X99170000Y-104801792D01*
X99202529Y-104753109D01*
X99269242Y-104592049D01*
X99303252Y-104421069D01*
X99303252Y-104246739D01*
X99269242Y-104075759D01*
X99202529Y-103914699D01*
X99105676Y-103769749D01*
X99088715Y-103752788D01*
X99099835Y-103755000D01*
X99274165Y-103755000D01*
X99445145Y-103720990D01*
X99606205Y-103654277D01*
X99751155Y-103557424D01*
X99874424Y-103434155D01*
X99971277Y-103289205D01*
X100037990Y-103128145D01*
X100072000Y-102957165D01*
X100072000Y-102782835D01*
X100037990Y-102611855D01*
X99971277Y-102450795D01*
X99874424Y-102305845D01*
X99751155Y-102182576D01*
X99606205Y-102085723D01*
X99445145Y-102019010D01*
X99375807Y-102005218D01*
X99104669Y-101734080D01*
X99081343Y-101705657D01*
X98967902Y-101612559D01*
X98838478Y-101543380D01*
X98698045Y-101500780D01*
X98588592Y-101490000D01*
X98588590Y-101490000D01*
X98552000Y-101486396D01*
X98515410Y-101490000D01*
X92801072Y-101490000D01*
X92801072Y-101385000D01*
X92788812Y-101260518D01*
X92752502Y-101140820D01*
X92693537Y-101030506D01*
X92614185Y-100933815D01*
X92517494Y-100854463D01*
X92407180Y-100795498D01*
X92287482Y-100759188D01*
X92163000Y-100746928D01*
X90463000Y-100746928D01*
X90338518Y-100759188D01*
X90218820Y-100795498D01*
X90108506Y-100854463D01*
X90011815Y-100933815D01*
X89932463Y-101030506D01*
X89873498Y-101140820D01*
X89851487Y-101213380D01*
X89719632Y-101081525D01*
X89476411Y-100919010D01*
X89206158Y-100807068D01*
X88919260Y-100750000D01*
X88626740Y-100750000D01*
X88339842Y-100807068D01*
X88069589Y-100919010D01*
X87826368Y-101081525D01*
X87619525Y-101288368D01*
X87457010Y-101531589D01*
X87345068Y-101801842D01*
X87288000Y-102088740D01*
X87288000Y-102381260D01*
X87345068Y-102668158D01*
X87457010Y-102938411D01*
X87619525Y-103181632D01*
X87826368Y-103388475D01*
X88069589Y-103550990D01*
X88339842Y-103662932D01*
X88626740Y-103720000D01*
X88919260Y-103720000D01*
X89206158Y-103662932D01*
X89476411Y-103550990D01*
X89719632Y-103388475D01*
X89851487Y-103256620D01*
X89873498Y-103329180D01*
X89932463Y-103439494D01*
X90011815Y-103536185D01*
X90108506Y-103615537D01*
X90218820Y-103674502D01*
X90338518Y-103710812D01*
X90463000Y-103723072D01*
X92163000Y-103723072D01*
X92287482Y-103710812D01*
X92407180Y-103674502D01*
X92517494Y-103615537D01*
X92614185Y-103536185D01*
X92693537Y-103439494D01*
X92752502Y-103329180D01*
X92788812Y-103209482D01*
X92801072Y-103085000D01*
X92801072Y-102980000D01*
X98243411Y-102980000D01*
X98322218Y-103058807D01*
X98336010Y-103128145D01*
X98402723Y-103289205D01*
X98499576Y-103434155D01*
X98516537Y-103451116D01*
X98505417Y-103448904D01*
X98331087Y-103448904D01*
X98160107Y-103482914D01*
X97999047Y-103549627D01*
X97854097Y-103646480D01*
X97730828Y-103769749D01*
X97633975Y-103914699D01*
X97567262Y-104075759D01*
X97533252Y-104246739D01*
X97533252Y-104421069D01*
X97540127Y-104455632D01*
X97461424Y-104337845D01*
X97338155Y-104214576D01*
X97193205Y-104117723D01*
X97032145Y-104051010D01*
X96861165Y-104017000D01*
X96686835Y-104017000D01*
X96515855Y-104051010D01*
X96354795Y-104117723D01*
X96209845Y-104214576D01*
X96086576Y-104337845D01*
X95989723Y-104482795D01*
X95923010Y-104643855D01*
X95920479Y-104656579D01*
X95920479Y-104600314D01*
X95886469Y-104429334D01*
X95819756Y-104268274D01*
X95722903Y-104123324D01*
X95599634Y-104000055D01*
X95454684Y-103903202D01*
X95293624Y-103836489D01*
X95122644Y-103802479D01*
X94948314Y-103802479D01*
X94777334Y-103836489D01*
X94616274Y-103903202D01*
X94471324Y-104000055D01*
X94348055Y-104123324D01*
X94251202Y-104268274D01*
X94184489Y-104429334D01*
X94170697Y-104498672D01*
X93369369Y-105300000D01*
X92601201Y-105300000D01*
X92466475Y-105098368D01*
X92259632Y-104891525D01*
X92016411Y-104729010D01*
X91746158Y-104617068D01*
X91459260Y-104560000D01*
X91166740Y-104560000D01*
X90879842Y-104617068D01*
X90609589Y-104729010D01*
X90366368Y-104891525D01*
X90234513Y-105023380D01*
X90212502Y-104950820D01*
X90153537Y-104840506D01*
X90074185Y-104743815D01*
X89977494Y-104664463D01*
X89867180Y-104605498D01*
X89747482Y-104569188D01*
X89623000Y-104556928D01*
X87923000Y-104556928D01*
X87798518Y-104569188D01*
X87678820Y-104605498D01*
X87568506Y-104664463D01*
X87471815Y-104743815D01*
X87392463Y-104840506D01*
X87333498Y-104950820D01*
X87297188Y-105070518D01*
X87284928Y-105195000D01*
X86255924Y-105195000D01*
X86405990Y-104970411D01*
X86517932Y-104700158D01*
X86575000Y-104413260D01*
X86575000Y-104120740D01*
X86517932Y-103833842D01*
X86405990Y-103563589D01*
X86243475Y-103320368D01*
X86036632Y-103113525D01*
X85862240Y-102997000D01*
X86036632Y-102880475D01*
X86243475Y-102673632D01*
X86405990Y-102430411D01*
X86517932Y-102160158D01*
X86575000Y-101873260D01*
X86575000Y-101580740D01*
X86517932Y-101293842D01*
X86405990Y-101023589D01*
X86243475Y-100780368D01*
X86036632Y-100573525D01*
X85862240Y-100457000D01*
X86036632Y-100340475D01*
X86243475Y-100133632D01*
X86405990Y-99890411D01*
X86517932Y-99620158D01*
X86575000Y-99333260D01*
X86575000Y-99040740D01*
X86517932Y-98753842D01*
X86405990Y-98483589D01*
X86243475Y-98240368D01*
X86036632Y-98033525D01*
X85862240Y-97917000D01*
X86036632Y-97800475D01*
X86243475Y-97593632D01*
X86255924Y-97575000D01*
X87284928Y-97575000D01*
X87284928Y-99275000D01*
X87297188Y-99399482D01*
X87333498Y-99519180D01*
X87392463Y-99629494D01*
X87471815Y-99726185D01*
X87568506Y-99805537D01*
X87678820Y-99864502D01*
X87798518Y-99900812D01*
X87923000Y-99913072D01*
X89623000Y-99913072D01*
X89747482Y-99900812D01*
X89867180Y-99864502D01*
X89977494Y-99805537D01*
X90074185Y-99726185D01*
X90153537Y-99629494D01*
X90212502Y-99519180D01*
X90234513Y-99446620D01*
X90366368Y-99578475D01*
X90609589Y-99740990D01*
X90879842Y-99852932D01*
X91166740Y-99910000D01*
X91459260Y-99910000D01*
X91746158Y-99852932D01*
X92016411Y-99740990D01*
X92259632Y-99578475D01*
X92466475Y-99371632D01*
X92601201Y-99170000D01*
X98007410Y-99170000D01*
X98044000Y-99173604D01*
X98080590Y-99170000D01*
X98080592Y-99170000D01*
X98190045Y-99159220D01*
X98330478Y-99116620D01*
X98459902Y-99047441D01*
X98573343Y-98954343D01*
X98596669Y-98925920D01*
X103439807Y-94082782D01*
X103509145Y-94068990D01*
X103670205Y-94002277D01*
X103815155Y-93905424D01*
X103938424Y-93782155D01*
X104035277Y-93637205D01*
X104101990Y-93476145D01*
X104136000Y-93305165D01*
X104136000Y-93130835D01*
X104101990Y-92959855D01*
X104035277Y-92798795D01*
X103938424Y-92653845D01*
X103815155Y-92530576D01*
X103670205Y-92433723D01*
X103509145Y-92367010D01*
X103338165Y-92333000D01*
X103163835Y-92333000D01*
X102992855Y-92367010D01*
X102831795Y-92433723D01*
X102686845Y-92530576D01*
X102563576Y-92653845D01*
X102466723Y-92798795D01*
X102400010Y-92959855D01*
X102386218Y-93029193D01*
X97735411Y-97680000D01*
X92601201Y-97680000D01*
X92466475Y-97478368D01*
X92259632Y-97271525D01*
X92016411Y-97109010D01*
X91746158Y-96997068D01*
X91459260Y-96940000D01*
X91166740Y-96940000D01*
X90879842Y-96997068D01*
X90609589Y-97109010D01*
X90366368Y-97271525D01*
X90234513Y-97403380D01*
X90212502Y-97330820D01*
X90153537Y-97220506D01*
X90074185Y-97123815D01*
X89977494Y-97044463D01*
X89867180Y-96985498D01*
X89747482Y-96949188D01*
X89623000Y-96936928D01*
X87923000Y-96936928D01*
X87798518Y-96949188D01*
X87678820Y-96985498D01*
X87568506Y-97044463D01*
X87471815Y-97123815D01*
X87392463Y-97220506D01*
X87333498Y-97330820D01*
X87297188Y-97450518D01*
X87284928Y-97575000D01*
X86255924Y-97575000D01*
X86405990Y-97350411D01*
X86517932Y-97080158D01*
X86575000Y-96793260D01*
X86575000Y-96500740D01*
X86517932Y-96213842D01*
X86405990Y-95943589D01*
X86243475Y-95700368D01*
X86036632Y-95493525D01*
X85862240Y-95377000D01*
X86036632Y-95260475D01*
X86243475Y-95053632D01*
X86405990Y-94810411D01*
X86517932Y-94540158D01*
X86575000Y-94253260D01*
X86575000Y-93960740D01*
X86517932Y-93673842D01*
X86405990Y-93403589D01*
X86243475Y-93160368D01*
X86036632Y-92953525D01*
X85862240Y-92837000D01*
X86036632Y-92720475D01*
X86243475Y-92513632D01*
X86405990Y-92270411D01*
X86517932Y-92000158D01*
X86575000Y-91713260D01*
X86575000Y-91420740D01*
X86517932Y-91133842D01*
X86405990Y-90863589D01*
X86243475Y-90620368D01*
X86036632Y-90413525D01*
X85862240Y-90297000D01*
X86036632Y-90180475D01*
X86243475Y-89973632D01*
X86405990Y-89730411D01*
X86517932Y-89460158D01*
X86575000Y-89173260D01*
X86575000Y-88880740D01*
X86517932Y-88593842D01*
X86405990Y-88323589D01*
X86243475Y-88080368D01*
X86036632Y-87873525D01*
X85862240Y-87757000D01*
X86036632Y-87640475D01*
X86243475Y-87433632D01*
X86405990Y-87190411D01*
X86517932Y-86920158D01*
X86575000Y-86633260D01*
X86575000Y-86340740D01*
X86517932Y-86053842D01*
X86405990Y-85783589D01*
X86243475Y-85540368D01*
X86036632Y-85333525D01*
X85862240Y-85217000D01*
X86036632Y-85100475D01*
X86243475Y-84893632D01*
X86405990Y-84650411D01*
X86517932Y-84380158D01*
X86575000Y-84093260D01*
X86575000Y-83800740D01*
X86517932Y-83513842D01*
X86405990Y-83243589D01*
X86243475Y-83000368D01*
X86036632Y-82793525D01*
X85862240Y-82677000D01*
X86036632Y-82560475D01*
X86243475Y-82353632D01*
X86405990Y-82110411D01*
X86517932Y-81840158D01*
X86575000Y-81553260D01*
X86575000Y-81260740D01*
X86517932Y-80973842D01*
X86405990Y-80703589D01*
X86243475Y-80460368D01*
X86036632Y-80253525D01*
X85862240Y-80137000D01*
X86036632Y-80020475D01*
X86243475Y-79813632D01*
X86405990Y-79570411D01*
X86517932Y-79300158D01*
X86575000Y-79013260D01*
X86575000Y-78720740D01*
X86517932Y-78433842D01*
X86405990Y-78163589D01*
X86243475Y-77920368D01*
X86111620Y-77788513D01*
X86184180Y-77766502D01*
X86294494Y-77707537D01*
X86391185Y-77628185D01*
X86470537Y-77531494D01*
X86529502Y-77421180D01*
X86565812Y-77301482D01*
X86578072Y-77177000D01*
X86575045Y-76620835D01*
X89793000Y-76620835D01*
X89793000Y-76795165D01*
X89827010Y-76966145D01*
X89893723Y-77127205D01*
X89990576Y-77272155D01*
X90113845Y-77395424D01*
X90258795Y-77492277D01*
X90419855Y-77558990D01*
X90590835Y-77593000D01*
X90765165Y-77593000D01*
X90936145Y-77558990D01*
X91035104Y-77518000D01*
X104947488Y-77518000D01*
X105346733Y-77917245D01*
X105362001Y-77954106D01*
X105362000Y-92162212D01*
X105358081Y-92202000D01*
X105362000Y-92241788D01*
X105362000Y-92241790D01*
X105373720Y-92360787D01*
X105420037Y-92513472D01*
X105436566Y-92544396D01*
X105495251Y-92654189D01*
X105508686Y-92670559D01*
X105596472Y-92777528D01*
X105627387Y-92802899D01*
X107632733Y-94808246D01*
X107673723Y-94907205D01*
X107770576Y-95052155D01*
X107893845Y-95175424D01*
X108038795Y-95272277D01*
X108199855Y-95338990D01*
X108370835Y-95373000D01*
X108545165Y-95373000D01*
X108716145Y-95338990D01*
X108877205Y-95272277D01*
X109022155Y-95175424D01*
X109145424Y-95052155D01*
X109242277Y-94907205D01*
X109308990Y-94746145D01*
X109343000Y-94575165D01*
X109343000Y-94400835D01*
X109308990Y-94229855D01*
X109242277Y-94068795D01*
X109145424Y-93923845D01*
X109022155Y-93800576D01*
X108877205Y-93703723D01*
X108778246Y-93662733D01*
X106982000Y-91866488D01*
X106982000Y-77954104D01*
X107022990Y-77855145D01*
X107057000Y-77684165D01*
X107057000Y-77509835D01*
X107022990Y-77338855D01*
X106956277Y-77177795D01*
X106859424Y-77032845D01*
X106736155Y-76909576D01*
X106591205Y-76812723D01*
X106492245Y-76771733D01*
X105883899Y-76163387D01*
X105858528Y-76132472D01*
X105735189Y-76031251D01*
X105594473Y-75956037D01*
X105441788Y-75909720D01*
X105322791Y-75898000D01*
X105322788Y-75898000D01*
X105283000Y-75894081D01*
X105243212Y-75898000D01*
X91035104Y-75898000D01*
X90936145Y-75857010D01*
X90765165Y-75823000D01*
X90590835Y-75823000D01*
X90419855Y-75857010D01*
X90258795Y-75923723D01*
X90113845Y-76020576D01*
X89990576Y-76143845D01*
X89893723Y-76288795D01*
X89827010Y-76449855D01*
X89793000Y-76620835D01*
X86575045Y-76620835D01*
X86575000Y-76612750D01*
X86416250Y-76454000D01*
X85217000Y-76454000D01*
X85217000Y-76474000D01*
X84963000Y-76474000D01*
X84963000Y-76454000D01*
X84943000Y-76454000D01*
X84943000Y-76200000D01*
X84963000Y-76200000D01*
X84963000Y-75000750D01*
X85217000Y-75000750D01*
X85217000Y-76200000D01*
X86416250Y-76200000D01*
X86575000Y-76041250D01*
X86576689Y-75731000D01*
X137957928Y-75731000D01*
X137961000Y-76295250D01*
X138119750Y-76454000D01*
X139319000Y-76454000D01*
X139319000Y-75254750D01*
X139160250Y-75096000D01*
X138596000Y-75092928D01*
X138471518Y-75105188D01*
X138351820Y-75141498D01*
X138241506Y-75200463D01*
X138144815Y-75279815D01*
X138065463Y-75376506D01*
X138006498Y-75486820D01*
X137970188Y-75606518D01*
X137957928Y-75731000D01*
X86576689Y-75731000D01*
X86578072Y-75477000D01*
X86565812Y-75352518D01*
X86529502Y-75232820D01*
X86470537Y-75122506D01*
X86391185Y-75025815D01*
X86294494Y-74946463D01*
X86184180Y-74887498D01*
X86064482Y-74851188D01*
X85940000Y-74838928D01*
X85375750Y-74842000D01*
X85217000Y-75000750D01*
X84963000Y-75000750D01*
X84804250Y-74842000D01*
X84240000Y-74838928D01*
X84115518Y-74851188D01*
X83995820Y-74887498D01*
X83885506Y-74946463D01*
X83788815Y-75025815D01*
X83709463Y-75122506D01*
X83650498Y-75232820D01*
X83616000Y-75346545D01*
X83616000Y-69265000D01*
X140791477Y-69265000D01*
X140778027Y-75317396D01*
G37*
%TD.AperFunction*%
%TD*%
M02*
