%TF.GenerationSoftware,KiCad,Pcbnew,(5.1.7)-1*%
%TF.CreationDate,2020-11-23T11:29:42-08:00*%
%TF.ProjectId,esp32_sensor,65737033-325f-4736-956e-736f722e6b69,v0.0.1*%
%TF.SameCoordinates,Original*%
%TF.FileFunction,Legend,Bot*%
%TF.FilePolarity,Positive*%
%FSLAX46Y46*%
G04 Gerber Fmt 4.6, Leading zero omitted, Abs format (unit mm)*
G04 Created by KiCad (PCBNEW (5.1.7)-1) date 2020-11-23 11:29:42*
%MOMM*%
%LPD*%
G01*
G04 APERTURE LIST*
%ADD10C,0.100000*%
%ADD11C,0.150000*%
%ADD12C,0.300000*%
%ADD13C,0.400000*%
G04 APERTURE END LIST*
D10*
D11*
X159400000Y-171900000D02*
X159400000Y-203900000D01*
X267400000Y-203900000D01*
X267400000Y-171900000D01*
X159400000Y-171900000D01*
D10*
D11*
X10000000Y-10000000D02*
X10000000Y-205900000D01*
X269400000Y-205900000D01*
X269400000Y-10000000D01*
X10000000Y-10000000D01*
D10*
D11*
X12000000Y-12000000D02*
X12000000Y-203900000D01*
X267400000Y-203900000D01*
X267400000Y-12000000D01*
X12000000Y-12000000D01*
D10*
D11*
X60000000Y-12000000D02*
X60000000Y-10000000D01*
D10*
D11*
X110000000Y-12000000D02*
X110000000Y-10000000D01*
D10*
D11*
X160000000Y-12000000D02*
X160000000Y-10000000D01*
D10*
D11*
X210000000Y-12000000D02*
X210000000Y-10000000D01*
D10*
D11*
X260000000Y-12000000D02*
X260000000Y-10000000D01*
D10*
D11*
X36065476Y-11588095D02*
X35322619Y-11588095D01*
X35694047Y-11588095D02*
X35694047Y-10288095D01*
X35570238Y-10473809D01*
X35446428Y-10597619D01*
X35322619Y-10659523D01*
D10*
D11*
X85322619Y-10411904D02*
X85384523Y-10350000D01*
X85508333Y-10288095D01*
X85817857Y-10288095D01*
X85941666Y-10350000D01*
X86003571Y-10411904D01*
X86065476Y-10535714D01*
X86065476Y-10659523D01*
X86003571Y-10845238D01*
X85260714Y-11588095D01*
X86065476Y-11588095D01*
D10*
D11*
X135260714Y-10288095D02*
X136065476Y-10288095D01*
X135632142Y-10783333D01*
X135817857Y-10783333D01*
X135941666Y-10845238D01*
X136003571Y-10907142D01*
X136065476Y-11030952D01*
X136065476Y-11340476D01*
X136003571Y-11464285D01*
X135941666Y-11526190D01*
X135817857Y-11588095D01*
X135446428Y-11588095D01*
X135322619Y-11526190D01*
X135260714Y-11464285D01*
D10*
D11*
X185941666Y-10721428D02*
X185941666Y-11588095D01*
X185632142Y-10226190D02*
X185322619Y-11154761D01*
X186127380Y-11154761D01*
D10*
D11*
X236003571Y-10288095D02*
X235384523Y-10288095D01*
X235322619Y-10907142D01*
X235384523Y-10845238D01*
X235508333Y-10783333D01*
X235817857Y-10783333D01*
X235941666Y-10845238D01*
X236003571Y-10907142D01*
X236065476Y-11030952D01*
X236065476Y-11340476D01*
X236003571Y-11464285D01*
X235941666Y-11526190D01*
X235817857Y-11588095D01*
X235508333Y-11588095D01*
X235384523Y-11526190D01*
X235322619Y-11464285D01*
D10*
D11*
X60000000Y-203900000D02*
X60000000Y-205900000D01*
D10*
D11*
X110000000Y-203900000D02*
X110000000Y-205900000D01*
D10*
D11*
X160000000Y-203900000D02*
X160000000Y-205900000D01*
D10*
D11*
X210000000Y-203900000D02*
X210000000Y-205900000D01*
D10*
D11*
X260000000Y-203900000D02*
X260000000Y-205900000D01*
D10*
D11*
X36065476Y-205488095D02*
X35322619Y-205488095D01*
X35694047Y-205488095D02*
X35694047Y-204188095D01*
X35570238Y-204373809D01*
X35446428Y-204497619D01*
X35322619Y-204559523D01*
D10*
D11*
X85322619Y-204311904D02*
X85384523Y-204250000D01*
X85508333Y-204188095D01*
X85817857Y-204188095D01*
X85941666Y-204250000D01*
X86003571Y-204311904D01*
X86065476Y-204435714D01*
X86065476Y-204559523D01*
X86003571Y-204745238D01*
X85260714Y-205488095D01*
X86065476Y-205488095D01*
D10*
D11*
X135260714Y-204188095D02*
X136065476Y-204188095D01*
X135632142Y-204683333D01*
X135817857Y-204683333D01*
X135941666Y-204745238D01*
X136003571Y-204807142D01*
X136065476Y-204930952D01*
X136065476Y-205240476D01*
X136003571Y-205364285D01*
X135941666Y-205426190D01*
X135817857Y-205488095D01*
X135446428Y-205488095D01*
X135322619Y-205426190D01*
X135260714Y-205364285D01*
D10*
D11*
X185941666Y-204621428D02*
X185941666Y-205488095D01*
X185632142Y-204126190D02*
X185322619Y-205054761D01*
X186127380Y-205054761D01*
D10*
D11*
X236003571Y-204188095D02*
X235384523Y-204188095D01*
X235322619Y-204807142D01*
X235384523Y-204745238D01*
X235508333Y-204683333D01*
X235817857Y-204683333D01*
X235941666Y-204745238D01*
X236003571Y-204807142D01*
X236065476Y-204930952D01*
X236065476Y-205240476D01*
X236003571Y-205364285D01*
X235941666Y-205426190D01*
X235817857Y-205488095D01*
X235508333Y-205488095D01*
X235384523Y-205426190D01*
X235322619Y-205364285D01*
D10*
D11*
X10000000Y-60000000D02*
X12000000Y-60000000D01*
D10*
D11*
X10000000Y-110000000D02*
X12000000Y-110000000D01*
D10*
D11*
X10000000Y-160000000D02*
X12000000Y-160000000D01*
D10*
D11*
X10690476Y-35216666D02*
X11309523Y-35216666D01*
X10566666Y-35588095D02*
X11000000Y-34288095D01*
X11433333Y-35588095D01*
D10*
D11*
X11092857Y-84907142D02*
X11278571Y-84969047D01*
X11340476Y-85030952D01*
X11402380Y-85154761D01*
X11402380Y-85340476D01*
X11340476Y-85464285D01*
X11278571Y-85526190D01*
X11154761Y-85588095D01*
X10659523Y-85588095D01*
X10659523Y-84288095D01*
X11092857Y-84288095D01*
X11216666Y-84350000D01*
X11278571Y-84411904D01*
X11340476Y-84535714D01*
X11340476Y-84659523D01*
X11278571Y-84783333D01*
X11216666Y-84845238D01*
X11092857Y-84907142D01*
X10659523Y-84907142D01*
D10*
D11*
X11402380Y-135464285D02*
X11340476Y-135526190D01*
X11154761Y-135588095D01*
X11030952Y-135588095D01*
X10845238Y-135526190D01*
X10721428Y-135402380D01*
X10659523Y-135278571D01*
X10597619Y-135030952D01*
X10597619Y-134845238D01*
X10659523Y-134597619D01*
X10721428Y-134473809D01*
X10845238Y-134350000D01*
X11030952Y-134288095D01*
X11154761Y-134288095D01*
X11340476Y-134350000D01*
X11402380Y-134411904D01*
D10*
D11*
X10659523Y-185588095D02*
X10659523Y-184288095D01*
X10969047Y-184288095D01*
X11154761Y-184350000D01*
X11278571Y-184473809D01*
X11340476Y-184597619D01*
X11402380Y-184845238D01*
X11402380Y-185030952D01*
X11340476Y-185278571D01*
X11278571Y-185402380D01*
X11154761Y-185526190D01*
X10969047Y-185588095D01*
X10659523Y-185588095D01*
D10*
D11*
X269400000Y-60000000D02*
X267400000Y-60000000D01*
D10*
D11*
X269400000Y-110000000D02*
X267400000Y-110000000D01*
D10*
D11*
X269400000Y-160000000D02*
X267400000Y-160000000D01*
D10*
D11*
X268090476Y-35216666D02*
X268709523Y-35216666D01*
X267966666Y-35588095D02*
X268400000Y-34288095D01*
X268833333Y-35588095D01*
D10*
D11*
X268492857Y-84907142D02*
X268678571Y-84969047D01*
X268740476Y-85030952D01*
X268802380Y-85154761D01*
X268802380Y-85340476D01*
X268740476Y-85464285D01*
X268678571Y-85526190D01*
X268554761Y-85588095D01*
X268059523Y-85588095D01*
X268059523Y-84288095D01*
X268492857Y-84288095D01*
X268616666Y-84350000D01*
X268678571Y-84411904D01*
X268740476Y-84535714D01*
X268740476Y-84659523D01*
X268678571Y-84783333D01*
X268616666Y-84845238D01*
X268492857Y-84907142D01*
X268059523Y-84907142D01*
D10*
D11*
X268802380Y-135464285D02*
X268740476Y-135526190D01*
X268554761Y-135588095D01*
X268430952Y-135588095D01*
X268245238Y-135526190D01*
X268121428Y-135402380D01*
X268059523Y-135278571D01*
X267997619Y-135030952D01*
X267997619Y-134845238D01*
X268059523Y-134597619D01*
X268121428Y-134473809D01*
X268245238Y-134350000D01*
X268430952Y-134288095D01*
X268554761Y-134288095D01*
X268740476Y-134350000D01*
X268802380Y-134411904D01*
D10*
D11*
X268059523Y-185588095D02*
X268059523Y-184288095D01*
X268369047Y-184288095D01*
X268554761Y-184350000D01*
X268678571Y-184473809D01*
X268740476Y-184597619D01*
X268802380Y-184845238D01*
X268802380Y-185030952D01*
X268740476Y-185278571D01*
X268678571Y-185402380D01*
X268554761Y-185526190D01*
X268369047Y-185588095D01*
X268059523Y-185588095D01*
D10*
D11*
X182832142Y-199678571D02*
X182832142Y-198178571D01*
X183189285Y-198178571D01*
X183403571Y-198250000D01*
X183546428Y-198392857D01*
X183617857Y-198535714D01*
X183689285Y-198821428D01*
X183689285Y-199035714D01*
X183617857Y-199321428D01*
X183546428Y-199464285D01*
X183403571Y-199607142D01*
X183189285Y-199678571D01*
X182832142Y-199678571D01*
X184975000Y-199678571D02*
X184975000Y-198892857D01*
X184903571Y-198750000D01*
X184760714Y-198678571D01*
X184475000Y-198678571D01*
X184332142Y-198750000D01*
X184975000Y-199607142D02*
X184832142Y-199678571D01*
X184475000Y-199678571D01*
X184332142Y-199607142D01*
X184260714Y-199464285D01*
X184260714Y-199321428D01*
X184332142Y-199178571D01*
X184475000Y-199107142D01*
X184832142Y-199107142D01*
X184975000Y-199035714D01*
X185475000Y-198678571D02*
X186046428Y-198678571D01*
X185689285Y-198178571D02*
X185689285Y-199464285D01*
X185760714Y-199607142D01*
X185903571Y-199678571D01*
X186046428Y-199678571D01*
X187117857Y-199607142D02*
X186975000Y-199678571D01*
X186689285Y-199678571D01*
X186546428Y-199607142D01*
X186475000Y-199464285D01*
X186475000Y-198892857D01*
X186546428Y-198750000D01*
X186689285Y-198678571D01*
X186975000Y-198678571D01*
X187117857Y-198750000D01*
X187189285Y-198892857D01*
X187189285Y-199035714D01*
X186475000Y-199178571D01*
X187832142Y-199535714D02*
X187903571Y-199607142D01*
X187832142Y-199678571D01*
X187760714Y-199607142D01*
X187832142Y-199535714D01*
X187832142Y-199678571D01*
X187832142Y-198750000D02*
X187903571Y-198821428D01*
X187832142Y-198892857D01*
X187760714Y-198821428D01*
X187832142Y-198750000D01*
X187832142Y-198892857D01*
X189617857Y-198321428D02*
X189689285Y-198250000D01*
X189832142Y-198178571D01*
X190189285Y-198178571D01*
X190332142Y-198250000D01*
X190403571Y-198321428D01*
X190475000Y-198464285D01*
X190475000Y-198607142D01*
X190403571Y-198821428D01*
X189546428Y-199678571D01*
X190475000Y-199678571D01*
X191403571Y-198178571D02*
X191546428Y-198178571D01*
X191689285Y-198250000D01*
X191760714Y-198321428D01*
X191832142Y-198464285D01*
X191903571Y-198750000D01*
X191903571Y-199107142D01*
X191832142Y-199392857D01*
X191760714Y-199535714D01*
X191689285Y-199607142D01*
X191546428Y-199678571D01*
X191403571Y-199678571D01*
X191260714Y-199607142D01*
X191189285Y-199535714D01*
X191117857Y-199392857D01*
X191046428Y-199107142D01*
X191046428Y-198750000D01*
X191117857Y-198464285D01*
X191189285Y-198321428D01*
X191260714Y-198250000D01*
X191403571Y-198178571D01*
X192475000Y-198321428D02*
X192546428Y-198250000D01*
X192689285Y-198178571D01*
X193046428Y-198178571D01*
X193189285Y-198250000D01*
X193260714Y-198321428D01*
X193332142Y-198464285D01*
X193332142Y-198607142D01*
X193260714Y-198821428D01*
X192403571Y-199678571D01*
X193332142Y-199678571D01*
X194260714Y-198178571D02*
X194403571Y-198178571D01*
X194546428Y-198250000D01*
X194617857Y-198321428D01*
X194689285Y-198464285D01*
X194760714Y-198750000D01*
X194760714Y-199107142D01*
X194689285Y-199392857D01*
X194617857Y-199535714D01*
X194546428Y-199607142D01*
X194403571Y-199678571D01*
X194260714Y-199678571D01*
X194117857Y-199607142D01*
X194046428Y-199535714D01*
X193975000Y-199392857D01*
X193903571Y-199107142D01*
X193903571Y-198750000D01*
X193975000Y-198464285D01*
X194046428Y-198321428D01*
X194117857Y-198250000D01*
X194260714Y-198178571D01*
X195403571Y-199107142D02*
X196546428Y-199107142D01*
X198046428Y-199678571D02*
X197189285Y-199678571D01*
X197617857Y-199678571D02*
X197617857Y-198178571D01*
X197475000Y-198392857D01*
X197332142Y-198535714D01*
X197189285Y-198607142D01*
X199475000Y-199678571D02*
X198617857Y-199678571D01*
X199046428Y-199678571D02*
X199046428Y-198178571D01*
X198903571Y-198392857D01*
X198760714Y-198535714D01*
X198617857Y-198607142D01*
X200117857Y-199107142D02*
X201260714Y-199107142D01*
X201903571Y-198321428D02*
X201975000Y-198250000D01*
X202117857Y-198178571D01*
X202475000Y-198178571D01*
X202617857Y-198250000D01*
X202689285Y-198321428D01*
X202760714Y-198464285D01*
X202760714Y-198607142D01*
X202689285Y-198821428D01*
X201832142Y-199678571D01*
X202760714Y-199678571D01*
X203260714Y-198178571D02*
X204189285Y-198178571D01*
X203689285Y-198750000D01*
X203903571Y-198750000D01*
X204046428Y-198821428D01*
X204117857Y-198892857D01*
X204189285Y-199035714D01*
X204189285Y-199392857D01*
X204117857Y-199535714D01*
X204046428Y-199607142D01*
X203903571Y-199678571D01*
X203475000Y-199678571D01*
X203332142Y-199607142D01*
X203260714Y-199535714D01*
D10*
D11*
X159400000Y-200400000D02*
X267400000Y-200400000D01*
D10*
D11*
X160832142Y-202478571D02*
X160832142Y-200978571D01*
X161689285Y-202478571D02*
X161046428Y-201621428D01*
X161689285Y-200978571D02*
X160832142Y-201835714D01*
X162332142Y-202478571D02*
X162332142Y-201478571D01*
X162332142Y-200978571D02*
X162260714Y-201050000D01*
X162332142Y-201121428D01*
X162403571Y-201050000D01*
X162332142Y-200978571D01*
X162332142Y-201121428D01*
X163903571Y-202335714D02*
X163832142Y-202407142D01*
X163617857Y-202478571D01*
X163475000Y-202478571D01*
X163260714Y-202407142D01*
X163117857Y-202264285D01*
X163046428Y-202121428D01*
X162975000Y-201835714D01*
X162975000Y-201621428D01*
X163046428Y-201335714D01*
X163117857Y-201192857D01*
X163260714Y-201050000D01*
X163475000Y-200978571D01*
X163617857Y-200978571D01*
X163832142Y-201050000D01*
X163903571Y-201121428D01*
X165189285Y-202478571D02*
X165189285Y-201692857D01*
X165117857Y-201550000D01*
X164975000Y-201478571D01*
X164689285Y-201478571D01*
X164546428Y-201550000D01*
X165189285Y-202407142D02*
X165046428Y-202478571D01*
X164689285Y-202478571D01*
X164546428Y-202407142D01*
X164475000Y-202264285D01*
X164475000Y-202121428D01*
X164546428Y-201978571D01*
X164689285Y-201907142D01*
X165046428Y-201907142D01*
X165189285Y-201835714D01*
X166546428Y-202478571D02*
X166546428Y-200978571D01*
X166546428Y-202407142D02*
X166403571Y-202478571D01*
X166117857Y-202478571D01*
X165975000Y-202407142D01*
X165903571Y-202335714D01*
X165832142Y-202192857D01*
X165832142Y-201764285D01*
X165903571Y-201621428D01*
X165975000Y-201550000D01*
X166117857Y-201478571D01*
X166403571Y-201478571D01*
X166546428Y-201550000D01*
X168403571Y-201692857D02*
X168903571Y-201692857D01*
X169117857Y-202478571D02*
X168403571Y-202478571D01*
X168403571Y-200978571D01*
X169117857Y-200978571D01*
X169760714Y-202335714D02*
X169832142Y-202407142D01*
X169760714Y-202478571D01*
X169689285Y-202407142D01*
X169760714Y-202335714D01*
X169760714Y-202478571D01*
X170475000Y-202478571D02*
X170475000Y-200978571D01*
X170832142Y-200978571D01*
X171046428Y-201050000D01*
X171189285Y-201192857D01*
X171260714Y-201335714D01*
X171332142Y-201621428D01*
X171332142Y-201835714D01*
X171260714Y-202121428D01*
X171189285Y-202264285D01*
X171046428Y-202407142D01*
X170832142Y-202478571D01*
X170475000Y-202478571D01*
X171975000Y-202335714D02*
X172046428Y-202407142D01*
X171975000Y-202478571D01*
X171903571Y-202407142D01*
X171975000Y-202335714D01*
X171975000Y-202478571D01*
X172617857Y-202050000D02*
X173332142Y-202050000D01*
X172475000Y-202478571D02*
X172975000Y-200978571D01*
X173475000Y-202478571D01*
X173975000Y-202335714D02*
X174046428Y-202407142D01*
X173975000Y-202478571D01*
X173903571Y-202407142D01*
X173975000Y-202335714D01*
X173975000Y-202478571D01*
X176975000Y-202478571D02*
X176975000Y-200978571D01*
X177117857Y-201907142D02*
X177546428Y-202478571D01*
X177546428Y-201478571D02*
X176975000Y-202050000D01*
X178189285Y-202478571D02*
X178189285Y-201478571D01*
X178189285Y-200978571D02*
X178117857Y-201050000D01*
X178189285Y-201121428D01*
X178260714Y-201050000D01*
X178189285Y-200978571D01*
X178189285Y-201121428D01*
X179546428Y-202407142D02*
X179403571Y-202478571D01*
X179117857Y-202478571D01*
X178975000Y-202407142D01*
X178903571Y-202335714D01*
X178832142Y-202192857D01*
X178832142Y-201764285D01*
X178903571Y-201621428D01*
X178975000Y-201550000D01*
X179117857Y-201478571D01*
X179403571Y-201478571D01*
X179546428Y-201550000D01*
X180832142Y-202478571D02*
X180832142Y-201692857D01*
X180760714Y-201550000D01*
X180617857Y-201478571D01*
X180332142Y-201478571D01*
X180189285Y-201550000D01*
X180832142Y-202407142D02*
X180689285Y-202478571D01*
X180332142Y-202478571D01*
X180189285Y-202407142D01*
X180117857Y-202264285D01*
X180117857Y-202121428D01*
X180189285Y-201978571D01*
X180332142Y-201907142D01*
X180689285Y-201907142D01*
X180832142Y-201835714D01*
X182189285Y-202478571D02*
X182189285Y-200978571D01*
X182189285Y-202407142D02*
X182046428Y-202478571D01*
X181760714Y-202478571D01*
X181617857Y-202407142D01*
X181546428Y-202335714D01*
X181475000Y-202192857D01*
X181475000Y-201764285D01*
X181546428Y-201621428D01*
X181617857Y-201550000D01*
X181760714Y-201478571D01*
X182046428Y-201478571D01*
X182189285Y-201550000D01*
X184475000Y-203050000D02*
X184403571Y-202978571D01*
X184260714Y-202764285D01*
X184189285Y-202621428D01*
X184117857Y-202407142D01*
X184046428Y-202050000D01*
X184046428Y-201764285D01*
X184117857Y-201407142D01*
X184189285Y-201192857D01*
X184260714Y-201050000D01*
X184403571Y-200835714D01*
X184475000Y-200764285D01*
X185760714Y-200978571D02*
X185046428Y-200978571D01*
X184975000Y-201692857D01*
X185046428Y-201621428D01*
X185189285Y-201550000D01*
X185546428Y-201550000D01*
X185689285Y-201621428D01*
X185760714Y-201692857D01*
X185832142Y-201835714D01*
X185832142Y-202192857D01*
X185760714Y-202335714D01*
X185689285Y-202407142D01*
X185546428Y-202478571D01*
X185189285Y-202478571D01*
X185046428Y-202407142D01*
X184975000Y-202335714D01*
X186475000Y-202335714D02*
X186546428Y-202407142D01*
X186475000Y-202478571D01*
X186403571Y-202407142D01*
X186475000Y-202335714D01*
X186475000Y-202478571D01*
X187975000Y-202478571D02*
X187117857Y-202478571D01*
X187546428Y-202478571D02*
X187546428Y-200978571D01*
X187403571Y-201192857D01*
X187260714Y-201335714D01*
X187117857Y-201407142D01*
X188617857Y-202335714D02*
X188689285Y-202407142D01*
X188617857Y-202478571D01*
X188546428Y-202407142D01*
X188617857Y-202335714D01*
X188617857Y-202478571D01*
X189189285Y-200978571D02*
X190189285Y-200978571D01*
X189546428Y-202478571D01*
X190617857Y-203050000D02*
X190689285Y-202978571D01*
X190832142Y-202764285D01*
X190903571Y-202621428D01*
X190975000Y-202407142D01*
X191046428Y-202050000D01*
X191046428Y-201764285D01*
X190975000Y-201407142D01*
X190903571Y-201192857D01*
X190832142Y-201050000D01*
X190689285Y-200835714D01*
X190617857Y-200764285D01*
X191760714Y-201907142D02*
X192903571Y-201907142D01*
X194403571Y-202478571D02*
X193546428Y-202478571D01*
X193975000Y-202478571D02*
X193975000Y-200978571D01*
X193832142Y-201192857D01*
X193689285Y-201335714D01*
X193546428Y-201407142D01*
D10*
D11*
X159400000Y-197400000D02*
X267400000Y-197400000D01*
D10*
D12*
X246809285Y-199678571D02*
X246309285Y-198964285D01*
X245952142Y-199678571D02*
X245952142Y-198178571D01*
X246523571Y-198178571D01*
X246666428Y-198250000D01*
X246737857Y-198321428D01*
X246809285Y-198464285D01*
X246809285Y-198678571D01*
X246737857Y-198821428D01*
X246666428Y-198892857D01*
X246523571Y-198964285D01*
X245952142Y-198964285D01*
X248023571Y-199607142D02*
X247880714Y-199678571D01*
X247595000Y-199678571D01*
X247452142Y-199607142D01*
X247380714Y-199464285D01*
X247380714Y-198892857D01*
X247452142Y-198750000D01*
X247595000Y-198678571D01*
X247880714Y-198678571D01*
X248023571Y-198750000D01*
X248095000Y-198892857D01*
X248095000Y-199035714D01*
X247380714Y-199178571D01*
X248595000Y-198678571D02*
X248952142Y-199678571D01*
X249309285Y-198678571D01*
X249880714Y-199535714D02*
X249952142Y-199607142D01*
X249880714Y-199678571D01*
X249809285Y-199607142D01*
X249880714Y-199535714D01*
X249880714Y-199678571D01*
X249880714Y-198750000D02*
X249952142Y-198821428D01*
X249880714Y-198892857D01*
X249809285Y-198821428D01*
X249880714Y-198750000D01*
X249880714Y-198892857D01*
X251595000Y-198678571D02*
X251952142Y-199678571D01*
X252309285Y-198678571D01*
X253166428Y-198178571D02*
X253309285Y-198178571D01*
X253452142Y-198250000D01*
X253523571Y-198321428D01*
X253595000Y-198464285D01*
X253666428Y-198750000D01*
X253666428Y-199107142D01*
X253595000Y-199392857D01*
X253523571Y-199535714D01*
X253452142Y-199607142D01*
X253309285Y-199678571D01*
X253166428Y-199678571D01*
X253023571Y-199607142D01*
X252952142Y-199535714D01*
X252880714Y-199392857D01*
X252809285Y-199107142D01*
X252809285Y-198750000D01*
X252880714Y-198464285D01*
X252952142Y-198321428D01*
X253023571Y-198250000D01*
X253166428Y-198178571D01*
X254309285Y-199535714D02*
X254380714Y-199607142D01*
X254309285Y-199678571D01*
X254237857Y-199607142D01*
X254309285Y-199535714D01*
X254309285Y-199678571D01*
X255309285Y-198178571D02*
X255452142Y-198178571D01*
X255595000Y-198250000D01*
X255666428Y-198321428D01*
X255737857Y-198464285D01*
X255809285Y-198750000D01*
X255809285Y-199107142D01*
X255737857Y-199392857D01*
X255666428Y-199535714D01*
X255595000Y-199607142D01*
X255452142Y-199678571D01*
X255309285Y-199678571D01*
X255166428Y-199607142D01*
X255095000Y-199535714D01*
X255023571Y-199392857D01*
X254952142Y-199107142D01*
X254952142Y-198750000D01*
X255023571Y-198464285D01*
X255095000Y-198321428D01*
X255166428Y-198250000D01*
X255309285Y-198178571D01*
X256452142Y-199535714D02*
X256523571Y-199607142D01*
X256452142Y-199678571D01*
X256380714Y-199607142D01*
X256452142Y-199535714D01*
X256452142Y-199678571D01*
X257952142Y-199678571D02*
X257095000Y-199678571D01*
X257523571Y-199678571D02*
X257523571Y-198178571D01*
X257380714Y-198392857D01*
X257237857Y-198535714D01*
X257095000Y-198607142D01*
D10*
D11*
X160760714Y-199607142D02*
X160975000Y-199678571D01*
X161332142Y-199678571D01*
X161475000Y-199607142D01*
X161546428Y-199535714D01*
X161617857Y-199392857D01*
X161617857Y-199250000D01*
X161546428Y-199107142D01*
X161475000Y-199035714D01*
X161332142Y-198964285D01*
X161046428Y-198892857D01*
X160903571Y-198821428D01*
X160832142Y-198750000D01*
X160760714Y-198607142D01*
X160760714Y-198464285D01*
X160832142Y-198321428D01*
X160903571Y-198250000D01*
X161046428Y-198178571D01*
X161403571Y-198178571D01*
X161617857Y-198250000D01*
X162260714Y-199678571D02*
X162260714Y-198678571D01*
X162260714Y-198178571D02*
X162189285Y-198250000D01*
X162260714Y-198321428D01*
X162332142Y-198250000D01*
X162260714Y-198178571D01*
X162260714Y-198321428D01*
X162832142Y-198678571D02*
X163617857Y-198678571D01*
X162832142Y-199678571D01*
X163617857Y-199678571D01*
X164760714Y-199607142D02*
X164617857Y-199678571D01*
X164332142Y-199678571D01*
X164189285Y-199607142D01*
X164117857Y-199464285D01*
X164117857Y-198892857D01*
X164189285Y-198750000D01*
X164332142Y-198678571D01*
X164617857Y-198678571D01*
X164760714Y-198750000D01*
X164832142Y-198892857D01*
X164832142Y-199035714D01*
X164117857Y-199178571D01*
X165475000Y-199535714D02*
X165546428Y-199607142D01*
X165475000Y-199678571D01*
X165403571Y-199607142D01*
X165475000Y-199535714D01*
X165475000Y-199678571D01*
X165475000Y-198750000D02*
X165546428Y-198821428D01*
X165475000Y-198892857D01*
X165403571Y-198821428D01*
X165475000Y-198750000D01*
X165475000Y-198892857D01*
X167332142Y-198178571D02*
X167332142Y-199392857D01*
X167403571Y-199535714D01*
X167475000Y-199607142D01*
X167617857Y-199678571D01*
X167903571Y-199678571D01*
X168046428Y-199607142D01*
X168117857Y-199535714D01*
X168189285Y-199392857D01*
X168189285Y-198178571D01*
X168832142Y-199607142D02*
X169046428Y-199678571D01*
X169403571Y-199678571D01*
X169546428Y-199607142D01*
X169617857Y-199535714D01*
X169689285Y-199392857D01*
X169689285Y-199250000D01*
X169617857Y-199107142D01*
X169546428Y-199035714D01*
X169403571Y-198964285D01*
X169117857Y-198892857D01*
X168975000Y-198821428D01*
X168903571Y-198750000D01*
X168832142Y-198607142D01*
X168832142Y-198464285D01*
X168903571Y-198321428D01*
X168975000Y-198250000D01*
X169117857Y-198178571D01*
X169475000Y-198178571D01*
X169689285Y-198250000D01*
X171046428Y-199678571D02*
X170332142Y-199678571D01*
X170332142Y-198178571D01*
X172117857Y-199607142D02*
X171975000Y-199678571D01*
X171689285Y-199678571D01*
X171546428Y-199607142D01*
X171475000Y-199464285D01*
X171475000Y-198892857D01*
X171546428Y-198750000D01*
X171689285Y-198678571D01*
X171975000Y-198678571D01*
X172117857Y-198750000D01*
X172189285Y-198892857D01*
X172189285Y-199035714D01*
X171475000Y-199178571D01*
X172617857Y-198678571D02*
X173189285Y-198678571D01*
X172832142Y-198178571D02*
X172832142Y-199464285D01*
X172903571Y-199607142D01*
X173046428Y-199678571D01*
X173189285Y-199678571D01*
X173475000Y-198678571D02*
X174046428Y-198678571D01*
X173689285Y-198178571D02*
X173689285Y-199464285D01*
X173760714Y-199607142D01*
X173903571Y-199678571D01*
X174046428Y-199678571D01*
X175117857Y-199607142D02*
X174975000Y-199678571D01*
X174689285Y-199678571D01*
X174546428Y-199607142D01*
X174475000Y-199464285D01*
X174475000Y-198892857D01*
X174546428Y-198750000D01*
X174689285Y-198678571D01*
X174975000Y-198678571D01*
X175117857Y-198750000D01*
X175189285Y-198892857D01*
X175189285Y-199035714D01*
X174475000Y-199178571D01*
X175832142Y-199678571D02*
X175832142Y-198678571D01*
X175832142Y-198964285D02*
X175903571Y-198821428D01*
X175975000Y-198750000D01*
X176117857Y-198678571D01*
X176260714Y-198678571D01*
D10*
D11*
X245832142Y-202478571D02*
X245832142Y-200978571D01*
X247189285Y-202478571D02*
X247189285Y-200978571D01*
X247189285Y-202407142D02*
X247046428Y-202478571D01*
X246760714Y-202478571D01*
X246617857Y-202407142D01*
X246546428Y-202335714D01*
X246475000Y-202192857D01*
X246475000Y-201764285D01*
X246546428Y-201621428D01*
X246617857Y-201550000D01*
X246760714Y-201478571D01*
X247046428Y-201478571D01*
X247189285Y-201550000D01*
X247903571Y-202335714D02*
X247975000Y-202407142D01*
X247903571Y-202478571D01*
X247832142Y-202407142D01*
X247903571Y-202335714D01*
X247903571Y-202478571D01*
X247903571Y-201550000D02*
X247975000Y-201621428D01*
X247903571Y-201692857D01*
X247832142Y-201621428D01*
X247903571Y-201550000D01*
X247903571Y-201692857D01*
X250546428Y-202478571D02*
X249689285Y-202478571D01*
X250117857Y-202478571D02*
X250117857Y-200978571D01*
X249975000Y-201192857D01*
X249832142Y-201335714D01*
X249689285Y-201407142D01*
X252260714Y-200907142D02*
X250975000Y-202835714D01*
X253546428Y-202478571D02*
X252689285Y-202478571D01*
X253117857Y-202478571D02*
X253117857Y-200978571D01*
X252975000Y-201192857D01*
X252832142Y-201335714D01*
X252689285Y-201407142D01*
D10*
D11*
X159400000Y-193400000D02*
X267400000Y-193400000D01*
D10*
D13*
X161112380Y-194104761D02*
X162255238Y-194104761D01*
X161433809Y-196104761D02*
X161683809Y-194104761D01*
X162671904Y-196104761D02*
X162838571Y-194771428D01*
X162921904Y-194104761D02*
X162814761Y-194200000D01*
X162898095Y-194295238D01*
X163005238Y-194200000D01*
X162921904Y-194104761D01*
X162898095Y-194295238D01*
X163505238Y-194771428D02*
X164267142Y-194771428D01*
X163874285Y-194104761D02*
X163660000Y-195819047D01*
X163731428Y-196009523D01*
X163910000Y-196104761D01*
X164100476Y-196104761D01*
X165052857Y-196104761D02*
X164874285Y-196009523D01*
X164802857Y-195819047D01*
X165017142Y-194104761D01*
X166588571Y-196009523D02*
X166386190Y-196104761D01*
X166005238Y-196104761D01*
X165826666Y-196009523D01*
X165755238Y-195819047D01*
X165850476Y-195057142D01*
X165969523Y-194866666D01*
X166171904Y-194771428D01*
X166552857Y-194771428D01*
X166731428Y-194866666D01*
X166802857Y-195057142D01*
X166779047Y-195247619D01*
X165802857Y-195438095D01*
X167552857Y-195914285D02*
X167636190Y-196009523D01*
X167529047Y-196104761D01*
X167445714Y-196009523D01*
X167552857Y-195914285D01*
X167529047Y-196104761D01*
X167683809Y-194866666D02*
X167767142Y-194961904D01*
X167660000Y-195057142D01*
X167576666Y-194961904D01*
X167683809Y-194866666D01*
X167660000Y-195057142D01*
X170136190Y-195057142D02*
X170802857Y-195057142D01*
X170957619Y-196104761D02*
X170005238Y-196104761D01*
X170255238Y-194104761D01*
X171207619Y-194104761D01*
X171731428Y-196009523D02*
X172005238Y-196104761D01*
X172481428Y-196104761D01*
X172683809Y-196009523D01*
X172790952Y-195914285D01*
X172910000Y-195723809D01*
X172933809Y-195533333D01*
X172862380Y-195342857D01*
X172779047Y-195247619D01*
X172600476Y-195152380D01*
X172231428Y-195057142D01*
X172052857Y-194961904D01*
X171969523Y-194866666D01*
X171898095Y-194676190D01*
X171921904Y-194485714D01*
X172040952Y-194295238D01*
X172148095Y-194200000D01*
X172350476Y-194104761D01*
X172826666Y-194104761D01*
X173100476Y-194200000D01*
X173719523Y-196104761D02*
X173969523Y-194104761D01*
X174731428Y-194104761D01*
X174910000Y-194200000D01*
X174993333Y-194295238D01*
X175064761Y-194485714D01*
X175029047Y-194771428D01*
X174910000Y-194961904D01*
X174802857Y-195057142D01*
X174600476Y-195152380D01*
X173838571Y-195152380D01*
X175779047Y-194104761D02*
X177017142Y-194104761D01*
X176255238Y-194866666D01*
X176540952Y-194866666D01*
X176719523Y-194961904D01*
X176802857Y-195057142D01*
X176874285Y-195247619D01*
X176814761Y-195723809D01*
X176695714Y-195914285D01*
X176588571Y-196009523D01*
X176386190Y-196104761D01*
X175814761Y-196104761D01*
X175636190Y-196009523D01*
X175552857Y-195914285D01*
X177755238Y-194295238D02*
X177862380Y-194200000D01*
X178064761Y-194104761D01*
X178540952Y-194104761D01*
X178719523Y-194200000D01*
X178802857Y-194295238D01*
X178874285Y-194485714D01*
X178850476Y-194676190D01*
X178719523Y-194961904D01*
X177433809Y-196104761D01*
X178671904Y-196104761D01*
X180969523Y-196009523D02*
X181243333Y-196104761D01*
X181719523Y-196104761D01*
X181921904Y-196009523D01*
X182029047Y-195914285D01*
X182148095Y-195723809D01*
X182171904Y-195533333D01*
X182100476Y-195342857D01*
X182017142Y-195247619D01*
X181838571Y-195152380D01*
X181469523Y-195057142D01*
X181290952Y-194961904D01*
X181207619Y-194866666D01*
X181136190Y-194676190D01*
X181160000Y-194485714D01*
X181279047Y-194295238D01*
X181386190Y-194200000D01*
X181588571Y-194104761D01*
X182064761Y-194104761D01*
X182338571Y-194200000D01*
X183731428Y-196009523D02*
X183529047Y-196104761D01*
X183148095Y-196104761D01*
X182969523Y-196009523D01*
X182898095Y-195819047D01*
X182993333Y-195057142D01*
X183112380Y-194866666D01*
X183314761Y-194771428D01*
X183695714Y-194771428D01*
X183874285Y-194866666D01*
X183945714Y-195057142D01*
X183921904Y-195247619D01*
X182945714Y-195438095D01*
X184838571Y-194771428D02*
X184671904Y-196104761D01*
X184814761Y-194961904D02*
X184921904Y-194866666D01*
X185124285Y-194771428D01*
X185410000Y-194771428D01*
X185588571Y-194866666D01*
X185660000Y-195057142D01*
X185529047Y-196104761D01*
X186398095Y-196009523D02*
X186576666Y-196104761D01*
X186957619Y-196104761D01*
X187160000Y-196009523D01*
X187279047Y-195819047D01*
X187290952Y-195723809D01*
X187219523Y-195533333D01*
X187040952Y-195438095D01*
X186755238Y-195438095D01*
X186576666Y-195342857D01*
X186505238Y-195152380D01*
X186517142Y-195057142D01*
X186636190Y-194866666D01*
X186838571Y-194771428D01*
X187124285Y-194771428D01*
X187302857Y-194866666D01*
X188386190Y-196104761D02*
X188207619Y-196009523D01*
X188124285Y-195914285D01*
X188052857Y-195723809D01*
X188124285Y-195152380D01*
X188243333Y-194961904D01*
X188350476Y-194866666D01*
X188552857Y-194771428D01*
X188838571Y-194771428D01*
X189017142Y-194866666D01*
X189100476Y-194961904D01*
X189171904Y-195152380D01*
X189100476Y-195723809D01*
X188981428Y-195914285D01*
X188874285Y-196009523D01*
X188671904Y-196104761D01*
X188386190Y-196104761D01*
X189910000Y-196104761D02*
X190076666Y-194771428D01*
X190029047Y-195152380D02*
X190148095Y-194961904D01*
X190255238Y-194866666D01*
X190457619Y-194771428D01*
X190648095Y-194771428D01*
X192671904Y-196104761D02*
X192921904Y-194104761D01*
X193410000Y-195533333D01*
X194255238Y-194104761D01*
X194005238Y-196104761D01*
X195243333Y-196104761D02*
X195064761Y-196009523D01*
X194981428Y-195914285D01*
X194910000Y-195723809D01*
X194981428Y-195152380D01*
X195100476Y-194961904D01*
X195207619Y-194866666D01*
X195410000Y-194771428D01*
X195695714Y-194771428D01*
X195874285Y-194866666D01*
X195957619Y-194961904D01*
X196029047Y-195152380D01*
X195957619Y-195723809D01*
X195838571Y-195914285D01*
X195731428Y-196009523D01*
X195529047Y-196104761D01*
X195243333Y-196104761D01*
X197624285Y-196104761D02*
X197874285Y-194104761D01*
X197636190Y-196009523D02*
X197433809Y-196104761D01*
X197052857Y-196104761D01*
X196874285Y-196009523D01*
X196790952Y-195914285D01*
X196719523Y-195723809D01*
X196790952Y-195152380D01*
X196910000Y-194961904D01*
X197017142Y-194866666D01*
X197219523Y-194771428D01*
X197600476Y-194771428D01*
X197779047Y-194866666D01*
X199600476Y-194771428D02*
X199433809Y-196104761D01*
X198743333Y-194771428D02*
X198612380Y-195819047D01*
X198683809Y-196009523D01*
X198862380Y-196104761D01*
X199148095Y-196104761D01*
X199350476Y-196009523D01*
X199457619Y-195914285D01*
X200671904Y-196104761D02*
X200493333Y-196009523D01*
X200421904Y-195819047D01*
X200636190Y-194104761D01*
X202207619Y-196009523D02*
X202005238Y-196104761D01*
X201624285Y-196104761D01*
X201445714Y-196009523D01*
X201374285Y-195819047D01*
X201469523Y-195057142D01*
X201588571Y-194866666D01*
X201790952Y-194771428D01*
X202171904Y-194771428D01*
X202350476Y-194866666D01*
X202421904Y-195057142D01*
X202398095Y-195247619D01*
X201421904Y-195438095D01*
D10*
D11*
X161332142Y-191492857D02*
X160832142Y-191492857D01*
X160832142Y-192278571D02*
X160832142Y-190778571D01*
X161546428Y-190778571D01*
X162117857Y-192278571D02*
X162117857Y-191278571D01*
X162117857Y-190778571D02*
X162046428Y-190850000D01*
X162117857Y-190921428D01*
X162189285Y-190850000D01*
X162117857Y-190778571D01*
X162117857Y-190921428D01*
X163046428Y-192278571D02*
X162903571Y-192207142D01*
X162832142Y-192064285D01*
X162832142Y-190778571D01*
X164189285Y-192207142D02*
X164046428Y-192278571D01*
X163760714Y-192278571D01*
X163617857Y-192207142D01*
X163546428Y-192064285D01*
X163546428Y-191492857D01*
X163617857Y-191350000D01*
X163760714Y-191278571D01*
X164046428Y-191278571D01*
X164189285Y-191350000D01*
X164260714Y-191492857D01*
X164260714Y-191635714D01*
X163546428Y-191778571D01*
X164903571Y-192135714D02*
X164975000Y-192207142D01*
X164903571Y-192278571D01*
X164832142Y-192207142D01*
X164903571Y-192135714D01*
X164903571Y-192278571D01*
X164903571Y-191350000D02*
X164975000Y-191421428D01*
X164903571Y-191492857D01*
X164832142Y-191421428D01*
X164903571Y-191350000D01*
X164903571Y-191492857D01*
X167332142Y-192207142D02*
X167189285Y-192278571D01*
X166903571Y-192278571D01*
X166760714Y-192207142D01*
X166689285Y-192064285D01*
X166689285Y-191492857D01*
X166760714Y-191350000D01*
X166903571Y-191278571D01*
X167189285Y-191278571D01*
X167332142Y-191350000D01*
X167403571Y-191492857D01*
X167403571Y-191635714D01*
X166689285Y-191778571D01*
X167975000Y-192207142D02*
X168117857Y-192278571D01*
X168403571Y-192278571D01*
X168546428Y-192207142D01*
X168617857Y-192064285D01*
X168617857Y-191992857D01*
X168546428Y-191850000D01*
X168403571Y-191778571D01*
X168189285Y-191778571D01*
X168046428Y-191707142D01*
X167975000Y-191564285D01*
X167975000Y-191492857D01*
X168046428Y-191350000D01*
X168189285Y-191278571D01*
X168403571Y-191278571D01*
X168546428Y-191350000D01*
X169260714Y-191278571D02*
X169260714Y-192778571D01*
X169260714Y-191350000D02*
X169403571Y-191278571D01*
X169689285Y-191278571D01*
X169832142Y-191350000D01*
X169903571Y-191421428D01*
X169975000Y-191564285D01*
X169975000Y-191992857D01*
X169903571Y-192135714D01*
X169832142Y-192207142D01*
X169689285Y-192278571D01*
X169403571Y-192278571D01*
X169260714Y-192207142D01*
X170475000Y-190778571D02*
X171403571Y-190778571D01*
X170903571Y-191350000D01*
X171117857Y-191350000D01*
X171260714Y-191421428D01*
X171332142Y-191492857D01*
X171403571Y-191635714D01*
X171403571Y-191992857D01*
X171332142Y-192135714D01*
X171260714Y-192207142D01*
X171117857Y-192278571D01*
X170689285Y-192278571D01*
X170546428Y-192207142D01*
X170475000Y-192135714D01*
X171975000Y-190921428D02*
X172046428Y-190850000D01*
X172189285Y-190778571D01*
X172546428Y-190778571D01*
X172689285Y-190850000D01*
X172760714Y-190921428D01*
X172832142Y-191064285D01*
X172832142Y-191207142D01*
X172760714Y-191421428D01*
X171903571Y-192278571D01*
X172832142Y-192278571D01*
X173117857Y-192421428D02*
X174260714Y-192421428D01*
X174546428Y-192207142D02*
X174689285Y-192278571D01*
X174975000Y-192278571D01*
X175117857Y-192207142D01*
X175189285Y-192064285D01*
X175189285Y-191992857D01*
X175117857Y-191850000D01*
X174975000Y-191778571D01*
X174760714Y-191778571D01*
X174617857Y-191707142D01*
X174546428Y-191564285D01*
X174546428Y-191492857D01*
X174617857Y-191350000D01*
X174760714Y-191278571D01*
X174975000Y-191278571D01*
X175117857Y-191350000D01*
X176403571Y-192207142D02*
X176260714Y-192278571D01*
X175975000Y-192278571D01*
X175832142Y-192207142D01*
X175760714Y-192064285D01*
X175760714Y-191492857D01*
X175832142Y-191350000D01*
X175975000Y-191278571D01*
X176260714Y-191278571D01*
X176403571Y-191350000D01*
X176475000Y-191492857D01*
X176475000Y-191635714D01*
X175760714Y-191778571D01*
X177117857Y-191278571D02*
X177117857Y-192278571D01*
X177117857Y-191421428D02*
X177189285Y-191350000D01*
X177332142Y-191278571D01*
X177546428Y-191278571D01*
X177689285Y-191350000D01*
X177760714Y-191492857D01*
X177760714Y-192278571D01*
X178403571Y-192207142D02*
X178546428Y-192278571D01*
X178832142Y-192278571D01*
X178975000Y-192207142D01*
X179046428Y-192064285D01*
X179046428Y-191992857D01*
X178975000Y-191850000D01*
X178832142Y-191778571D01*
X178617857Y-191778571D01*
X178475000Y-191707142D01*
X178403571Y-191564285D01*
X178403571Y-191492857D01*
X178475000Y-191350000D01*
X178617857Y-191278571D01*
X178832142Y-191278571D01*
X178975000Y-191350000D01*
X179903571Y-192278571D02*
X179760714Y-192207142D01*
X179689285Y-192135714D01*
X179617857Y-191992857D01*
X179617857Y-191564285D01*
X179689285Y-191421428D01*
X179760714Y-191350000D01*
X179903571Y-191278571D01*
X180117857Y-191278571D01*
X180260714Y-191350000D01*
X180332142Y-191421428D01*
X180403571Y-191564285D01*
X180403571Y-191992857D01*
X180332142Y-192135714D01*
X180260714Y-192207142D01*
X180117857Y-192278571D01*
X179903571Y-192278571D01*
X181046428Y-192278571D02*
X181046428Y-191278571D01*
X181046428Y-191564285D02*
X181117857Y-191421428D01*
X181189285Y-191350000D01*
X181332142Y-191278571D01*
X181475000Y-191278571D01*
X181975000Y-192135714D02*
X182046428Y-192207142D01*
X181975000Y-192278571D01*
X181903571Y-192207142D01*
X181975000Y-192135714D01*
X181975000Y-192278571D01*
X182689285Y-192278571D02*
X182689285Y-190778571D01*
X182832142Y-191707142D02*
X183260714Y-192278571D01*
X183260714Y-191278571D02*
X182689285Y-191850000D01*
X183903571Y-192278571D02*
X183903571Y-191278571D01*
X183903571Y-190778571D02*
X183832142Y-190850000D01*
X183903571Y-190921428D01*
X183975000Y-190850000D01*
X183903571Y-190778571D01*
X183903571Y-190921428D01*
X185260714Y-192207142D02*
X185117857Y-192278571D01*
X184832142Y-192278571D01*
X184689285Y-192207142D01*
X184617857Y-192135714D01*
X184546428Y-191992857D01*
X184546428Y-191564285D01*
X184617857Y-191421428D01*
X184689285Y-191350000D01*
X184832142Y-191278571D01*
X185117857Y-191278571D01*
X185260714Y-191350000D01*
X186546428Y-192278571D02*
X186546428Y-191492857D01*
X186475000Y-191350000D01*
X186332142Y-191278571D01*
X186046428Y-191278571D01*
X185903571Y-191350000D01*
X186546428Y-192207142D02*
X186403571Y-192278571D01*
X186046428Y-192278571D01*
X185903571Y-192207142D01*
X185832142Y-192064285D01*
X185832142Y-191921428D01*
X185903571Y-191778571D01*
X186046428Y-191707142D01*
X186403571Y-191707142D01*
X186546428Y-191635714D01*
X187903571Y-192278571D02*
X187903571Y-190778571D01*
X187903571Y-192207142D02*
X187760714Y-192278571D01*
X187475000Y-192278571D01*
X187332142Y-192207142D01*
X187260714Y-192135714D01*
X187189285Y-191992857D01*
X187189285Y-191564285D01*
X187260714Y-191421428D01*
X187332142Y-191350000D01*
X187475000Y-191278571D01*
X187760714Y-191278571D01*
X187903571Y-191350000D01*
X188260714Y-192421428D02*
X189403571Y-192421428D01*
X189760714Y-191278571D02*
X189760714Y-192778571D01*
X189760714Y-191350000D02*
X189903571Y-191278571D01*
X190189285Y-191278571D01*
X190332142Y-191350000D01*
X190403571Y-191421428D01*
X190475000Y-191564285D01*
X190475000Y-191992857D01*
X190403571Y-192135714D01*
X190332142Y-192207142D01*
X190189285Y-192278571D01*
X189903571Y-192278571D01*
X189760714Y-192207142D01*
X191760714Y-192207142D02*
X191617857Y-192278571D01*
X191332142Y-192278571D01*
X191189285Y-192207142D01*
X191117857Y-192135714D01*
X191046428Y-191992857D01*
X191046428Y-191564285D01*
X191117857Y-191421428D01*
X191189285Y-191350000D01*
X191332142Y-191278571D01*
X191617857Y-191278571D01*
X191760714Y-191350000D01*
X192403571Y-192278571D02*
X192403571Y-190778571D01*
X192403571Y-191350000D02*
X192546428Y-191278571D01*
X192832142Y-191278571D01*
X192975000Y-191350000D01*
X193046428Y-191421428D01*
X193117857Y-191564285D01*
X193117857Y-191992857D01*
X193046428Y-192135714D01*
X192975000Y-192207142D01*
X192832142Y-192278571D01*
X192546428Y-192278571D01*
X192403571Y-192207142D01*
D10*
D11*
X159400000Y-187400000D02*
X267400000Y-187400000D01*
D10*
D11*
X160760714Y-189507142D02*
X160975000Y-189578571D01*
X161332142Y-189578571D01*
X161475000Y-189507142D01*
X161546428Y-189435714D01*
X161617857Y-189292857D01*
X161617857Y-189150000D01*
X161546428Y-189007142D01*
X161475000Y-188935714D01*
X161332142Y-188864285D01*
X161046428Y-188792857D01*
X160903571Y-188721428D01*
X160832142Y-188650000D01*
X160760714Y-188507142D01*
X160760714Y-188364285D01*
X160832142Y-188221428D01*
X160903571Y-188150000D01*
X161046428Y-188078571D01*
X161403571Y-188078571D01*
X161617857Y-188150000D01*
X162260714Y-189578571D02*
X162260714Y-188078571D01*
X162903571Y-189578571D02*
X162903571Y-188792857D01*
X162832142Y-188650000D01*
X162689285Y-188578571D01*
X162475000Y-188578571D01*
X162332142Y-188650000D01*
X162260714Y-188721428D01*
X164189285Y-189507142D02*
X164046428Y-189578571D01*
X163760714Y-189578571D01*
X163617857Y-189507142D01*
X163546428Y-189364285D01*
X163546428Y-188792857D01*
X163617857Y-188650000D01*
X163760714Y-188578571D01*
X164046428Y-188578571D01*
X164189285Y-188650000D01*
X164260714Y-188792857D01*
X164260714Y-188935714D01*
X163546428Y-189078571D01*
X165475000Y-189507142D02*
X165332142Y-189578571D01*
X165046428Y-189578571D01*
X164903571Y-189507142D01*
X164832142Y-189364285D01*
X164832142Y-188792857D01*
X164903571Y-188650000D01*
X165046428Y-188578571D01*
X165332142Y-188578571D01*
X165475000Y-188650000D01*
X165546428Y-188792857D01*
X165546428Y-188935714D01*
X164832142Y-189078571D01*
X165975000Y-188578571D02*
X166546428Y-188578571D01*
X166189285Y-188078571D02*
X166189285Y-189364285D01*
X166260714Y-189507142D01*
X166403571Y-189578571D01*
X166546428Y-189578571D01*
X167046428Y-189435714D02*
X167117857Y-189507142D01*
X167046428Y-189578571D01*
X166975000Y-189507142D01*
X167046428Y-189435714D01*
X167046428Y-189578571D01*
X167046428Y-188650000D02*
X167117857Y-188721428D01*
X167046428Y-188792857D01*
X166975000Y-188721428D01*
X167046428Y-188650000D01*
X167046428Y-188792857D01*
D10*
D12*
X161809285Y-186435714D02*
X161737857Y-186507142D01*
X161523571Y-186578571D01*
X161380714Y-186578571D01*
X161166428Y-186507142D01*
X161023571Y-186364285D01*
X160952142Y-186221428D01*
X160880714Y-185935714D01*
X160880714Y-185721428D01*
X160952142Y-185435714D01*
X161023571Y-185292857D01*
X161166428Y-185150000D01*
X161380714Y-185078571D01*
X161523571Y-185078571D01*
X161737857Y-185150000D01*
X161809285Y-185221428D01*
X162452142Y-186578571D02*
X162452142Y-185578571D01*
X162452142Y-185864285D02*
X162523571Y-185721428D01*
X162595000Y-185650000D01*
X162737857Y-185578571D01*
X162880714Y-185578571D01*
X163952142Y-186507142D02*
X163809285Y-186578571D01*
X163523571Y-186578571D01*
X163380714Y-186507142D01*
X163309285Y-186364285D01*
X163309285Y-185792857D01*
X163380714Y-185650000D01*
X163523571Y-185578571D01*
X163809285Y-185578571D01*
X163952142Y-185650000D01*
X164023571Y-185792857D01*
X164023571Y-185935714D01*
X163309285Y-186078571D01*
X165309285Y-186578571D02*
X165309285Y-185792857D01*
X165237857Y-185650000D01*
X165095000Y-185578571D01*
X164809285Y-185578571D01*
X164666428Y-185650000D01*
X165309285Y-186507142D02*
X165166428Y-186578571D01*
X164809285Y-186578571D01*
X164666428Y-186507142D01*
X164595000Y-186364285D01*
X164595000Y-186221428D01*
X164666428Y-186078571D01*
X164809285Y-186007142D01*
X165166428Y-186007142D01*
X165309285Y-185935714D01*
X165809285Y-185578571D02*
X166380714Y-185578571D01*
X166023571Y-185078571D02*
X166023571Y-186364285D01*
X166095000Y-186507142D01*
X166237857Y-186578571D01*
X166380714Y-186578571D01*
X167452142Y-186507142D02*
X167309285Y-186578571D01*
X167023571Y-186578571D01*
X166880714Y-186507142D01*
X166809285Y-186364285D01*
X166809285Y-185792857D01*
X166880714Y-185650000D01*
X167023571Y-185578571D01*
X167309285Y-185578571D01*
X167452142Y-185650000D01*
X167523571Y-185792857D01*
X167523571Y-185935714D01*
X166809285Y-186078571D01*
X168809285Y-186578571D02*
X168809285Y-185078571D01*
X168809285Y-186507142D02*
X168666428Y-186578571D01*
X168380714Y-186578571D01*
X168237857Y-186507142D01*
X168166428Y-186435714D01*
X168095000Y-186292857D01*
X168095000Y-185864285D01*
X168166428Y-185721428D01*
X168237857Y-185650000D01*
X168380714Y-185578571D01*
X168666428Y-185578571D01*
X168809285Y-185650000D01*
X170666428Y-186578571D02*
X170666428Y-185078571D01*
X170666428Y-185650000D02*
X170809285Y-185578571D01*
X171095000Y-185578571D01*
X171237857Y-185650000D01*
X171309285Y-185721428D01*
X171380714Y-185864285D01*
X171380714Y-186292857D01*
X171309285Y-186435714D01*
X171237857Y-186507142D01*
X171095000Y-186578571D01*
X170809285Y-186578571D01*
X170666428Y-186507142D01*
X171880714Y-185578571D02*
X172237857Y-186578571D01*
X172595000Y-185578571D02*
X172237857Y-186578571D01*
X172095000Y-186935714D01*
X172023571Y-187007142D01*
X171880714Y-187078571D01*
X175166428Y-186435714D02*
X175095000Y-186507142D01*
X174880714Y-186578571D01*
X174737857Y-186578571D01*
X174523571Y-186507142D01*
X174380714Y-186364285D01*
X174309285Y-186221428D01*
X174237857Y-185935714D01*
X174237857Y-185721428D01*
X174309285Y-185435714D01*
X174380714Y-185292857D01*
X174523571Y-185150000D01*
X174737857Y-185078571D01*
X174880714Y-185078571D01*
X175095000Y-185150000D01*
X175166428Y-185221428D01*
X175809285Y-186578571D02*
X175809285Y-185078571D01*
X176452142Y-186578571D02*
X176452142Y-185792857D01*
X176380714Y-185650000D01*
X176237857Y-185578571D01*
X176023571Y-185578571D01*
X175880714Y-185650000D01*
X175809285Y-185721428D01*
X177380714Y-186578571D02*
X177237857Y-186507142D01*
X177166428Y-186435714D01*
X177095000Y-186292857D01*
X177095000Y-185864285D01*
X177166428Y-185721428D01*
X177237857Y-185650000D01*
X177380714Y-185578571D01*
X177595000Y-185578571D01*
X177737857Y-185650000D01*
X177809285Y-185721428D01*
X177880714Y-185864285D01*
X177880714Y-186292857D01*
X177809285Y-186435714D01*
X177737857Y-186507142D01*
X177595000Y-186578571D01*
X177380714Y-186578571D01*
X178737857Y-186578571D02*
X178595000Y-186507142D01*
X178523571Y-186435714D01*
X178452142Y-186292857D01*
X178452142Y-185864285D01*
X178523571Y-185721428D01*
X178595000Y-185650000D01*
X178737857Y-185578571D01*
X178952142Y-185578571D01*
X179095000Y-185650000D01*
X179166428Y-185721428D01*
X179237857Y-185864285D01*
X179237857Y-186292857D01*
X179166428Y-186435714D01*
X179095000Y-186507142D01*
X178952142Y-186578571D01*
X178737857Y-186578571D01*
X179880714Y-185578571D02*
X179880714Y-186578571D01*
X179880714Y-185721428D02*
X179952142Y-185650000D01*
X180095000Y-185578571D01*
X180309285Y-185578571D01*
X180452142Y-185650000D01*
X180523571Y-185792857D01*
X180523571Y-186578571D01*
X181880714Y-185578571D02*
X181880714Y-186792857D01*
X181809285Y-186935714D01*
X181737857Y-187007142D01*
X181595000Y-187078571D01*
X181380714Y-187078571D01*
X181237857Y-187007142D01*
X181880714Y-186507142D02*
X181737857Y-186578571D01*
X181452142Y-186578571D01*
X181309285Y-186507142D01*
X181237857Y-186435714D01*
X181166428Y-186292857D01*
X181166428Y-185864285D01*
X181237857Y-185721428D01*
X181309285Y-185650000D01*
X181452142Y-185578571D01*
X181737857Y-185578571D01*
X181880714Y-185650000D01*
X184166428Y-185078571D02*
X184166428Y-186150000D01*
X184095000Y-186364285D01*
X183952142Y-186507142D01*
X183737857Y-186578571D01*
X183595000Y-186578571D01*
X184880714Y-186578571D02*
X184880714Y-185578571D01*
X184880714Y-185078571D02*
X184809285Y-185150000D01*
X184880714Y-185221428D01*
X184952142Y-185150000D01*
X184880714Y-185078571D01*
X184880714Y-185221428D01*
X185595000Y-185578571D02*
X185595000Y-186578571D01*
X185595000Y-185721428D02*
X185666428Y-185650000D01*
X185809285Y-185578571D01*
X186023571Y-185578571D01*
X186166428Y-185650000D01*
X186237857Y-185792857D01*
X186237857Y-186578571D01*
X188095000Y-186578571D02*
X188095000Y-185078571D01*
X188952142Y-186578571D01*
X188952142Y-185078571D01*
X190309285Y-185578571D02*
X190309285Y-186792857D01*
X190237857Y-186935714D01*
X190166428Y-187007142D01*
X190023571Y-187078571D01*
X189809285Y-187078571D01*
X189666428Y-187007142D01*
X190309285Y-186507142D02*
X190166428Y-186578571D01*
X189880714Y-186578571D01*
X189737857Y-186507142D01*
X189666428Y-186435714D01*
X189595000Y-186292857D01*
X189595000Y-185864285D01*
X189666428Y-185721428D01*
X189737857Y-185650000D01*
X189880714Y-185578571D01*
X190166428Y-185578571D01*
X190309285Y-185650000D01*
X192523571Y-187078571D02*
X192523571Y-184935714D01*
X194737857Y-185578571D02*
X194737857Y-186864285D01*
X194666428Y-187007142D01*
X194523571Y-187078571D01*
X194452142Y-187078571D01*
X194737857Y-185078571D02*
X194666428Y-185150000D01*
X194737857Y-185221428D01*
X194809285Y-185150000D01*
X194737857Y-185078571D01*
X194737857Y-185221428D01*
X195452142Y-186578571D02*
X195452142Y-185578571D01*
X195452142Y-185078571D02*
X195380714Y-185150000D01*
X195452142Y-185221428D01*
X195523571Y-185150000D01*
X195452142Y-185078571D01*
X195452142Y-185221428D01*
X196166428Y-185578571D02*
X196166428Y-186578571D01*
X196166428Y-185721428D02*
X196237857Y-185650000D01*
X196380714Y-185578571D01*
X196595000Y-185578571D01*
X196737857Y-185650000D01*
X196809285Y-185792857D01*
X196809285Y-186578571D01*
X197737857Y-185721428D02*
X197595000Y-185650000D01*
X197523571Y-185578571D01*
X197452142Y-185435714D01*
X197452142Y-185364285D01*
X197523571Y-185221428D01*
X197595000Y-185150000D01*
X197737857Y-185078571D01*
X198023571Y-185078571D01*
X198166428Y-185150000D01*
X198237857Y-185221428D01*
X198309285Y-185364285D01*
X198309285Y-185435714D01*
X198237857Y-185578571D01*
X198166428Y-185650000D01*
X198023571Y-185721428D01*
X197737857Y-185721428D01*
X197595000Y-185792857D01*
X197523571Y-185864285D01*
X197452142Y-186007142D01*
X197452142Y-186292857D01*
X197523571Y-186435714D01*
X197595000Y-186507142D01*
X197737857Y-186578571D01*
X198023571Y-186578571D01*
X198166428Y-186507142D01*
X198237857Y-186435714D01*
X198309285Y-186292857D01*
X198309285Y-186007142D01*
X198237857Y-185864285D01*
X198166428Y-185792857D01*
X198023571Y-185721428D01*
X198809285Y-185078571D02*
X199737857Y-185078571D01*
X199237857Y-185650000D01*
X199452142Y-185650000D01*
X199595000Y-185721428D01*
X199666428Y-185792857D01*
X199737857Y-185935714D01*
X199737857Y-186292857D01*
X199666428Y-186435714D01*
X199595000Y-186507142D01*
X199452142Y-186578571D01*
X199023571Y-186578571D01*
X198880714Y-186507142D01*
X198809285Y-186435714D01*
X200595000Y-185721428D02*
X200452142Y-185650000D01*
X200380714Y-185578571D01*
X200309285Y-185435714D01*
X200309285Y-185364285D01*
X200380714Y-185221428D01*
X200452142Y-185150000D01*
X200595000Y-185078571D01*
X200880714Y-185078571D01*
X201023571Y-185150000D01*
X201095000Y-185221428D01*
X201166428Y-185364285D01*
X201166428Y-185435714D01*
X201095000Y-185578571D01*
X201023571Y-185650000D01*
X200880714Y-185721428D01*
X200595000Y-185721428D01*
X200452142Y-185792857D01*
X200380714Y-185864285D01*
X200309285Y-186007142D01*
X200309285Y-186292857D01*
X200380714Y-186435714D01*
X200452142Y-186507142D01*
X200595000Y-186578571D01*
X200880714Y-186578571D01*
X201023571Y-186507142D01*
X201095000Y-186435714D01*
X201166428Y-186292857D01*
X201166428Y-186007142D01*
X201095000Y-185864285D01*
X201023571Y-185792857D01*
X200880714Y-185721428D01*
X201666428Y-185078571D02*
X202595000Y-185078571D01*
X202095000Y-185650000D01*
X202309285Y-185650000D01*
X202452142Y-185721428D01*
X202523571Y-185792857D01*
X202595000Y-185935714D01*
X202595000Y-186292857D01*
X202523571Y-186435714D01*
X202452142Y-186507142D01*
X202309285Y-186578571D01*
X201880714Y-186578571D01*
X201737857Y-186507142D01*
X201666428Y-186435714D01*
X204166428Y-185864285D02*
X204095000Y-185792857D01*
X203952142Y-185721428D01*
X203809285Y-185721428D01*
X203666428Y-185792857D01*
X203595000Y-185864285D01*
X203523571Y-186007142D01*
X203523571Y-186150000D01*
X203595000Y-186292857D01*
X203666428Y-186364285D01*
X203809285Y-186435714D01*
X203952142Y-186435714D01*
X204095000Y-186364285D01*
X204166428Y-186292857D01*
X204166428Y-185721428D02*
X204166428Y-186292857D01*
X204237857Y-186364285D01*
X204309285Y-186364285D01*
X204452142Y-186292857D01*
X204523571Y-186150000D01*
X204523571Y-185792857D01*
X204380714Y-185578571D01*
X204166428Y-185435714D01*
X203880714Y-185364285D01*
X203595000Y-185435714D01*
X203380714Y-185578571D01*
X203237857Y-185792857D01*
X203166428Y-186078571D01*
X203237857Y-186364285D01*
X203380714Y-186578571D01*
X203595000Y-186721428D01*
X203880714Y-186792857D01*
X204166428Y-186721428D01*
X204380714Y-186578571D01*
X205809285Y-185578571D02*
X205809285Y-186792857D01*
X205737857Y-186935714D01*
X205666428Y-187007142D01*
X205523571Y-187078571D01*
X205309285Y-187078571D01*
X205166428Y-187007142D01*
X205809285Y-186507142D02*
X205666428Y-186578571D01*
X205380714Y-186578571D01*
X205237857Y-186507142D01*
X205166428Y-186435714D01*
X205095000Y-186292857D01*
X205095000Y-185864285D01*
X205166428Y-185721428D01*
X205237857Y-185650000D01*
X205380714Y-185578571D01*
X205666428Y-185578571D01*
X205809285Y-185650000D01*
X206523571Y-186578571D02*
X206523571Y-185578571D01*
X206523571Y-185721428D02*
X206595000Y-185650000D01*
X206737857Y-185578571D01*
X206952142Y-185578571D01*
X207095000Y-185650000D01*
X207166428Y-185792857D01*
X207166428Y-186578571D01*
X207166428Y-185792857D02*
X207237857Y-185650000D01*
X207380714Y-185578571D01*
X207595000Y-185578571D01*
X207737857Y-185650000D01*
X207809285Y-185792857D01*
X207809285Y-186578571D01*
X209166428Y-186578571D02*
X209166428Y-185792857D01*
X209095000Y-185650000D01*
X208952142Y-185578571D01*
X208666428Y-185578571D01*
X208523571Y-185650000D01*
X209166428Y-186507142D02*
X209023571Y-186578571D01*
X208666428Y-186578571D01*
X208523571Y-186507142D01*
X208452142Y-186364285D01*
X208452142Y-186221428D01*
X208523571Y-186078571D01*
X208666428Y-186007142D01*
X209023571Y-186007142D01*
X209166428Y-185935714D01*
X209880714Y-186578571D02*
X209880714Y-185578571D01*
X209880714Y-185078571D02*
X209809285Y-185150000D01*
X209880714Y-185221428D01*
X209952142Y-185150000D01*
X209880714Y-185078571D01*
X209880714Y-185221428D01*
X210809285Y-186578571D02*
X210666428Y-186507142D01*
X210595000Y-186364285D01*
X210595000Y-185078571D01*
X211380714Y-186435714D02*
X211452142Y-186507142D01*
X211380714Y-186578571D01*
X211309285Y-186507142D01*
X211380714Y-186435714D01*
X211380714Y-186578571D01*
X212737857Y-186507142D02*
X212595000Y-186578571D01*
X212309285Y-186578571D01*
X212166428Y-186507142D01*
X212095000Y-186435714D01*
X212023571Y-186292857D01*
X212023571Y-185864285D01*
X212095000Y-185721428D01*
X212166428Y-185650000D01*
X212309285Y-185578571D01*
X212595000Y-185578571D01*
X212737857Y-185650000D01*
X213595000Y-186578571D02*
X213452142Y-186507142D01*
X213380714Y-186435714D01*
X213309285Y-186292857D01*
X213309285Y-185864285D01*
X213380714Y-185721428D01*
X213452142Y-185650000D01*
X213595000Y-185578571D01*
X213809285Y-185578571D01*
X213952142Y-185650000D01*
X214023571Y-185721428D01*
X214095000Y-185864285D01*
X214095000Y-186292857D01*
X214023571Y-186435714D01*
X213952142Y-186507142D01*
X213809285Y-186578571D01*
X213595000Y-186578571D01*
X214737857Y-186578571D02*
X214737857Y-185578571D01*
X214737857Y-185721428D02*
X214809285Y-185650000D01*
X214952142Y-185578571D01*
X215166428Y-185578571D01*
X215309285Y-185650000D01*
X215380714Y-185792857D01*
X215380714Y-186578571D01*
X215380714Y-185792857D02*
X215452142Y-185650000D01*
X215595000Y-185578571D01*
X215809285Y-185578571D01*
X215952142Y-185650000D01*
X216023571Y-185792857D01*
X216023571Y-186578571D01*
D10*
D11*
X179400000Y-197400000D02*
X179400000Y-200400000D01*
D10*
D11*
X243400000Y-197400000D02*
X243400000Y-203900000D01*
X88209380Y-78979666D02*
X87209380Y-78979666D01*
X87209380Y-79360619D01*
X87257000Y-79455857D01*
X87304619Y-79503476D01*
X87399857Y-79551095D01*
X87542714Y-79551095D01*
X87637952Y-79503476D01*
X87685571Y-79455857D01*
X87733190Y-79360619D01*
X87733190Y-78979666D01*
X87542714Y-80408238D02*
X88209380Y-80408238D01*
X87542714Y-79979666D02*
X88066523Y-79979666D01*
X88161761Y-80027285D01*
X88209380Y-80122523D01*
X88209380Y-80265380D01*
X88161761Y-80360619D01*
X88114142Y-80408238D01*
X88209380Y-80884428D02*
X87209380Y-80884428D01*
X87590333Y-80884428D02*
X87542714Y-80979666D01*
X87542714Y-81170142D01*
X87590333Y-81265380D01*
X87637952Y-81312999D01*
X87733190Y-81360619D01*
X88018904Y-81360619D01*
X88114142Y-81312999D01*
X88161761Y-81265380D01*
X88209380Y-81170142D01*
X88209380Y-80979666D01*
X88161761Y-80884428D01*
X88209380Y-81932047D02*
X88161761Y-81836809D01*
X88066523Y-81789190D01*
X87209380Y-81789190D01*
X88209380Y-82312999D02*
X87542714Y-82312999D01*
X87209380Y-82312999D02*
X87257000Y-82265380D01*
X87304619Y-82312999D01*
X87257000Y-82360619D01*
X87209380Y-82312999D01*
X87304619Y-82312999D01*
X88161761Y-82741571D02*
X88209380Y-82836809D01*
X88209380Y-83027285D01*
X88161761Y-83122523D01*
X88066523Y-83170142D01*
X88018904Y-83170142D01*
X87923666Y-83122523D01*
X87876047Y-83027285D01*
X87876047Y-82884428D01*
X87828428Y-82789190D01*
X87733190Y-82741571D01*
X87685571Y-82741571D01*
X87590333Y-82789190D01*
X87542714Y-82884428D01*
X87542714Y-83027285D01*
X87590333Y-83122523D01*
X88209380Y-83598714D02*
X87209380Y-83598714D01*
X88209380Y-84027285D02*
X87685571Y-84027285D01*
X87590333Y-83979666D01*
X87542714Y-83884428D01*
X87542714Y-83741571D01*
X87590333Y-83646333D01*
X87637952Y-83598714D01*
X88161761Y-84884428D02*
X88209380Y-84789190D01*
X88209380Y-84598714D01*
X88161761Y-84503476D01*
X88066523Y-84455857D01*
X87685571Y-84455857D01*
X87590333Y-84503476D01*
X87542714Y-84598714D01*
X87542714Y-84789190D01*
X87590333Y-84884428D01*
X87685571Y-84932047D01*
X87780809Y-84932047D01*
X87876047Y-84455857D01*
X88209380Y-85789190D02*
X87209380Y-85789190D01*
X88161761Y-85789190D02*
X88209380Y-85693952D01*
X88209380Y-85503476D01*
X88161761Y-85408238D01*
X88114142Y-85360619D01*
X88018904Y-85312999D01*
X87733190Y-85312999D01*
X87637952Y-85360619D01*
X87590333Y-85408238D01*
X87542714Y-85503476D01*
X87542714Y-85693952D01*
X87590333Y-85789190D01*
X88209380Y-87170142D02*
X88161761Y-87074904D01*
X88114142Y-87027285D01*
X88018904Y-86979666D01*
X87733190Y-86979666D01*
X87637952Y-87027285D01*
X87590333Y-87074904D01*
X87542714Y-87170142D01*
X87542714Y-87312999D01*
X87590333Y-87408238D01*
X87637952Y-87455857D01*
X87733190Y-87503476D01*
X88018904Y-87503476D01*
X88114142Y-87455857D01*
X88161761Y-87408238D01*
X88209380Y-87312999D01*
X88209380Y-87170142D01*
X87542714Y-87932047D02*
X88209380Y-87932047D01*
X87637952Y-87932047D02*
X87590333Y-87979666D01*
X87542714Y-88074904D01*
X87542714Y-88217761D01*
X87590333Y-88312999D01*
X87685571Y-88360619D01*
X88209380Y-88360619D01*
X87304619Y-89551095D02*
X87257000Y-89598714D01*
X87209380Y-89693952D01*
X87209380Y-89932047D01*
X87257000Y-90027285D01*
X87304619Y-90074904D01*
X87399857Y-90122523D01*
X87495095Y-90122523D01*
X87637952Y-90074904D01*
X88209380Y-89503476D01*
X88209380Y-90122523D01*
X87209380Y-90455857D02*
X87209380Y-91074904D01*
X87590333Y-90741571D01*
X87590333Y-90884428D01*
X87637952Y-90979666D01*
X87685571Y-91027285D01*
X87780809Y-91074904D01*
X88018904Y-91074904D01*
X88114142Y-91027285D01*
X88161761Y-90979666D01*
X88209380Y-90884428D01*
X88209380Y-90598714D01*
X88161761Y-90503476D01*
X88114142Y-90455857D01*
X88209380Y-92265380D02*
X87209380Y-92265380D01*
X88209380Y-92836809D01*
X87209380Y-92836809D01*
X88209380Y-93455857D02*
X88161761Y-93360619D01*
X88114142Y-93312999D01*
X88018904Y-93265380D01*
X87733190Y-93265380D01*
X87637952Y-93312999D01*
X87590333Y-93360619D01*
X87542714Y-93455857D01*
X87542714Y-93598714D01*
X87590333Y-93693952D01*
X87637952Y-93741571D01*
X87733190Y-93789190D01*
X88018904Y-93789190D01*
X88114142Y-93741571D01*
X88161761Y-93693952D01*
X88209380Y-93598714D01*
X88209380Y-93455857D01*
X87542714Y-94122523D02*
X88209380Y-94360619D01*
X87542714Y-94598714D01*
X88161761Y-95360619D02*
X88209380Y-95265380D01*
X88209380Y-95074904D01*
X88161761Y-94979666D01*
X88066523Y-94932047D01*
X87685571Y-94932047D01*
X87590333Y-94979666D01*
X87542714Y-95074904D01*
X87542714Y-95265380D01*
X87590333Y-95360619D01*
X87685571Y-95408238D01*
X87780809Y-95408238D01*
X87876047Y-94932047D01*
X88209380Y-95836809D02*
X87542714Y-95836809D01*
X87637952Y-95836809D02*
X87590333Y-95884428D01*
X87542714Y-95979666D01*
X87542714Y-96122523D01*
X87590333Y-96217761D01*
X87685571Y-96265380D01*
X88209380Y-96265380D01*
X87685571Y-96265380D02*
X87590333Y-96312999D01*
X87542714Y-96408238D01*
X87542714Y-96551095D01*
X87590333Y-96646333D01*
X87685571Y-96693952D01*
X88209380Y-96693952D01*
X88209380Y-97170142D02*
X87209380Y-97170142D01*
X87590333Y-97170142D02*
X87542714Y-97265380D01*
X87542714Y-97455857D01*
X87590333Y-97551095D01*
X87637952Y-97598714D01*
X87733190Y-97646333D01*
X88018904Y-97646333D01*
X88114142Y-97598714D01*
X88161761Y-97551095D01*
X88209380Y-97455857D01*
X88209380Y-97265380D01*
X88161761Y-97170142D01*
X88161761Y-98455857D02*
X88209380Y-98360619D01*
X88209380Y-98170142D01*
X88161761Y-98074904D01*
X88066523Y-98027285D01*
X87685571Y-98027285D01*
X87590333Y-98074904D01*
X87542714Y-98170142D01*
X87542714Y-98360619D01*
X87590333Y-98455857D01*
X87685571Y-98503476D01*
X87780809Y-98503476D01*
X87876047Y-98027285D01*
X88209380Y-98932047D02*
X87542714Y-98932047D01*
X87733190Y-98932047D02*
X87637952Y-98979666D01*
X87590333Y-99027285D01*
X87542714Y-99122523D01*
X87542714Y-99217761D01*
X87304619Y-100265380D02*
X87257000Y-100312999D01*
X87209380Y-100408238D01*
X87209380Y-100646333D01*
X87257000Y-100741571D01*
X87304619Y-100789190D01*
X87399857Y-100836809D01*
X87495095Y-100836809D01*
X87637952Y-100789190D01*
X88209380Y-100217761D01*
X88209380Y-100836809D01*
X87209380Y-101455857D02*
X87209380Y-101551095D01*
X87257000Y-101646333D01*
X87304619Y-101693952D01*
X87399857Y-101741571D01*
X87590333Y-101789190D01*
X87828428Y-101789190D01*
X88018904Y-101741571D01*
X88114142Y-101693952D01*
X88161761Y-101646333D01*
X88209380Y-101551095D01*
X88209380Y-101455857D01*
X88161761Y-101360619D01*
X88114142Y-101312999D01*
X88018904Y-101265380D01*
X87828428Y-101217761D01*
X87590333Y-101217761D01*
X87399857Y-101265380D01*
X87304619Y-101312999D01*
X87257000Y-101360619D01*
X87209380Y-101455857D01*
X87304619Y-102170142D02*
X87257000Y-102217761D01*
X87209380Y-102312999D01*
X87209380Y-102551095D01*
X87257000Y-102646333D01*
X87304619Y-102693952D01*
X87399857Y-102741571D01*
X87495095Y-102741571D01*
X87637952Y-102693952D01*
X88209380Y-102122523D01*
X88209380Y-102741571D01*
X87209380Y-103360619D02*
X87209380Y-103455857D01*
X87257000Y-103551095D01*
X87304619Y-103598714D01*
X87399857Y-103646333D01*
X87590333Y-103693952D01*
X87828428Y-103693952D01*
X88018904Y-103646333D01*
X88114142Y-103598714D01*
X88161761Y-103551095D01*
X88209380Y-103455857D01*
X88209380Y-103360619D01*
X88161761Y-103265380D01*
X88114142Y-103217761D01*
X88018904Y-103170142D01*
X87828428Y-103122523D01*
X87590333Y-103122523D01*
X87399857Y-103170142D01*
X87304619Y-103217761D01*
X87257000Y-103265380D01*
X87209380Y-103360619D01*
X86209142Y-78106666D02*
X86256761Y-78059047D01*
X86304380Y-77916190D01*
X86304380Y-77820952D01*
X86256761Y-77678095D01*
X86161523Y-77582857D01*
X86066285Y-77535238D01*
X85875809Y-77487619D01*
X85732952Y-77487619D01*
X85542476Y-77535238D01*
X85447238Y-77582857D01*
X85352000Y-77678095D01*
X85304380Y-77820952D01*
X85304380Y-77916190D01*
X85352000Y-78059047D01*
X85399619Y-78106666D01*
X86304380Y-78535238D02*
X85304380Y-78535238D01*
X86304380Y-78963809D02*
X85780571Y-78963809D01*
X85685333Y-78916190D01*
X85637714Y-78820952D01*
X85637714Y-78678095D01*
X85685333Y-78582857D01*
X85732952Y-78535238D01*
X86304380Y-79582857D02*
X86256761Y-79487619D01*
X86209142Y-79440000D01*
X86113904Y-79392380D01*
X85828190Y-79392380D01*
X85732952Y-79440000D01*
X85685333Y-79487619D01*
X85637714Y-79582857D01*
X85637714Y-79725714D01*
X85685333Y-79820952D01*
X85732952Y-79868571D01*
X85828190Y-79916190D01*
X86113904Y-79916190D01*
X86209142Y-79868571D01*
X86256761Y-79820952D01*
X86304380Y-79725714D01*
X86304380Y-79582857D01*
X86304380Y-80487619D02*
X86256761Y-80392380D01*
X86209142Y-80344761D01*
X86113904Y-80297142D01*
X85828190Y-80297142D01*
X85732952Y-80344761D01*
X85685333Y-80392380D01*
X85637714Y-80487619D01*
X85637714Y-80630476D01*
X85685333Y-80725714D01*
X85732952Y-80773333D01*
X85828190Y-80820952D01*
X86113904Y-80820952D01*
X86209142Y-80773333D01*
X86256761Y-80725714D01*
X86304380Y-80630476D01*
X86304380Y-80487619D01*
X85637714Y-81249523D02*
X86304380Y-81249523D01*
X85732952Y-81249523D02*
X85685333Y-81297142D01*
X85637714Y-81392380D01*
X85637714Y-81535238D01*
X85685333Y-81630476D01*
X85780571Y-81678095D01*
X86304380Y-81678095D01*
X85637714Y-82582857D02*
X86447238Y-82582857D01*
X86542476Y-82535238D01*
X86590095Y-82487619D01*
X86637714Y-82392380D01*
X86637714Y-82249523D01*
X86590095Y-82154285D01*
X86256761Y-82582857D02*
X86304380Y-82487619D01*
X86304380Y-82297142D01*
X86256761Y-82201904D01*
X86209142Y-82154285D01*
X86113904Y-82106666D01*
X85828190Y-82106666D01*
X85732952Y-82154285D01*
X85685333Y-82201904D01*
X85637714Y-82297142D01*
X85637714Y-82487619D01*
X85685333Y-82582857D01*
X85304380Y-84106666D02*
X86018666Y-84106666D01*
X86161523Y-84059047D01*
X86256761Y-83963809D01*
X86304380Y-83820952D01*
X86304380Y-83725714D01*
X86304380Y-84582857D02*
X85637714Y-84582857D01*
X85304380Y-84582857D02*
X85352000Y-84535238D01*
X85399619Y-84582857D01*
X85352000Y-84630476D01*
X85304380Y-84582857D01*
X85399619Y-84582857D01*
X85637714Y-85059047D02*
X86304380Y-85059047D01*
X85732952Y-85059047D02*
X85685333Y-85106666D01*
X85637714Y-85201904D01*
X85637714Y-85344761D01*
X85685333Y-85439999D01*
X85780571Y-85487619D01*
X86304380Y-85487619D01*
X86304380Y-86725714D02*
X85304380Y-86725714D01*
X86304380Y-87297142D01*
X85304380Y-87297142D01*
X85637714Y-88201904D02*
X86447238Y-88201904D01*
X86542476Y-88154285D01*
X86590095Y-88106666D01*
X86637714Y-88011428D01*
X86637714Y-87868571D01*
X86590095Y-87773333D01*
X86256761Y-88201904D02*
X86304380Y-88106666D01*
X86304380Y-87916190D01*
X86256761Y-87820952D01*
X86209142Y-87773333D01*
X86113904Y-87725714D01*
X85828190Y-87725714D01*
X85732952Y-87773333D01*
X85685333Y-87820952D01*
X85637714Y-87916190D01*
X85637714Y-88106666D01*
X85685333Y-88201904D01*
X86637714Y-89678095D02*
X85209142Y-89678095D01*
X85637714Y-91154285D02*
X86494857Y-91154285D01*
X86590095Y-91106666D01*
X86637714Y-91011428D01*
X86637714Y-90963809D01*
X85304380Y-91154285D02*
X85352000Y-91106666D01*
X85399619Y-91154285D01*
X85352000Y-91201904D01*
X85304380Y-91154285D01*
X85399619Y-91154285D01*
X86304380Y-91630476D02*
X85637714Y-91630476D01*
X85304380Y-91630476D02*
X85352000Y-91582857D01*
X85399619Y-91630476D01*
X85352000Y-91678095D01*
X85304380Y-91630476D01*
X85399619Y-91630476D01*
X85637714Y-92106666D02*
X86304380Y-92106666D01*
X85732952Y-92106666D02*
X85685333Y-92154285D01*
X85637714Y-92249523D01*
X85637714Y-92392380D01*
X85685333Y-92487619D01*
X85780571Y-92535238D01*
X86304380Y-92535238D01*
X85732952Y-93154285D02*
X85685333Y-93059047D01*
X85637714Y-93011428D01*
X85542476Y-92963809D01*
X85494857Y-92963809D01*
X85399619Y-93011428D01*
X85352000Y-93059047D01*
X85304380Y-93154285D01*
X85304380Y-93344761D01*
X85352000Y-93439999D01*
X85399619Y-93487619D01*
X85494857Y-93535238D01*
X85542476Y-93535238D01*
X85637714Y-93487619D01*
X85685333Y-93439999D01*
X85732952Y-93344761D01*
X85732952Y-93154285D01*
X85780571Y-93059047D01*
X85828190Y-93011428D01*
X85923428Y-92963809D01*
X86113904Y-92963809D01*
X86209142Y-93011428D01*
X86256761Y-93059047D01*
X86304380Y-93154285D01*
X86304380Y-93344761D01*
X86256761Y-93439999D01*
X86209142Y-93487619D01*
X86113904Y-93535238D01*
X85923428Y-93535238D01*
X85828190Y-93487619D01*
X85780571Y-93439999D01*
X85732952Y-93344761D01*
X85304380Y-93868571D02*
X85304380Y-94487619D01*
X85685333Y-94154285D01*
X85685333Y-94297142D01*
X85732952Y-94392380D01*
X85780571Y-94439999D01*
X85875809Y-94487619D01*
X86113904Y-94487619D01*
X86209142Y-94439999D01*
X86256761Y-94392380D01*
X86304380Y-94297142D01*
X86304380Y-94011428D01*
X86256761Y-93916190D01*
X86209142Y-93868571D01*
X85732952Y-95059047D02*
X85685333Y-94963809D01*
X85637714Y-94916190D01*
X85542476Y-94868571D01*
X85494857Y-94868571D01*
X85399619Y-94916190D01*
X85352000Y-94963809D01*
X85304380Y-95059047D01*
X85304380Y-95249523D01*
X85352000Y-95344761D01*
X85399619Y-95392380D01*
X85494857Y-95439999D01*
X85542476Y-95439999D01*
X85637714Y-95392380D01*
X85685333Y-95344761D01*
X85732952Y-95249523D01*
X85732952Y-95059047D01*
X85780571Y-94963809D01*
X85828190Y-94916190D01*
X85923428Y-94868571D01*
X86113904Y-94868571D01*
X86209142Y-94916190D01*
X86256761Y-94963809D01*
X86304380Y-95059047D01*
X86304380Y-95249523D01*
X86256761Y-95344761D01*
X86209142Y-95392380D01*
X86113904Y-95439999D01*
X85923428Y-95439999D01*
X85828190Y-95392380D01*
X85780571Y-95344761D01*
X85732952Y-95249523D01*
X85304380Y-95773333D02*
X85304380Y-96392380D01*
X85685333Y-96059047D01*
X85685333Y-96201904D01*
X85732952Y-96297142D01*
X85780571Y-96344761D01*
X85875809Y-96392380D01*
X86113904Y-96392380D01*
X86209142Y-96344761D01*
X86256761Y-96297142D01*
X86304380Y-96201904D01*
X86304380Y-95916190D01*
X86256761Y-95820952D01*
X86209142Y-95773333D01*
X85828190Y-97439999D02*
X85780571Y-97392380D01*
X85732952Y-97297142D01*
X85732952Y-97201904D01*
X85780571Y-97106666D01*
X85828190Y-97059047D01*
X85923428Y-97011428D01*
X86018666Y-97011428D01*
X86113904Y-97059047D01*
X86161523Y-97106666D01*
X86209142Y-97201904D01*
X86209142Y-97297142D01*
X86161523Y-97392380D01*
X86113904Y-97439999D01*
X85732952Y-97439999D02*
X86113904Y-97439999D01*
X86161523Y-97487619D01*
X86161523Y-97535238D01*
X86113904Y-97630476D01*
X86018666Y-97678095D01*
X85780571Y-97678095D01*
X85637714Y-97582857D01*
X85542476Y-97439999D01*
X85494857Y-97249523D01*
X85542476Y-97059047D01*
X85637714Y-96916190D01*
X85780571Y-96820952D01*
X85971047Y-96773333D01*
X86161523Y-96820952D01*
X86304380Y-96916190D01*
X86399619Y-97059047D01*
X86447238Y-97249523D01*
X86399619Y-97439999D01*
X86304380Y-97582857D01*
X85637714Y-98535238D02*
X86447238Y-98535238D01*
X86542476Y-98487619D01*
X86590095Y-98439999D01*
X86637714Y-98344761D01*
X86637714Y-98201904D01*
X86590095Y-98106666D01*
X86256761Y-98535238D02*
X86304380Y-98439999D01*
X86304380Y-98249523D01*
X86256761Y-98154285D01*
X86209142Y-98106666D01*
X86113904Y-98059047D01*
X85828190Y-98059047D01*
X85732952Y-98106666D01*
X85685333Y-98154285D01*
X85637714Y-98249523D01*
X85637714Y-98439999D01*
X85685333Y-98535238D01*
X86304380Y-99011428D02*
X85637714Y-99011428D01*
X85732952Y-99011428D02*
X85685333Y-99059047D01*
X85637714Y-99154285D01*
X85637714Y-99297142D01*
X85685333Y-99392380D01*
X85780571Y-99439999D01*
X86304380Y-99439999D01*
X85780571Y-99439999D02*
X85685333Y-99487619D01*
X85637714Y-99582857D01*
X85637714Y-99725714D01*
X85685333Y-99820952D01*
X85780571Y-99868571D01*
X86304380Y-99868571D01*
X86304380Y-100773333D02*
X85780571Y-100773333D01*
X85685333Y-100725714D01*
X85637714Y-100630476D01*
X85637714Y-100439999D01*
X85685333Y-100344761D01*
X86256761Y-100773333D02*
X86304380Y-100678095D01*
X86304380Y-100439999D01*
X86256761Y-100344761D01*
X86161523Y-100297142D01*
X86066285Y-100297142D01*
X85971047Y-100344761D01*
X85923428Y-100439999D01*
X85923428Y-100678095D01*
X85875809Y-100773333D01*
X86304380Y-101249523D02*
X85637714Y-101249523D01*
X85304380Y-101249523D02*
X85352000Y-101201904D01*
X85399619Y-101249523D01*
X85352000Y-101297142D01*
X85304380Y-101249523D01*
X85399619Y-101249523D01*
X86304380Y-101868571D02*
X86256761Y-101773333D01*
X86161523Y-101725714D01*
X85304380Y-101725714D01*
X86209142Y-102249523D02*
X86256761Y-102297142D01*
X86304380Y-102249523D01*
X86256761Y-102201904D01*
X86209142Y-102249523D01*
X86304380Y-102249523D01*
X86256761Y-103154285D02*
X86304380Y-103059047D01*
X86304380Y-102868571D01*
X86256761Y-102773333D01*
X86209142Y-102725714D01*
X86113904Y-102678095D01*
X85828190Y-102678095D01*
X85732952Y-102725714D01*
X85685333Y-102773333D01*
X85637714Y-102868571D01*
X85637714Y-103059047D01*
X85685333Y-103154285D01*
X86304380Y-103725714D02*
X86256761Y-103630476D01*
X86209142Y-103582857D01*
X86113904Y-103535238D01*
X85828190Y-103535238D01*
X85732952Y-103582857D01*
X85685333Y-103630476D01*
X85637714Y-103725714D01*
X85637714Y-103868571D01*
X85685333Y-103963809D01*
X85732952Y-104011428D01*
X85828190Y-104059047D01*
X86113904Y-104059047D01*
X86209142Y-104011428D01*
X86256761Y-103963809D01*
X86304380Y-103868571D01*
X86304380Y-103725714D01*
X86304380Y-104487619D02*
X85637714Y-104487619D01*
X85732952Y-104487619D02*
X85685333Y-104535238D01*
X85637714Y-104630476D01*
X85637714Y-104773333D01*
X85685333Y-104868571D01*
X85780571Y-104916190D01*
X86304380Y-104916190D01*
X85780571Y-104916190D02*
X85685333Y-104963809D01*
X85637714Y-105059047D01*
X85637714Y-105201904D01*
X85685333Y-105297142D01*
X85780571Y-105344761D01*
X86304380Y-105344761D01*
X83748571Y-79963714D02*
X83748571Y-80297047D01*
X84272380Y-80439904D02*
X84272380Y-79963714D01*
X83272380Y-79963714D01*
X83272380Y-80439904D01*
X84224761Y-80820857D02*
X84272380Y-80963714D01*
X84272380Y-81201809D01*
X84224761Y-81297047D01*
X84177142Y-81344666D01*
X84081904Y-81392285D01*
X83986666Y-81392285D01*
X83891428Y-81344666D01*
X83843809Y-81297047D01*
X83796190Y-81201809D01*
X83748571Y-81011333D01*
X83700952Y-80916095D01*
X83653333Y-80868476D01*
X83558095Y-80820857D01*
X83462857Y-80820857D01*
X83367619Y-80868476D01*
X83320000Y-80916095D01*
X83272380Y-81011333D01*
X83272380Y-81249428D01*
X83320000Y-81392285D01*
X84272380Y-81820857D02*
X83272380Y-81820857D01*
X83272380Y-82201809D01*
X83320000Y-82297047D01*
X83367619Y-82344666D01*
X83462857Y-82392285D01*
X83605714Y-82392285D01*
X83700952Y-82344666D01*
X83748571Y-82297047D01*
X83796190Y-82201809D01*
X83796190Y-81820857D01*
X83272380Y-82725619D02*
X83272380Y-83344666D01*
X83653333Y-83011333D01*
X83653333Y-83154190D01*
X83700952Y-83249428D01*
X83748571Y-83297047D01*
X83843809Y-83344666D01*
X84081904Y-83344666D01*
X84177142Y-83297047D01*
X84224761Y-83249428D01*
X84272380Y-83154190D01*
X84272380Y-82868476D01*
X84224761Y-82773238D01*
X84177142Y-82725619D01*
X83367619Y-83725619D02*
X83320000Y-83773238D01*
X83272380Y-83868476D01*
X83272380Y-84106571D01*
X83320000Y-84201809D01*
X83367619Y-84249428D01*
X83462857Y-84297047D01*
X83558095Y-84297047D01*
X83700952Y-84249428D01*
X84272380Y-83678000D01*
X84272380Y-84297047D01*
X84224761Y-85439904D02*
X84272380Y-85582761D01*
X84272380Y-85820857D01*
X84224761Y-85916095D01*
X84177142Y-85963714D01*
X84081904Y-86011333D01*
X83986666Y-86011333D01*
X83891428Y-85963714D01*
X83843809Y-85916095D01*
X83796190Y-85820857D01*
X83748571Y-85630380D01*
X83700952Y-85535142D01*
X83653333Y-85487523D01*
X83558095Y-85439904D01*
X83462857Y-85439904D01*
X83367619Y-85487523D01*
X83320000Y-85535142D01*
X83272380Y-85630380D01*
X83272380Y-85868476D01*
X83320000Y-86011333D01*
X84224761Y-86820857D02*
X84272380Y-86725619D01*
X84272380Y-86535142D01*
X84224761Y-86439904D01*
X84129523Y-86392285D01*
X83748571Y-86392285D01*
X83653333Y-86439904D01*
X83605714Y-86535142D01*
X83605714Y-86725619D01*
X83653333Y-86820857D01*
X83748571Y-86868476D01*
X83843809Y-86868476D01*
X83939047Y-86392285D01*
X83605714Y-87297047D02*
X84272380Y-87297047D01*
X83700952Y-87297047D02*
X83653333Y-87344666D01*
X83605714Y-87439904D01*
X83605714Y-87582761D01*
X83653333Y-87678000D01*
X83748571Y-87725619D01*
X84272380Y-87725619D01*
X84224761Y-88154190D02*
X84272380Y-88249428D01*
X84272380Y-88439904D01*
X84224761Y-88535142D01*
X84129523Y-88582761D01*
X84081904Y-88582761D01*
X83986666Y-88535142D01*
X83939047Y-88439904D01*
X83939047Y-88297047D01*
X83891428Y-88201809D01*
X83796190Y-88154190D01*
X83748571Y-88154190D01*
X83653333Y-88201809D01*
X83605714Y-88297047D01*
X83605714Y-88439904D01*
X83653333Y-88535142D01*
X84272380Y-89154190D02*
X84224761Y-89058952D01*
X84177142Y-89011333D01*
X84081904Y-88963714D01*
X83796190Y-88963714D01*
X83700952Y-89011333D01*
X83653333Y-89058952D01*
X83605714Y-89154190D01*
X83605714Y-89297047D01*
X83653333Y-89392285D01*
X83700952Y-89439904D01*
X83796190Y-89487523D01*
X84081904Y-89487523D01*
X84177142Y-89439904D01*
X84224761Y-89392285D01*
X84272380Y-89297047D01*
X84272380Y-89154190D01*
X84272380Y-89916095D02*
X83605714Y-89916095D01*
X83796190Y-89916095D02*
X83700952Y-89963714D01*
X83653333Y-90011333D01*
X83605714Y-90106571D01*
X83605714Y-90201809D01*
X84272380Y-91297047D02*
X83272380Y-91297047D01*
X83986666Y-91630380D01*
X83272380Y-91963714D01*
X84272380Y-91963714D01*
X84272380Y-92582761D02*
X84224761Y-92487523D01*
X84177142Y-92439904D01*
X84081904Y-92392285D01*
X83796190Y-92392285D01*
X83700952Y-92439904D01*
X83653333Y-92487523D01*
X83605714Y-92582761D01*
X83605714Y-92725619D01*
X83653333Y-92820857D01*
X83700952Y-92868476D01*
X83796190Y-92916095D01*
X84081904Y-92916095D01*
X84177142Y-92868476D01*
X84224761Y-92820857D01*
X84272380Y-92725619D01*
X84272380Y-92582761D01*
X84272380Y-93773238D02*
X83272380Y-93773238D01*
X84224761Y-93773238D02*
X84272380Y-93678000D01*
X84272380Y-93487523D01*
X84224761Y-93392285D01*
X84177142Y-93344666D01*
X84081904Y-93297047D01*
X83796190Y-93297047D01*
X83700952Y-93344666D01*
X83653333Y-93392285D01*
X83605714Y-93487523D01*
X83605714Y-93678000D01*
X83653333Y-93773238D01*
X83605714Y-94678000D02*
X84272380Y-94678000D01*
X83605714Y-94249428D02*
X84129523Y-94249428D01*
X84224761Y-94297047D01*
X84272380Y-94392285D01*
X84272380Y-94535142D01*
X84224761Y-94630380D01*
X84177142Y-94678000D01*
X84272380Y-95297047D02*
X84224761Y-95201809D01*
X84129523Y-95154190D01*
X83272380Y-95154190D01*
X84224761Y-96058952D02*
X84272380Y-95963714D01*
X84272380Y-95773238D01*
X84224761Y-95678000D01*
X84129523Y-95630380D01*
X83748571Y-95630380D01*
X83653333Y-95678000D01*
X83605714Y-95773238D01*
X83605714Y-95963714D01*
X83653333Y-96058952D01*
X83748571Y-96106571D01*
X83843809Y-96106571D01*
X83939047Y-95630380D01*
X83605714Y-97201809D02*
X84272380Y-97439904D01*
X83605714Y-97678000D01*
X83272380Y-98249428D02*
X83272380Y-98344666D01*
X83320000Y-98439904D01*
X83367619Y-98487523D01*
X83462857Y-98535142D01*
X83653333Y-98582761D01*
X83891428Y-98582761D01*
X84081904Y-98535142D01*
X84177142Y-98487523D01*
X84224761Y-98439904D01*
X84272380Y-98344666D01*
X84272380Y-98249428D01*
X84224761Y-98154190D01*
X84177142Y-98106571D01*
X84081904Y-98058952D01*
X83891428Y-98011333D01*
X83653333Y-98011333D01*
X83462857Y-98058952D01*
X83367619Y-98106571D01*
X83320000Y-98154190D01*
X83272380Y-98249428D01*
X84177142Y-99011333D02*
X84224761Y-99058952D01*
X84272380Y-99011333D01*
X84224761Y-98963714D01*
X84177142Y-99011333D01*
X84272380Y-99011333D01*
X83272380Y-99678000D02*
X83272380Y-99773238D01*
X83320000Y-99868476D01*
X83367619Y-99916095D01*
X83462857Y-99963714D01*
X83653333Y-100011333D01*
X83891428Y-100011333D01*
X84081904Y-99963714D01*
X84177142Y-99916095D01*
X84224761Y-99868476D01*
X84272380Y-99773238D01*
X84272380Y-99678000D01*
X84224761Y-99582761D01*
X84177142Y-99535142D01*
X84081904Y-99487523D01*
X83891428Y-99439904D01*
X83653333Y-99439904D01*
X83462857Y-99487523D01*
X83367619Y-99535142D01*
X83320000Y-99582761D01*
X83272380Y-99678000D01*
X84177142Y-100439904D02*
X84224761Y-100487523D01*
X84272380Y-100439904D01*
X84224761Y-100392285D01*
X84177142Y-100439904D01*
X84272380Y-100439904D01*
X84272380Y-101439904D02*
X84272380Y-100868476D01*
X84272380Y-101154190D02*
X83272380Y-101154190D01*
X83415238Y-101058952D01*
X83510476Y-100963714D01*
X83558095Y-100868476D01*
M02*
