%TF.GenerationSoftware,KiCad,Pcbnew,(5.1.7)-1*%
%TF.CreationDate,2020-11-25T11:44:14-08:00*%
%TF.ProjectId,esp32_sensor,65737033-325f-4736-956e-736f722e6b69,v0.0.3b*%
%TF.SameCoordinates,Original*%
%TF.FileFunction,OtherDrawing,Comment*%
%FSLAX46Y46*%
G04 Gerber Fmt 4.6, Leading zero omitted, Abs format (unit mm)*
G04 Created by KiCad (PCBNEW (5.1.7)-1) date 2020-11-25 11:44:14*
%MOMM*%
%LPD*%
G01*
G04 APERTURE LIST*
%ADD10C,0.150000*%
%ADD11C,0.100000*%
G04 APERTURE END LIST*
D10*
X133124332Y-60910700D02*
X132648142Y-60910700D01*
X132600523Y-61386891D01*
X132648142Y-61339272D01*
X132743380Y-61291653D01*
X132981475Y-61291653D01*
X133076713Y-61339272D01*
X133124332Y-61386891D01*
X133171951Y-61482129D01*
X133171951Y-61720224D01*
X133124332Y-61815462D01*
X133076713Y-61863081D01*
X132981475Y-61910700D01*
X132743380Y-61910700D01*
X132648142Y-61863081D01*
X132600523Y-61815462D01*
X133600523Y-61815462D02*
X133648142Y-61863081D01*
X133600523Y-61910700D01*
X133552904Y-61863081D01*
X133600523Y-61815462D01*
X133600523Y-61910700D01*
X134600523Y-61910700D02*
X134029094Y-61910700D01*
X134314809Y-61910700D02*
X134314809Y-60910700D01*
X134219570Y-61053558D01*
X134124332Y-61148796D01*
X134029094Y-61196415D01*
X134933856Y-60910700D02*
X135600523Y-60910700D01*
X135171951Y-61910700D01*
X136410047Y-61244034D02*
X136410047Y-61910700D01*
X136171951Y-60863081D02*
X135933856Y-61577367D01*
X136552904Y-61577367D01*
X137695761Y-61910700D02*
X137695761Y-61244034D01*
X137695761Y-61339272D02*
X137743380Y-61291653D01*
X137838618Y-61244034D01*
X137981475Y-61244034D01*
X138076713Y-61291653D01*
X138124332Y-61386891D01*
X138124332Y-61910700D01*
X138124332Y-61386891D02*
X138171951Y-61291653D01*
X138267190Y-61244034D01*
X138410047Y-61244034D01*
X138505285Y-61291653D01*
X138552904Y-61386891D01*
X138552904Y-61910700D01*
X139029094Y-61910700D02*
X139029094Y-61244034D01*
X139029094Y-61339272D02*
X139076713Y-61291653D01*
X139171951Y-61244034D01*
X139314809Y-61244034D01*
X139410047Y-61291653D01*
X139457666Y-61386891D01*
X139457666Y-61910700D01*
X139457666Y-61386891D02*
X139505285Y-61291653D01*
X139600523Y-61244034D01*
X139743380Y-61244034D01*
X139838618Y-61291653D01*
X139886237Y-61386891D01*
X139886237Y-61910700D01*
X133680200Y-62758320D02*
X138854180Y-62758320D01*
X133680200Y-74472800D02*
X133680200Y-62171899D01*
X138854180Y-74472800D02*
X138854180Y-62171899D01*
X138854180Y-62758320D02*
X137727676Y-63344741D01*
X138854180Y-62758320D02*
X137727676Y-62171899D01*
X133680200Y-62758320D02*
X134806704Y-63344741D01*
X133680200Y-62758320D02*
X134806704Y-62171899D01*
X109754628Y-60999946D02*
X109278438Y-61000181D01*
X109231054Y-61476395D01*
X109278649Y-61428753D01*
X109373864Y-61381087D01*
X109611959Y-61380969D01*
X109707221Y-61428541D01*
X109754863Y-61476136D01*
X109802530Y-61571351D01*
X109802647Y-61809446D01*
X109755075Y-61904708D01*
X109707480Y-61952350D01*
X109612265Y-62000017D01*
X109374170Y-62000134D01*
X109278908Y-61952562D01*
X109231266Y-61904967D01*
X110231266Y-61904472D02*
X110278908Y-61952068D01*
X110231313Y-61999711D01*
X110183670Y-61952115D01*
X110231266Y-61904472D01*
X110231313Y-61999711D01*
X111231313Y-61999216D02*
X110659884Y-61999499D01*
X110945598Y-61999357D02*
X110945104Y-60999358D01*
X110849937Y-61142262D01*
X110754746Y-61237547D01*
X110659531Y-61285213D01*
X111564152Y-60999052D02*
X112183199Y-60998746D01*
X111850054Y-61379863D01*
X111992911Y-61379792D01*
X112088173Y-61427364D01*
X112135816Y-61474960D01*
X112183482Y-61570174D01*
X112183599Y-61808269D01*
X112136027Y-61903531D01*
X112088432Y-61951174D01*
X111993217Y-61998840D01*
X111707503Y-61998981D01*
X111612241Y-61951409D01*
X111564599Y-61903813D01*
X112754840Y-61427035D02*
X112659578Y-61379463D01*
X112611935Y-61331867D01*
X112564269Y-61236653D01*
X112564246Y-61189033D01*
X112611818Y-61093772D01*
X112659413Y-61046129D01*
X112754628Y-60998463D01*
X112945104Y-60998369D01*
X113040365Y-61045941D01*
X113088008Y-61093536D01*
X113135674Y-61188751D01*
X113135698Y-61236370D01*
X113088126Y-61331632D01*
X113040530Y-61379274D01*
X112945316Y-61426940D01*
X112754840Y-61427035D01*
X112659625Y-61474701D01*
X112612029Y-61522343D01*
X112564458Y-61617605D01*
X112564552Y-61808081D01*
X112612218Y-61903296D01*
X112659860Y-61950891D01*
X112755122Y-61998463D01*
X112945598Y-61998369D01*
X113040813Y-61950703D01*
X113088408Y-61903060D01*
X113135980Y-61807799D01*
X113135886Y-61617322D01*
X113088220Y-61522108D01*
X113040577Y-61474512D01*
X112945316Y-61426940D01*
X114326550Y-61997686D02*
X114326221Y-61331020D01*
X114326268Y-61426258D02*
X114373863Y-61378615D01*
X114469078Y-61330949D01*
X114611935Y-61330878D01*
X114707197Y-61378450D01*
X114754863Y-61473665D01*
X114755122Y-61997474D01*
X114754863Y-61473665D02*
X114802435Y-61378403D01*
X114897649Y-61330737D01*
X115040506Y-61330667D01*
X115135768Y-61378239D01*
X115183434Y-61473453D01*
X115183693Y-61997263D01*
X115659884Y-61997027D02*
X115659554Y-61330361D01*
X115659601Y-61425599D02*
X115707197Y-61377956D01*
X115802411Y-61330290D01*
X115945268Y-61330219D01*
X116040530Y-61377791D01*
X116088196Y-61473006D01*
X116088455Y-61996815D01*
X116088196Y-61473006D02*
X116135768Y-61377744D01*
X116230983Y-61330078D01*
X116373840Y-61330007D01*
X116469101Y-61377579D01*
X116516767Y-61472794D01*
X116517026Y-61996603D01*
X110329189Y-62847282D02*
X115467609Y-62844742D01*
X110335060Y-74724260D02*
X110328899Y-62260862D01*
X115473480Y-74721720D02*
X115467319Y-62258322D01*
X115467609Y-62844742D02*
X114341395Y-63431720D01*
X115467609Y-62844742D02*
X114340816Y-62258878D01*
X110329189Y-62847282D02*
X111455982Y-63433146D01*
X110329189Y-62847282D02*
X111455403Y-62260304D01*
X142230380Y-102853666D02*
X142230380Y-103044142D01*
X142278000Y-103139380D01*
X142325619Y-103187000D01*
X142468476Y-103282238D01*
X142658952Y-103329857D01*
X143039904Y-103329857D01*
X143135142Y-103282238D01*
X143182761Y-103234619D01*
X143230380Y-103139380D01*
X143230380Y-102948904D01*
X143182761Y-102853666D01*
X143135142Y-102806047D01*
X143039904Y-102758428D01*
X142801809Y-102758428D01*
X142706571Y-102806047D01*
X142658952Y-102853666D01*
X142611333Y-102948904D01*
X142611333Y-103139380D01*
X142658952Y-103234619D01*
X142706571Y-103282238D01*
X142801809Y-103329857D01*
X143230380Y-101806047D02*
X143230380Y-102377476D01*
X143230380Y-102091761D02*
X142230380Y-102091761D01*
X142373238Y-102187000D01*
X142468476Y-102282238D01*
X142516095Y-102377476D01*
X143135142Y-101377476D02*
X143182761Y-101329857D01*
X143230380Y-101377476D01*
X143182761Y-101425095D01*
X143135142Y-101377476D01*
X143230380Y-101377476D01*
X142325619Y-100948904D02*
X142278000Y-100901285D01*
X142230380Y-100806047D01*
X142230380Y-100567952D01*
X142278000Y-100472714D01*
X142325619Y-100425095D01*
X142420857Y-100377476D01*
X142516095Y-100377476D01*
X142658952Y-100425095D01*
X143230380Y-100996523D01*
X143230380Y-100377476D01*
X143230380Y-99425095D02*
X143230380Y-99996523D01*
X143230380Y-99710809D02*
X142230380Y-99710809D01*
X142373238Y-99806047D01*
X142468476Y-99901285D01*
X142516095Y-99996523D01*
X142563714Y-98567952D02*
X143230380Y-98567952D01*
X142182761Y-98806047D02*
X142897047Y-99044142D01*
X142897047Y-98425095D01*
X143230380Y-97282238D02*
X142563714Y-97282238D01*
X142658952Y-97282238D02*
X142611333Y-97234619D01*
X142563714Y-97139380D01*
X142563714Y-96996523D01*
X142611333Y-96901285D01*
X142706571Y-96853666D01*
X143230380Y-96853666D01*
X142706571Y-96853666D02*
X142611333Y-96806047D01*
X142563714Y-96710809D01*
X142563714Y-96567952D01*
X142611333Y-96472714D01*
X142706571Y-96425095D01*
X143230380Y-96425095D01*
X143230380Y-95948904D02*
X142563714Y-95948904D01*
X142658952Y-95948904D02*
X142611333Y-95901285D01*
X142563714Y-95806047D01*
X142563714Y-95663190D01*
X142611333Y-95567952D01*
X142706571Y-95520333D01*
X143230380Y-95520333D01*
X142706571Y-95520333D02*
X142611333Y-95472714D01*
X142563714Y-95377476D01*
X142563714Y-95234619D01*
X142611333Y-95139380D01*
X142706571Y-95091761D01*
X143230380Y-95091761D01*
X141478000Y-129794000D02*
X141478000Y-68580000D01*
X82931000Y-129794000D02*
X142064421Y-129794000D01*
X82931000Y-68580000D02*
X142064421Y-68580000D01*
X141478000Y-68580000D02*
X142064421Y-69706504D01*
X141478000Y-68580000D02*
X140891579Y-69706504D01*
X141478000Y-129794000D02*
X142064421Y-128667496D01*
X141478000Y-129794000D02*
X140891579Y-128667496D01*
X108585452Y-130546380D02*
X108109261Y-130546380D01*
X108061642Y-131022571D01*
X108109261Y-130974952D01*
X108204500Y-130927333D01*
X108442595Y-130927333D01*
X108537833Y-130974952D01*
X108585452Y-131022571D01*
X108633071Y-131117809D01*
X108633071Y-131355904D01*
X108585452Y-131451142D01*
X108537833Y-131498761D01*
X108442595Y-131546380D01*
X108204500Y-131546380D01*
X108109261Y-131498761D01*
X108061642Y-131451142D01*
X109204500Y-130974952D02*
X109109261Y-130927333D01*
X109061642Y-130879714D01*
X109014023Y-130784476D01*
X109014023Y-130736857D01*
X109061642Y-130641619D01*
X109109261Y-130594000D01*
X109204500Y-130546380D01*
X109394976Y-130546380D01*
X109490214Y-130594000D01*
X109537833Y-130641619D01*
X109585452Y-130736857D01*
X109585452Y-130784476D01*
X109537833Y-130879714D01*
X109490214Y-130927333D01*
X109394976Y-130974952D01*
X109204500Y-130974952D01*
X109109261Y-131022571D01*
X109061642Y-131070190D01*
X109014023Y-131165428D01*
X109014023Y-131355904D01*
X109061642Y-131451142D01*
X109109261Y-131498761D01*
X109204500Y-131546380D01*
X109394976Y-131546380D01*
X109490214Y-131498761D01*
X109537833Y-131451142D01*
X109585452Y-131355904D01*
X109585452Y-131165428D01*
X109537833Y-131070190D01*
X109490214Y-131022571D01*
X109394976Y-130974952D01*
X110014023Y-131451142D02*
X110061642Y-131498761D01*
X110014023Y-131546380D01*
X109966404Y-131498761D01*
X110014023Y-131451142D01*
X110014023Y-131546380D01*
X110966404Y-130546380D02*
X110490214Y-130546380D01*
X110442595Y-131022571D01*
X110490214Y-130974952D01*
X110585452Y-130927333D01*
X110823547Y-130927333D01*
X110918785Y-130974952D01*
X110966404Y-131022571D01*
X111014023Y-131117809D01*
X111014023Y-131355904D01*
X110966404Y-131451142D01*
X110918785Y-131498761D01*
X110823547Y-131546380D01*
X110585452Y-131546380D01*
X110490214Y-131498761D01*
X110442595Y-131451142D01*
X111871166Y-130879714D02*
X111871166Y-131546380D01*
X111633071Y-130498761D02*
X111394976Y-131213047D01*
X112014023Y-131213047D01*
X112299738Y-130546380D02*
X112966404Y-130546380D01*
X112537833Y-131546380D01*
X114109261Y-131546380D02*
X114109261Y-130879714D01*
X114109261Y-130974952D02*
X114156880Y-130927333D01*
X114252119Y-130879714D01*
X114394976Y-130879714D01*
X114490214Y-130927333D01*
X114537833Y-131022571D01*
X114537833Y-131546380D01*
X114537833Y-131022571D02*
X114585452Y-130927333D01*
X114680690Y-130879714D01*
X114823547Y-130879714D01*
X114918785Y-130927333D01*
X114966404Y-131022571D01*
X114966404Y-131546380D01*
X115442595Y-131546380D02*
X115442595Y-130879714D01*
X115442595Y-130974952D02*
X115490214Y-130927333D01*
X115585452Y-130879714D01*
X115728309Y-130879714D01*
X115823547Y-130927333D01*
X115871166Y-131022571D01*
X115871166Y-131546380D01*
X115871166Y-131022571D02*
X115918785Y-130927333D01*
X116014023Y-130879714D01*
X116156880Y-130879714D01*
X116252119Y-130927333D01*
X116299738Y-131022571D01*
X116299738Y-131546380D01*
X82931000Y-129794000D02*
X141478000Y-129794000D01*
X82931000Y-68580000D02*
X82931000Y-130380421D01*
X141478000Y-68580000D02*
X141478000Y-130380421D01*
X141478000Y-129794000D02*
X140351496Y-130380421D01*
X141478000Y-129794000D02*
X140351496Y-129207579D01*
X82931000Y-129794000D02*
X84057504Y-130380421D01*
X82931000Y-129794000D02*
X84057504Y-129207579D01*
D11*
%TO.C,U_ESP_1*%
X110587000Y-74485000D02*
X110587000Y-63705000D01*
X138587000Y-74485000D02*
X110587000Y-74485000D01*
X138587000Y-74485000D02*
X138587000Y-63705000D01*
X138587000Y-63705000D02*
X110587000Y-63705000D01*
X112062000Y-63705000D02*
X110587000Y-64795000D01*
X114062000Y-63705000D02*
X110587000Y-66410000D01*
X116062000Y-63705000D02*
X110587000Y-68025000D01*
X118062000Y-63705000D02*
X110587000Y-69640000D01*
X120062000Y-63705000D02*
X110587000Y-71255000D01*
X122062000Y-63705000D02*
X110587000Y-72870000D01*
X124062000Y-63705000D02*
X110587000Y-74485000D01*
X126062000Y-63705000D02*
X112587000Y-74485000D01*
X128062000Y-63705000D02*
X114587000Y-74485000D01*
X116587000Y-74485000D02*
X130062000Y-63705000D01*
X132062000Y-63705000D02*
X118587000Y-74485000D01*
X134062000Y-63705000D02*
X120587000Y-74485000D01*
X136062000Y-63705000D02*
X122587000Y-74485000D01*
X138062000Y-63705000D02*
X124587000Y-74485000D01*
X138587000Y-64795000D02*
X126587000Y-74485000D01*
X138587000Y-66410000D02*
X128587000Y-74485000D01*
X138587000Y-68025000D02*
X130587000Y-74485000D01*
X138587000Y-69640000D02*
X132587000Y-74485000D01*
X138587000Y-71255000D02*
X134587000Y-74485000D01*
X138587000Y-72870000D02*
X136587000Y-74485000D01*
%TD*%
M02*
