%TF.GenerationSoftware,KiCad,Pcbnew,(5.1.7)-1*%
%TF.CreationDate,2020-11-24T16:35:41-08:00*%
%TF.ProjectId,esp32_sensor,65737033-325f-4736-956e-736f722e6b69,v0.0.2*%
%TF.SameCoordinates,Original*%
%TF.FileFunction,Soldermask,Top*%
%TF.FilePolarity,Negative*%
%FSLAX46Y46*%
G04 Gerber Fmt 4.6, Leading zero omitted, Abs format (unit mm)*
G04 Created by KiCad (PCBNEW (5.1.7)-1) date 2020-11-24 16:35:41*
%MOMM*%
%LPD*%
G01*
G04 APERTURE LIST*
%ADD10O,1.700000X1.700000*%
%ADD11R,1.700000X1.700000*%
%ADD12R,5.000000X5.000000*%
%ADD13R,2.000000X0.900000*%
%ADD14R,0.900000X2.000000*%
%ADD15R,1.000000X1.100000*%
%ADD16R,0.757199X0.254800*%
%ADD17R,1.803400X2.590800*%
%ADD18R,0.830000X0.630000*%
%ADD19R,1.100000X1.000000*%
%ADD20R,0.930000X1.010000*%
%ADD21R,1.799996X1.299998*%
%ADD22R,1.299998X1.799996*%
%ADD23R,2.997200X1.219200*%
%ADD24R,1.003300X0.990600*%
%ADD25R,1.309599X0.568000*%
%ADD26R,0.810000X0.980000*%
%ADD27R,0.790000X0.930000*%
%ADD28R,0.980000X0.810000*%
%ADD29R,0.930000X0.790000*%
%ADD30R,1.549400X0.990600*%
%ADD31R,0.600000X0.350000*%
%ADD32R,0.350000X0.600000*%
%ADD33R,0.600000X1.150000*%
%ADD34R,0.300000X1.150000*%
%ADD35R,2.180000X2.000000*%
%ADD36C,0.650000*%
G04 APERTURE END LIST*
D10*
%TO.C,J_PW_2*%
X97536000Y-127127000D03*
D11*
X94996000Y-127127000D03*
%TD*%
D12*
%TO.C,U_ESP_1*%
X123587000Y-83700000D03*
D13*
X116087000Y-76200000D03*
X116087000Y-77470000D03*
X116087000Y-78740000D03*
X116087000Y-80010000D03*
X116087000Y-81280000D03*
X116087000Y-82550000D03*
X116087000Y-83820000D03*
X116087000Y-85090000D03*
X116087000Y-86360000D03*
X116087000Y-87630000D03*
X116087000Y-88900000D03*
X116087000Y-90170000D03*
X116087000Y-91440000D03*
X116087000Y-92710000D03*
D14*
X118872000Y-93710000D03*
X120142000Y-93710000D03*
X121412000Y-93710000D03*
X122682000Y-93710000D03*
X123952000Y-93710000D03*
X125222000Y-93710000D03*
X126492000Y-93710000D03*
X127762000Y-93710000D03*
X129032000Y-93710000D03*
X130302000Y-93710000D03*
D13*
X133087000Y-92710000D03*
X133087000Y-91440000D03*
X133087000Y-90170000D03*
X133087000Y-88900000D03*
X133087000Y-87630000D03*
X133087000Y-86360000D03*
X133087000Y-85090000D03*
X133087000Y-83820000D03*
X133087000Y-82550000D03*
X133087000Y-81280000D03*
X133087000Y-80010000D03*
X133087000Y-78740000D03*
X133087000Y-77470000D03*
X133087000Y-76200000D03*
%TD*%
D15*
%TO.C,C_ESP_1*%
X102616000Y-78017000D03*
X102616000Y-79717000D03*
%TD*%
D10*
%TO.C,J_7*%
X88773000Y-109855000D03*
D11*
X91313000Y-109855000D03*
%TD*%
D10*
%TO.C,J_6*%
X91313000Y-106045000D03*
D11*
X88773000Y-106045000D03*
%TD*%
D10*
%TO.C,J_5*%
X88773000Y-102235000D03*
D11*
X91313000Y-102235000D03*
%TD*%
D10*
%TO.C,J_4*%
X91313000Y-98425000D03*
D11*
X88773000Y-98425000D03*
%TD*%
D10*
%TO.C,J_3*%
X131572000Y-100330000D03*
X129032000Y-100330000D03*
X126492000Y-100330000D03*
X123952000Y-100330000D03*
X121412000Y-100330000D03*
X118872000Y-100330000D03*
X116332000Y-100330000D03*
D11*
X113792000Y-100330000D03*
%TD*%
D10*
%TO.C,J_2*%
X139446000Y-124841000D03*
X139446000Y-122301000D03*
X139446000Y-119761000D03*
X139446000Y-117221000D03*
X139446000Y-114681000D03*
X139446000Y-112141000D03*
X139446000Y-109601000D03*
X139446000Y-107061000D03*
X139446000Y-104521000D03*
X139446000Y-101981000D03*
X139446000Y-99441000D03*
X139446000Y-96901000D03*
X139446000Y-94361000D03*
X139446000Y-91821000D03*
X139446000Y-89281000D03*
X139446000Y-86741000D03*
X139446000Y-84201000D03*
X139446000Y-81661000D03*
X139446000Y-79121000D03*
D11*
X139446000Y-76581000D03*
%TD*%
D10*
%TO.C,J_1*%
X85090000Y-124587000D03*
X85090000Y-122047000D03*
X85090000Y-119507000D03*
X85090000Y-116967000D03*
X85090000Y-114427000D03*
X85090000Y-111887000D03*
X85090000Y-109347000D03*
X85090000Y-106807000D03*
X85090000Y-104267000D03*
X85090000Y-101727000D03*
X85090000Y-99187000D03*
X85090000Y-96647000D03*
X85090000Y-94107000D03*
X85090000Y-91567000D03*
X85090000Y-89027000D03*
X85090000Y-86487000D03*
X85090000Y-83947000D03*
X85090000Y-81407000D03*
X85090000Y-78867000D03*
D11*
X85090000Y-76327000D03*
%TD*%
%TO.C,LED_ESP_1*%
G36*
G01*
X129796250Y-122129000D02*
X129283750Y-122129000D01*
G75*
G02*
X129065000Y-121910250I0J218750D01*
G01*
X129065000Y-121472750D01*
G75*
G02*
X129283750Y-121254000I218750J0D01*
G01*
X129796250Y-121254000D01*
G75*
G02*
X130015000Y-121472750I0J-218750D01*
G01*
X130015000Y-121910250D01*
G75*
G02*
X129796250Y-122129000I-218750J0D01*
G01*
G37*
G36*
G01*
X129796250Y-120554000D02*
X129283750Y-120554000D01*
G75*
G02*
X129065000Y-120335250I0J218750D01*
G01*
X129065000Y-119897750D01*
G75*
G02*
X129283750Y-119679000I218750J0D01*
G01*
X129796250Y-119679000D01*
G75*
G02*
X130015000Y-119897750I0J-218750D01*
G01*
X130015000Y-120335250D01*
G75*
G02*
X129796250Y-120554000I-218750J0D01*
G01*
G37*
%TD*%
%TO.C,J_PW_3*%
X120904000Y-109728000D03*
%TD*%
D10*
%TO.C,J_PW_1*%
X121666000Y-116586000D03*
D11*
X119126000Y-116586000D03*
%TD*%
%TO.C,J_CN_4*%
X114808000Y-116586000D03*
%TD*%
%TO.C,J_CN_3*%
X125476000Y-116586000D03*
%TD*%
D10*
%TO.C,J_CN_2*%
X128016000Y-127254000D03*
X130556000Y-127254000D03*
X133096000Y-127254000D03*
D11*
X135636000Y-127254000D03*
%TD*%
D10*
%TO.C,J_CN_1*%
X102489000Y-127127000D03*
X105029000Y-127127000D03*
X107569000Y-127127000D03*
D11*
X110109000Y-127127000D03*
%TD*%
D16*
%TO.C,U_PW_1*%
X101115000Y-121265000D03*
X101115000Y-120765001D03*
X101115000Y-120265000D03*
X101115000Y-119765000D03*
X101115000Y-119264999D03*
X101115000Y-118765000D03*
X98275000Y-118765000D03*
X98275000Y-119264999D03*
X98275000Y-119765000D03*
X98275000Y-120265000D03*
X98275000Y-120765001D03*
X98275000Y-121265000D03*
D17*
X99695000Y-120015000D03*
%TD*%
D18*
%TO.C,D_PW_3*%
X116840000Y-105904000D03*
X116840000Y-108204000D03*
%TD*%
D19*
%TO.C,C_PW_1*%
X109640000Y-122936000D03*
X111340000Y-122936000D03*
%TD*%
D18*
%TO.C,D_PW_1*%
X111252000Y-117482000D03*
X111252000Y-115182000D03*
%TD*%
D20*
%TO.C,C_IMU_1*%
X103632000Y-98245000D03*
X103632000Y-96827000D03*
%TD*%
%TO.C,C_IMU_2*%
X102616000Y-104955000D03*
X102616000Y-106373000D03*
%TD*%
%TO.C,C_IMU_3*%
X107696000Y-102161000D03*
X107696000Y-103579000D03*
%TD*%
D21*
%TO.C,C_PW_2*%
X91440000Y-124838002D03*
X91440000Y-127637998D03*
%TD*%
D19*
%TO.C,C_PW_3*%
X93638000Y-115697000D03*
X95338000Y-115697000D03*
%TD*%
%TO.C,C_PW_4*%
X103925000Y-117094000D03*
X105625000Y-117094000D03*
%TD*%
D22*
%TO.C,C_PW_5*%
X111376002Y-105918000D03*
X114175998Y-105918000D03*
%TD*%
D23*
%TO.C,CP_ESP_1*%
X107607100Y-72517000D03*
X102196900Y-72517000D03*
%TD*%
D18*
%TO.C,D_PW_2*%
X107823000Y-119641000D03*
X107823000Y-117341000D03*
%TD*%
D24*
%TO.C,L_PW_1*%
X100876100Y-113665000D03*
X102870000Y-113665000D03*
%TD*%
D25*
%TO.C,Q_PW_1*%
X113779300Y-111696500D03*
X113779300Y-109791500D03*
X111772700Y-110744000D03*
%TD*%
D26*
%TO.C,R_ESP_1*%
X93590000Y-83439000D03*
X95132000Y-83439000D03*
%TD*%
D27*
%TO.C,R_ESP_2*%
X91498000Y-80391000D03*
X89858000Y-80391000D03*
%TD*%
D28*
%TO.C,R_ESP_3*%
X126111000Y-108830000D03*
X126111000Y-110372000D03*
%TD*%
D27*
%TO.C,R_ESP_4*%
X127566000Y-106426000D03*
X125926000Y-106426000D03*
%TD*%
D28*
%TO.C,R_ESP_5*%
X132080000Y-121167000D03*
X132080000Y-119625000D03*
%TD*%
D29*
%TO.C,R_IMU_1*%
X97409000Y-106114000D03*
X97409000Y-107754000D03*
%TD*%
%TO.C,R_IMU_2*%
X97409000Y-109924000D03*
X97409000Y-111564000D03*
%TD*%
%TO.C,R_PW_1*%
X111252000Y-121216000D03*
X111252000Y-119576000D03*
%TD*%
%TO.C,R_PW_2*%
X91694000Y-119565000D03*
X91694000Y-117925000D03*
%TD*%
%TO.C,R_PW_3*%
X91694000Y-116517000D03*
X91694000Y-114877000D03*
%TD*%
%TO.C,R_PW_4*%
X94488000Y-119565000D03*
X94488000Y-117925000D03*
%TD*%
D30*
%TO.C,SW_ESP_1*%
X99018001Y-81355999D03*
X99018001Y-78156001D03*
X93767999Y-78156001D03*
X93767999Y-81355999D03*
%TD*%
%TO.C,SW_ESP_2*%
X128565999Y-113740999D03*
X128565999Y-110541001D03*
X133816001Y-110541001D03*
X133816001Y-113740999D03*
%TD*%
D31*
%TO.C,U_IMU_1*%
X102980000Y-101858000D03*
X102980000Y-102358000D03*
X102980000Y-101358000D03*
X102980000Y-102858000D03*
X105300000Y-101858000D03*
X105300000Y-102358000D03*
X105300000Y-101358000D03*
X105300000Y-102858000D03*
D32*
X103640000Y-101198000D03*
X104140000Y-101198000D03*
X104640000Y-101198000D03*
X103640000Y-103018000D03*
X104140000Y-103018000D03*
X104640000Y-103018000D03*
%TD*%
D33*
%TO.C,U_CN_1*%
X122199000Y-126551000D03*
X121399000Y-126551000D03*
X116599000Y-126551000D03*
X115799000Y-126551000D03*
D34*
X120749000Y-126551000D03*
X117249000Y-126551000D03*
X120249000Y-126551000D03*
X117749000Y-126551000D03*
X119749000Y-126551000D03*
X118249000Y-126551000D03*
X119249000Y-126551000D03*
X118749000Y-126551000D03*
D35*
X124109000Y-125976000D03*
X113889000Y-125976000D03*
X124109000Y-122046000D03*
X113889000Y-122046000D03*
D36*
X121889000Y-125476000D03*
X116109000Y-125476000D03*
%TD*%
M02*
