%TF.GenerationSoftware,KiCad,Pcbnew,(5.1.7)-1*%
%TF.CreationDate,2020-11-25T11:44:14-08:00*%
%TF.ProjectId,esp32_sensor,65737033-325f-4736-956e-736f722e6b69,v0.0.3b*%
%TF.SameCoordinates,Original*%
%TF.FileFunction,Legend,Bot*%
%TF.FilePolarity,Positive*%
%FSLAX46Y46*%
G04 Gerber Fmt 4.6, Leading zero omitted, Abs format (unit mm)*
G04 Created by KiCad (PCBNEW (5.1.7)-1) date 2020-11-25 11:44:14*
%MOMM*%
%LPD*%
G01*
G04 APERTURE LIST*
%ADD10C,0.140000*%
%ADD11C,0.070000*%
G04 APERTURE END LIST*
D10*
X121057142Y-73380400D02*
X120157142Y-73380400D01*
X120157142Y-73723257D01*
X120200000Y-73808971D01*
X120242857Y-73851828D01*
X120328571Y-73894685D01*
X120457142Y-73894685D01*
X120542857Y-73851828D01*
X120585714Y-73808971D01*
X120628571Y-73723257D01*
X120628571Y-73380400D01*
X120457142Y-74666114D02*
X121057142Y-74666114D01*
X120457142Y-74280400D02*
X120928571Y-74280400D01*
X121014285Y-74323257D01*
X121057142Y-74408971D01*
X121057142Y-74537542D01*
X121014285Y-74623257D01*
X120971428Y-74666114D01*
X121057142Y-75094685D02*
X120157142Y-75094685D01*
X120500000Y-75094685D02*
X120457142Y-75180400D01*
X120457142Y-75351828D01*
X120500000Y-75437542D01*
X120542857Y-75480400D01*
X120628571Y-75523257D01*
X120885714Y-75523257D01*
X120971428Y-75480400D01*
X121014285Y-75437542D01*
X121057142Y-75351828D01*
X121057142Y-75180400D01*
X121014285Y-75094685D01*
X121057142Y-76037542D02*
X121014285Y-75951828D01*
X120928571Y-75908971D01*
X120157142Y-75908971D01*
X121057142Y-76380400D02*
X120457142Y-76380400D01*
X120157142Y-76380400D02*
X120200000Y-76337542D01*
X120242857Y-76380400D01*
X120200000Y-76423257D01*
X120157142Y-76380400D01*
X120242857Y-76380400D01*
X121014285Y-76766114D02*
X121057142Y-76851828D01*
X121057142Y-77023257D01*
X121014285Y-77108971D01*
X120928571Y-77151828D01*
X120885714Y-77151828D01*
X120800000Y-77108971D01*
X120757142Y-77023257D01*
X120757142Y-76894685D01*
X120714285Y-76808971D01*
X120628571Y-76766114D01*
X120585714Y-76766114D01*
X120500000Y-76808971D01*
X120457142Y-76894685D01*
X120457142Y-77023257D01*
X120500000Y-77108971D01*
X121057142Y-77537542D02*
X120157142Y-77537542D01*
X121057142Y-77923257D02*
X120585714Y-77923257D01*
X120500000Y-77880400D01*
X120457142Y-77794685D01*
X120457142Y-77666114D01*
X120500000Y-77580400D01*
X120542857Y-77537542D01*
X121014285Y-78694685D02*
X121057142Y-78608971D01*
X121057142Y-78437542D01*
X121014285Y-78351828D01*
X120928571Y-78308971D01*
X120585714Y-78308971D01*
X120500000Y-78351828D01*
X120457142Y-78437542D01*
X120457142Y-78608971D01*
X120500000Y-78694685D01*
X120585714Y-78737542D01*
X120671428Y-78737542D01*
X120757142Y-78308971D01*
X121057142Y-79508971D02*
X120157142Y-79508971D01*
X121014285Y-79508971D02*
X121057142Y-79423257D01*
X121057142Y-79251828D01*
X121014285Y-79166114D01*
X120971428Y-79123257D01*
X120885714Y-79080400D01*
X120628571Y-79080400D01*
X120542857Y-79123257D01*
X120500000Y-79166114D01*
X120457142Y-79251828D01*
X120457142Y-79423257D01*
X120500000Y-79508971D01*
X121057142Y-80751828D02*
X121014285Y-80666114D01*
X120971428Y-80623257D01*
X120885714Y-80580400D01*
X120628571Y-80580400D01*
X120542857Y-80623257D01*
X120500000Y-80666114D01*
X120457142Y-80751828D01*
X120457142Y-80880400D01*
X120500000Y-80966114D01*
X120542857Y-81008971D01*
X120628571Y-81051828D01*
X120885714Y-81051828D01*
X120971428Y-81008971D01*
X121014285Y-80966114D01*
X121057142Y-80880400D01*
X121057142Y-80751828D01*
X120457142Y-81437542D02*
X121057142Y-81437542D01*
X120542857Y-81437542D02*
X120500000Y-81480400D01*
X120457142Y-81566114D01*
X120457142Y-81694685D01*
X120500000Y-81780400D01*
X120585714Y-81823257D01*
X121057142Y-81823257D01*
X120242857Y-82894685D02*
X120200000Y-82937542D01*
X120157142Y-83023257D01*
X120157142Y-83237542D01*
X120200000Y-83323257D01*
X120242857Y-83366114D01*
X120328571Y-83408971D01*
X120414285Y-83408971D01*
X120542857Y-83366114D01*
X121057142Y-82851828D01*
X121057142Y-83408971D01*
X120157142Y-84223257D02*
X120157142Y-83794685D01*
X120585714Y-83751828D01*
X120542857Y-83794685D01*
X120500000Y-83880400D01*
X120500000Y-84094685D01*
X120542857Y-84180400D01*
X120585714Y-84223257D01*
X120671428Y-84266114D01*
X120885714Y-84266114D01*
X120971428Y-84223257D01*
X121014285Y-84180400D01*
X121057142Y-84094685D01*
X121057142Y-83880400D01*
X121014285Y-83794685D01*
X120971428Y-83751828D01*
X121057142Y-85337542D02*
X120157142Y-85337542D01*
X121057142Y-85851828D01*
X120157142Y-85851828D01*
X121057142Y-86408971D02*
X121014285Y-86323257D01*
X120971428Y-86280399D01*
X120885714Y-86237542D01*
X120628571Y-86237542D01*
X120542857Y-86280399D01*
X120500000Y-86323257D01*
X120457142Y-86408971D01*
X120457142Y-86537542D01*
X120500000Y-86623257D01*
X120542857Y-86666114D01*
X120628571Y-86708971D01*
X120885714Y-86708971D01*
X120971428Y-86666114D01*
X121014285Y-86623257D01*
X121057142Y-86537542D01*
X121057142Y-86408971D01*
X120457142Y-87008971D02*
X121057142Y-87223257D01*
X120457142Y-87437542D01*
X121014285Y-88123257D02*
X121057142Y-88037542D01*
X121057142Y-87866114D01*
X121014285Y-87780399D01*
X120928571Y-87737542D01*
X120585714Y-87737542D01*
X120500000Y-87780399D01*
X120457142Y-87866114D01*
X120457142Y-88037542D01*
X120500000Y-88123257D01*
X120585714Y-88166114D01*
X120671428Y-88166114D01*
X120757142Y-87737542D01*
X121057142Y-88551828D02*
X120457142Y-88551828D01*
X120542857Y-88551828D02*
X120500000Y-88594685D01*
X120457142Y-88680399D01*
X120457142Y-88808971D01*
X120500000Y-88894685D01*
X120585714Y-88937542D01*
X121057142Y-88937542D01*
X120585714Y-88937542D02*
X120500000Y-88980399D01*
X120457142Y-89066114D01*
X120457142Y-89194685D01*
X120500000Y-89280399D01*
X120585714Y-89323257D01*
X121057142Y-89323257D01*
X121057142Y-89751828D02*
X120157142Y-89751828D01*
X120500000Y-89751828D02*
X120457142Y-89837542D01*
X120457142Y-90008971D01*
X120500000Y-90094685D01*
X120542857Y-90137542D01*
X120628571Y-90180399D01*
X120885714Y-90180399D01*
X120971428Y-90137542D01*
X121014285Y-90094685D01*
X121057142Y-90008971D01*
X121057142Y-89837542D01*
X121014285Y-89751828D01*
X121014285Y-90908971D02*
X121057142Y-90823257D01*
X121057142Y-90651828D01*
X121014285Y-90566114D01*
X120928571Y-90523257D01*
X120585714Y-90523257D01*
X120500000Y-90566114D01*
X120457142Y-90651828D01*
X120457142Y-90823257D01*
X120500000Y-90908971D01*
X120585714Y-90951828D01*
X120671428Y-90951828D01*
X120757142Y-90523257D01*
X121057142Y-91337542D02*
X120457142Y-91337542D01*
X120628571Y-91337542D02*
X120542857Y-91380399D01*
X120500000Y-91423257D01*
X120457142Y-91508971D01*
X120457142Y-91594685D01*
X120242857Y-92537542D02*
X120200000Y-92580399D01*
X120157142Y-92666114D01*
X120157142Y-92880399D01*
X120200000Y-92966114D01*
X120242857Y-93008971D01*
X120328571Y-93051828D01*
X120414285Y-93051828D01*
X120542857Y-93008971D01*
X121057142Y-92494685D01*
X121057142Y-93051828D01*
X120157142Y-93608971D02*
X120157142Y-93694685D01*
X120200000Y-93780399D01*
X120242857Y-93823257D01*
X120328571Y-93866114D01*
X120500000Y-93908971D01*
X120714285Y-93908971D01*
X120885714Y-93866114D01*
X120971428Y-93823257D01*
X121014285Y-93780399D01*
X121057142Y-93694685D01*
X121057142Y-93608971D01*
X121014285Y-93523257D01*
X120971428Y-93480399D01*
X120885714Y-93437542D01*
X120714285Y-93394685D01*
X120500000Y-93394685D01*
X120328571Y-93437542D01*
X120242857Y-93480399D01*
X120200000Y-93523257D01*
X120157142Y-93608971D01*
X120242857Y-94251828D02*
X120200000Y-94294685D01*
X120157142Y-94380399D01*
X120157142Y-94594685D01*
X120200000Y-94680399D01*
X120242857Y-94723257D01*
X120328571Y-94766114D01*
X120414285Y-94766114D01*
X120542857Y-94723257D01*
X121057142Y-94208971D01*
X121057142Y-94766114D01*
X120157142Y-95323257D02*
X120157142Y-95408971D01*
X120200000Y-95494685D01*
X120242857Y-95537542D01*
X120328571Y-95580399D01*
X120500000Y-95623257D01*
X120714285Y-95623257D01*
X120885714Y-95580399D01*
X120971428Y-95537542D01*
X121014285Y-95494685D01*
X121057142Y-95408971D01*
X121057142Y-95323257D01*
X121014285Y-95237542D01*
X120971428Y-95194685D01*
X120885714Y-95151828D01*
X120714285Y-95108971D01*
X120500000Y-95108971D01*
X120328571Y-95151828D01*
X120242857Y-95194685D01*
X120200000Y-95237542D01*
X120157142Y-95323257D01*
X118939428Y-73852000D02*
X118982285Y-73809142D01*
X119025142Y-73680571D01*
X119025142Y-73594857D01*
X118982285Y-73466285D01*
X118896571Y-73380571D01*
X118810857Y-73337714D01*
X118639428Y-73294857D01*
X118510857Y-73294857D01*
X118339428Y-73337714D01*
X118253714Y-73380571D01*
X118168000Y-73466285D01*
X118125142Y-73594857D01*
X118125142Y-73680571D01*
X118168000Y-73809142D01*
X118210857Y-73852000D01*
X119025142Y-74237714D02*
X118125142Y-74237714D01*
X119025142Y-74623428D02*
X118553714Y-74623428D01*
X118468000Y-74580571D01*
X118425142Y-74494857D01*
X118425142Y-74366285D01*
X118468000Y-74280571D01*
X118510857Y-74237714D01*
X119025142Y-75180571D02*
X118982285Y-75094857D01*
X118939428Y-75052000D01*
X118853714Y-75009142D01*
X118596571Y-75009142D01*
X118510857Y-75052000D01*
X118468000Y-75094857D01*
X118425142Y-75180571D01*
X118425142Y-75309142D01*
X118468000Y-75394857D01*
X118510857Y-75437714D01*
X118596571Y-75480571D01*
X118853714Y-75480571D01*
X118939428Y-75437714D01*
X118982285Y-75394857D01*
X119025142Y-75309142D01*
X119025142Y-75180571D01*
X119025142Y-75994857D02*
X118982285Y-75909142D01*
X118939428Y-75866285D01*
X118853714Y-75823428D01*
X118596571Y-75823428D01*
X118510857Y-75866285D01*
X118468000Y-75909142D01*
X118425142Y-75994857D01*
X118425142Y-76123428D01*
X118468000Y-76209142D01*
X118510857Y-76252000D01*
X118596571Y-76294857D01*
X118853714Y-76294857D01*
X118939428Y-76252000D01*
X118982285Y-76209142D01*
X119025142Y-76123428D01*
X119025142Y-75994857D01*
X118425142Y-76680571D02*
X119025142Y-76680571D01*
X118510857Y-76680571D02*
X118468000Y-76723428D01*
X118425142Y-76809142D01*
X118425142Y-76937714D01*
X118468000Y-77023428D01*
X118553714Y-77066285D01*
X119025142Y-77066285D01*
X118425142Y-77880571D02*
X119153714Y-77880571D01*
X119239428Y-77837714D01*
X119282285Y-77794857D01*
X119325142Y-77709142D01*
X119325142Y-77580571D01*
X119282285Y-77494857D01*
X118982285Y-77880571D02*
X119025142Y-77794857D01*
X119025142Y-77623428D01*
X118982285Y-77537714D01*
X118939428Y-77494857D01*
X118853714Y-77452000D01*
X118596571Y-77452000D01*
X118510857Y-77494857D01*
X118468000Y-77537714D01*
X118425142Y-77623428D01*
X118425142Y-77794857D01*
X118468000Y-77880571D01*
X118125142Y-79252000D02*
X118768000Y-79252000D01*
X118896571Y-79209142D01*
X118982285Y-79123428D01*
X119025142Y-78994857D01*
X119025142Y-78909142D01*
X119025142Y-79680571D02*
X118425142Y-79680571D01*
X118125142Y-79680571D02*
X118168000Y-79637714D01*
X118210857Y-79680571D01*
X118168000Y-79723428D01*
X118125142Y-79680571D01*
X118210857Y-79680571D01*
X118425142Y-80109142D02*
X119025142Y-80109142D01*
X118510857Y-80109142D02*
X118468000Y-80152000D01*
X118425142Y-80237714D01*
X118425142Y-80366285D01*
X118468000Y-80452000D01*
X118553714Y-80494857D01*
X119025142Y-80494857D01*
X119025142Y-81609142D02*
X118125142Y-81609142D01*
X119025142Y-82123428D01*
X118125142Y-82123428D01*
X118425142Y-82937714D02*
X119153714Y-82937714D01*
X119239428Y-82894857D01*
X119282285Y-82852000D01*
X119325142Y-82766285D01*
X119325142Y-82637714D01*
X119282285Y-82552000D01*
X118982285Y-82937714D02*
X119025142Y-82852000D01*
X119025142Y-82680571D01*
X118982285Y-82594857D01*
X118939428Y-82552000D01*
X118853714Y-82509142D01*
X118596571Y-82509142D01*
X118510857Y-82552000D01*
X118468000Y-82594857D01*
X118425142Y-82680571D01*
X118425142Y-82852000D01*
X118468000Y-82937714D01*
X119325142Y-84266285D02*
X118039428Y-84266285D01*
X118425142Y-85594857D02*
X119196571Y-85594857D01*
X119282285Y-85552000D01*
X119325142Y-85466285D01*
X119325142Y-85423428D01*
X118125142Y-85594857D02*
X118168000Y-85552000D01*
X118210857Y-85594857D01*
X118168000Y-85637714D01*
X118125142Y-85594857D01*
X118210857Y-85594857D01*
X119025142Y-86023428D02*
X118425142Y-86023428D01*
X118125142Y-86023428D02*
X118168000Y-85980571D01*
X118210857Y-86023428D01*
X118168000Y-86066285D01*
X118125142Y-86023428D01*
X118210857Y-86023428D01*
X118425142Y-86452000D02*
X119025142Y-86452000D01*
X118510857Y-86452000D02*
X118468000Y-86494857D01*
X118425142Y-86580571D01*
X118425142Y-86709142D01*
X118468000Y-86794857D01*
X118553714Y-86837714D01*
X119025142Y-86837714D01*
X118510857Y-87394857D02*
X118468000Y-87309142D01*
X118425142Y-87266285D01*
X118339428Y-87223428D01*
X118296571Y-87223428D01*
X118210857Y-87266285D01*
X118168000Y-87309142D01*
X118125142Y-87394857D01*
X118125142Y-87566285D01*
X118168000Y-87652000D01*
X118210857Y-87694857D01*
X118296571Y-87737714D01*
X118339428Y-87737714D01*
X118425142Y-87694857D01*
X118468000Y-87652000D01*
X118510857Y-87566285D01*
X118510857Y-87394857D01*
X118553714Y-87309142D01*
X118596571Y-87266285D01*
X118682285Y-87223428D01*
X118853714Y-87223428D01*
X118939428Y-87266285D01*
X118982285Y-87309142D01*
X119025142Y-87394857D01*
X119025142Y-87566285D01*
X118982285Y-87652000D01*
X118939428Y-87694857D01*
X118853714Y-87737714D01*
X118682285Y-87737714D01*
X118596571Y-87694857D01*
X118553714Y-87652000D01*
X118510857Y-87566285D01*
X118125142Y-88037714D02*
X118125142Y-88594857D01*
X118468000Y-88294857D01*
X118468000Y-88423428D01*
X118510857Y-88509142D01*
X118553714Y-88552000D01*
X118639428Y-88594857D01*
X118853714Y-88594857D01*
X118939428Y-88552000D01*
X118982285Y-88509142D01*
X119025142Y-88423428D01*
X119025142Y-88166285D01*
X118982285Y-88080571D01*
X118939428Y-88037714D01*
X118510857Y-89109142D02*
X118468000Y-89023428D01*
X118425142Y-88980571D01*
X118339428Y-88937714D01*
X118296571Y-88937714D01*
X118210857Y-88980571D01*
X118168000Y-89023428D01*
X118125142Y-89109142D01*
X118125142Y-89280571D01*
X118168000Y-89366285D01*
X118210857Y-89409142D01*
X118296571Y-89452000D01*
X118339428Y-89452000D01*
X118425142Y-89409142D01*
X118468000Y-89366285D01*
X118510857Y-89280571D01*
X118510857Y-89109142D01*
X118553714Y-89023428D01*
X118596571Y-88980571D01*
X118682285Y-88937714D01*
X118853714Y-88937714D01*
X118939428Y-88980571D01*
X118982285Y-89023428D01*
X119025142Y-89109142D01*
X119025142Y-89280571D01*
X118982285Y-89366285D01*
X118939428Y-89409142D01*
X118853714Y-89452000D01*
X118682285Y-89452000D01*
X118596571Y-89409142D01*
X118553714Y-89366285D01*
X118510857Y-89280571D01*
X118125142Y-89752000D02*
X118125142Y-90309142D01*
X118468000Y-90009142D01*
X118468000Y-90137714D01*
X118510857Y-90223428D01*
X118553714Y-90266285D01*
X118639428Y-90309142D01*
X118853714Y-90309142D01*
X118939428Y-90266285D01*
X118982285Y-90223428D01*
X119025142Y-90137714D01*
X119025142Y-89880571D01*
X118982285Y-89794857D01*
X118939428Y-89752000D01*
X118596571Y-91252000D02*
X118553714Y-91209142D01*
X118510857Y-91123428D01*
X118510857Y-91037714D01*
X118553714Y-90952000D01*
X118596571Y-90909142D01*
X118682285Y-90866285D01*
X118768000Y-90866285D01*
X118853714Y-90909142D01*
X118896571Y-90952000D01*
X118939428Y-91037714D01*
X118939428Y-91123428D01*
X118896571Y-91209142D01*
X118853714Y-91252000D01*
X118510857Y-91252000D02*
X118853714Y-91252000D01*
X118896571Y-91294857D01*
X118896571Y-91337714D01*
X118853714Y-91423428D01*
X118768000Y-91466285D01*
X118553714Y-91466285D01*
X118425142Y-91380571D01*
X118339428Y-91252000D01*
X118296571Y-91080571D01*
X118339428Y-90909142D01*
X118425142Y-90780571D01*
X118553714Y-90694857D01*
X118725142Y-90652000D01*
X118896571Y-90694857D01*
X119025142Y-90780571D01*
X119110857Y-90909142D01*
X119153714Y-91080571D01*
X119110857Y-91252000D01*
X119025142Y-91380571D01*
X118425142Y-92237714D02*
X119153714Y-92237714D01*
X119239428Y-92194857D01*
X119282285Y-92152000D01*
X119325142Y-92066285D01*
X119325142Y-91937714D01*
X119282285Y-91852000D01*
X118982285Y-92237714D02*
X119025142Y-92152000D01*
X119025142Y-91980571D01*
X118982285Y-91894857D01*
X118939428Y-91852000D01*
X118853714Y-91809142D01*
X118596571Y-91809142D01*
X118510857Y-91852000D01*
X118468000Y-91894857D01*
X118425142Y-91980571D01*
X118425142Y-92152000D01*
X118468000Y-92237714D01*
X119025142Y-92666285D02*
X118425142Y-92666285D01*
X118510857Y-92666285D02*
X118468000Y-92709142D01*
X118425142Y-92794857D01*
X118425142Y-92923428D01*
X118468000Y-93009142D01*
X118553714Y-93052000D01*
X119025142Y-93052000D01*
X118553714Y-93052000D02*
X118468000Y-93094857D01*
X118425142Y-93180571D01*
X118425142Y-93309142D01*
X118468000Y-93394857D01*
X118553714Y-93437714D01*
X119025142Y-93437714D01*
X119025142Y-94252000D02*
X118553714Y-94252000D01*
X118468000Y-94209142D01*
X118425142Y-94123428D01*
X118425142Y-93952000D01*
X118468000Y-93866285D01*
X118982285Y-94252000D02*
X119025142Y-94166285D01*
X119025142Y-93952000D01*
X118982285Y-93866285D01*
X118896571Y-93823428D01*
X118810857Y-93823428D01*
X118725142Y-93866285D01*
X118682285Y-93952000D01*
X118682285Y-94166285D01*
X118639428Y-94252000D01*
X119025142Y-94680571D02*
X118425142Y-94680571D01*
X118125142Y-94680571D02*
X118168000Y-94637714D01*
X118210857Y-94680571D01*
X118168000Y-94723428D01*
X118125142Y-94680571D01*
X118210857Y-94680571D01*
X119025142Y-95237714D02*
X118982285Y-95152000D01*
X118896571Y-95109142D01*
X118125142Y-95109142D01*
X118939428Y-95580571D02*
X118982285Y-95623428D01*
X119025142Y-95580571D01*
X118982285Y-95537714D01*
X118939428Y-95580571D01*
X119025142Y-95580571D01*
X118982285Y-96394857D02*
X119025142Y-96309142D01*
X119025142Y-96137714D01*
X118982285Y-96052000D01*
X118939428Y-96009142D01*
X118853714Y-95966285D01*
X118596571Y-95966285D01*
X118510857Y-96009142D01*
X118468000Y-96052000D01*
X118425142Y-96137714D01*
X118425142Y-96309142D01*
X118468000Y-96394857D01*
X119025142Y-96909142D02*
X118982285Y-96823428D01*
X118939428Y-96780571D01*
X118853714Y-96737714D01*
X118596571Y-96737714D01*
X118510857Y-96780571D01*
X118468000Y-96823428D01*
X118425142Y-96909142D01*
X118425142Y-97037714D01*
X118468000Y-97123428D01*
X118510857Y-97166285D01*
X118596571Y-97209142D01*
X118853714Y-97209142D01*
X118939428Y-97166285D01*
X118982285Y-97123428D01*
X119025142Y-97037714D01*
X119025142Y-96909142D01*
X119025142Y-97594857D02*
X118425142Y-97594857D01*
X118510857Y-97594857D02*
X118468000Y-97637714D01*
X118425142Y-97723428D01*
X118425142Y-97852000D01*
X118468000Y-97937714D01*
X118553714Y-97980571D01*
X119025142Y-97980571D01*
X118553714Y-97980571D02*
X118468000Y-98023428D01*
X118425142Y-98109142D01*
X118425142Y-98237714D01*
X118468000Y-98323428D01*
X118553714Y-98366285D01*
X119025142Y-98366285D01*
X116648714Y-73262000D02*
X116648714Y-73562000D01*
X117120142Y-73690571D02*
X117120142Y-73262000D01*
X116220142Y-73262000D01*
X116220142Y-73690571D01*
X117077285Y-74033428D02*
X117120142Y-74162000D01*
X117120142Y-74376285D01*
X117077285Y-74462000D01*
X117034428Y-74504857D01*
X116948714Y-74547714D01*
X116863000Y-74547714D01*
X116777285Y-74504857D01*
X116734428Y-74462000D01*
X116691571Y-74376285D01*
X116648714Y-74204857D01*
X116605857Y-74119142D01*
X116563000Y-74076285D01*
X116477285Y-74033428D01*
X116391571Y-74033428D01*
X116305857Y-74076285D01*
X116263000Y-74119142D01*
X116220142Y-74204857D01*
X116220142Y-74419142D01*
X116263000Y-74547714D01*
X117120142Y-74933428D02*
X116220142Y-74933428D01*
X116220142Y-75276285D01*
X116263000Y-75362000D01*
X116305857Y-75404857D01*
X116391571Y-75447714D01*
X116520142Y-75447714D01*
X116605857Y-75404857D01*
X116648714Y-75362000D01*
X116691571Y-75276285D01*
X116691571Y-74933428D01*
X116220142Y-75747714D02*
X116220142Y-76304857D01*
X116563000Y-76004857D01*
X116563000Y-76133428D01*
X116605857Y-76219142D01*
X116648714Y-76262000D01*
X116734428Y-76304857D01*
X116948714Y-76304857D01*
X117034428Y-76262000D01*
X117077285Y-76219142D01*
X117120142Y-76133428D01*
X117120142Y-75876285D01*
X117077285Y-75790571D01*
X117034428Y-75747714D01*
X116305857Y-76647714D02*
X116263000Y-76690571D01*
X116220142Y-76776285D01*
X116220142Y-76990571D01*
X116263000Y-77076285D01*
X116305857Y-77119142D01*
X116391571Y-77162000D01*
X116477285Y-77162000D01*
X116605857Y-77119142D01*
X117120142Y-76604857D01*
X117120142Y-77162000D01*
X117077285Y-78190571D02*
X117120142Y-78319142D01*
X117120142Y-78533428D01*
X117077285Y-78619142D01*
X117034428Y-78662000D01*
X116948714Y-78704857D01*
X116863000Y-78704857D01*
X116777285Y-78662000D01*
X116734428Y-78619142D01*
X116691571Y-78533428D01*
X116648714Y-78362000D01*
X116605857Y-78276285D01*
X116563000Y-78233428D01*
X116477285Y-78190571D01*
X116391571Y-78190571D01*
X116305857Y-78233428D01*
X116263000Y-78276285D01*
X116220142Y-78362000D01*
X116220142Y-78576285D01*
X116263000Y-78704857D01*
X117077285Y-79433428D02*
X117120142Y-79347714D01*
X117120142Y-79176285D01*
X117077285Y-79090571D01*
X116991571Y-79047714D01*
X116648714Y-79047714D01*
X116563000Y-79090571D01*
X116520142Y-79176285D01*
X116520142Y-79347714D01*
X116563000Y-79433428D01*
X116648714Y-79476285D01*
X116734428Y-79476285D01*
X116820142Y-79047714D01*
X116520142Y-79862000D02*
X117120142Y-79862000D01*
X116605857Y-79862000D02*
X116563000Y-79904857D01*
X116520142Y-79990571D01*
X116520142Y-80119142D01*
X116563000Y-80204857D01*
X116648714Y-80247714D01*
X117120142Y-80247714D01*
X117077285Y-80633428D02*
X117120142Y-80719142D01*
X117120142Y-80890571D01*
X117077285Y-80976285D01*
X116991571Y-81019142D01*
X116948714Y-81019142D01*
X116863000Y-80976285D01*
X116820142Y-80890571D01*
X116820142Y-80762000D01*
X116777285Y-80676285D01*
X116691571Y-80633428D01*
X116648714Y-80633428D01*
X116563000Y-80676285D01*
X116520142Y-80762000D01*
X116520142Y-80890571D01*
X116563000Y-80976285D01*
X117120142Y-81533428D02*
X117077285Y-81447714D01*
X117034428Y-81404857D01*
X116948714Y-81362000D01*
X116691571Y-81362000D01*
X116605857Y-81404857D01*
X116563000Y-81447714D01*
X116520142Y-81533428D01*
X116520142Y-81662000D01*
X116563000Y-81747714D01*
X116605857Y-81790571D01*
X116691571Y-81833428D01*
X116948714Y-81833428D01*
X117034428Y-81790571D01*
X117077285Y-81747714D01*
X117120142Y-81662000D01*
X117120142Y-81533428D01*
X117120142Y-82219142D02*
X116520142Y-82219142D01*
X116691571Y-82219142D02*
X116605857Y-82262000D01*
X116563000Y-82304857D01*
X116520142Y-82390571D01*
X116520142Y-82476285D01*
X117120142Y-83462000D02*
X116220142Y-83462000D01*
X116863000Y-83762000D01*
X116220142Y-84062000D01*
X117120142Y-84062000D01*
X117120142Y-84619142D02*
X117077285Y-84533428D01*
X117034428Y-84490571D01*
X116948714Y-84447714D01*
X116691571Y-84447714D01*
X116605857Y-84490571D01*
X116563000Y-84533428D01*
X116520142Y-84619142D01*
X116520142Y-84747714D01*
X116563000Y-84833428D01*
X116605857Y-84876285D01*
X116691571Y-84919142D01*
X116948714Y-84919142D01*
X117034428Y-84876285D01*
X117077285Y-84833428D01*
X117120142Y-84747714D01*
X117120142Y-84619142D01*
X117120142Y-85690571D02*
X116220142Y-85690571D01*
X117077285Y-85690571D02*
X117120142Y-85604857D01*
X117120142Y-85433428D01*
X117077285Y-85347714D01*
X117034428Y-85304857D01*
X116948714Y-85262000D01*
X116691571Y-85262000D01*
X116605857Y-85304857D01*
X116563000Y-85347714D01*
X116520142Y-85433428D01*
X116520142Y-85604857D01*
X116563000Y-85690571D01*
X116520142Y-86504857D02*
X117120142Y-86504857D01*
X116520142Y-86119142D02*
X116991571Y-86119142D01*
X117077285Y-86162000D01*
X117120142Y-86247714D01*
X117120142Y-86376285D01*
X117077285Y-86462000D01*
X117034428Y-86504857D01*
X117120142Y-87062000D02*
X117077285Y-86976285D01*
X116991571Y-86933428D01*
X116220142Y-86933428D01*
X117077285Y-87747714D02*
X117120142Y-87662000D01*
X117120142Y-87490571D01*
X117077285Y-87404857D01*
X116991571Y-87362000D01*
X116648714Y-87362000D01*
X116563000Y-87404857D01*
X116520142Y-87490571D01*
X116520142Y-87662000D01*
X116563000Y-87747714D01*
X116648714Y-87790571D01*
X116734428Y-87790571D01*
X116820142Y-87362000D01*
X116520142Y-88776285D02*
X117120142Y-88990571D01*
X116520142Y-89204857D01*
X116220142Y-89719142D02*
X116220142Y-89804857D01*
X116263000Y-89890571D01*
X116305857Y-89933428D01*
X116391571Y-89976285D01*
X116563000Y-90019142D01*
X116777285Y-90019142D01*
X116948714Y-89976285D01*
X117034428Y-89933428D01*
X117077285Y-89890571D01*
X117120142Y-89804857D01*
X117120142Y-89719142D01*
X117077285Y-89633428D01*
X117034428Y-89590571D01*
X116948714Y-89547714D01*
X116777285Y-89504857D01*
X116563000Y-89504857D01*
X116391571Y-89547714D01*
X116305857Y-89590571D01*
X116263000Y-89633428D01*
X116220142Y-89719142D01*
X117034428Y-90404857D02*
X117077285Y-90447714D01*
X117120142Y-90404857D01*
X117077285Y-90362000D01*
X117034428Y-90404857D01*
X117120142Y-90404857D01*
X116220142Y-91004857D02*
X116220142Y-91090571D01*
X116263000Y-91176285D01*
X116305857Y-91219142D01*
X116391571Y-91262000D01*
X116563000Y-91304857D01*
X116777285Y-91304857D01*
X116948714Y-91262000D01*
X117034428Y-91219142D01*
X117077285Y-91176285D01*
X117120142Y-91090571D01*
X117120142Y-91004857D01*
X117077285Y-90919142D01*
X117034428Y-90876285D01*
X116948714Y-90833428D01*
X116777285Y-90790571D01*
X116563000Y-90790571D01*
X116391571Y-90833428D01*
X116305857Y-90876285D01*
X116263000Y-90919142D01*
X116220142Y-91004857D01*
X117034428Y-91690571D02*
X117077285Y-91733428D01*
X117120142Y-91690571D01*
X117077285Y-91647714D01*
X117034428Y-91690571D01*
X117120142Y-91690571D01*
X116220142Y-92033428D02*
X116220142Y-92590571D01*
X116563000Y-92290571D01*
X116563000Y-92419142D01*
X116605857Y-92504857D01*
X116648714Y-92547714D01*
X116734428Y-92590571D01*
X116948714Y-92590571D01*
X117034428Y-92547714D01*
X117077285Y-92504857D01*
X117120142Y-92419142D01*
X117120142Y-92162000D01*
X117077285Y-92076285D01*
X117034428Y-92033428D01*
X117120142Y-92976285D02*
X116220142Y-92976285D01*
X116563000Y-92976285D02*
X116520142Y-93062000D01*
X116520142Y-93233428D01*
X116563000Y-93319142D01*
X116605857Y-93362000D01*
X116691571Y-93404857D01*
X116948714Y-93404857D01*
X117034428Y-93362000D01*
X117077285Y-93319142D01*
X117120142Y-93233428D01*
X117120142Y-93062000D01*
X117077285Y-92976285D01*
%TO.C,J_2*%
D11*
X137759238Y-76331000D02*
X137806857Y-76307190D01*
X137878285Y-76307190D01*
X137949714Y-76331000D01*
X137997333Y-76378619D01*
X138021142Y-76426238D01*
X138044952Y-76521476D01*
X138044952Y-76592904D01*
X138021142Y-76688142D01*
X137997333Y-76735761D01*
X137949714Y-76783380D01*
X137878285Y-76807190D01*
X137830666Y-76807190D01*
X137759238Y-76783380D01*
X137735428Y-76759571D01*
X137735428Y-76592904D01*
X137830666Y-76592904D01*
X137521142Y-76473857D02*
X137521142Y-76807190D01*
X137521142Y-76521476D02*
X137497333Y-76497666D01*
X137449714Y-76473857D01*
X137378285Y-76473857D01*
X137330666Y-76497666D01*
X137306857Y-76545285D01*
X137306857Y-76807190D01*
X137068761Y-76807190D02*
X137068761Y-76307190D01*
X136949714Y-76307190D01*
X136878285Y-76331000D01*
X136830666Y-76378619D01*
X136806857Y-76426238D01*
X136783047Y-76521476D01*
X136783047Y-76592904D01*
X136806857Y-76688142D01*
X136830666Y-76735761D01*
X136878285Y-76783380D01*
X136949714Y-76807190D01*
X137068761Y-76807190D01*
X138279095Y-79347190D02*
X138279095Y-78847190D01*
X137945761Y-78847190D02*
X137850523Y-78847190D01*
X137802904Y-78871000D01*
X137755285Y-78918619D01*
X137731476Y-79013857D01*
X137731476Y-79180523D01*
X137755285Y-79275761D01*
X137802904Y-79323380D01*
X137850523Y-79347190D01*
X137945761Y-79347190D01*
X137993380Y-79323380D01*
X138041000Y-79275761D01*
X138064809Y-79180523D01*
X138064809Y-79013857D01*
X138041000Y-78918619D01*
X137993380Y-78871000D01*
X137945761Y-78847190D01*
X137541000Y-78894809D02*
X137517190Y-78871000D01*
X137469571Y-78847190D01*
X137350523Y-78847190D01*
X137302904Y-78871000D01*
X137279095Y-78894809D01*
X137255285Y-78942428D01*
X137255285Y-78990047D01*
X137279095Y-79061476D01*
X137564809Y-79347190D01*
X137255285Y-79347190D01*
X137088619Y-78847190D02*
X136779095Y-78847190D01*
X136945761Y-79037666D01*
X136874333Y-79037666D01*
X136826714Y-79061476D01*
X136802904Y-79085285D01*
X136779095Y-79132904D01*
X136779095Y-79251952D01*
X136802904Y-79299571D01*
X136826714Y-79323380D01*
X136874333Y-79347190D01*
X137017190Y-79347190D01*
X137064809Y-79323380D01*
X137088619Y-79299571D01*
X138279095Y-81760190D02*
X138279095Y-81260190D01*
X137945761Y-81260190D02*
X137850523Y-81260190D01*
X137802904Y-81284000D01*
X137755285Y-81331619D01*
X137731476Y-81426857D01*
X137731476Y-81593523D01*
X137755285Y-81688761D01*
X137802904Y-81736380D01*
X137850523Y-81760190D01*
X137945761Y-81760190D01*
X137993380Y-81736380D01*
X138041000Y-81688761D01*
X138064809Y-81593523D01*
X138064809Y-81426857D01*
X138041000Y-81331619D01*
X137993380Y-81284000D01*
X137945761Y-81260190D01*
X137541000Y-81307809D02*
X137517190Y-81284000D01*
X137469571Y-81260190D01*
X137350523Y-81260190D01*
X137302904Y-81284000D01*
X137279095Y-81307809D01*
X137255285Y-81355428D01*
X137255285Y-81403047D01*
X137279095Y-81474476D01*
X137564809Y-81760190D01*
X137255285Y-81760190D01*
X137064809Y-81307809D02*
X137041000Y-81284000D01*
X136993380Y-81260190D01*
X136874333Y-81260190D01*
X136826714Y-81284000D01*
X136802904Y-81307809D01*
X136779095Y-81355428D01*
X136779095Y-81403047D01*
X136802904Y-81474476D01*
X137088619Y-81760190D01*
X136779095Y-81760190D01*
X137985428Y-86967190D02*
X138152095Y-86729095D01*
X138271142Y-86967190D02*
X138271142Y-86467190D01*
X138080666Y-86467190D01*
X138033047Y-86491000D01*
X138009238Y-86514809D01*
X137985428Y-86562428D01*
X137985428Y-86633857D01*
X138009238Y-86681476D01*
X138033047Y-86705285D01*
X138080666Y-86729095D01*
X138271142Y-86729095D01*
X137818761Y-86467190D02*
X137485428Y-86967190D01*
X137485428Y-86467190D02*
X137818761Y-86967190D01*
X137294952Y-86967190D02*
X137294952Y-86467190D01*
X137175904Y-86467190D01*
X137104476Y-86491000D01*
X137056857Y-86538619D01*
X137033047Y-86586238D01*
X137009238Y-86681476D01*
X137009238Y-86752904D01*
X137033047Y-86848142D01*
X137056857Y-86895761D01*
X137104476Y-86943380D01*
X137175904Y-86967190D01*
X137294952Y-86967190D01*
X136699714Y-86467190D02*
X136652095Y-86467190D01*
X136604476Y-86491000D01*
X136580666Y-86514809D01*
X136556857Y-86562428D01*
X136533047Y-86657666D01*
X136533047Y-86776714D01*
X136556857Y-86871952D01*
X136580666Y-86919571D01*
X136604476Y-86943380D01*
X136652095Y-86967190D01*
X136699714Y-86967190D01*
X136747333Y-86943380D01*
X136771142Y-86919571D01*
X136794952Y-86871952D01*
X136818761Y-86776714D01*
X136818761Y-86657666D01*
X136794952Y-86562428D01*
X136771142Y-86514809D01*
X136747333Y-86491000D01*
X136699714Y-86467190D01*
X138410047Y-83800190D02*
X138124333Y-83800190D01*
X138267190Y-84300190D02*
X138267190Y-83800190D01*
X138005285Y-83800190D02*
X137671952Y-84300190D01*
X137671952Y-83800190D02*
X138005285Y-84300190D01*
X137481476Y-84300190D02*
X137481476Y-83800190D01*
X137362428Y-83800190D01*
X137291000Y-83824000D01*
X137243380Y-83871619D01*
X137219571Y-83919238D01*
X137195761Y-84014476D01*
X137195761Y-84085904D01*
X137219571Y-84181142D01*
X137243380Y-84228761D01*
X137291000Y-84276380D01*
X137362428Y-84300190D01*
X137481476Y-84300190D01*
X136886238Y-83800190D02*
X136838619Y-83800190D01*
X136791000Y-83824000D01*
X136767190Y-83847809D01*
X136743380Y-83895428D01*
X136719571Y-83990666D01*
X136719571Y-84109714D01*
X136743380Y-84204952D01*
X136767190Y-84252571D01*
X136791000Y-84276380D01*
X136838619Y-84300190D01*
X136886238Y-84300190D01*
X136933857Y-84276380D01*
X136957666Y-84252571D01*
X136981476Y-84204952D01*
X137005285Y-84109714D01*
X137005285Y-83990666D01*
X136981476Y-83895428D01*
X136957666Y-83847809D01*
X136933857Y-83824000D01*
X136886238Y-83800190D01*
X138279095Y-89507190D02*
X138279095Y-89007190D01*
X137945761Y-89007190D02*
X137850523Y-89007190D01*
X137802904Y-89031000D01*
X137755285Y-89078619D01*
X137731476Y-89173857D01*
X137731476Y-89340523D01*
X137755285Y-89435761D01*
X137802904Y-89483380D01*
X137850523Y-89507190D01*
X137945761Y-89507190D01*
X137993380Y-89483380D01*
X138041000Y-89435761D01*
X138064809Y-89340523D01*
X138064809Y-89173857D01*
X138041000Y-89078619D01*
X137993380Y-89031000D01*
X137945761Y-89007190D01*
X137541000Y-89054809D02*
X137517190Y-89031000D01*
X137469571Y-89007190D01*
X137350523Y-89007190D01*
X137302904Y-89031000D01*
X137279095Y-89054809D01*
X137255285Y-89102428D01*
X137255285Y-89150047D01*
X137279095Y-89221476D01*
X137564809Y-89507190D01*
X137255285Y-89507190D01*
X136779095Y-89507190D02*
X137064809Y-89507190D01*
X136921952Y-89507190D02*
X136921952Y-89007190D01*
X136969571Y-89078619D01*
X137017190Y-89126238D01*
X137064809Y-89150047D01*
X138279095Y-94587190D02*
X138279095Y-94087190D01*
X137945761Y-94087190D02*
X137850523Y-94087190D01*
X137802904Y-94111000D01*
X137755285Y-94158619D01*
X137731476Y-94253857D01*
X137731476Y-94420523D01*
X137755285Y-94515761D01*
X137802904Y-94563380D01*
X137850523Y-94587190D01*
X137945761Y-94587190D01*
X137993380Y-94563380D01*
X138041000Y-94515761D01*
X138064809Y-94420523D01*
X138064809Y-94253857D01*
X138041000Y-94158619D01*
X137993380Y-94111000D01*
X137945761Y-94087190D01*
X137255285Y-94587190D02*
X137541000Y-94587190D01*
X137398142Y-94587190D02*
X137398142Y-94087190D01*
X137445761Y-94158619D01*
X137493380Y-94206238D01*
X137541000Y-94230047D01*
X137017190Y-94587190D02*
X136921952Y-94587190D01*
X136874333Y-94563380D01*
X136850523Y-94539571D01*
X136802904Y-94468142D01*
X136779095Y-94372904D01*
X136779095Y-94182428D01*
X136802904Y-94134809D01*
X136826714Y-94111000D01*
X136874333Y-94087190D01*
X136969571Y-94087190D01*
X137017190Y-94111000D01*
X137041000Y-94134809D01*
X137064809Y-94182428D01*
X137064809Y-94301476D01*
X137041000Y-94349095D01*
X137017190Y-94372904D01*
X136969571Y-94396714D01*
X136874333Y-94396714D01*
X136826714Y-94372904D01*
X136802904Y-94349095D01*
X136779095Y-94301476D01*
X138279095Y-97127190D02*
X138279095Y-96627190D01*
X137945761Y-96627190D02*
X137850523Y-96627190D01*
X137802904Y-96651000D01*
X137755285Y-96698619D01*
X137731476Y-96793857D01*
X137731476Y-96960523D01*
X137755285Y-97055761D01*
X137802904Y-97103380D01*
X137850523Y-97127190D01*
X137945761Y-97127190D01*
X137993380Y-97103380D01*
X138041000Y-97055761D01*
X138064809Y-96960523D01*
X138064809Y-96793857D01*
X138041000Y-96698619D01*
X137993380Y-96651000D01*
X137945761Y-96627190D01*
X137255285Y-97127190D02*
X137541000Y-97127190D01*
X137398142Y-97127190D02*
X137398142Y-96627190D01*
X137445761Y-96698619D01*
X137493380Y-96746238D01*
X137541000Y-96770047D01*
X136969571Y-96841476D02*
X137017190Y-96817666D01*
X137041000Y-96793857D01*
X137064809Y-96746238D01*
X137064809Y-96722428D01*
X137041000Y-96674809D01*
X137017190Y-96651000D01*
X136969571Y-96627190D01*
X136874333Y-96627190D01*
X136826714Y-96651000D01*
X136802904Y-96674809D01*
X136779095Y-96722428D01*
X136779095Y-96746238D01*
X136802904Y-96793857D01*
X136826714Y-96817666D01*
X136874333Y-96841476D01*
X136969571Y-96841476D01*
X137017190Y-96865285D01*
X137041000Y-96889095D01*
X137064809Y-96936714D01*
X137064809Y-97031952D01*
X137041000Y-97079571D01*
X137017190Y-97103380D01*
X136969571Y-97127190D01*
X136874333Y-97127190D01*
X136826714Y-97103380D01*
X136802904Y-97079571D01*
X136779095Y-97031952D01*
X136779095Y-96936714D01*
X136802904Y-96889095D01*
X136826714Y-96865285D01*
X136874333Y-96841476D01*
X138295000Y-99667190D02*
X138295000Y-99167190D01*
X137961666Y-99167190D02*
X137866428Y-99167190D01*
X137818809Y-99191000D01*
X137771190Y-99238619D01*
X137747380Y-99333857D01*
X137747380Y-99500523D01*
X137771190Y-99595761D01*
X137818809Y-99643380D01*
X137866428Y-99667190D01*
X137961666Y-99667190D01*
X138009285Y-99643380D01*
X138056904Y-99595761D01*
X138080714Y-99500523D01*
X138080714Y-99333857D01*
X138056904Y-99238619D01*
X138009285Y-99191000D01*
X137961666Y-99167190D01*
X137295000Y-99167190D02*
X137533095Y-99167190D01*
X137556904Y-99405285D01*
X137533095Y-99381476D01*
X137485476Y-99357666D01*
X137366428Y-99357666D01*
X137318809Y-99381476D01*
X137295000Y-99405285D01*
X137271190Y-99452904D01*
X137271190Y-99571952D01*
X137295000Y-99619571D01*
X137318809Y-99643380D01*
X137366428Y-99667190D01*
X137485476Y-99667190D01*
X137533095Y-99643380D01*
X137556904Y-99619571D01*
X138279095Y-102334190D02*
X138279095Y-101834190D01*
X137945761Y-101834190D02*
X137850523Y-101834190D01*
X137802904Y-101858000D01*
X137755285Y-101905619D01*
X137731476Y-102000857D01*
X137731476Y-102167523D01*
X137755285Y-102262761D01*
X137802904Y-102310380D01*
X137850523Y-102334190D01*
X137945761Y-102334190D01*
X137993380Y-102310380D01*
X138041000Y-102262761D01*
X138064809Y-102167523D01*
X138064809Y-102000857D01*
X138041000Y-101905619D01*
X137993380Y-101858000D01*
X137945761Y-101834190D01*
X137255285Y-102334190D02*
X137541000Y-102334190D01*
X137398142Y-102334190D02*
X137398142Y-101834190D01*
X137445761Y-101905619D01*
X137493380Y-101953238D01*
X137541000Y-101977047D01*
X137088619Y-101834190D02*
X136755285Y-101834190D01*
X136969571Y-102334190D01*
X138279095Y-104747190D02*
X138279095Y-104247190D01*
X137945761Y-104247190D02*
X137850523Y-104247190D01*
X137802904Y-104271000D01*
X137755285Y-104318619D01*
X137731476Y-104413857D01*
X137731476Y-104580523D01*
X137755285Y-104675761D01*
X137802904Y-104723380D01*
X137850523Y-104747190D01*
X137945761Y-104747190D01*
X137993380Y-104723380D01*
X138041000Y-104675761D01*
X138064809Y-104580523D01*
X138064809Y-104413857D01*
X138041000Y-104318619D01*
X137993380Y-104271000D01*
X137945761Y-104247190D01*
X137255285Y-104747190D02*
X137541000Y-104747190D01*
X137398142Y-104747190D02*
X137398142Y-104247190D01*
X137445761Y-104318619D01*
X137493380Y-104366238D01*
X137541000Y-104390047D01*
X136826714Y-104247190D02*
X136921952Y-104247190D01*
X136969571Y-104271000D01*
X136993380Y-104294809D01*
X137041000Y-104366238D01*
X137064809Y-104461476D01*
X137064809Y-104651952D01*
X137041000Y-104699571D01*
X137017190Y-104723380D01*
X136969571Y-104747190D01*
X136874333Y-104747190D01*
X136826714Y-104723380D01*
X136802904Y-104699571D01*
X136779095Y-104651952D01*
X136779095Y-104532904D01*
X136802904Y-104485285D01*
X136826714Y-104461476D01*
X136874333Y-104437666D01*
X136969571Y-104437666D01*
X137017190Y-104461476D01*
X137041000Y-104485285D01*
X137064809Y-104532904D01*
X138295000Y-107287190D02*
X138295000Y-106787190D01*
X137961666Y-106787190D02*
X137866428Y-106787190D01*
X137818809Y-106811000D01*
X137771190Y-106858619D01*
X137747380Y-106953857D01*
X137747380Y-107120523D01*
X137771190Y-107215761D01*
X137818809Y-107263380D01*
X137866428Y-107287190D01*
X137961666Y-107287190D01*
X138009285Y-107263380D01*
X138056904Y-107215761D01*
X138080714Y-107120523D01*
X138080714Y-106953857D01*
X138056904Y-106858619D01*
X138009285Y-106811000D01*
X137961666Y-106787190D01*
X137318809Y-106953857D02*
X137318809Y-107287190D01*
X137437857Y-106763380D02*
X137556904Y-107120523D01*
X137247380Y-107120523D01*
X138295000Y-109954190D02*
X138295000Y-109454190D01*
X137961666Y-109454190D02*
X137866428Y-109454190D01*
X137818809Y-109478000D01*
X137771190Y-109525619D01*
X137747380Y-109620857D01*
X137747380Y-109787523D01*
X137771190Y-109882761D01*
X137818809Y-109930380D01*
X137866428Y-109954190D01*
X137961666Y-109954190D01*
X138009285Y-109930380D01*
X138056904Y-109882761D01*
X138080714Y-109787523D01*
X138080714Y-109620857D01*
X138056904Y-109525619D01*
X138009285Y-109478000D01*
X137961666Y-109454190D01*
X137437857Y-109454190D02*
X137390238Y-109454190D01*
X137342619Y-109478000D01*
X137318809Y-109501809D01*
X137295000Y-109549428D01*
X137271190Y-109644666D01*
X137271190Y-109763714D01*
X137295000Y-109858952D01*
X137318809Y-109906571D01*
X137342619Y-109930380D01*
X137390238Y-109954190D01*
X137437857Y-109954190D01*
X137485476Y-109930380D01*
X137509285Y-109906571D01*
X137533095Y-109858952D01*
X137556904Y-109763714D01*
X137556904Y-109644666D01*
X137533095Y-109549428D01*
X137509285Y-109501809D01*
X137485476Y-109478000D01*
X137437857Y-109454190D01*
X138295000Y-112367190D02*
X138295000Y-111867190D01*
X137961666Y-111867190D02*
X137866428Y-111867190D01*
X137818809Y-111891000D01*
X137771190Y-111938619D01*
X137747380Y-112033857D01*
X137747380Y-112200523D01*
X137771190Y-112295761D01*
X137818809Y-112343380D01*
X137866428Y-112367190D01*
X137961666Y-112367190D01*
X138009285Y-112343380D01*
X138056904Y-112295761D01*
X138080714Y-112200523D01*
X138080714Y-112033857D01*
X138056904Y-111938619D01*
X138009285Y-111891000D01*
X137961666Y-111867190D01*
X137556904Y-111914809D02*
X137533095Y-111891000D01*
X137485476Y-111867190D01*
X137366428Y-111867190D01*
X137318809Y-111891000D01*
X137295000Y-111914809D01*
X137271190Y-111962428D01*
X137271190Y-112010047D01*
X137295000Y-112081476D01*
X137580714Y-112367190D01*
X137271190Y-112367190D01*
X138279095Y-114907190D02*
X138279095Y-114407190D01*
X137945761Y-114407190D02*
X137850523Y-114407190D01*
X137802904Y-114431000D01*
X137755285Y-114478619D01*
X137731476Y-114573857D01*
X137731476Y-114740523D01*
X137755285Y-114835761D01*
X137802904Y-114883380D01*
X137850523Y-114907190D01*
X137945761Y-114907190D01*
X137993380Y-114883380D01*
X138041000Y-114835761D01*
X138064809Y-114740523D01*
X138064809Y-114573857D01*
X138041000Y-114478619D01*
X137993380Y-114431000D01*
X137945761Y-114407190D01*
X137255285Y-114907190D02*
X137541000Y-114907190D01*
X137398142Y-114907190D02*
X137398142Y-114407190D01*
X137445761Y-114478619D01*
X137493380Y-114526238D01*
X137541000Y-114550047D01*
X136802904Y-114407190D02*
X137041000Y-114407190D01*
X137064809Y-114645285D01*
X137041000Y-114621476D01*
X136993380Y-114597666D01*
X136874333Y-114597666D01*
X136826714Y-114621476D01*
X136802904Y-114645285D01*
X136779095Y-114692904D01*
X136779095Y-114811952D01*
X136802904Y-114859571D01*
X136826714Y-114883380D01*
X136874333Y-114907190D01*
X136993380Y-114907190D01*
X137041000Y-114883380D01*
X137064809Y-114859571D01*
X138279095Y-116947190D02*
X137969571Y-116947190D01*
X138136238Y-117137666D01*
X138064809Y-117137666D01*
X138017190Y-117161476D01*
X137993380Y-117185285D01*
X137969571Y-117232904D01*
X137969571Y-117351952D01*
X137993380Y-117399571D01*
X138017190Y-117423380D01*
X138064809Y-117447190D01*
X138207666Y-117447190D01*
X138255285Y-117423380D01*
X138279095Y-117399571D01*
X137755285Y-117399571D02*
X137731476Y-117423380D01*
X137755285Y-117447190D01*
X137779095Y-117423380D01*
X137755285Y-117399571D01*
X137755285Y-117447190D01*
X137564809Y-116947190D02*
X137255285Y-116947190D01*
X137421952Y-117137666D01*
X137350523Y-117137666D01*
X137302904Y-117161476D01*
X137279095Y-117185285D01*
X137255285Y-117232904D01*
X137255285Y-117351952D01*
X137279095Y-117399571D01*
X137302904Y-117423380D01*
X137350523Y-117447190D01*
X137493380Y-117447190D01*
X137541000Y-117423380D01*
X137564809Y-117399571D01*
X137112428Y-116947190D02*
X136945761Y-117447190D01*
X136779095Y-116947190D01*
X138291047Y-122027190D02*
X138124380Y-122527190D01*
X137957714Y-122027190D01*
X137814857Y-122503380D02*
X137767238Y-122527190D01*
X137672000Y-122527190D01*
X137624380Y-122503380D01*
X137600571Y-122455761D01*
X137600571Y-122431952D01*
X137624380Y-122384333D01*
X137672000Y-122360523D01*
X137743428Y-122360523D01*
X137791047Y-122336714D01*
X137814857Y-122289095D01*
X137814857Y-122265285D01*
X137791047Y-122217666D01*
X137743428Y-122193857D01*
X137672000Y-122193857D01*
X137624380Y-122217666D01*
X137886238Y-124591000D02*
X137933857Y-124567190D01*
X138005285Y-124567190D01*
X138076714Y-124591000D01*
X138124333Y-124638619D01*
X138148142Y-124686238D01*
X138171952Y-124781476D01*
X138171952Y-124852904D01*
X138148142Y-124948142D01*
X138124333Y-124995761D01*
X138076714Y-125043380D01*
X138005285Y-125067190D01*
X137957666Y-125067190D01*
X137886238Y-125043380D01*
X137862428Y-125019571D01*
X137862428Y-124852904D01*
X137957666Y-124852904D01*
X137648142Y-124733857D02*
X137648142Y-125067190D01*
X137648142Y-124781476D02*
X137624333Y-124757666D01*
X137576714Y-124733857D01*
X137505285Y-124733857D01*
X137457666Y-124757666D01*
X137433857Y-124805285D01*
X137433857Y-125067190D01*
X137195761Y-125067190D02*
X137195761Y-124567190D01*
X137076714Y-124567190D01*
X137005285Y-124591000D01*
X136957666Y-124638619D01*
X136933857Y-124686238D01*
X136910047Y-124781476D01*
X136910047Y-124852904D01*
X136933857Y-124948142D01*
X136957666Y-124995761D01*
X137005285Y-125043380D01*
X137076714Y-125067190D01*
X137195761Y-125067190D01*
%TO.C,J_1*%
X87340238Y-76077000D02*
X87387857Y-76053190D01*
X87459285Y-76053190D01*
X87530714Y-76077000D01*
X87578333Y-76124619D01*
X87602142Y-76172238D01*
X87625952Y-76267476D01*
X87625952Y-76338904D01*
X87602142Y-76434142D01*
X87578333Y-76481761D01*
X87530714Y-76529380D01*
X87459285Y-76553190D01*
X87411666Y-76553190D01*
X87340238Y-76529380D01*
X87316428Y-76505571D01*
X87316428Y-76338904D01*
X87411666Y-76338904D01*
X87102142Y-76219857D02*
X87102142Y-76553190D01*
X87102142Y-76267476D02*
X87078333Y-76243666D01*
X87030714Y-76219857D01*
X86959285Y-76219857D01*
X86911666Y-76243666D01*
X86887857Y-76291285D01*
X86887857Y-76553190D01*
X86649761Y-76553190D02*
X86649761Y-76053190D01*
X86530714Y-76053190D01*
X86459285Y-76077000D01*
X86411666Y-76124619D01*
X86387857Y-76172238D01*
X86364047Y-76267476D01*
X86364047Y-76338904D01*
X86387857Y-76434142D01*
X86411666Y-76481761D01*
X86459285Y-76529380D01*
X86530714Y-76553190D01*
X86649761Y-76553190D01*
X87860095Y-78593190D02*
X87550571Y-78593190D01*
X87717238Y-78783666D01*
X87645809Y-78783666D01*
X87598190Y-78807476D01*
X87574380Y-78831285D01*
X87550571Y-78878904D01*
X87550571Y-78997952D01*
X87574380Y-79045571D01*
X87598190Y-79069380D01*
X87645809Y-79093190D01*
X87788666Y-79093190D01*
X87836285Y-79069380D01*
X87860095Y-79045571D01*
X87336285Y-79045571D02*
X87312476Y-79069380D01*
X87336285Y-79093190D01*
X87360095Y-79069380D01*
X87336285Y-79045571D01*
X87336285Y-79093190D01*
X87145809Y-78593190D02*
X86836285Y-78593190D01*
X87002952Y-78783666D01*
X86931523Y-78783666D01*
X86883904Y-78807476D01*
X86860095Y-78831285D01*
X86836285Y-78878904D01*
X86836285Y-78997952D01*
X86860095Y-79045571D01*
X86883904Y-79069380D01*
X86931523Y-79093190D01*
X87074380Y-79093190D01*
X87122000Y-79069380D01*
X87145809Y-79045571D01*
X86693428Y-78593190D02*
X86526761Y-79093190D01*
X86360095Y-78593190D01*
X87074333Y-81498285D02*
X86907666Y-81498285D01*
X86836238Y-81760190D02*
X87074333Y-81760190D01*
X87074333Y-81260190D01*
X86836238Y-81260190D01*
X86621952Y-81426857D02*
X86621952Y-81760190D01*
X86621952Y-81474476D02*
X86598142Y-81450666D01*
X86550523Y-81426857D01*
X86479095Y-81426857D01*
X86431476Y-81450666D01*
X86407666Y-81498285D01*
X86407666Y-81760190D01*
X89959428Y-84149380D02*
X89888000Y-84173190D01*
X89768952Y-84173190D01*
X89721333Y-84149380D01*
X89697523Y-84125571D01*
X89673714Y-84077952D01*
X89673714Y-84030333D01*
X89697523Y-83982714D01*
X89721333Y-83958904D01*
X89768952Y-83935095D01*
X89864190Y-83911285D01*
X89911809Y-83887476D01*
X89935619Y-83863666D01*
X89959428Y-83816047D01*
X89959428Y-83768428D01*
X89935619Y-83720809D01*
X89911809Y-83697000D01*
X89864190Y-83673190D01*
X89745142Y-83673190D01*
X89673714Y-83697000D01*
X89268952Y-84149380D02*
X89316571Y-84173190D01*
X89411809Y-84173190D01*
X89459428Y-84149380D01*
X89483238Y-84101761D01*
X89483238Y-83911285D01*
X89459428Y-83863666D01*
X89411809Y-83839857D01*
X89316571Y-83839857D01*
X89268952Y-83863666D01*
X89245142Y-83911285D01*
X89245142Y-83958904D01*
X89483238Y-84006523D01*
X89030857Y-83839857D02*
X89030857Y-84173190D01*
X89030857Y-83887476D02*
X89007047Y-83863666D01*
X88959428Y-83839857D01*
X88888000Y-83839857D01*
X88840380Y-83863666D01*
X88816571Y-83911285D01*
X88816571Y-84173190D01*
X88602285Y-84149380D02*
X88554666Y-84173190D01*
X88459428Y-84173190D01*
X88411809Y-84149380D01*
X88388000Y-84101761D01*
X88388000Y-84077952D01*
X88411809Y-84030333D01*
X88459428Y-84006523D01*
X88530857Y-84006523D01*
X88578476Y-83982714D01*
X88602285Y-83935095D01*
X88602285Y-83911285D01*
X88578476Y-83863666D01*
X88530857Y-83839857D01*
X88459428Y-83839857D01*
X88411809Y-83863666D01*
X88102285Y-84173190D02*
X88149904Y-84149380D01*
X88173714Y-84125571D01*
X88197523Y-84077952D01*
X88197523Y-83935095D01*
X88173714Y-83887476D01*
X88149904Y-83863666D01*
X88102285Y-83839857D01*
X88030857Y-83839857D01*
X87983238Y-83863666D01*
X87959428Y-83887476D01*
X87935619Y-83935095D01*
X87935619Y-84077952D01*
X87959428Y-84125571D01*
X87983238Y-84149380D01*
X88030857Y-84173190D01*
X88102285Y-84173190D01*
X87721333Y-84173190D02*
X87721333Y-83839857D01*
X87721333Y-83935095D02*
X87697523Y-83887476D01*
X87673714Y-83863666D01*
X87626095Y-83839857D01*
X87578476Y-83839857D01*
X87102285Y-83673190D02*
X86935619Y-84173190D01*
X86768952Y-83673190D01*
X86602285Y-84173190D02*
X86602285Y-83673190D01*
X86411809Y-83673190D01*
X86364190Y-83697000D01*
X86340380Y-83720809D01*
X86316571Y-83768428D01*
X86316571Y-83839857D01*
X86340380Y-83887476D01*
X86364190Y-83911285D01*
X86411809Y-83935095D01*
X86602285Y-83935095D01*
X89971333Y-86816380D02*
X89899904Y-86840190D01*
X89780857Y-86840190D01*
X89733238Y-86816380D01*
X89709428Y-86792571D01*
X89685619Y-86744952D01*
X89685619Y-86697333D01*
X89709428Y-86649714D01*
X89733238Y-86625904D01*
X89780857Y-86602095D01*
X89876095Y-86578285D01*
X89923714Y-86554476D01*
X89947523Y-86530666D01*
X89971333Y-86483047D01*
X89971333Y-86435428D01*
X89947523Y-86387809D01*
X89923714Y-86364000D01*
X89876095Y-86340190D01*
X89757047Y-86340190D01*
X89685619Y-86364000D01*
X89280857Y-86816380D02*
X89328476Y-86840190D01*
X89423714Y-86840190D01*
X89471333Y-86816380D01*
X89495142Y-86768761D01*
X89495142Y-86578285D01*
X89471333Y-86530666D01*
X89423714Y-86506857D01*
X89328476Y-86506857D01*
X89280857Y-86530666D01*
X89257047Y-86578285D01*
X89257047Y-86625904D01*
X89495142Y-86673523D01*
X89042761Y-86506857D02*
X89042761Y-86840190D01*
X89042761Y-86554476D02*
X89018952Y-86530666D01*
X88971333Y-86506857D01*
X88899904Y-86506857D01*
X88852285Y-86530666D01*
X88828476Y-86578285D01*
X88828476Y-86840190D01*
X88614190Y-86816380D02*
X88566571Y-86840190D01*
X88471333Y-86840190D01*
X88423714Y-86816380D01*
X88399904Y-86768761D01*
X88399904Y-86744952D01*
X88423714Y-86697333D01*
X88471333Y-86673523D01*
X88542761Y-86673523D01*
X88590380Y-86649714D01*
X88614190Y-86602095D01*
X88614190Y-86578285D01*
X88590380Y-86530666D01*
X88542761Y-86506857D01*
X88471333Y-86506857D01*
X88423714Y-86530666D01*
X88114190Y-86840190D02*
X88161809Y-86816380D01*
X88185619Y-86792571D01*
X88209428Y-86744952D01*
X88209428Y-86602095D01*
X88185619Y-86554476D01*
X88161809Y-86530666D01*
X88114190Y-86506857D01*
X88042761Y-86506857D01*
X87995142Y-86530666D01*
X87971333Y-86554476D01*
X87947523Y-86602095D01*
X87947523Y-86744952D01*
X87971333Y-86792571D01*
X87995142Y-86816380D01*
X88042761Y-86840190D01*
X88114190Y-86840190D01*
X87733238Y-86840190D02*
X87733238Y-86506857D01*
X87733238Y-86602095D02*
X87709428Y-86554476D01*
X87685619Y-86530666D01*
X87638000Y-86506857D01*
X87590380Y-86506857D01*
X87114190Y-86340190D02*
X86947523Y-86840190D01*
X86780857Y-86340190D01*
X86614190Y-86840190D02*
X86614190Y-86340190D01*
X86328476Y-86840190D01*
X86328476Y-86340190D01*
X87733095Y-89253190D02*
X87733095Y-88753190D01*
X87399761Y-88753190D02*
X87304523Y-88753190D01*
X87256904Y-88777000D01*
X87209285Y-88824619D01*
X87185476Y-88919857D01*
X87185476Y-89086523D01*
X87209285Y-89181761D01*
X87256904Y-89229380D01*
X87304523Y-89253190D01*
X87399761Y-89253190D01*
X87447380Y-89229380D01*
X87495000Y-89181761D01*
X87518809Y-89086523D01*
X87518809Y-88919857D01*
X87495000Y-88824619D01*
X87447380Y-88777000D01*
X87399761Y-88753190D01*
X87018809Y-88753190D02*
X86709285Y-88753190D01*
X86875952Y-88943666D01*
X86804523Y-88943666D01*
X86756904Y-88967476D01*
X86733095Y-88991285D01*
X86709285Y-89038904D01*
X86709285Y-89157952D01*
X86733095Y-89205571D01*
X86756904Y-89229380D01*
X86804523Y-89253190D01*
X86947380Y-89253190D01*
X86995000Y-89229380D01*
X87018809Y-89205571D01*
X86280714Y-88919857D02*
X86280714Y-89253190D01*
X86399761Y-88729380D02*
X86518809Y-89086523D01*
X86209285Y-89086523D01*
X87733095Y-91793190D02*
X87733095Y-91293190D01*
X87399761Y-91293190D02*
X87304523Y-91293190D01*
X87256904Y-91317000D01*
X87209285Y-91364619D01*
X87185476Y-91459857D01*
X87185476Y-91626523D01*
X87209285Y-91721761D01*
X87256904Y-91769380D01*
X87304523Y-91793190D01*
X87399761Y-91793190D01*
X87447380Y-91769380D01*
X87495000Y-91721761D01*
X87518809Y-91626523D01*
X87518809Y-91459857D01*
X87495000Y-91364619D01*
X87447380Y-91317000D01*
X87399761Y-91293190D01*
X87018809Y-91293190D02*
X86709285Y-91293190D01*
X86875952Y-91483666D01*
X86804523Y-91483666D01*
X86756904Y-91507476D01*
X86733095Y-91531285D01*
X86709285Y-91578904D01*
X86709285Y-91697952D01*
X86733095Y-91745571D01*
X86756904Y-91769380D01*
X86804523Y-91793190D01*
X86947380Y-91793190D01*
X86995000Y-91769380D01*
X87018809Y-91745571D01*
X86256904Y-91293190D02*
X86495000Y-91293190D01*
X86518809Y-91531285D01*
X86495000Y-91507476D01*
X86447380Y-91483666D01*
X86328333Y-91483666D01*
X86280714Y-91507476D01*
X86256904Y-91531285D01*
X86233095Y-91578904D01*
X86233095Y-91697952D01*
X86256904Y-91745571D01*
X86280714Y-91769380D01*
X86328333Y-91793190D01*
X86447380Y-91793190D01*
X86495000Y-91769380D01*
X86518809Y-91745571D01*
X87733095Y-94333190D02*
X87733095Y-93833190D01*
X87399761Y-93833190D02*
X87304523Y-93833190D01*
X87256904Y-93857000D01*
X87209285Y-93904619D01*
X87185476Y-93999857D01*
X87185476Y-94166523D01*
X87209285Y-94261761D01*
X87256904Y-94309380D01*
X87304523Y-94333190D01*
X87399761Y-94333190D01*
X87447380Y-94309380D01*
X87495000Y-94261761D01*
X87518809Y-94166523D01*
X87518809Y-93999857D01*
X87495000Y-93904619D01*
X87447380Y-93857000D01*
X87399761Y-93833190D01*
X87018809Y-93833190D02*
X86709285Y-93833190D01*
X86875952Y-94023666D01*
X86804523Y-94023666D01*
X86756904Y-94047476D01*
X86733095Y-94071285D01*
X86709285Y-94118904D01*
X86709285Y-94237952D01*
X86733095Y-94285571D01*
X86756904Y-94309380D01*
X86804523Y-94333190D01*
X86947380Y-94333190D01*
X86995000Y-94309380D01*
X87018809Y-94285571D01*
X86518809Y-93880809D02*
X86495000Y-93857000D01*
X86447380Y-93833190D01*
X86328333Y-93833190D01*
X86280714Y-93857000D01*
X86256904Y-93880809D01*
X86233095Y-93928428D01*
X86233095Y-93976047D01*
X86256904Y-94047476D01*
X86542619Y-94333190D01*
X86233095Y-94333190D01*
X87733095Y-99413190D02*
X87733095Y-98913190D01*
X87399761Y-98913190D02*
X87304523Y-98913190D01*
X87256904Y-98937000D01*
X87209285Y-98984619D01*
X87185476Y-99079857D01*
X87185476Y-99246523D01*
X87209285Y-99341761D01*
X87256904Y-99389380D01*
X87304523Y-99413190D01*
X87399761Y-99413190D01*
X87447380Y-99389380D01*
X87495000Y-99341761D01*
X87518809Y-99246523D01*
X87518809Y-99079857D01*
X87495000Y-98984619D01*
X87447380Y-98937000D01*
X87399761Y-98913190D01*
X86995000Y-98960809D02*
X86971190Y-98937000D01*
X86923571Y-98913190D01*
X86804523Y-98913190D01*
X86756904Y-98937000D01*
X86733095Y-98960809D01*
X86709285Y-99008428D01*
X86709285Y-99056047D01*
X86733095Y-99127476D01*
X87018809Y-99413190D01*
X86709285Y-99413190D01*
X86256904Y-98913190D02*
X86495000Y-98913190D01*
X86518809Y-99151285D01*
X86495000Y-99127476D01*
X86447380Y-99103666D01*
X86328333Y-99103666D01*
X86280714Y-99127476D01*
X86256904Y-99151285D01*
X86233095Y-99198904D01*
X86233095Y-99317952D01*
X86256904Y-99365571D01*
X86280714Y-99389380D01*
X86328333Y-99413190D01*
X86447380Y-99413190D01*
X86495000Y-99389380D01*
X86518809Y-99365571D01*
X87860095Y-114780190D02*
X87860095Y-114280190D01*
X87526761Y-114280190D02*
X87431523Y-114280190D01*
X87383904Y-114304000D01*
X87336285Y-114351619D01*
X87312476Y-114446857D01*
X87312476Y-114613523D01*
X87336285Y-114708761D01*
X87383904Y-114756380D01*
X87431523Y-114780190D01*
X87526761Y-114780190D01*
X87574380Y-114756380D01*
X87622000Y-114708761D01*
X87645809Y-114613523D01*
X87645809Y-114446857D01*
X87622000Y-114351619D01*
X87574380Y-114304000D01*
X87526761Y-114280190D01*
X86836285Y-114780190D02*
X87122000Y-114780190D01*
X86979142Y-114780190D02*
X86979142Y-114280190D01*
X87026761Y-114351619D01*
X87074380Y-114399238D01*
X87122000Y-114423047D01*
X86669619Y-114280190D02*
X86360095Y-114280190D01*
X86526761Y-114470666D01*
X86455333Y-114470666D01*
X86407714Y-114494476D01*
X86383904Y-114518285D01*
X86360095Y-114565904D01*
X86360095Y-114684952D01*
X86383904Y-114732571D01*
X86407714Y-114756380D01*
X86455333Y-114780190D01*
X86598190Y-114780190D01*
X86645809Y-114756380D01*
X86669619Y-114732571D01*
X90236428Y-117147952D02*
X90236428Y-116747952D01*
X90045952Y-117147952D02*
X90045952Y-116747952D01*
X89912619Y-117033666D01*
X89779285Y-116747952D01*
X89779285Y-117147952D01*
X89588809Y-116747952D02*
X89588809Y-117071761D01*
X89569761Y-117109857D01*
X89550714Y-117128904D01*
X89512619Y-117147952D01*
X89436428Y-117147952D01*
X89398333Y-117128904D01*
X89379285Y-117109857D01*
X89360238Y-117071761D01*
X89360238Y-116747952D01*
X88884047Y-117128904D02*
X88826904Y-117147952D01*
X88731666Y-117147952D01*
X88693571Y-117128904D01*
X88674523Y-117109857D01*
X88655476Y-117071761D01*
X88655476Y-117033666D01*
X88674523Y-116995571D01*
X88693571Y-116976523D01*
X88731666Y-116957476D01*
X88807857Y-116938428D01*
X88845952Y-116919380D01*
X88865000Y-116900333D01*
X88884047Y-116862238D01*
X88884047Y-116824142D01*
X88865000Y-116786047D01*
X88845952Y-116767000D01*
X88807857Y-116747952D01*
X88712619Y-116747952D01*
X88655476Y-116767000D01*
X88484047Y-117147952D02*
X88484047Y-116747952D01*
X88388809Y-116747952D01*
X88331666Y-116767000D01*
X88293571Y-116805095D01*
X88274523Y-116843190D01*
X88255476Y-116919380D01*
X88255476Y-116976523D01*
X88274523Y-117052714D01*
X88293571Y-117090809D01*
X88331666Y-117128904D01*
X88388809Y-117147952D01*
X88484047Y-117147952D01*
X88007857Y-116747952D02*
X87931666Y-116747952D01*
X87893571Y-116767000D01*
X87855476Y-116805095D01*
X87836428Y-116881285D01*
X87836428Y-117014619D01*
X87855476Y-117090809D01*
X87893571Y-117128904D01*
X87931666Y-117147952D01*
X88007857Y-117147952D01*
X88045952Y-117128904D01*
X88084047Y-117090809D01*
X88103095Y-117014619D01*
X88103095Y-116881285D01*
X88084047Y-116805095D01*
X88045952Y-116767000D01*
X88007857Y-116747952D01*
X87379285Y-116728904D02*
X87722142Y-117243190D01*
X87265000Y-117128904D02*
X87207857Y-117147952D01*
X87112619Y-117147952D01*
X87074523Y-117128904D01*
X87055476Y-117109857D01*
X87036428Y-117071761D01*
X87036428Y-117033666D01*
X87055476Y-116995571D01*
X87074523Y-116976523D01*
X87112619Y-116957476D01*
X87188809Y-116938428D01*
X87226904Y-116919380D01*
X87245952Y-116900333D01*
X87265000Y-116862238D01*
X87265000Y-116824142D01*
X87245952Y-116786047D01*
X87226904Y-116767000D01*
X87188809Y-116747952D01*
X87093571Y-116747952D01*
X87036428Y-116767000D01*
X86884047Y-117033666D02*
X86693571Y-117033666D01*
X86922142Y-117147952D02*
X86788809Y-116747952D01*
X86655476Y-117147952D01*
X86445952Y-116747952D02*
X86369761Y-116747952D01*
X86331666Y-116767000D01*
X86293571Y-116805095D01*
X86274523Y-116881285D01*
X86274523Y-117014619D01*
X86293571Y-117090809D01*
X86331666Y-117128904D01*
X86369761Y-117147952D01*
X86445952Y-117147952D01*
X86484047Y-117128904D01*
X86522142Y-117090809D01*
X86541190Y-117014619D01*
X86541190Y-116881285D01*
X86522142Y-116805095D01*
X86484047Y-116767000D01*
X86445952Y-116747952D01*
X87340238Y-121797000D02*
X87387857Y-121773190D01*
X87459285Y-121773190D01*
X87530714Y-121797000D01*
X87578333Y-121844619D01*
X87602142Y-121892238D01*
X87625952Y-121987476D01*
X87625952Y-122058904D01*
X87602142Y-122154142D01*
X87578333Y-122201761D01*
X87530714Y-122249380D01*
X87459285Y-122273190D01*
X87411666Y-122273190D01*
X87340238Y-122249380D01*
X87316428Y-122225571D01*
X87316428Y-122058904D01*
X87411666Y-122058904D01*
X87102142Y-121939857D02*
X87102142Y-122273190D01*
X87102142Y-121987476D02*
X87078333Y-121963666D01*
X87030714Y-121939857D01*
X86959285Y-121939857D01*
X86911666Y-121963666D01*
X86887857Y-122011285D01*
X86887857Y-122273190D01*
X86649761Y-122273190D02*
X86649761Y-121773190D01*
X86530714Y-121773190D01*
X86459285Y-121797000D01*
X86411666Y-121844619D01*
X86387857Y-121892238D01*
X86364047Y-121987476D01*
X86364047Y-122058904D01*
X86387857Y-122154142D01*
X86411666Y-122201761D01*
X86459285Y-122249380D01*
X86530714Y-122273190D01*
X86649761Y-122273190D01*
X87487047Y-124567190D02*
X87320380Y-125067190D01*
X87153714Y-124567190D01*
X86772761Y-125067190D02*
X86772761Y-124567190D01*
X86772761Y-125043380D02*
X86820380Y-125067190D01*
X86915619Y-125067190D01*
X86963238Y-125043380D01*
X86987047Y-125019571D01*
X87010857Y-124971952D01*
X87010857Y-124829095D01*
X86987047Y-124781476D01*
X86963238Y-124757666D01*
X86915619Y-124733857D01*
X86820380Y-124733857D01*
X86772761Y-124757666D01*
X86320380Y-125067190D02*
X86320380Y-124567190D01*
X86320380Y-125043380D02*
X86368000Y-125067190D01*
X86463238Y-125067190D01*
X86510857Y-125043380D01*
X86534666Y-125019571D01*
X86558476Y-124971952D01*
X86558476Y-124829095D01*
X86534666Y-124781476D01*
X86510857Y-124757666D01*
X86463238Y-124733857D01*
X86368000Y-124733857D01*
X86320380Y-124757666D01*
X87733095Y-96873190D02*
X87733095Y-96373190D01*
X87399761Y-96373190D02*
X87304523Y-96373190D01*
X87256904Y-96397000D01*
X87209285Y-96444619D01*
X87185476Y-96539857D01*
X87185476Y-96706523D01*
X87209285Y-96801761D01*
X87256904Y-96849380D01*
X87304523Y-96873190D01*
X87399761Y-96873190D01*
X87447380Y-96849380D01*
X87495000Y-96801761D01*
X87518809Y-96706523D01*
X87518809Y-96539857D01*
X87495000Y-96444619D01*
X87447380Y-96397000D01*
X87399761Y-96373190D01*
X87018809Y-96373190D02*
X86709285Y-96373190D01*
X86875952Y-96563666D01*
X86804523Y-96563666D01*
X86756904Y-96587476D01*
X86733095Y-96611285D01*
X86709285Y-96658904D01*
X86709285Y-96777952D01*
X86733095Y-96825571D01*
X86756904Y-96849380D01*
X86804523Y-96873190D01*
X86947380Y-96873190D01*
X86995000Y-96849380D01*
X87018809Y-96825571D01*
X86542619Y-96373190D02*
X86233095Y-96373190D01*
X86399761Y-96563666D01*
X86328333Y-96563666D01*
X86280714Y-96587476D01*
X86256904Y-96611285D01*
X86233095Y-96658904D01*
X86233095Y-96777952D01*
X86256904Y-96825571D01*
X86280714Y-96849380D01*
X86328333Y-96873190D01*
X86471190Y-96873190D01*
X86518809Y-96849380D01*
X86542619Y-96825571D01*
X87733095Y-101953190D02*
X87733095Y-101453190D01*
X87399761Y-101453190D02*
X87304523Y-101453190D01*
X87256904Y-101477000D01*
X87209285Y-101524619D01*
X87185476Y-101619857D01*
X87185476Y-101786523D01*
X87209285Y-101881761D01*
X87256904Y-101929380D01*
X87304523Y-101953190D01*
X87399761Y-101953190D01*
X87447380Y-101929380D01*
X87495000Y-101881761D01*
X87518809Y-101786523D01*
X87518809Y-101619857D01*
X87495000Y-101524619D01*
X87447380Y-101477000D01*
X87399761Y-101453190D01*
X86995000Y-101500809D02*
X86971190Y-101477000D01*
X86923571Y-101453190D01*
X86804523Y-101453190D01*
X86756904Y-101477000D01*
X86733095Y-101500809D01*
X86709285Y-101548428D01*
X86709285Y-101596047D01*
X86733095Y-101667476D01*
X87018809Y-101953190D01*
X86709285Y-101953190D01*
X86280714Y-101453190D02*
X86375952Y-101453190D01*
X86423571Y-101477000D01*
X86447380Y-101500809D01*
X86495000Y-101572238D01*
X86518809Y-101667476D01*
X86518809Y-101857952D01*
X86495000Y-101905571D01*
X86471190Y-101929380D01*
X86423571Y-101953190D01*
X86328333Y-101953190D01*
X86280714Y-101929380D01*
X86256904Y-101905571D01*
X86233095Y-101857952D01*
X86233095Y-101738904D01*
X86256904Y-101691285D01*
X86280714Y-101667476D01*
X86328333Y-101643666D01*
X86423571Y-101643666D01*
X86471190Y-101667476D01*
X86495000Y-101691285D01*
X86518809Y-101738904D01*
X87733095Y-104493190D02*
X87733095Y-103993190D01*
X87399761Y-103993190D02*
X87304523Y-103993190D01*
X87256904Y-104017000D01*
X87209285Y-104064619D01*
X87185476Y-104159857D01*
X87185476Y-104326523D01*
X87209285Y-104421761D01*
X87256904Y-104469380D01*
X87304523Y-104493190D01*
X87399761Y-104493190D01*
X87447380Y-104469380D01*
X87495000Y-104421761D01*
X87518809Y-104326523D01*
X87518809Y-104159857D01*
X87495000Y-104064619D01*
X87447380Y-104017000D01*
X87399761Y-103993190D01*
X86995000Y-104040809D02*
X86971190Y-104017000D01*
X86923571Y-103993190D01*
X86804523Y-103993190D01*
X86756904Y-104017000D01*
X86733095Y-104040809D01*
X86709285Y-104088428D01*
X86709285Y-104136047D01*
X86733095Y-104207476D01*
X87018809Y-104493190D01*
X86709285Y-104493190D01*
X86542619Y-103993190D02*
X86209285Y-103993190D01*
X86423571Y-104493190D01*
X87733095Y-107033190D02*
X87733095Y-106533190D01*
X87399761Y-106533190D02*
X87304523Y-106533190D01*
X87256904Y-106557000D01*
X87209285Y-106604619D01*
X87185476Y-106699857D01*
X87185476Y-106866523D01*
X87209285Y-106961761D01*
X87256904Y-107009380D01*
X87304523Y-107033190D01*
X87399761Y-107033190D01*
X87447380Y-107009380D01*
X87495000Y-106961761D01*
X87518809Y-106866523D01*
X87518809Y-106699857D01*
X87495000Y-106604619D01*
X87447380Y-106557000D01*
X87399761Y-106533190D01*
X86709285Y-107033190D02*
X86995000Y-107033190D01*
X86852142Y-107033190D02*
X86852142Y-106533190D01*
X86899761Y-106604619D01*
X86947380Y-106652238D01*
X86995000Y-106676047D01*
X86280714Y-106699857D02*
X86280714Y-107033190D01*
X86399761Y-106509380D02*
X86518809Y-106866523D01*
X86209285Y-106866523D01*
X87733095Y-109573190D02*
X87733095Y-109073190D01*
X87399761Y-109073190D02*
X87304523Y-109073190D01*
X87256904Y-109097000D01*
X87209285Y-109144619D01*
X87185476Y-109239857D01*
X87185476Y-109406523D01*
X87209285Y-109501761D01*
X87256904Y-109549380D01*
X87304523Y-109573190D01*
X87399761Y-109573190D01*
X87447380Y-109549380D01*
X87495000Y-109501761D01*
X87518809Y-109406523D01*
X87518809Y-109239857D01*
X87495000Y-109144619D01*
X87447380Y-109097000D01*
X87399761Y-109073190D01*
X86709285Y-109573190D02*
X86995000Y-109573190D01*
X86852142Y-109573190D02*
X86852142Y-109073190D01*
X86899761Y-109144619D01*
X86947380Y-109192238D01*
X86995000Y-109216047D01*
X86518809Y-109120809D02*
X86495000Y-109097000D01*
X86447380Y-109073190D01*
X86328333Y-109073190D01*
X86280714Y-109097000D01*
X86256904Y-109120809D01*
X86233095Y-109168428D01*
X86233095Y-109216047D01*
X86256904Y-109287476D01*
X86542619Y-109573190D01*
X86233095Y-109573190D01*
%TD*%
M02*
