%TF.GenerationSoftware,KiCad,Pcbnew,(5.1.7)-1*%
%TF.CreationDate,2020-11-24T16:35:41-08:00*%
%TF.ProjectId,esp32_sensor,65737033-325f-4736-956e-736f722e6b69,v0.0.2*%
%TF.SameCoordinates,Original*%
%TF.FileFunction,Legend,Top*%
%TF.FilePolarity,Positive*%
%FSLAX46Y46*%
G04 Gerber Fmt 4.6, Leading zero omitted, Abs format (unit mm)*
G04 Created by KiCad (PCBNEW (5.1.7)-1) date 2020-11-24 16:35:41*
%MOMM*%
%LPD*%
G01*
G04 APERTURE LIST*
%ADD10C,0.120000*%
%ADD11C,0.127000*%
%ADD12C,0.152400*%
%ADD13C,0.203200*%
%ADD14C,0.100000*%
%ADD15C,0.200000*%
%ADD16C,0.070000*%
%ADD17C,0.015000*%
%ADD18C,0.150000*%
%ADD19C,0.080000*%
G04 APERTURE END LIST*
D10*
%TO.C,J_PW_2*%
X98866000Y-128457000D02*
X98866000Y-125797000D01*
X96266000Y-128457000D02*
X98866000Y-128457000D01*
X96266000Y-125797000D02*
X98866000Y-125797000D01*
X96266000Y-128457000D02*
X96266000Y-125797000D01*
X94996000Y-128457000D02*
X93666000Y-128457000D01*
X93666000Y-128457000D02*
X93666000Y-127127000D01*
%TO.C,U_ESP_1*%
X115467000Y-75010000D02*
X115087000Y-75010000D01*
X115467000Y-68590000D02*
X115467000Y-75010000D01*
X133707000Y-68590000D02*
X133707000Y-75010000D01*
X115467000Y-68590000D02*
X133707000Y-68590000D01*
X133707000Y-94335000D02*
X132707000Y-94335000D01*
X133707000Y-93555000D02*
X133707000Y-94335000D01*
X115467000Y-94335000D02*
X116467000Y-94335000D01*
X115467000Y-93555000D02*
X115467000Y-94335000D01*
D11*
%TO.C,C_ESP_1*%
X102166000Y-79017000D02*
X102166000Y-78717000D01*
X103066000Y-79017000D02*
X103066000Y-78717000D01*
D10*
%TO.C,J_7*%
X87443000Y-108525000D02*
X87443000Y-111185000D01*
X90043000Y-108525000D02*
X87443000Y-108525000D01*
X90043000Y-111185000D02*
X87443000Y-111185000D01*
X90043000Y-108525000D02*
X90043000Y-111185000D01*
X91313000Y-108525000D02*
X92643000Y-108525000D01*
X92643000Y-108525000D02*
X92643000Y-109855000D01*
%TO.C,J_6*%
X92643000Y-107375000D02*
X92643000Y-104715000D01*
X90043000Y-107375000D02*
X92643000Y-107375000D01*
X90043000Y-104715000D02*
X92643000Y-104715000D01*
X90043000Y-107375000D02*
X90043000Y-104715000D01*
X88773000Y-107375000D02*
X87443000Y-107375000D01*
X87443000Y-107375000D02*
X87443000Y-106045000D01*
%TO.C,J_5*%
X87443000Y-100905000D02*
X87443000Y-103565000D01*
X90043000Y-100905000D02*
X87443000Y-100905000D01*
X90043000Y-103565000D02*
X87443000Y-103565000D01*
X90043000Y-100905000D02*
X90043000Y-103565000D01*
X91313000Y-100905000D02*
X92643000Y-100905000D01*
X92643000Y-100905000D02*
X92643000Y-102235000D01*
%TO.C,J_4*%
X92643000Y-99755000D02*
X92643000Y-97095000D01*
X90043000Y-99755000D02*
X92643000Y-99755000D01*
X90043000Y-97095000D02*
X92643000Y-97095000D01*
X90043000Y-99755000D02*
X90043000Y-97095000D01*
X88773000Y-99755000D02*
X87443000Y-99755000D01*
X87443000Y-99755000D02*
X87443000Y-98425000D01*
%TO.C,J_3*%
X132902000Y-101660000D02*
X132902000Y-99000000D01*
X115062000Y-101660000D02*
X132902000Y-101660000D01*
X115062000Y-99000000D02*
X132902000Y-99000000D01*
X115062000Y-101660000D02*
X115062000Y-99000000D01*
X113792000Y-101660000D02*
X112462000Y-101660000D01*
X112462000Y-101660000D02*
X112462000Y-100330000D01*
%TO.C,J_2*%
X138116000Y-77851000D02*
X140776000Y-77851000D01*
X138116000Y-77851000D02*
X138116000Y-126171000D01*
X138116000Y-126171000D02*
X140776000Y-126171000D01*
X140776000Y-77851000D02*
X140776000Y-126171000D01*
X140776000Y-75251000D02*
X140776000Y-76581000D01*
X139446000Y-75251000D02*
X140776000Y-75251000D01*
%TO.C,J_1*%
X83760000Y-77597000D02*
X86420000Y-77597000D01*
X83760000Y-77597000D02*
X83760000Y-125917000D01*
X83760000Y-125917000D02*
X86420000Y-125917000D01*
X86420000Y-77597000D02*
X86420000Y-125917000D01*
X86420000Y-74997000D02*
X86420000Y-76327000D01*
X85090000Y-74997000D02*
X86420000Y-74997000D01*
%TO.C,LED_ESP_1*%
X130275000Y-122389000D02*
X130275000Y-120104000D01*
X128805000Y-122389000D02*
X130275000Y-122389000D01*
X128805000Y-120104000D02*
X128805000Y-122389000D01*
%TO.C,J_PW_3*%
X119574000Y-111058000D02*
X122234000Y-111058000D01*
X119574000Y-110998000D02*
X119574000Y-111058000D01*
X122234000Y-110998000D02*
X122234000Y-111058000D01*
X119574000Y-110998000D02*
X122234000Y-110998000D01*
X119574000Y-109728000D02*
X119574000Y-108398000D01*
X119574000Y-108398000D02*
X120904000Y-108398000D01*
%TO.C,J_PW_1*%
X122996000Y-117916000D02*
X122996000Y-115256000D01*
X120396000Y-117916000D02*
X122996000Y-117916000D01*
X120396000Y-115256000D02*
X122996000Y-115256000D01*
X120396000Y-117916000D02*
X120396000Y-115256000D01*
X119126000Y-117916000D02*
X117796000Y-117916000D01*
X117796000Y-117916000D02*
X117796000Y-116586000D01*
%TO.C,J_CN_4*%
X116138000Y-115256000D02*
X113478000Y-115256000D01*
X116138000Y-115316000D02*
X116138000Y-115256000D01*
X113478000Y-115316000D02*
X113478000Y-115256000D01*
X116138000Y-115316000D02*
X113478000Y-115316000D01*
X116138000Y-116586000D02*
X116138000Y-117916000D01*
X116138000Y-117916000D02*
X114808000Y-117916000D01*
%TO.C,J_CN_3*%
X126806000Y-115256000D02*
X124146000Y-115256000D01*
X126806000Y-115316000D02*
X126806000Y-115256000D01*
X124146000Y-115316000D02*
X124146000Y-115256000D01*
X126806000Y-115316000D02*
X124146000Y-115316000D01*
X126806000Y-116586000D02*
X126806000Y-117916000D01*
X126806000Y-117916000D02*
X125476000Y-117916000D01*
%TO.C,J_CN_2*%
X126686000Y-125924000D02*
X126686000Y-128584000D01*
X134366000Y-125924000D02*
X126686000Y-125924000D01*
X134366000Y-128584000D02*
X126686000Y-128584000D01*
X134366000Y-125924000D02*
X134366000Y-128584000D01*
X135636000Y-125924000D02*
X136966000Y-125924000D01*
X136966000Y-125924000D02*
X136966000Y-127254000D01*
%TO.C,J_CN_1*%
X101159000Y-125797000D02*
X101159000Y-128457000D01*
X108839000Y-125797000D02*
X101159000Y-125797000D01*
X108839000Y-128457000D02*
X101159000Y-128457000D01*
X108839000Y-125797000D02*
X108839000Y-128457000D01*
X110109000Y-125797000D02*
X111439000Y-125797000D01*
X111439000Y-125797000D02*
X111439000Y-127127000D01*
D12*
%TO.C,U_PW_1*%
X101881745Y-121198136D02*
G75*
G03*
X101845199Y-121341200I-36546J-66864D01*
G01*
D13*
%TO.C,D_PW_3*%
X116190000Y-107954000D02*
X116190000Y-107554000D01*
X116190000Y-107554000D02*
X116190000Y-106154000D01*
X117490000Y-107954000D02*
X117490000Y-107554000D01*
X117490000Y-107554000D02*
X117490000Y-106154000D01*
X116190000Y-107554000D02*
X117490000Y-107554000D01*
%TO.C,D_PW_1*%
X111902000Y-115432000D02*
X111902000Y-115832000D01*
X111902000Y-115832000D02*
X111902000Y-117232000D01*
X110602000Y-115432000D02*
X110602000Y-115832000D01*
X110602000Y-115832000D02*
X110602000Y-117232000D01*
X111902000Y-115832000D02*
X110602000Y-115832000D01*
D12*
%TO.C,C_PW_2*%
X92466998Y-126680449D02*
X92466998Y-125795551D01*
X90413002Y-125795551D02*
X90413002Y-126680449D01*
D11*
%TO.C,C_PW_4*%
X104625000Y-117544000D02*
X104925000Y-117544000D01*
X104625000Y-116644000D02*
X104925000Y-116644000D01*
D12*
%TO.C,C_PW_5*%
X113218449Y-104891002D02*
X112333551Y-104891002D01*
X112333551Y-106944998D02*
X113218449Y-106944998D01*
%TO.C,CP_ESP_1*%
X101473000Y-73459340D02*
X101473000Y-75946000D01*
X108331000Y-71574660D02*
X108331000Y-69088000D01*
X108331000Y-75946000D02*
X108331000Y-73459340D01*
X101473000Y-75946000D02*
X108331000Y-75946000D01*
X101473000Y-69088000D02*
X101473000Y-71574660D01*
X108331000Y-69088000D02*
X101473000Y-69088000D01*
D13*
%TO.C,D_PW_2*%
X107173000Y-118991000D02*
X108473000Y-118991000D01*
X108473000Y-118991000D02*
X108473000Y-117591000D01*
X108473000Y-119391000D02*
X108473000Y-118991000D01*
X107173000Y-118991000D02*
X107173000Y-117591000D01*
X107173000Y-119391000D02*
X107173000Y-118991000D01*
D12*
%TO.C,L_PW_1*%
X99688650Y-113665000D02*
G75*
G03*
X99688650Y-113665000I-76200J0D01*
G01*
X103104950Y-112814100D02*
X100641150Y-112814100D01*
X100641150Y-114515900D02*
X103104950Y-114515900D01*
%TO.C,Q_PW_1*%
X114211100Y-113525300D02*
G75*
G03*
X114211100Y-113525300I-127000J0D01*
G01*
X111950500Y-111360740D02*
X111950500Y-112382300D01*
X111950500Y-112382300D02*
X113601500Y-112382300D01*
X111950500Y-109105700D02*
X111950500Y-110127260D01*
X113601500Y-109105700D02*
X111950500Y-109105700D01*
X113601500Y-111079760D02*
X113601500Y-110408240D01*
D11*
%TO.C,R_ESP_2*%
X90568000Y-79941000D02*
X90788000Y-79941000D01*
X90568000Y-80841000D02*
X90788000Y-80841000D01*
%TO.C,R_ESP_4*%
X126856000Y-105976000D02*
X126636000Y-105976000D01*
X126856000Y-106876000D02*
X126636000Y-106876000D01*
%TO.C,R_IMU_1*%
X96959000Y-106824000D02*
X96959000Y-107044000D01*
X97859000Y-106824000D02*
X97859000Y-107044000D01*
%TO.C,R_IMU_2*%
X96959000Y-110854000D02*
X96959000Y-110634000D01*
X97859000Y-110854000D02*
X97859000Y-110634000D01*
%TO.C,R_PW_1*%
X111702000Y-120286000D02*
X111702000Y-120506000D01*
X110802000Y-120286000D02*
X110802000Y-120506000D01*
%TO.C,R_PW_2*%
X92144000Y-118855000D02*
X92144000Y-118635000D01*
X91244000Y-118855000D02*
X91244000Y-118635000D01*
%TO.C,R_PW_3*%
X92144000Y-115587000D02*
X92144000Y-115807000D01*
X91244000Y-115587000D02*
X91244000Y-115807000D01*
%TO.C,R_PW_4*%
X94938000Y-118855000D02*
X94938000Y-118635000D01*
X94038000Y-118855000D02*
X94038000Y-118635000D01*
D12*
%TO.C,SW_ESP_1*%
X100884900Y-81356001D02*
G75*
G03*
X100884900Y-81356001I-203200J0D01*
G01*
X98767900Y-80527959D02*
X98767900Y-78984041D01*
X94723086Y-82130900D02*
X98062914Y-82130900D01*
X94018100Y-78984041D02*
X94018100Y-80527959D01*
X98062914Y-77381100D02*
X94723086Y-77381100D01*
%TO.C,SW_ESP_2*%
X132860914Y-109766100D02*
X129521086Y-109766100D01*
X128816100Y-111369041D02*
X128816100Y-112912959D01*
X129521086Y-114515900D02*
X132860914Y-114515900D01*
X133565900Y-112912959D02*
X133565900Y-111369041D01*
X135682900Y-113741001D02*
G75*
G03*
X135682900Y-113741001I-203200J0D01*
G01*
D11*
%TO.C,U_IMU_1*%
X105690000Y-103408000D02*
X105290000Y-103408000D01*
X102590000Y-103408000D02*
X102990000Y-103408000D01*
X105690000Y-100808000D02*
X105290000Y-100808000D01*
X102990000Y-100808000D02*
X102590000Y-100808000D01*
D14*
X102090000Y-101108000D02*
G75*
G03*
X102090000Y-101108000I-50000J0D01*
G01*
D15*
%TO.C,U_CN_1*%
X122879000Y-127706000D02*
G75*
G03*
X122879000Y-127706000I-100000J0D01*
G01*
X114529000Y-124616000D02*
X114529000Y-123406000D01*
X123469000Y-124616000D02*
X123469000Y-123406000D01*
X114529000Y-119196000D02*
X114529000Y-120686000D01*
X123469000Y-119196000D02*
X114529000Y-119196000D01*
X123469000Y-120686000D02*
X123469000Y-119196000D01*
%TO.C,J_PW_2*%
D16*
X94650761Y-124464000D02*
X94603142Y-124440190D01*
X94531714Y-124440190D01*
X94460285Y-124464000D01*
X94412666Y-124511619D01*
X94388857Y-124559238D01*
X94365047Y-124654476D01*
X94365047Y-124725904D01*
X94388857Y-124821142D01*
X94412666Y-124868761D01*
X94460285Y-124916380D01*
X94531714Y-124940190D01*
X94579333Y-124940190D01*
X94650761Y-124916380D01*
X94674571Y-124892571D01*
X94674571Y-124725904D01*
X94579333Y-124725904D01*
X94888857Y-124606857D02*
X94888857Y-124940190D01*
X94888857Y-124654476D02*
X94912666Y-124630666D01*
X94960285Y-124606857D01*
X95031714Y-124606857D01*
X95079333Y-124630666D01*
X95103142Y-124678285D01*
X95103142Y-124940190D01*
X95341238Y-124940190D02*
X95341238Y-124440190D01*
X95460285Y-124440190D01*
X95531714Y-124464000D01*
X95579333Y-124511619D01*
X95603142Y-124559238D01*
X95626952Y-124654476D01*
X95626952Y-124725904D01*
X95603142Y-124821142D01*
X95579333Y-124868761D01*
X95531714Y-124916380D01*
X95460285Y-124940190D01*
X95341238Y-124940190D01*
X97043952Y-124567190D02*
X97210619Y-125067190D01*
X97377285Y-124567190D01*
X97758238Y-125067190D02*
X97758238Y-124567190D01*
X97758238Y-125043380D02*
X97710619Y-125067190D01*
X97615380Y-125067190D01*
X97567761Y-125043380D01*
X97543952Y-125019571D01*
X97520142Y-124971952D01*
X97520142Y-124829095D01*
X97543952Y-124781476D01*
X97567761Y-124757666D01*
X97615380Y-124733857D01*
X97710619Y-124733857D01*
X97758238Y-124757666D01*
X98210619Y-125067190D02*
X98210619Y-124567190D01*
X98210619Y-125043380D02*
X98163000Y-125067190D01*
X98067761Y-125067190D01*
X98020142Y-125043380D01*
X97996333Y-125019571D01*
X97972523Y-124971952D01*
X97972523Y-124829095D01*
X97996333Y-124781476D01*
X98020142Y-124757666D01*
X98067761Y-124733857D01*
X98163000Y-124733857D01*
X98210619Y-124757666D01*
%TO.C,C_ESP_1*%
D17*
X104038556Y-80433309D02*
X104015981Y-80455884D01*
X103948257Y-80478458D01*
X103903108Y-80478458D01*
X103835384Y-80455884D01*
X103790235Y-80410735D01*
X103767660Y-80365585D01*
X103745086Y-80275287D01*
X103745086Y-80207563D01*
X103767660Y-80117264D01*
X103790235Y-80072115D01*
X103835384Y-80026966D01*
X103903108Y-80004391D01*
X103948257Y-80004391D01*
X104015981Y-80026966D01*
X104038556Y-80049541D01*
X104128854Y-80523608D02*
X104490048Y-80523608D01*
X104602921Y-80230138D02*
X104760944Y-80230138D01*
X104828668Y-80478458D02*
X104602921Y-80478458D01*
X104602921Y-80004391D01*
X104828668Y-80004391D01*
X105009264Y-80455884D02*
X105076988Y-80478458D01*
X105189861Y-80478458D01*
X105235011Y-80455884D01*
X105257585Y-80433309D01*
X105280160Y-80388160D01*
X105280160Y-80343011D01*
X105257585Y-80297861D01*
X105235011Y-80275287D01*
X105189861Y-80252712D01*
X105099563Y-80230138D01*
X105054414Y-80207563D01*
X105031839Y-80184988D01*
X105009264Y-80139839D01*
X105009264Y-80094690D01*
X105031839Y-80049541D01*
X105054414Y-80026966D01*
X105099563Y-80004391D01*
X105212436Y-80004391D01*
X105280160Y-80026966D01*
X105483331Y-80478458D02*
X105483331Y-80004391D01*
X105663928Y-80004391D01*
X105709078Y-80026966D01*
X105731652Y-80049541D01*
X105754227Y-80094690D01*
X105754227Y-80162414D01*
X105731652Y-80207563D01*
X105709078Y-80230138D01*
X105663928Y-80252712D01*
X105483331Y-80252712D01*
X105844525Y-80523608D02*
X106205719Y-80523608D01*
X106566913Y-80478458D02*
X106296018Y-80478458D01*
X106431465Y-80478458D02*
X106431465Y-80004391D01*
X106386316Y-80072115D01*
X106341167Y-80117264D01*
X106296018Y-80139839D01*
%TO.C,J_3*%
D16*
X113034047Y-102818380D02*
X113105476Y-102842190D01*
X113224523Y-102842190D01*
X113272142Y-102818380D01*
X113295952Y-102794571D01*
X113319761Y-102746952D01*
X113319761Y-102699333D01*
X113295952Y-102651714D01*
X113272142Y-102627904D01*
X113224523Y-102604095D01*
X113129285Y-102580285D01*
X113081666Y-102556476D01*
X113057857Y-102532666D01*
X113034047Y-102485047D01*
X113034047Y-102437428D01*
X113057857Y-102389809D01*
X113081666Y-102366000D01*
X113129285Y-102342190D01*
X113248333Y-102342190D01*
X113319761Y-102366000D01*
X113534047Y-102842190D02*
X113534047Y-102342190D01*
X113653095Y-102342190D01*
X113724523Y-102366000D01*
X113772142Y-102413619D01*
X113795952Y-102461238D01*
X113819761Y-102556476D01*
X113819761Y-102627904D01*
X113795952Y-102723142D01*
X113772142Y-102770761D01*
X113724523Y-102818380D01*
X113653095Y-102842190D01*
X113534047Y-102842190D01*
X114010238Y-102389809D02*
X114034047Y-102366000D01*
X114081666Y-102342190D01*
X114200714Y-102342190D01*
X114248333Y-102366000D01*
X114272142Y-102389809D01*
X114295952Y-102437428D01*
X114295952Y-102485047D01*
X114272142Y-102556476D01*
X113986428Y-102842190D01*
X114295952Y-102842190D01*
X115701047Y-102818380D02*
X115772476Y-102842190D01*
X115891523Y-102842190D01*
X115939142Y-102818380D01*
X115962952Y-102794571D01*
X115986761Y-102746952D01*
X115986761Y-102699333D01*
X115962952Y-102651714D01*
X115939142Y-102627904D01*
X115891523Y-102604095D01*
X115796285Y-102580285D01*
X115748666Y-102556476D01*
X115724857Y-102532666D01*
X115701047Y-102485047D01*
X115701047Y-102437428D01*
X115724857Y-102389809D01*
X115748666Y-102366000D01*
X115796285Y-102342190D01*
X115915333Y-102342190D01*
X115986761Y-102366000D01*
X116201047Y-102842190D02*
X116201047Y-102342190D01*
X116320095Y-102342190D01*
X116391523Y-102366000D01*
X116439142Y-102413619D01*
X116462952Y-102461238D01*
X116486761Y-102556476D01*
X116486761Y-102627904D01*
X116462952Y-102723142D01*
X116439142Y-102770761D01*
X116391523Y-102818380D01*
X116320095Y-102842190D01*
X116201047Y-102842190D01*
X116653428Y-102342190D02*
X116962952Y-102342190D01*
X116796285Y-102532666D01*
X116867714Y-102532666D01*
X116915333Y-102556476D01*
X116939142Y-102580285D01*
X116962952Y-102627904D01*
X116962952Y-102746952D01*
X116939142Y-102794571D01*
X116915333Y-102818380D01*
X116867714Y-102842190D01*
X116724857Y-102842190D01*
X116677238Y-102818380D01*
X116653428Y-102794571D01*
X118491047Y-102794571D02*
X118467238Y-102818380D01*
X118395809Y-102842190D01*
X118348190Y-102842190D01*
X118276761Y-102818380D01*
X118229142Y-102770761D01*
X118205333Y-102723142D01*
X118181523Y-102627904D01*
X118181523Y-102556476D01*
X118205333Y-102461238D01*
X118229142Y-102413619D01*
X118276761Y-102366000D01*
X118348190Y-102342190D01*
X118395809Y-102342190D01*
X118467238Y-102366000D01*
X118491047Y-102389809D01*
X118705333Y-102842190D02*
X118705333Y-102342190D01*
X118872000Y-102699333D01*
X119038666Y-102342190D01*
X119038666Y-102842190D01*
X119276761Y-102842190D02*
X119276761Y-102342190D01*
X119395809Y-102342190D01*
X119467238Y-102366000D01*
X119514857Y-102413619D01*
X119538666Y-102461238D01*
X119562476Y-102556476D01*
X119562476Y-102627904D01*
X119538666Y-102723142D01*
X119514857Y-102770761D01*
X119467238Y-102818380D01*
X119395809Y-102842190D01*
X119276761Y-102842190D01*
X121066761Y-102366000D02*
X121019142Y-102342190D01*
X120947714Y-102342190D01*
X120876285Y-102366000D01*
X120828666Y-102413619D01*
X120804857Y-102461238D01*
X120781047Y-102556476D01*
X120781047Y-102627904D01*
X120804857Y-102723142D01*
X120828666Y-102770761D01*
X120876285Y-102818380D01*
X120947714Y-102842190D01*
X120995333Y-102842190D01*
X121066761Y-102818380D01*
X121090571Y-102794571D01*
X121090571Y-102627904D01*
X120995333Y-102627904D01*
X121304857Y-102508857D02*
X121304857Y-102842190D01*
X121304857Y-102556476D02*
X121328666Y-102532666D01*
X121376285Y-102508857D01*
X121447714Y-102508857D01*
X121495333Y-102532666D01*
X121519142Y-102580285D01*
X121519142Y-102842190D01*
X121757238Y-102842190D02*
X121757238Y-102342190D01*
X121876285Y-102342190D01*
X121947714Y-102366000D01*
X121995333Y-102413619D01*
X122019142Y-102461238D01*
X122042952Y-102556476D01*
X122042952Y-102627904D01*
X122019142Y-102723142D01*
X121995333Y-102770761D01*
X121947714Y-102818380D01*
X121876285Y-102842190D01*
X121757238Y-102842190D01*
X123340904Y-102342190D02*
X123650428Y-102342190D01*
X123483761Y-102532666D01*
X123555190Y-102532666D01*
X123602809Y-102556476D01*
X123626619Y-102580285D01*
X123650428Y-102627904D01*
X123650428Y-102746952D01*
X123626619Y-102794571D01*
X123602809Y-102818380D01*
X123555190Y-102842190D01*
X123412333Y-102842190D01*
X123364714Y-102818380D01*
X123340904Y-102794571D01*
X123864714Y-102794571D02*
X123888523Y-102818380D01*
X123864714Y-102842190D01*
X123840904Y-102818380D01*
X123864714Y-102794571D01*
X123864714Y-102842190D01*
X124055190Y-102342190D02*
X124364714Y-102342190D01*
X124198047Y-102532666D01*
X124269476Y-102532666D01*
X124317095Y-102556476D01*
X124340904Y-102580285D01*
X124364714Y-102627904D01*
X124364714Y-102746952D01*
X124340904Y-102794571D01*
X124317095Y-102818380D01*
X124269476Y-102842190D01*
X124126619Y-102842190D01*
X124079000Y-102818380D01*
X124055190Y-102794571D01*
X124507571Y-102342190D02*
X124674238Y-102842190D01*
X124840904Y-102342190D01*
X126194380Y-102794571D02*
X126170571Y-102818380D01*
X126099142Y-102842190D01*
X126051523Y-102842190D01*
X125980095Y-102818380D01*
X125932476Y-102770761D01*
X125908666Y-102723142D01*
X125884857Y-102627904D01*
X125884857Y-102556476D01*
X125908666Y-102461238D01*
X125932476Y-102413619D01*
X125980095Y-102366000D01*
X126051523Y-102342190D01*
X126099142Y-102342190D01*
X126170571Y-102366000D01*
X126194380Y-102389809D01*
X126646761Y-102842190D02*
X126408666Y-102842190D01*
X126408666Y-102342190D01*
X126813428Y-102842190D02*
X126813428Y-102342190D01*
X127099142Y-102842190D02*
X126884857Y-102556476D01*
X127099142Y-102342190D02*
X126813428Y-102627904D01*
X128401047Y-102818380D02*
X128472476Y-102842190D01*
X128591523Y-102842190D01*
X128639142Y-102818380D01*
X128662952Y-102794571D01*
X128686761Y-102746952D01*
X128686761Y-102699333D01*
X128662952Y-102651714D01*
X128639142Y-102627904D01*
X128591523Y-102604095D01*
X128496285Y-102580285D01*
X128448666Y-102556476D01*
X128424857Y-102532666D01*
X128401047Y-102485047D01*
X128401047Y-102437428D01*
X128424857Y-102389809D01*
X128448666Y-102366000D01*
X128496285Y-102342190D01*
X128615333Y-102342190D01*
X128686761Y-102366000D01*
X128901047Y-102842190D02*
X128901047Y-102342190D01*
X129020095Y-102342190D01*
X129091523Y-102366000D01*
X129139142Y-102413619D01*
X129162952Y-102461238D01*
X129186761Y-102556476D01*
X129186761Y-102627904D01*
X129162952Y-102723142D01*
X129139142Y-102770761D01*
X129091523Y-102818380D01*
X129020095Y-102842190D01*
X128901047Y-102842190D01*
X129496285Y-102342190D02*
X129543904Y-102342190D01*
X129591523Y-102366000D01*
X129615333Y-102389809D01*
X129639142Y-102437428D01*
X129662952Y-102532666D01*
X129662952Y-102651714D01*
X129639142Y-102746952D01*
X129615333Y-102794571D01*
X129591523Y-102818380D01*
X129543904Y-102842190D01*
X129496285Y-102842190D01*
X129448666Y-102818380D01*
X129424857Y-102794571D01*
X129401047Y-102746952D01*
X129377238Y-102651714D01*
X129377238Y-102532666D01*
X129401047Y-102437428D01*
X129424857Y-102389809D01*
X129448666Y-102366000D01*
X129496285Y-102342190D01*
X131187095Y-102818380D02*
X131258523Y-102842190D01*
X131377571Y-102842190D01*
X131425190Y-102818380D01*
X131449000Y-102794571D01*
X131472809Y-102746952D01*
X131472809Y-102699333D01*
X131449000Y-102651714D01*
X131425190Y-102627904D01*
X131377571Y-102604095D01*
X131282333Y-102580285D01*
X131234714Y-102556476D01*
X131210904Y-102532666D01*
X131187095Y-102485047D01*
X131187095Y-102437428D01*
X131210904Y-102389809D01*
X131234714Y-102366000D01*
X131282333Y-102342190D01*
X131401380Y-102342190D01*
X131472809Y-102366000D01*
X131687095Y-102842190D02*
X131687095Y-102342190D01*
X131806142Y-102342190D01*
X131877571Y-102366000D01*
X131925190Y-102413619D01*
X131949000Y-102461238D01*
X131972809Y-102556476D01*
X131972809Y-102627904D01*
X131949000Y-102723142D01*
X131925190Y-102770761D01*
X131877571Y-102818380D01*
X131806142Y-102842190D01*
X131687095Y-102842190D01*
X132187095Y-102842190D02*
X132187095Y-102342190D01*
%TO.C,J_2*%
D18*
X138731714Y-73263380D02*
X138731714Y-73977666D01*
X138684095Y-74120523D01*
X138588857Y-74215761D01*
X138446000Y-74263380D01*
X138350761Y-74263380D01*
X138969809Y-74358619D02*
X139731714Y-74358619D01*
X139922190Y-73358619D02*
X139969809Y-73311000D01*
X140065047Y-73263380D01*
X140303142Y-73263380D01*
X140398380Y-73311000D01*
X140446000Y-73358619D01*
X140493619Y-73453857D01*
X140493619Y-73549095D01*
X140446000Y-73691952D01*
X139874571Y-74263380D01*
X140493619Y-74263380D01*
D16*
X136433761Y-76204000D02*
X136386142Y-76180190D01*
X136314714Y-76180190D01*
X136243285Y-76204000D01*
X136195666Y-76251619D01*
X136171857Y-76299238D01*
X136148047Y-76394476D01*
X136148047Y-76465904D01*
X136171857Y-76561142D01*
X136195666Y-76608761D01*
X136243285Y-76656380D01*
X136314714Y-76680190D01*
X136362333Y-76680190D01*
X136433761Y-76656380D01*
X136457571Y-76632571D01*
X136457571Y-76465904D01*
X136362333Y-76465904D01*
X136671857Y-76346857D02*
X136671857Y-76680190D01*
X136671857Y-76394476D02*
X136695666Y-76370666D01*
X136743285Y-76346857D01*
X136814714Y-76346857D01*
X136862333Y-76370666D01*
X136886142Y-76418285D01*
X136886142Y-76680190D01*
X137124238Y-76680190D02*
X137124238Y-76180190D01*
X137243285Y-76180190D01*
X137314714Y-76204000D01*
X137362333Y-76251619D01*
X137386142Y-76299238D01*
X137409952Y-76394476D01*
X137409952Y-76465904D01*
X137386142Y-76561142D01*
X137362333Y-76608761D01*
X137314714Y-76656380D01*
X137243285Y-76680190D01*
X137124238Y-76680190D01*
X135913904Y-79347190D02*
X135913904Y-78847190D01*
X136247238Y-78847190D02*
X136342476Y-78847190D01*
X136390095Y-78871000D01*
X136437714Y-78918619D01*
X136461523Y-79013857D01*
X136461523Y-79180523D01*
X136437714Y-79275761D01*
X136390095Y-79323380D01*
X136342476Y-79347190D01*
X136247238Y-79347190D01*
X136199619Y-79323380D01*
X136152000Y-79275761D01*
X136128190Y-79180523D01*
X136128190Y-79013857D01*
X136152000Y-78918619D01*
X136199619Y-78871000D01*
X136247238Y-78847190D01*
X136652000Y-78894809D02*
X136675809Y-78871000D01*
X136723428Y-78847190D01*
X136842476Y-78847190D01*
X136890095Y-78871000D01*
X136913904Y-78894809D01*
X136937714Y-78942428D01*
X136937714Y-78990047D01*
X136913904Y-79061476D01*
X136628190Y-79347190D01*
X136937714Y-79347190D01*
X137104380Y-78847190D02*
X137413904Y-78847190D01*
X137247238Y-79037666D01*
X137318666Y-79037666D01*
X137366285Y-79061476D01*
X137390095Y-79085285D01*
X137413904Y-79132904D01*
X137413904Y-79251952D01*
X137390095Y-79299571D01*
X137366285Y-79323380D01*
X137318666Y-79347190D01*
X137175809Y-79347190D01*
X137128190Y-79323380D01*
X137104380Y-79299571D01*
X135913904Y-81760190D02*
X135913904Y-81260190D01*
X136247238Y-81260190D02*
X136342476Y-81260190D01*
X136390095Y-81284000D01*
X136437714Y-81331619D01*
X136461523Y-81426857D01*
X136461523Y-81593523D01*
X136437714Y-81688761D01*
X136390095Y-81736380D01*
X136342476Y-81760190D01*
X136247238Y-81760190D01*
X136199619Y-81736380D01*
X136152000Y-81688761D01*
X136128190Y-81593523D01*
X136128190Y-81426857D01*
X136152000Y-81331619D01*
X136199619Y-81284000D01*
X136247238Y-81260190D01*
X136652000Y-81307809D02*
X136675809Y-81284000D01*
X136723428Y-81260190D01*
X136842476Y-81260190D01*
X136890095Y-81284000D01*
X136913904Y-81307809D01*
X136937714Y-81355428D01*
X136937714Y-81403047D01*
X136913904Y-81474476D01*
X136628190Y-81760190D01*
X136937714Y-81760190D01*
X137128190Y-81307809D02*
X137152000Y-81284000D01*
X137199619Y-81260190D01*
X137318666Y-81260190D01*
X137366285Y-81284000D01*
X137390095Y-81307809D01*
X137413904Y-81355428D01*
X137413904Y-81403047D01*
X137390095Y-81474476D01*
X137104380Y-81760190D01*
X137413904Y-81760190D01*
X136080571Y-86967190D02*
X135913904Y-86729095D01*
X135794857Y-86967190D02*
X135794857Y-86467190D01*
X135985333Y-86467190D01*
X136032952Y-86491000D01*
X136056761Y-86514809D01*
X136080571Y-86562428D01*
X136080571Y-86633857D01*
X136056761Y-86681476D01*
X136032952Y-86705285D01*
X135985333Y-86729095D01*
X135794857Y-86729095D01*
X136247238Y-86467190D02*
X136580571Y-86967190D01*
X136580571Y-86467190D02*
X136247238Y-86967190D01*
X136771047Y-86967190D02*
X136771047Y-86467190D01*
X136890095Y-86467190D01*
X136961523Y-86491000D01*
X137009142Y-86538619D01*
X137032952Y-86586238D01*
X137056761Y-86681476D01*
X137056761Y-86752904D01*
X137032952Y-86848142D01*
X137009142Y-86895761D01*
X136961523Y-86943380D01*
X136890095Y-86967190D01*
X136771047Y-86967190D01*
X137366285Y-86467190D02*
X137413904Y-86467190D01*
X137461523Y-86491000D01*
X137485333Y-86514809D01*
X137509142Y-86562428D01*
X137532952Y-86657666D01*
X137532952Y-86776714D01*
X137509142Y-86871952D01*
X137485333Y-86919571D01*
X137461523Y-86943380D01*
X137413904Y-86967190D01*
X137366285Y-86967190D01*
X137318666Y-86943380D01*
X137294857Y-86919571D01*
X137271047Y-86871952D01*
X137247238Y-86776714D01*
X137247238Y-86657666D01*
X137271047Y-86562428D01*
X137294857Y-86514809D01*
X137318666Y-86491000D01*
X137366285Y-86467190D01*
X135782952Y-83800190D02*
X136068666Y-83800190D01*
X135925809Y-84300190D02*
X135925809Y-83800190D01*
X136187714Y-83800190D02*
X136521047Y-84300190D01*
X136521047Y-83800190D02*
X136187714Y-84300190D01*
X136711523Y-84300190D02*
X136711523Y-83800190D01*
X136830571Y-83800190D01*
X136902000Y-83824000D01*
X136949619Y-83871619D01*
X136973428Y-83919238D01*
X136997238Y-84014476D01*
X136997238Y-84085904D01*
X136973428Y-84181142D01*
X136949619Y-84228761D01*
X136902000Y-84276380D01*
X136830571Y-84300190D01*
X136711523Y-84300190D01*
X137306761Y-83800190D02*
X137354380Y-83800190D01*
X137402000Y-83824000D01*
X137425809Y-83847809D01*
X137449619Y-83895428D01*
X137473428Y-83990666D01*
X137473428Y-84109714D01*
X137449619Y-84204952D01*
X137425809Y-84252571D01*
X137402000Y-84276380D01*
X137354380Y-84300190D01*
X137306761Y-84300190D01*
X137259142Y-84276380D01*
X137235333Y-84252571D01*
X137211523Y-84204952D01*
X137187714Y-84109714D01*
X137187714Y-83990666D01*
X137211523Y-83895428D01*
X137235333Y-83847809D01*
X137259142Y-83824000D01*
X137306761Y-83800190D01*
X136040904Y-89253190D02*
X136040904Y-88753190D01*
X136374238Y-88753190D02*
X136469476Y-88753190D01*
X136517095Y-88777000D01*
X136564714Y-88824619D01*
X136588523Y-88919857D01*
X136588523Y-89086523D01*
X136564714Y-89181761D01*
X136517095Y-89229380D01*
X136469476Y-89253190D01*
X136374238Y-89253190D01*
X136326619Y-89229380D01*
X136279000Y-89181761D01*
X136255190Y-89086523D01*
X136255190Y-88919857D01*
X136279000Y-88824619D01*
X136326619Y-88777000D01*
X136374238Y-88753190D01*
X136779000Y-88800809D02*
X136802809Y-88777000D01*
X136850428Y-88753190D01*
X136969476Y-88753190D01*
X137017095Y-88777000D01*
X137040904Y-88800809D01*
X137064714Y-88848428D01*
X137064714Y-88896047D01*
X137040904Y-88967476D01*
X136755190Y-89253190D01*
X137064714Y-89253190D01*
X137540904Y-89253190D02*
X137255190Y-89253190D01*
X137398047Y-89253190D02*
X137398047Y-88753190D01*
X137350428Y-88824619D01*
X137302809Y-88872238D01*
X137255190Y-88896047D01*
X136167904Y-94587190D02*
X136167904Y-94087190D01*
X136501238Y-94087190D02*
X136596476Y-94087190D01*
X136644095Y-94111000D01*
X136691714Y-94158619D01*
X136715523Y-94253857D01*
X136715523Y-94420523D01*
X136691714Y-94515761D01*
X136644095Y-94563380D01*
X136596476Y-94587190D01*
X136501238Y-94587190D01*
X136453619Y-94563380D01*
X136406000Y-94515761D01*
X136382190Y-94420523D01*
X136382190Y-94253857D01*
X136406000Y-94158619D01*
X136453619Y-94111000D01*
X136501238Y-94087190D01*
X137191714Y-94587190D02*
X136906000Y-94587190D01*
X137048857Y-94587190D02*
X137048857Y-94087190D01*
X137001238Y-94158619D01*
X136953619Y-94206238D01*
X136906000Y-94230047D01*
X137429809Y-94587190D02*
X137525047Y-94587190D01*
X137572666Y-94563380D01*
X137596476Y-94539571D01*
X137644095Y-94468142D01*
X137667904Y-94372904D01*
X137667904Y-94182428D01*
X137644095Y-94134809D01*
X137620285Y-94111000D01*
X137572666Y-94087190D01*
X137477428Y-94087190D01*
X137429809Y-94111000D01*
X137406000Y-94134809D01*
X137382190Y-94182428D01*
X137382190Y-94301476D01*
X137406000Y-94349095D01*
X137429809Y-94372904D01*
X137477428Y-94396714D01*
X137572666Y-94396714D01*
X137620285Y-94372904D01*
X137644095Y-94349095D01*
X137667904Y-94301476D01*
X136294904Y-97127190D02*
X136294904Y-96627190D01*
X136628238Y-96627190D02*
X136723476Y-96627190D01*
X136771095Y-96651000D01*
X136818714Y-96698619D01*
X136842523Y-96793857D01*
X136842523Y-96960523D01*
X136818714Y-97055761D01*
X136771095Y-97103380D01*
X136723476Y-97127190D01*
X136628238Y-97127190D01*
X136580619Y-97103380D01*
X136533000Y-97055761D01*
X136509190Y-96960523D01*
X136509190Y-96793857D01*
X136533000Y-96698619D01*
X136580619Y-96651000D01*
X136628238Y-96627190D01*
X137318714Y-97127190D02*
X137033000Y-97127190D01*
X137175857Y-97127190D02*
X137175857Y-96627190D01*
X137128238Y-96698619D01*
X137080619Y-96746238D01*
X137033000Y-96770047D01*
X137604428Y-96841476D02*
X137556809Y-96817666D01*
X137533000Y-96793857D01*
X137509190Y-96746238D01*
X137509190Y-96722428D01*
X137533000Y-96674809D01*
X137556809Y-96651000D01*
X137604428Y-96627190D01*
X137699666Y-96627190D01*
X137747285Y-96651000D01*
X137771095Y-96674809D01*
X137794904Y-96722428D01*
X137794904Y-96746238D01*
X137771095Y-96793857D01*
X137747285Y-96817666D01*
X137699666Y-96841476D01*
X137604428Y-96841476D01*
X137556809Y-96865285D01*
X137533000Y-96889095D01*
X137509190Y-96936714D01*
X137509190Y-97031952D01*
X137533000Y-97079571D01*
X137556809Y-97103380D01*
X137604428Y-97127190D01*
X137699666Y-97127190D01*
X137747285Y-97103380D01*
X137771095Y-97079571D01*
X137794904Y-97031952D01*
X137794904Y-96936714D01*
X137771095Y-96889095D01*
X137747285Y-96865285D01*
X137699666Y-96841476D01*
X136660000Y-99667190D02*
X136660000Y-99167190D01*
X136993333Y-99167190D02*
X137088571Y-99167190D01*
X137136190Y-99191000D01*
X137183809Y-99238619D01*
X137207619Y-99333857D01*
X137207619Y-99500523D01*
X137183809Y-99595761D01*
X137136190Y-99643380D01*
X137088571Y-99667190D01*
X136993333Y-99667190D01*
X136945714Y-99643380D01*
X136898095Y-99595761D01*
X136874285Y-99500523D01*
X136874285Y-99333857D01*
X136898095Y-99238619D01*
X136945714Y-99191000D01*
X136993333Y-99167190D01*
X137660000Y-99167190D02*
X137421904Y-99167190D01*
X137398095Y-99405285D01*
X137421904Y-99381476D01*
X137469523Y-99357666D01*
X137588571Y-99357666D01*
X137636190Y-99381476D01*
X137660000Y-99405285D01*
X137683809Y-99452904D01*
X137683809Y-99571952D01*
X137660000Y-99619571D01*
X137636190Y-99643380D01*
X137588571Y-99667190D01*
X137469523Y-99667190D01*
X137421904Y-99643380D01*
X137398095Y-99619571D01*
X136294904Y-102334190D02*
X136294904Y-101834190D01*
X136628238Y-101834190D02*
X136723476Y-101834190D01*
X136771095Y-101858000D01*
X136818714Y-101905619D01*
X136842523Y-102000857D01*
X136842523Y-102167523D01*
X136818714Y-102262761D01*
X136771095Y-102310380D01*
X136723476Y-102334190D01*
X136628238Y-102334190D01*
X136580619Y-102310380D01*
X136533000Y-102262761D01*
X136509190Y-102167523D01*
X136509190Y-102000857D01*
X136533000Y-101905619D01*
X136580619Y-101858000D01*
X136628238Y-101834190D01*
X137318714Y-102334190D02*
X137033000Y-102334190D01*
X137175857Y-102334190D02*
X137175857Y-101834190D01*
X137128238Y-101905619D01*
X137080619Y-101953238D01*
X137033000Y-101977047D01*
X137485380Y-101834190D02*
X137818714Y-101834190D01*
X137604428Y-102334190D01*
X136294904Y-104747190D02*
X136294904Y-104247190D01*
X136628238Y-104247190D02*
X136723476Y-104247190D01*
X136771095Y-104271000D01*
X136818714Y-104318619D01*
X136842523Y-104413857D01*
X136842523Y-104580523D01*
X136818714Y-104675761D01*
X136771095Y-104723380D01*
X136723476Y-104747190D01*
X136628238Y-104747190D01*
X136580619Y-104723380D01*
X136533000Y-104675761D01*
X136509190Y-104580523D01*
X136509190Y-104413857D01*
X136533000Y-104318619D01*
X136580619Y-104271000D01*
X136628238Y-104247190D01*
X137318714Y-104747190D02*
X137033000Y-104747190D01*
X137175857Y-104747190D02*
X137175857Y-104247190D01*
X137128238Y-104318619D01*
X137080619Y-104366238D01*
X137033000Y-104390047D01*
X137747285Y-104247190D02*
X137652047Y-104247190D01*
X137604428Y-104271000D01*
X137580619Y-104294809D01*
X137533000Y-104366238D01*
X137509190Y-104461476D01*
X137509190Y-104651952D01*
X137533000Y-104699571D01*
X137556809Y-104723380D01*
X137604428Y-104747190D01*
X137699666Y-104747190D01*
X137747285Y-104723380D01*
X137771095Y-104699571D01*
X137794904Y-104651952D01*
X137794904Y-104532904D01*
X137771095Y-104485285D01*
X137747285Y-104461476D01*
X137699666Y-104437666D01*
X137604428Y-104437666D01*
X137556809Y-104461476D01*
X137533000Y-104485285D01*
X137509190Y-104532904D01*
X136660000Y-107287190D02*
X136660000Y-106787190D01*
X136993333Y-106787190D02*
X137088571Y-106787190D01*
X137136190Y-106811000D01*
X137183809Y-106858619D01*
X137207619Y-106953857D01*
X137207619Y-107120523D01*
X137183809Y-107215761D01*
X137136190Y-107263380D01*
X137088571Y-107287190D01*
X136993333Y-107287190D01*
X136945714Y-107263380D01*
X136898095Y-107215761D01*
X136874285Y-107120523D01*
X136874285Y-106953857D01*
X136898095Y-106858619D01*
X136945714Y-106811000D01*
X136993333Y-106787190D01*
X137636190Y-106953857D02*
X137636190Y-107287190D01*
X137517142Y-106763380D02*
X137398095Y-107120523D01*
X137707619Y-107120523D01*
X136787000Y-109954190D02*
X136787000Y-109454190D01*
X137120333Y-109454190D02*
X137215571Y-109454190D01*
X137263190Y-109478000D01*
X137310809Y-109525619D01*
X137334619Y-109620857D01*
X137334619Y-109787523D01*
X137310809Y-109882761D01*
X137263190Y-109930380D01*
X137215571Y-109954190D01*
X137120333Y-109954190D01*
X137072714Y-109930380D01*
X137025095Y-109882761D01*
X137001285Y-109787523D01*
X137001285Y-109620857D01*
X137025095Y-109525619D01*
X137072714Y-109478000D01*
X137120333Y-109454190D01*
X137644142Y-109454190D02*
X137691761Y-109454190D01*
X137739380Y-109478000D01*
X137763190Y-109501809D01*
X137787000Y-109549428D01*
X137810809Y-109644666D01*
X137810809Y-109763714D01*
X137787000Y-109858952D01*
X137763190Y-109906571D01*
X137739380Y-109930380D01*
X137691761Y-109954190D01*
X137644142Y-109954190D01*
X137596523Y-109930380D01*
X137572714Y-109906571D01*
X137548904Y-109858952D01*
X137525095Y-109763714D01*
X137525095Y-109644666D01*
X137548904Y-109549428D01*
X137572714Y-109501809D01*
X137596523Y-109478000D01*
X137644142Y-109454190D01*
X136660000Y-112367190D02*
X136660000Y-111867190D01*
X136993333Y-111867190D02*
X137088571Y-111867190D01*
X137136190Y-111891000D01*
X137183809Y-111938619D01*
X137207619Y-112033857D01*
X137207619Y-112200523D01*
X137183809Y-112295761D01*
X137136190Y-112343380D01*
X137088571Y-112367190D01*
X136993333Y-112367190D01*
X136945714Y-112343380D01*
X136898095Y-112295761D01*
X136874285Y-112200523D01*
X136874285Y-112033857D01*
X136898095Y-111938619D01*
X136945714Y-111891000D01*
X136993333Y-111867190D01*
X137398095Y-111914809D02*
X137421904Y-111891000D01*
X137469523Y-111867190D01*
X137588571Y-111867190D01*
X137636190Y-111891000D01*
X137660000Y-111914809D01*
X137683809Y-111962428D01*
X137683809Y-112010047D01*
X137660000Y-112081476D01*
X137374285Y-112367190D01*
X137683809Y-112367190D01*
X136294904Y-114907190D02*
X136294904Y-114407190D01*
X136628238Y-114407190D02*
X136723476Y-114407190D01*
X136771095Y-114431000D01*
X136818714Y-114478619D01*
X136842523Y-114573857D01*
X136842523Y-114740523D01*
X136818714Y-114835761D01*
X136771095Y-114883380D01*
X136723476Y-114907190D01*
X136628238Y-114907190D01*
X136580619Y-114883380D01*
X136533000Y-114835761D01*
X136509190Y-114740523D01*
X136509190Y-114573857D01*
X136533000Y-114478619D01*
X136580619Y-114431000D01*
X136628238Y-114407190D01*
X137318714Y-114907190D02*
X137033000Y-114907190D01*
X137175857Y-114907190D02*
X137175857Y-114407190D01*
X137128238Y-114478619D01*
X137080619Y-114526238D01*
X137033000Y-114550047D01*
X137771095Y-114407190D02*
X137533000Y-114407190D01*
X137509190Y-114645285D01*
X137533000Y-114621476D01*
X137580619Y-114597666D01*
X137699666Y-114597666D01*
X137747285Y-114621476D01*
X137771095Y-114645285D01*
X137794904Y-114692904D01*
X137794904Y-114811952D01*
X137771095Y-114859571D01*
X137747285Y-114883380D01*
X137699666Y-114907190D01*
X137580619Y-114907190D01*
X137533000Y-114883380D01*
X137509190Y-114859571D01*
X136294904Y-116947190D02*
X136604428Y-116947190D01*
X136437761Y-117137666D01*
X136509190Y-117137666D01*
X136556809Y-117161476D01*
X136580619Y-117185285D01*
X136604428Y-117232904D01*
X136604428Y-117351952D01*
X136580619Y-117399571D01*
X136556809Y-117423380D01*
X136509190Y-117447190D01*
X136366333Y-117447190D01*
X136318714Y-117423380D01*
X136294904Y-117399571D01*
X136818714Y-117399571D02*
X136842523Y-117423380D01*
X136818714Y-117447190D01*
X136794904Y-117423380D01*
X136818714Y-117399571D01*
X136818714Y-117447190D01*
X137009190Y-116947190D02*
X137318714Y-116947190D01*
X137152047Y-117137666D01*
X137223476Y-117137666D01*
X137271095Y-117161476D01*
X137294904Y-117185285D01*
X137318714Y-117232904D01*
X137318714Y-117351952D01*
X137294904Y-117399571D01*
X137271095Y-117423380D01*
X137223476Y-117447190D01*
X137080619Y-117447190D01*
X137033000Y-117423380D01*
X137009190Y-117399571D01*
X137461571Y-116947190D02*
X137628238Y-117447190D01*
X137794904Y-116947190D01*
X137044952Y-122027190D02*
X137211619Y-122527190D01*
X137378285Y-122027190D01*
X137521142Y-122503380D02*
X137568761Y-122527190D01*
X137664000Y-122527190D01*
X137711619Y-122503380D01*
X137735428Y-122455761D01*
X137735428Y-122431952D01*
X137711619Y-122384333D01*
X137664000Y-122360523D01*
X137592571Y-122360523D01*
X137544952Y-122336714D01*
X137521142Y-122289095D01*
X137521142Y-122265285D01*
X137544952Y-122217666D01*
X137592571Y-122193857D01*
X137664000Y-122193857D01*
X137711619Y-122217666D01*
X136814761Y-124591000D02*
X136767142Y-124567190D01*
X136695714Y-124567190D01*
X136624285Y-124591000D01*
X136576666Y-124638619D01*
X136552857Y-124686238D01*
X136529047Y-124781476D01*
X136529047Y-124852904D01*
X136552857Y-124948142D01*
X136576666Y-124995761D01*
X136624285Y-125043380D01*
X136695714Y-125067190D01*
X136743333Y-125067190D01*
X136814761Y-125043380D01*
X136838571Y-125019571D01*
X136838571Y-124852904D01*
X136743333Y-124852904D01*
X137052857Y-124733857D02*
X137052857Y-125067190D01*
X137052857Y-124781476D02*
X137076666Y-124757666D01*
X137124285Y-124733857D01*
X137195714Y-124733857D01*
X137243333Y-124757666D01*
X137267142Y-124805285D01*
X137267142Y-125067190D01*
X137505238Y-125067190D02*
X137505238Y-124567190D01*
X137624285Y-124567190D01*
X137695714Y-124591000D01*
X137743333Y-124638619D01*
X137767142Y-124686238D01*
X137790952Y-124781476D01*
X137790952Y-124852904D01*
X137767142Y-124948142D01*
X137743333Y-124995761D01*
X137695714Y-125043380D01*
X137624285Y-125067190D01*
X137505238Y-125067190D01*
%TO.C,J_1*%
D18*
X84375714Y-73009380D02*
X84375714Y-73723666D01*
X84328095Y-73866523D01*
X84232857Y-73961761D01*
X84090000Y-74009380D01*
X83994761Y-74009380D01*
X84613809Y-74104619D02*
X85375714Y-74104619D01*
X86137619Y-74009380D02*
X85566190Y-74009380D01*
X85851904Y-74009380D02*
X85851904Y-73009380D01*
X85756666Y-73152238D01*
X85661428Y-73247476D01*
X85566190Y-73295095D01*
D16*
X87411761Y-76077000D02*
X87364142Y-76053190D01*
X87292714Y-76053190D01*
X87221285Y-76077000D01*
X87173666Y-76124619D01*
X87149857Y-76172238D01*
X87126047Y-76267476D01*
X87126047Y-76338904D01*
X87149857Y-76434142D01*
X87173666Y-76481761D01*
X87221285Y-76529380D01*
X87292714Y-76553190D01*
X87340333Y-76553190D01*
X87411761Y-76529380D01*
X87435571Y-76505571D01*
X87435571Y-76338904D01*
X87340333Y-76338904D01*
X87649857Y-76219857D02*
X87649857Y-76553190D01*
X87649857Y-76267476D02*
X87673666Y-76243666D01*
X87721285Y-76219857D01*
X87792714Y-76219857D01*
X87840333Y-76243666D01*
X87864142Y-76291285D01*
X87864142Y-76553190D01*
X88102238Y-76553190D02*
X88102238Y-76053190D01*
X88221285Y-76053190D01*
X88292714Y-76077000D01*
X88340333Y-76124619D01*
X88364142Y-76172238D01*
X88387952Y-76267476D01*
X88387952Y-76338904D01*
X88364142Y-76434142D01*
X88340333Y-76481761D01*
X88292714Y-76529380D01*
X88221285Y-76553190D01*
X88102238Y-76553190D01*
X87018904Y-78593190D02*
X87328428Y-78593190D01*
X87161761Y-78783666D01*
X87233190Y-78783666D01*
X87280809Y-78807476D01*
X87304619Y-78831285D01*
X87328428Y-78878904D01*
X87328428Y-78997952D01*
X87304619Y-79045571D01*
X87280809Y-79069380D01*
X87233190Y-79093190D01*
X87090333Y-79093190D01*
X87042714Y-79069380D01*
X87018904Y-79045571D01*
X87542714Y-79045571D02*
X87566523Y-79069380D01*
X87542714Y-79093190D01*
X87518904Y-79069380D01*
X87542714Y-79045571D01*
X87542714Y-79093190D01*
X87733190Y-78593190D02*
X88042714Y-78593190D01*
X87876047Y-78783666D01*
X87947476Y-78783666D01*
X87995095Y-78807476D01*
X88018904Y-78831285D01*
X88042714Y-78878904D01*
X88042714Y-78997952D01*
X88018904Y-79045571D01*
X87995095Y-79069380D01*
X87947476Y-79093190D01*
X87804619Y-79093190D01*
X87757000Y-79069380D01*
X87733190Y-79045571D01*
X88185571Y-78593190D02*
X88352238Y-79093190D01*
X88518904Y-78593190D01*
X87169666Y-81498285D02*
X87336333Y-81498285D01*
X87407761Y-81760190D02*
X87169666Y-81760190D01*
X87169666Y-81260190D01*
X87407761Y-81260190D01*
X87622047Y-81426857D02*
X87622047Y-81760190D01*
X87622047Y-81474476D02*
X87645857Y-81450666D01*
X87693476Y-81426857D01*
X87764904Y-81426857D01*
X87812523Y-81450666D01*
X87836333Y-81498285D01*
X87836333Y-81760190D01*
X86697571Y-84149380D02*
X86769000Y-84173190D01*
X86888047Y-84173190D01*
X86935666Y-84149380D01*
X86959476Y-84125571D01*
X86983285Y-84077952D01*
X86983285Y-84030333D01*
X86959476Y-83982714D01*
X86935666Y-83958904D01*
X86888047Y-83935095D01*
X86792809Y-83911285D01*
X86745190Y-83887476D01*
X86721380Y-83863666D01*
X86697571Y-83816047D01*
X86697571Y-83768428D01*
X86721380Y-83720809D01*
X86745190Y-83697000D01*
X86792809Y-83673190D01*
X86911857Y-83673190D01*
X86983285Y-83697000D01*
X87388047Y-84149380D02*
X87340428Y-84173190D01*
X87245190Y-84173190D01*
X87197571Y-84149380D01*
X87173761Y-84101761D01*
X87173761Y-83911285D01*
X87197571Y-83863666D01*
X87245190Y-83839857D01*
X87340428Y-83839857D01*
X87388047Y-83863666D01*
X87411857Y-83911285D01*
X87411857Y-83958904D01*
X87173761Y-84006523D01*
X87626142Y-83839857D02*
X87626142Y-84173190D01*
X87626142Y-83887476D02*
X87649952Y-83863666D01*
X87697571Y-83839857D01*
X87769000Y-83839857D01*
X87816619Y-83863666D01*
X87840428Y-83911285D01*
X87840428Y-84173190D01*
X88054714Y-84149380D02*
X88102333Y-84173190D01*
X88197571Y-84173190D01*
X88245190Y-84149380D01*
X88269000Y-84101761D01*
X88269000Y-84077952D01*
X88245190Y-84030333D01*
X88197571Y-84006523D01*
X88126142Y-84006523D01*
X88078523Y-83982714D01*
X88054714Y-83935095D01*
X88054714Y-83911285D01*
X88078523Y-83863666D01*
X88126142Y-83839857D01*
X88197571Y-83839857D01*
X88245190Y-83863666D01*
X88554714Y-84173190D02*
X88507095Y-84149380D01*
X88483285Y-84125571D01*
X88459476Y-84077952D01*
X88459476Y-83935095D01*
X88483285Y-83887476D01*
X88507095Y-83863666D01*
X88554714Y-83839857D01*
X88626142Y-83839857D01*
X88673761Y-83863666D01*
X88697571Y-83887476D01*
X88721380Y-83935095D01*
X88721380Y-84077952D01*
X88697571Y-84125571D01*
X88673761Y-84149380D01*
X88626142Y-84173190D01*
X88554714Y-84173190D01*
X88935666Y-84173190D02*
X88935666Y-83839857D01*
X88935666Y-83935095D02*
X88959476Y-83887476D01*
X88983285Y-83863666D01*
X89030904Y-83839857D01*
X89078523Y-83839857D01*
X89554714Y-83673190D02*
X89721380Y-84173190D01*
X89888047Y-83673190D01*
X90054714Y-84173190D02*
X90054714Y-83673190D01*
X90245190Y-83673190D01*
X90292809Y-83697000D01*
X90316619Y-83720809D01*
X90340428Y-83768428D01*
X90340428Y-83839857D01*
X90316619Y-83887476D01*
X90292809Y-83911285D01*
X90245190Y-83935095D01*
X90054714Y-83935095D01*
X86685666Y-86816380D02*
X86757095Y-86840190D01*
X86876142Y-86840190D01*
X86923761Y-86816380D01*
X86947571Y-86792571D01*
X86971380Y-86744952D01*
X86971380Y-86697333D01*
X86947571Y-86649714D01*
X86923761Y-86625904D01*
X86876142Y-86602095D01*
X86780904Y-86578285D01*
X86733285Y-86554476D01*
X86709476Y-86530666D01*
X86685666Y-86483047D01*
X86685666Y-86435428D01*
X86709476Y-86387809D01*
X86733285Y-86364000D01*
X86780904Y-86340190D01*
X86899952Y-86340190D01*
X86971380Y-86364000D01*
X87376142Y-86816380D02*
X87328523Y-86840190D01*
X87233285Y-86840190D01*
X87185666Y-86816380D01*
X87161857Y-86768761D01*
X87161857Y-86578285D01*
X87185666Y-86530666D01*
X87233285Y-86506857D01*
X87328523Y-86506857D01*
X87376142Y-86530666D01*
X87399952Y-86578285D01*
X87399952Y-86625904D01*
X87161857Y-86673523D01*
X87614238Y-86506857D02*
X87614238Y-86840190D01*
X87614238Y-86554476D02*
X87638047Y-86530666D01*
X87685666Y-86506857D01*
X87757095Y-86506857D01*
X87804714Y-86530666D01*
X87828523Y-86578285D01*
X87828523Y-86840190D01*
X88042809Y-86816380D02*
X88090428Y-86840190D01*
X88185666Y-86840190D01*
X88233285Y-86816380D01*
X88257095Y-86768761D01*
X88257095Y-86744952D01*
X88233285Y-86697333D01*
X88185666Y-86673523D01*
X88114238Y-86673523D01*
X88066619Y-86649714D01*
X88042809Y-86602095D01*
X88042809Y-86578285D01*
X88066619Y-86530666D01*
X88114238Y-86506857D01*
X88185666Y-86506857D01*
X88233285Y-86530666D01*
X88542809Y-86840190D02*
X88495190Y-86816380D01*
X88471380Y-86792571D01*
X88447571Y-86744952D01*
X88447571Y-86602095D01*
X88471380Y-86554476D01*
X88495190Y-86530666D01*
X88542809Y-86506857D01*
X88614238Y-86506857D01*
X88661857Y-86530666D01*
X88685666Y-86554476D01*
X88709476Y-86602095D01*
X88709476Y-86744952D01*
X88685666Y-86792571D01*
X88661857Y-86816380D01*
X88614238Y-86840190D01*
X88542809Y-86840190D01*
X88923761Y-86840190D02*
X88923761Y-86506857D01*
X88923761Y-86602095D02*
X88947571Y-86554476D01*
X88971380Y-86530666D01*
X89019000Y-86506857D01*
X89066619Y-86506857D01*
X89542809Y-86340190D02*
X89709476Y-86840190D01*
X89876142Y-86340190D01*
X90042809Y-86840190D02*
X90042809Y-86340190D01*
X90328523Y-86840190D01*
X90328523Y-86340190D01*
X86764904Y-89253190D02*
X86764904Y-88753190D01*
X87098238Y-88753190D02*
X87193476Y-88753190D01*
X87241095Y-88777000D01*
X87288714Y-88824619D01*
X87312523Y-88919857D01*
X87312523Y-89086523D01*
X87288714Y-89181761D01*
X87241095Y-89229380D01*
X87193476Y-89253190D01*
X87098238Y-89253190D01*
X87050619Y-89229380D01*
X87003000Y-89181761D01*
X86979190Y-89086523D01*
X86979190Y-88919857D01*
X87003000Y-88824619D01*
X87050619Y-88777000D01*
X87098238Y-88753190D01*
X87479190Y-88753190D02*
X87788714Y-88753190D01*
X87622047Y-88943666D01*
X87693476Y-88943666D01*
X87741095Y-88967476D01*
X87764904Y-88991285D01*
X87788714Y-89038904D01*
X87788714Y-89157952D01*
X87764904Y-89205571D01*
X87741095Y-89229380D01*
X87693476Y-89253190D01*
X87550619Y-89253190D01*
X87503000Y-89229380D01*
X87479190Y-89205571D01*
X88217285Y-88919857D02*
X88217285Y-89253190D01*
X88098238Y-88729380D02*
X87979190Y-89086523D01*
X88288714Y-89086523D01*
X86764904Y-91793190D02*
X86764904Y-91293190D01*
X87098238Y-91293190D02*
X87193476Y-91293190D01*
X87241095Y-91317000D01*
X87288714Y-91364619D01*
X87312523Y-91459857D01*
X87312523Y-91626523D01*
X87288714Y-91721761D01*
X87241095Y-91769380D01*
X87193476Y-91793190D01*
X87098238Y-91793190D01*
X87050619Y-91769380D01*
X87003000Y-91721761D01*
X86979190Y-91626523D01*
X86979190Y-91459857D01*
X87003000Y-91364619D01*
X87050619Y-91317000D01*
X87098238Y-91293190D01*
X87479190Y-91293190D02*
X87788714Y-91293190D01*
X87622047Y-91483666D01*
X87693476Y-91483666D01*
X87741095Y-91507476D01*
X87764904Y-91531285D01*
X87788714Y-91578904D01*
X87788714Y-91697952D01*
X87764904Y-91745571D01*
X87741095Y-91769380D01*
X87693476Y-91793190D01*
X87550619Y-91793190D01*
X87503000Y-91769380D01*
X87479190Y-91745571D01*
X88241095Y-91293190D02*
X88003000Y-91293190D01*
X87979190Y-91531285D01*
X88003000Y-91507476D01*
X88050619Y-91483666D01*
X88169666Y-91483666D01*
X88217285Y-91507476D01*
X88241095Y-91531285D01*
X88264904Y-91578904D01*
X88264904Y-91697952D01*
X88241095Y-91745571D01*
X88217285Y-91769380D01*
X88169666Y-91793190D01*
X88050619Y-91793190D01*
X88003000Y-91769380D01*
X87979190Y-91745571D01*
X86764904Y-94333190D02*
X86764904Y-93833190D01*
X87098238Y-93833190D02*
X87193476Y-93833190D01*
X87241095Y-93857000D01*
X87288714Y-93904619D01*
X87312523Y-93999857D01*
X87312523Y-94166523D01*
X87288714Y-94261761D01*
X87241095Y-94309380D01*
X87193476Y-94333190D01*
X87098238Y-94333190D01*
X87050619Y-94309380D01*
X87003000Y-94261761D01*
X86979190Y-94166523D01*
X86979190Y-93999857D01*
X87003000Y-93904619D01*
X87050619Y-93857000D01*
X87098238Y-93833190D01*
X87479190Y-93833190D02*
X87788714Y-93833190D01*
X87622047Y-94023666D01*
X87693476Y-94023666D01*
X87741095Y-94047476D01*
X87764904Y-94071285D01*
X87788714Y-94118904D01*
X87788714Y-94237952D01*
X87764904Y-94285571D01*
X87741095Y-94309380D01*
X87693476Y-94333190D01*
X87550619Y-94333190D01*
X87503000Y-94309380D01*
X87479190Y-94285571D01*
X87979190Y-93880809D02*
X88003000Y-93857000D01*
X88050619Y-93833190D01*
X88169666Y-93833190D01*
X88217285Y-93857000D01*
X88241095Y-93880809D01*
X88264904Y-93928428D01*
X88264904Y-93976047D01*
X88241095Y-94047476D01*
X87955380Y-94333190D01*
X88264904Y-94333190D01*
X86764904Y-96492190D02*
X86764904Y-95992190D01*
X87098238Y-95992190D02*
X87193476Y-95992190D01*
X87241095Y-96016000D01*
X87288714Y-96063619D01*
X87312523Y-96158857D01*
X87312523Y-96325523D01*
X87288714Y-96420761D01*
X87241095Y-96468380D01*
X87193476Y-96492190D01*
X87098238Y-96492190D01*
X87050619Y-96468380D01*
X87003000Y-96420761D01*
X86979190Y-96325523D01*
X86979190Y-96158857D01*
X87003000Y-96063619D01*
X87050619Y-96016000D01*
X87098238Y-95992190D01*
X87503000Y-96039809D02*
X87526809Y-96016000D01*
X87574428Y-95992190D01*
X87693476Y-95992190D01*
X87741095Y-96016000D01*
X87764904Y-96039809D01*
X87788714Y-96087428D01*
X87788714Y-96135047D01*
X87764904Y-96206476D01*
X87479190Y-96492190D01*
X87788714Y-96492190D01*
X88241095Y-95992190D02*
X88003000Y-95992190D01*
X87979190Y-96230285D01*
X88003000Y-96206476D01*
X88050619Y-96182666D01*
X88169666Y-96182666D01*
X88217285Y-96206476D01*
X88241095Y-96230285D01*
X88264904Y-96277904D01*
X88264904Y-96396952D01*
X88241095Y-96444571D01*
X88217285Y-96468380D01*
X88169666Y-96492190D01*
X88050619Y-96492190D01*
X88003000Y-96468380D01*
X87979190Y-96444571D01*
X86764904Y-114780190D02*
X86764904Y-114280190D01*
X87098238Y-114280190D02*
X87193476Y-114280190D01*
X87241095Y-114304000D01*
X87288714Y-114351619D01*
X87312523Y-114446857D01*
X87312523Y-114613523D01*
X87288714Y-114708761D01*
X87241095Y-114756380D01*
X87193476Y-114780190D01*
X87098238Y-114780190D01*
X87050619Y-114756380D01*
X87003000Y-114708761D01*
X86979190Y-114613523D01*
X86979190Y-114446857D01*
X87003000Y-114351619D01*
X87050619Y-114304000D01*
X87098238Y-114280190D01*
X87788714Y-114780190D02*
X87503000Y-114780190D01*
X87645857Y-114780190D02*
X87645857Y-114280190D01*
X87598238Y-114351619D01*
X87550619Y-114399238D01*
X87503000Y-114423047D01*
X87955380Y-114280190D02*
X88264904Y-114280190D01*
X88098238Y-114470666D01*
X88169666Y-114470666D01*
X88217285Y-114494476D01*
X88241095Y-114518285D01*
X88264904Y-114565904D01*
X88264904Y-114684952D01*
X88241095Y-114732571D01*
X88217285Y-114756380D01*
X88169666Y-114780190D01*
X88026809Y-114780190D01*
X87979190Y-114756380D01*
X87955380Y-114732571D01*
X86674571Y-117147952D02*
X86674571Y-116747952D01*
X86865047Y-117147952D02*
X86865047Y-116747952D01*
X86998380Y-117033666D01*
X87131714Y-116747952D01*
X87131714Y-117147952D01*
X87322190Y-116747952D02*
X87322190Y-117071761D01*
X87341238Y-117109857D01*
X87360285Y-117128904D01*
X87398380Y-117147952D01*
X87474571Y-117147952D01*
X87512666Y-117128904D01*
X87531714Y-117109857D01*
X87550761Y-117071761D01*
X87550761Y-116747952D01*
X88026952Y-117128904D02*
X88084095Y-117147952D01*
X88179333Y-117147952D01*
X88217428Y-117128904D01*
X88236476Y-117109857D01*
X88255523Y-117071761D01*
X88255523Y-117033666D01*
X88236476Y-116995571D01*
X88217428Y-116976523D01*
X88179333Y-116957476D01*
X88103142Y-116938428D01*
X88065047Y-116919380D01*
X88046000Y-116900333D01*
X88026952Y-116862238D01*
X88026952Y-116824142D01*
X88046000Y-116786047D01*
X88065047Y-116767000D01*
X88103142Y-116747952D01*
X88198380Y-116747952D01*
X88255523Y-116767000D01*
X88426952Y-117147952D02*
X88426952Y-116747952D01*
X88522190Y-116747952D01*
X88579333Y-116767000D01*
X88617428Y-116805095D01*
X88636476Y-116843190D01*
X88655523Y-116919380D01*
X88655523Y-116976523D01*
X88636476Y-117052714D01*
X88617428Y-117090809D01*
X88579333Y-117128904D01*
X88522190Y-117147952D01*
X88426952Y-117147952D01*
X88903142Y-116747952D02*
X88979333Y-116747952D01*
X89017428Y-116767000D01*
X89055523Y-116805095D01*
X89074571Y-116881285D01*
X89074571Y-117014619D01*
X89055523Y-117090809D01*
X89017428Y-117128904D01*
X88979333Y-117147952D01*
X88903142Y-117147952D01*
X88865047Y-117128904D01*
X88826952Y-117090809D01*
X88807904Y-117014619D01*
X88807904Y-116881285D01*
X88826952Y-116805095D01*
X88865047Y-116767000D01*
X88903142Y-116747952D01*
X89531714Y-116728904D02*
X89188857Y-117243190D01*
X89646000Y-117128904D02*
X89703142Y-117147952D01*
X89798380Y-117147952D01*
X89836476Y-117128904D01*
X89855523Y-117109857D01*
X89874571Y-117071761D01*
X89874571Y-117033666D01*
X89855523Y-116995571D01*
X89836476Y-116976523D01*
X89798380Y-116957476D01*
X89722190Y-116938428D01*
X89684095Y-116919380D01*
X89665047Y-116900333D01*
X89646000Y-116862238D01*
X89646000Y-116824142D01*
X89665047Y-116786047D01*
X89684095Y-116767000D01*
X89722190Y-116747952D01*
X89817428Y-116747952D01*
X89874571Y-116767000D01*
X90026952Y-117033666D02*
X90217428Y-117033666D01*
X89988857Y-117147952D02*
X90122190Y-116747952D01*
X90255523Y-117147952D01*
X90465047Y-116747952D02*
X90541238Y-116747952D01*
X90579333Y-116767000D01*
X90617428Y-116805095D01*
X90636476Y-116881285D01*
X90636476Y-117014619D01*
X90617428Y-117090809D01*
X90579333Y-117128904D01*
X90541238Y-117147952D01*
X90465047Y-117147952D01*
X90426952Y-117128904D01*
X90388857Y-117090809D01*
X90369809Y-117014619D01*
X90369809Y-116881285D01*
X90388857Y-116805095D01*
X90426952Y-116767000D01*
X90465047Y-116747952D01*
X87030761Y-121797000D02*
X86983142Y-121773190D01*
X86911714Y-121773190D01*
X86840285Y-121797000D01*
X86792666Y-121844619D01*
X86768857Y-121892238D01*
X86745047Y-121987476D01*
X86745047Y-122058904D01*
X86768857Y-122154142D01*
X86792666Y-122201761D01*
X86840285Y-122249380D01*
X86911714Y-122273190D01*
X86959333Y-122273190D01*
X87030761Y-122249380D01*
X87054571Y-122225571D01*
X87054571Y-122058904D01*
X86959333Y-122058904D01*
X87268857Y-121939857D02*
X87268857Y-122273190D01*
X87268857Y-121987476D02*
X87292666Y-121963666D01*
X87340285Y-121939857D01*
X87411714Y-121939857D01*
X87459333Y-121963666D01*
X87483142Y-122011285D01*
X87483142Y-122273190D01*
X87721238Y-122273190D02*
X87721238Y-121773190D01*
X87840285Y-121773190D01*
X87911714Y-121797000D01*
X87959333Y-121844619D01*
X87983142Y-121892238D01*
X88006952Y-121987476D01*
X88006952Y-122058904D01*
X87983142Y-122154142D01*
X87959333Y-122201761D01*
X87911714Y-122249380D01*
X87840285Y-122273190D01*
X87721238Y-122273190D01*
X86756952Y-124567190D02*
X86923619Y-125067190D01*
X87090285Y-124567190D01*
X87471238Y-125067190D02*
X87471238Y-124567190D01*
X87471238Y-125043380D02*
X87423619Y-125067190D01*
X87328380Y-125067190D01*
X87280761Y-125043380D01*
X87256952Y-125019571D01*
X87233142Y-124971952D01*
X87233142Y-124829095D01*
X87256952Y-124781476D01*
X87280761Y-124757666D01*
X87328380Y-124733857D01*
X87423619Y-124733857D01*
X87471238Y-124757666D01*
X87923619Y-125067190D02*
X87923619Y-124567190D01*
X87923619Y-125043380D02*
X87876000Y-125067190D01*
X87780761Y-125067190D01*
X87733142Y-125043380D01*
X87709333Y-125019571D01*
X87685523Y-124971952D01*
X87685523Y-124829095D01*
X87709333Y-124781476D01*
X87733142Y-124757666D01*
X87780761Y-124733857D01*
X87876000Y-124733857D01*
X87923619Y-124757666D01*
%TO.C,J_PW_3*%
X120165904Y-107041190D02*
X120475428Y-107041190D01*
X120308761Y-107231666D01*
X120380190Y-107231666D01*
X120427809Y-107255476D01*
X120451619Y-107279285D01*
X120475428Y-107326904D01*
X120475428Y-107445952D01*
X120451619Y-107493571D01*
X120427809Y-107517380D01*
X120380190Y-107541190D01*
X120237333Y-107541190D01*
X120189714Y-107517380D01*
X120165904Y-107493571D01*
X120689714Y-107493571D02*
X120713523Y-107517380D01*
X120689714Y-107541190D01*
X120665904Y-107517380D01*
X120689714Y-107493571D01*
X120689714Y-107541190D01*
X120880190Y-107041190D02*
X121189714Y-107041190D01*
X121023047Y-107231666D01*
X121094476Y-107231666D01*
X121142095Y-107255476D01*
X121165904Y-107279285D01*
X121189714Y-107326904D01*
X121189714Y-107445952D01*
X121165904Y-107493571D01*
X121142095Y-107517380D01*
X121094476Y-107541190D01*
X120951619Y-107541190D01*
X120904000Y-107517380D01*
X120880190Y-107493571D01*
X121332571Y-107041190D02*
X121499238Y-107541190D01*
X121665904Y-107041190D01*
%TO.C,J_PW_1*%
X118364095Y-113899190D02*
X118530761Y-114399190D01*
X118697428Y-113899190D01*
X118864095Y-114399190D02*
X118864095Y-113899190D01*
X118864095Y-114089666D02*
X118911714Y-114065857D01*
X119006952Y-114065857D01*
X119054571Y-114089666D01*
X119078380Y-114113476D01*
X119102190Y-114161095D01*
X119102190Y-114303952D01*
X119078380Y-114351571D01*
X119054571Y-114375380D01*
X119006952Y-114399190D01*
X118911714Y-114399190D01*
X118864095Y-114375380D01*
X119530761Y-114399190D02*
X119530761Y-114137285D01*
X119506952Y-114089666D01*
X119459333Y-114065857D01*
X119364095Y-114065857D01*
X119316476Y-114089666D01*
X119530761Y-114375380D02*
X119483142Y-114399190D01*
X119364095Y-114399190D01*
X119316476Y-114375380D01*
X119292666Y-114327761D01*
X119292666Y-114280142D01*
X119316476Y-114232523D01*
X119364095Y-114208714D01*
X119483142Y-114208714D01*
X119530761Y-114184904D01*
X119697428Y-114065857D02*
X119887904Y-114065857D01*
X119768857Y-113899190D02*
X119768857Y-114327761D01*
X119792666Y-114375380D01*
X119840285Y-114399190D01*
X119887904Y-114399190D01*
X121296952Y-114026190D02*
X121463619Y-114526190D01*
X121630285Y-114026190D01*
X121773142Y-114502380D02*
X121820761Y-114526190D01*
X121916000Y-114526190D01*
X121963619Y-114502380D01*
X121987428Y-114454761D01*
X121987428Y-114430952D01*
X121963619Y-114383333D01*
X121916000Y-114359523D01*
X121844571Y-114359523D01*
X121796952Y-114335714D01*
X121773142Y-114288095D01*
X121773142Y-114264285D01*
X121796952Y-114216666D01*
X121844571Y-114192857D01*
X121916000Y-114192857D01*
X121963619Y-114216666D01*
%TO.C,J_CN_2*%
X135278857Y-125178333D02*
X135516952Y-125178333D01*
X135231238Y-125321190D02*
X135397904Y-124821190D01*
X135564571Y-125321190D01*
X135945523Y-124821190D02*
X135850285Y-124821190D01*
X135802666Y-124845000D01*
X135778857Y-124868809D01*
X135731238Y-124940238D01*
X135707428Y-125035476D01*
X135707428Y-125225952D01*
X135731238Y-125273571D01*
X135755047Y-125297380D01*
X135802666Y-125321190D01*
X135897904Y-125321190D01*
X135945523Y-125297380D01*
X135969333Y-125273571D01*
X135993142Y-125225952D01*
X135993142Y-125106904D01*
X135969333Y-125059285D01*
X135945523Y-125035476D01*
X135897904Y-125011666D01*
X135802666Y-125011666D01*
X135755047Y-125035476D01*
X135731238Y-125059285D01*
X135707428Y-125106904D01*
X132893619Y-125059285D02*
X132965047Y-125083095D01*
X132988857Y-125106904D01*
X133012666Y-125154523D01*
X133012666Y-125225952D01*
X132988857Y-125273571D01*
X132965047Y-125297380D01*
X132917428Y-125321190D01*
X132726952Y-125321190D01*
X132726952Y-124821190D01*
X132893619Y-124821190D01*
X132941238Y-124845000D01*
X132965047Y-124868809D01*
X132988857Y-124916428D01*
X132988857Y-124964047D01*
X132965047Y-125011666D01*
X132941238Y-125035476D01*
X132893619Y-125059285D01*
X132726952Y-125059285D01*
X133179333Y-124821190D02*
X133512666Y-124821190D01*
X133298380Y-125321190D01*
X130198857Y-125178333D02*
X130436952Y-125178333D01*
X130151238Y-125321190D02*
X130317904Y-124821190D01*
X130484571Y-125321190D01*
X130889333Y-124821190D02*
X130651238Y-124821190D01*
X130627428Y-125059285D01*
X130651238Y-125035476D01*
X130698857Y-125011666D01*
X130817904Y-125011666D01*
X130865523Y-125035476D01*
X130889333Y-125059285D01*
X130913142Y-125106904D01*
X130913142Y-125225952D01*
X130889333Y-125273571D01*
X130865523Y-125297380D01*
X130817904Y-125321190D01*
X130698857Y-125321190D01*
X130651238Y-125297380D01*
X130627428Y-125273571D01*
X127813619Y-125059285D02*
X127885047Y-125083095D01*
X127908857Y-125106904D01*
X127932666Y-125154523D01*
X127932666Y-125225952D01*
X127908857Y-125273571D01*
X127885047Y-125297380D01*
X127837428Y-125321190D01*
X127646952Y-125321190D01*
X127646952Y-124821190D01*
X127813619Y-124821190D01*
X127861238Y-124845000D01*
X127885047Y-124868809D01*
X127908857Y-124916428D01*
X127908857Y-124964047D01*
X127885047Y-125011666D01*
X127861238Y-125035476D01*
X127813619Y-125059285D01*
X127646952Y-125059285D01*
X128218380Y-125035476D02*
X128170761Y-125011666D01*
X128146952Y-124987857D01*
X128123142Y-124940238D01*
X128123142Y-124916428D01*
X128146952Y-124868809D01*
X128170761Y-124845000D01*
X128218380Y-124821190D01*
X128313619Y-124821190D01*
X128361238Y-124845000D01*
X128385047Y-124868809D01*
X128408857Y-124916428D01*
X128408857Y-124940238D01*
X128385047Y-124987857D01*
X128361238Y-125011666D01*
X128313619Y-125035476D01*
X128218380Y-125035476D01*
X128170761Y-125059285D01*
X128146952Y-125083095D01*
X128123142Y-125130714D01*
X128123142Y-125225952D01*
X128146952Y-125273571D01*
X128170761Y-125297380D01*
X128218380Y-125321190D01*
X128313619Y-125321190D01*
X128361238Y-125297380D01*
X128385047Y-125273571D01*
X128408857Y-125225952D01*
X128408857Y-125130714D01*
X128385047Y-125083095D01*
X128361238Y-125059285D01*
X128313619Y-125035476D01*
%TO.C,J_CN_1*%
X109906619Y-124932285D02*
X109978047Y-124956095D01*
X110001857Y-124979904D01*
X110025666Y-125027523D01*
X110025666Y-125098952D01*
X110001857Y-125146571D01*
X109978047Y-125170380D01*
X109930428Y-125194190D01*
X109739952Y-125194190D01*
X109739952Y-124694190D01*
X109906619Y-124694190D01*
X109954238Y-124718000D01*
X109978047Y-124741809D01*
X110001857Y-124789428D01*
X110001857Y-124837047D01*
X109978047Y-124884666D01*
X109954238Y-124908476D01*
X109906619Y-124932285D01*
X109739952Y-124932285D01*
X110478047Y-124694190D02*
X110239952Y-124694190D01*
X110216142Y-124932285D01*
X110239952Y-124908476D01*
X110287571Y-124884666D01*
X110406619Y-124884666D01*
X110454238Y-124908476D01*
X110478047Y-124932285D01*
X110501857Y-124979904D01*
X110501857Y-125098952D01*
X110478047Y-125146571D01*
X110454238Y-125170380D01*
X110406619Y-125194190D01*
X110287571Y-125194190D01*
X110239952Y-125170380D01*
X110216142Y-125146571D01*
X107211857Y-125051333D02*
X107449952Y-125051333D01*
X107164238Y-125194190D02*
X107330904Y-124694190D01*
X107497571Y-125194190D01*
X107735666Y-124908476D02*
X107688047Y-124884666D01*
X107664238Y-124860857D01*
X107640428Y-124813238D01*
X107640428Y-124789428D01*
X107664238Y-124741809D01*
X107688047Y-124718000D01*
X107735666Y-124694190D01*
X107830904Y-124694190D01*
X107878523Y-124718000D01*
X107902333Y-124741809D01*
X107926142Y-124789428D01*
X107926142Y-124813238D01*
X107902333Y-124860857D01*
X107878523Y-124884666D01*
X107830904Y-124908476D01*
X107735666Y-124908476D01*
X107688047Y-124932285D01*
X107664238Y-124956095D01*
X107640428Y-125003714D01*
X107640428Y-125098952D01*
X107664238Y-125146571D01*
X107688047Y-125170380D01*
X107735666Y-125194190D01*
X107830904Y-125194190D01*
X107878523Y-125170380D01*
X107902333Y-125146571D01*
X107926142Y-125098952D01*
X107926142Y-125003714D01*
X107902333Y-124956095D01*
X107878523Y-124932285D01*
X107830904Y-124908476D01*
X104826619Y-124932285D02*
X104898047Y-124956095D01*
X104921857Y-124979904D01*
X104945666Y-125027523D01*
X104945666Y-125098952D01*
X104921857Y-125146571D01*
X104898047Y-125170380D01*
X104850428Y-125194190D01*
X104659952Y-125194190D01*
X104659952Y-124694190D01*
X104826619Y-124694190D01*
X104874238Y-124718000D01*
X104898047Y-124741809D01*
X104921857Y-124789428D01*
X104921857Y-124837047D01*
X104898047Y-124884666D01*
X104874238Y-124908476D01*
X104826619Y-124932285D01*
X104659952Y-124932285D01*
X105374238Y-124694190D02*
X105279000Y-124694190D01*
X105231380Y-124718000D01*
X105207571Y-124741809D01*
X105159952Y-124813238D01*
X105136142Y-124908476D01*
X105136142Y-125098952D01*
X105159952Y-125146571D01*
X105183761Y-125170380D01*
X105231380Y-125194190D01*
X105326619Y-125194190D01*
X105374238Y-125170380D01*
X105398047Y-125146571D01*
X105421857Y-125098952D01*
X105421857Y-124979904D01*
X105398047Y-124932285D01*
X105374238Y-124908476D01*
X105326619Y-124884666D01*
X105231380Y-124884666D01*
X105183761Y-124908476D01*
X105159952Y-124932285D01*
X105136142Y-124979904D01*
X102258857Y-125051333D02*
X102496952Y-125051333D01*
X102211238Y-125194190D02*
X102377904Y-124694190D01*
X102544571Y-125194190D01*
X102663619Y-124694190D02*
X102996952Y-124694190D01*
X102782666Y-125194190D01*
%TO.C,U_PW_1*%
D19*
X98137857Y-117273428D02*
X98137857Y-117759142D01*
X98166428Y-117816285D01*
X98195000Y-117844857D01*
X98252142Y-117873428D01*
X98366428Y-117873428D01*
X98423571Y-117844857D01*
X98452142Y-117816285D01*
X98480714Y-117759142D01*
X98480714Y-117273428D01*
X98623571Y-117930571D02*
X99080714Y-117930571D01*
X99223571Y-117873428D02*
X99223571Y-117273428D01*
X99452142Y-117273428D01*
X99509285Y-117302000D01*
X99537857Y-117330571D01*
X99566428Y-117387714D01*
X99566428Y-117473428D01*
X99537857Y-117530571D01*
X99509285Y-117559142D01*
X99452142Y-117587714D01*
X99223571Y-117587714D01*
X99766428Y-117273428D02*
X99909285Y-117873428D01*
X100023571Y-117444857D01*
X100137857Y-117873428D01*
X100280714Y-117273428D01*
X100366428Y-117930571D02*
X100823571Y-117930571D01*
X101280714Y-117873428D02*
X100937857Y-117873428D01*
X101109285Y-117873428D02*
X101109285Y-117273428D01*
X101052142Y-117359142D01*
X100995000Y-117416285D01*
X100937857Y-117444857D01*
%TO.C,D_PW_3*%
D17*
X116270453Y-105046883D02*
X116270453Y-104726615D01*
X116346708Y-104726615D01*
X116392460Y-104741866D01*
X116422962Y-104772367D01*
X116438213Y-104802869D01*
X116453464Y-104863872D01*
X116453464Y-104909625D01*
X116438213Y-104970628D01*
X116422962Y-105001130D01*
X116392460Y-105031632D01*
X116346708Y-105046883D01*
X116270453Y-105046883D01*
X116514467Y-105077384D02*
X116758481Y-105077384D01*
X116834735Y-105046883D02*
X116834735Y-104726615D01*
X116956742Y-104726615D01*
X116987244Y-104741866D01*
X117002494Y-104757116D01*
X117017745Y-104787618D01*
X117017745Y-104833371D01*
X117002494Y-104863872D01*
X116987244Y-104879123D01*
X116956742Y-104894374D01*
X116834735Y-104894374D01*
X117124501Y-104726615D02*
X117200756Y-105046883D01*
X117261759Y-104818120D01*
X117322762Y-105046883D01*
X117399017Y-104726615D01*
X117444769Y-105077384D02*
X117688783Y-105077384D01*
X117734536Y-104726615D02*
X117932797Y-104726615D01*
X117826041Y-104848622D01*
X117871793Y-104848622D01*
X117902295Y-104863872D01*
X117917546Y-104879123D01*
X117932797Y-104909625D01*
X117932797Y-104985879D01*
X117917546Y-105016381D01*
X117902295Y-105031632D01*
X117871793Y-105046883D01*
X117780288Y-105046883D01*
X117749786Y-105031632D01*
X117734536Y-105016381D01*
%TO.C,C_PW_1*%
D16*
X109490000Y-124257571D02*
X109466190Y-124281380D01*
X109394761Y-124305190D01*
X109347142Y-124305190D01*
X109275714Y-124281380D01*
X109228095Y-124233761D01*
X109204285Y-124186142D01*
X109180476Y-124090904D01*
X109180476Y-124019476D01*
X109204285Y-123924238D01*
X109228095Y-123876619D01*
X109275714Y-123829000D01*
X109347142Y-123805190D01*
X109394761Y-123805190D01*
X109466190Y-123829000D01*
X109490000Y-123852809D01*
X109585238Y-124352809D02*
X109966190Y-124352809D01*
X110085238Y-124305190D02*
X110085238Y-123805190D01*
X110275714Y-123805190D01*
X110323333Y-123829000D01*
X110347142Y-123852809D01*
X110370952Y-123900428D01*
X110370952Y-123971857D01*
X110347142Y-124019476D01*
X110323333Y-124043285D01*
X110275714Y-124067095D01*
X110085238Y-124067095D01*
X110537619Y-123805190D02*
X110656666Y-124305190D01*
X110751904Y-123948047D01*
X110847142Y-124305190D01*
X110966190Y-123805190D01*
X111037619Y-124352809D02*
X111418571Y-124352809D01*
X111799523Y-124305190D02*
X111513809Y-124305190D01*
X111656666Y-124305190D02*
X111656666Y-123805190D01*
X111609047Y-123876619D01*
X111561428Y-123924238D01*
X111513809Y-123948047D01*
%TO.C,D_PW_1*%
D17*
X112617103Y-117282652D02*
X112296835Y-117282652D01*
X112296835Y-117206398D01*
X112312086Y-117160645D01*
X112342587Y-117130143D01*
X112373089Y-117114892D01*
X112434092Y-117099642D01*
X112479845Y-117099642D01*
X112540848Y-117114892D01*
X112571350Y-117130143D01*
X112601852Y-117160645D01*
X112617103Y-117206398D01*
X112617103Y-117282652D01*
X112647604Y-117038638D02*
X112647604Y-116794624D01*
X112617103Y-116718370D02*
X112296835Y-116718370D01*
X112296835Y-116596363D01*
X112312086Y-116565862D01*
X112327336Y-116550611D01*
X112357838Y-116535360D01*
X112403591Y-116535360D01*
X112434092Y-116550611D01*
X112449343Y-116565862D01*
X112464594Y-116596363D01*
X112464594Y-116718370D01*
X112296835Y-116428604D02*
X112617103Y-116352350D01*
X112388340Y-116291346D01*
X112617103Y-116230343D01*
X112296835Y-116154088D01*
X112647604Y-116108336D02*
X112647604Y-115864322D01*
X112617103Y-115620308D02*
X112617103Y-115803319D01*
X112617103Y-115711814D02*
X112296835Y-115711814D01*
X112342587Y-115742315D01*
X112373089Y-115772817D01*
X112388340Y-115803319D01*
%TO.C,C_IMU_1*%
X104822607Y-98216514D02*
X104841355Y-98235261D01*
X104860102Y-98291504D01*
X104860102Y-98329000D01*
X104841355Y-98385243D01*
X104803859Y-98422738D01*
X104766364Y-98441486D01*
X104691373Y-98460233D01*
X104635130Y-98460233D01*
X104560140Y-98441486D01*
X104522644Y-98422738D01*
X104485149Y-98385243D01*
X104466401Y-98329000D01*
X104466401Y-98291504D01*
X104485149Y-98235261D01*
X104503897Y-98216514D01*
X104897598Y-98141523D02*
X104897598Y-97841560D01*
X104860102Y-97747822D02*
X104466401Y-97747822D01*
X104860102Y-97560345D02*
X104466401Y-97560345D01*
X104747616Y-97429112D01*
X104466401Y-97297878D01*
X104860102Y-97297878D01*
X104466401Y-97110401D02*
X104785112Y-97110401D01*
X104822607Y-97091654D01*
X104841355Y-97072906D01*
X104860102Y-97035411D01*
X104860102Y-96960420D01*
X104841355Y-96922925D01*
X104822607Y-96904177D01*
X104785112Y-96885429D01*
X104466401Y-96885429D01*
X104897598Y-96791691D02*
X104897598Y-96491728D01*
X104860102Y-96191766D02*
X104860102Y-96416738D01*
X104860102Y-96304252D02*
X104466401Y-96304252D01*
X104522644Y-96341747D01*
X104560140Y-96379242D01*
X104578887Y-96416738D01*
%TO.C,C_IMU_2*%
X103806607Y-106344514D02*
X103825355Y-106363261D01*
X103844102Y-106419504D01*
X103844102Y-106457000D01*
X103825355Y-106513243D01*
X103787859Y-106550738D01*
X103750364Y-106569486D01*
X103675373Y-106588233D01*
X103619130Y-106588233D01*
X103544140Y-106569486D01*
X103506644Y-106550738D01*
X103469149Y-106513243D01*
X103450401Y-106457000D01*
X103450401Y-106419504D01*
X103469149Y-106363261D01*
X103487897Y-106344514D01*
X103881598Y-106269523D02*
X103881598Y-105969560D01*
X103844102Y-105875822D02*
X103450401Y-105875822D01*
X103844102Y-105688345D02*
X103450401Y-105688345D01*
X103731616Y-105557112D01*
X103450401Y-105425878D01*
X103844102Y-105425878D01*
X103450401Y-105238401D02*
X103769112Y-105238401D01*
X103806607Y-105219654D01*
X103825355Y-105200906D01*
X103844102Y-105163411D01*
X103844102Y-105088420D01*
X103825355Y-105050925D01*
X103806607Y-105032177D01*
X103769112Y-105013429D01*
X103450401Y-105013429D01*
X103881598Y-104919691D02*
X103881598Y-104619728D01*
X103487897Y-104544738D02*
X103469149Y-104525990D01*
X103450401Y-104488495D01*
X103450401Y-104394756D01*
X103469149Y-104357261D01*
X103487897Y-104338513D01*
X103525392Y-104319766D01*
X103562887Y-104319766D01*
X103619130Y-104338513D01*
X103844102Y-104563485D01*
X103844102Y-104319766D01*
%TO.C,C_IMU_3*%
X108886607Y-103550514D02*
X108905355Y-103569261D01*
X108924102Y-103625504D01*
X108924102Y-103663000D01*
X108905355Y-103719243D01*
X108867859Y-103756738D01*
X108830364Y-103775486D01*
X108755373Y-103794233D01*
X108699130Y-103794233D01*
X108624140Y-103775486D01*
X108586644Y-103756738D01*
X108549149Y-103719243D01*
X108530401Y-103663000D01*
X108530401Y-103625504D01*
X108549149Y-103569261D01*
X108567897Y-103550514D01*
X108961598Y-103475523D02*
X108961598Y-103175560D01*
X108924102Y-103081822D02*
X108530401Y-103081822D01*
X108924102Y-102894345D02*
X108530401Y-102894345D01*
X108811616Y-102763112D01*
X108530401Y-102631878D01*
X108924102Y-102631878D01*
X108530401Y-102444401D02*
X108849112Y-102444401D01*
X108886607Y-102425654D01*
X108905355Y-102406906D01*
X108924102Y-102369411D01*
X108924102Y-102294420D01*
X108905355Y-102256925D01*
X108886607Y-102238177D01*
X108849112Y-102219429D01*
X108530401Y-102219429D01*
X108961598Y-102125691D02*
X108961598Y-101825728D01*
X108530401Y-101769485D02*
X108530401Y-101525766D01*
X108680383Y-101656999D01*
X108680383Y-101600756D01*
X108699130Y-101563261D01*
X108717878Y-101544513D01*
X108755373Y-101525766D01*
X108849112Y-101525766D01*
X108886607Y-101544513D01*
X108905355Y-101563261D01*
X108924102Y-101600756D01*
X108924102Y-101713242D01*
X108905355Y-101750738D01*
X108886607Y-101769485D01*
%TO.C,C_PW_2*%
D16*
X89586571Y-127238000D02*
X89610380Y-127261809D01*
X89634190Y-127333238D01*
X89634190Y-127380857D01*
X89610380Y-127452285D01*
X89562761Y-127499904D01*
X89515142Y-127523714D01*
X89419904Y-127547523D01*
X89348476Y-127547523D01*
X89253238Y-127523714D01*
X89205619Y-127499904D01*
X89158000Y-127452285D01*
X89134190Y-127380857D01*
X89134190Y-127333238D01*
X89158000Y-127261809D01*
X89181809Y-127238000D01*
X89681809Y-127142761D02*
X89681809Y-126761809D01*
X89634190Y-126642761D02*
X89134190Y-126642761D01*
X89134190Y-126452285D01*
X89158000Y-126404666D01*
X89181809Y-126380857D01*
X89229428Y-126357047D01*
X89300857Y-126357047D01*
X89348476Y-126380857D01*
X89372285Y-126404666D01*
X89396095Y-126452285D01*
X89396095Y-126642761D01*
X89134190Y-126190380D02*
X89634190Y-126071333D01*
X89277047Y-125976095D01*
X89634190Y-125880857D01*
X89134190Y-125761809D01*
X89681809Y-125690380D02*
X89681809Y-125309428D01*
X89181809Y-125214190D02*
X89158000Y-125190380D01*
X89134190Y-125142761D01*
X89134190Y-125023714D01*
X89158000Y-124976095D01*
X89181809Y-124952285D01*
X89229428Y-124928476D01*
X89277047Y-124928476D01*
X89348476Y-124952285D01*
X89634190Y-125238000D01*
X89634190Y-124928476D01*
%TO.C,C_PW_3*%
X93742000Y-114732571D02*
X93718190Y-114756380D01*
X93646761Y-114780190D01*
X93599142Y-114780190D01*
X93527714Y-114756380D01*
X93480095Y-114708761D01*
X93456285Y-114661142D01*
X93432476Y-114565904D01*
X93432476Y-114494476D01*
X93456285Y-114399238D01*
X93480095Y-114351619D01*
X93527714Y-114304000D01*
X93599142Y-114280190D01*
X93646761Y-114280190D01*
X93718190Y-114304000D01*
X93742000Y-114327809D01*
X93837238Y-114827809D02*
X94218190Y-114827809D01*
X94337238Y-114780190D02*
X94337238Y-114280190D01*
X94527714Y-114280190D01*
X94575333Y-114304000D01*
X94599142Y-114327809D01*
X94622952Y-114375428D01*
X94622952Y-114446857D01*
X94599142Y-114494476D01*
X94575333Y-114518285D01*
X94527714Y-114542095D01*
X94337238Y-114542095D01*
X94789619Y-114280190D02*
X94908666Y-114780190D01*
X95003904Y-114423047D01*
X95099142Y-114780190D01*
X95218190Y-114280190D01*
X95289619Y-114827809D02*
X95670571Y-114827809D01*
X95742000Y-114280190D02*
X96051523Y-114280190D01*
X95884857Y-114470666D01*
X95956285Y-114470666D01*
X96003904Y-114494476D01*
X96027714Y-114518285D01*
X96051523Y-114565904D01*
X96051523Y-114684952D01*
X96027714Y-114732571D01*
X96003904Y-114756380D01*
X95956285Y-114780190D01*
X95813428Y-114780190D01*
X95765809Y-114756380D01*
X95742000Y-114732571D01*
%TO.C,C_PW_4*%
D17*
X103591058Y-116024056D02*
X103568483Y-116046631D01*
X103500759Y-116069205D01*
X103455610Y-116069205D01*
X103387886Y-116046631D01*
X103342737Y-116001482D01*
X103320162Y-115956332D01*
X103297587Y-115866034D01*
X103297587Y-115798310D01*
X103320162Y-115708011D01*
X103342737Y-115662862D01*
X103387886Y-115617713D01*
X103455610Y-115595138D01*
X103500759Y-115595138D01*
X103568483Y-115617713D01*
X103591058Y-115640288D01*
X103681356Y-116114355D02*
X104042550Y-116114355D01*
X104155423Y-116069205D02*
X104155423Y-115595138D01*
X104336020Y-115595138D01*
X104381169Y-115617713D01*
X104403744Y-115640288D01*
X104426318Y-115685437D01*
X104426318Y-115753161D01*
X104403744Y-115798310D01*
X104381169Y-115820885D01*
X104336020Y-115843459D01*
X104155423Y-115843459D01*
X104584341Y-115595138D02*
X104697214Y-116069205D01*
X104787512Y-115730586D01*
X104877811Y-116069205D01*
X104990684Y-115595138D01*
X105058408Y-116114355D02*
X105419602Y-116114355D01*
X105735646Y-115753161D02*
X105735646Y-116069205D01*
X105622773Y-115572564D02*
X105509900Y-115911183D01*
X105803370Y-115911183D01*
%TO.C,C_PW_5*%
D16*
X111776000Y-104318571D02*
X111752190Y-104342380D01*
X111680761Y-104366190D01*
X111633142Y-104366190D01*
X111561714Y-104342380D01*
X111514095Y-104294761D01*
X111490285Y-104247142D01*
X111466476Y-104151904D01*
X111466476Y-104080476D01*
X111490285Y-103985238D01*
X111514095Y-103937619D01*
X111561714Y-103890000D01*
X111633142Y-103866190D01*
X111680761Y-103866190D01*
X111752190Y-103890000D01*
X111776000Y-103913809D01*
X111871238Y-104413809D02*
X112252190Y-104413809D01*
X112371238Y-104366190D02*
X112371238Y-103866190D01*
X112561714Y-103866190D01*
X112609333Y-103890000D01*
X112633142Y-103913809D01*
X112656952Y-103961428D01*
X112656952Y-104032857D01*
X112633142Y-104080476D01*
X112609333Y-104104285D01*
X112561714Y-104128095D01*
X112371238Y-104128095D01*
X112823619Y-103866190D02*
X112942666Y-104366190D01*
X113037904Y-104009047D01*
X113133142Y-104366190D01*
X113252190Y-103866190D01*
X113323619Y-104413809D02*
X113704571Y-104413809D01*
X114061714Y-103866190D02*
X113823619Y-103866190D01*
X113799809Y-104104285D01*
X113823619Y-104080476D01*
X113871238Y-104056666D01*
X113990285Y-104056666D01*
X114037904Y-104080476D01*
X114061714Y-104104285D01*
X114085523Y-104151904D01*
X114085523Y-104270952D01*
X114061714Y-104318571D01*
X114037904Y-104342380D01*
X113990285Y-104366190D01*
X113871238Y-104366190D01*
X113823619Y-104342380D01*
X113799809Y-104318571D01*
D18*
X112776000Y-105370380D02*
X112776000Y-105608476D01*
X112537904Y-105513238D02*
X112776000Y-105608476D01*
X113014095Y-105513238D01*
X112633142Y-105798952D02*
X112776000Y-105608476D01*
X112918857Y-105798952D01*
%TO.C,CP_ESP_1*%
D19*
X97218714Y-71207285D02*
X97190142Y-71235857D01*
X97104428Y-71264428D01*
X97047285Y-71264428D01*
X96961571Y-71235857D01*
X96904428Y-71178714D01*
X96875857Y-71121571D01*
X96847285Y-71007285D01*
X96847285Y-70921571D01*
X96875857Y-70807285D01*
X96904428Y-70750142D01*
X96961571Y-70693000D01*
X97047285Y-70664428D01*
X97104428Y-70664428D01*
X97190142Y-70693000D01*
X97218714Y-70721571D01*
X97475857Y-71264428D02*
X97475857Y-70664428D01*
X97704428Y-70664428D01*
X97761571Y-70693000D01*
X97790142Y-70721571D01*
X97818714Y-70778714D01*
X97818714Y-70864428D01*
X97790142Y-70921571D01*
X97761571Y-70950142D01*
X97704428Y-70978714D01*
X97475857Y-70978714D01*
X97933000Y-71321571D02*
X98390142Y-71321571D01*
X98533000Y-70950142D02*
X98733000Y-70950142D01*
X98818714Y-71264428D02*
X98533000Y-71264428D01*
X98533000Y-70664428D01*
X98818714Y-70664428D01*
X99047285Y-71235857D02*
X99133000Y-71264428D01*
X99275857Y-71264428D01*
X99333000Y-71235857D01*
X99361571Y-71207285D01*
X99390142Y-71150142D01*
X99390142Y-71093000D01*
X99361571Y-71035857D01*
X99333000Y-71007285D01*
X99275857Y-70978714D01*
X99161571Y-70950142D01*
X99104428Y-70921571D01*
X99075857Y-70893000D01*
X99047285Y-70835857D01*
X99047285Y-70778714D01*
X99075857Y-70721571D01*
X99104428Y-70693000D01*
X99161571Y-70664428D01*
X99304428Y-70664428D01*
X99390142Y-70693000D01*
X99647285Y-71264428D02*
X99647285Y-70664428D01*
X99875857Y-70664428D01*
X99933000Y-70693000D01*
X99961571Y-70721571D01*
X99990142Y-70778714D01*
X99990142Y-70864428D01*
X99961571Y-70921571D01*
X99933000Y-70950142D01*
X99875857Y-70978714D01*
X99647285Y-70978714D01*
X100104428Y-71321571D02*
X100561571Y-71321571D01*
X101018714Y-71264428D02*
X100675857Y-71264428D01*
X100847285Y-71264428D02*
X100847285Y-70664428D01*
X100790142Y-70750142D01*
X100733000Y-70807285D01*
X100675857Y-70835857D01*
D18*
X104902000Y-72350380D02*
X104902000Y-72588476D01*
X104663904Y-72493238D02*
X104902000Y-72588476D01*
X105140095Y-72493238D01*
X104759142Y-72778952D02*
X104902000Y-72588476D01*
X105044857Y-72778952D01*
X110109047Y-72588428D02*
X110870952Y-72588428D01*
X110490000Y-72969380D02*
X110490000Y-72207476D01*
%TO.C,D_PW_2*%
D16*
X109319190Y-118760714D02*
X108819190Y-118760714D01*
X108819190Y-118641666D01*
X108843000Y-118570238D01*
X108890619Y-118522619D01*
X108938238Y-118498809D01*
X109033476Y-118475000D01*
X109104904Y-118475000D01*
X109200142Y-118498809D01*
X109247761Y-118522619D01*
X109295380Y-118570238D01*
X109319190Y-118641666D01*
X109319190Y-118760714D01*
X109366809Y-118379761D02*
X109366809Y-117998809D01*
X109319190Y-117879761D02*
X108819190Y-117879761D01*
X108819190Y-117689285D01*
X108843000Y-117641666D01*
X108866809Y-117617857D01*
X108914428Y-117594047D01*
X108985857Y-117594047D01*
X109033476Y-117617857D01*
X109057285Y-117641666D01*
X109081095Y-117689285D01*
X109081095Y-117879761D01*
X108819190Y-117427380D02*
X109319190Y-117308333D01*
X108962047Y-117213095D01*
X109319190Y-117117857D01*
X108819190Y-116998809D01*
X109366809Y-116927380D02*
X109366809Y-116546428D01*
X108866809Y-116451190D02*
X108843000Y-116427380D01*
X108819190Y-116379761D01*
X108819190Y-116260714D01*
X108843000Y-116213095D01*
X108866809Y-116189285D01*
X108914428Y-116165476D01*
X108962047Y-116165476D01*
X109033476Y-116189285D01*
X109319190Y-116475000D01*
X109319190Y-116165476D01*
%TO.C,L_PW_1*%
X100854000Y-112240190D02*
X100615904Y-112240190D01*
X100615904Y-111740190D01*
X100901619Y-112287809D02*
X101282571Y-112287809D01*
X101401619Y-112240190D02*
X101401619Y-111740190D01*
X101592095Y-111740190D01*
X101639714Y-111764000D01*
X101663523Y-111787809D01*
X101687333Y-111835428D01*
X101687333Y-111906857D01*
X101663523Y-111954476D01*
X101639714Y-111978285D01*
X101592095Y-112002095D01*
X101401619Y-112002095D01*
X101854000Y-111740190D02*
X101973047Y-112240190D01*
X102068285Y-111883047D01*
X102163523Y-112240190D01*
X102282571Y-111740190D01*
X102354000Y-112287809D02*
X102734952Y-112287809D01*
X103115904Y-112240190D02*
X102830190Y-112240190D01*
X102973047Y-112240190D02*
X102973047Y-111740190D01*
X102925428Y-111811619D01*
X102877809Y-111859238D01*
X102830190Y-111883047D01*
%TO.C,Q_PW_1*%
D19*
X109271714Y-109874809D02*
X109224095Y-109851000D01*
X109176476Y-109803380D01*
X109105047Y-109731952D01*
X109057428Y-109708142D01*
X109009809Y-109708142D01*
X109033619Y-109827190D02*
X108986000Y-109803380D01*
X108938380Y-109755761D01*
X108914571Y-109660523D01*
X108914571Y-109493857D01*
X108938380Y-109398619D01*
X108986000Y-109351000D01*
X109033619Y-109327190D01*
X109128857Y-109327190D01*
X109176476Y-109351000D01*
X109224095Y-109398619D01*
X109247904Y-109493857D01*
X109247904Y-109660523D01*
X109224095Y-109755761D01*
X109176476Y-109803380D01*
X109128857Y-109827190D01*
X109033619Y-109827190D01*
X109343142Y-109874809D02*
X109724095Y-109874809D01*
X109843142Y-109827190D02*
X109843142Y-109327190D01*
X110033619Y-109327190D01*
X110081238Y-109351000D01*
X110105047Y-109374809D01*
X110128857Y-109422428D01*
X110128857Y-109493857D01*
X110105047Y-109541476D01*
X110081238Y-109565285D01*
X110033619Y-109589095D01*
X109843142Y-109589095D01*
X110295523Y-109327190D02*
X110414571Y-109827190D01*
X110509809Y-109470047D01*
X110605047Y-109827190D01*
X110724095Y-109327190D01*
X110795523Y-109874809D02*
X111176476Y-109874809D01*
X111557428Y-109827190D02*
X111271714Y-109827190D01*
X111414571Y-109827190D02*
X111414571Y-109327190D01*
X111366952Y-109398619D01*
X111319333Y-109446238D01*
X111271714Y-109470047D01*
D18*
X112776000Y-110196380D02*
X112776000Y-110434476D01*
X112537904Y-110339238D02*
X112776000Y-110434476D01*
X113014095Y-110339238D01*
X112633142Y-110624952D02*
X112776000Y-110434476D01*
X112918857Y-110624952D01*
%TO.C,R_ESP_1*%
D17*
X93686990Y-85141102D02*
X93555756Y-84953626D01*
X93462018Y-85141102D02*
X93462018Y-84747401D01*
X93611999Y-84747401D01*
X93649495Y-84766149D01*
X93668242Y-84784897D01*
X93686990Y-84822392D01*
X93686990Y-84878635D01*
X93668242Y-84916130D01*
X93649495Y-84934878D01*
X93611999Y-84953626D01*
X93462018Y-84953626D01*
X93761981Y-85178598D02*
X94061943Y-85178598D01*
X94155682Y-84934878D02*
X94286915Y-84934878D01*
X94343158Y-85141102D02*
X94155682Y-85141102D01*
X94155682Y-84747401D01*
X94343158Y-84747401D01*
X94493140Y-85122355D02*
X94549383Y-85141102D01*
X94643121Y-85141102D01*
X94680616Y-85122355D01*
X94699364Y-85103607D01*
X94718112Y-85066112D01*
X94718112Y-85028616D01*
X94699364Y-84991121D01*
X94680616Y-84972373D01*
X94643121Y-84953626D01*
X94568130Y-84934878D01*
X94530635Y-84916130D01*
X94511887Y-84897383D01*
X94493140Y-84859887D01*
X94493140Y-84822392D01*
X94511887Y-84784897D01*
X94530635Y-84766149D01*
X94568130Y-84747401D01*
X94661869Y-84747401D01*
X94718112Y-84766149D01*
X94886841Y-85141102D02*
X94886841Y-84747401D01*
X95036822Y-84747401D01*
X95074317Y-84766149D01*
X95093065Y-84784897D01*
X95111813Y-84822392D01*
X95111813Y-84878635D01*
X95093065Y-84916130D01*
X95074317Y-84934878D01*
X95036822Y-84953626D01*
X94886841Y-84953626D01*
X95186803Y-85178598D02*
X95486766Y-85178598D01*
X95786729Y-85141102D02*
X95561757Y-85141102D01*
X95674243Y-85141102D02*
X95674243Y-84747401D01*
X95636747Y-84803644D01*
X95599252Y-84841140D01*
X95561757Y-84859887D01*
%TO.C,R_ESP_2*%
X89539990Y-79519102D02*
X89408756Y-79331626D01*
X89315018Y-79519102D02*
X89315018Y-79125401D01*
X89464999Y-79125401D01*
X89502495Y-79144149D01*
X89521242Y-79162897D01*
X89539990Y-79200392D01*
X89539990Y-79256635D01*
X89521242Y-79294130D01*
X89502495Y-79312878D01*
X89464999Y-79331626D01*
X89315018Y-79331626D01*
X89614981Y-79556598D02*
X89914943Y-79556598D01*
X90008682Y-79312878D02*
X90139915Y-79312878D01*
X90196158Y-79519102D02*
X90008682Y-79519102D01*
X90008682Y-79125401D01*
X90196158Y-79125401D01*
X90346140Y-79500355D02*
X90402383Y-79519102D01*
X90496121Y-79519102D01*
X90533616Y-79500355D01*
X90552364Y-79481607D01*
X90571112Y-79444112D01*
X90571112Y-79406616D01*
X90552364Y-79369121D01*
X90533616Y-79350373D01*
X90496121Y-79331626D01*
X90421130Y-79312878D01*
X90383635Y-79294130D01*
X90364887Y-79275383D01*
X90346140Y-79237887D01*
X90346140Y-79200392D01*
X90364887Y-79162897D01*
X90383635Y-79144149D01*
X90421130Y-79125401D01*
X90514869Y-79125401D01*
X90571112Y-79144149D01*
X90739841Y-79519102D02*
X90739841Y-79125401D01*
X90889822Y-79125401D01*
X90927317Y-79144149D01*
X90946065Y-79162897D01*
X90964813Y-79200392D01*
X90964813Y-79256635D01*
X90946065Y-79294130D01*
X90927317Y-79312878D01*
X90889822Y-79331626D01*
X90739841Y-79331626D01*
X91039803Y-79556598D02*
X91339766Y-79556598D01*
X91414757Y-79162897D02*
X91433504Y-79144149D01*
X91471000Y-79125401D01*
X91564738Y-79125401D01*
X91602233Y-79144149D01*
X91620981Y-79162897D01*
X91639729Y-79200392D01*
X91639729Y-79237887D01*
X91620981Y-79294130D01*
X91396009Y-79519102D01*
X91639729Y-79519102D01*
%TO.C,R_ESP_3*%
X127359102Y-110349009D02*
X127171626Y-110480243D01*
X127359102Y-110573981D02*
X126965401Y-110573981D01*
X126965401Y-110424000D01*
X126984149Y-110386504D01*
X127002897Y-110367757D01*
X127040392Y-110349009D01*
X127096635Y-110349009D01*
X127134130Y-110367757D01*
X127152878Y-110386504D01*
X127171626Y-110424000D01*
X127171626Y-110573981D01*
X127396598Y-110274018D02*
X127396598Y-109974056D01*
X127152878Y-109880317D02*
X127152878Y-109749084D01*
X127359102Y-109692841D02*
X127359102Y-109880317D01*
X126965401Y-109880317D01*
X126965401Y-109692841D01*
X127340355Y-109542859D02*
X127359102Y-109486616D01*
X127359102Y-109392878D01*
X127340355Y-109355383D01*
X127321607Y-109336635D01*
X127284112Y-109317887D01*
X127246616Y-109317887D01*
X127209121Y-109336635D01*
X127190373Y-109355383D01*
X127171626Y-109392878D01*
X127152878Y-109467869D01*
X127134130Y-109505364D01*
X127115383Y-109524112D01*
X127077887Y-109542859D01*
X127040392Y-109542859D01*
X127002897Y-109524112D01*
X126984149Y-109505364D01*
X126965401Y-109467869D01*
X126965401Y-109374130D01*
X126984149Y-109317887D01*
X127359102Y-109149158D02*
X126965401Y-109149158D01*
X126965401Y-108999177D01*
X126984149Y-108961682D01*
X127002897Y-108942934D01*
X127040392Y-108924186D01*
X127096635Y-108924186D01*
X127134130Y-108942934D01*
X127152878Y-108961682D01*
X127171626Y-108999177D01*
X127171626Y-109149158D01*
X127396598Y-108849196D02*
X127396598Y-108549233D01*
X126965401Y-108492990D02*
X126965401Y-108249270D01*
X127115383Y-108380504D01*
X127115383Y-108324261D01*
X127134130Y-108286766D01*
X127152878Y-108268018D01*
X127190373Y-108249270D01*
X127284112Y-108249270D01*
X127321607Y-108268018D01*
X127340355Y-108286766D01*
X127359102Y-108324261D01*
X127359102Y-108436747D01*
X127340355Y-108474242D01*
X127321607Y-108492990D01*
%TO.C,R_ESP_4*%
X125944990Y-105461102D02*
X125813756Y-105273626D01*
X125720018Y-105461102D02*
X125720018Y-105067401D01*
X125869999Y-105067401D01*
X125907495Y-105086149D01*
X125926242Y-105104897D01*
X125944990Y-105142392D01*
X125944990Y-105198635D01*
X125926242Y-105236130D01*
X125907495Y-105254878D01*
X125869999Y-105273626D01*
X125720018Y-105273626D01*
X126019981Y-105498598D02*
X126319943Y-105498598D01*
X126413682Y-105254878D02*
X126544915Y-105254878D01*
X126601158Y-105461102D02*
X126413682Y-105461102D01*
X126413682Y-105067401D01*
X126601158Y-105067401D01*
X126751140Y-105442355D02*
X126807383Y-105461102D01*
X126901121Y-105461102D01*
X126938616Y-105442355D01*
X126957364Y-105423607D01*
X126976112Y-105386112D01*
X126976112Y-105348616D01*
X126957364Y-105311121D01*
X126938616Y-105292373D01*
X126901121Y-105273626D01*
X126826130Y-105254878D01*
X126788635Y-105236130D01*
X126769887Y-105217383D01*
X126751140Y-105179887D01*
X126751140Y-105142392D01*
X126769887Y-105104897D01*
X126788635Y-105086149D01*
X126826130Y-105067401D01*
X126919869Y-105067401D01*
X126976112Y-105086149D01*
X127144841Y-105461102D02*
X127144841Y-105067401D01*
X127294822Y-105067401D01*
X127332317Y-105086149D01*
X127351065Y-105104897D01*
X127369813Y-105142392D01*
X127369813Y-105198635D01*
X127351065Y-105236130D01*
X127332317Y-105254878D01*
X127294822Y-105273626D01*
X127144841Y-105273626D01*
X127444803Y-105498598D02*
X127744766Y-105498598D01*
X128007233Y-105198635D02*
X128007233Y-105461102D01*
X127913495Y-105048654D02*
X127819757Y-105329869D01*
X128063476Y-105329869D01*
%TO.C,R_ESP_5*%
X131659990Y-122606102D02*
X131528756Y-122418626D01*
X131435018Y-122606102D02*
X131435018Y-122212401D01*
X131584999Y-122212401D01*
X131622495Y-122231149D01*
X131641242Y-122249897D01*
X131659990Y-122287392D01*
X131659990Y-122343635D01*
X131641242Y-122381130D01*
X131622495Y-122399878D01*
X131584999Y-122418626D01*
X131435018Y-122418626D01*
X131734981Y-122643598D02*
X132034943Y-122643598D01*
X132128682Y-122399878D02*
X132259915Y-122399878D01*
X132316158Y-122606102D02*
X132128682Y-122606102D01*
X132128682Y-122212401D01*
X132316158Y-122212401D01*
X132466140Y-122587355D02*
X132522383Y-122606102D01*
X132616121Y-122606102D01*
X132653616Y-122587355D01*
X132672364Y-122568607D01*
X132691112Y-122531112D01*
X132691112Y-122493616D01*
X132672364Y-122456121D01*
X132653616Y-122437373D01*
X132616121Y-122418626D01*
X132541130Y-122399878D01*
X132503635Y-122381130D01*
X132484887Y-122362383D01*
X132466140Y-122324887D01*
X132466140Y-122287392D01*
X132484887Y-122249897D01*
X132503635Y-122231149D01*
X132541130Y-122212401D01*
X132634869Y-122212401D01*
X132691112Y-122231149D01*
X132859841Y-122606102D02*
X132859841Y-122212401D01*
X133009822Y-122212401D01*
X133047317Y-122231149D01*
X133066065Y-122249897D01*
X133084813Y-122287392D01*
X133084813Y-122343635D01*
X133066065Y-122381130D01*
X133047317Y-122399878D01*
X133009822Y-122418626D01*
X132859841Y-122418626D01*
X133159803Y-122643598D02*
X133459766Y-122643598D01*
X133740981Y-122212401D02*
X133553504Y-122212401D01*
X133534757Y-122399878D01*
X133553504Y-122381130D01*
X133591000Y-122362383D01*
X133684738Y-122362383D01*
X133722233Y-122381130D01*
X133740981Y-122399878D01*
X133759729Y-122437373D01*
X133759729Y-122531112D01*
X133740981Y-122568607D01*
X133722233Y-122587355D01*
X133684738Y-122606102D01*
X133591000Y-122606102D01*
X133553504Y-122587355D01*
X133534757Y-122568607D01*
%TO.C,R_IMU_1*%
X96571102Y-107824514D02*
X96383626Y-107955747D01*
X96571102Y-108049486D02*
X96177401Y-108049486D01*
X96177401Y-107899504D01*
X96196149Y-107862009D01*
X96214897Y-107843261D01*
X96252392Y-107824514D01*
X96308635Y-107824514D01*
X96346130Y-107843261D01*
X96364878Y-107862009D01*
X96383626Y-107899504D01*
X96383626Y-108049486D01*
X96608598Y-107749523D02*
X96608598Y-107449560D01*
X96571102Y-107355822D02*
X96177401Y-107355822D01*
X96571102Y-107168345D02*
X96177401Y-107168345D01*
X96458616Y-107037112D01*
X96177401Y-106905878D01*
X96571102Y-106905878D01*
X96177401Y-106718401D02*
X96496112Y-106718401D01*
X96533607Y-106699654D01*
X96552355Y-106680906D01*
X96571102Y-106643411D01*
X96571102Y-106568420D01*
X96552355Y-106530925D01*
X96533607Y-106512177D01*
X96496112Y-106493429D01*
X96177401Y-106493429D01*
X96608598Y-106399691D02*
X96608598Y-106099728D01*
X96571102Y-105799766D02*
X96571102Y-106024738D01*
X96571102Y-105912252D02*
X96177401Y-105912252D01*
X96233644Y-105949747D01*
X96271140Y-105987242D01*
X96289887Y-106024738D01*
%TO.C,R_IMU_2*%
X96537102Y-111844514D02*
X96349626Y-111975747D01*
X96537102Y-112069486D02*
X96143401Y-112069486D01*
X96143401Y-111919504D01*
X96162149Y-111882009D01*
X96180897Y-111863261D01*
X96218392Y-111844514D01*
X96274635Y-111844514D01*
X96312130Y-111863261D01*
X96330878Y-111882009D01*
X96349626Y-111919504D01*
X96349626Y-112069486D01*
X96574598Y-111769523D02*
X96574598Y-111469560D01*
X96537102Y-111375822D02*
X96143401Y-111375822D01*
X96537102Y-111188345D02*
X96143401Y-111188345D01*
X96424616Y-111057112D01*
X96143401Y-110925878D01*
X96537102Y-110925878D01*
X96143401Y-110738401D02*
X96462112Y-110738401D01*
X96499607Y-110719654D01*
X96518355Y-110700906D01*
X96537102Y-110663411D01*
X96537102Y-110588420D01*
X96518355Y-110550925D01*
X96499607Y-110532177D01*
X96462112Y-110513429D01*
X96143401Y-110513429D01*
X96574598Y-110419691D02*
X96574598Y-110119728D01*
X96180897Y-110044738D02*
X96162149Y-110025990D01*
X96143401Y-109988495D01*
X96143401Y-109894756D01*
X96162149Y-109857261D01*
X96180897Y-109838513D01*
X96218392Y-109819766D01*
X96255887Y-109819766D01*
X96312130Y-109838513D01*
X96537102Y-110063485D01*
X96537102Y-109819766D01*
%TO.C,R_PW_1*%
D16*
X110335190Y-121186000D02*
X110097095Y-121352666D01*
X110335190Y-121471714D02*
X109835190Y-121471714D01*
X109835190Y-121281238D01*
X109859000Y-121233619D01*
X109882809Y-121209809D01*
X109930428Y-121186000D01*
X110001857Y-121186000D01*
X110049476Y-121209809D01*
X110073285Y-121233619D01*
X110097095Y-121281238D01*
X110097095Y-121471714D01*
X110382809Y-121090761D02*
X110382809Y-120709809D01*
X110335190Y-120590761D02*
X109835190Y-120590761D01*
X109835190Y-120400285D01*
X109859000Y-120352666D01*
X109882809Y-120328857D01*
X109930428Y-120305047D01*
X110001857Y-120305047D01*
X110049476Y-120328857D01*
X110073285Y-120352666D01*
X110097095Y-120400285D01*
X110097095Y-120590761D01*
X109835190Y-120138380D02*
X110335190Y-120019333D01*
X109978047Y-119924095D01*
X110335190Y-119828857D01*
X109835190Y-119709809D01*
X110382809Y-119638380D02*
X110382809Y-119257428D01*
X110335190Y-118876476D02*
X110335190Y-119162190D01*
X110335190Y-119019333D02*
X109835190Y-119019333D01*
X109906619Y-119066952D01*
X109954238Y-119114571D01*
X109978047Y-119162190D01*
%TO.C,R_PW_2*%
D17*
X90525598Y-120828102D02*
X90394364Y-120640626D01*
X90300626Y-120828102D02*
X90300626Y-120434401D01*
X90450607Y-120434401D01*
X90488102Y-120453149D01*
X90506850Y-120471897D01*
X90525598Y-120509392D01*
X90525598Y-120565635D01*
X90506850Y-120603130D01*
X90488102Y-120621878D01*
X90450607Y-120640626D01*
X90300626Y-120640626D01*
X90600588Y-120865598D02*
X90900551Y-120865598D01*
X90994289Y-120828102D02*
X90994289Y-120434401D01*
X91144271Y-120434401D01*
X91181766Y-120453149D01*
X91200514Y-120471897D01*
X91219261Y-120509392D01*
X91219261Y-120565635D01*
X91200514Y-120603130D01*
X91181766Y-120621878D01*
X91144271Y-120640626D01*
X90994289Y-120640626D01*
X91350495Y-120434401D02*
X91444233Y-120828102D01*
X91519224Y-120546887D01*
X91594215Y-120828102D01*
X91687953Y-120434401D01*
X91744196Y-120865598D02*
X92044159Y-120865598D01*
X92119149Y-120471897D02*
X92137897Y-120453149D01*
X92175392Y-120434401D01*
X92269131Y-120434401D01*
X92306626Y-120453149D01*
X92325374Y-120471897D01*
X92344121Y-120509392D01*
X92344121Y-120546887D01*
X92325374Y-120603130D01*
X92100402Y-120828102D01*
X92344121Y-120828102D01*
%TO.C,R_PW_3*%
X90652598Y-113970102D02*
X90521364Y-113782626D01*
X90427626Y-113970102D02*
X90427626Y-113576401D01*
X90577607Y-113576401D01*
X90615102Y-113595149D01*
X90633850Y-113613897D01*
X90652598Y-113651392D01*
X90652598Y-113707635D01*
X90633850Y-113745130D01*
X90615102Y-113763878D01*
X90577607Y-113782626D01*
X90427626Y-113782626D01*
X90727588Y-114007598D02*
X91027551Y-114007598D01*
X91121289Y-113970102D02*
X91121289Y-113576401D01*
X91271271Y-113576401D01*
X91308766Y-113595149D01*
X91327514Y-113613897D01*
X91346261Y-113651392D01*
X91346261Y-113707635D01*
X91327514Y-113745130D01*
X91308766Y-113763878D01*
X91271271Y-113782626D01*
X91121289Y-113782626D01*
X91477495Y-113576401D02*
X91571233Y-113970102D01*
X91646224Y-113688887D01*
X91721215Y-113970102D01*
X91814953Y-113576401D01*
X91871196Y-114007598D02*
X92171159Y-114007598D01*
X92227402Y-113576401D02*
X92471121Y-113576401D01*
X92339888Y-113726383D01*
X92396131Y-113726383D01*
X92433626Y-113745130D01*
X92452374Y-113763878D01*
X92471121Y-113801373D01*
X92471121Y-113895112D01*
X92452374Y-113932607D01*
X92433626Y-113951355D01*
X92396131Y-113970102D01*
X92283645Y-113970102D01*
X92246149Y-113951355D01*
X92227402Y-113932607D01*
%TO.C,R_PW_4*%
X93616102Y-119742402D02*
X93428626Y-119873635D01*
X93616102Y-119967374D02*
X93222401Y-119967374D01*
X93222401Y-119817392D01*
X93241149Y-119779897D01*
X93259897Y-119761149D01*
X93297392Y-119742402D01*
X93353635Y-119742402D01*
X93391130Y-119761149D01*
X93409878Y-119779897D01*
X93428626Y-119817392D01*
X93428626Y-119967374D01*
X93653598Y-119667411D02*
X93653598Y-119367448D01*
X93616102Y-119273710D02*
X93222401Y-119273710D01*
X93222401Y-119123729D01*
X93241149Y-119086233D01*
X93259897Y-119067486D01*
X93297392Y-119048738D01*
X93353635Y-119048738D01*
X93391130Y-119067486D01*
X93409878Y-119086233D01*
X93428626Y-119123729D01*
X93428626Y-119273710D01*
X93222401Y-118917504D02*
X93616102Y-118823766D01*
X93334887Y-118748775D01*
X93616102Y-118673785D01*
X93222401Y-118580046D01*
X93653598Y-118523803D02*
X93653598Y-118223841D01*
X93353635Y-117961373D02*
X93616102Y-117961373D01*
X93203654Y-118055112D02*
X93484869Y-118148850D01*
X93484869Y-117905130D01*
%TO.C,SW_ESP_1*%
D19*
X93516714Y-76823857D02*
X93602428Y-76852428D01*
X93745285Y-76852428D01*
X93802428Y-76823857D01*
X93831000Y-76795285D01*
X93859571Y-76738142D01*
X93859571Y-76681000D01*
X93831000Y-76623857D01*
X93802428Y-76595285D01*
X93745285Y-76566714D01*
X93631000Y-76538142D01*
X93573857Y-76509571D01*
X93545285Y-76481000D01*
X93516714Y-76423857D01*
X93516714Y-76366714D01*
X93545285Y-76309571D01*
X93573857Y-76281000D01*
X93631000Y-76252428D01*
X93773857Y-76252428D01*
X93859571Y-76281000D01*
X94059571Y-76252428D02*
X94202428Y-76852428D01*
X94316714Y-76423857D01*
X94431000Y-76852428D01*
X94573857Y-76252428D01*
X94659571Y-76909571D02*
X95116714Y-76909571D01*
X95259571Y-76538142D02*
X95459571Y-76538142D01*
X95545285Y-76852428D02*
X95259571Y-76852428D01*
X95259571Y-76252428D01*
X95545285Y-76252428D01*
X95773857Y-76823857D02*
X95859571Y-76852428D01*
X96002428Y-76852428D01*
X96059571Y-76823857D01*
X96088142Y-76795285D01*
X96116714Y-76738142D01*
X96116714Y-76681000D01*
X96088142Y-76623857D01*
X96059571Y-76595285D01*
X96002428Y-76566714D01*
X95888142Y-76538142D01*
X95831000Y-76509571D01*
X95802428Y-76481000D01*
X95773857Y-76423857D01*
X95773857Y-76366714D01*
X95802428Y-76309571D01*
X95831000Y-76281000D01*
X95888142Y-76252428D01*
X96031000Y-76252428D01*
X96116714Y-76281000D01*
X96373857Y-76852428D02*
X96373857Y-76252428D01*
X96602428Y-76252428D01*
X96659571Y-76281000D01*
X96688142Y-76309571D01*
X96716714Y-76366714D01*
X96716714Y-76452428D01*
X96688142Y-76509571D01*
X96659571Y-76538142D01*
X96602428Y-76566714D01*
X96373857Y-76566714D01*
X96831000Y-76909571D02*
X97288142Y-76909571D01*
X97745285Y-76852428D02*
X97402428Y-76852428D01*
X97573857Y-76852428D02*
X97573857Y-76252428D01*
X97516714Y-76338142D01*
X97459571Y-76395285D01*
X97402428Y-76423857D01*
D18*
X96520000Y-79589380D02*
X96520000Y-79827476D01*
X96281904Y-79732238D02*
X96520000Y-79827476D01*
X96758095Y-79732238D01*
X96377142Y-80017952D02*
X96520000Y-79827476D01*
X96662857Y-80017952D01*
%TO.C,SW_ESP_2*%
D19*
X129076714Y-115939857D02*
X129162428Y-115968428D01*
X129305285Y-115968428D01*
X129362428Y-115939857D01*
X129391000Y-115911285D01*
X129419571Y-115854142D01*
X129419571Y-115797000D01*
X129391000Y-115739857D01*
X129362428Y-115711285D01*
X129305285Y-115682714D01*
X129191000Y-115654142D01*
X129133857Y-115625571D01*
X129105285Y-115597000D01*
X129076714Y-115539857D01*
X129076714Y-115482714D01*
X129105285Y-115425571D01*
X129133857Y-115397000D01*
X129191000Y-115368428D01*
X129333857Y-115368428D01*
X129419571Y-115397000D01*
X129619571Y-115368428D02*
X129762428Y-115968428D01*
X129876714Y-115539857D01*
X129991000Y-115968428D01*
X130133857Y-115368428D01*
X130219571Y-116025571D02*
X130676714Y-116025571D01*
X130819571Y-115654142D02*
X131019571Y-115654142D01*
X131105285Y-115968428D02*
X130819571Y-115968428D01*
X130819571Y-115368428D01*
X131105285Y-115368428D01*
X131333857Y-115939857D02*
X131419571Y-115968428D01*
X131562428Y-115968428D01*
X131619571Y-115939857D01*
X131648142Y-115911285D01*
X131676714Y-115854142D01*
X131676714Y-115797000D01*
X131648142Y-115739857D01*
X131619571Y-115711285D01*
X131562428Y-115682714D01*
X131448142Y-115654142D01*
X131391000Y-115625571D01*
X131362428Y-115597000D01*
X131333857Y-115539857D01*
X131333857Y-115482714D01*
X131362428Y-115425571D01*
X131391000Y-115397000D01*
X131448142Y-115368428D01*
X131591000Y-115368428D01*
X131676714Y-115397000D01*
X131933857Y-115968428D02*
X131933857Y-115368428D01*
X132162428Y-115368428D01*
X132219571Y-115397000D01*
X132248142Y-115425571D01*
X132276714Y-115482714D01*
X132276714Y-115568428D01*
X132248142Y-115625571D01*
X132219571Y-115654142D01*
X132162428Y-115682714D01*
X131933857Y-115682714D01*
X132391000Y-116025571D02*
X132848142Y-116025571D01*
X132962428Y-115425571D02*
X132991000Y-115397000D01*
X133048142Y-115368428D01*
X133191000Y-115368428D01*
X133248142Y-115397000D01*
X133276714Y-115425571D01*
X133305285Y-115482714D01*
X133305285Y-115539857D01*
X133276714Y-115625571D01*
X132933857Y-115968428D01*
X133305285Y-115968428D01*
D18*
X131191000Y-111593380D02*
X131191000Y-111831476D01*
X130952904Y-111736238D02*
X131191000Y-111831476D01*
X131429095Y-111736238D01*
X131048142Y-112021952D02*
X131191000Y-111831476D01*
X131333857Y-112021952D01*
%TO.C,U_IMU_1*%
D17*
X102792571Y-99840342D02*
X102792571Y-100228914D01*
X102815428Y-100274628D01*
X102838285Y-100297485D01*
X102884000Y-100320342D01*
X102975428Y-100320342D01*
X103021142Y-100297485D01*
X103044000Y-100274628D01*
X103066857Y-100228914D01*
X103066857Y-99840342D01*
X103181142Y-100366057D02*
X103546857Y-100366057D01*
X103661142Y-100320342D02*
X103661142Y-99840342D01*
X103889714Y-100320342D02*
X103889714Y-99840342D01*
X104049714Y-100183200D01*
X104209714Y-99840342D01*
X104209714Y-100320342D01*
X104438285Y-99840342D02*
X104438285Y-100228914D01*
X104461142Y-100274628D01*
X104484000Y-100297485D01*
X104529714Y-100320342D01*
X104621142Y-100320342D01*
X104666857Y-100297485D01*
X104689714Y-100274628D01*
X104712571Y-100228914D01*
X104712571Y-99840342D01*
X104826857Y-100366057D02*
X105192571Y-100366057D01*
X105558285Y-100320342D02*
X105284000Y-100320342D01*
X105421142Y-100320342D02*
X105421142Y-99840342D01*
X105375428Y-99908914D01*
X105329714Y-99954628D01*
X105284000Y-99977485D01*
%TO.C,U_CN_1*%
X116451380Y-128063380D02*
X116451380Y-128872904D01*
X116499000Y-128968142D01*
X116546619Y-129015761D01*
X116641857Y-129063380D01*
X116832333Y-129063380D01*
X116927571Y-129015761D01*
X116975190Y-128968142D01*
X117022809Y-128872904D01*
X117022809Y-128063380D01*
X117260904Y-129158619D02*
X118022809Y-129158619D01*
X118832333Y-128968142D02*
X118784714Y-129015761D01*
X118641857Y-129063380D01*
X118546619Y-129063380D01*
X118403761Y-129015761D01*
X118308523Y-128920523D01*
X118260904Y-128825285D01*
X118213285Y-128634809D01*
X118213285Y-128491952D01*
X118260904Y-128301476D01*
X118308523Y-128206238D01*
X118403761Y-128111000D01*
X118546619Y-128063380D01*
X118641857Y-128063380D01*
X118784714Y-128111000D01*
X118832333Y-128158619D01*
X119260904Y-129063380D02*
X119260904Y-128063380D01*
X119832333Y-129063380D01*
X119832333Y-128063380D01*
X120070428Y-129158619D02*
X120832333Y-129158619D01*
X121594238Y-129063380D02*
X121022809Y-129063380D01*
X121308523Y-129063380D02*
X121308523Y-128063380D01*
X121213285Y-128206238D01*
X121118047Y-128301476D01*
X121022809Y-128349095D01*
%TD*%
M02*
