%TF.GenerationSoftware,KiCad,Pcbnew,(5.1.7)-1*%
%TF.CreationDate,2020-11-23T11:29:42-08:00*%
%TF.ProjectId,esp32_sensor,65737033-325f-4736-956e-736f722e6b69,v0.0.1*%
%TF.SameCoordinates,Original*%
%TF.FileFunction,Copper,L3,Inr*%
%TF.FilePolarity,Positive*%
%FSLAX46Y46*%
G04 Gerber Fmt 4.6, Leading zero omitted, Abs format (unit mm)*
G04 Created by KiCad (PCBNEW (5.1.7)-1) date 2020-11-23 11:29:42*
%MOMM*%
%LPD*%
G01*
G04 APERTURE LIST*
%ADD10C,0.100000*%
%ADD11C,0.150000*%
%ADD12C,0.300000*%
%ADD13C,0.400000*%
%TA.AperFunction,ComponentPad*%
%ADD14R,2.100000X2.100000*%
%TD*%
%TA.AperFunction,ComponentPad*%
%ADD15C,2.100000*%
%TD*%
%TA.AperFunction,ComponentPad*%
%ADD16R,1.700000X1.700000*%
%TD*%
%TA.AperFunction,ComponentPad*%
%ADD17O,1.700000X1.700000*%
%TD*%
%TA.AperFunction,ViaPad*%
%ADD18C,0.500000*%
%TD*%
%TA.AperFunction,Conductor*%
%ADD19C,0.220000*%
%TD*%
%TA.AperFunction,Conductor*%
%ADD20C,0.254000*%
%TD*%
%TA.AperFunction,Conductor*%
%ADD21C,0.100000*%
%TD*%
G04 APERTURE END LIST*
D10*
D11*
X159400000Y-171900000D02*
X159400000Y-203900000D01*
X267400000Y-203900000D01*
X267400000Y-171900000D01*
X159400000Y-171900000D01*
D10*
D11*
X10000000Y-10000000D02*
X10000000Y-205900000D01*
X269400000Y-205900000D01*
X269400000Y-10000000D01*
X10000000Y-10000000D01*
D10*
D11*
X12000000Y-12000000D02*
X12000000Y-203900000D01*
X267400000Y-203900000D01*
X267400000Y-12000000D01*
X12000000Y-12000000D01*
D10*
D11*
X60000000Y-12000000D02*
X60000000Y-10000000D01*
D10*
D11*
X110000000Y-12000000D02*
X110000000Y-10000000D01*
D10*
D11*
X160000000Y-12000000D02*
X160000000Y-10000000D01*
D10*
D11*
X210000000Y-12000000D02*
X210000000Y-10000000D01*
D10*
D11*
X260000000Y-12000000D02*
X260000000Y-10000000D01*
D10*
D11*
X36065476Y-11588095D02*
X35322619Y-11588095D01*
X35694047Y-11588095D02*
X35694047Y-10288095D01*
X35570238Y-10473809D01*
X35446428Y-10597619D01*
X35322619Y-10659523D01*
D10*
D11*
X85322619Y-10411904D02*
X85384523Y-10350000D01*
X85508333Y-10288095D01*
X85817857Y-10288095D01*
X85941666Y-10350000D01*
X86003571Y-10411904D01*
X86065476Y-10535714D01*
X86065476Y-10659523D01*
X86003571Y-10845238D01*
X85260714Y-11588095D01*
X86065476Y-11588095D01*
D10*
D11*
X135260714Y-10288095D02*
X136065476Y-10288095D01*
X135632142Y-10783333D01*
X135817857Y-10783333D01*
X135941666Y-10845238D01*
X136003571Y-10907142D01*
X136065476Y-11030952D01*
X136065476Y-11340476D01*
X136003571Y-11464285D01*
X135941666Y-11526190D01*
X135817857Y-11588095D01*
X135446428Y-11588095D01*
X135322619Y-11526190D01*
X135260714Y-11464285D01*
D10*
D11*
X185941666Y-10721428D02*
X185941666Y-11588095D01*
X185632142Y-10226190D02*
X185322619Y-11154761D01*
X186127380Y-11154761D01*
D10*
D11*
X236003571Y-10288095D02*
X235384523Y-10288095D01*
X235322619Y-10907142D01*
X235384523Y-10845238D01*
X235508333Y-10783333D01*
X235817857Y-10783333D01*
X235941666Y-10845238D01*
X236003571Y-10907142D01*
X236065476Y-11030952D01*
X236065476Y-11340476D01*
X236003571Y-11464285D01*
X235941666Y-11526190D01*
X235817857Y-11588095D01*
X235508333Y-11588095D01*
X235384523Y-11526190D01*
X235322619Y-11464285D01*
D10*
D11*
X60000000Y-203900000D02*
X60000000Y-205900000D01*
D10*
D11*
X110000000Y-203900000D02*
X110000000Y-205900000D01*
D10*
D11*
X160000000Y-203900000D02*
X160000000Y-205900000D01*
D10*
D11*
X210000000Y-203900000D02*
X210000000Y-205900000D01*
D10*
D11*
X260000000Y-203900000D02*
X260000000Y-205900000D01*
D10*
D11*
X36065476Y-205488095D02*
X35322619Y-205488095D01*
X35694047Y-205488095D02*
X35694047Y-204188095D01*
X35570238Y-204373809D01*
X35446428Y-204497619D01*
X35322619Y-204559523D01*
D10*
D11*
X85322619Y-204311904D02*
X85384523Y-204250000D01*
X85508333Y-204188095D01*
X85817857Y-204188095D01*
X85941666Y-204250000D01*
X86003571Y-204311904D01*
X86065476Y-204435714D01*
X86065476Y-204559523D01*
X86003571Y-204745238D01*
X85260714Y-205488095D01*
X86065476Y-205488095D01*
D10*
D11*
X135260714Y-204188095D02*
X136065476Y-204188095D01*
X135632142Y-204683333D01*
X135817857Y-204683333D01*
X135941666Y-204745238D01*
X136003571Y-204807142D01*
X136065476Y-204930952D01*
X136065476Y-205240476D01*
X136003571Y-205364285D01*
X135941666Y-205426190D01*
X135817857Y-205488095D01*
X135446428Y-205488095D01*
X135322619Y-205426190D01*
X135260714Y-205364285D01*
D10*
D11*
X185941666Y-204621428D02*
X185941666Y-205488095D01*
X185632142Y-204126190D02*
X185322619Y-205054761D01*
X186127380Y-205054761D01*
D10*
D11*
X236003571Y-204188095D02*
X235384523Y-204188095D01*
X235322619Y-204807142D01*
X235384523Y-204745238D01*
X235508333Y-204683333D01*
X235817857Y-204683333D01*
X235941666Y-204745238D01*
X236003571Y-204807142D01*
X236065476Y-204930952D01*
X236065476Y-205240476D01*
X236003571Y-205364285D01*
X235941666Y-205426190D01*
X235817857Y-205488095D01*
X235508333Y-205488095D01*
X235384523Y-205426190D01*
X235322619Y-205364285D01*
D10*
D11*
X10000000Y-60000000D02*
X12000000Y-60000000D01*
D10*
D11*
X10000000Y-110000000D02*
X12000000Y-110000000D01*
D10*
D11*
X10000000Y-160000000D02*
X12000000Y-160000000D01*
D10*
D11*
X10690476Y-35216666D02*
X11309523Y-35216666D01*
X10566666Y-35588095D02*
X11000000Y-34288095D01*
X11433333Y-35588095D01*
D10*
D11*
X11092857Y-84907142D02*
X11278571Y-84969047D01*
X11340476Y-85030952D01*
X11402380Y-85154761D01*
X11402380Y-85340476D01*
X11340476Y-85464285D01*
X11278571Y-85526190D01*
X11154761Y-85588095D01*
X10659523Y-85588095D01*
X10659523Y-84288095D01*
X11092857Y-84288095D01*
X11216666Y-84350000D01*
X11278571Y-84411904D01*
X11340476Y-84535714D01*
X11340476Y-84659523D01*
X11278571Y-84783333D01*
X11216666Y-84845238D01*
X11092857Y-84907142D01*
X10659523Y-84907142D01*
D10*
D11*
X11402380Y-135464285D02*
X11340476Y-135526190D01*
X11154761Y-135588095D01*
X11030952Y-135588095D01*
X10845238Y-135526190D01*
X10721428Y-135402380D01*
X10659523Y-135278571D01*
X10597619Y-135030952D01*
X10597619Y-134845238D01*
X10659523Y-134597619D01*
X10721428Y-134473809D01*
X10845238Y-134350000D01*
X11030952Y-134288095D01*
X11154761Y-134288095D01*
X11340476Y-134350000D01*
X11402380Y-134411904D01*
D10*
D11*
X10659523Y-185588095D02*
X10659523Y-184288095D01*
X10969047Y-184288095D01*
X11154761Y-184350000D01*
X11278571Y-184473809D01*
X11340476Y-184597619D01*
X11402380Y-184845238D01*
X11402380Y-185030952D01*
X11340476Y-185278571D01*
X11278571Y-185402380D01*
X11154761Y-185526190D01*
X10969047Y-185588095D01*
X10659523Y-185588095D01*
D10*
D11*
X269400000Y-60000000D02*
X267400000Y-60000000D01*
D10*
D11*
X269400000Y-110000000D02*
X267400000Y-110000000D01*
D10*
D11*
X269400000Y-160000000D02*
X267400000Y-160000000D01*
D10*
D11*
X268090476Y-35216666D02*
X268709523Y-35216666D01*
X267966666Y-35588095D02*
X268400000Y-34288095D01*
X268833333Y-35588095D01*
D10*
D11*
X268492857Y-84907142D02*
X268678571Y-84969047D01*
X268740476Y-85030952D01*
X268802380Y-85154761D01*
X268802380Y-85340476D01*
X268740476Y-85464285D01*
X268678571Y-85526190D01*
X268554761Y-85588095D01*
X268059523Y-85588095D01*
X268059523Y-84288095D01*
X268492857Y-84288095D01*
X268616666Y-84350000D01*
X268678571Y-84411904D01*
X268740476Y-84535714D01*
X268740476Y-84659523D01*
X268678571Y-84783333D01*
X268616666Y-84845238D01*
X268492857Y-84907142D01*
X268059523Y-84907142D01*
D10*
D11*
X268802380Y-135464285D02*
X268740476Y-135526190D01*
X268554761Y-135588095D01*
X268430952Y-135588095D01*
X268245238Y-135526190D01*
X268121428Y-135402380D01*
X268059523Y-135278571D01*
X267997619Y-135030952D01*
X267997619Y-134845238D01*
X268059523Y-134597619D01*
X268121428Y-134473809D01*
X268245238Y-134350000D01*
X268430952Y-134288095D01*
X268554761Y-134288095D01*
X268740476Y-134350000D01*
X268802380Y-134411904D01*
D10*
D11*
X268059523Y-185588095D02*
X268059523Y-184288095D01*
X268369047Y-184288095D01*
X268554761Y-184350000D01*
X268678571Y-184473809D01*
X268740476Y-184597619D01*
X268802380Y-184845238D01*
X268802380Y-185030952D01*
X268740476Y-185278571D01*
X268678571Y-185402380D01*
X268554761Y-185526190D01*
X268369047Y-185588095D01*
X268059523Y-185588095D01*
D10*
D11*
X182832142Y-199678571D02*
X182832142Y-198178571D01*
X183189285Y-198178571D01*
X183403571Y-198250000D01*
X183546428Y-198392857D01*
X183617857Y-198535714D01*
X183689285Y-198821428D01*
X183689285Y-199035714D01*
X183617857Y-199321428D01*
X183546428Y-199464285D01*
X183403571Y-199607142D01*
X183189285Y-199678571D01*
X182832142Y-199678571D01*
X184975000Y-199678571D02*
X184975000Y-198892857D01*
X184903571Y-198750000D01*
X184760714Y-198678571D01*
X184475000Y-198678571D01*
X184332142Y-198750000D01*
X184975000Y-199607142D02*
X184832142Y-199678571D01*
X184475000Y-199678571D01*
X184332142Y-199607142D01*
X184260714Y-199464285D01*
X184260714Y-199321428D01*
X184332142Y-199178571D01*
X184475000Y-199107142D01*
X184832142Y-199107142D01*
X184975000Y-199035714D01*
X185475000Y-198678571D02*
X186046428Y-198678571D01*
X185689285Y-198178571D02*
X185689285Y-199464285D01*
X185760714Y-199607142D01*
X185903571Y-199678571D01*
X186046428Y-199678571D01*
X187117857Y-199607142D02*
X186975000Y-199678571D01*
X186689285Y-199678571D01*
X186546428Y-199607142D01*
X186475000Y-199464285D01*
X186475000Y-198892857D01*
X186546428Y-198750000D01*
X186689285Y-198678571D01*
X186975000Y-198678571D01*
X187117857Y-198750000D01*
X187189285Y-198892857D01*
X187189285Y-199035714D01*
X186475000Y-199178571D01*
X187832142Y-199535714D02*
X187903571Y-199607142D01*
X187832142Y-199678571D01*
X187760714Y-199607142D01*
X187832142Y-199535714D01*
X187832142Y-199678571D01*
X187832142Y-198750000D02*
X187903571Y-198821428D01*
X187832142Y-198892857D01*
X187760714Y-198821428D01*
X187832142Y-198750000D01*
X187832142Y-198892857D01*
X189617857Y-198321428D02*
X189689285Y-198250000D01*
X189832142Y-198178571D01*
X190189285Y-198178571D01*
X190332142Y-198250000D01*
X190403571Y-198321428D01*
X190475000Y-198464285D01*
X190475000Y-198607142D01*
X190403571Y-198821428D01*
X189546428Y-199678571D01*
X190475000Y-199678571D01*
X191403571Y-198178571D02*
X191546428Y-198178571D01*
X191689285Y-198250000D01*
X191760714Y-198321428D01*
X191832142Y-198464285D01*
X191903571Y-198750000D01*
X191903571Y-199107142D01*
X191832142Y-199392857D01*
X191760714Y-199535714D01*
X191689285Y-199607142D01*
X191546428Y-199678571D01*
X191403571Y-199678571D01*
X191260714Y-199607142D01*
X191189285Y-199535714D01*
X191117857Y-199392857D01*
X191046428Y-199107142D01*
X191046428Y-198750000D01*
X191117857Y-198464285D01*
X191189285Y-198321428D01*
X191260714Y-198250000D01*
X191403571Y-198178571D01*
X192475000Y-198321428D02*
X192546428Y-198250000D01*
X192689285Y-198178571D01*
X193046428Y-198178571D01*
X193189285Y-198250000D01*
X193260714Y-198321428D01*
X193332142Y-198464285D01*
X193332142Y-198607142D01*
X193260714Y-198821428D01*
X192403571Y-199678571D01*
X193332142Y-199678571D01*
X194260714Y-198178571D02*
X194403571Y-198178571D01*
X194546428Y-198250000D01*
X194617857Y-198321428D01*
X194689285Y-198464285D01*
X194760714Y-198750000D01*
X194760714Y-199107142D01*
X194689285Y-199392857D01*
X194617857Y-199535714D01*
X194546428Y-199607142D01*
X194403571Y-199678571D01*
X194260714Y-199678571D01*
X194117857Y-199607142D01*
X194046428Y-199535714D01*
X193975000Y-199392857D01*
X193903571Y-199107142D01*
X193903571Y-198750000D01*
X193975000Y-198464285D01*
X194046428Y-198321428D01*
X194117857Y-198250000D01*
X194260714Y-198178571D01*
X195403571Y-199107142D02*
X196546428Y-199107142D01*
X198046428Y-199678571D02*
X197189285Y-199678571D01*
X197617857Y-199678571D02*
X197617857Y-198178571D01*
X197475000Y-198392857D01*
X197332142Y-198535714D01*
X197189285Y-198607142D01*
X199475000Y-199678571D02*
X198617857Y-199678571D01*
X199046428Y-199678571D02*
X199046428Y-198178571D01*
X198903571Y-198392857D01*
X198760714Y-198535714D01*
X198617857Y-198607142D01*
X200117857Y-199107142D02*
X201260714Y-199107142D01*
X201903571Y-198321428D02*
X201975000Y-198250000D01*
X202117857Y-198178571D01*
X202475000Y-198178571D01*
X202617857Y-198250000D01*
X202689285Y-198321428D01*
X202760714Y-198464285D01*
X202760714Y-198607142D01*
X202689285Y-198821428D01*
X201832142Y-199678571D01*
X202760714Y-199678571D01*
X203260714Y-198178571D02*
X204189285Y-198178571D01*
X203689285Y-198750000D01*
X203903571Y-198750000D01*
X204046428Y-198821428D01*
X204117857Y-198892857D01*
X204189285Y-199035714D01*
X204189285Y-199392857D01*
X204117857Y-199535714D01*
X204046428Y-199607142D01*
X203903571Y-199678571D01*
X203475000Y-199678571D01*
X203332142Y-199607142D01*
X203260714Y-199535714D01*
D10*
D11*
X159400000Y-200400000D02*
X267400000Y-200400000D01*
D10*
D11*
X160832142Y-202478571D02*
X160832142Y-200978571D01*
X161689285Y-202478571D02*
X161046428Y-201621428D01*
X161689285Y-200978571D02*
X160832142Y-201835714D01*
X162332142Y-202478571D02*
X162332142Y-201478571D01*
X162332142Y-200978571D02*
X162260714Y-201050000D01*
X162332142Y-201121428D01*
X162403571Y-201050000D01*
X162332142Y-200978571D01*
X162332142Y-201121428D01*
X163903571Y-202335714D02*
X163832142Y-202407142D01*
X163617857Y-202478571D01*
X163475000Y-202478571D01*
X163260714Y-202407142D01*
X163117857Y-202264285D01*
X163046428Y-202121428D01*
X162975000Y-201835714D01*
X162975000Y-201621428D01*
X163046428Y-201335714D01*
X163117857Y-201192857D01*
X163260714Y-201050000D01*
X163475000Y-200978571D01*
X163617857Y-200978571D01*
X163832142Y-201050000D01*
X163903571Y-201121428D01*
X165189285Y-202478571D02*
X165189285Y-201692857D01*
X165117857Y-201550000D01*
X164975000Y-201478571D01*
X164689285Y-201478571D01*
X164546428Y-201550000D01*
X165189285Y-202407142D02*
X165046428Y-202478571D01*
X164689285Y-202478571D01*
X164546428Y-202407142D01*
X164475000Y-202264285D01*
X164475000Y-202121428D01*
X164546428Y-201978571D01*
X164689285Y-201907142D01*
X165046428Y-201907142D01*
X165189285Y-201835714D01*
X166546428Y-202478571D02*
X166546428Y-200978571D01*
X166546428Y-202407142D02*
X166403571Y-202478571D01*
X166117857Y-202478571D01*
X165975000Y-202407142D01*
X165903571Y-202335714D01*
X165832142Y-202192857D01*
X165832142Y-201764285D01*
X165903571Y-201621428D01*
X165975000Y-201550000D01*
X166117857Y-201478571D01*
X166403571Y-201478571D01*
X166546428Y-201550000D01*
X168403571Y-201692857D02*
X168903571Y-201692857D01*
X169117857Y-202478571D02*
X168403571Y-202478571D01*
X168403571Y-200978571D01*
X169117857Y-200978571D01*
X169760714Y-202335714D02*
X169832142Y-202407142D01*
X169760714Y-202478571D01*
X169689285Y-202407142D01*
X169760714Y-202335714D01*
X169760714Y-202478571D01*
X170475000Y-202478571D02*
X170475000Y-200978571D01*
X170832142Y-200978571D01*
X171046428Y-201050000D01*
X171189285Y-201192857D01*
X171260714Y-201335714D01*
X171332142Y-201621428D01*
X171332142Y-201835714D01*
X171260714Y-202121428D01*
X171189285Y-202264285D01*
X171046428Y-202407142D01*
X170832142Y-202478571D01*
X170475000Y-202478571D01*
X171975000Y-202335714D02*
X172046428Y-202407142D01*
X171975000Y-202478571D01*
X171903571Y-202407142D01*
X171975000Y-202335714D01*
X171975000Y-202478571D01*
X172617857Y-202050000D02*
X173332142Y-202050000D01*
X172475000Y-202478571D02*
X172975000Y-200978571D01*
X173475000Y-202478571D01*
X173975000Y-202335714D02*
X174046428Y-202407142D01*
X173975000Y-202478571D01*
X173903571Y-202407142D01*
X173975000Y-202335714D01*
X173975000Y-202478571D01*
X176975000Y-202478571D02*
X176975000Y-200978571D01*
X177117857Y-201907142D02*
X177546428Y-202478571D01*
X177546428Y-201478571D02*
X176975000Y-202050000D01*
X178189285Y-202478571D02*
X178189285Y-201478571D01*
X178189285Y-200978571D02*
X178117857Y-201050000D01*
X178189285Y-201121428D01*
X178260714Y-201050000D01*
X178189285Y-200978571D01*
X178189285Y-201121428D01*
X179546428Y-202407142D02*
X179403571Y-202478571D01*
X179117857Y-202478571D01*
X178975000Y-202407142D01*
X178903571Y-202335714D01*
X178832142Y-202192857D01*
X178832142Y-201764285D01*
X178903571Y-201621428D01*
X178975000Y-201550000D01*
X179117857Y-201478571D01*
X179403571Y-201478571D01*
X179546428Y-201550000D01*
X180832142Y-202478571D02*
X180832142Y-201692857D01*
X180760714Y-201550000D01*
X180617857Y-201478571D01*
X180332142Y-201478571D01*
X180189285Y-201550000D01*
X180832142Y-202407142D02*
X180689285Y-202478571D01*
X180332142Y-202478571D01*
X180189285Y-202407142D01*
X180117857Y-202264285D01*
X180117857Y-202121428D01*
X180189285Y-201978571D01*
X180332142Y-201907142D01*
X180689285Y-201907142D01*
X180832142Y-201835714D01*
X182189285Y-202478571D02*
X182189285Y-200978571D01*
X182189285Y-202407142D02*
X182046428Y-202478571D01*
X181760714Y-202478571D01*
X181617857Y-202407142D01*
X181546428Y-202335714D01*
X181475000Y-202192857D01*
X181475000Y-201764285D01*
X181546428Y-201621428D01*
X181617857Y-201550000D01*
X181760714Y-201478571D01*
X182046428Y-201478571D01*
X182189285Y-201550000D01*
X184475000Y-203050000D02*
X184403571Y-202978571D01*
X184260714Y-202764285D01*
X184189285Y-202621428D01*
X184117857Y-202407142D01*
X184046428Y-202050000D01*
X184046428Y-201764285D01*
X184117857Y-201407142D01*
X184189285Y-201192857D01*
X184260714Y-201050000D01*
X184403571Y-200835714D01*
X184475000Y-200764285D01*
X185760714Y-200978571D02*
X185046428Y-200978571D01*
X184975000Y-201692857D01*
X185046428Y-201621428D01*
X185189285Y-201550000D01*
X185546428Y-201550000D01*
X185689285Y-201621428D01*
X185760714Y-201692857D01*
X185832142Y-201835714D01*
X185832142Y-202192857D01*
X185760714Y-202335714D01*
X185689285Y-202407142D01*
X185546428Y-202478571D01*
X185189285Y-202478571D01*
X185046428Y-202407142D01*
X184975000Y-202335714D01*
X186475000Y-202335714D02*
X186546428Y-202407142D01*
X186475000Y-202478571D01*
X186403571Y-202407142D01*
X186475000Y-202335714D01*
X186475000Y-202478571D01*
X187975000Y-202478571D02*
X187117857Y-202478571D01*
X187546428Y-202478571D02*
X187546428Y-200978571D01*
X187403571Y-201192857D01*
X187260714Y-201335714D01*
X187117857Y-201407142D01*
X188617857Y-202335714D02*
X188689285Y-202407142D01*
X188617857Y-202478571D01*
X188546428Y-202407142D01*
X188617857Y-202335714D01*
X188617857Y-202478571D01*
X189189285Y-200978571D02*
X190189285Y-200978571D01*
X189546428Y-202478571D01*
X190617857Y-203050000D02*
X190689285Y-202978571D01*
X190832142Y-202764285D01*
X190903571Y-202621428D01*
X190975000Y-202407142D01*
X191046428Y-202050000D01*
X191046428Y-201764285D01*
X190975000Y-201407142D01*
X190903571Y-201192857D01*
X190832142Y-201050000D01*
X190689285Y-200835714D01*
X190617857Y-200764285D01*
X191760714Y-201907142D02*
X192903571Y-201907142D01*
X194403571Y-202478571D02*
X193546428Y-202478571D01*
X193975000Y-202478571D02*
X193975000Y-200978571D01*
X193832142Y-201192857D01*
X193689285Y-201335714D01*
X193546428Y-201407142D01*
D10*
D11*
X159400000Y-197400000D02*
X267400000Y-197400000D01*
D10*
D12*
X246809285Y-199678571D02*
X246309285Y-198964285D01*
X245952142Y-199678571D02*
X245952142Y-198178571D01*
X246523571Y-198178571D01*
X246666428Y-198250000D01*
X246737857Y-198321428D01*
X246809285Y-198464285D01*
X246809285Y-198678571D01*
X246737857Y-198821428D01*
X246666428Y-198892857D01*
X246523571Y-198964285D01*
X245952142Y-198964285D01*
X248023571Y-199607142D02*
X247880714Y-199678571D01*
X247595000Y-199678571D01*
X247452142Y-199607142D01*
X247380714Y-199464285D01*
X247380714Y-198892857D01*
X247452142Y-198750000D01*
X247595000Y-198678571D01*
X247880714Y-198678571D01*
X248023571Y-198750000D01*
X248095000Y-198892857D01*
X248095000Y-199035714D01*
X247380714Y-199178571D01*
X248595000Y-198678571D02*
X248952142Y-199678571D01*
X249309285Y-198678571D01*
X249880714Y-199535714D02*
X249952142Y-199607142D01*
X249880714Y-199678571D01*
X249809285Y-199607142D01*
X249880714Y-199535714D01*
X249880714Y-199678571D01*
X249880714Y-198750000D02*
X249952142Y-198821428D01*
X249880714Y-198892857D01*
X249809285Y-198821428D01*
X249880714Y-198750000D01*
X249880714Y-198892857D01*
X251595000Y-198678571D02*
X251952142Y-199678571D01*
X252309285Y-198678571D01*
X253166428Y-198178571D02*
X253309285Y-198178571D01*
X253452142Y-198250000D01*
X253523571Y-198321428D01*
X253595000Y-198464285D01*
X253666428Y-198750000D01*
X253666428Y-199107142D01*
X253595000Y-199392857D01*
X253523571Y-199535714D01*
X253452142Y-199607142D01*
X253309285Y-199678571D01*
X253166428Y-199678571D01*
X253023571Y-199607142D01*
X252952142Y-199535714D01*
X252880714Y-199392857D01*
X252809285Y-199107142D01*
X252809285Y-198750000D01*
X252880714Y-198464285D01*
X252952142Y-198321428D01*
X253023571Y-198250000D01*
X253166428Y-198178571D01*
X254309285Y-199535714D02*
X254380714Y-199607142D01*
X254309285Y-199678571D01*
X254237857Y-199607142D01*
X254309285Y-199535714D01*
X254309285Y-199678571D01*
X255309285Y-198178571D02*
X255452142Y-198178571D01*
X255595000Y-198250000D01*
X255666428Y-198321428D01*
X255737857Y-198464285D01*
X255809285Y-198750000D01*
X255809285Y-199107142D01*
X255737857Y-199392857D01*
X255666428Y-199535714D01*
X255595000Y-199607142D01*
X255452142Y-199678571D01*
X255309285Y-199678571D01*
X255166428Y-199607142D01*
X255095000Y-199535714D01*
X255023571Y-199392857D01*
X254952142Y-199107142D01*
X254952142Y-198750000D01*
X255023571Y-198464285D01*
X255095000Y-198321428D01*
X255166428Y-198250000D01*
X255309285Y-198178571D01*
X256452142Y-199535714D02*
X256523571Y-199607142D01*
X256452142Y-199678571D01*
X256380714Y-199607142D01*
X256452142Y-199535714D01*
X256452142Y-199678571D01*
X257952142Y-199678571D02*
X257095000Y-199678571D01*
X257523571Y-199678571D02*
X257523571Y-198178571D01*
X257380714Y-198392857D01*
X257237857Y-198535714D01*
X257095000Y-198607142D01*
D10*
D11*
X160760714Y-199607142D02*
X160975000Y-199678571D01*
X161332142Y-199678571D01*
X161475000Y-199607142D01*
X161546428Y-199535714D01*
X161617857Y-199392857D01*
X161617857Y-199250000D01*
X161546428Y-199107142D01*
X161475000Y-199035714D01*
X161332142Y-198964285D01*
X161046428Y-198892857D01*
X160903571Y-198821428D01*
X160832142Y-198750000D01*
X160760714Y-198607142D01*
X160760714Y-198464285D01*
X160832142Y-198321428D01*
X160903571Y-198250000D01*
X161046428Y-198178571D01*
X161403571Y-198178571D01*
X161617857Y-198250000D01*
X162260714Y-199678571D02*
X162260714Y-198678571D01*
X162260714Y-198178571D02*
X162189285Y-198250000D01*
X162260714Y-198321428D01*
X162332142Y-198250000D01*
X162260714Y-198178571D01*
X162260714Y-198321428D01*
X162832142Y-198678571D02*
X163617857Y-198678571D01*
X162832142Y-199678571D01*
X163617857Y-199678571D01*
X164760714Y-199607142D02*
X164617857Y-199678571D01*
X164332142Y-199678571D01*
X164189285Y-199607142D01*
X164117857Y-199464285D01*
X164117857Y-198892857D01*
X164189285Y-198750000D01*
X164332142Y-198678571D01*
X164617857Y-198678571D01*
X164760714Y-198750000D01*
X164832142Y-198892857D01*
X164832142Y-199035714D01*
X164117857Y-199178571D01*
X165475000Y-199535714D02*
X165546428Y-199607142D01*
X165475000Y-199678571D01*
X165403571Y-199607142D01*
X165475000Y-199535714D01*
X165475000Y-199678571D01*
X165475000Y-198750000D02*
X165546428Y-198821428D01*
X165475000Y-198892857D01*
X165403571Y-198821428D01*
X165475000Y-198750000D01*
X165475000Y-198892857D01*
X167332142Y-198178571D02*
X167332142Y-199392857D01*
X167403571Y-199535714D01*
X167475000Y-199607142D01*
X167617857Y-199678571D01*
X167903571Y-199678571D01*
X168046428Y-199607142D01*
X168117857Y-199535714D01*
X168189285Y-199392857D01*
X168189285Y-198178571D01*
X168832142Y-199607142D02*
X169046428Y-199678571D01*
X169403571Y-199678571D01*
X169546428Y-199607142D01*
X169617857Y-199535714D01*
X169689285Y-199392857D01*
X169689285Y-199250000D01*
X169617857Y-199107142D01*
X169546428Y-199035714D01*
X169403571Y-198964285D01*
X169117857Y-198892857D01*
X168975000Y-198821428D01*
X168903571Y-198750000D01*
X168832142Y-198607142D01*
X168832142Y-198464285D01*
X168903571Y-198321428D01*
X168975000Y-198250000D01*
X169117857Y-198178571D01*
X169475000Y-198178571D01*
X169689285Y-198250000D01*
X171046428Y-199678571D02*
X170332142Y-199678571D01*
X170332142Y-198178571D01*
X172117857Y-199607142D02*
X171975000Y-199678571D01*
X171689285Y-199678571D01*
X171546428Y-199607142D01*
X171475000Y-199464285D01*
X171475000Y-198892857D01*
X171546428Y-198750000D01*
X171689285Y-198678571D01*
X171975000Y-198678571D01*
X172117857Y-198750000D01*
X172189285Y-198892857D01*
X172189285Y-199035714D01*
X171475000Y-199178571D01*
X172617857Y-198678571D02*
X173189285Y-198678571D01*
X172832142Y-198178571D02*
X172832142Y-199464285D01*
X172903571Y-199607142D01*
X173046428Y-199678571D01*
X173189285Y-199678571D01*
X173475000Y-198678571D02*
X174046428Y-198678571D01*
X173689285Y-198178571D02*
X173689285Y-199464285D01*
X173760714Y-199607142D01*
X173903571Y-199678571D01*
X174046428Y-199678571D01*
X175117857Y-199607142D02*
X174975000Y-199678571D01*
X174689285Y-199678571D01*
X174546428Y-199607142D01*
X174475000Y-199464285D01*
X174475000Y-198892857D01*
X174546428Y-198750000D01*
X174689285Y-198678571D01*
X174975000Y-198678571D01*
X175117857Y-198750000D01*
X175189285Y-198892857D01*
X175189285Y-199035714D01*
X174475000Y-199178571D01*
X175832142Y-199678571D02*
X175832142Y-198678571D01*
X175832142Y-198964285D02*
X175903571Y-198821428D01*
X175975000Y-198750000D01*
X176117857Y-198678571D01*
X176260714Y-198678571D01*
D10*
D11*
X245832142Y-202478571D02*
X245832142Y-200978571D01*
X247189285Y-202478571D02*
X247189285Y-200978571D01*
X247189285Y-202407142D02*
X247046428Y-202478571D01*
X246760714Y-202478571D01*
X246617857Y-202407142D01*
X246546428Y-202335714D01*
X246475000Y-202192857D01*
X246475000Y-201764285D01*
X246546428Y-201621428D01*
X246617857Y-201550000D01*
X246760714Y-201478571D01*
X247046428Y-201478571D01*
X247189285Y-201550000D01*
X247903571Y-202335714D02*
X247975000Y-202407142D01*
X247903571Y-202478571D01*
X247832142Y-202407142D01*
X247903571Y-202335714D01*
X247903571Y-202478571D01*
X247903571Y-201550000D02*
X247975000Y-201621428D01*
X247903571Y-201692857D01*
X247832142Y-201621428D01*
X247903571Y-201550000D01*
X247903571Y-201692857D01*
X250546428Y-202478571D02*
X249689285Y-202478571D01*
X250117857Y-202478571D02*
X250117857Y-200978571D01*
X249975000Y-201192857D01*
X249832142Y-201335714D01*
X249689285Y-201407142D01*
X252260714Y-200907142D02*
X250975000Y-202835714D01*
X253546428Y-202478571D02*
X252689285Y-202478571D01*
X253117857Y-202478571D02*
X253117857Y-200978571D01*
X252975000Y-201192857D01*
X252832142Y-201335714D01*
X252689285Y-201407142D01*
D10*
D11*
X159400000Y-193400000D02*
X267400000Y-193400000D01*
D10*
D13*
X161112380Y-194104761D02*
X162255238Y-194104761D01*
X161433809Y-196104761D02*
X161683809Y-194104761D01*
X162671904Y-196104761D02*
X162838571Y-194771428D01*
X162921904Y-194104761D02*
X162814761Y-194200000D01*
X162898095Y-194295238D01*
X163005238Y-194200000D01*
X162921904Y-194104761D01*
X162898095Y-194295238D01*
X163505238Y-194771428D02*
X164267142Y-194771428D01*
X163874285Y-194104761D02*
X163660000Y-195819047D01*
X163731428Y-196009523D01*
X163910000Y-196104761D01*
X164100476Y-196104761D01*
X165052857Y-196104761D02*
X164874285Y-196009523D01*
X164802857Y-195819047D01*
X165017142Y-194104761D01*
X166588571Y-196009523D02*
X166386190Y-196104761D01*
X166005238Y-196104761D01*
X165826666Y-196009523D01*
X165755238Y-195819047D01*
X165850476Y-195057142D01*
X165969523Y-194866666D01*
X166171904Y-194771428D01*
X166552857Y-194771428D01*
X166731428Y-194866666D01*
X166802857Y-195057142D01*
X166779047Y-195247619D01*
X165802857Y-195438095D01*
X167552857Y-195914285D02*
X167636190Y-196009523D01*
X167529047Y-196104761D01*
X167445714Y-196009523D01*
X167552857Y-195914285D01*
X167529047Y-196104761D01*
X167683809Y-194866666D02*
X167767142Y-194961904D01*
X167660000Y-195057142D01*
X167576666Y-194961904D01*
X167683809Y-194866666D01*
X167660000Y-195057142D01*
X170136190Y-195057142D02*
X170802857Y-195057142D01*
X170957619Y-196104761D02*
X170005238Y-196104761D01*
X170255238Y-194104761D01*
X171207619Y-194104761D01*
X171731428Y-196009523D02*
X172005238Y-196104761D01*
X172481428Y-196104761D01*
X172683809Y-196009523D01*
X172790952Y-195914285D01*
X172910000Y-195723809D01*
X172933809Y-195533333D01*
X172862380Y-195342857D01*
X172779047Y-195247619D01*
X172600476Y-195152380D01*
X172231428Y-195057142D01*
X172052857Y-194961904D01*
X171969523Y-194866666D01*
X171898095Y-194676190D01*
X171921904Y-194485714D01*
X172040952Y-194295238D01*
X172148095Y-194200000D01*
X172350476Y-194104761D01*
X172826666Y-194104761D01*
X173100476Y-194200000D01*
X173719523Y-196104761D02*
X173969523Y-194104761D01*
X174731428Y-194104761D01*
X174910000Y-194200000D01*
X174993333Y-194295238D01*
X175064761Y-194485714D01*
X175029047Y-194771428D01*
X174910000Y-194961904D01*
X174802857Y-195057142D01*
X174600476Y-195152380D01*
X173838571Y-195152380D01*
X175779047Y-194104761D02*
X177017142Y-194104761D01*
X176255238Y-194866666D01*
X176540952Y-194866666D01*
X176719523Y-194961904D01*
X176802857Y-195057142D01*
X176874285Y-195247619D01*
X176814761Y-195723809D01*
X176695714Y-195914285D01*
X176588571Y-196009523D01*
X176386190Y-196104761D01*
X175814761Y-196104761D01*
X175636190Y-196009523D01*
X175552857Y-195914285D01*
X177755238Y-194295238D02*
X177862380Y-194200000D01*
X178064761Y-194104761D01*
X178540952Y-194104761D01*
X178719523Y-194200000D01*
X178802857Y-194295238D01*
X178874285Y-194485714D01*
X178850476Y-194676190D01*
X178719523Y-194961904D01*
X177433809Y-196104761D01*
X178671904Y-196104761D01*
X180969523Y-196009523D02*
X181243333Y-196104761D01*
X181719523Y-196104761D01*
X181921904Y-196009523D01*
X182029047Y-195914285D01*
X182148095Y-195723809D01*
X182171904Y-195533333D01*
X182100476Y-195342857D01*
X182017142Y-195247619D01*
X181838571Y-195152380D01*
X181469523Y-195057142D01*
X181290952Y-194961904D01*
X181207619Y-194866666D01*
X181136190Y-194676190D01*
X181160000Y-194485714D01*
X181279047Y-194295238D01*
X181386190Y-194200000D01*
X181588571Y-194104761D01*
X182064761Y-194104761D01*
X182338571Y-194200000D01*
X183731428Y-196009523D02*
X183529047Y-196104761D01*
X183148095Y-196104761D01*
X182969523Y-196009523D01*
X182898095Y-195819047D01*
X182993333Y-195057142D01*
X183112380Y-194866666D01*
X183314761Y-194771428D01*
X183695714Y-194771428D01*
X183874285Y-194866666D01*
X183945714Y-195057142D01*
X183921904Y-195247619D01*
X182945714Y-195438095D01*
X184838571Y-194771428D02*
X184671904Y-196104761D01*
X184814761Y-194961904D02*
X184921904Y-194866666D01*
X185124285Y-194771428D01*
X185410000Y-194771428D01*
X185588571Y-194866666D01*
X185660000Y-195057142D01*
X185529047Y-196104761D01*
X186398095Y-196009523D02*
X186576666Y-196104761D01*
X186957619Y-196104761D01*
X187160000Y-196009523D01*
X187279047Y-195819047D01*
X187290952Y-195723809D01*
X187219523Y-195533333D01*
X187040952Y-195438095D01*
X186755238Y-195438095D01*
X186576666Y-195342857D01*
X186505238Y-195152380D01*
X186517142Y-195057142D01*
X186636190Y-194866666D01*
X186838571Y-194771428D01*
X187124285Y-194771428D01*
X187302857Y-194866666D01*
X188386190Y-196104761D02*
X188207619Y-196009523D01*
X188124285Y-195914285D01*
X188052857Y-195723809D01*
X188124285Y-195152380D01*
X188243333Y-194961904D01*
X188350476Y-194866666D01*
X188552857Y-194771428D01*
X188838571Y-194771428D01*
X189017142Y-194866666D01*
X189100476Y-194961904D01*
X189171904Y-195152380D01*
X189100476Y-195723809D01*
X188981428Y-195914285D01*
X188874285Y-196009523D01*
X188671904Y-196104761D01*
X188386190Y-196104761D01*
X189910000Y-196104761D02*
X190076666Y-194771428D01*
X190029047Y-195152380D02*
X190148095Y-194961904D01*
X190255238Y-194866666D01*
X190457619Y-194771428D01*
X190648095Y-194771428D01*
X192671904Y-196104761D02*
X192921904Y-194104761D01*
X193410000Y-195533333D01*
X194255238Y-194104761D01*
X194005238Y-196104761D01*
X195243333Y-196104761D02*
X195064761Y-196009523D01*
X194981428Y-195914285D01*
X194910000Y-195723809D01*
X194981428Y-195152380D01*
X195100476Y-194961904D01*
X195207619Y-194866666D01*
X195410000Y-194771428D01*
X195695714Y-194771428D01*
X195874285Y-194866666D01*
X195957619Y-194961904D01*
X196029047Y-195152380D01*
X195957619Y-195723809D01*
X195838571Y-195914285D01*
X195731428Y-196009523D01*
X195529047Y-196104761D01*
X195243333Y-196104761D01*
X197624285Y-196104761D02*
X197874285Y-194104761D01*
X197636190Y-196009523D02*
X197433809Y-196104761D01*
X197052857Y-196104761D01*
X196874285Y-196009523D01*
X196790952Y-195914285D01*
X196719523Y-195723809D01*
X196790952Y-195152380D01*
X196910000Y-194961904D01*
X197017142Y-194866666D01*
X197219523Y-194771428D01*
X197600476Y-194771428D01*
X197779047Y-194866666D01*
X199600476Y-194771428D02*
X199433809Y-196104761D01*
X198743333Y-194771428D02*
X198612380Y-195819047D01*
X198683809Y-196009523D01*
X198862380Y-196104761D01*
X199148095Y-196104761D01*
X199350476Y-196009523D01*
X199457619Y-195914285D01*
X200671904Y-196104761D02*
X200493333Y-196009523D01*
X200421904Y-195819047D01*
X200636190Y-194104761D01*
X202207619Y-196009523D02*
X202005238Y-196104761D01*
X201624285Y-196104761D01*
X201445714Y-196009523D01*
X201374285Y-195819047D01*
X201469523Y-195057142D01*
X201588571Y-194866666D01*
X201790952Y-194771428D01*
X202171904Y-194771428D01*
X202350476Y-194866666D01*
X202421904Y-195057142D01*
X202398095Y-195247619D01*
X201421904Y-195438095D01*
D10*
D11*
X161332142Y-191492857D02*
X160832142Y-191492857D01*
X160832142Y-192278571D02*
X160832142Y-190778571D01*
X161546428Y-190778571D01*
X162117857Y-192278571D02*
X162117857Y-191278571D01*
X162117857Y-190778571D02*
X162046428Y-190850000D01*
X162117857Y-190921428D01*
X162189285Y-190850000D01*
X162117857Y-190778571D01*
X162117857Y-190921428D01*
X163046428Y-192278571D02*
X162903571Y-192207142D01*
X162832142Y-192064285D01*
X162832142Y-190778571D01*
X164189285Y-192207142D02*
X164046428Y-192278571D01*
X163760714Y-192278571D01*
X163617857Y-192207142D01*
X163546428Y-192064285D01*
X163546428Y-191492857D01*
X163617857Y-191350000D01*
X163760714Y-191278571D01*
X164046428Y-191278571D01*
X164189285Y-191350000D01*
X164260714Y-191492857D01*
X164260714Y-191635714D01*
X163546428Y-191778571D01*
X164903571Y-192135714D02*
X164975000Y-192207142D01*
X164903571Y-192278571D01*
X164832142Y-192207142D01*
X164903571Y-192135714D01*
X164903571Y-192278571D01*
X164903571Y-191350000D02*
X164975000Y-191421428D01*
X164903571Y-191492857D01*
X164832142Y-191421428D01*
X164903571Y-191350000D01*
X164903571Y-191492857D01*
X167332142Y-192207142D02*
X167189285Y-192278571D01*
X166903571Y-192278571D01*
X166760714Y-192207142D01*
X166689285Y-192064285D01*
X166689285Y-191492857D01*
X166760714Y-191350000D01*
X166903571Y-191278571D01*
X167189285Y-191278571D01*
X167332142Y-191350000D01*
X167403571Y-191492857D01*
X167403571Y-191635714D01*
X166689285Y-191778571D01*
X167975000Y-192207142D02*
X168117857Y-192278571D01*
X168403571Y-192278571D01*
X168546428Y-192207142D01*
X168617857Y-192064285D01*
X168617857Y-191992857D01*
X168546428Y-191850000D01*
X168403571Y-191778571D01*
X168189285Y-191778571D01*
X168046428Y-191707142D01*
X167975000Y-191564285D01*
X167975000Y-191492857D01*
X168046428Y-191350000D01*
X168189285Y-191278571D01*
X168403571Y-191278571D01*
X168546428Y-191350000D01*
X169260714Y-191278571D02*
X169260714Y-192778571D01*
X169260714Y-191350000D02*
X169403571Y-191278571D01*
X169689285Y-191278571D01*
X169832142Y-191350000D01*
X169903571Y-191421428D01*
X169975000Y-191564285D01*
X169975000Y-191992857D01*
X169903571Y-192135714D01*
X169832142Y-192207142D01*
X169689285Y-192278571D01*
X169403571Y-192278571D01*
X169260714Y-192207142D01*
X170475000Y-190778571D02*
X171403571Y-190778571D01*
X170903571Y-191350000D01*
X171117857Y-191350000D01*
X171260714Y-191421428D01*
X171332142Y-191492857D01*
X171403571Y-191635714D01*
X171403571Y-191992857D01*
X171332142Y-192135714D01*
X171260714Y-192207142D01*
X171117857Y-192278571D01*
X170689285Y-192278571D01*
X170546428Y-192207142D01*
X170475000Y-192135714D01*
X171975000Y-190921428D02*
X172046428Y-190850000D01*
X172189285Y-190778571D01*
X172546428Y-190778571D01*
X172689285Y-190850000D01*
X172760714Y-190921428D01*
X172832142Y-191064285D01*
X172832142Y-191207142D01*
X172760714Y-191421428D01*
X171903571Y-192278571D01*
X172832142Y-192278571D01*
X173117857Y-192421428D02*
X174260714Y-192421428D01*
X174546428Y-192207142D02*
X174689285Y-192278571D01*
X174975000Y-192278571D01*
X175117857Y-192207142D01*
X175189285Y-192064285D01*
X175189285Y-191992857D01*
X175117857Y-191850000D01*
X174975000Y-191778571D01*
X174760714Y-191778571D01*
X174617857Y-191707142D01*
X174546428Y-191564285D01*
X174546428Y-191492857D01*
X174617857Y-191350000D01*
X174760714Y-191278571D01*
X174975000Y-191278571D01*
X175117857Y-191350000D01*
X176403571Y-192207142D02*
X176260714Y-192278571D01*
X175975000Y-192278571D01*
X175832142Y-192207142D01*
X175760714Y-192064285D01*
X175760714Y-191492857D01*
X175832142Y-191350000D01*
X175975000Y-191278571D01*
X176260714Y-191278571D01*
X176403571Y-191350000D01*
X176475000Y-191492857D01*
X176475000Y-191635714D01*
X175760714Y-191778571D01*
X177117857Y-191278571D02*
X177117857Y-192278571D01*
X177117857Y-191421428D02*
X177189285Y-191350000D01*
X177332142Y-191278571D01*
X177546428Y-191278571D01*
X177689285Y-191350000D01*
X177760714Y-191492857D01*
X177760714Y-192278571D01*
X178403571Y-192207142D02*
X178546428Y-192278571D01*
X178832142Y-192278571D01*
X178975000Y-192207142D01*
X179046428Y-192064285D01*
X179046428Y-191992857D01*
X178975000Y-191850000D01*
X178832142Y-191778571D01*
X178617857Y-191778571D01*
X178475000Y-191707142D01*
X178403571Y-191564285D01*
X178403571Y-191492857D01*
X178475000Y-191350000D01*
X178617857Y-191278571D01*
X178832142Y-191278571D01*
X178975000Y-191350000D01*
X179903571Y-192278571D02*
X179760714Y-192207142D01*
X179689285Y-192135714D01*
X179617857Y-191992857D01*
X179617857Y-191564285D01*
X179689285Y-191421428D01*
X179760714Y-191350000D01*
X179903571Y-191278571D01*
X180117857Y-191278571D01*
X180260714Y-191350000D01*
X180332142Y-191421428D01*
X180403571Y-191564285D01*
X180403571Y-191992857D01*
X180332142Y-192135714D01*
X180260714Y-192207142D01*
X180117857Y-192278571D01*
X179903571Y-192278571D01*
X181046428Y-192278571D02*
X181046428Y-191278571D01*
X181046428Y-191564285D02*
X181117857Y-191421428D01*
X181189285Y-191350000D01*
X181332142Y-191278571D01*
X181475000Y-191278571D01*
X181975000Y-192135714D02*
X182046428Y-192207142D01*
X181975000Y-192278571D01*
X181903571Y-192207142D01*
X181975000Y-192135714D01*
X181975000Y-192278571D01*
X182689285Y-192278571D02*
X182689285Y-190778571D01*
X182832142Y-191707142D02*
X183260714Y-192278571D01*
X183260714Y-191278571D02*
X182689285Y-191850000D01*
X183903571Y-192278571D02*
X183903571Y-191278571D01*
X183903571Y-190778571D02*
X183832142Y-190850000D01*
X183903571Y-190921428D01*
X183975000Y-190850000D01*
X183903571Y-190778571D01*
X183903571Y-190921428D01*
X185260714Y-192207142D02*
X185117857Y-192278571D01*
X184832142Y-192278571D01*
X184689285Y-192207142D01*
X184617857Y-192135714D01*
X184546428Y-191992857D01*
X184546428Y-191564285D01*
X184617857Y-191421428D01*
X184689285Y-191350000D01*
X184832142Y-191278571D01*
X185117857Y-191278571D01*
X185260714Y-191350000D01*
X186546428Y-192278571D02*
X186546428Y-191492857D01*
X186475000Y-191350000D01*
X186332142Y-191278571D01*
X186046428Y-191278571D01*
X185903571Y-191350000D01*
X186546428Y-192207142D02*
X186403571Y-192278571D01*
X186046428Y-192278571D01*
X185903571Y-192207142D01*
X185832142Y-192064285D01*
X185832142Y-191921428D01*
X185903571Y-191778571D01*
X186046428Y-191707142D01*
X186403571Y-191707142D01*
X186546428Y-191635714D01*
X187903571Y-192278571D02*
X187903571Y-190778571D01*
X187903571Y-192207142D02*
X187760714Y-192278571D01*
X187475000Y-192278571D01*
X187332142Y-192207142D01*
X187260714Y-192135714D01*
X187189285Y-191992857D01*
X187189285Y-191564285D01*
X187260714Y-191421428D01*
X187332142Y-191350000D01*
X187475000Y-191278571D01*
X187760714Y-191278571D01*
X187903571Y-191350000D01*
X188260714Y-192421428D02*
X189403571Y-192421428D01*
X189760714Y-191278571D02*
X189760714Y-192778571D01*
X189760714Y-191350000D02*
X189903571Y-191278571D01*
X190189285Y-191278571D01*
X190332142Y-191350000D01*
X190403571Y-191421428D01*
X190475000Y-191564285D01*
X190475000Y-191992857D01*
X190403571Y-192135714D01*
X190332142Y-192207142D01*
X190189285Y-192278571D01*
X189903571Y-192278571D01*
X189760714Y-192207142D01*
X191760714Y-192207142D02*
X191617857Y-192278571D01*
X191332142Y-192278571D01*
X191189285Y-192207142D01*
X191117857Y-192135714D01*
X191046428Y-191992857D01*
X191046428Y-191564285D01*
X191117857Y-191421428D01*
X191189285Y-191350000D01*
X191332142Y-191278571D01*
X191617857Y-191278571D01*
X191760714Y-191350000D01*
X192403571Y-192278571D02*
X192403571Y-190778571D01*
X192403571Y-191350000D02*
X192546428Y-191278571D01*
X192832142Y-191278571D01*
X192975000Y-191350000D01*
X193046428Y-191421428D01*
X193117857Y-191564285D01*
X193117857Y-191992857D01*
X193046428Y-192135714D01*
X192975000Y-192207142D01*
X192832142Y-192278571D01*
X192546428Y-192278571D01*
X192403571Y-192207142D01*
D10*
D11*
X159400000Y-187400000D02*
X267400000Y-187400000D01*
D10*
D11*
X160760714Y-189507142D02*
X160975000Y-189578571D01*
X161332142Y-189578571D01*
X161475000Y-189507142D01*
X161546428Y-189435714D01*
X161617857Y-189292857D01*
X161617857Y-189150000D01*
X161546428Y-189007142D01*
X161475000Y-188935714D01*
X161332142Y-188864285D01*
X161046428Y-188792857D01*
X160903571Y-188721428D01*
X160832142Y-188650000D01*
X160760714Y-188507142D01*
X160760714Y-188364285D01*
X160832142Y-188221428D01*
X160903571Y-188150000D01*
X161046428Y-188078571D01*
X161403571Y-188078571D01*
X161617857Y-188150000D01*
X162260714Y-189578571D02*
X162260714Y-188078571D01*
X162903571Y-189578571D02*
X162903571Y-188792857D01*
X162832142Y-188650000D01*
X162689285Y-188578571D01*
X162475000Y-188578571D01*
X162332142Y-188650000D01*
X162260714Y-188721428D01*
X164189285Y-189507142D02*
X164046428Y-189578571D01*
X163760714Y-189578571D01*
X163617857Y-189507142D01*
X163546428Y-189364285D01*
X163546428Y-188792857D01*
X163617857Y-188650000D01*
X163760714Y-188578571D01*
X164046428Y-188578571D01*
X164189285Y-188650000D01*
X164260714Y-188792857D01*
X164260714Y-188935714D01*
X163546428Y-189078571D01*
X165475000Y-189507142D02*
X165332142Y-189578571D01*
X165046428Y-189578571D01*
X164903571Y-189507142D01*
X164832142Y-189364285D01*
X164832142Y-188792857D01*
X164903571Y-188650000D01*
X165046428Y-188578571D01*
X165332142Y-188578571D01*
X165475000Y-188650000D01*
X165546428Y-188792857D01*
X165546428Y-188935714D01*
X164832142Y-189078571D01*
X165975000Y-188578571D02*
X166546428Y-188578571D01*
X166189285Y-188078571D02*
X166189285Y-189364285D01*
X166260714Y-189507142D01*
X166403571Y-189578571D01*
X166546428Y-189578571D01*
X167046428Y-189435714D02*
X167117857Y-189507142D01*
X167046428Y-189578571D01*
X166975000Y-189507142D01*
X167046428Y-189435714D01*
X167046428Y-189578571D01*
X167046428Y-188650000D02*
X167117857Y-188721428D01*
X167046428Y-188792857D01*
X166975000Y-188721428D01*
X167046428Y-188650000D01*
X167046428Y-188792857D01*
D10*
D12*
X161809285Y-186435714D02*
X161737857Y-186507142D01*
X161523571Y-186578571D01*
X161380714Y-186578571D01*
X161166428Y-186507142D01*
X161023571Y-186364285D01*
X160952142Y-186221428D01*
X160880714Y-185935714D01*
X160880714Y-185721428D01*
X160952142Y-185435714D01*
X161023571Y-185292857D01*
X161166428Y-185150000D01*
X161380714Y-185078571D01*
X161523571Y-185078571D01*
X161737857Y-185150000D01*
X161809285Y-185221428D01*
X162452142Y-186578571D02*
X162452142Y-185578571D01*
X162452142Y-185864285D02*
X162523571Y-185721428D01*
X162595000Y-185650000D01*
X162737857Y-185578571D01*
X162880714Y-185578571D01*
X163952142Y-186507142D02*
X163809285Y-186578571D01*
X163523571Y-186578571D01*
X163380714Y-186507142D01*
X163309285Y-186364285D01*
X163309285Y-185792857D01*
X163380714Y-185650000D01*
X163523571Y-185578571D01*
X163809285Y-185578571D01*
X163952142Y-185650000D01*
X164023571Y-185792857D01*
X164023571Y-185935714D01*
X163309285Y-186078571D01*
X165309285Y-186578571D02*
X165309285Y-185792857D01*
X165237857Y-185650000D01*
X165095000Y-185578571D01*
X164809285Y-185578571D01*
X164666428Y-185650000D01*
X165309285Y-186507142D02*
X165166428Y-186578571D01*
X164809285Y-186578571D01*
X164666428Y-186507142D01*
X164595000Y-186364285D01*
X164595000Y-186221428D01*
X164666428Y-186078571D01*
X164809285Y-186007142D01*
X165166428Y-186007142D01*
X165309285Y-185935714D01*
X165809285Y-185578571D02*
X166380714Y-185578571D01*
X166023571Y-185078571D02*
X166023571Y-186364285D01*
X166095000Y-186507142D01*
X166237857Y-186578571D01*
X166380714Y-186578571D01*
X167452142Y-186507142D02*
X167309285Y-186578571D01*
X167023571Y-186578571D01*
X166880714Y-186507142D01*
X166809285Y-186364285D01*
X166809285Y-185792857D01*
X166880714Y-185650000D01*
X167023571Y-185578571D01*
X167309285Y-185578571D01*
X167452142Y-185650000D01*
X167523571Y-185792857D01*
X167523571Y-185935714D01*
X166809285Y-186078571D01*
X168809285Y-186578571D02*
X168809285Y-185078571D01*
X168809285Y-186507142D02*
X168666428Y-186578571D01*
X168380714Y-186578571D01*
X168237857Y-186507142D01*
X168166428Y-186435714D01*
X168095000Y-186292857D01*
X168095000Y-185864285D01*
X168166428Y-185721428D01*
X168237857Y-185650000D01*
X168380714Y-185578571D01*
X168666428Y-185578571D01*
X168809285Y-185650000D01*
X170666428Y-186578571D02*
X170666428Y-185078571D01*
X170666428Y-185650000D02*
X170809285Y-185578571D01*
X171095000Y-185578571D01*
X171237857Y-185650000D01*
X171309285Y-185721428D01*
X171380714Y-185864285D01*
X171380714Y-186292857D01*
X171309285Y-186435714D01*
X171237857Y-186507142D01*
X171095000Y-186578571D01*
X170809285Y-186578571D01*
X170666428Y-186507142D01*
X171880714Y-185578571D02*
X172237857Y-186578571D01*
X172595000Y-185578571D02*
X172237857Y-186578571D01*
X172095000Y-186935714D01*
X172023571Y-187007142D01*
X171880714Y-187078571D01*
X175166428Y-186435714D02*
X175095000Y-186507142D01*
X174880714Y-186578571D01*
X174737857Y-186578571D01*
X174523571Y-186507142D01*
X174380714Y-186364285D01*
X174309285Y-186221428D01*
X174237857Y-185935714D01*
X174237857Y-185721428D01*
X174309285Y-185435714D01*
X174380714Y-185292857D01*
X174523571Y-185150000D01*
X174737857Y-185078571D01*
X174880714Y-185078571D01*
X175095000Y-185150000D01*
X175166428Y-185221428D01*
X175809285Y-186578571D02*
X175809285Y-185078571D01*
X176452142Y-186578571D02*
X176452142Y-185792857D01*
X176380714Y-185650000D01*
X176237857Y-185578571D01*
X176023571Y-185578571D01*
X175880714Y-185650000D01*
X175809285Y-185721428D01*
X177380714Y-186578571D02*
X177237857Y-186507142D01*
X177166428Y-186435714D01*
X177095000Y-186292857D01*
X177095000Y-185864285D01*
X177166428Y-185721428D01*
X177237857Y-185650000D01*
X177380714Y-185578571D01*
X177595000Y-185578571D01*
X177737857Y-185650000D01*
X177809285Y-185721428D01*
X177880714Y-185864285D01*
X177880714Y-186292857D01*
X177809285Y-186435714D01*
X177737857Y-186507142D01*
X177595000Y-186578571D01*
X177380714Y-186578571D01*
X178737857Y-186578571D02*
X178595000Y-186507142D01*
X178523571Y-186435714D01*
X178452142Y-186292857D01*
X178452142Y-185864285D01*
X178523571Y-185721428D01*
X178595000Y-185650000D01*
X178737857Y-185578571D01*
X178952142Y-185578571D01*
X179095000Y-185650000D01*
X179166428Y-185721428D01*
X179237857Y-185864285D01*
X179237857Y-186292857D01*
X179166428Y-186435714D01*
X179095000Y-186507142D01*
X178952142Y-186578571D01*
X178737857Y-186578571D01*
X179880714Y-185578571D02*
X179880714Y-186578571D01*
X179880714Y-185721428D02*
X179952142Y-185650000D01*
X180095000Y-185578571D01*
X180309285Y-185578571D01*
X180452142Y-185650000D01*
X180523571Y-185792857D01*
X180523571Y-186578571D01*
X181880714Y-185578571D02*
X181880714Y-186792857D01*
X181809285Y-186935714D01*
X181737857Y-187007142D01*
X181595000Y-187078571D01*
X181380714Y-187078571D01*
X181237857Y-187007142D01*
X181880714Y-186507142D02*
X181737857Y-186578571D01*
X181452142Y-186578571D01*
X181309285Y-186507142D01*
X181237857Y-186435714D01*
X181166428Y-186292857D01*
X181166428Y-185864285D01*
X181237857Y-185721428D01*
X181309285Y-185650000D01*
X181452142Y-185578571D01*
X181737857Y-185578571D01*
X181880714Y-185650000D01*
X184166428Y-185078571D02*
X184166428Y-186150000D01*
X184095000Y-186364285D01*
X183952142Y-186507142D01*
X183737857Y-186578571D01*
X183595000Y-186578571D01*
X184880714Y-186578571D02*
X184880714Y-185578571D01*
X184880714Y-185078571D02*
X184809285Y-185150000D01*
X184880714Y-185221428D01*
X184952142Y-185150000D01*
X184880714Y-185078571D01*
X184880714Y-185221428D01*
X185595000Y-185578571D02*
X185595000Y-186578571D01*
X185595000Y-185721428D02*
X185666428Y-185650000D01*
X185809285Y-185578571D01*
X186023571Y-185578571D01*
X186166428Y-185650000D01*
X186237857Y-185792857D01*
X186237857Y-186578571D01*
X188095000Y-186578571D02*
X188095000Y-185078571D01*
X188952142Y-186578571D01*
X188952142Y-185078571D01*
X190309285Y-185578571D02*
X190309285Y-186792857D01*
X190237857Y-186935714D01*
X190166428Y-187007142D01*
X190023571Y-187078571D01*
X189809285Y-187078571D01*
X189666428Y-187007142D01*
X190309285Y-186507142D02*
X190166428Y-186578571D01*
X189880714Y-186578571D01*
X189737857Y-186507142D01*
X189666428Y-186435714D01*
X189595000Y-186292857D01*
X189595000Y-185864285D01*
X189666428Y-185721428D01*
X189737857Y-185650000D01*
X189880714Y-185578571D01*
X190166428Y-185578571D01*
X190309285Y-185650000D01*
X192523571Y-187078571D02*
X192523571Y-184935714D01*
X194737857Y-185578571D02*
X194737857Y-186864285D01*
X194666428Y-187007142D01*
X194523571Y-187078571D01*
X194452142Y-187078571D01*
X194737857Y-185078571D02*
X194666428Y-185150000D01*
X194737857Y-185221428D01*
X194809285Y-185150000D01*
X194737857Y-185078571D01*
X194737857Y-185221428D01*
X195452142Y-186578571D02*
X195452142Y-185578571D01*
X195452142Y-185078571D02*
X195380714Y-185150000D01*
X195452142Y-185221428D01*
X195523571Y-185150000D01*
X195452142Y-185078571D01*
X195452142Y-185221428D01*
X196166428Y-185578571D02*
X196166428Y-186578571D01*
X196166428Y-185721428D02*
X196237857Y-185650000D01*
X196380714Y-185578571D01*
X196595000Y-185578571D01*
X196737857Y-185650000D01*
X196809285Y-185792857D01*
X196809285Y-186578571D01*
X197737857Y-185721428D02*
X197595000Y-185650000D01*
X197523571Y-185578571D01*
X197452142Y-185435714D01*
X197452142Y-185364285D01*
X197523571Y-185221428D01*
X197595000Y-185150000D01*
X197737857Y-185078571D01*
X198023571Y-185078571D01*
X198166428Y-185150000D01*
X198237857Y-185221428D01*
X198309285Y-185364285D01*
X198309285Y-185435714D01*
X198237857Y-185578571D01*
X198166428Y-185650000D01*
X198023571Y-185721428D01*
X197737857Y-185721428D01*
X197595000Y-185792857D01*
X197523571Y-185864285D01*
X197452142Y-186007142D01*
X197452142Y-186292857D01*
X197523571Y-186435714D01*
X197595000Y-186507142D01*
X197737857Y-186578571D01*
X198023571Y-186578571D01*
X198166428Y-186507142D01*
X198237857Y-186435714D01*
X198309285Y-186292857D01*
X198309285Y-186007142D01*
X198237857Y-185864285D01*
X198166428Y-185792857D01*
X198023571Y-185721428D01*
X198809285Y-185078571D02*
X199737857Y-185078571D01*
X199237857Y-185650000D01*
X199452142Y-185650000D01*
X199595000Y-185721428D01*
X199666428Y-185792857D01*
X199737857Y-185935714D01*
X199737857Y-186292857D01*
X199666428Y-186435714D01*
X199595000Y-186507142D01*
X199452142Y-186578571D01*
X199023571Y-186578571D01*
X198880714Y-186507142D01*
X198809285Y-186435714D01*
X200595000Y-185721428D02*
X200452142Y-185650000D01*
X200380714Y-185578571D01*
X200309285Y-185435714D01*
X200309285Y-185364285D01*
X200380714Y-185221428D01*
X200452142Y-185150000D01*
X200595000Y-185078571D01*
X200880714Y-185078571D01*
X201023571Y-185150000D01*
X201095000Y-185221428D01*
X201166428Y-185364285D01*
X201166428Y-185435714D01*
X201095000Y-185578571D01*
X201023571Y-185650000D01*
X200880714Y-185721428D01*
X200595000Y-185721428D01*
X200452142Y-185792857D01*
X200380714Y-185864285D01*
X200309285Y-186007142D01*
X200309285Y-186292857D01*
X200380714Y-186435714D01*
X200452142Y-186507142D01*
X200595000Y-186578571D01*
X200880714Y-186578571D01*
X201023571Y-186507142D01*
X201095000Y-186435714D01*
X201166428Y-186292857D01*
X201166428Y-186007142D01*
X201095000Y-185864285D01*
X201023571Y-185792857D01*
X200880714Y-185721428D01*
X201666428Y-185078571D02*
X202595000Y-185078571D01*
X202095000Y-185650000D01*
X202309285Y-185650000D01*
X202452142Y-185721428D01*
X202523571Y-185792857D01*
X202595000Y-185935714D01*
X202595000Y-186292857D01*
X202523571Y-186435714D01*
X202452142Y-186507142D01*
X202309285Y-186578571D01*
X201880714Y-186578571D01*
X201737857Y-186507142D01*
X201666428Y-186435714D01*
X204166428Y-185864285D02*
X204095000Y-185792857D01*
X203952142Y-185721428D01*
X203809285Y-185721428D01*
X203666428Y-185792857D01*
X203595000Y-185864285D01*
X203523571Y-186007142D01*
X203523571Y-186150000D01*
X203595000Y-186292857D01*
X203666428Y-186364285D01*
X203809285Y-186435714D01*
X203952142Y-186435714D01*
X204095000Y-186364285D01*
X204166428Y-186292857D01*
X204166428Y-185721428D02*
X204166428Y-186292857D01*
X204237857Y-186364285D01*
X204309285Y-186364285D01*
X204452142Y-186292857D01*
X204523571Y-186150000D01*
X204523571Y-185792857D01*
X204380714Y-185578571D01*
X204166428Y-185435714D01*
X203880714Y-185364285D01*
X203595000Y-185435714D01*
X203380714Y-185578571D01*
X203237857Y-185792857D01*
X203166428Y-186078571D01*
X203237857Y-186364285D01*
X203380714Y-186578571D01*
X203595000Y-186721428D01*
X203880714Y-186792857D01*
X204166428Y-186721428D01*
X204380714Y-186578571D01*
X205809285Y-185578571D02*
X205809285Y-186792857D01*
X205737857Y-186935714D01*
X205666428Y-187007142D01*
X205523571Y-187078571D01*
X205309285Y-187078571D01*
X205166428Y-187007142D01*
X205809285Y-186507142D02*
X205666428Y-186578571D01*
X205380714Y-186578571D01*
X205237857Y-186507142D01*
X205166428Y-186435714D01*
X205095000Y-186292857D01*
X205095000Y-185864285D01*
X205166428Y-185721428D01*
X205237857Y-185650000D01*
X205380714Y-185578571D01*
X205666428Y-185578571D01*
X205809285Y-185650000D01*
X206523571Y-186578571D02*
X206523571Y-185578571D01*
X206523571Y-185721428D02*
X206595000Y-185650000D01*
X206737857Y-185578571D01*
X206952142Y-185578571D01*
X207095000Y-185650000D01*
X207166428Y-185792857D01*
X207166428Y-186578571D01*
X207166428Y-185792857D02*
X207237857Y-185650000D01*
X207380714Y-185578571D01*
X207595000Y-185578571D01*
X207737857Y-185650000D01*
X207809285Y-185792857D01*
X207809285Y-186578571D01*
X209166428Y-186578571D02*
X209166428Y-185792857D01*
X209095000Y-185650000D01*
X208952142Y-185578571D01*
X208666428Y-185578571D01*
X208523571Y-185650000D01*
X209166428Y-186507142D02*
X209023571Y-186578571D01*
X208666428Y-186578571D01*
X208523571Y-186507142D01*
X208452142Y-186364285D01*
X208452142Y-186221428D01*
X208523571Y-186078571D01*
X208666428Y-186007142D01*
X209023571Y-186007142D01*
X209166428Y-185935714D01*
X209880714Y-186578571D02*
X209880714Y-185578571D01*
X209880714Y-185078571D02*
X209809285Y-185150000D01*
X209880714Y-185221428D01*
X209952142Y-185150000D01*
X209880714Y-185078571D01*
X209880714Y-185221428D01*
X210809285Y-186578571D02*
X210666428Y-186507142D01*
X210595000Y-186364285D01*
X210595000Y-185078571D01*
X211380714Y-186435714D02*
X211452142Y-186507142D01*
X211380714Y-186578571D01*
X211309285Y-186507142D01*
X211380714Y-186435714D01*
X211380714Y-186578571D01*
X212737857Y-186507142D02*
X212595000Y-186578571D01*
X212309285Y-186578571D01*
X212166428Y-186507142D01*
X212095000Y-186435714D01*
X212023571Y-186292857D01*
X212023571Y-185864285D01*
X212095000Y-185721428D01*
X212166428Y-185650000D01*
X212309285Y-185578571D01*
X212595000Y-185578571D01*
X212737857Y-185650000D01*
X213595000Y-186578571D02*
X213452142Y-186507142D01*
X213380714Y-186435714D01*
X213309285Y-186292857D01*
X213309285Y-185864285D01*
X213380714Y-185721428D01*
X213452142Y-185650000D01*
X213595000Y-185578571D01*
X213809285Y-185578571D01*
X213952142Y-185650000D01*
X214023571Y-185721428D01*
X214095000Y-185864285D01*
X214095000Y-186292857D01*
X214023571Y-186435714D01*
X213952142Y-186507142D01*
X213809285Y-186578571D01*
X213595000Y-186578571D01*
X214737857Y-186578571D02*
X214737857Y-185578571D01*
X214737857Y-185721428D02*
X214809285Y-185650000D01*
X214952142Y-185578571D01*
X215166428Y-185578571D01*
X215309285Y-185650000D01*
X215380714Y-185792857D01*
X215380714Y-186578571D01*
X215380714Y-185792857D02*
X215452142Y-185650000D01*
X215595000Y-185578571D01*
X215809285Y-185578571D01*
X215952142Y-185650000D01*
X216023571Y-185792857D01*
X216023571Y-186578571D01*
D10*
D11*
X179400000Y-197400000D02*
X179400000Y-200400000D01*
D10*
D11*
X243400000Y-197400000D02*
X243400000Y-203900000D01*
D14*
%TO.N,Net-(H_CN_1-Pad1)*%
%TO.C,H_CN_1*%
X126532000Y-118110000D03*
D15*
%TO.N,Net-(H_CN_1-Pad2)*%
X131532000Y-118110000D03*
%TD*%
%TO.N,Net-(H_CN_2-Pad2)*%
%TO.C,H_CN_2*%
X136398000Y-124166000D03*
D14*
%TO.N,Net-(H_CN_2-Pad1)*%
X136398000Y-119166000D03*
%TD*%
%TO.N,VS*%
%TO.C,H_CN_3*%
X89916000Y-122388000D03*
D15*
%TO.N,GND*%
X89916000Y-117388000D03*
%TD*%
D14*
%TO.N,Net-(H_CN_4-Pad1)*%
%TO.C,H_CN_4*%
X126532000Y-125222000D03*
D15*
%TO.N,Net-(H_CN_4-Pad2)*%
X131532000Y-125222000D03*
%TD*%
%TO.N,Net-(H_CN_5-Pad2)*%
%TO.C,H_CN_5*%
X99528000Y-116332000D03*
D14*
%TO.N,Net-(H_CN_5-Pad1)*%
X94528000Y-116332000D03*
%TD*%
%TO.N,/ESP32 Chip/IMU_SDA*%
%TO.C,H_IMU_1*%
X137414000Y-87336000D03*
D15*
%TO.N,/ESP32 Chip/IMU_SCL*%
X137414000Y-82336000D03*
%TD*%
D14*
%TO.N,/ESP32 Chip/IMU_INT1*%
%TO.C,H_IMU_2*%
X112562000Y-103124000D03*
D15*
%TO.N,/ESP32 Chip/IMU_INT2*%
X117562000Y-103124000D03*
%TD*%
%TO.N,/ESP32 Chip/IMU_SDO_SAO*%
%TO.C,H_IMU_3*%
X130382000Y-113538000D03*
D14*
%TO.N,+3V3*%
X135382000Y-113538000D03*
%TD*%
%TO.N,VS*%
%TO.C,H_PW_1*%
X110276000Y-113792000D03*
D15*
%TO.N,+BATT*%
X115276000Y-113792000D03*
%TD*%
D14*
%TO.N,VDD*%
%TO.C,H_PW_2*%
X97322000Y-125222000D03*
D15*
%TO.N,GND*%
X102322000Y-125222000D03*
%TD*%
D14*
%TO.N,+3V3*%
%TO.C,H_PW_3*%
X105664000Y-76668000D03*
D15*
%TO.N,GND*%
X105664000Y-71668000D03*
%TD*%
D16*
%TO.N,Net-(J_ESP_1-Pad1)*%
%TO.C,J_ESP_1*%
X81026000Y-76454000D03*
D17*
%TO.N,Net-(J_ESP_1-Pad2)*%
X81026000Y-78994000D03*
%TO.N,Net-(J_ESP_1-Pad3)*%
X81026000Y-81534000D03*
%TO.N,Net-(J_ESP_1-Pad4)*%
X81026000Y-84074000D03*
%TO.N,Net-(C_ESP_1-Pad2)*%
X81026000Y-86614000D03*
%TO.N,Net-(J_ESP_1-Pad6)*%
X81026000Y-89154000D03*
%TO.N,Net-(J_ESP_1-Pad7)*%
X81026000Y-91694000D03*
%TO.N,Net-(J_ESP_1-Pad8)*%
X81026000Y-94234000D03*
%TO.N,Net-(J_ESP_1-Pad9)*%
X81026000Y-96774000D03*
%TO.N,Net-(J_ESP_1-Pad10)*%
X81026000Y-99314000D03*
%TO.N,Net-(J_ESP_1-Pad11)*%
X81026000Y-101854000D03*
%TO.N,GND*%
X81026000Y-104394000D03*
%TO.N,Net-(J_ESP_1-Pad13)*%
X81026000Y-106934000D03*
%TO.N,VS*%
X81026000Y-109474000D03*
%TO.N,Net-(J_ESP_1-Pad15)*%
X81026000Y-112014000D03*
%TO.N,+3V3*%
X81026000Y-114554000D03*
X81026000Y-117094000D03*
%TO.N,Net-(J_ESP_1-Pad18)*%
X81026000Y-119634000D03*
%TO.N,Net-(J_ESP_1-Pad19)*%
X81026000Y-122174000D03*
%TO.N,Net-(J_ESP_1-Pad20)*%
X81026000Y-124714000D03*
%TD*%
%TO.N,/ESP32 Chip/IMU_INT1*%
%TO.C,J_ESP_2*%
X142748000Y-76708000D03*
%TO.N,/ESP32 Chip/IMU_INT2*%
X142748000Y-79248000D03*
%TO.N,Net-(J_ESP_2-Pad18)*%
X142748000Y-81788000D03*
%TO.N,Net-(J_ESP_2-Pad17)*%
X142748000Y-84328000D03*
%TO.N,Net-(J_ESP_2-Pad16)*%
X142748000Y-86868000D03*
%TO.N,Net-(J_ESP_2-Pad15)*%
X142748000Y-89408000D03*
%TO.N,Net-(J_ESP_2-Pad14)*%
X142748000Y-91948000D03*
%TO.N,Net-(J_ESP_2-Pad13)*%
X142748000Y-94488000D03*
%TO.N,Net-(J_ESP_2-Pad12)*%
X142748000Y-97028000D03*
%TO.N,/ESP32 Chip/IMU_SDO_SAO*%
X142748000Y-99568000D03*
%TO.N,Net-(J_ESP_2-Pad10)*%
X142748000Y-102108000D03*
%TO.N,/ESP32 Chip/IMU_SCL*%
X142748000Y-104648000D03*
%TO.N,Net-(J_ESP_2-Pad8)*%
X142748000Y-107188000D03*
%TO.N,/ESP32 Chip/IMU_SDA*%
X142748000Y-109728000D03*
%TO.N,Net-(J_ESP_2-Pad6)*%
X142748000Y-112268000D03*
%TO.N,Net-(J_ESP_2-Pad5)*%
X142748000Y-114808000D03*
%TO.N,Net-(J_ESP_2-Pad4)*%
X142748000Y-117348000D03*
%TO.N,Net-(J_ESP_2-Pad3)*%
X142748000Y-119888000D03*
%TO.N,Net-(J_ESP_2-Pad2)*%
X142748000Y-122428000D03*
D16*
%TO.N,Net-(J_ESP_2-Pad1)*%
X142748000Y-124968000D03*
%TD*%
D18*
%TO.N,Net-(C_ESP_1-Pad2)*%
X108204000Y-75692000D03*
X133911000Y-76200000D03*
X120920000Y-84081000D03*
X112776000Y-96012000D03*
%TO.N,GND*%
X108428000Y-120014000D03*
X118648000Y-120014000D03*
X119888000Y-111564000D03*
X122936000Y-111564000D03*
X88646000Y-107063998D03*
X95504000Y-105664000D03*
X87494000Y-69850000D03*
X87494000Y-73660000D03*
X135382000Y-76200000D03*
X127508000Y-100785000D03*
X123756000Y-107188000D03*
X130757000Y-103378000D03*
X135329000Y-103124000D03*
X102997000Y-103632000D03*
X95628002Y-92710000D03*
%TO.N,+3V3*%
X110236000Y-77978000D03*
X97790000Y-79052000D03*
X94615000Y-79052000D03*
X105410000Y-82892900D03*
X106306000Y-92456000D03*
X125222000Y-103378000D03*
X138176000Y-93160000D03*
X138684000Y-99875000D03*
X85090000Y-114554000D03*
X91106557Y-113204557D03*
%TO.N,VDD*%
X101092000Y-106260000D03*
%TO.N,Net-(C_PW_2-Pad1)*%
X88646000Y-104264002D03*
X98806000Y-104902000D03*
%TO.N,Net-(C_PW_5-Pad1)*%
X91694000Y-105473999D03*
X98427998Y-92710000D03*
X104006000Y-92456000D03*
%TO.N,VS*%
X104775000Y-116720000D03*
X110299500Y-108445300D03*
X122116000Y-107188000D03*
X105410000Y-126492000D03*
X116840000Y-126525000D03*
X85852000Y-121920000D03*
%TO.N,+BATT*%
X112204500Y-108445300D03*
%TO.N,Net-(H_CN_1-Pad1)*%
X113728000Y-122174000D03*
%TO.N,Net-(H_CN_2-Pad2)*%
X113728000Y-121158000D03*
X122174000Y-121614000D03*
%TO.N,Net-(H_CN_2-Pad1)*%
X119380000Y-115123997D03*
%TO.N,Net-(H_CN_4-Pad1)*%
X119380000Y-115824000D03*
X122174000Y-120396000D03*
%TO.N,Net-(H_CN_4-Pad2)*%
X112268000Y-126492000D03*
%TO.N,Net-(H_CN_5-Pad2)*%
X116241547Y-120641432D03*
%TO.N,Net-(H_CN_5-Pad1)*%
X114046000Y-119380000D03*
%TO.N,/ESP32 Chip/IMU_SDA*%
X136144000Y-93980000D03*
X137626000Y-97296980D03*
X110998000Y-94996000D03*
X140514000Y-105918000D03*
X140716000Y-96520000D03*
%TO.N,/ESP32 Chip/IMU_SCL*%
X140514000Y-104648000D03*
X135128000Y-94800000D03*
X135382000Y-104714802D03*
X140156000Y-88900000D03*
X135128000Y-88721000D03*
X135128000Y-84836000D03*
%TO.N,/ESP32 Chip/IMU_INT1*%
X126492000Y-102108000D03*
X141478000Y-70866000D03*
X111252000Y-91440000D03*
X109728000Y-79756000D03*
%TO.N,/ESP32 Chip/IMU_INT2*%
X136144000Y-99514000D03*
X134620000Y-104648000D03*
X123444000Y-103632000D03*
X109474000Y-91440000D03*
X114300000Y-100838000D03*
X136652000Y-72898000D03*
X110490000Y-84836000D03*
X110758980Y-90155020D03*
%TO.N,/ESP32 Chip/IMU_SDO_SAO*%
X136906000Y-91948000D03*
X140716000Y-99568000D03*
X132782019Y-94936019D03*
X132969000Y-90551000D03*
X132588000Y-109220000D03*
X127762000Y-98044000D03*
%TO.N,Net-(J_ESP_1-Pad1)*%
X94742000Y-80264000D03*
%TO.N,Net-(J_ESP_1-Pad2)*%
X97282000Y-84328000D03*
%TO.N,Net-(J_ESP_1-Pad3)*%
X109474000Y-83058000D03*
X89154000Y-77978000D03*
%TO.N,Net-(J_ESP_1-Pad4)*%
X109474000Y-84328000D03*
X89916000Y-78427000D03*
%TO.N,Net-(J_ESP_1-Pad6)*%
X113030000Y-98298000D03*
X94488000Y-88646000D03*
X108204000Y-96266000D03*
%TO.N,Net-(J_ESP_1-Pad7)*%
X120561800Y-97664801D03*
X93726000Y-87376000D03*
%TO.N,Net-(J_ESP_1-Pad8)*%
X118110000Y-97738000D03*
X114554000Y-97028000D03*
X104902000Y-96774000D03*
%TO.N,Net-(J_ESP_1-Pad9)*%
X115824000Y-97738000D03*
X94199557Y-97755557D03*
X104867557Y-97755557D03*
%TO.N,Net-(J_ESP_1-Pad10)*%
X121638621Y-98660790D03*
X114554000Y-100076000D03*
X92254000Y-102616000D03*
%TO.N,Net-(J_ESP_1-Pad11)*%
X120964942Y-98237058D03*
X89662000Y-101854000D03*
X118618000Y-99516000D03*
X101092000Y-102616000D03*
X94742000Y-101854000D03*
%TO.N,Net-(J_ESP_1-Pad18)*%
X108204000Y-80951000D03*
X79502000Y-72136000D03*
%TO.N,Net-(J_ESP_1-Pad19)*%
X90678000Y-73660000D03*
%TO.N,Net-(J_ESP_2-Pad18)*%
X110034000Y-88138000D03*
%TO.N,Net-(J_ESP_2-Pad10)*%
X129540000Y-97028000D03*
X138134000Y-103886000D03*
X139394000Y-102362000D03*
X140716000Y-102362000D03*
%TO.N,Net-(J_ESP_2-Pad8)*%
X139234000Y-106680000D03*
X115316000Y-96266000D03*
X131826000Y-108712000D03*
%TO.N,Net-(J_ESP_2-Pad6)*%
X133604000Y-87630000D03*
X140730980Y-111999020D03*
%TO.N,Net-(J_ESP_2-Pad5)*%
X135636000Y-91694000D03*
X139954000Y-97536000D03*
%TO.N,Net-(C_PW_4-Pad1)*%
X94488000Y-100076000D03*
X101600000Y-98317050D03*
X98305909Y-103928000D03*
%TO.N,Net-(R_ESP_2-Pad2)*%
X99568000Y-73406000D03*
X97790000Y-77412000D03*
%TO.N,Net-(R_ESP_4-Pad1)*%
X92964000Y-78232000D03*
X89483999Y-97621001D03*
%TO.N,Net-(R_ESP_5-Pad1)*%
X88138000Y-90678000D03*
X89036000Y-73660000D03*
%TO.N,Net-(R_PW_2-Pad2)*%
X90424000Y-106426000D03*
X117602000Y-111506000D03*
%TO.N,Net-(C_PW_4-Pad2)*%
X99568000Y-104140000D03*
X98865909Y-101878505D03*
%TO.N,Net-(J_ESP_2-Pad4)*%
X133604000Y-81534000D03*
%TO.N,Net-(J_ESP_2-Pad3)*%
X94742000Y-85989000D03*
X119380000Y-87630000D03*
X130810000Y-97028000D03*
%TO.N,Net-(J_ESP_2-Pad2)*%
X132920520Y-80693480D03*
%TO.N,Net-(J_ESP_2-Pad1)*%
X142748000Y-70104000D03*
X92202000Y-78231999D03*
X89483999Y-92370999D03*
X136144000Y-92202000D03*
%TD*%
D19*
%TO.N,Net-(C_PW_2-Pad1)*%
X98451107Y-104902000D02*
X98806000Y-104902000D01*
X97813109Y-104264002D02*
X98451107Y-104902000D01*
X88646000Y-104264002D02*
X97813109Y-104264002D01*
%TO.N,Net-(H_CN_1-Pad1)*%
X122468000Y-122174000D02*
X126532000Y-118110000D01*
X113728000Y-122174000D02*
X122468000Y-122174000D01*
%TO.N,Net-(H_CN_2-Pad2)*%
X114184000Y-121614000D02*
X122174000Y-121614000D01*
X113728000Y-121158000D02*
X114184000Y-121614000D01*
%TO.N,Net-(H_CN_2-Pad1)*%
X126533195Y-115123997D02*
X131805198Y-120396000D01*
X119380000Y-115123997D02*
X126533195Y-115123997D01*
X135168000Y-120396000D02*
X136398000Y-119166000D01*
X131805198Y-120396000D02*
X135168000Y-120396000D01*
%TO.N,Net-(H_CN_4-Pad1)*%
X119380000Y-115824000D02*
X119380000Y-117094000D01*
X122174000Y-119888000D02*
X122174000Y-120396000D01*
X119380000Y-117094000D02*
X122174000Y-119888000D01*
%TO.N,Net-(H_CN_4-Pad2)*%
X125233999Y-126582001D02*
X130171999Y-126582001D01*
X124616997Y-125964999D02*
X125233999Y-126582001D01*
X113148554Y-125964999D02*
X124616997Y-125964999D01*
X112621553Y-126492000D02*
X113148554Y-125964999D01*
X130171999Y-126582001D02*
X131532000Y-125222000D01*
X112268000Y-126492000D02*
X112621553Y-126492000D01*
%TO.N,Net-(H_CN_5-Pad2)*%
X99700001Y-116159999D02*
X99528000Y-116332000D01*
X111760114Y-116159999D02*
X99700001Y-116159999D01*
X116241547Y-120641432D02*
X111760114Y-116159999D01*
%TO.N,Net-(H_CN_5-Pad1)*%
X114046000Y-119380000D02*
X100584000Y-119380000D01*
X97536000Y-116332000D02*
X94528000Y-116332000D01*
X100584000Y-119380000D02*
X97536000Y-116332000D01*
%TO.N,/ESP32 Chip/IMU_SDA*%
X136144000Y-95814980D02*
X137626000Y-97296980D01*
X136144000Y-93980000D02*
X136144000Y-95814980D01*
X110998000Y-94996000D02*
X113792000Y-94996000D01*
X137147999Y-87069999D02*
X137414000Y-87336000D01*
X121718001Y-87069999D02*
X137147999Y-87069999D01*
X113792000Y-94996000D02*
X121718001Y-87069999D01*
%TO.N,/ESP32 Chip/IMU_SCL*%
X135128000Y-95392962D02*
X135128000Y-94800000D01*
X137065999Y-97330961D02*
X135128000Y-95392962D01*
X137065999Y-101199999D02*
X137065999Y-97330961D01*
X140514000Y-104648000D02*
X137065999Y-101199999D01*
X135448802Y-104648000D02*
X135382000Y-104714802D01*
X140514000Y-104648000D02*
X135448802Y-104648000D01*
X140156000Y-88900000D02*
X135128000Y-88900000D01*
X135128000Y-88900000D02*
X135128000Y-88721000D01*
%TO.N,/ESP32 Chip/IMU_INT1*%
X113922001Y-101763999D02*
X112562000Y-103124000D01*
X126147999Y-101763999D02*
X113922001Y-101763999D01*
X126492000Y-102108000D02*
X126147999Y-101763999D01*
X109728000Y-79756000D02*
X113284000Y-79756000D01*
X113284000Y-79756000D02*
X122174000Y-70866000D01*
X141478000Y-70866000D02*
X122174000Y-70866000D01*
%TO.N,/ESP32 Chip/IMU_INT2*%
X136144000Y-103124000D02*
X134620000Y-104648000D01*
X136144000Y-99514000D02*
X136144000Y-103124000D01*
X118070000Y-103632000D02*
X117562000Y-103124000D01*
X123444000Y-103632000D02*
X118070000Y-103632000D01*
X109474000Y-96012000D02*
X114300000Y-100838000D01*
X109474000Y-91440000D02*
X109474000Y-96012000D01*
X122428000Y-72898000D02*
X110490000Y-84836000D01*
X136652000Y-72898000D02*
X122428000Y-72898000D01*
%TO.N,/ESP32 Chip/IMU_SDO_SAO*%
X136906000Y-95758000D02*
X140716000Y-99568000D01*
X136906000Y-91948000D02*
X136906000Y-95758000D01*
X132782019Y-90737981D02*
X132969000Y-90551000D01*
X132782019Y-94936019D02*
X132782019Y-90737981D01*
%TO.N,Net-(J_ESP_1-Pad3)*%
X109474000Y-83058000D02*
X102616000Y-76200000D01*
X102616000Y-76200000D02*
X90932000Y-76200000D01*
X90932000Y-76200000D02*
X89154000Y-77978000D01*
%TO.N,Net-(J_ESP_1-Pad4)*%
X90671001Y-77671999D02*
X89916000Y-78427000D01*
X93232801Y-77671999D02*
X90671001Y-77671999D01*
X94052801Y-78491999D02*
X93232801Y-77671999D01*
X103637999Y-78491999D02*
X94052801Y-78491999D01*
X109474000Y-84328000D02*
X103637999Y-78491999D01*
%TO.N,Net-(J_ESP_1-Pad6)*%
X108204000Y-95825198D02*
X108204000Y-96266000D01*
X101024802Y-88646000D02*
X108204000Y-95825198D01*
X94488000Y-88646000D02*
X101024802Y-88646000D01*
%TO.N,Net-(J_ESP_1-Pad7)*%
X106238802Y-87376000D02*
X93726000Y-87376000D01*
X110034001Y-91171199D02*
X106238802Y-87376000D01*
X112761199Y-97737999D02*
X110034001Y-95010801D01*
X113298801Y-97737999D02*
X112761199Y-97737999D01*
X110034001Y-95010801D02*
X110034001Y-91171199D01*
X113858803Y-98298001D02*
X113298801Y-97737999D01*
X119928600Y-98298001D02*
X113858803Y-98298001D01*
X120561800Y-97664801D02*
X119928600Y-98298001D01*
%TO.N,Net-(J_ESP_1-Pad8)*%
X117549999Y-97177999D02*
X114703999Y-97177999D01*
X118110000Y-97738000D02*
X117549999Y-97177999D01*
X114703999Y-97177999D02*
X114554000Y-97028000D01*
X84973002Y-98181002D02*
X81026000Y-94234000D01*
X91159802Y-96774000D02*
X89752800Y-98181002D01*
X89752800Y-98181002D02*
X84973002Y-98181002D01*
X104902000Y-96774000D02*
X91159802Y-96774000D01*
%TO.N,Net-(J_ESP_1-Pad9)*%
X94199557Y-97755557D02*
X104867557Y-97755557D01*
%TO.N,Net-(J_ESP_1-Pad10)*%
X120223411Y-100076000D02*
X114554000Y-100076000D01*
X121638621Y-98660790D02*
X120223411Y-100076000D01*
X84328000Y-102616000D02*
X81026000Y-99314000D01*
X92254000Y-102616000D02*
X84328000Y-102616000D01*
%TO.N,Net-(J_ESP_1-Pad11)*%
X120964942Y-98237058D02*
X119634000Y-99568000D01*
X118670000Y-99568000D02*
X118618000Y-99516000D01*
X119634000Y-99568000D02*
X118670000Y-99568000D01*
X89662000Y-101854000D02*
X94742000Y-101854000D01*
%TO.N,Net-(J_ESP_1-Pad18)*%
X108204000Y-76549998D02*
X103790002Y-72136000D01*
X108204000Y-80951000D02*
X108204000Y-76549998D01*
X103790002Y-72136000D02*
X79502000Y-72136000D01*
%TO.N,Net-(J_ESP_1-Pad19)*%
X90117999Y-73099999D02*
X79300001Y-73099999D01*
X90678000Y-73660000D02*
X90117999Y-73099999D01*
X79300001Y-97483999D02*
X79075010Y-97708990D01*
X79300001Y-73099999D02*
X79300001Y-97483999D01*
X79075010Y-97708990D02*
X79075010Y-121493010D01*
X79756000Y-122174000D02*
X81026000Y-122174000D01*
X79075010Y-121493010D02*
X79756000Y-122174000D01*
%TO.N,Net-(J_ESP_2-Pad10)*%
X139394000Y-102362000D02*
X140716000Y-102362000D01*
%TO.N,Net-(J_ESP_2-Pad8)*%
X122441802Y-94234000D02*
X131317001Y-103109199D01*
X118110000Y-94234000D02*
X122441802Y-94234000D01*
X116078000Y-96266000D02*
X118110000Y-94234000D01*
X115316000Y-96266000D02*
X116078000Y-96266000D01*
X131826000Y-108712000D02*
X131826000Y-104394000D01*
X131317001Y-103109199D02*
X131317001Y-103885001D01*
X131826000Y-104394000D02*
X131317001Y-103885001D01*
%TO.N,Net-(J_ESP_2-Pad6)*%
X133604000Y-104872040D02*
X140730980Y-111999020D01*
X133604000Y-87630000D02*
X133604000Y-104872040D01*
%TO.N,Net-(J_ESP_2-Pad5)*%
X137232801Y-91387999D02*
X139954000Y-94109198D01*
X135942001Y-91387999D02*
X137232801Y-91387999D01*
X135636000Y-91694000D02*
X135942001Y-91387999D01*
X139954000Y-94109198D02*
X139954000Y-97536000D01*
%TO.N,Net-(C_PW_4-Pad1)*%
X100141998Y-99775052D02*
X101600000Y-98317050D01*
X94488000Y-100110091D02*
X94488000Y-100076000D01*
X98305909Y-103928000D02*
X94488000Y-100110091D01*
X98305909Y-101611141D02*
X100141998Y-99775052D01*
X98305909Y-103928000D02*
X98305909Y-101611141D01*
%TO.N,Net-(R_ESP_4-Pad1)*%
X92964000Y-94141000D02*
X89483999Y-97621001D01*
X92964000Y-78232000D02*
X92964000Y-94141000D01*
%TO.N,Net-(R_ESP_5-Pad1)*%
X88138000Y-74558000D02*
X89036000Y-73660000D01*
X88138000Y-90678000D02*
X88138000Y-74558000D01*
%TO.N,Net-(R_PW_2-Pad2)*%
X95504000Y-111506000D02*
X117602000Y-111506000D01*
X90424000Y-106426000D02*
X95504000Y-111506000D01*
%TO.N,Net-(C_PW_4-Pad2)*%
X99568000Y-102580596D02*
X98865909Y-101878505D01*
X99568000Y-104140000D02*
X99568000Y-102580596D01*
%TO.N,Net-(J_ESP_2-Pad4)*%
X141587999Y-116187999D02*
X142748000Y-117348000D01*
X141587999Y-88851997D02*
X141587999Y-116187999D01*
X136432003Y-83696001D02*
X141587999Y-88851997D01*
X135766001Y-83696001D02*
X136432003Y-83696001D01*
X133604000Y-81534000D02*
X135766001Y-83696001D01*
%TO.N,Net-(J_ESP_2-Pad3)*%
X117739000Y-85989000D02*
X119380000Y-87630000D01*
X94742000Y-85989000D02*
X117739000Y-85989000D01*
X136742001Y-113882001D02*
X142748000Y-119888000D01*
X136742001Y-108604023D02*
X136742001Y-113882001D01*
X133183990Y-105046012D02*
X136742001Y-108604023D01*
X133183990Y-99401990D02*
X133183990Y-105046012D01*
X130810000Y-97028000D02*
X133183990Y-99401990D01*
%TO.N,Net-(J_ESP_2-Pad2)*%
X142191199Y-80627999D02*
X143619999Y-80627999D01*
X142125718Y-80693480D02*
X142191199Y-80627999D01*
X132920520Y-80693480D02*
X142125718Y-80693480D01*
X143908001Y-121267999D02*
X142748000Y-122428000D01*
X143908001Y-80916001D02*
X143908001Y-121267999D01*
X143619999Y-80627999D02*
X143908001Y-80916001D01*
%TO.N,Net-(J_ESP_2-Pad1)*%
X92202000Y-89652998D02*
X89483999Y-92370999D01*
X92202000Y-78231999D02*
X92202000Y-89652998D01*
%TD*%
D20*
%TO.N,GND*%
X93800576Y-89210155D02*
X93923845Y-89333424D01*
X94068795Y-89430277D01*
X94229855Y-89496990D01*
X94400835Y-89531000D01*
X94575165Y-89531000D01*
X94746145Y-89496990D01*
X94907205Y-89430277D01*
X94965987Y-89391000D01*
X100716213Y-89391000D01*
X103277913Y-91952700D01*
X103221723Y-92036795D01*
X103155010Y-92197855D01*
X103121000Y-92368835D01*
X103121000Y-92543165D01*
X103155010Y-92714145D01*
X103221723Y-92875205D01*
X103318576Y-93020155D01*
X103441845Y-93143424D01*
X103586795Y-93240277D01*
X103747855Y-93306990D01*
X103918835Y-93341000D01*
X104093165Y-93341000D01*
X104264145Y-93306990D01*
X104425205Y-93240277D01*
X104509300Y-93184087D01*
X107349701Y-96024488D01*
X107319000Y-96178835D01*
X107319000Y-96353165D01*
X107353010Y-96524145D01*
X107419723Y-96685205D01*
X107516576Y-96830155D01*
X107639845Y-96953424D01*
X107784795Y-97050277D01*
X107945855Y-97116990D01*
X108116835Y-97151000D01*
X108291165Y-97151000D01*
X108462145Y-97116990D01*
X108623205Y-97050277D01*
X108768155Y-96953424D01*
X108891424Y-96830155D01*
X108988277Y-96685205D01*
X109019130Y-96610719D01*
X113435218Y-101026807D01*
X113449010Y-101096145D01*
X113477531Y-101165002D01*
X113421080Y-101211330D01*
X113421075Y-101211335D01*
X113392658Y-101234656D01*
X113369336Y-101263074D01*
X113196482Y-101435928D01*
X111512000Y-101435928D01*
X111387518Y-101448188D01*
X111267820Y-101484498D01*
X111157506Y-101543463D01*
X111060815Y-101622815D01*
X110981463Y-101719506D01*
X110922498Y-101829820D01*
X110886188Y-101949518D01*
X110873928Y-102074000D01*
X110873928Y-104174000D01*
X110886188Y-104298482D01*
X110922498Y-104418180D01*
X110981463Y-104528494D01*
X111060815Y-104625185D01*
X111157506Y-104704537D01*
X111267820Y-104763502D01*
X111387518Y-104799812D01*
X111512000Y-104812072D01*
X113612000Y-104812072D01*
X113736482Y-104799812D01*
X113856180Y-104763502D01*
X113966494Y-104704537D01*
X114063185Y-104625185D01*
X114142537Y-104528494D01*
X114201502Y-104418180D01*
X114237812Y-104298482D01*
X114250072Y-104174000D01*
X114250072Y-102508999D01*
X115992911Y-102508999D01*
X115941754Y-102632504D01*
X115877000Y-102958042D01*
X115877000Y-103289958D01*
X115941754Y-103615496D01*
X116068772Y-103922147D01*
X116253175Y-104198125D01*
X116487875Y-104432825D01*
X116763853Y-104617228D01*
X117070504Y-104744246D01*
X117396042Y-104809000D01*
X117727958Y-104809000D01*
X118053496Y-104744246D01*
X118360147Y-104617228D01*
X118636125Y-104432825D01*
X118691950Y-104377000D01*
X122966013Y-104377000D01*
X123024795Y-104416277D01*
X123185855Y-104482990D01*
X123356835Y-104517000D01*
X123531165Y-104517000D01*
X123702145Y-104482990D01*
X123863205Y-104416277D01*
X124008155Y-104319424D01*
X124131424Y-104196155D01*
X124228277Y-104051205D01*
X124294990Y-103890145D01*
X124329000Y-103719165D01*
X124329000Y-103544835D01*
X124294990Y-103373855D01*
X124228277Y-103212795D01*
X124131424Y-103067845D01*
X124008155Y-102944576D01*
X123863205Y-102847723D01*
X123702145Y-102781010D01*
X123531165Y-102747000D01*
X123356835Y-102747000D01*
X123185855Y-102781010D01*
X123024795Y-102847723D01*
X122966013Y-102887000D01*
X119232869Y-102887000D01*
X119182246Y-102632504D01*
X119131089Y-102508999D01*
X125054403Y-102508999D01*
X124963855Y-102527010D01*
X124802795Y-102593723D01*
X124657845Y-102690576D01*
X124534576Y-102813845D01*
X124437723Y-102958795D01*
X124371010Y-103119855D01*
X124337000Y-103290835D01*
X124337000Y-103465165D01*
X124371010Y-103636145D01*
X124437723Y-103797205D01*
X124534576Y-103942155D01*
X124657845Y-104065424D01*
X124802795Y-104162277D01*
X124963855Y-104228990D01*
X125134835Y-104263000D01*
X125309165Y-104263000D01*
X125480145Y-104228990D01*
X125641205Y-104162277D01*
X125786155Y-104065424D01*
X125909424Y-103942155D01*
X126006277Y-103797205D01*
X126072990Y-103636145D01*
X126107000Y-103465165D01*
X126107000Y-103290835D01*
X126072990Y-103119855D01*
X126006277Y-102958795D01*
X125909424Y-102813845D01*
X125786155Y-102690576D01*
X125641205Y-102593723D01*
X125480145Y-102527010D01*
X125389597Y-102508999D01*
X125700182Y-102508999D01*
X125707723Y-102527205D01*
X125804576Y-102672155D01*
X125927845Y-102795424D01*
X126072795Y-102892277D01*
X126233855Y-102958990D01*
X126404835Y-102993000D01*
X126579165Y-102993000D01*
X126750145Y-102958990D01*
X126911205Y-102892277D01*
X127056155Y-102795424D01*
X127179424Y-102672155D01*
X127276277Y-102527205D01*
X127342990Y-102366145D01*
X127377000Y-102195165D01*
X127377000Y-102020835D01*
X127342990Y-101849855D01*
X127276277Y-101688795D01*
X127179424Y-101543845D01*
X127056155Y-101420576D01*
X126911205Y-101323723D01*
X126750145Y-101257010D01*
X126685063Y-101244064D01*
X126677342Y-101234656D01*
X126563901Y-101141558D01*
X126434477Y-101072379D01*
X126294044Y-101029779D01*
X126184591Y-101018999D01*
X126184589Y-101018999D01*
X126147999Y-101015395D01*
X126111409Y-101018999D01*
X115166335Y-101018999D01*
X115185000Y-100925165D01*
X115185000Y-100821000D01*
X120186821Y-100821000D01*
X120223411Y-100824604D01*
X120260001Y-100821000D01*
X120260003Y-100821000D01*
X120369456Y-100810220D01*
X120509889Y-100767620D01*
X120639313Y-100698441D01*
X120752754Y-100605343D01*
X120776080Y-100576920D01*
X121827428Y-99525572D01*
X121896766Y-99511780D01*
X122057826Y-99445067D01*
X122202776Y-99348214D01*
X122326045Y-99224945D01*
X122422898Y-99079995D01*
X122489611Y-98918935D01*
X122523621Y-98747955D01*
X122523621Y-98573625D01*
X122489611Y-98402645D01*
X122422898Y-98241585D01*
X122326045Y-98096635D01*
X122202776Y-97973366D01*
X122057826Y-97876513D01*
X121896766Y-97809800D01*
X121725786Y-97775790D01*
X121721113Y-97775790D01*
X121652366Y-97672903D01*
X121529097Y-97549634D01*
X121427762Y-97481924D01*
X121412790Y-97406656D01*
X121346077Y-97245596D01*
X121249224Y-97100646D01*
X121125955Y-96977377D01*
X120981005Y-96880524D01*
X120819945Y-96813811D01*
X120648965Y-96779801D01*
X120474635Y-96779801D01*
X120303655Y-96813811D01*
X120142595Y-96880524D01*
X119997645Y-96977377D01*
X119874376Y-97100646D01*
X119777523Y-97245596D01*
X119710810Y-97406656D01*
X119697018Y-97475994D01*
X119620011Y-97553001D01*
X118975540Y-97553001D01*
X118960990Y-97479855D01*
X118894277Y-97318795D01*
X118797424Y-97173845D01*
X118674155Y-97050576D01*
X118529205Y-96953723D01*
X118368145Y-96887010D01*
X118298807Y-96873218D01*
X118102668Y-96677079D01*
X118079342Y-96648656D01*
X117965901Y-96555558D01*
X117836477Y-96486379D01*
X117696044Y-96443779D01*
X117586591Y-96432999D01*
X117586589Y-96432999D01*
X117549999Y-96429395D01*
X117513409Y-96432999D01*
X116964590Y-96432999D01*
X118418590Y-94979000D01*
X122133213Y-94979000D01*
X130572001Y-103417788D01*
X130572001Y-103848411D01*
X130568397Y-103885001D01*
X130572001Y-103921591D01*
X130572001Y-103921593D01*
X130582781Y-104031046D01*
X130619063Y-104150647D01*
X130625382Y-104171479D01*
X130694560Y-104300903D01*
X130764332Y-104385921D01*
X130764338Y-104385927D01*
X130787659Y-104414344D01*
X130816076Y-104437665D01*
X131081001Y-104702590D01*
X131081000Y-108234013D01*
X131041723Y-108292795D01*
X130975010Y-108453855D01*
X130941000Y-108624835D01*
X130941000Y-108799165D01*
X130975010Y-108970145D01*
X131041723Y-109131205D01*
X131138576Y-109276155D01*
X131261845Y-109399424D01*
X131406795Y-109496277D01*
X131567855Y-109562990D01*
X131738835Y-109597000D01*
X131786241Y-109597000D01*
X131803723Y-109639205D01*
X131900576Y-109784155D01*
X132023845Y-109907424D01*
X132168795Y-110004277D01*
X132329855Y-110070990D01*
X132500835Y-110105000D01*
X132675165Y-110105000D01*
X132846145Y-110070990D01*
X133007205Y-110004277D01*
X133152155Y-109907424D01*
X133275424Y-109784155D01*
X133372277Y-109639205D01*
X133438990Y-109478145D01*
X133473000Y-109307165D01*
X133473000Y-109132835D01*
X133438990Y-108961855D01*
X133372277Y-108800795D01*
X133275424Y-108655845D01*
X133152155Y-108532576D01*
X133007205Y-108435723D01*
X132846145Y-108369010D01*
X132675165Y-108335000D01*
X132627759Y-108335000D01*
X132610277Y-108292795D01*
X132571000Y-108234013D01*
X132571000Y-105473430D01*
X132631321Y-105546932D01*
X132631327Y-105546938D01*
X132654648Y-105575355D01*
X132683065Y-105598676D01*
X135997001Y-108912612D01*
X135997002Y-111849928D01*
X134332000Y-111849928D01*
X134207518Y-111862188D01*
X134087820Y-111898498D01*
X133977506Y-111957463D01*
X133880815Y-112036815D01*
X133801463Y-112133506D01*
X133742498Y-112243820D01*
X133706188Y-112363518D01*
X133693928Y-112488000D01*
X133693928Y-114588000D01*
X133706188Y-114712482D01*
X133742498Y-114832180D01*
X133801463Y-114942494D01*
X133880815Y-115039185D01*
X133977506Y-115118537D01*
X134087820Y-115177502D01*
X134207518Y-115213812D01*
X134332000Y-115226072D01*
X136432000Y-115226072D01*
X136556482Y-115213812D01*
X136676180Y-115177502D01*
X136786494Y-115118537D01*
X136862539Y-115056128D01*
X141310310Y-119503899D01*
X141263000Y-119741740D01*
X141263000Y-120034260D01*
X141320068Y-120321158D01*
X141432010Y-120591411D01*
X141594525Y-120834632D01*
X141801368Y-121041475D01*
X141975760Y-121158000D01*
X141801368Y-121274525D01*
X141594525Y-121481368D01*
X141432010Y-121724589D01*
X141320068Y-121994842D01*
X141263000Y-122281740D01*
X141263000Y-122574260D01*
X141320068Y-122861158D01*
X141432010Y-123131411D01*
X141594525Y-123374632D01*
X141726380Y-123506487D01*
X141653820Y-123528498D01*
X141543506Y-123587463D01*
X141446815Y-123666815D01*
X141367463Y-123763506D01*
X141308498Y-123873820D01*
X141272188Y-123993518D01*
X141259928Y-124118000D01*
X141259928Y-125818000D01*
X141272188Y-125942482D01*
X141308498Y-126062180D01*
X141367463Y-126172494D01*
X141446815Y-126269185D01*
X141533104Y-126340000D01*
X132796950Y-126340000D01*
X132840825Y-126296125D01*
X133025228Y-126020147D01*
X133152246Y-125713496D01*
X133217000Y-125387958D01*
X133217000Y-125056042D01*
X133152246Y-124730504D01*
X133025228Y-124423853D01*
X132840825Y-124147875D01*
X132692992Y-124000042D01*
X134713000Y-124000042D01*
X134713000Y-124331958D01*
X134777754Y-124657496D01*
X134904772Y-124964147D01*
X135089175Y-125240125D01*
X135323875Y-125474825D01*
X135599853Y-125659228D01*
X135906504Y-125786246D01*
X136232042Y-125851000D01*
X136563958Y-125851000D01*
X136889496Y-125786246D01*
X137196147Y-125659228D01*
X137472125Y-125474825D01*
X137706825Y-125240125D01*
X137891228Y-124964147D01*
X138018246Y-124657496D01*
X138083000Y-124331958D01*
X138083000Y-124000042D01*
X138018246Y-123674504D01*
X137891228Y-123367853D01*
X137706825Y-123091875D01*
X137472125Y-122857175D01*
X137196147Y-122672772D01*
X136889496Y-122545754D01*
X136563958Y-122481000D01*
X136232042Y-122481000D01*
X135906504Y-122545754D01*
X135599853Y-122672772D01*
X135323875Y-122857175D01*
X135089175Y-123091875D01*
X134904772Y-123367853D01*
X134777754Y-123674504D01*
X134713000Y-124000042D01*
X132692992Y-124000042D01*
X132606125Y-123913175D01*
X132330147Y-123728772D01*
X132023496Y-123601754D01*
X131697958Y-123537000D01*
X131366042Y-123537000D01*
X131040504Y-123601754D01*
X130733853Y-123728772D01*
X130457875Y-123913175D01*
X130223175Y-124147875D01*
X130038772Y-124423853D01*
X129911754Y-124730504D01*
X129847000Y-125056042D01*
X129847000Y-125387958D01*
X129911754Y-125713496D01*
X129933768Y-125766643D01*
X129863410Y-125837001D01*
X128220072Y-125837001D01*
X128220072Y-124172000D01*
X128207812Y-124047518D01*
X128171502Y-123927820D01*
X128112537Y-123817506D01*
X128033185Y-123720815D01*
X127936494Y-123641463D01*
X127826180Y-123582498D01*
X127706482Y-123546188D01*
X127582000Y-123533928D01*
X125482000Y-123533928D01*
X125357518Y-123546188D01*
X125237820Y-123582498D01*
X125127506Y-123641463D01*
X125030815Y-123720815D01*
X124951463Y-123817506D01*
X124892498Y-123927820D01*
X124856188Y-124047518D01*
X124843928Y-124172000D01*
X124843928Y-125255316D01*
X124763042Y-125230779D01*
X124653589Y-125219999D01*
X124653587Y-125219999D01*
X124616997Y-125216395D01*
X124580407Y-125219999D01*
X113185144Y-125219999D01*
X113148554Y-125216395D01*
X113111964Y-125219999D01*
X113111962Y-125219999D01*
X113002509Y-125230779D01*
X112862076Y-125273379D01*
X112801830Y-125305581D01*
X112732651Y-125342558D01*
X112647633Y-125412330D01*
X112647628Y-125412335D01*
X112619211Y-125435656D01*
X112595889Y-125464074D01*
X112436738Y-125623226D01*
X112355165Y-125607000D01*
X112180835Y-125607000D01*
X112009855Y-125641010D01*
X111848795Y-125707723D01*
X111703845Y-125804576D01*
X111580576Y-125927845D01*
X111483723Y-126072795D01*
X111417010Y-126233855D01*
X111395896Y-126340000D01*
X106282104Y-126340000D01*
X106260990Y-126233855D01*
X106194277Y-126072795D01*
X106097424Y-125927845D01*
X105974155Y-125804576D01*
X105829205Y-125707723D01*
X105668145Y-125641010D01*
X105497165Y-125607000D01*
X105322835Y-125607000D01*
X105151855Y-125641010D01*
X104990795Y-125707723D01*
X104845845Y-125804576D01*
X104722576Y-125927845D01*
X104625723Y-126072795D01*
X104559010Y-126233855D01*
X104537896Y-126340000D01*
X103597610Y-126340000D01*
X103608609Y-126329001D01*
X103493068Y-126213460D01*
X103762579Y-126111661D01*
X103908463Y-125813523D01*
X103993380Y-125492654D01*
X104014066Y-125161383D01*
X103969728Y-124832443D01*
X103862069Y-124518473D01*
X103762579Y-124332339D01*
X103493066Y-124230539D01*
X102501605Y-125222000D01*
X102515748Y-125236143D01*
X102336143Y-125415748D01*
X102322000Y-125401605D01*
X102307858Y-125415748D01*
X102128253Y-125236143D01*
X102142395Y-125222000D01*
X101150934Y-124230539D01*
X100881421Y-124332339D01*
X100735537Y-124630477D01*
X100650620Y-124951346D01*
X100629934Y-125282617D01*
X100674272Y-125611557D01*
X100781931Y-125925527D01*
X100881421Y-126111661D01*
X101150932Y-126213460D01*
X101035391Y-126329001D01*
X101046390Y-126340000D01*
X99003375Y-126340000D01*
X99010072Y-126272000D01*
X99010072Y-124172000D01*
X98998149Y-124050934D01*
X101330539Y-124050934D01*
X102322000Y-125042395D01*
X103313461Y-124050934D01*
X103211661Y-123781421D01*
X102913523Y-123635537D01*
X102592654Y-123550620D01*
X102261383Y-123529934D01*
X101932443Y-123574272D01*
X101618473Y-123681931D01*
X101432339Y-123781421D01*
X101330539Y-124050934D01*
X98998149Y-124050934D01*
X98997812Y-124047518D01*
X98961502Y-123927820D01*
X98902537Y-123817506D01*
X98823185Y-123720815D01*
X98726494Y-123641463D01*
X98616180Y-123582498D01*
X98496482Y-123546188D01*
X98372000Y-123533928D01*
X96272000Y-123533928D01*
X96147518Y-123546188D01*
X96027820Y-123582498D01*
X95917506Y-123641463D01*
X95820815Y-123720815D01*
X95741463Y-123817506D01*
X95682498Y-123927820D01*
X95646188Y-124047518D01*
X95633928Y-124172000D01*
X95633928Y-126272000D01*
X95640625Y-126340000D01*
X79400000Y-126340000D01*
X79400000Y-122828460D01*
X79406691Y-122832036D01*
X79469522Y-122865620D01*
X79609955Y-122908220D01*
X79719408Y-122919000D01*
X79719417Y-122919000D01*
X79739094Y-122920938D01*
X79872525Y-123120632D01*
X80079368Y-123327475D01*
X80253760Y-123444000D01*
X80079368Y-123560525D01*
X79872525Y-123767368D01*
X79710010Y-124010589D01*
X79598068Y-124280842D01*
X79541000Y-124567740D01*
X79541000Y-124860260D01*
X79598068Y-125147158D01*
X79710010Y-125417411D01*
X79872525Y-125660632D01*
X80079368Y-125867475D01*
X80322589Y-126029990D01*
X80592842Y-126141932D01*
X80879740Y-126199000D01*
X81172260Y-126199000D01*
X81459158Y-126141932D01*
X81729411Y-126029990D01*
X81972632Y-125867475D01*
X82179475Y-125660632D01*
X82341990Y-125417411D01*
X82453932Y-125147158D01*
X82511000Y-124860260D01*
X82511000Y-124567740D01*
X82453932Y-124280842D01*
X82341990Y-124010589D01*
X82179475Y-123767368D01*
X81972632Y-123560525D01*
X81798240Y-123444000D01*
X81972632Y-123327475D01*
X82179475Y-123120632D01*
X82341990Y-122877411D01*
X82453932Y-122607158D01*
X82511000Y-122320260D01*
X82511000Y-122027740D01*
X82472231Y-121832835D01*
X84967000Y-121832835D01*
X84967000Y-122007165D01*
X85001010Y-122178145D01*
X85067723Y-122339205D01*
X85164576Y-122484155D01*
X85287845Y-122607424D01*
X85432795Y-122704277D01*
X85593855Y-122770990D01*
X85764835Y-122805000D01*
X85939165Y-122805000D01*
X86110145Y-122770990D01*
X86271205Y-122704277D01*
X86416155Y-122607424D01*
X86539424Y-122484155D01*
X86636277Y-122339205D01*
X86702990Y-122178145D01*
X86737000Y-122007165D01*
X86737000Y-121832835D01*
X86702990Y-121661855D01*
X86636277Y-121500795D01*
X86539424Y-121355845D01*
X86521579Y-121338000D01*
X88227928Y-121338000D01*
X88227928Y-123438000D01*
X88240188Y-123562482D01*
X88276498Y-123682180D01*
X88335463Y-123792494D01*
X88414815Y-123889185D01*
X88511506Y-123968537D01*
X88621820Y-124027502D01*
X88741518Y-124063812D01*
X88866000Y-124076072D01*
X90966000Y-124076072D01*
X91090482Y-124063812D01*
X91210180Y-124027502D01*
X91320494Y-123968537D01*
X91417185Y-123889185D01*
X91496537Y-123792494D01*
X91555502Y-123682180D01*
X91591812Y-123562482D01*
X91604072Y-123438000D01*
X91604072Y-123349448D01*
X109688000Y-123349448D01*
X109688000Y-123538552D01*
X109724892Y-123724022D01*
X109797259Y-123898731D01*
X109902319Y-124055964D01*
X110036036Y-124189681D01*
X110193269Y-124294741D01*
X110367978Y-124367108D01*
X110553448Y-124404000D01*
X110742552Y-124404000D01*
X110928022Y-124367108D01*
X111102731Y-124294741D01*
X111259964Y-124189681D01*
X111393681Y-124055964D01*
X111498741Y-123898731D01*
X111571108Y-123724022D01*
X111608000Y-123538552D01*
X111608000Y-123349448D01*
X111571108Y-123163978D01*
X111498741Y-122989269D01*
X111393681Y-122832036D01*
X111259964Y-122698319D01*
X111102731Y-122593259D01*
X110928022Y-122520892D01*
X110742552Y-122484000D01*
X110553448Y-122484000D01*
X110367978Y-122520892D01*
X110193269Y-122593259D01*
X110036036Y-122698319D01*
X109902319Y-122832036D01*
X109797259Y-122989269D01*
X109724892Y-123163978D01*
X109688000Y-123349448D01*
X91604072Y-123349448D01*
X91604072Y-121338000D01*
X91591812Y-121213518D01*
X91555502Y-121093820D01*
X91496537Y-120983506D01*
X91417185Y-120886815D01*
X91320494Y-120807463D01*
X91210180Y-120748498D01*
X91090482Y-120712188D01*
X90966000Y-120699928D01*
X88866000Y-120699928D01*
X88741518Y-120712188D01*
X88621820Y-120748498D01*
X88511506Y-120807463D01*
X88414815Y-120886815D01*
X88335463Y-120983506D01*
X88276498Y-121093820D01*
X88240188Y-121213518D01*
X88227928Y-121338000D01*
X86521579Y-121338000D01*
X86416155Y-121232576D01*
X86271205Y-121135723D01*
X86110145Y-121069010D01*
X85939165Y-121035000D01*
X85764835Y-121035000D01*
X85593855Y-121069010D01*
X85432795Y-121135723D01*
X85287845Y-121232576D01*
X85164576Y-121355845D01*
X85067723Y-121500795D01*
X85001010Y-121661855D01*
X84967000Y-121832835D01*
X82472231Y-121832835D01*
X82453932Y-121740842D01*
X82341990Y-121470589D01*
X82179475Y-121227368D01*
X81972632Y-121020525D01*
X81798240Y-120904000D01*
X81972632Y-120787475D01*
X82179475Y-120580632D01*
X82341990Y-120337411D01*
X82453932Y-120067158D01*
X82511000Y-119780260D01*
X82511000Y-119487740D01*
X82453932Y-119200842D01*
X82341990Y-118930589D01*
X82179475Y-118687368D01*
X82051173Y-118559066D01*
X88924539Y-118559066D01*
X89026339Y-118828579D01*
X89324477Y-118974463D01*
X89645346Y-119059380D01*
X89976617Y-119080066D01*
X90305557Y-119035728D01*
X90619527Y-118928069D01*
X90805661Y-118828579D01*
X90907461Y-118559066D01*
X89916000Y-117567605D01*
X88924539Y-118559066D01*
X82051173Y-118559066D01*
X81972632Y-118480525D01*
X81798240Y-118364000D01*
X81972632Y-118247475D01*
X82179475Y-118040632D01*
X82341990Y-117797411D01*
X82453932Y-117527158D01*
X82469554Y-117448617D01*
X88223934Y-117448617D01*
X88268272Y-117777557D01*
X88375931Y-118091527D01*
X88475421Y-118277661D01*
X88744934Y-118379461D01*
X89736395Y-117388000D01*
X90095605Y-117388000D01*
X91087066Y-118379461D01*
X91356579Y-118277661D01*
X91502463Y-117979523D01*
X91587380Y-117658654D01*
X91608066Y-117327383D01*
X91563728Y-116998443D01*
X91456069Y-116684473D01*
X91356579Y-116498339D01*
X91087066Y-116396539D01*
X90095605Y-117388000D01*
X89736395Y-117388000D01*
X88744934Y-116396539D01*
X88475421Y-116498339D01*
X88329537Y-116796477D01*
X88244620Y-117117346D01*
X88223934Y-117448617D01*
X82469554Y-117448617D01*
X82511000Y-117240260D01*
X82511000Y-116947740D01*
X82453932Y-116660842D01*
X82341990Y-116390589D01*
X82225958Y-116216934D01*
X88924539Y-116216934D01*
X89916000Y-117208395D01*
X90907461Y-116216934D01*
X90805661Y-115947421D01*
X90507523Y-115801537D01*
X90186654Y-115716620D01*
X89855383Y-115695934D01*
X89526443Y-115740272D01*
X89212473Y-115847931D01*
X89026339Y-115947421D01*
X88924539Y-116216934D01*
X82225958Y-116216934D01*
X82179475Y-116147368D01*
X81972632Y-115940525D01*
X81798240Y-115824000D01*
X81972632Y-115707475D01*
X82179475Y-115500632D01*
X82341990Y-115257411D01*
X82453932Y-114987158D01*
X82511000Y-114700260D01*
X82511000Y-114466835D01*
X84205000Y-114466835D01*
X84205000Y-114641165D01*
X84239010Y-114812145D01*
X84305723Y-114973205D01*
X84402576Y-115118155D01*
X84525845Y-115241424D01*
X84670795Y-115338277D01*
X84831855Y-115404990D01*
X85002835Y-115439000D01*
X85177165Y-115439000D01*
X85348145Y-115404990D01*
X85509205Y-115338277D01*
X85654155Y-115241424D01*
X85777424Y-115118155D01*
X85874277Y-114973205D01*
X85940990Y-114812145D01*
X85975000Y-114641165D01*
X85975000Y-114466835D01*
X85940990Y-114295855D01*
X85874277Y-114134795D01*
X85777424Y-113989845D01*
X85654155Y-113866576D01*
X85509205Y-113769723D01*
X85348145Y-113703010D01*
X85177165Y-113669000D01*
X85002835Y-113669000D01*
X84831855Y-113703010D01*
X84670795Y-113769723D01*
X84525845Y-113866576D01*
X84402576Y-113989845D01*
X84305723Y-114134795D01*
X84239010Y-114295855D01*
X84205000Y-114466835D01*
X82511000Y-114466835D01*
X82511000Y-114407740D01*
X82453932Y-114120842D01*
X82341990Y-113850589D01*
X82179475Y-113607368D01*
X81972632Y-113400525D01*
X81798240Y-113284000D01*
X81972632Y-113167475D01*
X82022715Y-113117392D01*
X90221557Y-113117392D01*
X90221557Y-113291722D01*
X90255567Y-113462702D01*
X90322280Y-113623762D01*
X90419133Y-113768712D01*
X90542402Y-113891981D01*
X90687352Y-113988834D01*
X90848412Y-114055547D01*
X91019392Y-114089557D01*
X91193722Y-114089557D01*
X91364702Y-114055547D01*
X91525762Y-113988834D01*
X91670712Y-113891981D01*
X91793981Y-113768712D01*
X91890834Y-113623762D01*
X91957547Y-113462702D01*
X91991557Y-113291722D01*
X91991557Y-113117392D01*
X91957547Y-112946412D01*
X91890834Y-112785352D01*
X91793981Y-112640402D01*
X91670712Y-112517133D01*
X91525762Y-112420280D01*
X91364702Y-112353567D01*
X91193722Y-112319557D01*
X91019392Y-112319557D01*
X90848412Y-112353567D01*
X90687352Y-112420280D01*
X90542402Y-112517133D01*
X90419133Y-112640402D01*
X90322280Y-112785352D01*
X90255567Y-112946412D01*
X90221557Y-113117392D01*
X82022715Y-113117392D01*
X82179475Y-112960632D01*
X82341990Y-112717411D01*
X82453932Y-112447158D01*
X82511000Y-112160260D01*
X82511000Y-111867740D01*
X82453932Y-111580842D01*
X82341990Y-111310589D01*
X82179475Y-111067368D01*
X81972632Y-110860525D01*
X81798240Y-110744000D01*
X81972632Y-110627475D01*
X82179475Y-110420632D01*
X82341990Y-110177411D01*
X82453932Y-109907158D01*
X82511000Y-109620260D01*
X82511000Y-109327740D01*
X82453932Y-109040842D01*
X82341990Y-108770589D01*
X82179475Y-108527368D01*
X81972632Y-108320525D01*
X81798240Y-108204000D01*
X81972632Y-108087475D01*
X82179475Y-107880632D01*
X82341990Y-107637411D01*
X82453932Y-107367158D01*
X82511000Y-107080260D01*
X82511000Y-106787740D01*
X82453932Y-106500842D01*
X82341990Y-106230589D01*
X82179475Y-105987368D01*
X81972632Y-105780525D01*
X81790466Y-105658805D01*
X81907355Y-105589178D01*
X82123588Y-105394269D01*
X82297641Y-105160920D01*
X82422825Y-104898099D01*
X82467476Y-104750890D01*
X82346155Y-104521000D01*
X81153000Y-104521000D01*
X81153000Y-104541000D01*
X80899000Y-104541000D01*
X80899000Y-104521000D01*
X80879000Y-104521000D01*
X80879000Y-104267000D01*
X80899000Y-104267000D01*
X80899000Y-104247000D01*
X81153000Y-104247000D01*
X81153000Y-104267000D01*
X82346155Y-104267000D01*
X82467476Y-104037110D01*
X82422825Y-103889901D01*
X82297641Y-103627080D01*
X82123588Y-103393731D01*
X81907355Y-103198822D01*
X81790466Y-103129195D01*
X81972632Y-103007475D01*
X82179475Y-102800632D01*
X82341990Y-102557411D01*
X82453932Y-102287158D01*
X82511000Y-102000260D01*
X82511000Y-101852589D01*
X83775331Y-103116920D01*
X83798657Y-103145343D01*
X83827079Y-103168668D01*
X83912097Y-103238441D01*
X83971226Y-103270046D01*
X84041522Y-103307620D01*
X84181955Y-103350220D01*
X84291408Y-103361000D01*
X84291417Y-103361000D01*
X84327999Y-103364603D01*
X84364581Y-103361000D01*
X91776013Y-103361000D01*
X91834795Y-103400277D01*
X91995855Y-103466990D01*
X92166835Y-103501000D01*
X92341165Y-103501000D01*
X92512145Y-103466990D01*
X92673205Y-103400277D01*
X92818155Y-103303424D01*
X92941424Y-103180155D01*
X93038277Y-103035205D01*
X93104990Y-102874145D01*
X93139000Y-102703165D01*
X93139000Y-102599000D01*
X94264013Y-102599000D01*
X94322795Y-102638277D01*
X94483855Y-102704990D01*
X94654835Y-102739000D01*
X94829165Y-102739000D01*
X95000145Y-102704990D01*
X95161205Y-102638277D01*
X95306155Y-102541424D01*
X95429424Y-102418155D01*
X95526277Y-102273205D01*
X95547145Y-102222825D01*
X96843322Y-103519002D01*
X89123987Y-103519002D01*
X89065205Y-103479725D01*
X88904145Y-103413012D01*
X88733165Y-103379002D01*
X88558835Y-103379002D01*
X88387855Y-103413012D01*
X88226795Y-103479725D01*
X88081845Y-103576578D01*
X87958576Y-103699847D01*
X87861723Y-103844797D01*
X87795010Y-104005857D01*
X87761000Y-104176837D01*
X87761000Y-104351167D01*
X87795010Y-104522147D01*
X87861723Y-104683207D01*
X87958576Y-104828157D01*
X88081845Y-104951426D01*
X88226795Y-105048279D01*
X88387855Y-105114992D01*
X88558835Y-105149002D01*
X88733165Y-105149002D01*
X88904145Y-105114992D01*
X89065205Y-105048279D01*
X89123987Y-105009002D01*
X90940320Y-105009002D01*
X90909723Y-105054794D01*
X90843010Y-105215854D01*
X90809000Y-105386834D01*
X90809000Y-105561164D01*
X90823392Y-105633516D01*
X90682145Y-105575010D01*
X90511165Y-105541000D01*
X90336835Y-105541000D01*
X90165855Y-105575010D01*
X90004795Y-105641723D01*
X89859845Y-105738576D01*
X89736576Y-105861845D01*
X89639723Y-106006795D01*
X89573010Y-106167855D01*
X89539000Y-106338835D01*
X89539000Y-106513165D01*
X89573010Y-106684145D01*
X89639723Y-106845205D01*
X89736576Y-106990155D01*
X89859845Y-107113424D01*
X90004795Y-107210277D01*
X90165855Y-107276990D01*
X90235193Y-107290782D01*
X94951336Y-112006926D01*
X94974657Y-112035343D01*
X95003074Y-112058664D01*
X95003079Y-112058669D01*
X95088097Y-112128441D01*
X95119199Y-112145065D01*
X95217522Y-112197620D01*
X95357955Y-112240220D01*
X95467408Y-112251000D01*
X95467410Y-112251000D01*
X95504000Y-112254604D01*
X95540590Y-112251000D01*
X108823330Y-112251000D01*
X108774815Y-112290815D01*
X108695463Y-112387506D01*
X108636498Y-112497820D01*
X108600188Y-112617518D01*
X108587928Y-112742000D01*
X108587928Y-114842000D01*
X108600188Y-114966482D01*
X108636498Y-115086180D01*
X108695463Y-115196494D01*
X108774815Y-115293185D01*
X108871506Y-115372537D01*
X108950946Y-115414999D01*
X100941812Y-115414999D01*
X100836825Y-115257875D01*
X100602125Y-115023175D01*
X100326147Y-114838772D01*
X100019496Y-114711754D01*
X99693958Y-114647000D01*
X99362042Y-114647000D01*
X99036504Y-114711754D01*
X98729853Y-114838772D01*
X98453875Y-115023175D01*
X98219175Y-115257875D01*
X98034772Y-115533853D01*
X97959433Y-115715739D01*
X97951902Y-115709559D01*
X97822478Y-115640380D01*
X97682045Y-115597780D01*
X97572592Y-115587000D01*
X97572590Y-115587000D01*
X97536000Y-115583396D01*
X97499410Y-115587000D01*
X96216072Y-115587000D01*
X96216072Y-115282000D01*
X96203812Y-115157518D01*
X96167502Y-115037820D01*
X96108537Y-114927506D01*
X96029185Y-114830815D01*
X95932494Y-114751463D01*
X95822180Y-114692498D01*
X95702482Y-114656188D01*
X95578000Y-114643928D01*
X93478000Y-114643928D01*
X93353518Y-114656188D01*
X93233820Y-114692498D01*
X93123506Y-114751463D01*
X93026815Y-114830815D01*
X92947463Y-114927506D01*
X92888498Y-115037820D01*
X92852188Y-115157518D01*
X92839928Y-115282000D01*
X92839928Y-117382000D01*
X92852188Y-117506482D01*
X92888498Y-117626180D01*
X92947463Y-117736494D01*
X93026815Y-117833185D01*
X93123506Y-117912537D01*
X93233820Y-117971502D01*
X93353518Y-118007812D01*
X93478000Y-118020072D01*
X95578000Y-118020072D01*
X95702482Y-118007812D01*
X95822180Y-117971502D01*
X95932494Y-117912537D01*
X96029185Y-117833185D01*
X96108537Y-117736494D01*
X96167502Y-117626180D01*
X96203812Y-117506482D01*
X96216072Y-117382000D01*
X96216072Y-117077000D01*
X97227411Y-117077000D01*
X100031336Y-119880925D01*
X100054657Y-119909343D01*
X100083074Y-119932664D01*
X100083079Y-119932669D01*
X100168097Y-120002441D01*
X100227627Y-120034260D01*
X100297522Y-120071620D01*
X100437955Y-120114220D01*
X100547408Y-120125000D01*
X100547410Y-120125000D01*
X100584000Y-120128604D01*
X100620590Y-120125000D01*
X113568013Y-120125000D01*
X113626795Y-120164277D01*
X113787855Y-120230990D01*
X113958835Y-120265000D01*
X114133165Y-120265000D01*
X114304145Y-120230990D01*
X114465205Y-120164277D01*
X114610155Y-120067424D01*
X114612053Y-120065527D01*
X115376765Y-120830239D01*
X115384475Y-120869000D01*
X114566209Y-120869000D01*
X114512277Y-120738795D01*
X114415424Y-120593845D01*
X114292155Y-120470576D01*
X114147205Y-120373723D01*
X113986145Y-120307010D01*
X113815165Y-120273000D01*
X113640835Y-120273000D01*
X113469855Y-120307010D01*
X113308795Y-120373723D01*
X113163845Y-120470576D01*
X113040576Y-120593845D01*
X112943723Y-120738795D01*
X112877010Y-120899855D01*
X112843000Y-121070835D01*
X112843000Y-121245165D01*
X112877010Y-121416145D01*
X112943723Y-121577205D01*
X113003054Y-121666000D01*
X112943723Y-121754795D01*
X112877010Y-121915855D01*
X112843000Y-122086835D01*
X112843000Y-122261165D01*
X112877010Y-122432145D01*
X112943723Y-122593205D01*
X113040576Y-122738155D01*
X113163845Y-122861424D01*
X113308795Y-122958277D01*
X113469855Y-123024990D01*
X113640835Y-123059000D01*
X113815165Y-123059000D01*
X113986145Y-123024990D01*
X114147205Y-122958277D01*
X114205987Y-122919000D01*
X115624211Y-122919000D01*
X115577259Y-122989269D01*
X115504892Y-123163978D01*
X115468000Y-123349448D01*
X115468000Y-123538552D01*
X115504892Y-123724022D01*
X115577259Y-123898731D01*
X115682319Y-124055964D01*
X115816036Y-124189681D01*
X115973269Y-124294741D01*
X116147978Y-124367108D01*
X116333448Y-124404000D01*
X116522552Y-124404000D01*
X116708022Y-124367108D01*
X116882731Y-124294741D01*
X117039964Y-124189681D01*
X117173681Y-124055964D01*
X117278741Y-123898731D01*
X117351108Y-123724022D01*
X117388000Y-123538552D01*
X117388000Y-123349448D01*
X117351108Y-123163978D01*
X117278741Y-122989269D01*
X117231789Y-122919000D01*
X122431410Y-122919000D01*
X122468000Y-122922604D01*
X122504590Y-122919000D01*
X122504592Y-122919000D01*
X122614045Y-122908220D01*
X122754478Y-122865620D01*
X122883902Y-122796441D01*
X122997343Y-122703343D01*
X123020669Y-122674920D01*
X125897518Y-119798072D01*
X127582000Y-119798072D01*
X127706482Y-119785812D01*
X127826180Y-119749502D01*
X127936494Y-119690537D01*
X128033185Y-119611185D01*
X128112537Y-119514494D01*
X128171502Y-119404180D01*
X128207812Y-119284482D01*
X128220072Y-119160000D01*
X128220072Y-117864463D01*
X131252529Y-120896920D01*
X131275855Y-120925343D01*
X131304277Y-120948668D01*
X131389295Y-121018441D01*
X131432389Y-121041475D01*
X131518720Y-121087620D01*
X131659153Y-121130220D01*
X131768606Y-121141000D01*
X131768615Y-121141000D01*
X131805197Y-121144603D01*
X131841780Y-121141000D01*
X135131410Y-121141000D01*
X135168000Y-121144604D01*
X135204590Y-121141000D01*
X135204592Y-121141000D01*
X135314045Y-121130220D01*
X135454478Y-121087620D01*
X135583902Y-121018441D01*
X135697343Y-120925343D01*
X135720669Y-120896920D01*
X135763517Y-120854072D01*
X137448000Y-120854072D01*
X137572482Y-120841812D01*
X137692180Y-120805502D01*
X137802494Y-120746537D01*
X137899185Y-120667185D01*
X137978537Y-120570494D01*
X138037502Y-120460180D01*
X138073812Y-120340482D01*
X138086072Y-120216000D01*
X138086072Y-118116000D01*
X138073812Y-117991518D01*
X138037502Y-117871820D01*
X137978537Y-117761506D01*
X137899185Y-117664815D01*
X137802494Y-117585463D01*
X137692180Y-117526498D01*
X137572482Y-117490188D01*
X137448000Y-117477928D01*
X135348000Y-117477928D01*
X135223518Y-117490188D01*
X135103820Y-117526498D01*
X134993506Y-117585463D01*
X134896815Y-117664815D01*
X134817463Y-117761506D01*
X134758498Y-117871820D01*
X134722188Y-117991518D01*
X134709928Y-118116000D01*
X134709928Y-119651000D01*
X132214814Y-119651000D01*
X132330147Y-119603228D01*
X132606125Y-119418825D01*
X132840825Y-119184125D01*
X133025228Y-118908147D01*
X133152246Y-118601496D01*
X133217000Y-118275958D01*
X133217000Y-117944042D01*
X133152246Y-117618504D01*
X133025228Y-117311853D01*
X132840825Y-117035875D01*
X132606125Y-116801175D01*
X132330147Y-116616772D01*
X132023496Y-116489754D01*
X131697958Y-116425000D01*
X131366042Y-116425000D01*
X131040504Y-116489754D01*
X130733853Y-116616772D01*
X130457875Y-116801175D01*
X130223175Y-117035875D01*
X130038772Y-117311853D01*
X129961410Y-117498623D01*
X127085864Y-114623077D01*
X127062538Y-114594654D01*
X126949097Y-114501556D01*
X126819673Y-114432377D01*
X126679240Y-114389777D01*
X126569787Y-114378997D01*
X126569785Y-114378997D01*
X126533195Y-114375393D01*
X126496605Y-114378997D01*
X119857987Y-114378997D01*
X119799205Y-114339720D01*
X119638145Y-114273007D01*
X119467165Y-114238997D01*
X119292835Y-114238997D01*
X119121855Y-114273007D01*
X118960795Y-114339720D01*
X118815845Y-114436573D01*
X118692576Y-114559842D01*
X118595723Y-114704792D01*
X118529010Y-114865852D01*
X118495000Y-115036832D01*
X118495000Y-115211162D01*
X118529010Y-115382142D01*
X118567058Y-115473998D01*
X118529010Y-115565855D01*
X118495000Y-115736835D01*
X118495000Y-115911165D01*
X118529010Y-116082145D01*
X118595723Y-116243205D01*
X118635000Y-116301987D01*
X118635001Y-117057400D01*
X118631396Y-117094000D01*
X118645781Y-117240045D01*
X118688381Y-117380478D01*
X118757559Y-117509902D01*
X118827331Y-117594920D01*
X118827337Y-117594926D01*
X118850658Y-117623343D01*
X118879075Y-117646664D01*
X121336851Y-120104440D01*
X121323010Y-120137855D01*
X121289000Y-120308835D01*
X121289000Y-120483165D01*
X121323010Y-120654145D01*
X121389723Y-120815205D01*
X121425668Y-120869000D01*
X117098619Y-120869000D01*
X117126547Y-120728597D01*
X117126547Y-120554267D01*
X117092537Y-120383287D01*
X117025824Y-120222227D01*
X116928971Y-120077277D01*
X116805702Y-119954008D01*
X116660752Y-119857155D01*
X116499692Y-119790442D01*
X116430354Y-119776650D01*
X112312783Y-115659079D01*
X112289457Y-115630656D01*
X112176016Y-115537558D01*
X112046592Y-115468379D01*
X111906159Y-115425779D01*
X111796706Y-115414999D01*
X111796704Y-115414999D01*
X111760114Y-115411395D01*
X111723524Y-115414999D01*
X111601054Y-115414999D01*
X111680494Y-115372537D01*
X111777185Y-115293185D01*
X111856537Y-115196494D01*
X111915502Y-115086180D01*
X111951812Y-114966482D01*
X111964072Y-114842000D01*
X111964072Y-112742000D01*
X111951812Y-112617518D01*
X111915502Y-112497820D01*
X111856537Y-112387506D01*
X111777185Y-112290815D01*
X111728670Y-112251000D01*
X114593186Y-112251000D01*
X114477853Y-112298772D01*
X114201875Y-112483175D01*
X113967175Y-112717875D01*
X113782772Y-112993853D01*
X113655754Y-113300504D01*
X113591000Y-113626042D01*
X113591000Y-113957958D01*
X113655754Y-114283496D01*
X113782772Y-114590147D01*
X113967175Y-114866125D01*
X114201875Y-115100825D01*
X114477853Y-115285228D01*
X114784504Y-115412246D01*
X115110042Y-115477000D01*
X115441958Y-115477000D01*
X115767496Y-115412246D01*
X116074147Y-115285228D01*
X116350125Y-115100825D01*
X116584825Y-114866125D01*
X116769228Y-114590147D01*
X116896246Y-114283496D01*
X116961000Y-113957958D01*
X116961000Y-113626042D01*
X116910476Y-113372042D01*
X128697000Y-113372042D01*
X128697000Y-113703958D01*
X128761754Y-114029496D01*
X128888772Y-114336147D01*
X129073175Y-114612125D01*
X129307875Y-114846825D01*
X129583853Y-115031228D01*
X129890504Y-115158246D01*
X130216042Y-115223000D01*
X130547958Y-115223000D01*
X130873496Y-115158246D01*
X131180147Y-115031228D01*
X131456125Y-114846825D01*
X131690825Y-114612125D01*
X131875228Y-114336147D01*
X132002246Y-114029496D01*
X132067000Y-113703958D01*
X132067000Y-113372042D01*
X132002246Y-113046504D01*
X131875228Y-112739853D01*
X131690825Y-112463875D01*
X131456125Y-112229175D01*
X131180147Y-112044772D01*
X130873496Y-111917754D01*
X130547958Y-111853000D01*
X130216042Y-111853000D01*
X129890504Y-111917754D01*
X129583853Y-112044772D01*
X129307875Y-112229175D01*
X129073175Y-112463875D01*
X128888772Y-112739853D01*
X128761754Y-113046504D01*
X128697000Y-113372042D01*
X116910476Y-113372042D01*
X116896246Y-113300504D01*
X116769228Y-112993853D01*
X116584825Y-112717875D01*
X116350125Y-112483175D01*
X116074147Y-112298772D01*
X115958814Y-112251000D01*
X117124013Y-112251000D01*
X117182795Y-112290277D01*
X117343855Y-112356990D01*
X117514835Y-112391000D01*
X117689165Y-112391000D01*
X117860145Y-112356990D01*
X118021205Y-112290277D01*
X118166155Y-112193424D01*
X118289424Y-112070155D01*
X118386277Y-111925205D01*
X118452990Y-111764145D01*
X118487000Y-111593165D01*
X118487000Y-111418835D01*
X118452990Y-111247855D01*
X118386277Y-111086795D01*
X118289424Y-110941845D01*
X118166155Y-110818576D01*
X118021205Y-110721723D01*
X117860145Y-110655010D01*
X117689165Y-110621000D01*
X117514835Y-110621000D01*
X117343855Y-110655010D01*
X117182795Y-110721723D01*
X117124013Y-110761000D01*
X95812590Y-110761000D01*
X93409725Y-108358135D01*
X109414500Y-108358135D01*
X109414500Y-108532465D01*
X109448510Y-108703445D01*
X109515223Y-108864505D01*
X109612076Y-109009455D01*
X109735345Y-109132724D01*
X109880295Y-109229577D01*
X110041355Y-109296290D01*
X110212335Y-109330300D01*
X110386665Y-109330300D01*
X110557645Y-109296290D01*
X110718705Y-109229577D01*
X110863655Y-109132724D01*
X110986924Y-109009455D01*
X111083777Y-108864505D01*
X111150490Y-108703445D01*
X111184500Y-108532465D01*
X111184500Y-108358135D01*
X111319500Y-108358135D01*
X111319500Y-108532465D01*
X111353510Y-108703445D01*
X111420223Y-108864505D01*
X111517076Y-109009455D01*
X111640345Y-109132724D01*
X111785295Y-109229577D01*
X111946355Y-109296290D01*
X112117335Y-109330300D01*
X112291665Y-109330300D01*
X112462645Y-109296290D01*
X112623705Y-109229577D01*
X112768655Y-109132724D01*
X112891924Y-109009455D01*
X112988777Y-108864505D01*
X113055490Y-108703445D01*
X113089500Y-108532465D01*
X113089500Y-108358135D01*
X113055490Y-108187155D01*
X112988777Y-108026095D01*
X112891924Y-107881145D01*
X112768655Y-107757876D01*
X112623705Y-107661023D01*
X112462645Y-107594310D01*
X112291665Y-107560300D01*
X112117335Y-107560300D01*
X111946355Y-107594310D01*
X111785295Y-107661023D01*
X111640345Y-107757876D01*
X111517076Y-107881145D01*
X111420223Y-108026095D01*
X111353510Y-108187155D01*
X111319500Y-108358135D01*
X111184500Y-108358135D01*
X111150490Y-108187155D01*
X111083777Y-108026095D01*
X110986924Y-107881145D01*
X110863655Y-107757876D01*
X110718705Y-107661023D01*
X110557645Y-107594310D01*
X110386665Y-107560300D01*
X110212335Y-107560300D01*
X110041355Y-107594310D01*
X109880295Y-107661023D01*
X109735345Y-107757876D01*
X109612076Y-107881145D01*
X109515223Y-108026095D01*
X109448510Y-108187155D01*
X109414500Y-108358135D01*
X93409725Y-108358135D01*
X91334663Y-106283074D01*
X91435855Y-106324989D01*
X91606835Y-106358999D01*
X91781165Y-106358999D01*
X91952145Y-106324989D01*
X92113205Y-106258276D01*
X92241075Y-106172835D01*
X100207000Y-106172835D01*
X100207000Y-106347165D01*
X100241010Y-106518145D01*
X100307723Y-106679205D01*
X100404576Y-106824155D01*
X100527845Y-106947424D01*
X100672795Y-107044277D01*
X100833855Y-107110990D01*
X101004835Y-107145000D01*
X101179165Y-107145000D01*
X101350145Y-107110990D01*
X101374661Y-107100835D01*
X121231000Y-107100835D01*
X121231000Y-107275165D01*
X121265010Y-107446145D01*
X121331723Y-107607205D01*
X121428576Y-107752155D01*
X121551845Y-107875424D01*
X121696795Y-107972277D01*
X121857855Y-108038990D01*
X122028835Y-108073000D01*
X122203165Y-108073000D01*
X122374145Y-108038990D01*
X122535205Y-107972277D01*
X122680155Y-107875424D01*
X122803424Y-107752155D01*
X122900277Y-107607205D01*
X122966990Y-107446145D01*
X123001000Y-107275165D01*
X123001000Y-107100835D01*
X122966990Y-106929855D01*
X122900277Y-106768795D01*
X122803424Y-106623845D01*
X122680155Y-106500576D01*
X122535205Y-106403723D01*
X122374145Y-106337010D01*
X122203165Y-106303000D01*
X122028835Y-106303000D01*
X121857855Y-106337010D01*
X121696795Y-106403723D01*
X121551845Y-106500576D01*
X121428576Y-106623845D01*
X121331723Y-106768795D01*
X121265010Y-106929855D01*
X121231000Y-107100835D01*
X101374661Y-107100835D01*
X101511205Y-107044277D01*
X101656155Y-106947424D01*
X101779424Y-106824155D01*
X101876277Y-106679205D01*
X101942990Y-106518145D01*
X101977000Y-106347165D01*
X101977000Y-106172835D01*
X101942990Y-106001855D01*
X101876277Y-105840795D01*
X101779424Y-105695845D01*
X101656155Y-105572576D01*
X101511205Y-105475723D01*
X101350145Y-105409010D01*
X101179165Y-105375000D01*
X101004835Y-105375000D01*
X100833855Y-105409010D01*
X100672795Y-105475723D01*
X100527845Y-105572576D01*
X100404576Y-105695845D01*
X100307723Y-105840795D01*
X100241010Y-106001855D01*
X100207000Y-106172835D01*
X92241075Y-106172835D01*
X92258155Y-106161423D01*
X92381424Y-106038154D01*
X92478277Y-105893204D01*
X92544990Y-105732144D01*
X92579000Y-105561164D01*
X92579000Y-105386834D01*
X92544990Y-105215854D01*
X92478277Y-105054794D01*
X92447680Y-105009002D01*
X97504520Y-105009002D01*
X97898438Y-105402920D01*
X97921764Y-105431343D01*
X97950186Y-105454668D01*
X98035204Y-105524441D01*
X98077282Y-105546932D01*
X98164629Y-105593620D01*
X98305062Y-105636220D01*
X98313058Y-105637008D01*
X98386795Y-105686277D01*
X98547855Y-105752990D01*
X98718835Y-105787000D01*
X98893165Y-105787000D01*
X99064145Y-105752990D01*
X99225205Y-105686277D01*
X99370155Y-105589424D01*
X99493424Y-105466155D01*
X99590277Y-105321205D01*
X99656990Y-105160145D01*
X99685055Y-105019055D01*
X99826145Y-104990990D01*
X99987205Y-104924277D01*
X100132155Y-104827424D01*
X100255424Y-104704155D01*
X100352277Y-104559205D01*
X100418990Y-104398145D01*
X100453000Y-104227165D01*
X100453000Y-104052835D01*
X100418990Y-103881855D01*
X100352277Y-103720795D01*
X100313000Y-103662013D01*
X100313000Y-103043103D01*
X100404576Y-103180155D01*
X100527845Y-103303424D01*
X100672795Y-103400277D01*
X100833855Y-103466990D01*
X101004835Y-103501000D01*
X101179165Y-103501000D01*
X101350145Y-103466990D01*
X101511205Y-103400277D01*
X101656155Y-103303424D01*
X101779424Y-103180155D01*
X101876277Y-103035205D01*
X101942990Y-102874145D01*
X101977000Y-102703165D01*
X101977000Y-102528835D01*
X101942990Y-102357855D01*
X101876277Y-102196795D01*
X101779424Y-102051845D01*
X101656155Y-101928576D01*
X101511205Y-101831723D01*
X101350145Y-101765010D01*
X101179165Y-101731000D01*
X101004835Y-101731000D01*
X100833855Y-101765010D01*
X100672795Y-101831723D01*
X100527845Y-101928576D01*
X100404576Y-102051845D01*
X100307723Y-102196795D01*
X100262913Y-102304975D01*
X100259620Y-102294118D01*
X100259620Y-102294117D01*
X100190441Y-102164693D01*
X100120669Y-102079676D01*
X100097343Y-102051253D01*
X100068920Y-102027927D01*
X99730691Y-101689698D01*
X99716899Y-101620360D01*
X99650186Y-101459300D01*
X99594572Y-101376068D01*
X100694667Y-100275973D01*
X100694672Y-100275967D01*
X101788807Y-99181832D01*
X101858145Y-99168040D01*
X102019205Y-99101327D01*
X102164155Y-99004474D01*
X102287424Y-98881205D01*
X102384277Y-98736255D01*
X102450990Y-98575195D01*
X102465836Y-98500557D01*
X104389570Y-98500557D01*
X104448352Y-98539834D01*
X104609412Y-98606547D01*
X104780392Y-98640557D01*
X104954722Y-98640557D01*
X105125702Y-98606547D01*
X105286762Y-98539834D01*
X105431712Y-98442981D01*
X105554981Y-98319712D01*
X105651834Y-98174762D01*
X105718547Y-98013702D01*
X105752557Y-97842722D01*
X105752557Y-97668392D01*
X105718547Y-97497412D01*
X105651834Y-97336352D01*
X105621231Y-97290552D01*
X105686277Y-97193205D01*
X105752990Y-97032145D01*
X105787000Y-96861165D01*
X105787000Y-96686835D01*
X105752990Y-96515855D01*
X105686277Y-96354795D01*
X105589424Y-96209845D01*
X105466155Y-96086576D01*
X105321205Y-95989723D01*
X105160145Y-95923010D01*
X104989165Y-95889000D01*
X104814835Y-95889000D01*
X104643855Y-95923010D01*
X104482795Y-95989723D01*
X104424013Y-96029000D01*
X92129589Y-96029000D01*
X93464920Y-94693669D01*
X93493343Y-94670343D01*
X93567405Y-94580098D01*
X93586441Y-94556903D01*
X93655620Y-94427479D01*
X93688471Y-94319182D01*
X93698220Y-94287045D01*
X93709000Y-94177592D01*
X93709000Y-94177590D01*
X93712604Y-94141000D01*
X93709000Y-94104410D01*
X93709000Y-92622835D01*
X97542998Y-92622835D01*
X97542998Y-92797165D01*
X97577008Y-92968145D01*
X97643721Y-93129205D01*
X97740574Y-93274155D01*
X97863843Y-93397424D01*
X98008793Y-93494277D01*
X98169853Y-93560990D01*
X98340833Y-93595000D01*
X98515163Y-93595000D01*
X98686143Y-93560990D01*
X98847203Y-93494277D01*
X98992153Y-93397424D01*
X99115422Y-93274155D01*
X99212275Y-93129205D01*
X99278988Y-92968145D01*
X99312998Y-92797165D01*
X99312998Y-92622835D01*
X99278988Y-92451855D01*
X99212275Y-92290795D01*
X99115422Y-92145845D01*
X98992153Y-92022576D01*
X98847203Y-91925723D01*
X98686143Y-91859010D01*
X98515163Y-91825000D01*
X98340833Y-91825000D01*
X98169853Y-91859010D01*
X98008793Y-91925723D01*
X97863843Y-92022576D01*
X97740574Y-92145845D01*
X97643721Y-92290795D01*
X97577008Y-92451855D01*
X97542998Y-92622835D01*
X93709000Y-92622835D01*
X93709000Y-89073103D01*
X93800576Y-89210155D01*
%TA.AperFunction,Conductor*%
D21*
G36*
X93800576Y-89210155D02*
G01*
X93923845Y-89333424D01*
X94068795Y-89430277D01*
X94229855Y-89496990D01*
X94400835Y-89531000D01*
X94575165Y-89531000D01*
X94746145Y-89496990D01*
X94907205Y-89430277D01*
X94965987Y-89391000D01*
X100716213Y-89391000D01*
X103277913Y-91952700D01*
X103221723Y-92036795D01*
X103155010Y-92197855D01*
X103121000Y-92368835D01*
X103121000Y-92543165D01*
X103155010Y-92714145D01*
X103221723Y-92875205D01*
X103318576Y-93020155D01*
X103441845Y-93143424D01*
X103586795Y-93240277D01*
X103747855Y-93306990D01*
X103918835Y-93341000D01*
X104093165Y-93341000D01*
X104264145Y-93306990D01*
X104425205Y-93240277D01*
X104509300Y-93184087D01*
X107349701Y-96024488D01*
X107319000Y-96178835D01*
X107319000Y-96353165D01*
X107353010Y-96524145D01*
X107419723Y-96685205D01*
X107516576Y-96830155D01*
X107639845Y-96953424D01*
X107784795Y-97050277D01*
X107945855Y-97116990D01*
X108116835Y-97151000D01*
X108291165Y-97151000D01*
X108462145Y-97116990D01*
X108623205Y-97050277D01*
X108768155Y-96953424D01*
X108891424Y-96830155D01*
X108988277Y-96685205D01*
X109019130Y-96610719D01*
X113435218Y-101026807D01*
X113449010Y-101096145D01*
X113477531Y-101165002D01*
X113421080Y-101211330D01*
X113421075Y-101211335D01*
X113392658Y-101234656D01*
X113369336Y-101263074D01*
X113196482Y-101435928D01*
X111512000Y-101435928D01*
X111387518Y-101448188D01*
X111267820Y-101484498D01*
X111157506Y-101543463D01*
X111060815Y-101622815D01*
X110981463Y-101719506D01*
X110922498Y-101829820D01*
X110886188Y-101949518D01*
X110873928Y-102074000D01*
X110873928Y-104174000D01*
X110886188Y-104298482D01*
X110922498Y-104418180D01*
X110981463Y-104528494D01*
X111060815Y-104625185D01*
X111157506Y-104704537D01*
X111267820Y-104763502D01*
X111387518Y-104799812D01*
X111512000Y-104812072D01*
X113612000Y-104812072D01*
X113736482Y-104799812D01*
X113856180Y-104763502D01*
X113966494Y-104704537D01*
X114063185Y-104625185D01*
X114142537Y-104528494D01*
X114201502Y-104418180D01*
X114237812Y-104298482D01*
X114250072Y-104174000D01*
X114250072Y-102508999D01*
X115992911Y-102508999D01*
X115941754Y-102632504D01*
X115877000Y-102958042D01*
X115877000Y-103289958D01*
X115941754Y-103615496D01*
X116068772Y-103922147D01*
X116253175Y-104198125D01*
X116487875Y-104432825D01*
X116763853Y-104617228D01*
X117070504Y-104744246D01*
X117396042Y-104809000D01*
X117727958Y-104809000D01*
X118053496Y-104744246D01*
X118360147Y-104617228D01*
X118636125Y-104432825D01*
X118691950Y-104377000D01*
X122966013Y-104377000D01*
X123024795Y-104416277D01*
X123185855Y-104482990D01*
X123356835Y-104517000D01*
X123531165Y-104517000D01*
X123702145Y-104482990D01*
X123863205Y-104416277D01*
X124008155Y-104319424D01*
X124131424Y-104196155D01*
X124228277Y-104051205D01*
X124294990Y-103890145D01*
X124329000Y-103719165D01*
X124329000Y-103544835D01*
X124294990Y-103373855D01*
X124228277Y-103212795D01*
X124131424Y-103067845D01*
X124008155Y-102944576D01*
X123863205Y-102847723D01*
X123702145Y-102781010D01*
X123531165Y-102747000D01*
X123356835Y-102747000D01*
X123185855Y-102781010D01*
X123024795Y-102847723D01*
X122966013Y-102887000D01*
X119232869Y-102887000D01*
X119182246Y-102632504D01*
X119131089Y-102508999D01*
X125054403Y-102508999D01*
X124963855Y-102527010D01*
X124802795Y-102593723D01*
X124657845Y-102690576D01*
X124534576Y-102813845D01*
X124437723Y-102958795D01*
X124371010Y-103119855D01*
X124337000Y-103290835D01*
X124337000Y-103465165D01*
X124371010Y-103636145D01*
X124437723Y-103797205D01*
X124534576Y-103942155D01*
X124657845Y-104065424D01*
X124802795Y-104162277D01*
X124963855Y-104228990D01*
X125134835Y-104263000D01*
X125309165Y-104263000D01*
X125480145Y-104228990D01*
X125641205Y-104162277D01*
X125786155Y-104065424D01*
X125909424Y-103942155D01*
X126006277Y-103797205D01*
X126072990Y-103636145D01*
X126107000Y-103465165D01*
X126107000Y-103290835D01*
X126072990Y-103119855D01*
X126006277Y-102958795D01*
X125909424Y-102813845D01*
X125786155Y-102690576D01*
X125641205Y-102593723D01*
X125480145Y-102527010D01*
X125389597Y-102508999D01*
X125700182Y-102508999D01*
X125707723Y-102527205D01*
X125804576Y-102672155D01*
X125927845Y-102795424D01*
X126072795Y-102892277D01*
X126233855Y-102958990D01*
X126404835Y-102993000D01*
X126579165Y-102993000D01*
X126750145Y-102958990D01*
X126911205Y-102892277D01*
X127056155Y-102795424D01*
X127179424Y-102672155D01*
X127276277Y-102527205D01*
X127342990Y-102366145D01*
X127377000Y-102195165D01*
X127377000Y-102020835D01*
X127342990Y-101849855D01*
X127276277Y-101688795D01*
X127179424Y-101543845D01*
X127056155Y-101420576D01*
X126911205Y-101323723D01*
X126750145Y-101257010D01*
X126685063Y-101244064D01*
X126677342Y-101234656D01*
X126563901Y-101141558D01*
X126434477Y-101072379D01*
X126294044Y-101029779D01*
X126184591Y-101018999D01*
X126184589Y-101018999D01*
X126147999Y-101015395D01*
X126111409Y-101018999D01*
X115166335Y-101018999D01*
X115185000Y-100925165D01*
X115185000Y-100821000D01*
X120186821Y-100821000D01*
X120223411Y-100824604D01*
X120260001Y-100821000D01*
X120260003Y-100821000D01*
X120369456Y-100810220D01*
X120509889Y-100767620D01*
X120639313Y-100698441D01*
X120752754Y-100605343D01*
X120776080Y-100576920D01*
X121827428Y-99525572D01*
X121896766Y-99511780D01*
X122057826Y-99445067D01*
X122202776Y-99348214D01*
X122326045Y-99224945D01*
X122422898Y-99079995D01*
X122489611Y-98918935D01*
X122523621Y-98747955D01*
X122523621Y-98573625D01*
X122489611Y-98402645D01*
X122422898Y-98241585D01*
X122326045Y-98096635D01*
X122202776Y-97973366D01*
X122057826Y-97876513D01*
X121896766Y-97809800D01*
X121725786Y-97775790D01*
X121721113Y-97775790D01*
X121652366Y-97672903D01*
X121529097Y-97549634D01*
X121427762Y-97481924D01*
X121412790Y-97406656D01*
X121346077Y-97245596D01*
X121249224Y-97100646D01*
X121125955Y-96977377D01*
X120981005Y-96880524D01*
X120819945Y-96813811D01*
X120648965Y-96779801D01*
X120474635Y-96779801D01*
X120303655Y-96813811D01*
X120142595Y-96880524D01*
X119997645Y-96977377D01*
X119874376Y-97100646D01*
X119777523Y-97245596D01*
X119710810Y-97406656D01*
X119697018Y-97475994D01*
X119620011Y-97553001D01*
X118975540Y-97553001D01*
X118960990Y-97479855D01*
X118894277Y-97318795D01*
X118797424Y-97173845D01*
X118674155Y-97050576D01*
X118529205Y-96953723D01*
X118368145Y-96887010D01*
X118298807Y-96873218D01*
X118102668Y-96677079D01*
X118079342Y-96648656D01*
X117965901Y-96555558D01*
X117836477Y-96486379D01*
X117696044Y-96443779D01*
X117586591Y-96432999D01*
X117586589Y-96432999D01*
X117549999Y-96429395D01*
X117513409Y-96432999D01*
X116964590Y-96432999D01*
X118418590Y-94979000D01*
X122133213Y-94979000D01*
X130572001Y-103417788D01*
X130572001Y-103848411D01*
X130568397Y-103885001D01*
X130572001Y-103921591D01*
X130572001Y-103921593D01*
X130582781Y-104031046D01*
X130619063Y-104150647D01*
X130625382Y-104171479D01*
X130694560Y-104300903D01*
X130764332Y-104385921D01*
X130764338Y-104385927D01*
X130787659Y-104414344D01*
X130816076Y-104437665D01*
X131081001Y-104702590D01*
X131081000Y-108234013D01*
X131041723Y-108292795D01*
X130975010Y-108453855D01*
X130941000Y-108624835D01*
X130941000Y-108799165D01*
X130975010Y-108970145D01*
X131041723Y-109131205D01*
X131138576Y-109276155D01*
X131261845Y-109399424D01*
X131406795Y-109496277D01*
X131567855Y-109562990D01*
X131738835Y-109597000D01*
X131786241Y-109597000D01*
X131803723Y-109639205D01*
X131900576Y-109784155D01*
X132023845Y-109907424D01*
X132168795Y-110004277D01*
X132329855Y-110070990D01*
X132500835Y-110105000D01*
X132675165Y-110105000D01*
X132846145Y-110070990D01*
X133007205Y-110004277D01*
X133152155Y-109907424D01*
X133275424Y-109784155D01*
X133372277Y-109639205D01*
X133438990Y-109478145D01*
X133473000Y-109307165D01*
X133473000Y-109132835D01*
X133438990Y-108961855D01*
X133372277Y-108800795D01*
X133275424Y-108655845D01*
X133152155Y-108532576D01*
X133007205Y-108435723D01*
X132846145Y-108369010D01*
X132675165Y-108335000D01*
X132627759Y-108335000D01*
X132610277Y-108292795D01*
X132571000Y-108234013D01*
X132571000Y-105473430D01*
X132631321Y-105546932D01*
X132631327Y-105546938D01*
X132654648Y-105575355D01*
X132683065Y-105598676D01*
X135997001Y-108912612D01*
X135997002Y-111849928D01*
X134332000Y-111849928D01*
X134207518Y-111862188D01*
X134087820Y-111898498D01*
X133977506Y-111957463D01*
X133880815Y-112036815D01*
X133801463Y-112133506D01*
X133742498Y-112243820D01*
X133706188Y-112363518D01*
X133693928Y-112488000D01*
X133693928Y-114588000D01*
X133706188Y-114712482D01*
X133742498Y-114832180D01*
X133801463Y-114942494D01*
X133880815Y-115039185D01*
X133977506Y-115118537D01*
X134087820Y-115177502D01*
X134207518Y-115213812D01*
X134332000Y-115226072D01*
X136432000Y-115226072D01*
X136556482Y-115213812D01*
X136676180Y-115177502D01*
X136786494Y-115118537D01*
X136862539Y-115056128D01*
X141310310Y-119503899D01*
X141263000Y-119741740D01*
X141263000Y-120034260D01*
X141320068Y-120321158D01*
X141432010Y-120591411D01*
X141594525Y-120834632D01*
X141801368Y-121041475D01*
X141975760Y-121158000D01*
X141801368Y-121274525D01*
X141594525Y-121481368D01*
X141432010Y-121724589D01*
X141320068Y-121994842D01*
X141263000Y-122281740D01*
X141263000Y-122574260D01*
X141320068Y-122861158D01*
X141432010Y-123131411D01*
X141594525Y-123374632D01*
X141726380Y-123506487D01*
X141653820Y-123528498D01*
X141543506Y-123587463D01*
X141446815Y-123666815D01*
X141367463Y-123763506D01*
X141308498Y-123873820D01*
X141272188Y-123993518D01*
X141259928Y-124118000D01*
X141259928Y-125818000D01*
X141272188Y-125942482D01*
X141308498Y-126062180D01*
X141367463Y-126172494D01*
X141446815Y-126269185D01*
X141533104Y-126340000D01*
X132796950Y-126340000D01*
X132840825Y-126296125D01*
X133025228Y-126020147D01*
X133152246Y-125713496D01*
X133217000Y-125387958D01*
X133217000Y-125056042D01*
X133152246Y-124730504D01*
X133025228Y-124423853D01*
X132840825Y-124147875D01*
X132692992Y-124000042D01*
X134713000Y-124000042D01*
X134713000Y-124331958D01*
X134777754Y-124657496D01*
X134904772Y-124964147D01*
X135089175Y-125240125D01*
X135323875Y-125474825D01*
X135599853Y-125659228D01*
X135906504Y-125786246D01*
X136232042Y-125851000D01*
X136563958Y-125851000D01*
X136889496Y-125786246D01*
X137196147Y-125659228D01*
X137472125Y-125474825D01*
X137706825Y-125240125D01*
X137891228Y-124964147D01*
X138018246Y-124657496D01*
X138083000Y-124331958D01*
X138083000Y-124000042D01*
X138018246Y-123674504D01*
X137891228Y-123367853D01*
X137706825Y-123091875D01*
X137472125Y-122857175D01*
X137196147Y-122672772D01*
X136889496Y-122545754D01*
X136563958Y-122481000D01*
X136232042Y-122481000D01*
X135906504Y-122545754D01*
X135599853Y-122672772D01*
X135323875Y-122857175D01*
X135089175Y-123091875D01*
X134904772Y-123367853D01*
X134777754Y-123674504D01*
X134713000Y-124000042D01*
X132692992Y-124000042D01*
X132606125Y-123913175D01*
X132330147Y-123728772D01*
X132023496Y-123601754D01*
X131697958Y-123537000D01*
X131366042Y-123537000D01*
X131040504Y-123601754D01*
X130733853Y-123728772D01*
X130457875Y-123913175D01*
X130223175Y-124147875D01*
X130038772Y-124423853D01*
X129911754Y-124730504D01*
X129847000Y-125056042D01*
X129847000Y-125387958D01*
X129911754Y-125713496D01*
X129933768Y-125766643D01*
X129863410Y-125837001D01*
X128220072Y-125837001D01*
X128220072Y-124172000D01*
X128207812Y-124047518D01*
X128171502Y-123927820D01*
X128112537Y-123817506D01*
X128033185Y-123720815D01*
X127936494Y-123641463D01*
X127826180Y-123582498D01*
X127706482Y-123546188D01*
X127582000Y-123533928D01*
X125482000Y-123533928D01*
X125357518Y-123546188D01*
X125237820Y-123582498D01*
X125127506Y-123641463D01*
X125030815Y-123720815D01*
X124951463Y-123817506D01*
X124892498Y-123927820D01*
X124856188Y-124047518D01*
X124843928Y-124172000D01*
X124843928Y-125255316D01*
X124763042Y-125230779D01*
X124653589Y-125219999D01*
X124653587Y-125219999D01*
X124616997Y-125216395D01*
X124580407Y-125219999D01*
X113185144Y-125219999D01*
X113148554Y-125216395D01*
X113111964Y-125219999D01*
X113111962Y-125219999D01*
X113002509Y-125230779D01*
X112862076Y-125273379D01*
X112801830Y-125305581D01*
X112732651Y-125342558D01*
X112647633Y-125412330D01*
X112647628Y-125412335D01*
X112619211Y-125435656D01*
X112595889Y-125464074D01*
X112436738Y-125623226D01*
X112355165Y-125607000D01*
X112180835Y-125607000D01*
X112009855Y-125641010D01*
X111848795Y-125707723D01*
X111703845Y-125804576D01*
X111580576Y-125927845D01*
X111483723Y-126072795D01*
X111417010Y-126233855D01*
X111395896Y-126340000D01*
X106282104Y-126340000D01*
X106260990Y-126233855D01*
X106194277Y-126072795D01*
X106097424Y-125927845D01*
X105974155Y-125804576D01*
X105829205Y-125707723D01*
X105668145Y-125641010D01*
X105497165Y-125607000D01*
X105322835Y-125607000D01*
X105151855Y-125641010D01*
X104990795Y-125707723D01*
X104845845Y-125804576D01*
X104722576Y-125927845D01*
X104625723Y-126072795D01*
X104559010Y-126233855D01*
X104537896Y-126340000D01*
X103597610Y-126340000D01*
X103608609Y-126329001D01*
X103493068Y-126213460D01*
X103762579Y-126111661D01*
X103908463Y-125813523D01*
X103993380Y-125492654D01*
X104014066Y-125161383D01*
X103969728Y-124832443D01*
X103862069Y-124518473D01*
X103762579Y-124332339D01*
X103493066Y-124230539D01*
X102501605Y-125222000D01*
X102515748Y-125236143D01*
X102336143Y-125415748D01*
X102322000Y-125401605D01*
X102307858Y-125415748D01*
X102128253Y-125236143D01*
X102142395Y-125222000D01*
X101150934Y-124230539D01*
X100881421Y-124332339D01*
X100735537Y-124630477D01*
X100650620Y-124951346D01*
X100629934Y-125282617D01*
X100674272Y-125611557D01*
X100781931Y-125925527D01*
X100881421Y-126111661D01*
X101150932Y-126213460D01*
X101035391Y-126329001D01*
X101046390Y-126340000D01*
X99003375Y-126340000D01*
X99010072Y-126272000D01*
X99010072Y-124172000D01*
X98998149Y-124050934D01*
X101330539Y-124050934D01*
X102322000Y-125042395D01*
X103313461Y-124050934D01*
X103211661Y-123781421D01*
X102913523Y-123635537D01*
X102592654Y-123550620D01*
X102261383Y-123529934D01*
X101932443Y-123574272D01*
X101618473Y-123681931D01*
X101432339Y-123781421D01*
X101330539Y-124050934D01*
X98998149Y-124050934D01*
X98997812Y-124047518D01*
X98961502Y-123927820D01*
X98902537Y-123817506D01*
X98823185Y-123720815D01*
X98726494Y-123641463D01*
X98616180Y-123582498D01*
X98496482Y-123546188D01*
X98372000Y-123533928D01*
X96272000Y-123533928D01*
X96147518Y-123546188D01*
X96027820Y-123582498D01*
X95917506Y-123641463D01*
X95820815Y-123720815D01*
X95741463Y-123817506D01*
X95682498Y-123927820D01*
X95646188Y-124047518D01*
X95633928Y-124172000D01*
X95633928Y-126272000D01*
X95640625Y-126340000D01*
X79400000Y-126340000D01*
X79400000Y-122828460D01*
X79406691Y-122832036D01*
X79469522Y-122865620D01*
X79609955Y-122908220D01*
X79719408Y-122919000D01*
X79719417Y-122919000D01*
X79739094Y-122920938D01*
X79872525Y-123120632D01*
X80079368Y-123327475D01*
X80253760Y-123444000D01*
X80079368Y-123560525D01*
X79872525Y-123767368D01*
X79710010Y-124010589D01*
X79598068Y-124280842D01*
X79541000Y-124567740D01*
X79541000Y-124860260D01*
X79598068Y-125147158D01*
X79710010Y-125417411D01*
X79872525Y-125660632D01*
X80079368Y-125867475D01*
X80322589Y-126029990D01*
X80592842Y-126141932D01*
X80879740Y-126199000D01*
X81172260Y-126199000D01*
X81459158Y-126141932D01*
X81729411Y-126029990D01*
X81972632Y-125867475D01*
X82179475Y-125660632D01*
X82341990Y-125417411D01*
X82453932Y-125147158D01*
X82511000Y-124860260D01*
X82511000Y-124567740D01*
X82453932Y-124280842D01*
X82341990Y-124010589D01*
X82179475Y-123767368D01*
X81972632Y-123560525D01*
X81798240Y-123444000D01*
X81972632Y-123327475D01*
X82179475Y-123120632D01*
X82341990Y-122877411D01*
X82453932Y-122607158D01*
X82511000Y-122320260D01*
X82511000Y-122027740D01*
X82472231Y-121832835D01*
X84967000Y-121832835D01*
X84967000Y-122007165D01*
X85001010Y-122178145D01*
X85067723Y-122339205D01*
X85164576Y-122484155D01*
X85287845Y-122607424D01*
X85432795Y-122704277D01*
X85593855Y-122770990D01*
X85764835Y-122805000D01*
X85939165Y-122805000D01*
X86110145Y-122770990D01*
X86271205Y-122704277D01*
X86416155Y-122607424D01*
X86539424Y-122484155D01*
X86636277Y-122339205D01*
X86702990Y-122178145D01*
X86737000Y-122007165D01*
X86737000Y-121832835D01*
X86702990Y-121661855D01*
X86636277Y-121500795D01*
X86539424Y-121355845D01*
X86521579Y-121338000D01*
X88227928Y-121338000D01*
X88227928Y-123438000D01*
X88240188Y-123562482D01*
X88276498Y-123682180D01*
X88335463Y-123792494D01*
X88414815Y-123889185D01*
X88511506Y-123968537D01*
X88621820Y-124027502D01*
X88741518Y-124063812D01*
X88866000Y-124076072D01*
X90966000Y-124076072D01*
X91090482Y-124063812D01*
X91210180Y-124027502D01*
X91320494Y-123968537D01*
X91417185Y-123889185D01*
X91496537Y-123792494D01*
X91555502Y-123682180D01*
X91591812Y-123562482D01*
X91604072Y-123438000D01*
X91604072Y-123349448D01*
X109688000Y-123349448D01*
X109688000Y-123538552D01*
X109724892Y-123724022D01*
X109797259Y-123898731D01*
X109902319Y-124055964D01*
X110036036Y-124189681D01*
X110193269Y-124294741D01*
X110367978Y-124367108D01*
X110553448Y-124404000D01*
X110742552Y-124404000D01*
X110928022Y-124367108D01*
X111102731Y-124294741D01*
X111259964Y-124189681D01*
X111393681Y-124055964D01*
X111498741Y-123898731D01*
X111571108Y-123724022D01*
X111608000Y-123538552D01*
X111608000Y-123349448D01*
X111571108Y-123163978D01*
X111498741Y-122989269D01*
X111393681Y-122832036D01*
X111259964Y-122698319D01*
X111102731Y-122593259D01*
X110928022Y-122520892D01*
X110742552Y-122484000D01*
X110553448Y-122484000D01*
X110367978Y-122520892D01*
X110193269Y-122593259D01*
X110036036Y-122698319D01*
X109902319Y-122832036D01*
X109797259Y-122989269D01*
X109724892Y-123163978D01*
X109688000Y-123349448D01*
X91604072Y-123349448D01*
X91604072Y-121338000D01*
X91591812Y-121213518D01*
X91555502Y-121093820D01*
X91496537Y-120983506D01*
X91417185Y-120886815D01*
X91320494Y-120807463D01*
X91210180Y-120748498D01*
X91090482Y-120712188D01*
X90966000Y-120699928D01*
X88866000Y-120699928D01*
X88741518Y-120712188D01*
X88621820Y-120748498D01*
X88511506Y-120807463D01*
X88414815Y-120886815D01*
X88335463Y-120983506D01*
X88276498Y-121093820D01*
X88240188Y-121213518D01*
X88227928Y-121338000D01*
X86521579Y-121338000D01*
X86416155Y-121232576D01*
X86271205Y-121135723D01*
X86110145Y-121069010D01*
X85939165Y-121035000D01*
X85764835Y-121035000D01*
X85593855Y-121069010D01*
X85432795Y-121135723D01*
X85287845Y-121232576D01*
X85164576Y-121355845D01*
X85067723Y-121500795D01*
X85001010Y-121661855D01*
X84967000Y-121832835D01*
X82472231Y-121832835D01*
X82453932Y-121740842D01*
X82341990Y-121470589D01*
X82179475Y-121227368D01*
X81972632Y-121020525D01*
X81798240Y-120904000D01*
X81972632Y-120787475D01*
X82179475Y-120580632D01*
X82341990Y-120337411D01*
X82453932Y-120067158D01*
X82511000Y-119780260D01*
X82511000Y-119487740D01*
X82453932Y-119200842D01*
X82341990Y-118930589D01*
X82179475Y-118687368D01*
X82051173Y-118559066D01*
X88924539Y-118559066D01*
X89026339Y-118828579D01*
X89324477Y-118974463D01*
X89645346Y-119059380D01*
X89976617Y-119080066D01*
X90305557Y-119035728D01*
X90619527Y-118928069D01*
X90805661Y-118828579D01*
X90907461Y-118559066D01*
X89916000Y-117567605D01*
X88924539Y-118559066D01*
X82051173Y-118559066D01*
X81972632Y-118480525D01*
X81798240Y-118364000D01*
X81972632Y-118247475D01*
X82179475Y-118040632D01*
X82341990Y-117797411D01*
X82453932Y-117527158D01*
X82469554Y-117448617D01*
X88223934Y-117448617D01*
X88268272Y-117777557D01*
X88375931Y-118091527D01*
X88475421Y-118277661D01*
X88744934Y-118379461D01*
X89736395Y-117388000D01*
X90095605Y-117388000D01*
X91087066Y-118379461D01*
X91356579Y-118277661D01*
X91502463Y-117979523D01*
X91587380Y-117658654D01*
X91608066Y-117327383D01*
X91563728Y-116998443D01*
X91456069Y-116684473D01*
X91356579Y-116498339D01*
X91087066Y-116396539D01*
X90095605Y-117388000D01*
X89736395Y-117388000D01*
X88744934Y-116396539D01*
X88475421Y-116498339D01*
X88329537Y-116796477D01*
X88244620Y-117117346D01*
X88223934Y-117448617D01*
X82469554Y-117448617D01*
X82511000Y-117240260D01*
X82511000Y-116947740D01*
X82453932Y-116660842D01*
X82341990Y-116390589D01*
X82225958Y-116216934D01*
X88924539Y-116216934D01*
X89916000Y-117208395D01*
X90907461Y-116216934D01*
X90805661Y-115947421D01*
X90507523Y-115801537D01*
X90186654Y-115716620D01*
X89855383Y-115695934D01*
X89526443Y-115740272D01*
X89212473Y-115847931D01*
X89026339Y-115947421D01*
X88924539Y-116216934D01*
X82225958Y-116216934D01*
X82179475Y-116147368D01*
X81972632Y-115940525D01*
X81798240Y-115824000D01*
X81972632Y-115707475D01*
X82179475Y-115500632D01*
X82341990Y-115257411D01*
X82453932Y-114987158D01*
X82511000Y-114700260D01*
X82511000Y-114466835D01*
X84205000Y-114466835D01*
X84205000Y-114641165D01*
X84239010Y-114812145D01*
X84305723Y-114973205D01*
X84402576Y-115118155D01*
X84525845Y-115241424D01*
X84670795Y-115338277D01*
X84831855Y-115404990D01*
X85002835Y-115439000D01*
X85177165Y-115439000D01*
X85348145Y-115404990D01*
X85509205Y-115338277D01*
X85654155Y-115241424D01*
X85777424Y-115118155D01*
X85874277Y-114973205D01*
X85940990Y-114812145D01*
X85975000Y-114641165D01*
X85975000Y-114466835D01*
X85940990Y-114295855D01*
X85874277Y-114134795D01*
X85777424Y-113989845D01*
X85654155Y-113866576D01*
X85509205Y-113769723D01*
X85348145Y-113703010D01*
X85177165Y-113669000D01*
X85002835Y-113669000D01*
X84831855Y-113703010D01*
X84670795Y-113769723D01*
X84525845Y-113866576D01*
X84402576Y-113989845D01*
X84305723Y-114134795D01*
X84239010Y-114295855D01*
X84205000Y-114466835D01*
X82511000Y-114466835D01*
X82511000Y-114407740D01*
X82453932Y-114120842D01*
X82341990Y-113850589D01*
X82179475Y-113607368D01*
X81972632Y-113400525D01*
X81798240Y-113284000D01*
X81972632Y-113167475D01*
X82022715Y-113117392D01*
X90221557Y-113117392D01*
X90221557Y-113291722D01*
X90255567Y-113462702D01*
X90322280Y-113623762D01*
X90419133Y-113768712D01*
X90542402Y-113891981D01*
X90687352Y-113988834D01*
X90848412Y-114055547D01*
X91019392Y-114089557D01*
X91193722Y-114089557D01*
X91364702Y-114055547D01*
X91525762Y-113988834D01*
X91670712Y-113891981D01*
X91793981Y-113768712D01*
X91890834Y-113623762D01*
X91957547Y-113462702D01*
X91991557Y-113291722D01*
X91991557Y-113117392D01*
X91957547Y-112946412D01*
X91890834Y-112785352D01*
X91793981Y-112640402D01*
X91670712Y-112517133D01*
X91525762Y-112420280D01*
X91364702Y-112353567D01*
X91193722Y-112319557D01*
X91019392Y-112319557D01*
X90848412Y-112353567D01*
X90687352Y-112420280D01*
X90542402Y-112517133D01*
X90419133Y-112640402D01*
X90322280Y-112785352D01*
X90255567Y-112946412D01*
X90221557Y-113117392D01*
X82022715Y-113117392D01*
X82179475Y-112960632D01*
X82341990Y-112717411D01*
X82453932Y-112447158D01*
X82511000Y-112160260D01*
X82511000Y-111867740D01*
X82453932Y-111580842D01*
X82341990Y-111310589D01*
X82179475Y-111067368D01*
X81972632Y-110860525D01*
X81798240Y-110744000D01*
X81972632Y-110627475D01*
X82179475Y-110420632D01*
X82341990Y-110177411D01*
X82453932Y-109907158D01*
X82511000Y-109620260D01*
X82511000Y-109327740D01*
X82453932Y-109040842D01*
X82341990Y-108770589D01*
X82179475Y-108527368D01*
X81972632Y-108320525D01*
X81798240Y-108204000D01*
X81972632Y-108087475D01*
X82179475Y-107880632D01*
X82341990Y-107637411D01*
X82453932Y-107367158D01*
X82511000Y-107080260D01*
X82511000Y-106787740D01*
X82453932Y-106500842D01*
X82341990Y-106230589D01*
X82179475Y-105987368D01*
X81972632Y-105780525D01*
X81790466Y-105658805D01*
X81907355Y-105589178D01*
X82123588Y-105394269D01*
X82297641Y-105160920D01*
X82422825Y-104898099D01*
X82467476Y-104750890D01*
X82346155Y-104521000D01*
X81153000Y-104521000D01*
X81153000Y-104541000D01*
X80899000Y-104541000D01*
X80899000Y-104521000D01*
X80879000Y-104521000D01*
X80879000Y-104267000D01*
X80899000Y-104267000D01*
X80899000Y-104247000D01*
X81153000Y-104247000D01*
X81153000Y-104267000D01*
X82346155Y-104267000D01*
X82467476Y-104037110D01*
X82422825Y-103889901D01*
X82297641Y-103627080D01*
X82123588Y-103393731D01*
X81907355Y-103198822D01*
X81790466Y-103129195D01*
X81972632Y-103007475D01*
X82179475Y-102800632D01*
X82341990Y-102557411D01*
X82453932Y-102287158D01*
X82511000Y-102000260D01*
X82511000Y-101852589D01*
X83775331Y-103116920D01*
X83798657Y-103145343D01*
X83827079Y-103168668D01*
X83912097Y-103238441D01*
X83971226Y-103270046D01*
X84041522Y-103307620D01*
X84181955Y-103350220D01*
X84291408Y-103361000D01*
X84291417Y-103361000D01*
X84327999Y-103364603D01*
X84364581Y-103361000D01*
X91776013Y-103361000D01*
X91834795Y-103400277D01*
X91995855Y-103466990D01*
X92166835Y-103501000D01*
X92341165Y-103501000D01*
X92512145Y-103466990D01*
X92673205Y-103400277D01*
X92818155Y-103303424D01*
X92941424Y-103180155D01*
X93038277Y-103035205D01*
X93104990Y-102874145D01*
X93139000Y-102703165D01*
X93139000Y-102599000D01*
X94264013Y-102599000D01*
X94322795Y-102638277D01*
X94483855Y-102704990D01*
X94654835Y-102739000D01*
X94829165Y-102739000D01*
X95000145Y-102704990D01*
X95161205Y-102638277D01*
X95306155Y-102541424D01*
X95429424Y-102418155D01*
X95526277Y-102273205D01*
X95547145Y-102222825D01*
X96843322Y-103519002D01*
X89123987Y-103519002D01*
X89065205Y-103479725D01*
X88904145Y-103413012D01*
X88733165Y-103379002D01*
X88558835Y-103379002D01*
X88387855Y-103413012D01*
X88226795Y-103479725D01*
X88081845Y-103576578D01*
X87958576Y-103699847D01*
X87861723Y-103844797D01*
X87795010Y-104005857D01*
X87761000Y-104176837D01*
X87761000Y-104351167D01*
X87795010Y-104522147D01*
X87861723Y-104683207D01*
X87958576Y-104828157D01*
X88081845Y-104951426D01*
X88226795Y-105048279D01*
X88387855Y-105114992D01*
X88558835Y-105149002D01*
X88733165Y-105149002D01*
X88904145Y-105114992D01*
X89065205Y-105048279D01*
X89123987Y-105009002D01*
X90940320Y-105009002D01*
X90909723Y-105054794D01*
X90843010Y-105215854D01*
X90809000Y-105386834D01*
X90809000Y-105561164D01*
X90823392Y-105633516D01*
X90682145Y-105575010D01*
X90511165Y-105541000D01*
X90336835Y-105541000D01*
X90165855Y-105575010D01*
X90004795Y-105641723D01*
X89859845Y-105738576D01*
X89736576Y-105861845D01*
X89639723Y-106006795D01*
X89573010Y-106167855D01*
X89539000Y-106338835D01*
X89539000Y-106513165D01*
X89573010Y-106684145D01*
X89639723Y-106845205D01*
X89736576Y-106990155D01*
X89859845Y-107113424D01*
X90004795Y-107210277D01*
X90165855Y-107276990D01*
X90235193Y-107290782D01*
X94951336Y-112006926D01*
X94974657Y-112035343D01*
X95003074Y-112058664D01*
X95003079Y-112058669D01*
X95088097Y-112128441D01*
X95119199Y-112145065D01*
X95217522Y-112197620D01*
X95357955Y-112240220D01*
X95467408Y-112251000D01*
X95467410Y-112251000D01*
X95504000Y-112254604D01*
X95540590Y-112251000D01*
X108823330Y-112251000D01*
X108774815Y-112290815D01*
X108695463Y-112387506D01*
X108636498Y-112497820D01*
X108600188Y-112617518D01*
X108587928Y-112742000D01*
X108587928Y-114842000D01*
X108600188Y-114966482D01*
X108636498Y-115086180D01*
X108695463Y-115196494D01*
X108774815Y-115293185D01*
X108871506Y-115372537D01*
X108950946Y-115414999D01*
X100941812Y-115414999D01*
X100836825Y-115257875D01*
X100602125Y-115023175D01*
X100326147Y-114838772D01*
X100019496Y-114711754D01*
X99693958Y-114647000D01*
X99362042Y-114647000D01*
X99036504Y-114711754D01*
X98729853Y-114838772D01*
X98453875Y-115023175D01*
X98219175Y-115257875D01*
X98034772Y-115533853D01*
X97959433Y-115715739D01*
X97951902Y-115709559D01*
X97822478Y-115640380D01*
X97682045Y-115597780D01*
X97572592Y-115587000D01*
X97572590Y-115587000D01*
X97536000Y-115583396D01*
X97499410Y-115587000D01*
X96216072Y-115587000D01*
X96216072Y-115282000D01*
X96203812Y-115157518D01*
X96167502Y-115037820D01*
X96108537Y-114927506D01*
X96029185Y-114830815D01*
X95932494Y-114751463D01*
X95822180Y-114692498D01*
X95702482Y-114656188D01*
X95578000Y-114643928D01*
X93478000Y-114643928D01*
X93353518Y-114656188D01*
X93233820Y-114692498D01*
X93123506Y-114751463D01*
X93026815Y-114830815D01*
X92947463Y-114927506D01*
X92888498Y-115037820D01*
X92852188Y-115157518D01*
X92839928Y-115282000D01*
X92839928Y-117382000D01*
X92852188Y-117506482D01*
X92888498Y-117626180D01*
X92947463Y-117736494D01*
X93026815Y-117833185D01*
X93123506Y-117912537D01*
X93233820Y-117971502D01*
X93353518Y-118007812D01*
X93478000Y-118020072D01*
X95578000Y-118020072D01*
X95702482Y-118007812D01*
X95822180Y-117971502D01*
X95932494Y-117912537D01*
X96029185Y-117833185D01*
X96108537Y-117736494D01*
X96167502Y-117626180D01*
X96203812Y-117506482D01*
X96216072Y-117382000D01*
X96216072Y-117077000D01*
X97227411Y-117077000D01*
X100031336Y-119880925D01*
X100054657Y-119909343D01*
X100083074Y-119932664D01*
X100083079Y-119932669D01*
X100168097Y-120002441D01*
X100227627Y-120034260D01*
X100297522Y-120071620D01*
X100437955Y-120114220D01*
X100547408Y-120125000D01*
X100547410Y-120125000D01*
X100584000Y-120128604D01*
X100620590Y-120125000D01*
X113568013Y-120125000D01*
X113626795Y-120164277D01*
X113787855Y-120230990D01*
X113958835Y-120265000D01*
X114133165Y-120265000D01*
X114304145Y-120230990D01*
X114465205Y-120164277D01*
X114610155Y-120067424D01*
X114612053Y-120065527D01*
X115376765Y-120830239D01*
X115384475Y-120869000D01*
X114566209Y-120869000D01*
X114512277Y-120738795D01*
X114415424Y-120593845D01*
X114292155Y-120470576D01*
X114147205Y-120373723D01*
X113986145Y-120307010D01*
X113815165Y-120273000D01*
X113640835Y-120273000D01*
X113469855Y-120307010D01*
X113308795Y-120373723D01*
X113163845Y-120470576D01*
X113040576Y-120593845D01*
X112943723Y-120738795D01*
X112877010Y-120899855D01*
X112843000Y-121070835D01*
X112843000Y-121245165D01*
X112877010Y-121416145D01*
X112943723Y-121577205D01*
X113003054Y-121666000D01*
X112943723Y-121754795D01*
X112877010Y-121915855D01*
X112843000Y-122086835D01*
X112843000Y-122261165D01*
X112877010Y-122432145D01*
X112943723Y-122593205D01*
X113040576Y-122738155D01*
X113163845Y-122861424D01*
X113308795Y-122958277D01*
X113469855Y-123024990D01*
X113640835Y-123059000D01*
X113815165Y-123059000D01*
X113986145Y-123024990D01*
X114147205Y-122958277D01*
X114205987Y-122919000D01*
X115624211Y-122919000D01*
X115577259Y-122989269D01*
X115504892Y-123163978D01*
X115468000Y-123349448D01*
X115468000Y-123538552D01*
X115504892Y-123724022D01*
X115577259Y-123898731D01*
X115682319Y-124055964D01*
X115816036Y-124189681D01*
X115973269Y-124294741D01*
X116147978Y-124367108D01*
X116333448Y-124404000D01*
X116522552Y-124404000D01*
X116708022Y-124367108D01*
X116882731Y-124294741D01*
X117039964Y-124189681D01*
X117173681Y-124055964D01*
X117278741Y-123898731D01*
X117351108Y-123724022D01*
X117388000Y-123538552D01*
X117388000Y-123349448D01*
X117351108Y-123163978D01*
X117278741Y-122989269D01*
X117231789Y-122919000D01*
X122431410Y-122919000D01*
X122468000Y-122922604D01*
X122504590Y-122919000D01*
X122504592Y-122919000D01*
X122614045Y-122908220D01*
X122754478Y-122865620D01*
X122883902Y-122796441D01*
X122997343Y-122703343D01*
X123020669Y-122674920D01*
X125897518Y-119798072D01*
X127582000Y-119798072D01*
X127706482Y-119785812D01*
X127826180Y-119749502D01*
X127936494Y-119690537D01*
X128033185Y-119611185D01*
X128112537Y-119514494D01*
X128171502Y-119404180D01*
X128207812Y-119284482D01*
X128220072Y-119160000D01*
X128220072Y-117864463D01*
X131252529Y-120896920D01*
X131275855Y-120925343D01*
X131304277Y-120948668D01*
X131389295Y-121018441D01*
X131432389Y-121041475D01*
X131518720Y-121087620D01*
X131659153Y-121130220D01*
X131768606Y-121141000D01*
X131768615Y-121141000D01*
X131805197Y-121144603D01*
X131841780Y-121141000D01*
X135131410Y-121141000D01*
X135168000Y-121144604D01*
X135204590Y-121141000D01*
X135204592Y-121141000D01*
X135314045Y-121130220D01*
X135454478Y-121087620D01*
X135583902Y-121018441D01*
X135697343Y-120925343D01*
X135720669Y-120896920D01*
X135763517Y-120854072D01*
X137448000Y-120854072D01*
X137572482Y-120841812D01*
X137692180Y-120805502D01*
X137802494Y-120746537D01*
X137899185Y-120667185D01*
X137978537Y-120570494D01*
X138037502Y-120460180D01*
X138073812Y-120340482D01*
X138086072Y-120216000D01*
X138086072Y-118116000D01*
X138073812Y-117991518D01*
X138037502Y-117871820D01*
X137978537Y-117761506D01*
X137899185Y-117664815D01*
X137802494Y-117585463D01*
X137692180Y-117526498D01*
X137572482Y-117490188D01*
X137448000Y-117477928D01*
X135348000Y-117477928D01*
X135223518Y-117490188D01*
X135103820Y-117526498D01*
X134993506Y-117585463D01*
X134896815Y-117664815D01*
X134817463Y-117761506D01*
X134758498Y-117871820D01*
X134722188Y-117991518D01*
X134709928Y-118116000D01*
X134709928Y-119651000D01*
X132214814Y-119651000D01*
X132330147Y-119603228D01*
X132606125Y-119418825D01*
X132840825Y-119184125D01*
X133025228Y-118908147D01*
X133152246Y-118601496D01*
X133217000Y-118275958D01*
X133217000Y-117944042D01*
X133152246Y-117618504D01*
X133025228Y-117311853D01*
X132840825Y-117035875D01*
X132606125Y-116801175D01*
X132330147Y-116616772D01*
X132023496Y-116489754D01*
X131697958Y-116425000D01*
X131366042Y-116425000D01*
X131040504Y-116489754D01*
X130733853Y-116616772D01*
X130457875Y-116801175D01*
X130223175Y-117035875D01*
X130038772Y-117311853D01*
X129961410Y-117498623D01*
X127085864Y-114623077D01*
X127062538Y-114594654D01*
X126949097Y-114501556D01*
X126819673Y-114432377D01*
X126679240Y-114389777D01*
X126569787Y-114378997D01*
X126569785Y-114378997D01*
X126533195Y-114375393D01*
X126496605Y-114378997D01*
X119857987Y-114378997D01*
X119799205Y-114339720D01*
X119638145Y-114273007D01*
X119467165Y-114238997D01*
X119292835Y-114238997D01*
X119121855Y-114273007D01*
X118960795Y-114339720D01*
X118815845Y-114436573D01*
X118692576Y-114559842D01*
X118595723Y-114704792D01*
X118529010Y-114865852D01*
X118495000Y-115036832D01*
X118495000Y-115211162D01*
X118529010Y-115382142D01*
X118567058Y-115473998D01*
X118529010Y-115565855D01*
X118495000Y-115736835D01*
X118495000Y-115911165D01*
X118529010Y-116082145D01*
X118595723Y-116243205D01*
X118635000Y-116301987D01*
X118635001Y-117057400D01*
X118631396Y-117094000D01*
X118645781Y-117240045D01*
X118688381Y-117380478D01*
X118757559Y-117509902D01*
X118827331Y-117594920D01*
X118827337Y-117594926D01*
X118850658Y-117623343D01*
X118879075Y-117646664D01*
X121336851Y-120104440D01*
X121323010Y-120137855D01*
X121289000Y-120308835D01*
X121289000Y-120483165D01*
X121323010Y-120654145D01*
X121389723Y-120815205D01*
X121425668Y-120869000D01*
X117098619Y-120869000D01*
X117126547Y-120728597D01*
X117126547Y-120554267D01*
X117092537Y-120383287D01*
X117025824Y-120222227D01*
X116928971Y-120077277D01*
X116805702Y-119954008D01*
X116660752Y-119857155D01*
X116499692Y-119790442D01*
X116430354Y-119776650D01*
X112312783Y-115659079D01*
X112289457Y-115630656D01*
X112176016Y-115537558D01*
X112046592Y-115468379D01*
X111906159Y-115425779D01*
X111796706Y-115414999D01*
X111796704Y-115414999D01*
X111760114Y-115411395D01*
X111723524Y-115414999D01*
X111601054Y-115414999D01*
X111680494Y-115372537D01*
X111777185Y-115293185D01*
X111856537Y-115196494D01*
X111915502Y-115086180D01*
X111951812Y-114966482D01*
X111964072Y-114842000D01*
X111964072Y-112742000D01*
X111951812Y-112617518D01*
X111915502Y-112497820D01*
X111856537Y-112387506D01*
X111777185Y-112290815D01*
X111728670Y-112251000D01*
X114593186Y-112251000D01*
X114477853Y-112298772D01*
X114201875Y-112483175D01*
X113967175Y-112717875D01*
X113782772Y-112993853D01*
X113655754Y-113300504D01*
X113591000Y-113626042D01*
X113591000Y-113957958D01*
X113655754Y-114283496D01*
X113782772Y-114590147D01*
X113967175Y-114866125D01*
X114201875Y-115100825D01*
X114477853Y-115285228D01*
X114784504Y-115412246D01*
X115110042Y-115477000D01*
X115441958Y-115477000D01*
X115767496Y-115412246D01*
X116074147Y-115285228D01*
X116350125Y-115100825D01*
X116584825Y-114866125D01*
X116769228Y-114590147D01*
X116896246Y-114283496D01*
X116961000Y-113957958D01*
X116961000Y-113626042D01*
X116910476Y-113372042D01*
X128697000Y-113372042D01*
X128697000Y-113703958D01*
X128761754Y-114029496D01*
X128888772Y-114336147D01*
X129073175Y-114612125D01*
X129307875Y-114846825D01*
X129583853Y-115031228D01*
X129890504Y-115158246D01*
X130216042Y-115223000D01*
X130547958Y-115223000D01*
X130873496Y-115158246D01*
X131180147Y-115031228D01*
X131456125Y-114846825D01*
X131690825Y-114612125D01*
X131875228Y-114336147D01*
X132002246Y-114029496D01*
X132067000Y-113703958D01*
X132067000Y-113372042D01*
X132002246Y-113046504D01*
X131875228Y-112739853D01*
X131690825Y-112463875D01*
X131456125Y-112229175D01*
X131180147Y-112044772D01*
X130873496Y-111917754D01*
X130547958Y-111853000D01*
X130216042Y-111853000D01*
X129890504Y-111917754D01*
X129583853Y-112044772D01*
X129307875Y-112229175D01*
X129073175Y-112463875D01*
X128888772Y-112739853D01*
X128761754Y-113046504D01*
X128697000Y-113372042D01*
X116910476Y-113372042D01*
X116896246Y-113300504D01*
X116769228Y-112993853D01*
X116584825Y-112717875D01*
X116350125Y-112483175D01*
X116074147Y-112298772D01*
X115958814Y-112251000D01*
X117124013Y-112251000D01*
X117182795Y-112290277D01*
X117343855Y-112356990D01*
X117514835Y-112391000D01*
X117689165Y-112391000D01*
X117860145Y-112356990D01*
X118021205Y-112290277D01*
X118166155Y-112193424D01*
X118289424Y-112070155D01*
X118386277Y-111925205D01*
X118452990Y-111764145D01*
X118487000Y-111593165D01*
X118487000Y-111418835D01*
X118452990Y-111247855D01*
X118386277Y-111086795D01*
X118289424Y-110941845D01*
X118166155Y-110818576D01*
X118021205Y-110721723D01*
X117860145Y-110655010D01*
X117689165Y-110621000D01*
X117514835Y-110621000D01*
X117343855Y-110655010D01*
X117182795Y-110721723D01*
X117124013Y-110761000D01*
X95812590Y-110761000D01*
X93409725Y-108358135D01*
X109414500Y-108358135D01*
X109414500Y-108532465D01*
X109448510Y-108703445D01*
X109515223Y-108864505D01*
X109612076Y-109009455D01*
X109735345Y-109132724D01*
X109880295Y-109229577D01*
X110041355Y-109296290D01*
X110212335Y-109330300D01*
X110386665Y-109330300D01*
X110557645Y-109296290D01*
X110718705Y-109229577D01*
X110863655Y-109132724D01*
X110986924Y-109009455D01*
X111083777Y-108864505D01*
X111150490Y-108703445D01*
X111184500Y-108532465D01*
X111184500Y-108358135D01*
X111319500Y-108358135D01*
X111319500Y-108532465D01*
X111353510Y-108703445D01*
X111420223Y-108864505D01*
X111517076Y-109009455D01*
X111640345Y-109132724D01*
X111785295Y-109229577D01*
X111946355Y-109296290D01*
X112117335Y-109330300D01*
X112291665Y-109330300D01*
X112462645Y-109296290D01*
X112623705Y-109229577D01*
X112768655Y-109132724D01*
X112891924Y-109009455D01*
X112988777Y-108864505D01*
X113055490Y-108703445D01*
X113089500Y-108532465D01*
X113089500Y-108358135D01*
X113055490Y-108187155D01*
X112988777Y-108026095D01*
X112891924Y-107881145D01*
X112768655Y-107757876D01*
X112623705Y-107661023D01*
X112462645Y-107594310D01*
X112291665Y-107560300D01*
X112117335Y-107560300D01*
X111946355Y-107594310D01*
X111785295Y-107661023D01*
X111640345Y-107757876D01*
X111517076Y-107881145D01*
X111420223Y-108026095D01*
X111353510Y-108187155D01*
X111319500Y-108358135D01*
X111184500Y-108358135D01*
X111150490Y-108187155D01*
X111083777Y-108026095D01*
X110986924Y-107881145D01*
X110863655Y-107757876D01*
X110718705Y-107661023D01*
X110557645Y-107594310D01*
X110386665Y-107560300D01*
X110212335Y-107560300D01*
X110041355Y-107594310D01*
X109880295Y-107661023D01*
X109735345Y-107757876D01*
X109612076Y-107881145D01*
X109515223Y-108026095D01*
X109448510Y-108187155D01*
X109414500Y-108358135D01*
X93409725Y-108358135D01*
X91334663Y-106283074D01*
X91435855Y-106324989D01*
X91606835Y-106358999D01*
X91781165Y-106358999D01*
X91952145Y-106324989D01*
X92113205Y-106258276D01*
X92241075Y-106172835D01*
X100207000Y-106172835D01*
X100207000Y-106347165D01*
X100241010Y-106518145D01*
X100307723Y-106679205D01*
X100404576Y-106824155D01*
X100527845Y-106947424D01*
X100672795Y-107044277D01*
X100833855Y-107110990D01*
X101004835Y-107145000D01*
X101179165Y-107145000D01*
X101350145Y-107110990D01*
X101374661Y-107100835D01*
X121231000Y-107100835D01*
X121231000Y-107275165D01*
X121265010Y-107446145D01*
X121331723Y-107607205D01*
X121428576Y-107752155D01*
X121551845Y-107875424D01*
X121696795Y-107972277D01*
X121857855Y-108038990D01*
X122028835Y-108073000D01*
X122203165Y-108073000D01*
X122374145Y-108038990D01*
X122535205Y-107972277D01*
X122680155Y-107875424D01*
X122803424Y-107752155D01*
X122900277Y-107607205D01*
X122966990Y-107446145D01*
X123001000Y-107275165D01*
X123001000Y-107100835D01*
X122966990Y-106929855D01*
X122900277Y-106768795D01*
X122803424Y-106623845D01*
X122680155Y-106500576D01*
X122535205Y-106403723D01*
X122374145Y-106337010D01*
X122203165Y-106303000D01*
X122028835Y-106303000D01*
X121857855Y-106337010D01*
X121696795Y-106403723D01*
X121551845Y-106500576D01*
X121428576Y-106623845D01*
X121331723Y-106768795D01*
X121265010Y-106929855D01*
X121231000Y-107100835D01*
X101374661Y-107100835D01*
X101511205Y-107044277D01*
X101656155Y-106947424D01*
X101779424Y-106824155D01*
X101876277Y-106679205D01*
X101942990Y-106518145D01*
X101977000Y-106347165D01*
X101977000Y-106172835D01*
X101942990Y-106001855D01*
X101876277Y-105840795D01*
X101779424Y-105695845D01*
X101656155Y-105572576D01*
X101511205Y-105475723D01*
X101350145Y-105409010D01*
X101179165Y-105375000D01*
X101004835Y-105375000D01*
X100833855Y-105409010D01*
X100672795Y-105475723D01*
X100527845Y-105572576D01*
X100404576Y-105695845D01*
X100307723Y-105840795D01*
X100241010Y-106001855D01*
X100207000Y-106172835D01*
X92241075Y-106172835D01*
X92258155Y-106161423D01*
X92381424Y-106038154D01*
X92478277Y-105893204D01*
X92544990Y-105732144D01*
X92579000Y-105561164D01*
X92579000Y-105386834D01*
X92544990Y-105215854D01*
X92478277Y-105054794D01*
X92447680Y-105009002D01*
X97504520Y-105009002D01*
X97898438Y-105402920D01*
X97921764Y-105431343D01*
X97950186Y-105454668D01*
X98035204Y-105524441D01*
X98077282Y-105546932D01*
X98164629Y-105593620D01*
X98305062Y-105636220D01*
X98313058Y-105637008D01*
X98386795Y-105686277D01*
X98547855Y-105752990D01*
X98718835Y-105787000D01*
X98893165Y-105787000D01*
X99064145Y-105752990D01*
X99225205Y-105686277D01*
X99370155Y-105589424D01*
X99493424Y-105466155D01*
X99590277Y-105321205D01*
X99656990Y-105160145D01*
X99685055Y-105019055D01*
X99826145Y-104990990D01*
X99987205Y-104924277D01*
X100132155Y-104827424D01*
X100255424Y-104704155D01*
X100352277Y-104559205D01*
X100418990Y-104398145D01*
X100453000Y-104227165D01*
X100453000Y-104052835D01*
X100418990Y-103881855D01*
X100352277Y-103720795D01*
X100313000Y-103662013D01*
X100313000Y-103043103D01*
X100404576Y-103180155D01*
X100527845Y-103303424D01*
X100672795Y-103400277D01*
X100833855Y-103466990D01*
X101004835Y-103501000D01*
X101179165Y-103501000D01*
X101350145Y-103466990D01*
X101511205Y-103400277D01*
X101656155Y-103303424D01*
X101779424Y-103180155D01*
X101876277Y-103035205D01*
X101942990Y-102874145D01*
X101977000Y-102703165D01*
X101977000Y-102528835D01*
X101942990Y-102357855D01*
X101876277Y-102196795D01*
X101779424Y-102051845D01*
X101656155Y-101928576D01*
X101511205Y-101831723D01*
X101350145Y-101765010D01*
X101179165Y-101731000D01*
X101004835Y-101731000D01*
X100833855Y-101765010D01*
X100672795Y-101831723D01*
X100527845Y-101928576D01*
X100404576Y-102051845D01*
X100307723Y-102196795D01*
X100262913Y-102304975D01*
X100259620Y-102294118D01*
X100259620Y-102294117D01*
X100190441Y-102164693D01*
X100120669Y-102079676D01*
X100097343Y-102051253D01*
X100068920Y-102027927D01*
X99730691Y-101689698D01*
X99716899Y-101620360D01*
X99650186Y-101459300D01*
X99594572Y-101376068D01*
X100694667Y-100275973D01*
X100694672Y-100275967D01*
X101788807Y-99181832D01*
X101858145Y-99168040D01*
X102019205Y-99101327D01*
X102164155Y-99004474D01*
X102287424Y-98881205D01*
X102384277Y-98736255D01*
X102450990Y-98575195D01*
X102465836Y-98500557D01*
X104389570Y-98500557D01*
X104448352Y-98539834D01*
X104609412Y-98606547D01*
X104780392Y-98640557D01*
X104954722Y-98640557D01*
X105125702Y-98606547D01*
X105286762Y-98539834D01*
X105431712Y-98442981D01*
X105554981Y-98319712D01*
X105651834Y-98174762D01*
X105718547Y-98013702D01*
X105752557Y-97842722D01*
X105752557Y-97668392D01*
X105718547Y-97497412D01*
X105651834Y-97336352D01*
X105621231Y-97290552D01*
X105686277Y-97193205D01*
X105752990Y-97032145D01*
X105787000Y-96861165D01*
X105787000Y-96686835D01*
X105752990Y-96515855D01*
X105686277Y-96354795D01*
X105589424Y-96209845D01*
X105466155Y-96086576D01*
X105321205Y-95989723D01*
X105160145Y-95923010D01*
X104989165Y-95889000D01*
X104814835Y-95889000D01*
X104643855Y-95923010D01*
X104482795Y-95989723D01*
X104424013Y-96029000D01*
X92129589Y-96029000D01*
X93464920Y-94693669D01*
X93493343Y-94670343D01*
X93567405Y-94580098D01*
X93586441Y-94556903D01*
X93655620Y-94427479D01*
X93688471Y-94319182D01*
X93698220Y-94287045D01*
X93709000Y-94177592D01*
X93709000Y-94177590D01*
X93712604Y-94141000D01*
X93709000Y-94104410D01*
X93709000Y-92622835D01*
X97542998Y-92622835D01*
X97542998Y-92797165D01*
X97577008Y-92968145D01*
X97643721Y-93129205D01*
X97740574Y-93274155D01*
X97863843Y-93397424D01*
X98008793Y-93494277D01*
X98169853Y-93560990D01*
X98340833Y-93595000D01*
X98515163Y-93595000D01*
X98686143Y-93560990D01*
X98847203Y-93494277D01*
X98992153Y-93397424D01*
X99115422Y-93274155D01*
X99212275Y-93129205D01*
X99278988Y-92968145D01*
X99312998Y-92797165D01*
X99312998Y-92622835D01*
X99278988Y-92451855D01*
X99212275Y-92290795D01*
X99115422Y-92145845D01*
X98992153Y-92022576D01*
X98847203Y-91925723D01*
X98686143Y-91859010D01*
X98515163Y-91825000D01*
X98340833Y-91825000D01*
X98169853Y-91859010D01*
X98008793Y-91925723D01*
X97863843Y-92022576D01*
X97740574Y-92145845D01*
X97643721Y-92290795D01*
X97577008Y-92451855D01*
X97542998Y-92622835D01*
X93709000Y-92622835D01*
X93709000Y-89073103D01*
X93800576Y-89210155D01*
G37*
%TD.AperFunction*%
D20*
X144120000Y-76139810D02*
X144063990Y-76004589D01*
X143901475Y-75761368D01*
X143694632Y-75554525D01*
X143451411Y-75392010D01*
X143181158Y-75280068D01*
X142894260Y-75223000D01*
X142601740Y-75223000D01*
X142314842Y-75280068D01*
X142044589Y-75392010D01*
X141801368Y-75554525D01*
X141594525Y-75761368D01*
X141432010Y-76004589D01*
X141320068Y-76274842D01*
X141263000Y-76561740D01*
X141263000Y-76854260D01*
X141320068Y-77141158D01*
X141432010Y-77411411D01*
X141594525Y-77654632D01*
X141801368Y-77861475D01*
X141975760Y-77978000D01*
X141801368Y-78094525D01*
X141594525Y-78301368D01*
X141432010Y-78544589D01*
X141320068Y-78814842D01*
X141263000Y-79101740D01*
X141263000Y-79394260D01*
X141320068Y-79681158D01*
X141430796Y-79948480D01*
X133398507Y-79948480D01*
X133339725Y-79909203D01*
X133178665Y-79842490D01*
X133007685Y-79808480D01*
X132833355Y-79808480D01*
X132662375Y-79842490D01*
X132501315Y-79909203D01*
X132356365Y-80006056D01*
X132233096Y-80129325D01*
X132136243Y-80274275D01*
X132069530Y-80435335D01*
X132035520Y-80606315D01*
X132035520Y-80780645D01*
X132069530Y-80951625D01*
X132136243Y-81112685D01*
X132233096Y-81257635D01*
X132356365Y-81380904D01*
X132501315Y-81477757D01*
X132662375Y-81544470D01*
X132719000Y-81555733D01*
X132719000Y-81621165D01*
X132753010Y-81792145D01*
X132819723Y-81953205D01*
X132916576Y-82098155D01*
X133039845Y-82221424D01*
X133184795Y-82318277D01*
X133345855Y-82384990D01*
X133415193Y-82398782D01*
X134979593Y-83963182D01*
X134869855Y-83985010D01*
X134708795Y-84051723D01*
X134563845Y-84148576D01*
X134440576Y-84271845D01*
X134343723Y-84416795D01*
X134277010Y-84577855D01*
X134243000Y-84748835D01*
X134243000Y-84923165D01*
X134277010Y-85094145D01*
X134343723Y-85255205D01*
X134440576Y-85400155D01*
X134563845Y-85523424D01*
X134708795Y-85620277D01*
X134869855Y-85686990D01*
X135040835Y-85721000D01*
X135215165Y-85721000D01*
X135386145Y-85686990D01*
X135547205Y-85620277D01*
X135692155Y-85523424D01*
X135815424Y-85400155D01*
X135912277Y-85255205D01*
X135978990Y-85094145D01*
X136013000Y-84923165D01*
X136013000Y-84748835D01*
X135978990Y-84577855D01*
X135922303Y-84441001D01*
X136123414Y-84441001D01*
X137330341Y-85647928D01*
X136364000Y-85647928D01*
X136239518Y-85660188D01*
X136119820Y-85696498D01*
X136009506Y-85755463D01*
X135912815Y-85834815D01*
X135833463Y-85931506D01*
X135774498Y-86041820D01*
X135738188Y-86161518D01*
X135725928Y-86286000D01*
X135725928Y-86324999D01*
X121754583Y-86324999D01*
X121718000Y-86321396D01*
X121681418Y-86324999D01*
X121681409Y-86324999D01*
X121571956Y-86335779D01*
X121431523Y-86378379D01*
X121381902Y-86404902D01*
X121302098Y-86447558D01*
X121250480Y-86489920D01*
X121188658Y-86540656D01*
X121165332Y-86569079D01*
X120252818Y-87481593D01*
X120230990Y-87371855D01*
X120164277Y-87210795D01*
X120067424Y-87065845D01*
X119944155Y-86942576D01*
X119799205Y-86845723D01*
X119638145Y-86779010D01*
X119568807Y-86765218D01*
X118291669Y-85488080D01*
X118268343Y-85459657D01*
X118154902Y-85366559D01*
X118025478Y-85297380D01*
X117885045Y-85254780D01*
X117775592Y-85244000D01*
X117775590Y-85244000D01*
X117739000Y-85240396D01*
X117702410Y-85244000D01*
X111278918Y-85244000D01*
X111340990Y-85094145D01*
X111354782Y-85024807D01*
X112385754Y-83993835D01*
X120035000Y-83993835D01*
X120035000Y-84168165D01*
X120069010Y-84339145D01*
X120135723Y-84500205D01*
X120232576Y-84645155D01*
X120355845Y-84768424D01*
X120500795Y-84865277D01*
X120661855Y-84931990D01*
X120832835Y-84966000D01*
X121007165Y-84966000D01*
X121178145Y-84931990D01*
X121339205Y-84865277D01*
X121484155Y-84768424D01*
X121607424Y-84645155D01*
X121704277Y-84500205D01*
X121770990Y-84339145D01*
X121805000Y-84168165D01*
X121805000Y-83993835D01*
X121770990Y-83822855D01*
X121704277Y-83661795D01*
X121607424Y-83516845D01*
X121484155Y-83393576D01*
X121339205Y-83296723D01*
X121178145Y-83230010D01*
X121007165Y-83196000D01*
X120832835Y-83196000D01*
X120661855Y-83230010D01*
X120500795Y-83296723D01*
X120355845Y-83393576D01*
X120232576Y-83516845D01*
X120135723Y-83661795D01*
X120069010Y-83822855D01*
X120035000Y-83993835D01*
X112385754Y-83993835D01*
X120266754Y-76112835D01*
X133026000Y-76112835D01*
X133026000Y-76287165D01*
X133060010Y-76458145D01*
X133126723Y-76619205D01*
X133223576Y-76764155D01*
X133346845Y-76887424D01*
X133491795Y-76984277D01*
X133652855Y-77050990D01*
X133823835Y-77085000D01*
X133998165Y-77085000D01*
X134169145Y-77050990D01*
X134330205Y-76984277D01*
X134475155Y-76887424D01*
X134598424Y-76764155D01*
X134695277Y-76619205D01*
X134761990Y-76458145D01*
X134796000Y-76287165D01*
X134796000Y-76112835D01*
X134761990Y-75941855D01*
X134695277Y-75780795D01*
X134598424Y-75635845D01*
X134475155Y-75512576D01*
X134330205Y-75415723D01*
X134169145Y-75349010D01*
X133998165Y-75315000D01*
X133823835Y-75315000D01*
X133652855Y-75349010D01*
X133491795Y-75415723D01*
X133346845Y-75512576D01*
X133223576Y-75635845D01*
X133126723Y-75780795D01*
X133060010Y-75941855D01*
X133026000Y-76112835D01*
X120266754Y-76112835D01*
X122736589Y-73643000D01*
X136174013Y-73643000D01*
X136232795Y-73682277D01*
X136393855Y-73748990D01*
X136564835Y-73783000D01*
X136739165Y-73783000D01*
X136910145Y-73748990D01*
X137071205Y-73682277D01*
X137216155Y-73585424D01*
X137339424Y-73462155D01*
X137436277Y-73317205D01*
X137502990Y-73156145D01*
X137537000Y-72985165D01*
X137537000Y-72810835D01*
X137502990Y-72639855D01*
X137436277Y-72478795D01*
X137339424Y-72333845D01*
X137216155Y-72210576D01*
X137071205Y-72113723D01*
X136910145Y-72047010D01*
X136739165Y-72013000D01*
X136564835Y-72013000D01*
X136393855Y-72047010D01*
X136232795Y-72113723D01*
X136174013Y-72153000D01*
X122464590Y-72153000D01*
X122428000Y-72149396D01*
X122391410Y-72153000D01*
X122391408Y-72153000D01*
X122281955Y-72163780D01*
X122174206Y-72196465D01*
X122141521Y-72206380D01*
X122012097Y-72275559D01*
X121941076Y-72333845D01*
X121898657Y-72368657D01*
X121875331Y-72397080D01*
X110301193Y-83971218D01*
X110285432Y-83974353D01*
X110258277Y-83908795D01*
X110161424Y-83763845D01*
X110090579Y-83693000D01*
X110161424Y-83622155D01*
X110258277Y-83477205D01*
X110324990Y-83316145D01*
X110359000Y-83145165D01*
X110359000Y-82970835D01*
X110324990Y-82799855D01*
X110258277Y-82638795D01*
X110161424Y-82493845D01*
X110038155Y-82370576D01*
X109893205Y-82273723D01*
X109732145Y-82207010D01*
X109662807Y-82193218D01*
X108928803Y-81459214D01*
X108988277Y-81370205D01*
X109054990Y-81209145D01*
X109089000Y-81038165D01*
X109089000Y-80863835D01*
X109054990Y-80692855D01*
X108988277Y-80531795D01*
X108949000Y-80473013D01*
X108949000Y-80183103D01*
X109040576Y-80320155D01*
X109163845Y-80443424D01*
X109308795Y-80540277D01*
X109469855Y-80606990D01*
X109640835Y-80641000D01*
X109815165Y-80641000D01*
X109986145Y-80606990D01*
X110147205Y-80540277D01*
X110205987Y-80501000D01*
X113247410Y-80501000D01*
X113284000Y-80504604D01*
X113320590Y-80501000D01*
X113320592Y-80501000D01*
X113430045Y-80490220D01*
X113570478Y-80447620D01*
X113699902Y-80378441D01*
X113813343Y-80285343D01*
X113836669Y-80256920D01*
X122482589Y-71611000D01*
X141000013Y-71611000D01*
X141058795Y-71650277D01*
X141219855Y-71716990D01*
X141390835Y-71751000D01*
X141565165Y-71751000D01*
X141736145Y-71716990D01*
X141897205Y-71650277D01*
X142042155Y-71553424D01*
X142165424Y-71430155D01*
X142262277Y-71285205D01*
X142328990Y-71124145D01*
X142363000Y-70953165D01*
X142363000Y-70902445D01*
X142489855Y-70954990D01*
X142660835Y-70989000D01*
X142835165Y-70989000D01*
X143006145Y-70954990D01*
X143167205Y-70888277D01*
X143312155Y-70791424D01*
X143435424Y-70668155D01*
X143532277Y-70523205D01*
X143598990Y-70362145D01*
X143633000Y-70191165D01*
X143633000Y-70016835D01*
X143598990Y-69845855D01*
X143532277Y-69684795D01*
X143435424Y-69539845D01*
X143312155Y-69416576D01*
X143167205Y-69319723D01*
X143006145Y-69253010D01*
X142940739Y-69240000D01*
X144120000Y-69240000D01*
X144120000Y-76139810D01*
%TA.AperFunction,Conductor*%
D21*
G36*
X144120000Y-76139810D02*
G01*
X144063990Y-76004589D01*
X143901475Y-75761368D01*
X143694632Y-75554525D01*
X143451411Y-75392010D01*
X143181158Y-75280068D01*
X142894260Y-75223000D01*
X142601740Y-75223000D01*
X142314842Y-75280068D01*
X142044589Y-75392010D01*
X141801368Y-75554525D01*
X141594525Y-75761368D01*
X141432010Y-76004589D01*
X141320068Y-76274842D01*
X141263000Y-76561740D01*
X141263000Y-76854260D01*
X141320068Y-77141158D01*
X141432010Y-77411411D01*
X141594525Y-77654632D01*
X141801368Y-77861475D01*
X141975760Y-77978000D01*
X141801368Y-78094525D01*
X141594525Y-78301368D01*
X141432010Y-78544589D01*
X141320068Y-78814842D01*
X141263000Y-79101740D01*
X141263000Y-79394260D01*
X141320068Y-79681158D01*
X141430796Y-79948480D01*
X133398507Y-79948480D01*
X133339725Y-79909203D01*
X133178665Y-79842490D01*
X133007685Y-79808480D01*
X132833355Y-79808480D01*
X132662375Y-79842490D01*
X132501315Y-79909203D01*
X132356365Y-80006056D01*
X132233096Y-80129325D01*
X132136243Y-80274275D01*
X132069530Y-80435335D01*
X132035520Y-80606315D01*
X132035520Y-80780645D01*
X132069530Y-80951625D01*
X132136243Y-81112685D01*
X132233096Y-81257635D01*
X132356365Y-81380904D01*
X132501315Y-81477757D01*
X132662375Y-81544470D01*
X132719000Y-81555733D01*
X132719000Y-81621165D01*
X132753010Y-81792145D01*
X132819723Y-81953205D01*
X132916576Y-82098155D01*
X133039845Y-82221424D01*
X133184795Y-82318277D01*
X133345855Y-82384990D01*
X133415193Y-82398782D01*
X134979593Y-83963182D01*
X134869855Y-83985010D01*
X134708795Y-84051723D01*
X134563845Y-84148576D01*
X134440576Y-84271845D01*
X134343723Y-84416795D01*
X134277010Y-84577855D01*
X134243000Y-84748835D01*
X134243000Y-84923165D01*
X134277010Y-85094145D01*
X134343723Y-85255205D01*
X134440576Y-85400155D01*
X134563845Y-85523424D01*
X134708795Y-85620277D01*
X134869855Y-85686990D01*
X135040835Y-85721000D01*
X135215165Y-85721000D01*
X135386145Y-85686990D01*
X135547205Y-85620277D01*
X135692155Y-85523424D01*
X135815424Y-85400155D01*
X135912277Y-85255205D01*
X135978990Y-85094145D01*
X136013000Y-84923165D01*
X136013000Y-84748835D01*
X135978990Y-84577855D01*
X135922303Y-84441001D01*
X136123414Y-84441001D01*
X137330341Y-85647928D01*
X136364000Y-85647928D01*
X136239518Y-85660188D01*
X136119820Y-85696498D01*
X136009506Y-85755463D01*
X135912815Y-85834815D01*
X135833463Y-85931506D01*
X135774498Y-86041820D01*
X135738188Y-86161518D01*
X135725928Y-86286000D01*
X135725928Y-86324999D01*
X121754583Y-86324999D01*
X121718000Y-86321396D01*
X121681418Y-86324999D01*
X121681409Y-86324999D01*
X121571956Y-86335779D01*
X121431523Y-86378379D01*
X121381902Y-86404902D01*
X121302098Y-86447558D01*
X121250480Y-86489920D01*
X121188658Y-86540656D01*
X121165332Y-86569079D01*
X120252818Y-87481593D01*
X120230990Y-87371855D01*
X120164277Y-87210795D01*
X120067424Y-87065845D01*
X119944155Y-86942576D01*
X119799205Y-86845723D01*
X119638145Y-86779010D01*
X119568807Y-86765218D01*
X118291669Y-85488080D01*
X118268343Y-85459657D01*
X118154902Y-85366559D01*
X118025478Y-85297380D01*
X117885045Y-85254780D01*
X117775592Y-85244000D01*
X117775590Y-85244000D01*
X117739000Y-85240396D01*
X117702410Y-85244000D01*
X111278918Y-85244000D01*
X111340990Y-85094145D01*
X111354782Y-85024807D01*
X112385754Y-83993835D01*
X120035000Y-83993835D01*
X120035000Y-84168165D01*
X120069010Y-84339145D01*
X120135723Y-84500205D01*
X120232576Y-84645155D01*
X120355845Y-84768424D01*
X120500795Y-84865277D01*
X120661855Y-84931990D01*
X120832835Y-84966000D01*
X121007165Y-84966000D01*
X121178145Y-84931990D01*
X121339205Y-84865277D01*
X121484155Y-84768424D01*
X121607424Y-84645155D01*
X121704277Y-84500205D01*
X121770990Y-84339145D01*
X121805000Y-84168165D01*
X121805000Y-83993835D01*
X121770990Y-83822855D01*
X121704277Y-83661795D01*
X121607424Y-83516845D01*
X121484155Y-83393576D01*
X121339205Y-83296723D01*
X121178145Y-83230010D01*
X121007165Y-83196000D01*
X120832835Y-83196000D01*
X120661855Y-83230010D01*
X120500795Y-83296723D01*
X120355845Y-83393576D01*
X120232576Y-83516845D01*
X120135723Y-83661795D01*
X120069010Y-83822855D01*
X120035000Y-83993835D01*
X112385754Y-83993835D01*
X120266754Y-76112835D01*
X133026000Y-76112835D01*
X133026000Y-76287165D01*
X133060010Y-76458145D01*
X133126723Y-76619205D01*
X133223576Y-76764155D01*
X133346845Y-76887424D01*
X133491795Y-76984277D01*
X133652855Y-77050990D01*
X133823835Y-77085000D01*
X133998165Y-77085000D01*
X134169145Y-77050990D01*
X134330205Y-76984277D01*
X134475155Y-76887424D01*
X134598424Y-76764155D01*
X134695277Y-76619205D01*
X134761990Y-76458145D01*
X134796000Y-76287165D01*
X134796000Y-76112835D01*
X134761990Y-75941855D01*
X134695277Y-75780795D01*
X134598424Y-75635845D01*
X134475155Y-75512576D01*
X134330205Y-75415723D01*
X134169145Y-75349010D01*
X133998165Y-75315000D01*
X133823835Y-75315000D01*
X133652855Y-75349010D01*
X133491795Y-75415723D01*
X133346845Y-75512576D01*
X133223576Y-75635845D01*
X133126723Y-75780795D01*
X133060010Y-75941855D01*
X133026000Y-76112835D01*
X120266754Y-76112835D01*
X122736589Y-73643000D01*
X136174013Y-73643000D01*
X136232795Y-73682277D01*
X136393855Y-73748990D01*
X136564835Y-73783000D01*
X136739165Y-73783000D01*
X136910145Y-73748990D01*
X137071205Y-73682277D01*
X137216155Y-73585424D01*
X137339424Y-73462155D01*
X137436277Y-73317205D01*
X137502990Y-73156145D01*
X137537000Y-72985165D01*
X137537000Y-72810835D01*
X137502990Y-72639855D01*
X137436277Y-72478795D01*
X137339424Y-72333845D01*
X137216155Y-72210576D01*
X137071205Y-72113723D01*
X136910145Y-72047010D01*
X136739165Y-72013000D01*
X136564835Y-72013000D01*
X136393855Y-72047010D01*
X136232795Y-72113723D01*
X136174013Y-72153000D01*
X122464590Y-72153000D01*
X122428000Y-72149396D01*
X122391410Y-72153000D01*
X122391408Y-72153000D01*
X122281955Y-72163780D01*
X122174206Y-72196465D01*
X122141521Y-72206380D01*
X122012097Y-72275559D01*
X121941076Y-72333845D01*
X121898657Y-72368657D01*
X121875331Y-72397080D01*
X110301193Y-83971218D01*
X110285432Y-83974353D01*
X110258277Y-83908795D01*
X110161424Y-83763845D01*
X110090579Y-83693000D01*
X110161424Y-83622155D01*
X110258277Y-83477205D01*
X110324990Y-83316145D01*
X110359000Y-83145165D01*
X110359000Y-82970835D01*
X110324990Y-82799855D01*
X110258277Y-82638795D01*
X110161424Y-82493845D01*
X110038155Y-82370576D01*
X109893205Y-82273723D01*
X109732145Y-82207010D01*
X109662807Y-82193218D01*
X108928803Y-81459214D01*
X108988277Y-81370205D01*
X109054990Y-81209145D01*
X109089000Y-81038165D01*
X109089000Y-80863835D01*
X109054990Y-80692855D01*
X108988277Y-80531795D01*
X108949000Y-80473013D01*
X108949000Y-80183103D01*
X109040576Y-80320155D01*
X109163845Y-80443424D01*
X109308795Y-80540277D01*
X109469855Y-80606990D01*
X109640835Y-80641000D01*
X109815165Y-80641000D01*
X109986145Y-80606990D01*
X110147205Y-80540277D01*
X110205987Y-80501000D01*
X113247410Y-80501000D01*
X113284000Y-80504604D01*
X113320590Y-80501000D01*
X113320592Y-80501000D01*
X113430045Y-80490220D01*
X113570478Y-80447620D01*
X113699902Y-80378441D01*
X113813343Y-80285343D01*
X113836669Y-80256920D01*
X122482589Y-71611000D01*
X141000013Y-71611000D01*
X141058795Y-71650277D01*
X141219855Y-71716990D01*
X141390835Y-71751000D01*
X141565165Y-71751000D01*
X141736145Y-71716990D01*
X141897205Y-71650277D01*
X142042155Y-71553424D01*
X142165424Y-71430155D01*
X142262277Y-71285205D01*
X142328990Y-71124145D01*
X142363000Y-70953165D01*
X142363000Y-70902445D01*
X142489855Y-70954990D01*
X142660835Y-70989000D01*
X142835165Y-70989000D01*
X143006145Y-70954990D01*
X143167205Y-70888277D01*
X143312155Y-70791424D01*
X143435424Y-70668155D01*
X143532277Y-70523205D01*
X143598990Y-70362145D01*
X143633000Y-70191165D01*
X143633000Y-70016835D01*
X143598990Y-69845855D01*
X143532277Y-69684795D01*
X143435424Y-69539845D01*
X143312155Y-69416576D01*
X143167205Y-69319723D01*
X143006145Y-69253010D01*
X142940739Y-69240000D01*
X144120000Y-69240000D01*
X144120000Y-76139810D01*
G37*
%TD.AperFunction*%
D20*
X142489855Y-69253010D02*
X142328795Y-69319723D01*
X142183845Y-69416576D01*
X142060576Y-69539845D01*
X141963723Y-69684795D01*
X141897010Y-69845855D01*
X141863000Y-70016835D01*
X141863000Y-70067555D01*
X141736145Y-70015010D01*
X141565165Y-69981000D01*
X141390835Y-69981000D01*
X141219855Y-70015010D01*
X141058795Y-70081723D01*
X141000013Y-70121000D01*
X122210590Y-70121000D01*
X122174000Y-70117396D01*
X122137410Y-70121000D01*
X122137408Y-70121000D01*
X122027955Y-70131780D01*
X121920206Y-70164465D01*
X121887521Y-70174380D01*
X121758097Y-70243559D01*
X121687076Y-70301845D01*
X121644657Y-70336657D01*
X121621331Y-70365080D01*
X112975411Y-79011000D01*
X110205987Y-79011000D01*
X110147205Y-78971723D01*
X109986145Y-78905010D01*
X109815165Y-78871000D01*
X109640835Y-78871000D01*
X109469855Y-78905010D01*
X109308795Y-78971723D01*
X109163845Y-79068576D01*
X109040576Y-79191845D01*
X108949000Y-79328897D01*
X108949000Y-77890835D01*
X109351000Y-77890835D01*
X109351000Y-78065165D01*
X109385010Y-78236145D01*
X109451723Y-78397205D01*
X109548576Y-78542155D01*
X109671845Y-78665424D01*
X109816795Y-78762277D01*
X109977855Y-78828990D01*
X110148835Y-78863000D01*
X110323165Y-78863000D01*
X110494145Y-78828990D01*
X110655205Y-78762277D01*
X110800155Y-78665424D01*
X110923424Y-78542155D01*
X111020277Y-78397205D01*
X111086990Y-78236145D01*
X111121000Y-78065165D01*
X111121000Y-77890835D01*
X111086990Y-77719855D01*
X111020277Y-77558795D01*
X110923424Y-77413845D01*
X110800155Y-77290576D01*
X110655205Y-77193723D01*
X110494145Y-77127010D01*
X110323165Y-77093000D01*
X110148835Y-77093000D01*
X109977855Y-77127010D01*
X109816795Y-77193723D01*
X109671845Y-77290576D01*
X109548576Y-77413845D01*
X109451723Y-77558795D01*
X109385010Y-77719855D01*
X109351000Y-77890835D01*
X108949000Y-77890835D01*
X108949000Y-76586588D01*
X108952604Y-76549998D01*
X108943557Y-76458145D01*
X108938220Y-76403953D01*
X108895620Y-76263520D01*
X108891568Y-76255939D01*
X108988277Y-76111205D01*
X109054990Y-75950145D01*
X109089000Y-75779165D01*
X109089000Y-75604835D01*
X109054990Y-75433855D01*
X108988277Y-75272795D01*
X108891424Y-75127845D01*
X108768155Y-75004576D01*
X108623205Y-74907723D01*
X108462145Y-74841010D01*
X108291165Y-74807000D01*
X108116835Y-74807000D01*
X107945855Y-74841010D01*
X107784795Y-74907723D01*
X107683199Y-74975608D01*
X106026911Y-73319320D01*
X106053557Y-73315728D01*
X106367527Y-73208069D01*
X106553661Y-73108579D01*
X106655461Y-72839066D01*
X105664000Y-71847605D01*
X105649858Y-71861748D01*
X105470253Y-71682143D01*
X105484395Y-71668000D01*
X105843605Y-71668000D01*
X106835066Y-72659461D01*
X107104579Y-72557661D01*
X107250463Y-72259523D01*
X107335380Y-71938654D01*
X107356066Y-71607383D01*
X107311728Y-71278443D01*
X107204069Y-70964473D01*
X107104579Y-70778339D01*
X106835066Y-70676539D01*
X105843605Y-71668000D01*
X105484395Y-71668000D01*
X104492934Y-70676539D01*
X104223421Y-70778339D01*
X104077537Y-71076477D01*
X103992620Y-71397346D01*
X103991297Y-71418540D01*
X103936047Y-71401780D01*
X103826594Y-71391000D01*
X103826592Y-71391000D01*
X103790002Y-71387396D01*
X103753412Y-71391000D01*
X79979987Y-71391000D01*
X79921205Y-71351723D01*
X79760145Y-71285010D01*
X79589165Y-71251000D01*
X79414835Y-71251000D01*
X79400000Y-71253951D01*
X79400000Y-70496934D01*
X104672539Y-70496934D01*
X105664000Y-71488395D01*
X106655461Y-70496934D01*
X106553661Y-70227421D01*
X106255523Y-70081537D01*
X105934654Y-69996620D01*
X105603383Y-69975934D01*
X105274443Y-70020272D01*
X104960473Y-70127931D01*
X104774339Y-70227421D01*
X104672539Y-70496934D01*
X79400000Y-70496934D01*
X79400000Y-69240000D01*
X142555261Y-69240000D01*
X142489855Y-69253010D01*
%TA.AperFunction,Conductor*%
D21*
G36*
X142489855Y-69253010D02*
G01*
X142328795Y-69319723D01*
X142183845Y-69416576D01*
X142060576Y-69539845D01*
X141963723Y-69684795D01*
X141897010Y-69845855D01*
X141863000Y-70016835D01*
X141863000Y-70067555D01*
X141736145Y-70015010D01*
X141565165Y-69981000D01*
X141390835Y-69981000D01*
X141219855Y-70015010D01*
X141058795Y-70081723D01*
X141000013Y-70121000D01*
X122210590Y-70121000D01*
X122174000Y-70117396D01*
X122137410Y-70121000D01*
X122137408Y-70121000D01*
X122027955Y-70131780D01*
X121920206Y-70164465D01*
X121887521Y-70174380D01*
X121758097Y-70243559D01*
X121687076Y-70301845D01*
X121644657Y-70336657D01*
X121621331Y-70365080D01*
X112975411Y-79011000D01*
X110205987Y-79011000D01*
X110147205Y-78971723D01*
X109986145Y-78905010D01*
X109815165Y-78871000D01*
X109640835Y-78871000D01*
X109469855Y-78905010D01*
X109308795Y-78971723D01*
X109163845Y-79068576D01*
X109040576Y-79191845D01*
X108949000Y-79328897D01*
X108949000Y-77890835D01*
X109351000Y-77890835D01*
X109351000Y-78065165D01*
X109385010Y-78236145D01*
X109451723Y-78397205D01*
X109548576Y-78542155D01*
X109671845Y-78665424D01*
X109816795Y-78762277D01*
X109977855Y-78828990D01*
X110148835Y-78863000D01*
X110323165Y-78863000D01*
X110494145Y-78828990D01*
X110655205Y-78762277D01*
X110800155Y-78665424D01*
X110923424Y-78542155D01*
X111020277Y-78397205D01*
X111086990Y-78236145D01*
X111121000Y-78065165D01*
X111121000Y-77890835D01*
X111086990Y-77719855D01*
X111020277Y-77558795D01*
X110923424Y-77413845D01*
X110800155Y-77290576D01*
X110655205Y-77193723D01*
X110494145Y-77127010D01*
X110323165Y-77093000D01*
X110148835Y-77093000D01*
X109977855Y-77127010D01*
X109816795Y-77193723D01*
X109671845Y-77290576D01*
X109548576Y-77413845D01*
X109451723Y-77558795D01*
X109385010Y-77719855D01*
X109351000Y-77890835D01*
X108949000Y-77890835D01*
X108949000Y-76586588D01*
X108952604Y-76549998D01*
X108943557Y-76458145D01*
X108938220Y-76403953D01*
X108895620Y-76263520D01*
X108891568Y-76255939D01*
X108988277Y-76111205D01*
X109054990Y-75950145D01*
X109089000Y-75779165D01*
X109089000Y-75604835D01*
X109054990Y-75433855D01*
X108988277Y-75272795D01*
X108891424Y-75127845D01*
X108768155Y-75004576D01*
X108623205Y-74907723D01*
X108462145Y-74841010D01*
X108291165Y-74807000D01*
X108116835Y-74807000D01*
X107945855Y-74841010D01*
X107784795Y-74907723D01*
X107683199Y-74975608D01*
X106026911Y-73319320D01*
X106053557Y-73315728D01*
X106367527Y-73208069D01*
X106553661Y-73108579D01*
X106655461Y-72839066D01*
X105664000Y-71847605D01*
X105649858Y-71861748D01*
X105470253Y-71682143D01*
X105484395Y-71668000D01*
X105843605Y-71668000D01*
X106835066Y-72659461D01*
X107104579Y-72557661D01*
X107250463Y-72259523D01*
X107335380Y-71938654D01*
X107356066Y-71607383D01*
X107311728Y-71278443D01*
X107204069Y-70964473D01*
X107104579Y-70778339D01*
X106835066Y-70676539D01*
X105843605Y-71668000D01*
X105484395Y-71668000D01*
X104492934Y-70676539D01*
X104223421Y-70778339D01*
X104077537Y-71076477D01*
X103992620Y-71397346D01*
X103991297Y-71418540D01*
X103936047Y-71401780D01*
X103826594Y-71391000D01*
X103826592Y-71391000D01*
X103790002Y-71387396D01*
X103753412Y-71391000D01*
X79979987Y-71391000D01*
X79921205Y-71351723D01*
X79760145Y-71285010D01*
X79589165Y-71251000D01*
X79414835Y-71251000D01*
X79400000Y-71253951D01*
X79400000Y-70496934D01*
X104672539Y-70496934D01*
X105664000Y-71488395D01*
X106655461Y-70496934D01*
X106553661Y-70227421D01*
X106255523Y-70081537D01*
X105934654Y-69996620D01*
X105603383Y-69975934D01*
X105274443Y-70020272D01*
X104960473Y-70127931D01*
X104774339Y-70227421D01*
X104672539Y-70496934D01*
X79400000Y-70496934D01*
X79400000Y-69240000D01*
X142555261Y-69240000D01*
X142489855Y-69253010D01*
G37*
%TD.AperFunction*%
%TD*%
M02*
