M48
; DRILL file {KiCad (5.1.7)-1} date 11/25/20 11:18:55
; FORMAT={-:-/ absolute / metric / decimal}
; #@! TF.CreationDate,2020-11-25T11:18:55-08:00
; #@! TF.GenerationSoftware,Kicad,Pcbnew,(5.1.7)-1
; #@! TF.FileFunction,Plated,1,2,PTH
FMAT,2
METRIC
T1C0.320
T2C1.000
%
G90
G05
T1
X88.9Y-77.597
X89.789Y-114.808
X95.504Y-113.665
X95.758Y-103.378
X95.885Y-120.523
X96.012Y-117.221
X96.266Y-84.709
X96.52Y-121.793
X96.774Y-104.902
X97.028Y-114.808
X98.418Y-104.334
X99.441Y-103.124
X99.695Y-117.221
X99.695Y-122.428
X99.949Y-123.698
X100.139Y-106.617
X100.457Y-102.362
X101.854Y-98.044
X103.251Y-93.218
X104.14Y-118.999
X105.283Y-106.172
X106.172Y-77.597
X106.68Y-93.726
X107.315Y-109.22
X107.569Y-100.711
X108.458Y-94.488
X108.979Y-105.143
X110.617Y-75.946
X113.03Y-92.075
X113.779Y-113.424
X113.919Y-102.108
X114.016Y-126.62
X115.344Y-96.52
X115.697Y-120.523
X121.526Y-120.536
X123.587Y-83.7
X124.236Y-126.62
X128.905Y-108.331
X129.413Y-107.315
X134.62Y-115.951
T2
X101.473Y-127.127
X104.013Y-127.127
X106.553Y-127.127
X109.093Y-127.127
X88.773Y-98.425
X91.313Y-98.425
X125.476Y-116.586
X120.904Y-109.728
X114.808Y-116.586
X88.773Y-102.235
X91.313Y-102.235
X119.126Y-116.586
X121.666Y-116.586
X85.09Y-76.327
X85.09Y-78.867
X85.09Y-81.407
X85.09Y-83.947
X85.09Y-86.487
X85.09Y-89.027
X85.09Y-91.567
X85.09Y-94.107
X85.09Y-96.647
X85.09Y-99.187
X85.09Y-101.727
X85.09Y-104.267
X85.09Y-106.807
X85.09Y-109.347
X85.09Y-111.887
X85.09Y-114.427
X85.09Y-116.967
X85.09Y-119.507
X85.09Y-122.047
X85.09Y-124.587
X127.635Y-127.127
X130.175Y-127.127
X132.715Y-127.127
X135.255Y-127.127
X88.773Y-106.045
X91.313Y-106.045
X113.792Y-100.33
X116.332Y-100.33
X118.872Y-100.33
X121.412Y-100.33
X123.952Y-100.33
X126.492Y-100.33
X129.032Y-100.33
X131.572Y-100.33
X94.996Y-127.127
X97.536Y-127.127
X88.773Y-109.855
X91.313Y-109.855
X139.446Y-76.581
X139.446Y-79.121
X139.446Y-81.661
X139.446Y-84.201
X139.446Y-86.741
X139.446Y-89.281
X139.446Y-91.821
X139.446Y-94.361
X139.446Y-96.901
X139.446Y-99.441
X139.446Y-101.981
X139.446Y-104.521
X139.446Y-107.061
X139.446Y-109.601
X139.446Y-112.141
X139.446Y-114.681
X139.446Y-117.221
X139.446Y-119.761
X139.446Y-122.301
X139.446Y-124.841
T0
M30
