%TF.GenerationSoftware,KiCad,Pcbnew,(5.1.7)-1*%
%TF.CreationDate,2020-11-25T11:44:14-08:00*%
%TF.ProjectId,esp32_sensor,65737033-325f-4736-956e-736f722e6b69,v0.0.3b*%
%TF.SameCoordinates,Original*%
%TF.FileFunction,Legend,Top*%
%TF.FilePolarity,Positive*%
%FSLAX46Y46*%
G04 Gerber Fmt 4.6, Leading zero omitted, Abs format (unit mm)*
G04 Created by KiCad (PCBNEW (5.1.7)-1) date 2020-11-25 11:44:14*
%MOMM*%
%LPD*%
G01*
G04 APERTURE LIST*
%ADD10C,0.100000*%
%ADD11C,0.152400*%
%ADD12C,0.120000*%
%ADD13C,0.127000*%
%ADD14C,0.203200*%
%ADD15C,0.200000*%
%ADD16C,0.080000*%
%ADD17C,0.150000*%
%ADD18C,0.070000*%
%ADD19C,0.015000*%
%ADD20C,0.060000*%
G04 APERTURE END LIST*
D10*
X94684857Y-113066723D02*
X94722952Y-112952438D01*
X94761047Y-112914342D01*
X94837238Y-112876247D01*
X94951523Y-112876247D01*
X95027714Y-112914342D01*
X95065809Y-112952438D01*
X95103904Y-113028628D01*
X95103904Y-113333390D01*
X94303904Y-113333390D01*
X94303904Y-113066723D01*
X94342000Y-112990533D01*
X94380095Y-112952438D01*
X94456285Y-112914342D01*
X94532476Y-112914342D01*
X94608666Y-112952438D01*
X94646761Y-112990533D01*
X94684857Y-113066723D01*
X94684857Y-113333390D01*
X95103904Y-112533390D02*
X94570571Y-112533390D01*
X94722952Y-112533390D02*
X94646761Y-112495295D01*
X94608666Y-112457200D01*
X94570571Y-112381009D01*
X94570571Y-112304819D01*
X95103904Y-112038152D02*
X94570571Y-112038152D01*
X94303904Y-112038152D02*
X94342000Y-112076247D01*
X94380095Y-112038152D01*
X94342000Y-112000057D01*
X94303904Y-112038152D01*
X94380095Y-112038152D01*
X95103904Y-111314342D02*
X94303904Y-111314342D01*
X95065809Y-111314342D02*
X95103904Y-111390533D01*
X95103904Y-111542914D01*
X95065809Y-111619104D01*
X95027714Y-111657200D01*
X94951523Y-111695295D01*
X94722952Y-111695295D01*
X94646761Y-111657200D01*
X94608666Y-111619104D01*
X94570571Y-111542914D01*
X94570571Y-111390533D01*
X94608666Y-111314342D01*
X94570571Y-110590533D02*
X95218190Y-110590533D01*
X95294380Y-110628628D01*
X95332476Y-110666723D01*
X95370571Y-110742914D01*
X95370571Y-110857200D01*
X95332476Y-110933390D01*
X95065809Y-110590533D02*
X95103904Y-110666723D01*
X95103904Y-110819104D01*
X95065809Y-110895295D01*
X95027714Y-110933390D01*
X94951523Y-110971485D01*
X94722952Y-110971485D01*
X94646761Y-110933390D01*
X94608666Y-110895295D01*
X94570571Y-110819104D01*
X94570571Y-110666723D01*
X94608666Y-110590533D01*
X95065809Y-109904819D02*
X95103904Y-109981009D01*
X95103904Y-110133390D01*
X95065809Y-110209580D01*
X94989619Y-110247676D01*
X94684857Y-110247676D01*
X94608666Y-110209580D01*
X94570571Y-110133390D01*
X94570571Y-109981009D01*
X94608666Y-109904819D01*
X94684857Y-109866723D01*
X94761047Y-109866723D01*
X94837238Y-110247676D01*
X94570571Y-108914342D02*
X95370571Y-108914342D01*
X94608666Y-108914342D02*
X94570571Y-108838152D01*
X94570571Y-108685771D01*
X94608666Y-108609580D01*
X94646761Y-108571485D01*
X94722952Y-108533390D01*
X94951523Y-108533390D01*
X95027714Y-108571485D01*
X95065809Y-108609580D01*
X95103904Y-108685771D01*
X95103904Y-108838152D01*
X95065809Y-108914342D01*
X95103904Y-108190533D02*
X94570571Y-108190533D01*
X94303904Y-108190533D02*
X94342000Y-108228628D01*
X94380095Y-108190533D01*
X94342000Y-108152438D01*
X94303904Y-108190533D01*
X94380095Y-108190533D01*
X94570571Y-107809580D02*
X95103904Y-107809580D01*
X94646761Y-107809580D02*
X94608666Y-107771485D01*
X94570571Y-107695295D01*
X94570571Y-107581009D01*
X94608666Y-107504819D01*
X94684857Y-107466723D01*
X95103904Y-107466723D01*
X95065809Y-107123866D02*
X95103904Y-107047676D01*
X95103904Y-106895295D01*
X95065809Y-106819104D01*
X94989619Y-106781009D01*
X94951523Y-106781009D01*
X94875333Y-106819104D01*
X94837238Y-106895295D01*
X94837238Y-107009580D01*
X94799142Y-107085771D01*
X94722952Y-107123866D01*
X94684857Y-107123866D01*
X94608666Y-107085771D01*
X94570571Y-107009580D01*
X94570571Y-106895295D01*
X94608666Y-106819104D01*
X94570571Y-105942914D02*
X94570571Y-105638152D01*
X94303904Y-105828628D02*
X94989619Y-105828628D01*
X95065809Y-105790533D01*
X95103904Y-105714342D01*
X95103904Y-105638152D01*
X95103904Y-105257200D02*
X95065809Y-105333390D01*
X95027714Y-105371485D01*
X94951523Y-105409580D01*
X94722952Y-105409580D01*
X94646761Y-105371485D01*
X94608666Y-105333390D01*
X94570571Y-105257200D01*
X94570571Y-105142914D01*
X94608666Y-105066723D01*
X94646761Y-105028628D01*
X94722952Y-104990533D01*
X94951523Y-104990533D01*
X95027714Y-105028628D01*
X95065809Y-105066723D01*
X95103904Y-105142914D01*
X95103904Y-105257200D01*
X95065809Y-103695295D02*
X95103904Y-103771485D01*
X95103904Y-103923866D01*
X95065809Y-104000057D01*
X95027714Y-104038152D01*
X94951523Y-104076247D01*
X94722952Y-104076247D01*
X94646761Y-104038152D01*
X94608666Y-104000057D01*
X94570571Y-103923866D01*
X94570571Y-103771485D01*
X94608666Y-103695295D01*
X95103904Y-103238152D02*
X95065809Y-103314342D01*
X95027714Y-103352438D01*
X94951523Y-103390533D01*
X94722952Y-103390533D01*
X94646761Y-103352438D01*
X94608666Y-103314342D01*
X94570571Y-103238152D01*
X94570571Y-103123866D01*
X94608666Y-103047676D01*
X94646761Y-103009580D01*
X94722952Y-102971485D01*
X94951523Y-102971485D01*
X95027714Y-103009580D01*
X95065809Y-103047676D01*
X95103904Y-103123866D01*
X95103904Y-103238152D01*
X94570571Y-102628628D02*
X95103904Y-102628628D01*
X94646761Y-102628628D02*
X94608666Y-102590533D01*
X94570571Y-102514342D01*
X94570571Y-102400057D01*
X94608666Y-102323866D01*
X94684857Y-102285771D01*
X95103904Y-102285771D01*
X94570571Y-101904819D02*
X95103904Y-101904819D01*
X94646761Y-101904819D02*
X94608666Y-101866723D01*
X94570571Y-101790533D01*
X94570571Y-101676247D01*
X94608666Y-101600057D01*
X94684857Y-101561961D01*
X95103904Y-101561961D01*
X95065809Y-100876247D02*
X95103904Y-100952438D01*
X95103904Y-101104819D01*
X95065809Y-101181009D01*
X94989619Y-101219104D01*
X94684857Y-101219104D01*
X94608666Y-101181009D01*
X94570571Y-101104819D01*
X94570571Y-100952438D01*
X94608666Y-100876247D01*
X94684857Y-100838152D01*
X94761047Y-100838152D01*
X94837238Y-101219104D01*
X95065809Y-100152438D02*
X95103904Y-100228628D01*
X95103904Y-100381009D01*
X95065809Y-100457200D01*
X95027714Y-100495295D01*
X94951523Y-100533390D01*
X94722952Y-100533390D01*
X94646761Y-100495295D01*
X94608666Y-100457200D01*
X94570571Y-100381009D01*
X94570571Y-100228628D01*
X94608666Y-100152438D01*
X94570571Y-99923866D02*
X94570571Y-99619104D01*
X94303904Y-99809580D02*
X94989619Y-99809580D01*
X95065809Y-99771485D01*
X95103904Y-99695295D01*
X95103904Y-99619104D01*
X94684857Y-98742914D02*
X94684857Y-98476247D01*
X95103904Y-98361961D02*
X95103904Y-98742914D01*
X94303904Y-98742914D01*
X94303904Y-98361961D01*
X95065809Y-98057200D02*
X95103904Y-97942914D01*
X95103904Y-97752438D01*
X95065809Y-97676247D01*
X95027714Y-97638152D01*
X94951523Y-97600057D01*
X94875333Y-97600057D01*
X94799142Y-97638152D01*
X94761047Y-97676247D01*
X94722952Y-97752438D01*
X94684857Y-97904819D01*
X94646761Y-97981009D01*
X94608666Y-98019104D01*
X94532476Y-98057200D01*
X94456285Y-98057200D01*
X94380095Y-98019104D01*
X94342000Y-97981009D01*
X94303904Y-97904819D01*
X94303904Y-97714342D01*
X94342000Y-97600057D01*
X95103904Y-97257200D02*
X94303904Y-97257200D01*
X94303904Y-96952438D01*
X94342000Y-96876247D01*
X94380095Y-96838152D01*
X94456285Y-96800057D01*
X94570571Y-96800057D01*
X94646761Y-96838152D01*
X94684857Y-96876247D01*
X94722952Y-96952438D01*
X94722952Y-97257200D01*
X94303904Y-96533390D02*
X94303904Y-96038152D01*
X94608666Y-96304819D01*
X94608666Y-96190533D01*
X94646761Y-96114342D01*
X94684857Y-96076247D01*
X94761047Y-96038152D01*
X94951523Y-96038152D01*
X95027714Y-96076247D01*
X95065809Y-96114342D01*
X95103904Y-96190533D01*
X95103904Y-96419104D01*
X95065809Y-96495295D01*
X95027714Y-96533390D01*
X94380095Y-95733390D02*
X94342000Y-95695295D01*
X94303904Y-95619104D01*
X94303904Y-95428628D01*
X94342000Y-95352438D01*
X94380095Y-95314342D01*
X94456285Y-95276247D01*
X94532476Y-95276247D01*
X94646761Y-95314342D01*
X95103904Y-95771485D01*
X95103904Y-95276247D01*
X94570571Y-94438152D02*
X94570571Y-94133390D01*
X94303904Y-94323866D02*
X94989619Y-94323866D01*
X95065809Y-94285771D01*
X95103904Y-94209580D01*
X95103904Y-94133390D01*
X95103904Y-93752438D02*
X95065809Y-93828628D01*
X95027714Y-93866723D01*
X94951523Y-93904819D01*
X94722952Y-93904819D01*
X94646761Y-93866723D01*
X94608666Y-93828628D01*
X94570571Y-93752438D01*
X94570571Y-93638152D01*
X94608666Y-93561961D01*
X94646761Y-93523866D01*
X94722952Y-93485771D01*
X94951523Y-93485771D01*
X95027714Y-93523866D01*
X95065809Y-93561961D01*
X95103904Y-93638152D01*
X95103904Y-93752438D01*
X95103904Y-92533390D02*
X94303904Y-92533390D01*
X95103904Y-92152438D02*
X94303904Y-92152438D01*
X94875333Y-91885771D01*
X94303904Y-91619104D01*
X95103904Y-91619104D01*
X94303904Y-91238152D02*
X94951523Y-91238152D01*
X95027714Y-91200057D01*
X95065809Y-91161961D01*
X95103904Y-91085771D01*
X95103904Y-90933390D01*
X95065809Y-90857200D01*
X95027714Y-90819104D01*
X94951523Y-90781009D01*
X94303904Y-90781009D01*
D11*
%TO.C,CP_ESP_1*%
X99695000Y-70358000D02*
X92837000Y-70358000D01*
X92837000Y-70358000D02*
X92837000Y-72844660D01*
X92837000Y-77216000D02*
X99695000Y-77216000D01*
X99695000Y-77216000D02*
X99695000Y-74729340D01*
X99695000Y-72844660D02*
X99695000Y-70358000D01*
X92837000Y-74729340D02*
X92837000Y-77216000D01*
D12*
%TO.C,J_PW_2*%
X93666000Y-128457000D02*
X93666000Y-127127000D01*
X94996000Y-128457000D02*
X93666000Y-128457000D01*
X96266000Y-128457000D02*
X96266000Y-125797000D01*
X96266000Y-125797000D02*
X98866000Y-125797000D01*
X96266000Y-128457000D02*
X98866000Y-128457000D01*
X98866000Y-128457000D02*
X98866000Y-125797000D01*
%TO.C,U_ESP_1*%
X115467000Y-93555000D02*
X115467000Y-94335000D01*
X115467000Y-94335000D02*
X116467000Y-94335000D01*
X133707000Y-93555000D02*
X133707000Y-94335000D01*
X133707000Y-94335000D02*
X132707000Y-94335000D01*
X115467000Y-68590000D02*
X133707000Y-68590000D01*
X133707000Y-68590000D02*
X133707000Y-75010000D01*
X115467000Y-68590000D02*
X115467000Y-75010000D01*
X115467000Y-75010000D02*
X115087000Y-75010000D01*
D13*
%TO.C,C_ESP_1*%
X103066000Y-79017000D02*
X103066000Y-78717000D01*
X102166000Y-79017000D02*
X102166000Y-78717000D01*
D12*
%TO.C,J_7*%
X92643000Y-108525000D02*
X92643000Y-109855000D01*
X91313000Y-108525000D02*
X92643000Y-108525000D01*
X90043000Y-108525000D02*
X90043000Y-111185000D01*
X90043000Y-111185000D02*
X87443000Y-111185000D01*
X90043000Y-108525000D02*
X87443000Y-108525000D01*
X87443000Y-108525000D02*
X87443000Y-111185000D01*
%TO.C,J_6*%
X87443000Y-107375000D02*
X87443000Y-106045000D01*
X88773000Y-107375000D02*
X87443000Y-107375000D01*
X90043000Y-107375000D02*
X90043000Y-104715000D01*
X90043000Y-104715000D02*
X92643000Y-104715000D01*
X90043000Y-107375000D02*
X92643000Y-107375000D01*
X92643000Y-107375000D02*
X92643000Y-104715000D01*
%TO.C,J_5*%
X92643000Y-100905000D02*
X92643000Y-102235000D01*
X91313000Y-100905000D02*
X92643000Y-100905000D01*
X90043000Y-100905000D02*
X90043000Y-103565000D01*
X90043000Y-103565000D02*
X87443000Y-103565000D01*
X90043000Y-100905000D02*
X87443000Y-100905000D01*
X87443000Y-100905000D02*
X87443000Y-103565000D01*
%TO.C,J_4*%
X87443000Y-99755000D02*
X87443000Y-98425000D01*
X88773000Y-99755000D02*
X87443000Y-99755000D01*
X90043000Y-99755000D02*
X90043000Y-97095000D01*
X90043000Y-97095000D02*
X92643000Y-97095000D01*
X90043000Y-99755000D02*
X92643000Y-99755000D01*
X92643000Y-99755000D02*
X92643000Y-97095000D01*
%TO.C,J_3*%
X112462000Y-101660000D02*
X112462000Y-100330000D01*
X113792000Y-101660000D02*
X112462000Y-101660000D01*
X115062000Y-101660000D02*
X115062000Y-99000000D01*
X115062000Y-99000000D02*
X132902000Y-99000000D01*
X115062000Y-101660000D02*
X132902000Y-101660000D01*
X132902000Y-101660000D02*
X132902000Y-99000000D01*
%TO.C,J_2*%
X139446000Y-75251000D02*
X140776000Y-75251000D01*
X140776000Y-75251000D02*
X140776000Y-76581000D01*
X140776000Y-77851000D02*
X140776000Y-126171000D01*
X138116000Y-126171000D02*
X140776000Y-126171000D01*
X138116000Y-77851000D02*
X138116000Y-126171000D01*
X138116000Y-77851000D02*
X140776000Y-77851000D01*
%TO.C,J_1*%
X85090000Y-74997000D02*
X86420000Y-74997000D01*
X86420000Y-74997000D02*
X86420000Y-76327000D01*
X86420000Y-77597000D02*
X86420000Y-125917000D01*
X83760000Y-125917000D02*
X86420000Y-125917000D01*
X83760000Y-77597000D02*
X83760000Y-125917000D01*
X83760000Y-77597000D02*
X86420000Y-77597000D01*
%TO.C,LED_ESP_1*%
X128805000Y-120104000D02*
X128805000Y-122389000D01*
X128805000Y-122389000D02*
X130275000Y-122389000D01*
X130275000Y-122389000D02*
X130275000Y-120104000D01*
%TO.C,J_PW_3*%
X119574000Y-108398000D02*
X120904000Y-108398000D01*
X119574000Y-109728000D02*
X119574000Y-108398000D01*
X119574000Y-110998000D02*
X122234000Y-110998000D01*
X122234000Y-110998000D02*
X122234000Y-111058000D01*
X119574000Y-110998000D02*
X119574000Y-111058000D01*
X119574000Y-111058000D02*
X122234000Y-111058000D01*
%TO.C,J_PW_1*%
X117796000Y-117916000D02*
X117796000Y-116586000D01*
X119126000Y-117916000D02*
X117796000Y-117916000D01*
X120396000Y-117916000D02*
X120396000Y-115256000D01*
X120396000Y-115256000D02*
X122996000Y-115256000D01*
X120396000Y-117916000D02*
X122996000Y-117916000D01*
X122996000Y-117916000D02*
X122996000Y-115256000D01*
%TO.C,J_CN_4*%
X116138000Y-117916000D02*
X114808000Y-117916000D01*
X116138000Y-116586000D02*
X116138000Y-117916000D01*
X116138000Y-115316000D02*
X113478000Y-115316000D01*
X113478000Y-115316000D02*
X113478000Y-115256000D01*
X116138000Y-115316000D02*
X116138000Y-115256000D01*
X116138000Y-115256000D02*
X113478000Y-115256000D01*
%TO.C,J_CN_3*%
X126806000Y-117916000D02*
X125476000Y-117916000D01*
X126806000Y-116586000D02*
X126806000Y-117916000D01*
X126806000Y-115316000D02*
X124146000Y-115316000D01*
X124146000Y-115316000D02*
X124146000Y-115256000D01*
X126806000Y-115316000D02*
X126806000Y-115256000D01*
X126806000Y-115256000D02*
X124146000Y-115256000D01*
%TO.C,J_CN_2*%
X100143000Y-128457000D02*
X100143000Y-127127000D01*
X101473000Y-128457000D02*
X100143000Y-128457000D01*
X102743000Y-128457000D02*
X102743000Y-125797000D01*
X102743000Y-125797000D02*
X110423000Y-125797000D01*
X102743000Y-128457000D02*
X110423000Y-128457000D01*
X110423000Y-128457000D02*
X110423000Y-125797000D01*
%TO.C,J_CN_1*%
X126305000Y-128457000D02*
X126305000Y-127127000D01*
X127635000Y-128457000D02*
X126305000Y-128457000D01*
X128905000Y-128457000D02*
X128905000Y-125797000D01*
X128905000Y-125797000D02*
X136585000Y-125797000D01*
X128905000Y-128457000D02*
X136585000Y-128457000D01*
X136585000Y-128457000D02*
X136585000Y-125797000D01*
D11*
%TO.C,U_PW_1*%
X101881745Y-121198136D02*
G75*
G03*
X101845199Y-121341200I-36546J-66864D01*
G01*
D14*
%TO.C,D_PW_3*%
X116190000Y-107554000D02*
X117490000Y-107554000D01*
X117490000Y-107554000D02*
X117490000Y-106154000D01*
X117490000Y-107954000D02*
X117490000Y-107554000D01*
X116190000Y-107554000D02*
X116190000Y-106154000D01*
X116190000Y-107954000D02*
X116190000Y-107554000D01*
%TO.C,D_PW_1*%
X111902000Y-115832000D02*
X110602000Y-115832000D01*
X110602000Y-115832000D02*
X110602000Y-117232000D01*
X110602000Y-115432000D02*
X110602000Y-115832000D01*
X111902000Y-115832000D02*
X111902000Y-117232000D01*
X111902000Y-115432000D02*
X111902000Y-115832000D01*
D11*
%TO.C,C_PW_2*%
X90413002Y-125795551D02*
X90413002Y-126680449D01*
X92466998Y-126680449D02*
X92466998Y-125795551D01*
D13*
%TO.C,C_PW_4*%
X104625000Y-116644000D02*
X104925000Y-116644000D01*
X104625000Y-117544000D02*
X104925000Y-117544000D01*
D11*
%TO.C,C_PW_5*%
X112333551Y-106944998D02*
X113218449Y-106944998D01*
X113218449Y-104891002D02*
X112333551Y-104891002D01*
D14*
%TO.C,D_PW_2*%
X107173000Y-119391000D02*
X107173000Y-118991000D01*
X107173000Y-118991000D02*
X107173000Y-117591000D01*
X108473000Y-119391000D02*
X108473000Y-118991000D01*
X108473000Y-118991000D02*
X108473000Y-117591000D01*
X107173000Y-118991000D02*
X108473000Y-118991000D01*
D11*
%TO.C,L_PW_1*%
X100641150Y-114515900D02*
X103104950Y-114515900D01*
X103104950Y-112814100D02*
X100641150Y-112814100D01*
X99688650Y-113665000D02*
G75*
G03*
X99688650Y-113665000I-76200J0D01*
G01*
%TO.C,Q_PW_1*%
X113601500Y-111079760D02*
X113601500Y-110408240D01*
X113601500Y-109105700D02*
X111950500Y-109105700D01*
X111950500Y-109105700D02*
X111950500Y-110127260D01*
X111950500Y-112382300D02*
X113601500Y-112382300D01*
X111950500Y-111360740D02*
X111950500Y-112382300D01*
X114211100Y-113525300D02*
G75*
G03*
X114211100Y-113525300I-127000J0D01*
G01*
D13*
%TO.C,R_ESP_2*%
X89425000Y-83127000D02*
X89645000Y-83127000D01*
X89425000Y-82227000D02*
X89645000Y-82227000D01*
%TO.C,R_ESP_4*%
X126856000Y-106876000D02*
X126636000Y-106876000D01*
X126856000Y-105976000D02*
X126636000Y-105976000D01*
%TO.C,R_IMU_1*%
X97859000Y-106824000D02*
X97859000Y-107044000D01*
X96959000Y-106824000D02*
X96959000Y-107044000D01*
%TO.C,R_IMU_2*%
X97859000Y-110854000D02*
X97859000Y-110634000D01*
X96959000Y-110854000D02*
X96959000Y-110634000D01*
%TO.C,R_PW_1*%
X110802000Y-120286000D02*
X110802000Y-120506000D01*
X111702000Y-120286000D02*
X111702000Y-120506000D01*
%TO.C,R_PW_2*%
X91244000Y-118855000D02*
X91244000Y-118635000D01*
X92144000Y-118855000D02*
X92144000Y-118635000D01*
%TO.C,R_PW_3*%
X91244000Y-115587000D02*
X91244000Y-115807000D01*
X92144000Y-115587000D02*
X92144000Y-115807000D01*
%TO.C,R_PW_4*%
X94038000Y-118855000D02*
X94038000Y-118635000D01*
X94938000Y-118855000D02*
X94938000Y-118635000D01*
D11*
%TO.C,SW_ESP_1*%
X98189914Y-79032100D02*
X94850086Y-79032100D01*
X94145100Y-80635041D02*
X94145100Y-82178959D01*
X94850086Y-83781900D02*
X98189914Y-83781900D01*
X98894900Y-82178959D02*
X98894900Y-80635041D01*
X101011900Y-83007001D02*
G75*
G03*
X101011900Y-83007001I-203200J0D01*
G01*
%TO.C,SW_ESP_2*%
X135682900Y-113741001D02*
G75*
G03*
X135682900Y-113741001I-203200J0D01*
G01*
X133565900Y-112912959D02*
X133565900Y-111369041D01*
X129521086Y-114515900D02*
X132860914Y-114515900D01*
X128816100Y-111369041D02*
X128816100Y-112912959D01*
X132860914Y-109766100D02*
X129521086Y-109766100D01*
D10*
%TO.C,U_IMU_1*%
X102090000Y-101108000D02*
G75*
G03*
X102090000Y-101108000I-50000J0D01*
G01*
D13*
X102990000Y-100808000D02*
X102590000Y-100808000D01*
X105690000Y-100808000D02*
X105290000Y-100808000D01*
X102590000Y-103408000D02*
X102990000Y-103408000D01*
X105690000Y-103408000D02*
X105290000Y-103408000D01*
D15*
%TO.C,U_CN_1*%
X114656000Y-127980000D02*
X114656000Y-129470000D01*
X114656000Y-129470000D02*
X123596000Y-129470000D01*
X123596000Y-129470000D02*
X123596000Y-127980000D01*
X114656000Y-124050000D02*
X114656000Y-125260000D01*
X123596000Y-124050000D02*
X123596000Y-125260000D01*
X115446000Y-120960000D02*
G75*
G03*
X115446000Y-120960000I-100000J0D01*
G01*
%TO.C,CP_ESP_1*%
D16*
X88582714Y-72477285D02*
X88554142Y-72505857D01*
X88468428Y-72534428D01*
X88411285Y-72534428D01*
X88325571Y-72505857D01*
X88268428Y-72448714D01*
X88239857Y-72391571D01*
X88211285Y-72277285D01*
X88211285Y-72191571D01*
X88239857Y-72077285D01*
X88268428Y-72020142D01*
X88325571Y-71963000D01*
X88411285Y-71934428D01*
X88468428Y-71934428D01*
X88554142Y-71963000D01*
X88582714Y-71991571D01*
X88839857Y-72534428D02*
X88839857Y-71934428D01*
X89068428Y-71934428D01*
X89125571Y-71963000D01*
X89154142Y-71991571D01*
X89182714Y-72048714D01*
X89182714Y-72134428D01*
X89154142Y-72191571D01*
X89125571Y-72220142D01*
X89068428Y-72248714D01*
X88839857Y-72248714D01*
X89297000Y-72591571D02*
X89754142Y-72591571D01*
X89897000Y-72220142D02*
X90097000Y-72220142D01*
X90182714Y-72534428D02*
X89897000Y-72534428D01*
X89897000Y-71934428D01*
X90182714Y-71934428D01*
X90411285Y-72505857D02*
X90497000Y-72534428D01*
X90639857Y-72534428D01*
X90697000Y-72505857D01*
X90725571Y-72477285D01*
X90754142Y-72420142D01*
X90754142Y-72363000D01*
X90725571Y-72305857D01*
X90697000Y-72277285D01*
X90639857Y-72248714D01*
X90525571Y-72220142D01*
X90468428Y-72191571D01*
X90439857Y-72163000D01*
X90411285Y-72105857D01*
X90411285Y-72048714D01*
X90439857Y-71991571D01*
X90468428Y-71963000D01*
X90525571Y-71934428D01*
X90668428Y-71934428D01*
X90754142Y-71963000D01*
X91011285Y-72534428D02*
X91011285Y-71934428D01*
X91239857Y-71934428D01*
X91297000Y-71963000D01*
X91325571Y-71991571D01*
X91354142Y-72048714D01*
X91354142Y-72134428D01*
X91325571Y-72191571D01*
X91297000Y-72220142D01*
X91239857Y-72248714D01*
X91011285Y-72248714D01*
X91468428Y-72591571D02*
X91925571Y-72591571D01*
X92382714Y-72534428D02*
X92039857Y-72534428D01*
X92211285Y-72534428D02*
X92211285Y-71934428D01*
X92154142Y-72020142D01*
X92097000Y-72077285D01*
X92039857Y-72105857D01*
D17*
X96266000Y-73620380D02*
X96266000Y-73858476D01*
X96027904Y-73763238D02*
X96266000Y-73858476D01*
X96504095Y-73763238D01*
X96123142Y-74048952D02*
X96266000Y-73858476D01*
X96408857Y-74048952D01*
X101371447Y-74950628D02*
X102133352Y-74950628D01*
X101752400Y-75331580D02*
X101752400Y-74569676D01*
%TO.C,J_PW_2*%
D18*
X94650761Y-124464000D02*
X94603142Y-124440190D01*
X94531714Y-124440190D01*
X94460285Y-124464000D01*
X94412666Y-124511619D01*
X94388857Y-124559238D01*
X94365047Y-124654476D01*
X94365047Y-124725904D01*
X94388857Y-124821142D01*
X94412666Y-124868761D01*
X94460285Y-124916380D01*
X94531714Y-124940190D01*
X94579333Y-124940190D01*
X94650761Y-124916380D01*
X94674571Y-124892571D01*
X94674571Y-124725904D01*
X94579333Y-124725904D01*
X94888857Y-124606857D02*
X94888857Y-124940190D01*
X94888857Y-124654476D02*
X94912666Y-124630666D01*
X94960285Y-124606857D01*
X95031714Y-124606857D01*
X95079333Y-124630666D01*
X95103142Y-124678285D01*
X95103142Y-124940190D01*
X95341238Y-124940190D02*
X95341238Y-124440190D01*
X95460285Y-124440190D01*
X95531714Y-124464000D01*
X95579333Y-124511619D01*
X95603142Y-124559238D01*
X95626952Y-124654476D01*
X95626952Y-124725904D01*
X95603142Y-124821142D01*
X95579333Y-124868761D01*
X95531714Y-124916380D01*
X95460285Y-124940190D01*
X95341238Y-124940190D01*
X97043952Y-124567190D02*
X97210619Y-125067190D01*
X97377285Y-124567190D01*
X97758238Y-125067190D02*
X97758238Y-124567190D01*
X97758238Y-125043380D02*
X97710619Y-125067190D01*
X97615380Y-125067190D01*
X97567761Y-125043380D01*
X97543952Y-125019571D01*
X97520142Y-124971952D01*
X97520142Y-124829095D01*
X97543952Y-124781476D01*
X97567761Y-124757666D01*
X97615380Y-124733857D01*
X97710619Y-124733857D01*
X97758238Y-124757666D01*
X98210619Y-125067190D02*
X98210619Y-124567190D01*
X98210619Y-125043380D02*
X98163000Y-125067190D01*
X98067761Y-125067190D01*
X98020142Y-125043380D01*
X97996333Y-125019571D01*
X97972523Y-124971952D01*
X97972523Y-124829095D01*
X97996333Y-124781476D01*
X98020142Y-124757666D01*
X98067761Y-124733857D01*
X98163000Y-124733857D01*
X98210619Y-124757666D01*
%TO.C,C_ESP_1*%
D19*
X104038556Y-80433309D02*
X104015981Y-80455884D01*
X103948257Y-80478458D01*
X103903108Y-80478458D01*
X103835384Y-80455884D01*
X103790235Y-80410735D01*
X103767660Y-80365585D01*
X103745086Y-80275287D01*
X103745086Y-80207563D01*
X103767660Y-80117264D01*
X103790235Y-80072115D01*
X103835384Y-80026966D01*
X103903108Y-80004391D01*
X103948257Y-80004391D01*
X104015981Y-80026966D01*
X104038556Y-80049541D01*
X104128854Y-80523608D02*
X104490048Y-80523608D01*
X104602921Y-80230138D02*
X104760944Y-80230138D01*
X104828668Y-80478458D02*
X104602921Y-80478458D01*
X104602921Y-80004391D01*
X104828668Y-80004391D01*
X105009264Y-80455884D02*
X105076988Y-80478458D01*
X105189861Y-80478458D01*
X105235011Y-80455884D01*
X105257585Y-80433309D01*
X105280160Y-80388160D01*
X105280160Y-80343011D01*
X105257585Y-80297861D01*
X105235011Y-80275287D01*
X105189861Y-80252712D01*
X105099563Y-80230138D01*
X105054414Y-80207563D01*
X105031839Y-80184988D01*
X105009264Y-80139839D01*
X105009264Y-80094690D01*
X105031839Y-80049541D01*
X105054414Y-80026966D01*
X105099563Y-80004391D01*
X105212436Y-80004391D01*
X105280160Y-80026966D01*
X105483331Y-80478458D02*
X105483331Y-80004391D01*
X105663928Y-80004391D01*
X105709078Y-80026966D01*
X105731652Y-80049541D01*
X105754227Y-80094690D01*
X105754227Y-80162414D01*
X105731652Y-80207563D01*
X105709078Y-80230138D01*
X105663928Y-80252712D01*
X105483331Y-80252712D01*
X105844525Y-80523608D02*
X106205719Y-80523608D01*
X106566913Y-80478458D02*
X106296018Y-80478458D01*
X106431465Y-80478458D02*
X106431465Y-80004391D01*
X106386316Y-80072115D01*
X106341167Y-80117264D01*
X106296018Y-80139839D01*
%TO.C,J_7*%
D20*
X93754552Y-110880380D02*
X93354552Y-110880380D01*
X93754552Y-110689904D02*
X93354552Y-110689904D01*
X93640266Y-110556571D01*
X93354552Y-110423238D01*
X93754552Y-110423238D01*
X93354552Y-110232761D02*
X93678361Y-110232761D01*
X93716457Y-110213714D01*
X93735504Y-110194666D01*
X93754552Y-110156571D01*
X93754552Y-110080380D01*
X93735504Y-110042285D01*
X93716457Y-110023238D01*
X93678361Y-110004190D01*
X93354552Y-110004190D01*
X93792647Y-109908952D02*
X93792647Y-109604190D01*
X93735504Y-109528000D02*
X93754552Y-109470857D01*
X93754552Y-109375619D01*
X93735504Y-109337523D01*
X93716457Y-109318476D01*
X93678361Y-109299428D01*
X93640266Y-109299428D01*
X93602171Y-109318476D01*
X93583123Y-109337523D01*
X93564076Y-109375619D01*
X93545028Y-109451809D01*
X93525980Y-109489904D01*
X93506933Y-109508952D01*
X93468838Y-109528000D01*
X93430742Y-109528000D01*
X93392647Y-109508952D01*
X93373600Y-109489904D01*
X93354552Y-109451809D01*
X93354552Y-109356571D01*
X93373600Y-109299428D01*
X93754552Y-109128000D02*
X93354552Y-109128000D01*
X93354552Y-109032761D01*
X93373600Y-108975619D01*
X93411695Y-108937523D01*
X93449790Y-108918476D01*
X93525980Y-108899428D01*
X93583123Y-108899428D01*
X93659314Y-108918476D01*
X93697409Y-108937523D01*
X93735504Y-108975619D01*
X93754552Y-109032761D01*
X93754552Y-109128000D01*
X93640266Y-108747047D02*
X93640266Y-108556571D01*
X93754552Y-108785142D02*
X93354552Y-108651809D01*
X93754552Y-108518476D01*
%TO.C,J_6*%
X93754552Y-107213257D02*
X93354552Y-107213257D01*
X93754552Y-107022780D02*
X93354552Y-107022780D01*
X93640266Y-106889447D01*
X93354552Y-106756114D01*
X93754552Y-106756114D01*
X93354552Y-106565638D02*
X93678361Y-106565638D01*
X93716457Y-106546590D01*
X93735504Y-106527542D01*
X93754552Y-106489447D01*
X93754552Y-106413257D01*
X93735504Y-106375161D01*
X93716457Y-106356114D01*
X93678361Y-106337066D01*
X93354552Y-106337066D01*
X93792647Y-106241828D02*
X93792647Y-105937066D01*
X93735504Y-105860876D02*
X93754552Y-105803733D01*
X93754552Y-105708495D01*
X93735504Y-105670400D01*
X93716457Y-105651352D01*
X93678361Y-105632304D01*
X93640266Y-105632304D01*
X93602171Y-105651352D01*
X93583123Y-105670400D01*
X93564076Y-105708495D01*
X93545028Y-105784685D01*
X93525980Y-105822780D01*
X93506933Y-105841828D01*
X93468838Y-105860876D01*
X93430742Y-105860876D01*
X93392647Y-105841828D01*
X93373600Y-105822780D01*
X93354552Y-105784685D01*
X93354552Y-105689447D01*
X93373600Y-105632304D01*
X93716457Y-105232304D02*
X93735504Y-105251352D01*
X93754552Y-105308495D01*
X93754552Y-105346590D01*
X93735504Y-105403733D01*
X93697409Y-105441828D01*
X93659314Y-105460876D01*
X93583123Y-105479923D01*
X93525980Y-105479923D01*
X93449790Y-105460876D01*
X93411695Y-105441828D01*
X93373600Y-105403733D01*
X93354552Y-105346590D01*
X93354552Y-105308495D01*
X93373600Y-105251352D01*
X93392647Y-105232304D01*
X93754552Y-104870400D02*
X93754552Y-105060876D01*
X93354552Y-105060876D01*
%TO.C,J_5*%
X93779952Y-103473095D02*
X93379952Y-103473095D01*
X93779952Y-103282619D02*
X93379952Y-103282619D01*
X93665666Y-103149285D01*
X93379952Y-103015952D01*
X93779952Y-103015952D01*
X93379952Y-102825476D02*
X93703761Y-102825476D01*
X93741857Y-102806428D01*
X93760904Y-102787380D01*
X93779952Y-102749285D01*
X93779952Y-102673095D01*
X93760904Y-102635000D01*
X93741857Y-102615952D01*
X93703761Y-102596904D01*
X93379952Y-102596904D01*
X93818047Y-102501666D02*
X93818047Y-102196904D01*
X93779952Y-102101666D02*
X93379952Y-102101666D01*
X93779952Y-101911190D02*
X93379952Y-101911190D01*
X93779952Y-101682619D01*
X93379952Y-101682619D01*
X93379952Y-101549285D02*
X93379952Y-101320714D01*
X93779952Y-101435000D02*
X93379952Y-101435000D01*
X93779952Y-100977857D02*
X93779952Y-101206428D01*
X93779952Y-101092142D02*
X93379952Y-101092142D01*
X93437095Y-101130238D01*
X93475190Y-101168333D01*
X93494238Y-101206428D01*
%TO.C,J_4*%
X93779952Y-99663095D02*
X93379952Y-99663095D01*
X93779952Y-99472619D02*
X93379952Y-99472619D01*
X93665666Y-99339285D01*
X93379952Y-99205952D01*
X93779952Y-99205952D01*
X93379952Y-99015476D02*
X93703761Y-99015476D01*
X93741857Y-98996428D01*
X93760904Y-98977380D01*
X93779952Y-98939285D01*
X93779952Y-98863095D01*
X93760904Y-98825000D01*
X93741857Y-98805952D01*
X93703761Y-98786904D01*
X93379952Y-98786904D01*
X93818047Y-98691666D02*
X93818047Y-98386904D01*
X93779952Y-98291666D02*
X93379952Y-98291666D01*
X93779952Y-98101190D02*
X93379952Y-98101190D01*
X93779952Y-97872619D01*
X93379952Y-97872619D01*
X93379952Y-97739285D02*
X93379952Y-97510714D01*
X93779952Y-97625000D02*
X93379952Y-97625000D01*
X93418047Y-97396428D02*
X93399000Y-97377380D01*
X93379952Y-97339285D01*
X93379952Y-97244047D01*
X93399000Y-97205952D01*
X93418047Y-97186904D01*
X93456142Y-97167857D01*
X93494238Y-97167857D01*
X93551380Y-97186904D01*
X93779952Y-97415476D01*
X93779952Y-97167857D01*
%TO.C,J_3*%
D18*
X113034047Y-102818380D02*
X113105476Y-102842190D01*
X113224523Y-102842190D01*
X113272142Y-102818380D01*
X113295952Y-102794571D01*
X113319761Y-102746952D01*
X113319761Y-102699333D01*
X113295952Y-102651714D01*
X113272142Y-102627904D01*
X113224523Y-102604095D01*
X113129285Y-102580285D01*
X113081666Y-102556476D01*
X113057857Y-102532666D01*
X113034047Y-102485047D01*
X113034047Y-102437428D01*
X113057857Y-102389809D01*
X113081666Y-102366000D01*
X113129285Y-102342190D01*
X113248333Y-102342190D01*
X113319761Y-102366000D01*
X113534047Y-102842190D02*
X113534047Y-102342190D01*
X113653095Y-102342190D01*
X113724523Y-102366000D01*
X113772142Y-102413619D01*
X113795952Y-102461238D01*
X113819761Y-102556476D01*
X113819761Y-102627904D01*
X113795952Y-102723142D01*
X113772142Y-102770761D01*
X113724523Y-102818380D01*
X113653095Y-102842190D01*
X113534047Y-102842190D01*
X114010238Y-102389809D02*
X114034047Y-102366000D01*
X114081666Y-102342190D01*
X114200714Y-102342190D01*
X114248333Y-102366000D01*
X114272142Y-102389809D01*
X114295952Y-102437428D01*
X114295952Y-102485047D01*
X114272142Y-102556476D01*
X113986428Y-102842190D01*
X114295952Y-102842190D01*
X115701047Y-102818380D02*
X115772476Y-102842190D01*
X115891523Y-102842190D01*
X115939142Y-102818380D01*
X115962952Y-102794571D01*
X115986761Y-102746952D01*
X115986761Y-102699333D01*
X115962952Y-102651714D01*
X115939142Y-102627904D01*
X115891523Y-102604095D01*
X115796285Y-102580285D01*
X115748666Y-102556476D01*
X115724857Y-102532666D01*
X115701047Y-102485047D01*
X115701047Y-102437428D01*
X115724857Y-102389809D01*
X115748666Y-102366000D01*
X115796285Y-102342190D01*
X115915333Y-102342190D01*
X115986761Y-102366000D01*
X116201047Y-102842190D02*
X116201047Y-102342190D01*
X116320095Y-102342190D01*
X116391523Y-102366000D01*
X116439142Y-102413619D01*
X116462952Y-102461238D01*
X116486761Y-102556476D01*
X116486761Y-102627904D01*
X116462952Y-102723142D01*
X116439142Y-102770761D01*
X116391523Y-102818380D01*
X116320095Y-102842190D01*
X116201047Y-102842190D01*
X116653428Y-102342190D02*
X116962952Y-102342190D01*
X116796285Y-102532666D01*
X116867714Y-102532666D01*
X116915333Y-102556476D01*
X116939142Y-102580285D01*
X116962952Y-102627904D01*
X116962952Y-102746952D01*
X116939142Y-102794571D01*
X116915333Y-102818380D01*
X116867714Y-102842190D01*
X116724857Y-102842190D01*
X116677238Y-102818380D01*
X116653428Y-102794571D01*
X118491047Y-102794571D02*
X118467238Y-102818380D01*
X118395809Y-102842190D01*
X118348190Y-102842190D01*
X118276761Y-102818380D01*
X118229142Y-102770761D01*
X118205333Y-102723142D01*
X118181523Y-102627904D01*
X118181523Y-102556476D01*
X118205333Y-102461238D01*
X118229142Y-102413619D01*
X118276761Y-102366000D01*
X118348190Y-102342190D01*
X118395809Y-102342190D01*
X118467238Y-102366000D01*
X118491047Y-102389809D01*
X118705333Y-102842190D02*
X118705333Y-102342190D01*
X118872000Y-102699333D01*
X119038666Y-102342190D01*
X119038666Y-102842190D01*
X119276761Y-102842190D02*
X119276761Y-102342190D01*
X119395809Y-102342190D01*
X119467238Y-102366000D01*
X119514857Y-102413619D01*
X119538666Y-102461238D01*
X119562476Y-102556476D01*
X119562476Y-102627904D01*
X119538666Y-102723142D01*
X119514857Y-102770761D01*
X119467238Y-102818380D01*
X119395809Y-102842190D01*
X119276761Y-102842190D01*
X121066761Y-102366000D02*
X121019142Y-102342190D01*
X120947714Y-102342190D01*
X120876285Y-102366000D01*
X120828666Y-102413619D01*
X120804857Y-102461238D01*
X120781047Y-102556476D01*
X120781047Y-102627904D01*
X120804857Y-102723142D01*
X120828666Y-102770761D01*
X120876285Y-102818380D01*
X120947714Y-102842190D01*
X120995333Y-102842190D01*
X121066761Y-102818380D01*
X121090571Y-102794571D01*
X121090571Y-102627904D01*
X120995333Y-102627904D01*
X121304857Y-102508857D02*
X121304857Y-102842190D01*
X121304857Y-102556476D02*
X121328666Y-102532666D01*
X121376285Y-102508857D01*
X121447714Y-102508857D01*
X121495333Y-102532666D01*
X121519142Y-102580285D01*
X121519142Y-102842190D01*
X121757238Y-102842190D02*
X121757238Y-102342190D01*
X121876285Y-102342190D01*
X121947714Y-102366000D01*
X121995333Y-102413619D01*
X122019142Y-102461238D01*
X122042952Y-102556476D01*
X122042952Y-102627904D01*
X122019142Y-102723142D01*
X121995333Y-102770761D01*
X121947714Y-102818380D01*
X121876285Y-102842190D01*
X121757238Y-102842190D01*
X123340904Y-102342190D02*
X123650428Y-102342190D01*
X123483761Y-102532666D01*
X123555190Y-102532666D01*
X123602809Y-102556476D01*
X123626619Y-102580285D01*
X123650428Y-102627904D01*
X123650428Y-102746952D01*
X123626619Y-102794571D01*
X123602809Y-102818380D01*
X123555190Y-102842190D01*
X123412333Y-102842190D01*
X123364714Y-102818380D01*
X123340904Y-102794571D01*
X123864714Y-102794571D02*
X123888523Y-102818380D01*
X123864714Y-102842190D01*
X123840904Y-102818380D01*
X123864714Y-102794571D01*
X123864714Y-102842190D01*
X124055190Y-102342190D02*
X124364714Y-102342190D01*
X124198047Y-102532666D01*
X124269476Y-102532666D01*
X124317095Y-102556476D01*
X124340904Y-102580285D01*
X124364714Y-102627904D01*
X124364714Y-102746952D01*
X124340904Y-102794571D01*
X124317095Y-102818380D01*
X124269476Y-102842190D01*
X124126619Y-102842190D01*
X124079000Y-102818380D01*
X124055190Y-102794571D01*
X124507571Y-102342190D02*
X124674238Y-102842190D01*
X124840904Y-102342190D01*
X126194380Y-102794571D02*
X126170571Y-102818380D01*
X126099142Y-102842190D01*
X126051523Y-102842190D01*
X125980095Y-102818380D01*
X125932476Y-102770761D01*
X125908666Y-102723142D01*
X125884857Y-102627904D01*
X125884857Y-102556476D01*
X125908666Y-102461238D01*
X125932476Y-102413619D01*
X125980095Y-102366000D01*
X126051523Y-102342190D01*
X126099142Y-102342190D01*
X126170571Y-102366000D01*
X126194380Y-102389809D01*
X126646761Y-102842190D02*
X126408666Y-102842190D01*
X126408666Y-102342190D01*
X126813428Y-102842190D02*
X126813428Y-102342190D01*
X127099142Y-102842190D02*
X126884857Y-102556476D01*
X127099142Y-102342190D02*
X126813428Y-102627904D01*
X128401047Y-102818380D02*
X128472476Y-102842190D01*
X128591523Y-102842190D01*
X128639142Y-102818380D01*
X128662952Y-102794571D01*
X128686761Y-102746952D01*
X128686761Y-102699333D01*
X128662952Y-102651714D01*
X128639142Y-102627904D01*
X128591523Y-102604095D01*
X128496285Y-102580285D01*
X128448666Y-102556476D01*
X128424857Y-102532666D01*
X128401047Y-102485047D01*
X128401047Y-102437428D01*
X128424857Y-102389809D01*
X128448666Y-102366000D01*
X128496285Y-102342190D01*
X128615333Y-102342190D01*
X128686761Y-102366000D01*
X128901047Y-102842190D02*
X128901047Y-102342190D01*
X129020095Y-102342190D01*
X129091523Y-102366000D01*
X129139142Y-102413619D01*
X129162952Y-102461238D01*
X129186761Y-102556476D01*
X129186761Y-102627904D01*
X129162952Y-102723142D01*
X129139142Y-102770761D01*
X129091523Y-102818380D01*
X129020095Y-102842190D01*
X128901047Y-102842190D01*
X129496285Y-102342190D02*
X129543904Y-102342190D01*
X129591523Y-102366000D01*
X129615333Y-102389809D01*
X129639142Y-102437428D01*
X129662952Y-102532666D01*
X129662952Y-102651714D01*
X129639142Y-102746952D01*
X129615333Y-102794571D01*
X129591523Y-102818380D01*
X129543904Y-102842190D01*
X129496285Y-102842190D01*
X129448666Y-102818380D01*
X129424857Y-102794571D01*
X129401047Y-102746952D01*
X129377238Y-102651714D01*
X129377238Y-102532666D01*
X129401047Y-102437428D01*
X129424857Y-102389809D01*
X129448666Y-102366000D01*
X129496285Y-102342190D01*
X131187095Y-102818380D02*
X131258523Y-102842190D01*
X131377571Y-102842190D01*
X131425190Y-102818380D01*
X131449000Y-102794571D01*
X131472809Y-102746952D01*
X131472809Y-102699333D01*
X131449000Y-102651714D01*
X131425190Y-102627904D01*
X131377571Y-102604095D01*
X131282333Y-102580285D01*
X131234714Y-102556476D01*
X131210904Y-102532666D01*
X131187095Y-102485047D01*
X131187095Y-102437428D01*
X131210904Y-102389809D01*
X131234714Y-102366000D01*
X131282333Y-102342190D01*
X131401380Y-102342190D01*
X131472809Y-102366000D01*
X131687095Y-102842190D02*
X131687095Y-102342190D01*
X131806142Y-102342190D01*
X131877571Y-102366000D01*
X131925190Y-102413619D01*
X131949000Y-102461238D01*
X131972809Y-102556476D01*
X131972809Y-102627904D01*
X131949000Y-102723142D01*
X131925190Y-102770761D01*
X131877571Y-102818380D01*
X131806142Y-102842190D01*
X131687095Y-102842190D01*
X132187095Y-102842190D02*
X132187095Y-102342190D01*
%TO.C,J_2*%
D17*
X138731714Y-73263380D02*
X138731714Y-73977666D01*
X138684095Y-74120523D01*
X138588857Y-74215761D01*
X138446000Y-74263380D01*
X138350761Y-74263380D01*
X138969809Y-74358619D02*
X139731714Y-74358619D01*
X139922190Y-73358619D02*
X139969809Y-73311000D01*
X140065047Y-73263380D01*
X140303142Y-73263380D01*
X140398380Y-73311000D01*
X140446000Y-73358619D01*
X140493619Y-73453857D01*
X140493619Y-73549095D01*
X140446000Y-73691952D01*
X139874571Y-74263380D01*
X140493619Y-74263380D01*
%TO.C,J_1*%
X84375714Y-73009380D02*
X84375714Y-73723666D01*
X84328095Y-73866523D01*
X84232857Y-73961761D01*
X84090000Y-74009380D01*
X83994761Y-74009380D01*
X84613809Y-74104619D02*
X85375714Y-74104619D01*
X86137619Y-74009380D02*
X85566190Y-74009380D01*
X85851904Y-74009380D02*
X85851904Y-73009380D01*
X85756666Y-73152238D01*
X85661428Y-73247476D01*
X85566190Y-73295095D01*
%TO.C,J_PW_3*%
D18*
X120165904Y-107041190D02*
X120475428Y-107041190D01*
X120308761Y-107231666D01*
X120380190Y-107231666D01*
X120427809Y-107255476D01*
X120451619Y-107279285D01*
X120475428Y-107326904D01*
X120475428Y-107445952D01*
X120451619Y-107493571D01*
X120427809Y-107517380D01*
X120380190Y-107541190D01*
X120237333Y-107541190D01*
X120189714Y-107517380D01*
X120165904Y-107493571D01*
X120689714Y-107493571D02*
X120713523Y-107517380D01*
X120689714Y-107541190D01*
X120665904Y-107517380D01*
X120689714Y-107493571D01*
X120689714Y-107541190D01*
X120880190Y-107041190D02*
X121189714Y-107041190D01*
X121023047Y-107231666D01*
X121094476Y-107231666D01*
X121142095Y-107255476D01*
X121165904Y-107279285D01*
X121189714Y-107326904D01*
X121189714Y-107445952D01*
X121165904Y-107493571D01*
X121142095Y-107517380D01*
X121094476Y-107541190D01*
X120951619Y-107541190D01*
X120904000Y-107517380D01*
X120880190Y-107493571D01*
X121332571Y-107041190D02*
X121499238Y-107541190D01*
X121665904Y-107041190D01*
%TO.C,J_PW_1*%
X118364095Y-114026190D02*
X118530761Y-114526190D01*
X118697428Y-114026190D01*
X118864095Y-114526190D02*
X118864095Y-114026190D01*
X118864095Y-114216666D02*
X118911714Y-114192857D01*
X119006952Y-114192857D01*
X119054571Y-114216666D01*
X119078380Y-114240476D01*
X119102190Y-114288095D01*
X119102190Y-114430952D01*
X119078380Y-114478571D01*
X119054571Y-114502380D01*
X119006952Y-114526190D01*
X118911714Y-114526190D01*
X118864095Y-114502380D01*
X119530761Y-114526190D02*
X119530761Y-114264285D01*
X119506952Y-114216666D01*
X119459333Y-114192857D01*
X119364095Y-114192857D01*
X119316476Y-114216666D01*
X119530761Y-114502380D02*
X119483142Y-114526190D01*
X119364095Y-114526190D01*
X119316476Y-114502380D01*
X119292666Y-114454761D01*
X119292666Y-114407142D01*
X119316476Y-114359523D01*
X119364095Y-114335714D01*
X119483142Y-114335714D01*
X119530761Y-114311904D01*
X119697428Y-114192857D02*
X119887904Y-114192857D01*
X119768857Y-114026190D02*
X119768857Y-114454761D01*
X119792666Y-114502380D01*
X119840285Y-114526190D01*
X119887904Y-114526190D01*
X121296952Y-114026190D02*
X121463619Y-114526190D01*
X121630285Y-114026190D01*
X121773142Y-114502380D02*
X121820761Y-114526190D01*
X121916000Y-114526190D01*
X121963619Y-114502380D01*
X121987428Y-114454761D01*
X121987428Y-114430952D01*
X121963619Y-114383333D01*
X121916000Y-114359523D01*
X121844571Y-114359523D01*
X121796952Y-114335714D01*
X121773142Y-114288095D01*
X121773142Y-114264285D01*
X121796952Y-114216666D01*
X121844571Y-114192857D01*
X121916000Y-114192857D01*
X121963619Y-114216666D01*
%TO.C,J_CN_4*%
X114462761Y-114050000D02*
X114415142Y-114026190D01*
X114343714Y-114026190D01*
X114272285Y-114050000D01*
X114224666Y-114097619D01*
X114200857Y-114145238D01*
X114177047Y-114240476D01*
X114177047Y-114311904D01*
X114200857Y-114407142D01*
X114224666Y-114454761D01*
X114272285Y-114502380D01*
X114343714Y-114526190D01*
X114391333Y-114526190D01*
X114462761Y-114502380D01*
X114486571Y-114478571D01*
X114486571Y-114311904D01*
X114391333Y-114311904D01*
X114700857Y-114192857D02*
X114700857Y-114526190D01*
X114700857Y-114240476D02*
X114724666Y-114216666D01*
X114772285Y-114192857D01*
X114843714Y-114192857D01*
X114891333Y-114216666D01*
X114915142Y-114264285D01*
X114915142Y-114526190D01*
X115153238Y-114526190D02*
X115153238Y-114026190D01*
X115272285Y-114026190D01*
X115343714Y-114050000D01*
X115391333Y-114097619D01*
X115415142Y-114145238D01*
X115438952Y-114240476D01*
X115438952Y-114311904D01*
X115415142Y-114407142D01*
X115391333Y-114454761D01*
X115343714Y-114502380D01*
X115272285Y-114526190D01*
X115153238Y-114526190D01*
%TO.C,J_CN_3*%
X125157752Y-114076990D02*
X125324419Y-114576990D01*
X125491085Y-114076990D01*
X125633942Y-114553180D02*
X125681561Y-114576990D01*
X125776800Y-114576990D01*
X125824419Y-114553180D01*
X125848228Y-114505561D01*
X125848228Y-114481752D01*
X125824419Y-114434133D01*
X125776800Y-114410323D01*
X125705371Y-114410323D01*
X125657752Y-114386514D01*
X125633942Y-114338895D01*
X125633942Y-114315085D01*
X125657752Y-114267466D01*
X125705371Y-114243657D01*
X125776800Y-114243657D01*
X125824419Y-114267466D01*
%TO.C,J_CN_2*%
X101115857Y-129369333D02*
X101353952Y-129369333D01*
X101068238Y-129512190D02*
X101234904Y-129012190D01*
X101401571Y-129512190D01*
X101782523Y-129012190D02*
X101687285Y-129012190D01*
X101639666Y-129036000D01*
X101615857Y-129059809D01*
X101568238Y-129131238D01*
X101544428Y-129226476D01*
X101544428Y-129416952D01*
X101568238Y-129464571D01*
X101592047Y-129488380D01*
X101639666Y-129512190D01*
X101734904Y-129512190D01*
X101782523Y-129488380D01*
X101806333Y-129464571D01*
X101830142Y-129416952D01*
X101830142Y-129297904D01*
X101806333Y-129250285D01*
X101782523Y-129226476D01*
X101734904Y-129202666D01*
X101639666Y-129202666D01*
X101592047Y-129226476D01*
X101568238Y-129250285D01*
X101544428Y-129297904D01*
X103810619Y-129250285D02*
X103882047Y-129274095D01*
X103905857Y-129297904D01*
X103929666Y-129345523D01*
X103929666Y-129416952D01*
X103905857Y-129464571D01*
X103882047Y-129488380D01*
X103834428Y-129512190D01*
X103643952Y-129512190D01*
X103643952Y-129012190D01*
X103810619Y-129012190D01*
X103858238Y-129036000D01*
X103882047Y-129059809D01*
X103905857Y-129107428D01*
X103905857Y-129155047D01*
X103882047Y-129202666D01*
X103858238Y-129226476D01*
X103810619Y-129250285D01*
X103643952Y-129250285D01*
X104096333Y-129012190D02*
X104429666Y-129012190D01*
X104215380Y-129512190D01*
X106195857Y-129369333D02*
X106433952Y-129369333D01*
X106148238Y-129512190D02*
X106314904Y-129012190D01*
X106481571Y-129512190D01*
X106886333Y-129012190D02*
X106648238Y-129012190D01*
X106624428Y-129250285D01*
X106648238Y-129226476D01*
X106695857Y-129202666D01*
X106814904Y-129202666D01*
X106862523Y-129226476D01*
X106886333Y-129250285D01*
X106910142Y-129297904D01*
X106910142Y-129416952D01*
X106886333Y-129464571D01*
X106862523Y-129488380D01*
X106814904Y-129512190D01*
X106695857Y-129512190D01*
X106648238Y-129488380D01*
X106624428Y-129464571D01*
X108890619Y-129250285D02*
X108962047Y-129274095D01*
X108985857Y-129297904D01*
X109009666Y-129345523D01*
X109009666Y-129416952D01*
X108985857Y-129464571D01*
X108962047Y-129488380D01*
X108914428Y-129512190D01*
X108723952Y-129512190D01*
X108723952Y-129012190D01*
X108890619Y-129012190D01*
X108938238Y-129036000D01*
X108962047Y-129059809D01*
X108985857Y-129107428D01*
X108985857Y-129155047D01*
X108962047Y-129202666D01*
X108938238Y-129226476D01*
X108890619Y-129250285D01*
X108723952Y-129250285D01*
X109295380Y-129226476D02*
X109247761Y-129202666D01*
X109223952Y-129178857D01*
X109200142Y-129131238D01*
X109200142Y-129107428D01*
X109223952Y-129059809D01*
X109247761Y-129036000D01*
X109295380Y-129012190D01*
X109390619Y-129012190D01*
X109438238Y-129036000D01*
X109462047Y-129059809D01*
X109485857Y-129107428D01*
X109485857Y-129131238D01*
X109462047Y-129178857D01*
X109438238Y-129202666D01*
X109390619Y-129226476D01*
X109295380Y-129226476D01*
X109247761Y-129250285D01*
X109223952Y-129274095D01*
X109200142Y-129321714D01*
X109200142Y-129416952D01*
X109223952Y-129464571D01*
X109247761Y-129488380D01*
X109295380Y-129512190D01*
X109390619Y-129512190D01*
X109438238Y-129488380D01*
X109462047Y-129464571D01*
X109485857Y-129416952D01*
X109485857Y-129321714D01*
X109462047Y-129274095D01*
X109438238Y-129250285D01*
X109390619Y-129226476D01*
%TO.C,J_CN_1*%
X127432619Y-129250285D02*
X127504047Y-129274095D01*
X127527857Y-129297904D01*
X127551666Y-129345523D01*
X127551666Y-129416952D01*
X127527857Y-129464571D01*
X127504047Y-129488380D01*
X127456428Y-129512190D01*
X127265952Y-129512190D01*
X127265952Y-129012190D01*
X127432619Y-129012190D01*
X127480238Y-129036000D01*
X127504047Y-129059809D01*
X127527857Y-129107428D01*
X127527857Y-129155047D01*
X127504047Y-129202666D01*
X127480238Y-129226476D01*
X127432619Y-129250285D01*
X127265952Y-129250285D01*
X128004047Y-129012190D02*
X127765952Y-129012190D01*
X127742142Y-129250285D01*
X127765952Y-129226476D01*
X127813571Y-129202666D01*
X127932619Y-129202666D01*
X127980238Y-129226476D01*
X128004047Y-129250285D01*
X128027857Y-129297904D01*
X128027857Y-129416952D01*
X128004047Y-129464571D01*
X127980238Y-129488380D01*
X127932619Y-129512190D01*
X127813571Y-129512190D01*
X127765952Y-129488380D01*
X127742142Y-129464571D01*
X129817857Y-129369333D02*
X130055952Y-129369333D01*
X129770238Y-129512190D02*
X129936904Y-129012190D01*
X130103571Y-129512190D01*
X130341666Y-129226476D02*
X130294047Y-129202666D01*
X130270238Y-129178857D01*
X130246428Y-129131238D01*
X130246428Y-129107428D01*
X130270238Y-129059809D01*
X130294047Y-129036000D01*
X130341666Y-129012190D01*
X130436904Y-129012190D01*
X130484523Y-129036000D01*
X130508333Y-129059809D01*
X130532142Y-129107428D01*
X130532142Y-129131238D01*
X130508333Y-129178857D01*
X130484523Y-129202666D01*
X130436904Y-129226476D01*
X130341666Y-129226476D01*
X130294047Y-129250285D01*
X130270238Y-129274095D01*
X130246428Y-129321714D01*
X130246428Y-129416952D01*
X130270238Y-129464571D01*
X130294047Y-129488380D01*
X130341666Y-129512190D01*
X130436904Y-129512190D01*
X130484523Y-129488380D01*
X130508333Y-129464571D01*
X130532142Y-129416952D01*
X130532142Y-129321714D01*
X130508333Y-129274095D01*
X130484523Y-129250285D01*
X130436904Y-129226476D01*
X132512619Y-129250285D02*
X132584047Y-129274095D01*
X132607857Y-129297904D01*
X132631666Y-129345523D01*
X132631666Y-129416952D01*
X132607857Y-129464571D01*
X132584047Y-129488380D01*
X132536428Y-129512190D01*
X132345952Y-129512190D01*
X132345952Y-129012190D01*
X132512619Y-129012190D01*
X132560238Y-129036000D01*
X132584047Y-129059809D01*
X132607857Y-129107428D01*
X132607857Y-129155047D01*
X132584047Y-129202666D01*
X132560238Y-129226476D01*
X132512619Y-129250285D01*
X132345952Y-129250285D01*
X133060238Y-129012190D02*
X132965000Y-129012190D01*
X132917380Y-129036000D01*
X132893571Y-129059809D01*
X132845952Y-129131238D01*
X132822142Y-129226476D01*
X132822142Y-129416952D01*
X132845952Y-129464571D01*
X132869761Y-129488380D01*
X132917380Y-129512190D01*
X133012619Y-129512190D01*
X133060238Y-129488380D01*
X133084047Y-129464571D01*
X133107857Y-129416952D01*
X133107857Y-129297904D01*
X133084047Y-129250285D01*
X133060238Y-129226476D01*
X133012619Y-129202666D01*
X132917380Y-129202666D01*
X132869761Y-129226476D01*
X132845952Y-129250285D01*
X132822142Y-129297904D01*
X134770857Y-129369333D02*
X135008952Y-129369333D01*
X134723238Y-129512190D02*
X134889904Y-129012190D01*
X135056571Y-129512190D01*
X135175619Y-129012190D02*
X135508952Y-129012190D01*
X135294666Y-129512190D01*
%TO.C,U_PW_1*%
D16*
X98137857Y-117273428D02*
X98137857Y-117759142D01*
X98166428Y-117816285D01*
X98195000Y-117844857D01*
X98252142Y-117873428D01*
X98366428Y-117873428D01*
X98423571Y-117844857D01*
X98452142Y-117816285D01*
X98480714Y-117759142D01*
X98480714Y-117273428D01*
X98623571Y-117930571D02*
X99080714Y-117930571D01*
X99223571Y-117873428D02*
X99223571Y-117273428D01*
X99452142Y-117273428D01*
X99509285Y-117302000D01*
X99537857Y-117330571D01*
X99566428Y-117387714D01*
X99566428Y-117473428D01*
X99537857Y-117530571D01*
X99509285Y-117559142D01*
X99452142Y-117587714D01*
X99223571Y-117587714D01*
X99766428Y-117273428D02*
X99909285Y-117873428D01*
X100023571Y-117444857D01*
X100137857Y-117873428D01*
X100280714Y-117273428D01*
X100366428Y-117930571D02*
X100823571Y-117930571D01*
X101280714Y-117873428D02*
X100937857Y-117873428D01*
X101109285Y-117873428D02*
X101109285Y-117273428D01*
X101052142Y-117359142D01*
X100995000Y-117416285D01*
X100937857Y-117444857D01*
%TO.C,D_PW_3*%
D19*
X116270453Y-105046883D02*
X116270453Y-104726615D01*
X116346708Y-104726615D01*
X116392460Y-104741866D01*
X116422962Y-104772367D01*
X116438213Y-104802869D01*
X116453464Y-104863872D01*
X116453464Y-104909625D01*
X116438213Y-104970628D01*
X116422962Y-105001130D01*
X116392460Y-105031632D01*
X116346708Y-105046883D01*
X116270453Y-105046883D01*
X116514467Y-105077384D02*
X116758481Y-105077384D01*
X116834735Y-105046883D02*
X116834735Y-104726615D01*
X116956742Y-104726615D01*
X116987244Y-104741866D01*
X117002494Y-104757116D01*
X117017745Y-104787618D01*
X117017745Y-104833371D01*
X117002494Y-104863872D01*
X116987244Y-104879123D01*
X116956742Y-104894374D01*
X116834735Y-104894374D01*
X117124501Y-104726615D02*
X117200756Y-105046883D01*
X117261759Y-104818120D01*
X117322762Y-105046883D01*
X117399017Y-104726615D01*
X117444769Y-105077384D02*
X117688783Y-105077384D01*
X117734536Y-104726615D02*
X117932797Y-104726615D01*
X117826041Y-104848622D01*
X117871793Y-104848622D01*
X117902295Y-104863872D01*
X117917546Y-104879123D01*
X117932797Y-104909625D01*
X117932797Y-104985879D01*
X117917546Y-105016381D01*
X117902295Y-105031632D01*
X117871793Y-105046883D01*
X117780288Y-105046883D01*
X117749786Y-105031632D01*
X117734536Y-105016381D01*
%TO.C,C_PW_1*%
D18*
X109490000Y-124257571D02*
X109466190Y-124281380D01*
X109394761Y-124305190D01*
X109347142Y-124305190D01*
X109275714Y-124281380D01*
X109228095Y-124233761D01*
X109204285Y-124186142D01*
X109180476Y-124090904D01*
X109180476Y-124019476D01*
X109204285Y-123924238D01*
X109228095Y-123876619D01*
X109275714Y-123829000D01*
X109347142Y-123805190D01*
X109394761Y-123805190D01*
X109466190Y-123829000D01*
X109490000Y-123852809D01*
X109585238Y-124352809D02*
X109966190Y-124352809D01*
X110085238Y-124305190D02*
X110085238Y-123805190D01*
X110275714Y-123805190D01*
X110323333Y-123829000D01*
X110347142Y-123852809D01*
X110370952Y-123900428D01*
X110370952Y-123971857D01*
X110347142Y-124019476D01*
X110323333Y-124043285D01*
X110275714Y-124067095D01*
X110085238Y-124067095D01*
X110537619Y-123805190D02*
X110656666Y-124305190D01*
X110751904Y-123948047D01*
X110847142Y-124305190D01*
X110966190Y-123805190D01*
X111037619Y-124352809D02*
X111418571Y-124352809D01*
X111799523Y-124305190D02*
X111513809Y-124305190D01*
X111656666Y-124305190D02*
X111656666Y-123805190D01*
X111609047Y-123876619D01*
X111561428Y-123924238D01*
X111513809Y-123948047D01*
%TO.C,D_PW_1*%
D19*
X112617103Y-117282652D02*
X112296835Y-117282652D01*
X112296835Y-117206398D01*
X112312086Y-117160645D01*
X112342587Y-117130143D01*
X112373089Y-117114892D01*
X112434092Y-117099642D01*
X112479845Y-117099642D01*
X112540848Y-117114892D01*
X112571350Y-117130143D01*
X112601852Y-117160645D01*
X112617103Y-117206398D01*
X112617103Y-117282652D01*
X112647604Y-117038638D02*
X112647604Y-116794624D01*
X112617103Y-116718370D02*
X112296835Y-116718370D01*
X112296835Y-116596363D01*
X112312086Y-116565862D01*
X112327336Y-116550611D01*
X112357838Y-116535360D01*
X112403591Y-116535360D01*
X112434092Y-116550611D01*
X112449343Y-116565862D01*
X112464594Y-116596363D01*
X112464594Y-116718370D01*
X112296835Y-116428604D02*
X112617103Y-116352350D01*
X112388340Y-116291346D01*
X112617103Y-116230343D01*
X112296835Y-116154088D01*
X112647604Y-116108336D02*
X112647604Y-115864322D01*
X112617103Y-115620308D02*
X112617103Y-115803319D01*
X112617103Y-115711814D02*
X112296835Y-115711814D01*
X112342587Y-115742315D01*
X112373089Y-115772817D01*
X112388340Y-115803319D01*
%TO.C,C_IMU_1*%
X104822607Y-98216514D02*
X104841355Y-98235261D01*
X104860102Y-98291504D01*
X104860102Y-98329000D01*
X104841355Y-98385243D01*
X104803859Y-98422738D01*
X104766364Y-98441486D01*
X104691373Y-98460233D01*
X104635130Y-98460233D01*
X104560140Y-98441486D01*
X104522644Y-98422738D01*
X104485149Y-98385243D01*
X104466401Y-98329000D01*
X104466401Y-98291504D01*
X104485149Y-98235261D01*
X104503897Y-98216514D01*
X104897598Y-98141523D02*
X104897598Y-97841560D01*
X104860102Y-97747822D02*
X104466401Y-97747822D01*
X104860102Y-97560345D02*
X104466401Y-97560345D01*
X104747616Y-97429112D01*
X104466401Y-97297878D01*
X104860102Y-97297878D01*
X104466401Y-97110401D02*
X104785112Y-97110401D01*
X104822607Y-97091654D01*
X104841355Y-97072906D01*
X104860102Y-97035411D01*
X104860102Y-96960420D01*
X104841355Y-96922925D01*
X104822607Y-96904177D01*
X104785112Y-96885429D01*
X104466401Y-96885429D01*
X104897598Y-96791691D02*
X104897598Y-96491728D01*
X104860102Y-96191766D02*
X104860102Y-96416738D01*
X104860102Y-96304252D02*
X104466401Y-96304252D01*
X104522644Y-96341747D01*
X104560140Y-96379242D01*
X104578887Y-96416738D01*
%TO.C,C_IMU_2*%
X103806607Y-106344514D02*
X103825355Y-106363261D01*
X103844102Y-106419504D01*
X103844102Y-106457000D01*
X103825355Y-106513243D01*
X103787859Y-106550738D01*
X103750364Y-106569486D01*
X103675373Y-106588233D01*
X103619130Y-106588233D01*
X103544140Y-106569486D01*
X103506644Y-106550738D01*
X103469149Y-106513243D01*
X103450401Y-106457000D01*
X103450401Y-106419504D01*
X103469149Y-106363261D01*
X103487897Y-106344514D01*
X103881598Y-106269523D02*
X103881598Y-105969560D01*
X103844102Y-105875822D02*
X103450401Y-105875822D01*
X103844102Y-105688345D02*
X103450401Y-105688345D01*
X103731616Y-105557112D01*
X103450401Y-105425878D01*
X103844102Y-105425878D01*
X103450401Y-105238401D02*
X103769112Y-105238401D01*
X103806607Y-105219654D01*
X103825355Y-105200906D01*
X103844102Y-105163411D01*
X103844102Y-105088420D01*
X103825355Y-105050925D01*
X103806607Y-105032177D01*
X103769112Y-105013429D01*
X103450401Y-105013429D01*
X103881598Y-104919691D02*
X103881598Y-104619728D01*
X103487897Y-104544738D02*
X103469149Y-104525990D01*
X103450401Y-104488495D01*
X103450401Y-104394756D01*
X103469149Y-104357261D01*
X103487897Y-104338513D01*
X103525392Y-104319766D01*
X103562887Y-104319766D01*
X103619130Y-104338513D01*
X103844102Y-104563485D01*
X103844102Y-104319766D01*
%TO.C,C_IMU_3*%
X108886607Y-103550514D02*
X108905355Y-103569261D01*
X108924102Y-103625504D01*
X108924102Y-103663000D01*
X108905355Y-103719243D01*
X108867859Y-103756738D01*
X108830364Y-103775486D01*
X108755373Y-103794233D01*
X108699130Y-103794233D01*
X108624140Y-103775486D01*
X108586644Y-103756738D01*
X108549149Y-103719243D01*
X108530401Y-103663000D01*
X108530401Y-103625504D01*
X108549149Y-103569261D01*
X108567897Y-103550514D01*
X108961598Y-103475523D02*
X108961598Y-103175560D01*
X108924102Y-103081822D02*
X108530401Y-103081822D01*
X108924102Y-102894345D02*
X108530401Y-102894345D01*
X108811616Y-102763112D01*
X108530401Y-102631878D01*
X108924102Y-102631878D01*
X108530401Y-102444401D02*
X108849112Y-102444401D01*
X108886607Y-102425654D01*
X108905355Y-102406906D01*
X108924102Y-102369411D01*
X108924102Y-102294420D01*
X108905355Y-102256925D01*
X108886607Y-102238177D01*
X108849112Y-102219429D01*
X108530401Y-102219429D01*
X108961598Y-102125691D02*
X108961598Y-101825728D01*
X108530401Y-101769485D02*
X108530401Y-101525766D01*
X108680383Y-101656999D01*
X108680383Y-101600756D01*
X108699130Y-101563261D01*
X108717878Y-101544513D01*
X108755373Y-101525766D01*
X108849112Y-101525766D01*
X108886607Y-101544513D01*
X108905355Y-101563261D01*
X108924102Y-101600756D01*
X108924102Y-101713242D01*
X108905355Y-101750738D01*
X108886607Y-101769485D01*
%TO.C,C_PW_2*%
D18*
X89586571Y-127238000D02*
X89610380Y-127261809D01*
X89634190Y-127333238D01*
X89634190Y-127380857D01*
X89610380Y-127452285D01*
X89562761Y-127499904D01*
X89515142Y-127523714D01*
X89419904Y-127547523D01*
X89348476Y-127547523D01*
X89253238Y-127523714D01*
X89205619Y-127499904D01*
X89158000Y-127452285D01*
X89134190Y-127380857D01*
X89134190Y-127333238D01*
X89158000Y-127261809D01*
X89181809Y-127238000D01*
X89681809Y-127142761D02*
X89681809Y-126761809D01*
X89634190Y-126642761D02*
X89134190Y-126642761D01*
X89134190Y-126452285D01*
X89158000Y-126404666D01*
X89181809Y-126380857D01*
X89229428Y-126357047D01*
X89300857Y-126357047D01*
X89348476Y-126380857D01*
X89372285Y-126404666D01*
X89396095Y-126452285D01*
X89396095Y-126642761D01*
X89134190Y-126190380D02*
X89634190Y-126071333D01*
X89277047Y-125976095D01*
X89634190Y-125880857D01*
X89134190Y-125761809D01*
X89681809Y-125690380D02*
X89681809Y-125309428D01*
X89181809Y-125214190D02*
X89158000Y-125190380D01*
X89134190Y-125142761D01*
X89134190Y-125023714D01*
X89158000Y-124976095D01*
X89181809Y-124952285D01*
X89229428Y-124928476D01*
X89277047Y-124928476D01*
X89348476Y-124952285D01*
X89634190Y-125238000D01*
X89634190Y-124928476D01*
%TO.C,C_PW_3*%
X93742000Y-114732571D02*
X93718190Y-114756380D01*
X93646761Y-114780190D01*
X93599142Y-114780190D01*
X93527714Y-114756380D01*
X93480095Y-114708761D01*
X93456285Y-114661142D01*
X93432476Y-114565904D01*
X93432476Y-114494476D01*
X93456285Y-114399238D01*
X93480095Y-114351619D01*
X93527714Y-114304000D01*
X93599142Y-114280190D01*
X93646761Y-114280190D01*
X93718190Y-114304000D01*
X93742000Y-114327809D01*
X93837238Y-114827809D02*
X94218190Y-114827809D01*
X94337238Y-114780190D02*
X94337238Y-114280190D01*
X94527714Y-114280190D01*
X94575333Y-114304000D01*
X94599142Y-114327809D01*
X94622952Y-114375428D01*
X94622952Y-114446857D01*
X94599142Y-114494476D01*
X94575333Y-114518285D01*
X94527714Y-114542095D01*
X94337238Y-114542095D01*
X94789619Y-114280190D02*
X94908666Y-114780190D01*
X95003904Y-114423047D01*
X95099142Y-114780190D01*
X95218190Y-114280190D01*
X95289619Y-114827809D02*
X95670571Y-114827809D01*
X95742000Y-114280190D02*
X96051523Y-114280190D01*
X95884857Y-114470666D01*
X95956285Y-114470666D01*
X96003904Y-114494476D01*
X96027714Y-114518285D01*
X96051523Y-114565904D01*
X96051523Y-114684952D01*
X96027714Y-114732571D01*
X96003904Y-114756380D01*
X95956285Y-114780190D01*
X95813428Y-114780190D01*
X95765809Y-114756380D01*
X95742000Y-114732571D01*
%TO.C,C_PW_4*%
X103775000Y-116002571D02*
X103751190Y-116026380D01*
X103679761Y-116050190D01*
X103632142Y-116050190D01*
X103560714Y-116026380D01*
X103513095Y-115978761D01*
X103489285Y-115931142D01*
X103465476Y-115835904D01*
X103465476Y-115764476D01*
X103489285Y-115669238D01*
X103513095Y-115621619D01*
X103560714Y-115574000D01*
X103632142Y-115550190D01*
X103679761Y-115550190D01*
X103751190Y-115574000D01*
X103775000Y-115597809D01*
X103870238Y-116097809D02*
X104251190Y-116097809D01*
X104370238Y-116050190D02*
X104370238Y-115550190D01*
X104560714Y-115550190D01*
X104608333Y-115574000D01*
X104632142Y-115597809D01*
X104655952Y-115645428D01*
X104655952Y-115716857D01*
X104632142Y-115764476D01*
X104608333Y-115788285D01*
X104560714Y-115812095D01*
X104370238Y-115812095D01*
X104822619Y-115550190D02*
X104941666Y-116050190D01*
X105036904Y-115693047D01*
X105132142Y-116050190D01*
X105251190Y-115550190D01*
X105322619Y-116097809D02*
X105703571Y-116097809D01*
X106036904Y-115716857D02*
X106036904Y-116050190D01*
X105917857Y-115526380D02*
X105798809Y-115883523D01*
X106108333Y-115883523D01*
%TO.C,C_PW_5*%
X111776000Y-104318571D02*
X111752190Y-104342380D01*
X111680761Y-104366190D01*
X111633142Y-104366190D01*
X111561714Y-104342380D01*
X111514095Y-104294761D01*
X111490285Y-104247142D01*
X111466476Y-104151904D01*
X111466476Y-104080476D01*
X111490285Y-103985238D01*
X111514095Y-103937619D01*
X111561714Y-103890000D01*
X111633142Y-103866190D01*
X111680761Y-103866190D01*
X111752190Y-103890000D01*
X111776000Y-103913809D01*
X111871238Y-104413809D02*
X112252190Y-104413809D01*
X112371238Y-104366190D02*
X112371238Y-103866190D01*
X112561714Y-103866190D01*
X112609333Y-103890000D01*
X112633142Y-103913809D01*
X112656952Y-103961428D01*
X112656952Y-104032857D01*
X112633142Y-104080476D01*
X112609333Y-104104285D01*
X112561714Y-104128095D01*
X112371238Y-104128095D01*
X112823619Y-103866190D02*
X112942666Y-104366190D01*
X113037904Y-104009047D01*
X113133142Y-104366190D01*
X113252190Y-103866190D01*
X113323619Y-104413809D02*
X113704571Y-104413809D01*
X114061714Y-103866190D02*
X113823619Y-103866190D01*
X113799809Y-104104285D01*
X113823619Y-104080476D01*
X113871238Y-104056666D01*
X113990285Y-104056666D01*
X114037904Y-104080476D01*
X114061714Y-104104285D01*
X114085523Y-104151904D01*
X114085523Y-104270952D01*
X114061714Y-104318571D01*
X114037904Y-104342380D01*
X113990285Y-104366190D01*
X113871238Y-104366190D01*
X113823619Y-104342380D01*
X113799809Y-104318571D01*
D17*
X112776000Y-105370380D02*
X112776000Y-105608476D01*
X112537904Y-105513238D02*
X112776000Y-105608476D01*
X113014095Y-105513238D01*
X112633142Y-105798952D02*
X112776000Y-105608476D01*
X112918857Y-105798952D01*
%TO.C,D_PW_2*%
D18*
X109192190Y-118887714D02*
X108692190Y-118887714D01*
X108692190Y-118768666D01*
X108716000Y-118697238D01*
X108763619Y-118649619D01*
X108811238Y-118625809D01*
X108906476Y-118602000D01*
X108977904Y-118602000D01*
X109073142Y-118625809D01*
X109120761Y-118649619D01*
X109168380Y-118697238D01*
X109192190Y-118768666D01*
X109192190Y-118887714D01*
X109239809Y-118506761D02*
X109239809Y-118125809D01*
X109192190Y-118006761D02*
X108692190Y-118006761D01*
X108692190Y-117816285D01*
X108716000Y-117768666D01*
X108739809Y-117744857D01*
X108787428Y-117721047D01*
X108858857Y-117721047D01*
X108906476Y-117744857D01*
X108930285Y-117768666D01*
X108954095Y-117816285D01*
X108954095Y-118006761D01*
X108692190Y-117554380D02*
X109192190Y-117435333D01*
X108835047Y-117340095D01*
X109192190Y-117244857D01*
X108692190Y-117125809D01*
X109239809Y-117054380D02*
X109239809Y-116673428D01*
X108739809Y-116578190D02*
X108716000Y-116554380D01*
X108692190Y-116506761D01*
X108692190Y-116387714D01*
X108716000Y-116340095D01*
X108739809Y-116316285D01*
X108787428Y-116292476D01*
X108835047Y-116292476D01*
X108906476Y-116316285D01*
X109192190Y-116602000D01*
X109192190Y-116292476D01*
%TO.C,L_PW_1*%
X100854000Y-112240190D02*
X100615904Y-112240190D01*
X100615904Y-111740190D01*
X100901619Y-112287809D02*
X101282571Y-112287809D01*
X101401619Y-112240190D02*
X101401619Y-111740190D01*
X101592095Y-111740190D01*
X101639714Y-111764000D01*
X101663523Y-111787809D01*
X101687333Y-111835428D01*
X101687333Y-111906857D01*
X101663523Y-111954476D01*
X101639714Y-111978285D01*
X101592095Y-112002095D01*
X101401619Y-112002095D01*
X101854000Y-111740190D02*
X101973047Y-112240190D01*
X102068285Y-111883047D01*
X102163523Y-112240190D01*
X102282571Y-111740190D01*
X102354000Y-112287809D02*
X102734952Y-112287809D01*
X103115904Y-112240190D02*
X102830190Y-112240190D01*
X102973047Y-112240190D02*
X102973047Y-111740190D01*
X102925428Y-111811619D01*
X102877809Y-111859238D01*
X102830190Y-111883047D01*
%TO.C,Q_PW_1*%
D16*
X109271714Y-109874809D02*
X109224095Y-109851000D01*
X109176476Y-109803380D01*
X109105047Y-109731952D01*
X109057428Y-109708142D01*
X109009809Y-109708142D01*
X109033619Y-109827190D02*
X108986000Y-109803380D01*
X108938380Y-109755761D01*
X108914571Y-109660523D01*
X108914571Y-109493857D01*
X108938380Y-109398619D01*
X108986000Y-109351000D01*
X109033619Y-109327190D01*
X109128857Y-109327190D01*
X109176476Y-109351000D01*
X109224095Y-109398619D01*
X109247904Y-109493857D01*
X109247904Y-109660523D01*
X109224095Y-109755761D01*
X109176476Y-109803380D01*
X109128857Y-109827190D01*
X109033619Y-109827190D01*
X109343142Y-109874809D02*
X109724095Y-109874809D01*
X109843142Y-109827190D02*
X109843142Y-109327190D01*
X110033619Y-109327190D01*
X110081238Y-109351000D01*
X110105047Y-109374809D01*
X110128857Y-109422428D01*
X110128857Y-109493857D01*
X110105047Y-109541476D01*
X110081238Y-109565285D01*
X110033619Y-109589095D01*
X109843142Y-109589095D01*
X110295523Y-109327190D02*
X110414571Y-109827190D01*
X110509809Y-109470047D01*
X110605047Y-109827190D01*
X110724095Y-109327190D01*
X110795523Y-109874809D02*
X111176476Y-109874809D01*
X111557428Y-109827190D02*
X111271714Y-109827190D01*
X111414571Y-109827190D02*
X111414571Y-109327190D01*
X111366952Y-109398619D01*
X111319333Y-109446238D01*
X111271714Y-109470047D01*
D17*
X112776000Y-110196380D02*
X112776000Y-110434476D01*
X112537904Y-110339238D02*
X112776000Y-110434476D01*
X113014095Y-110339238D01*
X112633142Y-110624952D02*
X112776000Y-110434476D01*
X112918857Y-110624952D01*
%TO.C,R_ESP_1*%
D19*
X92797990Y-87173102D02*
X92666756Y-86985626D01*
X92573018Y-87173102D02*
X92573018Y-86779401D01*
X92722999Y-86779401D01*
X92760495Y-86798149D01*
X92779242Y-86816897D01*
X92797990Y-86854392D01*
X92797990Y-86910635D01*
X92779242Y-86948130D01*
X92760495Y-86966878D01*
X92722999Y-86985626D01*
X92573018Y-86985626D01*
X92872981Y-87210598D02*
X93172943Y-87210598D01*
X93266682Y-86966878D02*
X93397915Y-86966878D01*
X93454158Y-87173102D02*
X93266682Y-87173102D01*
X93266682Y-86779401D01*
X93454158Y-86779401D01*
X93604140Y-87154355D02*
X93660383Y-87173102D01*
X93754121Y-87173102D01*
X93791616Y-87154355D01*
X93810364Y-87135607D01*
X93829112Y-87098112D01*
X93829112Y-87060616D01*
X93810364Y-87023121D01*
X93791616Y-87004373D01*
X93754121Y-86985626D01*
X93679130Y-86966878D01*
X93641635Y-86948130D01*
X93622887Y-86929383D01*
X93604140Y-86891887D01*
X93604140Y-86854392D01*
X93622887Y-86816897D01*
X93641635Y-86798149D01*
X93679130Y-86779401D01*
X93772869Y-86779401D01*
X93829112Y-86798149D01*
X93997841Y-87173102D02*
X93997841Y-86779401D01*
X94147822Y-86779401D01*
X94185317Y-86798149D01*
X94204065Y-86816897D01*
X94222813Y-86854392D01*
X94222813Y-86910635D01*
X94204065Y-86948130D01*
X94185317Y-86966878D01*
X94147822Y-86985626D01*
X93997841Y-86985626D01*
X94297803Y-87210598D02*
X94597766Y-87210598D01*
X94897729Y-87173102D02*
X94672757Y-87173102D01*
X94785243Y-87173102D02*
X94785243Y-86779401D01*
X94747747Y-86835644D01*
X94710252Y-86873140D01*
X94672757Y-86891887D01*
%TO.C,R_ESP_2*%
X88396990Y-81805102D02*
X88265756Y-81617626D01*
X88172018Y-81805102D02*
X88172018Y-81411401D01*
X88321999Y-81411401D01*
X88359495Y-81430149D01*
X88378242Y-81448897D01*
X88396990Y-81486392D01*
X88396990Y-81542635D01*
X88378242Y-81580130D01*
X88359495Y-81598878D01*
X88321999Y-81617626D01*
X88172018Y-81617626D01*
X88471981Y-81842598D02*
X88771943Y-81842598D01*
X88865682Y-81598878D02*
X88996915Y-81598878D01*
X89053158Y-81805102D02*
X88865682Y-81805102D01*
X88865682Y-81411401D01*
X89053158Y-81411401D01*
X89203140Y-81786355D02*
X89259383Y-81805102D01*
X89353121Y-81805102D01*
X89390616Y-81786355D01*
X89409364Y-81767607D01*
X89428112Y-81730112D01*
X89428112Y-81692616D01*
X89409364Y-81655121D01*
X89390616Y-81636373D01*
X89353121Y-81617626D01*
X89278130Y-81598878D01*
X89240635Y-81580130D01*
X89221887Y-81561383D01*
X89203140Y-81523887D01*
X89203140Y-81486392D01*
X89221887Y-81448897D01*
X89240635Y-81430149D01*
X89278130Y-81411401D01*
X89371869Y-81411401D01*
X89428112Y-81430149D01*
X89596841Y-81805102D02*
X89596841Y-81411401D01*
X89746822Y-81411401D01*
X89784317Y-81430149D01*
X89803065Y-81448897D01*
X89821813Y-81486392D01*
X89821813Y-81542635D01*
X89803065Y-81580130D01*
X89784317Y-81598878D01*
X89746822Y-81617626D01*
X89596841Y-81617626D01*
X89896803Y-81842598D02*
X90196766Y-81842598D01*
X90271757Y-81448897D02*
X90290504Y-81430149D01*
X90328000Y-81411401D01*
X90421738Y-81411401D01*
X90459233Y-81430149D01*
X90477981Y-81448897D01*
X90496729Y-81486392D01*
X90496729Y-81523887D01*
X90477981Y-81580130D01*
X90253009Y-81805102D01*
X90496729Y-81805102D01*
%TO.C,R_ESP_3*%
X125146102Y-110529009D02*
X124958626Y-110660243D01*
X125146102Y-110753981D02*
X124752401Y-110753981D01*
X124752401Y-110604000D01*
X124771149Y-110566504D01*
X124789897Y-110547757D01*
X124827392Y-110529009D01*
X124883635Y-110529009D01*
X124921130Y-110547757D01*
X124939878Y-110566504D01*
X124958626Y-110604000D01*
X124958626Y-110753981D01*
X125183598Y-110454018D02*
X125183598Y-110154056D01*
X124939878Y-110060317D02*
X124939878Y-109929084D01*
X125146102Y-109872841D02*
X125146102Y-110060317D01*
X124752401Y-110060317D01*
X124752401Y-109872841D01*
X125127355Y-109722859D02*
X125146102Y-109666616D01*
X125146102Y-109572878D01*
X125127355Y-109535383D01*
X125108607Y-109516635D01*
X125071112Y-109497887D01*
X125033616Y-109497887D01*
X124996121Y-109516635D01*
X124977373Y-109535383D01*
X124958626Y-109572878D01*
X124939878Y-109647869D01*
X124921130Y-109685364D01*
X124902383Y-109704112D01*
X124864887Y-109722859D01*
X124827392Y-109722859D01*
X124789897Y-109704112D01*
X124771149Y-109685364D01*
X124752401Y-109647869D01*
X124752401Y-109554130D01*
X124771149Y-109497887D01*
X125146102Y-109329158D02*
X124752401Y-109329158D01*
X124752401Y-109179177D01*
X124771149Y-109141682D01*
X124789897Y-109122934D01*
X124827392Y-109104186D01*
X124883635Y-109104186D01*
X124921130Y-109122934D01*
X124939878Y-109141682D01*
X124958626Y-109179177D01*
X124958626Y-109329158D01*
X125183598Y-109029196D02*
X125183598Y-108729233D01*
X124752401Y-108672990D02*
X124752401Y-108429270D01*
X124902383Y-108560504D01*
X124902383Y-108504261D01*
X124921130Y-108466766D01*
X124939878Y-108448018D01*
X124977373Y-108429270D01*
X125071112Y-108429270D01*
X125108607Y-108448018D01*
X125127355Y-108466766D01*
X125146102Y-108504261D01*
X125146102Y-108616747D01*
X125127355Y-108654242D01*
X125108607Y-108672990D01*
%TO.C,R_ESP_4*%
X125944990Y-105461102D02*
X125813756Y-105273626D01*
X125720018Y-105461102D02*
X125720018Y-105067401D01*
X125869999Y-105067401D01*
X125907495Y-105086149D01*
X125926242Y-105104897D01*
X125944990Y-105142392D01*
X125944990Y-105198635D01*
X125926242Y-105236130D01*
X125907495Y-105254878D01*
X125869999Y-105273626D01*
X125720018Y-105273626D01*
X126019981Y-105498598D02*
X126319943Y-105498598D01*
X126413682Y-105254878D02*
X126544915Y-105254878D01*
X126601158Y-105461102D02*
X126413682Y-105461102D01*
X126413682Y-105067401D01*
X126601158Y-105067401D01*
X126751140Y-105442355D02*
X126807383Y-105461102D01*
X126901121Y-105461102D01*
X126938616Y-105442355D01*
X126957364Y-105423607D01*
X126976112Y-105386112D01*
X126976112Y-105348616D01*
X126957364Y-105311121D01*
X126938616Y-105292373D01*
X126901121Y-105273626D01*
X126826130Y-105254878D01*
X126788635Y-105236130D01*
X126769887Y-105217383D01*
X126751140Y-105179887D01*
X126751140Y-105142392D01*
X126769887Y-105104897D01*
X126788635Y-105086149D01*
X126826130Y-105067401D01*
X126919869Y-105067401D01*
X126976112Y-105086149D01*
X127144841Y-105461102D02*
X127144841Y-105067401D01*
X127294822Y-105067401D01*
X127332317Y-105086149D01*
X127351065Y-105104897D01*
X127369813Y-105142392D01*
X127369813Y-105198635D01*
X127351065Y-105236130D01*
X127332317Y-105254878D01*
X127294822Y-105273626D01*
X127144841Y-105273626D01*
X127444803Y-105498598D02*
X127744766Y-105498598D01*
X128007233Y-105198635D02*
X128007233Y-105461102D01*
X127913495Y-105048654D02*
X127819757Y-105329869D01*
X128063476Y-105329869D01*
%TO.C,R_ESP_5*%
X131659990Y-122606102D02*
X131528756Y-122418626D01*
X131435018Y-122606102D02*
X131435018Y-122212401D01*
X131584999Y-122212401D01*
X131622495Y-122231149D01*
X131641242Y-122249897D01*
X131659990Y-122287392D01*
X131659990Y-122343635D01*
X131641242Y-122381130D01*
X131622495Y-122399878D01*
X131584999Y-122418626D01*
X131435018Y-122418626D01*
X131734981Y-122643598D02*
X132034943Y-122643598D01*
X132128682Y-122399878D02*
X132259915Y-122399878D01*
X132316158Y-122606102D02*
X132128682Y-122606102D01*
X132128682Y-122212401D01*
X132316158Y-122212401D01*
X132466140Y-122587355D02*
X132522383Y-122606102D01*
X132616121Y-122606102D01*
X132653616Y-122587355D01*
X132672364Y-122568607D01*
X132691112Y-122531112D01*
X132691112Y-122493616D01*
X132672364Y-122456121D01*
X132653616Y-122437373D01*
X132616121Y-122418626D01*
X132541130Y-122399878D01*
X132503635Y-122381130D01*
X132484887Y-122362383D01*
X132466140Y-122324887D01*
X132466140Y-122287392D01*
X132484887Y-122249897D01*
X132503635Y-122231149D01*
X132541130Y-122212401D01*
X132634869Y-122212401D01*
X132691112Y-122231149D01*
X132859841Y-122606102D02*
X132859841Y-122212401D01*
X133009822Y-122212401D01*
X133047317Y-122231149D01*
X133066065Y-122249897D01*
X133084813Y-122287392D01*
X133084813Y-122343635D01*
X133066065Y-122381130D01*
X133047317Y-122399878D01*
X133009822Y-122418626D01*
X132859841Y-122418626D01*
X133159803Y-122643598D02*
X133459766Y-122643598D01*
X133740981Y-122212401D02*
X133553504Y-122212401D01*
X133534757Y-122399878D01*
X133553504Y-122381130D01*
X133591000Y-122362383D01*
X133684738Y-122362383D01*
X133722233Y-122381130D01*
X133740981Y-122399878D01*
X133759729Y-122437373D01*
X133759729Y-122531112D01*
X133740981Y-122568607D01*
X133722233Y-122587355D01*
X133684738Y-122606102D01*
X133591000Y-122606102D01*
X133553504Y-122587355D01*
X133534757Y-122568607D01*
%TO.C,R_IMU_1*%
X98603102Y-107824514D02*
X98415626Y-107955747D01*
X98603102Y-108049486D02*
X98209401Y-108049486D01*
X98209401Y-107899504D01*
X98228149Y-107862009D01*
X98246897Y-107843261D01*
X98284392Y-107824514D01*
X98340635Y-107824514D01*
X98378130Y-107843261D01*
X98396878Y-107862009D01*
X98415626Y-107899504D01*
X98415626Y-108049486D01*
X98640598Y-107749523D02*
X98640598Y-107449560D01*
X98603102Y-107355822D02*
X98209401Y-107355822D01*
X98603102Y-107168345D02*
X98209401Y-107168345D01*
X98490616Y-107037112D01*
X98209401Y-106905878D01*
X98603102Y-106905878D01*
X98209401Y-106718401D02*
X98528112Y-106718401D01*
X98565607Y-106699654D01*
X98584355Y-106680906D01*
X98603102Y-106643411D01*
X98603102Y-106568420D01*
X98584355Y-106530925D01*
X98565607Y-106512177D01*
X98528112Y-106493429D01*
X98209401Y-106493429D01*
X98640598Y-106399691D02*
X98640598Y-106099728D01*
X98603102Y-105799766D02*
X98603102Y-106024738D01*
X98603102Y-105912252D02*
X98209401Y-105912252D01*
X98265644Y-105949747D01*
X98303140Y-105987242D01*
X98321887Y-106024738D01*
%TO.C,R_IMU_2*%
X98730102Y-111507514D02*
X98542626Y-111638747D01*
X98730102Y-111732486D02*
X98336401Y-111732486D01*
X98336401Y-111582504D01*
X98355149Y-111545009D01*
X98373897Y-111526261D01*
X98411392Y-111507514D01*
X98467635Y-111507514D01*
X98505130Y-111526261D01*
X98523878Y-111545009D01*
X98542626Y-111582504D01*
X98542626Y-111732486D01*
X98767598Y-111432523D02*
X98767598Y-111132560D01*
X98730102Y-111038822D02*
X98336401Y-111038822D01*
X98730102Y-110851345D02*
X98336401Y-110851345D01*
X98617616Y-110720112D01*
X98336401Y-110588878D01*
X98730102Y-110588878D01*
X98336401Y-110401401D02*
X98655112Y-110401401D01*
X98692607Y-110382654D01*
X98711355Y-110363906D01*
X98730102Y-110326411D01*
X98730102Y-110251420D01*
X98711355Y-110213925D01*
X98692607Y-110195177D01*
X98655112Y-110176429D01*
X98336401Y-110176429D01*
X98767598Y-110082691D02*
X98767598Y-109782728D01*
X98373897Y-109707738D02*
X98355149Y-109688990D01*
X98336401Y-109651495D01*
X98336401Y-109557756D01*
X98355149Y-109520261D01*
X98373897Y-109501513D01*
X98411392Y-109482766D01*
X98448887Y-109482766D01*
X98505130Y-109501513D01*
X98730102Y-109726485D01*
X98730102Y-109482766D01*
%TO.C,R_PW_1*%
D18*
X110335190Y-121186000D02*
X110097095Y-121352666D01*
X110335190Y-121471714D02*
X109835190Y-121471714D01*
X109835190Y-121281238D01*
X109859000Y-121233619D01*
X109882809Y-121209809D01*
X109930428Y-121186000D01*
X110001857Y-121186000D01*
X110049476Y-121209809D01*
X110073285Y-121233619D01*
X110097095Y-121281238D01*
X110097095Y-121471714D01*
X110382809Y-121090761D02*
X110382809Y-120709809D01*
X110335190Y-120590761D02*
X109835190Y-120590761D01*
X109835190Y-120400285D01*
X109859000Y-120352666D01*
X109882809Y-120328857D01*
X109930428Y-120305047D01*
X110001857Y-120305047D01*
X110049476Y-120328857D01*
X110073285Y-120352666D01*
X110097095Y-120400285D01*
X110097095Y-120590761D01*
X109835190Y-120138380D02*
X110335190Y-120019333D01*
X109978047Y-119924095D01*
X110335190Y-119828857D01*
X109835190Y-119709809D01*
X110382809Y-119638380D02*
X110382809Y-119257428D01*
X110335190Y-118876476D02*
X110335190Y-119162190D01*
X110335190Y-119019333D02*
X109835190Y-119019333D01*
X109906619Y-119066952D01*
X109954238Y-119114571D01*
X109978047Y-119162190D01*
%TO.C,R_PW_2*%
D19*
X90525598Y-120828102D02*
X90394364Y-120640626D01*
X90300626Y-120828102D02*
X90300626Y-120434401D01*
X90450607Y-120434401D01*
X90488102Y-120453149D01*
X90506850Y-120471897D01*
X90525598Y-120509392D01*
X90525598Y-120565635D01*
X90506850Y-120603130D01*
X90488102Y-120621878D01*
X90450607Y-120640626D01*
X90300626Y-120640626D01*
X90600588Y-120865598D02*
X90900551Y-120865598D01*
X90994289Y-120828102D02*
X90994289Y-120434401D01*
X91144271Y-120434401D01*
X91181766Y-120453149D01*
X91200514Y-120471897D01*
X91219261Y-120509392D01*
X91219261Y-120565635D01*
X91200514Y-120603130D01*
X91181766Y-120621878D01*
X91144271Y-120640626D01*
X90994289Y-120640626D01*
X91350495Y-120434401D02*
X91444233Y-120828102D01*
X91519224Y-120546887D01*
X91594215Y-120828102D01*
X91687953Y-120434401D01*
X91744196Y-120865598D02*
X92044159Y-120865598D01*
X92119149Y-120471897D02*
X92137897Y-120453149D01*
X92175392Y-120434401D01*
X92269131Y-120434401D01*
X92306626Y-120453149D01*
X92325374Y-120471897D01*
X92344121Y-120509392D01*
X92344121Y-120546887D01*
X92325374Y-120603130D01*
X92100402Y-120828102D01*
X92344121Y-120828102D01*
%TO.C,R_PW_3*%
X90652598Y-113970102D02*
X90521364Y-113782626D01*
X90427626Y-113970102D02*
X90427626Y-113576401D01*
X90577607Y-113576401D01*
X90615102Y-113595149D01*
X90633850Y-113613897D01*
X90652598Y-113651392D01*
X90652598Y-113707635D01*
X90633850Y-113745130D01*
X90615102Y-113763878D01*
X90577607Y-113782626D01*
X90427626Y-113782626D01*
X90727588Y-114007598D02*
X91027551Y-114007598D01*
X91121289Y-113970102D02*
X91121289Y-113576401D01*
X91271271Y-113576401D01*
X91308766Y-113595149D01*
X91327514Y-113613897D01*
X91346261Y-113651392D01*
X91346261Y-113707635D01*
X91327514Y-113745130D01*
X91308766Y-113763878D01*
X91271271Y-113782626D01*
X91121289Y-113782626D01*
X91477495Y-113576401D02*
X91571233Y-113970102D01*
X91646224Y-113688887D01*
X91721215Y-113970102D01*
X91814953Y-113576401D01*
X91871196Y-114007598D02*
X92171159Y-114007598D01*
X92227402Y-113576401D02*
X92471121Y-113576401D01*
X92339888Y-113726383D01*
X92396131Y-113726383D01*
X92433626Y-113745130D01*
X92452374Y-113763878D01*
X92471121Y-113801373D01*
X92471121Y-113895112D01*
X92452374Y-113932607D01*
X92433626Y-113951355D01*
X92396131Y-113970102D01*
X92283645Y-113970102D01*
X92246149Y-113951355D01*
X92227402Y-113932607D01*
%TO.C,R_PW_4*%
X93616102Y-119742402D02*
X93428626Y-119873635D01*
X93616102Y-119967374D02*
X93222401Y-119967374D01*
X93222401Y-119817392D01*
X93241149Y-119779897D01*
X93259897Y-119761149D01*
X93297392Y-119742402D01*
X93353635Y-119742402D01*
X93391130Y-119761149D01*
X93409878Y-119779897D01*
X93428626Y-119817392D01*
X93428626Y-119967374D01*
X93653598Y-119667411D02*
X93653598Y-119367448D01*
X93616102Y-119273710D02*
X93222401Y-119273710D01*
X93222401Y-119123729D01*
X93241149Y-119086233D01*
X93259897Y-119067486D01*
X93297392Y-119048738D01*
X93353635Y-119048738D01*
X93391130Y-119067486D01*
X93409878Y-119086233D01*
X93428626Y-119123729D01*
X93428626Y-119273710D01*
X93222401Y-118917504D02*
X93616102Y-118823766D01*
X93334887Y-118748775D01*
X93616102Y-118673785D01*
X93222401Y-118580046D01*
X93653598Y-118523803D02*
X93653598Y-118223841D01*
X93353635Y-117961373D02*
X93616102Y-117961373D01*
X93203654Y-118055112D02*
X93484869Y-118148850D01*
X93484869Y-117905130D01*
%TO.C,SW_ESP_1*%
D16*
X94405714Y-78525657D02*
X94491428Y-78554228D01*
X94634285Y-78554228D01*
X94691428Y-78525657D01*
X94720000Y-78497085D01*
X94748571Y-78439942D01*
X94748571Y-78382800D01*
X94720000Y-78325657D01*
X94691428Y-78297085D01*
X94634285Y-78268514D01*
X94520000Y-78239942D01*
X94462857Y-78211371D01*
X94434285Y-78182800D01*
X94405714Y-78125657D01*
X94405714Y-78068514D01*
X94434285Y-78011371D01*
X94462857Y-77982800D01*
X94520000Y-77954228D01*
X94662857Y-77954228D01*
X94748571Y-77982800D01*
X94948571Y-77954228D02*
X95091428Y-78554228D01*
X95205714Y-78125657D01*
X95320000Y-78554228D01*
X95462857Y-77954228D01*
X95548571Y-78611371D02*
X96005714Y-78611371D01*
X96148571Y-78239942D02*
X96348571Y-78239942D01*
X96434285Y-78554228D02*
X96148571Y-78554228D01*
X96148571Y-77954228D01*
X96434285Y-77954228D01*
X96662857Y-78525657D02*
X96748571Y-78554228D01*
X96891428Y-78554228D01*
X96948571Y-78525657D01*
X96977142Y-78497085D01*
X97005714Y-78439942D01*
X97005714Y-78382800D01*
X96977142Y-78325657D01*
X96948571Y-78297085D01*
X96891428Y-78268514D01*
X96777142Y-78239942D01*
X96720000Y-78211371D01*
X96691428Y-78182800D01*
X96662857Y-78125657D01*
X96662857Y-78068514D01*
X96691428Y-78011371D01*
X96720000Y-77982800D01*
X96777142Y-77954228D01*
X96920000Y-77954228D01*
X97005714Y-77982800D01*
X97262857Y-78554228D02*
X97262857Y-77954228D01*
X97491428Y-77954228D01*
X97548571Y-77982800D01*
X97577142Y-78011371D01*
X97605714Y-78068514D01*
X97605714Y-78154228D01*
X97577142Y-78211371D01*
X97548571Y-78239942D01*
X97491428Y-78268514D01*
X97262857Y-78268514D01*
X97720000Y-78611371D02*
X98177142Y-78611371D01*
X98634285Y-78554228D02*
X98291428Y-78554228D01*
X98462857Y-78554228D02*
X98462857Y-77954228D01*
X98405714Y-78039942D01*
X98348571Y-78097085D01*
X98291428Y-78125657D01*
D17*
X96647000Y-81240380D02*
X96647000Y-81478476D01*
X96408904Y-81383238D02*
X96647000Y-81478476D01*
X96885095Y-81383238D01*
X96504142Y-81668952D02*
X96647000Y-81478476D01*
X96789857Y-81668952D01*
D10*
X98118704Y-84713771D02*
X98452038Y-84713771D01*
X98594895Y-85237580D02*
X98118704Y-85237580D01*
X98118704Y-84237580D01*
X98594895Y-84237580D01*
X99023466Y-85237580D02*
X99023466Y-84237580D01*
X99594895Y-85237580D01*
X99594895Y-84237580D01*
%TO.C,SW_ESP_2*%
D16*
X129102114Y-109310457D02*
X129187828Y-109339028D01*
X129330685Y-109339028D01*
X129387828Y-109310457D01*
X129416400Y-109281885D01*
X129444971Y-109224742D01*
X129444971Y-109167600D01*
X129416400Y-109110457D01*
X129387828Y-109081885D01*
X129330685Y-109053314D01*
X129216400Y-109024742D01*
X129159257Y-108996171D01*
X129130685Y-108967600D01*
X129102114Y-108910457D01*
X129102114Y-108853314D01*
X129130685Y-108796171D01*
X129159257Y-108767600D01*
X129216400Y-108739028D01*
X129359257Y-108739028D01*
X129444971Y-108767600D01*
X129644971Y-108739028D02*
X129787828Y-109339028D01*
X129902114Y-108910457D01*
X130016400Y-109339028D01*
X130159257Y-108739028D01*
X130244971Y-109396171D02*
X130702114Y-109396171D01*
X130844971Y-109024742D02*
X131044971Y-109024742D01*
X131130685Y-109339028D02*
X130844971Y-109339028D01*
X130844971Y-108739028D01*
X131130685Y-108739028D01*
X131359257Y-109310457D02*
X131444971Y-109339028D01*
X131587828Y-109339028D01*
X131644971Y-109310457D01*
X131673542Y-109281885D01*
X131702114Y-109224742D01*
X131702114Y-109167600D01*
X131673542Y-109110457D01*
X131644971Y-109081885D01*
X131587828Y-109053314D01*
X131473542Y-109024742D01*
X131416400Y-108996171D01*
X131387828Y-108967600D01*
X131359257Y-108910457D01*
X131359257Y-108853314D01*
X131387828Y-108796171D01*
X131416400Y-108767600D01*
X131473542Y-108739028D01*
X131616400Y-108739028D01*
X131702114Y-108767600D01*
X131959257Y-109339028D02*
X131959257Y-108739028D01*
X132187828Y-108739028D01*
X132244971Y-108767600D01*
X132273542Y-108796171D01*
X132302114Y-108853314D01*
X132302114Y-108939028D01*
X132273542Y-108996171D01*
X132244971Y-109024742D01*
X132187828Y-109053314D01*
X131959257Y-109053314D01*
X132416400Y-109396171D02*
X132873542Y-109396171D01*
X132987828Y-108796171D02*
X133016400Y-108767600D01*
X133073542Y-108739028D01*
X133216400Y-108739028D01*
X133273542Y-108767600D01*
X133302114Y-108796171D01*
X133330685Y-108853314D01*
X133330685Y-108910457D01*
X133302114Y-108996171D01*
X132959257Y-109339028D01*
X133330685Y-109339028D01*
D17*
X131191000Y-111593380D02*
X131191000Y-111831476D01*
X130952904Y-111736238D02*
X131191000Y-111831476D01*
X131429095Y-111736238D01*
X131048142Y-112021952D02*
X131191000Y-111831476D01*
X131333857Y-112021952D01*
D10*
X129927504Y-115971580D02*
X129594171Y-115495390D01*
X129356076Y-115971580D02*
X129356076Y-114971580D01*
X129737028Y-114971580D01*
X129832266Y-115019200D01*
X129879885Y-115066819D01*
X129927504Y-115162057D01*
X129927504Y-115304914D01*
X129879885Y-115400152D01*
X129832266Y-115447771D01*
X129737028Y-115495390D01*
X129356076Y-115495390D01*
X130737028Y-115923961D02*
X130641790Y-115971580D01*
X130451314Y-115971580D01*
X130356076Y-115923961D01*
X130308457Y-115828723D01*
X130308457Y-115447771D01*
X130356076Y-115352533D01*
X130451314Y-115304914D01*
X130641790Y-115304914D01*
X130737028Y-115352533D01*
X130784647Y-115447771D01*
X130784647Y-115543009D01*
X130308457Y-115638247D01*
X131165600Y-115923961D02*
X131260838Y-115971580D01*
X131451314Y-115971580D01*
X131546552Y-115923961D01*
X131594171Y-115828723D01*
X131594171Y-115781104D01*
X131546552Y-115685866D01*
X131451314Y-115638247D01*
X131308457Y-115638247D01*
X131213219Y-115590628D01*
X131165600Y-115495390D01*
X131165600Y-115447771D01*
X131213219Y-115352533D01*
X131308457Y-115304914D01*
X131451314Y-115304914D01*
X131546552Y-115352533D01*
X132403695Y-115923961D02*
X132308457Y-115971580D01*
X132117980Y-115971580D01*
X132022742Y-115923961D01*
X131975123Y-115828723D01*
X131975123Y-115447771D01*
X132022742Y-115352533D01*
X132117980Y-115304914D01*
X132308457Y-115304914D01*
X132403695Y-115352533D01*
X132451314Y-115447771D01*
X132451314Y-115543009D01*
X131975123Y-115638247D01*
X132737028Y-115304914D02*
X133117980Y-115304914D01*
X132879885Y-114971580D02*
X132879885Y-115828723D01*
X132927504Y-115923961D01*
X133022742Y-115971580D01*
X133117980Y-115971580D01*
%TO.C,U_IMU_1*%
D19*
X102792571Y-99840342D02*
X102792571Y-100228914D01*
X102815428Y-100274628D01*
X102838285Y-100297485D01*
X102884000Y-100320342D01*
X102975428Y-100320342D01*
X103021142Y-100297485D01*
X103044000Y-100274628D01*
X103066857Y-100228914D01*
X103066857Y-99840342D01*
X103181142Y-100366057D02*
X103546857Y-100366057D01*
X103661142Y-100320342D02*
X103661142Y-99840342D01*
X103889714Y-100320342D02*
X103889714Y-99840342D01*
X104049714Y-100183200D01*
X104209714Y-99840342D01*
X104209714Y-100320342D01*
X104438285Y-99840342D02*
X104438285Y-100228914D01*
X104461142Y-100274628D01*
X104484000Y-100297485D01*
X104529714Y-100320342D01*
X104621142Y-100320342D01*
X104666857Y-100297485D01*
X104689714Y-100274628D01*
X104712571Y-100228914D01*
X104712571Y-99840342D01*
X104826857Y-100366057D02*
X105192571Y-100366057D01*
X105558285Y-100320342D02*
X105284000Y-100320342D01*
X105421142Y-100320342D02*
X105421142Y-99840342D01*
X105375428Y-99908914D01*
X105329714Y-99954628D01*
X105284000Y-99977485D01*
%TO.C,U_CN_1*%
D10*
X117087904Y-120110304D02*
X117087904Y-120757923D01*
X117126000Y-120834114D01*
X117164095Y-120872209D01*
X117240285Y-120910304D01*
X117392666Y-120910304D01*
X117468857Y-120872209D01*
X117506952Y-120834114D01*
X117545047Y-120757923D01*
X117545047Y-120110304D01*
X117735523Y-120986495D02*
X118345047Y-120986495D01*
X118992666Y-120834114D02*
X118954571Y-120872209D01*
X118840285Y-120910304D01*
X118764095Y-120910304D01*
X118649809Y-120872209D01*
X118573619Y-120796019D01*
X118535523Y-120719828D01*
X118497428Y-120567447D01*
X118497428Y-120453161D01*
X118535523Y-120300780D01*
X118573619Y-120224590D01*
X118649809Y-120148400D01*
X118764095Y-120110304D01*
X118840285Y-120110304D01*
X118954571Y-120148400D01*
X118992666Y-120186495D01*
X119335523Y-120910304D02*
X119335523Y-120110304D01*
X119792666Y-120910304D01*
X119792666Y-120110304D01*
X119983142Y-120986495D02*
X120592666Y-120986495D01*
X121202190Y-120910304D02*
X120745047Y-120910304D01*
X120973619Y-120910304D02*
X120973619Y-120110304D01*
X120897428Y-120224590D01*
X120821238Y-120300780D01*
X120745047Y-120338876D01*
%TD*%
M02*
